M48
; DRILL file {KiCad (6.0.7)} date Wed Oct 19 23:26:18 2022
; FORMAT={-:-/ absolute / metric / decimal}
; #@! TF.CreationDate,2022-10-19T23:26:18-04:00
; #@! TF.GenerationSoftware,Kicad,Pcbnew,(6.0.7)
; #@! TF.FileFunction,Plated,1,4,PTH
FMAT,2
METRIC
; #@! TA.AperFunction,Plated,PTH,ComponentDrill
T1C0.203
; #@! TA.AperFunction,Plated,PTH,ComponentDrill
T2C0.254
; #@! TA.AperFunction,Plated,PTH,ViaDrill
T3C0.300
; #@! TA.AperFunction,Plated,PTH,ViaDrill
T4C0.400
; #@! TA.AperFunction,Plated,PTH,ComponentDrill
T5C0.600
; #@! TA.AperFunction,Plated,PTH,ComponentDrill
T6C0.650
; #@! TA.AperFunction,Plated,PTH,ComponentDrill
T7C1.000
%
G90
G05
T1
X102.875Y-41.396
X102.875Y-43.004
X104.396Y-39.875
X104.396Y-41.396
X104.396Y-43.004
X104.396Y-44.525
X106.004Y-39.875
X106.004Y-41.396
X106.004Y-43.004
X106.004Y-44.525
X107.525Y-41.396
X107.525Y-43.004
T2
X89.571Y-31.056
X89.571Y-31.844
X90.359Y-31.056
X90.359Y-31.844
X104.006Y-26.213
X104.006Y-27.0
X104.006Y-27.787
X104.794Y-26.213
X104.794Y-27.0
X104.794Y-27.787
T3
X83.4Y-62.4
X83.5Y-47.4
X83.5Y-51.2
X83.7Y-73.332
X83.7Y-77.032
X83.7Y-79.733
X83.9Y-84.733
X83.9Y-89.233
X84.2Y-53.85
X84.7Y-42.5
X84.7Y-75.032
X84.9Y-37.5
X85.0Y-55.75
X85.0Y-86.832
X85.4Y-60.1
X85.5Y-49.75
X85.8Y-38.4
X86.0Y-78.432
X86.2Y-53.95
X86.3Y-40.8
X86.5Y-27.3
X86.5Y-36.7
X86.9Y-73.432
X86.9Y-89.733
X87.0Y-33.2
X87.124Y-36.0
X87.5Y-83.432
X87.9Y-36.8
X88.0Y-34.2
X88.3Y-58.0
X88.4Y-33.2
X88.5Y-79.632
X88.509Y-30.109
X88.599Y-36.001
X88.6Y-48.6
X88.6Y-51.55
X89.15Y-54.15
X89.3Y-74.632
X89.5Y-41.4
X89.6Y-62.4
X89.9Y-35.3
X90.6Y-88.432
X90.8Y-84.532
X91.35Y-51.3
X91.7Y-78.432
X92.0Y-28.5
X92.4Y-73.332
X92.5Y-54.8
X92.7Y-30.7
X93.1Y-89.632
X93.2Y-36.2
X93.6Y-45.8
X93.7Y-24.0
X93.9Y-59.7
X94.1Y-28.2
X94.2Y-38.4
X94.3Y-41.3
X94.3Y-83.432
X94.75Y-48.5
X94.9Y-21.4
X94.9Y-33.131
X94.9Y-62.6
X95.2Y-40.1
X95.3Y-51.35
X95.5Y-55.95
X95.6Y-79.733
X95.8Y-74.632
X96.081Y-24.649
X96.5Y-41.3
X96.6Y-37.3
X97.0Y-88.432
X97.2Y-84.733
X97.6Y-62.7
X98.2Y-46.8
X98.2Y-54.2
X98.3Y-49.5
X98.45Y-41.0
X99.1Y-23.999
X99.2Y-24.8
X99.2Y-78.332
X99.25Y-49.0
X99.477Y-38.1
X99.5Y-59.5
X99.9Y-73.332
X100.2Y-83.432
X100.5Y-89.733
X100.658Y-43.342
X100.8Y-30.2
X100.8Y-41.7
X100.848Y-40.803
X100.88Y-45.72
X101.7Y-24.7
X101.7Y-25.5
X101.7Y-26.3
X101.8Y-66.733
X101.8Y-72.032
X102.0Y-31.9
X102.6Y-79.632
X102.8Y-84.632
X102.9Y-74.532
X103.0Y-30.6
X103.0Y-69.332
X103.7Y-30.6
X104.4Y-30.6
X105.0Y-52.75
X105.2Y-47.974
X105.3Y-63.0
X105.6Y-83.432
X105.8Y-38.0
X105.9Y-57.15
X106.1Y-61.0
X106.2Y-78.332
X106.3Y-24.7
X106.5Y-30.6
X106.784Y-37.982
X106.9Y-55.5
X107.0Y-34.948
X107.2Y-30.6
X107.583Y-37.953
X107.9Y-30.6
X108.326Y-38.25
X108.4Y-46.6
X108.45Y-48.5
X108.5Y-24.0
X108.5Y-84.632
X108.8Y-60.6
X109.2Y-25.0
X109.2Y-29.9
X109.2Y-79.733
X109.388Y-43.071
X109.85Y-56.3
X109.95Y-37.25
X109.95Y-54.15
X110.1Y-48.4
X110.2Y-43.4
X110.423Y-33.973
X110.6Y-63.1
X110.65Y-34.948
X110.7Y-44.2
X110.8Y-41.609
X110.8Y-42.7
X110.834Y-38.134
X111.0Y-46.6
X111.158Y-39.758
X111.2Y-83.432
X111.45Y-34.948
X111.484Y-37.484
X111.9Y-78.332
X112.099Y-41.127
X112.099Y-43.1
X112.3Y-42.2
X112.3Y-61.0
X112.6Y-39.2
X112.7Y-37.25
X112.912Y-51.188
X113.1Y-55.3
X113.5Y-50.0
X113.712Y-20.655
X114.424Y-35.375
X114.5Y-62.8
X114.5Y-79.733
X114.6Y-84.632
X114.9Y-60.6
X115.5Y-48.5
X115.7Y-47.5
X115.841Y-44.306
X116.0Y-36.8
X116.337Y-45.887
X116.7Y-50.7
X116.9Y-83.432
X117.4Y-78.432
X117.7Y-63.2
X118.0Y-47.75
X118.3Y-23.45
X118.4Y-27.95
X118.7Y-79.632
X119.65Y-54.15
X119.7Y-50.1
X119.7Y-81.532
X119.876Y-40.399
X120.2Y-41.25
X120.9Y-84.532
X121.0Y-55.5
X121.0Y-78.432
X121.55Y-22.9
X121.55Y-26.9
X121.6Y-63.5
X121.9Y-56.4
X122.0Y-61.7
X122.2Y-54.4
T4
X91.95Y-23.75
X95.1Y-23.1
X97.7Y-38.75
X99.95Y-40.75
X100.45Y-53.75
X101.2Y-34.3
X103.7Y-51.75
X104.5Y-35.697
X104.7Y-56.2
X107.45Y-46.5
X108.25Y-20.625
X109.7Y-23.0
X110.0Y-20.75
X111.7Y-32.5
X112.2Y-45.0
X112.45Y-28.25
X112.73Y-50.359
X113.438Y-36.512
X113.9Y-27.8
X113.95Y-29.25
X113.955Y-22.85
X114.95Y-33.25
X115.2Y-40.0
X115.2Y-41.75
X116.025Y-53.425
X116.6Y-26.3
X116.8Y-25.2
X117.2Y-40.0
X117.2Y-41.75
X118.45Y-51.5
X119.45Y-38.25
X120.2Y-45.5
X120.45Y-36.25
X121.7Y-38.0
T6
X116.55Y-32.855
X116.55Y-34.125
X117.82Y-32.855
X117.82Y-34.125
X119.09Y-32.855
X119.09Y-34.125
X120.36Y-32.855
X120.36Y-34.125
X121.63Y-32.855
X121.63Y-34.125
T7
X83.907Y-29.751
X83.907Y-32.291
X83.907Y-34.831
X97.68Y-21.625
X100.22Y-21.625
X102.76Y-21.625
X105.3Y-21.625
T5
X115.145Y-21.08G85X116.245Y-21.08
G05
X115.145Y-29.72G85X116.245Y-29.72
G05
X119.575Y-21.08G85X120.175Y-21.08
G05
X119.575Y-29.72G85X120.175Y-29.72
G05
T0
M30
