%TF.GenerationSoftware,KiCad,Pcbnew,(6.0.8)*%
%TF.CreationDate,2022-10-20T09:57:02-04:00*%
%TF.ProjectId,Emrick,456d7269-636b-42e6-9b69-6361645f7063,1*%
%TF.SameCoordinates,Original*%
%TF.FileFunction,Copper,L4,Bot*%
%TF.FilePolarity,Positive*%
%FSLAX46Y46*%
G04 Gerber Fmt 4.6, Leading zero omitted, Abs format (unit mm)*
G04 Created by KiCad (PCBNEW (6.0.8)) date 2022-10-20 09:57:02*
%MOMM*%
%LPD*%
G01*
G04 APERTURE LIST*
G04 Aperture macros list*
%AMRoundRect*
0 Rectangle with rounded corners*
0 $1 Rounding radius*
0 $2 $3 $4 $5 $6 $7 $8 $9 X,Y pos of 4 corners*
0 Add a 4 corners polygon primitive as box body*
4,1,4,$2,$3,$4,$5,$6,$7,$8,$9,$2,$3,0*
0 Add four circle primitives for the rounded corners*
1,1,$1+$1,$2,$3*
1,1,$1+$1,$4,$5*
1,1,$1+$1,$6,$7*
1,1,$1+$1,$8,$9*
0 Add four rect primitives between the rounded corners*
20,1,$1+$1,$2,$3,$4,$5,0*
20,1,$1+$1,$4,$5,$6,$7,0*
20,1,$1+$1,$6,$7,$8,$9,0*
20,1,$1+$1,$8,$9,$2,$3,0*%
G04 Aperture macros list end*
%TA.AperFunction,ComponentPad*%
%ADD10C,0.508000*%
%TD*%
%TA.AperFunction,ComponentPad*%
%ADD11C,0.499999*%
%TD*%
%TA.AperFunction,ComponentPad*%
%ADD12R,1.000000X1.000000*%
%TD*%
%TA.AperFunction,ComponentPad*%
%ADD13O,1.000000X1.000000*%
%TD*%
%TA.AperFunction,ComponentPad*%
%ADD14R,1.700000X1.700000*%
%TD*%
%TA.AperFunction,ComponentPad*%
%ADD15O,1.700000X1.700000*%
%TD*%
%TA.AperFunction,ComponentPad*%
%ADD16O,1.600000X1.000000*%
%TD*%
%TA.AperFunction,ComponentPad*%
%ADD17O,2.100000X1.000000*%
%TD*%
%TA.AperFunction,SMDPad,CuDef*%
%ADD18R,1.900000X2.500000*%
%TD*%
%TA.AperFunction,SMDPad,CuDef*%
%ADD19R,0.279400X0.508000*%
%TD*%
%TA.AperFunction,SMDPad,CuDef*%
%ADD20R,0.381000X0.508000*%
%TD*%
%TA.AperFunction,SMDPad,CuDef*%
%ADD21RoundRect,0.200000X-0.275000X0.200000X-0.275000X-0.200000X0.275000X-0.200000X0.275000X0.200000X0*%
%TD*%
%TA.AperFunction,SMDPad,CuDef*%
%ADD22R,0.660400X1.041400*%
%TD*%
%TA.AperFunction,SMDPad,CuDef*%
%ADD23R,0.762000X1.854200*%
%TD*%
%TA.AperFunction,ViaPad*%
%ADD24C,0.600000*%
%TD*%
%TA.AperFunction,ViaPad*%
%ADD25C,0.700000*%
%TD*%
%TA.AperFunction,ViaPad*%
%ADD26C,0.800000*%
%TD*%
%TA.AperFunction,Conductor*%
%ADD27C,0.250000*%
%TD*%
%TA.AperFunction,Conductor*%
%ADD28C,0.300000*%
%TD*%
%TA.AperFunction,Conductor*%
%ADD29C,0.500000*%
%TD*%
%TA.AperFunction,Conductor*%
%ADD30C,0.800000*%
%TD*%
G04 APERTURE END LIST*
%TO.C,AE1*%
G36*
X102640125Y-64679783D02*
G01*
X102664584Y-64832395D01*
X102851244Y-65296085D01*
X103061459Y-65526250D01*
X103209949Y-65737580D01*
X103317671Y-66136404D01*
X103390471Y-66795289D01*
X103434194Y-67786798D01*
X103454684Y-69183496D01*
X103458334Y-70453439D01*
X103458334Y-75051251D01*
X85466667Y-75051251D01*
X85466667Y-77961667D01*
X121450000Y-77961667D01*
X121450000Y-85105417D01*
X85466667Y-85105417D01*
X85466667Y-88015834D01*
X101606250Y-88015834D01*
X101606250Y-90132500D01*
X83350000Y-90132500D01*
X83350000Y-82988751D01*
X119333334Y-82988751D01*
X119333334Y-80078334D01*
X83350000Y-80078334D01*
X83350000Y-72934584D01*
X101341667Y-72934584D01*
X101341667Y-69395106D01*
X101353469Y-67885659D01*
X101394473Y-66823085D01*
X101473081Y-66125502D01*
X101597691Y-65711025D01*
X101738542Y-65526250D01*
X102074763Y-65075789D01*
X102135417Y-64832395D01*
X102289215Y-64501610D01*
X102400000Y-64467917D01*
X102640125Y-64679783D01*
G37*
%TD*%
D10*
%TO.P,U6,V*%
%TO.N,GND*%
X89571300Y-31843700D03*
X90358700Y-31056300D03*
X90358700Y-31843700D03*
X89571300Y-31056300D03*
%TD*%
D11*
%TO.P,U2,GND*%
%TO.N,GND*%
X106003501Y-39875001D03*
X102875001Y-41396499D03*
X102875001Y-43003501D03*
%TO.P,U2,V*%
X107524999Y-41396499D03*
X104396499Y-44524999D03*
X104396499Y-43003501D03*
X107524999Y-43003501D03*
X104396499Y-41396499D03*
%TO.P,U2,GND*%
X106003501Y-44524999D03*
%TO.P,U2,V*%
X104396499Y-39875001D03*
X106003501Y-41396499D03*
X106003501Y-43003501D03*
%TD*%
D12*
%TO.P,J3,1,Pin_1*%
%TO.N,Net-(J3-Pad1)*%
X116550000Y-34125000D03*
D13*
%TO.P,J3,2,Pin_2*%
%TO.N,WMCU_TMS*%
X116550000Y-32855000D03*
%TO.P,J3,3,Pin_3*%
%TO.N,GND*%
X117820000Y-34125000D03*
%TO.P,J3,4,Pin_4*%
%TO.N,WMCU_TCK*%
X117820000Y-32855000D03*
%TO.P,J3,5,Pin_5*%
%TO.N,GND*%
X119090000Y-34125000D03*
%TO.P,J3,6,Pin_6*%
%TO.N,DIO16_TDO*%
X119090000Y-32855000D03*
%TO.P,J3,7,Pin_7*%
%TO.N,unconnected-(J3-Pad7)*%
X120360000Y-34125000D03*
%TO.P,J3,8,Pin_8*%
%TO.N,DIO17_TDI*%
X120360000Y-32855000D03*
%TO.P,J3,9,Pin_9*%
%TO.N,GND*%
X121630000Y-34125000D03*
%TO.P,J3,10,Pin_10*%
%TO.N,WMCU_RESET*%
X121630000Y-32855000D03*
%TD*%
D14*
%TO.P,SW1,1,A*%
%TO.N,VBAT*%
X83907000Y-34831000D03*
D15*
%TO.P,SW1,2,B*%
%TO.N,Net-(J4-Pad1)*%
X83907000Y-32291000D03*
%TO.P,SW1,3*%
%TO.N,N/C*%
X83907000Y-29751000D03*
%TD*%
D14*
%TO.P,J1,1,Pin_1*%
%TO.N,BBReg_5V*%
X105300000Y-21625000D03*
D15*
%TO.P,J1,2,Pin_2*%
%TO.N,LED_DATA_5V*%
X102760000Y-21625000D03*
%TO.P,J1,3,Pin_3*%
X100220000Y-21625000D03*
%TO.P,J1,4,Pin_4*%
%TO.N,GND*%
X97680000Y-21625000D03*
%TD*%
D16*
%TO.P,P1,S1,SHIELD*%
%TO.N,GND*%
X119875000Y-29720000D03*
D17*
X115695000Y-21080000D03*
X115695000Y-29720000D03*
D16*
X119875000Y-21080000D03*
%TD*%
D10*
%TO.P,U3,V*%
%TO.N,GND*%
X104793700Y-27000000D03*
X104006300Y-27787400D03*
X104006300Y-26212600D03*
X104793700Y-26212600D03*
X104006300Y-27000000D03*
X104793700Y-27787400D03*
%TD*%
D18*
%TO.P,L8,1,1*%
%TO.N,Net-(L8-Pad1)*%
X107550000Y-32400000D03*
%TO.P,L8,2,2*%
%TO.N,Net-(L8-Pad2)*%
X103450000Y-32400000D03*
%TD*%
D19*
%TO.P,Q1,1,B*%
%TO.N,CHR1*%
X97618050Y-36296900D03*
%TO.P,Q1,2,C*%
%TO.N,GND*%
X96817950Y-36296900D03*
D20*
%TO.P,Q1,3,E*%
%TO.N,Net-(Q1-Pad3)*%
X97218000Y-35103100D03*
%TD*%
D21*
%TO.P,R9,1*%
%TO.N,ISET*%
X99100000Y-32175000D03*
%TO.P,R9,2*%
%TO.N,Net-(Q3-Pad3)*%
X99100000Y-33825000D03*
%TD*%
D19*
%TO.P,Q2,1,B*%
%TO.N,CHR0*%
X95735050Y-36296900D03*
%TO.P,Q2,2,C*%
%TO.N,GND*%
X94934950Y-36296900D03*
D20*
%TO.P,Q2,3,E*%
%TO.N,Net-(Q2-Pad3)*%
X95335000Y-35103100D03*
%TD*%
D22*
%TO.P,J4,1,Pin_1*%
%TO.N,Net-(J4-Pad1)*%
X84747001Y-26184600D03*
%TO.P,J4,2,Pin_2*%
%TO.N,BAT_TS*%
X86447000Y-26184600D03*
%TO.P,J4,3,Pin_3*%
%TO.N,GND*%
X88146999Y-26184600D03*
D23*
%TO.P,J4,4*%
%TO.N,N/C*%
X83372000Y-21134600D03*
%TO.P,J4,5*%
X89522000Y-21134600D03*
%TD*%
D19*
%TO.P,Q3,1,B*%
%TO.N,CHREN*%
X99665050Y-36196900D03*
%TO.P,Q3,2,C*%
%TO.N,GND*%
X98864950Y-36196900D03*
D20*
%TO.P,Q3,3,E*%
%TO.N,Net-(Q3-Pad3)*%
X99265000Y-35003100D03*
%TD*%
D21*
%TO.P,R7,1*%
%TO.N,ISET*%
X97500000Y-32175000D03*
%TO.P,R7,2*%
%TO.N,Net-(Q1-Pad3)*%
X97500000Y-33825000D03*
%TD*%
%TO.P,R8,1*%
%TO.N,ISET*%
X95900000Y-32175000D03*
%TO.P,R8,2*%
%TO.N,Net-(Q2-Pad3)*%
X95900000Y-33825000D03*
%TD*%
D24*
%TO.N,*%
X120900000Y-84532500D03*
X90600000Y-88432500D03*
X111900000Y-78332500D03*
X93100000Y-89632500D03*
X111200000Y-83432500D03*
X121000000Y-78432500D03*
X109200000Y-79732500D03*
X95800000Y-74632500D03*
X102600000Y-79632500D03*
X97000000Y-88432500D03*
X90800000Y-84532500D03*
X108500000Y-84632500D03*
X106200000Y-78332500D03*
X92400000Y-73332500D03*
X94300000Y-83432500D03*
X83900000Y-84732500D03*
X105600000Y-83432500D03*
X83700000Y-73332500D03*
X102900000Y-74532500D03*
X87500000Y-83432500D03*
X119700000Y-81532500D03*
X97200000Y-84732500D03*
X99900000Y-73332500D03*
X101800000Y-66732500D03*
X116900000Y-83432500D03*
X83700000Y-79732500D03*
X95600000Y-79732500D03*
X83900000Y-89232500D03*
X86900000Y-89732500D03*
X88500000Y-79632500D03*
X89300000Y-74632500D03*
X118700000Y-79632500D03*
X103000000Y-69332500D03*
X101800000Y-72032500D03*
X83700000Y-77032500D03*
X102800000Y-84632500D03*
X114600000Y-84632500D03*
X114500000Y-79732500D03*
X85000000Y-86832500D03*
X117400000Y-78432500D03*
X86000000Y-78432500D03*
X84700000Y-75032500D03*
X91700000Y-78432500D03*
X100500000Y-89732500D03*
X100200000Y-83432500D03*
X86900000Y-73432500D03*
X99200000Y-78332500D03*
%TO.N,GND*%
X83500000Y-51200000D03*
D25*
X99250000Y-49000000D03*
D26*
X120450000Y-36250000D03*
D24*
X93600000Y-45800000D03*
X93900000Y-59700000D03*
X84200000Y-53850000D03*
X113711515Y-20655387D03*
X87999650Y-34200356D03*
X99500000Y-59500000D03*
X92500000Y-54800000D03*
D25*
X98450000Y-41000000D03*
D24*
X88300000Y-58000000D03*
D25*
X112729962Y-50358742D03*
D26*
X113950000Y-29250000D03*
D25*
X121700000Y-38000000D03*
D24*
X92000000Y-28500000D03*
X121550000Y-22900000D03*
X95500000Y-55950000D03*
X95300000Y-51350000D03*
X94900000Y-21400000D03*
X122200000Y-54400000D03*
X86200000Y-53950000D03*
X118000000Y-47750000D03*
X121600000Y-63500000D03*
X89150000Y-54150000D03*
X105300000Y-63000000D03*
X94750000Y-48500000D03*
X83500000Y-47400000D03*
X98200000Y-54200000D03*
D26*
X115200000Y-40000000D03*
D24*
X85000000Y-55750000D03*
X98300000Y-49500000D03*
D26*
X116025000Y-53425000D03*
D24*
X121550000Y-26900000D03*
X94300000Y-41300000D03*
X86300000Y-40800000D03*
X114500000Y-62800000D03*
D26*
X111700000Y-32500000D03*
D24*
X85400000Y-60100000D03*
X89600000Y-62400000D03*
X109200000Y-25000000D03*
X121000000Y-55500000D03*
X117700000Y-63200000D03*
X94900000Y-62600000D03*
X105000000Y-52750000D03*
D26*
X117200000Y-41750000D03*
D24*
X109200000Y-29900000D03*
X97600000Y-62700000D03*
X108500000Y-24000000D03*
D25*
X103700000Y-51750000D03*
D24*
X114900000Y-60600000D03*
D26*
X117200000Y-40000000D03*
D24*
X106900000Y-55500000D03*
X109950000Y-54150000D03*
D25*
X104700000Y-56200000D03*
D24*
X109950000Y-37250000D03*
X91350000Y-51300000D03*
X96600000Y-37300000D03*
X112300000Y-61000000D03*
X111000000Y-46600000D03*
X83400000Y-62400000D03*
X118300000Y-23450000D03*
X118400000Y-27950000D03*
X96080500Y-24649500D03*
X105900000Y-57150000D03*
D26*
X112450500Y-28250000D03*
D24*
X106100000Y-61000000D03*
X88600000Y-51550000D03*
D26*
X115200000Y-41750000D03*
D24*
X88600000Y-48600000D03*
X109850000Y-56300000D03*
X85500000Y-49750000D03*
X89500000Y-41400000D03*
X100800000Y-30200000D03*
X84700000Y-42500000D03*
X110600000Y-63100000D03*
X108800000Y-60600000D03*
X94900000Y-33131254D03*
X122000000Y-61700000D03*
X95200000Y-40100000D03*
X119650000Y-54150000D03*
D26*
X108250000Y-20625500D03*
D25*
X100450000Y-53750000D03*
D24*
X121900000Y-56400000D03*
D26*
%TO.N,VDDS*%
X99950000Y-40750000D03*
D24*
X102000498Y-31900000D03*
X88599251Y-36000749D03*
X87124500Y-36000000D03*
X89900000Y-35300000D03*
X99477086Y-38100000D03*
X111158411Y-39758411D03*
X112300000Y-42200000D03*
D26*
X112200000Y-45000000D03*
D24*
X84900000Y-37500000D03*
X88509266Y-30109266D03*
X116000000Y-36800000D03*
D26*
X118450000Y-51500000D03*
X120200000Y-45500000D03*
D24*
%TO.N,Net-(C10-Pad1)*%
X108450000Y-48500000D03*
X105200451Y-47974500D03*
D26*
%TO.N,BBReg_5V*%
X91950000Y-23750000D03*
D24*
%TO.N,WMCU_RESET*%
X112700000Y-37250000D03*
X94100000Y-28200000D03*
D26*
X97700000Y-38750000D03*
%TO.N,VBUS*%
X95100000Y-23100000D03*
X113900000Y-27800000D03*
X113955000Y-22850000D03*
X109700000Y-23000000D03*
D24*
%TO.N,Net-(C30-Pad1)*%
X101700000Y-25500000D03*
X106300000Y-24700000D03*
%TO.N,VDDR*%
X100880000Y-45720000D03*
X107000000Y-34947502D03*
X100658411Y-43341589D03*
%TO.N,PWR_LED*%
X115500000Y-48500000D03*
X110100000Y-48400000D03*
X108400000Y-46600000D03*
X119700000Y-50100000D03*
%TO.N,BAT_CHG*%
X85800000Y-38400000D03*
X86500000Y-36700000D03*
X93200000Y-36200000D03*
X100847950Y-40802821D03*
X87000000Y-33200000D03*
X96500000Y-41300000D03*
X88400000Y-33200000D03*
%TO.N,BAT_PGOOD*%
X100800000Y-41700000D03*
X94200000Y-38400000D03*
%TO.N,WMCU_VDDS*%
X113100000Y-55300000D03*
D26*
X101200000Y-34300000D03*
D24*
X114424156Y-35375500D03*
D26*
X104500000Y-35697002D03*
D24*
%TO.N,LED_DATA_5V*%
X93700000Y-24000000D03*
X87900000Y-36800000D03*
D26*
%TO.N,WMCU_TMS*%
X114950000Y-33250000D03*
X113437701Y-36512299D03*
D24*
%TO.N,WMCU_TCK*%
X108325501Y-38250000D03*
X111450000Y-34947502D03*
%TO.N,DIO16_TDO*%
X110650497Y-34947502D03*
X107583099Y-37953277D03*
%TO.N,DIO17_TDI*%
X110423339Y-33973339D03*
X106784108Y-37981875D03*
%TO.N,BAT_TS*%
X86500000Y-27300000D03*
D26*
%TO.N,USB_DPLUS*%
X116600000Y-26300000D03*
D24*
X120200000Y-41250000D03*
%TO.N,USB_DMINUS*%
X119875734Y-40399500D03*
D26*
X116800000Y-25200000D03*
D24*
%TO.N,DIO20_Flash_CS*%
X112912254Y-51188453D03*
X105800000Y-38000000D03*
%TO.N,Net-(L8-Pad1)*%
X107200000Y-30600000D03*
X107900000Y-30600000D03*
X106500000Y-30600000D03*
%TO.N,Net-(L8-Pad2)*%
X104400000Y-30600000D03*
X103000000Y-30600000D03*
X103700000Y-30600000D03*
%TO.N,Net-(R10-Pad2)*%
X99200000Y-24800000D03*
X101700000Y-26300000D03*
%TO.N,Net-(R11-Pad2)*%
X101700000Y-24700000D03*
X99100000Y-23999500D03*
%TO.N,LED_DATA_3V*%
X98200000Y-46800000D03*
D26*
X107450000Y-46500000D03*
D24*
%TO.N,UART_RX*%
X115841406Y-44306029D03*
X116337299Y-45887299D03*
%TO.N,DIO8_Flash_MISO*%
X110700000Y-44200000D03*
X115700000Y-47500000D03*
%TO.N,DIO9_Flash_MOSI*%
X116700000Y-50700000D03*
X110200000Y-43400000D03*
%TO.N,DIO10_Flash_SCLK*%
X109387611Y-43070788D03*
X113500000Y-50000000D03*
%TO.N,BOOTLOADER_BACKDOOR*%
X112099500Y-43100000D03*
X110800000Y-42700000D03*
%TO.N,RS485*%
X110800000Y-41609500D03*
X112099500Y-41127378D03*
%TO.N,ISET*%
X92700000Y-30700000D03*
D26*
%TO.N,Net-(R17-Pad2)*%
X110000000Y-20750000D03*
X119450000Y-38250000D03*
D24*
%TO.N,CHREN*%
X111483531Y-37483531D03*
%TO.N,CHR1*%
X110833531Y-38133531D03*
%TO.N,CHR0*%
X112600000Y-39200000D03*
%TD*%
D27*
%TO.N,GND*%
X99617900Y-35582100D02*
X99900000Y-35300000D01*
X96600000Y-37300000D02*
X96600000Y-36311850D01*
X94950000Y-36750000D02*
X94934950Y-36734950D01*
X99900000Y-35300000D02*
X99900000Y-33407538D01*
X99900000Y-33407538D02*
X99492462Y-33000000D01*
X96600000Y-36311850D02*
X96817950Y-36093900D01*
X98864950Y-36082600D02*
X99365450Y-35582100D01*
X98864950Y-36196900D02*
X98864950Y-36082600D01*
X99365450Y-35582100D02*
X99617900Y-35582100D01*
X99492462Y-33000000D02*
X95031254Y-33000000D01*
X95031254Y-33000000D02*
X94900000Y-33131254D01*
X94934950Y-36734950D02*
X94934950Y-36096900D01*
%TO.N,VDDS*%
X88599251Y-36000749D02*
X89199251Y-36000749D01*
X84900000Y-37416116D02*
X86316116Y-36000000D01*
D28*
X111158411Y-39758411D02*
X111158411Y-39722350D01*
D27*
X89199251Y-36000749D02*
X89900000Y-35300000D01*
D28*
X113580761Y-37300000D02*
X113900000Y-37300000D01*
D27*
X84900000Y-37500000D02*
X84900000Y-37416116D01*
D28*
X111158411Y-39722350D02*
X113580761Y-37300000D01*
X113900000Y-37300000D02*
X115500000Y-37300000D01*
X115500000Y-37300000D02*
X116000000Y-36800000D01*
D27*
X86316116Y-36000000D02*
X87124500Y-36000000D01*
%TO.N,Net-(C10-Pad1)*%
X108450000Y-48500000D02*
X105725951Y-48500000D01*
X105725951Y-48500000D02*
X105200451Y-47974500D01*
D29*
%TO.N,BBReg_5V*%
X91950000Y-21750000D02*
X93700000Y-20000000D01*
X103675000Y-20000000D02*
X105300000Y-21625000D01*
D30*
X105300000Y-21625000D02*
X105300000Y-21850000D01*
D29*
X91950000Y-23750000D02*
X91950000Y-21750000D01*
X93700000Y-20000000D02*
X103675000Y-20000000D01*
D27*
%TO.N,WMCU_RESET*%
X111075000Y-38875000D02*
X112700000Y-37250000D01*
X97700000Y-38750000D02*
X97825000Y-38875000D01*
X97825000Y-38875000D02*
X111075000Y-38875000D01*
D30*
%TO.N,VBUS*%
X109600000Y-23100000D02*
X95100000Y-23100000D01*
D29*
X113900000Y-22905000D02*
X113955000Y-22850000D01*
D30*
X109700000Y-23000000D02*
X109600000Y-23100000D01*
D29*
X113900000Y-27800000D02*
X113900000Y-22905000D01*
D27*
%TO.N,PWR_LED*%
X115500000Y-48500000D02*
X117100000Y-50100000D01*
X110100000Y-48300000D02*
X110100000Y-48400000D01*
X108400000Y-46600000D02*
X110100000Y-48300000D01*
X117100000Y-50100000D02*
X119700000Y-50100000D01*
%TO.N,BAT_CHG*%
X91300000Y-34100000D02*
X90400000Y-33200000D01*
X93200000Y-36200000D02*
X93200000Y-36000000D01*
X101085842Y-42514159D02*
X97714159Y-42514159D01*
X85800000Y-38400000D02*
X85800000Y-37400000D01*
X97714159Y-42514159D02*
X96500000Y-41300000D01*
X101425000Y-41379871D02*
X101425000Y-42175001D01*
X90400000Y-33200000D02*
X88400000Y-33200000D01*
X87000000Y-33200000D02*
X88400000Y-33200000D01*
X93200000Y-36000000D02*
X91300000Y-34100000D01*
X85800000Y-37400000D02*
X86500000Y-36700000D01*
X100847950Y-40802821D02*
X101425000Y-41379871D01*
X101425000Y-42175001D02*
X101085842Y-42514159D01*
%TO.N,BAT_PGOOD*%
X100800000Y-41700000D02*
X98195405Y-41700000D01*
D28*
X94892291Y-38400000D02*
X94893848Y-38398443D01*
D27*
X98195405Y-41700000D02*
X94893848Y-38398443D01*
D28*
X94200000Y-38400000D02*
X94892291Y-38400000D01*
D29*
%TO.N,WMCU_VDDS*%
X104500000Y-35697002D02*
X102597002Y-35697002D01*
X102597002Y-35697002D02*
X101200000Y-34300000D01*
D28*
%TO.N,LED_DATA_5V*%
X86350000Y-31350000D02*
X93700000Y-24000000D01*
X87900000Y-35019239D02*
X86350000Y-33469239D01*
X86350000Y-33469239D02*
X86350000Y-31350000D01*
X87900000Y-36800000D02*
X87900000Y-35019239D01*
D30*
%TO.N,Net-(J4-Pad1)*%
X84747001Y-27747001D02*
X84747001Y-26184600D01*
X85357000Y-30841000D02*
X85357000Y-28357000D01*
X83907000Y-32291000D02*
X85357000Y-30841000D01*
X85357000Y-28357000D02*
X84747001Y-27747001D01*
D28*
%TO.N,BAT_TS*%
X86500000Y-26237600D02*
X86447000Y-26184600D01*
X86500000Y-27300000D02*
X86500000Y-26237600D01*
D27*
%TO.N,USB_DPLUS*%
X119250734Y-39549266D02*
X120900000Y-37900000D01*
X120225305Y-35000000D02*
X115674695Y-35000000D01*
X120900000Y-37900000D02*
X120900000Y-36825305D01*
X120200000Y-41250000D02*
X119842350Y-41250000D01*
X121200000Y-35974695D02*
X120225305Y-35000000D01*
X117070000Y-30130000D02*
X117070000Y-26770000D01*
X119842350Y-41250000D02*
X119250734Y-40658384D01*
X117070000Y-26770000D02*
X116600000Y-26300000D01*
X120900000Y-36825305D02*
X121200000Y-36525305D01*
X115674695Y-31525305D02*
X117070000Y-30130000D01*
X115674695Y-35000000D02*
X115674695Y-31525305D01*
X119250734Y-40658384D02*
X119250734Y-39549266D01*
X121200000Y-36525305D02*
X121200000Y-35974695D01*
%TO.N,USB_DMINUS*%
X122455000Y-30833274D02*
X116821726Y-25200000D01*
X119875734Y-40399500D02*
X120255095Y-40399500D01*
X116821726Y-25200000D02*
X116800000Y-25200000D01*
X120255095Y-40399500D02*
X122455000Y-38199595D01*
X122455000Y-38199595D02*
X122455000Y-30833274D01*
%TO.N,Net-(R10-Pad2)*%
X100700000Y-26300000D02*
X99200000Y-24800000D01*
X101700000Y-26300000D02*
X100700000Y-26300000D01*
%TO.N,Net-(R11-Pad2)*%
X99100000Y-23999500D02*
X100899500Y-23999500D01*
X100899500Y-23999500D02*
X101600000Y-24700000D01*
X101600000Y-24700000D02*
X101700000Y-24700000D01*
%TO.N,LED_DATA_3V*%
X98225000Y-46825000D02*
X98200000Y-46800000D01*
X106450000Y-47000000D02*
X106275000Y-46825000D01*
X107450000Y-46500000D02*
X106950000Y-47000000D01*
X106275000Y-46825000D02*
X98225000Y-46825000D01*
X106950000Y-47000000D02*
X106450000Y-47000000D01*
%TO.N,UART_RX*%
X116337299Y-45887299D02*
X116337299Y-44801922D01*
X116337299Y-44801922D02*
X115841406Y-44306029D01*
%TO.N,DIO8_Flash_MISO*%
X110700000Y-44200000D02*
X112425305Y-44200000D01*
X115700000Y-47474695D02*
X115700000Y-47500000D01*
X112425305Y-44200000D02*
X115700000Y-47474695D01*
%TO.N,DIO9_Flash_MOSI*%
X110075000Y-44475000D02*
X116300000Y-50700000D01*
X116300000Y-50700000D02*
X116700000Y-50700000D01*
X110075000Y-43525000D02*
X110075000Y-44475000D01*
X110200000Y-43400000D02*
X110075000Y-43525000D01*
%TO.N,DIO10_Flash_SCLK*%
X109387611Y-45887611D02*
X113500000Y-50000000D01*
X109387611Y-43070788D02*
X109387611Y-45887611D01*
%TO.N,BOOTLOADER_BACKDOOR*%
X111200000Y-43100000D02*
X110800000Y-42700000D01*
X112099500Y-43100000D02*
X111200000Y-43100000D01*
D28*
%TO.N,RS485*%
X111617378Y-41609500D02*
X110800000Y-41609500D01*
X112099500Y-41127378D02*
X111617378Y-41609500D01*
D27*
%TO.N,ISET*%
X95900000Y-32175000D02*
X97500000Y-32175000D01*
X97500000Y-32175000D02*
X99100000Y-32175000D01*
X95900000Y-32175000D02*
X94175000Y-32175000D01*
X94175000Y-32175000D02*
X92700000Y-30700000D01*
%TO.N,Net-(R17-Pad2)*%
X119450000Y-36250000D02*
X119450000Y-38250000D01*
X113950000Y-36000000D02*
X119200000Y-36000000D01*
X119200000Y-36000000D02*
X119450000Y-36250000D01*
X110000000Y-20750000D02*
X112950000Y-20750000D01*
X113175000Y-20975000D02*
X113175000Y-35225000D01*
X112950000Y-20750000D02*
X113175000Y-20975000D01*
X113175000Y-35225000D02*
X113950000Y-36000000D01*
%TO.N,CHREN*%
X111483531Y-37483531D02*
X110625000Y-36625000D01*
X100193150Y-36625000D02*
X99665050Y-36096900D01*
X110625000Y-36625000D02*
X100193150Y-36625000D01*
%TO.N,CHR1*%
X108176327Y-37216942D02*
X98116942Y-37216942D01*
X110833531Y-38133531D02*
X109092916Y-38133531D01*
X109092916Y-38133531D02*
X108176327Y-37216942D01*
X98116942Y-37216942D02*
X97618050Y-36718050D01*
X97618050Y-36718050D02*
X97618050Y-36093900D01*
%TO.N,CHR0*%
X95735050Y-37810355D02*
X97624695Y-39700000D01*
X104491325Y-40782999D02*
X111017001Y-40782999D01*
X103408326Y-39700000D02*
X104491325Y-40782999D01*
X97624695Y-39700000D02*
X103408326Y-39700000D01*
X111017001Y-40782999D02*
X112600000Y-39200000D01*
X95735050Y-36096900D02*
X95735050Y-37810355D01*
%TO.N,Net-(Q1-Pad3)*%
X97218000Y-34900100D02*
X97218000Y-33757000D01*
X97218000Y-33757000D02*
X97265000Y-33710000D01*
%TO.N,Net-(Q2-Pad3)*%
X95335000Y-34903100D02*
X95335000Y-34540000D01*
X95335000Y-34540000D02*
X96165000Y-33710000D01*
%TO.N,Net-(Q3-Pad3)*%
X99265000Y-33990000D02*
X99100000Y-33825000D01*
X99265000Y-34903100D02*
X99265000Y-33990000D01*
%TD*%
%TA.AperFunction,Conductor*%
%TO.N,GND*%
G36*
X82426581Y-20028502D02*
G01*
X82473074Y-20082158D01*
X82483723Y-20148108D01*
X82482500Y-20159366D01*
X82482500Y-22109834D01*
X82489255Y-22172016D01*
X82540385Y-22308405D01*
X82627739Y-22424961D01*
X82744295Y-22512315D01*
X82880684Y-22563445D01*
X82942866Y-22570200D01*
X83801134Y-22570200D01*
X83863316Y-22563445D01*
X83999705Y-22512315D01*
X84116261Y-22424961D01*
X84203615Y-22308405D01*
X84254745Y-22172016D01*
X84261500Y-22109834D01*
X84261500Y-20159366D01*
X84260277Y-20148108D01*
X84272805Y-20078225D01*
X84321126Y-20026210D01*
X84385540Y-20008500D01*
X88508460Y-20008500D01*
X88576581Y-20028502D01*
X88623074Y-20082158D01*
X88633723Y-20148108D01*
X88632500Y-20159366D01*
X88632500Y-22109834D01*
X88639255Y-22172016D01*
X88690385Y-22308405D01*
X88777739Y-22424961D01*
X88894295Y-22512315D01*
X89030684Y-22563445D01*
X89092866Y-22570200D01*
X89951134Y-22570200D01*
X90013316Y-22563445D01*
X90149705Y-22512315D01*
X90266261Y-22424961D01*
X90353615Y-22308405D01*
X90404745Y-22172016D01*
X90411500Y-22109834D01*
X90411500Y-20159366D01*
X90410277Y-20148108D01*
X90422805Y-20078225D01*
X90471126Y-20026210D01*
X90535540Y-20008500D01*
X92314629Y-20008500D01*
X92382750Y-20028502D01*
X92429243Y-20082158D01*
X92439347Y-20152432D01*
X92409853Y-20217012D01*
X92403724Y-20223595D01*
X91461089Y-21166230D01*
X91446677Y-21178616D01*
X91435082Y-21187149D01*
X91435077Y-21187154D01*
X91429182Y-21191492D01*
X91424443Y-21197070D01*
X91424440Y-21197073D01*
X91394965Y-21231768D01*
X91388035Y-21239284D01*
X91382340Y-21244979D01*
X91380060Y-21247861D01*
X91364719Y-21267251D01*
X91361928Y-21270655D01*
X91343920Y-21291852D01*
X91314667Y-21326285D01*
X91311339Y-21332801D01*
X91307972Y-21337850D01*
X91304805Y-21342979D01*
X91300266Y-21348716D01*
X91269345Y-21414875D01*
X91267442Y-21418769D01*
X91234231Y-21483808D01*
X91232492Y-21490916D01*
X91230393Y-21496559D01*
X91228476Y-21502322D01*
X91225378Y-21508950D01*
X91223888Y-21516112D01*
X91223888Y-21516113D01*
X91210514Y-21580412D01*
X91209544Y-21584696D01*
X91192192Y-21655610D01*
X91191500Y-21666764D01*
X91191464Y-21666762D01*
X91191225Y-21670755D01*
X91190851Y-21674947D01*
X91189360Y-21682115D01*
X91189558Y-21689432D01*
X91191454Y-21759521D01*
X91191500Y-21762928D01*
X91191500Y-23213001D01*
X91174619Y-23276001D01*
X91123931Y-23363795D01*
X91115473Y-23378444D01*
X91056458Y-23560072D01*
X91055768Y-23566633D01*
X91055768Y-23566635D01*
X91042540Y-23692495D01*
X91036496Y-23750000D01*
X91037186Y-23756565D01*
X91052829Y-23905396D01*
X91056458Y-23939928D01*
X91115473Y-24121556D01*
X91210960Y-24286944D01*
X91215378Y-24291851D01*
X91215379Y-24291852D01*
X91287456Y-24371902D01*
X91338747Y-24428866D01*
X91493248Y-24541118D01*
X91499276Y-24543802D01*
X91499278Y-24543803D01*
X91661681Y-24616109D01*
X91667712Y-24618794D01*
X91838423Y-24655080D01*
X91900894Y-24688807D01*
X91935216Y-24750957D01*
X91930488Y-24821796D01*
X91901319Y-24867421D01*
X86480595Y-30288145D01*
X86418283Y-30322171D01*
X86347468Y-30317106D01*
X86290632Y-30274559D01*
X86265821Y-30208039D01*
X86265500Y-30199050D01*
X86265500Y-28438417D01*
X86267051Y-28418705D01*
X86268220Y-28411325D01*
X86269252Y-28404810D01*
X86268758Y-28395366D01*
X86265673Y-28336520D01*
X86265500Y-28329926D01*
X86265500Y-28309390D01*
X86265156Y-28306116D01*
X86263353Y-28288958D01*
X86262836Y-28282384D01*
X86260312Y-28234231D01*
X86276721Y-28165157D01*
X86327869Y-28115919D01*
X86402803Y-28102743D01*
X86475979Y-28112507D01*
X86475984Y-28112507D01*
X86482961Y-28113438D01*
X86489972Y-28112800D01*
X86489976Y-28112800D01*
X86642866Y-28098885D01*
X86663600Y-28096998D01*
X86670302Y-28094820D01*
X86670304Y-28094820D01*
X86829409Y-28043124D01*
X86829412Y-28043123D01*
X86836108Y-28040947D01*
X86991912Y-27948069D01*
X87123266Y-27822982D01*
X87223643Y-27671902D01*
X87288055Y-27502338D01*
X87292779Y-27468727D01*
X87312748Y-27326639D01*
X87312748Y-27326636D01*
X87313299Y-27322717D01*
X87313616Y-27300000D01*
X87304850Y-27221848D01*
X87317134Y-27151922D01*
X87365273Y-27099738D01*
X87433983Y-27081864D01*
X87505630Y-27106977D01*
X87563150Y-27150086D01*
X87578745Y-27158624D01*
X87699193Y-27203778D01*
X87714448Y-27207405D01*
X87765313Y-27212931D01*
X87772127Y-27213300D01*
X87874884Y-27213300D01*
X87890123Y-27208825D01*
X87891328Y-27207435D01*
X87892999Y-27199752D01*
X87892999Y-27195184D01*
X88400999Y-27195184D01*
X88405474Y-27210423D01*
X88406864Y-27211628D01*
X88414547Y-27213299D01*
X88521868Y-27213299D01*
X88528689Y-27212929D01*
X88579551Y-27207405D01*
X88594803Y-27203779D01*
X88715253Y-27158624D01*
X88730848Y-27150086D01*
X88832923Y-27073585D01*
X88845484Y-27061024D01*
X88921985Y-26958949D01*
X88930523Y-26943354D01*
X88975677Y-26822906D01*
X88979304Y-26807651D01*
X88984830Y-26756786D01*
X88985199Y-26749972D01*
X88985199Y-26456715D01*
X88980724Y-26441476D01*
X88979334Y-26440271D01*
X88971651Y-26438600D01*
X88419114Y-26438600D01*
X88403875Y-26443075D01*
X88402670Y-26444465D01*
X88400999Y-26452148D01*
X88400999Y-27195184D01*
X87892999Y-27195184D01*
X87892999Y-25912485D01*
X88400999Y-25912485D01*
X88405474Y-25927724D01*
X88406864Y-25928929D01*
X88414547Y-25930600D01*
X88967083Y-25930600D01*
X88982322Y-25926125D01*
X88983527Y-25924735D01*
X88985198Y-25917052D01*
X88985198Y-25619231D01*
X88984828Y-25612410D01*
X88979304Y-25561548D01*
X88975678Y-25546296D01*
X88930523Y-25425846D01*
X88921985Y-25410251D01*
X88845484Y-25308176D01*
X88832923Y-25295615D01*
X88730848Y-25219114D01*
X88715253Y-25210576D01*
X88594805Y-25165422D01*
X88579550Y-25161795D01*
X88528685Y-25156269D01*
X88521871Y-25155900D01*
X88419114Y-25155900D01*
X88403875Y-25160375D01*
X88402670Y-25161765D01*
X88400999Y-25169448D01*
X88400999Y-25912485D01*
X87892999Y-25912485D01*
X87892999Y-25174016D01*
X87888524Y-25158777D01*
X87887134Y-25157572D01*
X87879451Y-25155901D01*
X87772130Y-25155901D01*
X87765309Y-25156271D01*
X87714447Y-25161795D01*
X87699195Y-25165421D01*
X87578745Y-25210576D01*
X87563150Y-25219114D01*
X87461075Y-25295615D01*
X87448518Y-25308172D01*
X87398139Y-25375393D01*
X87341279Y-25417908D01*
X87270461Y-25422934D01*
X87208167Y-25388874D01*
X87196486Y-25375393D01*
X87140461Y-25300639D01*
X87023905Y-25213285D01*
X86887516Y-25162155D01*
X86825334Y-25155400D01*
X86068666Y-25155400D01*
X86006484Y-25162155D01*
X85870095Y-25213285D01*
X85753539Y-25300639D01*
X85697824Y-25374979D01*
X85640968Y-25417491D01*
X85570150Y-25422517D01*
X85507856Y-25388457D01*
X85496175Y-25374976D01*
X85445844Y-25307820D01*
X85445843Y-25307819D01*
X85440462Y-25300639D01*
X85323906Y-25213285D01*
X85187517Y-25162155D01*
X85125335Y-25155400D01*
X84368667Y-25155400D01*
X84306485Y-25162155D01*
X84170096Y-25213285D01*
X84053540Y-25300639D01*
X83966186Y-25417195D01*
X83915056Y-25553584D01*
X83908301Y-25615766D01*
X83908301Y-25805931D01*
X83902134Y-25844867D01*
X83853459Y-25994672D01*
X83838501Y-26136990D01*
X83838501Y-27665584D01*
X83836950Y-27685293D01*
X83834749Y-27699191D01*
X83835094Y-27705778D01*
X83835094Y-27705783D01*
X83838328Y-27767481D01*
X83838501Y-27774075D01*
X83838501Y-27794611D01*
X83838845Y-27797883D01*
X83838845Y-27797885D01*
X83840648Y-27815043D01*
X83841165Y-27821617D01*
X83841726Y-27832312D01*
X83844744Y-27889904D01*
X83846454Y-27896285D01*
X83846454Y-27896287D01*
X83848384Y-27903492D01*
X83851986Y-27922926D01*
X83852767Y-27930355D01*
X83852769Y-27930364D01*
X83853459Y-27936929D01*
X83874601Y-28001998D01*
X83876468Y-28008300D01*
X83894172Y-28074371D01*
X83900560Y-28086908D01*
X83908126Y-28105174D01*
X83912474Y-28118557D01*
X83915777Y-28124279D01*
X83915778Y-28124280D01*
X83946668Y-28177783D01*
X83949815Y-28183579D01*
X83962472Y-28208419D01*
X83975577Y-28278195D01*
X83948878Y-28343980D01*
X83890851Y-28384887D01*
X83848667Y-28391614D01*
X83817081Y-28391228D01*
X83817079Y-28391228D01*
X83811911Y-28391165D01*
X83591091Y-28424955D01*
X83378756Y-28494357D01*
X83374164Y-28496747D01*
X83374165Y-28496747D01*
X83218516Y-28577773D01*
X83180607Y-28597507D01*
X83176474Y-28600610D01*
X83176471Y-28600612D01*
X83006100Y-28728530D01*
X83001965Y-28731635D01*
X82847629Y-28893138D01*
X82844715Y-28897410D01*
X82844714Y-28897411D01*
X82776508Y-28997397D01*
X82721743Y-29077680D01*
X82699203Y-29126238D01*
X82630934Y-29273313D01*
X82627688Y-29280305D01*
X82567989Y-29495570D01*
X82544251Y-29717695D01*
X82544548Y-29722848D01*
X82544548Y-29722851D01*
X82556284Y-29926389D01*
X82557110Y-29940715D01*
X82558247Y-29945761D01*
X82558248Y-29945767D01*
X82582304Y-30052508D01*
X82606222Y-30158639D01*
X82690266Y-30365616D01*
X82702558Y-30385675D01*
X82801202Y-30546647D01*
X82806987Y-30556088D01*
X82953250Y-30724938D01*
X83125126Y-30867632D01*
X83169242Y-30893411D01*
X83198445Y-30910476D01*
X83247169Y-30962114D01*
X83260240Y-31031897D01*
X83233509Y-31097669D01*
X83193055Y-31131027D01*
X83180607Y-31137507D01*
X83176474Y-31140610D01*
X83176471Y-31140612D01*
X83006100Y-31268530D01*
X83001965Y-31271635D01*
X82965430Y-31309867D01*
X82858966Y-31421275D01*
X82847629Y-31433138D01*
X82844715Y-31437410D01*
X82844714Y-31437411D01*
X82782071Y-31529243D01*
X82721743Y-31617680D01*
X82679500Y-31708685D01*
X82641146Y-31791313D01*
X82627688Y-31820305D01*
X82567989Y-32035570D01*
X82544251Y-32257695D01*
X82544548Y-32262848D01*
X82544548Y-32262851D01*
X82553047Y-32410243D01*
X82557110Y-32480715D01*
X82558247Y-32485761D01*
X82558248Y-32485767D01*
X82576443Y-32566500D01*
X82606222Y-32698639D01*
X82690266Y-32905616D01*
X82692965Y-32910020D01*
X82802702Y-33089095D01*
X82806987Y-33096088D01*
X82953250Y-33264938D01*
X82957230Y-33268242D01*
X82961981Y-33272187D01*
X83001616Y-33331090D01*
X83003113Y-33402071D01*
X82965997Y-33462593D01*
X82925725Y-33487112D01*
X82852441Y-33514585D01*
X82810295Y-33530385D01*
X82693739Y-33617739D01*
X82606385Y-33734295D01*
X82555255Y-33870684D01*
X82548500Y-33932866D01*
X82548500Y-35729134D01*
X82555255Y-35791316D01*
X82606385Y-35927705D01*
X82693739Y-36044261D01*
X82810295Y-36131615D01*
X82946684Y-36182745D01*
X83008866Y-36189500D01*
X84805134Y-36189500D01*
X84867316Y-36182745D01*
X84914904Y-36164905D01*
X84985712Y-36159722D01*
X85048081Y-36193643D01*
X85082210Y-36255898D01*
X85077263Y-36326722D01*
X85048229Y-36371982D01*
X84730192Y-36690019D01*
X84681703Y-36720202D01*
X84553579Y-36763818D01*
X84494766Y-36800000D01*
X84405095Y-36855166D01*
X84405092Y-36855168D01*
X84399088Y-36858862D01*
X84394053Y-36863793D01*
X84394050Y-36863795D01*
X84283920Y-36971643D01*
X84269493Y-36985771D01*
X84171235Y-37138238D01*
X84168826Y-37144858D01*
X84168824Y-37144861D01*
X84115342Y-37291801D01*
X84109197Y-37308685D01*
X84086463Y-37488640D01*
X84104163Y-37669160D01*
X84161418Y-37841273D01*
X84165065Y-37847295D01*
X84165066Y-37847297D01*
X84245452Y-37980030D01*
X84255380Y-37996424D01*
X84260269Y-38001487D01*
X84260270Y-38001488D01*
X84297694Y-38040241D01*
X84381382Y-38126902D01*
X84387278Y-38130760D01*
X84513093Y-38213091D01*
X84533159Y-38226222D01*
X84539763Y-38228678D01*
X84539765Y-38228679D01*
X84696558Y-38286990D01*
X84696560Y-38286990D01*
X84703168Y-38289448D01*
X84710153Y-38290380D01*
X84710157Y-38290381D01*
X84804988Y-38303034D01*
X84881375Y-38313226D01*
X84946251Y-38342062D01*
X84985239Y-38401395D01*
X84990109Y-38425823D01*
X85004163Y-38569160D01*
X85061418Y-38741273D01*
X85065065Y-38747295D01*
X85065066Y-38747297D01*
X85132715Y-38858999D01*
X85155380Y-38896424D01*
X85281382Y-39026902D01*
X85433159Y-39126222D01*
X85439763Y-39128678D01*
X85439765Y-39128679D01*
X85596558Y-39186990D01*
X85596560Y-39186990D01*
X85603168Y-39189448D01*
X85682250Y-39200000D01*
X85775980Y-39212507D01*
X85775984Y-39212507D01*
X85782961Y-39213438D01*
X85789972Y-39212800D01*
X85789976Y-39212800D01*
X85932459Y-39199832D01*
X85963600Y-39196998D01*
X85970302Y-39194820D01*
X85970304Y-39194820D01*
X86129409Y-39143124D01*
X86129412Y-39143123D01*
X86136108Y-39140947D01*
X86276484Y-39057266D01*
X86285860Y-39051677D01*
X86285862Y-39051676D01*
X86291912Y-39048069D01*
X86423266Y-38922982D01*
X86523643Y-38771902D01*
X86588055Y-38602338D01*
X86589035Y-38595366D01*
X86612748Y-38426639D01*
X86612748Y-38426636D01*
X86613299Y-38422717D01*
X86613616Y-38400000D01*
X86593397Y-38219745D01*
X86591068Y-38213056D01*
X86536064Y-38055106D01*
X86536062Y-38055103D01*
X86533745Y-38048448D01*
X86523662Y-38032312D01*
X86452646Y-37918661D01*
X86433500Y-37851892D01*
X86433500Y-37714594D01*
X86453502Y-37646473D01*
X86470405Y-37625499D01*
X86560177Y-37535727D01*
X86622489Y-37501701D01*
X86637837Y-37499343D01*
X86663600Y-37496998D01*
X86670302Y-37494820D01*
X86670304Y-37494820D01*
X86829409Y-37443124D01*
X86829412Y-37443123D01*
X86836108Y-37440947D01*
X86991912Y-37348069D01*
X87066089Y-37277431D01*
X87129214Y-37244939D01*
X87199885Y-37251732D01*
X87252385Y-37291478D01*
X87255380Y-37296424D01*
X87260271Y-37301489D01*
X87260272Y-37301490D01*
X87275357Y-37317111D01*
X87381382Y-37426902D01*
X87387278Y-37430760D01*
X87486445Y-37495653D01*
X87533159Y-37526222D01*
X87539763Y-37528678D01*
X87539765Y-37528679D01*
X87696558Y-37586990D01*
X87696560Y-37586990D01*
X87703168Y-37589448D01*
X87781763Y-37599935D01*
X87875980Y-37612507D01*
X87875984Y-37612507D01*
X87882961Y-37613438D01*
X87889972Y-37612800D01*
X87889976Y-37612800D01*
X88032459Y-37599832D01*
X88063600Y-37596998D01*
X88070302Y-37594820D01*
X88070304Y-37594820D01*
X88229409Y-37543124D01*
X88229412Y-37543123D01*
X88236108Y-37540947D01*
X88391912Y-37448069D01*
X88523266Y-37322982D01*
X88623643Y-37171902D01*
X88672020Y-37044550D01*
X88685555Y-37008920D01*
X88685556Y-37008918D01*
X88688055Y-37002338D01*
X88690212Y-36986990D01*
X88703648Y-36891390D01*
X88732936Y-36826716D01*
X88789486Y-36789093D01*
X88928660Y-36743873D01*
X88928663Y-36743872D01*
X88935359Y-36741696D01*
X88945298Y-36735771D01*
X89082402Y-36654041D01*
X89142959Y-36636332D01*
X89204117Y-36634409D01*
X89207237Y-36634311D01*
X89211196Y-36634249D01*
X89239107Y-36634249D01*
X89243042Y-36633752D01*
X89243107Y-36633744D01*
X89254944Y-36632811D01*
X89287202Y-36631797D01*
X89291221Y-36631671D01*
X89299140Y-36631422D01*
X89318594Y-36625770D01*
X89337951Y-36621762D01*
X89350181Y-36620217D01*
X89350182Y-36620217D01*
X89358048Y-36619223D01*
X89365419Y-36616304D01*
X89365421Y-36616304D01*
X89399163Y-36602945D01*
X89410393Y-36599100D01*
X89445234Y-36588978D01*
X89445235Y-36588978D01*
X89452844Y-36586767D01*
X89459663Y-36582734D01*
X89459668Y-36582732D01*
X89470279Y-36576456D01*
X89488027Y-36567761D01*
X89506868Y-36560301D01*
X89533652Y-36540842D01*
X89542638Y-36534313D01*
X89552558Y-36527797D01*
X89583786Y-36509329D01*
X89583789Y-36509327D01*
X89590613Y-36505291D01*
X89604934Y-36490970D01*
X89619968Y-36478129D01*
X89622318Y-36476422D01*
X89636358Y-36466221D01*
X89664544Y-36432150D01*
X89672533Y-36423371D01*
X89960177Y-36135727D01*
X90022489Y-36101701D01*
X90037837Y-36099343D01*
X90063600Y-36096998D01*
X90070302Y-36094820D01*
X90070304Y-36094820D01*
X90229409Y-36043124D01*
X90229412Y-36043123D01*
X90236108Y-36040947D01*
X90336547Y-35981073D01*
X90385860Y-35951677D01*
X90385862Y-35951676D01*
X90391912Y-35948069D01*
X90523266Y-35822982D01*
X90623643Y-35671902D01*
X90668947Y-35552640D01*
X90685555Y-35508920D01*
X90685556Y-35508918D01*
X90688055Y-35502338D01*
X90689848Y-35489578D01*
X90712748Y-35326639D01*
X90712748Y-35326636D01*
X90713299Y-35322717D01*
X90713616Y-35300000D01*
X90693397Y-35119745D01*
X90689883Y-35109653D01*
X90636064Y-34955106D01*
X90636062Y-34955103D01*
X90633745Y-34948448D01*
X90537626Y-34794624D01*
X90510675Y-34767484D01*
X90414778Y-34670915D01*
X90414774Y-34670912D01*
X90409815Y-34665918D01*
X90403820Y-34662113D01*
X90330093Y-34615325D01*
X90256666Y-34568727D01*
X90225864Y-34557759D01*
X90092425Y-34510243D01*
X90092420Y-34510242D01*
X90085790Y-34507881D01*
X90078802Y-34507048D01*
X90078799Y-34507047D01*
X89955698Y-34492368D01*
X89905680Y-34486404D01*
X89898677Y-34487140D01*
X89898676Y-34487140D01*
X89732288Y-34504628D01*
X89732286Y-34504629D01*
X89725288Y-34505364D01*
X89553579Y-34563818D01*
X89499207Y-34597268D01*
X89405095Y-34655166D01*
X89405092Y-34655168D01*
X89399088Y-34658862D01*
X89394053Y-34663793D01*
X89394050Y-34663795D01*
X89288167Y-34767484D01*
X89269493Y-34785771D01*
X89171235Y-34938238D01*
X89168826Y-34944858D01*
X89168824Y-34944861D01*
X89111606Y-35102066D01*
X89109197Y-35108685D01*
X89102801Y-35159311D01*
X89074421Y-35224385D01*
X89015361Y-35263787D01*
X88944375Y-35265004D01*
X88935529Y-35262216D01*
X88791676Y-35210992D01*
X88791671Y-35210991D01*
X88785041Y-35208630D01*
X88713448Y-35200093D01*
X88671562Y-35195098D01*
X88606289Y-35167170D01*
X88566477Y-35108387D01*
X88560544Y-35073942D01*
X88558562Y-35010870D01*
X88558500Y-35006912D01*
X88558500Y-34977807D01*
X88557944Y-34973407D01*
X88557012Y-34961569D01*
X88556447Y-34943564D01*
X88555562Y-34915408D01*
X88549580Y-34894818D01*
X88545570Y-34875455D01*
X88543875Y-34862035D01*
X88543875Y-34862034D01*
X88542882Y-34854175D01*
X88539966Y-34846810D01*
X88539965Y-34846806D01*
X88525874Y-34811218D01*
X88522035Y-34800008D01*
X88509145Y-34755639D01*
X88498225Y-34737174D01*
X88489534Y-34719434D01*
X88481635Y-34699483D01*
X88454482Y-34662110D01*
X88447967Y-34652191D01*
X88428493Y-34619262D01*
X88428490Y-34619258D01*
X88424453Y-34612432D01*
X88409289Y-34597268D01*
X88396448Y-34582234D01*
X88388501Y-34571296D01*
X88383841Y-34564882D01*
X88348247Y-34535436D01*
X88339468Y-34527447D01*
X87972252Y-34160231D01*
X87938226Y-34097919D01*
X87943291Y-34027104D01*
X87985838Y-33970268D01*
X88052358Y-33945457D01*
X88105263Y-33953037D01*
X88203168Y-33989448D01*
X88279957Y-33999694D01*
X88375980Y-34012507D01*
X88375984Y-34012507D01*
X88382961Y-34013438D01*
X88389972Y-34012800D01*
X88389976Y-34012800D01*
X88533977Y-33999694D01*
X88563600Y-33996998D01*
X88570302Y-33994820D01*
X88570304Y-33994820D01*
X88729409Y-33943124D01*
X88729412Y-33943123D01*
X88736108Y-33940947D01*
X88856438Y-33869216D01*
X88886541Y-33851271D01*
X88951058Y-33833500D01*
X90085406Y-33833500D01*
X90153527Y-33853502D01*
X90174501Y-33870405D01*
X90795458Y-34491362D01*
X92354735Y-36050640D01*
X92388761Y-36112952D01*
X92390646Y-36155527D01*
X92388836Y-36169858D01*
X92386463Y-36188640D01*
X92404163Y-36369160D01*
X92461418Y-36541273D01*
X92465065Y-36547295D01*
X92465066Y-36547297D01*
X92548750Y-36685476D01*
X92555380Y-36696424D01*
X92560269Y-36701487D01*
X92560270Y-36701488D01*
X92618269Y-36761547D01*
X92681382Y-36826902D01*
X92833159Y-36926222D01*
X92839763Y-36928678D01*
X92839765Y-36928679D01*
X92996558Y-36986990D01*
X92996560Y-36986990D01*
X93003168Y-36989448D01*
X93086995Y-37000633D01*
X93175980Y-37012507D01*
X93175984Y-37012507D01*
X93182961Y-37013438D01*
X93189972Y-37012800D01*
X93189976Y-37012800D01*
X93332459Y-36999832D01*
X93363600Y-36996998D01*
X93370302Y-36994820D01*
X93370304Y-36994820D01*
X93529409Y-36943124D01*
X93529412Y-36943123D01*
X93536108Y-36940947D01*
X93648097Y-36874188D01*
X93685860Y-36851677D01*
X93685862Y-36851676D01*
X93691912Y-36848069D01*
X93823266Y-36722982D01*
X93907919Y-36595569D01*
X94287251Y-36595569D01*
X94287621Y-36602390D01*
X94293145Y-36653252D01*
X94296771Y-36668504D01*
X94341926Y-36788954D01*
X94350464Y-36804549D01*
X94426965Y-36906624D01*
X94439526Y-36919185D01*
X94541601Y-36995686D01*
X94557196Y-37004224D01*
X94677644Y-37049378D01*
X94692899Y-37053005D01*
X94743764Y-37058531D01*
X94750578Y-37058900D01*
X94777135Y-37058900D01*
X94792374Y-37054425D01*
X94793579Y-37053035D01*
X94795250Y-37045352D01*
X94795250Y-36454715D01*
X94790775Y-36439476D01*
X94789385Y-36438271D01*
X94781702Y-36436600D01*
X94305366Y-36436600D01*
X94290127Y-36441075D01*
X94288922Y-36442465D01*
X94287251Y-36450148D01*
X94287251Y-36595569D01*
X93907919Y-36595569D01*
X93923643Y-36571902D01*
X93968159Y-36454715D01*
X93985555Y-36408920D01*
X93985556Y-36408918D01*
X93988055Y-36402338D01*
X93989035Y-36395366D01*
X94012748Y-36226639D01*
X94012748Y-36226636D01*
X94013299Y-36222717D01*
X94013452Y-36211738D01*
X94013561Y-36203962D01*
X94013561Y-36203957D01*
X94013616Y-36200000D01*
X93993397Y-36019745D01*
X93990637Y-36011819D01*
X93936064Y-35855106D01*
X93936062Y-35855103D01*
X93933745Y-35848448D01*
X93927781Y-35838904D01*
X93841359Y-35700598D01*
X93837626Y-35694624D01*
X93827813Y-35684742D01*
X93714778Y-35570915D01*
X93714774Y-35570912D01*
X93709815Y-35565918D01*
X93703639Y-35561998D01*
X93598787Y-35495458D01*
X93590209Y-35490014D01*
X93568628Y-35472724D01*
X92648334Y-34552429D01*
X90903652Y-32807747D01*
X90896112Y-32799461D01*
X90892000Y-32792982D01*
X90842348Y-32746356D01*
X90839507Y-32743602D01*
X90819770Y-32723865D01*
X90816573Y-32721385D01*
X90807551Y-32713680D01*
X90801660Y-32708148D01*
X90775321Y-32683414D01*
X90768375Y-32679595D01*
X90768372Y-32679593D01*
X90757566Y-32673652D01*
X90741055Y-32662808D01*
X90731156Y-32655129D01*
X90689588Y-32597578D01*
X90684453Y-32534898D01*
X90680000Y-32524210D01*
X90371512Y-32215722D01*
X90357568Y-32208108D01*
X90355735Y-32208239D01*
X90349120Y-32212490D01*
X90054095Y-32507515D01*
X89991783Y-32541541D01*
X89920968Y-32536476D01*
X89875905Y-32507515D01*
X89584112Y-32215722D01*
X89570168Y-32208108D01*
X89568335Y-32208239D01*
X89561720Y-32212490D01*
X89244615Y-32529595D01*
X89182303Y-32563621D01*
X89155520Y-32566500D01*
X88947338Y-32566500D01*
X88879824Y-32546885D01*
X88844093Y-32524210D01*
X88756666Y-32468727D01*
X88721478Y-32456197D01*
X88592425Y-32410243D01*
X88592420Y-32410242D01*
X88585790Y-32407881D01*
X88578802Y-32407048D01*
X88578799Y-32407047D01*
X88455698Y-32392368D01*
X88405680Y-32386404D01*
X88398677Y-32387140D01*
X88398676Y-32387140D01*
X88232288Y-32404628D01*
X88232286Y-32404629D01*
X88225288Y-32405364D01*
X88053579Y-32463818D01*
X87917039Y-32547819D01*
X87851019Y-32566500D01*
X87547338Y-32566500D01*
X87479824Y-32546885D01*
X87444093Y-32524210D01*
X87356666Y-32468727D01*
X87321478Y-32456197D01*
X87192425Y-32410243D01*
X87192420Y-32410242D01*
X87185790Y-32407881D01*
X87178802Y-32407048D01*
X87178799Y-32407047D01*
X87133784Y-32401680D01*
X87119581Y-32399986D01*
X87054308Y-32372058D01*
X87014495Y-32313275D01*
X87008500Y-32274872D01*
X87008500Y-31840006D01*
X88805241Y-31840006D01*
X88820548Y-31996122D01*
X88823459Y-32009816D01*
X88872972Y-32158658D01*
X88874553Y-32162081D01*
X88881970Y-32168862D01*
X88890591Y-32165199D01*
X89199278Y-31856512D01*
X89205656Y-31844832D01*
X89935708Y-31844832D01*
X89935839Y-31846665D01*
X89940090Y-31853280D01*
X89952188Y-31865378D01*
X89966132Y-31872992D01*
X89967965Y-31872861D01*
X89974580Y-31868610D01*
X89986678Y-31856512D01*
X89993056Y-31844832D01*
X90723108Y-31844832D01*
X90723239Y-31846665D01*
X90727490Y-31853280D01*
X91035537Y-32161327D01*
X91047917Y-32168087D01*
X91051733Y-32165230D01*
X91098931Y-32040983D01*
X91102411Y-32027429D01*
X91124672Y-31869034D01*
X91125278Y-31861150D01*
X91125467Y-31847662D01*
X91125080Y-31839761D01*
X91107251Y-31680811D01*
X91104149Y-31667158D01*
X91052556Y-31519004D01*
X91045244Y-31503729D01*
X91022515Y-31539095D01*
X90730722Y-31830888D01*
X90723108Y-31844832D01*
X89993056Y-31844832D01*
X89994292Y-31842568D01*
X89994161Y-31840735D01*
X89989910Y-31834120D01*
X89977812Y-31822022D01*
X89963868Y-31814408D01*
X89962035Y-31814539D01*
X89955420Y-31818790D01*
X89943322Y-31830888D01*
X89935708Y-31844832D01*
X89205656Y-31844832D01*
X89206892Y-31842568D01*
X89206761Y-31840735D01*
X89202510Y-31834120D01*
X88907485Y-31539095D01*
X88886132Y-31499991D01*
X88883128Y-31511227D01*
X88877728Y-31521210D01*
X88828388Y-31656769D01*
X88825096Y-31670378D01*
X88805437Y-31825999D01*
X88805241Y-31840006D01*
X87008500Y-31840006D01*
X87008500Y-31674950D01*
X87028502Y-31606829D01*
X87045405Y-31585855D01*
X87180128Y-31451132D01*
X89542008Y-31451132D01*
X89542139Y-31452965D01*
X89546390Y-31459580D01*
X89558488Y-31471678D01*
X89572432Y-31479292D01*
X89574265Y-31479161D01*
X89580880Y-31474910D01*
X89592978Y-31462812D01*
X89599356Y-31451132D01*
X90329408Y-31451132D01*
X90329539Y-31452965D01*
X90333790Y-31459580D01*
X90345888Y-31471678D01*
X90359832Y-31479292D01*
X90361665Y-31479161D01*
X90368280Y-31474910D01*
X90380378Y-31462812D01*
X90387992Y-31448868D01*
X90387861Y-31447035D01*
X90383610Y-31440420D01*
X90371512Y-31428322D01*
X90357568Y-31420708D01*
X90355735Y-31420839D01*
X90349120Y-31425090D01*
X90337022Y-31437188D01*
X90329408Y-31451132D01*
X89599356Y-31451132D01*
X89600592Y-31448868D01*
X89600461Y-31447035D01*
X89596210Y-31440420D01*
X89584112Y-31428322D01*
X89570168Y-31420708D01*
X89568335Y-31420839D01*
X89561720Y-31425090D01*
X89549622Y-31437188D01*
X89542008Y-31451132D01*
X87180128Y-31451132D01*
X87860483Y-30770777D01*
X87922795Y-30736751D01*
X87993610Y-30741816D01*
X88018569Y-30754439D01*
X88142425Y-30835488D01*
X88149029Y-30837944D01*
X88149031Y-30837945D01*
X88305824Y-30896256D01*
X88305826Y-30896256D01*
X88312434Y-30898714D01*
X88396261Y-30909899D01*
X88485246Y-30921773D01*
X88485250Y-30921773D01*
X88492227Y-30922704D01*
X88499238Y-30922066D01*
X88499242Y-30922066D01*
X88599229Y-30912966D01*
X88668095Y-30906698D01*
X88737747Y-30920443D01*
X88788912Y-30969664D01*
X88805502Y-31033943D01*
X88805241Y-31052606D01*
X88820548Y-31208722D01*
X88823459Y-31222416D01*
X88872972Y-31371258D01*
X88878848Y-31383975D01*
X88880077Y-31386005D01*
X88880469Y-31387483D01*
X88881802Y-31390369D01*
X88881295Y-31390603D01*
X88883369Y-31398430D01*
X88907485Y-31360905D01*
X89210958Y-31057432D01*
X89935708Y-31057432D01*
X89935839Y-31059265D01*
X89940090Y-31065880D01*
X89952188Y-31077978D01*
X89966132Y-31085592D01*
X89967965Y-31085461D01*
X89974580Y-31081210D01*
X89986678Y-31069112D01*
X89993056Y-31057432D01*
X90723108Y-31057432D01*
X90723239Y-31059265D01*
X90727490Y-31065880D01*
X91022515Y-31360905D01*
X91043187Y-31398763D01*
X91047293Y-31386110D01*
X91051480Y-31378496D01*
X91098931Y-31253583D01*
X91102411Y-31240029D01*
X91124672Y-31081634D01*
X91125278Y-31073750D01*
X91125467Y-31060262D01*
X91125080Y-31052361D01*
X91107251Y-30893411D01*
X91104149Y-30879758D01*
X91053555Y-30734473D01*
X91048916Y-30730343D01*
X91039889Y-30734321D01*
X90730722Y-31043488D01*
X90723108Y-31057432D01*
X89993056Y-31057432D01*
X89994292Y-31055168D01*
X89994161Y-31053335D01*
X89989910Y-31046720D01*
X89977812Y-31034622D01*
X89963868Y-31027008D01*
X89962035Y-31027139D01*
X89955420Y-31031390D01*
X89943322Y-31043488D01*
X89935708Y-31057432D01*
X89210958Y-31057432D01*
X89875905Y-30392485D01*
X89915699Y-30370755D01*
X89904470Y-30367815D01*
X90015709Y-30367815D01*
X90054095Y-30392485D01*
X90345888Y-30684278D01*
X90359832Y-30691892D01*
X90361665Y-30691761D01*
X90368280Y-30687510D01*
X90677507Y-30378283D01*
X90684267Y-30365903D01*
X90681682Y-30362449D01*
X90681382Y-30362289D01*
X90540445Y-30312103D01*
X90526806Y-30308904D01*
X90371046Y-30290331D01*
X90357049Y-30290233D01*
X90201042Y-30306630D01*
X90187368Y-30309636D01*
X90038866Y-30360191D01*
X90019831Y-30369148D01*
X90018807Y-30366972D01*
X90015709Y-30367815D01*
X89904470Y-30367815D01*
X89904111Y-30367721D01*
X89893986Y-30362290D01*
X89753045Y-30312103D01*
X89739406Y-30308904D01*
X89583646Y-30290331D01*
X89569649Y-30290233D01*
X89456675Y-30302107D01*
X89386837Y-30289335D01*
X89334990Y-30240833D01*
X89317596Y-30172000D01*
X89318731Y-30159260D01*
X89318819Y-30158639D01*
X89322565Y-30131983D01*
X89322882Y-30109266D01*
X89302663Y-29929011D01*
X89295305Y-29907881D01*
X89245330Y-29764372D01*
X89245328Y-29764369D01*
X89243011Y-29757714D01*
X89154037Y-29615325D01*
X89134902Y-29546959D01*
X89155767Y-29479097D01*
X89171797Y-29459463D01*
X90442620Y-28188640D01*
X93286463Y-28188640D01*
X93304163Y-28369160D01*
X93361418Y-28541273D01*
X93365065Y-28547295D01*
X93365066Y-28547297D01*
X93439478Y-28670166D01*
X93455380Y-28696424D01*
X93460269Y-28701487D01*
X93460270Y-28701488D01*
X93489383Y-28731635D01*
X93581382Y-28826902D01*
X93587278Y-28830760D01*
X93676891Y-28889401D01*
X93733159Y-28926222D01*
X93739763Y-28928678D01*
X93739765Y-28928679D01*
X93896558Y-28986990D01*
X93896560Y-28986990D01*
X93903168Y-28989448D01*
X93986995Y-29000633D01*
X94075980Y-29012507D01*
X94075984Y-29012507D01*
X94082961Y-29013438D01*
X94089972Y-29012800D01*
X94089976Y-29012800D01*
X94232459Y-28999832D01*
X94263600Y-28996998D01*
X94270302Y-28994820D01*
X94270304Y-28994820D01*
X94429409Y-28943124D01*
X94429412Y-28943123D01*
X94436108Y-28940947D01*
X94591912Y-28848069D01*
X94723266Y-28722982D01*
X94823643Y-28571902D01*
X94859701Y-28476979D01*
X103681551Y-28476979D01*
X103684334Y-28480697D01*
X103814179Y-28528986D01*
X103827777Y-28532376D01*
X103983260Y-28553123D01*
X103997256Y-28553416D01*
X104153470Y-28539199D01*
X104167195Y-28536382D01*
X104316379Y-28487909D01*
X104329129Y-28482125D01*
X104336718Y-28477601D01*
X104347602Y-28474799D01*
X104343597Y-28472225D01*
X104450619Y-28472225D01*
X104461568Y-28475214D01*
X104471376Y-28480564D01*
X104601579Y-28528986D01*
X104615177Y-28532376D01*
X104770660Y-28553123D01*
X104784656Y-28553416D01*
X104940870Y-28539199D01*
X104954595Y-28536382D01*
X105103779Y-28487909D01*
X105110652Y-28484791D01*
X105118504Y-28476322D01*
X105115000Y-28467910D01*
X104806512Y-28159422D01*
X104792568Y-28151808D01*
X104790735Y-28151939D01*
X104784120Y-28156190D01*
X104489095Y-28451215D01*
X104450619Y-28472225D01*
X104343597Y-28472225D01*
X104310905Y-28451215D01*
X104019112Y-28159422D01*
X104005168Y-28151808D01*
X104003335Y-28151939D01*
X103996720Y-28156190D01*
X103688311Y-28464599D01*
X103681551Y-28476979D01*
X94859701Y-28476979D01*
X94874350Y-28438417D01*
X94885555Y-28408920D01*
X94885556Y-28408918D01*
X94888055Y-28402338D01*
X94889562Y-28391614D01*
X94912748Y-28226639D01*
X94912748Y-28226636D01*
X94913299Y-28222717D01*
X94913616Y-28200000D01*
X94893397Y-28019745D01*
X94891080Y-28013091D01*
X94836064Y-27855106D01*
X94836062Y-27855103D01*
X94833745Y-27848448D01*
X94816979Y-27821617D01*
X94793290Y-27783706D01*
X103240241Y-27783706D01*
X103255548Y-27939822D01*
X103258459Y-27953516D01*
X103307972Y-28102358D01*
X103309553Y-28105781D01*
X103316970Y-28112562D01*
X103325591Y-28108899D01*
X103634278Y-27800212D01*
X103640656Y-27788532D01*
X104370708Y-27788532D01*
X104370839Y-27790365D01*
X104375090Y-27796980D01*
X104387188Y-27809078D01*
X104401132Y-27816692D01*
X104402965Y-27816561D01*
X104409580Y-27812310D01*
X104421678Y-27800212D01*
X104428056Y-27788532D01*
X105158108Y-27788532D01*
X105158239Y-27790365D01*
X105162490Y-27796980D01*
X105470537Y-28105027D01*
X105482917Y-28111787D01*
X105486733Y-28108930D01*
X105533931Y-27984683D01*
X105537411Y-27971129D01*
X105559672Y-27812734D01*
X105560278Y-27804850D01*
X105560467Y-27791362D01*
X105560080Y-27783461D01*
X105542251Y-27624511D01*
X105539149Y-27610858D01*
X105487556Y-27462704D01*
X105480244Y-27447429D01*
X105457515Y-27482795D01*
X105165722Y-27774588D01*
X105158108Y-27788532D01*
X104428056Y-27788532D01*
X104429292Y-27786268D01*
X104429161Y-27784435D01*
X104424910Y-27777820D01*
X104412812Y-27765722D01*
X104398868Y-27758108D01*
X104397035Y-27758239D01*
X104390420Y-27762490D01*
X104378322Y-27774588D01*
X104370708Y-27788532D01*
X103640656Y-27788532D01*
X103641892Y-27786268D01*
X103641761Y-27784435D01*
X103637510Y-27777820D01*
X103342485Y-27482795D01*
X103321132Y-27443691D01*
X103318128Y-27454927D01*
X103312728Y-27464910D01*
X103263388Y-27600469D01*
X103260096Y-27614078D01*
X103240437Y-27769699D01*
X103240241Y-27783706D01*
X94793290Y-27783706D01*
X94741359Y-27700598D01*
X94737626Y-27694624D01*
X94708520Y-27665314D01*
X94614778Y-27570915D01*
X94614774Y-27570912D01*
X94609815Y-27565918D01*
X94598697Y-27558862D01*
X94520000Y-27508920D01*
X94456666Y-27468727D01*
X94427463Y-27458328D01*
X94292425Y-27410243D01*
X94292420Y-27410242D01*
X94285790Y-27407881D01*
X94278802Y-27407048D01*
X94278799Y-27407047D01*
X94176362Y-27394832D01*
X103977008Y-27394832D01*
X103977139Y-27396665D01*
X103981390Y-27403280D01*
X103993488Y-27415378D01*
X104007432Y-27422992D01*
X104009265Y-27422861D01*
X104015880Y-27418610D01*
X104027978Y-27406512D01*
X104034356Y-27394832D01*
X104764408Y-27394832D01*
X104764539Y-27396665D01*
X104768790Y-27403280D01*
X104780888Y-27415378D01*
X104794832Y-27422992D01*
X104796665Y-27422861D01*
X104803280Y-27418610D01*
X104815378Y-27406512D01*
X104822992Y-27392568D01*
X104822861Y-27390735D01*
X104818610Y-27384120D01*
X104806512Y-27372022D01*
X104792568Y-27364408D01*
X104790735Y-27364539D01*
X104784120Y-27368790D01*
X104772022Y-27380888D01*
X104764408Y-27394832D01*
X104034356Y-27394832D01*
X104035592Y-27392568D01*
X104035461Y-27390735D01*
X104031210Y-27384120D01*
X104019112Y-27372022D01*
X104005168Y-27364408D01*
X104003335Y-27364539D01*
X103996720Y-27368790D01*
X103984622Y-27380888D01*
X103977008Y-27394832D01*
X94176362Y-27394832D01*
X94155698Y-27392368D01*
X94105680Y-27386404D01*
X94098677Y-27387140D01*
X94098676Y-27387140D01*
X93932288Y-27404628D01*
X93932286Y-27404629D01*
X93925288Y-27405364D01*
X93753579Y-27463818D01*
X93711180Y-27489902D01*
X93605095Y-27555166D01*
X93605092Y-27555168D01*
X93599088Y-27558862D01*
X93594053Y-27563793D01*
X93594050Y-27563795D01*
X93479979Y-27675502D01*
X93469493Y-27685771D01*
X93371235Y-27838238D01*
X93368826Y-27844858D01*
X93368824Y-27844861D01*
X93329946Y-27951677D01*
X93309197Y-28008685D01*
X93286463Y-28188640D01*
X90442620Y-28188640D01*
X93800962Y-24830298D01*
X93862640Y-24797085D01*
X93863600Y-24796998D01*
X93952463Y-24768125D01*
X94029409Y-24743124D01*
X94029412Y-24743123D01*
X94036108Y-24740947D01*
X94174414Y-24658500D01*
X94185860Y-24651677D01*
X94185862Y-24651676D01*
X94191912Y-24648069D01*
X94323266Y-24522982D01*
X94423643Y-24371902D01*
X94488055Y-24202338D01*
X94491849Y-24175346D01*
X94512748Y-24026638D01*
X94512748Y-24026637D01*
X94513299Y-24022717D01*
X94513354Y-24018755D01*
X94513358Y-24018707D01*
X94538526Y-23952321D01*
X94595589Y-23910080D01*
X94666431Y-23905396D01*
X94701986Y-23919252D01*
X94728444Y-23934527D01*
X94764388Y-23946206D01*
X94767696Y-23947281D01*
X94779994Y-23952001D01*
X94817712Y-23968794D01*
X94824165Y-23970166D01*
X94824169Y-23970167D01*
X94858080Y-23977375D01*
X94870817Y-23980788D01*
X94903791Y-23991502D01*
X94903798Y-23991503D01*
X94910072Y-23993542D01*
X94916633Y-23994232D01*
X94916635Y-23994232D01*
X94930690Y-23995709D01*
X94951128Y-23997857D01*
X94964136Y-23999918D01*
X95004513Y-24008500D01*
X98174209Y-24008500D01*
X98242330Y-24028502D01*
X98288823Y-24082158D01*
X98299608Y-24122205D01*
X98304163Y-24168660D01*
X98361418Y-24340773D01*
X98365065Y-24346795D01*
X98365066Y-24346797D01*
X98420896Y-24438984D01*
X98439075Y-24507614D01*
X98431521Y-24547349D01*
X98411607Y-24602063D01*
X98409197Y-24608685D01*
X98386463Y-24788640D01*
X98404163Y-24969160D01*
X98461418Y-25141273D01*
X98465065Y-25147295D01*
X98465066Y-25147297D01*
X98513299Y-25226939D01*
X98555380Y-25296424D01*
X98560269Y-25301487D01*
X98560270Y-25301488D01*
X98631237Y-25374976D01*
X98681382Y-25426902D01*
X98711531Y-25446631D01*
X98821495Y-25518589D01*
X98833159Y-25526222D01*
X98839763Y-25528678D01*
X98839765Y-25528679D01*
X98996558Y-25586990D01*
X98996560Y-25586990D01*
X99003168Y-25589448D01*
X99010153Y-25590380D01*
X99010157Y-25590381D01*
X99045087Y-25595041D01*
X99065187Y-25597723D01*
X99130063Y-25626558D01*
X99137617Y-25633521D01*
X100196343Y-26692247D01*
X100203887Y-26700537D01*
X100208000Y-26707018D01*
X100213777Y-26712443D01*
X100257667Y-26753658D01*
X100260509Y-26756413D01*
X100280230Y-26776134D01*
X100283425Y-26778612D01*
X100292447Y-26786318D01*
X100324679Y-26816586D01*
X100331628Y-26820406D01*
X100342432Y-26826346D01*
X100358956Y-26837199D01*
X100374959Y-26849613D01*
X100415543Y-26867176D01*
X100426173Y-26872383D01*
X100464940Y-26893695D01*
X100472617Y-26895666D01*
X100472622Y-26895668D01*
X100484558Y-26898732D01*
X100503266Y-26905137D01*
X100521855Y-26913181D01*
X100529680Y-26914420D01*
X100529682Y-26914421D01*
X100565519Y-26920097D01*
X100577140Y-26922504D01*
X100612289Y-26931528D01*
X100619970Y-26933500D01*
X100640231Y-26933500D01*
X100659940Y-26935051D01*
X100679943Y-26938219D01*
X100687835Y-26937473D01*
X100693062Y-26936979D01*
X100723954Y-26934059D01*
X100735811Y-26933500D01*
X101153903Y-26933500D01*
X101222896Y-26954068D01*
X101297619Y-27002965D01*
X101333159Y-27026222D01*
X101339763Y-27028678D01*
X101339765Y-27028679D01*
X101496558Y-27086990D01*
X101496560Y-27086990D01*
X101503168Y-27089448D01*
X101586995Y-27100633D01*
X101675980Y-27112507D01*
X101675984Y-27112507D01*
X101682961Y-27113438D01*
X101689972Y-27112800D01*
X101689976Y-27112800D01*
X101832459Y-27099832D01*
X101863600Y-27096998D01*
X101870302Y-27094820D01*
X101870304Y-27094820D01*
X102029409Y-27043124D01*
X102029412Y-27043123D01*
X102036108Y-27040947D01*
X102110994Y-26996306D01*
X103240241Y-26996306D01*
X103255548Y-27152422D01*
X103258459Y-27166116D01*
X103307972Y-27314958D01*
X103313848Y-27327675D01*
X103315077Y-27329705D01*
X103315469Y-27331183D01*
X103316802Y-27334069D01*
X103316295Y-27334303D01*
X103318369Y-27342130D01*
X103342485Y-27304605D01*
X103634278Y-27012812D01*
X103640656Y-27001132D01*
X104370708Y-27001132D01*
X104370839Y-27002965D01*
X104375090Y-27009580D01*
X104387188Y-27021678D01*
X104401132Y-27029292D01*
X104402965Y-27029161D01*
X104409580Y-27024910D01*
X104421678Y-27012812D01*
X104428056Y-27001132D01*
X105158108Y-27001132D01*
X105158239Y-27002965D01*
X105162490Y-27009580D01*
X105457515Y-27304605D01*
X105478187Y-27342463D01*
X105482293Y-27329810D01*
X105486480Y-27322196D01*
X105533931Y-27197283D01*
X105537411Y-27183729D01*
X105559672Y-27025334D01*
X105560278Y-27017450D01*
X105560467Y-27003962D01*
X105560080Y-26996061D01*
X105542251Y-26837111D01*
X105539149Y-26823458D01*
X105487556Y-26675304D01*
X105480244Y-26660029D01*
X105457515Y-26695395D01*
X105165722Y-26987188D01*
X105158108Y-27001132D01*
X104428056Y-27001132D01*
X104429292Y-26998868D01*
X104429161Y-26997035D01*
X104424910Y-26990420D01*
X104412812Y-26978322D01*
X104398868Y-26970708D01*
X104397035Y-26970839D01*
X104390420Y-26975090D01*
X104378322Y-26987188D01*
X104370708Y-27001132D01*
X103640656Y-27001132D01*
X103641892Y-26998868D01*
X103641761Y-26997035D01*
X103637510Y-26990420D01*
X103342485Y-26695395D01*
X103321132Y-26656291D01*
X103318128Y-26667527D01*
X103312728Y-26677510D01*
X103263388Y-26813069D01*
X103260096Y-26826678D01*
X103240437Y-26982299D01*
X103240241Y-26996306D01*
X102110994Y-26996306D01*
X102181849Y-26954068D01*
X102185860Y-26951677D01*
X102185862Y-26951676D01*
X102191912Y-26948069D01*
X102323266Y-26822982D01*
X102423643Y-26671902D01*
X102448133Y-26607432D01*
X103977008Y-26607432D01*
X103977139Y-26609265D01*
X103981390Y-26615880D01*
X103993488Y-26627978D01*
X104007432Y-26635592D01*
X104009265Y-26635461D01*
X104015880Y-26631210D01*
X104027978Y-26619112D01*
X104034356Y-26607432D01*
X104764408Y-26607432D01*
X104764539Y-26609265D01*
X104768790Y-26615880D01*
X104780888Y-26627978D01*
X104794832Y-26635592D01*
X104796665Y-26635461D01*
X104803280Y-26631210D01*
X104815378Y-26619112D01*
X104822992Y-26605168D01*
X104822861Y-26603335D01*
X104818610Y-26596720D01*
X104806512Y-26584622D01*
X104792568Y-26577008D01*
X104790735Y-26577139D01*
X104784120Y-26581390D01*
X104772022Y-26593488D01*
X104764408Y-26607432D01*
X104034356Y-26607432D01*
X104035592Y-26605168D01*
X104035461Y-26603335D01*
X104031210Y-26596720D01*
X104019112Y-26584622D01*
X104005168Y-26577008D01*
X104003335Y-26577139D01*
X103996720Y-26581390D01*
X103984622Y-26593488D01*
X103977008Y-26607432D01*
X102448133Y-26607432D01*
X102478475Y-26527558D01*
X102485555Y-26508920D01*
X102485556Y-26508918D01*
X102488055Y-26502338D01*
X102489799Y-26489928D01*
X102512748Y-26326639D01*
X102512748Y-26326636D01*
X102513299Y-26322717D01*
X102513452Y-26311738D01*
X102513561Y-26303962D01*
X102513561Y-26303957D01*
X102513616Y-26300000D01*
X102503398Y-26208906D01*
X103240241Y-26208906D01*
X103255548Y-26365022D01*
X103258459Y-26378716D01*
X103307972Y-26527558D01*
X103313848Y-26540275D01*
X103315077Y-26542305D01*
X103315469Y-26543783D01*
X103316802Y-26546669D01*
X103316295Y-26546903D01*
X103318369Y-26554730D01*
X103342485Y-26517205D01*
X103634278Y-26225412D01*
X103640656Y-26213732D01*
X104370708Y-26213732D01*
X104370839Y-26215565D01*
X104375090Y-26222180D01*
X104387188Y-26234278D01*
X104401132Y-26241892D01*
X104402965Y-26241761D01*
X104409580Y-26237510D01*
X104421678Y-26225412D01*
X104428056Y-26213732D01*
X105158108Y-26213732D01*
X105158239Y-26215565D01*
X105162490Y-26222180D01*
X105457515Y-26517205D01*
X105478187Y-26555063D01*
X105482293Y-26542410D01*
X105486480Y-26534796D01*
X105533931Y-26409883D01*
X105537411Y-26396329D01*
X105559672Y-26237934D01*
X105560278Y-26230050D01*
X105560467Y-26216562D01*
X105560080Y-26208661D01*
X105542251Y-26049711D01*
X105539149Y-26036058D01*
X105488555Y-25890773D01*
X105483916Y-25886643D01*
X105474889Y-25890621D01*
X105165722Y-26199788D01*
X105158108Y-26213732D01*
X104428056Y-26213732D01*
X104429292Y-26211468D01*
X104429161Y-26209635D01*
X104424910Y-26203020D01*
X104412812Y-26190922D01*
X104398868Y-26183308D01*
X104397035Y-26183439D01*
X104390420Y-26187690D01*
X104378322Y-26199788D01*
X104370708Y-26213732D01*
X103640656Y-26213732D01*
X103641892Y-26211468D01*
X103641761Y-26209635D01*
X103637510Y-26203020D01*
X103328708Y-25894218D01*
X103316328Y-25887458D01*
X103312706Y-25890169D01*
X103263388Y-26025669D01*
X103260096Y-26039278D01*
X103240437Y-26194899D01*
X103240241Y-26208906D01*
X102503398Y-26208906D01*
X102493397Y-26119745D01*
X102433745Y-25948448D01*
X102434150Y-25948307D01*
X102423446Y-25882476D01*
X102430684Y-25853367D01*
X102485555Y-25708920D01*
X102485556Y-25708918D01*
X102488055Y-25702338D01*
X102498705Y-25626558D01*
X102512748Y-25526639D01*
X102512748Y-25526636D01*
X102513282Y-25522839D01*
X103680754Y-25522839D01*
X103684578Y-25531668D01*
X103993488Y-25840578D01*
X104007432Y-25848192D01*
X104009265Y-25848061D01*
X104015880Y-25843810D01*
X104310905Y-25548785D01*
X104350699Y-25527055D01*
X104339470Y-25524115D01*
X104450709Y-25524115D01*
X104489095Y-25548785D01*
X104780888Y-25840578D01*
X104794832Y-25848192D01*
X104796665Y-25848061D01*
X104803280Y-25843810D01*
X105112507Y-25534583D01*
X105119267Y-25522203D01*
X105116682Y-25518749D01*
X105116382Y-25518589D01*
X104975445Y-25468403D01*
X104961806Y-25465204D01*
X104806046Y-25446631D01*
X104792049Y-25446533D01*
X104636042Y-25462930D01*
X104622368Y-25465936D01*
X104473866Y-25516491D01*
X104454831Y-25525448D01*
X104453807Y-25523272D01*
X104450709Y-25524115D01*
X104339470Y-25524115D01*
X104339111Y-25524021D01*
X104328986Y-25518590D01*
X104188045Y-25468403D01*
X104174406Y-25465204D01*
X104018646Y-25446631D01*
X104004649Y-25446533D01*
X103848642Y-25462930D01*
X103834968Y-25465936D01*
X103686482Y-25516485D01*
X103680754Y-25522839D01*
X102513282Y-25522839D01*
X102513299Y-25522717D01*
X102513616Y-25500000D01*
X102493397Y-25319745D01*
X102489546Y-25308685D01*
X102478287Y-25276355D01*
X102433745Y-25148448D01*
X102434150Y-25148307D01*
X102423446Y-25082476D01*
X102430684Y-25053367D01*
X102485555Y-24908920D01*
X102485556Y-24908918D01*
X102488055Y-24902338D01*
X102489169Y-24894412D01*
X102512748Y-24726639D01*
X102512748Y-24726636D01*
X102513299Y-24722717D01*
X102513616Y-24700000D01*
X102493397Y-24519745D01*
X102491080Y-24513091D01*
X102436064Y-24355106D01*
X102436062Y-24355103D01*
X102433745Y-24348448D01*
X102341778Y-24201268D01*
X102322642Y-24132900D01*
X102343507Y-24065039D01*
X102397749Y-24019231D01*
X102448632Y-24008500D01*
X105552637Y-24008500D01*
X105620758Y-24028502D01*
X105667251Y-24082158D01*
X105677355Y-24152432D01*
X105658549Y-24202753D01*
X105571235Y-24338238D01*
X105568826Y-24344858D01*
X105568824Y-24344861D01*
X105534566Y-24438984D01*
X105509197Y-24508685D01*
X105486463Y-24688640D01*
X105504163Y-24869160D01*
X105561418Y-25041273D01*
X105565065Y-25047295D01*
X105565066Y-25047297D01*
X105636605Y-25165422D01*
X105655380Y-25196424D01*
X105660269Y-25201487D01*
X105660270Y-25201488D01*
X105681027Y-25222982D01*
X105781382Y-25326902D01*
X105787278Y-25330760D01*
X105919817Y-25417491D01*
X105933159Y-25426222D01*
X105939763Y-25428678D01*
X105939765Y-25428679D01*
X106096558Y-25486990D01*
X106096560Y-25486990D01*
X106103168Y-25489448D01*
X106182250Y-25500000D01*
X106275980Y-25512507D01*
X106275984Y-25512507D01*
X106282961Y-25513438D01*
X106289972Y-25512800D01*
X106289976Y-25512800D01*
X106432459Y-25499832D01*
X106463600Y-25496998D01*
X106470302Y-25494820D01*
X106470304Y-25494820D01*
X106629409Y-25443124D01*
X106629412Y-25443123D01*
X106636108Y-25440947D01*
X106791912Y-25348069D01*
X106923266Y-25222982D01*
X107023643Y-25071902D01*
X107088055Y-24902338D01*
X107089169Y-24894412D01*
X107112748Y-24726639D01*
X107112748Y-24726636D01*
X107113299Y-24722717D01*
X107113616Y-24700000D01*
X107093397Y-24519745D01*
X107091080Y-24513091D01*
X107036064Y-24355106D01*
X107036062Y-24355103D01*
X107033745Y-24348448D01*
X106941778Y-24201268D01*
X106922642Y-24132900D01*
X106943507Y-24065039D01*
X106997749Y-24019231D01*
X107048632Y-24008500D01*
X109518583Y-24008500D01*
X109538292Y-24010051D01*
X109552190Y-24012252D01*
X109558777Y-24011907D01*
X109558782Y-24011907D01*
X109620480Y-24008673D01*
X109627074Y-24008500D01*
X109647610Y-24008500D01*
X109650882Y-24008156D01*
X109650884Y-24008156D01*
X109668042Y-24006353D01*
X109674616Y-24005836D01*
X109736308Y-24002603D01*
X109736312Y-24002602D01*
X109742903Y-24002257D01*
X109749284Y-24000547D01*
X109749286Y-24000547D01*
X109756491Y-23998617D01*
X109775925Y-23995015D01*
X109783354Y-23994234D01*
X109783363Y-23994232D01*
X109789928Y-23993542D01*
X109854997Y-23972400D01*
X109861299Y-23970533D01*
X109927370Y-23952829D01*
X109939908Y-23946440D01*
X109958174Y-23938875D01*
X109965272Y-23936569D01*
X109965274Y-23936568D01*
X109971556Y-23934527D01*
X110030785Y-23900331D01*
X110036579Y-23897185D01*
X110048486Y-23891118D01*
X110097530Y-23866129D01*
X110108467Y-23857273D01*
X110124763Y-23846073D01*
X110131224Y-23842343D01*
X110131228Y-23842340D01*
X110136944Y-23839040D01*
X110141850Y-23834623D01*
X110141855Y-23834619D01*
X110187769Y-23793278D01*
X110192784Y-23788994D01*
X110201282Y-23782112D01*
X110208741Y-23776072D01*
X110223256Y-23761557D01*
X110228041Y-23757016D01*
X110273957Y-23715673D01*
X110278866Y-23711253D01*
X110282747Y-23705912D01*
X110287168Y-23701002D01*
X110287818Y-23701587D01*
X110301587Y-23687818D01*
X110301002Y-23687168D01*
X110305912Y-23682747D01*
X110311253Y-23678866D01*
X110357016Y-23628041D01*
X110361557Y-23623256D01*
X110376072Y-23608741D01*
X110388994Y-23592784D01*
X110393278Y-23587769D01*
X110434619Y-23541855D01*
X110434623Y-23541850D01*
X110439040Y-23536944D01*
X110442340Y-23531228D01*
X110442343Y-23531224D01*
X110446073Y-23524763D01*
X110457273Y-23508466D01*
X110461975Y-23502660D01*
X110461976Y-23502658D01*
X110466129Y-23497530D01*
X110497186Y-23436577D01*
X110500333Y-23430782D01*
X110531223Y-23377279D01*
X110531224Y-23377278D01*
X110534527Y-23371556D01*
X110538875Y-23358173D01*
X110546441Y-23339907D01*
X110549832Y-23333252D01*
X110552829Y-23327370D01*
X110559948Y-23300805D01*
X110570529Y-23261315D01*
X110572402Y-23254991D01*
X110576520Y-23242316D01*
X110593542Y-23189928D01*
X110594232Y-23183362D01*
X110594233Y-23183357D01*
X110595012Y-23175939D01*
X110598617Y-23156488D01*
X110600547Y-23149285D01*
X110602257Y-23142904D01*
X110603607Y-23117157D01*
X110605836Y-23074615D01*
X110606353Y-23068040D01*
X110612814Y-23006566D01*
X110612814Y-23006565D01*
X110613504Y-23000000D01*
X110612033Y-22986001D01*
X110611516Y-22966241D01*
X110611907Y-22958784D01*
X110611907Y-22958780D01*
X110612252Y-22952191D01*
X110601550Y-22884619D01*
X110600692Y-22878102D01*
X110599927Y-22870817D01*
X110593542Y-22810072D01*
X110589195Y-22796693D01*
X110584578Y-22777464D01*
X110583410Y-22770091D01*
X110582377Y-22763568D01*
X110557861Y-22699701D01*
X110555664Y-22693497D01*
X110546936Y-22666635D01*
X110534527Y-22628444D01*
X110527493Y-22616261D01*
X110518981Y-22598414D01*
X110516307Y-22591448D01*
X110516304Y-22591443D01*
X110513938Y-22585278D01*
X110500314Y-22564298D01*
X110476679Y-22527904D01*
X110473233Y-22522280D01*
X110442343Y-22468777D01*
X110439040Y-22463056D01*
X110429628Y-22452603D01*
X110417592Y-22436917D01*
X110413524Y-22430653D01*
X110413522Y-22430651D01*
X110409926Y-22425113D01*
X110361557Y-22376744D01*
X110357016Y-22371959D01*
X110315673Y-22326043D01*
X110311253Y-22321134D01*
X110299865Y-22312860D01*
X110284832Y-22300019D01*
X110274887Y-22290074D01*
X110268774Y-22286104D01*
X110217525Y-22252822D01*
X110212090Y-22249087D01*
X110162092Y-22212762D01*
X110156752Y-22208882D01*
X110150722Y-22206197D01*
X110150718Y-22206195D01*
X110143894Y-22203157D01*
X110126520Y-22193724D01*
X110125208Y-22192872D01*
X110114722Y-22186062D01*
X110108561Y-22183697D01*
X110108557Y-22183695D01*
X110050867Y-22161550D01*
X110044794Y-22159035D01*
X109982288Y-22131206D01*
X109975834Y-22129834D01*
X109975830Y-22129833D01*
X109968527Y-22128281D01*
X109949568Y-22122666D01*
X109936432Y-22117623D01*
X109905223Y-22112680D01*
X109868883Y-22106924D01*
X109862399Y-22105722D01*
X109801946Y-22092873D01*
X109801947Y-22092873D01*
X109795487Y-22091500D01*
X109781416Y-22091500D01*
X109761707Y-22089949D01*
X109747809Y-22087748D01*
X109741222Y-22088093D01*
X109741217Y-22088093D01*
X109679519Y-22091327D01*
X109672925Y-22091500D01*
X109604513Y-22091500D01*
X109598053Y-22092873D01*
X109598046Y-22092874D01*
X109590747Y-22094426D01*
X109571142Y-22097007D01*
X109570471Y-22097042D01*
X109557096Y-22097743D01*
X109550721Y-22099451D01*
X109550716Y-22099452D01*
X109491034Y-22115444D01*
X109484626Y-22116983D01*
X109417712Y-22131206D01*
X109411677Y-22133893D01*
X109404853Y-22136931D01*
X109386221Y-22143529D01*
X109379008Y-22145462D01*
X109372630Y-22147171D01*
X109366751Y-22150166D01*
X109366747Y-22150168D01*
X109312581Y-22177767D01*
X109255379Y-22191500D01*
X106784500Y-22191500D01*
X106716379Y-22171498D01*
X106669886Y-22117842D01*
X106658500Y-22065500D01*
X106658500Y-20726866D01*
X106651745Y-20664684D01*
X106600615Y-20528295D01*
X106513261Y-20411739D01*
X106396705Y-20324385D01*
X106260316Y-20273255D01*
X106198134Y-20266500D01*
X105066371Y-20266500D01*
X104998250Y-20246498D01*
X104977276Y-20229595D01*
X104971276Y-20223595D01*
X104937250Y-20161283D01*
X104942315Y-20090468D01*
X104984862Y-20033632D01*
X105051382Y-20008821D01*
X105060371Y-20008500D01*
X109163143Y-20008500D01*
X109231264Y-20028502D01*
X109277757Y-20082158D01*
X109287861Y-20152432D01*
X109265138Y-20208416D01*
X109260960Y-20213056D01*
X109257659Y-20218774D01*
X109257658Y-20218775D01*
X109177625Y-20357397D01*
X109165473Y-20378444D01*
X109106458Y-20560072D01*
X109105768Y-20566633D01*
X109105768Y-20566635D01*
X109093635Y-20682076D01*
X109086496Y-20750000D01*
X109087186Y-20756565D01*
X109105542Y-20931209D01*
X109106458Y-20939928D01*
X109165473Y-21121556D01*
X109260960Y-21286944D01*
X109265378Y-21291851D01*
X109265379Y-21291852D01*
X109319640Y-21352115D01*
X109388747Y-21428866D01*
X109543248Y-21541118D01*
X109549276Y-21543802D01*
X109549278Y-21543803D01*
X109631504Y-21580412D01*
X109717712Y-21618794D01*
X109811113Y-21638647D01*
X109898056Y-21657128D01*
X109898061Y-21657128D01*
X109904513Y-21658500D01*
X110095487Y-21658500D01*
X110101939Y-21657128D01*
X110101944Y-21657128D01*
X110188887Y-21638647D01*
X110282288Y-21618794D01*
X110368496Y-21580412D01*
X110450722Y-21543803D01*
X110450724Y-21543802D01*
X110456752Y-21541118D01*
X110491169Y-21516113D01*
X110589671Y-21444546D01*
X110611253Y-21428866D01*
X110615668Y-21423963D01*
X110620580Y-21419540D01*
X110621705Y-21420789D01*
X110675014Y-21387949D01*
X110708200Y-21383500D01*
X112415500Y-21383500D01*
X112483621Y-21403502D01*
X112530114Y-21457158D01*
X112541500Y-21509500D01*
X112541500Y-35146233D01*
X112540973Y-35157416D01*
X112539298Y-35164909D01*
X112539547Y-35172835D01*
X112539547Y-35172836D01*
X112541438Y-35232986D01*
X112541500Y-35236945D01*
X112541500Y-35264856D01*
X112541997Y-35268790D01*
X112541997Y-35268791D01*
X112542005Y-35268856D01*
X112542938Y-35280693D01*
X112544327Y-35324889D01*
X112549978Y-35344339D01*
X112553987Y-35363700D01*
X112556526Y-35383797D01*
X112559445Y-35391168D01*
X112559445Y-35391170D01*
X112572804Y-35424912D01*
X112576649Y-35436142D01*
X112585448Y-35466428D01*
X112588982Y-35478593D01*
X112593015Y-35485412D01*
X112593017Y-35485417D01*
X112599293Y-35496028D01*
X112607988Y-35513776D01*
X112615448Y-35532617D01*
X112620110Y-35539033D01*
X112620110Y-35539034D01*
X112641436Y-35568387D01*
X112647952Y-35578307D01*
X112663032Y-35603805D01*
X112670458Y-35616362D01*
X112684779Y-35630683D01*
X112697619Y-35645716D01*
X112709528Y-35662107D01*
X112733491Y-35681931D01*
X112743605Y-35690298D01*
X112752384Y-35698288D01*
X112770840Y-35716744D01*
X112804866Y-35779056D01*
X112799801Y-35849871D01*
X112775383Y-35890146D01*
X112698661Y-35975355D01*
X112655771Y-36049642D01*
X112608997Y-36130658D01*
X112603174Y-36140743D01*
X112544159Y-36322371D01*
X112539242Y-36369160D01*
X112538786Y-36373496D01*
X112511774Y-36439153D01*
X112454082Y-36479604D01*
X112353579Y-36513818D01*
X112308952Y-36541273D01*
X112205095Y-36605166D01*
X112205092Y-36605168D01*
X112199088Y-36608862D01*
X112194053Y-36613793D01*
X112194050Y-36613795D01*
X112077591Y-36727841D01*
X112069493Y-36735771D01*
X112065678Y-36741691D01*
X112065677Y-36741692D01*
X112063176Y-36745573D01*
X112009462Y-36791999D01*
X111939175Y-36802015D01*
X111889752Y-36783707D01*
X111840197Y-36752258D01*
X111771626Y-36727841D01*
X111675956Y-36693774D01*
X111675951Y-36693773D01*
X111669321Y-36691412D01*
X111662333Y-36690579D01*
X111662330Y-36690578D01*
X111619539Y-36685476D01*
X111554265Y-36657549D01*
X111545362Y-36649457D01*
X111128652Y-36232747D01*
X111121112Y-36224461D01*
X111117000Y-36217982D01*
X111067348Y-36171356D01*
X111064507Y-36168602D01*
X111044770Y-36148865D01*
X111041573Y-36146385D01*
X111032551Y-36138680D01*
X111000321Y-36108414D01*
X110993375Y-36104595D01*
X110993372Y-36104593D01*
X110982566Y-36098652D01*
X110966047Y-36087801D01*
X110965583Y-36087441D01*
X110950041Y-36075386D01*
X110942772Y-36072241D01*
X110942768Y-36072238D01*
X110909463Y-36057826D01*
X110898813Y-36052609D01*
X110860060Y-36031305D01*
X110840437Y-36026267D01*
X110821734Y-36019863D01*
X110810420Y-36014967D01*
X110810419Y-36014967D01*
X110803145Y-36011819D01*
X110795322Y-36010580D01*
X110795312Y-36010577D01*
X110759476Y-36004901D01*
X110747859Y-36002496D01*
X110742148Y-36001030D01*
X110729869Y-35997877D01*
X110668862Y-35961566D01*
X110637171Y-35898035D01*
X110644858Y-35827455D01*
X110689483Y-35772236D01*
X110749779Y-35750354D01*
X110807076Y-35745139D01*
X110814097Y-35744500D01*
X110820799Y-35742322D01*
X110820801Y-35742322D01*
X110979906Y-35690626D01*
X110979909Y-35690625D01*
X110986605Y-35688449D01*
X110992653Y-35684844D01*
X110999074Y-35681931D01*
X111000349Y-35684742D01*
X111055904Y-35670483D01*
X111095491Y-35678310D01*
X111253168Y-35736950D01*
X111336995Y-35748135D01*
X111425980Y-35760009D01*
X111425984Y-35760009D01*
X111432961Y-35760940D01*
X111439972Y-35760302D01*
X111439976Y-35760302D01*
X111582459Y-35747334D01*
X111613600Y-35744500D01*
X111620302Y-35742322D01*
X111620304Y-35742322D01*
X111779409Y-35690626D01*
X111779412Y-35690625D01*
X111786108Y-35688449D01*
X111897622Y-35621973D01*
X111935860Y-35599179D01*
X111935862Y-35599178D01*
X111941912Y-35595571D01*
X112073266Y-35470484D01*
X112173643Y-35319404D01*
X112223881Y-35187153D01*
X112235555Y-35156422D01*
X112235556Y-35156420D01*
X112238055Y-35149840D01*
X112241301Y-35126744D01*
X112262748Y-34974141D01*
X112262748Y-34974138D01*
X112263299Y-34970219D01*
X112263616Y-34947502D01*
X112243397Y-34767247D01*
X112239979Y-34757432D01*
X112186064Y-34602608D01*
X112186062Y-34602605D01*
X112183745Y-34595950D01*
X112162248Y-34561547D01*
X112091359Y-34448100D01*
X112087626Y-34442126D01*
X112078612Y-34433049D01*
X111964778Y-34318417D01*
X111964774Y-34318414D01*
X111959815Y-34313420D01*
X111951171Y-34307934D01*
X111885405Y-34266198D01*
X111806666Y-34216229D01*
X111758149Y-34198953D01*
X111642425Y-34157745D01*
X111642420Y-34157744D01*
X111635790Y-34155383D01*
X111628802Y-34154550D01*
X111628799Y-34154549D01*
X111505698Y-34139870D01*
X111455680Y-34133906D01*
X111448677Y-34134642D01*
X111448676Y-34134642D01*
X111430717Y-34136530D01*
X111374078Y-34142483D01*
X111304242Y-34129711D01*
X111252395Y-34081210D01*
X111235000Y-34012377D01*
X111235974Y-34001440D01*
X111236086Y-33999983D01*
X111236638Y-33996056D01*
X111236955Y-33973339D01*
X111216736Y-33793084D01*
X111213442Y-33783624D01*
X111159403Y-33628445D01*
X111159401Y-33628442D01*
X111157084Y-33621787D01*
X111121896Y-33565474D01*
X111064698Y-33473937D01*
X111060965Y-33467963D01*
X111056003Y-33462966D01*
X110938117Y-33344254D01*
X110938113Y-33344251D01*
X110933154Y-33339257D01*
X110926420Y-33334983D01*
X110873877Y-33301639D01*
X110780005Y-33242066D01*
X110750802Y-33231667D01*
X110615764Y-33183582D01*
X110615759Y-33183581D01*
X110609129Y-33181220D01*
X110602141Y-33180387D01*
X110602138Y-33180386D01*
X110479037Y-33165707D01*
X110429019Y-33159743D01*
X110422016Y-33160479D01*
X110422015Y-33160479D01*
X110255627Y-33177967D01*
X110255625Y-33177968D01*
X110248627Y-33178703D01*
X110076918Y-33237157D01*
X110070914Y-33240851D01*
X109928434Y-33328505D01*
X109928431Y-33328507D01*
X109922427Y-33332201D01*
X109917392Y-33337132D01*
X109917389Y-33337134D01*
X109827658Y-33425006D01*
X109764993Y-33458377D01*
X109694234Y-33452571D01*
X109637847Y-33409432D01*
X109613734Y-33342655D01*
X109613500Y-33334983D01*
X109613500Y-30485056D01*
X109613050Y-30463572D01*
X109594808Y-30365903D01*
X109587042Y-30324322D01*
X109587042Y-30324321D01*
X109586216Y-30319900D01*
X109576078Y-30290054D01*
X109546182Y-30219722D01*
X109470281Y-30113228D01*
X109466586Y-30108043D01*
X109466585Y-30108042D01*
X109461353Y-30100701D01*
X109346428Y-30010400D01*
X109342526Y-30008150D01*
X109342518Y-30008144D01*
X109337733Y-30005384D01*
X109336733Y-30004791D01*
X109329912Y-29999157D01*
X109321633Y-29995610D01*
X109321628Y-29995607D01*
X109267163Y-29972274D01*
X109251988Y-29963869D01*
X109252796Y-29961917D01*
X109240280Y-29956733D01*
X109238323Y-29955374D01*
X109193775Y-29900093D01*
X109186185Y-29829503D01*
X109189608Y-29815299D01*
X109203976Y-29767935D01*
X109207706Y-29749184D01*
X109214631Y-29594105D01*
X109178485Y-29452488D01*
X109164133Y-29417840D01*
X109111524Y-29321495D01*
X109011931Y-29214522D01*
X109004186Y-29209927D01*
X109004184Y-29209925D01*
X108890110Y-29142241D01*
X108886234Y-29139941D01*
X108851586Y-29125589D01*
X108850008Y-29125032D01*
X108850002Y-29125030D01*
X108805575Y-29109357D01*
X108805574Y-29109357D01*
X108799744Y-29107300D01*
X108781772Y-29104716D01*
X108659522Y-29087139D01*
X108659515Y-29087138D01*
X108655074Y-29086500D01*
X106149000Y-29086500D01*
X106118469Y-29088137D01*
X106100292Y-29089111D01*
X106100289Y-29089111D01*
X106094105Y-29089443D01*
X105952488Y-29125589D01*
X105917840Y-29139941D01*
X105821495Y-29192550D01*
X105815727Y-29197920D01*
X105815723Y-29197923D01*
X105734746Y-29273313D01*
X105671259Y-29305091D01*
X105600669Y-29297501D01*
X105556669Y-29266951D01*
X105513993Y-29221113D01*
X105507857Y-29214522D01*
X105500112Y-29209927D01*
X105500110Y-29209925D01*
X105386036Y-29142241D01*
X105382160Y-29139941D01*
X105347512Y-29125589D01*
X105345934Y-29125032D01*
X105345928Y-29125030D01*
X105301501Y-29109357D01*
X105301500Y-29109357D01*
X105295670Y-29107300D01*
X105277698Y-29104716D01*
X105155448Y-29087139D01*
X105155441Y-29087138D01*
X105151000Y-29086500D01*
X101849000Y-29086500D01*
X101818469Y-29088137D01*
X101800292Y-29089111D01*
X101800289Y-29089111D01*
X101794105Y-29089443D01*
X101652488Y-29125589D01*
X101617840Y-29139941D01*
X101521495Y-29192550D01*
X101414522Y-29292143D01*
X101409927Y-29299888D01*
X101409925Y-29299890D01*
X101393001Y-29328414D01*
X101339941Y-29417840D01*
X101325589Y-29452488D01*
X101307300Y-29504330D01*
X101306420Y-29510451D01*
X101287139Y-29644552D01*
X101287138Y-29644559D01*
X101286500Y-29649000D01*
X101286500Y-31315462D01*
X101290885Y-31382425D01*
X101292552Y-31395099D01*
X101299230Y-31421278D01*
X101296687Y-31492226D01*
X101283051Y-31520676D01*
X101271733Y-31538238D01*
X101240969Y-31622760D01*
X101217024Y-31688550D01*
X101209695Y-31708685D01*
X101186961Y-31888640D01*
X101204661Y-32069160D01*
X101261916Y-32241273D01*
X101265564Y-32247297D01*
X101265568Y-32247305D01*
X101286689Y-32282179D01*
X101304869Y-32350808D01*
X101303633Y-32365376D01*
X101286500Y-32484538D01*
X101286500Y-33265500D01*
X101266498Y-33333621D01*
X101212842Y-33380114D01*
X101160500Y-33391500D01*
X101104513Y-33391500D01*
X101098061Y-33392872D01*
X101098056Y-33392872D01*
X101032645Y-33406776D01*
X100917712Y-33431206D01*
X100911682Y-33433891D01*
X100911681Y-33433891D01*
X100749278Y-33506197D01*
X100749276Y-33506198D01*
X100743248Y-33508882D01*
X100737907Y-33512762D01*
X100737906Y-33512763D01*
X100734747Y-33515058D01*
X100588747Y-33621134D01*
X100584326Y-33626044D01*
X100584325Y-33626045D01*
X100482029Y-33739657D01*
X100460960Y-33763056D01*
X100422033Y-33830479D01*
X100373636Y-33914306D01*
X100365473Y-33928444D01*
X100338864Y-34010339D01*
X100329333Y-34039671D01*
X100289259Y-34098277D01*
X100223863Y-34125914D01*
X100153906Y-34113807D01*
X100101600Y-34065801D01*
X100083500Y-34000735D01*
X100083499Y-33571249D01*
X100083499Y-33568366D01*
X100083234Y-33565474D01*
X100078558Y-33514585D01*
X100076753Y-33494938D01*
X100074752Y-33488554D01*
X100027744Y-33338550D01*
X100027743Y-33338548D01*
X100025472Y-33331301D01*
X99936639Y-33184619D01*
X99841115Y-33089095D01*
X99807089Y-33026783D01*
X99812154Y-32955968D01*
X99841115Y-32910905D01*
X99936639Y-32815381D01*
X100025472Y-32668699D01*
X100027785Y-32661320D01*
X100057682Y-32565918D01*
X100076753Y-32505062D01*
X100083500Y-32431635D01*
X100083499Y-31918366D01*
X100083228Y-31915410D01*
X100078350Y-31862318D01*
X100076753Y-31844938D01*
X100069493Y-31821772D01*
X100027744Y-31688550D01*
X100027743Y-31688548D01*
X100025472Y-31681301D01*
X99936639Y-31534619D01*
X99815381Y-31413361D01*
X99668699Y-31324528D01*
X99661452Y-31322257D01*
X99661450Y-31322256D01*
X99559302Y-31290245D01*
X99505062Y-31273247D01*
X99431635Y-31266500D01*
X99428737Y-31266500D01*
X99099140Y-31266501D01*
X98768366Y-31266501D01*
X98765508Y-31266764D01*
X98765499Y-31266764D01*
X98729996Y-31270026D01*
X98694938Y-31273247D01*
X98688560Y-31275246D01*
X98688559Y-31275246D01*
X98538550Y-31322256D01*
X98538548Y-31322257D01*
X98531301Y-31324528D01*
X98384619Y-31413361D01*
X98379248Y-31418732D01*
X98377747Y-31419909D01*
X98311799Y-31446202D01*
X98242104Y-31432667D01*
X98222253Y-31419909D01*
X98220752Y-31418732D01*
X98215381Y-31413361D01*
X98068699Y-31324528D01*
X98061452Y-31322257D01*
X98061450Y-31322256D01*
X97959302Y-31290245D01*
X97905062Y-31273247D01*
X97831635Y-31266500D01*
X97828737Y-31266500D01*
X97499140Y-31266501D01*
X97168366Y-31266501D01*
X97165508Y-31266764D01*
X97165499Y-31266764D01*
X97129996Y-31270026D01*
X97094938Y-31273247D01*
X97088560Y-31275246D01*
X97088559Y-31275246D01*
X96938550Y-31322256D01*
X96938548Y-31322257D01*
X96931301Y-31324528D01*
X96784619Y-31413361D01*
X96779248Y-31418732D01*
X96777747Y-31419909D01*
X96711799Y-31446202D01*
X96642104Y-31432667D01*
X96622253Y-31419909D01*
X96620752Y-31418732D01*
X96615381Y-31413361D01*
X96468699Y-31324528D01*
X96461452Y-31322257D01*
X96461450Y-31322256D01*
X96359302Y-31290245D01*
X96305062Y-31273247D01*
X96231635Y-31266500D01*
X96228737Y-31266500D01*
X95899140Y-31266501D01*
X95568366Y-31266501D01*
X95565508Y-31266764D01*
X95565499Y-31266764D01*
X95529996Y-31270026D01*
X95494938Y-31273247D01*
X95488560Y-31275246D01*
X95488559Y-31275246D01*
X95338550Y-31322256D01*
X95338548Y-31322257D01*
X95331301Y-31324528D01*
X95184619Y-31413361D01*
X95093385Y-31504595D01*
X95031073Y-31538621D01*
X95004290Y-31541500D01*
X94489595Y-31541500D01*
X94421474Y-31521498D01*
X94400499Y-31504595D01*
X93969655Y-31073750D01*
X93534420Y-30638515D01*
X93500395Y-30576203D01*
X93498301Y-30563465D01*
X93497911Y-30559990D01*
X93493397Y-30519745D01*
X93456737Y-30414473D01*
X93436064Y-30355106D01*
X93436062Y-30355103D01*
X93433745Y-30348448D01*
X93418670Y-30324322D01*
X93341359Y-30200598D01*
X93337626Y-30194624D01*
X93322963Y-30179858D01*
X93214778Y-30070915D01*
X93214774Y-30070912D01*
X93209815Y-30065918D01*
X93198697Y-30058862D01*
X93150538Y-30028300D01*
X93056666Y-29968727D01*
X92992187Y-29945767D01*
X92892425Y-29910243D01*
X92892420Y-29910242D01*
X92885790Y-29907881D01*
X92878802Y-29907048D01*
X92878799Y-29907047D01*
X92738688Y-29890340D01*
X92705680Y-29886404D01*
X92698677Y-29887140D01*
X92698676Y-29887140D01*
X92532288Y-29904628D01*
X92532286Y-29904629D01*
X92525288Y-29905364D01*
X92353579Y-29963818D01*
X92320298Y-29984293D01*
X92205095Y-30055166D01*
X92205092Y-30055168D01*
X92199088Y-30058862D01*
X92194053Y-30063793D01*
X92194050Y-30063795D01*
X92148866Y-30108043D01*
X92069493Y-30185771D01*
X91971235Y-30338238D01*
X91968826Y-30344858D01*
X91968824Y-30344861D01*
X91925617Y-30463572D01*
X91909197Y-30508685D01*
X91886463Y-30688640D01*
X91904163Y-30869160D01*
X91961418Y-31041273D01*
X91965065Y-31047295D01*
X91965066Y-31047297D01*
X92031464Y-31156933D01*
X92055380Y-31196424D01*
X92060269Y-31201487D01*
X92060270Y-31201488D01*
X92110578Y-31253583D01*
X92181382Y-31326902D01*
X92224310Y-31354993D01*
X92324733Y-31420708D01*
X92333159Y-31426222D01*
X92339763Y-31428678D01*
X92339765Y-31428679D01*
X92496558Y-31486990D01*
X92496560Y-31486990D01*
X92503168Y-31489448D01*
X92510153Y-31490380D01*
X92510157Y-31490381D01*
X92547824Y-31495407D01*
X92565186Y-31497723D01*
X92630062Y-31526559D01*
X92637616Y-31533521D01*
X93671348Y-32567253D01*
X93678888Y-32575539D01*
X93683000Y-32582018D01*
X93688777Y-32587443D01*
X93732651Y-32628643D01*
X93735493Y-32631398D01*
X93755230Y-32651135D01*
X93758427Y-32653615D01*
X93767447Y-32661318D01*
X93799679Y-32691586D01*
X93806625Y-32695405D01*
X93806628Y-32695407D01*
X93817434Y-32701348D01*
X93833953Y-32712199D01*
X93849959Y-32724614D01*
X93857228Y-32727759D01*
X93857232Y-32727762D01*
X93890537Y-32742174D01*
X93901187Y-32747391D01*
X93939940Y-32768695D01*
X93947615Y-32770666D01*
X93947616Y-32770666D01*
X93959562Y-32773733D01*
X93978267Y-32780137D01*
X93996855Y-32788181D01*
X94004678Y-32789420D01*
X94004688Y-32789423D01*
X94040524Y-32795099D01*
X94052144Y-32797505D01*
X94087289Y-32806528D01*
X94094970Y-32808500D01*
X94115224Y-32808500D01*
X94134934Y-32810051D01*
X94154943Y-32813220D01*
X94162835Y-32812474D01*
X94198961Y-32809059D01*
X94210819Y-32808500D01*
X95004290Y-32808500D01*
X95072411Y-32828502D01*
X95093385Y-32845405D01*
X95158885Y-32910905D01*
X95192911Y-32973217D01*
X95187846Y-33044032D01*
X95158885Y-33089095D01*
X95063361Y-33184619D01*
X94974528Y-33331301D01*
X94972257Y-33338548D01*
X94972256Y-33338550D01*
X94955663Y-33391500D01*
X94923247Y-33494938D01*
X94916500Y-33568365D01*
X94916501Y-33800083D01*
X94916501Y-34010339D01*
X94896499Y-34078460D01*
X94882366Y-34096576D01*
X94881370Y-34097637D01*
X94878600Y-34100495D01*
X94858865Y-34120230D01*
X94856385Y-34123427D01*
X94848682Y-34132447D01*
X94818414Y-34164679D01*
X94814595Y-34171625D01*
X94814593Y-34171628D01*
X94808652Y-34182434D01*
X94797801Y-34198953D01*
X94785386Y-34214959D01*
X94782241Y-34222228D01*
X94782238Y-34222232D01*
X94767826Y-34255537D01*
X94762609Y-34266187D01*
X94741305Y-34304940D01*
X94739334Y-34312615D01*
X94739334Y-34312616D01*
X94736267Y-34324562D01*
X94729863Y-34343266D01*
X94728465Y-34346498D01*
X94721819Y-34361855D01*
X94720580Y-34369678D01*
X94720577Y-34369688D01*
X94714901Y-34405524D01*
X94712495Y-34417144D01*
X94703472Y-34452289D01*
X94701500Y-34459970D01*
X94701500Y-34480224D01*
X94699949Y-34499934D01*
X94696780Y-34519943D01*
X94697526Y-34527835D01*
X94697526Y-34527837D01*
X94699689Y-34550723D01*
X94692230Y-34606808D01*
X94645529Y-34731382D01*
X94645527Y-34731388D01*
X94642755Y-34738784D01*
X94636000Y-34800966D01*
X94636000Y-35405234D01*
X94641594Y-35456726D01*
X94629066Y-35526607D01*
X94580746Y-35578623D01*
X94560556Y-35588317D01*
X94557193Y-35589578D01*
X94541601Y-35598114D01*
X94439526Y-35674615D01*
X94426965Y-35687176D01*
X94350464Y-35789251D01*
X94341926Y-35804846D01*
X94296772Y-35925294D01*
X94293145Y-35940549D01*
X94287619Y-35991414D01*
X94287250Y-35998228D01*
X94287250Y-36139085D01*
X94291725Y-36154324D01*
X94293115Y-36155529D01*
X94300798Y-36157200D01*
X94948650Y-36157200D01*
X95016771Y-36177202D01*
X95063264Y-36230858D01*
X95074650Y-36283200D01*
X95074650Y-37040784D01*
X95086976Y-37082762D01*
X95096446Y-37097497D01*
X95101550Y-37132997D01*
X95101550Y-37613909D01*
X95081548Y-37682030D01*
X95027892Y-37728523D01*
X94963809Y-37739330D01*
X94956311Y-37737654D01*
X94948387Y-37737903D01*
X94948386Y-37737903D01*
X94835925Y-37741438D01*
X94831966Y-37741500D01*
X94707944Y-37741500D01*
X94640430Y-37721885D01*
X94577628Y-37682030D01*
X94556666Y-37668727D01*
X94527463Y-37658328D01*
X94392425Y-37610243D01*
X94392420Y-37610242D01*
X94385790Y-37607881D01*
X94378802Y-37607048D01*
X94378799Y-37607047D01*
X94239023Y-37590380D01*
X94205680Y-37586404D01*
X94198677Y-37587140D01*
X94198676Y-37587140D01*
X94032288Y-37604628D01*
X94032286Y-37604629D01*
X94025288Y-37605364D01*
X93853579Y-37663818D01*
X93804467Y-37694032D01*
X93705095Y-37755166D01*
X93705092Y-37755168D01*
X93699088Y-37758862D01*
X93694053Y-37763793D01*
X93694050Y-37763795D01*
X93574525Y-37880843D01*
X93569493Y-37885771D01*
X93471235Y-38038238D01*
X93468826Y-38044858D01*
X93468824Y-38044861D01*
X93435994Y-38135060D01*
X93409197Y-38208685D01*
X93386463Y-38388640D01*
X93404163Y-38569160D01*
X93461418Y-38741273D01*
X93465065Y-38747295D01*
X93465066Y-38747297D01*
X93532715Y-38858999D01*
X93555380Y-38896424D01*
X93681382Y-39026902D01*
X93833159Y-39126222D01*
X93839763Y-39128678D01*
X93839765Y-39128679D01*
X93996558Y-39186990D01*
X93996560Y-39186990D01*
X94003168Y-39189448D01*
X94082250Y-39200000D01*
X94175980Y-39212507D01*
X94175984Y-39212507D01*
X94182961Y-39213438D01*
X94189972Y-39212800D01*
X94189976Y-39212800D01*
X94332459Y-39199832D01*
X94363600Y-39196998D01*
X94370302Y-39194820D01*
X94370304Y-39194820D01*
X94529409Y-39143124D01*
X94529412Y-39143123D01*
X94536108Y-39140947D01*
X94549968Y-39132685D01*
X94579878Y-39114855D01*
X94648633Y-39097155D01*
X94716042Y-39119437D01*
X94733490Y-39133989D01*
X96046796Y-40447295D01*
X96080822Y-40509607D01*
X96075757Y-40580422D01*
X96033210Y-40637258D01*
X96023743Y-40643694D01*
X95999088Y-40658862D01*
X95994053Y-40663793D01*
X95994050Y-40663795D01*
X95899317Y-40756565D01*
X95869493Y-40785771D01*
X95771235Y-40938238D01*
X95768826Y-40944858D01*
X95768824Y-40944861D01*
X95720697Y-41077089D01*
X95709197Y-41108685D01*
X95686463Y-41288640D01*
X95704163Y-41469160D01*
X95761418Y-41641273D01*
X95765065Y-41647295D01*
X95765066Y-41647297D01*
X95848670Y-41785344D01*
X95855380Y-41796424D01*
X95860269Y-41801487D01*
X95860270Y-41801488D01*
X95908276Y-41851199D01*
X95981382Y-41926902D01*
X96050855Y-41972364D01*
X96113093Y-42013091D01*
X96133159Y-42026222D01*
X96139763Y-42028678D01*
X96139765Y-42028679D01*
X96296558Y-42086990D01*
X96296560Y-42086990D01*
X96303168Y-42089448D01*
X96310153Y-42090380D01*
X96310157Y-42090381D01*
X96347824Y-42095407D01*
X96365186Y-42097723D01*
X96430062Y-42126559D01*
X96437616Y-42133521D01*
X97210507Y-42906412D01*
X97218047Y-42914698D01*
X97222159Y-42921177D01*
X97227936Y-42926602D01*
X97271810Y-42967802D01*
X97274652Y-42970557D01*
X97294389Y-42990294D01*
X97297586Y-42992774D01*
X97306606Y-43000477D01*
X97338838Y-43030745D01*
X97345784Y-43034564D01*
X97345787Y-43034566D01*
X97356593Y-43040507D01*
X97373112Y-43051358D01*
X97389118Y-43063773D01*
X97396387Y-43066918D01*
X97396391Y-43066921D01*
X97429696Y-43081333D01*
X97440346Y-43086550D01*
X97479099Y-43107854D01*
X97486774Y-43109825D01*
X97486775Y-43109825D01*
X97498721Y-43112892D01*
X97517425Y-43119296D01*
X97525331Y-43122717D01*
X97536014Y-43127340D01*
X97543837Y-43128579D01*
X97543847Y-43128582D01*
X97579683Y-43134258D01*
X97591303Y-43136664D01*
X97626448Y-43145687D01*
X97634129Y-43147659D01*
X97654383Y-43147659D01*
X97674093Y-43149210D01*
X97694102Y-43152379D01*
X97701994Y-43151633D01*
X97738120Y-43148218D01*
X97749978Y-43147659D01*
X99725020Y-43147659D01*
X99793141Y-43167661D01*
X99839634Y-43221317D01*
X99850026Y-43289450D01*
X99844874Y-43330229D01*
X99862574Y-43510749D01*
X99919829Y-43682862D01*
X99923476Y-43688884D01*
X99923477Y-43688886D01*
X99990145Y-43798968D01*
X100013791Y-43838013D01*
X100018680Y-43843076D01*
X100018681Y-43843077D01*
X100026911Y-43851599D01*
X100139793Y-43968491D01*
X100291570Y-44067811D01*
X100298174Y-44070267D01*
X100298176Y-44070268D01*
X100454969Y-44128579D01*
X100454971Y-44128579D01*
X100461579Y-44131037D01*
X100545406Y-44142222D01*
X100634391Y-44154096D01*
X100634395Y-44154096D01*
X100641372Y-44155027D01*
X100648383Y-44154389D01*
X100648387Y-44154389D01*
X100790870Y-44141421D01*
X100822011Y-44138587D01*
X100828713Y-44136409D01*
X100828715Y-44136409D01*
X100987820Y-44084713D01*
X100987823Y-44084712D01*
X100994519Y-44082536D01*
X101150323Y-43989658D01*
X101281677Y-43864571D01*
X101298678Y-43838983D01*
X104069787Y-43838983D01*
X104074182Y-43849131D01*
X104383691Y-44158639D01*
X104397629Y-44166250D01*
X104399465Y-44166118D01*
X104406077Y-44161869D01*
X104716348Y-43851599D01*
X104723107Y-43839221D01*
X104722929Y-43838983D01*
X105676789Y-43838983D01*
X105681184Y-43849131D01*
X105990693Y-44158639D01*
X106004631Y-44166250D01*
X106006467Y-44166118D01*
X106013079Y-44161869D01*
X106323350Y-43851599D01*
X106330109Y-43839221D01*
X106329670Y-43838635D01*
X106304859Y-43772115D01*
X106319950Y-43702740D01*
X106329552Y-43689397D01*
X106329616Y-43689035D01*
X106329366Y-43688434D01*
X107199237Y-43688434D01*
X107202020Y-43692152D01*
X107333856Y-43741181D01*
X107347447Y-43744570D01*
X107502043Y-43765197D01*
X107516039Y-43765491D01*
X107671359Y-43751355D01*
X107685084Y-43748538D01*
X107833414Y-43700343D01*
X107842054Y-43696424D01*
X107850429Y-43687391D01*
X107846924Y-43678978D01*
X107537811Y-43369865D01*
X107523867Y-43362251D01*
X107522032Y-43362382D01*
X107515422Y-43366630D01*
X107205996Y-43676055D01*
X107199237Y-43688434D01*
X106329366Y-43688434D01*
X106325426Y-43678978D01*
X106016313Y-43369865D01*
X106002369Y-43362251D01*
X106000534Y-43362382D01*
X105993924Y-43366630D01*
X105684498Y-43676055D01*
X105677696Y-43688512D01*
X105702407Y-43754760D01*
X105687316Y-43824135D01*
X105676789Y-43838983D01*
X104722929Y-43838983D01*
X104722668Y-43838635D01*
X104697857Y-43772115D01*
X104712948Y-43702740D01*
X104722550Y-43689397D01*
X104722614Y-43689035D01*
X104718424Y-43678978D01*
X104409311Y-43369865D01*
X104395367Y-43362251D01*
X104393532Y-43362382D01*
X104386922Y-43366630D01*
X104077496Y-43676055D01*
X104070694Y-43688512D01*
X104095405Y-43754760D01*
X104080314Y-43824135D01*
X104069787Y-43838983D01*
X101298678Y-43838983D01*
X101382054Y-43713491D01*
X101391572Y-43688434D01*
X102549239Y-43688434D01*
X102552022Y-43692152D01*
X102683858Y-43741181D01*
X102697449Y-43744570D01*
X102852045Y-43765197D01*
X102866041Y-43765491D01*
X103021361Y-43751355D01*
X103035086Y-43748538D01*
X103183416Y-43700343D01*
X103192056Y-43696424D01*
X103200431Y-43687391D01*
X103196926Y-43678978D01*
X102887813Y-43369865D01*
X102873869Y-43362251D01*
X102872034Y-43362382D01*
X102865424Y-43366630D01*
X102555998Y-43676055D01*
X102549239Y-43688434D01*
X101391572Y-43688434D01*
X101435217Y-43573541D01*
X101443966Y-43550509D01*
X101443967Y-43550507D01*
X101446466Y-43543927D01*
X101447446Y-43536955D01*
X101471159Y-43368228D01*
X101471159Y-43368225D01*
X101471710Y-43364306D01*
X101472027Y-43341589D01*
X101451808Y-43161334D01*
X101447521Y-43149023D01*
X101444005Y-43078117D01*
X101477416Y-43018490D01*
X101491527Y-43004379D01*
X101496814Y-42999863D01*
X102112968Y-42999863D01*
X102128188Y-43155086D01*
X102131099Y-43168781D01*
X102180330Y-43316775D01*
X102182729Y-43321967D01*
X102190721Y-43329274D01*
X102199338Y-43325613D01*
X102508641Y-43016309D01*
X102515018Y-43004631D01*
X103233750Y-43004631D01*
X103233882Y-43006467D01*
X103238131Y-43013079D01*
X103547179Y-43322128D01*
X103559558Y-43328887D01*
X103559736Y-43328754D01*
X103626257Y-43303944D01*
X103695630Y-43319036D01*
X103710805Y-43329875D01*
X103720836Y-43325613D01*
X104030139Y-43016309D01*
X104036516Y-43004631D01*
X104755248Y-43004631D01*
X104755380Y-43006467D01*
X104759629Y-43013079D01*
X105068677Y-43322128D01*
X105081056Y-43328887D01*
X105085063Y-43325887D01*
X105088774Y-43319140D01*
X105139128Y-43269090D01*
X105208547Y-43254208D01*
X105274992Y-43279219D01*
X105304589Y-43315895D01*
X105319221Y-43329274D01*
X105327838Y-43325613D01*
X105637141Y-43016309D01*
X105643518Y-43004631D01*
X106362250Y-43004631D01*
X106362382Y-43006467D01*
X106366631Y-43013079D01*
X106675679Y-43322128D01*
X106688058Y-43328887D01*
X106688236Y-43328754D01*
X106754757Y-43303944D01*
X106824130Y-43319036D01*
X106839305Y-43329875D01*
X106849336Y-43325613D01*
X107158639Y-43016309D01*
X107165016Y-43004631D01*
X107883748Y-43004631D01*
X107883880Y-43006467D01*
X107888129Y-43013079D01*
X108197177Y-43322128D01*
X108209556Y-43328887D01*
X108213372Y-43326030D01*
X108261327Y-43199786D01*
X108264809Y-43186225D01*
X108286946Y-43028721D01*
X108287552Y-43020838D01*
X108287739Y-43007463D01*
X108287352Y-42999563D01*
X108269623Y-42841504D01*
X108266521Y-42827851D01*
X108215698Y-42681908D01*
X108210139Y-42676967D01*
X108201089Y-42680962D01*
X107891359Y-42990693D01*
X107883748Y-43004631D01*
X107165016Y-43004631D01*
X107166250Y-43002371D01*
X107166118Y-43000535D01*
X107161869Y-42993923D01*
X106852038Y-42684091D01*
X106839420Y-42677201D01*
X106773727Y-42701704D01*
X106704353Y-42686613D01*
X106689873Y-42676423D01*
X106679591Y-42680962D01*
X106369861Y-42990693D01*
X106362250Y-43004631D01*
X105643518Y-43004631D01*
X105644752Y-43002371D01*
X105644620Y-43000535D01*
X105640371Y-42993923D01*
X105330540Y-42684091D01*
X105318161Y-42677332D01*
X105314522Y-42680056D01*
X105311226Y-42686150D01*
X105261223Y-42736551D01*
X105191909Y-42751917D01*
X105125291Y-42727369D01*
X105089490Y-42683946D01*
X105081639Y-42676967D01*
X105072589Y-42680962D01*
X104762859Y-42990693D01*
X104755248Y-43004631D01*
X104036516Y-43004631D01*
X104037750Y-43002371D01*
X104037618Y-43000535D01*
X104033369Y-42993923D01*
X103723538Y-42684091D01*
X103710920Y-42677201D01*
X103645227Y-42701704D01*
X103575853Y-42686613D01*
X103561373Y-42676423D01*
X103551091Y-42680962D01*
X103241361Y-42990693D01*
X103233750Y-43004631D01*
X102515018Y-43004631D01*
X102516252Y-43002371D01*
X102516120Y-43000535D01*
X102511871Y-42993923D01*
X102202040Y-42684091D01*
X102189661Y-42677332D01*
X102186040Y-42680043D01*
X102136003Y-42817517D01*
X102132711Y-42831126D01*
X102113164Y-42985857D01*
X102112968Y-42999863D01*
X101496814Y-42999863D01*
X101506561Y-42991538D01*
X101516537Y-42984290D01*
X101516538Y-42984289D01*
X101522949Y-42979631D01*
X101551130Y-42945566D01*
X101559120Y-42936785D01*
X101817258Y-42678648D01*
X101825537Y-42671114D01*
X101832018Y-42667001D01*
X101878645Y-42617348D01*
X101881399Y-42614507D01*
X101901135Y-42594771D01*
X101903615Y-42591574D01*
X101911320Y-42582552D01*
X101921321Y-42571902D01*
X101941586Y-42550322D01*
X101945405Y-42543376D01*
X101945407Y-42543373D01*
X101951348Y-42532567D01*
X101962199Y-42516048D01*
X101969758Y-42506302D01*
X101974614Y-42500042D01*
X101977759Y-42492773D01*
X101977762Y-42492769D01*
X101992174Y-42459464D01*
X101997391Y-42448814D01*
X102018695Y-42410061D01*
X102023733Y-42390438D01*
X102030137Y-42371735D01*
X102035033Y-42360421D01*
X102035033Y-42360420D01*
X102038181Y-42353146D01*
X102039420Y-42345323D01*
X102039423Y-42345313D01*
X102043622Y-42318804D01*
X102548860Y-42318804D01*
X102552684Y-42327633D01*
X102862193Y-42637141D01*
X102876131Y-42644752D01*
X102877967Y-42644620D01*
X102884579Y-42640371D01*
X103194850Y-42330101D01*
X103201018Y-42318804D01*
X104070358Y-42318804D01*
X104074182Y-42327633D01*
X104383691Y-42637141D01*
X104397629Y-42644752D01*
X104399465Y-42644620D01*
X104406077Y-42640371D01*
X104716348Y-42330101D01*
X104722516Y-42318804D01*
X105677360Y-42318804D01*
X105681184Y-42327633D01*
X105990693Y-42637141D01*
X106004631Y-42644752D01*
X106006467Y-42644620D01*
X106013079Y-42640371D01*
X106323350Y-42330101D01*
X106329518Y-42318804D01*
X107198858Y-42318804D01*
X107202682Y-42327633D01*
X107512191Y-42637141D01*
X107526129Y-42644752D01*
X107527965Y-42644620D01*
X107534577Y-42640371D01*
X107844848Y-42330101D01*
X107851607Y-42317722D01*
X107849022Y-42314268D01*
X107843333Y-42311217D01*
X107792758Y-42261390D01*
X107777149Y-42192131D01*
X107801463Y-42125427D01*
X107830403Y-42101987D01*
X107840240Y-42091378D01*
X107840113Y-42091164D01*
X107840841Y-42090730D01*
X107850429Y-42080389D01*
X107846924Y-42071976D01*
X107537811Y-41762863D01*
X107523867Y-41755249D01*
X107522032Y-41755380D01*
X107515422Y-41759628D01*
X107205996Y-42069053D01*
X107199237Y-42081432D01*
X107202099Y-42085255D01*
X107208546Y-42088771D01*
X107258773Y-42138948D01*
X107273898Y-42208315D01*
X107249120Y-42274847D01*
X107208934Y-42307628D01*
X107198858Y-42318804D01*
X106329518Y-42318804D01*
X106330109Y-42317722D01*
X106327524Y-42314268D01*
X106321835Y-42311217D01*
X106271260Y-42261390D01*
X106255651Y-42192131D01*
X106279965Y-42125427D01*
X106308905Y-42101987D01*
X106318742Y-42091378D01*
X106318615Y-42091164D01*
X106319343Y-42090730D01*
X106328931Y-42080389D01*
X106325426Y-42071976D01*
X106016313Y-41762863D01*
X106002369Y-41755249D01*
X106000534Y-41755380D01*
X105993924Y-41759628D01*
X105684498Y-42069053D01*
X105677739Y-42081432D01*
X105680601Y-42085255D01*
X105687048Y-42088771D01*
X105737275Y-42138948D01*
X105752400Y-42208315D01*
X105727622Y-42274847D01*
X105687436Y-42307628D01*
X105677360Y-42318804D01*
X104722516Y-42318804D01*
X104723107Y-42317722D01*
X104720522Y-42314268D01*
X104714833Y-42311217D01*
X104664258Y-42261390D01*
X104648649Y-42192131D01*
X104672963Y-42125427D01*
X104701903Y-42101987D01*
X104711740Y-42091378D01*
X104711613Y-42091164D01*
X104712341Y-42090730D01*
X104721929Y-42080389D01*
X104718424Y-42071976D01*
X104409311Y-41762863D01*
X104395367Y-41755249D01*
X104393532Y-41755380D01*
X104386922Y-41759628D01*
X104077496Y-42069053D01*
X104070737Y-42081432D01*
X104073599Y-42085255D01*
X104080046Y-42088771D01*
X104130273Y-42138948D01*
X104145398Y-42208315D01*
X104120620Y-42274847D01*
X104080434Y-42307628D01*
X104070358Y-42318804D01*
X103201018Y-42318804D01*
X103201609Y-42317722D01*
X103199024Y-42314268D01*
X103193335Y-42311217D01*
X103142760Y-42261390D01*
X103127151Y-42192131D01*
X103151465Y-42125427D01*
X103180405Y-42101987D01*
X103190242Y-42091378D01*
X103190115Y-42091164D01*
X103190843Y-42090730D01*
X103200431Y-42080389D01*
X103196926Y-42071976D01*
X102887813Y-41762863D01*
X102873869Y-41755249D01*
X102872034Y-41755380D01*
X102865424Y-41759628D01*
X102555998Y-42069053D01*
X102549239Y-42081432D01*
X102552101Y-42085255D01*
X102558548Y-42088771D01*
X102608775Y-42138948D01*
X102623900Y-42208315D01*
X102599122Y-42274847D01*
X102558936Y-42307628D01*
X102548860Y-42318804D01*
X102043622Y-42318804D01*
X102045099Y-42309477D01*
X102047505Y-42297857D01*
X102056528Y-42262712D01*
X102056528Y-42262711D01*
X102058500Y-42255031D01*
X102058500Y-42234777D01*
X102060051Y-42215066D01*
X102061980Y-42202887D01*
X102063220Y-42195058D01*
X102059059Y-42151039D01*
X102058500Y-42139182D01*
X102058500Y-41850017D01*
X102078502Y-41781896D01*
X102132158Y-41735403D01*
X102172030Y-41730212D01*
X102199338Y-41718611D01*
X102508641Y-41409307D01*
X102516252Y-41395369D01*
X102516120Y-41393533D01*
X102511871Y-41386921D01*
X102202040Y-41077089D01*
X102189661Y-41070330D01*
X102163870Y-41089637D01*
X102162934Y-41088387D01*
X102145469Y-41105993D01*
X102076156Y-41121363D01*
X102009536Y-41096819D01*
X101982703Y-41069709D01*
X101958564Y-41036484D01*
X101952048Y-41026564D01*
X101933580Y-40995336D01*
X101933578Y-40995333D01*
X101929542Y-40988509D01*
X101915221Y-40974188D01*
X101902380Y-40959154D01*
X101895132Y-40949178D01*
X101890472Y-40942764D01*
X101856406Y-40914582D01*
X101847628Y-40906594D01*
X101758214Y-40817181D01*
X101682370Y-40741336D01*
X101648346Y-40679026D01*
X101646251Y-40666286D01*
X101644847Y-40653769D01*
X101641347Y-40622566D01*
X101598991Y-40500936D01*
X101595477Y-40430028D01*
X101630858Y-40368475D01*
X101693901Y-40335823D01*
X101717982Y-40333500D01*
X103093731Y-40333500D01*
X103161852Y-40353502D01*
X103182826Y-40370405D01*
X103301583Y-40489162D01*
X103335609Y-40551474D01*
X103330544Y-40622289D01*
X103287997Y-40679125D01*
X103221477Y-40703936D01*
X103170222Y-40696956D01*
X103055824Y-40656221D01*
X103042196Y-40653024D01*
X102887319Y-40634557D01*
X102873322Y-40634459D01*
X102718210Y-40650761D01*
X102704531Y-40653769D01*
X102556886Y-40704031D01*
X102555115Y-40704865D01*
X102548860Y-40711802D01*
X102552684Y-40720631D01*
X102875001Y-41042947D01*
X103547182Y-41715129D01*
X103559556Y-41721886D01*
X103559734Y-41721753D01*
X103626255Y-41696942D01*
X103695629Y-41712033D01*
X103710805Y-41722873D01*
X103720836Y-41718611D01*
X104064240Y-41375206D01*
X104126553Y-41341181D01*
X104203389Y-41348670D01*
X104205115Y-41349417D01*
X104206876Y-41350179D01*
X104217512Y-41355390D01*
X104256265Y-41376694D01*
X104263940Y-41378665D01*
X104263941Y-41378665D01*
X104275887Y-41381732D01*
X104294592Y-41388136D01*
X104313180Y-41396180D01*
X104321003Y-41397419D01*
X104321013Y-41397422D01*
X104356849Y-41403098D01*
X104368469Y-41405504D01*
X104403614Y-41414527D01*
X104411295Y-41416499D01*
X104431549Y-41416499D01*
X104451259Y-41418050D01*
X104471268Y-41421219D01*
X104479160Y-41420473D01*
X104515286Y-41417058D01*
X104527144Y-41416499D01*
X104717860Y-41416499D01*
X104785981Y-41436501D01*
X104806955Y-41453404D01*
X105068676Y-41715125D01*
X105081056Y-41721885D01*
X105085063Y-41718885D01*
X105088774Y-41712138D01*
X105139128Y-41662088D01*
X105208547Y-41647206D01*
X105274992Y-41672217D01*
X105304589Y-41708893D01*
X105319221Y-41722272D01*
X105327838Y-41718611D01*
X105593045Y-41453404D01*
X105655357Y-41419378D01*
X105682140Y-41416499D01*
X106324862Y-41416499D01*
X106392983Y-41436501D01*
X106413957Y-41453404D01*
X106675678Y-41715125D01*
X106688058Y-41721885D01*
X106688236Y-41721752D01*
X106754757Y-41696942D01*
X106824130Y-41712034D01*
X106839305Y-41722873D01*
X106849336Y-41718611D01*
X107114543Y-41453404D01*
X107176855Y-41419378D01*
X107203638Y-41416499D01*
X107846360Y-41416499D01*
X107914481Y-41436501D01*
X107935455Y-41453404D01*
X108197176Y-41715125D01*
X108209556Y-41721885D01*
X108213372Y-41719028D01*
X108261327Y-41592784D01*
X108264809Y-41579223D01*
X108272435Y-41524963D01*
X108301723Y-41460289D01*
X108361327Y-41421716D01*
X108397209Y-41416499D01*
X109866491Y-41416499D01*
X109934612Y-41436501D01*
X109981105Y-41490157D01*
X109991497Y-41558291D01*
X109986463Y-41598140D01*
X110004163Y-41778660D01*
X110061418Y-41950773D01*
X110065065Y-41956795D01*
X110065066Y-41956797D01*
X110146361Y-42091032D01*
X110164540Y-42159662D01*
X110144497Y-42224557D01*
X110071235Y-42338238D01*
X110068826Y-42344858D01*
X110068825Y-42344859D01*
X110063105Y-42360575D01*
X110021009Y-42417746D01*
X109954688Y-42443083D01*
X109885196Y-42428541D01*
X109877190Y-42423864D01*
X109744277Y-42339515D01*
X109664807Y-42311217D01*
X109580036Y-42281031D01*
X109580031Y-42281030D01*
X109573401Y-42278669D01*
X109566413Y-42277836D01*
X109566410Y-42277835D01*
X109428496Y-42261390D01*
X109393291Y-42257192D01*
X109386288Y-42257928D01*
X109386287Y-42257928D01*
X109219899Y-42275416D01*
X109219897Y-42275417D01*
X109212899Y-42276152D01*
X109041190Y-42334606D01*
X109035186Y-42338300D01*
X108892706Y-42425954D01*
X108892703Y-42425956D01*
X108886699Y-42429650D01*
X108881664Y-42434581D01*
X108881661Y-42434583D01*
X108770569Y-42543373D01*
X108757104Y-42556559D01*
X108658846Y-42709026D01*
X108656437Y-42715646D01*
X108656435Y-42715649D01*
X108600116Y-42870385D01*
X108596808Y-42879473D01*
X108574074Y-43059428D01*
X108591774Y-43239948D01*
X108649029Y-43412061D01*
X108652676Y-43418083D01*
X108652677Y-43418085D01*
X108735887Y-43555482D01*
X108754111Y-43620753D01*
X108754111Y-45689201D01*
X108734109Y-45757322D01*
X108680453Y-45803815D01*
X108610179Y-45813919D01*
X108599417Y-45811278D01*
X108599282Y-45811852D01*
X108592424Y-45810243D01*
X108585790Y-45807881D01*
X108578802Y-45807048D01*
X108578799Y-45807047D01*
X108445212Y-45791118D01*
X108405680Y-45786404D01*
X108398677Y-45787140D01*
X108398676Y-45787140D01*
X108232288Y-45804628D01*
X108232286Y-45804629D01*
X108225288Y-45805364D01*
X108160636Y-45827373D01*
X108089705Y-45830391D01*
X108045971Y-45810031D01*
X108042671Y-45807633D01*
X107922055Y-45720000D01*
X107912094Y-45712763D01*
X107912093Y-45712762D01*
X107906752Y-45708882D01*
X107900724Y-45706198D01*
X107900722Y-45706197D01*
X107738319Y-45633891D01*
X107738318Y-45633891D01*
X107732288Y-45631206D01*
X107638888Y-45611353D01*
X107551944Y-45592872D01*
X107551939Y-45592872D01*
X107545487Y-45591500D01*
X107354513Y-45591500D01*
X107348061Y-45592872D01*
X107348056Y-45592872D01*
X107261112Y-45611353D01*
X107167712Y-45631206D01*
X107161682Y-45633891D01*
X107161681Y-45633891D01*
X106999278Y-45706197D01*
X106999276Y-45706198D01*
X106993248Y-45708882D01*
X106987907Y-45712762D01*
X106987906Y-45712763D01*
X106977945Y-45720000D01*
X106838747Y-45821134D01*
X106834326Y-45826044D01*
X106834325Y-45826045D01*
X106747623Y-45922338D01*
X106710960Y-45963056D01*
X106685080Y-46007881D01*
X106633813Y-46096679D01*
X106615473Y-46128444D01*
X106613431Y-46134728D01*
X106610747Y-46140757D01*
X106609044Y-46139999D01*
X106574059Y-46191153D01*
X106508659Y-46218783D01*
X106459670Y-46214643D01*
X106453145Y-46211819D01*
X106445322Y-46210580D01*
X106445312Y-46210577D01*
X106409476Y-46204901D01*
X106397856Y-46202495D01*
X106362711Y-46193472D01*
X106362710Y-46193472D01*
X106355030Y-46191500D01*
X106334776Y-46191500D01*
X106315065Y-46189949D01*
X106312237Y-46189501D01*
X106295057Y-46186780D01*
X106287165Y-46187526D01*
X106251039Y-46190941D01*
X106239181Y-46191500D01*
X101748457Y-46191500D01*
X101680336Y-46171498D01*
X101633843Y-46117842D01*
X101623739Y-46047568D01*
X101630669Y-46020756D01*
X101665555Y-45928920D01*
X101665556Y-45928918D01*
X101668055Y-45922338D01*
X101670980Y-45901527D01*
X101692748Y-45746639D01*
X101692748Y-45746636D01*
X101693299Y-45742717D01*
X101693616Y-45720000D01*
X101673397Y-45539745D01*
X101669923Y-45529768D01*
X101616064Y-45375106D01*
X101616062Y-45375103D01*
X101613745Y-45368448D01*
X101552251Y-45270036D01*
X101521359Y-45220598D01*
X101517626Y-45214624D01*
X101512967Y-45209932D01*
X104070737Y-45209932D01*
X104073520Y-45213650D01*
X104205356Y-45262679D01*
X104218947Y-45266068D01*
X104373543Y-45286695D01*
X104387539Y-45286989D01*
X104542859Y-45272853D01*
X104556584Y-45270036D01*
X104704914Y-45221841D01*
X104713554Y-45217922D01*
X104720962Y-45209932D01*
X105677739Y-45209932D01*
X105680522Y-45213650D01*
X105812358Y-45262679D01*
X105825949Y-45266068D01*
X105980545Y-45286695D01*
X105994541Y-45286989D01*
X106149861Y-45272853D01*
X106163586Y-45270036D01*
X106311916Y-45221841D01*
X106320556Y-45217922D01*
X106328931Y-45208889D01*
X106325426Y-45200476D01*
X106016313Y-44891363D01*
X106002369Y-44883749D01*
X106000534Y-44883880D01*
X105993924Y-44888128D01*
X105684498Y-45197553D01*
X105677739Y-45209932D01*
X104720962Y-45209932D01*
X104721929Y-45208889D01*
X104718424Y-45200476D01*
X104409311Y-44891363D01*
X104395367Y-44883749D01*
X104393532Y-44883880D01*
X104386922Y-44888128D01*
X104077496Y-45197553D01*
X104070737Y-45209932D01*
X101512967Y-45209932D01*
X101508835Y-45205771D01*
X101394778Y-45090915D01*
X101394774Y-45090912D01*
X101389815Y-45085918D01*
X101378697Y-45078862D01*
X101299170Y-45028393D01*
X101236666Y-44988727D01*
X101207463Y-44978328D01*
X101072425Y-44930243D01*
X101072420Y-44930242D01*
X101065790Y-44927881D01*
X101058802Y-44927048D01*
X101058799Y-44927047D01*
X100935698Y-44912368D01*
X100885680Y-44906404D01*
X100878677Y-44907140D01*
X100878676Y-44907140D01*
X100712288Y-44924628D01*
X100712286Y-44924629D01*
X100705288Y-44925364D01*
X100533579Y-44983818D01*
X100527575Y-44987512D01*
X100385095Y-45075166D01*
X100385092Y-45075168D01*
X100379088Y-45078862D01*
X100374053Y-45083793D01*
X100374050Y-45083795D01*
X100257885Y-45197553D01*
X100249493Y-45205771D01*
X100151235Y-45358238D01*
X100148826Y-45364858D01*
X100148824Y-45364861D01*
X100097248Y-45506565D01*
X100089197Y-45528685D01*
X100066463Y-45708640D01*
X100084163Y-45889160D01*
X100127940Y-46020756D01*
X100129594Y-46025728D01*
X100132117Y-46096679D01*
X100095881Y-46157732D01*
X100032389Y-46189501D01*
X100010036Y-46191500D01*
X98784751Y-46191500D01*
X98716630Y-46171498D01*
X98712157Y-46168276D01*
X98709815Y-46165918D01*
X98698697Y-46158862D01*
X98600711Y-46096679D01*
X98556666Y-46068727D01*
X98502530Y-46049450D01*
X98392425Y-46010243D01*
X98392420Y-46010242D01*
X98385790Y-46007881D01*
X98378802Y-46007048D01*
X98378799Y-46007047D01*
X98255698Y-45992368D01*
X98205680Y-45986404D01*
X98198677Y-45987140D01*
X98198676Y-45987140D01*
X98032288Y-46004628D01*
X98032286Y-46004629D01*
X98025288Y-46005364D01*
X97853579Y-46063818D01*
X97791109Y-46102250D01*
X97705095Y-46155166D01*
X97705092Y-46155168D01*
X97699088Y-46158862D01*
X97694053Y-46163793D01*
X97694050Y-46163795D01*
X97592616Y-46263127D01*
X97569493Y-46285771D01*
X97471235Y-46438238D01*
X97468826Y-46444858D01*
X97468824Y-46444861D01*
X97435882Y-46535368D01*
X97409197Y-46608685D01*
X97386463Y-46788640D01*
X97404163Y-46969160D01*
X97461418Y-47141273D01*
X97465065Y-47147295D01*
X97465066Y-47147297D01*
X97551700Y-47290347D01*
X97555380Y-47296424D01*
X97560269Y-47301487D01*
X97560270Y-47301488D01*
X97625267Y-47368794D01*
X97681382Y-47426902D01*
X97687278Y-47430760D01*
X97818434Y-47516586D01*
X97833159Y-47526222D01*
X97839763Y-47528678D01*
X97839765Y-47528679D01*
X97996558Y-47586990D01*
X97996560Y-47586990D01*
X98003168Y-47589448D01*
X98069892Y-47598351D01*
X98175980Y-47612507D01*
X98175984Y-47612507D01*
X98182961Y-47613438D01*
X98189972Y-47612800D01*
X98189976Y-47612800D01*
X98344547Y-47598732D01*
X98363600Y-47596998D01*
X98370302Y-47594820D01*
X98370304Y-47594820D01*
X98529409Y-47543124D01*
X98529412Y-47543123D01*
X98536108Y-47540947D01*
X98644603Y-47476271D01*
X98709120Y-47458500D01*
X104347877Y-47458500D01*
X104415998Y-47478502D01*
X104462491Y-47532158D01*
X104472595Y-47602432D01*
X104466278Y-47627594D01*
X104412058Y-47776563D01*
X104409648Y-47783185D01*
X104386914Y-47963140D01*
X104404614Y-48143660D01*
X104461869Y-48315773D01*
X104465516Y-48321795D01*
X104465517Y-48321797D01*
X104536205Y-48438517D01*
X104555831Y-48470924D01*
X104560720Y-48475987D01*
X104560721Y-48475988D01*
X104605847Y-48522717D01*
X104681833Y-48601402D01*
X104833610Y-48700722D01*
X104840214Y-48703178D01*
X104840216Y-48703179D01*
X104997009Y-48761490D01*
X104997011Y-48761490D01*
X105003619Y-48763948D01*
X105010604Y-48764880D01*
X105010608Y-48764881D01*
X105045538Y-48769541D01*
X105065638Y-48772223D01*
X105130514Y-48801058D01*
X105138068Y-48808021D01*
X105222294Y-48892247D01*
X105229838Y-48900537D01*
X105233951Y-48907018D01*
X105239728Y-48912443D01*
X105283618Y-48953658D01*
X105286460Y-48956413D01*
X105306181Y-48976134D01*
X105309376Y-48978612D01*
X105318398Y-48986318D01*
X105350630Y-49016586D01*
X105357579Y-49020406D01*
X105368383Y-49026346D01*
X105384907Y-49037199D01*
X105400910Y-49049613D01*
X105441494Y-49067176D01*
X105452124Y-49072383D01*
X105490891Y-49093695D01*
X105498568Y-49095666D01*
X105498573Y-49095668D01*
X105510509Y-49098732D01*
X105529217Y-49105137D01*
X105547806Y-49113181D01*
X105555634Y-49114421D01*
X105555641Y-49114423D01*
X105591475Y-49120099D01*
X105603095Y-49122505D01*
X105638240Y-49131528D01*
X105645921Y-49133500D01*
X105666175Y-49133500D01*
X105685885Y-49135051D01*
X105705894Y-49138220D01*
X105713786Y-49137474D01*
X105749912Y-49134059D01*
X105761770Y-49133500D01*
X107903903Y-49133500D01*
X107972896Y-49154068D01*
X108039477Y-49197637D01*
X108083159Y-49226222D01*
X108089763Y-49228678D01*
X108089765Y-49228679D01*
X108246558Y-49286990D01*
X108246560Y-49286990D01*
X108253168Y-49289448D01*
X108336995Y-49300633D01*
X108425980Y-49312507D01*
X108425984Y-49312507D01*
X108432961Y-49313438D01*
X108439972Y-49312800D01*
X108439976Y-49312800D01*
X108582459Y-49299832D01*
X108613600Y-49296998D01*
X108620302Y-49294820D01*
X108620304Y-49294820D01*
X108779409Y-49243124D01*
X108779412Y-49243123D01*
X108786108Y-49240947D01*
X108941912Y-49148069D01*
X109073266Y-49022982D01*
X109173643Y-48871902D01*
X109176144Y-48865317D01*
X109176147Y-48865312D01*
X109184779Y-48842587D01*
X109227667Y-48786009D01*
X109294336Y-48761599D01*
X109363618Y-48777108D01*
X109410343Y-48822059D01*
X109444085Y-48877773D01*
X109455380Y-48896424D01*
X109460269Y-48901487D01*
X109460270Y-48901488D01*
X109470849Y-48912443D01*
X109581382Y-49026902D01*
X109650895Y-49072390D01*
X109708420Y-49110033D01*
X109733159Y-49126222D01*
X109739763Y-49128678D01*
X109739765Y-49128679D01*
X109896558Y-49186990D01*
X109896560Y-49186990D01*
X109903168Y-49189448D01*
X109986995Y-49200633D01*
X110075980Y-49212507D01*
X110075984Y-49212507D01*
X110082961Y-49213438D01*
X110089972Y-49212800D01*
X110089976Y-49212800D01*
X110232459Y-49199832D01*
X110263600Y-49196998D01*
X110270302Y-49194820D01*
X110270304Y-49194820D01*
X110429409Y-49143124D01*
X110429412Y-49143123D01*
X110436108Y-49140947D01*
X110559873Y-49067168D01*
X110585860Y-49051677D01*
X110585862Y-49051676D01*
X110591912Y-49048069D01*
X110723266Y-48922982D01*
X110823643Y-48771902D01*
X110888055Y-48602338D01*
X110892115Y-48573449D01*
X110921402Y-48508774D01*
X110981006Y-48470201D01*
X111052002Y-48469974D01*
X111105984Y-48501888D01*
X112664750Y-50060654D01*
X112698776Y-50122966D01*
X112701054Y-50137453D01*
X112704163Y-50169160D01*
X112712881Y-50195366D01*
X112735195Y-50262444D01*
X112737718Y-50333395D01*
X112701482Y-50394448D01*
X112656244Y-50421493D01*
X112565833Y-50452271D01*
X112524380Y-50477773D01*
X112417349Y-50543619D01*
X112417346Y-50543621D01*
X112411342Y-50547315D01*
X112406307Y-50552246D01*
X112406304Y-50552248D01*
X112304771Y-50651677D01*
X112281747Y-50674224D01*
X112183489Y-50826691D01*
X112181080Y-50833311D01*
X112181078Y-50833314D01*
X112151915Y-50913438D01*
X112121451Y-50997138D01*
X112098717Y-51177093D01*
X112116417Y-51357613D01*
X112173672Y-51529726D01*
X112177319Y-51535748D01*
X112177320Y-51535750D01*
X112188232Y-51553767D01*
X112267634Y-51684877D01*
X112393636Y-51815355D01*
X112545413Y-51914675D01*
X112552017Y-51917131D01*
X112552019Y-51917132D01*
X112708812Y-51975443D01*
X112708814Y-51975443D01*
X112715422Y-51977901D01*
X112799249Y-51989086D01*
X112888234Y-52000960D01*
X112888238Y-52000960D01*
X112895215Y-52001891D01*
X112902226Y-52001253D01*
X112902230Y-52001253D01*
X113044713Y-51988285D01*
X113075854Y-51985451D01*
X113082556Y-51983273D01*
X113082558Y-51983273D01*
X113241663Y-51931577D01*
X113241666Y-51931576D01*
X113248362Y-51929400D01*
X113404166Y-51836522D01*
X113535520Y-51711435D01*
X113635897Y-51560355D01*
X113686850Y-51426222D01*
X113697809Y-51397373D01*
X113697810Y-51397371D01*
X113700309Y-51390791D01*
X113701289Y-51383819D01*
X113725002Y-51215092D01*
X113725002Y-51215089D01*
X113725553Y-51211170D01*
X113725870Y-51188453D01*
X113705651Y-51008198D01*
X113701800Y-50997138D01*
X113687004Y-50954651D01*
X113677619Y-50927701D01*
X113674105Y-50856793D01*
X113709486Y-50795241D01*
X113757674Y-50766432D01*
X113829408Y-50743124D01*
X113836108Y-50740947D01*
X113948037Y-50674224D01*
X113985860Y-50651677D01*
X113985862Y-50651676D01*
X113991912Y-50648069D01*
X114123266Y-50522982D01*
X114223643Y-50371902D01*
X114288055Y-50202338D01*
X114289035Y-50195366D01*
X114312748Y-50026639D01*
X114312748Y-50026636D01*
X114313299Y-50022717D01*
X114313616Y-50000000D01*
X114304389Y-49917742D01*
X114316673Y-49847818D01*
X114364812Y-49795633D01*
X114433521Y-49777759D01*
X114500987Y-49799869D01*
X114518699Y-49814603D01*
X115796343Y-51092247D01*
X115803887Y-51100537D01*
X115808000Y-51107018D01*
X115813777Y-51112443D01*
X115857667Y-51153658D01*
X115860509Y-51156413D01*
X115880230Y-51176134D01*
X115883425Y-51178612D01*
X115892447Y-51186318D01*
X115924679Y-51216586D01*
X115931628Y-51220406D01*
X115942432Y-51226346D01*
X115958956Y-51237199D01*
X115974959Y-51249613D01*
X116015543Y-51267176D01*
X116026173Y-51272383D01*
X116064940Y-51293695D01*
X116072617Y-51295666D01*
X116072622Y-51295668D01*
X116084558Y-51298732D01*
X116103266Y-51305137D01*
X116121855Y-51313181D01*
X116129680Y-51314420D01*
X116129682Y-51314421D01*
X116146049Y-51317013D01*
X116195331Y-51336030D01*
X116279015Y-51390791D01*
X116333159Y-51426222D01*
X116339763Y-51428678D01*
X116339765Y-51428679D01*
X116496558Y-51486990D01*
X116496560Y-51486990D01*
X116503168Y-51489448D01*
X116582250Y-51500000D01*
X116675980Y-51512507D01*
X116675984Y-51512507D01*
X116682961Y-51513438D01*
X116689972Y-51512800D01*
X116689976Y-51512800D01*
X116832459Y-51499832D01*
X116863600Y-51496998D01*
X116870302Y-51494820D01*
X116870304Y-51494820D01*
X117029409Y-51443124D01*
X117029412Y-51443123D01*
X117036108Y-51440947D01*
X117132513Y-51383478D01*
X117185860Y-51351677D01*
X117185862Y-51351676D01*
X117191912Y-51348069D01*
X117323266Y-51222982D01*
X117328892Y-51214514D01*
X117330430Y-51213222D01*
X117331691Y-51211719D01*
X117331955Y-51211941D01*
X117383250Y-51168845D01*
X117453670Y-51159813D01*
X117517794Y-51190288D01*
X117555262Y-51250592D01*
X117557021Y-51308339D01*
X117556458Y-51310072D01*
X117536496Y-51500000D01*
X117537186Y-51506565D01*
X117543457Y-51566226D01*
X117556458Y-51689928D01*
X117615473Y-51871556D01*
X117710960Y-52036944D01*
X117838747Y-52178866D01*
X117993248Y-52291118D01*
X117999276Y-52293802D01*
X117999278Y-52293803D01*
X118161681Y-52366109D01*
X118167712Y-52368794D01*
X118261112Y-52388647D01*
X118348056Y-52407128D01*
X118348061Y-52407128D01*
X118354513Y-52408500D01*
X118545487Y-52408500D01*
X118551939Y-52407128D01*
X118551944Y-52407128D01*
X118638888Y-52388647D01*
X118732288Y-52368794D01*
X118738319Y-52366109D01*
X118900722Y-52293803D01*
X118900724Y-52293802D01*
X118906752Y-52291118D01*
X119061253Y-52178866D01*
X119189040Y-52036944D01*
X119284527Y-51871556D01*
X119343542Y-51689928D01*
X119356544Y-51566226D01*
X119362814Y-51506565D01*
X119363504Y-51500000D01*
X119345311Y-51326902D01*
X119344232Y-51316635D01*
X119344232Y-51316633D01*
X119343542Y-51310072D01*
X119284527Y-51128444D01*
X119263629Y-51092247D01*
X119224022Y-51023646D01*
X119207284Y-50954651D01*
X119230505Y-50887559D01*
X119286312Y-50843672D01*
X119356987Y-50836923D01*
X119377060Y-50842549D01*
X119401822Y-50851758D01*
X119496558Y-50886990D01*
X119496560Y-50886990D01*
X119503168Y-50889448D01*
X119586995Y-50900633D01*
X119675980Y-50912507D01*
X119675984Y-50912507D01*
X119682961Y-50913438D01*
X119689972Y-50912800D01*
X119689976Y-50912800D01*
X119832459Y-50899832D01*
X119863600Y-50896998D01*
X119870302Y-50894820D01*
X119870304Y-50894820D01*
X120029409Y-50843124D01*
X120029412Y-50843123D01*
X120036108Y-50840947D01*
X120191912Y-50748069D01*
X120323266Y-50622982D01*
X120423643Y-50471902D01*
X120473265Y-50341273D01*
X120485555Y-50308920D01*
X120485556Y-50308918D01*
X120488055Y-50302338D01*
X120513299Y-50122717D01*
X120513616Y-50100000D01*
X120493397Y-49919745D01*
X120491080Y-49913091D01*
X120436064Y-49755106D01*
X120436062Y-49755103D01*
X120433745Y-49748448D01*
X120337626Y-49594624D01*
X120332664Y-49589627D01*
X120214778Y-49470915D01*
X120214774Y-49470912D01*
X120209815Y-49465918D01*
X120198697Y-49458862D01*
X120150538Y-49428300D01*
X120056666Y-49368727D01*
X120027463Y-49358328D01*
X119892425Y-49310243D01*
X119892420Y-49310242D01*
X119885790Y-49307881D01*
X119878802Y-49307048D01*
X119878799Y-49307047D01*
X119739023Y-49290380D01*
X119705680Y-49286404D01*
X119698677Y-49287140D01*
X119698676Y-49287140D01*
X119532288Y-49304628D01*
X119532286Y-49304629D01*
X119525288Y-49305364D01*
X119353579Y-49363818D01*
X119217039Y-49447819D01*
X119151019Y-49466500D01*
X117414594Y-49466500D01*
X117346473Y-49446498D01*
X117325499Y-49429595D01*
X116849562Y-48953658D01*
X116334420Y-48438515D01*
X116300395Y-48376205D01*
X116298301Y-48363466D01*
X116294182Y-48326746D01*
X116293397Y-48319745D01*
X116249932Y-48194930D01*
X116246418Y-48124023D01*
X116282032Y-48062249D01*
X116318159Y-48027846D01*
X116318162Y-48027843D01*
X116323266Y-48022982D01*
X116423643Y-47871902D01*
X116488055Y-47702338D01*
X116489035Y-47695366D01*
X116512748Y-47526639D01*
X116512748Y-47526636D01*
X116513299Y-47522717D01*
X116513616Y-47500000D01*
X116493397Y-47319745D01*
X116483428Y-47291118D01*
X116436064Y-47155106D01*
X116436062Y-47155103D01*
X116433745Y-47148448D01*
X116337626Y-46994624D01*
X116257208Y-46913643D01*
X116223401Y-46851213D01*
X116228713Y-46780415D01*
X116271457Y-46723728D01*
X116335194Y-46699378D01*
X116440772Y-46689769D01*
X116500899Y-46684297D01*
X116507601Y-46682119D01*
X116507603Y-46682119D01*
X116666708Y-46630423D01*
X116666711Y-46630422D01*
X116673407Y-46628246D01*
X116829211Y-46535368D01*
X116960565Y-46410281D01*
X117060942Y-46259201D01*
X117106223Y-46139999D01*
X117122854Y-46096219D01*
X117122855Y-46096217D01*
X117125354Y-46089637D01*
X117128293Y-46068727D01*
X117150047Y-45913938D01*
X117150047Y-45913935D01*
X117150598Y-45910016D01*
X117150915Y-45887299D01*
X117130696Y-45707044D01*
X117126922Y-45696206D01*
X117073363Y-45542405D01*
X117073361Y-45542402D01*
X117071044Y-45535747D01*
X117048707Y-45500000D01*
X119286496Y-45500000D01*
X119287186Y-45506565D01*
X119304780Y-45673958D01*
X119306458Y-45689928D01*
X119365473Y-45871556D01*
X119368776Y-45877278D01*
X119368777Y-45877279D01*
X119374562Y-45887299D01*
X119460960Y-46036944D01*
X119465378Y-46041851D01*
X119465379Y-46041852D01*
X119582113Y-46171498D01*
X119588747Y-46178866D01*
X119657161Y-46228572D01*
X119735889Y-46285771D01*
X119743248Y-46291118D01*
X119749276Y-46293802D01*
X119749278Y-46293803D01*
X119911681Y-46366109D01*
X119917712Y-46368794D01*
X120011113Y-46388647D01*
X120098056Y-46407128D01*
X120098061Y-46407128D01*
X120104513Y-46408500D01*
X120295487Y-46408500D01*
X120301939Y-46407128D01*
X120301944Y-46407128D01*
X120388888Y-46388647D01*
X120482288Y-46368794D01*
X120488319Y-46366109D01*
X120650722Y-46293803D01*
X120650724Y-46293802D01*
X120656752Y-46291118D01*
X120664112Y-46285771D01*
X120742839Y-46228572D01*
X120811253Y-46178866D01*
X120817887Y-46171498D01*
X120934621Y-46041852D01*
X120934622Y-46041851D01*
X120939040Y-46036944D01*
X121025438Y-45887299D01*
X121031223Y-45877279D01*
X121031224Y-45877278D01*
X121034527Y-45871556D01*
X121093542Y-45689928D01*
X121095221Y-45673958D01*
X121112814Y-45506565D01*
X121113504Y-45500000D01*
X121100657Y-45377768D01*
X121094232Y-45316635D01*
X121094232Y-45316633D01*
X121093542Y-45310072D01*
X121034527Y-45128444D01*
X121015494Y-45095477D01*
X120953861Y-44988727D01*
X120939040Y-44963056D01*
X120911916Y-44932931D01*
X120815675Y-44826045D01*
X120815674Y-44826044D01*
X120811253Y-44821134D01*
X120656752Y-44708882D01*
X120650724Y-44706198D01*
X120650722Y-44706197D01*
X120488319Y-44633891D01*
X120488318Y-44633891D01*
X120482288Y-44631206D01*
X120388888Y-44611353D01*
X120301944Y-44592872D01*
X120301939Y-44592872D01*
X120295487Y-44591500D01*
X120104513Y-44591500D01*
X120098061Y-44592872D01*
X120098056Y-44592872D01*
X120011112Y-44611353D01*
X119917712Y-44631206D01*
X119911682Y-44633891D01*
X119911681Y-44633891D01*
X119749278Y-44706197D01*
X119749276Y-44706198D01*
X119743248Y-44708882D01*
X119588747Y-44821134D01*
X119584326Y-44826044D01*
X119584325Y-44826045D01*
X119488085Y-44932931D01*
X119460960Y-44963056D01*
X119446139Y-44988727D01*
X119384507Y-45095477D01*
X119365473Y-45128444D01*
X119306458Y-45310072D01*
X119305768Y-45316633D01*
X119305768Y-45316635D01*
X119299343Y-45377768D01*
X119286496Y-45500000D01*
X117048707Y-45500000D01*
X116989945Y-45405960D01*
X116970799Y-45339191D01*
X116970799Y-44880690D01*
X116971326Y-44869507D01*
X116973001Y-44862014D01*
X116970861Y-44793923D01*
X116970799Y-44789966D01*
X116970799Y-44762066D01*
X116970295Y-44758075D01*
X116969362Y-44746233D01*
X116968222Y-44709958D01*
X116967973Y-44702033D01*
X116962320Y-44682574D01*
X116958311Y-44663215D01*
X116958145Y-44661905D01*
X116955773Y-44643125D01*
X116952857Y-44635759D01*
X116952855Y-44635753D01*
X116939499Y-44602020D01*
X116935654Y-44590790D01*
X116925529Y-44555939D01*
X116925529Y-44555938D01*
X116923318Y-44548329D01*
X116917096Y-44537807D01*
X116913004Y-44530888D01*
X116904307Y-44513135D01*
X116899771Y-44501680D01*
X116896851Y-44494305D01*
X116870862Y-44458534D01*
X116864346Y-44448614D01*
X116845877Y-44417385D01*
X116841841Y-44410560D01*
X116827520Y-44396239D01*
X116814679Y-44381205D01*
X116807431Y-44371229D01*
X116802771Y-44364815D01*
X116768706Y-44336634D01*
X116759927Y-44328645D01*
X116675827Y-44244545D01*
X116641801Y-44182233D01*
X116639707Y-44169494D01*
X116639343Y-44166250D01*
X116634803Y-44125774D01*
X116588659Y-43993266D01*
X116577470Y-43961135D01*
X116577468Y-43961132D01*
X116575151Y-43954477D01*
X116518972Y-43864571D01*
X116482765Y-43806627D01*
X116479032Y-43800653D01*
X116474070Y-43795656D01*
X116356184Y-43676944D01*
X116356180Y-43676941D01*
X116351221Y-43671947D01*
X116340103Y-43664891D01*
X116204329Y-43578727D01*
X116198072Y-43574756D01*
X116143944Y-43555482D01*
X116033831Y-43516272D01*
X116033826Y-43516271D01*
X116027196Y-43513910D01*
X116020208Y-43513077D01*
X116020205Y-43513076D01*
X115897104Y-43498397D01*
X115847086Y-43492433D01*
X115840083Y-43493169D01*
X115840082Y-43493169D01*
X115673694Y-43510657D01*
X115673692Y-43510658D01*
X115666694Y-43511393D01*
X115494985Y-43569847D01*
X115488981Y-43573541D01*
X115346501Y-43661195D01*
X115346498Y-43661197D01*
X115340494Y-43664891D01*
X115335459Y-43669822D01*
X115335456Y-43669824D01*
X115215931Y-43786872D01*
X115210899Y-43791800D01*
X115112641Y-43944267D01*
X115110232Y-43950887D01*
X115110230Y-43950890D01*
X115053012Y-44108095D01*
X115050603Y-44114714D01*
X115027869Y-44294669D01*
X115045569Y-44475189D01*
X115102824Y-44647302D01*
X115106471Y-44653324D01*
X115106472Y-44653326D01*
X115191621Y-44793924D01*
X115196786Y-44802453D01*
X115201675Y-44807516D01*
X115201676Y-44807517D01*
X115240315Y-44847528D01*
X115322788Y-44932931D01*
X115474565Y-45032251D01*
X115621722Y-45086979D01*
X115678595Y-45129469D01*
X115703469Y-45195966D01*
X115703799Y-45205074D01*
X115703799Y-45340630D01*
X115683710Y-45408885D01*
X115612353Y-45519609D01*
X115612349Y-45519618D01*
X115608534Y-45525537D01*
X115606125Y-45532157D01*
X115606124Y-45532158D01*
X115555804Y-45670411D01*
X115546496Y-45695984D01*
X115523762Y-45875939D01*
X115541462Y-46056459D01*
X115543686Y-46063144D01*
X115554559Y-46095830D01*
X115557082Y-46166782D01*
X115520845Y-46227834D01*
X115457353Y-46259604D01*
X115386764Y-46252003D01*
X115345906Y-46224697D01*
X114343051Y-45221841D01*
X112928957Y-43807747D01*
X112921417Y-43799461D01*
X112917305Y-43792982D01*
X112910799Y-43786872D01*
X112867654Y-43746357D01*
X112864812Y-43743602D01*
X112845075Y-43723865D01*
X112841878Y-43721385D01*
X112832857Y-43713681D01*
X112821206Y-43702740D01*
X112805574Y-43688061D01*
X112769609Y-43626850D01*
X112772446Y-43555910D01*
X112786879Y-43526484D01*
X112819242Y-43477773D01*
X112823143Y-43471902D01*
X112877470Y-43328887D01*
X112885055Y-43308920D01*
X112885056Y-43308918D01*
X112887555Y-43302338D01*
X112896323Y-43239948D01*
X112912248Y-43126639D01*
X112912248Y-43126636D01*
X112912799Y-43122717D01*
X112912979Y-43109825D01*
X112913061Y-43103962D01*
X112913061Y-43103957D01*
X112913116Y-43100000D01*
X112892897Y-42919745D01*
X112875708Y-42870385D01*
X112872194Y-42799476D01*
X112907806Y-42737704D01*
X112923266Y-42722982D01*
X113023643Y-42571902D01*
X113082485Y-42417002D01*
X113085555Y-42408920D01*
X113085556Y-42408918D01*
X113088055Y-42402338D01*
X113092356Y-42371735D01*
X113112748Y-42226639D01*
X113112748Y-42226636D01*
X113113299Y-42222717D01*
X113113616Y-42200000D01*
X113093397Y-42019745D01*
X113084127Y-41993124D01*
X113036064Y-41855106D01*
X113036062Y-41855103D01*
X113033745Y-41848448D01*
X112984979Y-41770406D01*
X112941359Y-41700598D01*
X112937626Y-41694624D01*
X112878010Y-41634590D01*
X112865410Y-41621902D01*
X112858363Y-41614806D01*
X112824556Y-41552376D01*
X112829981Y-41481278D01*
X112832046Y-41475844D01*
X112872291Y-41369899D01*
X112885055Y-41336298D01*
X112885056Y-41336296D01*
X112887555Y-41329716D01*
X112894545Y-41279982D01*
X112912248Y-41154017D01*
X112912248Y-41154014D01*
X112912799Y-41150095D01*
X112913116Y-41127378D01*
X112892897Y-40947123D01*
X112890580Y-40940469D01*
X112835564Y-40782484D01*
X112835562Y-40782481D01*
X112833245Y-40775826D01*
X112821210Y-40756565D01*
X112740859Y-40627976D01*
X112737126Y-40622002D01*
X112732164Y-40617005D01*
X112614278Y-40498293D01*
X112614274Y-40498290D01*
X112609315Y-40493296D01*
X112493293Y-40419666D01*
X112446498Y-40366281D01*
X112435992Y-40296066D01*
X112465115Y-40231317D01*
X112471715Y-40224189D01*
X112660177Y-40035727D01*
X112722489Y-40001701D01*
X112737837Y-39999343D01*
X112763600Y-39996998D01*
X112770302Y-39994820D01*
X112770304Y-39994820D01*
X112929409Y-39943124D01*
X112929412Y-39943123D01*
X112936108Y-39940947D01*
X113091912Y-39848069D01*
X113223266Y-39722982D01*
X113323643Y-39571902D01*
X113388055Y-39402338D01*
X113389035Y-39395366D01*
X113412748Y-39226639D01*
X113412748Y-39226636D01*
X113413299Y-39222717D01*
X113413616Y-39200000D01*
X113393397Y-39019745D01*
X113381750Y-38986299D01*
X113336064Y-38855106D01*
X113336062Y-38855103D01*
X113333745Y-38848448D01*
X113244499Y-38705623D01*
X113225364Y-38637258D01*
X113246229Y-38569396D01*
X113262259Y-38549762D01*
X113816616Y-37995405D01*
X113878928Y-37961379D01*
X113905711Y-37958500D01*
X115417944Y-37958500D01*
X115429800Y-37959059D01*
X115429803Y-37959059D01*
X115437537Y-37960788D01*
X115508369Y-37958562D01*
X115512327Y-37958500D01*
X115541432Y-37958500D01*
X115545832Y-37957944D01*
X115557664Y-37957012D01*
X115603831Y-37955562D01*
X115624421Y-37949580D01*
X115643782Y-37945570D01*
X115650770Y-37944688D01*
X115657204Y-37943875D01*
X115657205Y-37943875D01*
X115665064Y-37942882D01*
X115672429Y-37939966D01*
X115672433Y-37939965D01*
X115708021Y-37925874D01*
X115719231Y-37922035D01*
X115763600Y-37909145D01*
X115782065Y-37898225D01*
X115799805Y-37889534D01*
X115819756Y-37881635D01*
X115857129Y-37854482D01*
X115867048Y-37847967D01*
X115899977Y-37828493D01*
X115899981Y-37828490D01*
X115906807Y-37824453D01*
X115921971Y-37809289D01*
X115937005Y-37796448D01*
X115947943Y-37788501D01*
X115954357Y-37783841D01*
X115983803Y-37748247D01*
X115991792Y-37739468D01*
X116100962Y-37630298D01*
X116162640Y-37597085D01*
X116163600Y-37596998D01*
X116252463Y-37568125D01*
X116329409Y-37543124D01*
X116329412Y-37543123D01*
X116336108Y-37540947D01*
X116491912Y-37448069D01*
X116623266Y-37322982D01*
X116723643Y-37171902D01*
X116772020Y-37044550D01*
X116785555Y-37008920D01*
X116785556Y-37008918D01*
X116788055Y-37002338D01*
X116798407Y-36928679D01*
X116812748Y-36826639D01*
X116812748Y-36826636D01*
X116813299Y-36822717D01*
X116813616Y-36800000D01*
X116812377Y-36788954D01*
X116810649Y-36773543D01*
X116822934Y-36703618D01*
X116871074Y-36651434D01*
X116935864Y-36633500D01*
X118690500Y-36633500D01*
X118758621Y-36653502D01*
X118805114Y-36707158D01*
X118816500Y-36759500D01*
X118816500Y-37547476D01*
X118796498Y-37615597D01*
X118784142Y-37631779D01*
X118710960Y-37713056D01*
X118615473Y-37878444D01*
X118556458Y-38060072D01*
X118555768Y-38066633D01*
X118555768Y-38066635D01*
X118541771Y-38199810D01*
X118536496Y-38250000D01*
X118537186Y-38256565D01*
X118554976Y-38425824D01*
X118556458Y-38439928D01*
X118615473Y-38621556D01*
X118618776Y-38627278D01*
X118618777Y-38627279D01*
X118652686Y-38686010D01*
X118710960Y-38786944D01*
X118715378Y-38791851D01*
X118715379Y-38791852D01*
X118822673Y-38911014D01*
X118853391Y-38975021D01*
X118844626Y-39045475D01*
X118820887Y-39081577D01*
X118797091Y-39106917D01*
X118794336Y-39109759D01*
X118774599Y-39129496D01*
X118772119Y-39132693D01*
X118764416Y-39141713D01*
X118734148Y-39173945D01*
X118730329Y-39180891D01*
X118730327Y-39180894D01*
X118724386Y-39191700D01*
X118713535Y-39208219D01*
X118701120Y-39224225D01*
X118697975Y-39231494D01*
X118697972Y-39231498D01*
X118683560Y-39264803D01*
X118678343Y-39275453D01*
X118657039Y-39314206D01*
X118655068Y-39321881D01*
X118655068Y-39321882D01*
X118652001Y-39333828D01*
X118645597Y-39352532D01*
X118637553Y-39371121D01*
X118636314Y-39378944D01*
X118636311Y-39378954D01*
X118630635Y-39414790D01*
X118628229Y-39426410D01*
X118617234Y-39469236D01*
X118617234Y-39489490D01*
X118615683Y-39509200D01*
X118612514Y-39529209D01*
X118613260Y-39537101D01*
X118616675Y-39573227D01*
X118617234Y-39585085D01*
X118617234Y-40579617D01*
X118616707Y-40590800D01*
X118615032Y-40598293D01*
X118615281Y-40606219D01*
X118615281Y-40606220D01*
X118617172Y-40666370D01*
X118617234Y-40670329D01*
X118617234Y-40698240D01*
X118617731Y-40702174D01*
X118617731Y-40702175D01*
X118617739Y-40702240D01*
X118618672Y-40714077D01*
X118620061Y-40758273D01*
X118623424Y-40769847D01*
X118625712Y-40777723D01*
X118629721Y-40797084D01*
X118632260Y-40817181D01*
X118635179Y-40824552D01*
X118635179Y-40824554D01*
X118648538Y-40858296D01*
X118652383Y-40869526D01*
X118662505Y-40904367D01*
X118664716Y-40911977D01*
X118668749Y-40918796D01*
X118668751Y-40918801D01*
X118675027Y-40929412D01*
X118683722Y-40947160D01*
X118691182Y-40966001D01*
X118695844Y-40972417D01*
X118695844Y-40972418D01*
X118717170Y-41001771D01*
X118723686Y-41011691D01*
X118738349Y-41036484D01*
X118746192Y-41049746D01*
X118760513Y-41064067D01*
X118773353Y-41079100D01*
X118785262Y-41095491D01*
X118791368Y-41100542D01*
X118819339Y-41123682D01*
X118828118Y-41131672D01*
X119338693Y-41642247D01*
X119346237Y-41650537D01*
X119350350Y-41657018D01*
X119356127Y-41662443D01*
X119400017Y-41703658D01*
X119402859Y-41706413D01*
X119422580Y-41726134D01*
X119425775Y-41728612D01*
X119434797Y-41736318D01*
X119467029Y-41766586D01*
X119473978Y-41770406D01*
X119484782Y-41776346D01*
X119501306Y-41787199D01*
X119517309Y-41799613D01*
X119557893Y-41817176D01*
X119568523Y-41822383D01*
X119607290Y-41843695D01*
X119614967Y-41845666D01*
X119614972Y-41845668D01*
X119626908Y-41848732D01*
X119645617Y-41855137D01*
X119651572Y-41857714D01*
X119679205Y-41874648D01*
X119681382Y-41876902D01*
X119687281Y-41880762D01*
X119687282Y-41880763D01*
X119794269Y-41950773D01*
X119833159Y-41976222D01*
X119839763Y-41978678D01*
X119839765Y-41978679D01*
X119996558Y-42036990D01*
X119996560Y-42036990D01*
X120003168Y-42039448D01*
X120086995Y-42050633D01*
X120175980Y-42062507D01*
X120175984Y-42062507D01*
X120182961Y-42063438D01*
X120189972Y-42062800D01*
X120189976Y-42062800D01*
X120332459Y-42049832D01*
X120363600Y-42046998D01*
X120370302Y-42044820D01*
X120370304Y-42044820D01*
X120529409Y-41993124D01*
X120529412Y-41993123D01*
X120536108Y-41990947D01*
X120691912Y-41898069D01*
X120823266Y-41772982D01*
X120923643Y-41621902D01*
X120981665Y-41469160D01*
X120985555Y-41458920D01*
X120985556Y-41458918D01*
X120988055Y-41452338D01*
X120992359Y-41421716D01*
X121012748Y-41276639D01*
X121012748Y-41276636D01*
X121013299Y-41272717D01*
X121013616Y-41250000D01*
X120993397Y-41069745D01*
X120980141Y-41031679D01*
X120936064Y-40905106D01*
X120936062Y-40905103D01*
X120933745Y-40898448D01*
X120912104Y-40863815D01*
X120878526Y-40810078D01*
X120859390Y-40741709D01*
X120880256Y-40673848D01*
X120896285Y-40654214D01*
X122476405Y-39074094D01*
X122538717Y-39040068D01*
X122609532Y-39045133D01*
X122666368Y-39087680D01*
X122691179Y-39154200D01*
X122691500Y-39163189D01*
X122691500Y-63923919D01*
X122671498Y-63992040D01*
X122617842Y-64038533D01*
X122565654Y-64049919D01*
X110696610Y-64064358D01*
X102768985Y-64074002D01*
X102700840Y-64054083D01*
X102686444Y-64043334D01*
X102684209Y-64041402D01*
X102684207Y-64041401D01*
X102677415Y-64035531D01*
X102660125Y-64027639D01*
X102655271Y-64025423D01*
X102638467Y-64016146D01*
X102618106Y-64002785D01*
X102588546Y-63993763D01*
X102573017Y-63987879D01*
X102544909Y-63975049D01*
X102536026Y-63973764D01*
X102536024Y-63973763D01*
X102520812Y-63971562D01*
X102502079Y-63967374D01*
X102487377Y-63962887D01*
X102487376Y-63962887D01*
X102478792Y-63960267D01*
X102447900Y-63959905D01*
X102431341Y-63958616D01*
X102400753Y-63954189D01*
X102391869Y-63955448D01*
X102391861Y-63955448D01*
X102376643Y-63957605D01*
X102357484Y-63958843D01*
X102333145Y-63958557D01*
X102318339Y-63962699D01*
X102299549Y-63967954D01*
X102294253Y-63969281D01*
X102289941Y-63969892D01*
X102285285Y-63971308D01*
X102285276Y-63971310D01*
X102260556Y-63978828D01*
X102257851Y-63979618D01*
X102192871Y-63997794D01*
X102192809Y-63997574D01*
X102168138Y-64004437D01*
X102161149Y-64005334D01*
X102161141Y-64005336D01*
X102152238Y-64006479D01*
X102117825Y-64021524D01*
X102112508Y-64023705D01*
X102110623Y-64024428D01*
X102106323Y-64025736D01*
X102102260Y-64027636D01*
X102102253Y-64027639D01*
X102081018Y-64037571D01*
X102078108Y-64038887D01*
X102019695Y-64064424D01*
X101969376Y-64074975D01*
X82334651Y-64098862D01*
X82266508Y-64078943D01*
X82219950Y-64025344D01*
X82208500Y-63972862D01*
X82208500Y-55288640D01*
X112286463Y-55288640D01*
X112304163Y-55469160D01*
X112361418Y-55641273D01*
X112365065Y-55647295D01*
X112365066Y-55647297D01*
X112375978Y-55665314D01*
X112455380Y-55796424D01*
X112581382Y-55926902D01*
X112733159Y-56026222D01*
X112739763Y-56028678D01*
X112739765Y-56028679D01*
X112896558Y-56086990D01*
X112896560Y-56086990D01*
X112903168Y-56089448D01*
X112986995Y-56100633D01*
X113075980Y-56112507D01*
X113075984Y-56112507D01*
X113082961Y-56113438D01*
X113089972Y-56112800D01*
X113089976Y-56112800D01*
X113232459Y-56099832D01*
X113263600Y-56096998D01*
X113270302Y-56094820D01*
X113270304Y-56094820D01*
X113429409Y-56043124D01*
X113429412Y-56043123D01*
X113436108Y-56040947D01*
X113591912Y-55948069D01*
X113723266Y-55822982D01*
X113823643Y-55671902D01*
X113888055Y-55502338D01*
X113889035Y-55495366D01*
X113912748Y-55326639D01*
X113912748Y-55326636D01*
X113913299Y-55322717D01*
X113913616Y-55300000D01*
X113893397Y-55119745D01*
X113891080Y-55113091D01*
X113836064Y-54955106D01*
X113836062Y-54955103D01*
X113833745Y-54948448D01*
X113737626Y-54794624D01*
X113723941Y-54780843D01*
X113614778Y-54670915D01*
X113614774Y-54670912D01*
X113609815Y-54665918D01*
X113598697Y-54658862D01*
X113550538Y-54628300D01*
X113456666Y-54568727D01*
X113427463Y-54558328D01*
X113292425Y-54510243D01*
X113292420Y-54510242D01*
X113285790Y-54507881D01*
X113278802Y-54507048D01*
X113278799Y-54507047D01*
X113155698Y-54492368D01*
X113105680Y-54486404D01*
X113098677Y-54487140D01*
X113098676Y-54487140D01*
X112932288Y-54504628D01*
X112932286Y-54504629D01*
X112925288Y-54505364D01*
X112753579Y-54563818D01*
X112747575Y-54567512D01*
X112605095Y-54655166D01*
X112605092Y-54655168D01*
X112599088Y-54658862D01*
X112594053Y-54663793D01*
X112594050Y-54663795D01*
X112474525Y-54780843D01*
X112469493Y-54785771D01*
X112371235Y-54938238D01*
X112368826Y-54944858D01*
X112368824Y-54944861D01*
X112311606Y-55102066D01*
X112309197Y-55108685D01*
X112286463Y-55288640D01*
X82208500Y-55288640D01*
X82208500Y-44521361D01*
X103634466Y-44521361D01*
X103649686Y-44676584D01*
X103652597Y-44690279D01*
X103701828Y-44838273D01*
X103704227Y-44843465D01*
X103712219Y-44850772D01*
X103720836Y-44847111D01*
X104030139Y-44537807D01*
X104036516Y-44526129D01*
X104755248Y-44526129D01*
X104755380Y-44527965D01*
X104759629Y-44534577D01*
X105068677Y-44843626D01*
X105081056Y-44850385D01*
X105085063Y-44847385D01*
X105088774Y-44840638D01*
X105139128Y-44790588D01*
X105208547Y-44775706D01*
X105274992Y-44800717D01*
X105304589Y-44837393D01*
X105319221Y-44850772D01*
X105327838Y-44847111D01*
X105637141Y-44537807D01*
X105643518Y-44526129D01*
X106362250Y-44526129D01*
X106362382Y-44527965D01*
X106366631Y-44534577D01*
X106675679Y-44843626D01*
X106688058Y-44850385D01*
X106691874Y-44847528D01*
X106739829Y-44721284D01*
X106743311Y-44707723D01*
X106765448Y-44550219D01*
X106766054Y-44542336D01*
X106766241Y-44528961D01*
X106765854Y-44521061D01*
X106748125Y-44363002D01*
X106745023Y-44349349D01*
X106694200Y-44203406D01*
X106688641Y-44198465D01*
X106679591Y-44202460D01*
X106369861Y-44512191D01*
X106362250Y-44526129D01*
X105643518Y-44526129D01*
X105644752Y-44523869D01*
X105644620Y-44522033D01*
X105640371Y-44515421D01*
X105330540Y-44205589D01*
X105318161Y-44198830D01*
X105314522Y-44201554D01*
X105311226Y-44207648D01*
X105261223Y-44258049D01*
X105191909Y-44273415D01*
X105125291Y-44248867D01*
X105089490Y-44205444D01*
X105081639Y-44198465D01*
X105072589Y-44202460D01*
X104762859Y-44512191D01*
X104755248Y-44526129D01*
X104036516Y-44526129D01*
X104037750Y-44523869D01*
X104037618Y-44522033D01*
X104033369Y-44515421D01*
X103723538Y-44205589D01*
X103711159Y-44198830D01*
X103707538Y-44201541D01*
X103657501Y-44339015D01*
X103654209Y-44352624D01*
X103634662Y-44507355D01*
X103634466Y-44521361D01*
X82208500Y-44521361D01*
X82208500Y-20134500D01*
X82228502Y-20066379D01*
X82282158Y-20019886D01*
X82334500Y-20008500D01*
X82358460Y-20008500D01*
X82426581Y-20028502D01*
G37*
%TD.AperFunction*%
%TA.AperFunction,Conductor*%
G36*
X99024773Y-40353502D02*
G01*
X99071266Y-40407158D01*
X99081370Y-40477432D01*
X99076486Y-40498433D01*
X99056458Y-40560072D01*
X99055768Y-40566633D01*
X99055768Y-40566635D01*
X99045286Y-40666370D01*
X99036496Y-40750000D01*
X99054238Y-40918801D01*
X99055134Y-40927330D01*
X99042362Y-40997168D01*
X98993860Y-41049015D01*
X98929824Y-41066500D01*
X98509999Y-41066500D01*
X98441878Y-41046498D01*
X98420904Y-41029595D01*
X97939904Y-40548595D01*
X97905878Y-40486283D01*
X97910943Y-40415468D01*
X97953490Y-40358632D01*
X98020010Y-40333821D01*
X98028999Y-40333500D01*
X98956652Y-40333500D01*
X99024773Y-40353502D01*
G37*
%TD.AperFunction*%
%TA.AperFunction,Conductor*%
G36*
X96899771Y-36177202D02*
G01*
X96946264Y-36230858D01*
X96957650Y-36283200D01*
X96957650Y-37040784D01*
X96962125Y-37056023D01*
X96963515Y-37057228D01*
X96971198Y-37058899D01*
X97002321Y-37058899D01*
X97006716Y-37058661D01*
X97075819Y-37074950D01*
X97111326Y-37105722D01*
X97113508Y-37109412D01*
X97127829Y-37123733D01*
X97140669Y-37138766D01*
X97152578Y-37155157D01*
X97179916Y-37177773D01*
X97186643Y-37183338D01*
X97195424Y-37191328D01*
X97613295Y-37609200D01*
X97620829Y-37617479D01*
X97624942Y-37623960D01*
X97630722Y-37629388D01*
X97630723Y-37629389D01*
X97634377Y-37632820D01*
X97670342Y-37694032D01*
X97667505Y-37764972D01*
X97626764Y-37823116D01*
X97574321Y-37847916D01*
X97424178Y-37879831D01*
X97424173Y-37879833D01*
X97417712Y-37881206D01*
X97411682Y-37883891D01*
X97411681Y-37883891D01*
X97249278Y-37956197D01*
X97249276Y-37956198D01*
X97243248Y-37958882D01*
X97088747Y-38071134D01*
X97084240Y-38076140D01*
X97084177Y-38076179D01*
X97079423Y-38080459D01*
X97078640Y-38079589D01*
X97023792Y-38113374D01*
X96952808Y-38112017D01*
X96901516Y-38080916D01*
X96405455Y-37584855D01*
X96371429Y-37522543D01*
X96368550Y-37495760D01*
X96368550Y-37159164D01*
X96388552Y-37091043D01*
X96442208Y-37044550D01*
X96512482Y-37034446D01*
X96538779Y-37041182D01*
X96560641Y-37049378D01*
X96575899Y-37053005D01*
X96626764Y-37058531D01*
X96633578Y-37058900D01*
X96660135Y-37058900D01*
X96675374Y-37054425D01*
X96676579Y-37053035D01*
X96678250Y-37045352D01*
X96678250Y-36283200D01*
X96698252Y-36215079D01*
X96751908Y-36168586D01*
X96804250Y-36157200D01*
X96831650Y-36157200D01*
X96899771Y-36177202D01*
G37*
%TD.AperFunction*%
%TA.AperFunction,Conductor*%
G36*
X121750445Y-36992955D02*
G01*
X121803025Y-37040661D01*
X121821500Y-37106344D01*
X121821500Y-37885000D01*
X121801498Y-37953121D01*
X121784595Y-37974095D01*
X121752475Y-38006215D01*
X121690163Y-38040241D01*
X121619348Y-38035176D01*
X121562512Y-37992629D01*
X121537701Y-37926109D01*
X121537652Y-37923640D01*
X121538219Y-37920057D01*
X121534059Y-37876046D01*
X121533500Y-37864189D01*
X121533500Y-37139900D01*
X121553502Y-37071779D01*
X121570405Y-37050805D01*
X121592253Y-37028957D01*
X121600539Y-37021417D01*
X121607018Y-37017305D01*
X121612443Y-37011527D01*
X121615183Y-37009261D01*
X121680420Y-36981250D01*
X121750445Y-36992955D01*
G37*
%TD.AperFunction*%
%TA.AperFunction,Conductor*%
G36*
X120220472Y-35908685D02*
G01*
X120267902Y-35938501D01*
X120379042Y-36049642D01*
X120488838Y-36159438D01*
X120522863Y-36221750D01*
X120517798Y-36292566D01*
X120491593Y-36334784D01*
X120446356Y-36382957D01*
X120443601Y-36385799D01*
X120423865Y-36405535D01*
X120421385Y-36408732D01*
X120413682Y-36417752D01*
X120383414Y-36449984D01*
X120379595Y-36456930D01*
X120379593Y-36456933D01*
X120373652Y-36467739D01*
X120362801Y-36484258D01*
X120350386Y-36500264D01*
X120347241Y-36507533D01*
X120347238Y-36507537D01*
X120332826Y-36540842D01*
X120327603Y-36551504D01*
X120319914Y-36565490D01*
X120269568Y-36615548D01*
X120200151Y-36630441D01*
X120133703Y-36605440D01*
X120091319Y-36548482D01*
X120083500Y-36504788D01*
X120083500Y-36328763D01*
X120084027Y-36317579D01*
X120085701Y-36310091D01*
X120083562Y-36242032D01*
X120083500Y-36238075D01*
X120083500Y-36210144D01*
X120082994Y-36206138D01*
X120082061Y-36194292D01*
X120081911Y-36189500D01*
X120080673Y-36150110D01*
X120075022Y-36130658D01*
X120071014Y-36111306D01*
X120069468Y-36099068D01*
X120069467Y-36099066D01*
X120068474Y-36091203D01*
X120065554Y-36083827D01*
X120061655Y-36073979D01*
X120055176Y-36003279D01*
X120087949Y-35940299D01*
X120149570Y-35905036D01*
X120220472Y-35908685D01*
G37*
%TD.AperFunction*%
%TA.AperFunction,Conductor*%
G36*
X100215593Y-34193334D02*
G01*
X100268399Y-34240790D01*
X100285242Y-34300132D01*
X100286496Y-34300000D01*
X100305298Y-34478887D01*
X100306458Y-34489928D01*
X100365473Y-34671556D01*
X100368776Y-34677278D01*
X100368777Y-34677279D01*
X100396187Y-34724754D01*
X100460960Y-34836944D01*
X100465378Y-34841851D01*
X100465379Y-34841852D01*
X100578524Y-34967512D01*
X100588747Y-34978866D01*
X100743248Y-35091118D01*
X100749276Y-35093802D01*
X100749278Y-35093803D01*
X100908986Y-35164909D01*
X100917712Y-35168794D01*
X100924167Y-35170166D01*
X100924176Y-35170169D01*
X100980772Y-35182199D01*
X101043669Y-35216350D01*
X101603724Y-35776405D01*
X101637750Y-35838717D01*
X101632685Y-35909532D01*
X101590138Y-35966368D01*
X101523618Y-35991179D01*
X101514629Y-35991500D01*
X100507745Y-35991500D01*
X100439624Y-35971498D01*
X100418650Y-35954595D01*
X100331711Y-35867656D01*
X100302824Y-35822791D01*
X100258517Y-35704603D01*
X100255365Y-35696195D01*
X100168011Y-35579639D01*
X100134826Y-35554768D01*
X100058637Y-35497667D01*
X100058634Y-35497665D01*
X100051455Y-35492285D01*
X100039497Y-35487802D01*
X100036485Y-35485539D01*
X100035176Y-35484823D01*
X100035279Y-35484634D01*
X99982732Y-35445162D01*
X99958031Y-35378601D01*
X99958462Y-35356212D01*
X99958718Y-35353861D01*
X99964000Y-35305234D01*
X99964000Y-34700966D01*
X99957245Y-34638784D01*
X99954473Y-34631388D01*
X99954471Y-34631382D01*
X99930668Y-34567888D01*
X99925485Y-34497081D01*
X99940874Y-34458388D01*
X99979318Y-34394909D01*
X100025472Y-34318699D01*
X100040952Y-34269302D01*
X100080410Y-34210280D01*
X100145514Y-34181961D01*
X100215593Y-34193334D01*
G37*
%TD.AperFunction*%
%TA.AperFunction,Conductor*%
G36*
X121763621Y-33891002D02*
G01*
X121810114Y-33944658D01*
X121821500Y-33997000D01*
X121821500Y-35396100D01*
X121801498Y-35464221D01*
X121747842Y-35510714D01*
X121677568Y-35520818D01*
X121612988Y-35491324D01*
X121606404Y-35485195D01*
X121385719Y-35264509D01*
X121351694Y-35202197D01*
X121356759Y-35131381D01*
X121361742Y-35119821D01*
X121376000Y-35090821D01*
X121376000Y-33997000D01*
X121396002Y-33928879D01*
X121449658Y-33882386D01*
X121502000Y-33871000D01*
X121695500Y-33871000D01*
X121763621Y-33891002D01*
G37*
%TD.AperFunction*%
%TA.AperFunction,Conductor*%
G36*
X119286121Y-33891002D02*
G01*
X119332614Y-33944658D01*
X119344000Y-33997000D01*
X119344000Y-34240500D01*
X119323998Y-34308621D01*
X119270342Y-34355114D01*
X119218000Y-34366500D01*
X117692000Y-34366500D01*
X117623879Y-34346498D01*
X117577386Y-34292842D01*
X117566000Y-34240500D01*
X117566000Y-33997000D01*
X117586002Y-33928879D01*
X117639658Y-33882386D01*
X117692000Y-33871000D01*
X119218000Y-33871000D01*
X119286121Y-33891002D01*
G37*
%TD.AperFunction*%
%TA.AperFunction,Conductor*%
G36*
X114579304Y-20028502D02*
G01*
X114625797Y-20082158D01*
X114635901Y-20152432D01*
X114606407Y-20217012D01*
X114584459Y-20236325D01*
X114584482Y-20236353D01*
X114583725Y-20236971D01*
X114580907Y-20239450D01*
X114579708Y-20240246D01*
X114436067Y-20357397D01*
X114427363Y-20366041D01*
X114309216Y-20508856D01*
X114302356Y-20519027D01*
X114214196Y-20682076D01*
X114209444Y-20693381D01*
X114173750Y-20808692D01*
X114173544Y-20822795D01*
X114180299Y-20826000D01*
X117202924Y-20826000D01*
X117216455Y-20822027D01*
X117217575Y-20814232D01*
X117185862Y-20706479D01*
X117181269Y-20695111D01*
X117095393Y-20530846D01*
X117088679Y-20520585D01*
X116972532Y-20376127D01*
X116963954Y-20367368D01*
X116821963Y-20248224D01*
X116807713Y-20238467D01*
X116762804Y-20183478D01*
X116754753Y-20112940D01*
X116786117Y-20049246D01*
X116846937Y-20012620D01*
X116878895Y-20008500D01*
X118941183Y-20008500D01*
X119009304Y-20028502D01*
X119055797Y-20082158D01*
X119065901Y-20152432D01*
X119036407Y-20217012D01*
X119014459Y-20236325D01*
X119014482Y-20236353D01*
X119013725Y-20236971D01*
X119010907Y-20239450D01*
X119009708Y-20240246D01*
X118866067Y-20357397D01*
X118857363Y-20366041D01*
X118739216Y-20508856D01*
X118732356Y-20519027D01*
X118644196Y-20682076D01*
X118639444Y-20693381D01*
X118603750Y-20808692D01*
X118603544Y-20822795D01*
X118610299Y-20826000D01*
X121132924Y-20826000D01*
X121146455Y-20822027D01*
X121147575Y-20814232D01*
X121115862Y-20706479D01*
X121111269Y-20695111D01*
X121025393Y-20530846D01*
X121018679Y-20520585D01*
X120902532Y-20376127D01*
X120893954Y-20367368D01*
X120751963Y-20248224D01*
X120737713Y-20238467D01*
X120692804Y-20183478D01*
X120684753Y-20112940D01*
X120716117Y-20049246D01*
X120776937Y-20012620D01*
X120808895Y-20008500D01*
X122565500Y-20008500D01*
X122633621Y-20028502D01*
X122680114Y-20082158D01*
X122691500Y-20134500D01*
X122691500Y-29869679D01*
X122671498Y-29937800D01*
X122617842Y-29984293D01*
X122547568Y-29994397D01*
X122482988Y-29964903D01*
X122476405Y-29958774D01*
X117744570Y-25226939D01*
X117710544Y-25164627D01*
X117708355Y-25151014D01*
X117708328Y-25150752D01*
X117697496Y-25047690D01*
X117694232Y-25016635D01*
X117694232Y-25016633D01*
X117693542Y-25010072D01*
X117634527Y-24828444D01*
X117539040Y-24663056D01*
X117534607Y-24658132D01*
X117415675Y-24526045D01*
X117415674Y-24526044D01*
X117411253Y-24521134D01*
X117256752Y-24408882D01*
X117250724Y-24406198D01*
X117250722Y-24406197D01*
X117088319Y-24333891D01*
X117088318Y-24333891D01*
X117082288Y-24331206D01*
X116988887Y-24311353D01*
X116901944Y-24292872D01*
X116901939Y-24292872D01*
X116895487Y-24291500D01*
X116704513Y-24291500D01*
X116698061Y-24292872D01*
X116698056Y-24292872D01*
X116611112Y-24311353D01*
X116517712Y-24331206D01*
X116511682Y-24333891D01*
X116511681Y-24333891D01*
X116349278Y-24406197D01*
X116349276Y-24406198D01*
X116343248Y-24408882D01*
X116188747Y-24521134D01*
X116184326Y-24526044D01*
X116184325Y-24526045D01*
X116065394Y-24658132D01*
X116060960Y-24663056D01*
X115965473Y-24828444D01*
X115906458Y-25010072D01*
X115905768Y-25016633D01*
X115905768Y-25016635D01*
X115900652Y-25065314D01*
X115886496Y-25200000D01*
X115887186Y-25206565D01*
X115904887Y-25374976D01*
X115906458Y-25389928D01*
X115919049Y-25428679D01*
X115961002Y-25557796D01*
X115963030Y-25628763D01*
X115934807Y-25681041D01*
X115860960Y-25763056D01*
X115765473Y-25928444D01*
X115706458Y-26110072D01*
X115705768Y-26116633D01*
X115705768Y-26116635D01*
X115694675Y-26222180D01*
X115686496Y-26300000D01*
X115687186Y-26306565D01*
X115701534Y-26443075D01*
X115706458Y-26489928D01*
X115765473Y-26671556D01*
X115768776Y-26677278D01*
X115768777Y-26677279D01*
X115785947Y-26707018D01*
X115860960Y-26836944D01*
X115865378Y-26841851D01*
X115865379Y-26841852D01*
X115981519Y-26970839D01*
X115988747Y-26978866D01*
X116143248Y-27091118D01*
X116149276Y-27093802D01*
X116149278Y-27093803D01*
X116311681Y-27166109D01*
X116317712Y-27168794D01*
X116324167Y-27170166D01*
X116324173Y-27170168D01*
X116336694Y-27172829D01*
X116399169Y-27206556D01*
X116433491Y-27268705D01*
X116436500Y-27296076D01*
X116436500Y-27333089D01*
X116416498Y-27401210D01*
X116362842Y-27447703D01*
X116293254Y-27457882D01*
X116288457Y-27456810D01*
X116282912Y-27456500D01*
X116149756Y-27456500D01*
X116014963Y-27471143D01*
X115922270Y-27502338D01*
X115849796Y-27526728D01*
X115849794Y-27526729D01*
X115843325Y-27528906D01*
X115688095Y-27622177D01*
X115683138Y-27626865D01*
X115683135Y-27626867D01*
X115561473Y-27741918D01*
X115556515Y-27746607D01*
X115552683Y-27752245D01*
X115552680Y-27752249D01*
X115489741Y-27844861D01*
X115454723Y-27896388D01*
X115387470Y-28064534D01*
X115386356Y-28071262D01*
X115386355Y-28071266D01*
X115360633Y-28226639D01*
X115357892Y-28243198D01*
X115358249Y-28250015D01*
X115358249Y-28250019D01*
X115363062Y-28341852D01*
X115367370Y-28424047D01*
X115399660Y-28541273D01*
X115402763Y-28552540D01*
X115401569Y-28623526D01*
X115362186Y-28682599D01*
X115297119Y-28711001D01*
X115281287Y-28712000D01*
X115098343Y-28712000D01*
X115092195Y-28712301D01*
X114954397Y-28725812D01*
X114942362Y-28728195D01*
X114764924Y-28781767D01*
X114753584Y-28786441D01*
X114589923Y-28873460D01*
X114579706Y-28880249D01*
X114436067Y-28997397D01*
X114427363Y-29006041D01*
X114309216Y-29148856D01*
X114302356Y-29159027D01*
X114214196Y-29322076D01*
X114209444Y-29333381D01*
X114173750Y-29448692D01*
X114173544Y-29462795D01*
X114180299Y-29466000D01*
X115823000Y-29466000D01*
X115891121Y-29486002D01*
X115937614Y-29539658D01*
X115949000Y-29592000D01*
X115949000Y-29848000D01*
X115928998Y-29916121D01*
X115875342Y-29962614D01*
X115823000Y-29974000D01*
X114187076Y-29974000D01*
X114173545Y-29977973D01*
X114172425Y-29985768D01*
X114204138Y-30093521D01*
X114208731Y-30104889D01*
X114294607Y-30269154D01*
X114301321Y-30279415D01*
X114417468Y-30423873D01*
X114426046Y-30432632D01*
X114568039Y-30551778D01*
X114578159Y-30558708D01*
X114740585Y-30648002D01*
X114751858Y-30652834D01*
X114928538Y-30708880D01*
X114940532Y-30711430D01*
X115084761Y-30727607D01*
X115091785Y-30728000D01*
X115271905Y-30728000D01*
X115340026Y-30748002D01*
X115386519Y-30801658D01*
X115396623Y-30871932D01*
X115367129Y-30936512D01*
X115361000Y-30943095D01*
X115282442Y-31021653D01*
X115274156Y-31029193D01*
X115267677Y-31033305D01*
X115262252Y-31039082D01*
X115221052Y-31082956D01*
X115218297Y-31085798D01*
X115198560Y-31105535D01*
X115196080Y-31108732D01*
X115188377Y-31117752D01*
X115158109Y-31149984D01*
X115154290Y-31156930D01*
X115154288Y-31156933D01*
X115148347Y-31167739D01*
X115137496Y-31184258D01*
X115125081Y-31200264D01*
X115121936Y-31207533D01*
X115121933Y-31207537D01*
X115107521Y-31240842D01*
X115102304Y-31251492D01*
X115081000Y-31290245D01*
X115079029Y-31297920D01*
X115079029Y-31297921D01*
X115075962Y-31309867D01*
X115069558Y-31328571D01*
X115061514Y-31347160D01*
X115060275Y-31354983D01*
X115060272Y-31354993D01*
X115054596Y-31390829D01*
X115052190Y-31402449D01*
X115044432Y-31432667D01*
X115041195Y-31445275D01*
X115041195Y-31465529D01*
X115039644Y-31485239D01*
X115036475Y-31505248D01*
X115039594Y-31538238D01*
X115040636Y-31549266D01*
X115041195Y-31561124D01*
X115041195Y-32215500D01*
X115021193Y-32283621D01*
X114967537Y-32330114D01*
X114915195Y-32341500D01*
X114854513Y-32341500D01*
X114848061Y-32342872D01*
X114848056Y-32342872D01*
X114763206Y-32360908D01*
X114667712Y-32381206D01*
X114661682Y-32383891D01*
X114661681Y-32383891D01*
X114499278Y-32456197D01*
X114499276Y-32456198D01*
X114493248Y-32458882D01*
X114487907Y-32462762D01*
X114487906Y-32462763D01*
X114457936Y-32484538D01*
X114338747Y-32571134D01*
X114334326Y-32576044D01*
X114334325Y-32576045D01*
X114230292Y-32691586D01*
X114210960Y-32713056D01*
X114115473Y-32878444D01*
X114056458Y-33060072D01*
X114056295Y-33060019D01*
X114024018Y-33119804D01*
X113961868Y-33154125D01*
X113891029Y-33149397D01*
X113833992Y-33107121D01*
X113808865Y-33040719D01*
X113808500Y-33031133D01*
X113808500Y-28834500D01*
X113828502Y-28766379D01*
X113882158Y-28719886D01*
X113934500Y-28708500D01*
X113995487Y-28708500D01*
X114001939Y-28707128D01*
X114001944Y-28707128D01*
X114088887Y-28688647D01*
X114182288Y-28668794D01*
X114188319Y-28666109D01*
X114350722Y-28593803D01*
X114350724Y-28593802D01*
X114356752Y-28591118D01*
X114383201Y-28571902D01*
X114486642Y-28496747D01*
X114511253Y-28478866D01*
X114536150Y-28451215D01*
X114634621Y-28341852D01*
X114634622Y-28341851D01*
X114639040Y-28336944D01*
X114697314Y-28236010D01*
X114731223Y-28177279D01*
X114731224Y-28177278D01*
X114734527Y-28171556D01*
X114793542Y-27989928D01*
X114799113Y-27936929D01*
X114812814Y-27806565D01*
X114813504Y-27800000D01*
X114802121Y-27691693D01*
X114794232Y-27616635D01*
X114794232Y-27616633D01*
X114793542Y-27610072D01*
X114734527Y-27428444D01*
X114722174Y-27407047D01*
X114697556Y-27364408D01*
X114675381Y-27326000D01*
X114658500Y-27263001D01*
X114658500Y-23474782D01*
X114678502Y-23406661D01*
X114685910Y-23396959D01*
X114689619Y-23391854D01*
X114694040Y-23386944D01*
X114719301Y-23343190D01*
X114786223Y-23227279D01*
X114786224Y-23227278D01*
X114789527Y-23221556D01*
X114848542Y-23039928D01*
X114852049Y-23006566D01*
X114867814Y-22856565D01*
X114868504Y-22850000D01*
X114860880Y-22777464D01*
X114849232Y-22666635D01*
X114849232Y-22666633D01*
X114848542Y-22660072D01*
X114789527Y-22478444D01*
X114694040Y-22313056D01*
X114682302Y-22300019D01*
X114600969Y-22209690D01*
X114570251Y-22145683D01*
X114579016Y-22075229D01*
X114624479Y-22020698D01*
X114692206Y-21999403D01*
X114744244Y-22009570D01*
X114751862Y-22012835D01*
X114928538Y-22068880D01*
X114940532Y-22071430D01*
X115084761Y-22087607D01*
X115091785Y-22088000D01*
X115279977Y-22088000D01*
X115348098Y-22108002D01*
X115394591Y-22161658D01*
X115404695Y-22231932D01*
X115396966Y-22260792D01*
X115387470Y-22284534D01*
X115386356Y-22291262D01*
X115386355Y-22291266D01*
X115364222Y-22424961D01*
X115357892Y-22463198D01*
X115358249Y-22470015D01*
X115358249Y-22470019D01*
X115362868Y-22558143D01*
X115367370Y-22644047D01*
X115369181Y-22650620D01*
X115369181Y-22650623D01*
X115411371Y-22803791D01*
X115415461Y-22818641D01*
X115499922Y-22978836D01*
X115504327Y-22984049D01*
X115504330Y-22984053D01*
X115612406Y-23111943D01*
X115612410Y-23111947D01*
X115616813Y-23117157D01*
X115622237Y-23121304D01*
X115622238Y-23121305D01*
X115755257Y-23223006D01*
X115755261Y-23223009D01*
X115760678Y-23227150D01*
X115839313Y-23263818D01*
X115918631Y-23300805D01*
X115918634Y-23300806D01*
X115924808Y-23303685D01*
X115931456Y-23305171D01*
X115931459Y-23305172D01*
X116030768Y-23327370D01*
X116101543Y-23343190D01*
X116107088Y-23343500D01*
X116240244Y-23343500D01*
X116375037Y-23328857D01*
X116493190Y-23289094D01*
X116540204Y-23273272D01*
X116540206Y-23273271D01*
X116546675Y-23271094D01*
X116552637Y-23267512D01*
X116573475Y-23254991D01*
X116701905Y-23177823D01*
X116706862Y-23173135D01*
X116706865Y-23173133D01*
X116828527Y-23058082D01*
X116828529Y-23058080D01*
X116833485Y-23053393D01*
X116837317Y-23047755D01*
X116837320Y-23047751D01*
X116931442Y-22909255D01*
X116935277Y-22903612D01*
X117002530Y-22735466D01*
X117003644Y-22728738D01*
X117003645Y-22728734D01*
X117030993Y-22563539D01*
X117030993Y-22563536D01*
X117032108Y-22556802D01*
X117030829Y-22532386D01*
X117022987Y-22382766D01*
X117022630Y-22375953D01*
X117018501Y-22360960D01*
X116976352Y-22207941D01*
X116974539Y-22201359D01*
X116890078Y-22041164D01*
X116885671Y-22035949D01*
X116885669Y-22035946D01*
X116879549Y-22028705D01*
X116850855Y-21963765D01*
X116861825Y-21893622D01*
X116896148Y-21849731D01*
X116953933Y-21802603D01*
X116962637Y-21793959D01*
X117080784Y-21651144D01*
X117087644Y-21640973D01*
X117175804Y-21477924D01*
X117180556Y-21466619D01*
X117216250Y-21351308D01*
X117216331Y-21345768D01*
X118602425Y-21345768D01*
X118634138Y-21453521D01*
X118638731Y-21464889D01*
X118724607Y-21629154D01*
X118731321Y-21639415D01*
X118847468Y-21783873D01*
X118856046Y-21792632D01*
X118998039Y-21911778D01*
X119008159Y-21918708D01*
X119170585Y-22008002D01*
X119181858Y-22012834D01*
X119358538Y-22068880D01*
X119370532Y-22071430D01*
X119514761Y-22087607D01*
X119521785Y-22088000D01*
X119602885Y-22088000D01*
X119618124Y-22083525D01*
X119619329Y-22082135D01*
X119621000Y-22074452D01*
X119621000Y-22069885D01*
X120129000Y-22069885D01*
X120133475Y-22085124D01*
X120134865Y-22086329D01*
X120142548Y-22088000D01*
X120221657Y-22088000D01*
X120227805Y-22087699D01*
X120365603Y-22074188D01*
X120377638Y-22071805D01*
X120555076Y-22018233D01*
X120566416Y-22013559D01*
X120730077Y-21926540D01*
X120740294Y-21919751D01*
X120883933Y-21802603D01*
X120892637Y-21793959D01*
X121010784Y-21651144D01*
X121017644Y-21640973D01*
X121105804Y-21477924D01*
X121110556Y-21466619D01*
X121146250Y-21351308D01*
X121146456Y-21337205D01*
X121139701Y-21334000D01*
X120147115Y-21334000D01*
X120131876Y-21338475D01*
X120130671Y-21339865D01*
X120129000Y-21347548D01*
X120129000Y-22069885D01*
X119621000Y-22069885D01*
X119621000Y-21352115D01*
X119616525Y-21336876D01*
X119615135Y-21335671D01*
X119607452Y-21334000D01*
X118617076Y-21334000D01*
X118603545Y-21337973D01*
X118602425Y-21345768D01*
X117216331Y-21345768D01*
X117216456Y-21337205D01*
X117209701Y-21334000D01*
X114187076Y-21334000D01*
X114173545Y-21337973D01*
X114172425Y-21345768D01*
X114204138Y-21453521D01*
X114208731Y-21464889D01*
X114294607Y-21629154D01*
X114301321Y-21639415D01*
X114417468Y-21783873D01*
X114426048Y-21792635D01*
X114431399Y-21797125D01*
X114470724Y-21856235D01*
X114471850Y-21927223D01*
X114434417Y-21987550D01*
X114370312Y-22018063D01*
X114299158Y-22008752D01*
X114237288Y-21981206D01*
X114143888Y-21961353D01*
X114056944Y-21942872D01*
X114056939Y-21942872D01*
X114050487Y-21941500D01*
X113934500Y-21941500D01*
X113866379Y-21921498D01*
X113819886Y-21867842D01*
X113808500Y-21815500D01*
X113808500Y-21053767D01*
X113809027Y-21042584D01*
X113810702Y-21035091D01*
X113808562Y-20967014D01*
X113808500Y-20963055D01*
X113808500Y-20935144D01*
X113807995Y-20931144D01*
X113807062Y-20919301D01*
X113805922Y-20883030D01*
X113805673Y-20875111D01*
X113800021Y-20855657D01*
X113796013Y-20836300D01*
X113794468Y-20824070D01*
X113794468Y-20824069D01*
X113793474Y-20816203D01*
X113790500Y-20808692D01*
X113777196Y-20775088D01*
X113773351Y-20763858D01*
X113763229Y-20729017D01*
X113763229Y-20729016D01*
X113761018Y-20721407D01*
X113756985Y-20714588D01*
X113756983Y-20714583D01*
X113750707Y-20703972D01*
X113742012Y-20686224D01*
X113734552Y-20667383D01*
X113727216Y-20657285D01*
X113708564Y-20631613D01*
X113702048Y-20621693D01*
X113683580Y-20590465D01*
X113683578Y-20590462D01*
X113679542Y-20583638D01*
X113665218Y-20569314D01*
X113652383Y-20554287D01*
X113640472Y-20537893D01*
X113606403Y-20509708D01*
X113597625Y-20501720D01*
X113453648Y-20357744D01*
X113446112Y-20349462D01*
X113442000Y-20342982D01*
X113392347Y-20296355D01*
X113389506Y-20293601D01*
X113369770Y-20273865D01*
X113366573Y-20271385D01*
X113357551Y-20263680D01*
X113331097Y-20238838D01*
X113325321Y-20233414D01*
X113325397Y-20233333D01*
X113284435Y-20180209D01*
X113278363Y-20109473D01*
X113311497Y-20046682D01*
X113373318Y-20011773D01*
X113401852Y-20008500D01*
X114511183Y-20008500D01*
X114579304Y-20028502D01*
G37*
%TD.AperFunction*%
%TA.AperFunction,Conductor*%
G36*
X117912012Y-27186644D02*
G01*
X117918595Y-27192773D01*
X119286214Y-28560392D01*
X119320240Y-28622704D01*
X119315175Y-28693519D01*
X119272628Y-28750355D01*
X119233538Y-28770109D01*
X119194921Y-28781768D01*
X119183584Y-28786441D01*
X119019923Y-28873460D01*
X119009706Y-28880249D01*
X118866067Y-28997397D01*
X118857363Y-29006041D01*
X118739216Y-29148856D01*
X118732356Y-29159027D01*
X118644196Y-29322076D01*
X118639444Y-29333381D01*
X118603750Y-29448692D01*
X118603544Y-29462795D01*
X118610299Y-29466000D01*
X120003000Y-29466000D01*
X120071121Y-29486002D01*
X120117614Y-29539658D01*
X120129000Y-29592000D01*
X120129000Y-30709885D01*
X120133475Y-30725124D01*
X120134865Y-30726329D01*
X120142548Y-30728000D01*
X120221657Y-30728000D01*
X120227805Y-30727699D01*
X120365603Y-30714188D01*
X120377638Y-30711805D01*
X120555076Y-30658233D01*
X120566416Y-30653559D01*
X120730077Y-30566540D01*
X120740294Y-30559751D01*
X120883933Y-30442603D01*
X120892636Y-30433960D01*
X120925317Y-30394455D01*
X120984151Y-30354716D01*
X121055129Y-30353094D01*
X121111497Y-30385675D01*
X121784595Y-31058773D01*
X121818621Y-31121085D01*
X121821500Y-31147868D01*
X121821500Y-31721091D01*
X121801498Y-31789212D01*
X121747842Y-31835705D01*
X121682330Y-31846401D01*
X121643205Y-31842289D01*
X121643202Y-31842289D01*
X121637075Y-31841645D01*
X121554576Y-31849153D01*
X121446251Y-31859011D01*
X121446248Y-31859012D01*
X121440112Y-31859570D01*
X121434206Y-31861308D01*
X121434202Y-31861309D01*
X121365103Y-31881646D01*
X121250381Y-31915410D01*
X121244923Y-31918263D01*
X121244919Y-31918265D01*
X121149135Y-31968340D01*
X121075110Y-32007040D01*
X121070310Y-32010900D01*
X121065153Y-32014274D01*
X121063769Y-32012158D01*
X121008365Y-32035027D01*
X120938512Y-32022334D01*
X120928898Y-32016709D01*
X120926675Y-32014870D01*
X120752701Y-31920802D01*
X120563768Y-31862318D01*
X120557643Y-31861674D01*
X120557642Y-31861674D01*
X120373204Y-31842289D01*
X120373202Y-31842289D01*
X120367075Y-31841645D01*
X120284576Y-31849153D01*
X120176251Y-31859011D01*
X120176248Y-31859012D01*
X120170112Y-31859570D01*
X120164206Y-31861308D01*
X120164202Y-31861309D01*
X120095103Y-31881646D01*
X119980381Y-31915410D01*
X119974923Y-31918263D01*
X119974919Y-31918265D01*
X119879135Y-31968340D01*
X119805110Y-32007040D01*
X119800310Y-32010900D01*
X119795153Y-32014274D01*
X119793769Y-32012158D01*
X119738365Y-32035027D01*
X119668512Y-32022334D01*
X119658898Y-32016709D01*
X119656675Y-32014870D01*
X119482701Y-31920802D01*
X119293768Y-31862318D01*
X119287643Y-31861674D01*
X119287642Y-31861674D01*
X119103204Y-31842289D01*
X119103202Y-31842289D01*
X119097075Y-31841645D01*
X119014576Y-31849153D01*
X118906251Y-31859011D01*
X118906248Y-31859012D01*
X118900112Y-31859570D01*
X118894206Y-31861308D01*
X118894202Y-31861309D01*
X118825103Y-31881646D01*
X118710381Y-31915410D01*
X118704923Y-31918263D01*
X118704919Y-31918265D01*
X118609135Y-31968340D01*
X118535110Y-32007040D01*
X118530310Y-32010900D01*
X118525153Y-32014274D01*
X118523769Y-32012158D01*
X118468365Y-32035027D01*
X118398512Y-32022334D01*
X118388898Y-32016709D01*
X118386675Y-32014870D01*
X118212701Y-31920802D01*
X118023768Y-31862318D01*
X118017643Y-31861674D01*
X118017642Y-31861674D01*
X117833204Y-31842289D01*
X117833202Y-31842289D01*
X117827075Y-31841645D01*
X117744576Y-31849153D01*
X117636251Y-31859011D01*
X117636248Y-31859012D01*
X117630112Y-31859570D01*
X117624206Y-31861308D01*
X117624202Y-31861309D01*
X117555103Y-31881646D01*
X117440381Y-31915410D01*
X117434923Y-31918263D01*
X117434919Y-31918265D01*
X117339135Y-31968340D01*
X117265110Y-32007040D01*
X117260310Y-32010900D01*
X117255153Y-32014274D01*
X117253769Y-32012158D01*
X117198365Y-32035027D01*
X117128512Y-32022334D01*
X117118898Y-32016709D01*
X117116675Y-32014870D01*
X116942701Y-31920802D01*
X116753768Y-31862318D01*
X116747643Y-31861674D01*
X116747642Y-31861674D01*
X116563205Y-31842289D01*
X116563202Y-31842289D01*
X116557075Y-31841645D01*
X116555463Y-31841792D01*
X116488991Y-31821772D01*
X116442871Y-31767795D01*
X116433255Y-31697453D01*
X116463195Y-31633078D01*
X116468750Y-31627154D01*
X117462247Y-30633657D01*
X117470537Y-30626113D01*
X117477018Y-30622000D01*
X117523659Y-30572332D01*
X117526413Y-30569491D01*
X117546134Y-30549770D01*
X117548612Y-30546575D01*
X117556318Y-30537553D01*
X117581158Y-30511101D01*
X117586586Y-30505321D01*
X117596346Y-30487568D01*
X117607199Y-30471045D01*
X117608991Y-30468735D01*
X117619613Y-30455041D01*
X117637176Y-30414457D01*
X117642383Y-30403827D01*
X117663695Y-30365060D01*
X117665666Y-30357383D01*
X117665668Y-30357378D01*
X117668732Y-30345442D01*
X117675138Y-30326730D01*
X117680033Y-30315419D01*
X117683181Y-30308145D01*
X117684421Y-30300317D01*
X117684423Y-30300310D01*
X117690099Y-30264476D01*
X117692505Y-30252856D01*
X117701528Y-30217711D01*
X117701528Y-30217710D01*
X117703500Y-30210030D01*
X117703500Y-30189776D01*
X117705051Y-30170065D01*
X117706980Y-30157886D01*
X117708220Y-30150057D01*
X117704059Y-30106038D01*
X117703500Y-30094181D01*
X117703500Y-29985768D01*
X118602425Y-29985768D01*
X118634138Y-30093521D01*
X118638731Y-30104889D01*
X118724607Y-30269154D01*
X118731321Y-30279415D01*
X118847468Y-30423873D01*
X118856046Y-30432632D01*
X118998039Y-30551778D01*
X119008159Y-30558708D01*
X119170585Y-30648002D01*
X119181858Y-30652834D01*
X119358538Y-30708880D01*
X119370532Y-30711430D01*
X119514761Y-30727607D01*
X119521785Y-30728000D01*
X119602885Y-30728000D01*
X119618124Y-30723525D01*
X119619329Y-30722135D01*
X119621000Y-30714452D01*
X119621000Y-29992115D01*
X119616525Y-29976876D01*
X119615135Y-29975671D01*
X119607452Y-29974000D01*
X118617076Y-29974000D01*
X118603545Y-29977973D01*
X118602425Y-29985768D01*
X117703500Y-29985768D01*
X117703500Y-27281868D01*
X117723502Y-27213747D01*
X117777158Y-27167254D01*
X117847432Y-27157150D01*
X117912012Y-27186644D01*
G37*
%TD.AperFunction*%
%TA.AperFunction,Conductor*%
G36*
X96457180Y-20778502D02*
G01*
X96503673Y-20832158D01*
X96513777Y-20902432D01*
X96498615Y-20946738D01*
X96493001Y-20956621D01*
X96403338Y-21149783D01*
X96399775Y-21159470D01*
X96344389Y-21359183D01*
X96345912Y-21367607D01*
X96358292Y-21371000D01*
X97808000Y-21371000D01*
X97876121Y-21391002D01*
X97922614Y-21444658D01*
X97934000Y-21497000D01*
X97934000Y-21753000D01*
X97913998Y-21821121D01*
X97860342Y-21867614D01*
X97808000Y-21879000D01*
X96363225Y-21879000D01*
X96349694Y-21882973D01*
X96348257Y-21892966D01*
X96378563Y-22027438D01*
X96378683Y-22027822D01*
X96378686Y-22027985D01*
X96379701Y-22032489D01*
X96378771Y-22032699D01*
X96379966Y-22098807D01*
X96342668Y-22159217D01*
X96278631Y-22189873D01*
X96258448Y-22191500D01*
X95004513Y-22191500D01*
X94964136Y-22200082D01*
X94951128Y-22202143D01*
X94930690Y-22204291D01*
X94916635Y-22205768D01*
X94916633Y-22205768D01*
X94910072Y-22206458D01*
X94903798Y-22208497D01*
X94903791Y-22208498D01*
X94870817Y-22219212D01*
X94858080Y-22222625D01*
X94824169Y-22229833D01*
X94824165Y-22229834D01*
X94817712Y-22231206D01*
X94779994Y-22247999D01*
X94767698Y-22252718D01*
X94728444Y-22265473D01*
X94722723Y-22268776D01*
X94692710Y-22286104D01*
X94680961Y-22292091D01*
X94643248Y-22308882D01*
X94637909Y-22312761D01*
X94637904Y-22312764D01*
X94609851Y-22333146D01*
X94598798Y-22340325D01*
X94563056Y-22360960D01*
X94558147Y-22365380D01*
X94558143Y-22365383D01*
X94532386Y-22388575D01*
X94522143Y-22396871D01*
X94488747Y-22421134D01*
X94484333Y-22426036D01*
X94484331Y-22426038D01*
X94461129Y-22451806D01*
X94451806Y-22461129D01*
X94441933Y-22470019D01*
X94421134Y-22488747D01*
X94396871Y-22522143D01*
X94388575Y-22532386D01*
X94365383Y-22558143D01*
X94365380Y-22558147D01*
X94360960Y-22563056D01*
X94340325Y-22598798D01*
X94333146Y-22609851D01*
X94312764Y-22637904D01*
X94312761Y-22637909D01*
X94308882Y-22643248D01*
X94306199Y-22649275D01*
X94306198Y-22649276D01*
X94292092Y-22680959D01*
X94286105Y-22692708D01*
X94265473Y-22728444D01*
X94263432Y-22734727D01*
X94263431Y-22734728D01*
X94252719Y-22767696D01*
X94247999Y-22779994D01*
X94231206Y-22817712D01*
X94229834Y-22824165D01*
X94229833Y-22824169D01*
X94222625Y-22858080D01*
X94219212Y-22870817D01*
X94208498Y-22903791D01*
X94208497Y-22903798D01*
X94206458Y-22910072D01*
X94205768Y-22916633D01*
X94205768Y-22916635D01*
X94202144Y-22951122D01*
X94200082Y-22964136D01*
X94191500Y-23004513D01*
X94191500Y-23045784D01*
X94190810Y-23058955D01*
X94186496Y-23100000D01*
X94188736Y-23121305D01*
X94189053Y-23124325D01*
X94176281Y-23194164D01*
X94127780Y-23246011D01*
X94058947Y-23263406D01*
X94021477Y-23256196D01*
X93892428Y-23210244D01*
X93892422Y-23210243D01*
X93885790Y-23207881D01*
X93878802Y-23207048D01*
X93878799Y-23207047D01*
X93755698Y-23192368D01*
X93705680Y-23186404D01*
X93698677Y-23187140D01*
X93698676Y-23187140D01*
X93532288Y-23204628D01*
X93532286Y-23204629D01*
X93525288Y-23205364D01*
X93353579Y-23263818D01*
X93338212Y-23273272D01*
X93205095Y-23355166D01*
X93205092Y-23355168D01*
X93199088Y-23358862D01*
X93194053Y-23363793D01*
X93194050Y-23363795D01*
X93074525Y-23480843D01*
X93069493Y-23485771D01*
X93046971Y-23520719D01*
X92993258Y-23567142D01*
X92922971Y-23577157D01*
X92858428Y-23547582D01*
X92821228Y-23491398D01*
X92817799Y-23480843D01*
X92784527Y-23378444D01*
X92776070Y-23363795D01*
X92725381Y-23276001D01*
X92708500Y-23213001D01*
X92708500Y-22116371D01*
X92728502Y-22048250D01*
X92745405Y-22027276D01*
X93977276Y-20795405D01*
X94039588Y-20761379D01*
X94066371Y-20758500D01*
X96389059Y-20758500D01*
X96457180Y-20778502D01*
G37*
%TD.AperFunction*%
%TD*%
%TA.AperFunction,Conductor*%
%TO.N,Net-(L8-Pad1)*%
G36*
X108689722Y-29614352D02*
G01*
X108704074Y-29649000D01*
X108700344Y-29667751D01*
X108663670Y-29756291D01*
X108644750Y-29900000D01*
X108663670Y-30043709D01*
X108719139Y-30177625D01*
X108807379Y-30292621D01*
X108922375Y-30380861D01*
X109056291Y-30436330D01*
X109059476Y-30436749D01*
X109062579Y-30437581D01*
X109062140Y-30439220D01*
X109089862Y-30455210D01*
X109100000Y-30485056D01*
X109100000Y-34051000D01*
X109085648Y-34085648D01*
X109051000Y-34100000D01*
X106149000Y-34100000D01*
X106114352Y-34085648D01*
X106100000Y-34051000D01*
X106100000Y-29649000D01*
X106114352Y-29614352D01*
X106149000Y-29600000D01*
X108655074Y-29600000D01*
X108689722Y-29614352D01*
G37*
%TD.AperFunction*%
%TD*%
%TA.AperFunction,Conductor*%
%TO.N,Net-(L8-Pad2)*%
G36*
X105185648Y-29614352D02*
G01*
X105200000Y-29649000D01*
X105200000Y-34051000D01*
X105185648Y-34085648D01*
X105151000Y-34100000D01*
X101853718Y-34100000D01*
X101819070Y-34085648D01*
X101807881Y-34068319D01*
X101803163Y-34055832D01*
X101800000Y-34038513D01*
X101800000Y-32484538D01*
X101814352Y-32449890D01*
X101849000Y-32435538D01*
X101856759Y-32436559D01*
X101856789Y-32436330D01*
X101959786Y-32449890D01*
X102000498Y-32455250D01*
X102144207Y-32436330D01*
X102278123Y-32380861D01*
X102393119Y-32292621D01*
X102481359Y-32177625D01*
X102536828Y-32043709D01*
X102555748Y-31900000D01*
X102536828Y-31756291D01*
X102481359Y-31622375D01*
X102393119Y-31507379D01*
X102278123Y-31419139D01*
X102144207Y-31363670D01*
X102000498Y-31344750D01*
X101856789Y-31363670D01*
X101856585Y-31362124D01*
X101824493Y-31357893D01*
X101801667Y-31328136D01*
X101800000Y-31315462D01*
X101800000Y-29649000D01*
X101814352Y-29614352D01*
X101849000Y-29600000D01*
X105151000Y-29600000D01*
X105185648Y-29614352D01*
G37*
%TD.AperFunction*%
%TD*%
M02*
