G04 #@! TF.GenerationSoftware,KiCad,Pcbnew,(6.0.8)*
G04 #@! TF.CreationDate,2022-11-18T11:01:34-05:00*
G04 #@! TF.ProjectId,Emrick,456d7269-636b-42e6-9b69-6361645f7063,2*
G04 #@! TF.SameCoordinates,Original*
G04 #@! TF.FileFunction,Copper,L2,Inr*
G04 #@! TF.FilePolarity,Positive*
%FSLAX46Y46*%
G04 Gerber Fmt 4.6, Leading zero omitted, Abs format (unit mm)*
G04 Created by KiCad (PCBNEW (6.0.8)) date 2022-11-18 11:01:34*
%MOMM*%
%LPD*%
G01*
G04 APERTURE LIST*
G04 #@! TA.AperFunction,ComponentPad*
%ADD10C,0.508000*%
G04 #@! TD*
G04 #@! TA.AperFunction,ComponentPad*
%ADD11C,0.499999*%
G04 #@! TD*
G04 #@! TA.AperFunction,ComponentPad*
%ADD12R,1.000000X1.000000*%
G04 #@! TD*
G04 #@! TA.AperFunction,ComponentPad*
%ADD13O,1.000000X1.000000*%
G04 #@! TD*
G04 #@! TA.AperFunction,ComponentPad*
%ADD14R,1.700000X1.700000*%
G04 #@! TD*
G04 #@! TA.AperFunction,ComponentPad*
%ADD15O,1.700000X1.700000*%
G04 #@! TD*
G04 #@! TA.AperFunction,ComponentPad*
%ADD16O,1.600000X1.000000*%
G04 #@! TD*
G04 #@! TA.AperFunction,ComponentPad*
%ADD17O,2.100000X1.000000*%
G04 #@! TD*
G04 #@! TA.AperFunction,ViaPad*
%ADD18C,0.600000*%
G04 #@! TD*
G04 #@! TA.AperFunction,ViaPad*
%ADD19C,0.700000*%
G04 #@! TD*
G04 #@! TA.AperFunction,ViaPad*
%ADD20C,0.800000*%
G04 #@! TD*
G04 #@! TA.AperFunction,Conductor*
%ADD21C,0.250000*%
G04 #@! TD*
G04 #@! TA.AperFunction,Conductor*
%ADD22C,0.300000*%
G04 #@! TD*
G04 #@! TA.AperFunction,Conductor*
%ADD23C,0.500000*%
G04 #@! TD*
G04 #@! TA.AperFunction,Conductor*
%ADD24C,0.800000*%
G04 #@! TD*
G04 APERTURE END LIST*
D10*
X89571300Y-29293700D03*
X90358700Y-28506300D03*
X90358700Y-29293700D03*
X89571300Y-28506300D03*
D11*
X102875001Y-40453501D03*
X106003501Y-37325001D03*
X106003501Y-41974999D03*
X102875001Y-38846499D03*
X107524999Y-38846499D03*
X104396499Y-41974999D03*
X104396499Y-40453501D03*
X107524999Y-40453501D03*
X104396499Y-38846499D03*
X104396499Y-37325001D03*
X106003501Y-38846499D03*
X106003501Y-40453501D03*
D12*
X116550000Y-31575000D03*
D13*
X116550000Y-30305000D03*
X117820000Y-31575000D03*
X117820000Y-30305000D03*
X119090000Y-31575000D03*
X119090000Y-30305000D03*
X120360000Y-31575000D03*
X120360000Y-30305000D03*
X121630000Y-31575000D03*
X121630000Y-30305000D03*
D14*
X83907000Y-32281000D03*
D15*
X83907000Y-29741000D03*
X83907000Y-27201000D03*
D14*
X105300000Y-19075000D03*
D15*
X102760000Y-19075000D03*
X100220000Y-19075000D03*
X97680000Y-19075000D03*
D16*
X119875000Y-27170000D03*
D17*
X115695000Y-18530000D03*
X115695000Y-27170000D03*
D16*
X119875000Y-18530000D03*
D10*
X104793700Y-24450000D03*
X104006300Y-25237400D03*
X104006300Y-23662600D03*
X104793700Y-23662600D03*
X104006300Y-24450000D03*
X104793700Y-25237400D03*
D18*
X122300000Y-46200000D03*
X113858420Y-27675500D03*
X119400000Y-35200000D03*
X94900000Y-30581254D03*
X96450000Y-34750000D03*
X107950000Y-23950000D03*
X105500000Y-35400000D03*
X110186629Y-40050609D03*
X88900000Y-31650000D03*
X93200000Y-33950000D03*
X120900000Y-84532500D03*
X90600000Y-88432500D03*
X111900000Y-78332500D03*
X93100000Y-89632500D03*
X111200000Y-83432500D03*
X121000000Y-78432500D03*
X109200000Y-79732500D03*
X95800000Y-74632500D03*
X102600000Y-79632500D03*
X97000000Y-88432500D03*
X90800000Y-84532500D03*
X108500000Y-84632500D03*
X106200000Y-78332500D03*
X92400000Y-73332500D03*
X94300000Y-83432500D03*
X83900000Y-84732500D03*
X105600000Y-83432500D03*
X83700000Y-73332500D03*
X102900000Y-74532500D03*
X87500000Y-83432500D03*
X119700000Y-81532500D03*
X97200000Y-84732500D03*
X99900000Y-73332500D03*
X101800000Y-66432500D03*
X116900000Y-83432500D03*
X83700000Y-79732500D03*
X95600000Y-79732500D03*
X83900000Y-89232500D03*
X86900000Y-89732500D03*
X88500000Y-79632500D03*
X89300000Y-74632500D03*
X118700000Y-79632500D03*
X103000000Y-69332500D03*
X101800000Y-72032500D03*
X83700000Y-77032500D03*
X102800000Y-84632500D03*
X114600000Y-84632500D03*
X114500000Y-79732500D03*
X85000000Y-86832500D03*
X117400000Y-78432500D03*
X86000000Y-78432500D03*
X84700000Y-75032500D03*
X91700000Y-78432500D03*
X100500000Y-89732500D03*
X100200000Y-83432500D03*
X86900000Y-73432500D03*
X99200000Y-78332500D03*
X83500000Y-48650000D03*
D19*
X99250000Y-46450000D03*
D20*
X120450000Y-33700000D03*
D18*
X93600000Y-43250000D03*
X93900000Y-57150000D03*
X84200000Y-51300000D03*
X113711515Y-18105387D03*
X99500000Y-56950000D03*
X92500000Y-52250000D03*
D19*
X98450000Y-38450000D03*
D18*
X88300000Y-55450000D03*
D19*
X112729962Y-47808742D03*
D20*
X113950000Y-26700000D03*
D18*
X92000000Y-25950000D03*
X121550000Y-20350000D03*
X95500000Y-53400000D03*
X95300000Y-48800000D03*
X94900000Y-18850000D03*
X122200000Y-51850000D03*
X86200000Y-51400000D03*
X118000000Y-45200000D03*
X121600000Y-60950000D03*
X89150000Y-51600000D03*
X105300000Y-60450000D03*
X94750000Y-45950000D03*
X83500000Y-44850000D03*
X98200000Y-51650000D03*
D20*
X115200000Y-37450000D03*
D18*
X85000000Y-53200000D03*
X98300000Y-46950000D03*
D20*
X116025000Y-50875000D03*
D18*
X121550000Y-24350000D03*
X94300000Y-38750000D03*
X86300000Y-38250000D03*
X114500000Y-60250000D03*
D20*
X111700000Y-29950000D03*
D18*
X85400000Y-57550000D03*
X89600000Y-59850000D03*
X109200000Y-22450000D03*
X121000000Y-52950000D03*
X117700000Y-60650000D03*
X94900000Y-60050000D03*
X105000000Y-50200000D03*
D20*
X117200000Y-39200000D03*
D18*
X109200000Y-27350000D03*
X97600000Y-60150000D03*
X108500000Y-21450000D03*
D19*
X103700000Y-49200000D03*
D18*
X114900000Y-58050000D03*
D20*
X117200000Y-37450000D03*
D18*
X106900000Y-52950000D03*
X109950000Y-51600000D03*
D19*
X104700000Y-53650000D03*
D18*
X109950000Y-34700000D03*
X91350000Y-48750000D03*
X112300000Y-58450000D03*
X111000000Y-44050000D03*
X83400000Y-59850000D03*
X118300000Y-20900000D03*
X118400000Y-25400000D03*
X96080500Y-22099500D03*
X105900000Y-54600000D03*
D20*
X112450500Y-25700000D03*
D18*
X106100000Y-58450000D03*
X88600000Y-49000000D03*
D20*
X115200000Y-39200000D03*
D18*
X88600000Y-46050000D03*
X109850000Y-53750000D03*
X85500000Y-47200000D03*
X89500000Y-38850000D03*
X100800000Y-27650000D03*
X84700000Y-39950000D03*
X110600000Y-60550000D03*
X108800000Y-58050000D03*
X122000000Y-59150000D03*
X95200000Y-37550000D03*
X119650000Y-51600000D03*
D20*
X108250000Y-18075500D03*
D19*
X100450000Y-51200000D03*
D18*
X121900000Y-53850000D03*
D20*
X99950000Y-38200000D03*
D18*
X88599251Y-33450749D03*
X87124500Y-33450000D03*
X99477086Y-35550000D03*
X111158411Y-37208411D03*
X112300000Y-39650000D03*
D20*
X112200000Y-42450000D03*
D18*
X84900000Y-34950000D03*
X88509266Y-27559266D03*
X116000000Y-34250000D03*
D20*
X118450000Y-48950000D03*
X120200000Y-42950000D03*
D18*
X108450000Y-45950000D03*
X105200451Y-45424500D03*
D20*
X91950000Y-21200000D03*
D18*
X112768267Y-34574500D03*
X94100000Y-25650000D03*
D20*
X97700000Y-36200000D03*
X95100000Y-20550000D03*
X113900000Y-25250000D03*
X113955000Y-20300000D03*
X109700000Y-20450000D03*
D18*
X101700000Y-22950000D03*
X106300000Y-22150000D03*
X100880000Y-43170000D03*
X107000000Y-32397502D03*
X100658411Y-40791589D03*
X115500000Y-45950000D03*
X110100000Y-45850000D03*
X108400000Y-44050000D03*
X119700000Y-47550000D03*
X85800000Y-35850000D03*
X86500000Y-34150000D03*
X100847950Y-38252821D03*
X87000000Y-30650000D03*
X96500000Y-38750000D03*
X88400000Y-30650000D03*
X100800000Y-39150000D03*
X94200000Y-35850000D03*
X113100000Y-52750000D03*
D20*
X101200000Y-31750000D03*
D18*
X114424156Y-32825500D03*
D20*
X104500000Y-33147002D03*
D18*
X93700000Y-21450000D03*
X87900000Y-34250000D03*
D20*
X114950000Y-30700000D03*
X113437701Y-33962299D03*
D18*
X108325501Y-35700000D03*
X111450000Y-32397502D03*
X110650497Y-32397502D03*
X107583099Y-35403277D03*
X110423339Y-31423339D03*
X106784108Y-35431875D03*
X87247499Y-24750000D03*
D20*
X116600000Y-23750000D03*
D18*
X120200000Y-38700000D03*
X119875734Y-37849500D03*
D20*
X116800000Y-22650000D03*
D18*
X112912254Y-48638453D03*
X107200000Y-28050000D03*
X107900000Y-28050000D03*
X106500000Y-28050000D03*
X104400000Y-28050000D03*
X103000000Y-28050000D03*
X103700000Y-28050000D03*
X99200000Y-22250000D03*
X101700000Y-23750000D03*
X101700000Y-22150000D03*
X99100000Y-21449500D03*
X98200000Y-44250000D03*
D20*
X107450000Y-43950000D03*
D18*
X110700000Y-41650000D03*
X115700000Y-44950000D03*
X116700000Y-48150000D03*
X110200000Y-40850000D03*
X109414683Y-40700062D03*
X113500000Y-47450000D03*
X112099500Y-40550000D03*
X110958728Y-39843088D03*
X109614558Y-38857499D03*
X112099500Y-38577378D03*
X92700000Y-28150000D03*
D20*
X110000000Y-18200000D03*
X118650000Y-36000000D03*
D18*
X111483531Y-34933531D03*
X110833531Y-35583531D03*
X112600000Y-36650000D03*
D21*
X93808884Y-34575000D02*
X89723502Y-34575000D01*
X96483884Y-37250000D02*
X93808884Y-34575000D01*
X97750000Y-37250000D02*
X96483884Y-37250000D01*
X89723502Y-34575000D02*
X88599251Y-33450749D01*
X99127391Y-35899695D02*
X99100305Y-35899695D01*
X99100305Y-35899695D02*
X97750000Y-37250000D01*
X99477086Y-35550000D02*
X99127391Y-35899695D01*
D22*
X89050000Y-30380761D02*
X88509266Y-29840027D01*
X88509266Y-29840027D02*
X88509266Y-27559266D01*
X89050000Y-31500000D02*
X89050000Y-30380761D01*
X88900000Y-31650000D02*
X89050000Y-31500000D01*
D21*
X108525000Y-24525000D02*
X107950000Y-23950000D01*
X112108531Y-35192415D02*
X112108531Y-31383836D01*
X110533411Y-36767535D02*
X112108531Y-35192415D01*
X108525000Y-27800305D02*
X108525000Y-24525000D01*
X112108531Y-31383836D02*
X108525000Y-27800305D01*
X110533411Y-38822530D02*
X110533411Y-36767535D01*
X110186629Y-39169312D02*
X110533411Y-38822530D01*
X110186629Y-40050609D02*
X110186629Y-39169312D01*
X108512611Y-38412611D02*
X105500000Y-35400000D01*
X108762611Y-38412611D02*
X108512611Y-38412611D01*
D22*
X112200000Y-42450000D02*
X119700000Y-42450000D01*
X112300000Y-39650000D02*
X111900000Y-39650000D01*
D21*
X106776116Y-49950000D02*
X112483884Y-49950000D01*
X99950000Y-35985547D02*
X99477086Y-35512633D01*
D22*
X111450000Y-39200000D02*
X111450000Y-37500000D01*
D21*
X114125000Y-44375000D02*
X112200000Y-42450000D01*
X114125000Y-48308884D02*
X114125000Y-44375000D01*
D22*
X111450000Y-37500000D02*
X111158411Y-37208411D01*
D21*
X99275000Y-42448884D02*
X106776116Y-49950000D01*
X99950000Y-38200000D02*
X99950000Y-35985547D01*
X112483884Y-49950000D02*
X114125000Y-48308884D01*
D22*
X111900000Y-39650000D02*
X111450000Y-39200000D01*
D21*
X99275000Y-38875000D02*
X99275000Y-42448884D01*
X99950000Y-38200000D02*
X99275000Y-38875000D01*
D22*
X119700000Y-42450000D02*
X120200000Y-42950000D01*
D21*
X95900000Y-25650000D02*
X95950000Y-25700000D01*
X95950000Y-32333884D02*
X97700000Y-34083884D01*
X94100000Y-25650000D02*
X95900000Y-25650000D01*
X95950000Y-25700000D02*
X95950000Y-32333884D01*
X97700000Y-34083884D02*
X97700000Y-36200000D01*
X103320754Y-22950000D02*
X104070754Y-22200000D01*
X106250000Y-22200000D02*
X106300000Y-22150000D01*
X104070754Y-22200000D02*
X106250000Y-22200000D01*
X101700000Y-22950000D02*
X103320754Y-22950000D01*
X102193729Y-39256271D02*
X102193729Y-38850000D01*
D22*
X102193729Y-38850000D02*
X102193729Y-37203773D01*
X102193729Y-37203773D02*
X107000000Y-32397502D01*
D21*
X100658411Y-40791589D02*
X102193729Y-39256271D01*
D22*
X100880000Y-43170000D02*
X100880000Y-41014589D01*
D23*
X116000000Y-52750000D02*
X113100000Y-52750000D01*
X119450000Y-40700000D02*
X121050000Y-42300000D01*
X121050000Y-42300000D02*
X121050000Y-47700000D01*
X114424156Y-33734817D02*
X117239339Y-36550000D01*
X117502082Y-36550000D02*
X119450000Y-38497918D01*
X114424156Y-32825500D02*
X114424156Y-33734817D01*
X121050000Y-47700000D02*
X116000000Y-52750000D01*
X117239339Y-36550000D02*
X117502082Y-36550000D01*
X119450000Y-38497918D02*
X119450000Y-40700000D01*
D22*
X98000000Y-20650000D02*
X100500000Y-20650000D01*
X97200000Y-21450000D02*
X98000000Y-20650000D01*
D24*
X100825000Y-19075000D02*
X100220000Y-19075000D01*
X101450000Y-19700000D02*
X102075000Y-19075000D01*
D22*
X100500000Y-20650000D02*
X101450000Y-19700000D01*
D24*
X102075000Y-19075000D02*
X102760000Y-19075000D01*
X101450000Y-19700000D02*
X100825000Y-19075000D01*
D22*
X93700000Y-21450000D02*
X97200000Y-21450000D01*
D21*
X113437701Y-32212299D02*
X114950000Y-30700000D01*
X113437701Y-33962299D02*
X113437701Y-32212299D01*
X113437701Y-33962299D02*
X113450000Y-33950000D01*
X111450000Y-34083884D02*
X109833884Y-35700000D01*
X109833884Y-35700000D02*
X108325501Y-35700000D01*
X111450000Y-32397502D02*
X111450000Y-34083884D01*
X107583099Y-35327986D02*
X110513583Y-32397502D01*
X107583099Y-35403277D02*
X107583099Y-35327986D01*
X110513583Y-32397502D02*
X110650497Y-32397502D01*
X106784108Y-35062570D02*
X110423339Y-31423339D01*
X106784108Y-35431875D02*
X106784108Y-35062570D01*
X111275000Y-47729595D02*
X111275000Y-46025000D01*
X108762611Y-43512611D02*
X108762611Y-38412611D01*
X112912254Y-48638453D02*
X112183858Y-48638453D01*
X112183858Y-48638453D02*
X111275000Y-47729595D01*
X111275000Y-46025000D02*
X108762611Y-43512611D01*
G04 #@! TA.AperFunction,Conductor*
G36*
X109231264Y-17478502D02*
G01*
X109277757Y-17532158D01*
X109287861Y-17602432D01*
X109265138Y-17658416D01*
X109260960Y-17663056D01*
X109257659Y-17668774D01*
X109257658Y-17668775D01*
X109172225Y-17816750D01*
X109165473Y-17828444D01*
X109106458Y-18010072D01*
X109105768Y-18016633D01*
X109105768Y-18016635D01*
X109101956Y-18052905D01*
X109086496Y-18200000D01*
X109087186Y-18206565D01*
X109099526Y-18323970D01*
X109106458Y-18389928D01*
X109165473Y-18571556D01*
X109260960Y-18736944D01*
X109265378Y-18741851D01*
X109265379Y-18741852D01*
X109326004Y-18809183D01*
X109388747Y-18878866D01*
X109543248Y-18991118D01*
X109549276Y-18993802D01*
X109549278Y-18993803D01*
X109656846Y-19041695D01*
X109717712Y-19068794D01*
X109811113Y-19088647D01*
X109898056Y-19107128D01*
X109898061Y-19107128D01*
X109904513Y-19108500D01*
X110095487Y-19108500D01*
X110101939Y-19107128D01*
X110101944Y-19107128D01*
X110188887Y-19088647D01*
X110282288Y-19068794D01*
X110343154Y-19041695D01*
X110450722Y-18993803D01*
X110450724Y-18993802D01*
X110456752Y-18991118D01*
X110611253Y-18878866D01*
X110673996Y-18809183D01*
X110734621Y-18741852D01*
X110734622Y-18741851D01*
X110739040Y-18736944D01*
X110834527Y-18571556D01*
X110893542Y-18389928D01*
X110900475Y-18323970D01*
X110912814Y-18206565D01*
X110913504Y-18200000D01*
X110898044Y-18052905D01*
X110894232Y-18016635D01*
X110894232Y-18016633D01*
X110893542Y-18010072D01*
X110834527Y-17828444D01*
X110827776Y-17816750D01*
X110742342Y-17668775D01*
X110742341Y-17668774D01*
X110739040Y-17663056D01*
X110734874Y-17658429D01*
X110711062Y-17591693D01*
X110727143Y-17522541D01*
X110778057Y-17473061D01*
X110836857Y-17458500D01*
X114511183Y-17458500D01*
X114579304Y-17478502D01*
X114625797Y-17532158D01*
X114635901Y-17602432D01*
X114606407Y-17667012D01*
X114584459Y-17686325D01*
X114584482Y-17686353D01*
X114583725Y-17686971D01*
X114580907Y-17689450D01*
X114579708Y-17690246D01*
X114436067Y-17807397D01*
X114427363Y-17816041D01*
X114309216Y-17958856D01*
X114302356Y-17969027D01*
X114214196Y-18132076D01*
X114209444Y-18143381D01*
X114173750Y-18258692D01*
X114173544Y-18272795D01*
X114180299Y-18276000D01*
X117202924Y-18276000D01*
X117216455Y-18272027D01*
X117217575Y-18264232D01*
X117185862Y-18156479D01*
X117181269Y-18145111D01*
X117095393Y-17980846D01*
X117088679Y-17970585D01*
X116972532Y-17826127D01*
X116963954Y-17817368D01*
X116821963Y-17698224D01*
X116807713Y-17688467D01*
X116762804Y-17633478D01*
X116754753Y-17562940D01*
X116786117Y-17499246D01*
X116846937Y-17462620D01*
X116878895Y-17458500D01*
X118941183Y-17458500D01*
X119009304Y-17478502D01*
X119055797Y-17532158D01*
X119065901Y-17602432D01*
X119036407Y-17667012D01*
X119014459Y-17686325D01*
X119014482Y-17686353D01*
X119013725Y-17686971D01*
X119010907Y-17689450D01*
X119009708Y-17690246D01*
X118866067Y-17807397D01*
X118857363Y-17816041D01*
X118739216Y-17958856D01*
X118732356Y-17969027D01*
X118644196Y-18132076D01*
X118639444Y-18143381D01*
X118603750Y-18258692D01*
X118603544Y-18272795D01*
X118610299Y-18276000D01*
X121132924Y-18276000D01*
X121146455Y-18272027D01*
X121147575Y-18264232D01*
X121115862Y-18156479D01*
X121111269Y-18145111D01*
X121025393Y-17980846D01*
X121018679Y-17970585D01*
X120902532Y-17826127D01*
X120893954Y-17817368D01*
X120751963Y-17698224D01*
X120737713Y-17688467D01*
X120692804Y-17633478D01*
X120684753Y-17562940D01*
X120716117Y-17499246D01*
X120776937Y-17462620D01*
X120808895Y-17458500D01*
X122565500Y-17458500D01*
X122633621Y-17478502D01*
X122680114Y-17532158D01*
X122691500Y-17584500D01*
X122691500Y-29656955D01*
X122671498Y-29725076D01*
X122617842Y-29771569D01*
X122547568Y-29781673D01*
X122482988Y-29752179D01*
X122467857Y-29736591D01*
X122352960Y-29595713D01*
X122352957Y-29595710D01*
X122349065Y-29590938D01*
X122342724Y-29585692D01*
X122201425Y-29468799D01*
X122201421Y-29468797D01*
X122196675Y-29464870D01*
X122022701Y-29370802D01*
X121833768Y-29312318D01*
X121827643Y-29311674D01*
X121827642Y-29311674D01*
X121643204Y-29292289D01*
X121643202Y-29292289D01*
X121637075Y-29291645D01*
X121554576Y-29299153D01*
X121446251Y-29309011D01*
X121446248Y-29309012D01*
X121440112Y-29309570D01*
X121434206Y-29311308D01*
X121434202Y-29311309D01*
X121329076Y-29342249D01*
X121250381Y-29365410D01*
X121244923Y-29368263D01*
X121244919Y-29368265D01*
X121149135Y-29418340D01*
X121075110Y-29457040D01*
X121070310Y-29460900D01*
X121065153Y-29464274D01*
X121063769Y-29462158D01*
X121008365Y-29485027D01*
X120938512Y-29472334D01*
X120928898Y-29466709D01*
X120926675Y-29464870D01*
X120752701Y-29370802D01*
X120563768Y-29312318D01*
X120557643Y-29311674D01*
X120557642Y-29311674D01*
X120373204Y-29292289D01*
X120373202Y-29292289D01*
X120367075Y-29291645D01*
X120284576Y-29299153D01*
X120176251Y-29309011D01*
X120176248Y-29309012D01*
X120170112Y-29309570D01*
X120164206Y-29311308D01*
X120164202Y-29311309D01*
X120059076Y-29342249D01*
X119980381Y-29365410D01*
X119974923Y-29368263D01*
X119974919Y-29368265D01*
X119879135Y-29418340D01*
X119805110Y-29457040D01*
X119800310Y-29460900D01*
X119795153Y-29464274D01*
X119793769Y-29462158D01*
X119738365Y-29485027D01*
X119668512Y-29472334D01*
X119658898Y-29466709D01*
X119656675Y-29464870D01*
X119482701Y-29370802D01*
X119293768Y-29312318D01*
X119287643Y-29311674D01*
X119287642Y-29311674D01*
X119103204Y-29292289D01*
X119103202Y-29292289D01*
X119097075Y-29291645D01*
X119014576Y-29299153D01*
X118906251Y-29309011D01*
X118906248Y-29309012D01*
X118900112Y-29309570D01*
X118894206Y-29311308D01*
X118894202Y-29311309D01*
X118789076Y-29342249D01*
X118710381Y-29365410D01*
X118704923Y-29368263D01*
X118704919Y-29368265D01*
X118609135Y-29418340D01*
X118535110Y-29457040D01*
X118530310Y-29460900D01*
X118525153Y-29464274D01*
X118523769Y-29462158D01*
X118468365Y-29485027D01*
X118398512Y-29472334D01*
X118388898Y-29466709D01*
X118386675Y-29464870D01*
X118212701Y-29370802D01*
X118023768Y-29312318D01*
X118017643Y-29311674D01*
X118017642Y-29311674D01*
X117833204Y-29292289D01*
X117833202Y-29292289D01*
X117827075Y-29291645D01*
X117744576Y-29299153D01*
X117636251Y-29309011D01*
X117636248Y-29309012D01*
X117630112Y-29309570D01*
X117624206Y-29311308D01*
X117624202Y-29311309D01*
X117519076Y-29342249D01*
X117440381Y-29365410D01*
X117434923Y-29368263D01*
X117434919Y-29368265D01*
X117339135Y-29418340D01*
X117265110Y-29457040D01*
X117260310Y-29460900D01*
X117255153Y-29464274D01*
X117253769Y-29462158D01*
X117198365Y-29485027D01*
X117128512Y-29472334D01*
X117118898Y-29466709D01*
X117116675Y-29464870D01*
X116942701Y-29370802D01*
X116753768Y-29312318D01*
X116747643Y-29311674D01*
X116747642Y-29311674D01*
X116563204Y-29292289D01*
X116563202Y-29292289D01*
X116557075Y-29291645D01*
X116474576Y-29299153D01*
X116366251Y-29309011D01*
X116366248Y-29309012D01*
X116360112Y-29309570D01*
X116354206Y-29311308D01*
X116354202Y-29311309D01*
X116249076Y-29342249D01*
X116170381Y-29365410D01*
X116164923Y-29368263D01*
X116164919Y-29368265D01*
X116074147Y-29415720D01*
X115995110Y-29457040D01*
X115840975Y-29580968D01*
X115713846Y-29732474D01*
X115629790Y-29885373D01*
X115625747Y-29892727D01*
X115575402Y-29942785D01*
X115505985Y-29957679D01*
X115441270Y-29933961D01*
X115420446Y-29918831D01*
X115406752Y-29908882D01*
X115400724Y-29906198D01*
X115400722Y-29906197D01*
X115238319Y-29833891D01*
X115238318Y-29833891D01*
X115232288Y-29831206D01*
X115136794Y-29810908D01*
X115051944Y-29792872D01*
X115051939Y-29792872D01*
X115045487Y-29791500D01*
X114854513Y-29791500D01*
X114848061Y-29792872D01*
X114848056Y-29792872D01*
X114763206Y-29810908D01*
X114667712Y-29831206D01*
X114661682Y-29833891D01*
X114661681Y-29833891D01*
X114499278Y-29906197D01*
X114499276Y-29906198D01*
X114493248Y-29908882D01*
X114487907Y-29912762D01*
X114487906Y-29912763D01*
X114458730Y-29933961D01*
X114338747Y-30021134D01*
X114334326Y-30026044D01*
X114334325Y-30026045D01*
X114251475Y-30118060D01*
X114210960Y-30163056D01*
X114115473Y-30328444D01*
X114056458Y-30510072D01*
X114055768Y-30516633D01*
X114055768Y-30516635D01*
X114052262Y-30549990D01*
X114042709Y-30640892D01*
X114039093Y-30675293D01*
X114012080Y-30740950D01*
X114002887Y-30751209D01*
X113045437Y-31708658D01*
X113037163Y-31716187D01*
X113030683Y-31720299D01*
X113025258Y-31726076D01*
X112984058Y-31769950D01*
X112981303Y-31772792D01*
X112961566Y-31792529D01*
X112961495Y-31792458D01*
X112902490Y-31829666D01*
X112831496Y-31829057D01*
X112772102Y-31790162D01*
X112743164Y-31725330D01*
X112742031Y-31708470D01*
X112742031Y-31462603D01*
X112742558Y-31451420D01*
X112744233Y-31443927D01*
X112742093Y-31375850D01*
X112742031Y-31371891D01*
X112742031Y-31343980D01*
X112741526Y-31339980D01*
X112740593Y-31328137D01*
X112740280Y-31318158D01*
X112739204Y-31283946D01*
X112733553Y-31264494D01*
X112729545Y-31245142D01*
X112727998Y-31232899D01*
X112727005Y-31225039D01*
X112722261Y-31213056D01*
X112710731Y-31183933D01*
X112706886Y-31172706D01*
X112700721Y-31151488D01*
X112694549Y-31130243D01*
X112684238Y-31112808D01*
X112675543Y-31095060D01*
X112668083Y-31076219D01*
X112661568Y-31067251D01*
X112642095Y-31040449D01*
X112635579Y-31030529D01*
X112617111Y-30999301D01*
X112617109Y-30999298D01*
X112613073Y-30992474D01*
X112598752Y-30978153D01*
X112585911Y-30963119D01*
X112578662Y-30953142D01*
X112574003Y-30946729D01*
X112539926Y-30918538D01*
X112531147Y-30910548D01*
X109284740Y-27664140D01*
X113044883Y-27664140D01*
X113062583Y-27844660D01*
X113119838Y-28016773D01*
X113123485Y-28022795D01*
X113123486Y-28022797D01*
X113209275Y-28164452D01*
X113213800Y-28171924D01*
X113218689Y-28176987D01*
X113218690Y-28176988D01*
X113265870Y-28225844D01*
X113339802Y-28302402D01*
X113391604Y-28336300D01*
X113465399Y-28384590D01*
X113491579Y-28401722D01*
X113498183Y-28404178D01*
X113498185Y-28404179D01*
X113654978Y-28462490D01*
X113654980Y-28462490D01*
X113661588Y-28464948D01*
X113745415Y-28476133D01*
X113834400Y-28488007D01*
X113834404Y-28488007D01*
X113841381Y-28488938D01*
X113848392Y-28488300D01*
X113848396Y-28488300D01*
X113990879Y-28475332D01*
X114022020Y-28472498D01*
X114028722Y-28470320D01*
X114028724Y-28470320D01*
X114187829Y-28418624D01*
X114187832Y-28418623D01*
X114194528Y-28416447D01*
X114302072Y-28352338D01*
X114344280Y-28327177D01*
X114344282Y-28327176D01*
X114350332Y-28323569D01*
X114481686Y-28198482D01*
X114535732Y-28117136D01*
X114590088Y-28071467D01*
X114660508Y-28062434D01*
X114701380Y-28076450D01*
X114740580Y-28098001D01*
X114751858Y-28102834D01*
X114928538Y-28158880D01*
X114940532Y-28161430D01*
X115084761Y-28177607D01*
X115091785Y-28178000D01*
X115422885Y-28178000D01*
X115438124Y-28173525D01*
X115439329Y-28172135D01*
X115441000Y-28164452D01*
X115441000Y-28159885D01*
X115949000Y-28159885D01*
X115953475Y-28175124D01*
X115954865Y-28176329D01*
X115962548Y-28178000D01*
X116291657Y-28178000D01*
X116297805Y-28177699D01*
X116435603Y-28164188D01*
X116447638Y-28161805D01*
X116625076Y-28108233D01*
X116636416Y-28103559D01*
X116800077Y-28016540D01*
X116810294Y-28009751D01*
X116953933Y-27892603D01*
X116962637Y-27883959D01*
X117080784Y-27741144D01*
X117087644Y-27730973D01*
X117175804Y-27567924D01*
X117180556Y-27556619D01*
X117216250Y-27441308D01*
X117216331Y-27435768D01*
X118602425Y-27435768D01*
X118634138Y-27543521D01*
X118638731Y-27554889D01*
X118724607Y-27719154D01*
X118731321Y-27729415D01*
X118847468Y-27873873D01*
X118856046Y-27882632D01*
X118998039Y-28001778D01*
X119008159Y-28008708D01*
X119170585Y-28098002D01*
X119181858Y-28102834D01*
X119358538Y-28158880D01*
X119370532Y-28161430D01*
X119514761Y-28177607D01*
X119521785Y-28178000D01*
X119602885Y-28178000D01*
X119618124Y-28173525D01*
X119619329Y-28172135D01*
X119621000Y-28164452D01*
X119621000Y-28159885D01*
X120129000Y-28159885D01*
X120133475Y-28175124D01*
X120134865Y-28176329D01*
X120142548Y-28178000D01*
X120221657Y-28178000D01*
X120227805Y-28177699D01*
X120365603Y-28164188D01*
X120377638Y-28161805D01*
X120555076Y-28108233D01*
X120566416Y-28103559D01*
X120730077Y-28016540D01*
X120740294Y-28009751D01*
X120883933Y-27892603D01*
X120892637Y-27883959D01*
X121010784Y-27741144D01*
X121017644Y-27730973D01*
X121105804Y-27567924D01*
X121110556Y-27556619D01*
X121146250Y-27441308D01*
X121146456Y-27427205D01*
X121139701Y-27424000D01*
X120147115Y-27424000D01*
X120131876Y-27428475D01*
X120130671Y-27429865D01*
X120129000Y-27437548D01*
X120129000Y-28159885D01*
X119621000Y-28159885D01*
X119621000Y-27442115D01*
X119616525Y-27426876D01*
X119615135Y-27425671D01*
X119607452Y-27424000D01*
X118617076Y-27424000D01*
X118603545Y-27427973D01*
X118602425Y-27435768D01*
X117216331Y-27435768D01*
X117216456Y-27427205D01*
X117209701Y-27424000D01*
X115967115Y-27424000D01*
X115951876Y-27428475D01*
X115950671Y-27429865D01*
X115949000Y-27437548D01*
X115949000Y-28159885D01*
X115441000Y-28159885D01*
X115441000Y-27042000D01*
X115461002Y-26973879D01*
X115514658Y-26927386D01*
X115567000Y-26916000D01*
X117202924Y-26916000D01*
X117213839Y-26912795D01*
X118603544Y-26912795D01*
X118610299Y-26916000D01*
X119602885Y-26916000D01*
X119618124Y-26911525D01*
X119619329Y-26910135D01*
X119621000Y-26902452D01*
X119621000Y-26897885D01*
X120129000Y-26897885D01*
X120133475Y-26913124D01*
X120134865Y-26914329D01*
X120142548Y-26916000D01*
X121132924Y-26916000D01*
X121146455Y-26912027D01*
X121147575Y-26904232D01*
X121115862Y-26796479D01*
X121111269Y-26785111D01*
X121025393Y-26620846D01*
X121018679Y-26610585D01*
X120902532Y-26466127D01*
X120893954Y-26457368D01*
X120751961Y-26338222D01*
X120741841Y-26331292D01*
X120579415Y-26241998D01*
X120568142Y-26237166D01*
X120391462Y-26181120D01*
X120379468Y-26178570D01*
X120235239Y-26162393D01*
X120228215Y-26162000D01*
X120147115Y-26162000D01*
X120131876Y-26166475D01*
X120130671Y-26167865D01*
X120129000Y-26175548D01*
X120129000Y-26897885D01*
X119621000Y-26897885D01*
X119621000Y-26180115D01*
X119616525Y-26164876D01*
X119615135Y-26163671D01*
X119607452Y-26162000D01*
X119528343Y-26162000D01*
X119522195Y-26162301D01*
X119384397Y-26175812D01*
X119372362Y-26178195D01*
X119194924Y-26231767D01*
X119183584Y-26236441D01*
X119019923Y-26323460D01*
X119009706Y-26330249D01*
X118866067Y-26447397D01*
X118857363Y-26456041D01*
X118739216Y-26598856D01*
X118732356Y-26609027D01*
X118644196Y-26772076D01*
X118639444Y-26783381D01*
X118603750Y-26898692D01*
X118603544Y-26912795D01*
X117213839Y-26912795D01*
X117216455Y-26912027D01*
X117217575Y-26904232D01*
X117185862Y-26796479D01*
X117181269Y-26785111D01*
X117095393Y-26620846D01*
X117088679Y-26610585D01*
X116972532Y-26466127D01*
X116963954Y-26457368D01*
X116892785Y-26397650D01*
X116853458Y-26338541D01*
X116852332Y-26267553D01*
X116869564Y-26230305D01*
X116931442Y-26139255D01*
X116935277Y-26133612D01*
X117002530Y-25965466D01*
X117003644Y-25958738D01*
X117003645Y-25958734D01*
X117030993Y-25793539D01*
X117030993Y-25793536D01*
X117032108Y-25786802D01*
X117031225Y-25769943D01*
X117022987Y-25612766D01*
X117022630Y-25605953D01*
X117010920Y-25563438D01*
X116976352Y-25437941D01*
X116974539Y-25431359D01*
X116890078Y-25271164D01*
X116885673Y-25265951D01*
X116885670Y-25265947D01*
X116777594Y-25138057D01*
X116777590Y-25138053D01*
X116773187Y-25132843D01*
X116750260Y-25115314D01*
X116634743Y-25026994D01*
X116634739Y-25026991D01*
X116629322Y-25022850D01*
X116492224Y-24958920D01*
X116471369Y-24949195D01*
X116471366Y-24949194D01*
X116465192Y-24946315D01*
X116458544Y-24944829D01*
X116458541Y-24944828D01*
X116293494Y-24907936D01*
X116293495Y-24907936D01*
X116288457Y-24906810D01*
X116282912Y-24906500D01*
X116149756Y-24906500D01*
X116014963Y-24921143D01*
X115931609Y-24949195D01*
X115849796Y-24976728D01*
X115849794Y-24976729D01*
X115843325Y-24978906D01*
X115688095Y-25072177D01*
X115683138Y-25076865D01*
X115683135Y-25076867D01*
X115561473Y-25191918D01*
X115556515Y-25196607D01*
X115552683Y-25202245D01*
X115552680Y-25202249D01*
X115498269Y-25282312D01*
X115454723Y-25346388D01*
X115387470Y-25514534D01*
X115386356Y-25521262D01*
X115386355Y-25521266D01*
X115359007Y-25686461D01*
X115357892Y-25693198D01*
X115358249Y-25700015D01*
X115358249Y-25700019D01*
X115362805Y-25786944D01*
X115367370Y-25874047D01*
X115399660Y-25991273D01*
X115402763Y-26002540D01*
X115401569Y-26073526D01*
X115362186Y-26132599D01*
X115297119Y-26161001D01*
X115281287Y-26162000D01*
X115098343Y-26162000D01*
X115092195Y-26162301D01*
X114954397Y-26175812D01*
X114942362Y-26178195D01*
X114764924Y-26231767D01*
X114753584Y-26236441D01*
X114589923Y-26323460D01*
X114579706Y-26330249D01*
X114436067Y-26447397D01*
X114427363Y-26456041D01*
X114309216Y-26598856D01*
X114302356Y-26609027D01*
X114214196Y-26772076D01*
X114209444Y-26783381D01*
X114203911Y-26801254D01*
X114164660Y-26860414D01*
X114099655Y-26888961D01*
X114054769Y-26886665D01*
X114050852Y-26885746D01*
X114044210Y-26883381D01*
X113864100Y-26861904D01*
X113857097Y-26862640D01*
X113857096Y-26862640D01*
X113690708Y-26880128D01*
X113690706Y-26880129D01*
X113683708Y-26880864D01*
X113511999Y-26939318D01*
X113505995Y-26943012D01*
X113363515Y-27030666D01*
X113363512Y-27030668D01*
X113357508Y-27034362D01*
X113352473Y-27039293D01*
X113352470Y-27039295D01*
X113331466Y-27059864D01*
X113227913Y-27161271D01*
X113129655Y-27313738D01*
X113127246Y-27320358D01*
X113127244Y-27320361D01*
X113083223Y-27441308D01*
X113067617Y-27484185D01*
X113044883Y-27664140D01*
X109284740Y-27664140D01*
X109195405Y-27574805D01*
X109161379Y-27512493D01*
X109158500Y-27485710D01*
X109158500Y-25250000D01*
X112986496Y-25250000D01*
X112987186Y-25256565D01*
X113004923Y-25425320D01*
X113006458Y-25439928D01*
X113065473Y-25621556D01*
X113160960Y-25786944D01*
X113288747Y-25928866D01*
X113443248Y-26041118D01*
X113449276Y-26043802D01*
X113449278Y-26043803D01*
X113611681Y-26116109D01*
X113617712Y-26118794D01*
X113687425Y-26133612D01*
X113798056Y-26157128D01*
X113798061Y-26157128D01*
X113804513Y-26158500D01*
X113995487Y-26158500D01*
X114001939Y-26157128D01*
X114001944Y-26157128D01*
X114112575Y-26133612D01*
X114182288Y-26118794D01*
X114188319Y-26116109D01*
X114350722Y-26043803D01*
X114350724Y-26043802D01*
X114356752Y-26041118D01*
X114511253Y-25928866D01*
X114639040Y-25786944D01*
X114734527Y-25621556D01*
X114793542Y-25439928D01*
X114795078Y-25425320D01*
X114812814Y-25256565D01*
X114813504Y-25250000D01*
X114801821Y-25138841D01*
X114794232Y-25066635D01*
X114794232Y-25066633D01*
X114793542Y-25060072D01*
X114734527Y-24878444D01*
X114728619Y-24868210D01*
X114684693Y-24792130D01*
X114639040Y-24713056D01*
X114516683Y-24577164D01*
X114515675Y-24576045D01*
X114515674Y-24576044D01*
X114511253Y-24571134D01*
X114395921Y-24487340D01*
X114362094Y-24462763D01*
X114362093Y-24462762D01*
X114356752Y-24458882D01*
X114350724Y-24456198D01*
X114350722Y-24456197D01*
X114188319Y-24383891D01*
X114188318Y-24383891D01*
X114182288Y-24381206D01*
X114088887Y-24361353D01*
X114001944Y-24342872D01*
X114001939Y-24342872D01*
X113995487Y-24341500D01*
X113804513Y-24341500D01*
X113798061Y-24342872D01*
X113798056Y-24342872D01*
X113711112Y-24361353D01*
X113617712Y-24381206D01*
X113611682Y-24383891D01*
X113611681Y-24383891D01*
X113449278Y-24456197D01*
X113449276Y-24456198D01*
X113443248Y-24458882D01*
X113437907Y-24462762D01*
X113437906Y-24462763D01*
X113404079Y-24487340D01*
X113288747Y-24571134D01*
X113284326Y-24576044D01*
X113284325Y-24576045D01*
X113283318Y-24577164D01*
X113160960Y-24713056D01*
X113115307Y-24792130D01*
X113071382Y-24868210D01*
X113065473Y-24878444D01*
X113006458Y-25060072D01*
X113005768Y-25066633D01*
X113005768Y-25066635D01*
X112998179Y-25138841D01*
X112986496Y-25250000D01*
X109158500Y-25250000D01*
X109158500Y-24603767D01*
X109159027Y-24592584D01*
X109160702Y-24585091D01*
X109160022Y-24563438D01*
X109158562Y-24517001D01*
X109158500Y-24513043D01*
X109158500Y-24485144D01*
X109157996Y-24481153D01*
X109157063Y-24469311D01*
X109156858Y-24462763D01*
X109155674Y-24425111D01*
X109153462Y-24417497D01*
X109153461Y-24417492D01*
X109150023Y-24405659D01*
X109146012Y-24386295D01*
X109144826Y-24376902D01*
X109143474Y-24366203D01*
X109140557Y-24358836D01*
X109140556Y-24358831D01*
X109127198Y-24325092D01*
X109123354Y-24313865D01*
X109116790Y-24291273D01*
X109111018Y-24271407D01*
X109100707Y-24253972D01*
X109092012Y-24236224D01*
X109084552Y-24217383D01*
X109058564Y-24181613D01*
X109052048Y-24171693D01*
X109033580Y-24140465D01*
X109033578Y-24140462D01*
X109029542Y-24133638D01*
X109015221Y-24119317D01*
X109002380Y-24104283D01*
X108995132Y-24094307D01*
X108990472Y-24087893D01*
X108956406Y-24059711D01*
X108947628Y-24051723D01*
X108852951Y-23957047D01*
X108784420Y-23888515D01*
X108750396Y-23826205D01*
X108748301Y-23813465D01*
X108744182Y-23776746D01*
X108743397Y-23769745D01*
X108736521Y-23750000D01*
X115686496Y-23750000D01*
X115687186Y-23756565D01*
X115705588Y-23931646D01*
X115706458Y-23939928D01*
X115765473Y-24121556D01*
X115768776Y-24127278D01*
X115768777Y-24127279D01*
X115776390Y-24140465D01*
X115860960Y-24286944D01*
X115865378Y-24291851D01*
X115865379Y-24291852D01*
X115981519Y-24420839D01*
X115988747Y-24428866D01*
X116143248Y-24541118D01*
X116149276Y-24543802D01*
X116149278Y-24543803D01*
X116311681Y-24616109D01*
X116317712Y-24618794D01*
X116411113Y-24638647D01*
X116498056Y-24657128D01*
X116498061Y-24657128D01*
X116504513Y-24658500D01*
X116695487Y-24658500D01*
X116701939Y-24657128D01*
X116701944Y-24657128D01*
X116788887Y-24638647D01*
X116882288Y-24618794D01*
X116888319Y-24616109D01*
X117050722Y-24543803D01*
X117050724Y-24543802D01*
X117056752Y-24541118D01*
X117211253Y-24428866D01*
X117218481Y-24420839D01*
X117334621Y-24291852D01*
X117334622Y-24291851D01*
X117339040Y-24286944D01*
X117423610Y-24140465D01*
X117431223Y-24127279D01*
X117431224Y-24127278D01*
X117434527Y-24121556D01*
X117493542Y-23939928D01*
X117494413Y-23931646D01*
X117512814Y-23756565D01*
X117513504Y-23750000D01*
X117505325Y-23672180D01*
X117494232Y-23566635D01*
X117494232Y-23566633D01*
X117493542Y-23560072D01*
X117438998Y-23392204D01*
X117436970Y-23321237D01*
X117465194Y-23268958D01*
X117539040Y-23186944D01*
X117619838Y-23046998D01*
X117631223Y-23027279D01*
X117631224Y-23027278D01*
X117634527Y-23021556D01*
X117693542Y-22839928D01*
X117713504Y-22650000D01*
X117693542Y-22460072D01*
X117634527Y-22278444D01*
X117628935Y-22268757D01*
X117549773Y-22131646D01*
X117539040Y-22113056D01*
X117533767Y-22107199D01*
X117415675Y-21976045D01*
X117415674Y-21976044D01*
X117411253Y-21971134D01*
X117304639Y-21893674D01*
X117262094Y-21862763D01*
X117262093Y-21862762D01*
X117256752Y-21858882D01*
X117250724Y-21856198D01*
X117250722Y-21856197D01*
X117088319Y-21783891D01*
X117088318Y-21783891D01*
X117082288Y-21781206D01*
X116988888Y-21761353D01*
X116901944Y-21742872D01*
X116901939Y-21742872D01*
X116895487Y-21741500D01*
X116704513Y-21741500D01*
X116698061Y-21742872D01*
X116698056Y-21742872D01*
X116611112Y-21761353D01*
X116517712Y-21781206D01*
X116511682Y-21783891D01*
X116511681Y-21783891D01*
X116349278Y-21856197D01*
X116349276Y-21856198D01*
X116343248Y-21858882D01*
X116337907Y-21862762D01*
X116337906Y-21862763D01*
X116295361Y-21893674D01*
X116188747Y-21971134D01*
X116184326Y-21976044D01*
X116184325Y-21976045D01*
X116066234Y-22107199D01*
X116060960Y-22113056D01*
X116050227Y-22131646D01*
X115971066Y-22268757D01*
X115965473Y-22278444D01*
X115906458Y-22460072D01*
X115886496Y-22650000D01*
X115906458Y-22839928D01*
X115916825Y-22871834D01*
X115961002Y-23007796D01*
X115963030Y-23078763D01*
X115934807Y-23131041D01*
X115860960Y-23213056D01*
X115857659Y-23218774D01*
X115771550Y-23367919D01*
X115765473Y-23378444D01*
X115706458Y-23560072D01*
X115705768Y-23566633D01*
X115705768Y-23566635D01*
X115694675Y-23672180D01*
X115686496Y-23750000D01*
X108736521Y-23750000D01*
X108705053Y-23659635D01*
X108686064Y-23605106D01*
X108686062Y-23605103D01*
X108683745Y-23598448D01*
X108677365Y-23588238D01*
X108591359Y-23450598D01*
X108587626Y-23444624D01*
X108578835Y-23435771D01*
X108464778Y-23320915D01*
X108464774Y-23320912D01*
X108459815Y-23315918D01*
X108448697Y-23308862D01*
X108385818Y-23268958D01*
X108306666Y-23218727D01*
X108276973Y-23208154D01*
X108142425Y-23160243D01*
X108142420Y-23160242D01*
X108135790Y-23157881D01*
X108128802Y-23157048D01*
X108128799Y-23157047D01*
X108005698Y-23142368D01*
X107955680Y-23136404D01*
X107948677Y-23137140D01*
X107948676Y-23137140D01*
X107782288Y-23154628D01*
X107782286Y-23154629D01*
X107775288Y-23155364D01*
X107603579Y-23213818D01*
X107589457Y-23222506D01*
X107455095Y-23305166D01*
X107455092Y-23305168D01*
X107449088Y-23308862D01*
X107444053Y-23313793D01*
X107444050Y-23313795D01*
X107324525Y-23430843D01*
X107319493Y-23435771D01*
X107221235Y-23588238D01*
X107218826Y-23594858D01*
X107218824Y-23594861D01*
X107163940Y-23745653D01*
X107159197Y-23758685D01*
X107136463Y-23938640D01*
X107154163Y-24119160D01*
X107211418Y-24291273D01*
X107215065Y-24297295D01*
X107215066Y-24297297D01*
X107299787Y-24437188D01*
X107305380Y-24446424D01*
X107310269Y-24451487D01*
X107310270Y-24451488D01*
X107342772Y-24485144D01*
X107431382Y-24576902D01*
X107437278Y-24580760D01*
X107538936Y-24647283D01*
X107583159Y-24676222D01*
X107589763Y-24678678D01*
X107589765Y-24678679D01*
X107746558Y-24736990D01*
X107746560Y-24736990D01*
X107753168Y-24739448D01*
X107760153Y-24740380D01*
X107760157Y-24740381D01*
X107782164Y-24743317D01*
X107847041Y-24772153D01*
X107886029Y-24831486D01*
X107891500Y-24868210D01*
X107891500Y-27124443D01*
X107871498Y-27192564D01*
X107817842Y-27239057D01*
X107778671Y-27249753D01*
X107732288Y-27254628D01*
X107732286Y-27254628D01*
X107725288Y-27255364D01*
X107591347Y-27300961D01*
X107589646Y-27301540D01*
X107518714Y-27304558D01*
X107506775Y-27300961D01*
X107392428Y-27260244D01*
X107392422Y-27260243D01*
X107385790Y-27257881D01*
X107378802Y-27257048D01*
X107378799Y-27257047D01*
X107255698Y-27242368D01*
X107205680Y-27236404D01*
X107198677Y-27237140D01*
X107198676Y-27237140D01*
X107032288Y-27254628D01*
X107032286Y-27254629D01*
X107025288Y-27255364D01*
X106891347Y-27300961D01*
X106889646Y-27301540D01*
X106818714Y-27304558D01*
X106806775Y-27300961D01*
X106692428Y-27260244D01*
X106692422Y-27260243D01*
X106685790Y-27257881D01*
X106678802Y-27257048D01*
X106678799Y-27257047D01*
X106555698Y-27242368D01*
X106505680Y-27236404D01*
X106498677Y-27237140D01*
X106498676Y-27237140D01*
X106332288Y-27254628D01*
X106332286Y-27254629D01*
X106325288Y-27255364D01*
X106153579Y-27313818D01*
X106147575Y-27317512D01*
X106005095Y-27405166D01*
X106005092Y-27405168D01*
X105999088Y-27408862D01*
X105994053Y-27413793D01*
X105994050Y-27413795D01*
X105891934Y-27513795D01*
X105869493Y-27535771D01*
X105771235Y-27688238D01*
X105768826Y-27694858D01*
X105768824Y-27694861D01*
X105724873Y-27815616D01*
X105709197Y-27858685D01*
X105686463Y-28038640D01*
X105704163Y-28219160D01*
X105761418Y-28391273D01*
X105765065Y-28397295D01*
X105765066Y-28397297D01*
X105848276Y-28534693D01*
X105855380Y-28546424D01*
X105860269Y-28551487D01*
X105860270Y-28551488D01*
X105910116Y-28603104D01*
X105981382Y-28676902D01*
X106042658Y-28717000D01*
X106089833Y-28747870D01*
X106133159Y-28776222D01*
X106139763Y-28778678D01*
X106139765Y-28778679D01*
X106296558Y-28836990D01*
X106296560Y-28836990D01*
X106303168Y-28839448D01*
X106386995Y-28850633D01*
X106475980Y-28862507D01*
X106475984Y-28862507D01*
X106482961Y-28863438D01*
X106489972Y-28862800D01*
X106489976Y-28862800D01*
X106632459Y-28849832D01*
X106663600Y-28846998D01*
X106670300Y-28844821D01*
X106670305Y-28844820D01*
X106813934Y-28798152D01*
X106884902Y-28796125D01*
X106896789Y-28799887D01*
X106996563Y-28836992D01*
X106996566Y-28836993D01*
X107003168Y-28839448D01*
X107010149Y-28840379D01*
X107010151Y-28840380D01*
X107175980Y-28862507D01*
X107175984Y-28862507D01*
X107182961Y-28863438D01*
X107189972Y-28862800D01*
X107189976Y-28862800D01*
X107332459Y-28849832D01*
X107363600Y-28846998D01*
X107370300Y-28844821D01*
X107370305Y-28844820D01*
X107513934Y-28798152D01*
X107584902Y-28796125D01*
X107596789Y-28799887D01*
X107696563Y-28836992D01*
X107696566Y-28836993D01*
X107703168Y-28839448D01*
X107710149Y-28840379D01*
X107710151Y-28840380D01*
X107875980Y-28862507D01*
X107875984Y-28862507D01*
X107882961Y-28863438D01*
X107889972Y-28862800D01*
X107889976Y-28862800D01*
X108032459Y-28849832D01*
X108063600Y-28846998D01*
X108070302Y-28844820D01*
X108070304Y-28844820D01*
X108229409Y-28793124D01*
X108229412Y-28793123D01*
X108236108Y-28790947D01*
X108391912Y-28698069D01*
X108393537Y-28700795D01*
X108446770Y-28680487D01*
X108516255Y-28695060D01*
X108545791Y-28717000D01*
X110261310Y-30432519D01*
X110295336Y-30494831D01*
X110290271Y-30565646D01*
X110247724Y-30622482D01*
X110212821Y-30640892D01*
X110198836Y-30645653D01*
X110076918Y-30687157D01*
X110070914Y-30690851D01*
X109928434Y-30778505D01*
X109928431Y-30778507D01*
X109922427Y-30782201D01*
X109917392Y-30787132D01*
X109917389Y-30787134D01*
X109808958Y-30893318D01*
X109792832Y-30909110D01*
X109694574Y-31061577D01*
X109692165Y-31068197D01*
X109692163Y-31068200D01*
X109635078Y-31225039D01*
X109632536Y-31232024D01*
X109625476Y-31287908D01*
X109597096Y-31352981D01*
X109589566Y-31361208D01*
X107987136Y-32963637D01*
X106391855Y-34558918D01*
X106383569Y-34566458D01*
X106377090Y-34570570D01*
X106371665Y-34576347D01*
X106330465Y-34620221D01*
X106327710Y-34623063D01*
X106307973Y-34642800D01*
X106305493Y-34645997D01*
X106297790Y-34655017D01*
X106267522Y-34687249D01*
X106263703Y-34694195D01*
X106263701Y-34694198D01*
X106257760Y-34705004D01*
X106246909Y-34721523D01*
X106234494Y-34737529D01*
X106231347Y-34744800D01*
X106227310Y-34751627D01*
X106226018Y-34750863D01*
X106186247Y-34798662D01*
X106118540Y-34820024D01*
X106050033Y-34801389D01*
X106026611Y-34782832D01*
X106024555Y-34780761D01*
X106009815Y-34765918D01*
X105869161Y-34676656D01*
X105822365Y-34623271D01*
X105811860Y-34553056D01*
X105840983Y-34488307D01*
X105847583Y-34481179D01*
X107100962Y-33227800D01*
X107162640Y-33194587D01*
X107163600Y-33194500D01*
X107269033Y-33160243D01*
X107329409Y-33140626D01*
X107329412Y-33140625D01*
X107336108Y-33138449D01*
X107432513Y-33080980D01*
X107485860Y-33049179D01*
X107485862Y-33049178D01*
X107491912Y-33045571D01*
X107623266Y-32920484D01*
X107723643Y-32769404D01*
X107773886Y-32637140D01*
X107785555Y-32606422D01*
X107785556Y-32606420D01*
X107788055Y-32599840D01*
X107789799Y-32587429D01*
X107812748Y-32424141D01*
X107812748Y-32424138D01*
X107813299Y-32420219D01*
X107813455Y-32409074D01*
X107813561Y-32401464D01*
X107813561Y-32401459D01*
X107813616Y-32397502D01*
X107793397Y-32217247D01*
X107791080Y-32210593D01*
X107736064Y-32052608D01*
X107736062Y-32052605D01*
X107733745Y-32045950D01*
X107637626Y-31892126D01*
X107592928Y-31847115D01*
X107514778Y-31768417D01*
X107514774Y-31768414D01*
X107509815Y-31763420D01*
X107501171Y-31757934D01*
X107423227Y-31708470D01*
X107356666Y-31666229D01*
X107311090Y-31650000D01*
X107192425Y-31607745D01*
X107192420Y-31607744D01*
X107185790Y-31605383D01*
X107178802Y-31604550D01*
X107178799Y-31604549D01*
X107053716Y-31589634D01*
X107005680Y-31583906D01*
X106998677Y-31584642D01*
X106998676Y-31584642D01*
X106832288Y-31602130D01*
X106832286Y-31602131D01*
X106825288Y-31602866D01*
X106653579Y-31661320D01*
X106591109Y-31699752D01*
X106505095Y-31752668D01*
X106505092Y-31752670D01*
X106499088Y-31756364D01*
X106494053Y-31761295D01*
X106494050Y-31761297D01*
X106394361Y-31858920D01*
X106369493Y-31883273D01*
X106271235Y-32035740D01*
X106268826Y-32042360D01*
X106268824Y-32042363D01*
X106214100Y-32192715D01*
X106209197Y-32206187D01*
X106207250Y-32221602D01*
X106178869Y-32286676D01*
X106171339Y-32294903D01*
X105567288Y-32898954D01*
X105504976Y-32932980D01*
X105434161Y-32927915D01*
X105377325Y-32885368D01*
X105358360Y-32848796D01*
X105345628Y-32809611D01*
X105334527Y-32775446D01*
X105328253Y-32764578D01*
X105280620Y-32682076D01*
X105239040Y-32610058D01*
X105225187Y-32594672D01*
X105115675Y-32473047D01*
X105115674Y-32473046D01*
X105111253Y-32468136D01*
X104994960Y-32383644D01*
X104962094Y-32359765D01*
X104962093Y-32359764D01*
X104956752Y-32355884D01*
X104950724Y-32353200D01*
X104950722Y-32353199D01*
X104788319Y-32280893D01*
X104788318Y-32280893D01*
X104782288Y-32278208D01*
X104673654Y-32255117D01*
X104601944Y-32239874D01*
X104601939Y-32239874D01*
X104595487Y-32238502D01*
X104404513Y-32238502D01*
X104398061Y-32239874D01*
X104398056Y-32239874D01*
X104326346Y-32255117D01*
X104217712Y-32278208D01*
X104211682Y-32280893D01*
X104211681Y-32280893D01*
X104049278Y-32353199D01*
X104049276Y-32353200D01*
X104043248Y-32355884D01*
X104037907Y-32359764D01*
X104037906Y-32359765D01*
X104005040Y-32383644D01*
X103888747Y-32468136D01*
X103884326Y-32473046D01*
X103884325Y-32473047D01*
X103774814Y-32594672D01*
X103760960Y-32610058D01*
X103719380Y-32682076D01*
X103671748Y-32764578D01*
X103665473Y-32775446D01*
X103606458Y-32957074D01*
X103605768Y-32963635D01*
X103605768Y-32963637D01*
X103592149Y-33093218D01*
X103586496Y-33147002D01*
X103587186Y-33153567D01*
X103604250Y-33315918D01*
X103606458Y-33336930D01*
X103665473Y-33518558D01*
X103760960Y-33683946D01*
X103765378Y-33688853D01*
X103765379Y-33688854D01*
X103849529Y-33782312D01*
X103888747Y-33825868D01*
X103980415Y-33892469D01*
X104025310Y-33925087D01*
X104043248Y-33938120D01*
X104049276Y-33940804D01*
X104049278Y-33940805D01*
X104211267Y-34012927D01*
X104265363Y-34058907D01*
X104286012Y-34126835D01*
X104266660Y-34195143D01*
X104249113Y-34217129D01*
X101786124Y-36680118D01*
X101777344Y-36688108D01*
X101777342Y-36688110D01*
X101770649Y-36692357D01*
X101765223Y-36698135D01*
X101765222Y-36698136D01*
X101722125Y-36744030D01*
X101719370Y-36746872D01*
X101698802Y-36767440D01*
X101696085Y-36770943D01*
X101688377Y-36779968D01*
X101656757Y-36813640D01*
X101652936Y-36820591D01*
X101652935Y-36820592D01*
X101646426Y-36832431D01*
X101635572Y-36848955D01*
X101628522Y-36858045D01*
X101622425Y-36865905D01*
X101619278Y-36873177D01*
X101619277Y-36873179D01*
X101604075Y-36908308D01*
X101598853Y-36918968D01*
X101576605Y-36959436D01*
X101571270Y-36980214D01*
X101564871Y-36998904D01*
X101556349Y-37018597D01*
X101550849Y-37053323D01*
X101549123Y-37064221D01*
X101546716Y-37075844D01*
X101535229Y-37120585D01*
X101535229Y-37142032D01*
X101533678Y-37161742D01*
X101530323Y-37182925D01*
X101533395Y-37215418D01*
X101534670Y-37228911D01*
X101535229Y-37240769D01*
X101535229Y-37502168D01*
X101515227Y-37570289D01*
X101461571Y-37616782D01*
X101391297Y-37626886D01*
X101341717Y-37608555D01*
X101204616Y-37521548D01*
X101157037Y-37504606D01*
X101040375Y-37463064D01*
X101040370Y-37463063D01*
X101033740Y-37460702D01*
X101026752Y-37459869D01*
X101026749Y-37459868D01*
X100900551Y-37444820D01*
X100853630Y-37439225D01*
X100846627Y-37439961D01*
X100846625Y-37439961D01*
X100722670Y-37452989D01*
X100652832Y-37440217D01*
X100600985Y-37391715D01*
X100583500Y-37327679D01*
X100583500Y-36064310D01*
X100584027Y-36053126D01*
X100585701Y-36045638D01*
X100583562Y-35977579D01*
X100583500Y-35973622D01*
X100583500Y-35945691D01*
X100582994Y-35941685D01*
X100582061Y-35929839D01*
X100580922Y-35893584D01*
X100580673Y-35885657D01*
X100575022Y-35866205D01*
X100571014Y-35846853D01*
X100569468Y-35834615D01*
X100569467Y-35834613D01*
X100568474Y-35826750D01*
X100552194Y-35785633D01*
X100548359Y-35774432D01*
X100536018Y-35731953D01*
X100531985Y-35725134D01*
X100531983Y-35725129D01*
X100525707Y-35714518D01*
X100517010Y-35696768D01*
X100509552Y-35677930D01*
X100483571Y-35642170D01*
X100477053Y-35632248D01*
X100458578Y-35601007D01*
X100458574Y-35601002D01*
X100454542Y-35594184D01*
X100440218Y-35579860D01*
X100427376Y-35564825D01*
X100415472Y-35548440D01*
X100381406Y-35520258D01*
X100372627Y-35512269D01*
X100306786Y-35446428D01*
X100272760Y-35384116D01*
X100272282Y-35381206D01*
X100271268Y-35376745D01*
X100270483Y-35369745D01*
X100220648Y-35226639D01*
X100213150Y-35205106D01*
X100213148Y-35205103D01*
X100210831Y-35198448D01*
X100204416Y-35188181D01*
X100118445Y-35050598D01*
X100114712Y-35044624D01*
X100099788Y-35029595D01*
X99991864Y-34920915D01*
X99991860Y-34920912D01*
X99986901Y-34915918D01*
X99975783Y-34908862D01*
X99924350Y-34876222D01*
X99833752Y-34818727D01*
X99777403Y-34798662D01*
X99669511Y-34760243D01*
X99669506Y-34760242D01*
X99662876Y-34757881D01*
X99655888Y-34757048D01*
X99655885Y-34757047D01*
X99528026Y-34741801D01*
X99482766Y-34736404D01*
X99475763Y-34737140D01*
X99475762Y-34737140D01*
X99309374Y-34754628D01*
X99309372Y-34754629D01*
X99302374Y-34755364D01*
X99130665Y-34813818D01*
X99102585Y-34831093D01*
X98982181Y-34905166D01*
X98982178Y-34905168D01*
X98976174Y-34908862D01*
X98971139Y-34913793D01*
X98971136Y-34913795D01*
X98852488Y-35029984D01*
X98846579Y-35035771D01*
X98748321Y-35188238D01*
X98745912Y-35194858D01*
X98745910Y-35194861D01*
X98691401Y-35344624D01*
X98686283Y-35358685D01*
X98685400Y-35365671D01*
X98685400Y-35365673D01*
X98683769Y-35378585D01*
X98655849Y-35443105D01*
X98635008Y-35468298D01*
X98627017Y-35477079D01*
X98548595Y-35555501D01*
X98486283Y-35589527D01*
X98415468Y-35584462D01*
X98358632Y-35541915D01*
X98333821Y-35475395D01*
X98333500Y-35466406D01*
X98333500Y-34162652D01*
X98334027Y-34151469D01*
X98335702Y-34143976D01*
X98335315Y-34131646D01*
X98333562Y-34075886D01*
X98333500Y-34071928D01*
X98333500Y-34044028D01*
X98332996Y-34040037D01*
X98332063Y-34028195D01*
X98331674Y-34015796D01*
X98330674Y-33983995D01*
X98328462Y-33976381D01*
X98328461Y-33976376D01*
X98325023Y-33964543D01*
X98321012Y-33945179D01*
X98320460Y-33940805D01*
X98318474Y-33925087D01*
X98315557Y-33917720D01*
X98315556Y-33917715D01*
X98302198Y-33883976D01*
X98298354Y-33872749D01*
X98288230Y-33837906D01*
X98286018Y-33830291D01*
X98281697Y-33822984D01*
X98275707Y-33812856D01*
X98267012Y-33795108D01*
X98259552Y-33776267D01*
X98233564Y-33740497D01*
X98227048Y-33730577D01*
X98208580Y-33699349D01*
X98208578Y-33699346D01*
X98204542Y-33692522D01*
X98190221Y-33678201D01*
X98177380Y-33663167D01*
X98170131Y-33653190D01*
X98165472Y-33646777D01*
X98131395Y-33618586D01*
X98122616Y-33610596D01*
X96620405Y-32108384D01*
X96586379Y-32046072D01*
X96583500Y-32019289D01*
X96583500Y-31750000D01*
X100286496Y-31750000D01*
X100287186Y-31756565D01*
X100295416Y-31834865D01*
X100306458Y-31939928D01*
X100365473Y-32121556D01*
X100368776Y-32127278D01*
X100368777Y-32127279D01*
X100382418Y-32150906D01*
X100460960Y-32286944D01*
X100465378Y-32291851D01*
X100465379Y-32291852D01*
X100580258Y-32419438D01*
X100588747Y-32428866D01*
X100743248Y-32541118D01*
X100749276Y-32543802D01*
X100749278Y-32543803D01*
X100905702Y-32613447D01*
X100917712Y-32618794D01*
X100989862Y-32634130D01*
X101098056Y-32657128D01*
X101098061Y-32657128D01*
X101104513Y-32658500D01*
X101295487Y-32658500D01*
X101301939Y-32657128D01*
X101301944Y-32657128D01*
X101410138Y-32634130D01*
X101482288Y-32618794D01*
X101494298Y-32613447D01*
X101650722Y-32543803D01*
X101650724Y-32543802D01*
X101656752Y-32541118D01*
X101811253Y-32428866D01*
X101819742Y-32419438D01*
X101934621Y-32291852D01*
X101934622Y-32291851D01*
X101939040Y-32286944D01*
X102017582Y-32150906D01*
X102031223Y-32127279D01*
X102031224Y-32127278D01*
X102034527Y-32121556D01*
X102093542Y-31939928D01*
X102104585Y-31834865D01*
X102112814Y-31756565D01*
X102113504Y-31750000D01*
X102104965Y-31668757D01*
X102094232Y-31566635D01*
X102094232Y-31566633D01*
X102093542Y-31560072D01*
X102034527Y-31378444D01*
X102031019Y-31372367D01*
X101977967Y-31280479D01*
X101939040Y-31213056D01*
X101870682Y-31137136D01*
X101815675Y-31076045D01*
X101815674Y-31076044D01*
X101811253Y-31071134D01*
X101712157Y-30999136D01*
X101662094Y-30962763D01*
X101662093Y-30962762D01*
X101656752Y-30958882D01*
X101650724Y-30956198D01*
X101650722Y-30956197D01*
X101488319Y-30883891D01*
X101488318Y-30883891D01*
X101482288Y-30881206D01*
X101371382Y-30857632D01*
X101301944Y-30842872D01*
X101301939Y-30842872D01*
X101295487Y-30841500D01*
X101104513Y-30841500D01*
X101098061Y-30842872D01*
X101098056Y-30842872D01*
X101028618Y-30857632D01*
X100917712Y-30881206D01*
X100911682Y-30883891D01*
X100911681Y-30883891D01*
X100749278Y-30956197D01*
X100749276Y-30956198D01*
X100743248Y-30958882D01*
X100737907Y-30962762D01*
X100737906Y-30962763D01*
X100687843Y-30999136D01*
X100588747Y-31071134D01*
X100584326Y-31076044D01*
X100584325Y-31076045D01*
X100529319Y-31137136D01*
X100460960Y-31213056D01*
X100422033Y-31280479D01*
X100368982Y-31372367D01*
X100365473Y-31378444D01*
X100306458Y-31560072D01*
X100305768Y-31566633D01*
X100305768Y-31566635D01*
X100295035Y-31668757D01*
X100286496Y-31750000D01*
X96583500Y-31750000D01*
X96583500Y-28038640D01*
X102186463Y-28038640D01*
X102204163Y-28219160D01*
X102261418Y-28391273D01*
X102265065Y-28397295D01*
X102265066Y-28397297D01*
X102348276Y-28534693D01*
X102355380Y-28546424D01*
X102360269Y-28551487D01*
X102360270Y-28551488D01*
X102410116Y-28603104D01*
X102481382Y-28676902D01*
X102542658Y-28717000D01*
X102589833Y-28747870D01*
X102633159Y-28776222D01*
X102639763Y-28778678D01*
X102639765Y-28778679D01*
X102796558Y-28836990D01*
X102796560Y-28836990D01*
X102803168Y-28839448D01*
X102886995Y-28850633D01*
X102975980Y-28862507D01*
X102975984Y-28862507D01*
X102982961Y-28863438D01*
X102989972Y-28862800D01*
X102989976Y-28862800D01*
X103132459Y-28849832D01*
X103163600Y-28846998D01*
X103170300Y-28844821D01*
X103170305Y-28844820D01*
X103313934Y-28798152D01*
X103384902Y-28796125D01*
X103396789Y-28799887D01*
X103496563Y-28836992D01*
X103496566Y-28836993D01*
X103503168Y-28839448D01*
X103510149Y-28840379D01*
X103510151Y-28840380D01*
X103675980Y-28862507D01*
X103675984Y-28862507D01*
X103682961Y-28863438D01*
X103689972Y-28862800D01*
X103689976Y-28862800D01*
X103832459Y-28849832D01*
X103863600Y-28846998D01*
X103870300Y-28844821D01*
X103870305Y-28844820D01*
X104013934Y-28798152D01*
X104084902Y-28796125D01*
X104096789Y-28799887D01*
X104196563Y-28836992D01*
X104196566Y-28836993D01*
X104203168Y-28839448D01*
X104210149Y-28840379D01*
X104210151Y-28840380D01*
X104375980Y-28862507D01*
X104375984Y-28862507D01*
X104382961Y-28863438D01*
X104389972Y-28862800D01*
X104389976Y-28862800D01*
X104532459Y-28849832D01*
X104563600Y-28846998D01*
X104570302Y-28844820D01*
X104570304Y-28844820D01*
X104729409Y-28793124D01*
X104729412Y-28793123D01*
X104736108Y-28790947D01*
X104853792Y-28720793D01*
X104885860Y-28701677D01*
X104885862Y-28701676D01*
X104891912Y-28698069D01*
X105023266Y-28572982D01*
X105123643Y-28421902D01*
X105170012Y-28299835D01*
X105185555Y-28258920D01*
X105185556Y-28258918D01*
X105188055Y-28252338D01*
X105189996Y-28238529D01*
X105212748Y-28076639D01*
X105212748Y-28076636D01*
X105213299Y-28072717D01*
X105213616Y-28050000D01*
X105193397Y-27869745D01*
X105191080Y-27863091D01*
X105136064Y-27705106D01*
X105136062Y-27705103D01*
X105133745Y-27698448D01*
X105077627Y-27608639D01*
X105041359Y-27550598D01*
X105037626Y-27544624D01*
X105009120Y-27515918D01*
X104914778Y-27420915D01*
X104914774Y-27420912D01*
X104909815Y-27415918D01*
X104902928Y-27411547D01*
X104813237Y-27354628D01*
X104756666Y-27318727D01*
X104706773Y-27300961D01*
X104592425Y-27260243D01*
X104592420Y-27260242D01*
X104585790Y-27257881D01*
X104578802Y-27257048D01*
X104578799Y-27257047D01*
X104455698Y-27242368D01*
X104405680Y-27236404D01*
X104398677Y-27237140D01*
X104398676Y-27237140D01*
X104232288Y-27254628D01*
X104232286Y-27254629D01*
X104225288Y-27255364D01*
X104091347Y-27300961D01*
X104089646Y-27301540D01*
X104018714Y-27304558D01*
X104006775Y-27300961D01*
X103892428Y-27260244D01*
X103892422Y-27260243D01*
X103885790Y-27257881D01*
X103878802Y-27257048D01*
X103878799Y-27257047D01*
X103755698Y-27242368D01*
X103705680Y-27236404D01*
X103698677Y-27237140D01*
X103698676Y-27237140D01*
X103532288Y-27254628D01*
X103532286Y-27254629D01*
X103525288Y-27255364D01*
X103391347Y-27300961D01*
X103389646Y-27301540D01*
X103318714Y-27304558D01*
X103306775Y-27300961D01*
X103192428Y-27260244D01*
X103192422Y-27260243D01*
X103185790Y-27257881D01*
X103178802Y-27257048D01*
X103178799Y-27257047D01*
X103055698Y-27242368D01*
X103005680Y-27236404D01*
X102998677Y-27237140D01*
X102998676Y-27237140D01*
X102832288Y-27254628D01*
X102832286Y-27254629D01*
X102825288Y-27255364D01*
X102653579Y-27313818D01*
X102647575Y-27317512D01*
X102505095Y-27405166D01*
X102505092Y-27405168D01*
X102499088Y-27408862D01*
X102494053Y-27413793D01*
X102494050Y-27413795D01*
X102391934Y-27513795D01*
X102369493Y-27535771D01*
X102271235Y-27688238D01*
X102268826Y-27694858D01*
X102268824Y-27694861D01*
X102224873Y-27815616D01*
X102209197Y-27858685D01*
X102186463Y-28038640D01*
X96583500Y-28038640D01*
X96583500Y-25926979D01*
X103681551Y-25926979D01*
X103684334Y-25930697D01*
X103814179Y-25978986D01*
X103827777Y-25982376D01*
X103983260Y-26003123D01*
X103997256Y-26003416D01*
X104153470Y-25989199D01*
X104167195Y-25986382D01*
X104316379Y-25937909D01*
X104329129Y-25932125D01*
X104336718Y-25927601D01*
X104347602Y-25924799D01*
X104343597Y-25922225D01*
X104450619Y-25922225D01*
X104461568Y-25925214D01*
X104471376Y-25930564D01*
X104601579Y-25978986D01*
X104615177Y-25982376D01*
X104770660Y-26003123D01*
X104784656Y-26003416D01*
X104940870Y-25989199D01*
X104954595Y-25986382D01*
X105103779Y-25937909D01*
X105110652Y-25934791D01*
X105118504Y-25926322D01*
X105115000Y-25917910D01*
X104806512Y-25609422D01*
X104792568Y-25601808D01*
X104790735Y-25601939D01*
X104784120Y-25606190D01*
X104489095Y-25901215D01*
X104450619Y-25922225D01*
X104343597Y-25922225D01*
X104310905Y-25901215D01*
X104019112Y-25609422D01*
X104005168Y-25601808D01*
X104003335Y-25601939D01*
X103996720Y-25606190D01*
X103688311Y-25914599D01*
X103681551Y-25926979D01*
X96583500Y-25926979D01*
X96583500Y-25778768D01*
X96584027Y-25767585D01*
X96585702Y-25760092D01*
X96583562Y-25692001D01*
X96583500Y-25688044D01*
X96583500Y-25660144D01*
X96582996Y-25656153D01*
X96582063Y-25644311D01*
X96581151Y-25615271D01*
X96580674Y-25600111D01*
X96575021Y-25580652D01*
X96571012Y-25561293D01*
X96570713Y-25558930D01*
X96568474Y-25541203D01*
X96565558Y-25533837D01*
X96565556Y-25533831D01*
X96552200Y-25500098D01*
X96548355Y-25488868D01*
X96538230Y-25454017D01*
X96538230Y-25454016D01*
X96536019Y-25446407D01*
X96525705Y-25428966D01*
X96517008Y-25411213D01*
X96512472Y-25399758D01*
X96509552Y-25392383D01*
X96483563Y-25356612D01*
X96477047Y-25346692D01*
X96458578Y-25315463D01*
X96454542Y-25308638D01*
X96440218Y-25294314D01*
X96427383Y-25279287D01*
X96415472Y-25262893D01*
X96409363Y-25257839D01*
X96409361Y-25257837D01*
X96398382Y-25248754D01*
X96392296Y-25242667D01*
X96392000Y-25242982D01*
X96382122Y-25233706D01*
X103240241Y-25233706D01*
X103255548Y-25389822D01*
X103258459Y-25403516D01*
X103307972Y-25552358D01*
X103309553Y-25555781D01*
X103316970Y-25562562D01*
X103325591Y-25558899D01*
X103634278Y-25250212D01*
X103640656Y-25238532D01*
X104370708Y-25238532D01*
X104370839Y-25240365D01*
X104375090Y-25246980D01*
X104387188Y-25259078D01*
X104401132Y-25266692D01*
X104402965Y-25266561D01*
X104409580Y-25262310D01*
X104421678Y-25250212D01*
X104428056Y-25238532D01*
X105158108Y-25238532D01*
X105158239Y-25240365D01*
X105162490Y-25246980D01*
X105470537Y-25555027D01*
X105482917Y-25561787D01*
X105486733Y-25558930D01*
X105533931Y-25434683D01*
X105537411Y-25421129D01*
X105559672Y-25262734D01*
X105560278Y-25254850D01*
X105560467Y-25241362D01*
X105560080Y-25233461D01*
X105542251Y-25074511D01*
X105539149Y-25060858D01*
X105487556Y-24912704D01*
X105480244Y-24897429D01*
X105457515Y-24932795D01*
X105165722Y-25224588D01*
X105158108Y-25238532D01*
X104428056Y-25238532D01*
X104429292Y-25236268D01*
X104429161Y-25234435D01*
X104424910Y-25227820D01*
X104412812Y-25215722D01*
X104398868Y-25208108D01*
X104397035Y-25208239D01*
X104390420Y-25212490D01*
X104378322Y-25224588D01*
X104370708Y-25238532D01*
X103640656Y-25238532D01*
X103641892Y-25236268D01*
X103641761Y-25234435D01*
X103637510Y-25227820D01*
X103342485Y-24932795D01*
X103321132Y-24893691D01*
X103318128Y-24904927D01*
X103312728Y-24914910D01*
X103263388Y-25050469D01*
X103260096Y-25064078D01*
X103240437Y-25219699D01*
X103240241Y-25233706D01*
X96382122Y-25233706D01*
X96342347Y-25196355D01*
X96339505Y-25193600D01*
X96319770Y-25173865D01*
X96316573Y-25171385D01*
X96307551Y-25163680D01*
X96281100Y-25138841D01*
X96275321Y-25133414D01*
X96268375Y-25129595D01*
X96268372Y-25129593D01*
X96257566Y-25123652D01*
X96241047Y-25112801D01*
X96240583Y-25112441D01*
X96225041Y-25100386D01*
X96217772Y-25097241D01*
X96217768Y-25097238D01*
X96184463Y-25082826D01*
X96173813Y-25077609D01*
X96135060Y-25056305D01*
X96125281Y-25053794D01*
X96115438Y-25051267D01*
X96096734Y-25044863D01*
X96085420Y-25039967D01*
X96085419Y-25039967D01*
X96078145Y-25036819D01*
X96070322Y-25035580D01*
X96070312Y-25035577D01*
X96034476Y-25029901D01*
X96022856Y-25027495D01*
X95987711Y-25018472D01*
X95987710Y-25018472D01*
X95980030Y-25016500D01*
X95959776Y-25016500D01*
X95940065Y-25014949D01*
X95927886Y-25013020D01*
X95920057Y-25011780D01*
X95912165Y-25012526D01*
X95876039Y-25015941D01*
X95864181Y-25016500D01*
X94647338Y-25016500D01*
X94579824Y-24996885D01*
X94520000Y-24958920D01*
X94456666Y-24918727D01*
X94422522Y-24906569D01*
X94292425Y-24860243D01*
X94292420Y-24860242D01*
X94285790Y-24857881D01*
X94278802Y-24857048D01*
X94278799Y-24857047D01*
X94176362Y-24844832D01*
X103977008Y-24844832D01*
X103977139Y-24846665D01*
X103981390Y-24853280D01*
X103993488Y-24865378D01*
X104007432Y-24872992D01*
X104009265Y-24872861D01*
X104015880Y-24868610D01*
X104027978Y-24856512D01*
X104034356Y-24844832D01*
X104764408Y-24844832D01*
X104764539Y-24846665D01*
X104768790Y-24853280D01*
X104780888Y-24865378D01*
X104794832Y-24872992D01*
X104796665Y-24872861D01*
X104803280Y-24868610D01*
X104815378Y-24856512D01*
X104822992Y-24842568D01*
X104822861Y-24840735D01*
X104818610Y-24834120D01*
X104806512Y-24822022D01*
X104792568Y-24814408D01*
X104790735Y-24814539D01*
X104784120Y-24818790D01*
X104772022Y-24830888D01*
X104764408Y-24844832D01*
X104034356Y-24844832D01*
X104035592Y-24842568D01*
X104035461Y-24840735D01*
X104031210Y-24834120D01*
X104019112Y-24822022D01*
X104005168Y-24814408D01*
X104003335Y-24814539D01*
X103996720Y-24818790D01*
X103984622Y-24830888D01*
X103977008Y-24844832D01*
X94176362Y-24844832D01*
X94155698Y-24842368D01*
X94105680Y-24836404D01*
X94098677Y-24837140D01*
X94098676Y-24837140D01*
X93932288Y-24854628D01*
X93932286Y-24854629D01*
X93925288Y-24855364D01*
X93753579Y-24913818D01*
X93703173Y-24944828D01*
X93605095Y-25005166D01*
X93605092Y-25005168D01*
X93599088Y-25008862D01*
X93594053Y-25013793D01*
X93594050Y-25013795D01*
X93474525Y-25130843D01*
X93469493Y-25135771D01*
X93371235Y-25288238D01*
X93368826Y-25294858D01*
X93368824Y-25294861D01*
X93330645Y-25399758D01*
X93309197Y-25458685D01*
X93286463Y-25638640D01*
X93304163Y-25819160D01*
X93361418Y-25991273D01*
X93365065Y-25997295D01*
X93365066Y-25997297D01*
X93447621Y-26133612D01*
X93455380Y-26146424D01*
X93460269Y-26151487D01*
X93460270Y-26151488D01*
X93486423Y-26178570D01*
X93581382Y-26276902D01*
X93591465Y-26283500D01*
X93676891Y-26339401D01*
X93733159Y-26376222D01*
X93739763Y-26378678D01*
X93739765Y-26378679D01*
X93896558Y-26436990D01*
X93896560Y-26436990D01*
X93903168Y-26439448D01*
X93986995Y-26450633D01*
X94075980Y-26462507D01*
X94075984Y-26462507D01*
X94082961Y-26463438D01*
X94089972Y-26462800D01*
X94089976Y-26462800D01*
X94232459Y-26449832D01*
X94263600Y-26446998D01*
X94270302Y-26444820D01*
X94270304Y-26444820D01*
X94429409Y-26393124D01*
X94429412Y-26393123D01*
X94436108Y-26390947D01*
X94586540Y-26301271D01*
X94651058Y-26283500D01*
X95190500Y-26283500D01*
X95258621Y-26303502D01*
X95305114Y-26357158D01*
X95316500Y-26409500D01*
X95316500Y-32255117D01*
X95315973Y-32266300D01*
X95314298Y-32273793D01*
X95314547Y-32281719D01*
X95314547Y-32281720D01*
X95316438Y-32341870D01*
X95316500Y-32345829D01*
X95316500Y-32373740D01*
X95316997Y-32377674D01*
X95316997Y-32377675D01*
X95317005Y-32377740D01*
X95317938Y-32389577D01*
X95319327Y-32433773D01*
X95323355Y-32447637D01*
X95324978Y-32453223D01*
X95328987Y-32472584D01*
X95329046Y-32473047D01*
X95331526Y-32492681D01*
X95334445Y-32500052D01*
X95334445Y-32500054D01*
X95347804Y-32533796D01*
X95351649Y-32545026D01*
X95359909Y-32573457D01*
X95363982Y-32587477D01*
X95368015Y-32594296D01*
X95368017Y-32594301D01*
X95374293Y-32604912D01*
X95382988Y-32622660D01*
X95390448Y-32641501D01*
X95395110Y-32647917D01*
X95395110Y-32647918D01*
X95416436Y-32677271D01*
X95422952Y-32687191D01*
X95445458Y-32725246D01*
X95459779Y-32739567D01*
X95472619Y-32754600D01*
X95484528Y-32770991D01*
X95518605Y-32799182D01*
X95527384Y-32807172D01*
X97029595Y-34309384D01*
X97063621Y-34371696D01*
X97066500Y-34398479D01*
X97066500Y-35497476D01*
X97046498Y-35565597D01*
X97034142Y-35581779D01*
X96960960Y-35663056D01*
X96945507Y-35689822D01*
X96893374Y-35780119D01*
X96865473Y-35828444D01*
X96806458Y-36010072D01*
X96805768Y-36016633D01*
X96805768Y-36016635D01*
X96801685Y-36055485D01*
X96786496Y-36200000D01*
X96802059Y-36348069D01*
X96802943Y-36356484D01*
X96790171Y-36426322D01*
X96741669Y-36478169D01*
X96672836Y-36495563D01*
X96605526Y-36472982D01*
X96588538Y-36458749D01*
X94312536Y-34182747D01*
X94304996Y-34174461D01*
X94300884Y-34167982D01*
X94290128Y-34157881D01*
X94251233Y-34121357D01*
X94248391Y-34118602D01*
X94228654Y-34098865D01*
X94225457Y-34096385D01*
X94216435Y-34088680D01*
X94184205Y-34058414D01*
X94177259Y-34054595D01*
X94177256Y-34054593D01*
X94166450Y-34048652D01*
X94149931Y-34037801D01*
X94145199Y-34034131D01*
X94133925Y-34025386D01*
X94126656Y-34022241D01*
X94126652Y-34022238D01*
X94093347Y-34007826D01*
X94082687Y-34002604D01*
X94076960Y-33999455D01*
X94072594Y-33997055D01*
X94022538Y-33946707D01*
X94008085Y-33900688D01*
X93994182Y-33776744D01*
X93993397Y-33769745D01*
X93991080Y-33763091D01*
X93936064Y-33605106D01*
X93936062Y-33605103D01*
X93933745Y-33598448D01*
X93883169Y-33517509D01*
X93841359Y-33450598D01*
X93837626Y-33444624D01*
X93832664Y-33439627D01*
X93714778Y-33320915D01*
X93714774Y-33320912D01*
X93709815Y-33315918D01*
X93698697Y-33308862D01*
X93609198Y-33252065D01*
X93556666Y-33218727D01*
X93496877Y-33197437D01*
X93392425Y-33160243D01*
X93392420Y-33160242D01*
X93385790Y-33157881D01*
X93378802Y-33157048D01*
X93378799Y-33157047D01*
X93239501Y-33140437D01*
X93205680Y-33136404D01*
X93198677Y-33137140D01*
X93198676Y-33137140D01*
X93032288Y-33154628D01*
X93032286Y-33154629D01*
X93025288Y-33155364D01*
X92853579Y-33213818D01*
X92796855Y-33248715D01*
X92705095Y-33305166D01*
X92705092Y-33305168D01*
X92699088Y-33308862D01*
X92694053Y-33313793D01*
X92694050Y-33313795D01*
X92588138Y-33417512D01*
X92569493Y-33435771D01*
X92471235Y-33588238D01*
X92468826Y-33594858D01*
X92468824Y-33594861D01*
X92415817Y-33740497D01*
X92409197Y-33758685D01*
X92408314Y-33765673D01*
X92408314Y-33765674D01*
X92400024Y-33831293D01*
X92371642Y-33896369D01*
X92312582Y-33935770D01*
X92275018Y-33941500D01*
X90038097Y-33941500D01*
X89969976Y-33921498D01*
X89949001Y-33904595D01*
X89433671Y-33389264D01*
X89399646Y-33326952D01*
X89397552Y-33314214D01*
X89393433Y-33277494D01*
X89392648Y-33270494D01*
X89359643Y-33175717D01*
X89335315Y-33105855D01*
X89335313Y-33105852D01*
X89332996Y-33099197D01*
X89299487Y-33045571D01*
X89240610Y-32951347D01*
X89236877Y-32945373D01*
X89222448Y-32930843D01*
X89114029Y-32821664D01*
X89114025Y-32821661D01*
X89109066Y-32816667D01*
X89101938Y-32812143D01*
X89034591Y-32769404D01*
X88955917Y-32719476D01*
X88908262Y-32702507D01*
X88850801Y-32660815D01*
X88825000Y-32594672D01*
X88839055Y-32525081D01*
X88888502Y-32474135D01*
X88939111Y-32458328D01*
X89027555Y-32450278D01*
X89063600Y-32446998D01*
X89070302Y-32444820D01*
X89070304Y-32444820D01*
X89229409Y-32393124D01*
X89229412Y-32393123D01*
X89236108Y-32390947D01*
X89352262Y-32321705D01*
X89385860Y-32301677D01*
X89385862Y-32301676D01*
X89391912Y-32298069D01*
X89523266Y-32172982D01*
X89623643Y-32021902D01*
X89665423Y-31911917D01*
X89685555Y-31858920D01*
X89685556Y-31858918D01*
X89688055Y-31852338D01*
X89691335Y-31829000D01*
X89712748Y-31676639D01*
X89712748Y-31676636D01*
X89713299Y-31672717D01*
X89713616Y-31650000D01*
X89708444Y-31603890D01*
X89708589Y-31583188D01*
X89708500Y-31583188D01*
X89708500Y-31561741D01*
X89710051Y-31542031D01*
X89712166Y-31528677D01*
X89713406Y-31520848D01*
X89709059Y-31474859D01*
X89708500Y-31463004D01*
X89708500Y-30462817D01*
X89709059Y-30450961D01*
X89709059Y-30450958D01*
X89710788Y-30443224D01*
X89708562Y-30372392D01*
X89708500Y-30368434D01*
X89708500Y-30339329D01*
X89707944Y-30334929D01*
X89707012Y-30323091D01*
X89707001Y-30322721D01*
X89705562Y-30276930D01*
X89699580Y-30256340D01*
X89695570Y-30236977D01*
X89693875Y-30223557D01*
X89693875Y-30223556D01*
X89692882Y-30215697D01*
X89689965Y-30208329D01*
X89686063Y-30198473D01*
X89679584Y-30127773D01*
X89712357Y-30064793D01*
X89764279Y-30032257D01*
X89881379Y-29994209D01*
X89894129Y-29988425D01*
X89901718Y-29983901D01*
X89912602Y-29981099D01*
X89908597Y-29978525D01*
X90015619Y-29978525D01*
X90026568Y-29981514D01*
X90036376Y-29986864D01*
X90166579Y-30035286D01*
X90180177Y-30038676D01*
X90335660Y-30059423D01*
X90349656Y-30059716D01*
X90505870Y-30045499D01*
X90519595Y-30042682D01*
X90668779Y-29994209D01*
X90675652Y-29991091D01*
X90683504Y-29982622D01*
X90680000Y-29974210D01*
X90371512Y-29665722D01*
X90357568Y-29658108D01*
X90355735Y-29658239D01*
X90349120Y-29662490D01*
X90054095Y-29957515D01*
X90015619Y-29978525D01*
X89908597Y-29978525D01*
X89875905Y-29957515D01*
X89204671Y-29286281D01*
X89170645Y-29223969D01*
X89167766Y-29197186D01*
X89167766Y-28602814D01*
X89187768Y-28534693D01*
X89204671Y-28513719D01*
X89384529Y-28333861D01*
X89446841Y-28299835D01*
X89517656Y-28304900D01*
X89574492Y-28347447D01*
X89599303Y-28413967D01*
X89598631Y-28438741D01*
X89591450Y-28495586D01*
X89608143Y-28665836D01*
X89620066Y-28701677D01*
X89626425Y-28720793D01*
X89628948Y-28791745D01*
X89592711Y-28852797D01*
X89574990Y-28866562D01*
X89561719Y-28875091D01*
X89549622Y-28887188D01*
X89542008Y-28901132D01*
X89542139Y-28902965D01*
X89546390Y-28909580D01*
X89558488Y-28921678D01*
X89572432Y-28929292D01*
X89576739Y-28928984D01*
X89640812Y-28910171D01*
X89708933Y-28930173D01*
X89741643Y-28963767D01*
X89742807Y-28962871D01*
X89747105Y-28968452D01*
X89750756Y-28974480D01*
X89869589Y-29097534D01*
X89875484Y-29101392D01*
X89875487Y-29101394D01*
X89900322Y-29117646D01*
X89946370Y-29171684D01*
X89955893Y-29242039D01*
X89941915Y-29283463D01*
X89935707Y-29294831D01*
X89935839Y-29296665D01*
X89940090Y-29303280D01*
X89952188Y-29315378D01*
X89966132Y-29322992D01*
X89967965Y-29322861D01*
X89974580Y-29318610D01*
X89986679Y-29306511D01*
X89991138Y-29298345D01*
X90041340Y-29248143D01*
X90110714Y-29233052D01*
X90145640Y-29240632D01*
X90173067Y-29250832D01*
X90252154Y-29261385D01*
X90335649Y-29272526D01*
X90335653Y-29272526D01*
X90342630Y-29273457D01*
X90349641Y-29272819D01*
X90349645Y-29272819D01*
X90505973Y-29258592D01*
X90505975Y-29258592D01*
X90512992Y-29257953D01*
X90519694Y-29255776D01*
X90519696Y-29255775D01*
X90567243Y-29240326D01*
X90638210Y-29238298D01*
X90695274Y-29271064D01*
X91035537Y-29611327D01*
X91047917Y-29618087D01*
X91051733Y-29615230D01*
X91098931Y-29490983D01*
X91102411Y-29477429D01*
X91124672Y-29319034D01*
X91125278Y-29311150D01*
X91125467Y-29297662D01*
X91125080Y-29289761D01*
X91107251Y-29130811D01*
X91104149Y-29117158D01*
X91052563Y-28969024D01*
X91045816Y-28954941D01*
X91034422Y-28884865D01*
X91041660Y-28855756D01*
X91099418Y-28703709D01*
X91099419Y-28703704D01*
X91101918Y-28697126D01*
X91104218Y-28680760D01*
X91125175Y-28531647D01*
X91125175Y-28531644D01*
X91125726Y-28527725D01*
X91125899Y-28515314D01*
X91125970Y-28510262D01*
X91125970Y-28510257D01*
X91126025Y-28506300D01*
X91106956Y-28336300D01*
X91100988Y-28319160D01*
X91053014Y-28181397D01*
X91053013Y-28181395D01*
X91050699Y-28174750D01*
X91035234Y-28150000D01*
X91028135Y-28138640D01*
X91886463Y-28138640D01*
X91904163Y-28319160D01*
X91961418Y-28491273D01*
X91965065Y-28497295D01*
X91965066Y-28497297D01*
X92029145Y-28603104D01*
X92055380Y-28646424D01*
X92060269Y-28651487D01*
X92060270Y-28651488D01*
X92110700Y-28703709D01*
X92181382Y-28776902D01*
X92216507Y-28799887D01*
X92301884Y-28855756D01*
X92333159Y-28876222D01*
X92339763Y-28878678D01*
X92339765Y-28878679D01*
X92496558Y-28936990D01*
X92496560Y-28936990D01*
X92503168Y-28939448D01*
X92586995Y-28950633D01*
X92675980Y-28962507D01*
X92675984Y-28962507D01*
X92682961Y-28963438D01*
X92689972Y-28962800D01*
X92689976Y-28962800D01*
X92832459Y-28949832D01*
X92863600Y-28946998D01*
X92870302Y-28944820D01*
X92870304Y-28944820D01*
X93029409Y-28893124D01*
X93029412Y-28893123D01*
X93036108Y-28890947D01*
X93191912Y-28798069D01*
X93323266Y-28672982D01*
X93423643Y-28521902D01*
X93470761Y-28397864D01*
X93485555Y-28358920D01*
X93485556Y-28358918D01*
X93488055Y-28352338D01*
X93489035Y-28345366D01*
X93512748Y-28176639D01*
X93512748Y-28176636D01*
X93513299Y-28172717D01*
X93513616Y-28150000D01*
X93493397Y-27969745D01*
X93491080Y-27963091D01*
X93436064Y-27805106D01*
X93436062Y-27805103D01*
X93433745Y-27798448D01*
X93397054Y-27739730D01*
X93341359Y-27650598D01*
X93337626Y-27644624D01*
X93323941Y-27630843D01*
X93214778Y-27520915D01*
X93214774Y-27520912D01*
X93209815Y-27515918D01*
X93198697Y-27508862D01*
X93149382Y-27477566D01*
X93056666Y-27418727D01*
X92992187Y-27395767D01*
X92892425Y-27360243D01*
X92892420Y-27360242D01*
X92885790Y-27357881D01*
X92878802Y-27357048D01*
X92878799Y-27357047D01*
X92755698Y-27342368D01*
X92705680Y-27336404D01*
X92698677Y-27337140D01*
X92698676Y-27337140D01*
X92532288Y-27354628D01*
X92532286Y-27354629D01*
X92525288Y-27355364D01*
X92353579Y-27413818D01*
X92329755Y-27428475D01*
X92205095Y-27505166D01*
X92205092Y-27505168D01*
X92199088Y-27508862D01*
X92194053Y-27513793D01*
X92194050Y-27513795D01*
X92150320Y-27556619D01*
X92069493Y-27635771D01*
X91971235Y-27788238D01*
X91968826Y-27794858D01*
X91968824Y-27794861D01*
X91929960Y-27901640D01*
X91909197Y-27958685D01*
X91886463Y-28138640D01*
X91028135Y-28138640D01*
X90963781Y-28035652D01*
X90960048Y-28029678D01*
X90947002Y-28016540D01*
X90844472Y-27913292D01*
X90839509Y-27908294D01*
X90750907Y-27852066D01*
X90701016Y-27820404D01*
X90701013Y-27820402D01*
X90695073Y-27816633D01*
X90688440Y-27814271D01*
X90540554Y-27761611D01*
X90540549Y-27761610D01*
X90533919Y-27759249D01*
X90526931Y-27758416D01*
X90526928Y-27758415D01*
X90382087Y-27741144D01*
X90364057Y-27738994D01*
X90357054Y-27739730D01*
X90357053Y-27739730D01*
X90312658Y-27744396D01*
X90193928Y-27756875D01*
X90183967Y-27760266D01*
X90038653Y-27809735D01*
X90038650Y-27809736D01*
X90031989Y-27812004D01*
X90025990Y-27815695D01*
X90019619Y-27818693D01*
X90018447Y-27816204D01*
X89961980Y-27831567D01*
X89909262Y-27818841D01*
X89900815Y-27814721D01*
X89753045Y-27762103D01*
X89739406Y-27758904D01*
X89583646Y-27740331D01*
X89569649Y-27740233D01*
X89456675Y-27752107D01*
X89386837Y-27739335D01*
X89334990Y-27690833D01*
X89317596Y-27622000D01*
X89318731Y-27609260D01*
X89318819Y-27608639D01*
X89322565Y-27581983D01*
X89322882Y-27559266D01*
X89302663Y-27379011D01*
X89300346Y-27372357D01*
X89245330Y-27214372D01*
X89245328Y-27214369D01*
X89243011Y-27207714D01*
X89214797Y-27162562D01*
X89150625Y-27059864D01*
X89146892Y-27053890D01*
X89133207Y-27040109D01*
X89024044Y-26930181D01*
X89024040Y-26930178D01*
X89019081Y-26925184D01*
X89007963Y-26918128D01*
X88948084Y-26880128D01*
X88865932Y-26827993D01*
X88790840Y-26801254D01*
X88701691Y-26769509D01*
X88701686Y-26769508D01*
X88695056Y-26767147D01*
X88688068Y-26766314D01*
X88688065Y-26766313D01*
X88564964Y-26751634D01*
X88514946Y-26745670D01*
X88507943Y-26746406D01*
X88507942Y-26746406D01*
X88341554Y-26763894D01*
X88341552Y-26763895D01*
X88334554Y-26764630D01*
X88162845Y-26823084D01*
X88156841Y-26826778D01*
X88014361Y-26914432D01*
X88014358Y-26914434D01*
X88008354Y-26918128D01*
X88003319Y-26923059D01*
X88003316Y-26923061D01*
X87883791Y-27040109D01*
X87878759Y-27045037D01*
X87780501Y-27197504D01*
X87778092Y-27204124D01*
X87778090Y-27204127D01*
X87737240Y-27316362D01*
X87718463Y-27367951D01*
X87695729Y-27547906D01*
X87713429Y-27728426D01*
X87770684Y-27900539D01*
X87774331Y-27906561D01*
X87774332Y-27906563D01*
X87778407Y-27913292D01*
X87810132Y-27965675D01*
X87832542Y-28002679D01*
X87850766Y-28067950D01*
X87850766Y-29757971D01*
X87850207Y-29769827D01*
X87848478Y-29777564D01*
X87848727Y-29785486D01*
X87850704Y-29848396D01*
X87850766Y-29852354D01*
X87850766Y-29881459D01*
X87851322Y-29885859D01*
X87852254Y-29897691D01*
X87853704Y-29943858D01*
X87857420Y-29956647D01*
X87857218Y-30027643D01*
X87824581Y-30081825D01*
X87787579Y-30118060D01*
X87724913Y-30151430D01*
X87654155Y-30145624D01*
X87610015Y-30116820D01*
X87601423Y-30108167D01*
X87558350Y-30064793D01*
X87514778Y-30020915D01*
X87514774Y-30020912D01*
X87509815Y-30015918D01*
X87498697Y-30008862D01*
X87443690Y-29973954D01*
X87356666Y-29918727D01*
X87297607Y-29897697D01*
X87192425Y-29860243D01*
X87192420Y-29860242D01*
X87185790Y-29857881D01*
X87178802Y-29857048D01*
X87178799Y-29857047D01*
X87055698Y-29842368D01*
X87005680Y-29836404D01*
X86998677Y-29837140D01*
X86998676Y-29837140D01*
X86832288Y-29854628D01*
X86832286Y-29854629D01*
X86825288Y-29855364D01*
X86653579Y-29913818D01*
X86620837Y-29933961D01*
X86505095Y-30005166D01*
X86505092Y-30005168D01*
X86499088Y-30008862D01*
X86494053Y-30013793D01*
X86494050Y-30013795D01*
X86416060Y-30090169D01*
X86369493Y-30135771D01*
X86271235Y-30288238D01*
X86268826Y-30294858D01*
X86268824Y-30294861D01*
X86246711Y-30355616D01*
X86209197Y-30458685D01*
X86186463Y-30638640D01*
X86204163Y-30819160D01*
X86261418Y-30991273D01*
X86265065Y-30997295D01*
X86265066Y-30997297D01*
X86350189Y-31137852D01*
X86355380Y-31146424D01*
X86360269Y-31151487D01*
X86360270Y-31151488D01*
X86419726Y-31213056D01*
X86481382Y-31276902D01*
X86513729Y-31298069D01*
X86626541Y-31371891D01*
X86633159Y-31376222D01*
X86639763Y-31378678D01*
X86639765Y-31378679D01*
X86796558Y-31436990D01*
X86796560Y-31436990D01*
X86803168Y-31439448D01*
X86886995Y-31450633D01*
X86975980Y-31462507D01*
X86975984Y-31462507D01*
X86982961Y-31463438D01*
X86989972Y-31462800D01*
X86989976Y-31462800D01*
X87132459Y-31449832D01*
X87163600Y-31446998D01*
X87170302Y-31444820D01*
X87170304Y-31444820D01*
X87329409Y-31393124D01*
X87329412Y-31393123D01*
X87336108Y-31390947D01*
X87453975Y-31320684D01*
X87485860Y-31301677D01*
X87485862Y-31301676D01*
X87491912Y-31298069D01*
X87614839Y-31181007D01*
X87677964Y-31148515D01*
X87748635Y-31155308D01*
X87792367Y-31184726D01*
X87876483Y-31271830D01*
X87876488Y-31271834D01*
X87881382Y-31276902D01*
X88033159Y-31376222D01*
X88036272Y-31377380D01*
X88086984Y-31424943D01*
X88104289Y-31493798D01*
X88103394Y-31504621D01*
X88086463Y-31638640D01*
X88104163Y-31819160D01*
X88161418Y-31991273D01*
X88165065Y-31997295D01*
X88165066Y-31997297D01*
X88240320Y-32121556D01*
X88255380Y-32146424D01*
X88260269Y-32151487D01*
X88260270Y-32151488D01*
X88275357Y-32167111D01*
X88381382Y-32276902D01*
X88439796Y-32315127D01*
X88486714Y-32345829D01*
X88533159Y-32376222D01*
X88539763Y-32378678D01*
X88539765Y-32378679D01*
X88592487Y-32398286D01*
X88649363Y-32440778D01*
X88674237Y-32507275D01*
X88659212Y-32576663D01*
X88609057Y-32626913D01*
X88561738Y-32641693D01*
X88527941Y-32645245D01*
X88431540Y-32655377D01*
X88431539Y-32655377D01*
X88424539Y-32656113D01*
X88252830Y-32714567D01*
X88238708Y-32723255D01*
X88104346Y-32805915D01*
X88104343Y-32805917D01*
X88098339Y-32809611D01*
X88093304Y-32814542D01*
X88093301Y-32814544D01*
X87977531Y-32927915D01*
X87968744Y-32936520D01*
X87964928Y-32942441D01*
X87960477Y-32947899D01*
X87958221Y-32946059D01*
X87914393Y-32983950D01*
X87844108Y-32993974D01*
X87779560Y-32964408D01*
X87764917Y-32949090D01*
X87762126Y-32944624D01*
X87757161Y-32939624D01*
X87639278Y-32820915D01*
X87639274Y-32820912D01*
X87634315Y-32815918D01*
X87623197Y-32808862D01*
X87550639Y-32762816D01*
X87481166Y-32718727D01*
X87451963Y-32708328D01*
X87316925Y-32660243D01*
X87316920Y-32660242D01*
X87310290Y-32657881D01*
X87303302Y-32657048D01*
X87303299Y-32657047D01*
X87180198Y-32642368D01*
X87130180Y-32636404D01*
X87123177Y-32637140D01*
X87123176Y-32637140D01*
X86956788Y-32654628D01*
X86956786Y-32654629D01*
X86949788Y-32655364D01*
X86778079Y-32713818D01*
X86750383Y-32730857D01*
X86629595Y-32805166D01*
X86629592Y-32805168D01*
X86623588Y-32808862D01*
X86618553Y-32813793D01*
X86618550Y-32813795D01*
X86502015Y-32927915D01*
X86493993Y-32935771D01*
X86395735Y-33088238D01*
X86393326Y-33094858D01*
X86393324Y-33094861D01*
X86371957Y-33153567D01*
X86333697Y-33258685D01*
X86332814Y-33265674D01*
X86331180Y-33278607D01*
X86302796Y-33343683D01*
X86246781Y-33382090D01*
X86153579Y-33413818D01*
X86117895Y-33435771D01*
X86005095Y-33505166D01*
X86005092Y-33505168D01*
X85999088Y-33508862D01*
X85994053Y-33513793D01*
X85994050Y-33513795D01*
X85874525Y-33630843D01*
X85869493Y-33635771D01*
X85771235Y-33788238D01*
X85768826Y-33794858D01*
X85768824Y-33794861D01*
X85718095Y-33934239D01*
X85709197Y-33958685D01*
X85686463Y-34138640D01*
X85694316Y-34218727D01*
X85701528Y-34292286D01*
X85688268Y-34362033D01*
X85639406Y-34413540D01*
X85570453Y-34430453D01*
X85503303Y-34407403D01*
X85486723Y-34393365D01*
X85480542Y-34387140D01*
X85409815Y-34315918D01*
X85398697Y-34308862D01*
X85335501Y-34268757D01*
X85256666Y-34218727D01*
X85227463Y-34208328D01*
X85092425Y-34160243D01*
X85092420Y-34160242D01*
X85085790Y-34157881D01*
X85078802Y-34157048D01*
X85078799Y-34157047D01*
X84924431Y-34138640D01*
X84905680Y-34136404D01*
X84898677Y-34137140D01*
X84898676Y-34137140D01*
X84732288Y-34154628D01*
X84732286Y-34154629D01*
X84725288Y-34155364D01*
X84553579Y-34213818D01*
X84547575Y-34217512D01*
X84405095Y-34305166D01*
X84405092Y-34305168D01*
X84399088Y-34308862D01*
X84394053Y-34313793D01*
X84394050Y-34313795D01*
X84274525Y-34430843D01*
X84269493Y-34435771D01*
X84171235Y-34588238D01*
X84168826Y-34594858D01*
X84168824Y-34594861D01*
X84117307Y-34736404D01*
X84109197Y-34758685D01*
X84086463Y-34938640D01*
X84104163Y-35119160D01*
X84161418Y-35291273D01*
X84165065Y-35297295D01*
X84165066Y-35297297D01*
X84236487Y-35415227D01*
X84255380Y-35446424D01*
X84260269Y-35451487D01*
X84260270Y-35451488D01*
X84299845Y-35492469D01*
X84381382Y-35576902D01*
X84435300Y-35612185D01*
X84513093Y-35663091D01*
X84533159Y-35676222D01*
X84539763Y-35678678D01*
X84539765Y-35678679D01*
X84696558Y-35736990D01*
X84696560Y-35736990D01*
X84703168Y-35739448D01*
X84710153Y-35740380D01*
X84710157Y-35740381D01*
X84804988Y-35753034D01*
X84881375Y-35763226D01*
X84946251Y-35792062D01*
X84985239Y-35851395D01*
X84990109Y-35875823D01*
X85004163Y-36019160D01*
X85061418Y-36191273D01*
X85065065Y-36197295D01*
X85065066Y-36197297D01*
X85148887Y-36335702D01*
X85155380Y-36346424D01*
X85160269Y-36351487D01*
X85160270Y-36351488D01*
X85199599Y-36392214D01*
X85281382Y-36476902D01*
X85313729Y-36498069D01*
X85426029Y-36571556D01*
X85433159Y-36576222D01*
X85439763Y-36578678D01*
X85439765Y-36578679D01*
X85596558Y-36636990D01*
X85596560Y-36636990D01*
X85603168Y-36639448D01*
X85682250Y-36650000D01*
X85775980Y-36662507D01*
X85775984Y-36662507D01*
X85782961Y-36663438D01*
X85789972Y-36662800D01*
X85789976Y-36662800D01*
X85940141Y-36649133D01*
X85963600Y-36646998D01*
X85970302Y-36644820D01*
X85970304Y-36644820D01*
X86129409Y-36593124D01*
X86129412Y-36593123D01*
X86136108Y-36590947D01*
X86254262Y-36520513D01*
X86285860Y-36501677D01*
X86285862Y-36501676D01*
X86291912Y-36498069D01*
X86423266Y-36372982D01*
X86523643Y-36221902D01*
X86588055Y-36052338D01*
X86591630Y-36026902D01*
X86612748Y-35876639D01*
X86612748Y-35876636D01*
X86613299Y-35872717D01*
X86613616Y-35850000D01*
X86593397Y-35669745D01*
X86591068Y-35663056D01*
X86536064Y-35505106D01*
X86536062Y-35505103D01*
X86533745Y-35498448D01*
X86437626Y-35344624D01*
X86428835Y-35335771D01*
X86314778Y-35220915D01*
X86314774Y-35220912D01*
X86309815Y-35215918D01*
X86300571Y-35210051D01*
X86243826Y-35174040D01*
X86197027Y-35120651D01*
X86186522Y-35050436D01*
X86215646Y-34985688D01*
X86275152Y-34946964D01*
X86328005Y-34942762D01*
X86475980Y-34962507D01*
X86475984Y-34962507D01*
X86482961Y-34963438D01*
X86489972Y-34962800D01*
X86489976Y-34962800D01*
X86632459Y-34949832D01*
X86663600Y-34946998D01*
X86670302Y-34944820D01*
X86670304Y-34944820D01*
X86829409Y-34893124D01*
X86829412Y-34893123D01*
X86836108Y-34890947D01*
X86959296Y-34817512D01*
X86985860Y-34801677D01*
X86985862Y-34801676D01*
X86991912Y-34798069D01*
X87066089Y-34727431D01*
X87129214Y-34694939D01*
X87199885Y-34701732D01*
X87252385Y-34741478D01*
X87255380Y-34746424D01*
X87260271Y-34751489D01*
X87260272Y-34751490D01*
X87274100Y-34765809D01*
X87381382Y-34876902D01*
X87441005Y-34915918D01*
X87495475Y-34951562D01*
X87533159Y-34976222D01*
X87539763Y-34978678D01*
X87539765Y-34978679D01*
X87696558Y-35036990D01*
X87696560Y-35036990D01*
X87703168Y-35039448D01*
X87769742Y-35048331D01*
X87875980Y-35062507D01*
X87875984Y-35062507D01*
X87882961Y-35063438D01*
X87889972Y-35062800D01*
X87889976Y-35062800D01*
X88048953Y-35048331D01*
X88063600Y-35046998D01*
X88070302Y-35044820D01*
X88070304Y-35044820D01*
X88229409Y-34993124D01*
X88229412Y-34993123D01*
X88236108Y-34990947D01*
X88356971Y-34918898D01*
X88385860Y-34901677D01*
X88385862Y-34901676D01*
X88391912Y-34898069D01*
X88523266Y-34772982D01*
X88623643Y-34621902D01*
X88626146Y-34615314D01*
X88629238Y-34609298D01*
X88678168Y-34557855D01*
X88747142Y-34541031D01*
X88814263Y-34564169D01*
X88830398Y-34577801D01*
X89219850Y-34967253D01*
X89227390Y-34975539D01*
X89231502Y-34982018D01*
X89237279Y-34987443D01*
X89281153Y-35028643D01*
X89283995Y-35031398D01*
X89303732Y-35051135D01*
X89306929Y-35053615D01*
X89315949Y-35061318D01*
X89348181Y-35091586D01*
X89355127Y-35095405D01*
X89355130Y-35095407D01*
X89365936Y-35101348D01*
X89382455Y-35112199D01*
X89398461Y-35124614D01*
X89405730Y-35127759D01*
X89405734Y-35127762D01*
X89439039Y-35142174D01*
X89449689Y-35147391D01*
X89488442Y-35168695D01*
X89496117Y-35170666D01*
X89496118Y-35170666D01*
X89508064Y-35173733D01*
X89526769Y-35180137D01*
X89545357Y-35188181D01*
X89553180Y-35189420D01*
X89553190Y-35189423D01*
X89589026Y-35195099D01*
X89600646Y-35197505D01*
X89634502Y-35206197D01*
X89643472Y-35208500D01*
X89663726Y-35208500D01*
X89683436Y-35210051D01*
X89703445Y-35213220D01*
X89711337Y-35212474D01*
X89747463Y-35209059D01*
X89759321Y-35208500D01*
X93420414Y-35208500D01*
X93488535Y-35228502D01*
X93535028Y-35282158D01*
X93545132Y-35352432D01*
X93526325Y-35402755D01*
X93471235Y-35488238D01*
X93468826Y-35494858D01*
X93468824Y-35494861D01*
X93430569Y-35599966D01*
X93409197Y-35658685D01*
X93386463Y-35838640D01*
X93404163Y-36019160D01*
X93461418Y-36191273D01*
X93465065Y-36197295D01*
X93465066Y-36197297D01*
X93548887Y-36335702D01*
X93555380Y-36346424D01*
X93560269Y-36351487D01*
X93560270Y-36351488D01*
X93599599Y-36392214D01*
X93681382Y-36476902D01*
X93713729Y-36498069D01*
X93826029Y-36571556D01*
X93833159Y-36576222D01*
X93839763Y-36578678D01*
X93839765Y-36578679D01*
X93996558Y-36636990D01*
X93996560Y-36636990D01*
X94003168Y-36639448D01*
X94082250Y-36650000D01*
X94175980Y-36662507D01*
X94175984Y-36662507D01*
X94182961Y-36663438D01*
X94189972Y-36662800D01*
X94189976Y-36662800D01*
X94340141Y-36649133D01*
X94363600Y-36646998D01*
X94370302Y-36644820D01*
X94370304Y-36644820D01*
X94529409Y-36593124D01*
X94529412Y-36593123D01*
X94536108Y-36590947D01*
X94691912Y-36498069D01*
X94692568Y-36499169D01*
X94752092Y-36476514D01*
X94821566Y-36491142D01*
X94851015Y-36513035D01*
X95980227Y-37642247D01*
X95987771Y-37650537D01*
X95991884Y-37657018D01*
X95997661Y-37662443D01*
X96041551Y-37703658D01*
X96044393Y-37706413D01*
X96064114Y-37726134D01*
X96067309Y-37728612D01*
X96076331Y-37736318D01*
X96108563Y-37766586D01*
X96115512Y-37770406D01*
X96126316Y-37776346D01*
X96142840Y-37787199D01*
X96158841Y-37799611D01*
X96158607Y-37799912D01*
X96203740Y-37848246D01*
X96216448Y-37918096D01*
X96189374Y-37983728D01*
X96152787Y-38012531D01*
X96153579Y-38013818D01*
X96005095Y-38105166D01*
X96005092Y-38105168D01*
X95999088Y-38108862D01*
X95994053Y-38113793D01*
X95994050Y-38113795D01*
X95906021Y-38200000D01*
X95869493Y-38235771D01*
X95771235Y-38388238D01*
X95768826Y-38394858D01*
X95768824Y-38394861D01*
X95719779Y-38529611D01*
X95709197Y-38558685D01*
X95686463Y-38738640D01*
X95704163Y-38919160D01*
X95761418Y-39091273D01*
X95765065Y-39097295D01*
X95765066Y-39097297D01*
X95844126Y-39227841D01*
X95855380Y-39246424D01*
X95981382Y-39376902D01*
X95987278Y-39380760D01*
X96113093Y-39463091D01*
X96133159Y-39476222D01*
X96139763Y-39478678D01*
X96139765Y-39478679D01*
X96296558Y-39536990D01*
X96296560Y-39536990D01*
X96303168Y-39539448D01*
X96386995Y-39550633D01*
X96475980Y-39562507D01*
X96475984Y-39562507D01*
X96482961Y-39563438D01*
X96489972Y-39562800D01*
X96489976Y-39562800D01*
X96632459Y-39549832D01*
X96663600Y-39546998D01*
X96670302Y-39544820D01*
X96670304Y-39544820D01*
X96829409Y-39493124D01*
X96829412Y-39493123D01*
X96836108Y-39490947D01*
X96991912Y-39398069D01*
X97123266Y-39272982D01*
X97223643Y-39121902D01*
X97269047Y-39002376D01*
X97285555Y-38958920D01*
X97285556Y-38958918D01*
X97288055Y-38952338D01*
X97290408Y-38935595D01*
X97312748Y-38776639D01*
X97312748Y-38776636D01*
X97313299Y-38772717D01*
X97313616Y-38750000D01*
X97293397Y-38569745D01*
X97291080Y-38563091D01*
X97236064Y-38405106D01*
X97236062Y-38405103D01*
X97233745Y-38398448D01*
X97221803Y-38379337D01*
X97141359Y-38250598D01*
X97137626Y-38244624D01*
X97128835Y-38235771D01*
X97014778Y-38120915D01*
X97014774Y-38120912D01*
X97009815Y-38115918D01*
X97003868Y-38112144D01*
X96998379Y-38107731D01*
X97000405Y-38105211D01*
X96962964Y-38062496D01*
X96952459Y-37992281D01*
X96981583Y-37927533D01*
X97041088Y-37888809D01*
X97077277Y-37883500D01*
X97671233Y-37883500D01*
X97682416Y-37884027D01*
X97689909Y-37885702D01*
X97697835Y-37885453D01*
X97697836Y-37885453D01*
X97757986Y-37883562D01*
X97761945Y-37883500D01*
X97789856Y-37883500D01*
X97793791Y-37883003D01*
X97793856Y-37882995D01*
X97805693Y-37882062D01*
X97837951Y-37881048D01*
X97841970Y-37880922D01*
X97849889Y-37880673D01*
X97869343Y-37875021D01*
X97888700Y-37871013D01*
X97900930Y-37869468D01*
X97900931Y-37869468D01*
X97908797Y-37868474D01*
X97916168Y-37865555D01*
X97916170Y-37865555D01*
X97949912Y-37852196D01*
X97961142Y-37848351D01*
X97995983Y-37838229D01*
X97995984Y-37838229D01*
X98003593Y-37836018D01*
X98010412Y-37831985D01*
X98010417Y-37831983D01*
X98021028Y-37825707D01*
X98038776Y-37817012D01*
X98057617Y-37809552D01*
X98075782Y-37796355D01*
X98093387Y-37783564D01*
X98103307Y-37777048D01*
X98134535Y-37758580D01*
X98134538Y-37758578D01*
X98141362Y-37754542D01*
X98155683Y-37740221D01*
X98170717Y-37727380D01*
X98172432Y-37726134D01*
X98187107Y-37715472D01*
X98215298Y-37681395D01*
X98223288Y-37672616D01*
X99101405Y-36794499D01*
X99163717Y-36760473D01*
X99234532Y-36765538D01*
X99291368Y-36808085D01*
X99316179Y-36874605D01*
X99316500Y-36883594D01*
X99316500Y-37497476D01*
X99296498Y-37565597D01*
X99284142Y-37581779D01*
X99210960Y-37663056D01*
X99173114Y-37728607D01*
X99120620Y-37819530D01*
X99115473Y-37828444D01*
X99056458Y-38010072D01*
X99055768Y-38016633D01*
X99055768Y-38016635D01*
X99050671Y-38065132D01*
X99040625Y-38160720D01*
X99039093Y-38175292D01*
X99012080Y-38240949D01*
X99002878Y-38251217D01*
X98882747Y-38371348D01*
X98874461Y-38378888D01*
X98867982Y-38383000D01*
X98862557Y-38388777D01*
X98821357Y-38432651D01*
X98818602Y-38435493D01*
X98798865Y-38455230D01*
X98796385Y-38458427D01*
X98788682Y-38467447D01*
X98758414Y-38499679D01*
X98754595Y-38506625D01*
X98754593Y-38506628D01*
X98748652Y-38517434D01*
X98737801Y-38533953D01*
X98725386Y-38549959D01*
X98722241Y-38557228D01*
X98722238Y-38557232D01*
X98707826Y-38590537D01*
X98702609Y-38601187D01*
X98681305Y-38639940D01*
X98679334Y-38647615D01*
X98679334Y-38647616D01*
X98676267Y-38659562D01*
X98669863Y-38678266D01*
X98669349Y-38679455D01*
X98661819Y-38696855D01*
X98660580Y-38704678D01*
X98660577Y-38704688D01*
X98654901Y-38740524D01*
X98652495Y-38752144D01*
X98643472Y-38787289D01*
X98641500Y-38794970D01*
X98641500Y-38815224D01*
X98639949Y-38834934D01*
X98636780Y-38854943D01*
X98637526Y-38862835D01*
X98640941Y-38898961D01*
X98641500Y-38910819D01*
X98641500Y-42370117D01*
X98640973Y-42381300D01*
X98639298Y-42388793D01*
X98639547Y-42396719D01*
X98639547Y-42396720D01*
X98641438Y-42456870D01*
X98641500Y-42460829D01*
X98641500Y-42488740D01*
X98641997Y-42492674D01*
X98641997Y-42492675D01*
X98642005Y-42492740D01*
X98642938Y-42504577D01*
X98644327Y-42548773D01*
X98649978Y-42568223D01*
X98653987Y-42587584D01*
X98656526Y-42607681D01*
X98659445Y-42615052D01*
X98659445Y-42615054D01*
X98672804Y-42648796D01*
X98676649Y-42660026D01*
X98686771Y-42694867D01*
X98688982Y-42702477D01*
X98693015Y-42709296D01*
X98693017Y-42709301D01*
X98699293Y-42719912D01*
X98707988Y-42737660D01*
X98715448Y-42756501D01*
X98720110Y-42762917D01*
X98720110Y-42762918D01*
X98741436Y-42792271D01*
X98747952Y-42802191D01*
X98759405Y-42821556D01*
X98770458Y-42840246D01*
X98784779Y-42854567D01*
X98797619Y-42869600D01*
X98809528Y-42885991D01*
X98815634Y-42891042D01*
X98843605Y-42914182D01*
X98852384Y-42922172D01*
X106272464Y-50342253D01*
X106280004Y-50350539D01*
X106284116Y-50357018D01*
X106289893Y-50362443D01*
X106333767Y-50403643D01*
X106336609Y-50406398D01*
X106356346Y-50426135D01*
X106359543Y-50428615D01*
X106368563Y-50436318D01*
X106400795Y-50466586D01*
X106407741Y-50470405D01*
X106407744Y-50470407D01*
X106418550Y-50476348D01*
X106435069Y-50487199D01*
X106451075Y-50499614D01*
X106458344Y-50502759D01*
X106458348Y-50502762D01*
X106491653Y-50517174D01*
X106502303Y-50522391D01*
X106541056Y-50543695D01*
X106548731Y-50545666D01*
X106548732Y-50545666D01*
X106560678Y-50548733D01*
X106579383Y-50555137D01*
X106597971Y-50563181D01*
X106605794Y-50564420D01*
X106605804Y-50564423D01*
X106641640Y-50570099D01*
X106653260Y-50572505D01*
X106685075Y-50580673D01*
X106696086Y-50583500D01*
X106716340Y-50583500D01*
X106736050Y-50585051D01*
X106756059Y-50588220D01*
X106763951Y-50587474D01*
X106782696Y-50585702D01*
X106800078Y-50584059D01*
X106811935Y-50583500D01*
X112405117Y-50583500D01*
X112416300Y-50584027D01*
X112423793Y-50585702D01*
X112431719Y-50585453D01*
X112431720Y-50585453D01*
X112491870Y-50583562D01*
X112495829Y-50583500D01*
X112523740Y-50583500D01*
X112527675Y-50583003D01*
X112527740Y-50582995D01*
X112539577Y-50582062D01*
X112571835Y-50581048D01*
X112575854Y-50580922D01*
X112583773Y-50580673D01*
X112603227Y-50575021D01*
X112622584Y-50571013D01*
X112634814Y-50569468D01*
X112634815Y-50569468D01*
X112642681Y-50568474D01*
X112650052Y-50565555D01*
X112650054Y-50565555D01*
X112683796Y-50552196D01*
X112695026Y-50548351D01*
X112729867Y-50538229D01*
X112729868Y-50538229D01*
X112737477Y-50536018D01*
X112744296Y-50531985D01*
X112744301Y-50531983D01*
X112754912Y-50525707D01*
X112772660Y-50517012D01*
X112791501Y-50509552D01*
X112827271Y-50483564D01*
X112837191Y-50477048D01*
X112868419Y-50458580D01*
X112868422Y-50458578D01*
X112875246Y-50454542D01*
X112889567Y-50440221D01*
X112904601Y-50427380D01*
X112914578Y-50420131D01*
X112920991Y-50415472D01*
X112949182Y-50381395D01*
X112957172Y-50372616D01*
X114517247Y-48812541D01*
X114525537Y-48804997D01*
X114532018Y-48800884D01*
X114578659Y-48751216D01*
X114581413Y-48748375D01*
X114601135Y-48728653D01*
X114603612Y-48725460D01*
X114611317Y-48716439D01*
X114636159Y-48689984D01*
X114641586Y-48684205D01*
X114650983Y-48667112D01*
X114651346Y-48666452D01*
X114662202Y-48649925D01*
X114669757Y-48640186D01*
X114669758Y-48640184D01*
X114674614Y-48633924D01*
X114692174Y-48593344D01*
X114697391Y-48582696D01*
X114714875Y-48550893D01*
X114714876Y-48550891D01*
X114718695Y-48543944D01*
X114723733Y-48524321D01*
X114730137Y-48505618D01*
X114735033Y-48494304D01*
X114735033Y-48494303D01*
X114738181Y-48487029D01*
X114739420Y-48479206D01*
X114739423Y-48479196D01*
X114745099Y-48443360D01*
X114747505Y-48431740D01*
X114756528Y-48396595D01*
X114756528Y-48396594D01*
X114758500Y-48388914D01*
X114758500Y-48368660D01*
X114760051Y-48348949D01*
X114761980Y-48336770D01*
X114763220Y-48328941D01*
X114759059Y-48284922D01*
X114758500Y-48273065D01*
X114758500Y-46657962D01*
X114778502Y-46589841D01*
X114832158Y-46543348D01*
X114902432Y-46533244D01*
X114967012Y-46562738D01*
X114975136Y-46570434D01*
X114981382Y-46576902D01*
X115001155Y-46589841D01*
X115101285Y-46655364D01*
X115133159Y-46676222D01*
X115139763Y-46678678D01*
X115139765Y-46678679D01*
X115296558Y-46736990D01*
X115296560Y-46736990D01*
X115303168Y-46739448D01*
X115386995Y-46750633D01*
X115475980Y-46762507D01*
X115475984Y-46762507D01*
X115482961Y-46763438D01*
X115489972Y-46762800D01*
X115489976Y-46762800D01*
X115632459Y-46749832D01*
X115663600Y-46746998D01*
X115670302Y-46744820D01*
X115670304Y-46744820D01*
X115829409Y-46693124D01*
X115829412Y-46693123D01*
X115836108Y-46690947D01*
X115991912Y-46598069D01*
X116123266Y-46472982D01*
X116223643Y-46321902D01*
X116273265Y-46191273D01*
X116285555Y-46158920D01*
X116285556Y-46158918D01*
X116288055Y-46152338D01*
X116289035Y-46145366D01*
X116312748Y-45976639D01*
X116312748Y-45976636D01*
X116313299Y-45972717D01*
X116313616Y-45950000D01*
X116293397Y-45769745D01*
X116289546Y-45758685D01*
X116277731Y-45724758D01*
X116249932Y-45644930D01*
X116246418Y-45574023D01*
X116282032Y-45512249D01*
X116318159Y-45477846D01*
X116318162Y-45477843D01*
X116323266Y-45472982D01*
X116423643Y-45321902D01*
X116488055Y-45152338D01*
X116490252Y-45136704D01*
X116512748Y-44976639D01*
X116512748Y-44976636D01*
X116513299Y-44972717D01*
X116513616Y-44950000D01*
X116493397Y-44769745D01*
X116489814Y-44759455D01*
X116436064Y-44605106D01*
X116436062Y-44605103D01*
X116433745Y-44598448D01*
X116337626Y-44444624D01*
X116328835Y-44435771D01*
X116214778Y-44320915D01*
X116214774Y-44320912D01*
X116209815Y-44315918D01*
X116198697Y-44308862D01*
X116114860Y-44255658D01*
X116056666Y-44218727D01*
X116027463Y-44208328D01*
X115892425Y-44160243D01*
X115892420Y-44160242D01*
X115885790Y-44157881D01*
X115878802Y-44157048D01*
X115878799Y-44157047D01*
X115755698Y-44142368D01*
X115705680Y-44136404D01*
X115698677Y-44137140D01*
X115698676Y-44137140D01*
X115532288Y-44154628D01*
X115532286Y-44154629D01*
X115525288Y-44155364D01*
X115353579Y-44213818D01*
X115294766Y-44250000D01*
X115205095Y-44305166D01*
X115205092Y-44305168D01*
X115199088Y-44308862D01*
X115194053Y-44313793D01*
X115194050Y-44313795D01*
X115079630Y-44425844D01*
X115069493Y-44435771D01*
X114990409Y-44558485D01*
X114936697Y-44604908D01*
X114866410Y-44614923D01*
X114801867Y-44585348D01*
X114763559Y-44525573D01*
X114758500Y-44490228D01*
X114758500Y-44453767D01*
X114759027Y-44442584D01*
X114760702Y-44435091D01*
X114760412Y-44425844D01*
X114758562Y-44367014D01*
X114758500Y-44363055D01*
X114758500Y-44335144D01*
X114757995Y-44331144D01*
X114757062Y-44319301D01*
X114756936Y-44315271D01*
X114755673Y-44275110D01*
X114750022Y-44255658D01*
X114746014Y-44236306D01*
X114744467Y-44224063D01*
X114743474Y-44216203D01*
X114740556Y-44208832D01*
X114727200Y-44175097D01*
X114723355Y-44163870D01*
X114715617Y-44137238D01*
X114711018Y-44121407D01*
X114700707Y-44103972D01*
X114692012Y-44086224D01*
X114684552Y-44067383D01*
X114658564Y-44031613D01*
X114652048Y-44021693D01*
X114633580Y-43990465D01*
X114633578Y-43990462D01*
X114629542Y-43983638D01*
X114615221Y-43969317D01*
X114602380Y-43954283D01*
X114595131Y-43944306D01*
X114590472Y-43937893D01*
X114556395Y-43909702D01*
X114547616Y-43901712D01*
X113969499Y-43323595D01*
X113935473Y-43261283D01*
X113940538Y-43190468D01*
X113983085Y-43133632D01*
X114049605Y-43108821D01*
X114058594Y-43108500D01*
X119204702Y-43108500D01*
X119272823Y-43128502D01*
X119319316Y-43182158D01*
X119324535Y-43195563D01*
X119365473Y-43321556D01*
X119368776Y-43327278D01*
X119368777Y-43327279D01*
X119386803Y-43358500D01*
X119460960Y-43486944D01*
X119465378Y-43491851D01*
X119465379Y-43491852D01*
X119581588Y-43620915D01*
X119588747Y-43628866D01*
X119631756Y-43660114D01*
X119735889Y-43735771D01*
X119743248Y-43741118D01*
X119749276Y-43743802D01*
X119749278Y-43743803D01*
X119800560Y-43766635D01*
X119917712Y-43818794D01*
X120011112Y-43838647D01*
X120098056Y-43857128D01*
X120098061Y-43857128D01*
X120104513Y-43858500D01*
X120165500Y-43858500D01*
X120233621Y-43878502D01*
X120280114Y-43932158D01*
X120291500Y-43984500D01*
X120291500Y-46738564D01*
X120271498Y-46806685D01*
X120217842Y-46853178D01*
X120147568Y-46863282D01*
X120097987Y-46844950D01*
X120097072Y-46844369D01*
X120056666Y-46818727D01*
X120018582Y-46805166D01*
X119892425Y-46760243D01*
X119892420Y-46760242D01*
X119885790Y-46757881D01*
X119878802Y-46757048D01*
X119878799Y-46757047D01*
X119739023Y-46740380D01*
X119705680Y-46736404D01*
X119698677Y-46737140D01*
X119698676Y-46737140D01*
X119532288Y-46754628D01*
X119532286Y-46754629D01*
X119525288Y-46755364D01*
X119353579Y-46813818D01*
X119347575Y-46817512D01*
X119205095Y-46905166D01*
X119205092Y-46905168D01*
X119199088Y-46908862D01*
X119194053Y-46913793D01*
X119194050Y-46913795D01*
X119074525Y-47030843D01*
X119069493Y-47035771D01*
X118971235Y-47188238D01*
X118909197Y-47358685D01*
X118886463Y-47538640D01*
X118904163Y-47719160D01*
X118961418Y-47891273D01*
X118965065Y-47897295D01*
X118965066Y-47897297D01*
X118995222Y-47947091D01*
X119013401Y-48015721D01*
X118991590Y-48083284D01*
X118936714Y-48128330D01*
X118866196Y-48136557D01*
X118836197Y-48127469D01*
X118738319Y-48083891D01*
X118738318Y-48083891D01*
X118732288Y-48081206D01*
X118638888Y-48061353D01*
X118551944Y-48042872D01*
X118551939Y-48042872D01*
X118545487Y-48041500D01*
X118354513Y-48041500D01*
X118348061Y-48042872D01*
X118348056Y-48042872D01*
X118261113Y-48061353D01*
X118167712Y-48081206D01*
X118161682Y-48083891D01*
X118161681Y-48083891D01*
X117999278Y-48156197D01*
X117999276Y-48156198D01*
X117993248Y-48158882D01*
X117987907Y-48162762D01*
X117987906Y-48162763D01*
X117960398Y-48182749D01*
X117838747Y-48271134D01*
X117834326Y-48276044D01*
X117834325Y-48276045D01*
X117826331Y-48284923D01*
X117750935Y-48368660D01*
X117712483Y-48411365D01*
X117652037Y-48448605D01*
X117581054Y-48447253D01*
X117522069Y-48407740D01*
X117493811Y-48342609D01*
X117494073Y-48309519D01*
X117512748Y-48176640D01*
X117512748Y-48176635D01*
X117513299Y-48172717D01*
X117513616Y-48150000D01*
X117493397Y-47969745D01*
X117491080Y-47963091D01*
X117436064Y-47805106D01*
X117436062Y-47805103D01*
X117433745Y-47798448D01*
X117423662Y-47782312D01*
X117341359Y-47650598D01*
X117337626Y-47644624D01*
X117305379Y-47612151D01*
X117214778Y-47520915D01*
X117214774Y-47520912D01*
X117209815Y-47515918D01*
X117198697Y-47508862D01*
X117133032Y-47467190D01*
X117056666Y-47418727D01*
X117027463Y-47408328D01*
X116892425Y-47360243D01*
X116892420Y-47360242D01*
X116885790Y-47357881D01*
X116878802Y-47357048D01*
X116878799Y-47357047D01*
X116755698Y-47342368D01*
X116705680Y-47336404D01*
X116698677Y-47337140D01*
X116698676Y-47337140D01*
X116532288Y-47354628D01*
X116532286Y-47354629D01*
X116525288Y-47355364D01*
X116353579Y-47413818D01*
X116347575Y-47417512D01*
X116205095Y-47505166D01*
X116205092Y-47505168D01*
X116199088Y-47508862D01*
X116194053Y-47513793D01*
X116194050Y-47513795D01*
X116079630Y-47625844D01*
X116069493Y-47635771D01*
X115971235Y-47788238D01*
X115968826Y-47794858D01*
X115968824Y-47794861D01*
X115915616Y-47941050D01*
X115909197Y-47958685D01*
X115886463Y-48138640D01*
X115904163Y-48319160D01*
X115961418Y-48491273D01*
X115965065Y-48497295D01*
X115965066Y-48497297D01*
X116047810Y-48633924D01*
X116055380Y-48646424D01*
X116060269Y-48651487D01*
X116060270Y-48651488D01*
X116071602Y-48663222D01*
X116181382Y-48776902D01*
X116333159Y-48876222D01*
X116339763Y-48878678D01*
X116339765Y-48878679D01*
X116496558Y-48936990D01*
X116496560Y-48936990D01*
X116503168Y-48939448D01*
X116582250Y-48950000D01*
X116675980Y-48962507D01*
X116675984Y-48962507D01*
X116682961Y-48963438D01*
X116689972Y-48962800D01*
X116689976Y-48962800D01*
X116832459Y-48949832D01*
X116863600Y-48946998D01*
X116870302Y-48944820D01*
X116870304Y-48944820D01*
X117029409Y-48893124D01*
X117029412Y-48893123D01*
X117036108Y-48890947D01*
X117167635Y-48812541D01*
X117185860Y-48801677D01*
X117185862Y-48801676D01*
X117191912Y-48798069D01*
X117323266Y-48672982D01*
X117328892Y-48664514D01*
X117330430Y-48663222D01*
X117331691Y-48661719D01*
X117331955Y-48661941D01*
X117383250Y-48618845D01*
X117453670Y-48609813D01*
X117517794Y-48640288D01*
X117555262Y-48700592D01*
X117557021Y-48758339D01*
X117556458Y-48760072D01*
X117536496Y-48950000D01*
X117537186Y-48956565D01*
X117553795Y-49114587D01*
X117556458Y-49139928D01*
X117615473Y-49321556D01*
X117710960Y-49486944D01*
X117838747Y-49628866D01*
X117844091Y-49632749D01*
X117848998Y-49637167D01*
X117847422Y-49638917D01*
X117884206Y-49686610D01*
X117890288Y-49757346D01*
X117855890Y-49821429D01*
X115722724Y-51954595D01*
X115660412Y-51988621D01*
X115633629Y-51991500D01*
X113401966Y-51991500D01*
X113359699Y-51984199D01*
X113292424Y-51960243D01*
X113292422Y-51960242D01*
X113285790Y-51957881D01*
X113278802Y-51957048D01*
X113278799Y-51957047D01*
X113155698Y-51942368D01*
X113105680Y-51936404D01*
X113098677Y-51937140D01*
X113098676Y-51937140D01*
X112932288Y-51954628D01*
X112932286Y-51954629D01*
X112925288Y-51955364D01*
X112753579Y-52013818D01*
X112747575Y-52017512D01*
X112605095Y-52105166D01*
X112605092Y-52105168D01*
X112599088Y-52108862D01*
X112594053Y-52113793D01*
X112594050Y-52113795D01*
X112474525Y-52230843D01*
X112469493Y-52235771D01*
X112371235Y-52388238D01*
X112309197Y-52558685D01*
X112286463Y-52738640D01*
X112304163Y-52919160D01*
X112361418Y-53091273D01*
X112455380Y-53246424D01*
X112581382Y-53376902D01*
X112733159Y-53476222D01*
X112739763Y-53478678D01*
X112739765Y-53478679D01*
X112896558Y-53536990D01*
X112896560Y-53536990D01*
X112903168Y-53539448D01*
X112986995Y-53550633D01*
X113075980Y-53562507D01*
X113075984Y-53562507D01*
X113082961Y-53563438D01*
X113089972Y-53562800D01*
X113089976Y-53562800D01*
X113232459Y-53549832D01*
X113263600Y-53546998D01*
X113270302Y-53544820D01*
X113270304Y-53544820D01*
X113363105Y-53514667D01*
X113402041Y-53508500D01*
X115932930Y-53508500D01*
X115951880Y-53509933D01*
X115966115Y-53512099D01*
X115966119Y-53512099D01*
X115973349Y-53513199D01*
X115980641Y-53512606D01*
X115980644Y-53512606D01*
X116026018Y-53508915D01*
X116036233Y-53508500D01*
X116044293Y-53508500D01*
X116057583Y-53506951D01*
X116072507Y-53505211D01*
X116076882Y-53504778D01*
X116142339Y-53499454D01*
X116142342Y-53499453D01*
X116149637Y-53498860D01*
X116156601Y-53496604D01*
X116162560Y-53495413D01*
X116168415Y-53494029D01*
X116175681Y-53493182D01*
X116244327Y-53468265D01*
X116248455Y-53466848D01*
X116310936Y-53446607D01*
X116310938Y-53446606D01*
X116317899Y-53444351D01*
X116324154Y-53440555D01*
X116329628Y-53438049D01*
X116335058Y-53435330D01*
X116341937Y-53432833D01*
X116402976Y-53392814D01*
X116406680Y-53390477D01*
X116469107Y-53352595D01*
X116477484Y-53345197D01*
X116477508Y-53345224D01*
X116480500Y-53342571D01*
X116483733Y-53339868D01*
X116489852Y-53335856D01*
X116543128Y-53279617D01*
X116545506Y-53277175D01*
X121538911Y-48283770D01*
X121553323Y-48271384D01*
X121564918Y-48262851D01*
X121564923Y-48262846D01*
X121570818Y-48258508D01*
X121575557Y-48252930D01*
X121575560Y-48252927D01*
X121605035Y-48218232D01*
X121611965Y-48210716D01*
X121617660Y-48205021D01*
X121635281Y-48182749D01*
X121638072Y-48179345D01*
X121680591Y-48129297D01*
X121680592Y-48129295D01*
X121685333Y-48123715D01*
X121688661Y-48117199D01*
X121692020Y-48112162D01*
X121695194Y-48107023D01*
X121699734Y-48101284D01*
X121730636Y-48035163D01*
X121732569Y-48031209D01*
X121748187Y-48000623D01*
X121765769Y-47966192D01*
X121767509Y-47959080D01*
X121769607Y-47953440D01*
X121771525Y-47947674D01*
X121774621Y-47941050D01*
X121776483Y-47932101D01*
X121789482Y-47869604D01*
X121790453Y-47865315D01*
X121795559Y-47844448D01*
X121807808Y-47794390D01*
X121808500Y-47783236D01*
X121808536Y-47783238D01*
X121808775Y-47779248D01*
X121809150Y-47775050D01*
X121810640Y-47767885D01*
X121808546Y-47690496D01*
X121808500Y-47687088D01*
X121808500Y-42367070D01*
X121809933Y-42348120D01*
X121812099Y-42333885D01*
X121812099Y-42333880D01*
X121813199Y-42326651D01*
X121810078Y-42288273D01*
X121808915Y-42273982D01*
X121808500Y-42263767D01*
X121808500Y-42255707D01*
X121807919Y-42250717D01*
X121805211Y-42227497D01*
X121804778Y-42223121D01*
X121802514Y-42195289D01*
X121798860Y-42150364D01*
X121796605Y-42143403D01*
X121795418Y-42137463D01*
X121794029Y-42131588D01*
X121793182Y-42124319D01*
X121768264Y-42055670D01*
X121766847Y-42051542D01*
X121746607Y-41989064D01*
X121746606Y-41989062D01*
X121744351Y-41982101D01*
X121740555Y-41975846D01*
X121738049Y-41970372D01*
X121735330Y-41964942D01*
X121732833Y-41958063D01*
X121692814Y-41897024D01*
X121690467Y-41893305D01*
X121652595Y-41830893D01*
X121645197Y-41822516D01*
X121645224Y-41822492D01*
X121642571Y-41819500D01*
X121639868Y-41816267D01*
X121635856Y-41810148D01*
X121579617Y-41756872D01*
X121577175Y-41754494D01*
X120245405Y-40422724D01*
X120211379Y-40360412D01*
X120208500Y-40333629D01*
X120208500Y-39626167D01*
X120228502Y-39558046D01*
X120282158Y-39511553D01*
X120323079Y-39500686D01*
X120356579Y-39497637D01*
X120363600Y-39496998D01*
X120370302Y-39494820D01*
X120370304Y-39494820D01*
X120529409Y-39443124D01*
X120529412Y-39443123D01*
X120536108Y-39440947D01*
X120691912Y-39348069D01*
X120823266Y-39222982D01*
X120923643Y-39071902D01*
X120971710Y-38945366D01*
X120985555Y-38908920D01*
X120985556Y-38908918D01*
X120988055Y-38902338D01*
X120989714Y-38890532D01*
X121012748Y-38726639D01*
X121012748Y-38726636D01*
X121013299Y-38722717D01*
X121013616Y-38700000D01*
X120993397Y-38519745D01*
X120972019Y-38458356D01*
X120936064Y-38355106D01*
X120936062Y-38355103D01*
X120933745Y-38348448D01*
X120837626Y-38194624D01*
X120818429Y-38175292D01*
X120711835Y-38067952D01*
X120678028Y-38005521D01*
X120676467Y-37961633D01*
X120688482Y-37876142D01*
X120688483Y-37876132D01*
X120689033Y-37872217D01*
X120689350Y-37849500D01*
X120669131Y-37669245D01*
X120666762Y-37662443D01*
X120611798Y-37504606D01*
X120611796Y-37504603D01*
X120609479Y-37497948D01*
X120578439Y-37448273D01*
X120517093Y-37350098D01*
X120513360Y-37344124D01*
X120508398Y-37339127D01*
X120390512Y-37220415D01*
X120390508Y-37220412D01*
X120385549Y-37215418D01*
X120374431Y-37208362D01*
X120286604Y-37152626D01*
X120232400Y-37118227D01*
X120203197Y-37107828D01*
X120068159Y-37059743D01*
X120068154Y-37059742D01*
X120061524Y-37057381D01*
X120054536Y-37056548D01*
X120054533Y-37056547D01*
X119906631Y-37038911D01*
X119881414Y-37035904D01*
X119874411Y-37036640D01*
X119874410Y-37036640D01*
X119708022Y-37054128D01*
X119708020Y-37054129D01*
X119701022Y-37054864D01*
X119529313Y-37113318D01*
X119374822Y-37208362D01*
X119373632Y-37206427D01*
X119317673Y-37228619D01*
X119248003Y-37214956D01*
X119217009Y-37192246D01*
X119035124Y-37010361D01*
X119001098Y-36948049D01*
X119006163Y-36877234D01*
X119048710Y-36820398D01*
X119072969Y-36806160D01*
X119100717Y-36793805D01*
X119106752Y-36791118D01*
X119134521Y-36770943D01*
X119162157Y-36750864D01*
X119261253Y-36678866D01*
X119270355Y-36668757D01*
X119384621Y-36541852D01*
X119384622Y-36541851D01*
X119389040Y-36536944D01*
X119457336Y-36418652D01*
X119481223Y-36377279D01*
X119481224Y-36377278D01*
X119484527Y-36371556D01*
X119543542Y-36189928D01*
X119555274Y-36078301D01*
X119582287Y-36012645D01*
X119641648Y-35971639D01*
X119729409Y-35943124D01*
X119729412Y-35943123D01*
X119736108Y-35940947D01*
X119841635Y-35878040D01*
X119885860Y-35851677D01*
X119885862Y-35851676D01*
X119891912Y-35848069D01*
X120023266Y-35722982D01*
X120123643Y-35571902D01*
X120166855Y-35458148D01*
X120185555Y-35408920D01*
X120185556Y-35408918D01*
X120188055Y-35402338D01*
X120190616Y-35384116D01*
X120212748Y-35226639D01*
X120212748Y-35226636D01*
X120213299Y-35222717D01*
X120213492Y-35208882D01*
X120213561Y-35203962D01*
X120213561Y-35203957D01*
X120213616Y-35200000D01*
X120193397Y-35019745D01*
X120190124Y-35010345D01*
X120136064Y-34855106D01*
X120136062Y-34855103D01*
X120133745Y-34848448D01*
X120123662Y-34832312D01*
X120041359Y-34700598D01*
X120037626Y-34694624D01*
X120032664Y-34689627D01*
X119914778Y-34570915D01*
X119914774Y-34570912D01*
X119909815Y-34565918D01*
X119898697Y-34558862D01*
X119850538Y-34528300D01*
X119756666Y-34468727D01*
X119710640Y-34452338D01*
X119592425Y-34410243D01*
X119592420Y-34410242D01*
X119585790Y-34407881D01*
X119578802Y-34407048D01*
X119578799Y-34407047D01*
X119455698Y-34392368D01*
X119405680Y-34386404D01*
X119398677Y-34387140D01*
X119398676Y-34387140D01*
X119232288Y-34404628D01*
X119232286Y-34404629D01*
X119225288Y-34405364D01*
X119053579Y-34463818D01*
X119013773Y-34488307D01*
X118905095Y-34555166D01*
X118905092Y-34555168D01*
X118899088Y-34558862D01*
X118894053Y-34563793D01*
X118894050Y-34563795D01*
X118778797Y-34676660D01*
X118769493Y-34685771D01*
X118671235Y-34838238D01*
X118668826Y-34844858D01*
X118668824Y-34844861D01*
X118648145Y-34901677D01*
X118609197Y-35008685D01*
X118609182Y-35008806D01*
X118575092Y-35067939D01*
X118514281Y-35100052D01*
X118367712Y-35131206D01*
X118361682Y-35133891D01*
X118361681Y-35133891D01*
X118199278Y-35206197D01*
X118199276Y-35206198D01*
X118193248Y-35208882D01*
X118187907Y-35212762D01*
X118187906Y-35212763D01*
X118168808Y-35226639D01*
X118038747Y-35321134D01*
X118034326Y-35326044D01*
X118034325Y-35326045D01*
X117925936Y-35446424D01*
X117910960Y-35463056D01*
X117815473Y-35628444D01*
X117788145Y-35712550D01*
X117786207Y-35718515D01*
X117746133Y-35777121D01*
X117680737Y-35804758D01*
X117636428Y-35801969D01*
X117596472Y-35792192D01*
X117590868Y-35791844D01*
X117588118Y-35791426D01*
X117523780Y-35761405D01*
X117517974Y-35755954D01*
X116660956Y-34898936D01*
X116626930Y-34836624D01*
X116631995Y-34765809D01*
X116645103Y-34740114D01*
X116646821Y-34737529D01*
X116723643Y-34621902D01*
X116780394Y-34472506D01*
X116785555Y-34458920D01*
X116785556Y-34458918D01*
X116788055Y-34452338D01*
X116794760Y-34404628D01*
X116812748Y-34276639D01*
X116812748Y-34276636D01*
X116813299Y-34272717D01*
X116813616Y-34250000D01*
X116793397Y-34069745D01*
X116786052Y-34048652D01*
X116736064Y-33905106D01*
X116736062Y-33905103D01*
X116733745Y-33898448D01*
X116717687Y-33872749D01*
X116641359Y-33750598D01*
X116637626Y-33744624D01*
X116592666Y-33699349D01*
X116514778Y-33620915D01*
X116514774Y-33620912D01*
X116509815Y-33615918D01*
X116498697Y-33608862D01*
X116447275Y-33576229D01*
X116356666Y-33518727D01*
X116303069Y-33499642D01*
X116192425Y-33460243D01*
X116192420Y-33460242D01*
X116185790Y-33457881D01*
X116178802Y-33457048D01*
X116178799Y-33457047D01*
X116055698Y-33442368D01*
X116005680Y-33436404D01*
X115998677Y-33437140D01*
X115998676Y-33437140D01*
X115832288Y-33454628D01*
X115832286Y-33454629D01*
X115825288Y-33455364D01*
X115653579Y-33513818D01*
X115504467Y-33605553D01*
X115435966Y-33624211D01*
X115368252Y-33602872D01*
X115349350Y-33587330D01*
X115219561Y-33457541D01*
X115185535Y-33395229D01*
X115182656Y-33368446D01*
X115182656Y-33128767D01*
X115190868Y-33084023D01*
X115209711Y-33034420D01*
X115209712Y-33034418D01*
X115212211Y-33027838D01*
X115218379Y-32983950D01*
X115236904Y-32852139D01*
X115236904Y-32852136D01*
X115237455Y-32848217D01*
X115237772Y-32825500D01*
X115217553Y-32645245D01*
X115214474Y-32636404D01*
X115160220Y-32480606D01*
X115160218Y-32480603D01*
X115157901Y-32473948D01*
X115136343Y-32439448D01*
X115065515Y-32326098D01*
X115061782Y-32320124D01*
X115056820Y-32315127D01*
X114938934Y-32196415D01*
X114938930Y-32196412D01*
X114933971Y-32191418D01*
X114904921Y-32172982D01*
X114870134Y-32150906D01*
X114780822Y-32094227D01*
X114750933Y-32083584D01*
X114725869Y-32074659D01*
X114668404Y-32032965D01*
X114642604Y-31966823D01*
X114656659Y-31897231D01*
X114679040Y-31866865D01*
X114900500Y-31645405D01*
X114962812Y-31611379D01*
X114989595Y-31608500D01*
X115045487Y-31608500D01*
X115051939Y-31607128D01*
X115051944Y-31607128D01*
X115157729Y-31584642D01*
X115232288Y-31568794D01*
X115238315Y-31566111D01*
X115238323Y-31566108D01*
X115364252Y-31510041D01*
X115434619Y-31500607D01*
X115498916Y-31530714D01*
X115536729Y-31590803D01*
X115541500Y-31625148D01*
X115541500Y-32123134D01*
X115548255Y-32185316D01*
X115599385Y-32321705D01*
X115686739Y-32438261D01*
X115803295Y-32525615D01*
X115939684Y-32576745D01*
X116001866Y-32583500D01*
X117098134Y-32583500D01*
X117160316Y-32576745D01*
X117296705Y-32525615D01*
X117303892Y-32520229D01*
X117311760Y-32515921D01*
X117312891Y-32517987D01*
X117367418Y-32497618D01*
X117415408Y-32503459D01*
X117548769Y-32546790D01*
X117562867Y-32547193D01*
X117566000Y-32540821D01*
X117566000Y-32532564D01*
X118074000Y-32532564D01*
X118077973Y-32546095D01*
X118086188Y-32547276D01*
X118180337Y-32520989D01*
X118191787Y-32516548D01*
X118357224Y-32432980D01*
X118367589Y-32426402D01*
X118376503Y-32419438D01*
X118442497Y-32393261D01*
X118515545Y-32408740D01*
X118679116Y-32500156D01*
X118690356Y-32505067D01*
X118818768Y-32546790D01*
X118832867Y-32547193D01*
X118836000Y-32540821D01*
X118836000Y-31847115D01*
X118831525Y-31831876D01*
X118830135Y-31830671D01*
X118822452Y-31829000D01*
X118092115Y-31829000D01*
X118076876Y-31833475D01*
X118075671Y-31834865D01*
X118074000Y-31842548D01*
X118074000Y-32532564D01*
X117566000Y-32532564D01*
X117566000Y-31447000D01*
X117586002Y-31378879D01*
X117639658Y-31332386D01*
X117692000Y-31321000D01*
X119218000Y-31321000D01*
X119286121Y-31341002D01*
X119332614Y-31394658D01*
X119344000Y-31447000D01*
X119344000Y-32532564D01*
X119347973Y-32546095D01*
X119356188Y-32547276D01*
X119450337Y-32520989D01*
X119461787Y-32516548D01*
X119627226Y-32432979D01*
X119637588Y-32426403D01*
X119646074Y-32419773D01*
X119712068Y-32393595D01*
X119785117Y-32409074D01*
X119954294Y-32503624D01*
X120142392Y-32564740D01*
X120338777Y-32588158D01*
X120344912Y-32587686D01*
X120344914Y-32587686D01*
X120529830Y-32573457D01*
X120529834Y-32573456D01*
X120535972Y-32572984D01*
X120726463Y-32519798D01*
X120731967Y-32517018D01*
X120731969Y-32517017D01*
X120897493Y-32433405D01*
X120897495Y-32433404D01*
X120902996Y-32430625D01*
X120908402Y-32426402D01*
X120916973Y-32419705D01*
X120982967Y-32393525D01*
X121056020Y-32409004D01*
X121219121Y-32500159D01*
X121230356Y-32505067D01*
X121358768Y-32546790D01*
X121372867Y-32547193D01*
X121376000Y-32540821D01*
X121376000Y-31447000D01*
X121396002Y-31378879D01*
X121449658Y-31332386D01*
X121502000Y-31321000D01*
X121758000Y-31321000D01*
X121826121Y-31341002D01*
X121872614Y-31394658D01*
X121884000Y-31447000D01*
X121884000Y-32532564D01*
X121887973Y-32546095D01*
X121896188Y-32547276D01*
X121990337Y-32520989D01*
X122001787Y-32516548D01*
X122167226Y-32432979D01*
X122177585Y-32426404D01*
X122323639Y-32312295D01*
X122332527Y-32303831D01*
X122453645Y-32163515D01*
X122462539Y-32150906D01*
X122518150Y-32106771D01*
X122588794Y-32099707D01*
X122652043Y-32131958D01*
X122687815Y-32193284D01*
X122691500Y-32223535D01*
X122691500Y-63963162D01*
X122671498Y-64031283D01*
X122617842Y-64077776D01*
X122565653Y-64089162D01*
X105110054Y-64110398D01*
X82334651Y-64138105D01*
X82266508Y-64118187D01*
X82219950Y-64064588D01*
X82208500Y-64012106D01*
X82208500Y-44238640D01*
X97386463Y-44238640D01*
X97404163Y-44419160D01*
X97461418Y-44591273D01*
X97465065Y-44597295D01*
X97465066Y-44597297D01*
X97551700Y-44740347D01*
X97555380Y-44746424D01*
X97560269Y-44751487D01*
X97560270Y-44751488D01*
X97622674Y-44816109D01*
X97681382Y-44876902D01*
X97732375Y-44910271D01*
X97793088Y-44950000D01*
X97833159Y-44976222D01*
X97839763Y-44978678D01*
X97839765Y-44978679D01*
X97996558Y-45036990D01*
X97996560Y-45036990D01*
X98003168Y-45039448D01*
X98086995Y-45050633D01*
X98175980Y-45062507D01*
X98175984Y-45062507D01*
X98182961Y-45063438D01*
X98189972Y-45062800D01*
X98189976Y-45062800D01*
X98332459Y-45049832D01*
X98363600Y-45046998D01*
X98370302Y-45044820D01*
X98370304Y-45044820D01*
X98529409Y-44993124D01*
X98529412Y-44993123D01*
X98536108Y-44990947D01*
X98691912Y-44898069D01*
X98823266Y-44772982D01*
X98923643Y-44621902D01*
X98974909Y-44486944D01*
X98985555Y-44458920D01*
X98985556Y-44458918D01*
X98988055Y-44452338D01*
X98989035Y-44445366D01*
X99012748Y-44276639D01*
X99012748Y-44276636D01*
X99013299Y-44272717D01*
X99013616Y-44250000D01*
X98993397Y-44069745D01*
X98990340Y-44060966D01*
X98936064Y-43905106D01*
X98936062Y-43905103D01*
X98933745Y-43898448D01*
X98923662Y-43882312D01*
X98841359Y-43750598D01*
X98837626Y-43744624D01*
X98832664Y-43739627D01*
X98714778Y-43620915D01*
X98714774Y-43620912D01*
X98709815Y-43615918D01*
X98698697Y-43608862D01*
X98593184Y-43541902D01*
X98556666Y-43518727D01*
X98527463Y-43508328D01*
X98392425Y-43460243D01*
X98392420Y-43460242D01*
X98385790Y-43457881D01*
X98378802Y-43457048D01*
X98378799Y-43457047D01*
X98255698Y-43442368D01*
X98205680Y-43436404D01*
X98198677Y-43437140D01*
X98198676Y-43437140D01*
X98032288Y-43454628D01*
X98032286Y-43454629D01*
X98025288Y-43455364D01*
X97853579Y-43513818D01*
X97847575Y-43517512D01*
X97705095Y-43605166D01*
X97705092Y-43605168D01*
X97699088Y-43608862D01*
X97694053Y-43613793D01*
X97694050Y-43613795D01*
X97574525Y-43730843D01*
X97569493Y-43735771D01*
X97471235Y-43888238D01*
X97468826Y-43894858D01*
X97468824Y-43894861D01*
X97448755Y-43950000D01*
X97409197Y-44058685D01*
X97386463Y-44238640D01*
X82208500Y-44238640D01*
X82208500Y-29707695D01*
X82544251Y-29707695D01*
X82544548Y-29712848D01*
X82544548Y-29712851D01*
X82553047Y-29860243D01*
X82557110Y-29930715D01*
X82558247Y-29935761D01*
X82558248Y-29935767D01*
X82576612Y-30017251D01*
X82606222Y-30148639D01*
X82658315Y-30276930D01*
X82683653Y-30339329D01*
X82690266Y-30355616D01*
X82737392Y-30432519D01*
X82753427Y-30458685D01*
X82806987Y-30546088D01*
X82953250Y-30714938D01*
X82957230Y-30718242D01*
X82961981Y-30722187D01*
X83001616Y-30781090D01*
X83003113Y-30852071D01*
X82965997Y-30912593D01*
X82925725Y-30937112D01*
X82856352Y-30963119D01*
X82810295Y-30980385D01*
X82693739Y-31067739D01*
X82606385Y-31184295D01*
X82555255Y-31320684D01*
X82548500Y-31382866D01*
X82548500Y-33179134D01*
X82555255Y-33241316D01*
X82606385Y-33377705D01*
X82693739Y-33494261D01*
X82810295Y-33581615D01*
X82946684Y-33632745D01*
X83008866Y-33639500D01*
X84805134Y-33639500D01*
X84867316Y-33632745D01*
X85003705Y-33581615D01*
X85120261Y-33494261D01*
X85207615Y-33377705D01*
X85258745Y-33241316D01*
X85265500Y-33179134D01*
X85265500Y-31382866D01*
X85258745Y-31320684D01*
X85207615Y-31184295D01*
X85120261Y-31067739D01*
X85003705Y-30980385D01*
X84991132Y-30975672D01*
X84885203Y-30935960D01*
X84828439Y-30893318D01*
X84803739Y-30826756D01*
X84818947Y-30757408D01*
X84840493Y-30728727D01*
X84851015Y-30718242D01*
X84945096Y-30624489D01*
X84954767Y-30611031D01*
X85072435Y-30447277D01*
X85075453Y-30443077D01*
X85110388Y-30372392D01*
X85172136Y-30247453D01*
X85172137Y-30247451D01*
X85174430Y-30242811D01*
X85220806Y-30090169D01*
X85237865Y-30034023D01*
X85237865Y-30034021D01*
X85239370Y-30029069D01*
X85268529Y-29807590D01*
X85269513Y-29767328D01*
X85270074Y-29744365D01*
X85270074Y-29744361D01*
X85270156Y-29741000D01*
X85251852Y-29518361D01*
X85197431Y-29301702D01*
X85108354Y-29096840D01*
X85022265Y-28963767D01*
X84989822Y-28913617D01*
X84989820Y-28913614D01*
X84987014Y-28909277D01*
X84836670Y-28744051D01*
X84832619Y-28740852D01*
X84832615Y-28740848D01*
X84665414Y-28608800D01*
X84665410Y-28608798D01*
X84661359Y-28605598D01*
X84620053Y-28582796D01*
X84570084Y-28532364D01*
X84555312Y-28462921D01*
X84580428Y-28396516D01*
X84607780Y-28369909D01*
X84672746Y-28323569D01*
X84786860Y-28242173D01*
X84852935Y-28176329D01*
X84926687Y-28102834D01*
X84945096Y-28084489D01*
X84956981Y-28067950D01*
X85072435Y-27907277D01*
X85075453Y-27903077D01*
X85080011Y-27893856D01*
X85172136Y-27707453D01*
X85172137Y-27707451D01*
X85174430Y-27702811D01*
X85216839Y-27563228D01*
X85237865Y-27494023D01*
X85237865Y-27494021D01*
X85239370Y-27489069D01*
X85268529Y-27267590D01*
X85268611Y-27264240D01*
X85270074Y-27204365D01*
X85270074Y-27204361D01*
X85270156Y-27201000D01*
X85251852Y-26978361D01*
X85197431Y-26761702D01*
X85108354Y-26556840D01*
X85043144Y-26456041D01*
X84989822Y-26373617D01*
X84989820Y-26373614D01*
X84987014Y-26369277D01*
X84836670Y-26204051D01*
X84832619Y-26200852D01*
X84832615Y-26200848D01*
X84665414Y-26068800D01*
X84665410Y-26068798D01*
X84661359Y-26065598D01*
X84465789Y-25957638D01*
X84460920Y-25955914D01*
X84460916Y-25955912D01*
X84260087Y-25884795D01*
X84260083Y-25884794D01*
X84255212Y-25883069D01*
X84250119Y-25882162D01*
X84250116Y-25882161D01*
X84040373Y-25844800D01*
X84040367Y-25844799D01*
X84035284Y-25843894D01*
X83961452Y-25842992D01*
X83817081Y-25841228D01*
X83817079Y-25841228D01*
X83811911Y-25841165D01*
X83591091Y-25874955D01*
X83378756Y-25944357D01*
X83180607Y-26047507D01*
X83176474Y-26050610D01*
X83176471Y-26050612D01*
X83006100Y-26178530D01*
X83001965Y-26181635D01*
X82847629Y-26343138D01*
X82844715Y-26347410D01*
X82844714Y-26347411D01*
X82776508Y-26447397D01*
X82721743Y-26527680D01*
X82627688Y-26730305D01*
X82567989Y-26945570D01*
X82544251Y-27167695D01*
X82544548Y-27172848D01*
X82544548Y-27172851D01*
X82556200Y-27374941D01*
X82557110Y-27390715D01*
X82558247Y-27395761D01*
X82558248Y-27395767D01*
X82576683Y-27477566D01*
X82606222Y-27608639D01*
X82690266Y-27815616D01*
X82692965Y-27820020D01*
X82777939Y-27958685D01*
X82806987Y-28006088D01*
X82953250Y-28174938D01*
X83125126Y-28317632D01*
X83195595Y-28358811D01*
X83198445Y-28360476D01*
X83247169Y-28412114D01*
X83260240Y-28481897D01*
X83233509Y-28547669D01*
X83193055Y-28581027D01*
X83180607Y-28587507D01*
X83176474Y-28590610D01*
X83176471Y-28590612D01*
X83025840Y-28703709D01*
X83001965Y-28721635D01*
X82998393Y-28725373D01*
X82876624Y-28852797D01*
X82847629Y-28883138D01*
X82844715Y-28887410D01*
X82844714Y-28887411D01*
X82785320Y-28974480D01*
X82721743Y-29067680D01*
X82706094Y-29101394D01*
X82633422Y-29257953D01*
X82627688Y-29270305D01*
X82567989Y-29485570D01*
X82544251Y-29707695D01*
X82208500Y-29707695D01*
X82208500Y-24738640D01*
X86433962Y-24738640D01*
X86451662Y-24919160D01*
X86508917Y-25091273D01*
X86512564Y-25097295D01*
X86512565Y-25097297D01*
X86599210Y-25240365D01*
X86602879Y-25246424D01*
X86607768Y-25251487D01*
X86607769Y-25251488D01*
X86649126Y-25294314D01*
X86728881Y-25376902D01*
X86781314Y-25411213D01*
X86853859Y-25458685D01*
X86880658Y-25476222D01*
X86887262Y-25478678D01*
X86887264Y-25478679D01*
X87044057Y-25536990D01*
X87044059Y-25536990D01*
X87050667Y-25539448D01*
X87134494Y-25550633D01*
X87223479Y-25562507D01*
X87223483Y-25562507D01*
X87230460Y-25563438D01*
X87237471Y-25562800D01*
X87237475Y-25562800D01*
X87388354Y-25549068D01*
X87411099Y-25546998D01*
X87417801Y-25544820D01*
X87417803Y-25544820D01*
X87576908Y-25493124D01*
X87576911Y-25493123D01*
X87583607Y-25490947D01*
X87739411Y-25398069D01*
X87870765Y-25272982D01*
X87971142Y-25121902D01*
X88035554Y-24952338D01*
X88036534Y-24945366D01*
X88060247Y-24776639D01*
X88060247Y-24776636D01*
X88060798Y-24772717D01*
X88061115Y-24750000D01*
X88040896Y-24569745D01*
X88038579Y-24563091D01*
X87983563Y-24405106D01*
X87983561Y-24405103D01*
X87981244Y-24398448D01*
X87885125Y-24244624D01*
X87880163Y-24239627D01*
X87762277Y-24120915D01*
X87762273Y-24120912D01*
X87757314Y-24115918D01*
X87748035Y-24110029D01*
X87678466Y-24065880D01*
X87604165Y-24018727D01*
X87534114Y-23993783D01*
X87439924Y-23960243D01*
X87439919Y-23960242D01*
X87433289Y-23957881D01*
X87426301Y-23957048D01*
X87426298Y-23957047D01*
X87303197Y-23942368D01*
X87253179Y-23936404D01*
X87246176Y-23937140D01*
X87246175Y-23937140D01*
X87079787Y-23954628D01*
X87079785Y-23954629D01*
X87072787Y-23955364D01*
X86901078Y-24013818D01*
X86867262Y-24034622D01*
X86752594Y-24105166D01*
X86752591Y-24105168D01*
X86746587Y-24108862D01*
X86741552Y-24113793D01*
X86741549Y-24113795D01*
X86682426Y-24171693D01*
X86616992Y-24235771D01*
X86518734Y-24388238D01*
X86516325Y-24394858D01*
X86516323Y-24394861D01*
X86461742Y-24544820D01*
X86456696Y-24558685D01*
X86433962Y-24738640D01*
X82208500Y-24738640D01*
X82208500Y-23738640D01*
X100886463Y-23738640D01*
X100904163Y-23919160D01*
X100961418Y-24091273D01*
X100965065Y-24097295D01*
X100965066Y-24097297D01*
X101051264Y-24239627D01*
X101055380Y-24246424D01*
X101060269Y-24251487D01*
X101060270Y-24251488D01*
X101104508Y-24297297D01*
X101181382Y-24376902D01*
X101243410Y-24417492D01*
X101306661Y-24458882D01*
X101333159Y-24476222D01*
X101339763Y-24478678D01*
X101339765Y-24478679D01*
X101496558Y-24536990D01*
X101496560Y-24536990D01*
X101503168Y-24539448D01*
X101586995Y-24550633D01*
X101675980Y-24562507D01*
X101675984Y-24562507D01*
X101682961Y-24563438D01*
X101689972Y-24562800D01*
X101689976Y-24562800D01*
X101832459Y-24549832D01*
X101863600Y-24546998D01*
X101870302Y-24544820D01*
X101870304Y-24544820D01*
X102029409Y-24493124D01*
X102029412Y-24493123D01*
X102036108Y-24490947D01*
X102110994Y-24446306D01*
X103240241Y-24446306D01*
X103255548Y-24602422D01*
X103258459Y-24616116D01*
X103307972Y-24764958D01*
X103313848Y-24777675D01*
X103315077Y-24779705D01*
X103315469Y-24781183D01*
X103316802Y-24784069D01*
X103316295Y-24784303D01*
X103318369Y-24792130D01*
X103342485Y-24754605D01*
X103634278Y-24462812D01*
X103640656Y-24451132D01*
X104370708Y-24451132D01*
X104370839Y-24452965D01*
X104375090Y-24459580D01*
X104387188Y-24471678D01*
X104401132Y-24479292D01*
X104402965Y-24479161D01*
X104409580Y-24474910D01*
X104421678Y-24462812D01*
X104428056Y-24451132D01*
X105158108Y-24451132D01*
X105158239Y-24452965D01*
X105162490Y-24459580D01*
X105457515Y-24754605D01*
X105478187Y-24792463D01*
X105482293Y-24779810D01*
X105486480Y-24772196D01*
X105533931Y-24647283D01*
X105537411Y-24633729D01*
X105559672Y-24475334D01*
X105560278Y-24467450D01*
X105560467Y-24453962D01*
X105560080Y-24446061D01*
X105542251Y-24287111D01*
X105539149Y-24273458D01*
X105487556Y-24125304D01*
X105480244Y-24110029D01*
X105457515Y-24145395D01*
X105165722Y-24437188D01*
X105158108Y-24451132D01*
X104428056Y-24451132D01*
X104429292Y-24448868D01*
X104429161Y-24447035D01*
X104424910Y-24440420D01*
X104412812Y-24428322D01*
X104398868Y-24420708D01*
X104397035Y-24420839D01*
X104390420Y-24425090D01*
X104378322Y-24437188D01*
X104370708Y-24451132D01*
X103640656Y-24451132D01*
X103641892Y-24448868D01*
X103641761Y-24447035D01*
X103637510Y-24440420D01*
X103342485Y-24145395D01*
X103321132Y-24106291D01*
X103318128Y-24117527D01*
X103312728Y-24127510D01*
X103263388Y-24263069D01*
X103260096Y-24276678D01*
X103240437Y-24432299D01*
X103240241Y-24446306D01*
X102110994Y-24446306D01*
X102179180Y-24405659D01*
X102185860Y-24401677D01*
X102185862Y-24401676D01*
X102191912Y-24398069D01*
X102323266Y-24272982D01*
X102423643Y-24121902D01*
X102448133Y-24057432D01*
X103977008Y-24057432D01*
X103977139Y-24059265D01*
X103981390Y-24065880D01*
X103993488Y-24077978D01*
X104007432Y-24085592D01*
X104009265Y-24085461D01*
X104015880Y-24081210D01*
X104027978Y-24069112D01*
X104034356Y-24057432D01*
X104764408Y-24057432D01*
X104764539Y-24059265D01*
X104768790Y-24065880D01*
X104780888Y-24077978D01*
X104794832Y-24085592D01*
X104796665Y-24085461D01*
X104803280Y-24081210D01*
X104815378Y-24069112D01*
X104822992Y-24055168D01*
X104822861Y-24053335D01*
X104818610Y-24046720D01*
X104806512Y-24034622D01*
X104792568Y-24027008D01*
X104790735Y-24027139D01*
X104784120Y-24031390D01*
X104772022Y-24043488D01*
X104764408Y-24057432D01*
X104034356Y-24057432D01*
X104035592Y-24055168D01*
X104035461Y-24053335D01*
X104031210Y-24046720D01*
X104019112Y-24034622D01*
X104005168Y-24027008D01*
X104003335Y-24027139D01*
X103996720Y-24031390D01*
X103984622Y-24043488D01*
X103977008Y-24057432D01*
X102448133Y-24057432D01*
X102478475Y-23977558D01*
X102485555Y-23958920D01*
X102485556Y-23958918D01*
X102488055Y-23952338D01*
X102490191Y-23937140D01*
X102512748Y-23776639D01*
X102512748Y-23776636D01*
X102513299Y-23772717D01*
X102513495Y-23758685D01*
X102513561Y-23753962D01*
X102513561Y-23753957D01*
X102513616Y-23750000D01*
X102513174Y-23746057D01*
X102510649Y-23723543D01*
X102522934Y-23653618D01*
X102571074Y-23601434D01*
X102635864Y-23583500D01*
X103118597Y-23583500D01*
X103186718Y-23603502D01*
X103233211Y-23657158D01*
X103243996Y-23697205D01*
X103255548Y-23815022D01*
X103258459Y-23828716D01*
X103307972Y-23977558D01*
X103313848Y-23990275D01*
X103315077Y-23992305D01*
X103315469Y-23993783D01*
X103316802Y-23996669D01*
X103316295Y-23996903D01*
X103318369Y-24004730D01*
X103342485Y-23967205D01*
X103645958Y-23663732D01*
X104370708Y-23663732D01*
X104370839Y-23665565D01*
X104375090Y-23672180D01*
X104387188Y-23684278D01*
X104401132Y-23691892D01*
X104402965Y-23691761D01*
X104409580Y-23687510D01*
X104421678Y-23675412D01*
X104428056Y-23663732D01*
X105158108Y-23663732D01*
X105158239Y-23665565D01*
X105162490Y-23672180D01*
X105457515Y-23967205D01*
X105478187Y-24005063D01*
X105482293Y-23992410D01*
X105486480Y-23984796D01*
X105533931Y-23859883D01*
X105537411Y-23846329D01*
X105559672Y-23687934D01*
X105560278Y-23680050D01*
X105560467Y-23666562D01*
X105560080Y-23658661D01*
X105542251Y-23499711D01*
X105539149Y-23486058D01*
X105488555Y-23340773D01*
X105483916Y-23336643D01*
X105474889Y-23340621D01*
X105165722Y-23649788D01*
X105158108Y-23663732D01*
X104428056Y-23663732D01*
X104429292Y-23661468D01*
X104429161Y-23659635D01*
X104424910Y-23653020D01*
X104412812Y-23640922D01*
X104398868Y-23633308D01*
X104397035Y-23633439D01*
X104390420Y-23637690D01*
X104378322Y-23649788D01*
X104370708Y-23663732D01*
X103645958Y-23663732D01*
X104310905Y-22998785D01*
X104373217Y-22964759D01*
X104444032Y-22969824D01*
X104489095Y-22998785D01*
X104780888Y-23290578D01*
X104794832Y-23298192D01*
X104796665Y-23298061D01*
X104803280Y-23293810D01*
X105112507Y-22984583D01*
X105120122Y-22970638D01*
X105119968Y-22968488D01*
X105135060Y-22899114D01*
X105185262Y-22848912D01*
X105245647Y-22833500D01*
X105830311Y-22833500D01*
X105899304Y-22854068D01*
X105933159Y-22876222D01*
X105939763Y-22878678D01*
X105939765Y-22878679D01*
X106096558Y-22936990D01*
X106096560Y-22936990D01*
X106103168Y-22939448D01*
X106186995Y-22950633D01*
X106275980Y-22962507D01*
X106275984Y-22962507D01*
X106282961Y-22963438D01*
X106289972Y-22962800D01*
X106289976Y-22962800D01*
X106432459Y-22949832D01*
X106463600Y-22946998D01*
X106470302Y-22944820D01*
X106470304Y-22944820D01*
X106629409Y-22893124D01*
X106629412Y-22893123D01*
X106636108Y-22890947D01*
X106791912Y-22798069D01*
X106923266Y-22672982D01*
X107023643Y-22521902D01*
X107088055Y-22352338D01*
X107089035Y-22345366D01*
X107112748Y-22176639D01*
X107112748Y-22176636D01*
X107113299Y-22172717D01*
X107113616Y-22150000D01*
X107093397Y-21969745D01*
X107089756Y-21959289D01*
X107036064Y-21805106D01*
X107036062Y-21805103D01*
X107033745Y-21798448D01*
X106937626Y-21644624D01*
X106930911Y-21637862D01*
X106814778Y-21520915D01*
X106814774Y-21520912D01*
X106809815Y-21515918D01*
X106799964Y-21509666D01*
X106732920Y-21467119D01*
X106656666Y-21418727D01*
X106627463Y-21408328D01*
X106492425Y-21360243D01*
X106492420Y-21360242D01*
X106485790Y-21357881D01*
X106478802Y-21357048D01*
X106478799Y-21357047D01*
X106355698Y-21342368D01*
X106305680Y-21336404D01*
X106298677Y-21337140D01*
X106298676Y-21337140D01*
X106132288Y-21354628D01*
X106132286Y-21354629D01*
X106125288Y-21355364D01*
X105953579Y-21413818D01*
X105895579Y-21449500D01*
X105805096Y-21505166D01*
X105799088Y-21508862D01*
X105794058Y-21513787D01*
X105794055Y-21513790D01*
X105776966Y-21530525D01*
X105714300Y-21563895D01*
X105688809Y-21566500D01*
X104149521Y-21566500D01*
X104138338Y-21565973D01*
X104130845Y-21564298D01*
X104122919Y-21564547D01*
X104122918Y-21564547D01*
X104062768Y-21566438D01*
X104058809Y-21566500D01*
X104030898Y-21566500D01*
X104026964Y-21566997D01*
X104026963Y-21566997D01*
X104026898Y-21567005D01*
X104015061Y-21567938D01*
X103983244Y-21568938D01*
X103978783Y-21569078D01*
X103970864Y-21569327D01*
X103953208Y-21574456D01*
X103951412Y-21574978D01*
X103932060Y-21578986D01*
X103924989Y-21579880D01*
X103911957Y-21581526D01*
X103904588Y-21584443D01*
X103904586Y-21584444D01*
X103870851Y-21597800D01*
X103859623Y-21601645D01*
X103817161Y-21613982D01*
X103810339Y-21618016D01*
X103810333Y-21618019D01*
X103799722Y-21624294D01*
X103781972Y-21632990D01*
X103770510Y-21637528D01*
X103770505Y-21637531D01*
X103763137Y-21640448D01*
X103747460Y-21651838D01*
X103727379Y-21666427D01*
X103717461Y-21672943D01*
X103698773Y-21683995D01*
X103679391Y-21695458D01*
X103665067Y-21709782D01*
X103650035Y-21722621D01*
X103633647Y-21734528D01*
X103612794Y-21759735D01*
X103605466Y-21768593D01*
X103597476Y-21777373D01*
X103095254Y-22279595D01*
X103032942Y-22313621D01*
X103006159Y-22316500D01*
X102638038Y-22316500D01*
X102569917Y-22296498D01*
X102523424Y-22242842D01*
X102514412Y-22180736D01*
X102512444Y-22180585D01*
X102512748Y-22176639D01*
X102513299Y-22172717D01*
X102513616Y-22150000D01*
X102493397Y-21969745D01*
X102489756Y-21959289D01*
X102436064Y-21805106D01*
X102436062Y-21805103D01*
X102433745Y-21798448D01*
X102337626Y-21644624D01*
X102330911Y-21637862D01*
X102214778Y-21520915D01*
X102214774Y-21520912D01*
X102209815Y-21515918D01*
X102199964Y-21509666D01*
X102132920Y-21467119D01*
X102056666Y-21418727D01*
X102027463Y-21408328D01*
X101892425Y-21360243D01*
X101892420Y-21360242D01*
X101885790Y-21357881D01*
X101878802Y-21357048D01*
X101878799Y-21357047D01*
X101755698Y-21342368D01*
X101705680Y-21336404D01*
X101698677Y-21337140D01*
X101698676Y-21337140D01*
X101532288Y-21354628D01*
X101532286Y-21354629D01*
X101525288Y-21355364D01*
X101353579Y-21413818D01*
X101295579Y-21449500D01*
X101205095Y-21505166D01*
X101205092Y-21505168D01*
X101199088Y-21508862D01*
X101194056Y-21513790D01*
X101194050Y-21513795D01*
X101076059Y-21629341D01*
X101069493Y-21635771D01*
X100971235Y-21788238D01*
X100968826Y-21794858D01*
X100968824Y-21794861D01*
X100911606Y-21952066D01*
X100909197Y-21958685D01*
X100886463Y-22138640D01*
X100904163Y-22319160D01*
X100961418Y-22491273D01*
X100965071Y-22497305D01*
X100965249Y-22497690D01*
X100975665Y-22567919D01*
X100969270Y-22593637D01*
X100911817Y-22751488D01*
X100909197Y-22758685D01*
X100886463Y-22938640D01*
X100904163Y-23119160D01*
X100961418Y-23291273D01*
X100965071Y-23297305D01*
X100965249Y-23297690D01*
X100975665Y-23367919D01*
X100969270Y-23393636D01*
X100909197Y-23558685D01*
X100886463Y-23738640D01*
X82208500Y-23738640D01*
X82208500Y-21200000D01*
X91036496Y-21200000D01*
X91037186Y-21206565D01*
X91053011Y-21357128D01*
X91056458Y-21389928D01*
X91115473Y-21571556D01*
X91118776Y-21577278D01*
X91118777Y-21577279D01*
X91119763Y-21578986D01*
X91210960Y-21736944D01*
X91215378Y-21741851D01*
X91215379Y-21741852D01*
X91264852Y-21796797D01*
X91338747Y-21878866D01*
X91493248Y-21991118D01*
X91499276Y-21993802D01*
X91499278Y-21993803D01*
X91661681Y-22066109D01*
X91667712Y-22068794D01*
X91761112Y-22088647D01*
X91848056Y-22107128D01*
X91848061Y-22107128D01*
X91854513Y-22108500D01*
X92045487Y-22108500D01*
X92051939Y-22107128D01*
X92051944Y-22107128D01*
X92138888Y-22088647D01*
X92232288Y-22068794D01*
X92238319Y-22066109D01*
X92400722Y-21993803D01*
X92400724Y-21993802D01*
X92406752Y-21991118D01*
X92561253Y-21878866D01*
X92635148Y-21796797D01*
X92684621Y-21741852D01*
X92684622Y-21741851D01*
X92689040Y-21736944D01*
X92710203Y-21700289D01*
X92761585Y-21651297D01*
X92831299Y-21637862D01*
X92897210Y-21664249D01*
X92938879Y-21723519D01*
X92961418Y-21791273D01*
X92965065Y-21797295D01*
X92965066Y-21797297D01*
X93050582Y-21938501D01*
X93055380Y-21946424D01*
X93060269Y-21951487D01*
X93060270Y-21951488D01*
X93077029Y-21968842D01*
X93181382Y-22076902D01*
X93229131Y-22108148D01*
X93293088Y-22150000D01*
X93333159Y-22176222D01*
X93339763Y-22178678D01*
X93339765Y-22178679D01*
X93496558Y-22236990D01*
X93496560Y-22236990D01*
X93503168Y-22239448D01*
X93582250Y-22250000D01*
X93675980Y-22262507D01*
X93675984Y-22262507D01*
X93682961Y-22263438D01*
X93689972Y-22262800D01*
X93689976Y-22262800D01*
X93832459Y-22249832D01*
X93863600Y-22246998D01*
X93870302Y-22244820D01*
X93870304Y-22244820D01*
X94029409Y-22193124D01*
X94029412Y-22193123D01*
X94036108Y-22190947D01*
X94144603Y-22126271D01*
X94209120Y-22108500D01*
X97117944Y-22108500D01*
X97129800Y-22109059D01*
X97129803Y-22109059D01*
X97137537Y-22110788D01*
X97208369Y-22108562D01*
X97212327Y-22108500D01*
X97241432Y-22108500D01*
X97245832Y-22107944D01*
X97257664Y-22107012D01*
X97303831Y-22105562D01*
X97324421Y-22099580D01*
X97343782Y-22095570D01*
X97350770Y-22094688D01*
X97357204Y-22093875D01*
X97357205Y-22093875D01*
X97365064Y-22092882D01*
X97372429Y-22089966D01*
X97372433Y-22089965D01*
X97408021Y-22075874D01*
X97419231Y-22072035D01*
X97463600Y-22059145D01*
X97482065Y-22048225D01*
X97499805Y-22039534D01*
X97519756Y-22031635D01*
X97557129Y-22004482D01*
X97567048Y-21997967D01*
X97599977Y-21978493D01*
X97599981Y-21978490D01*
X97606807Y-21974453D01*
X97621971Y-21959289D01*
X97637005Y-21946448D01*
X97647943Y-21938501D01*
X97654357Y-21933841D01*
X97683803Y-21898247D01*
X97691792Y-21889468D01*
X98085180Y-21496080D01*
X98147492Y-21462054D01*
X98218307Y-21467119D01*
X98275143Y-21509666D01*
X98299674Y-21572879D01*
X98300151Y-21577744D01*
X98304163Y-21618660D01*
X98361418Y-21790773D01*
X98365065Y-21796795D01*
X98365066Y-21796797D01*
X98420896Y-21888984D01*
X98439075Y-21957614D01*
X98431521Y-21997349D01*
X98414840Y-22043181D01*
X98409197Y-22058685D01*
X98386463Y-22238640D01*
X98404163Y-22419160D01*
X98461418Y-22591273D01*
X98465065Y-22597295D01*
X98465066Y-22597297D01*
X98507347Y-22667111D01*
X98555380Y-22746424D01*
X98560269Y-22751487D01*
X98560270Y-22751488D01*
X98637121Y-22831068D01*
X98681382Y-22876902D01*
X98687278Y-22880760D01*
X98824626Y-22970638D01*
X98833159Y-22976222D01*
X98839763Y-22978678D01*
X98839765Y-22978679D01*
X98996558Y-23036990D01*
X98996560Y-23036990D01*
X99003168Y-23039448D01*
X99086995Y-23050633D01*
X99175980Y-23062507D01*
X99175984Y-23062507D01*
X99182961Y-23063438D01*
X99189972Y-23062800D01*
X99189976Y-23062800D01*
X99332459Y-23049832D01*
X99363600Y-23046998D01*
X99370302Y-23044820D01*
X99370304Y-23044820D01*
X99529409Y-22993124D01*
X99529412Y-22993123D01*
X99536108Y-22990947D01*
X99691912Y-22898069D01*
X99823266Y-22772982D01*
X99923643Y-22621902D01*
X99988055Y-22452338D01*
X99989035Y-22445366D01*
X100012748Y-22276639D01*
X100012748Y-22276636D01*
X100013299Y-22272717D01*
X100013616Y-22250000D01*
X99993397Y-22069745D01*
X99989546Y-22058685D01*
X99954349Y-21957614D01*
X99933745Y-21898448D01*
X99880213Y-21812778D01*
X99861077Y-21744410D01*
X99869279Y-21701265D01*
X99885555Y-21658420D01*
X99885556Y-21658417D01*
X99888055Y-21651838D01*
X99891217Y-21629341D01*
X99912748Y-21476139D01*
X99912748Y-21476136D01*
X99913299Y-21472217D01*
X99913616Y-21449500D01*
X99913174Y-21445563D01*
X99912981Y-21441611D01*
X99914738Y-21441525D01*
X99925800Y-21378605D01*
X99973946Y-21326427D01*
X100038724Y-21308500D01*
X100417944Y-21308500D01*
X100429800Y-21309059D01*
X100429803Y-21309059D01*
X100437537Y-21310788D01*
X100508369Y-21308562D01*
X100512327Y-21308500D01*
X100541432Y-21308500D01*
X100545832Y-21307944D01*
X100557664Y-21307012D01*
X100603831Y-21305562D01*
X100624421Y-21299580D01*
X100643782Y-21295570D01*
X100650770Y-21294688D01*
X100657204Y-21293875D01*
X100657205Y-21293875D01*
X100665064Y-21292882D01*
X100672429Y-21289966D01*
X100672433Y-21289965D01*
X100708021Y-21275874D01*
X100719231Y-21272035D01*
X100763600Y-21259145D01*
X100782065Y-21248225D01*
X100799805Y-21239534D01*
X100819756Y-21231635D01*
X100857129Y-21204482D01*
X100867048Y-21197967D01*
X100899977Y-21178493D01*
X100899981Y-21178490D01*
X100906807Y-21174453D01*
X100921971Y-21159289D01*
X100937005Y-21146448D01*
X100947943Y-21138501D01*
X100954357Y-21133841D01*
X100983803Y-21098247D01*
X100991792Y-21089468D01*
X101434638Y-20646622D01*
X101504022Y-20611268D01*
X101538587Y-20605794D01*
X101551687Y-20604417D01*
X101567319Y-20603598D01*
X101586308Y-20602603D01*
X101586311Y-20602603D01*
X101592903Y-20602257D01*
X101599283Y-20600547D01*
X101599286Y-20600547D01*
X101632763Y-20591577D01*
X101645663Y-20588835D01*
X101651378Y-20587929D01*
X101679908Y-20583411D01*
X101679914Y-20583409D01*
X101686432Y-20582377D01*
X101724968Y-20567585D01*
X101737504Y-20563511D01*
X101743356Y-20561943D01*
X101777370Y-20552829D01*
X101814156Y-20534086D01*
X101826172Y-20528736D01*
X101864722Y-20513938D01*
X101899348Y-20491452D01*
X101910748Y-20484870D01*
X101947530Y-20466129D01*
X101967448Y-20450000D01*
X108786496Y-20450000D01*
X108787186Y-20456565D01*
X108802871Y-20605795D01*
X108806458Y-20639928D01*
X108865473Y-20821556D01*
X108960960Y-20986944D01*
X108965378Y-20991851D01*
X108965379Y-20991852D01*
X109057060Y-21093674D01*
X109088747Y-21128866D01*
X109243248Y-21241118D01*
X109249276Y-21243802D01*
X109249278Y-21243803D01*
X109399730Y-21310788D01*
X109417712Y-21318794D01*
X109500560Y-21336404D01*
X109598056Y-21357128D01*
X109598061Y-21357128D01*
X109604513Y-21358500D01*
X109795487Y-21358500D01*
X109801939Y-21357128D01*
X109801944Y-21357128D01*
X109899440Y-21336404D01*
X109982288Y-21318794D01*
X110000270Y-21310788D01*
X110150722Y-21243803D01*
X110150724Y-21243802D01*
X110156752Y-21241118D01*
X110311253Y-21128866D01*
X110342940Y-21093674D01*
X110434621Y-20991852D01*
X110434622Y-20991851D01*
X110439040Y-20986944D01*
X110534527Y-20821556D01*
X110593542Y-20639928D01*
X110597130Y-20605795D01*
X110612814Y-20456565D01*
X110613504Y-20450000D01*
X110611251Y-20428567D01*
X110597739Y-20300000D01*
X113041496Y-20300000D01*
X113042186Y-20306565D01*
X113059272Y-20469125D01*
X113061458Y-20489928D01*
X113120473Y-20671556D01*
X113123776Y-20677278D01*
X113123777Y-20677279D01*
X113134592Y-20696011D01*
X113215960Y-20836944D01*
X113220378Y-20841851D01*
X113220379Y-20841852D01*
X113339325Y-20973955D01*
X113343747Y-20978866D01*
X113498248Y-21091118D01*
X113504276Y-21093802D01*
X113504278Y-21093803D01*
X113651363Y-21159289D01*
X113672712Y-21168794D01*
X113766113Y-21188647D01*
X113853056Y-21207128D01*
X113853061Y-21207128D01*
X113859513Y-21208500D01*
X114050487Y-21208500D01*
X114056939Y-21207128D01*
X114056944Y-21207128D01*
X114143887Y-21188647D01*
X114237288Y-21168794D01*
X114258637Y-21159289D01*
X114405722Y-21093803D01*
X114405724Y-21093802D01*
X114411752Y-21091118D01*
X114566253Y-20978866D01*
X114570675Y-20973955D01*
X114689621Y-20841852D01*
X114689622Y-20841851D01*
X114694040Y-20836944D01*
X114775408Y-20696011D01*
X114786223Y-20677279D01*
X114786224Y-20677278D01*
X114789527Y-20671556D01*
X114848542Y-20489928D01*
X114850729Y-20469125D01*
X114867814Y-20306565D01*
X114868504Y-20300000D01*
X114854136Y-20163297D01*
X114849232Y-20116635D01*
X114849232Y-20116633D01*
X114848542Y-20110072D01*
X114789527Y-19928444D01*
X114694040Y-19763056D01*
X114600969Y-19659690D01*
X114570251Y-19595683D01*
X114579016Y-19525229D01*
X114624479Y-19470698D01*
X114692206Y-19449403D01*
X114744244Y-19459570D01*
X114751862Y-19462835D01*
X114928538Y-19518880D01*
X114940532Y-19521430D01*
X115084761Y-19537607D01*
X115091785Y-19538000D01*
X115279977Y-19538000D01*
X115348098Y-19558002D01*
X115394591Y-19611658D01*
X115404695Y-19681932D01*
X115396966Y-19710792D01*
X115387470Y-19734534D01*
X115386356Y-19741262D01*
X115386355Y-19741266D01*
X115359007Y-19906461D01*
X115357892Y-19913198D01*
X115358249Y-19920015D01*
X115358249Y-19920019D01*
X115363820Y-20026312D01*
X115367370Y-20094047D01*
X115369181Y-20100620D01*
X115369181Y-20100623D01*
X115390740Y-20178891D01*
X115415461Y-20268641D01*
X115499922Y-20428836D01*
X115504327Y-20434049D01*
X115504330Y-20434053D01*
X115612406Y-20561943D01*
X115612410Y-20561947D01*
X115616813Y-20567157D01*
X115622237Y-20571304D01*
X115622238Y-20571305D01*
X115755257Y-20673006D01*
X115755261Y-20673009D01*
X115760678Y-20677150D01*
X115849840Y-20718727D01*
X115918631Y-20750805D01*
X115918634Y-20750806D01*
X115924808Y-20753685D01*
X115931456Y-20755171D01*
X115931459Y-20755172D01*
X116037421Y-20778857D01*
X116101543Y-20793190D01*
X116107088Y-20793500D01*
X116240244Y-20793500D01*
X116375037Y-20778857D01*
X116493190Y-20739094D01*
X116540204Y-20723272D01*
X116540206Y-20723271D01*
X116546675Y-20721094D01*
X116552637Y-20717512D01*
X116619596Y-20677279D01*
X116701905Y-20627823D01*
X116706862Y-20623135D01*
X116706865Y-20623133D01*
X116828527Y-20508082D01*
X116828529Y-20508080D01*
X116833485Y-20503393D01*
X116837317Y-20497755D01*
X116837320Y-20497751D01*
X116931442Y-20359255D01*
X116935277Y-20353612D01*
X117002530Y-20185466D01*
X117003644Y-20178738D01*
X117003645Y-20178734D01*
X117030993Y-20013539D01*
X117030993Y-20013536D01*
X117032108Y-20006802D01*
X117031375Y-19992800D01*
X117022987Y-19832766D01*
X117022630Y-19825953D01*
X117009168Y-19777077D01*
X116976352Y-19657941D01*
X116974539Y-19651359D01*
X116890078Y-19491164D01*
X116885671Y-19485949D01*
X116885669Y-19485946D01*
X116879549Y-19478705D01*
X116850855Y-19413765D01*
X116861825Y-19343622D01*
X116896148Y-19299731D01*
X116953933Y-19252603D01*
X116962637Y-19243959D01*
X117080784Y-19101144D01*
X117087644Y-19090973D01*
X117175804Y-18927924D01*
X117180556Y-18916619D01*
X117216250Y-18801308D01*
X117216331Y-18795768D01*
X118602425Y-18795768D01*
X118634138Y-18903521D01*
X118638731Y-18914889D01*
X118724607Y-19079154D01*
X118731321Y-19089415D01*
X118847468Y-19233873D01*
X118856046Y-19242632D01*
X118998039Y-19361778D01*
X119008159Y-19368708D01*
X119170585Y-19458002D01*
X119181858Y-19462834D01*
X119358538Y-19518880D01*
X119370532Y-19521430D01*
X119514761Y-19537607D01*
X119521785Y-19538000D01*
X119602885Y-19538000D01*
X119618124Y-19533525D01*
X119619329Y-19532135D01*
X119621000Y-19524452D01*
X119621000Y-19519885D01*
X120129000Y-19519885D01*
X120133475Y-19535124D01*
X120134865Y-19536329D01*
X120142548Y-19538000D01*
X120221657Y-19538000D01*
X120227805Y-19537699D01*
X120365603Y-19524188D01*
X120377638Y-19521805D01*
X120555076Y-19468233D01*
X120566416Y-19463559D01*
X120730077Y-19376540D01*
X120740294Y-19369751D01*
X120883933Y-19252603D01*
X120892637Y-19243959D01*
X121010784Y-19101144D01*
X121017644Y-19090973D01*
X121105804Y-18927924D01*
X121110556Y-18916619D01*
X121146250Y-18801308D01*
X121146456Y-18787205D01*
X121139701Y-18784000D01*
X120147115Y-18784000D01*
X120131876Y-18788475D01*
X120130671Y-18789865D01*
X120129000Y-18797548D01*
X120129000Y-19519885D01*
X119621000Y-19519885D01*
X119621000Y-18802115D01*
X119616525Y-18786876D01*
X119615135Y-18785671D01*
X119607452Y-18784000D01*
X118617076Y-18784000D01*
X118603545Y-18787973D01*
X118602425Y-18795768D01*
X117216331Y-18795768D01*
X117216456Y-18787205D01*
X117209701Y-18784000D01*
X114187076Y-18784000D01*
X114173545Y-18787973D01*
X114172425Y-18795768D01*
X114204138Y-18903521D01*
X114208731Y-18914889D01*
X114294607Y-19079154D01*
X114301321Y-19089415D01*
X114417468Y-19233873D01*
X114426048Y-19242635D01*
X114431399Y-19247125D01*
X114470724Y-19306235D01*
X114471850Y-19377223D01*
X114434417Y-19437550D01*
X114370312Y-19468063D01*
X114299158Y-19458752D01*
X114237288Y-19431206D01*
X114143888Y-19411353D01*
X114056944Y-19392872D01*
X114056939Y-19392872D01*
X114050487Y-19391500D01*
X113859513Y-19391500D01*
X113853061Y-19392872D01*
X113853056Y-19392872D01*
X113766113Y-19411353D01*
X113672712Y-19431206D01*
X113666682Y-19433891D01*
X113666681Y-19433891D01*
X113504278Y-19506197D01*
X113504276Y-19506198D01*
X113498248Y-19508882D01*
X113492907Y-19512762D01*
X113492906Y-19512763D01*
X113458585Y-19537699D01*
X113343747Y-19621134D01*
X113339326Y-19626044D01*
X113339325Y-19626045D01*
X113282086Y-19689616D01*
X113215960Y-19763056D01*
X113120473Y-19928444D01*
X113061458Y-20110072D01*
X113060768Y-20116633D01*
X113060768Y-20116635D01*
X113055864Y-20163297D01*
X113041496Y-20300000D01*
X110597739Y-20300000D01*
X110594232Y-20266635D01*
X110594232Y-20266633D01*
X110593542Y-20260072D01*
X110534527Y-20078444D01*
X110439040Y-19913056D01*
X110311253Y-19771134D01*
X110191174Y-19683891D01*
X110162094Y-19662763D01*
X110162093Y-19662762D01*
X110156752Y-19658882D01*
X110150724Y-19656198D01*
X110150722Y-19656197D01*
X109988319Y-19583891D01*
X109988318Y-19583891D01*
X109982288Y-19581206D01*
X109888888Y-19561353D01*
X109801944Y-19542872D01*
X109801939Y-19542872D01*
X109795487Y-19541500D01*
X109604513Y-19541500D01*
X109598061Y-19542872D01*
X109598056Y-19542872D01*
X109511113Y-19561353D01*
X109417712Y-19581206D01*
X109411682Y-19583891D01*
X109411681Y-19583891D01*
X109249278Y-19656197D01*
X109249276Y-19656198D01*
X109243248Y-19658882D01*
X109237907Y-19662762D01*
X109237906Y-19662763D01*
X109208826Y-19683891D01*
X109088747Y-19771134D01*
X108960960Y-19913056D01*
X108865473Y-20078444D01*
X108806458Y-20260072D01*
X108805768Y-20266633D01*
X108805768Y-20266635D01*
X108788749Y-20428567D01*
X108786496Y-20450000D01*
X101967448Y-20450000D01*
X101979608Y-20440153D01*
X101990267Y-20432409D01*
X102019347Y-20413524D01*
X102019349Y-20413523D01*
X102024887Y-20409926D01*
X102083924Y-20350889D01*
X102146236Y-20316863D01*
X102217968Y-20322274D01*
X102300035Y-20353612D01*
X102379692Y-20384030D01*
X102384760Y-20385061D01*
X102384763Y-20385062D01*
X102488646Y-20406197D01*
X102598597Y-20428567D01*
X102603772Y-20428757D01*
X102603774Y-20428757D01*
X102816673Y-20436564D01*
X102816677Y-20436564D01*
X102821837Y-20436753D01*
X102826957Y-20436097D01*
X102826959Y-20436097D01*
X103038288Y-20409025D01*
X103038289Y-20409025D01*
X103043416Y-20408368D01*
X103048366Y-20406883D01*
X103252429Y-20345661D01*
X103252434Y-20345659D01*
X103257384Y-20344174D01*
X103457994Y-20245896D01*
X103639860Y-20116173D01*
X103748091Y-20008319D01*
X103810462Y-19974404D01*
X103881268Y-19979592D01*
X103938030Y-20022238D01*
X103955012Y-20053341D01*
X103973926Y-20103794D01*
X103999385Y-20171705D01*
X104086739Y-20288261D01*
X104203295Y-20375615D01*
X104339684Y-20426745D01*
X104401866Y-20433500D01*
X106198134Y-20433500D01*
X106260316Y-20426745D01*
X106396705Y-20375615D01*
X106513261Y-20288261D01*
X106600615Y-20171705D01*
X106651745Y-20035316D01*
X106658500Y-19973134D01*
X106658500Y-18176866D01*
X106651745Y-18114684D01*
X106600615Y-17978295D01*
X106513261Y-17861739D01*
X106396705Y-17774385D01*
X106260316Y-17723255D01*
X106198134Y-17716500D01*
X104401866Y-17716500D01*
X104339684Y-17723255D01*
X104203295Y-17774385D01*
X104086739Y-17861739D01*
X103999385Y-17978295D01*
X103996233Y-17986703D01*
X103954919Y-18096907D01*
X103912277Y-18153671D01*
X103845716Y-18178371D01*
X103776367Y-18163163D01*
X103743743Y-18137476D01*
X103693151Y-18081875D01*
X103693142Y-18081866D01*
X103689670Y-18078051D01*
X103685619Y-18074852D01*
X103685615Y-18074848D01*
X103518414Y-17942800D01*
X103518410Y-17942798D01*
X103514359Y-17939598D01*
X103478028Y-17919542D01*
X103462136Y-17910769D01*
X103318789Y-17831638D01*
X103313920Y-17829914D01*
X103313916Y-17829912D01*
X103113087Y-17758795D01*
X103113083Y-17758794D01*
X103108212Y-17757069D01*
X103103119Y-17756162D01*
X103103116Y-17756161D01*
X102893373Y-17718800D01*
X102893367Y-17718799D01*
X102888284Y-17717894D01*
X102814452Y-17716992D01*
X102670081Y-17715228D01*
X102670079Y-17715228D01*
X102664911Y-17715165D01*
X102444091Y-17748955D01*
X102231756Y-17818357D01*
X102033607Y-17921507D01*
X102029474Y-17924610D01*
X102029471Y-17924612D01*
X101915649Y-18010072D01*
X101854965Y-18055635D01*
X101700629Y-18217138D01*
X101697713Y-18221413D01*
X101688735Y-18234573D01*
X101647652Y-18272684D01*
X101644210Y-18274671D01*
X101638420Y-18277815D01*
X101583352Y-18305873D01*
X101583349Y-18305875D01*
X101577469Y-18308871D01*
X101566526Y-18317733D01*
X101550237Y-18328927D01*
X101538056Y-18335960D01*
X101533149Y-18340378D01*
X101527803Y-18344262D01*
X101526595Y-18342600D01*
X101471328Y-18369115D01*
X101400875Y-18360342D01*
X101345248Y-18313198D01*
X101302826Y-18247622D01*
X101302819Y-18247613D01*
X101300014Y-18243277D01*
X101149670Y-18078051D01*
X101145619Y-18074852D01*
X101145615Y-18074848D01*
X100978414Y-17942800D01*
X100978410Y-17942798D01*
X100974359Y-17939598D01*
X100938028Y-17919542D01*
X100922136Y-17910769D01*
X100778789Y-17831638D01*
X100773920Y-17829914D01*
X100773916Y-17829912D01*
X100573087Y-17758795D01*
X100573083Y-17758794D01*
X100568212Y-17757069D01*
X100563119Y-17756162D01*
X100563116Y-17756161D01*
X100353373Y-17718800D01*
X100353367Y-17718799D01*
X100348284Y-17717894D01*
X100274452Y-17716992D01*
X100130081Y-17715228D01*
X100130079Y-17715228D01*
X100124911Y-17715165D01*
X99904091Y-17748955D01*
X99691756Y-17818357D01*
X99493607Y-17921507D01*
X99489474Y-17924610D01*
X99489471Y-17924612D01*
X99375649Y-18010072D01*
X99314965Y-18055635D01*
X99289541Y-18082240D01*
X99221280Y-18153671D01*
X99160629Y-18217138D01*
X99157715Y-18221410D01*
X99157714Y-18221411D01*
X99052898Y-18375066D01*
X98997987Y-18420069D01*
X98927462Y-18428240D01*
X98863715Y-18396986D01*
X98843018Y-18372502D01*
X98762426Y-18247926D01*
X98756136Y-18239757D01*
X98612806Y-18082240D01*
X98605273Y-18075215D01*
X98438139Y-17943222D01*
X98429552Y-17937517D01*
X98243117Y-17834599D01*
X98233705Y-17830369D01*
X98032959Y-17759280D01*
X98022988Y-17756646D01*
X97951837Y-17743972D01*
X97938540Y-17745432D01*
X97934000Y-17759989D01*
X97934000Y-19203000D01*
X97913998Y-19271121D01*
X97860342Y-19317614D01*
X97808000Y-19329000D01*
X96363225Y-19329000D01*
X96349694Y-19332973D01*
X96348257Y-19342966D01*
X96378565Y-19477446D01*
X96381645Y-19487275D01*
X96461770Y-19684603D01*
X96466413Y-19693794D01*
X96577694Y-19875388D01*
X96583777Y-19883699D01*
X96723213Y-20044667D01*
X96730580Y-20051883D01*
X96894434Y-20187916D01*
X96902881Y-20193831D01*
X97086756Y-20301279D01*
X97096043Y-20305729D01*
X97143817Y-20323972D01*
X97200320Y-20366960D01*
X97224613Y-20433671D01*
X97208983Y-20502925D01*
X97187963Y-20530777D01*
X96964145Y-20754595D01*
X96901833Y-20788621D01*
X96875050Y-20791500D01*
X96128059Y-20791500D01*
X96059938Y-20771498D01*
X96013445Y-20717842D01*
X96002749Y-20652330D01*
X96012814Y-20556565D01*
X96012814Y-20556564D01*
X96013504Y-20550000D01*
X96009098Y-20508082D01*
X95994232Y-20366635D01*
X95994232Y-20366633D01*
X95993542Y-20360072D01*
X95934527Y-20178444D01*
X95839040Y-20013056D01*
X95833694Y-20007118D01*
X95715675Y-19876045D01*
X95715674Y-19876044D01*
X95711253Y-19871134D01*
X95580375Y-19776045D01*
X95562094Y-19762763D01*
X95562093Y-19762762D01*
X95556752Y-19758882D01*
X95550724Y-19756198D01*
X95550722Y-19756197D01*
X95388319Y-19683891D01*
X95388318Y-19683891D01*
X95382288Y-19681206D01*
X95281064Y-19659690D01*
X95201944Y-19642872D01*
X95201939Y-19642872D01*
X95195487Y-19641500D01*
X95004513Y-19641500D01*
X94998061Y-19642872D01*
X94998056Y-19642872D01*
X94918936Y-19659690D01*
X94817712Y-19681206D01*
X94811682Y-19683891D01*
X94811681Y-19683891D01*
X94649278Y-19756197D01*
X94649276Y-19756198D01*
X94643248Y-19758882D01*
X94637907Y-19762762D01*
X94637906Y-19762763D01*
X94619625Y-19776045D01*
X94488747Y-19871134D01*
X94484326Y-19876044D01*
X94484325Y-19876045D01*
X94366307Y-20007118D01*
X94360960Y-20013056D01*
X94265473Y-20178444D01*
X94206458Y-20360072D01*
X94205768Y-20366633D01*
X94205768Y-20366635D01*
X94190902Y-20508082D01*
X94186496Y-20550000D01*
X94188345Y-20567587D01*
X94189053Y-20574326D01*
X94176281Y-20644164D01*
X94127780Y-20696011D01*
X94058947Y-20713406D01*
X94021477Y-20706196D01*
X93892428Y-20660244D01*
X93892422Y-20660243D01*
X93885790Y-20657881D01*
X93878802Y-20657048D01*
X93878799Y-20657047D01*
X93755698Y-20642368D01*
X93705680Y-20636404D01*
X93698677Y-20637140D01*
X93698676Y-20637140D01*
X93532288Y-20654628D01*
X93532286Y-20654629D01*
X93525288Y-20655364D01*
X93353579Y-20713818D01*
X93338212Y-20723272D01*
X93205095Y-20805166D01*
X93205092Y-20805168D01*
X93199088Y-20808862D01*
X93194053Y-20813793D01*
X93194050Y-20813795D01*
X93074525Y-20930843D01*
X93069493Y-20935771D01*
X93046971Y-20970719D01*
X92993258Y-21017142D01*
X92922971Y-21027157D01*
X92858428Y-20997582D01*
X92821228Y-20941398D01*
X92817799Y-20930843D01*
X92784527Y-20828444D01*
X92776070Y-20813795D01*
X92720480Y-20717512D01*
X92689040Y-20663056D01*
X92684381Y-20657881D01*
X92565675Y-20526045D01*
X92565674Y-20526044D01*
X92561253Y-20521134D01*
X92434216Y-20428836D01*
X92412094Y-20412763D01*
X92412093Y-20412762D01*
X92406752Y-20408882D01*
X92400724Y-20406198D01*
X92400722Y-20406197D01*
X92238319Y-20333891D01*
X92238318Y-20333891D01*
X92232288Y-20331206D01*
X92116362Y-20306565D01*
X92051944Y-20292872D01*
X92051939Y-20292872D01*
X92045487Y-20291500D01*
X91854513Y-20291500D01*
X91848061Y-20292872D01*
X91848056Y-20292872D01*
X91783638Y-20306565D01*
X91667712Y-20331206D01*
X91661682Y-20333891D01*
X91661681Y-20333891D01*
X91499278Y-20406197D01*
X91499276Y-20406198D01*
X91493248Y-20408882D01*
X91487907Y-20412762D01*
X91487906Y-20412763D01*
X91465784Y-20428836D01*
X91338747Y-20521134D01*
X91334326Y-20526044D01*
X91334325Y-20526045D01*
X91215620Y-20657881D01*
X91210960Y-20663056D01*
X91179520Y-20717512D01*
X91123931Y-20813795D01*
X91115473Y-20828444D01*
X91056458Y-21010072D01*
X91055768Y-21016633D01*
X91055768Y-21016635D01*
X91042960Y-21138501D01*
X91036496Y-21200000D01*
X82208500Y-21200000D01*
X82208500Y-18809183D01*
X96344389Y-18809183D01*
X96345912Y-18817607D01*
X96358292Y-18821000D01*
X97407885Y-18821000D01*
X97423124Y-18816525D01*
X97424329Y-18815135D01*
X97426000Y-18807452D01*
X97426000Y-17758102D01*
X97422082Y-17744758D01*
X97407806Y-17742771D01*
X97369324Y-17748660D01*
X97359288Y-17751051D01*
X97156868Y-17817212D01*
X97147359Y-17821209D01*
X96958463Y-17919542D01*
X96949738Y-17925036D01*
X96779433Y-18052905D01*
X96771726Y-18059748D01*
X96624590Y-18213717D01*
X96618104Y-18221727D01*
X96498098Y-18397649D01*
X96493000Y-18406623D01*
X96403338Y-18599783D01*
X96399775Y-18609470D01*
X96344389Y-18809183D01*
X82208500Y-18809183D01*
X82208500Y-17584500D01*
X82228502Y-17516379D01*
X82282158Y-17469886D01*
X82334500Y-17458500D01*
X109163143Y-17458500D01*
X109231264Y-17478502D01*
G37*
G04 #@! TD.AperFunction*
G04 #@! TA.AperFunction,Conductor*
G36*
X104715313Y-35717615D02*
G01*
X104772149Y-35760162D01*
X104779057Y-35770400D01*
X104844246Y-35878040D01*
X104855380Y-35896424D01*
X104981382Y-36026902D01*
X105057271Y-36076562D01*
X105059930Y-36078302D01*
X105133159Y-36126222D01*
X105139763Y-36128678D01*
X105139765Y-36128679D01*
X105296558Y-36186990D01*
X105296560Y-36186990D01*
X105303168Y-36189448D01*
X105310153Y-36190380D01*
X105310157Y-36190381D01*
X105345087Y-36195041D01*
X105365187Y-36197723D01*
X105430063Y-36226558D01*
X105437617Y-36233521D01*
X105671954Y-36467858D01*
X105705980Y-36530170D01*
X105700915Y-36600985D01*
X105677235Y-36640014D01*
X105681184Y-36649133D01*
X106003501Y-36971449D01*
X106675682Y-37643631D01*
X106688056Y-37650388D01*
X106695830Y-37644568D01*
X106762350Y-37619756D01*
X106831724Y-37634846D01*
X106860436Y-37656340D01*
X107193452Y-37989356D01*
X107227478Y-38051668D01*
X107222413Y-38122483D01*
X107198733Y-38161512D01*
X107202683Y-38170633D01*
X107789455Y-38757405D01*
X107823481Y-38819717D01*
X107818416Y-38890532D01*
X107789455Y-38935595D01*
X107524999Y-39200051D01*
X107205997Y-39519052D01*
X107199237Y-39531432D01*
X107202099Y-39535255D01*
X107208546Y-39538771D01*
X107258773Y-39588948D01*
X107273898Y-39658315D01*
X107249120Y-39724847D01*
X107208934Y-39757628D01*
X107198858Y-39768804D01*
X107202683Y-39777635D01*
X107789455Y-40364407D01*
X107823481Y-40426719D01*
X107818416Y-40497534D01*
X107789455Y-40542597D01*
X107524999Y-40807053D01*
X107205997Y-41126054D01*
X107199237Y-41138434D01*
X107202020Y-41142152D01*
X107333856Y-41191181D01*
X107347447Y-41194570D01*
X107502043Y-41215197D01*
X107516039Y-41215491D01*
X107671359Y-41201355D01*
X107685084Y-41198538D01*
X107833414Y-41150343D01*
X107846162Y-41144560D01*
X107938593Y-41089460D01*
X108007348Y-41071760D01*
X108074758Y-41094042D01*
X108119420Y-41149231D01*
X108129111Y-41197689D01*
X108129111Y-43073147D01*
X108109109Y-43141268D01*
X108055453Y-43187761D01*
X107985179Y-43197865D01*
X107929051Y-43175083D01*
X107906752Y-43158882D01*
X107900724Y-43156198D01*
X107900722Y-43156197D01*
X107738319Y-43083891D01*
X107738318Y-43083891D01*
X107732288Y-43081206D01*
X107638888Y-43061353D01*
X107551944Y-43042872D01*
X107551939Y-43042872D01*
X107545487Y-43041500D01*
X107354513Y-43041500D01*
X107348061Y-43042872D01*
X107348056Y-43042872D01*
X107261113Y-43061353D01*
X107167712Y-43081206D01*
X107161682Y-43083891D01*
X107161681Y-43083891D01*
X106999278Y-43156197D01*
X106999276Y-43156198D01*
X106993248Y-43158882D01*
X106987909Y-43162761D01*
X106987906Y-43162763D01*
X106977945Y-43170000D01*
X106838747Y-43271134D01*
X106834326Y-43276044D01*
X106834325Y-43276045D01*
X106742073Y-43378502D01*
X106710960Y-43413056D01*
X106685080Y-43457881D01*
X106636571Y-43541902D01*
X106615473Y-43578444D01*
X106556458Y-43760072D01*
X106536496Y-43950000D01*
X106537186Y-43956565D01*
X106549082Y-44069745D01*
X106556458Y-44139928D01*
X106615473Y-44321556D01*
X106618776Y-44327278D01*
X106618777Y-44327279D01*
X106640580Y-44365042D01*
X106710960Y-44486944D01*
X106715378Y-44491851D01*
X106715379Y-44491852D01*
X106834325Y-44623955D01*
X106838747Y-44628866D01*
X106993248Y-44741118D01*
X106999276Y-44743802D01*
X106999278Y-44743803D01*
X107161679Y-44816108D01*
X107167712Y-44818794D01*
X107253317Y-44836990D01*
X107348056Y-44857128D01*
X107348061Y-44857128D01*
X107354513Y-44858500D01*
X107545487Y-44858500D01*
X107551939Y-44857128D01*
X107551944Y-44857128D01*
X107646683Y-44836990D01*
X107732288Y-44818794D01*
X107738315Y-44816111D01*
X107738323Y-44816108D01*
X107887296Y-44749781D01*
X107957663Y-44740347D01*
X108007535Y-44759455D01*
X108023261Y-44769745D01*
X108033159Y-44776222D01*
X108039763Y-44778678D01*
X108039765Y-44778679D01*
X108196558Y-44836990D01*
X108196560Y-44836990D01*
X108203168Y-44839448D01*
X108286995Y-44850633D01*
X108375980Y-44862507D01*
X108375984Y-44862507D01*
X108382961Y-44863438D01*
X108389972Y-44862800D01*
X108389976Y-44862800D01*
X108532459Y-44849832D01*
X108563600Y-44846998D01*
X108570302Y-44844820D01*
X108570304Y-44844820D01*
X108729409Y-44793124D01*
X108729412Y-44793123D01*
X108736108Y-44790947D01*
X108891912Y-44698069D01*
X108895617Y-44694541D01*
X108961257Y-44669560D01*
X109030730Y-44684189D01*
X109060177Y-44706081D01*
X109490800Y-45136704D01*
X109524826Y-45199016D01*
X109519761Y-45269831D01*
X109489863Y-45315822D01*
X109474528Y-45330839D01*
X109474522Y-45330846D01*
X109469493Y-45335771D01*
X109371235Y-45488238D01*
X109368824Y-45494862D01*
X109368823Y-45494864D01*
X109365231Y-45504732D01*
X109323136Y-45561903D01*
X109256814Y-45587239D01*
X109187322Y-45572697D01*
X109139977Y-45528404D01*
X109091359Y-45450598D01*
X109087626Y-45444624D01*
X109073941Y-45430843D01*
X108964778Y-45320915D01*
X108964774Y-45320912D01*
X108959815Y-45315918D01*
X108948697Y-45308862D01*
X108887193Y-45269831D01*
X108806666Y-45218727D01*
X108751311Y-45199016D01*
X108642425Y-45160243D01*
X108642420Y-45160242D01*
X108635790Y-45157881D01*
X108628802Y-45157048D01*
X108628799Y-45157047D01*
X108505698Y-45142368D01*
X108455680Y-45136404D01*
X108448677Y-45137140D01*
X108448676Y-45137140D01*
X108282288Y-45154628D01*
X108282286Y-45154629D01*
X108275288Y-45155364D01*
X108103579Y-45213818D01*
X108097575Y-45217512D01*
X107955095Y-45305166D01*
X107955092Y-45305168D01*
X107949088Y-45308862D01*
X107944053Y-45313793D01*
X107944050Y-45313795D01*
X107824525Y-45430843D01*
X107819493Y-45435771D01*
X107721235Y-45588238D01*
X107718826Y-45594858D01*
X107718824Y-45594861D01*
X107674230Y-45717383D01*
X107659197Y-45758685D01*
X107636463Y-45938640D01*
X107654163Y-46119160D01*
X107711418Y-46291273D01*
X107715065Y-46297295D01*
X107715066Y-46297297D01*
X107741171Y-46340401D01*
X107805380Y-46446424D01*
X107931382Y-46576902D01*
X107951155Y-46589841D01*
X108051285Y-46655364D01*
X108083159Y-46676222D01*
X108089763Y-46678678D01*
X108089765Y-46678679D01*
X108246558Y-46736990D01*
X108246560Y-46736990D01*
X108253168Y-46739448D01*
X108336995Y-46750633D01*
X108425980Y-46762507D01*
X108425984Y-46762507D01*
X108432961Y-46763438D01*
X108439972Y-46762800D01*
X108439976Y-46762800D01*
X108582459Y-46749832D01*
X108613600Y-46746998D01*
X108620302Y-46744820D01*
X108620304Y-46744820D01*
X108779409Y-46693124D01*
X108779412Y-46693123D01*
X108786108Y-46690947D01*
X108941912Y-46598069D01*
X109073266Y-46472982D01*
X109173643Y-46321902D01*
X109176146Y-46315314D01*
X109176147Y-46315312D01*
X109184779Y-46292587D01*
X109227667Y-46236009D01*
X109294336Y-46211599D01*
X109363618Y-46227108D01*
X109410343Y-46272059D01*
X109444085Y-46327773D01*
X109455380Y-46346424D01*
X109581382Y-46476902D01*
X109587278Y-46480760D01*
X109715063Y-46564380D01*
X109733159Y-46576222D01*
X109739763Y-46578678D01*
X109739765Y-46578679D01*
X109896558Y-46636990D01*
X109896560Y-46636990D01*
X109903168Y-46639448D01*
X109980399Y-46649753D01*
X110075980Y-46662507D01*
X110075984Y-46662507D01*
X110082961Y-46663438D01*
X110089972Y-46662800D01*
X110089976Y-46662800D01*
X110233329Y-46649753D01*
X110263600Y-46646998D01*
X110270302Y-46644820D01*
X110270304Y-46644820D01*
X110429409Y-46593124D01*
X110429412Y-46593123D01*
X110436108Y-46590947D01*
X110450984Y-46582079D01*
X110519739Y-46564380D01*
X110587148Y-46586663D01*
X110631810Y-46641852D01*
X110641500Y-46690309D01*
X110641500Y-47650828D01*
X110640973Y-47662011D01*
X110639298Y-47669504D01*
X110639547Y-47677430D01*
X110639547Y-47677431D01*
X110641438Y-47737581D01*
X110641500Y-47741540D01*
X110641500Y-47769451D01*
X110641997Y-47773385D01*
X110641997Y-47773386D01*
X110642005Y-47773451D01*
X110642938Y-47785288D01*
X110644327Y-47829484D01*
X110649978Y-47848934D01*
X110653987Y-47868295D01*
X110656526Y-47888392D01*
X110659445Y-47895763D01*
X110659445Y-47895765D01*
X110672804Y-47929507D01*
X110676649Y-47940737D01*
X110685939Y-47972714D01*
X110688982Y-47983188D01*
X110693015Y-47990007D01*
X110693017Y-47990012D01*
X110699293Y-48000623D01*
X110707988Y-48018371D01*
X110715448Y-48037212D01*
X110720110Y-48043628D01*
X110720110Y-48043629D01*
X110741436Y-48072982D01*
X110747952Y-48082902D01*
X110765257Y-48112162D01*
X110770458Y-48120957D01*
X110784779Y-48135278D01*
X110797619Y-48150311D01*
X110809528Y-48166702D01*
X110843605Y-48194893D01*
X110852384Y-48202883D01*
X111680201Y-49030700D01*
X111687745Y-49038990D01*
X111691858Y-49045471D01*
X111697635Y-49050896D01*
X111741525Y-49092111D01*
X111744367Y-49094866D01*
X111750906Y-49101405D01*
X111784932Y-49163717D01*
X111779867Y-49234532D01*
X111737320Y-49291368D01*
X111670800Y-49316179D01*
X111661811Y-49316500D01*
X107090710Y-49316500D01*
X107022589Y-49296498D01*
X107001615Y-49279595D01*
X103135161Y-45413140D01*
X104386914Y-45413140D01*
X104404614Y-45593660D01*
X104461869Y-45765773D01*
X104465516Y-45771795D01*
X104465517Y-45771797D01*
X104476429Y-45789814D01*
X104555831Y-45920924D01*
X104560720Y-45925987D01*
X104560721Y-45925988D01*
X104602023Y-45968757D01*
X104681833Y-46051402D01*
X104833610Y-46150722D01*
X104840214Y-46153178D01*
X104840216Y-46153179D01*
X104997009Y-46211490D01*
X104997011Y-46211490D01*
X105003619Y-46213948D01*
X105087446Y-46225133D01*
X105176431Y-46237007D01*
X105176435Y-46237007D01*
X105183412Y-46237938D01*
X105190423Y-46237300D01*
X105190427Y-46237300D01*
X105332910Y-46224332D01*
X105364051Y-46221498D01*
X105370753Y-46219320D01*
X105370755Y-46219320D01*
X105529860Y-46167624D01*
X105529863Y-46167623D01*
X105536559Y-46165447D01*
X105640026Y-46103768D01*
X105686311Y-46076177D01*
X105686313Y-46076176D01*
X105692363Y-46072569D01*
X105823717Y-45947482D01*
X105924094Y-45796402D01*
X105976408Y-45658685D01*
X105986006Y-45633420D01*
X105986007Y-45633418D01*
X105988506Y-45626838D01*
X105991676Y-45604283D01*
X106013199Y-45451139D01*
X106013199Y-45451136D01*
X106013750Y-45447217D01*
X106013910Y-45435771D01*
X106014012Y-45428462D01*
X106014012Y-45428457D01*
X106014067Y-45424500D01*
X105993848Y-45244245D01*
X105991531Y-45237591D01*
X105936515Y-45079606D01*
X105936513Y-45079603D01*
X105934196Y-45072948D01*
X105916620Y-45044820D01*
X105841810Y-44925098D01*
X105838077Y-44919124D01*
X105824392Y-44905343D01*
X105715229Y-44795415D01*
X105715225Y-44795412D01*
X105710266Y-44790418D01*
X105699148Y-44783362D01*
X105632581Y-44741118D01*
X105557117Y-44693227D01*
X105527914Y-44682828D01*
X105392876Y-44634743D01*
X105392871Y-44634742D01*
X105386241Y-44632381D01*
X105379253Y-44631548D01*
X105379250Y-44631547D01*
X105239835Y-44614923D01*
X105206131Y-44610904D01*
X105199128Y-44611640D01*
X105199127Y-44611640D01*
X105032739Y-44629128D01*
X105032737Y-44629129D01*
X105025739Y-44629864D01*
X104854030Y-44688318D01*
X104825157Y-44706081D01*
X104705546Y-44779666D01*
X104705543Y-44779668D01*
X104699539Y-44783362D01*
X104694504Y-44788293D01*
X104694501Y-44788295D01*
X104587365Y-44893211D01*
X104569944Y-44910271D01*
X104471686Y-45062738D01*
X104469277Y-45069358D01*
X104469275Y-45069361D01*
X104414910Y-45218727D01*
X104409648Y-45233185D01*
X104386914Y-45413140D01*
X103135161Y-45413140D01*
X101540957Y-43818936D01*
X101506931Y-43756624D01*
X101511996Y-43685809D01*
X101525104Y-43660114D01*
X101599742Y-43547773D01*
X101603643Y-43541902D01*
X101645423Y-43431917D01*
X101665555Y-43378920D01*
X101665556Y-43378918D01*
X101668055Y-43372338D01*
X101674388Y-43327279D01*
X101692748Y-43196639D01*
X101692748Y-43196636D01*
X101693299Y-43192717D01*
X101693616Y-43170000D01*
X101673397Y-42989745D01*
X101671080Y-42983091D01*
X101616064Y-42825106D01*
X101616062Y-42825103D01*
X101613745Y-42818448D01*
X101579046Y-42762918D01*
X101557646Y-42728670D01*
X101538500Y-42661901D01*
X101538500Y-42659932D01*
X104070737Y-42659932D01*
X104073520Y-42663650D01*
X104205356Y-42712679D01*
X104218947Y-42716068D01*
X104373543Y-42736695D01*
X104387539Y-42736989D01*
X104542859Y-42722853D01*
X104556584Y-42720036D01*
X104704914Y-42671841D01*
X104713554Y-42667922D01*
X104720962Y-42659932D01*
X105677739Y-42659932D01*
X105680522Y-42663650D01*
X105812358Y-42712679D01*
X105825949Y-42716068D01*
X105980545Y-42736695D01*
X105994541Y-42736989D01*
X106149861Y-42722853D01*
X106163586Y-42720036D01*
X106311916Y-42671841D01*
X106320556Y-42667922D01*
X106328931Y-42658889D01*
X106325426Y-42650476D01*
X106016313Y-42341363D01*
X106002369Y-42333749D01*
X106000534Y-42333880D01*
X105993924Y-42338128D01*
X105684498Y-42647553D01*
X105677739Y-42659932D01*
X104720962Y-42659932D01*
X104721929Y-42658889D01*
X104718424Y-42650476D01*
X104409311Y-42341363D01*
X104395367Y-42333749D01*
X104393532Y-42333880D01*
X104386922Y-42338128D01*
X104077496Y-42647553D01*
X104070737Y-42659932D01*
X101538500Y-42659932D01*
X101538500Y-41971361D01*
X103634466Y-41971361D01*
X103649686Y-42126584D01*
X103652597Y-42140279D01*
X103701828Y-42288273D01*
X103704227Y-42293465D01*
X103712219Y-42300772D01*
X103720836Y-42297111D01*
X104030139Y-41987807D01*
X104036516Y-41976129D01*
X104755248Y-41976129D01*
X104755380Y-41977965D01*
X104759629Y-41984577D01*
X105068677Y-42293626D01*
X105081056Y-42300385D01*
X105085063Y-42297385D01*
X105088774Y-42290638D01*
X105139128Y-42240588D01*
X105208547Y-42225706D01*
X105274992Y-42250717D01*
X105304589Y-42287393D01*
X105319221Y-42300772D01*
X105327838Y-42297111D01*
X105637141Y-41987807D01*
X105643518Y-41976129D01*
X106362250Y-41976129D01*
X106362382Y-41977965D01*
X106366631Y-41984577D01*
X106675679Y-42293626D01*
X106688058Y-42300385D01*
X106691874Y-42297528D01*
X106739829Y-42171284D01*
X106743311Y-42157723D01*
X106765448Y-42000219D01*
X106766054Y-41992336D01*
X106766241Y-41978961D01*
X106765854Y-41971061D01*
X106748125Y-41813002D01*
X106745023Y-41799349D01*
X106694200Y-41653406D01*
X106688641Y-41648465D01*
X106679591Y-41652460D01*
X106369861Y-41962191D01*
X106362250Y-41976129D01*
X105643518Y-41976129D01*
X105644752Y-41973869D01*
X105644620Y-41972033D01*
X105640371Y-41965421D01*
X105330540Y-41655589D01*
X105318161Y-41648830D01*
X105314522Y-41651554D01*
X105311226Y-41657648D01*
X105261223Y-41708049D01*
X105191909Y-41723415D01*
X105125291Y-41698867D01*
X105089490Y-41655444D01*
X105081639Y-41648465D01*
X105072589Y-41652460D01*
X104762859Y-41962191D01*
X104755248Y-41976129D01*
X104036516Y-41976129D01*
X104037750Y-41973869D01*
X104037618Y-41972033D01*
X104033369Y-41965421D01*
X103723538Y-41655589D01*
X103711159Y-41648830D01*
X103707538Y-41651541D01*
X103657501Y-41789015D01*
X103654209Y-41802624D01*
X103634662Y-41957355D01*
X103634466Y-41971361D01*
X101538500Y-41971361D01*
X101538500Y-41288983D01*
X104069787Y-41288983D01*
X104074182Y-41299131D01*
X104383691Y-41608639D01*
X104397629Y-41616250D01*
X104399465Y-41616118D01*
X104406077Y-41611869D01*
X104716348Y-41301599D01*
X104723107Y-41289221D01*
X104722929Y-41288983D01*
X105676789Y-41288983D01*
X105681184Y-41299131D01*
X105990693Y-41608639D01*
X106004631Y-41616250D01*
X106006467Y-41616118D01*
X106013079Y-41611869D01*
X106323350Y-41301599D01*
X106330109Y-41289221D01*
X106329670Y-41288635D01*
X106304859Y-41222115D01*
X106319950Y-41152740D01*
X106329552Y-41139397D01*
X106329616Y-41139035D01*
X106325426Y-41128978D01*
X106016313Y-40819865D01*
X106002369Y-40812251D01*
X106000534Y-40812382D01*
X105993924Y-40816630D01*
X105684498Y-41126055D01*
X105677696Y-41138512D01*
X105702407Y-41204760D01*
X105687316Y-41274135D01*
X105676789Y-41288983D01*
X104722929Y-41288983D01*
X104722668Y-41288635D01*
X104697857Y-41222115D01*
X104712948Y-41152740D01*
X104722550Y-41139397D01*
X104722614Y-41139035D01*
X104718424Y-41128978D01*
X104409311Y-40819865D01*
X104395367Y-40812251D01*
X104393532Y-40812382D01*
X104386922Y-40816630D01*
X104077496Y-41126055D01*
X104070694Y-41138512D01*
X104095405Y-41204760D01*
X104080314Y-41274135D01*
X104069787Y-41288983D01*
X101538500Y-41288983D01*
X101538500Y-41138434D01*
X102549239Y-41138434D01*
X102552022Y-41142152D01*
X102683858Y-41191181D01*
X102697449Y-41194570D01*
X102852045Y-41215197D01*
X102866041Y-41215491D01*
X103021361Y-41201355D01*
X103035086Y-41198538D01*
X103183416Y-41150343D01*
X103192056Y-41146424D01*
X103200431Y-41137391D01*
X103196926Y-41128978D01*
X102887813Y-40819865D01*
X102873869Y-40812251D01*
X102872034Y-40812382D01*
X102865424Y-40816630D01*
X102555998Y-41126055D01*
X102549239Y-41138434D01*
X101538500Y-41138434D01*
X101538500Y-40973157D01*
X101527645Y-40887231D01*
X101538952Y-40817143D01*
X101563557Y-40782347D01*
X101905114Y-40440790D01*
X101967426Y-40406764D01*
X102038241Y-40411829D01*
X102095077Y-40454376D01*
X102119608Y-40517589D01*
X102128188Y-40605085D01*
X102131099Y-40618781D01*
X102180330Y-40766775D01*
X102182729Y-40771967D01*
X102190721Y-40779274D01*
X102199338Y-40775613D01*
X102520320Y-40454631D01*
X103233750Y-40454631D01*
X103233882Y-40456467D01*
X103238131Y-40463079D01*
X103547179Y-40772128D01*
X103559558Y-40778887D01*
X103559736Y-40778754D01*
X103626257Y-40753944D01*
X103695630Y-40769036D01*
X103710805Y-40779875D01*
X103720836Y-40775613D01*
X104030139Y-40466309D01*
X104036516Y-40454631D01*
X104755248Y-40454631D01*
X104755380Y-40456467D01*
X104759629Y-40463079D01*
X105068677Y-40772128D01*
X105081056Y-40778887D01*
X105085063Y-40775887D01*
X105088774Y-40769140D01*
X105139128Y-40719090D01*
X105208547Y-40704208D01*
X105274992Y-40729219D01*
X105304589Y-40765895D01*
X105319221Y-40779274D01*
X105327838Y-40775613D01*
X105637141Y-40466309D01*
X105643518Y-40454631D01*
X106362250Y-40454631D01*
X106362382Y-40456467D01*
X106366631Y-40463079D01*
X106675679Y-40772128D01*
X106688058Y-40778887D01*
X106688236Y-40778754D01*
X106754757Y-40753944D01*
X106824130Y-40769036D01*
X106839305Y-40779875D01*
X106849336Y-40775613D01*
X107158639Y-40466309D01*
X107166250Y-40452371D01*
X107166118Y-40450535D01*
X107161869Y-40443923D01*
X106852038Y-40134091D01*
X106839420Y-40127201D01*
X106773727Y-40151704D01*
X106704353Y-40136613D01*
X106689873Y-40126423D01*
X106679591Y-40130962D01*
X106369861Y-40440693D01*
X106362250Y-40454631D01*
X105643518Y-40454631D01*
X105644752Y-40452371D01*
X105644620Y-40450535D01*
X105640371Y-40443923D01*
X105330540Y-40134091D01*
X105318161Y-40127332D01*
X105314522Y-40130056D01*
X105311226Y-40136150D01*
X105261223Y-40186551D01*
X105191909Y-40201917D01*
X105125291Y-40177369D01*
X105089490Y-40133946D01*
X105081639Y-40126967D01*
X105072589Y-40130962D01*
X104762859Y-40440693D01*
X104755248Y-40454631D01*
X104036516Y-40454631D01*
X104037750Y-40452371D01*
X104037618Y-40450535D01*
X104033369Y-40443923D01*
X103723538Y-40134091D01*
X103710920Y-40127201D01*
X103645227Y-40151704D01*
X103575853Y-40136613D01*
X103561373Y-40126423D01*
X103551091Y-40130962D01*
X103241361Y-40440693D01*
X103233750Y-40454631D01*
X102520320Y-40454631D01*
X102875001Y-40099949D01*
X103194853Y-39780098D01*
X103201020Y-39768804D01*
X104070358Y-39768804D01*
X104074182Y-39777633D01*
X104383691Y-40087141D01*
X104397629Y-40094752D01*
X104399465Y-40094620D01*
X104406077Y-40090371D01*
X104716348Y-39780101D01*
X104722516Y-39768804D01*
X105677360Y-39768804D01*
X105681184Y-39777633D01*
X105990693Y-40087141D01*
X106004631Y-40094752D01*
X106006467Y-40094620D01*
X106013079Y-40090371D01*
X106323350Y-39780101D01*
X106330109Y-39767722D01*
X106327524Y-39764268D01*
X106321835Y-39761217D01*
X106271260Y-39711390D01*
X106255651Y-39642131D01*
X106279965Y-39575427D01*
X106308905Y-39551987D01*
X106318742Y-39541378D01*
X106318615Y-39541164D01*
X106319343Y-39540730D01*
X106328931Y-39530389D01*
X106325426Y-39521976D01*
X106016313Y-39212863D01*
X106002369Y-39205249D01*
X106000534Y-39205380D01*
X105993924Y-39209628D01*
X105684498Y-39519053D01*
X105677739Y-39531432D01*
X105680601Y-39535255D01*
X105687048Y-39538771D01*
X105737275Y-39588948D01*
X105752400Y-39658315D01*
X105727622Y-39724847D01*
X105687436Y-39757628D01*
X105677360Y-39768804D01*
X104722516Y-39768804D01*
X104723107Y-39767722D01*
X104720522Y-39764268D01*
X104714833Y-39761217D01*
X104664258Y-39711390D01*
X104648649Y-39642131D01*
X104672963Y-39575427D01*
X104701903Y-39551987D01*
X104711740Y-39541378D01*
X104711613Y-39541164D01*
X104712341Y-39540730D01*
X104721929Y-39530389D01*
X104718424Y-39521976D01*
X104409311Y-39212863D01*
X104395367Y-39205249D01*
X104393532Y-39205380D01*
X104386922Y-39209628D01*
X104077496Y-39519053D01*
X104070737Y-39531432D01*
X104073599Y-39535255D01*
X104080046Y-39538771D01*
X104130273Y-39588948D01*
X104145398Y-39658315D01*
X104120620Y-39724847D01*
X104080434Y-39757628D01*
X104070358Y-39768804D01*
X103201020Y-39768804D01*
X103201610Y-39767723D01*
X103199024Y-39764269D01*
X103193335Y-39761217D01*
X103142760Y-39711390D01*
X103127151Y-39642131D01*
X103151465Y-39575427D01*
X103180405Y-39551987D01*
X103190242Y-39541378D01*
X103190115Y-39541164D01*
X103190843Y-39540730D01*
X103200431Y-39530389D01*
X103196926Y-39521976D01*
X102864134Y-39189184D01*
X102830108Y-39126872D01*
X102827229Y-39100089D01*
X102827229Y-39046477D01*
X102831187Y-39015142D01*
X102850258Y-38940866D01*
X102850258Y-38940863D01*
X102852229Y-38933188D01*
X102852229Y-38847629D01*
X103233750Y-38847629D01*
X103233882Y-38849465D01*
X103238131Y-38856077D01*
X103547179Y-39165126D01*
X103559558Y-39171885D01*
X103559736Y-39171752D01*
X103626257Y-39146942D01*
X103695630Y-39162034D01*
X103710805Y-39172873D01*
X103720836Y-39168611D01*
X104030139Y-38859307D01*
X104036516Y-38847629D01*
X104755248Y-38847629D01*
X104755380Y-38849465D01*
X104759629Y-38856077D01*
X105068677Y-39165126D01*
X105081056Y-39171885D01*
X105085063Y-39168885D01*
X105088774Y-39162138D01*
X105139128Y-39112088D01*
X105208547Y-39097206D01*
X105274992Y-39122217D01*
X105304589Y-39158893D01*
X105319221Y-39172272D01*
X105327838Y-39168611D01*
X105637141Y-38859307D01*
X105643518Y-38847629D01*
X106362250Y-38847629D01*
X106362382Y-38849465D01*
X106366631Y-38856077D01*
X106675679Y-39165126D01*
X106688058Y-39171885D01*
X106688236Y-39171752D01*
X106754757Y-39146942D01*
X106824130Y-39162034D01*
X106839305Y-39172873D01*
X106849336Y-39168611D01*
X107158639Y-38859307D01*
X107166250Y-38845369D01*
X107166118Y-38843533D01*
X107161869Y-38836921D01*
X106852038Y-38527089D01*
X106839420Y-38520199D01*
X106773727Y-38544702D01*
X106704353Y-38529611D01*
X106689873Y-38519421D01*
X106679591Y-38523960D01*
X106369861Y-38833691D01*
X106362250Y-38847629D01*
X105643518Y-38847629D01*
X105644752Y-38845369D01*
X105644620Y-38843533D01*
X105640371Y-38836921D01*
X105330540Y-38527089D01*
X105318161Y-38520330D01*
X105314522Y-38523054D01*
X105311226Y-38529148D01*
X105261223Y-38579549D01*
X105191909Y-38594915D01*
X105125291Y-38570367D01*
X105089490Y-38526944D01*
X105081639Y-38519965D01*
X105072589Y-38523960D01*
X104762859Y-38833691D01*
X104755248Y-38847629D01*
X104036516Y-38847629D01*
X104037750Y-38845369D01*
X104037618Y-38843533D01*
X104033369Y-38836921D01*
X103723538Y-38527089D01*
X103710920Y-38520199D01*
X103645227Y-38544702D01*
X103575853Y-38529611D01*
X103561373Y-38519421D01*
X103551091Y-38523960D01*
X103241361Y-38833691D01*
X103233750Y-38847629D01*
X102852229Y-38847629D01*
X102852229Y-38567909D01*
X102872231Y-38499788D01*
X102889134Y-38478813D01*
X103194851Y-38173097D01*
X103201609Y-38160720D01*
X103201432Y-38160483D01*
X104069787Y-38160483D01*
X104074182Y-38170631D01*
X104383691Y-38480139D01*
X104397629Y-38487750D01*
X104399465Y-38487618D01*
X104406077Y-38483369D01*
X104716348Y-38173099D01*
X104723107Y-38160721D01*
X104722929Y-38160483D01*
X105676789Y-38160483D01*
X105681184Y-38170631D01*
X105990693Y-38480139D01*
X106004631Y-38487750D01*
X106006467Y-38487618D01*
X106013079Y-38483369D01*
X106323350Y-38173099D01*
X106330109Y-38160721D01*
X106329670Y-38160135D01*
X106304859Y-38093615D01*
X106319950Y-38024240D01*
X106329552Y-38010897D01*
X106329616Y-38010535D01*
X106325426Y-38000478D01*
X106016313Y-37691365D01*
X106002369Y-37683751D01*
X106000534Y-37683882D01*
X105993924Y-37688130D01*
X105684498Y-37997555D01*
X105677696Y-38010012D01*
X105702407Y-38076260D01*
X105687316Y-38145635D01*
X105676789Y-38160483D01*
X104722929Y-38160483D01*
X104722668Y-38160135D01*
X104697857Y-38093615D01*
X104712948Y-38024240D01*
X104722550Y-38010897D01*
X104722614Y-38010535D01*
X104718424Y-38000478D01*
X104409311Y-37691365D01*
X104395367Y-37683751D01*
X104393532Y-37683882D01*
X104386922Y-37688130D01*
X104077496Y-37997555D01*
X104070694Y-38010012D01*
X104095405Y-38076260D01*
X104080314Y-38145635D01*
X104069787Y-38160483D01*
X103201432Y-38160483D01*
X103199024Y-38157266D01*
X103198724Y-38157106D01*
X103055821Y-38106220D01*
X103042196Y-38103024D01*
X102963310Y-38093618D01*
X102898037Y-38065691D01*
X102858224Y-38006908D01*
X102852229Y-37968504D01*
X102852229Y-37528723D01*
X102872231Y-37460602D01*
X102889134Y-37439628D01*
X103550823Y-36777939D01*
X103613135Y-36743913D01*
X103683950Y-36748978D01*
X103740786Y-36791525D01*
X103765597Y-36858045D01*
X103750506Y-36927419D01*
X103745830Y-36935289D01*
X103717071Y-36979915D01*
X103710845Y-36992457D01*
X103657501Y-37139017D01*
X103654209Y-37152626D01*
X103634662Y-37307357D01*
X103634466Y-37321363D01*
X103649686Y-37476586D01*
X103652597Y-37490281D01*
X103701828Y-37638275D01*
X103704227Y-37643467D01*
X103712219Y-37650774D01*
X103720836Y-37647113D01*
X104041818Y-37326131D01*
X104755248Y-37326131D01*
X104755380Y-37327967D01*
X104759629Y-37334579D01*
X105068677Y-37643628D01*
X105081056Y-37650387D01*
X105085063Y-37647387D01*
X105088774Y-37640640D01*
X105139128Y-37590590D01*
X105208547Y-37575708D01*
X105274992Y-37600719D01*
X105304589Y-37637395D01*
X105319221Y-37650774D01*
X105327838Y-37647113D01*
X105637141Y-37337809D01*
X105644752Y-37323871D01*
X105644620Y-37322035D01*
X105640371Y-37315423D01*
X105330540Y-37005591D01*
X105318161Y-36998832D01*
X105314522Y-37001556D01*
X105311226Y-37007650D01*
X105261223Y-37058051D01*
X105191909Y-37073417D01*
X105125291Y-37048869D01*
X105089490Y-37005446D01*
X105081639Y-36998467D01*
X105072589Y-37002462D01*
X104762859Y-37312193D01*
X104755248Y-37326131D01*
X104041818Y-37326131D01*
X104396499Y-36971449D01*
X104716351Y-36651598D01*
X104723108Y-36639223D01*
X104720522Y-36635769D01*
X104720222Y-36635608D01*
X104577319Y-36584722D01*
X104563694Y-36581526D01*
X104408817Y-36563059D01*
X104394820Y-36562961D01*
X104239708Y-36579263D01*
X104226029Y-36582271D01*
X104078387Y-36632532D01*
X104065717Y-36638494D01*
X104003556Y-36676736D01*
X103935055Y-36695394D01*
X103867341Y-36674055D01*
X103821913Y-36619495D01*
X103813193Y-36549036D01*
X103848439Y-36480323D01*
X104582186Y-35746576D01*
X104644498Y-35712550D01*
X104715313Y-35717615D01*
G37*
G04 #@! TD.AperFunction*
G04 #@! TA.AperFunction,Conductor*
G36*
X109718272Y-41501042D02*
G01*
X109816696Y-41565449D01*
X109833063Y-41576159D01*
X109879112Y-41630196D01*
X109889469Y-41669295D01*
X109904163Y-41819160D01*
X109961418Y-41991273D01*
X109965065Y-41997295D01*
X109965066Y-41997297D01*
X110050052Y-42137626D01*
X110055380Y-42146424D01*
X110060269Y-42151487D01*
X110060270Y-42151488D01*
X110079387Y-42171284D01*
X110181382Y-42276902D01*
X110212902Y-42297528D01*
X110323830Y-42370117D01*
X110333159Y-42376222D01*
X110339763Y-42378678D01*
X110339765Y-42378679D01*
X110496558Y-42436990D01*
X110496560Y-42436990D01*
X110503168Y-42439448D01*
X110582250Y-42450000D01*
X110675980Y-42462507D01*
X110675984Y-42462507D01*
X110682961Y-42463438D01*
X110689972Y-42462800D01*
X110689976Y-42462800D01*
X110832459Y-42449832D01*
X110863600Y-42446998D01*
X110870302Y-42444820D01*
X110870304Y-42444820D01*
X111029409Y-42393124D01*
X111029412Y-42393123D01*
X111036108Y-42390947D01*
X111096671Y-42354844D01*
X111165423Y-42337145D01*
X111232833Y-42359427D01*
X111277495Y-42414615D01*
X111284611Y-42450198D01*
X111286496Y-42450000D01*
X111303844Y-42615054D01*
X111306458Y-42639928D01*
X111365473Y-42821556D01*
X111460960Y-42986944D01*
X111588747Y-43128866D01*
X111743248Y-43241118D01*
X111749276Y-43243802D01*
X111749278Y-43243803D01*
X111909806Y-43315274D01*
X111917712Y-43318794D01*
X112011113Y-43338647D01*
X112098056Y-43357128D01*
X112098061Y-43357128D01*
X112104513Y-43358500D01*
X112160406Y-43358500D01*
X112228527Y-43378502D01*
X112249501Y-43395405D01*
X113454595Y-44600500D01*
X113488621Y-44662812D01*
X113491500Y-44689595D01*
X113491500Y-46524443D01*
X113471498Y-46592564D01*
X113417842Y-46639057D01*
X113378671Y-46649753D01*
X113332288Y-46654628D01*
X113332286Y-46654628D01*
X113325288Y-46655364D01*
X113153579Y-46713818D01*
X113147575Y-46717512D01*
X113005095Y-46805166D01*
X113005092Y-46805168D01*
X112999088Y-46808862D01*
X112994053Y-46813793D01*
X112994050Y-46813795D01*
X112891934Y-46913795D01*
X112869493Y-46935771D01*
X112771235Y-47088238D01*
X112768826Y-47094858D01*
X112768824Y-47094861D01*
X112734838Y-47188238D01*
X112709197Y-47258685D01*
X112686463Y-47438640D01*
X112704163Y-47619160D01*
X112735195Y-47712444D01*
X112737718Y-47783395D01*
X112701482Y-47844448D01*
X112656244Y-47871493D01*
X112565833Y-47902271D01*
X112559830Y-47905964D01*
X112559828Y-47905965D01*
X112512985Y-47934782D01*
X112444484Y-47953440D01*
X112376770Y-47932101D01*
X112357869Y-47916559D01*
X111945405Y-47504095D01*
X111911379Y-47441783D01*
X111908500Y-47415000D01*
X111908500Y-46103768D01*
X111909027Y-46092585D01*
X111910702Y-46085092D01*
X111910309Y-46072569D01*
X111908562Y-46017002D01*
X111908500Y-46013044D01*
X111908500Y-45985144D01*
X111907996Y-45981153D01*
X111907063Y-45969311D01*
X111906333Y-45946062D01*
X111905674Y-45925111D01*
X111900021Y-45905652D01*
X111896012Y-45886293D01*
X111895846Y-45884983D01*
X111893474Y-45866203D01*
X111890558Y-45858837D01*
X111890556Y-45858831D01*
X111877200Y-45825098D01*
X111873355Y-45813868D01*
X111863230Y-45779017D01*
X111863230Y-45779016D01*
X111861019Y-45771407D01*
X111850705Y-45753966D01*
X111842008Y-45736213D01*
X111837472Y-45724758D01*
X111834552Y-45717383D01*
X111808563Y-45681612D01*
X111802047Y-45671692D01*
X111783578Y-45640463D01*
X111779542Y-45633638D01*
X111765221Y-45619317D01*
X111752380Y-45604283D01*
X111749518Y-45600344D01*
X111740472Y-45587893D01*
X111706395Y-45559702D01*
X111697616Y-45551712D01*
X109433016Y-43287111D01*
X109398990Y-43224799D01*
X109396111Y-43198016D01*
X109396111Y-41628693D01*
X109416113Y-41560572D01*
X109469769Y-41514079D01*
X109510690Y-41503212D01*
X109571262Y-41497699D01*
X109578283Y-41497060D01*
X109610346Y-41486642D01*
X109681311Y-41484614D01*
X109718272Y-41501042D01*
G37*
G04 #@! TD.AperFunction*
G04 #@! TA.AperFunction,Conductor*
G36*
X114190495Y-34594039D02*
G01*
X114241802Y-34625144D01*
X116655569Y-37038911D01*
X116667955Y-37053323D01*
X116676488Y-37064918D01*
X116676493Y-37064923D01*
X116680831Y-37070818D01*
X116686409Y-37075557D01*
X116686412Y-37075560D01*
X116721107Y-37105035D01*
X116728623Y-37111965D01*
X116734318Y-37117660D01*
X116737200Y-37119940D01*
X116756590Y-37135281D01*
X116759994Y-37138072D01*
X116801086Y-37172982D01*
X116815624Y-37185333D01*
X116822140Y-37188661D01*
X116827189Y-37192028D01*
X116832318Y-37195195D01*
X116838055Y-37199734D01*
X116904214Y-37230655D01*
X116908108Y-37232558D01*
X116973147Y-37265769D01*
X116980255Y-37267508D01*
X116985898Y-37269607D01*
X116991661Y-37271524D01*
X116998289Y-37274622D01*
X117005451Y-37276112D01*
X117005452Y-37276112D01*
X117069751Y-37289486D01*
X117074035Y-37290456D01*
X117144949Y-37307808D01*
X117150554Y-37308156D01*
X117153303Y-37308574D01*
X117217641Y-37338595D01*
X117223447Y-37344046D01*
X118654595Y-38775194D01*
X118688621Y-38837506D01*
X118691500Y-38864289D01*
X118691500Y-40632930D01*
X118690067Y-40651880D01*
X118686801Y-40673349D01*
X118687394Y-40680641D01*
X118687394Y-40680644D01*
X118691085Y-40726018D01*
X118691500Y-40736233D01*
X118691500Y-40744293D01*
X118691925Y-40747937D01*
X118694789Y-40772507D01*
X118695222Y-40776882D01*
X118699587Y-40830539D01*
X118701140Y-40849637D01*
X118703396Y-40856601D01*
X118704587Y-40862560D01*
X118705971Y-40868415D01*
X118706818Y-40875681D01*
X118731735Y-40944327D01*
X118733152Y-40948455D01*
X118755649Y-41017899D01*
X118759445Y-41024154D01*
X118761951Y-41029628D01*
X118764670Y-41035058D01*
X118767167Y-41041937D01*
X118771180Y-41048057D01*
X118771180Y-41048058D01*
X118807186Y-41102976D01*
X118809523Y-41106680D01*
X118847405Y-41169107D01*
X118851121Y-41173315D01*
X118851122Y-41173316D01*
X118854803Y-41177484D01*
X118854776Y-41177508D01*
X118857429Y-41180500D01*
X118860132Y-41183733D01*
X118864144Y-41189852D01*
X118869456Y-41194884D01*
X118920383Y-41243128D01*
X118922825Y-41245506D01*
X119253724Y-41576405D01*
X119287750Y-41638717D01*
X119282685Y-41709532D01*
X119240138Y-41766368D01*
X119173618Y-41791179D01*
X119164629Y-41791500D01*
X112880224Y-41791500D01*
X112812103Y-41771498D01*
X112806163Y-41767436D01*
X112662094Y-41662763D01*
X112662093Y-41662762D01*
X112656752Y-41658882D01*
X112650724Y-41656198D01*
X112650722Y-41656197D01*
X112488319Y-41583891D01*
X112488318Y-41583891D01*
X112482288Y-41581206D01*
X112373990Y-41558186D01*
X112311518Y-41524459D01*
X112277196Y-41462309D01*
X112281924Y-41391470D01*
X112324200Y-41334433D01*
X112361251Y-41315107D01*
X112428911Y-41293123D01*
X112435608Y-41290947D01*
X112556310Y-41218994D01*
X112585360Y-41201677D01*
X112585362Y-41201676D01*
X112591412Y-41198069D01*
X112722766Y-41072982D01*
X112823143Y-40921902D01*
X112877470Y-40778887D01*
X112885055Y-40758920D01*
X112885056Y-40758918D01*
X112887555Y-40752338D01*
X112888686Y-40744293D01*
X112912248Y-40576639D01*
X112912248Y-40576636D01*
X112912799Y-40572717D01*
X112913116Y-40550000D01*
X112892897Y-40369745D01*
X112875708Y-40320385D01*
X112872194Y-40249476D01*
X112907806Y-40187704D01*
X112923266Y-40172982D01*
X113023643Y-40021902D01*
X113065423Y-39911917D01*
X113085555Y-39858920D01*
X113085556Y-39858918D01*
X113088055Y-39852338D01*
X113100432Y-39764269D01*
X113112748Y-39676639D01*
X113112748Y-39676636D01*
X113113299Y-39672717D01*
X113113500Y-39658315D01*
X113113561Y-39653962D01*
X113113561Y-39653957D01*
X113113616Y-39650000D01*
X113093397Y-39469745D01*
X113091080Y-39463091D01*
X113036064Y-39305106D01*
X113036062Y-39305103D01*
X113033745Y-39298448D01*
X112986589Y-39222982D01*
X112941359Y-39150598D01*
X112937626Y-39144624D01*
X112919998Y-39126872D01*
X112865410Y-39071902D01*
X112858363Y-39064806D01*
X112824556Y-39002376D01*
X112829981Y-38931278D01*
X112832046Y-38925844D01*
X112878821Y-38802709D01*
X112885055Y-38786298D01*
X112885056Y-38786296D01*
X112887555Y-38779716D01*
X112890691Y-38757405D01*
X112912248Y-38604017D01*
X112912248Y-38604014D01*
X112912799Y-38600095D01*
X112913116Y-38577378D01*
X112892897Y-38397123D01*
X112875947Y-38348448D01*
X112835564Y-38232484D01*
X112835562Y-38232481D01*
X112833245Y-38225826D01*
X112763241Y-38113795D01*
X112740859Y-38077976D01*
X112737126Y-38072002D01*
X112732164Y-38067005D01*
X112614278Y-37948293D01*
X112614274Y-37948290D01*
X112609315Y-37943296D01*
X112596771Y-37935335D01*
X112543381Y-37901453D01*
X112456166Y-37846105D01*
X112398882Y-37825707D01*
X112291925Y-37787621D01*
X112291920Y-37787620D01*
X112285290Y-37785259D01*
X112278302Y-37784426D01*
X112278299Y-37784425D01*
X112233731Y-37779111D01*
X112219581Y-37777424D01*
X112154308Y-37749497D01*
X112114495Y-37690714D01*
X112108500Y-37652310D01*
X112108500Y-37582056D01*
X112109059Y-37570200D01*
X112109059Y-37570197D01*
X112110788Y-37562463D01*
X112109621Y-37525323D01*
X112109309Y-37515386D01*
X112127162Y-37446670D01*
X112179331Y-37398516D01*
X112249253Y-37386210D01*
X112279165Y-37393331D01*
X112403168Y-37439448D01*
X112486995Y-37450633D01*
X112575980Y-37462507D01*
X112575984Y-37462507D01*
X112582961Y-37463438D01*
X112589972Y-37462800D01*
X112589976Y-37462800D01*
X112732459Y-37449832D01*
X112763600Y-37446998D01*
X112770302Y-37444820D01*
X112770304Y-37444820D01*
X112929409Y-37393124D01*
X112929412Y-37393123D01*
X112936108Y-37390947D01*
X113052836Y-37321363D01*
X113085860Y-37301677D01*
X113085862Y-37301676D01*
X113091912Y-37298069D01*
X113223266Y-37172982D01*
X113323643Y-37021902D01*
X113379225Y-36875583D01*
X113385555Y-36858920D01*
X113385556Y-36858918D01*
X113388055Y-36852338D01*
X113399494Y-36770943D01*
X113412748Y-36676639D01*
X113412748Y-36676636D01*
X113413299Y-36672717D01*
X113413616Y-36650000D01*
X113393397Y-36469745D01*
X113389568Y-36458749D01*
X113336064Y-36305106D01*
X113336062Y-36305103D01*
X113333745Y-36298448D01*
X113294444Y-36235552D01*
X113241359Y-36150598D01*
X113237626Y-36144624D01*
X113215368Y-36122210D01*
X113114778Y-36020915D01*
X113114774Y-36020912D01*
X113109815Y-36015918D01*
X113100604Y-36010072D01*
X113040042Y-35971639D01*
X112956666Y-35918727D01*
X112894032Y-35896424D01*
X112792425Y-35860243D01*
X112792420Y-35860242D01*
X112785790Y-35857881D01*
X112778802Y-35857048D01*
X112778799Y-35857047D01*
X112644235Y-35841001D01*
X112578961Y-35813073D01*
X112539149Y-35754290D01*
X112537437Y-35683314D01*
X112570059Y-35626792D01*
X112584666Y-35612185D01*
X112587146Y-35608988D01*
X112594851Y-35599966D01*
X112613732Y-35579860D01*
X112625117Y-35567736D01*
X112628936Y-35560790D01*
X112628938Y-35560787D01*
X112634879Y-35549981D01*
X112645730Y-35533462D01*
X112653289Y-35523716D01*
X112658145Y-35517456D01*
X112661290Y-35510187D01*
X112661293Y-35510183D01*
X112675705Y-35476878D01*
X112680927Y-35466218D01*
X112682665Y-35463056D01*
X112690251Y-35449258D01*
X112740594Y-35399200D01*
X112789245Y-35384478D01*
X112931867Y-35371498D01*
X112938569Y-35369320D01*
X112938571Y-35369320D01*
X113097676Y-35317624D01*
X113097679Y-35317623D01*
X113104375Y-35315447D01*
X113200780Y-35257978D01*
X113254127Y-35226177D01*
X113254129Y-35226176D01*
X113260179Y-35222569D01*
X113391533Y-35097482D01*
X113491910Y-34946402D01*
X113494413Y-34939813D01*
X113494415Y-34939809D01*
X113495132Y-34937922D01*
X113495918Y-34936885D01*
X113497632Y-34933550D01*
X113498218Y-34933851D01*
X113538021Y-34881344D01*
X113586722Y-34859420D01*
X113624429Y-34851405D01*
X113719989Y-34831093D01*
X113728037Y-34827510D01*
X113888423Y-34756102D01*
X113888425Y-34756101D01*
X113894453Y-34753417D01*
X113916321Y-34737529D01*
X114043610Y-34645048D01*
X114043612Y-34645046D01*
X114048954Y-34641165D01*
X114059068Y-34629933D01*
X114119511Y-34592690D01*
X114190495Y-34594039D01*
G37*
G04 #@! TD.AperFunction*
G04 #@! TA.AperFunction,Conductor*
G36*
X110748732Y-33220533D02*
G01*
X110799897Y-33269753D01*
X110816500Y-33332269D01*
X110816500Y-33769289D01*
X110796498Y-33837410D01*
X110779595Y-33858384D01*
X109608384Y-35029595D01*
X109546072Y-35063621D01*
X109519289Y-35066500D01*
X109044679Y-35066500D01*
X108976558Y-35046498D01*
X108930065Y-34992842D01*
X108919961Y-34922568D01*
X108949455Y-34857988D01*
X108955584Y-34851405D01*
X110560051Y-33246938D01*
X110622363Y-33212912D01*
X110637725Y-33210552D01*
X110679079Y-33206788D01*
X110748732Y-33220533D01*
G37*
G04 #@! TD.AperFunction*
M02*
