G04 #@! TF.GenerationSoftware,KiCad,Pcbnew,(6.0.8)*
G04 #@! TF.CreationDate,2022-11-18T11:01:35-05:00*
G04 #@! TF.ProjectId,Emrick,456d7269-636b-42e6-9b69-6361645f7063,2*
G04 #@! TF.SameCoordinates,Original*
G04 #@! TF.FileFunction,Paste,Top*
G04 #@! TF.FilePolarity,Positive*
%FSLAX46Y46*%
G04 Gerber Fmt 4.6, Leading zero omitted, Abs format (unit mm)*
G04 Created by KiCad (PCBNEW (6.0.8)) date 2022-11-18 11:01:35*
%MOMM*%
%LPD*%
G01*
G04 APERTURE LIST*
G04 Aperture macros list*
%AMRoundRect*
0 Rectangle with rounded corners*
0 $1 Rounding radius*
0 $2 $3 $4 $5 $6 $7 $8 $9 X,Y pos of 4 corners*
0 Add a 4 corners polygon primitive as box body*
4,1,4,$2,$3,$4,$5,$6,$7,$8,$9,$2,$3,0*
0 Add four circle primitives for the rounded corners*
1,1,$1+$1,$2,$3*
1,1,$1+$1,$4,$5*
1,1,$1+$1,$6,$7*
1,1,$1+$1,$8,$9*
0 Add four rect primitives between the rounded corners*
20,1,$1+$1,$2,$3,$4,$5,0*
20,1,$1+$1,$4,$5,$6,$7,0*
20,1,$1+$1,$6,$7,$8,$9,0*
20,1,$1+$1,$8,$9,$2,$3,0*%
G04 Aperture macros list end*
%ADD10C,0.100000*%
%ADD11RoundRect,0.225000X-0.225000X-0.250000X0.225000X-0.250000X0.225000X0.250000X-0.225000X0.250000X0*%
%ADD12RoundRect,0.225000X-0.250000X0.225000X-0.250000X-0.225000X0.250000X-0.225000X0.250000X0.225000X0*%
%ADD13RoundRect,0.225000X0.225000X0.250000X-0.225000X0.250000X-0.225000X-0.250000X0.225000X-0.250000X0*%
%ADD14RoundRect,0.140000X0.140000X0.170000X-0.140000X0.170000X-0.140000X-0.170000X0.140000X-0.170000X0*%
%ADD15RoundRect,0.140000X0.170000X-0.140000X0.170000X0.140000X-0.170000X0.140000X-0.170000X-0.140000X0*%
%ADD16RoundRect,0.140000X-0.140000X-0.170000X0.140000X-0.170000X0.140000X0.170000X-0.140000X0.170000X0*%
%ADD17R,1.200000X1.400000*%
%ADD18RoundRect,0.135000X0.185000X-0.135000X0.185000X0.135000X-0.185000X0.135000X-0.185000X-0.135000X0*%
%ADD19RoundRect,0.135000X0.135000X0.185000X-0.135000X0.185000X-0.135000X-0.185000X0.135000X-0.185000X0*%
%ADD20R,2.750000X1.000000*%
%ADD21R,2.000000X1.200000*%
%ADD22RoundRect,0.147500X-0.172500X0.147500X-0.172500X-0.147500X0.172500X-0.147500X0.172500X0.147500X0*%
%ADD23RoundRect,0.140000X-0.170000X0.140000X-0.170000X-0.140000X0.170000X-0.140000X0.170000X0.140000X0*%
%ADD24R,1.000000X0.700000*%
%ADD25R,0.600000X0.700000*%
%ADD26RoundRect,0.147500X0.172500X-0.147500X0.172500X0.147500X-0.172500X0.147500X-0.172500X-0.147500X0*%
%ADD27R,0.965200X0.254000*%
%ADD28R,0.254000X0.965200*%
%ADD29R,0.355600X1.676400*%
%ADD30O,0.240000X0.599999*%
%ADD31O,0.599999X0.240000*%
%ADD32R,1.800000X1.000000*%
%ADD33R,1.050000X1.000000*%
%ADD34R,2.200000X1.050000*%
%ADD35RoundRect,0.225000X0.250000X-0.225000X0.250000X0.225000X-0.250000X0.225000X-0.250000X-0.225000X0*%
%ADD36R,1.150000X0.300000*%
%ADD37RoundRect,0.135000X-0.135000X-0.185000X0.135000X-0.185000X0.135000X0.185000X-0.135000X0.185000X0*%
%ADD38R,0.254000X0.812800*%
%ADD39R,1.701800X0.304800*%
%ADD40RoundRect,0.147500X-0.147500X-0.172500X0.147500X-0.172500X0.147500X0.172500X-0.147500X0.172500X0*%
%ADD41RoundRect,0.200000X-0.275000X0.200000X-0.275000X-0.200000X0.275000X-0.200000X0.275000X0.200000X0*%
G04 APERTURE END LIST*
G36*
X117776400Y-38250000D02*
G01*
X116300000Y-38250000D01*
X116300000Y-36773600D01*
X117776400Y-36773600D01*
X117776400Y-38250000D01*
G37*
D10*
X117776400Y-38250000D02*
X116300000Y-38250000D01*
X116300000Y-36773600D01*
X117776400Y-36773600D01*
X117776400Y-38250000D01*
G36*
X116100000Y-39926400D02*
G01*
X114623600Y-39926400D01*
X114623600Y-38450000D01*
X116100000Y-38450000D01*
X116100000Y-39926400D01*
G37*
X116100000Y-39926400D02*
X114623600Y-39926400D01*
X114623600Y-38450000D01*
X116100000Y-38450000D01*
X116100000Y-39926400D01*
G36*
X116100000Y-38250000D02*
G01*
X114623600Y-38250000D01*
X114623600Y-36773600D01*
X116100000Y-36773600D01*
X116100000Y-38250000D01*
G37*
X116100000Y-38250000D02*
X114623600Y-38250000D01*
X114623600Y-36773600D01*
X116100000Y-36773600D01*
X116100000Y-38250000D01*
G36*
X117776400Y-39926400D02*
G01*
X116300000Y-39926400D01*
X116300000Y-38450000D01*
X117776400Y-38450000D01*
X117776400Y-39926400D01*
G37*
X117776400Y-39926400D02*
X116300000Y-39926400D01*
X116300000Y-38450000D01*
X117776400Y-38450000D01*
X117776400Y-39926400D01*
G36*
X90258700Y-28747721D02*
G01*
X90258700Y-29052279D01*
X90117279Y-29193700D01*
X89812721Y-29193700D01*
X89671300Y-29052279D01*
X89671300Y-28747721D01*
X89812721Y-28606300D01*
X90117279Y-28606300D01*
X90258700Y-28747721D01*
G37*
X90258700Y-28747721D02*
X90258700Y-29052279D01*
X90117279Y-29193700D01*
X89812721Y-29193700D01*
X89671300Y-29052279D01*
X89671300Y-28747721D01*
X89812721Y-28606300D01*
X90117279Y-28606300D01*
X90258700Y-28747721D01*
G36*
X88890108Y-29265171D02*
G01*
X88089893Y-29265171D01*
X88089893Y-29034955D01*
X88890108Y-29034955D01*
X88890108Y-29265171D01*
G37*
X88890108Y-29265171D02*
X88089893Y-29265171D01*
X88089893Y-29034955D01*
X88890108Y-29034955D01*
X88890108Y-29265171D01*
G36*
X90330107Y-30775107D02*
G01*
X90099892Y-30775107D01*
X90099892Y-29974892D01*
X90330107Y-29974892D01*
X90330107Y-30775107D01*
G37*
X90330107Y-30775107D02*
X90099892Y-30775107D01*
X90099892Y-29974892D01*
X90330107Y-29974892D01*
X90330107Y-30775107D01*
G36*
X89471300Y-28264879D02*
G01*
X89329879Y-28406300D01*
X89189930Y-28406300D01*
X89189930Y-28124930D01*
X89471300Y-28124930D01*
X89471300Y-28264879D01*
G37*
X89471300Y-28264879D02*
X89329879Y-28406300D01*
X89189930Y-28406300D01*
X89189930Y-28124930D01*
X89471300Y-28124930D01*
X89471300Y-28264879D01*
G36*
X88890108Y-28765045D02*
G01*
X88089893Y-28765045D01*
X88089893Y-28534829D01*
X88890108Y-28534829D01*
X88890108Y-28765045D01*
G37*
X88890108Y-28765045D02*
X88089893Y-28765045D01*
X88089893Y-28534829D01*
X88890108Y-28534829D01*
X88890108Y-28765045D01*
G36*
X90740070Y-29193700D02*
G01*
X90600121Y-29193700D01*
X90458700Y-29052279D01*
X90458700Y-28747721D01*
X90600121Y-28606300D01*
X90740070Y-28606300D01*
X90740070Y-29193700D01*
G37*
X90740070Y-29193700D02*
X90600121Y-29193700D01*
X90458700Y-29052279D01*
X90458700Y-28747721D01*
X90600121Y-28606300D01*
X90740070Y-28606300D01*
X90740070Y-29193700D01*
G36*
X90258700Y-29535121D02*
G01*
X90258700Y-29675070D01*
X89671300Y-29675070D01*
X89671300Y-29535121D01*
X89812721Y-29393700D01*
X90117279Y-29393700D01*
X90258700Y-29535121D01*
G37*
X90258700Y-29535121D02*
X90258700Y-29675070D01*
X89671300Y-29675070D01*
X89671300Y-29535121D01*
X89812721Y-29393700D01*
X90117279Y-29393700D01*
X90258700Y-29535121D01*
G36*
X89330109Y-27825108D02*
G01*
X89099891Y-27825108D01*
X89099891Y-27024893D01*
X89330109Y-27024893D01*
X89330109Y-27825108D01*
G37*
X89330109Y-27825108D02*
X89099891Y-27825108D01*
X89099891Y-27024893D01*
X89330109Y-27024893D01*
X89330109Y-27825108D01*
G36*
X90330107Y-27825108D02*
G01*
X90099892Y-27825108D01*
X90099892Y-27024893D01*
X90330107Y-27024893D01*
X90330107Y-27825108D01*
G37*
X90330107Y-27825108D02*
X90099892Y-27825108D01*
X90099892Y-27024893D01*
X90330107Y-27024893D01*
X90330107Y-27825108D01*
G36*
X88890108Y-28264919D02*
G01*
X88089893Y-28264919D01*
X88089893Y-28034703D01*
X88890108Y-28034703D01*
X88890108Y-28264919D01*
G37*
X88890108Y-28264919D02*
X88089893Y-28264919D01*
X88089893Y-28034703D01*
X88890108Y-28034703D01*
X88890108Y-28264919D01*
G36*
X90740070Y-28406300D02*
G01*
X90600121Y-28406300D01*
X90458700Y-28264879D01*
X90458700Y-28124930D01*
X90740070Y-28124930D01*
X90740070Y-28406300D01*
G37*
X90740070Y-28406300D02*
X90600121Y-28406300D01*
X90458700Y-28264879D01*
X90458700Y-28124930D01*
X90740070Y-28124930D01*
X90740070Y-28406300D01*
G36*
X90258700Y-28264879D02*
G01*
X90117279Y-28406300D01*
X89812721Y-28406300D01*
X89671300Y-28264879D01*
X89671300Y-28124930D01*
X90258700Y-28124930D01*
X90258700Y-28264879D01*
G37*
X90258700Y-28264879D02*
X90117279Y-28406300D01*
X89812721Y-28406300D01*
X89671300Y-28264879D01*
X89671300Y-28124930D01*
X90258700Y-28124930D01*
X90258700Y-28264879D01*
G36*
X89471300Y-29535121D02*
G01*
X89471300Y-29675070D01*
X89189930Y-29675070D01*
X89189930Y-29393700D01*
X89329879Y-29393700D01*
X89471300Y-29535121D01*
G37*
X89471300Y-29535121D02*
X89471300Y-29675070D01*
X89189930Y-29675070D01*
X89189930Y-29393700D01*
X89329879Y-29393700D01*
X89471300Y-29535121D01*
G36*
X89830108Y-27825108D02*
G01*
X89599893Y-27825108D01*
X89599893Y-27024893D01*
X89830108Y-27024893D01*
X89830108Y-27825108D01*
G37*
X89830108Y-27825108D02*
X89599893Y-27825108D01*
X89599893Y-27024893D01*
X89830108Y-27024893D01*
X89830108Y-27825108D01*
G36*
X89830108Y-30775107D02*
G01*
X89599893Y-30775107D01*
X89599893Y-29974892D01*
X89830108Y-29974892D01*
X89830108Y-30775107D01*
G37*
X89830108Y-30775107D02*
X89599893Y-30775107D01*
X89599893Y-29974892D01*
X89830108Y-29974892D01*
X89830108Y-30775107D01*
G36*
X89330109Y-30775107D02*
G01*
X89099891Y-30775107D01*
X89099891Y-29974892D01*
X89330109Y-29974892D01*
X89330109Y-30775107D01*
G37*
X89330109Y-30775107D02*
X89099891Y-30775107D01*
X89099891Y-29974892D01*
X89330109Y-29974892D01*
X89330109Y-30775107D01*
G36*
X91840107Y-28264919D02*
G01*
X91039892Y-28264919D01*
X91039892Y-28034703D01*
X91840107Y-28034703D01*
X91840107Y-28264919D01*
G37*
X91840107Y-28264919D02*
X91039892Y-28264919D01*
X91039892Y-28034703D01*
X91840107Y-28034703D01*
X91840107Y-28264919D01*
G36*
X89471300Y-28747721D02*
G01*
X89471300Y-29052279D01*
X89329879Y-29193700D01*
X89189930Y-29193700D01*
X89189930Y-28606300D01*
X89329879Y-28606300D01*
X89471300Y-28747721D01*
G37*
X89471300Y-28747721D02*
X89471300Y-29052279D01*
X89329879Y-29193700D01*
X89189930Y-29193700D01*
X89189930Y-28606300D01*
X89329879Y-28606300D01*
X89471300Y-28747721D01*
G36*
X91840107Y-29265171D02*
G01*
X91039892Y-29265171D01*
X91039892Y-29034955D01*
X91840107Y-29034955D01*
X91840107Y-29265171D01*
G37*
X91840107Y-29265171D02*
X91039892Y-29265171D01*
X91039892Y-29034955D01*
X91840107Y-29034955D01*
X91840107Y-29265171D01*
G36*
X90830109Y-27825108D02*
G01*
X90599891Y-27825108D01*
X90599891Y-27024893D01*
X90830109Y-27024893D01*
X90830109Y-27825108D01*
G37*
X90830109Y-27825108D02*
X90599891Y-27825108D01*
X90599891Y-27024893D01*
X90830109Y-27024893D01*
X90830109Y-27825108D01*
G36*
X91840107Y-28765045D02*
G01*
X91039892Y-28765045D01*
X91039892Y-28534829D01*
X91840107Y-28534829D01*
X91840107Y-28765045D01*
G37*
X91840107Y-28765045D02*
X91039892Y-28765045D01*
X91039892Y-28534829D01*
X91840107Y-28534829D01*
X91840107Y-28765045D01*
G36*
X88890108Y-29765297D02*
G01*
X88089893Y-29765297D01*
X88089893Y-29535081D01*
X88890108Y-29535081D01*
X88890108Y-29765297D01*
G37*
X88890108Y-29765297D02*
X88089893Y-29765297D01*
X88089893Y-29535081D01*
X88890108Y-29535081D01*
X88890108Y-29765297D01*
G36*
X90740070Y-29675070D02*
G01*
X90458700Y-29675070D01*
X90458700Y-29535121D01*
X90600121Y-29393700D01*
X90740070Y-29393700D01*
X90740070Y-29675070D01*
G37*
X90740070Y-29675070D02*
X90458700Y-29675070D01*
X90458700Y-29535121D01*
X90600121Y-29393700D01*
X90740070Y-29393700D01*
X90740070Y-29675070D01*
G36*
X90830109Y-30775107D02*
G01*
X90599891Y-30775107D01*
X90599891Y-29974892D01*
X90830109Y-29974892D01*
X90830109Y-30775107D01*
G37*
X90830109Y-30775107D02*
X90599891Y-30775107D01*
X90599891Y-29974892D01*
X90830109Y-29974892D01*
X90830109Y-30775107D01*
G36*
X91840107Y-29765297D02*
G01*
X91039892Y-29765297D01*
X91039892Y-29535081D01*
X91840107Y-29535081D01*
X91840107Y-29765297D01*
G37*
X91840107Y-29765297D02*
X91039892Y-29765297D01*
X91039892Y-29535081D01*
X91840107Y-29535081D01*
X91840107Y-29765297D01*
G36*
X104296499Y-38746499D02*
G01*
X102889499Y-38746499D01*
X102889499Y-37339499D01*
X104296499Y-37339499D01*
X104296499Y-38746499D01*
G37*
X104296499Y-38746499D02*
X102889499Y-38746499D01*
X102889499Y-37339499D01*
X104296499Y-37339499D01*
X104296499Y-38746499D01*
G36*
X105903499Y-41960498D02*
G01*
X104496499Y-41960498D01*
X104496499Y-40553498D01*
X105903499Y-40553498D01*
X105903499Y-41960498D01*
G37*
X105903499Y-41960498D02*
X104496499Y-41960498D01*
X104496499Y-40553498D01*
X105903499Y-40553498D01*
X105903499Y-41960498D01*
G36*
X104296499Y-40353499D02*
G01*
X102889499Y-40353499D01*
X102889499Y-38946499D01*
X104296499Y-38946499D01*
X104296499Y-40353499D01*
G37*
X104296499Y-40353499D02*
X102889499Y-40353499D01*
X102889499Y-38946499D01*
X104296499Y-38946499D01*
X104296499Y-40353499D01*
G36*
X105903499Y-38746499D02*
G01*
X104496499Y-38746499D01*
X104496499Y-37339499D01*
X105903499Y-37339499D01*
X105903499Y-38746499D01*
G37*
X105903499Y-38746499D02*
X104496499Y-38746499D01*
X104496499Y-37339499D01*
X105903499Y-37339499D01*
X105903499Y-38746499D01*
G36*
X107510498Y-38746499D02*
G01*
X106103498Y-38746499D01*
X106103498Y-37339499D01*
X107510498Y-37339499D01*
X107510498Y-38746499D01*
G37*
X107510498Y-38746499D02*
X106103498Y-38746499D01*
X106103498Y-37339499D01*
X107510498Y-37339499D01*
X107510498Y-38746499D01*
G36*
X104296499Y-41960498D02*
G01*
X102889499Y-41960498D01*
X102889499Y-40553498D01*
X104296499Y-40553498D01*
X104296499Y-41960498D01*
G37*
X104296499Y-41960498D02*
X102889499Y-41960498D01*
X102889499Y-40553498D01*
X104296499Y-40553498D01*
X104296499Y-41960498D01*
G36*
X107510498Y-41960498D02*
G01*
X106103498Y-41960498D01*
X106103498Y-40553498D01*
X107510498Y-40553498D01*
X107510498Y-41960498D01*
G37*
X107510498Y-41960498D02*
X106103498Y-41960498D01*
X106103498Y-40553498D01*
X107510498Y-40553498D01*
X107510498Y-41960498D01*
G36*
X105903499Y-40353499D02*
G01*
X104496499Y-40353499D01*
X104496499Y-38946499D01*
X105903499Y-38946499D01*
X105903499Y-40353499D01*
G37*
X105903499Y-40353499D02*
X104496499Y-40353499D01*
X104496499Y-38946499D01*
X105903499Y-38946499D01*
X105903499Y-40353499D01*
G36*
X107510498Y-40353499D02*
G01*
X106103498Y-40353499D01*
X106103498Y-38946499D01*
X107510498Y-38946499D01*
X107510498Y-40353499D01*
G37*
X107510498Y-40353499D02*
X106103498Y-40353499D01*
X106103498Y-38946499D01*
X107510498Y-38946499D01*
X107510498Y-40353499D01*
G36*
X105115070Y-25137400D02*
G01*
X105035121Y-25137400D01*
X104893700Y-24995979D01*
X104893700Y-24691421D01*
X105035121Y-24550000D01*
X105115070Y-24550000D01*
X105115070Y-25137400D01*
G37*
X105115070Y-25137400D02*
X105035121Y-25137400D01*
X104893700Y-24995979D01*
X104893700Y-24691421D01*
X105035121Y-24550000D01*
X105115070Y-24550000D01*
X105115070Y-25137400D01*
G36*
X104693700Y-23421179D02*
G01*
X104552279Y-23562600D01*
X104247721Y-23562600D01*
X104106300Y-23421179D01*
X104106300Y-23099930D01*
X104693700Y-23099930D01*
X104693700Y-23421179D01*
G37*
X104693700Y-23421179D02*
X104552279Y-23562600D01*
X104247721Y-23562600D01*
X104106300Y-23421179D01*
X104106300Y-23099930D01*
X104693700Y-23099930D01*
X104693700Y-23421179D01*
G36*
X104290000Y-26425000D02*
G01*
X104060000Y-26425000D01*
X104060000Y-25976600D01*
X104290000Y-25976600D01*
X104290000Y-26425000D01*
G37*
X104290000Y-26425000D02*
X104060000Y-26425000D01*
X104060000Y-25976600D01*
X104290000Y-25976600D01*
X104290000Y-26425000D01*
G36*
X103906300Y-24691421D02*
G01*
X103906300Y-24995979D01*
X103764879Y-25137400D01*
X103684930Y-25137400D01*
X103684930Y-24550000D01*
X103764879Y-24550000D01*
X103906300Y-24691421D01*
G37*
X103906300Y-24691421D02*
X103906300Y-24995979D01*
X103764879Y-25137400D01*
X103684930Y-25137400D01*
X103684930Y-24550000D01*
X103764879Y-24550000D01*
X103906300Y-24691421D01*
G36*
X106319999Y-23090000D02*
G01*
X105500000Y-23090000D01*
X105500000Y-22810001D01*
X106319999Y-22810001D01*
X106319999Y-23090000D01*
G37*
X106319999Y-23090000D02*
X105500000Y-23090000D01*
X105500000Y-22810001D01*
X106319999Y-22810001D01*
X106319999Y-23090000D01*
G36*
X105190000Y-26425000D02*
G01*
X104960000Y-26425000D01*
X104960000Y-25976600D01*
X105190000Y-25976600D01*
X105190000Y-26425000D01*
G37*
X105190000Y-26425000D02*
X104960000Y-26425000D01*
X104960000Y-25976600D01*
X105190000Y-25976600D01*
X105190000Y-26425000D01*
G36*
X104693700Y-24691421D02*
G01*
X104693700Y-24995979D01*
X104552279Y-25137400D01*
X104247721Y-25137400D01*
X104106300Y-24995979D01*
X104106300Y-24691421D01*
X104247721Y-24550000D01*
X104552279Y-24550000D01*
X104693700Y-24691421D01*
G37*
X104693700Y-24691421D02*
X104693700Y-24995979D01*
X104552279Y-25137400D01*
X104247721Y-25137400D01*
X104106300Y-24995979D01*
X104106300Y-24691421D01*
X104247721Y-24550000D01*
X104552279Y-24550000D01*
X104693700Y-24691421D01*
G36*
X104693700Y-25478821D02*
G01*
X104693700Y-25800070D01*
X104106300Y-25800070D01*
X104106300Y-25478821D01*
X104247721Y-25337400D01*
X104552279Y-25337400D01*
X104693700Y-25478821D01*
G37*
X104693700Y-25478821D02*
X104693700Y-25800070D01*
X104106300Y-25800070D01*
X104106300Y-25478821D01*
X104247721Y-25337400D01*
X104552279Y-25337400D01*
X104693700Y-25478821D01*
G36*
X104693700Y-23904021D02*
G01*
X104693700Y-24208579D01*
X104552279Y-24350000D01*
X104247721Y-24350000D01*
X104106300Y-24208579D01*
X104106300Y-23904021D01*
X104247721Y-23762600D01*
X104552279Y-23762600D01*
X104693700Y-23904021D01*
G37*
X104693700Y-23904021D02*
X104693700Y-24208579D01*
X104552279Y-24350000D01*
X104247721Y-24350000D01*
X104106300Y-24208579D01*
X104106300Y-23904021D01*
X104247721Y-23762600D01*
X104552279Y-23762600D01*
X104693700Y-23904021D01*
G36*
X103906300Y-25478821D02*
G01*
X103906300Y-25800070D01*
X103684930Y-25800070D01*
X103684930Y-25337400D01*
X103764879Y-25337400D01*
X103906300Y-25478821D01*
G37*
X103906300Y-25478821D02*
X103906300Y-25800070D01*
X103684930Y-25800070D01*
X103684930Y-25337400D01*
X103764879Y-25337400D01*
X103906300Y-25478821D01*
G36*
X106319999Y-25089999D02*
G01*
X105500000Y-25089999D01*
X105500000Y-24809999D01*
X106319999Y-24809999D01*
X106319999Y-25089999D01*
G37*
X106319999Y-25089999D02*
X105500000Y-25089999D01*
X105500000Y-24809999D01*
X106319999Y-24809999D01*
X106319999Y-25089999D01*
G36*
X103840000Y-26425000D02*
G01*
X103610000Y-26425000D01*
X103610000Y-25976600D01*
X103840000Y-25976600D01*
X103840000Y-26425000D01*
G37*
X103840000Y-26425000D02*
X103610000Y-26425000D01*
X103610000Y-25976600D01*
X103840000Y-25976600D01*
X103840000Y-26425000D01*
G36*
X104740000Y-26425000D02*
G01*
X104510000Y-26425000D01*
X104510000Y-25976600D01*
X104740000Y-25976600D01*
X104740000Y-26425000D01*
G37*
X104740000Y-26425000D02*
X104510000Y-26425000D01*
X104510000Y-25976600D01*
X104740000Y-25976600D01*
X104740000Y-26425000D01*
G36*
X106319999Y-24090001D02*
G01*
X105500000Y-24090001D01*
X105500000Y-23809999D01*
X106319999Y-23809999D01*
X106319999Y-24090001D01*
G37*
X106319999Y-24090001D02*
X105500000Y-24090001D01*
X105500000Y-23809999D01*
X106319999Y-23809999D01*
X106319999Y-24090001D01*
G36*
X103300000Y-23589999D02*
G01*
X102480001Y-23589999D01*
X102480001Y-23310000D01*
X103300000Y-23310000D01*
X103300000Y-23589999D01*
G37*
X103300000Y-23589999D02*
X102480001Y-23589999D01*
X102480001Y-23310000D01*
X103300000Y-23310000D01*
X103300000Y-23589999D01*
G36*
X103300000Y-26089999D02*
G01*
X102480001Y-26089999D01*
X102480001Y-25810000D01*
X103300000Y-25810000D01*
X103300000Y-26089999D01*
G37*
X103300000Y-26089999D02*
X102480001Y-26089999D01*
X102480001Y-25810000D01*
X103300000Y-25810000D01*
X103300000Y-26089999D01*
G36*
X103300000Y-24590000D02*
G01*
X102480001Y-24590000D01*
X102480001Y-24310000D01*
X103300000Y-24310000D01*
X103300000Y-24590000D01*
G37*
X103300000Y-24590000D02*
X102480001Y-24590000D01*
X102480001Y-24310000D01*
X103300000Y-24310000D01*
X103300000Y-24590000D01*
G36*
X103300000Y-23090000D02*
G01*
X102480001Y-23090000D01*
X102480001Y-22810001D01*
X103300000Y-22810001D01*
X103300000Y-23090000D01*
G37*
X103300000Y-23090000D02*
X102480001Y-23090000D01*
X102480001Y-22810001D01*
X103300000Y-22810001D01*
X103300000Y-23090000D01*
G36*
X105115070Y-23562600D02*
G01*
X105035121Y-23562600D01*
X104893700Y-23421179D01*
X104893700Y-23099930D01*
X105115070Y-23099930D01*
X105115070Y-23562600D01*
G37*
X105115070Y-23562600D02*
X105035121Y-23562600D01*
X104893700Y-23421179D01*
X104893700Y-23099930D01*
X105115070Y-23099930D01*
X105115070Y-23562600D01*
G36*
X103906300Y-23421179D02*
G01*
X103764879Y-23562600D01*
X103684930Y-23562600D01*
X103684930Y-23099930D01*
X103906300Y-23099930D01*
X103906300Y-23421179D01*
G37*
X103906300Y-23421179D02*
X103764879Y-23562600D01*
X103684930Y-23562600D01*
X103684930Y-23099930D01*
X103906300Y-23099930D01*
X103906300Y-23421179D01*
G36*
X106319999Y-25590000D02*
G01*
X105500000Y-25590000D01*
X105500000Y-25310001D01*
X106319999Y-25310001D01*
X106319999Y-25590000D01*
G37*
X106319999Y-25590000D02*
X105500000Y-25590000D01*
X105500000Y-25310001D01*
X106319999Y-25310001D01*
X106319999Y-25590000D01*
G36*
X104740000Y-22923400D02*
G01*
X104510000Y-22923400D01*
X104510000Y-22475000D01*
X104740000Y-22475000D01*
X104740000Y-22923400D01*
G37*
X104740000Y-22923400D02*
X104510000Y-22923400D01*
X104510000Y-22475000D01*
X104740000Y-22475000D01*
X104740000Y-22923400D01*
G36*
X105115070Y-25800070D02*
G01*
X104893700Y-25800070D01*
X104893700Y-25478821D01*
X105035121Y-25337400D01*
X105115070Y-25337400D01*
X105115070Y-25800070D01*
G37*
X105115070Y-25800070D02*
X104893700Y-25800070D01*
X104893700Y-25478821D01*
X105035121Y-25337400D01*
X105115070Y-25337400D01*
X105115070Y-25800070D01*
G36*
X106319999Y-23589999D02*
G01*
X105500000Y-23589999D01*
X105500000Y-23310000D01*
X106319999Y-23310000D01*
X106319999Y-23589999D01*
G37*
X106319999Y-23589999D02*
X105500000Y-23589999D01*
X105500000Y-23310000D01*
X106319999Y-23310000D01*
X106319999Y-23589999D01*
G36*
X105190000Y-22923400D02*
G01*
X104960000Y-22923400D01*
X104960000Y-22475000D01*
X105190000Y-22475000D01*
X105190000Y-22923400D01*
G37*
X105190000Y-22923400D02*
X104960000Y-22923400D01*
X104960000Y-22475000D01*
X105190000Y-22475000D01*
X105190000Y-22923400D01*
G36*
X106319999Y-26089999D02*
G01*
X105500000Y-26089999D01*
X105500000Y-25810000D01*
X106319999Y-25810000D01*
X106319999Y-26089999D01*
G37*
X106319999Y-26089999D02*
X105500000Y-26089999D01*
X105500000Y-25810000D01*
X106319999Y-25810000D01*
X106319999Y-26089999D01*
G36*
X105115070Y-24350000D02*
G01*
X105035121Y-24350000D01*
X104893700Y-24208579D01*
X104893700Y-23904021D01*
X105035121Y-23762600D01*
X105115070Y-23762600D01*
X105115070Y-24350000D01*
G37*
X105115070Y-24350000D02*
X105035121Y-24350000D01*
X104893700Y-24208579D01*
X104893700Y-23904021D01*
X105035121Y-23762600D01*
X105115070Y-23762600D01*
X105115070Y-24350000D01*
G36*
X103300000Y-25090001D02*
G01*
X102480001Y-25090001D01*
X102480001Y-24809999D01*
X103300000Y-24809999D01*
X103300000Y-25090001D01*
G37*
X103300000Y-25090001D02*
X102480001Y-25090001D01*
X102480001Y-24809999D01*
X103300000Y-24809999D01*
X103300000Y-25090001D01*
G36*
X103300000Y-24090001D02*
G01*
X102480001Y-24090001D01*
X102480001Y-23810001D01*
X103300000Y-23810001D01*
X103300000Y-24090001D01*
G37*
X103300000Y-24090001D02*
X102480001Y-24090001D01*
X102480001Y-23810001D01*
X103300000Y-23810001D01*
X103300000Y-24090001D01*
G36*
X104290000Y-22923400D02*
G01*
X104060000Y-22923400D01*
X104060000Y-22475000D01*
X104290000Y-22475000D01*
X104290000Y-22923400D01*
G37*
X104290000Y-22923400D02*
X104060000Y-22923400D01*
X104060000Y-22475000D01*
X104290000Y-22475000D01*
X104290000Y-22923400D01*
G36*
X103840000Y-22923400D02*
G01*
X103610000Y-22923400D01*
X103610000Y-22475000D01*
X103840000Y-22475000D01*
X103840000Y-22923400D01*
G37*
X103840000Y-22923400D02*
X103610000Y-22923400D01*
X103610000Y-22475000D01*
X103840000Y-22475000D01*
X103840000Y-22923400D01*
G36*
X106319999Y-24590000D02*
G01*
X105500000Y-24590000D01*
X105500000Y-24310000D01*
X106319999Y-24310000D01*
X106319999Y-24590000D01*
G37*
X106319999Y-24590000D02*
X105500000Y-24590000D01*
X105500000Y-24310000D01*
X106319999Y-24310000D01*
X106319999Y-24590000D01*
G36*
X103906300Y-23904021D02*
G01*
X103906300Y-24208579D01*
X103764879Y-24350000D01*
X103684930Y-24350000D01*
X103684930Y-23762600D01*
X103764879Y-23762600D01*
X103906300Y-23904021D01*
G37*
X103906300Y-23904021D02*
X103906300Y-24208579D01*
X103764879Y-24350000D01*
X103684930Y-24350000D01*
X103684930Y-23762600D01*
X103764879Y-23762600D01*
X103906300Y-23904021D01*
G36*
X103300000Y-25590000D02*
G01*
X102480001Y-25590000D01*
X102480001Y-25310001D01*
X103300000Y-25310001D01*
X103300000Y-25590000D01*
G37*
X103300000Y-25590000D02*
X102480001Y-25590000D01*
X102480001Y-25310001D01*
X103300000Y-25310001D01*
X103300000Y-25590000D01*
D11*
X102400000Y-62450000D03*
X103950000Y-62450000D03*
D12*
X100200000Y-24825000D03*
X100200000Y-26375000D03*
D13*
X102400000Y-61100000D03*
X100850000Y-61100000D03*
D14*
X103380000Y-55732500D03*
X102420000Y-55732500D03*
D15*
X102400000Y-57862500D03*
X102400000Y-56902500D03*
D16*
X120620000Y-37350000D03*
X121580000Y-37350000D03*
X120320000Y-35250000D03*
X121280000Y-35250000D03*
X121020000Y-38450000D03*
X121980000Y-38450000D03*
X120220000Y-36300000D03*
X121180000Y-36300000D03*
D17*
X96850000Y-42950000D03*
X96850000Y-40750000D03*
X95150000Y-40750000D03*
X95150000Y-42950000D03*
D18*
X98100000Y-23160000D03*
X98100000Y-22140000D03*
D19*
X111610000Y-19150000D03*
X110590000Y-19150000D03*
D20*
X89780000Y-23050000D03*
X84020000Y-23050000D03*
X84020000Y-19050000D03*
X89780000Y-19050000D03*
D21*
X107000000Y-34250000D03*
X107000000Y-31050000D03*
D15*
X109270572Y-25930000D03*
X109270572Y-24970000D03*
D22*
X102400000Y-52385000D03*
X102400000Y-53355000D03*
X101900000Y-46080000D03*
X101900000Y-47050000D03*
D14*
X99880000Y-39950000D03*
X98920000Y-39950000D03*
D23*
X99200000Y-43170000D03*
X99200000Y-44130000D03*
D16*
X109920000Y-43150000D03*
X110880000Y-43150000D03*
D18*
X100100000Y-37260000D03*
X100100000Y-36240000D03*
D16*
X93085000Y-29945000D03*
X94045000Y-29945000D03*
D19*
X121154000Y-39537000D03*
X120134000Y-39537000D03*
D24*
X112650000Y-20450000D03*
D25*
X110950000Y-20450000D03*
X110950000Y-22450000D03*
X112850000Y-22450000D03*
D18*
X83100000Y-37260000D03*
X83100000Y-36240000D03*
D16*
X92220000Y-22350000D03*
X93180000Y-22350000D03*
D19*
X97910000Y-21050000D03*
X96890000Y-21050000D03*
D26*
X121297000Y-50685000D03*
X121297000Y-49715000D03*
D23*
X103100000Y-46090000D03*
X103100000Y-47050000D03*
D27*
X118524100Y-39850000D03*
X118524100Y-39350001D03*
X118524100Y-38849999D03*
X118524100Y-38350000D03*
X118524100Y-37850001D03*
X118524100Y-37349999D03*
X118524100Y-36850000D03*
D28*
X117700000Y-36025900D03*
X117200001Y-36025900D03*
X116699999Y-36025900D03*
X116200000Y-36025900D03*
X115700001Y-36025900D03*
X115199999Y-36025900D03*
X114700000Y-36025900D03*
D27*
X113875900Y-36850000D03*
X113875900Y-37349999D03*
X113875900Y-37850001D03*
X113875900Y-38350000D03*
X113875900Y-38849999D03*
X113875900Y-39350001D03*
X113875900Y-39850000D03*
D28*
X114700000Y-40674100D03*
X115199999Y-40674100D03*
X115700001Y-40674100D03*
X116200000Y-40674100D03*
X116699999Y-40674100D03*
X117200001Y-40674100D03*
X117700000Y-40674100D03*
D19*
X118510000Y-34450000D03*
X117490000Y-34450000D03*
D29*
X87027500Y-41583650D03*
X87677501Y-41583650D03*
X88327499Y-41583650D03*
X88977501Y-41583650D03*
X89627499Y-41583650D03*
X90277498Y-41583650D03*
X90927499Y-41583650D03*
X91577498Y-41583650D03*
X92227499Y-41583650D03*
X92877498Y-41583650D03*
X92877500Y-35944850D03*
X92227502Y-35944850D03*
X91577501Y-35944850D03*
X90927502Y-35944850D03*
X90277501Y-35944850D03*
X89627502Y-35944850D03*
X88977501Y-35944850D03*
X88327502Y-35944850D03*
X87677501Y-35944850D03*
X87027502Y-35944850D03*
D15*
X104200000Y-34980000D03*
X104200000Y-34020000D03*
D12*
X98750000Y-24775000D03*
X98750000Y-26325000D03*
D16*
X90040000Y-25950000D03*
X91000000Y-25950000D03*
D15*
X108070572Y-25930000D03*
X108070572Y-24970000D03*
D23*
X98900000Y-36270000D03*
X98900000Y-37230000D03*
D16*
X110320000Y-38250000D03*
X111280000Y-38250000D03*
X100826000Y-45070000D03*
X101786000Y-45070000D03*
D30*
X102450000Y-43050001D03*
X102949999Y-43050001D03*
X103449998Y-43050001D03*
X103950000Y-43050001D03*
X104449999Y-43050001D03*
X104950000Y-43050001D03*
X105450000Y-43050001D03*
X105949998Y-43050001D03*
X106450000Y-43050001D03*
X106949999Y-43050001D03*
X107450001Y-43050001D03*
X107950000Y-43050001D03*
D31*
X108600001Y-42400000D03*
X108600001Y-41900001D03*
X108600001Y-41400002D03*
X108600001Y-40900000D03*
X108600001Y-40400001D03*
X108600001Y-39900000D03*
X108600001Y-39400000D03*
X108600001Y-38900002D03*
X108600001Y-38400000D03*
X108600001Y-37900001D03*
X108600001Y-37399999D03*
X108600001Y-36900000D03*
D30*
X107950000Y-36249999D03*
X107450001Y-36249999D03*
X106949999Y-36249999D03*
X106450000Y-36249999D03*
X105949998Y-36249999D03*
X105450000Y-36249999D03*
X104950000Y-36249999D03*
X104449999Y-36249999D03*
X103950000Y-36249999D03*
X103449998Y-36249999D03*
X102949999Y-36249999D03*
X102450000Y-36249999D03*
D31*
X101799999Y-36900000D03*
X101799999Y-37399999D03*
X101799999Y-37900001D03*
X101799999Y-38400000D03*
X101799999Y-38900002D03*
X101799999Y-39400000D03*
X101799999Y-39900000D03*
X101799999Y-40400001D03*
X101799999Y-40900000D03*
X101799999Y-41400002D03*
X101799999Y-41900001D03*
X101799999Y-42400000D03*
D14*
X99880000Y-41050000D03*
X98920000Y-41050000D03*
D32*
X108500000Y-49800000D03*
X108500000Y-47300000D03*
D19*
X121154000Y-40680000D03*
X120134000Y-40680000D03*
D33*
X117620000Y-56332500D03*
D34*
X119145000Y-57807500D03*
X119145000Y-54857500D03*
D23*
X113900000Y-49270000D03*
X113900000Y-50230000D03*
D15*
X107300000Y-23130000D03*
X107300000Y-22170000D03*
D14*
X102480000Y-51270000D03*
X101520000Y-51270000D03*
D35*
X102800000Y-34825000D03*
X102800000Y-33275000D03*
D23*
X102400000Y-63620000D03*
X102400000Y-64580000D03*
D36*
X115130000Y-26200000D03*
X115130000Y-25400000D03*
X115130000Y-24100000D03*
X115130000Y-23100000D03*
X115130000Y-22600000D03*
X115130000Y-21600000D03*
X115130000Y-20300000D03*
X115130000Y-19500000D03*
X115130000Y-19800000D03*
X115130000Y-20600000D03*
X115130000Y-21100000D03*
X115130000Y-22100000D03*
X115130000Y-23600000D03*
X115130000Y-24600000D03*
X115130000Y-25100000D03*
X115130000Y-25900000D03*
D15*
X110000000Y-37130000D03*
X110000000Y-36170000D03*
D16*
X102520000Y-48170000D03*
X103480000Y-48170000D03*
D35*
X97150000Y-26376000D03*
X97150000Y-24826000D03*
D18*
X119773000Y-49799000D03*
X119773000Y-48779000D03*
D16*
X102420000Y-54450000D03*
X103380000Y-54450000D03*
D26*
X84424000Y-42553000D03*
X84424000Y-41583000D03*
D15*
X110800000Y-50030000D03*
X110800000Y-49070000D03*
D19*
X109110000Y-19150000D03*
X108090000Y-19150000D03*
D23*
X110800000Y-47070000D03*
X110800000Y-48030000D03*
D22*
X102400000Y-58897500D03*
X102400000Y-59867500D03*
D23*
X104300000Y-46090000D03*
X104300000Y-47050000D03*
D37*
X113940000Y-53700000D03*
X114960000Y-53700000D03*
X93090000Y-31050000D03*
X94110000Y-31050000D03*
D22*
X102500000Y-49185000D03*
X102500000Y-50155000D03*
D38*
X115238000Y-52297800D03*
X115746000Y-52297800D03*
X116254000Y-52297800D03*
X116762000Y-52297800D03*
X116762000Y-49402200D03*
X116254000Y-49402200D03*
X115746000Y-49402200D03*
X115238000Y-49402200D03*
D39*
X116000000Y-50850000D03*
D37*
X111890000Y-24250000D03*
X112910000Y-24250000D03*
D18*
X96900000Y-23160000D03*
X96900000Y-22140000D03*
D26*
X84527000Y-37939000D03*
X84527000Y-36969000D03*
D18*
X82900000Y-41550000D03*
X82900000Y-40530000D03*
D19*
X121192000Y-41914000D03*
X120172000Y-41914000D03*
D40*
X101837000Y-44070000D03*
X102807000Y-44070000D03*
D41*
X101100000Y-33225000D03*
X101100000Y-34875000D03*
D40*
X103107000Y-45070000D03*
X104077000Y-45070000D03*
D13*
X104375000Y-31550000D03*
X102825000Y-31550000D03*
M02*
