%TF.GenerationSoftware,KiCad,Pcbnew,(6.0.7)*%
%TF.CreationDate,2022-10-19T23:25:32-04:00*%
%TF.ProjectId,Emrick,456d7269-636b-42e6-9b69-6361645f7063,1*%
%TF.SameCoordinates,Original*%
%TF.FileFunction,Legend,Bot*%
%TF.FilePolarity,Positive*%
%FSLAX46Y46*%
G04 Gerber Fmt 4.6, Leading zero omitted, Abs format (unit mm)*
G04 Created by KiCad (PCBNEW (6.0.7)) date 2022-10-19 23:25:32*
%MOMM*%
%LPD*%
G01*
G04 APERTURE LIST*
G04 Aperture macros list*
%AMRoundRect*
0 Rectangle with rounded corners*
0 $1 Rounding radius*
0 $2 $3 $4 $5 $6 $7 $8 $9 X,Y pos of 4 corners*
0 Add a 4 corners polygon primitive as box body*
4,1,4,$2,$3,$4,$5,$6,$7,$8,$9,$2,$3,0*
0 Add four circle primitives for the rounded corners*
1,1,$1+$1,$2,$3*
1,1,$1+$1,$4,$5*
1,1,$1+$1,$6,$7*
1,1,$1+$1,$8,$9*
0 Add four rect primitives between the rounded corners*
20,1,$1+$1,$2,$3,$4,$5,0*
20,1,$1+$1,$4,$5,$6,$7,0*
20,1,$1+$1,$6,$7,$8,$9,0*
20,1,$1+$1,$8,$9,$2,$3,0*%
G04 Aperture macros list end*
%ADD10C,0.300000*%
%ADD11C,0.150000*%
%ADD12C,0.120000*%
%ADD13C,0.508000*%
%ADD14C,0.499999*%
%ADD15O,1.000000X1.000000*%
%ADD16R,1.000000X1.000000*%
%ADD17R,1.700000X1.700000*%
%ADD18O,1.700000X1.700000*%
%ADD19C,0.650000*%
%ADD20O,1.600000X1.000000*%
%ADD21O,2.100000X1.000000*%
%ADD22R,1.900000X2.500000*%
%ADD23R,0.279400X0.508000*%
%ADD24R,0.381000X0.508000*%
%ADD25RoundRect,0.200000X-0.275000X0.200000X-0.275000X-0.200000X0.275000X-0.200000X0.275000X0.200000X0*%
%ADD26R,0.660400X1.041400*%
%ADD27R,0.762000X1.854200*%
G04 APERTURE END LIST*
D10*
X117385714Y-47055357D02*
X116885714Y-47055357D01*
X116671428Y-47841071D02*
X117385714Y-47841071D01*
X117385714Y-46341071D01*
X116671428Y-46341071D01*
X116028571Y-47841071D02*
X116028571Y-46841071D01*
X116028571Y-46983928D02*
X115957142Y-46912500D01*
X115814285Y-46841071D01*
X115600000Y-46841071D01*
X115457142Y-46912500D01*
X115385714Y-47055357D01*
X115385714Y-47841071D01*
X115385714Y-47055357D02*
X115314285Y-46912500D01*
X115171428Y-46841071D01*
X114957142Y-46841071D01*
X114814285Y-46912500D01*
X114742857Y-47055357D01*
X114742857Y-47841071D01*
X114028571Y-47841071D02*
X114028571Y-46841071D01*
X114028571Y-47126785D02*
X113957142Y-46983928D01*
X113885714Y-46912500D01*
X113742857Y-46841071D01*
X113600000Y-46841071D01*
X113100000Y-47841071D02*
X113100000Y-46841071D01*
X113100000Y-46341071D02*
X113171428Y-46412500D01*
X113100000Y-46483928D01*
X113028571Y-46412500D01*
X113100000Y-46341071D01*
X113100000Y-46483928D01*
X111742857Y-47769642D02*
X111885714Y-47841071D01*
X112171428Y-47841071D01*
X112314285Y-47769642D01*
X112385714Y-47698214D01*
X112457142Y-47555357D01*
X112457142Y-47126785D01*
X112385714Y-46983928D01*
X112314285Y-46912500D01*
X112171428Y-46841071D01*
X111885714Y-46841071D01*
X111742857Y-46912500D01*
X111100000Y-47841071D02*
X111100000Y-46341071D01*
X110957142Y-47269642D02*
X110528571Y-47841071D01*
X110528571Y-46841071D02*
X111100000Y-47412500D01*
X108742857Y-47841071D02*
X108742857Y-46841071D01*
X108742857Y-47126785D02*
X108671428Y-46983928D01*
X108600000Y-46912500D01*
X108457142Y-46841071D01*
X108314285Y-46841071D01*
X107242857Y-47769642D02*
X107385714Y-47841071D01*
X107671428Y-47841071D01*
X107814285Y-47769642D01*
X107885714Y-47626785D01*
X107885714Y-47055357D01*
X107814285Y-46912500D01*
X107671428Y-46841071D01*
X107385714Y-46841071D01*
X107242857Y-46912500D01*
X107171428Y-47055357D01*
X107171428Y-47198214D01*
X107885714Y-47341071D01*
X106671428Y-46841071D02*
X106314285Y-47841071D01*
X105957142Y-46841071D01*
X103457142Y-47841071D02*
X104314285Y-47841071D01*
X103885714Y-47841071D02*
X103885714Y-46341071D01*
X104028571Y-46555357D01*
X104171428Y-46698214D01*
X104314285Y-46769642D01*
X100885714Y-47841071D02*
X101742857Y-47841071D01*
X101314285Y-47841071D02*
X101314285Y-46341071D01*
X101457142Y-46555357D01*
X101600000Y-46698214D01*
X101742857Y-46769642D01*
X99957142Y-46341071D02*
X99814285Y-46341071D01*
X99671428Y-46412500D01*
X99600000Y-46483928D01*
X99528571Y-46626785D01*
X99457142Y-46912500D01*
X99457142Y-47269642D01*
X99528571Y-47555357D01*
X99600000Y-47698214D01*
X99671428Y-47769642D01*
X99814285Y-47841071D01*
X99957142Y-47841071D01*
X100100000Y-47769642D01*
X100171428Y-47698214D01*
X100242857Y-47555357D01*
X100314285Y-47269642D01*
X100314285Y-46912500D01*
X100242857Y-46626785D01*
X100171428Y-46483928D01*
X100100000Y-46412500D01*
X99957142Y-46341071D01*
X97742857Y-46269642D02*
X99028571Y-48198214D01*
X96457142Y-47841071D02*
X97314285Y-47841071D01*
X96885714Y-47841071D02*
X96885714Y-46341071D01*
X97028571Y-46555357D01*
X97171428Y-46698214D01*
X97314285Y-46769642D01*
X95742857Y-47841071D02*
X95457142Y-47841071D01*
X95314285Y-47769642D01*
X95242857Y-47698214D01*
X95100000Y-47483928D01*
X95028571Y-47198214D01*
X95028571Y-46626785D01*
X95100000Y-46483928D01*
X95171428Y-46412500D01*
X95314285Y-46341071D01*
X95600000Y-46341071D01*
X95742857Y-46412500D01*
X95814285Y-46483928D01*
X95885714Y-46626785D01*
X95885714Y-46983928D01*
X95814285Y-47126785D01*
X95742857Y-47198214D01*
X95600000Y-47269642D01*
X95314285Y-47269642D01*
X95171428Y-47198214D01*
X95100000Y-47126785D01*
X95028571Y-46983928D01*
X93314285Y-46269642D02*
X94600000Y-48198214D01*
X92885714Y-46483928D02*
X92814285Y-46412500D01*
X92671428Y-46341071D01*
X92314285Y-46341071D01*
X92171428Y-46412500D01*
X92100000Y-46483928D01*
X92028571Y-46626785D01*
X92028571Y-46769642D01*
X92100000Y-46983928D01*
X92957142Y-47841071D01*
X92028571Y-47841071D01*
X91100000Y-46341071D02*
X90957142Y-46341071D01*
X90814285Y-46412500D01*
X90742857Y-46483928D01*
X90671428Y-46626785D01*
X90600000Y-46912500D01*
X90600000Y-47269642D01*
X90671428Y-47555357D01*
X90742857Y-47698214D01*
X90814285Y-47769642D01*
X90957142Y-47841071D01*
X91100000Y-47841071D01*
X91242857Y-47769642D01*
X91314285Y-47698214D01*
X91385714Y-47555357D01*
X91457142Y-47269642D01*
X91457142Y-46912500D01*
X91385714Y-46626785D01*
X91314285Y-46483928D01*
X91242857Y-46412500D01*
X91100000Y-46341071D01*
X90028571Y-46483928D02*
X89957142Y-46412500D01*
X89814285Y-46341071D01*
X89457142Y-46341071D01*
X89314285Y-46412500D01*
X89242857Y-46483928D01*
X89171428Y-46626785D01*
X89171428Y-46769642D01*
X89242857Y-46983928D01*
X90100000Y-47841071D01*
X89171428Y-47841071D01*
X88600000Y-46483928D02*
X88528571Y-46412500D01*
X88385714Y-46341071D01*
X88028571Y-46341071D01*
X87885714Y-46412500D01*
X87814285Y-46483928D01*
X87742857Y-46626785D01*
X87742857Y-46769642D01*
X87814285Y-46983928D01*
X88671428Y-47841071D01*
X87742857Y-47841071D01*
X107957142Y-50184642D02*
X107742857Y-50256071D01*
X107385714Y-50256071D01*
X107242857Y-50184642D01*
X107171428Y-50113214D01*
X107100000Y-49970357D01*
X107100000Y-49827500D01*
X107171428Y-49684642D01*
X107242857Y-49613214D01*
X107385714Y-49541785D01*
X107671428Y-49470357D01*
X107814285Y-49398928D01*
X107885714Y-49327500D01*
X107957142Y-49184642D01*
X107957142Y-49041785D01*
X107885714Y-48898928D01*
X107814285Y-48827500D01*
X107671428Y-48756071D01*
X107314285Y-48756071D01*
X107100000Y-48827500D01*
X105814285Y-50256071D02*
X105814285Y-49470357D01*
X105885714Y-49327500D01*
X106028571Y-49256071D01*
X106314285Y-49256071D01*
X106457142Y-49327500D01*
X105814285Y-50184642D02*
X105957142Y-50256071D01*
X106314285Y-50256071D01*
X106457142Y-50184642D01*
X106528571Y-50041785D01*
X106528571Y-49898928D01*
X106457142Y-49756071D01*
X106314285Y-49684642D01*
X105957142Y-49684642D01*
X105814285Y-49613214D01*
X105100000Y-50256071D02*
X105100000Y-49256071D01*
X105100000Y-49398928D02*
X105028571Y-49327500D01*
X104885714Y-49256071D01*
X104671428Y-49256071D01*
X104528571Y-49327500D01*
X104457142Y-49470357D01*
X104457142Y-50256071D01*
X104457142Y-49470357D02*
X104385714Y-49327500D01*
X104242857Y-49256071D01*
X104028571Y-49256071D01*
X103885714Y-49327500D01*
X103814285Y-49470357D01*
X103814285Y-50256071D01*
X101957142Y-50256071D02*
X101957142Y-48756071D01*
X101600000Y-48756071D01*
X101385714Y-48827500D01*
X101242857Y-48970357D01*
X101171428Y-49113214D01*
X101100000Y-49398928D01*
X101100000Y-49613214D01*
X101171428Y-49898928D01*
X101242857Y-50041785D01*
X101385714Y-50184642D01*
X101600000Y-50256071D01*
X101957142Y-50256071D01*
X100242857Y-50256071D02*
X100385714Y-50184642D01*
X100457142Y-50041785D01*
X100457142Y-48756071D01*
X99457142Y-50256071D02*
X99600000Y-50184642D01*
X99671428Y-50113214D01*
X99742857Y-49970357D01*
X99742857Y-49541785D01*
X99671428Y-49398928D01*
X99600000Y-49327500D01*
X99457142Y-49256071D01*
X99242857Y-49256071D01*
X99100000Y-49327500D01*
X99028571Y-49398928D01*
X98957142Y-49541785D01*
X98957142Y-49970357D01*
X99028571Y-50113214D01*
X99100000Y-50184642D01*
X99242857Y-50256071D01*
X99457142Y-50256071D01*
X98528571Y-49256071D02*
X97957142Y-49256071D01*
X98314285Y-48756071D02*
X98314285Y-50041785D01*
X98242857Y-50184642D01*
X98100000Y-50256071D01*
X97957142Y-50256071D01*
X97671428Y-49256071D02*
X97100000Y-49256071D01*
X97457142Y-48756071D02*
X97457142Y-50041785D01*
X97385714Y-50184642D01*
X97242857Y-50256071D01*
X97100000Y-50256071D01*
X109350000Y-51885357D02*
X108850000Y-51885357D01*
X108635714Y-52671071D02*
X109350000Y-52671071D01*
X109350000Y-51171071D01*
X108635714Y-51171071D01*
X107992857Y-52671071D02*
X107992857Y-51671071D01*
X107992857Y-51956785D02*
X107921428Y-51813928D01*
X107850000Y-51742500D01*
X107707142Y-51671071D01*
X107564285Y-51671071D01*
X107064285Y-52671071D02*
X107064285Y-51671071D01*
X107064285Y-51171071D02*
X107135714Y-51242500D01*
X107064285Y-51313928D01*
X106992857Y-51242500D01*
X107064285Y-51171071D01*
X107064285Y-51313928D01*
X106350000Y-52671071D02*
X106350000Y-51171071D01*
X106207142Y-52099642D02*
X105778571Y-52671071D01*
X105778571Y-51671071D02*
X106350000Y-52242500D01*
X103992857Y-52671071D02*
X103992857Y-51171071D01*
X103635714Y-51171071D01*
X103421428Y-51242500D01*
X103278571Y-51385357D01*
X103207142Y-51528214D01*
X103135714Y-51813928D01*
X103135714Y-52028214D01*
X103207142Y-52313928D01*
X103278571Y-52456785D01*
X103421428Y-52599642D01*
X103635714Y-52671071D01*
X103992857Y-52671071D01*
X101850000Y-51671071D02*
X101850000Y-52671071D01*
X102492857Y-51671071D02*
X102492857Y-52456785D01*
X102421428Y-52599642D01*
X102278571Y-52671071D01*
X102064285Y-52671071D01*
X101921428Y-52599642D01*
X101850000Y-52528214D01*
X101278571Y-52671071D02*
X100492857Y-51671071D01*
X101278571Y-51671071D02*
X100492857Y-52671071D01*
X99992857Y-52599642D02*
X99850000Y-52671071D01*
X99564285Y-52671071D01*
X99421428Y-52599642D01*
X99350000Y-52456785D01*
X99350000Y-52385357D01*
X99421428Y-52242500D01*
X99564285Y-52171071D01*
X99778571Y-52171071D01*
X99921428Y-52099642D01*
X99992857Y-51956785D01*
X99992857Y-51885357D01*
X99921428Y-51742500D01*
X99778571Y-51671071D01*
X99564285Y-51671071D01*
X99421428Y-51742500D01*
X98921428Y-51671071D02*
X98350000Y-51671071D01*
X98707142Y-51171071D02*
X98707142Y-52456785D01*
X98635714Y-52599642D01*
X98492857Y-52671071D01*
X98350000Y-52671071D01*
X97207142Y-52671071D02*
X97207142Y-51885357D01*
X97278571Y-51742500D01*
X97421428Y-51671071D01*
X97707142Y-51671071D01*
X97850000Y-51742500D01*
X97207142Y-52599642D02*
X97350000Y-52671071D01*
X97707142Y-52671071D01*
X97850000Y-52599642D01*
X97921428Y-52456785D01*
X97921428Y-52313928D01*
X97850000Y-52171071D01*
X97707142Y-52099642D01*
X97350000Y-52099642D01*
X97207142Y-52028214D01*
X95850000Y-52671071D02*
X95850000Y-51171071D01*
X95850000Y-52599642D02*
X95992857Y-52671071D01*
X96278571Y-52671071D01*
X96421428Y-52599642D01*
X96492857Y-52528214D01*
X96564285Y-52385357D01*
X96564285Y-51956785D01*
X96492857Y-51813928D01*
X96421428Y-51742500D01*
X96278571Y-51671071D01*
X95992857Y-51671071D01*
X95850000Y-51742500D01*
X108671428Y-53586071D02*
X107671428Y-53586071D01*
X108671428Y-55086071D01*
X107671428Y-55086071D01*
X106457142Y-55086071D02*
X106457142Y-54300357D01*
X106528571Y-54157500D01*
X106671428Y-54086071D01*
X106957142Y-54086071D01*
X107100000Y-54157500D01*
X106457142Y-55014642D02*
X106600000Y-55086071D01*
X106957142Y-55086071D01*
X107100000Y-55014642D01*
X107171428Y-54871785D01*
X107171428Y-54728928D01*
X107100000Y-54586071D01*
X106957142Y-54514642D01*
X106600000Y-54514642D01*
X106457142Y-54443214D01*
X105742857Y-55086071D02*
X105742857Y-54086071D01*
X105742857Y-54371785D02*
X105671428Y-54228928D01*
X105600000Y-54157500D01*
X105457142Y-54086071D01*
X105314285Y-54086071D01*
X104242857Y-55014642D02*
X104385714Y-55086071D01*
X104671428Y-55086071D01*
X104814285Y-55014642D01*
X104885714Y-54871785D01*
X104885714Y-54300357D01*
X104814285Y-54157500D01*
X104671428Y-54086071D01*
X104385714Y-54086071D01*
X104242857Y-54157500D01*
X104171428Y-54300357D01*
X104171428Y-54443214D01*
X104885714Y-54586071D01*
X102957142Y-55014642D02*
X103100000Y-55086071D01*
X103385714Y-55086071D01*
X103528571Y-55014642D01*
X103600000Y-54871785D01*
X103600000Y-54300357D01*
X103528571Y-54157500D01*
X103385714Y-54086071D01*
X103100000Y-54086071D01*
X102957142Y-54157500D01*
X102885714Y-54300357D01*
X102885714Y-54443214D01*
X103600000Y-54586071D01*
X102457142Y-54086071D02*
X101885714Y-54086071D01*
X102242857Y-55086071D02*
X102242857Y-53800357D01*
X102171428Y-53657500D01*
X102028571Y-53586071D01*
X101885714Y-53586071D01*
X100242857Y-55086071D02*
X100242857Y-53586071D01*
X100242857Y-54300357D02*
X99385714Y-54300357D01*
X99385714Y-55086071D02*
X99385714Y-53586071D01*
X98028571Y-54086071D02*
X98028571Y-55086071D01*
X98671428Y-54086071D02*
X98671428Y-54871785D01*
X98600000Y-55014642D01*
X98457142Y-55086071D01*
X98242857Y-55086071D01*
X98100000Y-55014642D01*
X98028571Y-54943214D01*
X96671428Y-54086071D02*
X96671428Y-55586071D01*
X96671428Y-55014642D02*
X96814285Y-55086071D01*
X97100000Y-55086071D01*
X97242857Y-55014642D01*
X97314285Y-54943214D01*
X97385714Y-54800357D01*
X97385714Y-54371785D01*
X97314285Y-54228928D01*
X97242857Y-54157500D01*
X97100000Y-54086071D01*
X96814285Y-54086071D01*
X96671428Y-54157500D01*
X110028571Y-57501071D02*
X110028571Y-56001071D01*
X110028571Y-56715357D02*
X109171428Y-56715357D01*
X109171428Y-57501071D02*
X109171428Y-56001071D01*
X107814285Y-57501071D02*
X107814285Y-56715357D01*
X107885714Y-56572500D01*
X108028571Y-56501071D01*
X108314285Y-56501071D01*
X108457142Y-56572500D01*
X107814285Y-57429642D02*
X107957142Y-57501071D01*
X108314285Y-57501071D01*
X108457142Y-57429642D01*
X108528571Y-57286785D01*
X108528571Y-57143928D01*
X108457142Y-57001071D01*
X108314285Y-56929642D01*
X107957142Y-56929642D01*
X107814285Y-56858214D01*
X107100000Y-57501071D02*
X107100000Y-56501071D01*
X107100000Y-56643928D02*
X107028571Y-56572500D01*
X106885714Y-56501071D01*
X106671428Y-56501071D01*
X106528571Y-56572500D01*
X106457142Y-56715357D01*
X106457142Y-57501071D01*
X106457142Y-56715357D02*
X106385714Y-56572500D01*
X106242857Y-56501071D01*
X106028571Y-56501071D01*
X105885714Y-56572500D01*
X105814285Y-56715357D01*
X105814285Y-57501071D01*
X105242857Y-56501071D02*
X104457142Y-56501071D01*
X105242857Y-57501071D01*
X104457142Y-57501071D01*
X103242857Y-57501071D02*
X103242857Y-56715357D01*
X103314285Y-56572500D01*
X103457142Y-56501071D01*
X103742857Y-56501071D01*
X103885714Y-56572500D01*
X103242857Y-57429642D02*
X103385714Y-57501071D01*
X103742857Y-57501071D01*
X103885714Y-57429642D01*
X103957142Y-57286785D01*
X103957142Y-57143928D01*
X103885714Y-57001071D01*
X103742857Y-56929642D01*
X103385714Y-56929642D01*
X103242857Y-56858214D01*
X101385714Y-57501071D02*
X101385714Y-56001071D01*
X100528571Y-57501071D02*
X101171428Y-56643928D01*
X100528571Y-56001071D02*
X101385714Y-56858214D01*
X99242857Y-57501071D02*
X99242857Y-56715357D01*
X99314285Y-56572500D01*
X99457142Y-56501071D01*
X99742857Y-56501071D01*
X99885714Y-56572500D01*
X99242857Y-57429642D02*
X99385714Y-57501071D01*
X99742857Y-57501071D01*
X99885714Y-57429642D01*
X99957142Y-57286785D01*
X99957142Y-57143928D01*
X99885714Y-57001071D01*
X99742857Y-56929642D01*
X99385714Y-56929642D01*
X99242857Y-56858214D01*
X98528571Y-57501071D02*
X98528571Y-56501071D01*
X98528571Y-56643928D02*
X98457142Y-56572500D01*
X98314285Y-56501071D01*
X98100000Y-56501071D01*
X97957142Y-56572500D01*
X97885714Y-56715357D01*
X97885714Y-57501071D01*
X97885714Y-56715357D02*
X97814285Y-56572500D01*
X97671428Y-56501071D01*
X97457142Y-56501071D01*
X97314285Y-56572500D01*
X97242857Y-56715357D01*
X97242857Y-57501071D01*
X95957142Y-57429642D02*
X96100000Y-57501071D01*
X96385714Y-57501071D01*
X96528571Y-57429642D01*
X96600000Y-57286785D01*
X96600000Y-56715357D01*
X96528571Y-56572500D01*
X96385714Y-56501071D01*
X96100000Y-56501071D01*
X95957142Y-56572500D01*
X95885714Y-56715357D01*
X95885714Y-56858214D01*
X96600000Y-57001071D01*
X95028571Y-57501071D02*
X95171428Y-57429642D01*
X95242857Y-57286785D01*
X95242857Y-56001071D01*
X116850000Y-59130357D02*
X116350000Y-59130357D01*
X116135714Y-59916071D02*
X116850000Y-59916071D01*
X116850000Y-58416071D01*
X116135714Y-58416071D01*
X114635714Y-59773214D02*
X114707142Y-59844642D01*
X114921428Y-59916071D01*
X115064285Y-59916071D01*
X115278571Y-59844642D01*
X115421428Y-59701785D01*
X115492857Y-59558928D01*
X115564285Y-59273214D01*
X115564285Y-59058928D01*
X115492857Y-58773214D01*
X115421428Y-58630357D01*
X115278571Y-58487500D01*
X115064285Y-58416071D01*
X114921428Y-58416071D01*
X114707142Y-58487500D01*
X114635714Y-58558928D01*
X113992857Y-59130357D02*
X113492857Y-59130357D01*
X113278571Y-59916071D02*
X113992857Y-59916071D01*
X113992857Y-58416071D01*
X113278571Y-58416071D01*
X111992857Y-58916071D02*
X111992857Y-59916071D01*
X112350000Y-58344642D02*
X112707142Y-59416071D01*
X111778571Y-59416071D01*
X111350000Y-58416071D02*
X110350000Y-58416071D01*
X110992857Y-59916071D01*
X109921428Y-58416071D02*
X108921428Y-58416071D01*
X109564285Y-59916071D01*
X106707142Y-59130357D02*
X107207142Y-59130357D01*
X107207142Y-59916071D02*
X107207142Y-58416071D01*
X106492857Y-58416071D01*
X105278571Y-59916071D02*
X105278571Y-59130357D01*
X105349999Y-58987500D01*
X105492857Y-58916071D01*
X105778571Y-58916071D01*
X105921428Y-58987500D01*
X105278571Y-59844642D02*
X105421428Y-59916071D01*
X105778571Y-59916071D01*
X105921428Y-59844642D01*
X105992857Y-59701785D01*
X105992857Y-59558928D01*
X105921428Y-59416071D01*
X105778571Y-59344642D01*
X105421428Y-59344642D01*
X105278571Y-59273214D01*
X104349999Y-59916071D02*
X104492857Y-59844642D01*
X104564285Y-59701785D01*
X104564285Y-58416071D01*
X103564285Y-59916071D02*
X103707142Y-59844642D01*
X103778571Y-59701785D01*
X103778571Y-58416071D01*
X101921428Y-58558928D02*
X101849999Y-58487500D01*
X101707142Y-58416071D01*
X101349999Y-58416071D01*
X101207142Y-58487500D01*
X101135714Y-58558928D01*
X101064285Y-58701785D01*
X101064285Y-58844642D01*
X101135714Y-59058928D01*
X101992857Y-59916071D01*
X101064285Y-59916071D01*
X100492857Y-58558928D02*
X100421428Y-58487500D01*
X100278571Y-58416071D01*
X99921428Y-58416071D01*
X99778571Y-58487500D01*
X99707142Y-58558928D01*
X99635714Y-58701785D01*
X99635714Y-58844642D01*
X99707142Y-59058928D01*
X100564285Y-59916071D01*
X99635714Y-59916071D01*
X97064285Y-58487500D02*
X97207142Y-58416071D01*
X97421428Y-58416071D01*
X97635714Y-58487500D01*
X97778571Y-58630357D01*
X97849999Y-58773214D01*
X97921428Y-59058928D01*
X97921428Y-59273214D01*
X97849999Y-59558928D01*
X97778571Y-59701785D01*
X97635714Y-59844642D01*
X97421428Y-59916071D01*
X97278571Y-59916071D01*
X97064285Y-59844642D01*
X96992857Y-59773214D01*
X96992857Y-59273214D01*
X97278571Y-59273214D01*
X96349999Y-59916071D02*
X96349999Y-58916071D01*
X96349999Y-59201785D02*
X96278571Y-59058928D01*
X96207142Y-58987500D01*
X96064285Y-58916071D01*
X95921428Y-58916071D01*
X95207142Y-59916071D02*
X95349999Y-59844642D01*
X95421428Y-59773214D01*
X95492857Y-59630357D01*
X95492857Y-59201785D01*
X95421428Y-59058928D01*
X95349999Y-58987500D01*
X95207142Y-58916071D01*
X94992857Y-58916071D01*
X94849999Y-58987500D01*
X94778571Y-59058928D01*
X94707142Y-59201785D01*
X94707142Y-59630357D01*
X94778571Y-59773214D01*
X94849999Y-59844642D01*
X94992857Y-59916071D01*
X95207142Y-59916071D01*
X93421428Y-58916071D02*
X93421428Y-59916071D01*
X94064285Y-58916071D02*
X94064285Y-59701785D01*
X93992857Y-59844642D01*
X93849999Y-59916071D01*
X93635714Y-59916071D01*
X93492857Y-59844642D01*
X93421428Y-59773214D01*
X92707142Y-58916071D02*
X92707142Y-60416071D01*
X92707142Y-58987500D02*
X92564285Y-58916071D01*
X92278571Y-58916071D01*
X92135714Y-58987500D01*
X92064285Y-59058928D01*
X91992857Y-59201785D01*
X91992857Y-59630357D01*
X92064285Y-59773214D01*
X92135714Y-59844642D01*
X92278571Y-59916071D01*
X92564285Y-59916071D01*
X92707142Y-59844642D01*
X90278571Y-58558928D02*
X90207142Y-58487500D01*
X90064285Y-58416071D01*
X89707142Y-58416071D01*
X89564285Y-58487500D01*
X89492857Y-58558928D01*
X89421428Y-58701785D01*
X89421428Y-58844642D01*
X89492857Y-59058928D01*
X90349999Y-59916071D01*
X89421428Y-59916071D01*
D11*
%TO.C,L8*%
X106666666Y-29152380D02*
X107142857Y-29152380D01*
X107142857Y-28152380D01*
X106190476Y-28580952D02*
X106285714Y-28533333D01*
X106333333Y-28485714D01*
X106380952Y-28390476D01*
X106380952Y-28342857D01*
X106333333Y-28247619D01*
X106285714Y-28200000D01*
X106190476Y-28152380D01*
X106000000Y-28152380D01*
X105904761Y-28200000D01*
X105857142Y-28247619D01*
X105809523Y-28342857D01*
X105809523Y-28390476D01*
X105857142Y-28485714D01*
X105904761Y-28533333D01*
X106000000Y-28580952D01*
X106190476Y-28580952D01*
X106285714Y-28628571D01*
X106333333Y-28676190D01*
X106380952Y-28771428D01*
X106380952Y-28961904D01*
X106333333Y-29057142D01*
X106285714Y-29104761D01*
X106190476Y-29152380D01*
X106000000Y-29152380D01*
X105904761Y-29104761D01*
X105857142Y-29057142D01*
X105809523Y-28961904D01*
X105809523Y-28771428D01*
X105857142Y-28676190D01*
X105904761Y-28628571D01*
X106000000Y-28580952D01*
%TO.C,Q1*%
X97345238Y-38250619D02*
X97440476Y-38203000D01*
X97535714Y-38107761D01*
X97678571Y-37964904D01*
X97773809Y-37917285D01*
X97869047Y-37917285D01*
X97821428Y-38155380D02*
X97916666Y-38107761D01*
X98011904Y-38012523D01*
X98059523Y-37822047D01*
X98059523Y-37488714D01*
X98011904Y-37298238D01*
X97916666Y-37203000D01*
X97821428Y-37155380D01*
X97630952Y-37155380D01*
X97535714Y-37203000D01*
X97440476Y-37298238D01*
X97392857Y-37488714D01*
X97392857Y-37822047D01*
X97440476Y-38012523D01*
X97535714Y-38107761D01*
X97630952Y-38155380D01*
X97821428Y-38155380D01*
X96440476Y-38155380D02*
X97011904Y-38155380D01*
X96726190Y-38155380D02*
X96726190Y-37155380D01*
X96821428Y-37298238D01*
X96916666Y-37393476D01*
X97011904Y-37441095D01*
X97218000Y-35252380D02*
X97218000Y-35490476D01*
X97456095Y-35395238D02*
X97218000Y-35490476D01*
X96979904Y-35395238D01*
X97360857Y-35680952D02*
X97218000Y-35490476D01*
X97075142Y-35680952D01*
%TO.C,R9*%
X100952380Y-32583333D02*
X100476190Y-32250000D01*
X100952380Y-32011904D02*
X99952380Y-32011904D01*
X99952380Y-32392857D01*
X100000000Y-32488095D01*
X100047619Y-32535714D01*
X100142857Y-32583333D01*
X100285714Y-32583333D01*
X100380952Y-32535714D01*
X100428571Y-32488095D01*
X100476190Y-32392857D01*
X100476190Y-32011904D01*
X100952380Y-33059523D02*
X100952380Y-33250000D01*
X100904761Y-33345238D01*
X100857142Y-33392857D01*
X100714285Y-33488095D01*
X100523809Y-33535714D01*
X100142857Y-33535714D01*
X100047619Y-33488095D01*
X100000000Y-33440476D01*
X99952380Y-33345238D01*
X99952380Y-33154761D01*
X100000000Y-33059523D01*
X100047619Y-33011904D01*
X100142857Y-32964285D01*
X100380952Y-32964285D01*
X100476190Y-33011904D01*
X100523809Y-33059523D01*
X100571428Y-33154761D01*
X100571428Y-33345238D01*
X100523809Y-33440476D01*
X100476190Y-33488095D01*
X100380952Y-33535714D01*
%TO.C,Q2*%
X93395238Y-36847619D02*
X93490476Y-36800000D01*
X93585714Y-36704761D01*
X93728571Y-36561904D01*
X93823809Y-36514285D01*
X93919047Y-36514285D01*
X93871428Y-36752380D02*
X93966666Y-36704761D01*
X94061904Y-36609523D01*
X94109523Y-36419047D01*
X94109523Y-36085714D01*
X94061904Y-35895238D01*
X93966666Y-35800000D01*
X93871428Y-35752380D01*
X93680952Y-35752380D01*
X93585714Y-35800000D01*
X93490476Y-35895238D01*
X93442857Y-36085714D01*
X93442857Y-36419047D01*
X93490476Y-36609523D01*
X93585714Y-36704761D01*
X93680952Y-36752380D01*
X93871428Y-36752380D01*
X93061904Y-35847619D02*
X93014285Y-35800000D01*
X92919047Y-35752380D01*
X92680952Y-35752380D01*
X92585714Y-35800000D01*
X92538095Y-35847619D01*
X92490476Y-35942857D01*
X92490476Y-36038095D01*
X92538095Y-36180952D01*
X93109523Y-36752380D01*
X92490476Y-36752380D01*
X95335000Y-35252380D02*
X95335000Y-35490476D01*
X95573095Y-35395238D02*
X95335000Y-35490476D01*
X95096904Y-35395238D01*
X95477857Y-35680952D02*
X95335000Y-35490476D01*
X95192142Y-35680952D01*
%TO.C,J4*%
X86780333Y-21352380D02*
X86780333Y-22066666D01*
X86827952Y-22209523D01*
X86923190Y-22304761D01*
X87066047Y-22352380D01*
X87161285Y-22352380D01*
X85875571Y-21685714D02*
X85875571Y-22352380D01*
X86113666Y-21304761D02*
X86351761Y-22019047D01*
X85732714Y-22019047D01*
X86447000Y-22614380D02*
X86447000Y-22852476D01*
X86685095Y-22757238D02*
X86447000Y-22852476D01*
X86208904Y-22757238D01*
X86589857Y-23042952D02*
X86447000Y-22852476D01*
X86304142Y-23042952D01*
%TO.C,Q3*%
X101260238Y-36147619D02*
X101355476Y-36100000D01*
X101450714Y-36004761D01*
X101593571Y-35861904D01*
X101688809Y-35814285D01*
X101784047Y-35814285D01*
X101736428Y-36052380D02*
X101831666Y-36004761D01*
X101926904Y-35909523D01*
X101974523Y-35719047D01*
X101974523Y-35385714D01*
X101926904Y-35195238D01*
X101831666Y-35100000D01*
X101736428Y-35052380D01*
X101545952Y-35052380D01*
X101450714Y-35100000D01*
X101355476Y-35195238D01*
X101307857Y-35385714D01*
X101307857Y-35719047D01*
X101355476Y-35909523D01*
X101450714Y-36004761D01*
X101545952Y-36052380D01*
X101736428Y-36052380D01*
X100974523Y-35052380D02*
X100355476Y-35052380D01*
X100688809Y-35433333D01*
X100545952Y-35433333D01*
X100450714Y-35480952D01*
X100403095Y-35528571D01*
X100355476Y-35623809D01*
X100355476Y-35861904D01*
X100403095Y-35957142D01*
X100450714Y-36004761D01*
X100545952Y-36052380D01*
X100831666Y-36052380D01*
X100926904Y-36004761D01*
X100974523Y-35957142D01*
X99265000Y-35152380D02*
X99265000Y-35390476D01*
X99503095Y-35295238D02*
X99265000Y-35390476D01*
X99026904Y-35295238D01*
X99407857Y-35580952D02*
X99265000Y-35390476D01*
X99122142Y-35580952D01*
%TO.C,R7*%
X97952380Y-30333333D02*
X97476190Y-30000000D01*
X97952380Y-29761904D02*
X96952380Y-29761904D01*
X96952380Y-30142857D01*
X97000000Y-30238095D01*
X97047619Y-30285714D01*
X97142857Y-30333333D01*
X97285714Y-30333333D01*
X97380952Y-30285714D01*
X97428571Y-30238095D01*
X97476190Y-30142857D01*
X97476190Y-29761904D01*
X96952380Y-30666666D02*
X96952380Y-31333333D01*
X97952380Y-30904761D01*
%TO.C,R8*%
X94702380Y-32833333D02*
X94226190Y-32500000D01*
X94702380Y-32261904D02*
X93702380Y-32261904D01*
X93702380Y-32642857D01*
X93750000Y-32738095D01*
X93797619Y-32785714D01*
X93892857Y-32833333D01*
X94035714Y-32833333D01*
X94130952Y-32785714D01*
X94178571Y-32738095D01*
X94226190Y-32642857D01*
X94226190Y-32261904D01*
X94130952Y-33404761D02*
X94083333Y-33309523D01*
X94035714Y-33261904D01*
X93940476Y-33214285D01*
X93892857Y-33214285D01*
X93797619Y-33261904D01*
X93750000Y-33309523D01*
X93702380Y-33404761D01*
X93702380Y-33595238D01*
X93750000Y-33690476D01*
X93797619Y-33738095D01*
X93892857Y-33785714D01*
X93940476Y-33785714D01*
X94035714Y-33738095D01*
X94083333Y-33690476D01*
X94130952Y-33595238D01*
X94130952Y-33404761D01*
X94178571Y-33309523D01*
X94226190Y-33261904D01*
X94321428Y-33214285D01*
X94511904Y-33214285D01*
X94607142Y-33261904D01*
X94654761Y-33309523D01*
X94702380Y-33404761D01*
X94702380Y-33595238D01*
X94654761Y-33690476D01*
X94607142Y-33738095D01*
X94511904Y-33785714D01*
X94321428Y-33785714D01*
X94226190Y-33738095D01*
X94178571Y-33690476D01*
X94130952Y-33595238D01*
D12*
%TO.C,L8*%
X108300000Y-35100000D02*
X108300000Y-33950000D01*
X108300000Y-35100000D02*
X102700000Y-35100000D01*
X108300000Y-29700000D02*
X108300000Y-30850000D01*
X102700000Y-29700000D02*
X102700000Y-30850000D01*
X102700000Y-35100000D02*
X102700000Y-33950000D01*
X108300000Y-29700000D02*
X102700000Y-29700000D01*
%TO.C,Q1*%
X96494100Y-35166600D02*
X96694760Y-35166600D01*
X97941900Y-35166600D02*
X97941900Y-35765763D01*
X97741240Y-35166600D02*
X97941900Y-35166600D01*
X96494100Y-35765763D02*
X96494100Y-35166600D01*
X99211900Y-36347700D02*
G75*
G03*
X99211900Y-36347700I-127000J0D01*
G01*
%TO.C,R9*%
X98577500Y-32762742D02*
X98577500Y-33237258D01*
X99622500Y-32762742D02*
X99622500Y-33237258D01*
%TO.C,Q2*%
X96058900Y-35166600D02*
X96058900Y-35765763D01*
X94611100Y-35166600D02*
X94811760Y-35166600D01*
X94611100Y-35765763D02*
X94611100Y-35166600D01*
X95858240Y-35166600D02*
X96058900Y-35166600D01*
X97328900Y-36347700D02*
G75*
G03*
X97328900Y-36347700I-127000J0D01*
G01*
%TO.C,J4*%
X90320500Y-26311600D02*
X88809939Y-26311600D01*
X84084061Y-26311600D02*
X82573500Y-26311600D01*
X82573500Y-26311600D02*
X82573500Y-20012400D01*
X85784060Y-26311600D02*
X85409941Y-26311600D01*
X87484059Y-26311600D02*
X87109940Y-26311600D01*
X90320500Y-20012400D02*
X90320500Y-26311600D01*
X84022540Y-20012400D02*
X88871460Y-20012400D01*
X81176500Y-26184600D02*
G75*
G03*
X81176500Y-26184600I-381000J0D01*
G01*
%TO.C,Q3*%
X99788240Y-35066600D02*
X99988900Y-35066600D01*
X98541100Y-35665763D02*
X98541100Y-35066600D01*
X98541100Y-35066600D02*
X98741760Y-35066600D01*
X99988900Y-35066600D02*
X99988900Y-35665763D01*
X101258900Y-36247700D02*
G75*
G03*
X101258900Y-36247700I-127000J0D01*
G01*
%TO.C,R7*%
X98022500Y-32762742D02*
X98022500Y-33237258D01*
X96977500Y-32762742D02*
X96977500Y-33237258D01*
%TO.C,R8*%
X95377500Y-32762742D02*
X95377500Y-33237258D01*
X96422500Y-32762742D02*
X96422500Y-33237258D01*
%TD*%
%LPC*%
D13*
%TO.C,U6*%
X89571300Y-31056300D03*
X90358700Y-31843700D03*
X90358700Y-31056300D03*
X89571300Y-31843700D03*
%TD*%
D14*
%TO.C,U2*%
X102875001Y-41396499D03*
X102875001Y-43003501D03*
X107524999Y-41396499D03*
X106003501Y-39875001D03*
X104396499Y-44524999D03*
X104396499Y-43003501D03*
X107524999Y-43003501D03*
X104396499Y-41396499D03*
X106003501Y-44524999D03*
X104396499Y-39875001D03*
X106003501Y-41396499D03*
X106003501Y-43003501D03*
%TD*%
D15*
%TO.C,J3*%
X121630000Y-32855000D03*
X121630000Y-34125000D03*
X120360000Y-32855000D03*
X120360000Y-34125000D03*
X119090000Y-32855000D03*
X119090000Y-34125000D03*
X117820000Y-32855000D03*
X117820000Y-34125000D03*
X116550000Y-32855000D03*
D16*
X116550000Y-34125000D03*
%TD*%
D17*
%TO.C,SW1*%
X83907000Y-34831000D03*
D18*
X83907000Y-32291000D03*
X83907000Y-29751000D03*
%TD*%
D17*
%TO.C,J1*%
X105300000Y-21625000D03*
D18*
X102760000Y-21625000D03*
X100220000Y-21625000D03*
X97680000Y-21625000D03*
%TD*%
D19*
%TO.C,P1*%
X116195000Y-28290000D03*
X116195000Y-22510000D03*
D20*
X119875000Y-29720000D03*
D21*
X115695000Y-21080000D03*
X115695000Y-29720000D03*
D20*
X119875000Y-21080000D03*
%TD*%
D13*
%TO.C,U3*%
X104793700Y-27000000D03*
X104006300Y-27787400D03*
X104006300Y-26212600D03*
X104793700Y-26212600D03*
X104006300Y-27000000D03*
X104793700Y-27787400D03*
%TD*%
D22*
%TO.C,L8*%
X107550000Y-32400000D03*
X103450000Y-32400000D03*
%TD*%
D23*
%TO.C,Q1*%
X97618050Y-36296900D03*
X96817950Y-36296900D03*
D24*
X97218000Y-35103100D03*
%TD*%
D25*
%TO.C,R9*%
X99100000Y-32175000D03*
X99100000Y-33825000D03*
%TD*%
D23*
%TO.C,Q2*%
X95735050Y-36296900D03*
X94934950Y-36296900D03*
D24*
X95335000Y-35103100D03*
%TD*%
D26*
%TO.C,J4*%
X84747001Y-26184600D03*
X86447000Y-26184600D03*
X88146999Y-26184600D03*
D27*
X83372000Y-21134600D03*
X89522000Y-21134600D03*
%TD*%
D23*
%TO.C,Q3*%
X99665050Y-36196900D03*
X98864950Y-36196900D03*
D24*
X99265000Y-35003100D03*
%TD*%
D25*
%TO.C,R7*%
X97500000Y-32175000D03*
X97500000Y-33825000D03*
%TD*%
%TO.C,R8*%
X95900000Y-32175000D03*
X95900000Y-33825000D03*
%TD*%
M02*
