%TF.GenerationSoftware,KiCad,Pcbnew,(6.0.8)*%
%TF.CreationDate,2022-10-20T09:57:03-04:00*%
%TF.ProjectId,Emrick,456d7269-636b-42e6-9b69-6361645f7063,1*%
%TF.SameCoordinates,Original*%
%TF.FileFunction,Soldermask,Top*%
%TF.FilePolarity,Negative*%
%FSLAX46Y46*%
G04 Gerber Fmt 4.6, Leading zero omitted, Abs format (unit mm)*
G04 Created by KiCad (PCBNEW (6.0.8)) date 2022-10-20 09:57:03*
%MOMM*%
%LPD*%
G01*
G04 APERTURE LIST*
G04 Aperture macros list*
%AMRoundRect*
0 Rectangle with rounded corners*
0 $1 Rounding radius*
0 $2 $3 $4 $5 $6 $7 $8 $9 X,Y pos of 4 corners*
0 Add a 4 corners polygon primitive as box body*
4,1,4,$2,$3,$4,$5,$6,$7,$8,$9,$2,$3,0*
0 Add four circle primitives for the rounded corners*
1,1,$1+$1,$2,$3*
1,1,$1+$1,$4,$5*
1,1,$1+$1,$6,$7*
1,1,$1+$1,$8,$9*
0 Add four rect primitives between the rounded corners*
20,1,$1+$1,$2,$3,$4,$5,0*
20,1,$1+$1,$4,$5,$6,$7,0*
20,1,$1+$1,$6,$7,$8,$9,0*
20,1,$1+$1,$8,$9,$2,$3,0*%
G04 Aperture macros list end*
%ADD10C,0.100000*%
%ADD11R,1.200000X1.400000*%
%ADD12RoundRect,0.140000X-0.140000X-0.170000X0.140000X-0.170000X0.140000X0.170000X-0.140000X0.170000X0*%
%ADD13RoundRect,0.135000X0.185000X-0.135000X0.185000X0.135000X-0.185000X0.135000X-0.185000X-0.135000X0*%
%ADD14RoundRect,0.135000X0.135000X0.185000X-0.135000X0.185000X-0.135000X-0.185000X0.135000X-0.185000X0*%
%ADD15R,2.750000X1.000000*%
%ADD16R,2.000000X1.200000*%
%ADD17RoundRect,0.140000X0.170000X-0.140000X0.170000X0.140000X-0.170000X0.140000X-0.170000X-0.140000X0*%
%ADD18RoundRect,0.147500X-0.172500X0.147500X-0.172500X-0.147500X0.172500X-0.147500X0.172500X0.147500X0*%
%ADD19RoundRect,0.140000X0.140000X0.170000X-0.140000X0.170000X-0.140000X-0.170000X0.140000X-0.170000X0*%
%ADD20RoundRect,0.140000X-0.170000X0.140000X-0.170000X-0.140000X0.170000X-0.140000X0.170000X0.140000X0*%
%ADD21R,1.000000X0.700000*%
%ADD22R,0.600000X0.700000*%
%ADD23RoundRect,0.147500X0.172500X-0.147500X0.172500X0.147500X-0.172500X0.147500X-0.172500X-0.147500X0*%
%ADD24R,0.965200X0.254000*%
%ADD25R,0.254000X0.965200*%
%ADD26R,3.352800X3.352800*%
%ADD27R,0.355600X1.676400*%
%ADD28R,0.280000X0.850000*%
%ADD29R,0.850000X0.280000*%
%ADD30C,0.508000*%
%ADD31RoundRect,0.225000X-0.250000X0.225000X-0.250000X-0.225000X0.250000X-0.225000X0.250000X0.225000X0*%
%ADD32RoundRect,0.135000X-0.135000X-0.185000X0.135000X-0.185000X0.135000X0.185000X-0.135000X0.185000X0*%
%ADD33O,0.240000X0.599999*%
%ADD34O,0.599999X0.240000*%
%ADD35R,5.150000X5.150000*%
%ADD36C,0.499999*%
%ADD37R,1.800000X1.000000*%
%ADD38R,1.000000X1.000000*%
%ADD39O,1.000000X1.000000*%
%ADD40R,1.700000X1.700000*%
%ADD41O,1.700000X1.700000*%
%ADD42R,1.050000X1.000000*%
%ADD43R,2.200000X1.050000*%
%ADD44RoundRect,0.225000X0.250000X-0.225000X0.250000X0.225000X-0.250000X0.225000X-0.250000X-0.225000X0*%
%ADD45C,0.650000*%
%ADD46R,1.150000X0.300000*%
%ADD47O,1.600000X1.000000*%
%ADD48O,2.100000X1.000000*%
%ADD49R,0.820000X0.280000*%
%ADD50R,0.254000X0.812800*%
%ADD51R,1.701800X0.304800*%
%ADD52RoundRect,0.147500X-0.147500X-0.172500X0.147500X-0.172500X0.147500X0.172500X-0.147500X0.172500X0*%
%ADD53RoundRect,0.200000X-0.275000X0.200000X-0.275000X-0.200000X0.275000X-0.200000X0.275000X0.200000X0*%
%ADD54RoundRect,0.225000X0.225000X0.250000X-0.225000X0.250000X-0.225000X-0.250000X0.225000X-0.250000X0*%
G04 APERTURE END LIST*
%TO.C,U6*%
G36*
X90878500Y-30856300D02*
G01*
X89051500Y-30856300D01*
X89051500Y-30536500D01*
X90878500Y-30536500D01*
X90878500Y-30856300D01*
G37*
D10*
X90878500Y-30856300D02*
X89051500Y-30856300D01*
X89051500Y-30536500D01*
X90878500Y-30536500D01*
X90878500Y-30856300D01*
G36*
X89371300Y-32363500D02*
G01*
X89051500Y-32363500D01*
X89051500Y-30536500D01*
X89371300Y-30536500D01*
X89371300Y-32363500D01*
G37*
X89371300Y-32363500D02*
X89051500Y-32363500D01*
X89051500Y-30536500D01*
X89371300Y-30536500D01*
X89371300Y-32363500D01*
G36*
X89924596Y-33419595D02*
G01*
X89505405Y-33419595D01*
X89505405Y-32430404D01*
X89924596Y-32430404D01*
X89924596Y-33419595D01*
G37*
X89924596Y-33419595D02*
X89505405Y-33419595D01*
X89505405Y-32430404D01*
X89924596Y-32430404D01*
X89924596Y-33419595D01*
G36*
X90158700Y-32363500D02*
G01*
X89771300Y-32363500D01*
X89771300Y-30536500D01*
X90158700Y-30536500D01*
X90158700Y-32363500D01*
G37*
X90158700Y-32363500D02*
X89771300Y-32363500D01*
X89771300Y-30536500D01*
X90158700Y-30536500D01*
X90158700Y-32363500D01*
G36*
X88984596Y-31409533D02*
G01*
X87995405Y-31409533D01*
X87995405Y-30990341D01*
X88984596Y-30990341D01*
X88984596Y-31409533D01*
G37*
X88984596Y-31409533D02*
X87995405Y-31409533D01*
X87995405Y-30990341D01*
X88984596Y-30990341D01*
X88984596Y-31409533D01*
G36*
X90424595Y-30469596D02*
G01*
X90005404Y-30469596D01*
X90005404Y-29480405D01*
X90424595Y-29480405D01*
X90424595Y-30469596D01*
G37*
X90424595Y-30469596D02*
X90005404Y-30469596D01*
X90005404Y-29480405D01*
X90424595Y-29480405D01*
X90424595Y-30469596D01*
G36*
X90424595Y-33419595D02*
G01*
X90005404Y-33419595D01*
X90005404Y-32430404D01*
X90424595Y-32430404D01*
X90424595Y-33419595D01*
G37*
X90424595Y-33419595D02*
X90005404Y-33419595D01*
X90005404Y-32430404D01*
X90424595Y-32430404D01*
X90424595Y-33419595D01*
G36*
X90878500Y-31643700D02*
G01*
X89051500Y-31643700D01*
X89051500Y-31256300D01*
X90878500Y-31256300D01*
X90878500Y-31643700D01*
G37*
X90878500Y-31643700D02*
X89051500Y-31643700D01*
X89051500Y-31256300D01*
X90878500Y-31256300D01*
X90878500Y-31643700D01*
G36*
X88984596Y-32409785D02*
G01*
X87995405Y-32409785D01*
X87995405Y-31990593D01*
X88984596Y-31990593D01*
X88984596Y-32409785D01*
G37*
X88984596Y-32409785D02*
X87995405Y-32409785D01*
X87995405Y-31990593D01*
X88984596Y-31990593D01*
X88984596Y-32409785D01*
G36*
X89424597Y-30469596D02*
G01*
X89005403Y-30469596D01*
X89005403Y-29480405D01*
X89424597Y-29480405D01*
X89424597Y-30469596D01*
G37*
X89424597Y-30469596D02*
X89005403Y-30469596D01*
X89005403Y-29480405D01*
X89424597Y-29480405D01*
X89424597Y-30469596D01*
G36*
X89424597Y-33419595D02*
G01*
X89005403Y-33419595D01*
X89005403Y-32430404D01*
X89424597Y-32430404D01*
X89424597Y-33419595D01*
G37*
X89424597Y-33419595D02*
X89005403Y-33419595D01*
X89005403Y-32430404D01*
X89424597Y-32430404D01*
X89424597Y-33419595D01*
G36*
X91934595Y-30909407D02*
G01*
X90945404Y-30909407D01*
X90945404Y-30490215D01*
X91934595Y-30490215D01*
X91934595Y-30909407D01*
G37*
X91934595Y-30909407D02*
X90945404Y-30909407D01*
X90945404Y-30490215D01*
X91934595Y-30490215D01*
X91934595Y-30909407D01*
G36*
X90878500Y-32363500D02*
G01*
X90558700Y-32363500D01*
X90558700Y-30536500D01*
X90878500Y-30536500D01*
X90878500Y-32363500D01*
G37*
X90878500Y-32363500D02*
X90558700Y-32363500D01*
X90558700Y-30536500D01*
X90878500Y-30536500D01*
X90878500Y-32363500D01*
G36*
X91934595Y-31909659D02*
G01*
X90945404Y-31909659D01*
X90945404Y-31490467D01*
X91934595Y-31490467D01*
X91934595Y-31909659D01*
G37*
X91934595Y-31909659D02*
X90945404Y-31909659D01*
X90945404Y-31490467D01*
X91934595Y-31490467D01*
X91934595Y-31909659D01*
G36*
X88984596Y-30909407D02*
G01*
X87995405Y-30909407D01*
X87995405Y-30490215D01*
X88984596Y-30490215D01*
X88984596Y-30909407D01*
G37*
X88984596Y-30909407D02*
X87995405Y-30909407D01*
X87995405Y-30490215D01*
X88984596Y-30490215D01*
X88984596Y-30909407D01*
G36*
X91934595Y-32409785D02*
G01*
X90945404Y-32409785D01*
X90945404Y-31990593D01*
X91934595Y-31990593D01*
X91934595Y-32409785D01*
G37*
X91934595Y-32409785D02*
X90945404Y-32409785D01*
X90945404Y-31990593D01*
X91934595Y-31990593D01*
X91934595Y-32409785D01*
G36*
X90924597Y-30469596D02*
G01*
X90505403Y-30469596D01*
X90505403Y-29480405D01*
X90924597Y-29480405D01*
X90924597Y-30469596D01*
G37*
X90924597Y-30469596D02*
X90505403Y-30469596D01*
X90505403Y-29480405D01*
X90924597Y-29480405D01*
X90924597Y-30469596D01*
G36*
X88984596Y-31909659D02*
G01*
X87995405Y-31909659D01*
X87995405Y-31490467D01*
X88984596Y-31490467D01*
X88984596Y-31909659D01*
G37*
X88984596Y-31909659D02*
X87995405Y-31909659D01*
X87995405Y-31490467D01*
X88984596Y-31490467D01*
X88984596Y-31909659D01*
G36*
X90924597Y-33419595D02*
G01*
X90505403Y-33419595D01*
X90505403Y-32430404D01*
X90924597Y-32430404D01*
X90924597Y-33419595D01*
G37*
X90924597Y-33419595D02*
X90505403Y-33419595D01*
X90505403Y-32430404D01*
X90924597Y-32430404D01*
X90924597Y-33419595D01*
G36*
X89924596Y-30469596D02*
G01*
X89505405Y-30469596D01*
X89505405Y-29480405D01*
X89924596Y-29480405D01*
X89924596Y-30469596D01*
G37*
X89924596Y-30469596D02*
X89505405Y-30469596D01*
X89505405Y-29480405D01*
X89924596Y-29480405D01*
X89924596Y-30469596D01*
G36*
X90878500Y-32363500D02*
G01*
X89051500Y-32363500D01*
X89051500Y-32043700D01*
X90878500Y-32043700D01*
X90878500Y-32363500D01*
G37*
X90878500Y-32363500D02*
X89051500Y-32363500D01*
X89051500Y-32043700D01*
X90878500Y-32043700D01*
X90878500Y-32363500D01*
G36*
X91934595Y-31409533D02*
G01*
X90945404Y-31409533D01*
X90945404Y-30990341D01*
X91934595Y-30990341D01*
X91934595Y-31409533D01*
G37*
X91934595Y-31409533D02*
X90945404Y-31409533D01*
X90945404Y-30990341D01*
X91934595Y-30990341D01*
X91934595Y-31409533D01*
%TO.C,U3*%
G36*
X104841600Y-25676600D02*
G01*
X104408400Y-25676600D01*
X104408400Y-24923400D01*
X104841600Y-24923400D01*
X104841600Y-25676600D01*
G37*
X104841600Y-25676600D02*
X104408400Y-25676600D01*
X104408400Y-24923400D01*
X104841600Y-24923400D01*
X104841600Y-25676600D01*
G36*
X104593700Y-28488500D02*
G01*
X104206300Y-28488500D01*
X104206300Y-25511500D01*
X104593700Y-25511500D01*
X104593700Y-28488500D01*
G37*
X104593700Y-28488500D02*
X104206300Y-28488500D01*
X104206300Y-25511500D01*
X104593700Y-25511500D01*
X104593700Y-28488500D01*
G36*
X105253500Y-27587400D02*
G01*
X103546500Y-27587400D01*
X103546500Y-27200000D01*
X105253500Y-27200000D01*
X105253500Y-27587400D01*
G37*
X105253500Y-27587400D02*
X103546500Y-27587400D01*
X103546500Y-27200000D01*
X105253500Y-27200000D01*
X105253500Y-27587400D01*
G36*
X103806300Y-28488500D02*
G01*
X103546500Y-28488500D01*
X103546500Y-25511500D01*
X103806300Y-25511500D01*
X103806300Y-28488500D01*
G37*
X103806300Y-28488500D02*
X103546500Y-28488500D01*
X103546500Y-25511500D01*
X103806300Y-25511500D01*
X103806300Y-28488500D01*
G36*
X105253500Y-28488500D02*
G01*
X103546500Y-28488500D01*
X103546500Y-27987400D01*
X105253500Y-27987400D01*
X105253500Y-28488500D01*
G37*
X105253500Y-28488500D02*
X103546500Y-28488500D01*
X103546500Y-27987400D01*
X105253500Y-27987400D01*
X105253500Y-28488500D01*
G36*
X103300000Y-25640000D02*
G01*
X102480001Y-25640000D01*
X102480001Y-25360001D01*
X103300000Y-25360001D01*
X103300000Y-25640000D01*
G37*
X103300000Y-25640000D02*
X102480001Y-25640000D01*
X102480001Y-25360001D01*
X103300000Y-25360001D01*
X103300000Y-25640000D01*
G36*
X105253500Y-26012600D02*
G01*
X103546500Y-26012600D01*
X103546500Y-25511500D01*
X105253500Y-25511500D01*
X105253500Y-26012600D01*
G37*
X105253500Y-26012600D02*
X103546500Y-26012600D01*
X103546500Y-25511500D01*
X105253500Y-25511500D01*
X105253500Y-26012600D01*
G36*
X106319999Y-26139999D02*
G01*
X105500000Y-26139999D01*
X105500000Y-25860000D01*
X106319999Y-25860000D01*
X106319999Y-26139999D01*
G37*
X106319999Y-26139999D02*
X105500000Y-26139999D01*
X105500000Y-25860000D01*
X106319999Y-25860000D01*
X106319999Y-26139999D01*
G36*
X105253500Y-28488500D02*
G01*
X104993700Y-28488500D01*
X104993700Y-25511500D01*
X105253500Y-25511500D01*
X105253500Y-28488500D01*
G37*
X105253500Y-28488500D02*
X104993700Y-28488500D01*
X104993700Y-25511500D01*
X105253500Y-25511500D01*
X105253500Y-28488500D01*
G36*
X106319999Y-25640000D02*
G01*
X105500000Y-25640000D01*
X105500000Y-25360001D01*
X106319999Y-25360001D01*
X106319999Y-25640000D01*
G37*
X106319999Y-25640000D02*
X105500000Y-25640000D01*
X105500000Y-25360001D01*
X106319999Y-25360001D01*
X106319999Y-25640000D01*
G36*
X103300000Y-27140000D02*
G01*
X102480001Y-27140000D01*
X102480001Y-26860000D01*
X103300000Y-26860000D01*
X103300000Y-27140000D01*
G37*
X103300000Y-27140000D02*
X102480001Y-27140000D01*
X102480001Y-26860000D01*
X103300000Y-26860000D01*
X103300000Y-27140000D01*
G36*
X106319999Y-27639999D02*
G01*
X105500000Y-27639999D01*
X105500000Y-27359999D01*
X106319999Y-27359999D01*
X106319999Y-27639999D01*
G37*
X106319999Y-27639999D02*
X105500000Y-27639999D01*
X105500000Y-27359999D01*
X106319999Y-27359999D01*
X106319999Y-27639999D01*
G36*
X104841600Y-29076600D02*
G01*
X104408400Y-29076600D01*
X104408400Y-28323400D01*
X104841600Y-28323400D01*
X104841600Y-29076600D01*
G37*
X104841600Y-29076600D02*
X104408400Y-29076600D01*
X104408400Y-28323400D01*
X104841600Y-28323400D01*
X104841600Y-29076600D01*
G36*
X106319999Y-26640001D02*
G01*
X105500000Y-26640001D01*
X105500000Y-26359999D01*
X106319999Y-26359999D01*
X106319999Y-26640001D01*
G37*
X106319999Y-26640001D02*
X105500000Y-26640001D01*
X105500000Y-26359999D01*
X106319999Y-26359999D01*
X106319999Y-26640001D01*
G36*
X105291600Y-29076600D02*
G01*
X104858400Y-29076600D01*
X104858400Y-28323400D01*
X105291600Y-28323400D01*
X105291600Y-29076600D01*
G37*
X105291600Y-29076600D02*
X104858400Y-29076600D01*
X104858400Y-28323400D01*
X105291600Y-28323400D01*
X105291600Y-29076600D01*
G36*
X104391600Y-29076600D02*
G01*
X103958400Y-29076600D01*
X103958400Y-28323400D01*
X104391600Y-28323400D01*
X104391600Y-29076600D01*
G37*
X104391600Y-29076600D02*
X103958400Y-29076600D01*
X103958400Y-28323400D01*
X104391600Y-28323400D01*
X104391600Y-29076600D01*
G36*
X103300000Y-28140000D02*
G01*
X102480001Y-28140000D01*
X102480001Y-27860001D01*
X103300000Y-27860001D01*
X103300000Y-28140000D01*
G37*
X103300000Y-28140000D02*
X102480001Y-28140000D01*
X102480001Y-27860001D01*
X103300000Y-27860001D01*
X103300000Y-28140000D01*
G36*
X103300000Y-26640001D02*
G01*
X102480001Y-26640001D01*
X102480001Y-26360001D01*
X103300000Y-26360001D01*
X103300000Y-26640001D01*
G37*
X103300000Y-26640001D02*
X102480001Y-26640001D01*
X102480001Y-26360001D01*
X103300000Y-26360001D01*
X103300000Y-26640001D01*
G36*
X104391600Y-25676600D02*
G01*
X103958400Y-25676600D01*
X103958400Y-24923400D01*
X104391600Y-24923400D01*
X104391600Y-25676600D01*
G37*
X104391600Y-25676600D02*
X103958400Y-25676600D01*
X103958400Y-24923400D01*
X104391600Y-24923400D01*
X104391600Y-25676600D01*
G36*
X103941600Y-29076600D02*
G01*
X103508400Y-29076600D01*
X103508400Y-28323400D01*
X103941600Y-28323400D01*
X103941600Y-29076600D01*
G37*
X103941600Y-29076600D02*
X103508400Y-29076600D01*
X103508400Y-28323400D01*
X103941600Y-28323400D01*
X103941600Y-29076600D01*
G36*
X105253500Y-26800000D02*
G01*
X103546500Y-26800000D01*
X103546500Y-26412600D01*
X105253500Y-26412600D01*
X105253500Y-26800000D01*
G37*
X105253500Y-26800000D02*
X103546500Y-26800000D01*
X103546500Y-26412600D01*
X105253500Y-26412600D01*
X105253500Y-26800000D01*
G36*
X103300000Y-27640001D02*
G01*
X102480001Y-27640001D01*
X102480001Y-27359999D01*
X103300000Y-27359999D01*
X103300000Y-27640001D01*
G37*
X103300000Y-27640001D02*
X102480001Y-27640001D01*
X102480001Y-27359999D01*
X103300000Y-27359999D01*
X103300000Y-27640001D01*
G36*
X103300000Y-26139999D02*
G01*
X102480001Y-26139999D01*
X102480001Y-25860000D01*
X103300000Y-25860000D01*
X103300000Y-26139999D01*
G37*
X103300000Y-26139999D02*
X102480001Y-26139999D01*
X102480001Y-25860000D01*
X103300000Y-25860000D01*
X103300000Y-26139999D01*
G36*
X106319999Y-28140000D02*
G01*
X105500000Y-28140000D01*
X105500000Y-27860001D01*
X106319999Y-27860001D01*
X106319999Y-28140000D01*
G37*
X106319999Y-28140000D02*
X105500000Y-28140000D01*
X105500000Y-27860001D01*
X106319999Y-27860001D01*
X106319999Y-28140000D01*
G36*
X106319999Y-27140000D02*
G01*
X105500000Y-27140000D01*
X105500000Y-26860000D01*
X106319999Y-26860000D01*
X106319999Y-27140000D01*
G37*
X106319999Y-27140000D02*
X105500000Y-27140000D01*
X105500000Y-26860000D01*
X106319999Y-26860000D01*
X106319999Y-27140000D01*
G36*
X105291600Y-25676600D02*
G01*
X104858400Y-25676600D01*
X104858400Y-24923400D01*
X105291600Y-24923400D01*
X105291600Y-25676600D01*
G37*
X105291600Y-25676600D02*
X104858400Y-25676600D01*
X104858400Y-24923400D01*
X105291600Y-24923400D01*
X105291600Y-25676600D01*
G36*
X103300000Y-28639999D02*
G01*
X102480001Y-28639999D01*
X102480001Y-28360000D01*
X103300000Y-28360000D01*
X103300000Y-28639999D01*
G37*
X103300000Y-28639999D02*
X102480001Y-28639999D01*
X102480001Y-28360000D01*
X103300000Y-28360000D01*
X103300000Y-28639999D01*
G36*
X103941600Y-25676600D02*
G01*
X103508400Y-25676600D01*
X103508400Y-24923400D01*
X103941600Y-24923400D01*
X103941600Y-25676600D01*
G37*
X103941600Y-25676600D02*
X103508400Y-25676600D01*
X103508400Y-24923400D01*
X103941600Y-24923400D01*
X103941600Y-25676600D01*
G36*
X106319999Y-28639999D02*
G01*
X105500000Y-28639999D01*
X105500000Y-28360000D01*
X106319999Y-28360000D01*
X106319999Y-28639999D01*
G37*
X106319999Y-28639999D02*
X105500000Y-28639999D01*
X105500000Y-28360000D01*
X106319999Y-28360000D01*
X106319999Y-28639999D01*
%TD*%
D11*
%TO.C,Y1*%
X96850000Y-45500000D03*
X96850000Y-43300000D03*
X95150000Y-43300000D03*
X95150000Y-45500000D03*
%TD*%
D12*
%TO.C,C14*%
X120720000Y-39100000D03*
X121680000Y-39100000D03*
%TD*%
D13*
%TO.C,R10*%
X98100000Y-25710000D03*
X98100000Y-24690000D03*
%TD*%
D12*
%TO.C,C13*%
X120720000Y-40250000D03*
X121680000Y-40250000D03*
%TD*%
D14*
%TO.C,R17*%
X111610000Y-21700000D03*
X110590000Y-21700000D03*
%TD*%
D15*
%TO.C,SW2*%
X89780000Y-25600000D03*
X84020000Y-25600000D03*
X84020000Y-21600000D03*
X89780000Y-21600000D03*
%TD*%
D16*
%TO.C,L1*%
X107000000Y-36800000D03*
X107000000Y-33600000D03*
%TD*%
D17*
%TO.C,C26*%
X109270572Y-28480000D03*
X109270572Y-27520000D03*
%TD*%
D13*
%TO.C,R21*%
X113950000Y-54760000D03*
X113950000Y-53740000D03*
%TD*%
D18*
%TO.C,L5*%
X102400000Y-54935000D03*
X102400000Y-55905000D03*
%TD*%
%TO.C,L2*%
X101900000Y-48630000D03*
X101900000Y-49600000D03*
%TD*%
D19*
%TO.C,C3*%
X99880000Y-42500000D03*
X98920000Y-42500000D03*
%TD*%
D20*
%TO.C,C8*%
X99200000Y-45720000D03*
X99200000Y-46680000D03*
%TD*%
D12*
%TO.C,C1*%
X109920000Y-45700000D03*
X110880000Y-45700000D03*
%TD*%
D13*
%TO.C,R2*%
X100100000Y-39810000D03*
X100100000Y-38790000D03*
%TD*%
D12*
%TO.C,C33*%
X93085000Y-32495000D03*
X94045000Y-32495000D03*
%TD*%
D14*
%TO.C,R15*%
X121154000Y-42087000D03*
X120134000Y-42087000D03*
%TD*%
D21*
%TO.C,D4*%
X112650000Y-23000000D03*
D22*
X110950000Y-23000000D03*
X110950000Y-25000000D03*
X112850000Y-25000000D03*
%TD*%
D13*
%TO.C,R4*%
X83100000Y-39810000D03*
X83100000Y-38790000D03*
%TD*%
D12*
%TO.C,C24*%
X92220000Y-24900000D03*
X93180000Y-24900000D03*
%TD*%
D14*
%TO.C,R12*%
X97910000Y-23600000D03*
X96890000Y-23600000D03*
%TD*%
D23*
%TO.C,D1*%
X121297000Y-53235000D03*
X121297000Y-52265000D03*
%TD*%
D20*
%TO.C,C18*%
X103100000Y-48640000D03*
X103100000Y-49600000D03*
%TD*%
D24*
%TO.C,U4*%
X118524100Y-42400000D03*
X118524100Y-41900001D03*
X118524100Y-41399999D03*
X118524100Y-40900000D03*
X118524100Y-40400001D03*
X118524100Y-39899999D03*
X118524100Y-39400000D03*
D25*
X117700000Y-38575900D03*
X117200001Y-38575900D03*
X116699999Y-38575900D03*
X116200000Y-38575900D03*
X115700001Y-38575900D03*
X115199999Y-38575900D03*
X114700000Y-38575900D03*
D24*
X113875900Y-39400000D03*
X113875900Y-39899999D03*
X113875900Y-40400001D03*
X113875900Y-40900000D03*
X113875900Y-41399999D03*
X113875900Y-41900001D03*
X113875900Y-42400000D03*
D25*
X114700000Y-43224100D03*
X115199999Y-43224100D03*
X115700001Y-43224100D03*
X116200000Y-43224100D03*
X116699999Y-43224100D03*
X117200001Y-43224100D03*
X117700000Y-43224100D03*
D26*
X116200000Y-40900000D03*
%TD*%
D14*
%TO.C,R19*%
X118510000Y-37000000D03*
X117490000Y-37000000D03*
%TD*%
D27*
%TO.C,U1*%
X87027500Y-44133650D03*
X87677501Y-44133650D03*
X88327499Y-44133650D03*
X88977501Y-44133650D03*
X89627499Y-44133650D03*
X90277498Y-44133650D03*
X90927499Y-44133650D03*
X91577498Y-44133650D03*
X92227499Y-44133650D03*
X92877498Y-44133650D03*
X92877500Y-38494850D03*
X92227502Y-38494850D03*
X91577501Y-38494850D03*
X90927502Y-38494850D03*
X90277501Y-38494850D03*
X89627502Y-38494850D03*
X88977501Y-38494850D03*
X88327502Y-38494850D03*
X87677501Y-38494850D03*
X87027502Y-38494850D03*
%TD*%
D28*
%TO.C,U6*%
X90715001Y-29974999D03*
X90215000Y-29974999D03*
X89715000Y-29974999D03*
X89214999Y-29974999D03*
D29*
X88489999Y-30699811D03*
X88489999Y-31199937D03*
X88489999Y-31700063D03*
X88489999Y-32200189D03*
D28*
X89214999Y-32925001D03*
X89715000Y-32925001D03*
X90215000Y-32925001D03*
X90715001Y-32925001D03*
D29*
X91440001Y-32200189D03*
X91440001Y-31700063D03*
X91440001Y-31199937D03*
X91440001Y-30699811D03*
D30*
X89571300Y-31843700D03*
X90358700Y-31056300D03*
X90358700Y-31843700D03*
X89571300Y-31056300D03*
%TD*%
D17*
%TO.C,C5*%
X104200000Y-37530000D03*
X104200000Y-36570000D03*
%TD*%
D31*
%TO.C,C28*%
X99370572Y-27325000D03*
X99370572Y-28875000D03*
%TD*%
D12*
%TO.C,C31*%
X90040000Y-28500000D03*
X91000000Y-28500000D03*
%TD*%
D17*
%TO.C,C25*%
X108070572Y-28480000D03*
X108070572Y-27520000D03*
%TD*%
D20*
%TO.C,C15*%
X98900000Y-38820000D03*
X98900000Y-39780000D03*
%TD*%
D12*
%TO.C,C2*%
X110320000Y-40800000D03*
X111280000Y-40800000D03*
%TD*%
D32*
%TO.C,R3*%
X113390000Y-34200000D03*
X114410000Y-34200000D03*
%TD*%
D12*
%TO.C,C11*%
X100826000Y-47620000D03*
X101786000Y-47620000D03*
%TD*%
D33*
%TO.C,U2*%
X102450000Y-45600001D03*
X102949999Y-45600001D03*
X103449998Y-45600001D03*
X103950000Y-45600001D03*
X104449999Y-45600001D03*
X104950000Y-45600001D03*
X105450000Y-45600001D03*
X105949998Y-45600001D03*
X106450000Y-45600001D03*
X106949999Y-45600001D03*
X107450001Y-45600001D03*
X107950000Y-45600001D03*
D34*
X108600001Y-44950000D03*
X108600001Y-44450001D03*
X108600001Y-43950002D03*
X108600001Y-43450000D03*
X108600001Y-42950001D03*
X108600001Y-42450000D03*
X108600001Y-41950000D03*
X108600001Y-41450002D03*
X108600001Y-40950000D03*
X108600001Y-40450001D03*
X108600001Y-39949999D03*
X108600001Y-39450000D03*
D33*
X107950000Y-38799999D03*
X107450001Y-38799999D03*
X106949999Y-38799999D03*
X106450000Y-38799999D03*
X105949998Y-38799999D03*
X105450000Y-38799999D03*
X104950000Y-38799999D03*
X104449999Y-38799999D03*
X103950000Y-38799999D03*
X103449998Y-38799999D03*
X102949999Y-38799999D03*
X102450000Y-38799999D03*
D34*
X101799999Y-39450000D03*
X101799999Y-39949999D03*
X101799999Y-40450001D03*
X101799999Y-40950000D03*
X101799999Y-41450002D03*
X101799999Y-41950000D03*
X101799999Y-42450000D03*
X101799999Y-42950001D03*
X101799999Y-43450000D03*
X101799999Y-43950002D03*
X101799999Y-44450001D03*
X101799999Y-44950000D03*
D35*
X105200000Y-42200000D03*
D36*
X106003501Y-39875001D03*
X102875001Y-41396499D03*
X102875001Y-43003501D03*
X107524999Y-41396499D03*
X104396499Y-44524999D03*
X104396499Y-43003501D03*
X107524999Y-43003501D03*
X104396499Y-41396499D03*
X106003501Y-44524999D03*
X104396499Y-39875001D03*
X106003501Y-41396499D03*
X106003501Y-43003501D03*
%TD*%
D19*
%TO.C,C7*%
X99880000Y-43600000D03*
X98920000Y-43600000D03*
%TD*%
D37*
%TO.C,Y2*%
X108500000Y-52350000D03*
X108500000Y-49850000D03*
%TD*%
D14*
%TO.C,R14*%
X121154000Y-43230000D03*
X120134000Y-43230000D03*
%TD*%
D38*
%TO.C,J3*%
X116550000Y-34125000D03*
D39*
X116550000Y-32855000D03*
X117820000Y-34125000D03*
X117820000Y-32855000D03*
X119090000Y-34125000D03*
X119090000Y-32855000D03*
X120360000Y-34125000D03*
X120360000Y-32855000D03*
X121630000Y-34125000D03*
X121630000Y-32855000D03*
%TD*%
D40*
%TO.C,SW1*%
X83907000Y-34831000D03*
D41*
X83907000Y-32291000D03*
X83907000Y-29751000D03*
%TD*%
D42*
%TO.C,J2*%
X117620000Y-58882500D03*
D43*
X119145000Y-60357500D03*
X119145000Y-57407500D03*
%TD*%
D40*
%TO.C,J1*%
X105300000Y-21625000D03*
D41*
X102760000Y-21625000D03*
X100220000Y-21625000D03*
X97680000Y-21625000D03*
%TD*%
D20*
%TO.C,C32*%
X113900000Y-51820000D03*
X113900000Y-52780000D03*
%TD*%
D17*
%TO.C,C30*%
X107300000Y-25680000D03*
X107300000Y-24720000D03*
%TD*%
D19*
%TO.C,C20*%
X102480000Y-53820000D03*
X101520000Y-53820000D03*
%TD*%
D44*
%TO.C,C4*%
X102800000Y-37375000D03*
X102800000Y-35825000D03*
%TD*%
D20*
%TO.C,C29*%
X100700000Y-27720000D03*
X100700000Y-28680000D03*
%TD*%
%TO.C,C17*%
X102425000Y-63572500D03*
X102425000Y-64532500D03*
%TD*%
D45*
%TO.C,P1*%
X116195000Y-28290000D03*
X116195000Y-22510000D03*
D46*
X115130000Y-28750000D03*
X115130000Y-27950000D03*
X115130000Y-26650000D03*
X115130000Y-25650000D03*
X115130000Y-25150000D03*
X115130000Y-24150000D03*
X115130000Y-22850000D03*
X115130000Y-22050000D03*
X115130000Y-22350000D03*
X115130000Y-23150000D03*
X115130000Y-23650000D03*
X115130000Y-24650000D03*
X115130000Y-26150000D03*
X115130000Y-27150000D03*
X115130000Y-27650000D03*
X115130000Y-28450000D03*
D47*
X119875000Y-29720000D03*
D48*
X115695000Y-21080000D03*
X115695000Y-29720000D03*
D47*
X119875000Y-21080000D03*
%TD*%
D17*
%TO.C,C22*%
X110000000Y-39680000D03*
X110000000Y-38720000D03*
%TD*%
D12*
%TO.C,C19*%
X102520000Y-50720000D03*
X103480000Y-50720000D03*
%TD*%
D19*
%TO.C,C12*%
X103380000Y-58282500D03*
X102420000Y-58282500D03*
%TD*%
D44*
%TO.C,C27*%
X97623072Y-28926000D03*
X97623072Y-27376000D03*
%TD*%
D13*
%TO.C,R1*%
X119773000Y-52349000D03*
X119773000Y-51329000D03*
%TD*%
D12*
%TO.C,C21*%
X102420000Y-57000000D03*
X103380000Y-57000000D03*
%TD*%
D23*
%TO.C,D3*%
X84424000Y-45103000D03*
X84424000Y-44133000D03*
%TD*%
D17*
%TO.C,C16*%
X102400000Y-60412500D03*
X102400000Y-59452500D03*
%TD*%
%TO.C,C9*%
X110800000Y-52580000D03*
X110800000Y-51620000D03*
%TD*%
D14*
%TO.C,R20*%
X109110000Y-21700000D03*
X108090000Y-21700000D03*
%TD*%
D20*
%TO.C,C10*%
X110800000Y-49620000D03*
X110800000Y-50580000D03*
%TD*%
D18*
%TO.C,L6*%
X102400000Y-61447500D03*
X102400000Y-62417500D03*
%TD*%
D20*
%TO.C,C23*%
X104300000Y-48640000D03*
X104300000Y-49600000D03*
%TD*%
D32*
%TO.C,R13*%
X113940000Y-56250000D03*
X114960000Y-56250000D03*
%TD*%
%TO.C,R18*%
X93090000Y-33600000D03*
X94110000Y-33600000D03*
%TD*%
D49*
%TO.C,U3*%
X102890000Y-25500000D03*
X102890000Y-25999999D03*
X102890000Y-26500001D03*
X102890000Y-27000000D03*
X102890000Y-27500002D03*
X102890000Y-28000001D03*
X102890000Y-28500000D03*
X105910000Y-28500000D03*
X105910000Y-28000001D03*
X105910000Y-27499999D03*
X105910000Y-27000000D03*
X105910000Y-26499998D03*
X105910000Y-25999999D03*
X105910000Y-25500000D03*
D30*
X104793700Y-27000000D03*
X104006300Y-27787400D03*
X104006300Y-26212600D03*
X104793700Y-26212600D03*
X104006300Y-27000000D03*
X104793700Y-27787400D03*
%TD*%
D18*
%TO.C,L4*%
X102500000Y-51735000D03*
X102500000Y-52705000D03*
%TD*%
D50*
%TO.C,U5*%
X115238000Y-54847800D03*
X115746000Y-54847800D03*
X116254000Y-54847800D03*
X116762000Y-54847800D03*
X116762000Y-51952200D03*
X116254000Y-51952200D03*
X115746000Y-51952200D03*
X115238000Y-51952200D03*
D51*
X116000000Y-53400000D03*
%TD*%
D32*
%TO.C,R6*%
X111890000Y-26800000D03*
X112910000Y-26800000D03*
%TD*%
D19*
%TO.C,C34*%
X89880000Y-34400000D03*
X88920000Y-34400000D03*
%TD*%
D13*
%TO.C,R11*%
X96900000Y-25710000D03*
X96900000Y-24690000D03*
%TD*%
D23*
%TO.C,D2*%
X84527000Y-40489000D03*
X84527000Y-39519000D03*
%TD*%
D13*
%TO.C,R5*%
X82900000Y-44100000D03*
X82900000Y-43080000D03*
%TD*%
D14*
%TO.C,R16*%
X121192000Y-44464000D03*
X120172000Y-44464000D03*
%TD*%
D52*
%TO.C,L3*%
X101837000Y-46620000D03*
X102807000Y-46620000D03*
%TD*%
D53*
%TO.C,FB1*%
X101100000Y-35775000D03*
X101100000Y-37425000D03*
%TD*%
D52*
%TO.C,L7*%
X103107000Y-47620000D03*
X104077000Y-47620000D03*
%TD*%
D54*
%TO.C,C6*%
X104375000Y-34100000D03*
X102825000Y-34100000D03*
%TD*%
M02*
