G04 #@! TF.GenerationSoftware,KiCad,Pcbnew,(6.0.8)*
G04 #@! TF.CreationDate,2022-11-18T14:33:26-05:00*
G04 #@! TF.ProjectId,Emrick,456d7269-636b-42e6-9b69-6361645f7063,2*
G04 #@! TF.SameCoordinates,Original*
G04 #@! TF.FileFunction,Legend,Bot*
G04 #@! TF.FilePolarity,Positive*
%FSLAX46Y46*%
G04 Gerber Fmt 4.6, Leading zero omitted, Abs format (unit mm)*
G04 Created by KiCad (PCBNEW (6.0.8)) date 2022-11-18 14:33:26*
%MOMM*%
%LPD*%
G01*
G04 APERTURE LIST*
G04 Aperture macros list*
%AMRoundRect*
0 Rectangle with rounded corners*
0 $1 Rounding radius*
0 $2 $3 $4 $5 $6 $7 $8 $9 X,Y pos of 4 corners*
0 Add a 4 corners polygon primitive as box body*
4,1,4,$2,$3,$4,$5,$6,$7,$8,$9,$2,$3,0*
0 Add four circle primitives for the rounded corners*
1,1,$1+$1,$2,$3*
1,1,$1+$1,$4,$5*
1,1,$1+$1,$6,$7*
1,1,$1+$1,$8,$9*
0 Add four rect primitives between the rounded corners*
20,1,$1+$1,$2,$3,$4,$5,0*
20,1,$1+$1,$4,$5,$6,$7,0*
20,1,$1+$1,$6,$7,$8,$9,0*
20,1,$1+$1,$8,$9,$2,$3,0*%
G04 Aperture macros list end*
%ADD10C,0.300000*%
%ADD11C,0.150000*%
%ADD12C,0.120000*%
%ADD13C,0.508000*%
%ADD14C,0.499999*%
%ADD15R,1.000000X1.000000*%
%ADD16O,1.000000X1.000000*%
%ADD17R,1.700000X1.700000*%
%ADD18O,1.700000X1.700000*%
%ADD19C,0.650000*%
%ADD20O,1.600000X1.000000*%
%ADD21O,2.100000X1.000000*%
%ADD22R,2.500000X2.500000*%
%ADD23RoundRect,0.200000X-0.275000X0.200000X-0.275000X-0.200000X0.275000X-0.200000X0.275000X0.200000X0*%
%ADD24R,0.660400X2.000000*%
%ADD25R,0.762000X1.854200*%
%ADD26R,0.800000X1.900000*%
G04 APERTURE END LIST*
D10*
X117385714Y-47055357D02*
X116885714Y-47055357D01*
X116671428Y-47841071D02*
X117385714Y-47841071D01*
X117385714Y-46341071D01*
X116671428Y-46341071D01*
X116028571Y-47841071D02*
X116028571Y-46841071D01*
X116028571Y-46983928D02*
X115957142Y-46912500D01*
X115814285Y-46841071D01*
X115600000Y-46841071D01*
X115457142Y-46912500D01*
X115385714Y-47055357D01*
X115385714Y-47841071D01*
X115385714Y-47055357D02*
X115314285Y-46912500D01*
X115171428Y-46841071D01*
X114957142Y-46841071D01*
X114814285Y-46912500D01*
X114742857Y-47055357D01*
X114742857Y-47841071D01*
X114028571Y-47841071D02*
X114028571Y-46841071D01*
X114028571Y-47126785D02*
X113957142Y-46983928D01*
X113885714Y-46912500D01*
X113742857Y-46841071D01*
X113600000Y-46841071D01*
X113100000Y-47841071D02*
X113100000Y-46841071D01*
X113100000Y-46341071D02*
X113171428Y-46412500D01*
X113100000Y-46483928D01*
X113028571Y-46412500D01*
X113100000Y-46341071D01*
X113100000Y-46483928D01*
X111742857Y-47769642D02*
X111885714Y-47841071D01*
X112171428Y-47841071D01*
X112314285Y-47769642D01*
X112385714Y-47698214D01*
X112457142Y-47555357D01*
X112457142Y-47126785D01*
X112385714Y-46983928D01*
X112314285Y-46912500D01*
X112171428Y-46841071D01*
X111885714Y-46841071D01*
X111742857Y-46912500D01*
X111100000Y-47841071D02*
X111100000Y-46341071D01*
X110957142Y-47269642D02*
X110528571Y-47841071D01*
X110528571Y-46841071D02*
X111100000Y-47412500D01*
X108742857Y-47841071D02*
X108742857Y-46841071D01*
X108742857Y-47126785D02*
X108671428Y-46983928D01*
X108600000Y-46912500D01*
X108457142Y-46841071D01*
X108314285Y-46841071D01*
X107242857Y-47769642D02*
X107385714Y-47841071D01*
X107671428Y-47841071D01*
X107814285Y-47769642D01*
X107885714Y-47626785D01*
X107885714Y-47055357D01*
X107814285Y-46912500D01*
X107671428Y-46841071D01*
X107385714Y-46841071D01*
X107242857Y-46912500D01*
X107171428Y-47055357D01*
X107171428Y-47198214D01*
X107885714Y-47341071D01*
X106671428Y-46841071D02*
X106314285Y-47841071D01*
X105957142Y-46841071D01*
X104314285Y-46483928D02*
X104242857Y-46412500D01*
X104100000Y-46341071D01*
X103742857Y-46341071D01*
X103600000Y-46412500D01*
X103528571Y-46483928D01*
X103457142Y-46626785D01*
X103457142Y-46769642D01*
X103528571Y-46983928D01*
X104385714Y-47841071D01*
X103457142Y-47841071D01*
X100885714Y-47841071D02*
X101742857Y-47841071D01*
X101314285Y-47841071D02*
X101314285Y-46341071D01*
X101457142Y-46555357D01*
X101600000Y-46698214D01*
X101742857Y-46769642D01*
X99457142Y-47841071D02*
X100314285Y-47841071D01*
X99885714Y-47841071D02*
X99885714Y-46341071D01*
X100028571Y-46555357D01*
X100171428Y-46698214D01*
X100314285Y-46769642D01*
X97742857Y-46269642D02*
X99028571Y-48198214D01*
X96457142Y-47841071D02*
X97314285Y-47841071D01*
X96885714Y-47841071D02*
X96885714Y-46341071D01*
X97028571Y-46555357D01*
X97171428Y-46698214D01*
X97314285Y-46769642D01*
X95957142Y-46341071D02*
X94957142Y-46341071D01*
X95600000Y-47841071D01*
X93314285Y-46269642D02*
X94600000Y-48198214D01*
X92885714Y-46483928D02*
X92814285Y-46412500D01*
X92671428Y-46341071D01*
X92314285Y-46341071D01*
X92171428Y-46412500D01*
X92100000Y-46483928D01*
X92028571Y-46626785D01*
X92028571Y-46769642D01*
X92100000Y-46983928D01*
X92957142Y-47841071D01*
X92028571Y-47841071D01*
X91100000Y-46341071D02*
X90957142Y-46341071D01*
X90814285Y-46412500D01*
X90742857Y-46483928D01*
X90671428Y-46626785D01*
X90600000Y-46912500D01*
X90600000Y-47269642D01*
X90671428Y-47555357D01*
X90742857Y-47698214D01*
X90814285Y-47769642D01*
X90957142Y-47841071D01*
X91100000Y-47841071D01*
X91242857Y-47769642D01*
X91314285Y-47698214D01*
X91385714Y-47555357D01*
X91457142Y-47269642D01*
X91457142Y-46912500D01*
X91385714Y-46626785D01*
X91314285Y-46483928D01*
X91242857Y-46412500D01*
X91100000Y-46341071D01*
X90028571Y-46483928D02*
X89957142Y-46412500D01*
X89814285Y-46341071D01*
X89457142Y-46341071D01*
X89314285Y-46412500D01*
X89242857Y-46483928D01*
X89171428Y-46626785D01*
X89171428Y-46769642D01*
X89242857Y-46983928D01*
X90100000Y-47841071D01*
X89171428Y-47841071D01*
X88600000Y-46483928D02*
X88528571Y-46412500D01*
X88385714Y-46341071D01*
X88028571Y-46341071D01*
X87885714Y-46412500D01*
X87814285Y-46483928D01*
X87742857Y-46626785D01*
X87742857Y-46769642D01*
X87814285Y-46983928D01*
X88671428Y-47841071D01*
X87742857Y-47841071D01*
X107957142Y-50184642D02*
X107742857Y-50256071D01*
X107385714Y-50256071D01*
X107242857Y-50184642D01*
X107171428Y-50113214D01*
X107100000Y-49970357D01*
X107100000Y-49827500D01*
X107171428Y-49684642D01*
X107242857Y-49613214D01*
X107385714Y-49541785D01*
X107671428Y-49470357D01*
X107814285Y-49398928D01*
X107885714Y-49327500D01*
X107957142Y-49184642D01*
X107957142Y-49041785D01*
X107885714Y-48898928D01*
X107814285Y-48827500D01*
X107671428Y-48756071D01*
X107314285Y-48756071D01*
X107100000Y-48827500D01*
X105814285Y-50256071D02*
X105814285Y-49470357D01*
X105885714Y-49327500D01*
X106028571Y-49256071D01*
X106314285Y-49256071D01*
X106457142Y-49327500D01*
X105814285Y-50184642D02*
X105957142Y-50256071D01*
X106314285Y-50256071D01*
X106457142Y-50184642D01*
X106528571Y-50041785D01*
X106528571Y-49898928D01*
X106457142Y-49756071D01*
X106314285Y-49684642D01*
X105957142Y-49684642D01*
X105814285Y-49613214D01*
X105100000Y-50256071D02*
X105100000Y-49256071D01*
X105100000Y-49398928D02*
X105028571Y-49327500D01*
X104885714Y-49256071D01*
X104671428Y-49256071D01*
X104528571Y-49327500D01*
X104457142Y-49470357D01*
X104457142Y-50256071D01*
X104457142Y-49470357D02*
X104385714Y-49327500D01*
X104242857Y-49256071D01*
X104028571Y-49256071D01*
X103885714Y-49327500D01*
X103814285Y-49470357D01*
X103814285Y-50256071D01*
X101957142Y-50256071D02*
X101957142Y-48756071D01*
X101600000Y-48756071D01*
X101385714Y-48827500D01*
X101242857Y-48970357D01*
X101171428Y-49113214D01*
X101100000Y-49398928D01*
X101100000Y-49613214D01*
X101171428Y-49898928D01*
X101242857Y-50041785D01*
X101385714Y-50184642D01*
X101600000Y-50256071D01*
X101957142Y-50256071D01*
X100242857Y-50256071D02*
X100385714Y-50184642D01*
X100457142Y-50041785D01*
X100457142Y-48756071D01*
X99457142Y-50256071D02*
X99600000Y-50184642D01*
X99671428Y-50113214D01*
X99742857Y-49970357D01*
X99742857Y-49541785D01*
X99671428Y-49398928D01*
X99600000Y-49327500D01*
X99457142Y-49256071D01*
X99242857Y-49256071D01*
X99100000Y-49327500D01*
X99028571Y-49398928D01*
X98957142Y-49541785D01*
X98957142Y-49970357D01*
X99028571Y-50113214D01*
X99100000Y-50184642D01*
X99242857Y-50256071D01*
X99457142Y-50256071D01*
X98528571Y-49256071D02*
X97957142Y-49256071D01*
X98314285Y-48756071D02*
X98314285Y-50041785D01*
X98242857Y-50184642D01*
X98100000Y-50256071D01*
X97957142Y-50256071D01*
X97671428Y-49256071D02*
X97100000Y-49256071D01*
X97457142Y-48756071D02*
X97457142Y-50041785D01*
X97385714Y-50184642D01*
X97242857Y-50256071D01*
X97100000Y-50256071D01*
X109350000Y-51885357D02*
X108850000Y-51885357D01*
X108635714Y-52671071D02*
X109350000Y-52671071D01*
X109350000Y-51171071D01*
X108635714Y-51171071D01*
X107992857Y-52671071D02*
X107992857Y-51671071D01*
X107992857Y-51956785D02*
X107921428Y-51813928D01*
X107850000Y-51742500D01*
X107707142Y-51671071D01*
X107564285Y-51671071D01*
X107064285Y-52671071D02*
X107064285Y-51671071D01*
X107064285Y-51171071D02*
X107135714Y-51242500D01*
X107064285Y-51313928D01*
X106992857Y-51242500D01*
X107064285Y-51171071D01*
X107064285Y-51313928D01*
X106350000Y-52671071D02*
X106350000Y-51171071D01*
X106207142Y-52099642D02*
X105778571Y-52671071D01*
X105778571Y-51671071D02*
X106350000Y-52242500D01*
X103992857Y-52671071D02*
X103992857Y-51171071D01*
X103635714Y-51171071D01*
X103421428Y-51242500D01*
X103278571Y-51385357D01*
X103207142Y-51528214D01*
X103135714Y-51813928D01*
X103135714Y-52028214D01*
X103207142Y-52313928D01*
X103278571Y-52456785D01*
X103421428Y-52599642D01*
X103635714Y-52671071D01*
X103992857Y-52671071D01*
X101850000Y-51671071D02*
X101850000Y-52671071D01*
X102492857Y-51671071D02*
X102492857Y-52456785D01*
X102421428Y-52599642D01*
X102278571Y-52671071D01*
X102064285Y-52671071D01*
X101921428Y-52599642D01*
X101850000Y-52528214D01*
X101278571Y-52671071D02*
X100492857Y-51671071D01*
X101278571Y-51671071D02*
X100492857Y-52671071D01*
X99992857Y-52599642D02*
X99850000Y-52671071D01*
X99564285Y-52671071D01*
X99421428Y-52599642D01*
X99350000Y-52456785D01*
X99350000Y-52385357D01*
X99421428Y-52242500D01*
X99564285Y-52171071D01*
X99778571Y-52171071D01*
X99921428Y-52099642D01*
X99992857Y-51956785D01*
X99992857Y-51885357D01*
X99921428Y-51742500D01*
X99778571Y-51671071D01*
X99564285Y-51671071D01*
X99421428Y-51742500D01*
X98921428Y-51671071D02*
X98350000Y-51671071D01*
X98707142Y-51171071D02*
X98707142Y-52456785D01*
X98635714Y-52599642D01*
X98492857Y-52671071D01*
X98350000Y-52671071D01*
X97207142Y-52671071D02*
X97207142Y-51885357D01*
X97278571Y-51742500D01*
X97421428Y-51671071D01*
X97707142Y-51671071D01*
X97850000Y-51742500D01*
X97207142Y-52599642D02*
X97350000Y-52671071D01*
X97707142Y-52671071D01*
X97850000Y-52599642D01*
X97921428Y-52456785D01*
X97921428Y-52313928D01*
X97850000Y-52171071D01*
X97707142Y-52099642D01*
X97350000Y-52099642D01*
X97207142Y-52028214D01*
X95850000Y-52671071D02*
X95850000Y-51171071D01*
X95850000Y-52599642D02*
X95992857Y-52671071D01*
X96278571Y-52671071D01*
X96421428Y-52599642D01*
X96492857Y-52528214D01*
X96564285Y-52385357D01*
X96564285Y-51956785D01*
X96492857Y-51813928D01*
X96421428Y-51742500D01*
X96278571Y-51671071D01*
X95992857Y-51671071D01*
X95850000Y-51742500D01*
X108671428Y-53586071D02*
X107671428Y-53586071D01*
X108671428Y-55086071D01*
X107671428Y-55086071D01*
X106457142Y-55086071D02*
X106457142Y-54300357D01*
X106528571Y-54157500D01*
X106671428Y-54086071D01*
X106957142Y-54086071D01*
X107100000Y-54157500D01*
X106457142Y-55014642D02*
X106600000Y-55086071D01*
X106957142Y-55086071D01*
X107100000Y-55014642D01*
X107171428Y-54871785D01*
X107171428Y-54728928D01*
X107100000Y-54586071D01*
X106957142Y-54514642D01*
X106600000Y-54514642D01*
X106457142Y-54443214D01*
X105742857Y-55086071D02*
X105742857Y-54086071D01*
X105742857Y-54371785D02*
X105671428Y-54228928D01*
X105600000Y-54157500D01*
X105457142Y-54086071D01*
X105314285Y-54086071D01*
X104242857Y-55014642D02*
X104385714Y-55086071D01*
X104671428Y-55086071D01*
X104814285Y-55014642D01*
X104885714Y-54871785D01*
X104885714Y-54300357D01*
X104814285Y-54157500D01*
X104671428Y-54086071D01*
X104385714Y-54086071D01*
X104242857Y-54157500D01*
X104171428Y-54300357D01*
X104171428Y-54443214D01*
X104885714Y-54586071D01*
X102957142Y-55014642D02*
X103100000Y-55086071D01*
X103385714Y-55086071D01*
X103528571Y-55014642D01*
X103600000Y-54871785D01*
X103600000Y-54300357D01*
X103528571Y-54157500D01*
X103385714Y-54086071D01*
X103100000Y-54086071D01*
X102957142Y-54157500D01*
X102885714Y-54300357D01*
X102885714Y-54443214D01*
X103600000Y-54586071D01*
X102457142Y-54086071D02*
X101885714Y-54086071D01*
X102242857Y-55086071D02*
X102242857Y-53800357D01*
X102171428Y-53657500D01*
X102028571Y-53586071D01*
X101885714Y-53586071D01*
X100242857Y-55086071D02*
X100242857Y-53586071D01*
X100242857Y-54300357D02*
X99385714Y-54300357D01*
X99385714Y-55086071D02*
X99385714Y-53586071D01*
X98028571Y-54086071D02*
X98028571Y-55086071D01*
X98671428Y-54086071D02*
X98671428Y-54871785D01*
X98600000Y-55014642D01*
X98457142Y-55086071D01*
X98242857Y-55086071D01*
X98100000Y-55014642D01*
X98028571Y-54943214D01*
X96671428Y-54086071D02*
X96671428Y-55586071D01*
X96671428Y-55014642D02*
X96814285Y-55086071D01*
X97100000Y-55086071D01*
X97242857Y-55014642D01*
X97314285Y-54943214D01*
X97385714Y-54800357D01*
X97385714Y-54371785D01*
X97314285Y-54228928D01*
X97242857Y-54157500D01*
X97100000Y-54086071D01*
X96814285Y-54086071D01*
X96671428Y-54157500D01*
X110028571Y-57501071D02*
X110028571Y-56001071D01*
X110028571Y-56715357D02*
X109171428Y-56715357D01*
X109171428Y-57501071D02*
X109171428Y-56001071D01*
X107814285Y-57501071D02*
X107814285Y-56715357D01*
X107885714Y-56572500D01*
X108028571Y-56501071D01*
X108314285Y-56501071D01*
X108457142Y-56572500D01*
X107814285Y-57429642D02*
X107957142Y-57501071D01*
X108314285Y-57501071D01*
X108457142Y-57429642D01*
X108528571Y-57286785D01*
X108528571Y-57143928D01*
X108457142Y-57001071D01*
X108314285Y-56929642D01*
X107957142Y-56929642D01*
X107814285Y-56858214D01*
X107100000Y-57501071D02*
X107100000Y-56501071D01*
X107100000Y-56643928D02*
X107028571Y-56572500D01*
X106885714Y-56501071D01*
X106671428Y-56501071D01*
X106528571Y-56572500D01*
X106457142Y-56715357D01*
X106457142Y-57501071D01*
X106457142Y-56715357D02*
X106385714Y-56572500D01*
X106242857Y-56501071D01*
X106028571Y-56501071D01*
X105885714Y-56572500D01*
X105814285Y-56715357D01*
X105814285Y-57501071D01*
X105242857Y-56501071D02*
X104457142Y-56501071D01*
X105242857Y-57501071D01*
X104457142Y-57501071D01*
X103242857Y-57501071D02*
X103242857Y-56715357D01*
X103314285Y-56572500D01*
X103457142Y-56501071D01*
X103742857Y-56501071D01*
X103885714Y-56572500D01*
X103242857Y-57429642D02*
X103385714Y-57501071D01*
X103742857Y-57501071D01*
X103885714Y-57429642D01*
X103957142Y-57286785D01*
X103957142Y-57143928D01*
X103885714Y-57001071D01*
X103742857Y-56929642D01*
X103385714Y-56929642D01*
X103242857Y-56858214D01*
X101385714Y-57501071D02*
X101385714Y-56001071D01*
X100528571Y-57501071D02*
X101171428Y-56643928D01*
X100528571Y-56001071D02*
X101385714Y-56858214D01*
X99242857Y-57501071D02*
X99242857Y-56715357D01*
X99314285Y-56572500D01*
X99457142Y-56501071D01*
X99742857Y-56501071D01*
X99885714Y-56572500D01*
X99242857Y-57429642D02*
X99385714Y-57501071D01*
X99742857Y-57501071D01*
X99885714Y-57429642D01*
X99957142Y-57286785D01*
X99957142Y-57143928D01*
X99885714Y-57001071D01*
X99742857Y-56929642D01*
X99385714Y-56929642D01*
X99242857Y-56858214D01*
X98528571Y-57501071D02*
X98528571Y-56501071D01*
X98528571Y-56643928D02*
X98457142Y-56572500D01*
X98314285Y-56501071D01*
X98100000Y-56501071D01*
X97957142Y-56572500D01*
X97885714Y-56715357D01*
X97885714Y-57501071D01*
X97885714Y-56715357D02*
X97814285Y-56572500D01*
X97671428Y-56501071D01*
X97457142Y-56501071D01*
X97314285Y-56572500D01*
X97242857Y-56715357D01*
X97242857Y-57501071D01*
X95957142Y-57429642D02*
X96100000Y-57501071D01*
X96385714Y-57501071D01*
X96528571Y-57429642D01*
X96600000Y-57286785D01*
X96600000Y-56715357D01*
X96528571Y-56572500D01*
X96385714Y-56501071D01*
X96100000Y-56501071D01*
X95957142Y-56572500D01*
X95885714Y-56715357D01*
X95885714Y-56858214D01*
X96600000Y-57001071D01*
X95028571Y-57501071D02*
X95171428Y-57429642D01*
X95242857Y-57286785D01*
X95242857Y-56001071D01*
X116278571Y-59130357D02*
X115778571Y-59130357D01*
X115564285Y-59916071D02*
X116278571Y-59916071D01*
X116278571Y-58416071D01*
X115564285Y-58416071D01*
X114064285Y-59773214D02*
X114135714Y-59844642D01*
X114350000Y-59916071D01*
X114492857Y-59916071D01*
X114707142Y-59844642D01*
X114850000Y-59701785D01*
X114921428Y-59558928D01*
X114992857Y-59273214D01*
X114992857Y-59058928D01*
X114921428Y-58773214D01*
X114850000Y-58630357D01*
X114707142Y-58487500D01*
X114492857Y-58416071D01*
X114350000Y-58416071D01*
X114135714Y-58487500D01*
X114064285Y-58558928D01*
X113421428Y-59130357D02*
X112921428Y-59130357D01*
X112707142Y-59916071D02*
X113421428Y-59916071D01*
X113421428Y-58416071D01*
X112707142Y-58416071D01*
X111421428Y-58916071D02*
X111421428Y-59916071D01*
X111778571Y-58344642D02*
X112135714Y-59416071D01*
X111207142Y-59416071D01*
X110778571Y-58416071D02*
X109778571Y-58416071D01*
X110421428Y-59916071D01*
X109350000Y-58416071D02*
X108350000Y-58416071D01*
X108992857Y-59916071D01*
X106135714Y-59130357D02*
X106635714Y-59130357D01*
X106635714Y-59916071D02*
X106635714Y-58416071D01*
X105921428Y-58416071D01*
X104707142Y-59916071D02*
X104707142Y-59130357D01*
X104778571Y-58987500D01*
X104921428Y-58916071D01*
X105207142Y-58916071D01*
X105350000Y-58987500D01*
X104707142Y-59844642D02*
X104850000Y-59916071D01*
X105207142Y-59916071D01*
X105350000Y-59844642D01*
X105421428Y-59701785D01*
X105421428Y-59558928D01*
X105350000Y-59416071D01*
X105207142Y-59344642D01*
X104850000Y-59344642D01*
X104707142Y-59273214D01*
X103778571Y-59916071D02*
X103921428Y-59844642D01*
X103992857Y-59701785D01*
X103992857Y-58416071D01*
X102992857Y-59916071D02*
X103135714Y-59844642D01*
X103207142Y-59701785D01*
X103207142Y-58416071D01*
X101350000Y-58558928D02*
X101278571Y-58487500D01*
X101135714Y-58416071D01*
X100778571Y-58416071D01*
X100635714Y-58487500D01*
X100564285Y-58558928D01*
X100492857Y-58701785D01*
X100492857Y-58844642D01*
X100564285Y-59058928D01*
X101421428Y-59916071D01*
X100492857Y-59916071D01*
X99921428Y-58558928D02*
X99850000Y-58487500D01*
X99707142Y-58416071D01*
X99350000Y-58416071D01*
X99207142Y-58487500D01*
X99135714Y-58558928D01*
X99064285Y-58701785D01*
X99064285Y-58844642D01*
X99135714Y-59058928D01*
X99992857Y-59916071D01*
X99064285Y-59916071D01*
X96492857Y-58487500D02*
X96635714Y-58416071D01*
X96850000Y-58416071D01*
X97064285Y-58487500D01*
X97207142Y-58630357D01*
X97278571Y-58773214D01*
X97350000Y-59058928D01*
X97350000Y-59273214D01*
X97278571Y-59558928D01*
X97207142Y-59701785D01*
X97064285Y-59844642D01*
X96850000Y-59916071D01*
X96707142Y-59916071D01*
X96492857Y-59844642D01*
X96421428Y-59773214D01*
X96421428Y-59273214D01*
X96707142Y-59273214D01*
X95778571Y-59916071D02*
X95778571Y-58916071D01*
X95778571Y-59201785D02*
X95707142Y-59058928D01*
X95635714Y-58987500D01*
X95492857Y-58916071D01*
X95350000Y-58916071D01*
X94635714Y-59916071D02*
X94778571Y-59844642D01*
X94850000Y-59773214D01*
X94921428Y-59630357D01*
X94921428Y-59201785D01*
X94850000Y-59058928D01*
X94778571Y-58987500D01*
X94635714Y-58916071D01*
X94421428Y-58916071D01*
X94278571Y-58987500D01*
X94207142Y-59058928D01*
X94135714Y-59201785D01*
X94135714Y-59630357D01*
X94207142Y-59773214D01*
X94278571Y-59844642D01*
X94421428Y-59916071D01*
X94635714Y-59916071D01*
X92850000Y-58916071D02*
X92850000Y-59916071D01*
X93492857Y-58916071D02*
X93492857Y-59701785D01*
X93421428Y-59844642D01*
X93278571Y-59916071D01*
X93064285Y-59916071D01*
X92921428Y-59844642D01*
X92850000Y-59773214D01*
X92135714Y-58916071D02*
X92135714Y-60416071D01*
X92135714Y-58987500D02*
X91992857Y-58916071D01*
X91707142Y-58916071D01*
X91564285Y-58987500D01*
X91492857Y-59058928D01*
X91421428Y-59201785D01*
X91421428Y-59630357D01*
X91492857Y-59773214D01*
X91564285Y-59844642D01*
X91707142Y-59916071D01*
X91992857Y-59916071D01*
X92135714Y-59844642D01*
X89707142Y-58558928D02*
X89635714Y-58487500D01*
X89492857Y-58416071D01*
X89135714Y-58416071D01*
X88992857Y-58487500D01*
X88921428Y-58558928D01*
X88850000Y-58701785D01*
X88850000Y-58844642D01*
X88921428Y-59058928D01*
X89778571Y-59916071D01*
X88850000Y-59916071D01*
D11*
X106666666Y-26602380D02*
X107142857Y-26602380D01*
X107142857Y-25602380D01*
X106190476Y-26030952D02*
X106285714Y-25983333D01*
X106333333Y-25935714D01*
X106380952Y-25840476D01*
X106380952Y-25792857D01*
X106333333Y-25697619D01*
X106285714Y-25650000D01*
X106190476Y-25602380D01*
X106000000Y-25602380D01*
X105904761Y-25650000D01*
X105857142Y-25697619D01*
X105809523Y-25792857D01*
X105809523Y-25840476D01*
X105857142Y-25935714D01*
X105904761Y-25983333D01*
X106000000Y-26030952D01*
X106190476Y-26030952D01*
X106285714Y-26078571D01*
X106333333Y-26126190D01*
X106380952Y-26221428D01*
X106380952Y-26411904D01*
X106333333Y-26507142D01*
X106285714Y-26554761D01*
X106190476Y-26602380D01*
X106000000Y-26602380D01*
X105904761Y-26554761D01*
X105857142Y-26507142D01*
X105809523Y-26411904D01*
X105809523Y-26221428D01*
X105857142Y-26126190D01*
X105904761Y-26078571D01*
X106000000Y-26030952D01*
X100369880Y-26525833D02*
X99893690Y-26192500D01*
X100369880Y-25954404D02*
X99369880Y-25954404D01*
X99369880Y-26335357D01*
X99417500Y-26430595D01*
X99465119Y-26478214D01*
X99560357Y-26525833D01*
X99703214Y-26525833D01*
X99798452Y-26478214D01*
X99846071Y-26430595D01*
X99893690Y-26335357D01*
X99893690Y-25954404D01*
X100369880Y-27002023D02*
X100369880Y-27192500D01*
X100322261Y-27287738D01*
X100274642Y-27335357D01*
X100131785Y-27430595D01*
X99941309Y-27478214D01*
X99560357Y-27478214D01*
X99465119Y-27430595D01*
X99417500Y-27382976D01*
X99369880Y-27287738D01*
X99369880Y-27097261D01*
X99417500Y-27002023D01*
X99465119Y-26954404D01*
X99560357Y-26906785D01*
X99798452Y-26906785D01*
X99893690Y-26954404D01*
X99941309Y-27002023D01*
X99988928Y-27097261D01*
X99988928Y-27287738D01*
X99941309Y-27382976D01*
X99893690Y-27430595D01*
X99798452Y-27478214D01*
X87583333Y-23414380D02*
X87583333Y-24128666D01*
X87630952Y-24271523D01*
X87726190Y-24366761D01*
X87869047Y-24414380D01*
X87964285Y-24414380D01*
X86678571Y-23747714D02*
X86678571Y-24414380D01*
X86916666Y-23366761D02*
X87154761Y-24081047D01*
X86535714Y-24081047D01*
X87250000Y-22152380D02*
X87250000Y-22390476D01*
X87488095Y-22295238D02*
X87250000Y-22390476D01*
X87011904Y-22295238D01*
X87392857Y-22580952D02*
X87250000Y-22390476D01*
X87107142Y-22580952D01*
X93547619Y-35204761D02*
X93500000Y-35109523D01*
X93404761Y-35014285D01*
X93261904Y-34871428D01*
X93214285Y-34776190D01*
X93214285Y-34680952D01*
X93452380Y-34728571D02*
X93404761Y-34633333D01*
X93309523Y-34538095D01*
X93119047Y-34490476D01*
X92785714Y-34490476D01*
X92595238Y-34538095D01*
X92500000Y-34633333D01*
X92452380Y-34728571D01*
X92452380Y-34919047D01*
X92500000Y-35014285D01*
X92595238Y-35109523D01*
X92785714Y-35157142D01*
X93119047Y-35157142D01*
X93309523Y-35109523D01*
X93404761Y-35014285D01*
X93452380Y-34919047D01*
X93452380Y-34728571D01*
X92547619Y-35538095D02*
X92500000Y-35585714D01*
X92452380Y-35680952D01*
X92452380Y-35919047D01*
X92500000Y-36014285D01*
X92547619Y-36061904D01*
X92642857Y-36109523D01*
X92738095Y-36109523D01*
X92880952Y-36061904D01*
X93452380Y-35490476D01*
X93452380Y-36109523D01*
X102447619Y-31554761D02*
X102400000Y-31459523D01*
X102304761Y-31364285D01*
X102161904Y-31221428D01*
X102114285Y-31126190D01*
X102114285Y-31030952D01*
X102352380Y-31078571D02*
X102304761Y-30983333D01*
X102209523Y-30888095D01*
X102019047Y-30840476D01*
X101685714Y-30840476D01*
X101495238Y-30888095D01*
X101400000Y-30983333D01*
X101352380Y-31078571D01*
X101352380Y-31269047D01*
X101400000Y-31364285D01*
X101495238Y-31459523D01*
X101685714Y-31507142D01*
X102019047Y-31507142D01*
X102209523Y-31459523D01*
X102304761Y-31364285D01*
X102352380Y-31269047D01*
X102352380Y-31078571D01*
X101352380Y-31840476D02*
X101352380Y-32459523D01*
X101733333Y-32126190D01*
X101733333Y-32269047D01*
X101780952Y-32364285D01*
X101828571Y-32411904D01*
X101923809Y-32459523D01*
X102161904Y-32459523D01*
X102257142Y-32411904D01*
X102304761Y-32364285D01*
X102352380Y-32269047D01*
X102352380Y-31983333D01*
X102304761Y-31888095D01*
X102257142Y-31840476D01*
X97369880Y-24275833D02*
X96893690Y-23942500D01*
X97369880Y-23704404D02*
X96369880Y-23704404D01*
X96369880Y-24085357D01*
X96417500Y-24180595D01*
X96465119Y-24228214D01*
X96560357Y-24275833D01*
X96703214Y-24275833D01*
X96798452Y-24228214D01*
X96846071Y-24180595D01*
X96893690Y-24085357D01*
X96893690Y-23704404D01*
X96369880Y-24609166D02*
X96369880Y-25275833D01*
X97369880Y-24847261D01*
X95897619Y-35354761D02*
X95850000Y-35259523D01*
X95754761Y-35164285D01*
X95611904Y-35021428D01*
X95564285Y-34926190D01*
X95564285Y-34830952D01*
X95802380Y-34878571D02*
X95754761Y-34783333D01*
X95659523Y-34688095D01*
X95469047Y-34640476D01*
X95135714Y-34640476D01*
X94945238Y-34688095D01*
X94850000Y-34783333D01*
X94802380Y-34878571D01*
X94802380Y-35069047D01*
X94850000Y-35164285D01*
X94945238Y-35259523D01*
X95135714Y-35307142D01*
X95469047Y-35307142D01*
X95659523Y-35259523D01*
X95754761Y-35164285D01*
X95802380Y-35069047D01*
X95802380Y-34878571D01*
X95802380Y-36259523D02*
X95802380Y-35688095D01*
X95802380Y-35973809D02*
X94802380Y-35973809D01*
X94945238Y-35878571D01*
X95040476Y-35783333D01*
X95088095Y-35688095D01*
X94119880Y-26775833D02*
X93643690Y-26442500D01*
X94119880Y-26204404D02*
X93119880Y-26204404D01*
X93119880Y-26585357D01*
X93167500Y-26680595D01*
X93215119Y-26728214D01*
X93310357Y-26775833D01*
X93453214Y-26775833D01*
X93548452Y-26728214D01*
X93596071Y-26680595D01*
X93643690Y-26585357D01*
X93643690Y-26204404D01*
X93548452Y-27347261D02*
X93500833Y-27252023D01*
X93453214Y-27204404D01*
X93357976Y-27156785D01*
X93310357Y-27156785D01*
X93215119Y-27204404D01*
X93167500Y-27252023D01*
X93119880Y-27347261D01*
X93119880Y-27537738D01*
X93167500Y-27632976D01*
X93215119Y-27680595D01*
X93310357Y-27728214D01*
X93357976Y-27728214D01*
X93453214Y-27680595D01*
X93500833Y-27632976D01*
X93548452Y-27537738D01*
X93548452Y-27347261D01*
X93596071Y-27252023D01*
X93643690Y-27204404D01*
X93738928Y-27156785D01*
X93929404Y-27156785D01*
X94024642Y-27204404D01*
X94072261Y-27252023D01*
X94119880Y-27347261D01*
X94119880Y-27537738D01*
X94072261Y-27632976D01*
X94024642Y-27680595D01*
X93929404Y-27728214D01*
X93738928Y-27728214D01*
X93643690Y-27680595D01*
X93596071Y-27632976D01*
X93548452Y-27537738D01*
D12*
X108300000Y-32550000D02*
X108300000Y-31400000D01*
X108300000Y-32550000D02*
X102700000Y-32550000D01*
X108300000Y-27150000D02*
X108300000Y-28300000D01*
X102700000Y-27150000D02*
X102700000Y-28300000D01*
X102700000Y-32550000D02*
X102700000Y-31400000D01*
X108300000Y-27150000D02*
X102700000Y-27150000D01*
X97995000Y-26705242D02*
X97995000Y-27179758D01*
X99040000Y-26705242D02*
X99040000Y-27179758D01*
X83376500Y-19550400D02*
X84887061Y-19550400D01*
X89612939Y-19550400D02*
X91123500Y-19550400D01*
X91123500Y-19550400D02*
X91123500Y-25849600D01*
X87912940Y-19550400D02*
X88287059Y-19550400D01*
X86212941Y-19550400D02*
X86587060Y-19550400D01*
X83376500Y-25849600D02*
X83376500Y-19550400D01*
X89674460Y-25849600D02*
X84825540Y-25849600D01*
X93282500Y-19677400D02*
G75*
G03*
X93282500Y-19677400I-381000J0D01*
G01*
X91620000Y-30590000D02*
X92550000Y-30590000D01*
X94780000Y-30590000D02*
X93850000Y-30590000D01*
X94780000Y-30590000D02*
X94780000Y-33750000D01*
X91620000Y-30590000D02*
X91620000Y-32050000D01*
X97820000Y-30890000D02*
X97820000Y-32350000D01*
X97820000Y-30890000D02*
X98750000Y-30890000D01*
X100980000Y-30890000D02*
X100980000Y-34050000D01*
X100980000Y-30890000D02*
X100050000Y-30890000D01*
X97440000Y-26705242D02*
X97440000Y-27179758D01*
X96395000Y-26705242D02*
X96395000Y-27179758D01*
X94720000Y-30590000D02*
X94720000Y-32050000D01*
X94720000Y-30590000D02*
X95650000Y-30590000D01*
X97880000Y-30590000D02*
X96950000Y-30590000D01*
X97880000Y-30590000D02*
X97880000Y-33750000D01*
X94795000Y-26705242D02*
X94795000Y-27179758D01*
X95840000Y-26705242D02*
X95840000Y-27179758D01*
%LPC*%
D13*
X89571300Y-29293700D03*
X90358700Y-28506300D03*
X90358700Y-29293700D03*
X89571300Y-28506300D03*
D14*
X107524999Y-38846499D03*
X102875001Y-40453501D03*
X106003501Y-37325001D03*
X106003501Y-41974999D03*
X102875001Y-38846499D03*
X104396499Y-41974999D03*
X104396499Y-40453501D03*
X107524999Y-40453501D03*
X104396499Y-38846499D03*
X104396499Y-37325001D03*
X106003501Y-38846499D03*
X106003501Y-40453501D03*
D15*
X116550000Y-31575000D03*
D16*
X116550000Y-30305000D03*
X117820000Y-31575000D03*
X117820000Y-30305000D03*
X119090000Y-31575000D03*
X119090000Y-30305000D03*
X120360000Y-31575000D03*
X120360000Y-30305000D03*
X121630000Y-31575000D03*
X121630000Y-30305000D03*
D17*
X83907000Y-32281000D03*
D18*
X83907000Y-29741000D03*
X83907000Y-27201000D03*
D17*
X105300000Y-19075000D03*
D18*
X102760000Y-19075000D03*
X100220000Y-19075000D03*
X97680000Y-19075000D03*
D19*
X116195000Y-25740000D03*
X116195000Y-19960000D03*
D20*
X119875000Y-27170000D03*
D21*
X115695000Y-18530000D03*
X115695000Y-27170000D03*
D20*
X119875000Y-18530000D03*
D13*
X104793700Y-24450000D03*
X104006300Y-25237400D03*
X104006300Y-23662600D03*
X104793700Y-23662600D03*
X104006300Y-24450000D03*
X104793700Y-25237400D03*
D22*
X107800000Y-29850000D03*
X103100000Y-29850000D03*
D23*
X98517500Y-26117500D03*
X98517500Y-27767500D03*
D24*
X88949999Y-19262000D03*
X87250000Y-19262000D03*
X85550001Y-19262000D03*
D25*
X90325000Y-24727400D03*
X84175000Y-24727400D03*
D26*
X94150000Y-32850000D03*
X92250000Y-32850000D03*
X93200000Y-29850000D03*
X100350000Y-33150000D03*
X98450000Y-33150000D03*
X99400000Y-30150000D03*
D23*
X96917500Y-26117500D03*
X96917500Y-27767500D03*
D26*
X97250000Y-32850000D03*
X95350000Y-32850000D03*
X96300000Y-29850000D03*
D23*
X95317500Y-26117500D03*
X95317500Y-27767500D03*
M02*
