%TF.GenerationSoftware,KiCad,Pcbnew,(6.0.8)*%
%TF.CreationDate,2022-10-20T09:57:03-04:00*%
%TF.ProjectId,Emrick,456d7269-636b-42e6-9b69-6361645f7063,1*%
%TF.SameCoordinates,Original*%
%TF.FileFunction,Legend,Top*%
%TF.FilePolarity,Positive*%
%FSLAX46Y46*%
G04 Gerber Fmt 4.6, Leading zero omitted, Abs format (unit mm)*
G04 Created by KiCad (PCBNEW (6.0.8)) date 2022-10-20 09:57:03*
%MOMM*%
%LPD*%
G01*
G04 APERTURE LIST*
G04 Aperture macros list*
%AMRoundRect*
0 Rectangle with rounded corners*
0 $1 Rounding radius*
0 $2 $3 $4 $5 $6 $7 $8 $9 X,Y pos of 4 corners*
0 Add a 4 corners polygon primitive as box body*
4,1,4,$2,$3,$4,$5,$6,$7,$8,$9,$2,$3,0*
0 Add four circle primitives for the rounded corners*
1,1,$1+$1,$2,$3*
1,1,$1+$1,$4,$5*
1,1,$1+$1,$6,$7*
1,1,$1+$1,$8,$9*
0 Add four rect primitives between the rounded corners*
20,1,$1+$1,$2,$3,$4,$5,0*
20,1,$1+$1,$4,$5,$6,$7,0*
20,1,$1+$1,$6,$7,$8,$9,0*
20,1,$1+$1,$8,$9,$2,$3,0*%
G04 Aperture macros list end*
%ADD10C,0.150000*%
%ADD11C,0.120000*%
%ADD12C,0.110000*%
%ADD13C,0.300000*%
%ADD14C,0.100000*%
%ADD15R,1.200000X1.400000*%
%ADD16RoundRect,0.140000X-0.140000X-0.170000X0.140000X-0.170000X0.140000X0.170000X-0.140000X0.170000X0*%
%ADD17RoundRect,0.135000X0.185000X-0.135000X0.185000X0.135000X-0.185000X0.135000X-0.185000X-0.135000X0*%
%ADD18RoundRect,0.135000X0.135000X0.185000X-0.135000X0.185000X-0.135000X-0.185000X0.135000X-0.185000X0*%
%ADD19R,2.750000X1.000000*%
%ADD20R,2.000000X1.200000*%
%ADD21RoundRect,0.140000X0.170000X-0.140000X0.170000X0.140000X-0.170000X0.140000X-0.170000X-0.140000X0*%
%ADD22RoundRect,0.147500X-0.172500X0.147500X-0.172500X-0.147500X0.172500X-0.147500X0.172500X0.147500X0*%
%ADD23RoundRect,0.140000X0.140000X0.170000X-0.140000X0.170000X-0.140000X-0.170000X0.140000X-0.170000X0*%
%ADD24RoundRect,0.140000X-0.170000X0.140000X-0.170000X-0.140000X0.170000X-0.140000X0.170000X0.140000X0*%
%ADD25R,1.000000X0.700000*%
%ADD26R,0.600000X0.700000*%
%ADD27RoundRect,0.147500X0.172500X-0.147500X0.172500X0.147500X-0.172500X0.147500X-0.172500X-0.147500X0*%
%ADD28R,0.965200X0.254000*%
%ADD29R,0.254000X0.965200*%
%ADD30R,3.352800X3.352800*%
%ADD31R,0.355600X1.676400*%
%ADD32R,0.280000X0.850000*%
%ADD33R,0.850000X0.280000*%
%ADD34C,0.508000*%
%ADD35RoundRect,0.225000X-0.250000X0.225000X-0.250000X-0.225000X0.250000X-0.225000X0.250000X0.225000X0*%
%ADD36RoundRect,0.135000X-0.135000X-0.185000X0.135000X-0.185000X0.135000X0.185000X-0.135000X0.185000X0*%
%ADD37O,0.240000X0.599999*%
%ADD38O,0.599999X0.240000*%
%ADD39R,5.150000X5.150000*%
%ADD40C,0.499999*%
%ADD41R,1.800000X1.000000*%
%ADD42R,1.000000X1.000000*%
%ADD43O,1.000000X1.000000*%
%ADD44R,1.700000X1.700000*%
%ADD45O,1.700000X1.700000*%
%ADD46R,1.050000X1.000000*%
%ADD47R,2.200000X1.050000*%
%ADD48RoundRect,0.225000X0.250000X-0.225000X0.250000X0.225000X-0.250000X0.225000X-0.250000X-0.225000X0*%
%ADD49C,0.650000*%
%ADD50R,1.150000X0.300000*%
%ADD51O,1.600000X1.000000*%
%ADD52O,2.100000X1.000000*%
%ADD53R,0.820000X0.280000*%
%ADD54R,0.254000X0.812800*%
%ADD55R,1.701800X0.304800*%
%ADD56RoundRect,0.147500X-0.147500X-0.172500X0.147500X-0.172500X0.147500X0.172500X-0.147500X0.172500X0*%
%ADD57RoundRect,0.200000X-0.275000X0.200000X-0.275000X-0.200000X0.275000X-0.200000X0.275000X0.200000X0*%
%ADD58RoundRect,0.225000X0.225000X0.250000X-0.225000X0.250000X-0.225000X-0.250000X0.225000X-0.250000X0*%
G04 APERTURE END LIST*
D10*
%TO.C,Y1*%
X95273809Y-41726190D02*
X95273809Y-42202380D01*
X94940476Y-41202380D02*
X95273809Y-41726190D01*
X95607142Y-41202380D01*
X96464285Y-42202380D02*
X95892857Y-42202380D01*
X96178571Y-42202380D02*
X96178571Y-41202380D01*
X96083333Y-41345238D01*
X95988095Y-41440476D01*
X95892857Y-41488095D01*
%TO.C,C14*%
X120607142Y-36607142D02*
X120559523Y-36654761D01*
X120416666Y-36702380D01*
X120321428Y-36702380D01*
X120178571Y-36654761D01*
X120083333Y-36559523D01*
X120035714Y-36464285D01*
X119988095Y-36273809D01*
X119988095Y-36130952D01*
X120035714Y-35940476D01*
X120083333Y-35845238D01*
X120178571Y-35750000D01*
X120321428Y-35702380D01*
X120416666Y-35702380D01*
X120559523Y-35750000D01*
X120607142Y-35797619D01*
X121559523Y-36702380D02*
X120988095Y-36702380D01*
X121273809Y-36702380D02*
X121273809Y-35702380D01*
X121178571Y-35845238D01*
X121083333Y-35940476D01*
X120988095Y-35988095D01*
X122416666Y-36035714D02*
X122416666Y-36702380D01*
X122178571Y-35654761D02*
X121940476Y-36369047D01*
X122559523Y-36369047D01*
%TO.C,R10*%
X99357142Y-26202380D02*
X99023809Y-25726190D01*
X98785714Y-26202380D02*
X98785714Y-25202380D01*
X99166666Y-25202380D01*
X99261904Y-25250000D01*
X99309523Y-25297619D01*
X99357142Y-25392857D01*
X99357142Y-25535714D01*
X99309523Y-25630952D01*
X99261904Y-25678571D01*
X99166666Y-25726190D01*
X98785714Y-25726190D01*
X100309523Y-26202380D02*
X99738095Y-26202380D01*
X100023809Y-26202380D02*
X100023809Y-25202380D01*
X99928571Y-25345238D01*
X99833333Y-25440476D01*
X99738095Y-25488095D01*
X100928571Y-25202380D02*
X101023809Y-25202380D01*
X101119047Y-25250000D01*
X101166666Y-25297619D01*
X101214285Y-25392857D01*
X101261904Y-25583333D01*
X101261904Y-25821428D01*
X101214285Y-26011904D01*
X101166666Y-26107142D01*
X101119047Y-26154761D01*
X101023809Y-26202380D01*
X100928571Y-26202380D01*
X100833333Y-26154761D01*
X100785714Y-26107142D01*
X100738095Y-26011904D01*
X100690476Y-25821428D01*
X100690476Y-25583333D01*
X100738095Y-25392857D01*
X100785714Y-25297619D01*
X100833333Y-25250000D01*
X100928571Y-25202380D01*
%TO.C,C13*%
X120607142Y-38107142D02*
X120559523Y-38154761D01*
X120416666Y-38202380D01*
X120321428Y-38202380D01*
X120178571Y-38154761D01*
X120083333Y-38059523D01*
X120035714Y-37964285D01*
X119988095Y-37773809D01*
X119988095Y-37630952D01*
X120035714Y-37440476D01*
X120083333Y-37345238D01*
X120178571Y-37250000D01*
X120321428Y-37202380D01*
X120416666Y-37202380D01*
X120559523Y-37250000D01*
X120607142Y-37297619D01*
X121559523Y-38202380D02*
X120988095Y-38202380D01*
X121273809Y-38202380D02*
X121273809Y-37202380D01*
X121178571Y-37345238D01*
X121083333Y-37440476D01*
X120988095Y-37488095D01*
X121892857Y-37202380D02*
X122511904Y-37202380D01*
X122178571Y-37583333D01*
X122321428Y-37583333D01*
X122416666Y-37630952D01*
X122464285Y-37678571D01*
X122511904Y-37773809D01*
X122511904Y-38011904D01*
X122464285Y-38107142D01*
X122416666Y-38154761D01*
X122321428Y-38202380D01*
X122035714Y-38202380D01*
X121940476Y-38154761D01*
X121892857Y-38107142D01*
%TO.C,R17*%
X111257142Y-20952380D02*
X110923809Y-20476190D01*
X110685714Y-20952380D02*
X110685714Y-19952380D01*
X111066666Y-19952380D01*
X111161904Y-20000000D01*
X111209523Y-20047619D01*
X111257142Y-20142857D01*
X111257142Y-20285714D01*
X111209523Y-20380952D01*
X111161904Y-20428571D01*
X111066666Y-20476190D01*
X110685714Y-20476190D01*
X112209523Y-20952380D02*
X111638095Y-20952380D01*
X111923809Y-20952380D02*
X111923809Y-19952380D01*
X111828571Y-20095238D01*
X111733333Y-20190476D01*
X111638095Y-20238095D01*
X112542857Y-19952380D02*
X113209523Y-19952380D01*
X112780952Y-20952380D01*
%TO.C,SW2*%
X85566666Y-24009761D02*
X85709523Y-24057380D01*
X85947619Y-24057380D01*
X86042857Y-24009761D01*
X86090476Y-23962142D01*
X86138095Y-23866904D01*
X86138095Y-23771666D01*
X86090476Y-23676428D01*
X86042857Y-23628809D01*
X85947619Y-23581190D01*
X85757142Y-23533571D01*
X85661904Y-23485952D01*
X85614285Y-23438333D01*
X85566666Y-23343095D01*
X85566666Y-23247857D01*
X85614285Y-23152619D01*
X85661904Y-23105000D01*
X85757142Y-23057380D01*
X85995238Y-23057380D01*
X86138095Y-23105000D01*
X86471428Y-23057380D02*
X86709523Y-24057380D01*
X86900000Y-23343095D01*
X87090476Y-24057380D01*
X87328571Y-23057380D01*
X87661904Y-23152619D02*
X87709523Y-23105000D01*
X87804761Y-23057380D01*
X88042857Y-23057380D01*
X88138095Y-23105000D01*
X88185714Y-23152619D01*
X88233333Y-23247857D01*
X88233333Y-23343095D01*
X88185714Y-23485952D01*
X87614285Y-24057380D01*
X88233333Y-24057380D01*
%TO.C,L1*%
X109702380Y-34666666D02*
X109702380Y-35142857D01*
X108702380Y-35142857D01*
X109702380Y-33809523D02*
X109702380Y-34380952D01*
X109702380Y-34095238D02*
X108702380Y-34095238D01*
X108845238Y-34190476D01*
X108940476Y-34285714D01*
X108988095Y-34380952D01*
%TO.C,C26*%
X110857142Y-29142857D02*
X110904761Y-29190476D01*
X110952380Y-29333333D01*
X110952380Y-29428571D01*
X110904761Y-29571428D01*
X110809523Y-29666666D01*
X110714285Y-29714285D01*
X110523809Y-29761904D01*
X110380952Y-29761904D01*
X110190476Y-29714285D01*
X110095238Y-29666666D01*
X110000000Y-29571428D01*
X109952380Y-29428571D01*
X109952380Y-29333333D01*
X110000000Y-29190476D01*
X110047619Y-29142857D01*
X110047619Y-28761904D02*
X110000000Y-28714285D01*
X109952380Y-28619047D01*
X109952380Y-28380952D01*
X110000000Y-28285714D01*
X110047619Y-28238095D01*
X110142857Y-28190476D01*
X110238095Y-28190476D01*
X110380952Y-28238095D01*
X110952380Y-28809523D01*
X110952380Y-28190476D01*
X109952380Y-27333333D02*
X109952380Y-27523809D01*
X110000000Y-27619047D01*
X110047619Y-27666666D01*
X110190476Y-27761904D01*
X110380952Y-27809523D01*
X110761904Y-27809523D01*
X110857142Y-27761904D01*
X110904761Y-27714285D01*
X110952380Y-27619047D01*
X110952380Y-27428571D01*
X110904761Y-27333333D01*
X110857142Y-27285714D01*
X110761904Y-27238095D01*
X110523809Y-27238095D01*
X110428571Y-27285714D01*
X110380952Y-27333333D01*
X110333333Y-27428571D01*
X110333333Y-27619047D01*
X110380952Y-27714285D01*
X110428571Y-27761904D01*
X110523809Y-27809523D01*
%TO.C,R21*%
X112452380Y-55292857D02*
X111976190Y-55626190D01*
X112452380Y-55864285D02*
X111452380Y-55864285D01*
X111452380Y-55483333D01*
X111500000Y-55388095D01*
X111547619Y-55340476D01*
X111642857Y-55292857D01*
X111785714Y-55292857D01*
X111880952Y-55340476D01*
X111928571Y-55388095D01*
X111976190Y-55483333D01*
X111976190Y-55864285D01*
X111547619Y-54911904D02*
X111500000Y-54864285D01*
X111452380Y-54769047D01*
X111452380Y-54530952D01*
X111500000Y-54435714D01*
X111547619Y-54388095D01*
X111642857Y-54340476D01*
X111738095Y-54340476D01*
X111880952Y-54388095D01*
X112452380Y-54959523D01*
X112452380Y-54340476D01*
X112452380Y-53388095D02*
X112452380Y-53959523D01*
X112452380Y-53673809D02*
X111452380Y-53673809D01*
X111595238Y-53769047D01*
X111690476Y-53864285D01*
X111738095Y-53959523D01*
%TO.C,L5*%
X104022380Y-55916666D02*
X104022380Y-56392857D01*
X103022380Y-56392857D01*
X103022380Y-55107142D02*
X103022380Y-55583333D01*
X103498571Y-55630952D01*
X103450952Y-55583333D01*
X103403333Y-55488095D01*
X103403333Y-55250000D01*
X103450952Y-55154761D01*
X103498571Y-55107142D01*
X103593809Y-55059523D01*
X103831904Y-55059523D01*
X103927142Y-55107142D01*
X103974761Y-55154761D01*
X104022380Y-55250000D01*
X104022380Y-55488095D01*
X103974761Y-55583333D01*
X103927142Y-55630952D01*
%TO.C,L2*%
X101202380Y-49266666D02*
X101202380Y-49742857D01*
X100202380Y-49742857D01*
X100297619Y-48980952D02*
X100250000Y-48933333D01*
X100202380Y-48838095D01*
X100202380Y-48600000D01*
X100250000Y-48504761D01*
X100297619Y-48457142D01*
X100392857Y-48409523D01*
X100488095Y-48409523D01*
X100630952Y-48457142D01*
X101202380Y-49028571D01*
X101202380Y-48409523D01*
D11*
%TO.C,C3*%
X99266666Y-41785714D02*
X99228571Y-41823809D01*
X99114285Y-41861904D01*
X99038095Y-41861904D01*
X98923809Y-41823809D01*
X98847619Y-41747619D01*
X98809523Y-41671428D01*
X98771428Y-41519047D01*
X98771428Y-41404761D01*
X98809523Y-41252380D01*
X98847619Y-41176190D01*
X98923809Y-41100000D01*
X99038095Y-41061904D01*
X99114285Y-41061904D01*
X99228571Y-41100000D01*
X99266666Y-41138095D01*
X99533333Y-41061904D02*
X100028571Y-41061904D01*
X99761904Y-41366666D01*
X99876190Y-41366666D01*
X99952380Y-41404761D01*
X99990476Y-41442857D01*
X100028571Y-41519047D01*
X100028571Y-41709523D01*
X99990476Y-41785714D01*
X99952380Y-41823809D01*
X99876190Y-41861904D01*
X99647619Y-41861904D01*
X99571428Y-41823809D01*
X99533333Y-41785714D01*
D12*
%TO.C,C8*%
X98535714Y-45883333D02*
X98573809Y-45921428D01*
X98611904Y-46035714D01*
X98611904Y-46111904D01*
X98573809Y-46226190D01*
X98497619Y-46302380D01*
X98421428Y-46340476D01*
X98269047Y-46378571D01*
X98154761Y-46378571D01*
X98002380Y-46340476D01*
X97926190Y-46302380D01*
X97850000Y-46226190D01*
X97811904Y-46111904D01*
X97811904Y-46035714D01*
X97850000Y-45921428D01*
X97888095Y-45883333D01*
X98154761Y-45426190D02*
X98116666Y-45502380D01*
X98078571Y-45540476D01*
X98002380Y-45578571D01*
X97964285Y-45578571D01*
X97888095Y-45540476D01*
X97850000Y-45502380D01*
X97811904Y-45426190D01*
X97811904Y-45273809D01*
X97850000Y-45197619D01*
X97888095Y-45159523D01*
X97964285Y-45121428D01*
X98002380Y-45121428D01*
X98078571Y-45159523D01*
X98116666Y-45197619D01*
X98154761Y-45273809D01*
X98154761Y-45426190D01*
X98192857Y-45502380D01*
X98230952Y-45540476D01*
X98307142Y-45578571D01*
X98459523Y-45578571D01*
X98535714Y-45540476D01*
X98573809Y-45502380D01*
X98611904Y-45426190D01*
X98611904Y-45273809D01*
X98573809Y-45197619D01*
X98535714Y-45159523D01*
X98459523Y-45121428D01*
X98307142Y-45121428D01*
X98230952Y-45159523D01*
X98192857Y-45197619D01*
X98154761Y-45273809D01*
D10*
%TO.C,C1*%
X112083333Y-46357142D02*
X112035714Y-46404761D01*
X111892857Y-46452380D01*
X111797619Y-46452380D01*
X111654761Y-46404761D01*
X111559523Y-46309523D01*
X111511904Y-46214285D01*
X111464285Y-46023809D01*
X111464285Y-45880952D01*
X111511904Y-45690476D01*
X111559523Y-45595238D01*
X111654761Y-45500000D01*
X111797619Y-45452380D01*
X111892857Y-45452380D01*
X112035714Y-45500000D01*
X112083333Y-45547619D01*
X113035714Y-46452380D02*
X112464285Y-46452380D01*
X112750000Y-46452380D02*
X112750000Y-45452380D01*
X112654761Y-45595238D01*
X112559523Y-45690476D01*
X112464285Y-45738095D01*
%TO.C,R2*%
X100202380Y-36916666D02*
X99726190Y-37250000D01*
X100202380Y-37488095D02*
X99202380Y-37488095D01*
X99202380Y-37107142D01*
X99250000Y-37011904D01*
X99297619Y-36964285D01*
X99392857Y-36916666D01*
X99535714Y-36916666D01*
X99630952Y-36964285D01*
X99678571Y-37011904D01*
X99726190Y-37107142D01*
X99726190Y-37488095D01*
X99297619Y-36535714D02*
X99250000Y-36488095D01*
X99202380Y-36392857D01*
X99202380Y-36154761D01*
X99250000Y-36059523D01*
X99297619Y-36011904D01*
X99392857Y-35964285D01*
X99488095Y-35964285D01*
X99630952Y-36011904D01*
X100202380Y-36583333D01*
X100202380Y-35964285D01*
%TO.C,C33*%
X93857142Y-31607142D02*
X93809523Y-31654761D01*
X93666666Y-31702380D01*
X93571428Y-31702380D01*
X93428571Y-31654761D01*
X93333333Y-31559523D01*
X93285714Y-31464285D01*
X93238095Y-31273809D01*
X93238095Y-31130952D01*
X93285714Y-30940476D01*
X93333333Y-30845238D01*
X93428571Y-30750000D01*
X93571428Y-30702380D01*
X93666666Y-30702380D01*
X93809523Y-30750000D01*
X93857142Y-30797619D01*
X94190476Y-30702380D02*
X94809523Y-30702380D01*
X94476190Y-31083333D01*
X94619047Y-31083333D01*
X94714285Y-31130952D01*
X94761904Y-31178571D01*
X94809523Y-31273809D01*
X94809523Y-31511904D01*
X94761904Y-31607142D01*
X94714285Y-31654761D01*
X94619047Y-31702380D01*
X94333333Y-31702380D01*
X94238095Y-31654761D01*
X94190476Y-31607142D01*
X95142857Y-30702380D02*
X95761904Y-30702380D01*
X95428571Y-31083333D01*
X95571428Y-31083333D01*
X95666666Y-31130952D01*
X95714285Y-31178571D01*
X95761904Y-31273809D01*
X95761904Y-31511904D01*
X95714285Y-31607142D01*
X95666666Y-31654761D01*
X95571428Y-31702380D01*
X95285714Y-31702380D01*
X95190476Y-31654761D01*
X95142857Y-31607142D01*
%TO.C,R15*%
X120107142Y-46702380D02*
X119773809Y-46226190D01*
X119535714Y-46702380D02*
X119535714Y-45702380D01*
X119916666Y-45702380D01*
X120011904Y-45750000D01*
X120059523Y-45797619D01*
X120107142Y-45892857D01*
X120107142Y-46035714D01*
X120059523Y-46130952D01*
X120011904Y-46178571D01*
X119916666Y-46226190D01*
X119535714Y-46226190D01*
X121059523Y-46702380D02*
X120488095Y-46702380D01*
X120773809Y-46702380D02*
X120773809Y-45702380D01*
X120678571Y-45845238D01*
X120583333Y-45940476D01*
X120488095Y-45988095D01*
X121964285Y-45702380D02*
X121488095Y-45702380D01*
X121440476Y-46178571D01*
X121488095Y-46130952D01*
X121583333Y-46083333D01*
X121821428Y-46083333D01*
X121916666Y-46130952D01*
X121964285Y-46178571D01*
X122011904Y-46273809D01*
X122011904Y-46511904D01*
X121964285Y-46607142D01*
X121916666Y-46654761D01*
X121821428Y-46702380D01*
X121583333Y-46702380D01*
X121488095Y-46654761D01*
X121440476Y-46607142D01*
%TO.C,D4*%
X111161904Y-24552380D02*
X111161904Y-23552380D01*
X111400000Y-23552380D01*
X111542857Y-23600000D01*
X111638095Y-23695238D01*
X111685714Y-23790476D01*
X111733333Y-23980952D01*
X111733333Y-24123809D01*
X111685714Y-24314285D01*
X111638095Y-24409523D01*
X111542857Y-24504761D01*
X111400000Y-24552380D01*
X111161904Y-24552380D01*
X112590476Y-23885714D02*
X112590476Y-24552380D01*
X112352380Y-23504761D02*
X112114285Y-24219047D01*
X112733333Y-24219047D01*
%TO.C,R4*%
X83452380Y-41416666D02*
X82976190Y-41750000D01*
X83452380Y-41988095D02*
X82452380Y-41988095D01*
X82452380Y-41607142D01*
X82500000Y-41511904D01*
X82547619Y-41464285D01*
X82642857Y-41416666D01*
X82785714Y-41416666D01*
X82880952Y-41464285D01*
X82928571Y-41511904D01*
X82976190Y-41607142D01*
X82976190Y-41988095D01*
X82785714Y-40559523D02*
X83452380Y-40559523D01*
X82404761Y-40797619D02*
X83119047Y-41035714D01*
X83119047Y-40416666D01*
%TO.C,C24*%
X92607142Y-23857142D02*
X92559523Y-23904761D01*
X92416666Y-23952380D01*
X92321428Y-23952380D01*
X92178571Y-23904761D01*
X92083333Y-23809523D01*
X92035714Y-23714285D01*
X91988095Y-23523809D01*
X91988095Y-23380952D01*
X92035714Y-23190476D01*
X92083333Y-23095238D01*
X92178571Y-23000000D01*
X92321428Y-22952380D01*
X92416666Y-22952380D01*
X92559523Y-23000000D01*
X92607142Y-23047619D01*
X92988095Y-23047619D02*
X93035714Y-23000000D01*
X93130952Y-22952380D01*
X93369047Y-22952380D01*
X93464285Y-23000000D01*
X93511904Y-23047619D01*
X93559523Y-23142857D01*
X93559523Y-23238095D01*
X93511904Y-23380952D01*
X92940476Y-23952380D01*
X93559523Y-23952380D01*
X94416666Y-23285714D02*
X94416666Y-23952380D01*
X94178571Y-22904761D02*
X93940476Y-23619047D01*
X94559523Y-23619047D01*
%TO.C,R12*%
X99557142Y-24552380D02*
X99223809Y-24076190D01*
X98985714Y-24552380D02*
X98985714Y-23552380D01*
X99366666Y-23552380D01*
X99461904Y-23600000D01*
X99509523Y-23647619D01*
X99557142Y-23742857D01*
X99557142Y-23885714D01*
X99509523Y-23980952D01*
X99461904Y-24028571D01*
X99366666Y-24076190D01*
X98985714Y-24076190D01*
X100509523Y-24552380D02*
X99938095Y-24552380D01*
X100223809Y-24552380D02*
X100223809Y-23552380D01*
X100128571Y-23695238D01*
X100033333Y-23790476D01*
X99938095Y-23838095D01*
X100890476Y-23647619D02*
X100938095Y-23600000D01*
X101033333Y-23552380D01*
X101271428Y-23552380D01*
X101366666Y-23600000D01*
X101414285Y-23647619D01*
X101461904Y-23742857D01*
X101461904Y-23838095D01*
X101414285Y-23980952D01*
X100842857Y-24552380D01*
X101461904Y-24552380D01*
%TO.C,D1*%
X120761904Y-51452380D02*
X120761904Y-50452380D01*
X121000000Y-50452380D01*
X121142857Y-50500000D01*
X121238095Y-50595238D01*
X121285714Y-50690476D01*
X121333333Y-50880952D01*
X121333333Y-51023809D01*
X121285714Y-51214285D01*
X121238095Y-51309523D01*
X121142857Y-51404761D01*
X121000000Y-51452380D01*
X120761904Y-51452380D01*
X122285714Y-51452380D02*
X121714285Y-51452380D01*
X122000000Y-51452380D02*
X122000000Y-50452380D01*
X121904761Y-50595238D01*
X121809523Y-50690476D01*
X121714285Y-50738095D01*
%TO.C,C18*%
X105857142Y-50642857D02*
X105904761Y-50690476D01*
X105952380Y-50833333D01*
X105952380Y-50928571D01*
X105904761Y-51071428D01*
X105809523Y-51166666D01*
X105714285Y-51214285D01*
X105523809Y-51261904D01*
X105380952Y-51261904D01*
X105190476Y-51214285D01*
X105095238Y-51166666D01*
X105000000Y-51071428D01*
X104952380Y-50928571D01*
X104952380Y-50833333D01*
X105000000Y-50690476D01*
X105047619Y-50642857D01*
X105952380Y-49690476D02*
X105952380Y-50261904D01*
X105952380Y-49976190D02*
X104952380Y-49976190D01*
X105095238Y-50071428D01*
X105190476Y-50166666D01*
X105238095Y-50261904D01*
X105380952Y-49119047D02*
X105333333Y-49214285D01*
X105285714Y-49261904D01*
X105190476Y-49309523D01*
X105142857Y-49309523D01*
X105047619Y-49261904D01*
X105000000Y-49214285D01*
X104952380Y-49119047D01*
X104952380Y-48928571D01*
X105000000Y-48833333D01*
X105047619Y-48785714D01*
X105142857Y-48738095D01*
X105190476Y-48738095D01*
X105285714Y-48785714D01*
X105333333Y-48833333D01*
X105380952Y-48928571D01*
X105380952Y-49119047D01*
X105428571Y-49214285D01*
X105476190Y-49261904D01*
X105571428Y-49309523D01*
X105761904Y-49309523D01*
X105857142Y-49261904D01*
X105904761Y-49214285D01*
X105952380Y-49119047D01*
X105952380Y-48928571D01*
X105904761Y-48833333D01*
X105857142Y-48785714D01*
X105761904Y-48738095D01*
X105571428Y-48738095D01*
X105476190Y-48785714D01*
X105428571Y-48833333D01*
X105380952Y-48928571D01*
D13*
%TO.C,AE1*%
X100622000Y-76786500D02*
X101347714Y-76786500D01*
X100476857Y-77221928D02*
X100984857Y-75697928D01*
X101492857Y-77221928D01*
X102000857Y-76423642D02*
X102508857Y-76423642D01*
X102726571Y-77221928D02*
X102000857Y-77221928D01*
X102000857Y-75697928D01*
X102726571Y-75697928D01*
X104178000Y-77221928D02*
X103307142Y-77221928D01*
X103742571Y-77221928D02*
X103742571Y-75697928D01*
X103597428Y-75915642D01*
X103452285Y-76060785D01*
X103307142Y-76133357D01*
D10*
%TO.C,U4*%
X112038095Y-36852380D02*
X112038095Y-37661904D01*
X112085714Y-37757142D01*
X112133333Y-37804761D01*
X112228571Y-37852380D01*
X112419047Y-37852380D01*
X112514285Y-37804761D01*
X112561904Y-37757142D01*
X112609523Y-37661904D01*
X112609523Y-36852380D01*
X113514285Y-37185714D02*
X113514285Y-37852380D01*
X113276190Y-36804761D02*
X113038095Y-37519047D01*
X113657142Y-37519047D01*
X119641700Y-42102380D02*
X119641700Y-42340476D01*
X119403604Y-42245238D02*
X119641700Y-42340476D01*
X119879795Y-42245238D01*
X119498842Y-42530952D02*
X119641700Y-42340476D01*
X119784557Y-42530952D01*
X119641700Y-42102380D02*
X119641700Y-42340476D01*
X119403604Y-42245238D02*
X119641700Y-42340476D01*
X119879795Y-42245238D01*
X119498842Y-42530952D02*
X119641700Y-42340476D01*
X119784557Y-42530952D01*
%TO.C,R19*%
X114757142Y-37352380D02*
X114423809Y-36876190D01*
X114185714Y-37352380D02*
X114185714Y-36352380D01*
X114566666Y-36352380D01*
X114661904Y-36400000D01*
X114709523Y-36447619D01*
X114757142Y-36542857D01*
X114757142Y-36685714D01*
X114709523Y-36780952D01*
X114661904Y-36828571D01*
X114566666Y-36876190D01*
X114185714Y-36876190D01*
X115709523Y-37352380D02*
X115138095Y-37352380D01*
X115423809Y-37352380D02*
X115423809Y-36352380D01*
X115328571Y-36495238D01*
X115233333Y-36590476D01*
X115138095Y-36638095D01*
X116185714Y-37352380D02*
X116376190Y-37352380D01*
X116471428Y-37304761D01*
X116519047Y-37257142D01*
X116614285Y-37114285D01*
X116661904Y-36923809D01*
X116661904Y-36542857D01*
X116614285Y-36447619D01*
X116566666Y-36400000D01*
X116471428Y-36352380D01*
X116280952Y-36352380D01*
X116185714Y-36400000D01*
X116138095Y-36447619D01*
X116090476Y-36542857D01*
X116090476Y-36780952D01*
X116138095Y-36876190D01*
X116185714Y-36923809D01*
X116280952Y-36971428D01*
X116471428Y-36971428D01*
X116566666Y-36923809D01*
X116614285Y-36876190D01*
X116661904Y-36780952D01*
%TO.C,U1*%
X89404880Y-42076154D02*
X90214404Y-42076154D01*
X90309642Y-42028535D01*
X90357261Y-41980916D01*
X90404880Y-41885678D01*
X90404880Y-41695202D01*
X90357261Y-41599964D01*
X90309642Y-41552345D01*
X90214404Y-41504726D01*
X89404880Y-41504726D01*
X90404880Y-40504726D02*
X90404880Y-41076154D01*
X90404880Y-40790440D02*
X89404880Y-40790440D01*
X89547738Y-40885678D01*
X89642976Y-40980916D01*
X89690595Y-41076154D01*
%TO.C,U6*%
X86352380Y-35261904D02*
X87161904Y-35261904D01*
X87257142Y-35214285D01*
X87304761Y-35166666D01*
X87352380Y-35071428D01*
X87352380Y-34880952D01*
X87304761Y-34785714D01*
X87257142Y-34738095D01*
X87161904Y-34690476D01*
X86352380Y-34690476D01*
X86352380Y-33785714D02*
X86352380Y-33976190D01*
X86400000Y-34071428D01*
X86447619Y-34119047D01*
X86590476Y-34214285D01*
X86780952Y-34261904D01*
X87161904Y-34261904D01*
X87257142Y-34214285D01*
X87304761Y-34166666D01*
X87352380Y-34071428D01*
X87352380Y-33880952D01*
X87304761Y-33785714D01*
X87257142Y-33738095D01*
X87161904Y-33690476D01*
X86923809Y-33690476D01*
X86828571Y-33738095D01*
X86780952Y-33785714D01*
X86733333Y-33880952D01*
X86733333Y-34071428D01*
X86780952Y-34166666D01*
X86828571Y-34214285D01*
X86923809Y-34261904D01*
%TO.C,C5*%
X100357142Y-33916666D02*
X100404761Y-33964285D01*
X100452380Y-34107142D01*
X100452380Y-34202380D01*
X100404761Y-34345238D01*
X100309523Y-34440476D01*
X100214285Y-34488095D01*
X100023809Y-34535714D01*
X99880952Y-34535714D01*
X99690476Y-34488095D01*
X99595238Y-34440476D01*
X99500000Y-34345238D01*
X99452380Y-34202380D01*
X99452380Y-34107142D01*
X99500000Y-33964285D01*
X99547619Y-33916666D01*
X99452380Y-33011904D02*
X99452380Y-33488095D01*
X99928571Y-33535714D01*
X99880952Y-33488095D01*
X99833333Y-33392857D01*
X99833333Y-33154761D01*
X99880952Y-33059523D01*
X99928571Y-33011904D01*
X100023809Y-32964285D01*
X100261904Y-32964285D01*
X100357142Y-33011904D01*
X100404761Y-33059523D01*
X100452380Y-33154761D01*
X100452380Y-33392857D01*
X100404761Y-33488095D01*
X100357142Y-33535714D01*
%TO.C,C28*%
X99780214Y-31892857D02*
X99827833Y-31940476D01*
X99875452Y-32083333D01*
X99875452Y-32178571D01*
X99827833Y-32321428D01*
X99732595Y-32416666D01*
X99637357Y-32464285D01*
X99446881Y-32511904D01*
X99304024Y-32511904D01*
X99113548Y-32464285D01*
X99018310Y-32416666D01*
X98923072Y-32321428D01*
X98875452Y-32178571D01*
X98875452Y-32083333D01*
X98923072Y-31940476D01*
X98970691Y-31892857D01*
X98970691Y-31511904D02*
X98923072Y-31464285D01*
X98875452Y-31369047D01*
X98875452Y-31130952D01*
X98923072Y-31035714D01*
X98970691Y-30988095D01*
X99065929Y-30940476D01*
X99161167Y-30940476D01*
X99304024Y-30988095D01*
X99875452Y-31559523D01*
X99875452Y-30940476D01*
X99304024Y-30369047D02*
X99256405Y-30464285D01*
X99208786Y-30511904D01*
X99113548Y-30559523D01*
X99065929Y-30559523D01*
X98970691Y-30511904D01*
X98923072Y-30464285D01*
X98875452Y-30369047D01*
X98875452Y-30178571D01*
X98923072Y-30083333D01*
X98970691Y-30035714D01*
X99065929Y-29988095D01*
X99113548Y-29988095D01*
X99208786Y-30035714D01*
X99256405Y-30083333D01*
X99304024Y-30178571D01*
X99304024Y-30369047D01*
X99351643Y-30464285D01*
X99399262Y-30511904D01*
X99494500Y-30559523D01*
X99684976Y-30559523D01*
X99780214Y-30511904D01*
X99827833Y-30464285D01*
X99875452Y-30369047D01*
X99875452Y-30178571D01*
X99827833Y-30083333D01*
X99780214Y-30035714D01*
X99684976Y-29988095D01*
X99494500Y-29988095D01*
X99399262Y-30035714D01*
X99351643Y-30083333D01*
X99304024Y-30178571D01*
%TO.C,C31*%
X87357142Y-28657142D02*
X87309523Y-28704761D01*
X87166666Y-28752380D01*
X87071428Y-28752380D01*
X86928571Y-28704761D01*
X86833333Y-28609523D01*
X86785714Y-28514285D01*
X86738095Y-28323809D01*
X86738095Y-28180952D01*
X86785714Y-27990476D01*
X86833333Y-27895238D01*
X86928571Y-27800000D01*
X87071428Y-27752380D01*
X87166666Y-27752380D01*
X87309523Y-27800000D01*
X87357142Y-27847619D01*
X87690476Y-27752380D02*
X88309523Y-27752380D01*
X87976190Y-28133333D01*
X88119047Y-28133333D01*
X88214285Y-28180952D01*
X88261904Y-28228571D01*
X88309523Y-28323809D01*
X88309523Y-28561904D01*
X88261904Y-28657142D01*
X88214285Y-28704761D01*
X88119047Y-28752380D01*
X87833333Y-28752380D01*
X87738095Y-28704761D01*
X87690476Y-28657142D01*
X89261904Y-28752380D02*
X88690476Y-28752380D01*
X88976190Y-28752380D02*
X88976190Y-27752380D01*
X88880952Y-27895238D01*
X88785714Y-27990476D01*
X88690476Y-28038095D01*
D11*
%TO.C,C25*%
X107285714Y-28514285D02*
X107323809Y-28552380D01*
X107361904Y-28666666D01*
X107361904Y-28742857D01*
X107323809Y-28857142D01*
X107247619Y-28933333D01*
X107171428Y-28971428D01*
X107019047Y-29009523D01*
X106904761Y-29009523D01*
X106752380Y-28971428D01*
X106676190Y-28933333D01*
X106600000Y-28857142D01*
X106561904Y-28742857D01*
X106561904Y-28666666D01*
X106600000Y-28552380D01*
X106638095Y-28514285D01*
X106638095Y-28209523D02*
X106600000Y-28171428D01*
X106561904Y-28095238D01*
X106561904Y-27904761D01*
X106600000Y-27828571D01*
X106638095Y-27790476D01*
X106714285Y-27752380D01*
X106790476Y-27752380D01*
X106904761Y-27790476D01*
X107361904Y-28247619D01*
X107361904Y-27752380D01*
X106561904Y-27028571D02*
X106561904Y-27409523D01*
X106942857Y-27447619D01*
X106904761Y-27409523D01*
X106866666Y-27333333D01*
X106866666Y-27142857D01*
X106904761Y-27066666D01*
X106942857Y-27028571D01*
X107019047Y-26990476D01*
X107209523Y-26990476D01*
X107285714Y-27028571D01*
X107323809Y-27066666D01*
X107361904Y-27142857D01*
X107361904Y-27333333D01*
X107323809Y-27409523D01*
X107285714Y-27447619D01*
D10*
%TO.C,C15*%
X97857142Y-41392857D02*
X97904761Y-41440476D01*
X97952380Y-41583333D01*
X97952380Y-41678571D01*
X97904761Y-41821428D01*
X97809523Y-41916666D01*
X97714285Y-41964285D01*
X97523809Y-42011904D01*
X97380952Y-42011904D01*
X97190476Y-41964285D01*
X97095238Y-41916666D01*
X97000000Y-41821428D01*
X96952380Y-41678571D01*
X96952380Y-41583333D01*
X97000000Y-41440476D01*
X97047619Y-41392857D01*
X97952380Y-40440476D02*
X97952380Y-41011904D01*
X97952380Y-40726190D02*
X96952380Y-40726190D01*
X97095238Y-40821428D01*
X97190476Y-40916666D01*
X97238095Y-41011904D01*
X96952380Y-39535714D02*
X96952380Y-40011904D01*
X97428571Y-40059523D01*
X97380952Y-40011904D01*
X97333333Y-39916666D01*
X97333333Y-39678571D01*
X97380952Y-39583333D01*
X97428571Y-39535714D01*
X97523809Y-39488095D01*
X97761904Y-39488095D01*
X97857142Y-39535714D01*
X97904761Y-39583333D01*
X97952380Y-39678571D01*
X97952380Y-39916666D01*
X97904761Y-40011904D01*
X97857142Y-40059523D01*
%TO.C,C2*%
X110583333Y-42357142D02*
X110535714Y-42404761D01*
X110392857Y-42452380D01*
X110297619Y-42452380D01*
X110154761Y-42404761D01*
X110059523Y-42309523D01*
X110011904Y-42214285D01*
X109964285Y-42023809D01*
X109964285Y-41880952D01*
X110011904Y-41690476D01*
X110059523Y-41595238D01*
X110154761Y-41500000D01*
X110297619Y-41452380D01*
X110392857Y-41452380D01*
X110535714Y-41500000D01*
X110583333Y-41547619D01*
X110964285Y-41547619D02*
X111011904Y-41500000D01*
X111107142Y-41452380D01*
X111345238Y-41452380D01*
X111440476Y-41500000D01*
X111488095Y-41547619D01*
X111535714Y-41642857D01*
X111535714Y-41738095D01*
X111488095Y-41880952D01*
X110916666Y-42452380D01*
X111535714Y-42452380D01*
%TO.C,R3*%
X113333333Y-33452380D02*
X113000000Y-32976190D01*
X112761904Y-33452380D02*
X112761904Y-32452380D01*
X113142857Y-32452380D01*
X113238095Y-32500000D01*
X113285714Y-32547619D01*
X113333333Y-32642857D01*
X113333333Y-32785714D01*
X113285714Y-32880952D01*
X113238095Y-32928571D01*
X113142857Y-32976190D01*
X112761904Y-32976190D01*
X113666666Y-32452380D02*
X114285714Y-32452380D01*
X113952380Y-32833333D01*
X114095238Y-32833333D01*
X114190476Y-32880952D01*
X114238095Y-32928571D01*
X114285714Y-33023809D01*
X114285714Y-33261904D01*
X114238095Y-33357142D01*
X114190476Y-33404761D01*
X114095238Y-33452380D01*
X113809523Y-33452380D01*
X113714285Y-33404761D01*
X113666666Y-33357142D01*
%TO.C,C11*%
X98357142Y-48107142D02*
X98309523Y-48154761D01*
X98166666Y-48202380D01*
X98071428Y-48202380D01*
X97928571Y-48154761D01*
X97833333Y-48059523D01*
X97785714Y-47964285D01*
X97738095Y-47773809D01*
X97738095Y-47630952D01*
X97785714Y-47440476D01*
X97833333Y-47345238D01*
X97928571Y-47250000D01*
X98071428Y-47202380D01*
X98166666Y-47202380D01*
X98309523Y-47250000D01*
X98357142Y-47297619D01*
X99309523Y-48202380D02*
X98738095Y-48202380D01*
X99023809Y-48202380D02*
X99023809Y-47202380D01*
X98928571Y-47345238D01*
X98833333Y-47440476D01*
X98738095Y-47488095D01*
X100261904Y-48202380D02*
X99690476Y-48202380D01*
X99976190Y-48202380D02*
X99976190Y-47202380D01*
X99880952Y-47345238D01*
X99785714Y-47440476D01*
X99690476Y-47488095D01*
%TO.C,U2*%
X109452380Y-44761904D02*
X110261904Y-44761904D01*
X110357142Y-44714285D01*
X110404761Y-44666666D01*
X110452380Y-44571428D01*
X110452380Y-44380952D01*
X110404761Y-44285714D01*
X110357142Y-44238095D01*
X110261904Y-44190476D01*
X109452380Y-44190476D01*
X109547619Y-43761904D02*
X109500000Y-43714285D01*
X109452380Y-43619047D01*
X109452380Y-43380952D01*
X109500000Y-43285714D01*
X109547619Y-43238095D01*
X109642857Y-43190476D01*
X109738095Y-43190476D01*
X109880952Y-43238095D01*
X110452380Y-43809523D01*
X110452380Y-43190476D01*
X104652380Y-42200000D02*
X104890476Y-42200000D01*
X104795238Y-42438095D02*
X104890476Y-42200000D01*
X104795238Y-41961904D01*
X105080952Y-42342857D02*
X104890476Y-42200000D01*
X105080952Y-42057142D01*
%TO.C,C7*%
X99633333Y-45057142D02*
X99585714Y-45104761D01*
X99442857Y-45152380D01*
X99347619Y-45152380D01*
X99204761Y-45104761D01*
X99109523Y-45009523D01*
X99061904Y-44914285D01*
X99014285Y-44723809D01*
X99014285Y-44580952D01*
X99061904Y-44390476D01*
X99109523Y-44295238D01*
X99204761Y-44200000D01*
X99347619Y-44152380D01*
X99442857Y-44152380D01*
X99585714Y-44200000D01*
X99633333Y-44247619D01*
X99966666Y-44152380D02*
X100633333Y-44152380D01*
X100204761Y-45152380D01*
%TO.C,Y2*%
X106726190Y-52226190D02*
X107202380Y-52226190D01*
X106202380Y-52559523D02*
X106726190Y-52226190D01*
X106202380Y-51892857D01*
X106297619Y-51607142D02*
X106250000Y-51559523D01*
X106202380Y-51464285D01*
X106202380Y-51226190D01*
X106250000Y-51130952D01*
X106297619Y-51083333D01*
X106392857Y-51035714D01*
X106488095Y-51035714D01*
X106630952Y-51083333D01*
X107202380Y-51654761D01*
X107202380Y-51035714D01*
%TO.C,R14*%
X120107142Y-47952380D02*
X119773809Y-47476190D01*
X119535714Y-47952380D02*
X119535714Y-46952380D01*
X119916666Y-46952380D01*
X120011904Y-47000000D01*
X120059523Y-47047619D01*
X120107142Y-47142857D01*
X120107142Y-47285714D01*
X120059523Y-47380952D01*
X120011904Y-47428571D01*
X119916666Y-47476190D01*
X119535714Y-47476190D01*
X121059523Y-47952380D02*
X120488095Y-47952380D01*
X120773809Y-47952380D02*
X120773809Y-46952380D01*
X120678571Y-47095238D01*
X120583333Y-47190476D01*
X120488095Y-47238095D01*
X121916666Y-47285714D02*
X121916666Y-47952380D01*
X121678571Y-46904761D02*
X121440476Y-47619047D01*
X122059523Y-47619047D01*
%TO.C,J3*%
X113866666Y-31052380D02*
X113866666Y-31766666D01*
X113819047Y-31909523D01*
X113723809Y-32004761D01*
X113580952Y-32052380D01*
X113485714Y-32052380D01*
X114247619Y-31052380D02*
X114866666Y-31052380D01*
X114533333Y-31433333D01*
X114676190Y-31433333D01*
X114771428Y-31480952D01*
X114819047Y-31528571D01*
X114866666Y-31623809D01*
X114866666Y-31861904D01*
X114819047Y-31957142D01*
X114771428Y-32004761D01*
X114676190Y-32052380D01*
X114390476Y-32052380D01*
X114295238Y-32004761D01*
X114247619Y-31957142D01*
%TO.C,SW1*%
X86904761Y-32583333D02*
X86952380Y-32440476D01*
X86952380Y-32202380D01*
X86904761Y-32107142D01*
X86857142Y-32059523D01*
X86761904Y-32011904D01*
X86666666Y-32011904D01*
X86571428Y-32059523D01*
X86523809Y-32107142D01*
X86476190Y-32202380D01*
X86428571Y-32392857D01*
X86380952Y-32488095D01*
X86333333Y-32535714D01*
X86238095Y-32583333D01*
X86142857Y-32583333D01*
X86047619Y-32535714D01*
X86000000Y-32488095D01*
X85952380Y-32392857D01*
X85952380Y-32154761D01*
X86000000Y-32011904D01*
X85952380Y-31678571D02*
X86952380Y-31440476D01*
X86238095Y-31250000D01*
X86952380Y-31059523D01*
X85952380Y-30821428D01*
X86952380Y-29916666D02*
X86952380Y-30488095D01*
X86952380Y-30202380D02*
X85952380Y-30202380D01*
X86095238Y-30297619D01*
X86190476Y-30392857D01*
X86238095Y-30488095D01*
%TO.C,J2*%
X118811666Y-55134880D02*
X118811666Y-55849166D01*
X118764047Y-55992023D01*
X118668809Y-56087261D01*
X118525952Y-56134880D01*
X118430714Y-56134880D01*
X119240238Y-55230119D02*
X119287857Y-55182500D01*
X119383095Y-55134880D01*
X119621190Y-55134880D01*
X119716428Y-55182500D01*
X119764047Y-55230119D01*
X119811666Y-55325357D01*
X119811666Y-55420595D01*
X119764047Y-55563452D01*
X119192619Y-56134880D01*
X119811666Y-56134880D01*
%TO.C,J1*%
X102766666Y-23452380D02*
X102766666Y-24166666D01*
X102719047Y-24309523D01*
X102623809Y-24404761D01*
X102480952Y-24452380D01*
X102385714Y-24452380D01*
X103766666Y-24452380D02*
X103195238Y-24452380D01*
X103480952Y-24452380D02*
X103480952Y-23452380D01*
X103385714Y-23595238D01*
X103290476Y-23690476D01*
X103195238Y-23738095D01*
%TO.C,C32*%
X114357142Y-50442857D02*
X114404761Y-50490476D01*
X114452380Y-50633333D01*
X114452380Y-50728571D01*
X114404761Y-50871428D01*
X114309523Y-50966666D01*
X114214285Y-51014285D01*
X114023809Y-51061904D01*
X113880952Y-51061904D01*
X113690476Y-51014285D01*
X113595238Y-50966666D01*
X113500000Y-50871428D01*
X113452380Y-50728571D01*
X113452380Y-50633333D01*
X113500000Y-50490476D01*
X113547619Y-50442857D01*
X113452380Y-50109523D02*
X113452380Y-49490476D01*
X113833333Y-49823809D01*
X113833333Y-49680952D01*
X113880952Y-49585714D01*
X113928571Y-49538095D01*
X114023809Y-49490476D01*
X114261904Y-49490476D01*
X114357142Y-49538095D01*
X114404761Y-49585714D01*
X114452380Y-49680952D01*
X114452380Y-49966666D01*
X114404761Y-50061904D01*
X114357142Y-50109523D01*
X113547619Y-49109523D02*
X113500000Y-49061904D01*
X113452380Y-48966666D01*
X113452380Y-48728571D01*
X113500000Y-48633333D01*
X113547619Y-48585714D01*
X113642857Y-48538095D01*
X113738095Y-48538095D01*
X113880952Y-48585714D01*
X114452380Y-49157142D01*
X114452380Y-48538095D01*
D11*
%TO.C,C30*%
X108785714Y-26014285D02*
X108823809Y-26052380D01*
X108861904Y-26166666D01*
X108861904Y-26242857D01*
X108823809Y-26357142D01*
X108747619Y-26433333D01*
X108671428Y-26471428D01*
X108519047Y-26509523D01*
X108404761Y-26509523D01*
X108252380Y-26471428D01*
X108176190Y-26433333D01*
X108100000Y-26357142D01*
X108061904Y-26242857D01*
X108061904Y-26166666D01*
X108100000Y-26052380D01*
X108138095Y-26014285D01*
X108061904Y-25747619D02*
X108061904Y-25252380D01*
X108366666Y-25519047D01*
X108366666Y-25404761D01*
X108404761Y-25328571D01*
X108442857Y-25290476D01*
X108519047Y-25252380D01*
X108709523Y-25252380D01*
X108785714Y-25290476D01*
X108823809Y-25328571D01*
X108861904Y-25404761D01*
X108861904Y-25633333D01*
X108823809Y-25709523D01*
X108785714Y-25747619D01*
X108061904Y-24757142D02*
X108061904Y-24680952D01*
X108100000Y-24604761D01*
X108138095Y-24566666D01*
X108214285Y-24528571D01*
X108366666Y-24490476D01*
X108557142Y-24490476D01*
X108709523Y-24528571D01*
X108785714Y-24566666D01*
X108823809Y-24604761D01*
X108861904Y-24680952D01*
X108861904Y-24757142D01*
X108823809Y-24833333D01*
X108785714Y-24871428D01*
X108709523Y-24909523D01*
X108557142Y-24947619D01*
X108366666Y-24947619D01*
X108214285Y-24909523D01*
X108138095Y-24871428D01*
X108100000Y-24833333D01*
X108061904Y-24757142D01*
D10*
%TO.C,C20*%
X103857142Y-54357142D02*
X103809523Y-54404761D01*
X103666666Y-54452380D01*
X103571428Y-54452380D01*
X103428571Y-54404761D01*
X103333333Y-54309523D01*
X103285714Y-54214285D01*
X103238095Y-54023809D01*
X103238095Y-53880952D01*
X103285714Y-53690476D01*
X103333333Y-53595238D01*
X103428571Y-53500000D01*
X103571428Y-53452380D01*
X103666666Y-53452380D01*
X103809523Y-53500000D01*
X103857142Y-53547619D01*
X104238095Y-53547619D02*
X104285714Y-53500000D01*
X104380952Y-53452380D01*
X104619047Y-53452380D01*
X104714285Y-53500000D01*
X104761904Y-53547619D01*
X104809523Y-53642857D01*
X104809523Y-53738095D01*
X104761904Y-53880952D01*
X104190476Y-54452380D01*
X104809523Y-54452380D01*
X105428571Y-53452380D02*
X105523809Y-53452380D01*
X105619047Y-53500000D01*
X105666666Y-53547619D01*
X105714285Y-53642857D01*
X105761904Y-53833333D01*
X105761904Y-54071428D01*
X105714285Y-54261904D01*
X105666666Y-54357142D01*
X105619047Y-54404761D01*
X105523809Y-54452380D01*
X105428571Y-54452380D01*
X105333333Y-54404761D01*
X105285714Y-54357142D01*
X105238095Y-54261904D01*
X105190476Y-54071428D01*
X105190476Y-53833333D01*
X105238095Y-53642857D01*
X105285714Y-53547619D01*
X105333333Y-53500000D01*
X105428571Y-53452380D01*
%TO.C,C4*%
X99107142Y-33966666D02*
X99154761Y-34014285D01*
X99202380Y-34157142D01*
X99202380Y-34252380D01*
X99154761Y-34395238D01*
X99059523Y-34490476D01*
X98964285Y-34538095D01*
X98773809Y-34585714D01*
X98630952Y-34585714D01*
X98440476Y-34538095D01*
X98345238Y-34490476D01*
X98250000Y-34395238D01*
X98202380Y-34252380D01*
X98202380Y-34157142D01*
X98250000Y-34014285D01*
X98297619Y-33966666D01*
X98535714Y-33109523D02*
X99202380Y-33109523D01*
X98154761Y-33347619D02*
X98869047Y-33585714D01*
X98869047Y-32966666D01*
%TO.C,C29*%
X101357142Y-31392857D02*
X101404761Y-31440476D01*
X101452380Y-31583333D01*
X101452380Y-31678571D01*
X101404761Y-31821428D01*
X101309523Y-31916666D01*
X101214285Y-31964285D01*
X101023809Y-32011904D01*
X100880952Y-32011904D01*
X100690476Y-31964285D01*
X100595238Y-31916666D01*
X100500000Y-31821428D01*
X100452380Y-31678571D01*
X100452380Y-31583333D01*
X100500000Y-31440476D01*
X100547619Y-31392857D01*
X100547619Y-31011904D02*
X100500000Y-30964285D01*
X100452380Y-30869047D01*
X100452380Y-30630952D01*
X100500000Y-30535714D01*
X100547619Y-30488095D01*
X100642857Y-30440476D01*
X100738095Y-30440476D01*
X100880952Y-30488095D01*
X101452380Y-31059523D01*
X101452380Y-30440476D01*
X101452380Y-29964285D02*
X101452380Y-29773809D01*
X101404761Y-29678571D01*
X101357142Y-29630952D01*
X101214285Y-29535714D01*
X101023809Y-29488095D01*
X100642857Y-29488095D01*
X100547619Y-29535714D01*
X100500000Y-29583333D01*
X100452380Y-29678571D01*
X100452380Y-29869047D01*
X100500000Y-29964285D01*
X100547619Y-30011904D01*
X100642857Y-30059523D01*
X100880952Y-30059523D01*
X100976190Y-30011904D01*
X101023809Y-29964285D01*
X101071428Y-29869047D01*
X101071428Y-29678571D01*
X101023809Y-29583333D01*
X100976190Y-29535714D01*
X100880952Y-29488095D01*
%TO.C,C17*%
X103957142Y-63542857D02*
X104004761Y-63590476D01*
X104052380Y-63733333D01*
X104052380Y-63828571D01*
X104004761Y-63971428D01*
X103909523Y-64066666D01*
X103814285Y-64114285D01*
X103623809Y-64161904D01*
X103480952Y-64161904D01*
X103290476Y-64114285D01*
X103195238Y-64066666D01*
X103100000Y-63971428D01*
X103052380Y-63828571D01*
X103052380Y-63733333D01*
X103100000Y-63590476D01*
X103147619Y-63542857D01*
X104052380Y-62590476D02*
X104052380Y-63161904D01*
X104052380Y-62876190D02*
X103052380Y-62876190D01*
X103195238Y-62971428D01*
X103290476Y-63066666D01*
X103338095Y-63161904D01*
X103052380Y-62257142D02*
X103052380Y-61590476D01*
X104052380Y-62019047D01*
%TO.C,P1*%
X118061904Y-25852380D02*
X118061904Y-24852380D01*
X118442857Y-24852380D01*
X118538095Y-24900000D01*
X118585714Y-24947619D01*
X118633333Y-25042857D01*
X118633333Y-25185714D01*
X118585714Y-25280952D01*
X118538095Y-25328571D01*
X118442857Y-25376190D01*
X118061904Y-25376190D01*
X119585714Y-25852380D02*
X119014285Y-25852380D01*
X119300000Y-25852380D02*
X119300000Y-24852380D01*
X119204761Y-24995238D01*
X119109523Y-25090476D01*
X119014285Y-25138095D01*
%TO.C,C22*%
X111107142Y-39357142D02*
X111059523Y-39404761D01*
X110916666Y-39452380D01*
X110821428Y-39452380D01*
X110678571Y-39404761D01*
X110583333Y-39309523D01*
X110535714Y-39214285D01*
X110488095Y-39023809D01*
X110488095Y-38880952D01*
X110535714Y-38690476D01*
X110583333Y-38595238D01*
X110678571Y-38500000D01*
X110821428Y-38452380D01*
X110916666Y-38452380D01*
X111059523Y-38500000D01*
X111107142Y-38547619D01*
X111488095Y-38547619D02*
X111535714Y-38500000D01*
X111630952Y-38452380D01*
X111869047Y-38452380D01*
X111964285Y-38500000D01*
X112011904Y-38547619D01*
X112059523Y-38642857D01*
X112059523Y-38738095D01*
X112011904Y-38880952D01*
X111440476Y-39452380D01*
X112059523Y-39452380D01*
X112440476Y-38547619D02*
X112488095Y-38500000D01*
X112583333Y-38452380D01*
X112821428Y-38452380D01*
X112916666Y-38500000D01*
X112964285Y-38547619D01*
X113011904Y-38642857D01*
X113011904Y-38738095D01*
X112964285Y-38880952D01*
X112392857Y-39452380D01*
X113011904Y-39452380D01*
%TO.C,C19*%
X99857142Y-51107142D02*
X99809523Y-51154761D01*
X99666666Y-51202380D01*
X99571428Y-51202380D01*
X99428571Y-51154761D01*
X99333333Y-51059523D01*
X99285714Y-50964285D01*
X99238095Y-50773809D01*
X99238095Y-50630952D01*
X99285714Y-50440476D01*
X99333333Y-50345238D01*
X99428571Y-50250000D01*
X99571428Y-50202380D01*
X99666666Y-50202380D01*
X99809523Y-50250000D01*
X99857142Y-50297619D01*
X100809523Y-51202380D02*
X100238095Y-51202380D01*
X100523809Y-51202380D02*
X100523809Y-50202380D01*
X100428571Y-50345238D01*
X100333333Y-50440476D01*
X100238095Y-50488095D01*
X101285714Y-51202380D02*
X101476190Y-51202380D01*
X101571428Y-51154761D01*
X101619047Y-51107142D01*
X101714285Y-50964285D01*
X101761904Y-50773809D01*
X101761904Y-50392857D01*
X101714285Y-50297619D01*
X101666666Y-50250000D01*
X101571428Y-50202380D01*
X101380952Y-50202380D01*
X101285714Y-50250000D01*
X101238095Y-50297619D01*
X101190476Y-50392857D01*
X101190476Y-50630952D01*
X101238095Y-50726190D01*
X101285714Y-50773809D01*
X101380952Y-50821428D01*
X101571428Y-50821428D01*
X101666666Y-50773809D01*
X101714285Y-50726190D01*
X101761904Y-50630952D01*
%TO.C,C12*%
X99857142Y-58607142D02*
X99809523Y-58654761D01*
X99666666Y-58702380D01*
X99571428Y-58702380D01*
X99428571Y-58654761D01*
X99333333Y-58559523D01*
X99285714Y-58464285D01*
X99238095Y-58273809D01*
X99238095Y-58130952D01*
X99285714Y-57940476D01*
X99333333Y-57845238D01*
X99428571Y-57750000D01*
X99571428Y-57702380D01*
X99666666Y-57702380D01*
X99809523Y-57750000D01*
X99857142Y-57797619D01*
X100809523Y-58702380D02*
X100238095Y-58702380D01*
X100523809Y-58702380D02*
X100523809Y-57702380D01*
X100428571Y-57845238D01*
X100333333Y-57940476D01*
X100238095Y-57988095D01*
X101190476Y-57797619D02*
X101238095Y-57750000D01*
X101333333Y-57702380D01*
X101571428Y-57702380D01*
X101666666Y-57750000D01*
X101714285Y-57797619D01*
X101761904Y-57892857D01*
X101761904Y-57988095D01*
X101714285Y-58130952D01*
X101142857Y-58702380D01*
X101761904Y-58702380D01*
%TO.C,C27*%
X98107142Y-31642857D02*
X98154761Y-31690476D01*
X98202380Y-31833333D01*
X98202380Y-31928571D01*
X98154761Y-32071428D01*
X98059523Y-32166666D01*
X97964285Y-32214285D01*
X97773809Y-32261904D01*
X97630952Y-32261904D01*
X97440476Y-32214285D01*
X97345238Y-32166666D01*
X97250000Y-32071428D01*
X97202380Y-31928571D01*
X97202380Y-31833333D01*
X97250000Y-31690476D01*
X97297619Y-31642857D01*
X97297619Y-31261904D02*
X97250000Y-31214285D01*
X97202380Y-31119047D01*
X97202380Y-30880952D01*
X97250000Y-30785714D01*
X97297619Y-30738095D01*
X97392857Y-30690476D01*
X97488095Y-30690476D01*
X97630952Y-30738095D01*
X98202380Y-31309523D01*
X98202380Y-30690476D01*
X97202380Y-30357142D02*
X97202380Y-29690476D01*
X98202380Y-30119047D01*
%TO.C,R1*%
X119055380Y-52005666D02*
X118579190Y-52339000D01*
X119055380Y-52577095D02*
X118055380Y-52577095D01*
X118055380Y-52196142D01*
X118103000Y-52100904D01*
X118150619Y-52053285D01*
X118245857Y-52005666D01*
X118388714Y-52005666D01*
X118483952Y-52053285D01*
X118531571Y-52100904D01*
X118579190Y-52196142D01*
X118579190Y-52577095D01*
X119055380Y-51053285D02*
X119055380Y-51624714D01*
X119055380Y-51339000D02*
X118055380Y-51339000D01*
X118198238Y-51434238D01*
X118293476Y-51529476D01*
X118341095Y-51624714D01*
%TO.C,C21*%
X99857142Y-57357142D02*
X99809523Y-57404761D01*
X99666666Y-57452380D01*
X99571428Y-57452380D01*
X99428571Y-57404761D01*
X99333333Y-57309523D01*
X99285714Y-57214285D01*
X99238095Y-57023809D01*
X99238095Y-56880952D01*
X99285714Y-56690476D01*
X99333333Y-56595238D01*
X99428571Y-56500000D01*
X99571428Y-56452380D01*
X99666666Y-56452380D01*
X99809523Y-56500000D01*
X99857142Y-56547619D01*
X100238095Y-56547619D02*
X100285714Y-56500000D01*
X100380952Y-56452380D01*
X100619047Y-56452380D01*
X100714285Y-56500000D01*
X100761904Y-56547619D01*
X100809523Y-56642857D01*
X100809523Y-56738095D01*
X100761904Y-56880952D01*
X100190476Y-57452380D01*
X100809523Y-57452380D01*
X101761904Y-57452380D02*
X101190476Y-57452380D01*
X101476190Y-57452380D02*
X101476190Y-56452380D01*
X101380952Y-56595238D01*
X101285714Y-56690476D01*
X101190476Y-56738095D01*
%TO.C,D3*%
X85202380Y-47488095D02*
X84202380Y-47488095D01*
X84202380Y-47250000D01*
X84250000Y-47107142D01*
X84345238Y-47011904D01*
X84440476Y-46964285D01*
X84630952Y-46916666D01*
X84773809Y-46916666D01*
X84964285Y-46964285D01*
X85059523Y-47011904D01*
X85154761Y-47107142D01*
X85202380Y-47250000D01*
X85202380Y-47488095D01*
X84202380Y-46583333D02*
X84202380Y-45964285D01*
X84583333Y-46297619D01*
X84583333Y-46154761D01*
X84630952Y-46059523D01*
X84678571Y-46011904D01*
X84773809Y-45964285D01*
X85011904Y-45964285D01*
X85107142Y-46011904D01*
X85154761Y-46059523D01*
X85202380Y-46154761D01*
X85202380Y-46440476D01*
X85154761Y-46535714D01*
X85107142Y-46583333D01*
%TO.C,C16*%
X104107142Y-60892857D02*
X104154761Y-60940476D01*
X104202380Y-61083333D01*
X104202380Y-61178571D01*
X104154761Y-61321428D01*
X104059523Y-61416666D01*
X103964285Y-61464285D01*
X103773809Y-61511904D01*
X103630952Y-61511904D01*
X103440476Y-61464285D01*
X103345238Y-61416666D01*
X103250000Y-61321428D01*
X103202380Y-61178571D01*
X103202380Y-61083333D01*
X103250000Y-60940476D01*
X103297619Y-60892857D01*
X104202380Y-59940476D02*
X104202380Y-60511904D01*
X104202380Y-60226190D02*
X103202380Y-60226190D01*
X103345238Y-60321428D01*
X103440476Y-60416666D01*
X103488095Y-60511904D01*
X103202380Y-59083333D02*
X103202380Y-59273809D01*
X103250000Y-59369047D01*
X103297619Y-59416666D01*
X103440476Y-59511904D01*
X103630952Y-59559523D01*
X104011904Y-59559523D01*
X104107142Y-59511904D01*
X104154761Y-59464285D01*
X104202380Y-59369047D01*
X104202380Y-59178571D01*
X104154761Y-59083333D01*
X104107142Y-59035714D01*
X104011904Y-58988095D01*
X103773809Y-58988095D01*
X103678571Y-59035714D01*
X103630952Y-59083333D01*
X103583333Y-59178571D01*
X103583333Y-59369047D01*
X103630952Y-59464285D01*
X103678571Y-59511904D01*
X103773809Y-59559523D01*
%TO.C,C9*%
X112357142Y-52666666D02*
X112404761Y-52714285D01*
X112452380Y-52857142D01*
X112452380Y-52952380D01*
X112404761Y-53095238D01*
X112309523Y-53190476D01*
X112214285Y-53238095D01*
X112023809Y-53285714D01*
X111880952Y-53285714D01*
X111690476Y-53238095D01*
X111595238Y-53190476D01*
X111500000Y-53095238D01*
X111452380Y-52952380D01*
X111452380Y-52857142D01*
X111500000Y-52714285D01*
X111547619Y-52666666D01*
X112452380Y-52190476D02*
X112452380Y-52000000D01*
X112404761Y-51904761D01*
X112357142Y-51857142D01*
X112214285Y-51761904D01*
X112023809Y-51714285D01*
X111642857Y-51714285D01*
X111547619Y-51761904D01*
X111500000Y-51809523D01*
X111452380Y-51904761D01*
X111452380Y-52095238D01*
X111500000Y-52190476D01*
X111547619Y-52238095D01*
X111642857Y-52285714D01*
X111880952Y-52285714D01*
X111976190Y-52238095D01*
X112023809Y-52190476D01*
X112071428Y-52095238D01*
X112071428Y-51904761D01*
X112023809Y-51809523D01*
X111976190Y-51761904D01*
X111880952Y-51714285D01*
%TO.C,R20*%
X107857142Y-23652380D02*
X107523809Y-23176190D01*
X107285714Y-23652380D02*
X107285714Y-22652380D01*
X107666666Y-22652380D01*
X107761904Y-22700000D01*
X107809523Y-22747619D01*
X107857142Y-22842857D01*
X107857142Y-22985714D01*
X107809523Y-23080952D01*
X107761904Y-23128571D01*
X107666666Y-23176190D01*
X107285714Y-23176190D01*
X108238095Y-22747619D02*
X108285714Y-22700000D01*
X108380952Y-22652380D01*
X108619047Y-22652380D01*
X108714285Y-22700000D01*
X108761904Y-22747619D01*
X108809523Y-22842857D01*
X108809523Y-22938095D01*
X108761904Y-23080952D01*
X108190476Y-23652380D01*
X108809523Y-23652380D01*
X109428571Y-22652380D02*
X109523809Y-22652380D01*
X109619047Y-22700000D01*
X109666666Y-22747619D01*
X109714285Y-22842857D01*
X109761904Y-23033333D01*
X109761904Y-23271428D01*
X109714285Y-23461904D01*
X109666666Y-23557142D01*
X109619047Y-23604761D01*
X109523809Y-23652380D01*
X109428571Y-23652380D01*
X109333333Y-23604761D01*
X109285714Y-23557142D01*
X109238095Y-23461904D01*
X109190476Y-23271428D01*
X109190476Y-23033333D01*
X109238095Y-22842857D01*
X109285714Y-22747619D01*
X109333333Y-22700000D01*
X109428571Y-22652380D01*
%TO.C,C10*%
X112457142Y-50542857D02*
X112504761Y-50590476D01*
X112552380Y-50733333D01*
X112552380Y-50828571D01*
X112504761Y-50971428D01*
X112409523Y-51066666D01*
X112314285Y-51114285D01*
X112123809Y-51161904D01*
X111980952Y-51161904D01*
X111790476Y-51114285D01*
X111695238Y-51066666D01*
X111600000Y-50971428D01*
X111552380Y-50828571D01*
X111552380Y-50733333D01*
X111600000Y-50590476D01*
X111647619Y-50542857D01*
X112552380Y-49590476D02*
X112552380Y-50161904D01*
X112552380Y-49876190D02*
X111552380Y-49876190D01*
X111695238Y-49971428D01*
X111790476Y-50066666D01*
X111838095Y-50161904D01*
X111552380Y-48971428D02*
X111552380Y-48876190D01*
X111600000Y-48780952D01*
X111647619Y-48733333D01*
X111742857Y-48685714D01*
X111933333Y-48638095D01*
X112171428Y-48638095D01*
X112361904Y-48685714D01*
X112457142Y-48733333D01*
X112504761Y-48780952D01*
X112552380Y-48876190D01*
X112552380Y-48971428D01*
X112504761Y-49066666D01*
X112457142Y-49114285D01*
X112361904Y-49161904D01*
X112171428Y-49209523D01*
X111933333Y-49209523D01*
X111742857Y-49161904D01*
X111647619Y-49114285D01*
X111600000Y-49066666D01*
X111552380Y-48971428D01*
%TO.C,L6*%
X101452380Y-62166666D02*
X101452380Y-62642857D01*
X100452380Y-62642857D01*
X100452380Y-61404761D02*
X100452380Y-61595238D01*
X100500000Y-61690476D01*
X100547619Y-61738095D01*
X100690476Y-61833333D01*
X100880952Y-61880952D01*
X101261904Y-61880952D01*
X101357142Y-61833333D01*
X101404761Y-61785714D01*
X101452380Y-61690476D01*
X101452380Y-61500000D01*
X101404761Y-61404761D01*
X101357142Y-61357142D01*
X101261904Y-61309523D01*
X101023809Y-61309523D01*
X100928571Y-61357142D01*
X100880952Y-61404761D01*
X100833333Y-61500000D01*
X100833333Y-61690476D01*
X100880952Y-61785714D01*
X100928571Y-61833333D01*
X101023809Y-61880952D01*
%TO.C,C23*%
X107107142Y-49892857D02*
X107154761Y-49940476D01*
X107202380Y-50083333D01*
X107202380Y-50178571D01*
X107154761Y-50321428D01*
X107059523Y-50416666D01*
X106964285Y-50464285D01*
X106773809Y-50511904D01*
X106630952Y-50511904D01*
X106440476Y-50464285D01*
X106345238Y-50416666D01*
X106250000Y-50321428D01*
X106202380Y-50178571D01*
X106202380Y-50083333D01*
X106250000Y-49940476D01*
X106297619Y-49892857D01*
X106297619Y-49511904D02*
X106250000Y-49464285D01*
X106202380Y-49369047D01*
X106202380Y-49130952D01*
X106250000Y-49035714D01*
X106297619Y-48988095D01*
X106392857Y-48940476D01*
X106488095Y-48940476D01*
X106630952Y-48988095D01*
X107202380Y-49559523D01*
X107202380Y-48940476D01*
X106202380Y-48607142D02*
X106202380Y-47988095D01*
X106583333Y-48321428D01*
X106583333Y-48178571D01*
X106630952Y-48083333D01*
X106678571Y-48035714D01*
X106773809Y-47988095D01*
X107011904Y-47988095D01*
X107107142Y-48035714D01*
X107154761Y-48083333D01*
X107202380Y-48178571D01*
X107202380Y-48464285D01*
X107154761Y-48559523D01*
X107107142Y-48607142D01*
%TO.C,R13*%
X116357142Y-56702380D02*
X116023809Y-56226190D01*
X115785714Y-56702380D02*
X115785714Y-55702380D01*
X116166666Y-55702380D01*
X116261904Y-55750000D01*
X116309523Y-55797619D01*
X116357142Y-55892857D01*
X116357142Y-56035714D01*
X116309523Y-56130952D01*
X116261904Y-56178571D01*
X116166666Y-56226190D01*
X115785714Y-56226190D01*
X117309523Y-56702380D02*
X116738095Y-56702380D01*
X117023809Y-56702380D02*
X117023809Y-55702380D01*
X116928571Y-55845238D01*
X116833333Y-55940476D01*
X116738095Y-55988095D01*
X117642857Y-55702380D02*
X118261904Y-55702380D01*
X117928571Y-56083333D01*
X118071428Y-56083333D01*
X118166666Y-56130952D01*
X118214285Y-56178571D01*
X118261904Y-56273809D01*
X118261904Y-56511904D01*
X118214285Y-56607142D01*
X118166666Y-56654761D01*
X118071428Y-56702380D01*
X117785714Y-56702380D01*
X117690476Y-56654761D01*
X117642857Y-56607142D01*
%TO.C,R18*%
X93107142Y-35452380D02*
X92773809Y-34976190D01*
X92535714Y-35452380D02*
X92535714Y-34452380D01*
X92916666Y-34452380D01*
X93011904Y-34500000D01*
X93059523Y-34547619D01*
X93107142Y-34642857D01*
X93107142Y-34785714D01*
X93059523Y-34880952D01*
X93011904Y-34928571D01*
X92916666Y-34976190D01*
X92535714Y-34976190D01*
X94059523Y-35452380D02*
X93488095Y-35452380D01*
X93773809Y-35452380D02*
X93773809Y-34452380D01*
X93678571Y-34595238D01*
X93583333Y-34690476D01*
X93488095Y-34738095D01*
X94630952Y-34880952D02*
X94535714Y-34833333D01*
X94488095Y-34785714D01*
X94440476Y-34690476D01*
X94440476Y-34642857D01*
X94488095Y-34547619D01*
X94535714Y-34500000D01*
X94630952Y-34452380D01*
X94821428Y-34452380D01*
X94916666Y-34500000D01*
X94964285Y-34547619D01*
X95011904Y-34642857D01*
X95011904Y-34690476D01*
X94964285Y-34785714D01*
X94916666Y-34833333D01*
X94821428Y-34880952D01*
X94630952Y-34880952D01*
X94535714Y-34928571D01*
X94488095Y-34976190D01*
X94440476Y-35071428D01*
X94440476Y-35261904D01*
X94488095Y-35357142D01*
X94535714Y-35404761D01*
X94630952Y-35452380D01*
X94821428Y-35452380D01*
X94916666Y-35404761D01*
X94964285Y-35357142D01*
X95011904Y-35261904D01*
X95011904Y-35071428D01*
X94964285Y-34976190D01*
X94916666Y-34928571D01*
X94821428Y-34880952D01*
%TO.C,U3*%
X104238095Y-23652380D02*
X104238095Y-24461904D01*
X104285714Y-24557142D01*
X104333333Y-24604761D01*
X104428571Y-24652380D01*
X104619047Y-24652380D01*
X104714285Y-24604761D01*
X104761904Y-24557142D01*
X104809523Y-24461904D01*
X104809523Y-23652380D01*
X105190476Y-23652380D02*
X105809523Y-23652380D01*
X105476190Y-24033333D01*
X105619047Y-24033333D01*
X105714285Y-24080952D01*
X105761904Y-24128571D01*
X105809523Y-24223809D01*
X105809523Y-24461904D01*
X105761904Y-24557142D01*
X105714285Y-24604761D01*
X105619047Y-24652380D01*
X105333333Y-24652380D01*
X105238095Y-24604761D01*
X105190476Y-24557142D01*
%TO.C,L4*%
X101752380Y-52416666D02*
X101752380Y-52892857D01*
X100752380Y-52892857D01*
X101085714Y-51654761D02*
X101752380Y-51654761D01*
X100704761Y-51892857D02*
X101419047Y-52130952D01*
X101419047Y-51511904D01*
%TO.C,U5*%
X117702380Y-54511904D02*
X118511904Y-54511904D01*
X118607142Y-54464285D01*
X118654761Y-54416666D01*
X118702380Y-54321428D01*
X118702380Y-54130952D01*
X118654761Y-54035714D01*
X118607142Y-53988095D01*
X118511904Y-53940476D01*
X117702380Y-53940476D01*
X117702380Y-52988095D02*
X117702380Y-53464285D01*
X118178571Y-53511904D01*
X118130952Y-53464285D01*
X118083333Y-53369047D01*
X118083333Y-53130952D01*
X118130952Y-53035714D01*
X118178571Y-52988095D01*
X118273809Y-52940476D01*
X118511904Y-52940476D01*
X118607142Y-52988095D01*
X118654761Y-53035714D01*
X118702380Y-53130952D01*
X118702380Y-53369047D01*
X118654761Y-53464285D01*
X118607142Y-53511904D01*
%TO.C,R6*%
X110333333Y-26952380D02*
X110000000Y-26476190D01*
X109761904Y-26952380D02*
X109761904Y-25952380D01*
X110142857Y-25952380D01*
X110238095Y-26000000D01*
X110285714Y-26047619D01*
X110333333Y-26142857D01*
X110333333Y-26285714D01*
X110285714Y-26380952D01*
X110238095Y-26428571D01*
X110142857Y-26476190D01*
X109761904Y-26476190D01*
X111190476Y-25952380D02*
X111000000Y-25952380D01*
X110904761Y-26000000D01*
X110857142Y-26047619D01*
X110761904Y-26190476D01*
X110714285Y-26380952D01*
X110714285Y-26761904D01*
X110761904Y-26857142D01*
X110809523Y-26904761D01*
X110904761Y-26952380D01*
X111095238Y-26952380D01*
X111190476Y-26904761D01*
X111238095Y-26857142D01*
X111285714Y-26761904D01*
X111285714Y-26523809D01*
X111238095Y-26428571D01*
X111190476Y-26380952D01*
X111095238Y-26333333D01*
X110904761Y-26333333D01*
X110809523Y-26380952D01*
X110761904Y-26428571D01*
X110714285Y-26523809D01*
%TO.C,C34*%
X89857142Y-36607142D02*
X89809523Y-36654761D01*
X89666666Y-36702380D01*
X89571428Y-36702380D01*
X89428571Y-36654761D01*
X89333333Y-36559523D01*
X89285714Y-36464285D01*
X89238095Y-36273809D01*
X89238095Y-36130952D01*
X89285714Y-35940476D01*
X89333333Y-35845238D01*
X89428571Y-35750000D01*
X89571428Y-35702380D01*
X89666666Y-35702380D01*
X89809523Y-35750000D01*
X89857142Y-35797619D01*
X90190476Y-35702380D02*
X90809523Y-35702380D01*
X90476190Y-36083333D01*
X90619047Y-36083333D01*
X90714285Y-36130952D01*
X90761904Y-36178571D01*
X90809523Y-36273809D01*
X90809523Y-36511904D01*
X90761904Y-36607142D01*
X90714285Y-36654761D01*
X90619047Y-36702380D01*
X90333333Y-36702380D01*
X90238095Y-36654761D01*
X90190476Y-36607142D01*
X91666666Y-36035714D02*
X91666666Y-36702380D01*
X91428571Y-35654761D02*
X91190476Y-36369047D01*
X91809523Y-36369047D01*
%TO.C,R11*%
X94357142Y-26202380D02*
X94023809Y-25726190D01*
X93785714Y-26202380D02*
X93785714Y-25202380D01*
X94166666Y-25202380D01*
X94261904Y-25250000D01*
X94309523Y-25297619D01*
X94357142Y-25392857D01*
X94357142Y-25535714D01*
X94309523Y-25630952D01*
X94261904Y-25678571D01*
X94166666Y-25726190D01*
X93785714Y-25726190D01*
X95309523Y-26202380D02*
X94738095Y-26202380D01*
X95023809Y-26202380D02*
X95023809Y-25202380D01*
X94928571Y-25345238D01*
X94833333Y-25440476D01*
X94738095Y-25488095D01*
X96261904Y-26202380D02*
X95690476Y-26202380D01*
X95976190Y-26202380D02*
X95976190Y-25202380D01*
X95880952Y-25345238D01*
X95785714Y-25440476D01*
X95690476Y-25488095D01*
%TO.C,D2*%
X84011904Y-42202380D02*
X84011904Y-41202380D01*
X84250000Y-41202380D01*
X84392857Y-41250000D01*
X84488095Y-41345238D01*
X84535714Y-41440476D01*
X84583333Y-41630952D01*
X84583333Y-41773809D01*
X84535714Y-41964285D01*
X84488095Y-42059523D01*
X84392857Y-42154761D01*
X84250000Y-42202380D01*
X84011904Y-42202380D01*
X84964285Y-41297619D02*
X85011904Y-41250000D01*
X85107142Y-41202380D01*
X85345238Y-41202380D01*
X85440476Y-41250000D01*
X85488095Y-41297619D01*
X85535714Y-41392857D01*
X85535714Y-41488095D01*
X85488095Y-41630952D01*
X84916666Y-42202380D01*
X85535714Y-42202380D01*
%TO.C,R5*%
X83702380Y-45916666D02*
X83226190Y-46250000D01*
X83702380Y-46488095D02*
X82702380Y-46488095D01*
X82702380Y-46107142D01*
X82750000Y-46011904D01*
X82797619Y-45964285D01*
X82892857Y-45916666D01*
X83035714Y-45916666D01*
X83130952Y-45964285D01*
X83178571Y-46011904D01*
X83226190Y-46107142D01*
X83226190Y-46488095D01*
X82702380Y-45011904D02*
X82702380Y-45488095D01*
X83178571Y-45535714D01*
X83130952Y-45488095D01*
X83083333Y-45392857D01*
X83083333Y-45154761D01*
X83130952Y-45059523D01*
X83178571Y-45011904D01*
X83273809Y-44964285D01*
X83511904Y-44964285D01*
X83607142Y-45011904D01*
X83654761Y-45059523D01*
X83702380Y-45154761D01*
X83702380Y-45392857D01*
X83654761Y-45488095D01*
X83607142Y-45535714D01*
%TO.C,R16*%
X120107142Y-49202380D02*
X119773809Y-48726190D01*
X119535714Y-49202380D02*
X119535714Y-48202380D01*
X119916666Y-48202380D01*
X120011904Y-48250000D01*
X120059523Y-48297619D01*
X120107142Y-48392857D01*
X120107142Y-48535714D01*
X120059523Y-48630952D01*
X120011904Y-48678571D01*
X119916666Y-48726190D01*
X119535714Y-48726190D01*
X121059523Y-49202380D02*
X120488095Y-49202380D01*
X120773809Y-49202380D02*
X120773809Y-48202380D01*
X120678571Y-48345238D01*
X120583333Y-48440476D01*
X120488095Y-48488095D01*
X121916666Y-48202380D02*
X121726190Y-48202380D01*
X121630952Y-48250000D01*
X121583333Y-48297619D01*
X121488095Y-48440476D01*
X121440476Y-48630952D01*
X121440476Y-49011904D01*
X121488095Y-49107142D01*
X121535714Y-49154761D01*
X121630952Y-49202380D01*
X121821428Y-49202380D01*
X121916666Y-49154761D01*
X121964285Y-49107142D01*
X122011904Y-49011904D01*
X122011904Y-48773809D01*
X121964285Y-48678571D01*
X121916666Y-48630952D01*
X121821428Y-48583333D01*
X121630952Y-48583333D01*
X121535714Y-48630952D01*
X121488095Y-48678571D01*
X121440476Y-48773809D01*
D12*
%TO.C,L3*%
X100366666Y-46861904D02*
X99985714Y-46861904D01*
X99985714Y-46061904D01*
X100557142Y-46061904D02*
X101052380Y-46061904D01*
X100785714Y-46366666D01*
X100900000Y-46366666D01*
X100976190Y-46404761D01*
X101014285Y-46442857D01*
X101052380Y-46519047D01*
X101052380Y-46709523D01*
X101014285Y-46785714D01*
X100976190Y-46823809D01*
X100900000Y-46861904D01*
X100671428Y-46861904D01*
X100595238Y-46823809D01*
X100557142Y-46785714D01*
D10*
%TO.C,FB1*%
X97428571Y-34833333D02*
X97428571Y-35166666D01*
X97952380Y-35166666D02*
X96952380Y-35166666D01*
X96952380Y-34690476D01*
X97428571Y-33976190D02*
X97476190Y-33833333D01*
X97523809Y-33785714D01*
X97619047Y-33738095D01*
X97761904Y-33738095D01*
X97857142Y-33785714D01*
X97904761Y-33833333D01*
X97952380Y-33928571D01*
X97952380Y-34309523D01*
X96952380Y-34309523D01*
X96952380Y-33976190D01*
X97000000Y-33880952D01*
X97047619Y-33833333D01*
X97142857Y-33785714D01*
X97238095Y-33785714D01*
X97333333Y-33833333D01*
X97380952Y-33880952D01*
X97428571Y-33976190D01*
X97428571Y-34309523D01*
X97952380Y-32785714D02*
X97952380Y-33357142D01*
X97952380Y-33071428D02*
X96952380Y-33071428D01*
X97095238Y-33166666D01*
X97190476Y-33261904D01*
X97238095Y-33357142D01*
%TO.C,L7*%
X105325333Y-48452380D02*
X104849142Y-48452380D01*
X104849142Y-47452380D01*
X105563428Y-47452380D02*
X106230095Y-47452380D01*
X105801523Y-48452380D01*
%TO.C,C6*%
X103333333Y-32857142D02*
X103285714Y-32904761D01*
X103142857Y-32952380D01*
X103047619Y-32952380D01*
X102904761Y-32904761D01*
X102809523Y-32809523D01*
X102761904Y-32714285D01*
X102714285Y-32523809D01*
X102714285Y-32380952D01*
X102761904Y-32190476D01*
X102809523Y-32095238D01*
X102904761Y-32000000D01*
X103047619Y-31952380D01*
X103142857Y-31952380D01*
X103285714Y-32000000D01*
X103333333Y-32047619D01*
X104190476Y-31952380D02*
X104000000Y-31952380D01*
X103904761Y-32000000D01*
X103857142Y-32047619D01*
X103761904Y-32190476D01*
X103714285Y-32380952D01*
X103714285Y-32761904D01*
X103761904Y-32857142D01*
X103809523Y-32904761D01*
X103904761Y-32952380D01*
X104095238Y-32952380D01*
X104190476Y-32904761D01*
X104238095Y-32857142D01*
X104285714Y-32761904D01*
X104285714Y-32523809D01*
X104238095Y-32428571D01*
X104190476Y-32380952D01*
X104095238Y-32333333D01*
X103904761Y-32333333D01*
X103809523Y-32380952D01*
X103761904Y-32428571D01*
X103714285Y-32523809D01*
D11*
%TO.C,Y1*%
X97650000Y-46400000D02*
X97650000Y-42400000D01*
X94350000Y-46400000D02*
X97650000Y-46400000D01*
%TO.C,C14*%
X121092164Y-38740000D02*
X121307836Y-38740000D01*
X121092164Y-39460000D02*
X121307836Y-39460000D01*
%TO.C,R10*%
X98480000Y-25353641D02*
X98480000Y-25046359D01*
X97720000Y-25353641D02*
X97720000Y-25046359D01*
%TO.C,C13*%
X121092164Y-40610000D02*
X121307836Y-40610000D01*
X121092164Y-39890000D02*
X121307836Y-39890000D01*
%TO.C,R17*%
X111253641Y-22080000D02*
X110946359Y-22080000D01*
X111253641Y-21320000D02*
X110946359Y-21320000D01*
%TO.C,SW2*%
X83750000Y-26700000D02*
X83750000Y-26250000D01*
X90050000Y-20950000D02*
X90050000Y-20500000D01*
X90050000Y-20500000D02*
X83750000Y-20500000D01*
X90050000Y-22250000D02*
X90050000Y-24950000D01*
X83750000Y-20500000D02*
X83750000Y-20900000D01*
X83750000Y-24950000D02*
X83750000Y-22250000D01*
X90050000Y-26700000D02*
X83750000Y-26700000D01*
X90050000Y-26250000D02*
X90050000Y-26700000D01*
%TO.C,L1*%
X108360000Y-33600000D02*
X108360000Y-36800000D01*
X105640000Y-36800000D02*
X105640000Y-33600000D01*
%TO.C,C26*%
X108910572Y-28107836D02*
X108910572Y-27892164D01*
X109630572Y-28107836D02*
X109630572Y-27892164D01*
%TO.C,R21*%
X113570000Y-54403641D02*
X113570000Y-54096359D01*
X114330000Y-54403641D02*
X114330000Y-54096359D01*
%TO.C,C3*%
X99507836Y-42140000D02*
X99292164Y-42140000D01*
X99507836Y-42860000D02*
X99292164Y-42860000D01*
%TO.C,C8*%
X98840000Y-46092164D02*
X98840000Y-46307836D01*
X99560000Y-46092164D02*
X99560000Y-46307836D01*
%TO.C,C1*%
X110292164Y-45340000D02*
X110507836Y-45340000D01*
X110292164Y-46060000D02*
X110507836Y-46060000D01*
%TO.C,R2*%
X99720000Y-39453641D02*
X99720000Y-39146359D01*
X100480000Y-39453641D02*
X100480000Y-39146359D01*
%TO.C,C33*%
X93457164Y-32135000D02*
X93672836Y-32135000D01*
X93457164Y-32855000D02*
X93672836Y-32855000D01*
%TO.C,R15*%
X120797641Y-42467000D02*
X120490359Y-42467000D01*
X120797641Y-41707000D02*
X120490359Y-41707000D01*
%TO.C,D4*%
X113460000Y-24650000D02*
X113460000Y-22650000D01*
X110340000Y-23350000D02*
X110340000Y-24650000D01*
%TO.C,R4*%
X82720000Y-39453641D02*
X82720000Y-39146359D01*
X83480000Y-39453641D02*
X83480000Y-39146359D01*
%TO.C,C24*%
X92592164Y-24540000D02*
X92807836Y-24540000D01*
X92592164Y-25260000D02*
X92807836Y-25260000D01*
%TO.C,R12*%
X97553641Y-23980000D02*
X97246359Y-23980000D01*
X97553641Y-23220000D02*
X97246359Y-23220000D01*
D14*
%TO.C,D1*%
X121347000Y-53840000D02*
G75*
G03*
X121347000Y-53840000I-50000J0D01*
G01*
D11*
%TO.C,C18*%
X103460000Y-49012164D02*
X103460000Y-49227836D01*
X102740000Y-49012164D02*
X102740000Y-49227836D01*
%TO.C,U4*%
X113571100Y-42859740D02*
X113571100Y-43528900D01*
X114240260Y-38271100D02*
X113571100Y-38271100D01*
X118828900Y-38940260D02*
X118828900Y-38271100D01*
X118828900Y-38271100D02*
X118159740Y-38271100D01*
X113571100Y-38271100D02*
X113571100Y-38940260D01*
X113571100Y-43528900D02*
X114240260Y-43528900D01*
X118828900Y-43528900D02*
X118828900Y-42859740D01*
X118159740Y-43528900D02*
X118828900Y-43528900D01*
G36*
X113139300Y-42090501D02*
G01*
X112885300Y-42090501D01*
X112885300Y-41709501D01*
X113139300Y-41709501D01*
X113139300Y-42090501D01*
G37*
D14*
X113139300Y-42090501D02*
X112885300Y-42090501D01*
X112885300Y-41709501D01*
X113139300Y-41709501D01*
X113139300Y-42090501D01*
G36*
X116890499Y-37839300D02*
G01*
X116509499Y-37839300D01*
X116509499Y-37585300D01*
X116890499Y-37585300D01*
X116890499Y-37839300D01*
G37*
X116890499Y-37839300D02*
X116509499Y-37839300D01*
X116509499Y-37585300D01*
X116890499Y-37585300D01*
X116890499Y-37839300D01*
D11*
%TO.C,R19*%
X118153641Y-36620000D02*
X117846359Y-36620000D01*
X118153641Y-37380000D02*
X117846359Y-37380000D01*
%TO.C,U1*%
X93254500Y-43028927D02*
X93254500Y-39599575D01*
X86650500Y-39599573D02*
X86650500Y-43028925D01*
X86650500Y-41619050D02*
G75*
G03*
X86650500Y-41009450I0J304800D01*
G01*
G36*
X93067998Y-45479850D02*
G01*
X92686998Y-45479850D01*
X92686998Y-45225850D01*
X93067998Y-45225850D01*
X93067998Y-45479850D01*
G37*
D14*
X93067998Y-45479850D02*
X92686998Y-45479850D01*
X92686998Y-45225850D01*
X93067998Y-45225850D01*
X93067998Y-45479850D01*
G36*
X87218002Y-37402650D02*
G01*
X86837002Y-37402650D01*
X86837002Y-37148650D01*
X87218002Y-37148650D01*
X87218002Y-37402650D01*
G37*
X87218002Y-37402650D02*
X86837002Y-37402650D01*
X86837002Y-37148650D01*
X87218002Y-37148650D01*
X87218002Y-37402650D01*
D11*
%TO.C,U6*%
X88136001Y-32672929D02*
X88136001Y-33278999D01*
X91793999Y-33278999D02*
X91793999Y-32672929D01*
X88742259Y-29621001D02*
X88136001Y-29621001D01*
X91793999Y-30227071D02*
X91793999Y-29621001D01*
X91793999Y-29621001D02*
X91187741Y-29621001D01*
X91187741Y-33278999D02*
X91793999Y-33278999D01*
X88136001Y-33278999D02*
X88742259Y-33278999D01*
X88136001Y-29621001D02*
X88136001Y-30227071D01*
G36*
X89905501Y-33857999D02*
G01*
X89524500Y-33857999D01*
X89524500Y-33603999D01*
X89905501Y-33603999D01*
X89905501Y-33857999D01*
G37*
D14*
X89905501Y-33857999D02*
X89524500Y-33857999D01*
X89524500Y-33603999D01*
X89905501Y-33603999D01*
X89905501Y-33857999D01*
D11*
%TO.C,C5*%
X104560000Y-37157836D02*
X104560000Y-36942164D01*
X103840000Y-37157836D02*
X103840000Y-36942164D01*
%TO.C,C28*%
X98860572Y-27959420D02*
X98860572Y-28240580D01*
X99880572Y-27959420D02*
X99880572Y-28240580D01*
%TO.C,C31*%
X90412164Y-28140000D02*
X90627836Y-28140000D01*
X90412164Y-28860000D02*
X90627836Y-28860000D01*
%TO.C,C25*%
X108430572Y-28107836D02*
X108430572Y-27892164D01*
X107710572Y-28107836D02*
X107710572Y-27892164D01*
%TO.C,C15*%
X99260000Y-39192164D02*
X99260000Y-39407836D01*
X98540000Y-39192164D02*
X98540000Y-39407836D01*
%TO.C,C2*%
X110692164Y-41160000D02*
X110907836Y-41160000D01*
X110692164Y-40440000D02*
X110907836Y-40440000D01*
%TO.C,R3*%
X113746359Y-34580000D02*
X114053641Y-34580000D01*
X113746359Y-33820000D02*
X114053641Y-33820000D01*
%TO.C,C11*%
X101198164Y-47980000D02*
X101413836Y-47980000D01*
X101198164Y-47260000D02*
X101413836Y-47260000D01*
%TO.C,U2*%
X108924999Y-45924999D02*
X108624999Y-45924999D01*
X108924999Y-45924999D02*
X108924999Y-45624999D01*
X108924999Y-38775001D02*
X108924999Y-38475001D01*
X108924999Y-38475001D02*
X108624999Y-38475001D01*
X101475001Y-38775001D02*
X101475001Y-38475001D01*
X102050001Y-45924999D02*
X101475001Y-45924999D01*
X101775001Y-38475001D02*
X101475001Y-38475001D01*
X101475001Y-45924999D02*
X101475001Y-45349999D01*
%TO.C,C7*%
X99507836Y-43960000D02*
X99292164Y-43960000D01*
X99507836Y-43240000D02*
X99292164Y-43240000D01*
%TO.C,Y2*%
X109375000Y-50425000D02*
X109375000Y-51775000D01*
X107625000Y-50425000D02*
X107625000Y-51775000D01*
%TO.C,R14*%
X120797641Y-43610000D02*
X120490359Y-43610000D01*
X120797641Y-42850000D02*
X120490359Y-42850000D01*
%TO.C,J3*%
X115790000Y-35255000D02*
X115790000Y-34125000D01*
X117310000Y-33561529D02*
X117310000Y-33418471D01*
X122325000Y-32547470D02*
X122325000Y-31725000D01*
X117256529Y-33365000D02*
X117113471Y-33365000D01*
X115855000Y-31725000D02*
X122325000Y-31725000D01*
X115986529Y-33365000D02*
X115855000Y-33365000D01*
X117310000Y-35255000D02*
X122325000Y-35255000D01*
X122325000Y-35255000D02*
X122325000Y-34432530D01*
X115855000Y-32547470D02*
X115855000Y-31725000D01*
X115855000Y-33365000D02*
X115855000Y-33162530D01*
X116550000Y-35255000D02*
X115790000Y-35255000D01*
X122325000Y-33817470D02*
X122325000Y-33162530D01*
X117310000Y-35255000D02*
X117310000Y-34688471D01*
%TO.C,SW1*%
X85237000Y-34831000D02*
X85237000Y-36161000D01*
X85237000Y-28421000D02*
X82577000Y-28421000D01*
X85237000Y-36161000D02*
X83907000Y-36161000D01*
X85237000Y-33561000D02*
X85237000Y-28421000D01*
X82577000Y-33561000D02*
X82577000Y-28421000D01*
X85237000Y-33561000D02*
X82577000Y-33561000D01*
%TO.C,J2*%
X120505000Y-57532500D02*
X120505000Y-60232500D01*
X117785000Y-57482500D02*
X117785000Y-58122500D01*
X117785000Y-58122500D02*
X117155000Y-58122500D01*
X117785000Y-60282500D02*
X117785000Y-59642500D01*
%TO.C,J1*%
X105300000Y-20355000D02*
X106570000Y-20355000D01*
X106570000Y-20355000D02*
X106570000Y-21625000D01*
%TO.C,C32*%
X113540000Y-52192164D02*
X113540000Y-52407836D01*
X114260000Y-52192164D02*
X114260000Y-52407836D01*
%TO.C,C30*%
X107660000Y-25307836D02*
X107660000Y-25092164D01*
X106940000Y-25307836D02*
X106940000Y-25092164D01*
%TO.C,C20*%
X102107836Y-53460000D02*
X101892164Y-53460000D01*
X102107836Y-54180000D02*
X101892164Y-54180000D01*
%TO.C,C4*%
X102290000Y-36740580D02*
X102290000Y-36459420D01*
X103310000Y-36740580D02*
X103310000Y-36459420D01*
%TO.C,C29*%
X101060000Y-28092164D02*
X101060000Y-28307836D01*
X100340000Y-28092164D02*
X100340000Y-28307836D01*
%TO.C,C17*%
X102065000Y-63944664D02*
X102065000Y-64160336D01*
X102785000Y-63944664D02*
X102785000Y-64160336D01*
%TO.C,P1*%
X116950000Y-29980000D02*
X118870000Y-29980000D01*
X118870000Y-20820000D02*
X116950000Y-20820000D01*
X120880000Y-20820000D02*
X122585000Y-20820000D01*
X122585000Y-20820000D02*
X122585000Y-29980000D01*
X122585000Y-29980000D02*
X120880000Y-29980000D01*
%TO.C,C22*%
X110360000Y-39307836D02*
X110360000Y-39092164D01*
X109640000Y-39307836D02*
X109640000Y-39092164D01*
%TO.C,C19*%
X102892164Y-50360000D02*
X103107836Y-50360000D01*
X102892164Y-51080000D02*
X103107836Y-51080000D01*
%TO.C,C12*%
X103007836Y-58642500D02*
X102792164Y-58642500D01*
X103007836Y-57922500D02*
X102792164Y-57922500D01*
%TO.C,C27*%
X98133072Y-28291580D02*
X98133072Y-28010420D01*
X97113072Y-28291580D02*
X97113072Y-28010420D01*
%TO.C,R1*%
X120153000Y-51992641D02*
X120153000Y-51685359D01*
X119393000Y-51992641D02*
X119393000Y-51685359D01*
%TO.C,C21*%
X102792164Y-56640000D02*
X103007836Y-56640000D01*
X102792164Y-57360000D02*
X103007836Y-57360000D01*
D14*
%TO.C,D3*%
X84474000Y-45708000D02*
G75*
G03*
X84474000Y-45708000I-50000J0D01*
G01*
D11*
%TO.C,C16*%
X102760000Y-60040336D02*
X102760000Y-59824664D01*
X102040000Y-60040336D02*
X102040000Y-59824664D01*
%TO.C,C9*%
X111160000Y-52207836D02*
X111160000Y-51992164D01*
X110440000Y-52207836D02*
X110440000Y-51992164D01*
%TO.C,R20*%
X108753641Y-21320000D02*
X108446359Y-21320000D01*
X108753641Y-22080000D02*
X108446359Y-22080000D01*
%TO.C,C10*%
X110440000Y-49992164D02*
X110440000Y-50207836D01*
X111160000Y-49992164D02*
X111160000Y-50207836D01*
%TO.C,C23*%
X103940000Y-49012164D02*
X103940000Y-49227836D01*
X104660000Y-49012164D02*
X104660000Y-49227836D01*
%TO.C,R13*%
X114296359Y-56630000D02*
X114603641Y-56630000D01*
X114296359Y-55870000D02*
X114603641Y-55870000D01*
%TO.C,R18*%
X93446359Y-33980000D02*
X93753641Y-33980000D01*
X93446359Y-33220000D02*
X93753641Y-33220000D01*
%TO.C,U3*%
X103289980Y-24925000D02*
X102825001Y-24925000D01*
X102825001Y-29075000D02*
X103289980Y-29075000D01*
X105974999Y-24925000D02*
X105510020Y-24925000D01*
X105510020Y-29075000D02*
X105974999Y-29075000D01*
G36*
X106990998Y-27690499D02*
G01*
X106736998Y-27690499D01*
X106736998Y-27309499D01*
X106990998Y-27309499D01*
X106990998Y-27690499D01*
G37*
D14*
X106990998Y-27690499D02*
X106736998Y-27690499D01*
X106736998Y-27309499D01*
X106990998Y-27309499D01*
X106990998Y-27690499D01*
D11*
%TO.C,U5*%
X114818900Y-52517953D02*
X114818900Y-53206565D01*
X114818900Y-53593435D02*
X114818900Y-54282047D01*
X117181100Y-54282047D02*
X117181100Y-53593435D01*
X117181100Y-53206565D02*
X117181100Y-52517953D01*
%TO.C,R6*%
X112246359Y-27180000D02*
X112553641Y-27180000D01*
X112246359Y-26420000D02*
X112553641Y-26420000D01*
%TO.C,C34*%
X89507836Y-34040000D02*
X89292164Y-34040000D01*
X89507836Y-34760000D02*
X89292164Y-34760000D01*
%TO.C,R11*%
X96520000Y-25353641D02*
X96520000Y-25046359D01*
X97280000Y-25353641D02*
X97280000Y-25046359D01*
D14*
%TO.C,D2*%
X84577000Y-41094000D02*
G75*
G03*
X84577000Y-41094000I-50000J0D01*
G01*
D11*
%TO.C,R5*%
X83280000Y-43743641D02*
X83280000Y-43436359D01*
X82520000Y-43743641D02*
X82520000Y-43436359D01*
%TO.C,R16*%
X120835641Y-44084000D02*
X120528359Y-44084000D01*
X120835641Y-44844000D02*
X120528359Y-44844000D01*
%TO.C,FB1*%
X100577500Y-36362742D02*
X100577500Y-36837258D01*
X101622500Y-36362742D02*
X101622500Y-36837258D01*
%TO.C,C6*%
X103740580Y-33590000D02*
X103459420Y-33590000D01*
X103740580Y-34610000D02*
X103459420Y-34610000D01*
%TO.C,J4*%
X81176500Y-26184600D02*
G75*
G03*
X81176500Y-26184600I-381000J0D01*
G01*
%TD*%
%LPC*%
%TO.C,U6*%
G36*
X90878500Y-30856300D02*
G01*
X89051500Y-30856300D01*
X89051500Y-30536500D01*
X90878500Y-30536500D01*
X90878500Y-30856300D01*
G37*
D14*
X90878500Y-30856300D02*
X89051500Y-30856300D01*
X89051500Y-30536500D01*
X90878500Y-30536500D01*
X90878500Y-30856300D01*
G36*
X89371300Y-32363500D02*
G01*
X89051500Y-32363500D01*
X89051500Y-30536500D01*
X89371300Y-30536500D01*
X89371300Y-32363500D01*
G37*
X89371300Y-32363500D02*
X89051500Y-32363500D01*
X89051500Y-30536500D01*
X89371300Y-30536500D01*
X89371300Y-32363500D01*
G36*
X89924596Y-33419595D02*
G01*
X89505405Y-33419595D01*
X89505405Y-32430404D01*
X89924596Y-32430404D01*
X89924596Y-33419595D01*
G37*
X89924596Y-33419595D02*
X89505405Y-33419595D01*
X89505405Y-32430404D01*
X89924596Y-32430404D01*
X89924596Y-33419595D01*
G36*
X90158700Y-32363500D02*
G01*
X89771300Y-32363500D01*
X89771300Y-30536500D01*
X90158700Y-30536500D01*
X90158700Y-32363500D01*
G37*
X90158700Y-32363500D02*
X89771300Y-32363500D01*
X89771300Y-30536500D01*
X90158700Y-30536500D01*
X90158700Y-32363500D01*
G36*
X88984596Y-31409533D02*
G01*
X87995405Y-31409533D01*
X87995405Y-30990341D01*
X88984596Y-30990341D01*
X88984596Y-31409533D01*
G37*
X88984596Y-31409533D02*
X87995405Y-31409533D01*
X87995405Y-30990341D01*
X88984596Y-30990341D01*
X88984596Y-31409533D01*
G36*
X90424595Y-30469596D02*
G01*
X90005404Y-30469596D01*
X90005404Y-29480405D01*
X90424595Y-29480405D01*
X90424595Y-30469596D01*
G37*
X90424595Y-30469596D02*
X90005404Y-30469596D01*
X90005404Y-29480405D01*
X90424595Y-29480405D01*
X90424595Y-30469596D01*
G36*
X90424595Y-33419595D02*
G01*
X90005404Y-33419595D01*
X90005404Y-32430404D01*
X90424595Y-32430404D01*
X90424595Y-33419595D01*
G37*
X90424595Y-33419595D02*
X90005404Y-33419595D01*
X90005404Y-32430404D01*
X90424595Y-32430404D01*
X90424595Y-33419595D01*
G36*
X90878500Y-31643700D02*
G01*
X89051500Y-31643700D01*
X89051500Y-31256300D01*
X90878500Y-31256300D01*
X90878500Y-31643700D01*
G37*
X90878500Y-31643700D02*
X89051500Y-31643700D01*
X89051500Y-31256300D01*
X90878500Y-31256300D01*
X90878500Y-31643700D01*
G36*
X88984596Y-32409785D02*
G01*
X87995405Y-32409785D01*
X87995405Y-31990593D01*
X88984596Y-31990593D01*
X88984596Y-32409785D01*
G37*
X88984596Y-32409785D02*
X87995405Y-32409785D01*
X87995405Y-31990593D01*
X88984596Y-31990593D01*
X88984596Y-32409785D01*
G36*
X89424597Y-30469596D02*
G01*
X89005403Y-30469596D01*
X89005403Y-29480405D01*
X89424597Y-29480405D01*
X89424597Y-30469596D01*
G37*
X89424597Y-30469596D02*
X89005403Y-30469596D01*
X89005403Y-29480405D01*
X89424597Y-29480405D01*
X89424597Y-30469596D01*
G36*
X89424597Y-33419595D02*
G01*
X89005403Y-33419595D01*
X89005403Y-32430404D01*
X89424597Y-32430404D01*
X89424597Y-33419595D01*
G37*
X89424597Y-33419595D02*
X89005403Y-33419595D01*
X89005403Y-32430404D01*
X89424597Y-32430404D01*
X89424597Y-33419595D01*
G36*
X91934595Y-30909407D02*
G01*
X90945404Y-30909407D01*
X90945404Y-30490215D01*
X91934595Y-30490215D01*
X91934595Y-30909407D01*
G37*
X91934595Y-30909407D02*
X90945404Y-30909407D01*
X90945404Y-30490215D01*
X91934595Y-30490215D01*
X91934595Y-30909407D01*
G36*
X90878500Y-32363500D02*
G01*
X90558700Y-32363500D01*
X90558700Y-30536500D01*
X90878500Y-30536500D01*
X90878500Y-32363500D01*
G37*
X90878500Y-32363500D02*
X90558700Y-32363500D01*
X90558700Y-30536500D01*
X90878500Y-30536500D01*
X90878500Y-32363500D01*
G36*
X91934595Y-31909659D02*
G01*
X90945404Y-31909659D01*
X90945404Y-31490467D01*
X91934595Y-31490467D01*
X91934595Y-31909659D01*
G37*
X91934595Y-31909659D02*
X90945404Y-31909659D01*
X90945404Y-31490467D01*
X91934595Y-31490467D01*
X91934595Y-31909659D01*
G36*
X88984596Y-30909407D02*
G01*
X87995405Y-30909407D01*
X87995405Y-30490215D01*
X88984596Y-30490215D01*
X88984596Y-30909407D01*
G37*
X88984596Y-30909407D02*
X87995405Y-30909407D01*
X87995405Y-30490215D01*
X88984596Y-30490215D01*
X88984596Y-30909407D01*
G36*
X91934595Y-32409785D02*
G01*
X90945404Y-32409785D01*
X90945404Y-31990593D01*
X91934595Y-31990593D01*
X91934595Y-32409785D01*
G37*
X91934595Y-32409785D02*
X90945404Y-32409785D01*
X90945404Y-31990593D01*
X91934595Y-31990593D01*
X91934595Y-32409785D01*
G36*
X90924597Y-30469596D02*
G01*
X90505403Y-30469596D01*
X90505403Y-29480405D01*
X90924597Y-29480405D01*
X90924597Y-30469596D01*
G37*
X90924597Y-30469596D02*
X90505403Y-30469596D01*
X90505403Y-29480405D01*
X90924597Y-29480405D01*
X90924597Y-30469596D01*
G36*
X88984596Y-31909659D02*
G01*
X87995405Y-31909659D01*
X87995405Y-31490467D01*
X88984596Y-31490467D01*
X88984596Y-31909659D01*
G37*
X88984596Y-31909659D02*
X87995405Y-31909659D01*
X87995405Y-31490467D01*
X88984596Y-31490467D01*
X88984596Y-31909659D01*
G36*
X90924597Y-33419595D02*
G01*
X90505403Y-33419595D01*
X90505403Y-32430404D01*
X90924597Y-32430404D01*
X90924597Y-33419595D01*
G37*
X90924597Y-33419595D02*
X90505403Y-33419595D01*
X90505403Y-32430404D01*
X90924597Y-32430404D01*
X90924597Y-33419595D01*
G36*
X89924596Y-30469596D02*
G01*
X89505405Y-30469596D01*
X89505405Y-29480405D01*
X89924596Y-29480405D01*
X89924596Y-30469596D01*
G37*
X89924596Y-30469596D02*
X89505405Y-30469596D01*
X89505405Y-29480405D01*
X89924596Y-29480405D01*
X89924596Y-30469596D01*
G36*
X90878500Y-32363500D02*
G01*
X89051500Y-32363500D01*
X89051500Y-32043700D01*
X90878500Y-32043700D01*
X90878500Y-32363500D01*
G37*
X90878500Y-32363500D02*
X89051500Y-32363500D01*
X89051500Y-32043700D01*
X90878500Y-32043700D01*
X90878500Y-32363500D01*
G36*
X91934595Y-31409533D02*
G01*
X90945404Y-31409533D01*
X90945404Y-30990341D01*
X91934595Y-30990341D01*
X91934595Y-31409533D01*
G37*
X91934595Y-31409533D02*
X90945404Y-31409533D01*
X90945404Y-30990341D01*
X91934595Y-30990341D01*
X91934595Y-31409533D01*
%TO.C,U3*%
G36*
X104841600Y-25676600D02*
G01*
X104408400Y-25676600D01*
X104408400Y-24923400D01*
X104841600Y-24923400D01*
X104841600Y-25676600D01*
G37*
X104841600Y-25676600D02*
X104408400Y-25676600D01*
X104408400Y-24923400D01*
X104841600Y-24923400D01*
X104841600Y-25676600D01*
G36*
X104593700Y-28488500D02*
G01*
X104206300Y-28488500D01*
X104206300Y-25511500D01*
X104593700Y-25511500D01*
X104593700Y-28488500D01*
G37*
X104593700Y-28488500D02*
X104206300Y-28488500D01*
X104206300Y-25511500D01*
X104593700Y-25511500D01*
X104593700Y-28488500D01*
G36*
X105253500Y-27587400D02*
G01*
X103546500Y-27587400D01*
X103546500Y-27200000D01*
X105253500Y-27200000D01*
X105253500Y-27587400D01*
G37*
X105253500Y-27587400D02*
X103546500Y-27587400D01*
X103546500Y-27200000D01*
X105253500Y-27200000D01*
X105253500Y-27587400D01*
G36*
X103806300Y-28488500D02*
G01*
X103546500Y-28488500D01*
X103546500Y-25511500D01*
X103806300Y-25511500D01*
X103806300Y-28488500D01*
G37*
X103806300Y-28488500D02*
X103546500Y-28488500D01*
X103546500Y-25511500D01*
X103806300Y-25511500D01*
X103806300Y-28488500D01*
G36*
X105253500Y-28488500D02*
G01*
X103546500Y-28488500D01*
X103546500Y-27987400D01*
X105253500Y-27987400D01*
X105253500Y-28488500D01*
G37*
X105253500Y-28488500D02*
X103546500Y-28488500D01*
X103546500Y-27987400D01*
X105253500Y-27987400D01*
X105253500Y-28488500D01*
G36*
X103300000Y-25640000D02*
G01*
X102480001Y-25640000D01*
X102480001Y-25360001D01*
X103300000Y-25360001D01*
X103300000Y-25640000D01*
G37*
X103300000Y-25640000D02*
X102480001Y-25640000D01*
X102480001Y-25360001D01*
X103300000Y-25360001D01*
X103300000Y-25640000D01*
G36*
X105253500Y-26012600D02*
G01*
X103546500Y-26012600D01*
X103546500Y-25511500D01*
X105253500Y-25511500D01*
X105253500Y-26012600D01*
G37*
X105253500Y-26012600D02*
X103546500Y-26012600D01*
X103546500Y-25511500D01*
X105253500Y-25511500D01*
X105253500Y-26012600D01*
G36*
X106319999Y-26139999D02*
G01*
X105500000Y-26139999D01*
X105500000Y-25860000D01*
X106319999Y-25860000D01*
X106319999Y-26139999D01*
G37*
X106319999Y-26139999D02*
X105500000Y-26139999D01*
X105500000Y-25860000D01*
X106319999Y-25860000D01*
X106319999Y-26139999D01*
G36*
X105253500Y-28488500D02*
G01*
X104993700Y-28488500D01*
X104993700Y-25511500D01*
X105253500Y-25511500D01*
X105253500Y-28488500D01*
G37*
X105253500Y-28488500D02*
X104993700Y-28488500D01*
X104993700Y-25511500D01*
X105253500Y-25511500D01*
X105253500Y-28488500D01*
G36*
X106319999Y-25640000D02*
G01*
X105500000Y-25640000D01*
X105500000Y-25360001D01*
X106319999Y-25360001D01*
X106319999Y-25640000D01*
G37*
X106319999Y-25640000D02*
X105500000Y-25640000D01*
X105500000Y-25360001D01*
X106319999Y-25360001D01*
X106319999Y-25640000D01*
G36*
X103300000Y-27140000D02*
G01*
X102480001Y-27140000D01*
X102480001Y-26860000D01*
X103300000Y-26860000D01*
X103300000Y-27140000D01*
G37*
X103300000Y-27140000D02*
X102480001Y-27140000D01*
X102480001Y-26860000D01*
X103300000Y-26860000D01*
X103300000Y-27140000D01*
G36*
X106319999Y-27639999D02*
G01*
X105500000Y-27639999D01*
X105500000Y-27359999D01*
X106319999Y-27359999D01*
X106319999Y-27639999D01*
G37*
X106319999Y-27639999D02*
X105500000Y-27639999D01*
X105500000Y-27359999D01*
X106319999Y-27359999D01*
X106319999Y-27639999D01*
G36*
X104841600Y-29076600D02*
G01*
X104408400Y-29076600D01*
X104408400Y-28323400D01*
X104841600Y-28323400D01*
X104841600Y-29076600D01*
G37*
X104841600Y-29076600D02*
X104408400Y-29076600D01*
X104408400Y-28323400D01*
X104841600Y-28323400D01*
X104841600Y-29076600D01*
G36*
X106319999Y-26640001D02*
G01*
X105500000Y-26640001D01*
X105500000Y-26359999D01*
X106319999Y-26359999D01*
X106319999Y-26640001D01*
G37*
X106319999Y-26640001D02*
X105500000Y-26640001D01*
X105500000Y-26359999D01*
X106319999Y-26359999D01*
X106319999Y-26640001D01*
G36*
X105291600Y-29076600D02*
G01*
X104858400Y-29076600D01*
X104858400Y-28323400D01*
X105291600Y-28323400D01*
X105291600Y-29076600D01*
G37*
X105291600Y-29076600D02*
X104858400Y-29076600D01*
X104858400Y-28323400D01*
X105291600Y-28323400D01*
X105291600Y-29076600D01*
G36*
X104391600Y-29076600D02*
G01*
X103958400Y-29076600D01*
X103958400Y-28323400D01*
X104391600Y-28323400D01*
X104391600Y-29076600D01*
G37*
X104391600Y-29076600D02*
X103958400Y-29076600D01*
X103958400Y-28323400D01*
X104391600Y-28323400D01*
X104391600Y-29076600D01*
G36*
X103300000Y-28140000D02*
G01*
X102480001Y-28140000D01*
X102480001Y-27860001D01*
X103300000Y-27860001D01*
X103300000Y-28140000D01*
G37*
X103300000Y-28140000D02*
X102480001Y-28140000D01*
X102480001Y-27860001D01*
X103300000Y-27860001D01*
X103300000Y-28140000D01*
G36*
X103300000Y-26640001D02*
G01*
X102480001Y-26640001D01*
X102480001Y-26360001D01*
X103300000Y-26360001D01*
X103300000Y-26640001D01*
G37*
X103300000Y-26640001D02*
X102480001Y-26640001D01*
X102480001Y-26360001D01*
X103300000Y-26360001D01*
X103300000Y-26640001D01*
G36*
X104391600Y-25676600D02*
G01*
X103958400Y-25676600D01*
X103958400Y-24923400D01*
X104391600Y-24923400D01*
X104391600Y-25676600D01*
G37*
X104391600Y-25676600D02*
X103958400Y-25676600D01*
X103958400Y-24923400D01*
X104391600Y-24923400D01*
X104391600Y-25676600D01*
G36*
X103941600Y-29076600D02*
G01*
X103508400Y-29076600D01*
X103508400Y-28323400D01*
X103941600Y-28323400D01*
X103941600Y-29076600D01*
G37*
X103941600Y-29076600D02*
X103508400Y-29076600D01*
X103508400Y-28323400D01*
X103941600Y-28323400D01*
X103941600Y-29076600D01*
G36*
X105253500Y-26800000D02*
G01*
X103546500Y-26800000D01*
X103546500Y-26412600D01*
X105253500Y-26412600D01*
X105253500Y-26800000D01*
G37*
X105253500Y-26800000D02*
X103546500Y-26800000D01*
X103546500Y-26412600D01*
X105253500Y-26412600D01*
X105253500Y-26800000D01*
G36*
X103300000Y-27640001D02*
G01*
X102480001Y-27640001D01*
X102480001Y-27359999D01*
X103300000Y-27359999D01*
X103300000Y-27640001D01*
G37*
X103300000Y-27640001D02*
X102480001Y-27640001D01*
X102480001Y-27359999D01*
X103300000Y-27359999D01*
X103300000Y-27640001D01*
G36*
X103300000Y-26139999D02*
G01*
X102480001Y-26139999D01*
X102480001Y-25860000D01*
X103300000Y-25860000D01*
X103300000Y-26139999D01*
G37*
X103300000Y-26139999D02*
X102480001Y-26139999D01*
X102480001Y-25860000D01*
X103300000Y-25860000D01*
X103300000Y-26139999D01*
G36*
X106319999Y-28140000D02*
G01*
X105500000Y-28140000D01*
X105500000Y-27860001D01*
X106319999Y-27860001D01*
X106319999Y-28140000D01*
G37*
X106319999Y-28140000D02*
X105500000Y-28140000D01*
X105500000Y-27860001D01*
X106319999Y-27860001D01*
X106319999Y-28140000D01*
G36*
X106319999Y-27140000D02*
G01*
X105500000Y-27140000D01*
X105500000Y-26860000D01*
X106319999Y-26860000D01*
X106319999Y-27140000D01*
G37*
X106319999Y-27140000D02*
X105500000Y-27140000D01*
X105500000Y-26860000D01*
X106319999Y-26860000D01*
X106319999Y-27140000D01*
G36*
X105291600Y-25676600D02*
G01*
X104858400Y-25676600D01*
X104858400Y-24923400D01*
X105291600Y-24923400D01*
X105291600Y-25676600D01*
G37*
X105291600Y-25676600D02*
X104858400Y-25676600D01*
X104858400Y-24923400D01*
X105291600Y-24923400D01*
X105291600Y-25676600D01*
G36*
X103300000Y-28639999D02*
G01*
X102480001Y-28639999D01*
X102480001Y-28360000D01*
X103300000Y-28360000D01*
X103300000Y-28639999D01*
G37*
X103300000Y-28639999D02*
X102480001Y-28639999D01*
X102480001Y-28360000D01*
X103300000Y-28360000D01*
X103300000Y-28639999D01*
G36*
X103941600Y-25676600D02*
G01*
X103508400Y-25676600D01*
X103508400Y-24923400D01*
X103941600Y-24923400D01*
X103941600Y-25676600D01*
G37*
X103941600Y-25676600D02*
X103508400Y-25676600D01*
X103508400Y-24923400D01*
X103941600Y-24923400D01*
X103941600Y-25676600D01*
G36*
X106319999Y-28639999D02*
G01*
X105500000Y-28639999D01*
X105500000Y-28360000D01*
X106319999Y-28360000D01*
X106319999Y-28639999D01*
G37*
X106319999Y-28639999D02*
X105500000Y-28639999D01*
X105500000Y-28360000D01*
X106319999Y-28360000D01*
X106319999Y-28639999D01*
%TD*%
D15*
%TO.C,Y1*%
X96850000Y-45500000D03*
X96850000Y-43300000D03*
X95150000Y-43300000D03*
X95150000Y-45500000D03*
%TD*%
D16*
%TO.C,C14*%
X120720000Y-39100000D03*
X121680000Y-39100000D03*
%TD*%
D17*
%TO.C,R10*%
X98100000Y-25710000D03*
X98100000Y-24690000D03*
%TD*%
D16*
%TO.C,C13*%
X120720000Y-40250000D03*
X121680000Y-40250000D03*
%TD*%
D18*
%TO.C,R17*%
X111610000Y-21700000D03*
X110590000Y-21700000D03*
%TD*%
D19*
%TO.C,SW2*%
X89780000Y-25600000D03*
X84020000Y-25600000D03*
X84020000Y-21600000D03*
X89780000Y-21600000D03*
%TD*%
D20*
%TO.C,L1*%
X107000000Y-36800000D03*
X107000000Y-33600000D03*
%TD*%
D21*
%TO.C,C26*%
X109270572Y-28480000D03*
X109270572Y-27520000D03*
%TD*%
D17*
%TO.C,R21*%
X113950000Y-54760000D03*
X113950000Y-53740000D03*
%TD*%
D22*
%TO.C,L5*%
X102400000Y-54935000D03*
X102400000Y-55905000D03*
%TD*%
%TO.C,L2*%
X101900000Y-48630000D03*
X101900000Y-49600000D03*
%TD*%
D23*
%TO.C,C3*%
X99880000Y-42500000D03*
X98920000Y-42500000D03*
%TD*%
D24*
%TO.C,C8*%
X99200000Y-45720000D03*
X99200000Y-46680000D03*
%TD*%
D16*
%TO.C,C1*%
X109920000Y-45700000D03*
X110880000Y-45700000D03*
%TD*%
D17*
%TO.C,R2*%
X100100000Y-39810000D03*
X100100000Y-38790000D03*
%TD*%
D16*
%TO.C,C33*%
X93085000Y-32495000D03*
X94045000Y-32495000D03*
%TD*%
D18*
%TO.C,R15*%
X121154000Y-42087000D03*
X120134000Y-42087000D03*
%TD*%
D25*
%TO.C,D4*%
X112650000Y-23000000D03*
D26*
X110950000Y-23000000D03*
X110950000Y-25000000D03*
X112850000Y-25000000D03*
%TD*%
D17*
%TO.C,R4*%
X83100000Y-39810000D03*
X83100000Y-38790000D03*
%TD*%
D16*
%TO.C,C24*%
X92220000Y-24900000D03*
X93180000Y-24900000D03*
%TD*%
D18*
%TO.C,R12*%
X97910000Y-23600000D03*
X96890000Y-23600000D03*
%TD*%
D27*
%TO.C,D1*%
X121297000Y-53235000D03*
X121297000Y-52265000D03*
%TD*%
D24*
%TO.C,C18*%
X103100000Y-48640000D03*
X103100000Y-49600000D03*
%TD*%
D28*
%TO.C,U4*%
X118524100Y-42400000D03*
X118524100Y-41900001D03*
X118524100Y-41399999D03*
X118524100Y-40900000D03*
X118524100Y-40400001D03*
X118524100Y-39899999D03*
X118524100Y-39400000D03*
D29*
X117700000Y-38575900D03*
X117200001Y-38575900D03*
X116699999Y-38575900D03*
X116200000Y-38575900D03*
X115700001Y-38575900D03*
X115199999Y-38575900D03*
X114700000Y-38575900D03*
D28*
X113875900Y-39400000D03*
X113875900Y-39899999D03*
X113875900Y-40400001D03*
X113875900Y-40900000D03*
X113875900Y-41399999D03*
X113875900Y-41900001D03*
X113875900Y-42400000D03*
D29*
X114700000Y-43224100D03*
X115199999Y-43224100D03*
X115700001Y-43224100D03*
X116200000Y-43224100D03*
X116699999Y-43224100D03*
X117200001Y-43224100D03*
X117700000Y-43224100D03*
D30*
X116200000Y-40900000D03*
%TD*%
D18*
%TO.C,R19*%
X118510000Y-37000000D03*
X117490000Y-37000000D03*
%TD*%
D31*
%TO.C,U1*%
X87027500Y-44133650D03*
X87677501Y-44133650D03*
X88327499Y-44133650D03*
X88977501Y-44133650D03*
X89627499Y-44133650D03*
X90277498Y-44133650D03*
X90927499Y-44133650D03*
X91577498Y-44133650D03*
X92227499Y-44133650D03*
X92877498Y-44133650D03*
X92877500Y-38494850D03*
X92227502Y-38494850D03*
X91577501Y-38494850D03*
X90927502Y-38494850D03*
X90277501Y-38494850D03*
X89627502Y-38494850D03*
X88977501Y-38494850D03*
X88327502Y-38494850D03*
X87677501Y-38494850D03*
X87027502Y-38494850D03*
%TD*%
D32*
%TO.C,U6*%
X90715001Y-29974999D03*
X90215000Y-29974999D03*
X89715000Y-29974999D03*
X89214999Y-29974999D03*
D33*
X88489999Y-30699811D03*
X88489999Y-31199937D03*
X88489999Y-31700063D03*
X88489999Y-32200189D03*
D32*
X89214999Y-32925001D03*
X89715000Y-32925001D03*
X90215000Y-32925001D03*
X90715001Y-32925001D03*
D33*
X91440001Y-32200189D03*
X91440001Y-31700063D03*
X91440001Y-31199937D03*
X91440001Y-30699811D03*
D34*
X89571300Y-31843700D03*
X90358700Y-31056300D03*
X90358700Y-31843700D03*
X89571300Y-31056300D03*
%TD*%
D21*
%TO.C,C5*%
X104200000Y-37530000D03*
X104200000Y-36570000D03*
%TD*%
D35*
%TO.C,C28*%
X99370572Y-27325000D03*
X99370572Y-28875000D03*
%TD*%
D16*
%TO.C,C31*%
X90040000Y-28500000D03*
X91000000Y-28500000D03*
%TD*%
D21*
%TO.C,C25*%
X108070572Y-28480000D03*
X108070572Y-27520000D03*
%TD*%
D24*
%TO.C,C15*%
X98900000Y-38820000D03*
X98900000Y-39780000D03*
%TD*%
D16*
%TO.C,C2*%
X110320000Y-40800000D03*
X111280000Y-40800000D03*
%TD*%
D36*
%TO.C,R3*%
X113390000Y-34200000D03*
X114410000Y-34200000D03*
%TD*%
D16*
%TO.C,C11*%
X100826000Y-47620000D03*
X101786000Y-47620000D03*
%TD*%
D37*
%TO.C,U2*%
X102450000Y-45600001D03*
X102949999Y-45600001D03*
X103449998Y-45600001D03*
X103950000Y-45600001D03*
X104449999Y-45600001D03*
X104950000Y-45600001D03*
X105450000Y-45600001D03*
X105949998Y-45600001D03*
X106450000Y-45600001D03*
X106949999Y-45600001D03*
X107450001Y-45600001D03*
X107950000Y-45600001D03*
D38*
X108600001Y-44950000D03*
X108600001Y-44450001D03*
X108600001Y-43950002D03*
X108600001Y-43450000D03*
X108600001Y-42950001D03*
X108600001Y-42450000D03*
X108600001Y-41950000D03*
X108600001Y-41450002D03*
X108600001Y-40950000D03*
X108600001Y-40450001D03*
X108600001Y-39949999D03*
X108600001Y-39450000D03*
D37*
X107950000Y-38799999D03*
X107450001Y-38799999D03*
X106949999Y-38799999D03*
X106450000Y-38799999D03*
X105949998Y-38799999D03*
X105450000Y-38799999D03*
X104950000Y-38799999D03*
X104449999Y-38799999D03*
X103950000Y-38799999D03*
X103449998Y-38799999D03*
X102949999Y-38799999D03*
X102450000Y-38799999D03*
D38*
X101799999Y-39450000D03*
X101799999Y-39949999D03*
X101799999Y-40450001D03*
X101799999Y-40950000D03*
X101799999Y-41450002D03*
X101799999Y-41950000D03*
X101799999Y-42450000D03*
X101799999Y-42950001D03*
X101799999Y-43450000D03*
X101799999Y-43950002D03*
X101799999Y-44450001D03*
X101799999Y-44950000D03*
D39*
X105200000Y-42200000D03*
D40*
X106003501Y-39875001D03*
X102875001Y-41396499D03*
X102875001Y-43003501D03*
X107524999Y-41396499D03*
X104396499Y-44524999D03*
X104396499Y-43003501D03*
X107524999Y-43003501D03*
X104396499Y-41396499D03*
X106003501Y-44524999D03*
X104396499Y-39875001D03*
X106003501Y-41396499D03*
X106003501Y-43003501D03*
%TD*%
D23*
%TO.C,C7*%
X99880000Y-43600000D03*
X98920000Y-43600000D03*
%TD*%
D41*
%TO.C,Y2*%
X108500000Y-52350000D03*
X108500000Y-49850000D03*
%TD*%
D18*
%TO.C,R14*%
X121154000Y-43230000D03*
X120134000Y-43230000D03*
%TD*%
D42*
%TO.C,J3*%
X116550000Y-34125000D03*
D43*
X116550000Y-32855000D03*
X117820000Y-34125000D03*
X117820000Y-32855000D03*
X119090000Y-34125000D03*
X119090000Y-32855000D03*
X120360000Y-34125000D03*
X120360000Y-32855000D03*
X121630000Y-34125000D03*
X121630000Y-32855000D03*
%TD*%
D44*
%TO.C,SW1*%
X83907000Y-34831000D03*
D45*
X83907000Y-32291000D03*
X83907000Y-29751000D03*
%TD*%
D46*
%TO.C,J2*%
X117620000Y-58882500D03*
D47*
X119145000Y-60357500D03*
X119145000Y-57407500D03*
%TD*%
D44*
%TO.C,J1*%
X105300000Y-21625000D03*
D45*
X102760000Y-21625000D03*
X100220000Y-21625000D03*
X97680000Y-21625000D03*
%TD*%
D24*
%TO.C,C32*%
X113900000Y-51820000D03*
X113900000Y-52780000D03*
%TD*%
D21*
%TO.C,C30*%
X107300000Y-25680000D03*
X107300000Y-24720000D03*
%TD*%
D23*
%TO.C,C20*%
X102480000Y-53820000D03*
X101520000Y-53820000D03*
%TD*%
D48*
%TO.C,C4*%
X102800000Y-37375000D03*
X102800000Y-35825000D03*
%TD*%
D24*
%TO.C,C29*%
X100700000Y-27720000D03*
X100700000Y-28680000D03*
%TD*%
%TO.C,C17*%
X102425000Y-63572500D03*
X102425000Y-64532500D03*
%TD*%
D49*
%TO.C,P1*%
X116195000Y-28290000D03*
X116195000Y-22510000D03*
D50*
X115130000Y-28750000D03*
X115130000Y-27950000D03*
X115130000Y-26650000D03*
X115130000Y-25650000D03*
X115130000Y-25150000D03*
X115130000Y-24150000D03*
X115130000Y-22850000D03*
X115130000Y-22050000D03*
X115130000Y-22350000D03*
X115130000Y-23150000D03*
X115130000Y-23650000D03*
X115130000Y-24650000D03*
X115130000Y-26150000D03*
X115130000Y-27150000D03*
X115130000Y-27650000D03*
X115130000Y-28450000D03*
D51*
X119875000Y-29720000D03*
D52*
X115695000Y-21080000D03*
X115695000Y-29720000D03*
D51*
X119875000Y-21080000D03*
%TD*%
D21*
%TO.C,C22*%
X110000000Y-39680000D03*
X110000000Y-38720000D03*
%TD*%
D16*
%TO.C,C19*%
X102520000Y-50720000D03*
X103480000Y-50720000D03*
%TD*%
D23*
%TO.C,C12*%
X103380000Y-58282500D03*
X102420000Y-58282500D03*
%TD*%
D48*
%TO.C,C27*%
X97623072Y-28926000D03*
X97623072Y-27376000D03*
%TD*%
D17*
%TO.C,R1*%
X119773000Y-52349000D03*
X119773000Y-51329000D03*
%TD*%
D16*
%TO.C,C21*%
X102420000Y-57000000D03*
X103380000Y-57000000D03*
%TD*%
D27*
%TO.C,D3*%
X84424000Y-45103000D03*
X84424000Y-44133000D03*
%TD*%
D21*
%TO.C,C16*%
X102400000Y-60412500D03*
X102400000Y-59452500D03*
%TD*%
%TO.C,C9*%
X110800000Y-52580000D03*
X110800000Y-51620000D03*
%TD*%
D18*
%TO.C,R20*%
X109110000Y-21700000D03*
X108090000Y-21700000D03*
%TD*%
D24*
%TO.C,C10*%
X110800000Y-49620000D03*
X110800000Y-50580000D03*
%TD*%
D22*
%TO.C,L6*%
X102400000Y-61447500D03*
X102400000Y-62417500D03*
%TD*%
D24*
%TO.C,C23*%
X104300000Y-48640000D03*
X104300000Y-49600000D03*
%TD*%
D36*
%TO.C,R13*%
X113940000Y-56250000D03*
X114960000Y-56250000D03*
%TD*%
%TO.C,R18*%
X93090000Y-33600000D03*
X94110000Y-33600000D03*
%TD*%
D53*
%TO.C,U3*%
X102890000Y-25500000D03*
X102890000Y-25999999D03*
X102890000Y-26500001D03*
X102890000Y-27000000D03*
X102890000Y-27500002D03*
X102890000Y-28000001D03*
X102890000Y-28500000D03*
X105910000Y-28500000D03*
X105910000Y-28000001D03*
X105910000Y-27499999D03*
X105910000Y-27000000D03*
X105910000Y-26499998D03*
X105910000Y-25999999D03*
X105910000Y-25500000D03*
D34*
X104793700Y-27000000D03*
X104006300Y-27787400D03*
X104006300Y-26212600D03*
X104793700Y-26212600D03*
X104006300Y-27000000D03*
X104793700Y-27787400D03*
%TD*%
D22*
%TO.C,L4*%
X102500000Y-51735000D03*
X102500000Y-52705000D03*
%TD*%
D54*
%TO.C,U5*%
X115238000Y-54847800D03*
X115746000Y-54847800D03*
X116254000Y-54847800D03*
X116762000Y-54847800D03*
X116762000Y-51952200D03*
X116254000Y-51952200D03*
X115746000Y-51952200D03*
X115238000Y-51952200D03*
D55*
X116000000Y-53400000D03*
%TD*%
D36*
%TO.C,R6*%
X111890000Y-26800000D03*
X112910000Y-26800000D03*
%TD*%
D23*
%TO.C,C34*%
X89880000Y-34400000D03*
X88920000Y-34400000D03*
%TD*%
D17*
%TO.C,R11*%
X96900000Y-25710000D03*
X96900000Y-24690000D03*
%TD*%
D27*
%TO.C,D2*%
X84527000Y-40489000D03*
X84527000Y-39519000D03*
%TD*%
D17*
%TO.C,R5*%
X82900000Y-44100000D03*
X82900000Y-43080000D03*
%TD*%
D18*
%TO.C,R16*%
X121192000Y-44464000D03*
X120172000Y-44464000D03*
%TD*%
D56*
%TO.C,L3*%
X101837000Y-46620000D03*
X102807000Y-46620000D03*
%TD*%
D57*
%TO.C,FB1*%
X101100000Y-35775000D03*
X101100000Y-37425000D03*
%TD*%
D56*
%TO.C,L7*%
X103107000Y-47620000D03*
X104077000Y-47620000D03*
%TD*%
D58*
%TO.C,C6*%
X104375000Y-34100000D03*
X102825000Y-34100000D03*
%TD*%
M02*
