G04 #@! TF.GenerationSoftware,KiCad,Pcbnew,(6.0.8)*
G04 #@! TF.CreationDate,2022-11-17T21:44:11-05:00*
G04 #@! TF.ProjectId,Emrick,456d7269-636b-42e6-9b69-6361645f7063,2*
G04 #@! TF.SameCoordinates,Original*
G04 #@! TF.FileFunction,Legend,Top*
G04 #@! TF.FilePolarity,Positive*
%FSLAX46Y46*%
G04 Gerber Fmt 4.6, Leading zero omitted, Abs format (unit mm)*
G04 Created by KiCad (PCBNEW (6.0.8)) date 2022-11-17 21:44:11*
%MOMM*%
%LPD*%
G01*
G04 APERTURE LIST*
G04 Aperture macros list*
%AMRoundRect*
0 Rectangle with rounded corners*
0 $1 Rounding radius*
0 $2 $3 $4 $5 $6 $7 $8 $9 X,Y pos of 4 corners*
0 Add a 4 corners polygon primitive as box body*
4,1,4,$2,$3,$4,$5,$6,$7,$8,$9,$2,$3,0*
0 Add four circle primitives for the rounded corners*
1,1,$1+$1,$2,$3*
1,1,$1+$1,$4,$5*
1,1,$1+$1,$6,$7*
1,1,$1+$1,$8,$9*
0 Add four rect primitives between the rounded corners*
20,1,$1+$1,$2,$3,$4,$5,0*
20,1,$1+$1,$4,$5,$6,$7,0*
20,1,$1+$1,$6,$7,$8,$9,0*
20,1,$1+$1,$8,$9,$2,$3,0*%
G04 Aperture macros list end*
%ADD10C,0.150000*%
%ADD11C,0.120000*%
%ADD12C,0.110000*%
%ADD13C,0.300000*%
%ADD14C,0.100000*%
%ADD15RoundRect,0.225000X-0.225000X-0.250000X0.225000X-0.250000X0.225000X0.250000X-0.225000X0.250000X0*%
%ADD16RoundRect,0.225000X-0.250000X0.225000X-0.250000X-0.225000X0.250000X-0.225000X0.250000X0.225000X0*%
%ADD17RoundRect,0.225000X0.225000X0.250000X-0.225000X0.250000X-0.225000X-0.250000X0.225000X-0.250000X0*%
%ADD18RoundRect,0.140000X0.140000X0.170000X-0.140000X0.170000X-0.140000X-0.170000X0.140000X-0.170000X0*%
%ADD19RoundRect,0.140000X0.170000X-0.140000X0.170000X0.140000X-0.170000X0.140000X-0.170000X-0.140000X0*%
%ADD20RoundRect,0.140000X-0.140000X-0.170000X0.140000X-0.170000X0.140000X0.170000X-0.140000X0.170000X0*%
%ADD21R,1.200000X1.400000*%
%ADD22RoundRect,0.135000X0.185000X-0.135000X0.185000X0.135000X-0.185000X0.135000X-0.185000X-0.135000X0*%
%ADD23RoundRect,0.135000X0.135000X0.185000X-0.135000X0.185000X-0.135000X-0.185000X0.135000X-0.185000X0*%
%ADD24R,2.750000X1.000000*%
%ADD25R,2.000000X1.200000*%
%ADD26RoundRect,0.147500X-0.172500X0.147500X-0.172500X-0.147500X0.172500X-0.147500X0.172500X0.147500X0*%
%ADD27RoundRect,0.140000X-0.170000X0.140000X-0.170000X-0.140000X0.170000X-0.140000X0.170000X0.140000X0*%
%ADD28R,1.000000X0.700000*%
%ADD29R,0.600000X0.700000*%
%ADD30RoundRect,0.147500X0.172500X-0.147500X0.172500X0.147500X-0.172500X0.147500X-0.172500X-0.147500X0*%
%ADD31R,0.965200X0.254000*%
%ADD32R,0.254000X0.965200*%
%ADD33R,3.352800X3.352800*%
%ADD34R,0.355600X1.676400*%
%ADD35R,0.280000X0.850000*%
%ADD36R,0.850000X0.280000*%
%ADD37C,0.508000*%
%ADD38O,0.240000X0.599999*%
%ADD39O,0.599999X0.240000*%
%ADD40R,5.150000X5.150000*%
%ADD41C,0.499999*%
%ADD42R,1.800000X1.000000*%
%ADD43R,1.000000X1.000000*%
%ADD44O,1.000000X1.000000*%
%ADD45R,1.700000X1.700000*%
%ADD46O,1.700000X1.700000*%
%ADD47R,1.050000X1.000000*%
%ADD48R,2.200000X1.050000*%
%ADD49RoundRect,0.225000X0.250000X-0.225000X0.250000X0.225000X-0.250000X0.225000X-0.250000X-0.225000X0*%
%ADD50C,0.650000*%
%ADD51R,1.150000X0.300000*%
%ADD52O,1.600000X1.000000*%
%ADD53O,2.100000X1.000000*%
%ADD54RoundRect,0.135000X-0.135000X-0.185000X0.135000X-0.185000X0.135000X0.185000X-0.135000X0.185000X0*%
%ADD55R,0.820000X0.280000*%
%ADD56R,0.254000X0.812800*%
%ADD57R,1.701800X0.304800*%
%ADD58RoundRect,0.147500X-0.147500X-0.172500X0.147500X-0.172500X0.147500X0.172500X-0.147500X0.172500X0*%
%ADD59RoundRect,0.200000X-0.275000X0.200000X-0.275000X-0.200000X0.275000X-0.200000X0.275000X0.200000X0*%
G04 APERTURE END LIST*
D10*
X102250000Y-22102380D02*
X102250000Y-22340476D01*
X102011904Y-22245238D02*
X102250000Y-22340476D01*
X102488095Y-22245238D01*
X102107142Y-22530952D02*
X102250000Y-22340476D01*
X102392857Y-22530952D01*
X97450000Y-44647619D02*
X97450000Y-44409523D01*
X97688095Y-44504761D02*
X97450000Y-44409523D01*
X97211904Y-44504761D01*
X97592857Y-44219047D02*
X97450000Y-44409523D01*
X97307142Y-44219047D01*
X91300000Y-26847619D02*
X91300000Y-26609523D01*
X91538095Y-26704761D02*
X91300000Y-26609523D01*
X91061904Y-26704761D01*
X91442857Y-26419047D02*
X91300000Y-26609523D01*
X91157142Y-26419047D01*
X114400000Y-53147619D02*
X114400000Y-52909523D01*
X114638095Y-53004761D02*
X114400000Y-52909523D01*
X114161904Y-53004761D01*
X114542857Y-52719047D02*
X114400000Y-52909523D01*
X114257142Y-52719047D01*
X85950000Y-42647619D02*
X85950000Y-42409523D01*
X86188095Y-42504761D02*
X85950000Y-42409523D01*
X85711904Y-42504761D01*
X86092857Y-42219047D02*
X85950000Y-42409523D01*
X85807142Y-42219047D01*
X105583333Y-62852380D02*
X105107142Y-62852380D01*
X105107142Y-61852380D01*
X105964285Y-62852380D02*
X106154761Y-62852380D01*
X106250000Y-62804761D01*
X106297619Y-62757142D01*
X106392857Y-62614285D01*
X106440476Y-62423809D01*
X106440476Y-62042857D01*
X106392857Y-61947619D01*
X106345238Y-61900000D01*
X106250000Y-61852380D01*
X106059523Y-61852380D01*
X105964285Y-61900000D01*
X105916666Y-61947619D01*
X105869047Y-62042857D01*
X105869047Y-62280952D01*
X105916666Y-62376190D01*
X105964285Y-62423809D01*
X106059523Y-62471428D01*
X106250000Y-62471428D01*
X106345238Y-62423809D01*
X106392857Y-62376190D01*
X106440476Y-62280952D01*
X101987142Y-26242857D02*
X102034761Y-26290476D01*
X102082380Y-26433333D01*
X102082380Y-26528571D01*
X102034761Y-26671428D01*
X101939523Y-26766666D01*
X101844285Y-26814285D01*
X101653809Y-26861904D01*
X101510952Y-26861904D01*
X101320476Y-26814285D01*
X101225238Y-26766666D01*
X101130000Y-26671428D01*
X101082380Y-26528571D01*
X101082380Y-26433333D01*
X101130000Y-26290476D01*
X101177619Y-26242857D01*
X101177619Y-25861904D02*
X101130000Y-25814285D01*
X101082380Y-25719047D01*
X101082380Y-25480952D01*
X101130000Y-25385714D01*
X101177619Y-25338095D01*
X101272857Y-25290476D01*
X101368095Y-25290476D01*
X101510952Y-25338095D01*
X102082380Y-25909523D01*
X102082380Y-25290476D01*
X102082380Y-24814285D02*
X102082380Y-24623809D01*
X102034761Y-24528571D01*
X101987142Y-24480952D01*
X101844285Y-24385714D01*
X101653809Y-24338095D01*
X101272857Y-24338095D01*
X101177619Y-24385714D01*
X101130000Y-24433333D01*
X101082380Y-24528571D01*
X101082380Y-24719047D01*
X101130000Y-24814285D01*
X101177619Y-24861904D01*
X101272857Y-24909523D01*
X101510952Y-24909523D01*
X101606190Y-24861904D01*
X101653809Y-24814285D01*
X101701428Y-24719047D01*
X101701428Y-24528571D01*
X101653809Y-24433333D01*
X101606190Y-24385714D01*
X101510952Y-24338095D01*
X97757142Y-61557142D02*
X97709523Y-61604761D01*
X97566666Y-61652380D01*
X97471428Y-61652380D01*
X97328571Y-61604761D01*
X97233333Y-61509523D01*
X97185714Y-61414285D01*
X97138095Y-61223809D01*
X97138095Y-61080952D01*
X97185714Y-60890476D01*
X97233333Y-60795238D01*
X97328571Y-60700000D01*
X97471428Y-60652380D01*
X97566666Y-60652380D01*
X97709523Y-60700000D01*
X97757142Y-60747619D01*
X98709523Y-61652380D02*
X98138095Y-61652380D01*
X98423809Y-61652380D02*
X98423809Y-60652380D01*
X98328571Y-60795238D01*
X98233333Y-60890476D01*
X98138095Y-60938095D01*
X99042857Y-60652380D02*
X99661904Y-60652380D01*
X99328571Y-61033333D01*
X99471428Y-61033333D01*
X99566666Y-61080952D01*
X99614285Y-61128571D01*
X99661904Y-61223809D01*
X99661904Y-61461904D01*
X99614285Y-61557142D01*
X99566666Y-61604761D01*
X99471428Y-61652380D01*
X99185714Y-61652380D01*
X99090476Y-61604761D01*
X99042857Y-61557142D01*
X99757142Y-56157142D02*
X99709523Y-56204761D01*
X99566666Y-56252380D01*
X99471428Y-56252380D01*
X99328571Y-56204761D01*
X99233333Y-56109523D01*
X99185714Y-56014285D01*
X99138095Y-55823809D01*
X99138095Y-55680952D01*
X99185714Y-55490476D01*
X99233333Y-55395238D01*
X99328571Y-55300000D01*
X99471428Y-55252380D01*
X99566666Y-55252380D01*
X99709523Y-55300000D01*
X99757142Y-55347619D01*
X100709523Y-56252380D02*
X100138095Y-56252380D01*
X100423809Y-56252380D02*
X100423809Y-55252380D01*
X100328571Y-55395238D01*
X100233333Y-55490476D01*
X100138095Y-55538095D01*
X101090476Y-55347619D02*
X101138095Y-55300000D01*
X101233333Y-55252380D01*
X101471428Y-55252380D01*
X101566666Y-55300000D01*
X101614285Y-55347619D01*
X101661904Y-55442857D01*
X101661904Y-55538095D01*
X101614285Y-55680952D01*
X101042857Y-56252380D01*
X101661904Y-56252380D01*
X104107142Y-58342857D02*
X104154761Y-58390476D01*
X104202380Y-58533333D01*
X104202380Y-58628571D01*
X104154761Y-58771428D01*
X104059523Y-58866666D01*
X103964285Y-58914285D01*
X103773809Y-58961904D01*
X103630952Y-58961904D01*
X103440476Y-58914285D01*
X103345238Y-58866666D01*
X103250000Y-58771428D01*
X103202380Y-58628571D01*
X103202380Y-58533333D01*
X103250000Y-58390476D01*
X103297619Y-58342857D01*
X104202380Y-57390476D02*
X104202380Y-57961904D01*
X104202380Y-57676190D02*
X103202380Y-57676190D01*
X103345238Y-57771428D01*
X103440476Y-57866666D01*
X103488095Y-57961904D01*
X103202380Y-56533333D02*
X103202380Y-56723809D01*
X103250000Y-56819047D01*
X103297619Y-56866666D01*
X103440476Y-56961904D01*
X103630952Y-57009523D01*
X104011904Y-57009523D01*
X104107142Y-56961904D01*
X104154761Y-56914285D01*
X104202380Y-56819047D01*
X104202380Y-56628571D01*
X104154761Y-56533333D01*
X104107142Y-56485714D01*
X104011904Y-56438095D01*
X103773809Y-56438095D01*
X103678571Y-56485714D01*
X103630952Y-56533333D01*
X103583333Y-56628571D01*
X103583333Y-56819047D01*
X103630952Y-56914285D01*
X103678571Y-56961904D01*
X103773809Y-57009523D01*
X121207142Y-36207142D02*
X121159523Y-36254761D01*
X121016666Y-36302380D01*
X120921428Y-36302380D01*
X120778571Y-36254761D01*
X120683333Y-36159523D01*
X120635714Y-36064285D01*
X120588095Y-35873809D01*
X120588095Y-35730952D01*
X120635714Y-35540476D01*
X120683333Y-35445238D01*
X120778571Y-35350000D01*
X120921428Y-35302380D01*
X121016666Y-35302380D01*
X121159523Y-35350000D01*
X121207142Y-35397619D01*
X121540476Y-35302380D02*
X122159523Y-35302380D01*
X121826190Y-35683333D01*
X121969047Y-35683333D01*
X122064285Y-35730952D01*
X122111904Y-35778571D01*
X122159523Y-35873809D01*
X122159523Y-36111904D01*
X122111904Y-36207142D01*
X122064285Y-36254761D01*
X121969047Y-36302380D01*
X121683333Y-36302380D01*
X121588095Y-36254761D01*
X121540476Y-36207142D01*
X123016666Y-35302380D02*
X122826190Y-35302380D01*
X122730952Y-35350000D01*
X122683333Y-35397619D01*
X122588095Y-35540476D01*
X122540476Y-35730952D01*
X122540476Y-36111904D01*
X122588095Y-36207142D01*
X122635714Y-36254761D01*
X122730952Y-36302380D01*
X122921428Y-36302380D01*
X123016666Y-36254761D01*
X123064285Y-36207142D01*
X123111904Y-36111904D01*
X123111904Y-35873809D01*
X123064285Y-35778571D01*
X123016666Y-35730952D01*
X122921428Y-35683333D01*
X122730952Y-35683333D01*
X122635714Y-35730952D01*
X122588095Y-35778571D01*
X122540476Y-35873809D01*
X119507142Y-33807142D02*
X119459523Y-33854761D01*
X119316666Y-33902380D01*
X119221428Y-33902380D01*
X119078571Y-33854761D01*
X118983333Y-33759523D01*
X118935714Y-33664285D01*
X118888095Y-33473809D01*
X118888095Y-33330952D01*
X118935714Y-33140476D01*
X118983333Y-33045238D01*
X119078571Y-32950000D01*
X119221428Y-32902380D01*
X119316666Y-32902380D01*
X119459523Y-32950000D01*
X119507142Y-32997619D01*
X119840476Y-32902380D02*
X120459523Y-32902380D01*
X120126190Y-33283333D01*
X120269047Y-33283333D01*
X120364285Y-33330952D01*
X120411904Y-33378571D01*
X120459523Y-33473809D01*
X120459523Y-33711904D01*
X120411904Y-33807142D01*
X120364285Y-33854761D01*
X120269047Y-33902380D01*
X119983333Y-33902380D01*
X119888095Y-33854761D01*
X119840476Y-33807142D01*
X121364285Y-32902380D02*
X120888095Y-32902380D01*
X120840476Y-33378571D01*
X120888095Y-33330952D01*
X120983333Y-33283333D01*
X121221428Y-33283333D01*
X121316666Y-33330952D01*
X121364285Y-33378571D01*
X121411904Y-33473809D01*
X121411904Y-33711904D01*
X121364285Y-33807142D01*
X121316666Y-33854761D01*
X121221428Y-33902380D01*
X120983333Y-33902380D01*
X120888095Y-33854761D01*
X120840476Y-33807142D01*
X121057142Y-40257142D02*
X121009523Y-40304761D01*
X120866666Y-40352380D01*
X120771428Y-40352380D01*
X120628571Y-40304761D01*
X120533333Y-40209523D01*
X120485714Y-40114285D01*
X120438095Y-39923809D01*
X120438095Y-39780952D01*
X120485714Y-39590476D01*
X120533333Y-39495238D01*
X120628571Y-39400000D01*
X120771428Y-39352380D01*
X120866666Y-39352380D01*
X121009523Y-39400000D01*
X121057142Y-39447619D01*
X121390476Y-39352380D02*
X122009523Y-39352380D01*
X121676190Y-39733333D01*
X121819047Y-39733333D01*
X121914285Y-39780952D01*
X121961904Y-39828571D01*
X122009523Y-39923809D01*
X122009523Y-40161904D01*
X121961904Y-40257142D01*
X121914285Y-40304761D01*
X121819047Y-40352380D01*
X121533333Y-40352380D01*
X121438095Y-40304761D01*
X121390476Y-40257142D01*
X122866666Y-39685714D02*
X122866666Y-40352380D01*
X122628571Y-39304761D02*
X122390476Y-40019047D01*
X123009523Y-40019047D01*
X119707142Y-34907142D02*
X119659523Y-34954761D01*
X119516666Y-35002380D01*
X119421428Y-35002380D01*
X119278571Y-34954761D01*
X119183333Y-34859523D01*
X119135714Y-34764285D01*
X119088095Y-34573809D01*
X119088095Y-34430952D01*
X119135714Y-34240476D01*
X119183333Y-34145238D01*
X119278571Y-34050000D01*
X119421428Y-34002380D01*
X119516666Y-34002380D01*
X119659523Y-34050000D01*
X119707142Y-34097619D01*
X120659523Y-35002380D02*
X120088095Y-35002380D01*
X120373809Y-35002380D02*
X120373809Y-34002380D01*
X120278571Y-34145238D01*
X120183333Y-34240476D01*
X120088095Y-34288095D01*
X121516666Y-34335714D02*
X121516666Y-35002380D01*
X121278571Y-33954761D02*
X121040476Y-34669047D01*
X121659523Y-34669047D01*
X95273809Y-39176190D02*
X95273809Y-39652380D01*
X94940476Y-38652380D02*
X95273809Y-39176190D01*
X95607142Y-38652380D01*
X96464285Y-39652380D02*
X95892857Y-39652380D01*
X96178571Y-39652380D02*
X96178571Y-38652380D01*
X96083333Y-38795238D01*
X95988095Y-38890476D01*
X95892857Y-38938095D01*
X99357142Y-23652380D02*
X99023809Y-23176190D01*
X98785714Y-23652380D02*
X98785714Y-22652380D01*
X99166666Y-22652380D01*
X99261904Y-22700000D01*
X99309523Y-22747619D01*
X99357142Y-22842857D01*
X99357142Y-22985714D01*
X99309523Y-23080952D01*
X99261904Y-23128571D01*
X99166666Y-23176190D01*
X98785714Y-23176190D01*
X100309523Y-23652380D02*
X99738095Y-23652380D01*
X100023809Y-23652380D02*
X100023809Y-22652380D01*
X99928571Y-22795238D01*
X99833333Y-22890476D01*
X99738095Y-22938095D01*
X100928571Y-22652380D02*
X101023809Y-22652380D01*
X101119047Y-22700000D01*
X101166666Y-22747619D01*
X101214285Y-22842857D01*
X101261904Y-23033333D01*
X101261904Y-23271428D01*
X101214285Y-23461904D01*
X101166666Y-23557142D01*
X101119047Y-23604761D01*
X101023809Y-23652380D01*
X100928571Y-23652380D01*
X100833333Y-23604761D01*
X100785714Y-23557142D01*
X100738095Y-23461904D01*
X100690476Y-23271428D01*
X100690476Y-23033333D01*
X100738095Y-22842857D01*
X100785714Y-22747619D01*
X100833333Y-22700000D01*
X100928571Y-22652380D01*
X111257142Y-18402380D02*
X110923809Y-17926190D01*
X110685714Y-18402380D02*
X110685714Y-17402380D01*
X111066666Y-17402380D01*
X111161904Y-17450000D01*
X111209523Y-17497619D01*
X111257142Y-17592857D01*
X111257142Y-17735714D01*
X111209523Y-17830952D01*
X111161904Y-17878571D01*
X111066666Y-17926190D01*
X110685714Y-17926190D01*
X112209523Y-18402380D02*
X111638095Y-18402380D01*
X111923809Y-18402380D02*
X111923809Y-17402380D01*
X111828571Y-17545238D01*
X111733333Y-17640476D01*
X111638095Y-17688095D01*
X112542857Y-17402380D02*
X113209523Y-17402380D01*
X112780952Y-18402380D01*
X85566666Y-21459761D02*
X85709523Y-21507380D01*
X85947619Y-21507380D01*
X86042857Y-21459761D01*
X86090476Y-21412142D01*
X86138095Y-21316904D01*
X86138095Y-21221666D01*
X86090476Y-21126428D01*
X86042857Y-21078809D01*
X85947619Y-21031190D01*
X85757142Y-20983571D01*
X85661904Y-20935952D01*
X85614285Y-20888333D01*
X85566666Y-20793095D01*
X85566666Y-20697857D01*
X85614285Y-20602619D01*
X85661904Y-20555000D01*
X85757142Y-20507380D01*
X85995238Y-20507380D01*
X86138095Y-20555000D01*
X86471428Y-20507380D02*
X86709523Y-21507380D01*
X86900000Y-20793095D01*
X87090476Y-21507380D01*
X87328571Y-20507380D01*
X87661904Y-20602619D02*
X87709523Y-20555000D01*
X87804761Y-20507380D01*
X88042857Y-20507380D01*
X88138095Y-20555000D01*
X88185714Y-20602619D01*
X88233333Y-20697857D01*
X88233333Y-20793095D01*
X88185714Y-20935952D01*
X87614285Y-21507380D01*
X88233333Y-21507380D01*
X109702380Y-32116666D02*
X109702380Y-32592857D01*
X108702380Y-32592857D01*
X109702380Y-31259523D02*
X109702380Y-31830952D01*
X109702380Y-31545238D02*
X108702380Y-31545238D01*
X108845238Y-31640476D01*
X108940476Y-31735714D01*
X108988095Y-31830952D01*
X110857142Y-26592857D02*
X110904761Y-26640476D01*
X110952380Y-26783333D01*
X110952380Y-26878571D01*
X110904761Y-27021428D01*
X110809523Y-27116666D01*
X110714285Y-27164285D01*
X110523809Y-27211904D01*
X110380952Y-27211904D01*
X110190476Y-27164285D01*
X110095238Y-27116666D01*
X110000000Y-27021428D01*
X109952380Y-26878571D01*
X109952380Y-26783333D01*
X110000000Y-26640476D01*
X110047619Y-26592857D01*
X110047619Y-26211904D02*
X110000000Y-26164285D01*
X109952380Y-26069047D01*
X109952380Y-25830952D01*
X110000000Y-25735714D01*
X110047619Y-25688095D01*
X110142857Y-25640476D01*
X110238095Y-25640476D01*
X110380952Y-25688095D01*
X110952380Y-26259523D01*
X110952380Y-25640476D01*
X109952380Y-24783333D02*
X109952380Y-24973809D01*
X110000000Y-25069047D01*
X110047619Y-25116666D01*
X110190476Y-25211904D01*
X110380952Y-25259523D01*
X110761904Y-25259523D01*
X110857142Y-25211904D01*
X110904761Y-25164285D01*
X110952380Y-25069047D01*
X110952380Y-24878571D01*
X110904761Y-24783333D01*
X110857142Y-24735714D01*
X110761904Y-24688095D01*
X110523809Y-24688095D01*
X110428571Y-24735714D01*
X110380952Y-24783333D01*
X110333333Y-24878571D01*
X110333333Y-25069047D01*
X110380952Y-25164285D01*
X110428571Y-25211904D01*
X110523809Y-25259523D01*
X104022380Y-53366666D02*
X104022380Y-53842857D01*
X103022380Y-53842857D01*
X103022380Y-52557142D02*
X103022380Y-53033333D01*
X103498571Y-53080952D01*
X103450952Y-53033333D01*
X103403333Y-52938095D01*
X103403333Y-52700000D01*
X103450952Y-52604761D01*
X103498571Y-52557142D01*
X103593809Y-52509523D01*
X103831904Y-52509523D01*
X103927142Y-52557142D01*
X103974761Y-52604761D01*
X104022380Y-52700000D01*
X104022380Y-52938095D01*
X103974761Y-53033333D01*
X103927142Y-53080952D01*
X101202380Y-46716666D02*
X101202380Y-47192857D01*
X100202380Y-47192857D01*
X100297619Y-46430952D02*
X100250000Y-46383333D01*
X100202380Y-46288095D01*
X100202380Y-46050000D01*
X100250000Y-45954761D01*
X100297619Y-45907142D01*
X100392857Y-45859523D01*
X100488095Y-45859523D01*
X100630952Y-45907142D01*
X101202380Y-46478571D01*
X101202380Y-45859523D01*
D11*
X99266666Y-39235714D02*
X99228571Y-39273809D01*
X99114285Y-39311904D01*
X99038095Y-39311904D01*
X98923809Y-39273809D01*
X98847619Y-39197619D01*
X98809523Y-39121428D01*
X98771428Y-38969047D01*
X98771428Y-38854761D01*
X98809523Y-38702380D01*
X98847619Y-38626190D01*
X98923809Y-38550000D01*
X99038095Y-38511904D01*
X99114285Y-38511904D01*
X99228571Y-38550000D01*
X99266666Y-38588095D01*
X99533333Y-38511904D02*
X100028571Y-38511904D01*
X99761904Y-38816666D01*
X99876190Y-38816666D01*
X99952380Y-38854761D01*
X99990476Y-38892857D01*
X100028571Y-38969047D01*
X100028571Y-39159523D01*
X99990476Y-39235714D01*
X99952380Y-39273809D01*
X99876190Y-39311904D01*
X99647619Y-39311904D01*
X99571428Y-39273809D01*
X99533333Y-39235714D01*
D12*
X98535714Y-43333333D02*
X98573809Y-43371428D01*
X98611904Y-43485714D01*
X98611904Y-43561904D01*
X98573809Y-43676190D01*
X98497619Y-43752380D01*
X98421428Y-43790476D01*
X98269047Y-43828571D01*
X98154761Y-43828571D01*
X98002380Y-43790476D01*
X97926190Y-43752380D01*
X97850000Y-43676190D01*
X97811904Y-43561904D01*
X97811904Y-43485714D01*
X97850000Y-43371428D01*
X97888095Y-43333333D01*
X98154761Y-42876190D02*
X98116666Y-42952380D01*
X98078571Y-42990476D01*
X98002380Y-43028571D01*
X97964285Y-43028571D01*
X97888095Y-42990476D01*
X97850000Y-42952380D01*
X97811904Y-42876190D01*
X97811904Y-42723809D01*
X97850000Y-42647619D01*
X97888095Y-42609523D01*
X97964285Y-42571428D01*
X98002380Y-42571428D01*
X98078571Y-42609523D01*
X98116666Y-42647619D01*
X98154761Y-42723809D01*
X98154761Y-42876190D01*
X98192857Y-42952380D01*
X98230952Y-42990476D01*
X98307142Y-43028571D01*
X98459523Y-43028571D01*
X98535714Y-42990476D01*
X98573809Y-42952380D01*
X98611904Y-42876190D01*
X98611904Y-42723809D01*
X98573809Y-42647619D01*
X98535714Y-42609523D01*
X98459523Y-42571428D01*
X98307142Y-42571428D01*
X98230952Y-42609523D01*
X98192857Y-42647619D01*
X98154761Y-42723809D01*
D10*
X112083333Y-43807142D02*
X112035714Y-43854761D01*
X111892857Y-43902380D01*
X111797619Y-43902380D01*
X111654761Y-43854761D01*
X111559523Y-43759523D01*
X111511904Y-43664285D01*
X111464285Y-43473809D01*
X111464285Y-43330952D01*
X111511904Y-43140476D01*
X111559523Y-43045238D01*
X111654761Y-42950000D01*
X111797619Y-42902380D01*
X111892857Y-42902380D01*
X112035714Y-42950000D01*
X112083333Y-42997619D01*
X113035714Y-43902380D02*
X112464285Y-43902380D01*
X112750000Y-43902380D02*
X112750000Y-42902380D01*
X112654761Y-43045238D01*
X112559523Y-43140476D01*
X112464285Y-43188095D01*
X100202380Y-34366666D02*
X99726190Y-34700000D01*
X100202380Y-34938095D02*
X99202380Y-34938095D01*
X99202380Y-34557142D01*
X99250000Y-34461904D01*
X99297619Y-34414285D01*
X99392857Y-34366666D01*
X99535714Y-34366666D01*
X99630952Y-34414285D01*
X99678571Y-34461904D01*
X99726190Y-34557142D01*
X99726190Y-34938095D01*
X99297619Y-33985714D02*
X99250000Y-33938095D01*
X99202380Y-33842857D01*
X99202380Y-33604761D01*
X99250000Y-33509523D01*
X99297619Y-33461904D01*
X99392857Y-33414285D01*
X99488095Y-33414285D01*
X99630952Y-33461904D01*
X100202380Y-34033333D01*
X100202380Y-33414285D01*
X93857142Y-29057142D02*
X93809523Y-29104761D01*
X93666666Y-29152380D01*
X93571428Y-29152380D01*
X93428571Y-29104761D01*
X93333333Y-29009523D01*
X93285714Y-28914285D01*
X93238095Y-28723809D01*
X93238095Y-28580952D01*
X93285714Y-28390476D01*
X93333333Y-28295238D01*
X93428571Y-28200000D01*
X93571428Y-28152380D01*
X93666666Y-28152380D01*
X93809523Y-28200000D01*
X93857142Y-28247619D01*
X94190476Y-28152380D02*
X94809523Y-28152380D01*
X94476190Y-28533333D01*
X94619047Y-28533333D01*
X94714285Y-28580952D01*
X94761904Y-28628571D01*
X94809523Y-28723809D01*
X94809523Y-28961904D01*
X94761904Y-29057142D01*
X94714285Y-29104761D01*
X94619047Y-29152380D01*
X94333333Y-29152380D01*
X94238095Y-29104761D01*
X94190476Y-29057142D01*
X95142857Y-28152380D02*
X95761904Y-28152380D01*
X95428571Y-28533333D01*
X95571428Y-28533333D01*
X95666666Y-28580952D01*
X95714285Y-28628571D01*
X95761904Y-28723809D01*
X95761904Y-28961904D01*
X95714285Y-29057142D01*
X95666666Y-29104761D01*
X95571428Y-29152380D01*
X95285714Y-29152380D01*
X95190476Y-29104761D01*
X95142857Y-29057142D01*
X120107142Y-44152380D02*
X119773809Y-43676190D01*
X119535714Y-44152380D02*
X119535714Y-43152380D01*
X119916666Y-43152380D01*
X120011904Y-43200000D01*
X120059523Y-43247619D01*
X120107142Y-43342857D01*
X120107142Y-43485714D01*
X120059523Y-43580952D01*
X120011904Y-43628571D01*
X119916666Y-43676190D01*
X119535714Y-43676190D01*
X121059523Y-44152380D02*
X120488095Y-44152380D01*
X120773809Y-44152380D02*
X120773809Y-43152380D01*
X120678571Y-43295238D01*
X120583333Y-43390476D01*
X120488095Y-43438095D01*
X121964285Y-43152380D02*
X121488095Y-43152380D01*
X121440476Y-43628571D01*
X121488095Y-43580952D01*
X121583333Y-43533333D01*
X121821428Y-43533333D01*
X121916666Y-43580952D01*
X121964285Y-43628571D01*
X122011904Y-43723809D01*
X122011904Y-43961904D01*
X121964285Y-44057142D01*
X121916666Y-44104761D01*
X121821428Y-44152380D01*
X121583333Y-44152380D01*
X121488095Y-44104761D01*
X121440476Y-44057142D01*
X111161904Y-22002380D02*
X111161904Y-21002380D01*
X111400000Y-21002380D01*
X111542857Y-21050000D01*
X111638095Y-21145238D01*
X111685714Y-21240476D01*
X111733333Y-21430952D01*
X111733333Y-21573809D01*
X111685714Y-21764285D01*
X111638095Y-21859523D01*
X111542857Y-21954761D01*
X111400000Y-22002380D01*
X111161904Y-22002380D01*
X112590476Y-21335714D02*
X112590476Y-22002380D01*
X112352380Y-20954761D02*
X112114285Y-21669047D01*
X112733333Y-21669047D01*
X83452380Y-38866666D02*
X82976190Y-39200000D01*
X83452380Y-39438095D02*
X82452380Y-39438095D01*
X82452380Y-39057142D01*
X82500000Y-38961904D01*
X82547619Y-38914285D01*
X82642857Y-38866666D01*
X82785714Y-38866666D01*
X82880952Y-38914285D01*
X82928571Y-38961904D01*
X82976190Y-39057142D01*
X82976190Y-39438095D01*
X82785714Y-38009523D02*
X83452380Y-38009523D01*
X82404761Y-38247619D02*
X83119047Y-38485714D01*
X83119047Y-37866666D01*
X92607142Y-21307142D02*
X92559523Y-21354761D01*
X92416666Y-21402380D01*
X92321428Y-21402380D01*
X92178571Y-21354761D01*
X92083333Y-21259523D01*
X92035714Y-21164285D01*
X91988095Y-20973809D01*
X91988095Y-20830952D01*
X92035714Y-20640476D01*
X92083333Y-20545238D01*
X92178571Y-20450000D01*
X92321428Y-20402380D01*
X92416666Y-20402380D01*
X92559523Y-20450000D01*
X92607142Y-20497619D01*
X92988095Y-20497619D02*
X93035714Y-20450000D01*
X93130952Y-20402380D01*
X93369047Y-20402380D01*
X93464285Y-20450000D01*
X93511904Y-20497619D01*
X93559523Y-20592857D01*
X93559523Y-20688095D01*
X93511904Y-20830952D01*
X92940476Y-21402380D01*
X93559523Y-21402380D01*
X94416666Y-20735714D02*
X94416666Y-21402380D01*
X94178571Y-20354761D02*
X93940476Y-21069047D01*
X94559523Y-21069047D01*
X99557142Y-22002380D02*
X99223809Y-21526190D01*
X98985714Y-22002380D02*
X98985714Y-21002380D01*
X99366666Y-21002380D01*
X99461904Y-21050000D01*
X99509523Y-21097619D01*
X99557142Y-21192857D01*
X99557142Y-21335714D01*
X99509523Y-21430952D01*
X99461904Y-21478571D01*
X99366666Y-21526190D01*
X98985714Y-21526190D01*
X100509523Y-22002380D02*
X99938095Y-22002380D01*
X100223809Y-22002380D02*
X100223809Y-21002380D01*
X100128571Y-21145238D01*
X100033333Y-21240476D01*
X99938095Y-21288095D01*
X100890476Y-21097619D02*
X100938095Y-21050000D01*
X101033333Y-21002380D01*
X101271428Y-21002380D01*
X101366666Y-21050000D01*
X101414285Y-21097619D01*
X101461904Y-21192857D01*
X101461904Y-21288095D01*
X101414285Y-21430952D01*
X100842857Y-22002380D01*
X101461904Y-22002380D01*
X120761904Y-48902380D02*
X120761904Y-47902380D01*
X121000000Y-47902380D01*
X121142857Y-47950000D01*
X121238095Y-48045238D01*
X121285714Y-48140476D01*
X121333333Y-48330952D01*
X121333333Y-48473809D01*
X121285714Y-48664285D01*
X121238095Y-48759523D01*
X121142857Y-48854761D01*
X121000000Y-48902380D01*
X120761904Y-48902380D01*
X122285714Y-48902380D02*
X121714285Y-48902380D01*
X122000000Y-48902380D02*
X122000000Y-47902380D01*
X121904761Y-48045238D01*
X121809523Y-48140476D01*
X121714285Y-48188095D01*
X105857142Y-48092857D02*
X105904761Y-48140476D01*
X105952380Y-48283333D01*
X105952380Y-48378571D01*
X105904761Y-48521428D01*
X105809523Y-48616666D01*
X105714285Y-48664285D01*
X105523809Y-48711904D01*
X105380952Y-48711904D01*
X105190476Y-48664285D01*
X105095238Y-48616666D01*
X105000000Y-48521428D01*
X104952380Y-48378571D01*
X104952380Y-48283333D01*
X105000000Y-48140476D01*
X105047619Y-48092857D01*
X105952380Y-47140476D02*
X105952380Y-47711904D01*
X105952380Y-47426190D02*
X104952380Y-47426190D01*
X105095238Y-47521428D01*
X105190476Y-47616666D01*
X105238095Y-47711904D01*
X105380952Y-46569047D02*
X105333333Y-46664285D01*
X105285714Y-46711904D01*
X105190476Y-46759523D01*
X105142857Y-46759523D01*
X105047619Y-46711904D01*
X105000000Y-46664285D01*
X104952380Y-46569047D01*
X104952380Y-46378571D01*
X105000000Y-46283333D01*
X105047619Y-46235714D01*
X105142857Y-46188095D01*
X105190476Y-46188095D01*
X105285714Y-46235714D01*
X105333333Y-46283333D01*
X105380952Y-46378571D01*
X105380952Y-46569047D01*
X105428571Y-46664285D01*
X105476190Y-46711904D01*
X105571428Y-46759523D01*
X105761904Y-46759523D01*
X105857142Y-46711904D01*
X105904761Y-46664285D01*
X105952380Y-46569047D01*
X105952380Y-46378571D01*
X105904761Y-46283333D01*
X105857142Y-46235714D01*
X105761904Y-46188095D01*
X105571428Y-46188095D01*
X105476190Y-46235714D01*
X105428571Y-46283333D01*
X105380952Y-46378571D01*
D13*
X100622000Y-76786500D02*
X101347714Y-76786500D01*
X100476857Y-77221928D02*
X100984857Y-75697928D01*
X101492857Y-77221928D01*
X102000857Y-76423642D02*
X102508857Y-76423642D01*
X102726571Y-77221928D02*
X102000857Y-77221928D01*
X102000857Y-75697928D01*
X102726571Y-75697928D01*
X104178000Y-77221928D02*
X103307142Y-77221928D01*
X103742571Y-77221928D02*
X103742571Y-75697928D01*
X103597428Y-75915642D01*
X103452285Y-76060785D01*
X103307142Y-76133357D01*
D10*
X112038095Y-34302380D02*
X112038095Y-35111904D01*
X112085714Y-35207142D01*
X112133333Y-35254761D01*
X112228571Y-35302380D01*
X112419047Y-35302380D01*
X112514285Y-35254761D01*
X112561904Y-35207142D01*
X112609523Y-35111904D01*
X112609523Y-34302380D01*
X113514285Y-34635714D02*
X113514285Y-35302380D01*
X113276190Y-34254761D02*
X113038095Y-34969047D01*
X113657142Y-34969047D01*
X119500000Y-39652380D02*
X119500000Y-39890476D01*
X119261904Y-39795238D02*
X119500000Y-39890476D01*
X119738095Y-39795238D01*
X119357142Y-40080952D02*
X119500000Y-39890476D01*
X119642857Y-40080952D01*
X114757142Y-34802380D02*
X114423809Y-34326190D01*
X114185714Y-34802380D02*
X114185714Y-33802380D01*
X114566666Y-33802380D01*
X114661904Y-33850000D01*
X114709523Y-33897619D01*
X114757142Y-33992857D01*
X114757142Y-34135714D01*
X114709523Y-34230952D01*
X114661904Y-34278571D01*
X114566666Y-34326190D01*
X114185714Y-34326190D01*
X115709523Y-34802380D02*
X115138095Y-34802380D01*
X115423809Y-34802380D02*
X115423809Y-33802380D01*
X115328571Y-33945238D01*
X115233333Y-34040476D01*
X115138095Y-34088095D01*
X116185714Y-34802380D02*
X116376190Y-34802380D01*
X116471428Y-34754761D01*
X116519047Y-34707142D01*
X116614285Y-34564285D01*
X116661904Y-34373809D01*
X116661904Y-33992857D01*
X116614285Y-33897619D01*
X116566666Y-33850000D01*
X116471428Y-33802380D01*
X116280952Y-33802380D01*
X116185714Y-33850000D01*
X116138095Y-33897619D01*
X116090476Y-33992857D01*
X116090476Y-34230952D01*
X116138095Y-34326190D01*
X116185714Y-34373809D01*
X116280952Y-34421428D01*
X116471428Y-34421428D01*
X116566666Y-34373809D01*
X116614285Y-34326190D01*
X116661904Y-34230952D01*
X89404880Y-39526154D02*
X90214404Y-39526154D01*
X90309642Y-39478535D01*
X90357261Y-39430916D01*
X90404880Y-39335678D01*
X90404880Y-39145202D01*
X90357261Y-39049964D01*
X90309642Y-39002345D01*
X90214404Y-38954726D01*
X89404880Y-38954726D01*
X90404880Y-37954726D02*
X90404880Y-38526154D01*
X90404880Y-38240440D02*
X89404880Y-38240440D01*
X89547738Y-38335678D01*
X89642976Y-38430916D01*
X89690595Y-38526154D01*
X86352380Y-32711904D02*
X87161904Y-32711904D01*
X87257142Y-32664285D01*
X87304761Y-32616666D01*
X87352380Y-32521428D01*
X87352380Y-32330952D01*
X87304761Y-32235714D01*
X87257142Y-32188095D01*
X87161904Y-32140476D01*
X86352380Y-32140476D01*
X86352380Y-31235714D02*
X86352380Y-31426190D01*
X86400000Y-31521428D01*
X86447619Y-31569047D01*
X86590476Y-31664285D01*
X86780952Y-31711904D01*
X87161904Y-31711904D01*
X87257142Y-31664285D01*
X87304761Y-31616666D01*
X87352380Y-31521428D01*
X87352380Y-31330952D01*
X87304761Y-31235714D01*
X87257142Y-31188095D01*
X87161904Y-31140476D01*
X86923809Y-31140476D01*
X86828571Y-31188095D01*
X86780952Y-31235714D01*
X86733333Y-31330952D01*
X86733333Y-31521428D01*
X86780952Y-31616666D01*
X86828571Y-31664285D01*
X86923809Y-31711904D01*
X100357142Y-31366666D02*
X100404761Y-31414285D01*
X100452380Y-31557142D01*
X100452380Y-31652380D01*
X100404761Y-31795238D01*
X100309523Y-31890476D01*
X100214285Y-31938095D01*
X100023809Y-31985714D01*
X99880952Y-31985714D01*
X99690476Y-31938095D01*
X99595238Y-31890476D01*
X99500000Y-31795238D01*
X99452380Y-31652380D01*
X99452380Y-31557142D01*
X99500000Y-31414285D01*
X99547619Y-31366666D01*
X99452380Y-30461904D02*
X99452380Y-30938095D01*
X99928571Y-30985714D01*
X99880952Y-30938095D01*
X99833333Y-30842857D01*
X99833333Y-30604761D01*
X99880952Y-30509523D01*
X99928571Y-30461904D01*
X100023809Y-30414285D01*
X100261904Y-30414285D01*
X100357142Y-30461904D01*
X100404761Y-30509523D01*
X100452380Y-30604761D01*
X100452380Y-30842857D01*
X100404761Y-30938095D01*
X100357142Y-30985714D01*
X99159642Y-29342857D02*
X99207261Y-29390476D01*
X99254880Y-29533333D01*
X99254880Y-29628571D01*
X99207261Y-29771428D01*
X99112023Y-29866666D01*
X99016785Y-29914285D01*
X98826309Y-29961904D01*
X98683452Y-29961904D01*
X98492976Y-29914285D01*
X98397738Y-29866666D01*
X98302500Y-29771428D01*
X98254880Y-29628571D01*
X98254880Y-29533333D01*
X98302500Y-29390476D01*
X98350119Y-29342857D01*
X98350119Y-28961904D02*
X98302500Y-28914285D01*
X98254880Y-28819047D01*
X98254880Y-28580952D01*
X98302500Y-28485714D01*
X98350119Y-28438095D01*
X98445357Y-28390476D01*
X98540595Y-28390476D01*
X98683452Y-28438095D01*
X99254880Y-29009523D01*
X99254880Y-28390476D01*
X98683452Y-27819047D02*
X98635833Y-27914285D01*
X98588214Y-27961904D01*
X98492976Y-28009523D01*
X98445357Y-28009523D01*
X98350119Y-27961904D01*
X98302500Y-27914285D01*
X98254880Y-27819047D01*
X98254880Y-27628571D01*
X98302500Y-27533333D01*
X98350119Y-27485714D01*
X98445357Y-27438095D01*
X98492976Y-27438095D01*
X98588214Y-27485714D01*
X98635833Y-27533333D01*
X98683452Y-27628571D01*
X98683452Y-27819047D01*
X98731071Y-27914285D01*
X98778690Y-27961904D01*
X98873928Y-28009523D01*
X99064404Y-28009523D01*
X99159642Y-27961904D01*
X99207261Y-27914285D01*
X99254880Y-27819047D01*
X99254880Y-27628571D01*
X99207261Y-27533333D01*
X99159642Y-27485714D01*
X99064404Y-27438095D01*
X98873928Y-27438095D01*
X98778690Y-27485714D01*
X98731071Y-27533333D01*
X98683452Y-27628571D01*
X87357142Y-26107142D02*
X87309523Y-26154761D01*
X87166666Y-26202380D01*
X87071428Y-26202380D01*
X86928571Y-26154761D01*
X86833333Y-26059523D01*
X86785714Y-25964285D01*
X86738095Y-25773809D01*
X86738095Y-25630952D01*
X86785714Y-25440476D01*
X86833333Y-25345238D01*
X86928571Y-25250000D01*
X87071428Y-25202380D01*
X87166666Y-25202380D01*
X87309523Y-25250000D01*
X87357142Y-25297619D01*
X87690476Y-25202380D02*
X88309523Y-25202380D01*
X87976190Y-25583333D01*
X88119047Y-25583333D01*
X88214285Y-25630952D01*
X88261904Y-25678571D01*
X88309523Y-25773809D01*
X88309523Y-26011904D01*
X88261904Y-26107142D01*
X88214285Y-26154761D01*
X88119047Y-26202380D01*
X87833333Y-26202380D01*
X87738095Y-26154761D01*
X87690476Y-26107142D01*
X89261904Y-26202380D02*
X88690476Y-26202380D01*
X88976190Y-26202380D02*
X88976190Y-25202380D01*
X88880952Y-25345238D01*
X88785714Y-25440476D01*
X88690476Y-25488095D01*
D11*
X107285714Y-25964285D02*
X107323809Y-26002380D01*
X107361904Y-26116666D01*
X107361904Y-26192857D01*
X107323809Y-26307142D01*
X107247619Y-26383333D01*
X107171428Y-26421428D01*
X107019047Y-26459523D01*
X106904761Y-26459523D01*
X106752380Y-26421428D01*
X106676190Y-26383333D01*
X106600000Y-26307142D01*
X106561904Y-26192857D01*
X106561904Y-26116666D01*
X106600000Y-26002380D01*
X106638095Y-25964285D01*
X106638095Y-25659523D02*
X106600000Y-25621428D01*
X106561904Y-25545238D01*
X106561904Y-25354761D01*
X106600000Y-25278571D01*
X106638095Y-25240476D01*
X106714285Y-25202380D01*
X106790476Y-25202380D01*
X106904761Y-25240476D01*
X107361904Y-25697619D01*
X107361904Y-25202380D01*
X106561904Y-24478571D02*
X106561904Y-24859523D01*
X106942857Y-24897619D01*
X106904761Y-24859523D01*
X106866666Y-24783333D01*
X106866666Y-24592857D01*
X106904761Y-24516666D01*
X106942857Y-24478571D01*
X107019047Y-24440476D01*
X107209523Y-24440476D01*
X107285714Y-24478571D01*
X107323809Y-24516666D01*
X107361904Y-24592857D01*
X107361904Y-24783333D01*
X107323809Y-24859523D01*
X107285714Y-24897619D01*
D10*
X97857142Y-38842857D02*
X97904761Y-38890476D01*
X97952380Y-39033333D01*
X97952380Y-39128571D01*
X97904761Y-39271428D01*
X97809523Y-39366666D01*
X97714285Y-39414285D01*
X97523809Y-39461904D01*
X97380952Y-39461904D01*
X97190476Y-39414285D01*
X97095238Y-39366666D01*
X97000000Y-39271428D01*
X96952380Y-39128571D01*
X96952380Y-39033333D01*
X97000000Y-38890476D01*
X97047619Y-38842857D01*
X97952380Y-37890476D02*
X97952380Y-38461904D01*
X97952380Y-38176190D02*
X96952380Y-38176190D01*
X97095238Y-38271428D01*
X97190476Y-38366666D01*
X97238095Y-38461904D01*
X96952380Y-36985714D02*
X96952380Y-37461904D01*
X97428571Y-37509523D01*
X97380952Y-37461904D01*
X97333333Y-37366666D01*
X97333333Y-37128571D01*
X97380952Y-37033333D01*
X97428571Y-36985714D01*
X97523809Y-36938095D01*
X97761904Y-36938095D01*
X97857142Y-36985714D01*
X97904761Y-37033333D01*
X97952380Y-37128571D01*
X97952380Y-37366666D01*
X97904761Y-37461904D01*
X97857142Y-37509523D01*
X110583333Y-39807142D02*
X110535714Y-39854761D01*
X110392857Y-39902380D01*
X110297619Y-39902380D01*
X110154761Y-39854761D01*
X110059523Y-39759523D01*
X110011904Y-39664285D01*
X109964285Y-39473809D01*
X109964285Y-39330952D01*
X110011904Y-39140476D01*
X110059523Y-39045238D01*
X110154761Y-38950000D01*
X110297619Y-38902380D01*
X110392857Y-38902380D01*
X110535714Y-38950000D01*
X110583333Y-38997619D01*
X110964285Y-38997619D02*
X111011904Y-38950000D01*
X111107142Y-38902380D01*
X111345238Y-38902380D01*
X111440476Y-38950000D01*
X111488095Y-38997619D01*
X111535714Y-39092857D01*
X111535714Y-39188095D01*
X111488095Y-39330952D01*
X110916666Y-39902380D01*
X111535714Y-39902380D01*
X98357142Y-45557142D02*
X98309523Y-45604761D01*
X98166666Y-45652380D01*
X98071428Y-45652380D01*
X97928571Y-45604761D01*
X97833333Y-45509523D01*
X97785714Y-45414285D01*
X97738095Y-45223809D01*
X97738095Y-45080952D01*
X97785714Y-44890476D01*
X97833333Y-44795238D01*
X97928571Y-44700000D01*
X98071428Y-44652380D01*
X98166666Y-44652380D01*
X98309523Y-44700000D01*
X98357142Y-44747619D01*
X99309523Y-45652380D02*
X98738095Y-45652380D01*
X99023809Y-45652380D02*
X99023809Y-44652380D01*
X98928571Y-44795238D01*
X98833333Y-44890476D01*
X98738095Y-44938095D01*
X100261904Y-45652380D02*
X99690476Y-45652380D01*
X99976190Y-45652380D02*
X99976190Y-44652380D01*
X99880952Y-44795238D01*
X99785714Y-44890476D01*
X99690476Y-44938095D01*
X109452380Y-42211904D02*
X110261904Y-42211904D01*
X110357142Y-42164285D01*
X110404761Y-42116666D01*
X110452380Y-42021428D01*
X110452380Y-41830952D01*
X110404761Y-41735714D01*
X110357142Y-41688095D01*
X110261904Y-41640476D01*
X109452380Y-41640476D01*
X109547619Y-41211904D02*
X109500000Y-41164285D01*
X109452380Y-41069047D01*
X109452380Y-40830952D01*
X109500000Y-40735714D01*
X109547619Y-40688095D01*
X109642857Y-40640476D01*
X109738095Y-40640476D01*
X109880952Y-40688095D01*
X110452380Y-41259523D01*
X110452380Y-40640476D01*
X101702380Y-42950000D02*
X101940476Y-42950000D01*
X101845238Y-43188095D02*
X101940476Y-42950000D01*
X101845238Y-42711904D01*
X102130952Y-43092857D02*
X101940476Y-42950000D01*
X102130952Y-42807142D01*
X99633333Y-42507142D02*
X99585714Y-42554761D01*
X99442857Y-42602380D01*
X99347619Y-42602380D01*
X99204761Y-42554761D01*
X99109523Y-42459523D01*
X99061904Y-42364285D01*
X99014285Y-42173809D01*
X99014285Y-42030952D01*
X99061904Y-41840476D01*
X99109523Y-41745238D01*
X99204761Y-41650000D01*
X99347619Y-41602380D01*
X99442857Y-41602380D01*
X99585714Y-41650000D01*
X99633333Y-41697619D01*
X99966666Y-41602380D02*
X100633333Y-41602380D01*
X100204761Y-42602380D01*
X106726190Y-49676190D02*
X107202380Y-49676190D01*
X106202380Y-50009523D02*
X106726190Y-49676190D01*
X106202380Y-49342857D01*
X106297619Y-49057142D02*
X106250000Y-49009523D01*
X106202380Y-48914285D01*
X106202380Y-48676190D01*
X106250000Y-48580952D01*
X106297619Y-48533333D01*
X106392857Y-48485714D01*
X106488095Y-48485714D01*
X106630952Y-48533333D01*
X107202380Y-49104761D01*
X107202380Y-48485714D01*
X120107142Y-45402380D02*
X119773809Y-44926190D01*
X119535714Y-45402380D02*
X119535714Y-44402380D01*
X119916666Y-44402380D01*
X120011904Y-44450000D01*
X120059523Y-44497619D01*
X120107142Y-44592857D01*
X120107142Y-44735714D01*
X120059523Y-44830952D01*
X120011904Y-44878571D01*
X119916666Y-44926190D01*
X119535714Y-44926190D01*
X121059523Y-45402380D02*
X120488095Y-45402380D01*
X120773809Y-45402380D02*
X120773809Y-44402380D01*
X120678571Y-44545238D01*
X120583333Y-44640476D01*
X120488095Y-44688095D01*
X121916666Y-44735714D02*
X121916666Y-45402380D01*
X121678571Y-44354761D02*
X121440476Y-45069047D01*
X122059523Y-45069047D01*
X113866666Y-28502380D02*
X113866666Y-29216666D01*
X113819047Y-29359523D01*
X113723809Y-29454761D01*
X113580952Y-29502380D01*
X113485714Y-29502380D01*
X114247619Y-28502380D02*
X114866666Y-28502380D01*
X114533333Y-28883333D01*
X114676190Y-28883333D01*
X114771428Y-28930952D01*
X114819047Y-28978571D01*
X114866666Y-29073809D01*
X114866666Y-29311904D01*
X114819047Y-29407142D01*
X114771428Y-29454761D01*
X114676190Y-29502380D01*
X114390476Y-29502380D01*
X114295238Y-29454761D01*
X114247619Y-29407142D01*
X86904761Y-30033333D02*
X86952380Y-29890476D01*
X86952380Y-29652380D01*
X86904761Y-29557142D01*
X86857142Y-29509523D01*
X86761904Y-29461904D01*
X86666666Y-29461904D01*
X86571428Y-29509523D01*
X86523809Y-29557142D01*
X86476190Y-29652380D01*
X86428571Y-29842857D01*
X86380952Y-29938095D01*
X86333333Y-29985714D01*
X86238095Y-30033333D01*
X86142857Y-30033333D01*
X86047619Y-29985714D01*
X86000000Y-29938095D01*
X85952380Y-29842857D01*
X85952380Y-29604761D01*
X86000000Y-29461904D01*
X85952380Y-29128571D02*
X86952380Y-28890476D01*
X86238095Y-28700000D01*
X86952380Y-28509523D01*
X85952380Y-28271428D01*
X86952380Y-27366666D02*
X86952380Y-27938095D01*
X86952380Y-27652380D02*
X85952380Y-27652380D01*
X86095238Y-27747619D01*
X86190476Y-27842857D01*
X86238095Y-27938095D01*
X118811666Y-52584880D02*
X118811666Y-53299166D01*
X118764047Y-53442023D01*
X118668809Y-53537261D01*
X118525952Y-53584880D01*
X118430714Y-53584880D01*
X119240238Y-52680119D02*
X119287857Y-52632500D01*
X119383095Y-52584880D01*
X119621190Y-52584880D01*
X119716428Y-52632500D01*
X119764047Y-52680119D01*
X119811666Y-52775357D01*
X119811666Y-52870595D01*
X119764047Y-53013452D01*
X119192619Y-53584880D01*
X119811666Y-53584880D01*
X102766666Y-20902380D02*
X102766666Y-21616666D01*
X102719047Y-21759523D01*
X102623809Y-21854761D01*
X102480952Y-21902380D01*
X102385714Y-21902380D01*
X103766666Y-21902380D02*
X103195238Y-21902380D01*
X103480952Y-21902380D02*
X103480952Y-20902380D01*
X103385714Y-21045238D01*
X103290476Y-21140476D01*
X103195238Y-21188095D01*
X114357142Y-47892857D02*
X114404761Y-47940476D01*
X114452380Y-48083333D01*
X114452380Y-48178571D01*
X114404761Y-48321428D01*
X114309523Y-48416666D01*
X114214285Y-48464285D01*
X114023809Y-48511904D01*
X113880952Y-48511904D01*
X113690476Y-48464285D01*
X113595238Y-48416666D01*
X113500000Y-48321428D01*
X113452380Y-48178571D01*
X113452380Y-48083333D01*
X113500000Y-47940476D01*
X113547619Y-47892857D01*
X113452380Y-47559523D02*
X113452380Y-46940476D01*
X113833333Y-47273809D01*
X113833333Y-47130952D01*
X113880952Y-47035714D01*
X113928571Y-46988095D01*
X114023809Y-46940476D01*
X114261904Y-46940476D01*
X114357142Y-46988095D01*
X114404761Y-47035714D01*
X114452380Y-47130952D01*
X114452380Y-47416666D01*
X114404761Y-47511904D01*
X114357142Y-47559523D01*
X113547619Y-46559523D02*
X113500000Y-46511904D01*
X113452380Y-46416666D01*
X113452380Y-46178571D01*
X113500000Y-46083333D01*
X113547619Y-46035714D01*
X113642857Y-45988095D01*
X113738095Y-45988095D01*
X113880952Y-46035714D01*
X114452380Y-46607142D01*
X114452380Y-45988095D01*
D11*
X108785714Y-23464285D02*
X108823809Y-23502380D01*
X108861904Y-23616666D01*
X108861904Y-23692857D01*
X108823809Y-23807142D01*
X108747619Y-23883333D01*
X108671428Y-23921428D01*
X108519047Y-23959523D01*
X108404761Y-23959523D01*
X108252380Y-23921428D01*
X108176190Y-23883333D01*
X108100000Y-23807142D01*
X108061904Y-23692857D01*
X108061904Y-23616666D01*
X108100000Y-23502380D01*
X108138095Y-23464285D01*
X108061904Y-23197619D02*
X108061904Y-22702380D01*
X108366666Y-22969047D01*
X108366666Y-22854761D01*
X108404761Y-22778571D01*
X108442857Y-22740476D01*
X108519047Y-22702380D01*
X108709523Y-22702380D01*
X108785714Y-22740476D01*
X108823809Y-22778571D01*
X108861904Y-22854761D01*
X108861904Y-23083333D01*
X108823809Y-23159523D01*
X108785714Y-23197619D01*
X108061904Y-22207142D02*
X108061904Y-22130952D01*
X108100000Y-22054761D01*
X108138095Y-22016666D01*
X108214285Y-21978571D01*
X108366666Y-21940476D01*
X108557142Y-21940476D01*
X108709523Y-21978571D01*
X108785714Y-22016666D01*
X108823809Y-22054761D01*
X108861904Y-22130952D01*
X108861904Y-22207142D01*
X108823809Y-22283333D01*
X108785714Y-22321428D01*
X108709523Y-22359523D01*
X108557142Y-22397619D01*
X108366666Y-22397619D01*
X108214285Y-22359523D01*
X108138095Y-22321428D01*
X108100000Y-22283333D01*
X108061904Y-22207142D01*
D10*
X103857142Y-51807142D02*
X103809523Y-51854761D01*
X103666666Y-51902380D01*
X103571428Y-51902380D01*
X103428571Y-51854761D01*
X103333333Y-51759523D01*
X103285714Y-51664285D01*
X103238095Y-51473809D01*
X103238095Y-51330952D01*
X103285714Y-51140476D01*
X103333333Y-51045238D01*
X103428571Y-50950000D01*
X103571428Y-50902380D01*
X103666666Y-50902380D01*
X103809523Y-50950000D01*
X103857142Y-50997619D01*
X104238095Y-50997619D02*
X104285714Y-50950000D01*
X104380952Y-50902380D01*
X104619047Y-50902380D01*
X104714285Y-50950000D01*
X104761904Y-50997619D01*
X104809523Y-51092857D01*
X104809523Y-51188095D01*
X104761904Y-51330952D01*
X104190476Y-51902380D01*
X104809523Y-51902380D01*
X105428571Y-50902380D02*
X105523809Y-50902380D01*
X105619047Y-50950000D01*
X105666666Y-50997619D01*
X105714285Y-51092857D01*
X105761904Y-51283333D01*
X105761904Y-51521428D01*
X105714285Y-51711904D01*
X105666666Y-51807142D01*
X105619047Y-51854761D01*
X105523809Y-51902380D01*
X105428571Y-51902380D01*
X105333333Y-51854761D01*
X105285714Y-51807142D01*
X105238095Y-51711904D01*
X105190476Y-51521428D01*
X105190476Y-51283333D01*
X105238095Y-51092857D01*
X105285714Y-50997619D01*
X105333333Y-50950000D01*
X105428571Y-50902380D01*
X99107142Y-31416666D02*
X99154761Y-31464285D01*
X99202380Y-31607142D01*
X99202380Y-31702380D01*
X99154761Y-31845238D01*
X99059523Y-31940476D01*
X98964285Y-31988095D01*
X98773809Y-32035714D01*
X98630952Y-32035714D01*
X98440476Y-31988095D01*
X98345238Y-31940476D01*
X98250000Y-31845238D01*
X98202380Y-31702380D01*
X98202380Y-31607142D01*
X98250000Y-31464285D01*
X98297619Y-31416666D01*
X98535714Y-30559523D02*
X99202380Y-30559523D01*
X98154761Y-30797619D02*
X98869047Y-31035714D01*
X98869047Y-30416666D01*
X101207142Y-63992857D02*
X101254761Y-64040476D01*
X101302380Y-64183333D01*
X101302380Y-64278571D01*
X101254761Y-64421428D01*
X101159523Y-64516666D01*
X101064285Y-64564285D01*
X100873809Y-64611904D01*
X100730952Y-64611904D01*
X100540476Y-64564285D01*
X100445238Y-64516666D01*
X100350000Y-64421428D01*
X100302380Y-64278571D01*
X100302380Y-64183333D01*
X100350000Y-64040476D01*
X100397619Y-63992857D01*
X101302380Y-63040476D02*
X101302380Y-63611904D01*
X101302380Y-63326190D02*
X100302380Y-63326190D01*
X100445238Y-63421428D01*
X100540476Y-63516666D01*
X100588095Y-63611904D01*
X100302380Y-62707142D02*
X100302380Y-62040476D01*
X101302380Y-62469047D01*
X118061904Y-23302380D02*
X118061904Y-22302380D01*
X118442857Y-22302380D01*
X118538095Y-22350000D01*
X118585714Y-22397619D01*
X118633333Y-22492857D01*
X118633333Y-22635714D01*
X118585714Y-22730952D01*
X118538095Y-22778571D01*
X118442857Y-22826190D01*
X118061904Y-22826190D01*
X119585714Y-23302380D02*
X119014285Y-23302380D01*
X119300000Y-23302380D02*
X119300000Y-22302380D01*
X119204761Y-22445238D01*
X119109523Y-22540476D01*
X119014285Y-22588095D01*
X111107142Y-36807142D02*
X111059523Y-36854761D01*
X110916666Y-36902380D01*
X110821428Y-36902380D01*
X110678571Y-36854761D01*
X110583333Y-36759523D01*
X110535714Y-36664285D01*
X110488095Y-36473809D01*
X110488095Y-36330952D01*
X110535714Y-36140476D01*
X110583333Y-36045238D01*
X110678571Y-35950000D01*
X110821428Y-35902380D01*
X110916666Y-35902380D01*
X111059523Y-35950000D01*
X111107142Y-35997619D01*
X111488095Y-35997619D02*
X111535714Y-35950000D01*
X111630952Y-35902380D01*
X111869047Y-35902380D01*
X111964285Y-35950000D01*
X112011904Y-35997619D01*
X112059523Y-36092857D01*
X112059523Y-36188095D01*
X112011904Y-36330952D01*
X111440476Y-36902380D01*
X112059523Y-36902380D01*
X112440476Y-35997619D02*
X112488095Y-35950000D01*
X112583333Y-35902380D01*
X112821428Y-35902380D01*
X112916666Y-35950000D01*
X112964285Y-35997619D01*
X113011904Y-36092857D01*
X113011904Y-36188095D01*
X112964285Y-36330952D01*
X112392857Y-36902380D01*
X113011904Y-36902380D01*
X99857142Y-48557142D02*
X99809523Y-48604761D01*
X99666666Y-48652380D01*
X99571428Y-48652380D01*
X99428571Y-48604761D01*
X99333333Y-48509523D01*
X99285714Y-48414285D01*
X99238095Y-48223809D01*
X99238095Y-48080952D01*
X99285714Y-47890476D01*
X99333333Y-47795238D01*
X99428571Y-47700000D01*
X99571428Y-47652380D01*
X99666666Y-47652380D01*
X99809523Y-47700000D01*
X99857142Y-47747619D01*
X100809523Y-48652380D02*
X100238095Y-48652380D01*
X100523809Y-48652380D02*
X100523809Y-47652380D01*
X100428571Y-47795238D01*
X100333333Y-47890476D01*
X100238095Y-47938095D01*
X101285714Y-48652380D02*
X101476190Y-48652380D01*
X101571428Y-48604761D01*
X101619047Y-48557142D01*
X101714285Y-48414285D01*
X101761904Y-48223809D01*
X101761904Y-47842857D01*
X101714285Y-47747619D01*
X101666666Y-47700000D01*
X101571428Y-47652380D01*
X101380952Y-47652380D01*
X101285714Y-47700000D01*
X101238095Y-47747619D01*
X101190476Y-47842857D01*
X101190476Y-48080952D01*
X101238095Y-48176190D01*
X101285714Y-48223809D01*
X101380952Y-48271428D01*
X101571428Y-48271428D01*
X101666666Y-48223809D01*
X101714285Y-48176190D01*
X101761904Y-48080952D01*
X97634070Y-29092857D02*
X97681689Y-29140476D01*
X97729308Y-29283333D01*
X97729308Y-29378571D01*
X97681689Y-29521428D01*
X97586451Y-29616666D01*
X97491213Y-29664285D01*
X97300737Y-29711904D01*
X97157880Y-29711904D01*
X96967404Y-29664285D01*
X96872166Y-29616666D01*
X96776928Y-29521428D01*
X96729308Y-29378571D01*
X96729308Y-29283333D01*
X96776928Y-29140476D01*
X96824547Y-29092857D01*
X96824547Y-28711904D02*
X96776928Y-28664285D01*
X96729308Y-28569047D01*
X96729308Y-28330952D01*
X96776928Y-28235714D01*
X96824547Y-28188095D01*
X96919785Y-28140476D01*
X97015023Y-28140476D01*
X97157880Y-28188095D01*
X97729308Y-28759523D01*
X97729308Y-28140476D01*
X96729308Y-27807142D02*
X96729308Y-27140476D01*
X97729308Y-27569047D01*
X119055380Y-49455666D02*
X118579190Y-49789000D01*
X119055380Y-50027095D02*
X118055380Y-50027095D01*
X118055380Y-49646142D01*
X118103000Y-49550904D01*
X118150619Y-49503285D01*
X118245857Y-49455666D01*
X118388714Y-49455666D01*
X118483952Y-49503285D01*
X118531571Y-49550904D01*
X118579190Y-49646142D01*
X118579190Y-50027095D01*
X119055380Y-48503285D02*
X119055380Y-49074714D01*
X119055380Y-48789000D02*
X118055380Y-48789000D01*
X118198238Y-48884238D01*
X118293476Y-48979476D01*
X118341095Y-49074714D01*
X99857142Y-54807142D02*
X99809523Y-54854761D01*
X99666666Y-54902380D01*
X99571428Y-54902380D01*
X99428571Y-54854761D01*
X99333333Y-54759523D01*
X99285714Y-54664285D01*
X99238095Y-54473809D01*
X99238095Y-54330952D01*
X99285714Y-54140476D01*
X99333333Y-54045238D01*
X99428571Y-53950000D01*
X99571428Y-53902380D01*
X99666666Y-53902380D01*
X99809523Y-53950000D01*
X99857142Y-53997619D01*
X100238095Y-53997619D02*
X100285714Y-53950000D01*
X100380952Y-53902380D01*
X100619047Y-53902380D01*
X100714285Y-53950000D01*
X100761904Y-53997619D01*
X100809523Y-54092857D01*
X100809523Y-54188095D01*
X100761904Y-54330952D01*
X100190476Y-54902380D01*
X100809523Y-54902380D01*
X101761904Y-54902380D02*
X101190476Y-54902380D01*
X101476190Y-54902380D02*
X101476190Y-53902380D01*
X101380952Y-54045238D01*
X101285714Y-54140476D01*
X101190476Y-54188095D01*
X85202380Y-44938095D02*
X84202380Y-44938095D01*
X84202380Y-44700000D01*
X84250000Y-44557142D01*
X84345238Y-44461904D01*
X84440476Y-44414285D01*
X84630952Y-44366666D01*
X84773809Y-44366666D01*
X84964285Y-44414285D01*
X85059523Y-44461904D01*
X85154761Y-44557142D01*
X85202380Y-44700000D01*
X85202380Y-44938095D01*
X84202380Y-44033333D02*
X84202380Y-43414285D01*
X84583333Y-43747619D01*
X84583333Y-43604761D01*
X84630952Y-43509523D01*
X84678571Y-43461904D01*
X84773809Y-43414285D01*
X85011904Y-43414285D01*
X85107142Y-43461904D01*
X85154761Y-43509523D01*
X85202380Y-43604761D01*
X85202380Y-43890476D01*
X85154761Y-43985714D01*
X85107142Y-44033333D01*
X112357142Y-50116666D02*
X112404761Y-50164285D01*
X112452380Y-50307142D01*
X112452380Y-50402380D01*
X112404761Y-50545238D01*
X112309523Y-50640476D01*
X112214285Y-50688095D01*
X112023809Y-50735714D01*
X111880952Y-50735714D01*
X111690476Y-50688095D01*
X111595238Y-50640476D01*
X111500000Y-50545238D01*
X111452380Y-50402380D01*
X111452380Y-50307142D01*
X111500000Y-50164285D01*
X111547619Y-50116666D01*
X112452380Y-49640476D02*
X112452380Y-49450000D01*
X112404761Y-49354761D01*
X112357142Y-49307142D01*
X112214285Y-49211904D01*
X112023809Y-49164285D01*
X111642857Y-49164285D01*
X111547619Y-49211904D01*
X111500000Y-49259523D01*
X111452380Y-49354761D01*
X111452380Y-49545238D01*
X111500000Y-49640476D01*
X111547619Y-49688095D01*
X111642857Y-49735714D01*
X111880952Y-49735714D01*
X111976190Y-49688095D01*
X112023809Y-49640476D01*
X112071428Y-49545238D01*
X112071428Y-49354761D01*
X112023809Y-49259523D01*
X111976190Y-49211904D01*
X111880952Y-49164285D01*
X107857142Y-21102380D02*
X107523809Y-20626190D01*
X107285714Y-21102380D02*
X107285714Y-20102380D01*
X107666666Y-20102380D01*
X107761904Y-20150000D01*
X107809523Y-20197619D01*
X107857142Y-20292857D01*
X107857142Y-20435714D01*
X107809523Y-20530952D01*
X107761904Y-20578571D01*
X107666666Y-20626190D01*
X107285714Y-20626190D01*
X108238095Y-20197619D02*
X108285714Y-20150000D01*
X108380952Y-20102380D01*
X108619047Y-20102380D01*
X108714285Y-20150000D01*
X108761904Y-20197619D01*
X108809523Y-20292857D01*
X108809523Y-20388095D01*
X108761904Y-20530952D01*
X108190476Y-21102380D01*
X108809523Y-21102380D01*
X109428571Y-20102380D02*
X109523809Y-20102380D01*
X109619047Y-20150000D01*
X109666666Y-20197619D01*
X109714285Y-20292857D01*
X109761904Y-20483333D01*
X109761904Y-20721428D01*
X109714285Y-20911904D01*
X109666666Y-21007142D01*
X109619047Y-21054761D01*
X109523809Y-21102380D01*
X109428571Y-21102380D01*
X109333333Y-21054761D01*
X109285714Y-21007142D01*
X109238095Y-20911904D01*
X109190476Y-20721428D01*
X109190476Y-20483333D01*
X109238095Y-20292857D01*
X109285714Y-20197619D01*
X109333333Y-20150000D01*
X109428571Y-20102380D01*
X112457142Y-47992857D02*
X112504761Y-48040476D01*
X112552380Y-48183333D01*
X112552380Y-48278571D01*
X112504761Y-48421428D01*
X112409523Y-48516666D01*
X112314285Y-48564285D01*
X112123809Y-48611904D01*
X111980952Y-48611904D01*
X111790476Y-48564285D01*
X111695238Y-48516666D01*
X111600000Y-48421428D01*
X111552380Y-48278571D01*
X111552380Y-48183333D01*
X111600000Y-48040476D01*
X111647619Y-47992857D01*
X112552380Y-47040476D02*
X112552380Y-47611904D01*
X112552380Y-47326190D02*
X111552380Y-47326190D01*
X111695238Y-47421428D01*
X111790476Y-47516666D01*
X111838095Y-47611904D01*
X111552380Y-46421428D02*
X111552380Y-46326190D01*
X111600000Y-46230952D01*
X111647619Y-46183333D01*
X111742857Y-46135714D01*
X111933333Y-46088095D01*
X112171428Y-46088095D01*
X112361904Y-46135714D01*
X112457142Y-46183333D01*
X112504761Y-46230952D01*
X112552380Y-46326190D01*
X112552380Y-46421428D01*
X112504761Y-46516666D01*
X112457142Y-46564285D01*
X112361904Y-46611904D01*
X112171428Y-46659523D01*
X111933333Y-46659523D01*
X111742857Y-46611904D01*
X111647619Y-46564285D01*
X111600000Y-46516666D01*
X111552380Y-46421428D01*
X101452380Y-59616666D02*
X101452380Y-60092857D01*
X100452380Y-60092857D01*
X100452380Y-58854761D02*
X100452380Y-59045238D01*
X100500000Y-59140476D01*
X100547619Y-59188095D01*
X100690476Y-59283333D01*
X100880952Y-59330952D01*
X101261904Y-59330952D01*
X101357142Y-59283333D01*
X101404761Y-59235714D01*
X101452380Y-59140476D01*
X101452380Y-58950000D01*
X101404761Y-58854761D01*
X101357142Y-58807142D01*
X101261904Y-58759523D01*
X101023809Y-58759523D01*
X100928571Y-58807142D01*
X100880952Y-58854761D01*
X100833333Y-58950000D01*
X100833333Y-59140476D01*
X100880952Y-59235714D01*
X100928571Y-59283333D01*
X101023809Y-59330952D01*
X107107142Y-47342857D02*
X107154761Y-47390476D01*
X107202380Y-47533333D01*
X107202380Y-47628571D01*
X107154761Y-47771428D01*
X107059523Y-47866666D01*
X106964285Y-47914285D01*
X106773809Y-47961904D01*
X106630952Y-47961904D01*
X106440476Y-47914285D01*
X106345238Y-47866666D01*
X106250000Y-47771428D01*
X106202380Y-47628571D01*
X106202380Y-47533333D01*
X106250000Y-47390476D01*
X106297619Y-47342857D01*
X106297619Y-46961904D02*
X106250000Y-46914285D01*
X106202380Y-46819047D01*
X106202380Y-46580952D01*
X106250000Y-46485714D01*
X106297619Y-46438095D01*
X106392857Y-46390476D01*
X106488095Y-46390476D01*
X106630952Y-46438095D01*
X107202380Y-47009523D01*
X107202380Y-46390476D01*
X106202380Y-46057142D02*
X106202380Y-45438095D01*
X106583333Y-45771428D01*
X106583333Y-45628571D01*
X106630952Y-45533333D01*
X106678571Y-45485714D01*
X106773809Y-45438095D01*
X107011904Y-45438095D01*
X107107142Y-45485714D01*
X107154761Y-45533333D01*
X107202380Y-45628571D01*
X107202380Y-45914285D01*
X107154761Y-46009523D01*
X107107142Y-46057142D01*
X116357142Y-54152380D02*
X116023809Y-53676190D01*
X115785714Y-54152380D02*
X115785714Y-53152380D01*
X116166666Y-53152380D01*
X116261904Y-53200000D01*
X116309523Y-53247619D01*
X116357142Y-53342857D01*
X116357142Y-53485714D01*
X116309523Y-53580952D01*
X116261904Y-53628571D01*
X116166666Y-53676190D01*
X115785714Y-53676190D01*
X117309523Y-54152380D02*
X116738095Y-54152380D01*
X117023809Y-54152380D02*
X117023809Y-53152380D01*
X116928571Y-53295238D01*
X116833333Y-53390476D01*
X116738095Y-53438095D01*
X117642857Y-53152380D02*
X118261904Y-53152380D01*
X117928571Y-53533333D01*
X118071428Y-53533333D01*
X118166666Y-53580952D01*
X118214285Y-53628571D01*
X118261904Y-53723809D01*
X118261904Y-53961904D01*
X118214285Y-54057142D01*
X118166666Y-54104761D01*
X118071428Y-54152380D01*
X117785714Y-54152380D01*
X117690476Y-54104761D01*
X117642857Y-54057142D01*
X93107142Y-32902380D02*
X92773809Y-32426190D01*
X92535714Y-32902380D02*
X92535714Y-31902380D01*
X92916666Y-31902380D01*
X93011904Y-31950000D01*
X93059523Y-31997619D01*
X93107142Y-32092857D01*
X93107142Y-32235714D01*
X93059523Y-32330952D01*
X93011904Y-32378571D01*
X92916666Y-32426190D01*
X92535714Y-32426190D01*
X94059523Y-32902380D02*
X93488095Y-32902380D01*
X93773809Y-32902380D02*
X93773809Y-31902380D01*
X93678571Y-32045238D01*
X93583333Y-32140476D01*
X93488095Y-32188095D01*
X94630952Y-32330952D02*
X94535714Y-32283333D01*
X94488095Y-32235714D01*
X94440476Y-32140476D01*
X94440476Y-32092857D01*
X94488095Y-31997619D01*
X94535714Y-31950000D01*
X94630952Y-31902380D01*
X94821428Y-31902380D01*
X94916666Y-31950000D01*
X94964285Y-31997619D01*
X95011904Y-32092857D01*
X95011904Y-32140476D01*
X94964285Y-32235714D01*
X94916666Y-32283333D01*
X94821428Y-32330952D01*
X94630952Y-32330952D01*
X94535714Y-32378571D01*
X94488095Y-32426190D01*
X94440476Y-32521428D01*
X94440476Y-32711904D01*
X94488095Y-32807142D01*
X94535714Y-32854761D01*
X94630952Y-32902380D01*
X94821428Y-32902380D01*
X94916666Y-32854761D01*
X94964285Y-32807142D01*
X95011904Y-32711904D01*
X95011904Y-32521428D01*
X94964285Y-32426190D01*
X94916666Y-32378571D01*
X94821428Y-32330952D01*
X104238095Y-21102380D02*
X104238095Y-21911904D01*
X104285714Y-22007142D01*
X104333333Y-22054761D01*
X104428571Y-22102380D01*
X104619047Y-22102380D01*
X104714285Y-22054761D01*
X104761904Y-22007142D01*
X104809523Y-21911904D01*
X104809523Y-21102380D01*
X105190476Y-21102380D02*
X105809523Y-21102380D01*
X105476190Y-21483333D01*
X105619047Y-21483333D01*
X105714285Y-21530952D01*
X105761904Y-21578571D01*
X105809523Y-21673809D01*
X105809523Y-21911904D01*
X105761904Y-22007142D01*
X105714285Y-22054761D01*
X105619047Y-22102380D01*
X105333333Y-22102380D01*
X105238095Y-22054761D01*
X105190476Y-22007142D01*
X101752380Y-49866666D02*
X101752380Y-50342857D01*
X100752380Y-50342857D01*
X101085714Y-49104761D02*
X101752380Y-49104761D01*
X100704761Y-49342857D02*
X101419047Y-49580952D01*
X101419047Y-48961904D01*
X117702380Y-51961904D02*
X118511904Y-51961904D01*
X118607142Y-51914285D01*
X118654761Y-51866666D01*
X118702380Y-51771428D01*
X118702380Y-51580952D01*
X118654761Y-51485714D01*
X118607142Y-51438095D01*
X118511904Y-51390476D01*
X117702380Y-51390476D01*
X117702380Y-50438095D02*
X117702380Y-50914285D01*
X118178571Y-50961904D01*
X118130952Y-50914285D01*
X118083333Y-50819047D01*
X118083333Y-50580952D01*
X118130952Y-50485714D01*
X118178571Y-50438095D01*
X118273809Y-50390476D01*
X118511904Y-50390476D01*
X118607142Y-50438095D01*
X118654761Y-50485714D01*
X118702380Y-50580952D01*
X118702380Y-50819047D01*
X118654761Y-50914285D01*
X118607142Y-50961904D01*
X110333333Y-24402380D02*
X110000000Y-23926190D01*
X109761904Y-24402380D02*
X109761904Y-23402380D01*
X110142857Y-23402380D01*
X110238095Y-23450000D01*
X110285714Y-23497619D01*
X110333333Y-23592857D01*
X110333333Y-23735714D01*
X110285714Y-23830952D01*
X110238095Y-23878571D01*
X110142857Y-23926190D01*
X109761904Y-23926190D01*
X111190476Y-23402380D02*
X111000000Y-23402380D01*
X110904761Y-23450000D01*
X110857142Y-23497619D01*
X110761904Y-23640476D01*
X110714285Y-23830952D01*
X110714285Y-24211904D01*
X110761904Y-24307142D01*
X110809523Y-24354761D01*
X110904761Y-24402380D01*
X111095238Y-24402380D01*
X111190476Y-24354761D01*
X111238095Y-24307142D01*
X111285714Y-24211904D01*
X111285714Y-23973809D01*
X111238095Y-23878571D01*
X111190476Y-23830952D01*
X111095238Y-23783333D01*
X110904761Y-23783333D01*
X110809523Y-23830952D01*
X110761904Y-23878571D01*
X110714285Y-23973809D01*
X94357142Y-23652380D02*
X94023809Y-23176190D01*
X93785714Y-23652380D02*
X93785714Y-22652380D01*
X94166666Y-22652380D01*
X94261904Y-22700000D01*
X94309523Y-22747619D01*
X94357142Y-22842857D01*
X94357142Y-22985714D01*
X94309523Y-23080952D01*
X94261904Y-23128571D01*
X94166666Y-23176190D01*
X93785714Y-23176190D01*
X95309523Y-23652380D02*
X94738095Y-23652380D01*
X95023809Y-23652380D02*
X95023809Y-22652380D01*
X94928571Y-22795238D01*
X94833333Y-22890476D01*
X94738095Y-22938095D01*
X96261904Y-23652380D02*
X95690476Y-23652380D01*
X95976190Y-23652380D02*
X95976190Y-22652380D01*
X95880952Y-22795238D01*
X95785714Y-22890476D01*
X95690476Y-22938095D01*
X84011904Y-39652380D02*
X84011904Y-38652380D01*
X84250000Y-38652380D01*
X84392857Y-38700000D01*
X84488095Y-38795238D01*
X84535714Y-38890476D01*
X84583333Y-39080952D01*
X84583333Y-39223809D01*
X84535714Y-39414285D01*
X84488095Y-39509523D01*
X84392857Y-39604761D01*
X84250000Y-39652380D01*
X84011904Y-39652380D01*
X84964285Y-38747619D02*
X85011904Y-38700000D01*
X85107142Y-38652380D01*
X85345238Y-38652380D01*
X85440476Y-38700000D01*
X85488095Y-38747619D01*
X85535714Y-38842857D01*
X85535714Y-38938095D01*
X85488095Y-39080952D01*
X84916666Y-39652380D01*
X85535714Y-39652380D01*
X83702380Y-43366666D02*
X83226190Y-43700000D01*
X83702380Y-43938095D02*
X82702380Y-43938095D01*
X82702380Y-43557142D01*
X82750000Y-43461904D01*
X82797619Y-43414285D01*
X82892857Y-43366666D01*
X83035714Y-43366666D01*
X83130952Y-43414285D01*
X83178571Y-43461904D01*
X83226190Y-43557142D01*
X83226190Y-43938095D01*
X82702380Y-42461904D02*
X82702380Y-42938095D01*
X83178571Y-42985714D01*
X83130952Y-42938095D01*
X83083333Y-42842857D01*
X83083333Y-42604761D01*
X83130952Y-42509523D01*
X83178571Y-42461904D01*
X83273809Y-42414285D01*
X83511904Y-42414285D01*
X83607142Y-42461904D01*
X83654761Y-42509523D01*
X83702380Y-42604761D01*
X83702380Y-42842857D01*
X83654761Y-42938095D01*
X83607142Y-42985714D01*
X120107142Y-46652380D02*
X119773809Y-46176190D01*
X119535714Y-46652380D02*
X119535714Y-45652380D01*
X119916666Y-45652380D01*
X120011904Y-45700000D01*
X120059523Y-45747619D01*
X120107142Y-45842857D01*
X120107142Y-45985714D01*
X120059523Y-46080952D01*
X120011904Y-46128571D01*
X119916666Y-46176190D01*
X119535714Y-46176190D01*
X121059523Y-46652380D02*
X120488095Y-46652380D01*
X120773809Y-46652380D02*
X120773809Y-45652380D01*
X120678571Y-45795238D01*
X120583333Y-45890476D01*
X120488095Y-45938095D01*
X121916666Y-45652380D02*
X121726190Y-45652380D01*
X121630952Y-45700000D01*
X121583333Y-45747619D01*
X121488095Y-45890476D01*
X121440476Y-46080952D01*
X121440476Y-46461904D01*
X121488095Y-46557142D01*
X121535714Y-46604761D01*
X121630952Y-46652380D01*
X121821428Y-46652380D01*
X121916666Y-46604761D01*
X121964285Y-46557142D01*
X122011904Y-46461904D01*
X122011904Y-46223809D01*
X121964285Y-46128571D01*
X121916666Y-46080952D01*
X121821428Y-46033333D01*
X121630952Y-46033333D01*
X121535714Y-46080952D01*
X121488095Y-46128571D01*
X121440476Y-46223809D01*
D12*
X100366666Y-44311904D02*
X99985714Y-44311904D01*
X99985714Y-43511904D01*
X100557142Y-43511904D02*
X101052380Y-43511904D01*
X100785714Y-43816666D01*
X100900000Y-43816666D01*
X100976190Y-43854761D01*
X101014285Y-43892857D01*
X101052380Y-43969047D01*
X101052380Y-44159523D01*
X101014285Y-44235714D01*
X100976190Y-44273809D01*
X100900000Y-44311904D01*
X100671428Y-44311904D01*
X100595238Y-44273809D01*
X100557142Y-44235714D01*
D10*
X97428571Y-32283333D02*
X97428571Y-32616666D01*
X97952380Y-32616666D02*
X96952380Y-32616666D01*
X96952380Y-32140476D01*
X97428571Y-31426190D02*
X97476190Y-31283333D01*
X97523809Y-31235714D01*
X97619047Y-31188095D01*
X97761904Y-31188095D01*
X97857142Y-31235714D01*
X97904761Y-31283333D01*
X97952380Y-31378571D01*
X97952380Y-31759523D01*
X96952380Y-31759523D01*
X96952380Y-31426190D01*
X97000000Y-31330952D01*
X97047619Y-31283333D01*
X97142857Y-31235714D01*
X97238095Y-31235714D01*
X97333333Y-31283333D01*
X97380952Y-31330952D01*
X97428571Y-31426190D01*
X97428571Y-31759523D01*
X97952380Y-30235714D02*
X97952380Y-30807142D01*
X97952380Y-30521428D02*
X96952380Y-30521428D01*
X97095238Y-30616666D01*
X97190476Y-30711904D01*
X97238095Y-30807142D01*
X105325333Y-45902380D02*
X104849142Y-45902380D01*
X104849142Y-44902380D01*
X105563428Y-44902380D02*
X106230095Y-44902380D01*
X105801523Y-45902380D01*
X103333333Y-30307142D02*
X103285714Y-30354761D01*
X103142857Y-30402380D01*
X103047619Y-30402380D01*
X102904761Y-30354761D01*
X102809523Y-30259523D01*
X102761904Y-30164285D01*
X102714285Y-29973809D01*
X102714285Y-29830952D01*
X102761904Y-29640476D01*
X102809523Y-29545238D01*
X102904761Y-29450000D01*
X103047619Y-29402380D01*
X103142857Y-29402380D01*
X103285714Y-29450000D01*
X103333333Y-29497619D01*
X104190476Y-29402380D02*
X104000000Y-29402380D01*
X103904761Y-29450000D01*
X103857142Y-29497619D01*
X103761904Y-29640476D01*
X103714285Y-29830952D01*
X103714285Y-30211904D01*
X103761904Y-30307142D01*
X103809523Y-30354761D01*
X103904761Y-30402380D01*
X104095238Y-30402380D01*
X104190476Y-30354761D01*
X104238095Y-30307142D01*
X104285714Y-30211904D01*
X104285714Y-29973809D01*
X104238095Y-29878571D01*
X104190476Y-29830952D01*
X104095238Y-29783333D01*
X103904761Y-29783333D01*
X103809523Y-29830952D01*
X103761904Y-29878571D01*
X103714285Y-29973809D01*
D11*
X103034420Y-62960000D02*
X103315580Y-62960000D01*
X103034420Y-61940000D02*
X103315580Y-61940000D01*
X99690000Y-25459420D02*
X99690000Y-25740580D01*
X100710000Y-25459420D02*
X100710000Y-25740580D01*
X101765580Y-60590000D02*
X101484420Y-60590000D01*
X101765580Y-61610000D02*
X101484420Y-61610000D01*
X103007836Y-55372500D02*
X102792164Y-55372500D01*
X103007836Y-56092500D02*
X102792164Y-56092500D01*
X102760000Y-57490336D02*
X102760000Y-57274664D01*
X102040000Y-57490336D02*
X102040000Y-57274664D01*
X120992164Y-37710000D02*
X121207836Y-37710000D01*
X120992164Y-36990000D02*
X121207836Y-36990000D01*
X120692164Y-35610000D02*
X120907836Y-35610000D01*
X120692164Y-34890000D02*
X120907836Y-34890000D01*
X121392164Y-38810000D02*
X121607836Y-38810000D01*
X121392164Y-38090000D02*
X121607836Y-38090000D01*
X120592164Y-36660000D02*
X120807836Y-36660000D01*
X120592164Y-35940000D02*
X120807836Y-35940000D01*
X97650000Y-43850000D02*
X97650000Y-39850000D01*
X94350000Y-43850000D02*
X97650000Y-43850000D01*
X98480000Y-22803641D02*
X98480000Y-22496359D01*
X97720000Y-22803641D02*
X97720000Y-22496359D01*
X111253641Y-19530000D02*
X110946359Y-19530000D01*
X111253641Y-18770000D02*
X110946359Y-18770000D01*
X83750000Y-24150000D02*
X83750000Y-23700000D01*
X90050000Y-18400000D02*
X90050000Y-17950000D01*
X90050000Y-17950000D02*
X83750000Y-17950000D01*
X90050000Y-19700000D02*
X90050000Y-22400000D01*
X83750000Y-17950000D02*
X83750000Y-18350000D01*
X83750000Y-22400000D02*
X83750000Y-19700000D01*
X90050000Y-24150000D02*
X83750000Y-24150000D01*
X90050000Y-23700000D02*
X90050000Y-24150000D01*
X108360000Y-31050000D02*
X108360000Y-34250000D01*
X105640000Y-34250000D02*
X105640000Y-31050000D01*
X108910572Y-25557836D02*
X108910572Y-25342164D01*
X109630572Y-25557836D02*
X109630572Y-25342164D01*
X99507836Y-39590000D02*
X99292164Y-39590000D01*
X99507836Y-40310000D02*
X99292164Y-40310000D01*
X98840000Y-43542164D02*
X98840000Y-43757836D01*
X99560000Y-43542164D02*
X99560000Y-43757836D01*
X110292164Y-42790000D02*
X110507836Y-42790000D01*
X110292164Y-43510000D02*
X110507836Y-43510000D01*
X99720000Y-36903641D02*
X99720000Y-36596359D01*
X100480000Y-36903641D02*
X100480000Y-36596359D01*
X93457164Y-29585000D02*
X93672836Y-29585000D01*
X93457164Y-30305000D02*
X93672836Y-30305000D01*
X120797641Y-39917000D02*
X120490359Y-39917000D01*
X120797641Y-39157000D02*
X120490359Y-39157000D01*
X113460000Y-22100000D02*
X113460000Y-20100000D01*
X110340000Y-20800000D02*
X110340000Y-22100000D01*
X82720000Y-36903641D02*
X82720000Y-36596359D01*
X83480000Y-36903641D02*
X83480000Y-36596359D01*
X92592164Y-21990000D02*
X92807836Y-21990000D01*
X92592164Y-22710000D02*
X92807836Y-22710000D01*
X97553641Y-21430000D02*
X97246359Y-21430000D01*
X97553641Y-20670000D02*
X97246359Y-20670000D01*
D14*
X121347000Y-51290000D02*
G75*
G03*
X121347000Y-51290000I-50000J0D01*
G01*
D11*
X103460000Y-46462164D02*
X103460000Y-46677836D01*
X102740000Y-46462164D02*
X102740000Y-46677836D01*
X113571100Y-40309740D02*
X113571100Y-40978900D01*
X114240260Y-35721100D02*
X113571100Y-35721100D01*
X118828900Y-36390260D02*
X118828900Y-35721100D01*
X118828900Y-35721100D02*
X118159740Y-35721100D01*
X113571100Y-35721100D02*
X113571100Y-36390260D01*
X113571100Y-40978900D02*
X114240260Y-40978900D01*
X118828900Y-40978900D02*
X118828900Y-40309740D01*
X118159740Y-40978900D02*
X118828900Y-40978900D01*
G36*
X113139300Y-39540501D02*
G01*
X112885300Y-39540501D01*
X112885300Y-39159501D01*
X113139300Y-39159501D01*
X113139300Y-39540501D01*
G37*
D14*
X113139300Y-39540501D02*
X112885300Y-39540501D01*
X112885300Y-39159501D01*
X113139300Y-39159501D01*
X113139300Y-39540501D01*
G36*
X116890499Y-35289300D02*
G01*
X116509499Y-35289300D01*
X116509499Y-35035300D01*
X116890499Y-35035300D01*
X116890499Y-35289300D01*
G37*
X116890499Y-35289300D02*
X116509499Y-35289300D01*
X116509499Y-35035300D01*
X116890499Y-35035300D01*
X116890499Y-35289300D01*
D11*
X118153641Y-34070000D02*
X117846359Y-34070000D01*
X118153641Y-34830000D02*
X117846359Y-34830000D01*
X93254500Y-40478927D02*
X93254500Y-37049575D01*
X86650500Y-37049573D02*
X86650500Y-40478925D01*
X86650500Y-39069050D02*
G75*
G03*
X86650500Y-38459450I0J304800D01*
G01*
G36*
X93067998Y-42929850D02*
G01*
X92686998Y-42929850D01*
X92686998Y-42675850D01*
X93067998Y-42675850D01*
X93067998Y-42929850D01*
G37*
D14*
X93067998Y-42929850D02*
X92686998Y-42929850D01*
X92686998Y-42675850D01*
X93067998Y-42675850D01*
X93067998Y-42929850D01*
G36*
X87218002Y-34852650D02*
G01*
X86837002Y-34852650D01*
X86837002Y-34598650D01*
X87218002Y-34598650D01*
X87218002Y-34852650D01*
G37*
X87218002Y-34852650D02*
X86837002Y-34852650D01*
X86837002Y-34598650D01*
X87218002Y-34598650D01*
X87218002Y-34852650D01*
D11*
X88136001Y-30122929D02*
X88136001Y-30728999D01*
X91793999Y-30728999D02*
X91793999Y-30122929D01*
X88742259Y-27071001D02*
X88136001Y-27071001D01*
X91793999Y-27677071D02*
X91793999Y-27071001D01*
X91793999Y-27071001D02*
X91187741Y-27071001D01*
X91187741Y-30728999D02*
X91793999Y-30728999D01*
X88136001Y-30728999D02*
X88742259Y-30728999D01*
X88136001Y-27071001D02*
X88136001Y-27677071D01*
G36*
X89905501Y-31307999D02*
G01*
X89524500Y-31307999D01*
X89524500Y-31053999D01*
X89905501Y-31053999D01*
X89905501Y-31307999D01*
G37*
D14*
X89905501Y-31307999D02*
X89524500Y-31307999D01*
X89524500Y-31053999D01*
X89905501Y-31053999D01*
X89905501Y-31307999D01*
D11*
X104560000Y-34607836D02*
X104560000Y-34392164D01*
X103840000Y-34607836D02*
X103840000Y-34392164D01*
X98240000Y-25409420D02*
X98240000Y-25690580D01*
X99260000Y-25409420D02*
X99260000Y-25690580D01*
X90412164Y-25590000D02*
X90627836Y-25590000D01*
X90412164Y-26310000D02*
X90627836Y-26310000D01*
X108430572Y-25557836D02*
X108430572Y-25342164D01*
X107710572Y-25557836D02*
X107710572Y-25342164D01*
X99260000Y-36642164D02*
X99260000Y-36857836D01*
X98540000Y-36642164D02*
X98540000Y-36857836D01*
X110692164Y-38610000D02*
X110907836Y-38610000D01*
X110692164Y-37890000D02*
X110907836Y-37890000D01*
X101198164Y-45430000D02*
X101413836Y-45430000D01*
X101198164Y-44710000D02*
X101413836Y-44710000D01*
X108924999Y-43374999D02*
X108624999Y-43374999D01*
X108924999Y-43374999D02*
X108924999Y-43074999D01*
X108924999Y-36225001D02*
X108924999Y-35925001D01*
X108924999Y-35925001D02*
X108624999Y-35925001D01*
X101475001Y-36225001D02*
X101475001Y-35925001D01*
X102050001Y-43374999D02*
X101475001Y-43374999D01*
X101775001Y-35925001D02*
X101475001Y-35925001D01*
X101475001Y-43374999D02*
X101475001Y-42799999D01*
X99507836Y-41410000D02*
X99292164Y-41410000D01*
X99507836Y-40690000D02*
X99292164Y-40690000D01*
X109375000Y-47875000D02*
X109375000Y-49225000D01*
X107625000Y-47875000D02*
X107625000Y-49225000D01*
X120797641Y-41060000D02*
X120490359Y-41060000D01*
X120797641Y-40300000D02*
X120490359Y-40300000D01*
X115790000Y-32705000D02*
X115790000Y-31575000D01*
X117310000Y-31011529D02*
X117310000Y-30868471D01*
X122325000Y-29997470D02*
X122325000Y-29175000D01*
X117256529Y-30815000D02*
X117113471Y-30815000D01*
X115855000Y-29175000D02*
X122325000Y-29175000D01*
X115986529Y-30815000D02*
X115855000Y-30815000D01*
X117310000Y-32705000D02*
X122325000Y-32705000D01*
X122325000Y-32705000D02*
X122325000Y-31882530D01*
X115855000Y-29997470D02*
X115855000Y-29175000D01*
X115855000Y-30815000D02*
X115855000Y-30612530D01*
X116550000Y-32705000D02*
X115790000Y-32705000D01*
X122325000Y-31267470D02*
X122325000Y-30612530D01*
X117310000Y-32705000D02*
X117310000Y-32138471D01*
X85237000Y-32281000D02*
X85237000Y-33611000D01*
X85237000Y-25871000D02*
X82577000Y-25871000D01*
X85237000Y-33611000D02*
X83907000Y-33611000D01*
X85237000Y-31011000D02*
X85237000Y-25871000D01*
X82577000Y-31011000D02*
X82577000Y-25871000D01*
X85237000Y-31011000D02*
X82577000Y-31011000D01*
X120505000Y-54982500D02*
X120505000Y-57682500D01*
X117785000Y-54932500D02*
X117785000Y-55572500D01*
X117785000Y-55572500D02*
X117155000Y-55572500D01*
X117785000Y-57732500D02*
X117785000Y-57092500D01*
X105300000Y-17805000D02*
X106570000Y-17805000D01*
X106570000Y-17805000D02*
X106570000Y-19075000D01*
X113540000Y-49642164D02*
X113540000Y-49857836D01*
X114260000Y-49642164D02*
X114260000Y-49857836D01*
X107660000Y-22757836D02*
X107660000Y-22542164D01*
X106940000Y-22757836D02*
X106940000Y-22542164D01*
X102107836Y-50910000D02*
X101892164Y-50910000D01*
X102107836Y-51630000D02*
X101892164Y-51630000D01*
X102290000Y-34190580D02*
X102290000Y-33909420D01*
X103310000Y-34190580D02*
X103310000Y-33909420D01*
X102040000Y-63992164D02*
X102040000Y-64207836D01*
X102760000Y-63992164D02*
X102760000Y-64207836D01*
X116950000Y-27430000D02*
X118870000Y-27430000D01*
X118870000Y-18270000D02*
X116950000Y-18270000D01*
X120880000Y-18270000D02*
X122585000Y-18270000D01*
X122585000Y-18270000D02*
X122585000Y-27430000D01*
X122585000Y-27430000D02*
X120880000Y-27430000D01*
X110360000Y-36757836D02*
X110360000Y-36542164D01*
X109640000Y-36757836D02*
X109640000Y-36542164D01*
X102892164Y-47810000D02*
X103107836Y-47810000D01*
X102892164Y-48530000D02*
X103107836Y-48530000D01*
X97660000Y-25741580D02*
X97660000Y-25460420D01*
X96640000Y-25741580D02*
X96640000Y-25460420D01*
X120153000Y-49442641D02*
X120153000Y-49135359D01*
X119393000Y-49442641D02*
X119393000Y-49135359D01*
X102792164Y-54090000D02*
X103007836Y-54090000D01*
X102792164Y-54810000D02*
X103007836Y-54810000D01*
D14*
X84474000Y-43158000D02*
G75*
G03*
X84474000Y-43158000I-50000J0D01*
G01*
D11*
X111160000Y-49657836D02*
X111160000Y-49442164D01*
X110440000Y-49657836D02*
X110440000Y-49442164D01*
X108753641Y-18770000D02*
X108446359Y-18770000D01*
X108753641Y-19530000D02*
X108446359Y-19530000D01*
X110440000Y-47442164D02*
X110440000Y-47657836D01*
X111160000Y-47442164D02*
X111160000Y-47657836D01*
X103940000Y-46462164D02*
X103940000Y-46677836D01*
X104660000Y-46462164D02*
X104660000Y-46677836D01*
X114296359Y-54080000D02*
X114603641Y-54080000D01*
X114296359Y-53320000D02*
X114603641Y-53320000D01*
X93446359Y-31430000D02*
X93753641Y-31430000D01*
X93446359Y-30670000D02*
X93753641Y-30670000D01*
X103289980Y-22375000D02*
X102825001Y-22375000D01*
X102825001Y-26525000D02*
X103289980Y-26525000D01*
X105974999Y-22375000D02*
X105510020Y-22375000D01*
X105510020Y-26525000D02*
X105974999Y-26525000D01*
G36*
X106990998Y-25140499D02*
G01*
X106736998Y-25140499D01*
X106736998Y-24759499D01*
X106990998Y-24759499D01*
X106990998Y-25140499D01*
G37*
D14*
X106990998Y-25140499D02*
X106736998Y-25140499D01*
X106736998Y-24759499D01*
X106990998Y-24759499D01*
X106990998Y-25140499D01*
D11*
X114818900Y-49967953D02*
X114818900Y-50656565D01*
X114818900Y-51043435D02*
X114818900Y-51732047D01*
X117181100Y-51732047D02*
X117181100Y-51043435D01*
X117181100Y-50656565D02*
X117181100Y-49967953D01*
X112246359Y-24630000D02*
X112553641Y-24630000D01*
X112246359Y-23870000D02*
X112553641Y-23870000D01*
X96520000Y-22803641D02*
X96520000Y-22496359D01*
X97280000Y-22803641D02*
X97280000Y-22496359D01*
D14*
X84577000Y-38544000D02*
G75*
G03*
X84577000Y-38544000I-50000J0D01*
G01*
D11*
X83280000Y-41193641D02*
X83280000Y-40886359D01*
X82520000Y-41193641D02*
X82520000Y-40886359D01*
X120835641Y-41534000D02*
X120528359Y-41534000D01*
X120835641Y-42294000D02*
X120528359Y-42294000D01*
X100577500Y-33812742D02*
X100577500Y-34287258D01*
X101622500Y-33812742D02*
X101622500Y-34287258D01*
X103740580Y-31040000D02*
X103459420Y-31040000D01*
X103740580Y-32060000D02*
X103459420Y-32060000D01*
X93282500Y-19677400D02*
G75*
G03*
X93282500Y-19677400I-381000J0D01*
G01*
%LPC*%
G36*
X90878500Y-28306300D02*
G01*
X89051500Y-28306300D01*
X89051500Y-27986500D01*
X90878500Y-27986500D01*
X90878500Y-28306300D01*
G37*
D14*
X90878500Y-28306300D02*
X89051500Y-28306300D01*
X89051500Y-27986500D01*
X90878500Y-27986500D01*
X90878500Y-28306300D01*
G36*
X89371300Y-29813500D02*
G01*
X89051500Y-29813500D01*
X89051500Y-27986500D01*
X89371300Y-27986500D01*
X89371300Y-29813500D01*
G37*
X89371300Y-29813500D02*
X89051500Y-29813500D01*
X89051500Y-27986500D01*
X89371300Y-27986500D01*
X89371300Y-29813500D01*
G36*
X89924596Y-30869595D02*
G01*
X89505405Y-30869595D01*
X89505405Y-29880404D01*
X89924596Y-29880404D01*
X89924596Y-30869595D01*
G37*
X89924596Y-30869595D02*
X89505405Y-30869595D01*
X89505405Y-29880404D01*
X89924596Y-29880404D01*
X89924596Y-30869595D01*
G36*
X90158700Y-29813500D02*
G01*
X89771300Y-29813500D01*
X89771300Y-27986500D01*
X90158700Y-27986500D01*
X90158700Y-29813500D01*
G37*
X90158700Y-29813500D02*
X89771300Y-29813500D01*
X89771300Y-27986500D01*
X90158700Y-27986500D01*
X90158700Y-29813500D01*
G36*
X88984596Y-28859533D02*
G01*
X87995405Y-28859533D01*
X87995405Y-28440341D01*
X88984596Y-28440341D01*
X88984596Y-28859533D01*
G37*
X88984596Y-28859533D02*
X87995405Y-28859533D01*
X87995405Y-28440341D01*
X88984596Y-28440341D01*
X88984596Y-28859533D01*
G36*
X90424595Y-27919596D02*
G01*
X90005404Y-27919596D01*
X90005404Y-26930405D01*
X90424595Y-26930405D01*
X90424595Y-27919596D01*
G37*
X90424595Y-27919596D02*
X90005404Y-27919596D01*
X90005404Y-26930405D01*
X90424595Y-26930405D01*
X90424595Y-27919596D01*
G36*
X90424595Y-30869595D02*
G01*
X90005404Y-30869595D01*
X90005404Y-29880404D01*
X90424595Y-29880404D01*
X90424595Y-30869595D01*
G37*
X90424595Y-30869595D02*
X90005404Y-30869595D01*
X90005404Y-29880404D01*
X90424595Y-29880404D01*
X90424595Y-30869595D01*
G36*
X90878500Y-29093700D02*
G01*
X89051500Y-29093700D01*
X89051500Y-28706300D01*
X90878500Y-28706300D01*
X90878500Y-29093700D01*
G37*
X90878500Y-29093700D02*
X89051500Y-29093700D01*
X89051500Y-28706300D01*
X90878500Y-28706300D01*
X90878500Y-29093700D01*
G36*
X88984596Y-29859785D02*
G01*
X87995405Y-29859785D01*
X87995405Y-29440593D01*
X88984596Y-29440593D01*
X88984596Y-29859785D01*
G37*
X88984596Y-29859785D02*
X87995405Y-29859785D01*
X87995405Y-29440593D01*
X88984596Y-29440593D01*
X88984596Y-29859785D01*
G36*
X89424597Y-27919596D02*
G01*
X89005403Y-27919596D01*
X89005403Y-26930405D01*
X89424597Y-26930405D01*
X89424597Y-27919596D01*
G37*
X89424597Y-27919596D02*
X89005403Y-27919596D01*
X89005403Y-26930405D01*
X89424597Y-26930405D01*
X89424597Y-27919596D01*
G36*
X89424597Y-30869595D02*
G01*
X89005403Y-30869595D01*
X89005403Y-29880404D01*
X89424597Y-29880404D01*
X89424597Y-30869595D01*
G37*
X89424597Y-30869595D02*
X89005403Y-30869595D01*
X89005403Y-29880404D01*
X89424597Y-29880404D01*
X89424597Y-30869595D01*
G36*
X91934595Y-28359407D02*
G01*
X90945404Y-28359407D01*
X90945404Y-27940215D01*
X91934595Y-27940215D01*
X91934595Y-28359407D01*
G37*
X91934595Y-28359407D02*
X90945404Y-28359407D01*
X90945404Y-27940215D01*
X91934595Y-27940215D01*
X91934595Y-28359407D01*
G36*
X90878500Y-29813500D02*
G01*
X90558700Y-29813500D01*
X90558700Y-27986500D01*
X90878500Y-27986500D01*
X90878500Y-29813500D01*
G37*
X90878500Y-29813500D02*
X90558700Y-29813500D01*
X90558700Y-27986500D01*
X90878500Y-27986500D01*
X90878500Y-29813500D01*
G36*
X91934595Y-29359659D02*
G01*
X90945404Y-29359659D01*
X90945404Y-28940467D01*
X91934595Y-28940467D01*
X91934595Y-29359659D01*
G37*
X91934595Y-29359659D02*
X90945404Y-29359659D01*
X90945404Y-28940467D01*
X91934595Y-28940467D01*
X91934595Y-29359659D01*
G36*
X88984596Y-28359407D02*
G01*
X87995405Y-28359407D01*
X87995405Y-27940215D01*
X88984596Y-27940215D01*
X88984596Y-28359407D01*
G37*
X88984596Y-28359407D02*
X87995405Y-28359407D01*
X87995405Y-27940215D01*
X88984596Y-27940215D01*
X88984596Y-28359407D01*
G36*
X91934595Y-29859785D02*
G01*
X90945404Y-29859785D01*
X90945404Y-29440593D01*
X91934595Y-29440593D01*
X91934595Y-29859785D01*
G37*
X91934595Y-29859785D02*
X90945404Y-29859785D01*
X90945404Y-29440593D01*
X91934595Y-29440593D01*
X91934595Y-29859785D01*
G36*
X90924597Y-27919596D02*
G01*
X90505403Y-27919596D01*
X90505403Y-26930405D01*
X90924597Y-26930405D01*
X90924597Y-27919596D01*
G37*
X90924597Y-27919596D02*
X90505403Y-27919596D01*
X90505403Y-26930405D01*
X90924597Y-26930405D01*
X90924597Y-27919596D01*
G36*
X88984596Y-29359659D02*
G01*
X87995405Y-29359659D01*
X87995405Y-28940467D01*
X88984596Y-28940467D01*
X88984596Y-29359659D01*
G37*
X88984596Y-29359659D02*
X87995405Y-29359659D01*
X87995405Y-28940467D01*
X88984596Y-28940467D01*
X88984596Y-29359659D01*
G36*
X90924597Y-30869595D02*
G01*
X90505403Y-30869595D01*
X90505403Y-29880404D01*
X90924597Y-29880404D01*
X90924597Y-30869595D01*
G37*
X90924597Y-30869595D02*
X90505403Y-30869595D01*
X90505403Y-29880404D01*
X90924597Y-29880404D01*
X90924597Y-30869595D01*
G36*
X89924596Y-27919596D02*
G01*
X89505405Y-27919596D01*
X89505405Y-26930405D01*
X89924596Y-26930405D01*
X89924596Y-27919596D01*
G37*
X89924596Y-27919596D02*
X89505405Y-27919596D01*
X89505405Y-26930405D01*
X89924596Y-26930405D01*
X89924596Y-27919596D01*
G36*
X90878500Y-29813500D02*
G01*
X89051500Y-29813500D01*
X89051500Y-29493700D01*
X90878500Y-29493700D01*
X90878500Y-29813500D01*
G37*
X90878500Y-29813500D02*
X89051500Y-29813500D01*
X89051500Y-29493700D01*
X90878500Y-29493700D01*
X90878500Y-29813500D01*
G36*
X91934595Y-28859533D02*
G01*
X90945404Y-28859533D01*
X90945404Y-28440341D01*
X91934595Y-28440341D01*
X91934595Y-28859533D01*
G37*
X91934595Y-28859533D02*
X90945404Y-28859533D01*
X90945404Y-28440341D01*
X91934595Y-28440341D01*
X91934595Y-28859533D01*
G36*
X104841600Y-23126600D02*
G01*
X104408400Y-23126600D01*
X104408400Y-22373400D01*
X104841600Y-22373400D01*
X104841600Y-23126600D01*
G37*
X104841600Y-23126600D02*
X104408400Y-23126600D01*
X104408400Y-22373400D01*
X104841600Y-22373400D01*
X104841600Y-23126600D01*
G36*
X104593700Y-25938500D02*
G01*
X104206300Y-25938500D01*
X104206300Y-22961500D01*
X104593700Y-22961500D01*
X104593700Y-25938500D01*
G37*
X104593700Y-25938500D02*
X104206300Y-25938500D01*
X104206300Y-22961500D01*
X104593700Y-22961500D01*
X104593700Y-25938500D01*
G36*
X105253500Y-25037400D02*
G01*
X103546500Y-25037400D01*
X103546500Y-24650000D01*
X105253500Y-24650000D01*
X105253500Y-25037400D01*
G37*
X105253500Y-25037400D02*
X103546500Y-25037400D01*
X103546500Y-24650000D01*
X105253500Y-24650000D01*
X105253500Y-25037400D01*
G36*
X103806300Y-25938500D02*
G01*
X103546500Y-25938500D01*
X103546500Y-22961500D01*
X103806300Y-22961500D01*
X103806300Y-25938500D01*
G37*
X103806300Y-25938500D02*
X103546500Y-25938500D01*
X103546500Y-22961500D01*
X103806300Y-22961500D01*
X103806300Y-25938500D01*
G36*
X105253500Y-25938500D02*
G01*
X103546500Y-25938500D01*
X103546500Y-25437400D01*
X105253500Y-25437400D01*
X105253500Y-25938500D01*
G37*
X105253500Y-25938500D02*
X103546500Y-25938500D01*
X103546500Y-25437400D01*
X105253500Y-25437400D01*
X105253500Y-25938500D01*
G36*
X103300000Y-23090000D02*
G01*
X102480001Y-23090000D01*
X102480001Y-22810001D01*
X103300000Y-22810001D01*
X103300000Y-23090000D01*
G37*
X103300000Y-23090000D02*
X102480001Y-23090000D01*
X102480001Y-22810001D01*
X103300000Y-22810001D01*
X103300000Y-23090000D01*
G36*
X105253500Y-23462600D02*
G01*
X103546500Y-23462600D01*
X103546500Y-22961500D01*
X105253500Y-22961500D01*
X105253500Y-23462600D01*
G37*
X105253500Y-23462600D02*
X103546500Y-23462600D01*
X103546500Y-22961500D01*
X105253500Y-22961500D01*
X105253500Y-23462600D01*
G36*
X106319999Y-23589999D02*
G01*
X105500000Y-23589999D01*
X105500000Y-23310000D01*
X106319999Y-23310000D01*
X106319999Y-23589999D01*
G37*
X106319999Y-23589999D02*
X105500000Y-23589999D01*
X105500000Y-23310000D01*
X106319999Y-23310000D01*
X106319999Y-23589999D01*
G36*
X105253500Y-25938500D02*
G01*
X104993700Y-25938500D01*
X104993700Y-22961500D01*
X105253500Y-22961500D01*
X105253500Y-25938500D01*
G37*
X105253500Y-25938500D02*
X104993700Y-25938500D01*
X104993700Y-22961500D01*
X105253500Y-22961500D01*
X105253500Y-25938500D01*
G36*
X106319999Y-23090000D02*
G01*
X105500000Y-23090000D01*
X105500000Y-22810001D01*
X106319999Y-22810001D01*
X106319999Y-23090000D01*
G37*
X106319999Y-23090000D02*
X105500000Y-23090000D01*
X105500000Y-22810001D01*
X106319999Y-22810001D01*
X106319999Y-23090000D01*
G36*
X103300000Y-24590000D02*
G01*
X102480001Y-24590000D01*
X102480001Y-24310000D01*
X103300000Y-24310000D01*
X103300000Y-24590000D01*
G37*
X103300000Y-24590000D02*
X102480001Y-24590000D01*
X102480001Y-24310000D01*
X103300000Y-24310000D01*
X103300000Y-24590000D01*
G36*
X106319999Y-25089999D02*
G01*
X105500000Y-25089999D01*
X105500000Y-24809999D01*
X106319999Y-24809999D01*
X106319999Y-25089999D01*
G37*
X106319999Y-25089999D02*
X105500000Y-25089999D01*
X105500000Y-24809999D01*
X106319999Y-24809999D01*
X106319999Y-25089999D01*
G36*
X104841600Y-26526600D02*
G01*
X104408400Y-26526600D01*
X104408400Y-25773400D01*
X104841600Y-25773400D01*
X104841600Y-26526600D01*
G37*
X104841600Y-26526600D02*
X104408400Y-26526600D01*
X104408400Y-25773400D01*
X104841600Y-25773400D01*
X104841600Y-26526600D01*
G36*
X106319999Y-24090001D02*
G01*
X105500000Y-24090001D01*
X105500000Y-23809999D01*
X106319999Y-23809999D01*
X106319999Y-24090001D01*
G37*
X106319999Y-24090001D02*
X105500000Y-24090001D01*
X105500000Y-23809999D01*
X106319999Y-23809999D01*
X106319999Y-24090001D01*
G36*
X105291600Y-26526600D02*
G01*
X104858400Y-26526600D01*
X104858400Y-25773400D01*
X105291600Y-25773400D01*
X105291600Y-26526600D01*
G37*
X105291600Y-26526600D02*
X104858400Y-26526600D01*
X104858400Y-25773400D01*
X105291600Y-25773400D01*
X105291600Y-26526600D01*
G36*
X104391600Y-26526600D02*
G01*
X103958400Y-26526600D01*
X103958400Y-25773400D01*
X104391600Y-25773400D01*
X104391600Y-26526600D01*
G37*
X104391600Y-26526600D02*
X103958400Y-26526600D01*
X103958400Y-25773400D01*
X104391600Y-25773400D01*
X104391600Y-26526600D01*
G36*
X103300000Y-25590000D02*
G01*
X102480001Y-25590000D01*
X102480001Y-25310001D01*
X103300000Y-25310001D01*
X103300000Y-25590000D01*
G37*
X103300000Y-25590000D02*
X102480001Y-25590000D01*
X102480001Y-25310001D01*
X103300000Y-25310001D01*
X103300000Y-25590000D01*
G36*
X103300000Y-24090001D02*
G01*
X102480001Y-24090001D01*
X102480001Y-23810001D01*
X103300000Y-23810001D01*
X103300000Y-24090001D01*
G37*
X103300000Y-24090001D02*
X102480001Y-24090001D01*
X102480001Y-23810001D01*
X103300000Y-23810001D01*
X103300000Y-24090001D01*
G36*
X104391600Y-23126600D02*
G01*
X103958400Y-23126600D01*
X103958400Y-22373400D01*
X104391600Y-22373400D01*
X104391600Y-23126600D01*
G37*
X104391600Y-23126600D02*
X103958400Y-23126600D01*
X103958400Y-22373400D01*
X104391600Y-22373400D01*
X104391600Y-23126600D01*
G36*
X103941600Y-26526600D02*
G01*
X103508400Y-26526600D01*
X103508400Y-25773400D01*
X103941600Y-25773400D01*
X103941600Y-26526600D01*
G37*
X103941600Y-26526600D02*
X103508400Y-26526600D01*
X103508400Y-25773400D01*
X103941600Y-25773400D01*
X103941600Y-26526600D01*
G36*
X105253500Y-24250000D02*
G01*
X103546500Y-24250000D01*
X103546500Y-23862600D01*
X105253500Y-23862600D01*
X105253500Y-24250000D01*
G37*
X105253500Y-24250000D02*
X103546500Y-24250000D01*
X103546500Y-23862600D01*
X105253500Y-23862600D01*
X105253500Y-24250000D01*
G36*
X103300000Y-25090001D02*
G01*
X102480001Y-25090001D01*
X102480001Y-24809999D01*
X103300000Y-24809999D01*
X103300000Y-25090001D01*
G37*
X103300000Y-25090001D02*
X102480001Y-25090001D01*
X102480001Y-24809999D01*
X103300000Y-24809999D01*
X103300000Y-25090001D01*
G36*
X103300000Y-23589999D02*
G01*
X102480001Y-23589999D01*
X102480001Y-23310000D01*
X103300000Y-23310000D01*
X103300000Y-23589999D01*
G37*
X103300000Y-23589999D02*
X102480001Y-23589999D01*
X102480001Y-23310000D01*
X103300000Y-23310000D01*
X103300000Y-23589999D01*
G36*
X106319999Y-25590000D02*
G01*
X105500000Y-25590000D01*
X105500000Y-25310001D01*
X106319999Y-25310001D01*
X106319999Y-25590000D01*
G37*
X106319999Y-25590000D02*
X105500000Y-25590000D01*
X105500000Y-25310001D01*
X106319999Y-25310001D01*
X106319999Y-25590000D01*
G36*
X106319999Y-24590000D02*
G01*
X105500000Y-24590000D01*
X105500000Y-24310000D01*
X106319999Y-24310000D01*
X106319999Y-24590000D01*
G37*
X106319999Y-24590000D02*
X105500000Y-24590000D01*
X105500000Y-24310000D01*
X106319999Y-24310000D01*
X106319999Y-24590000D01*
G36*
X105291600Y-23126600D02*
G01*
X104858400Y-23126600D01*
X104858400Y-22373400D01*
X105291600Y-22373400D01*
X105291600Y-23126600D01*
G37*
X105291600Y-23126600D02*
X104858400Y-23126600D01*
X104858400Y-22373400D01*
X105291600Y-22373400D01*
X105291600Y-23126600D01*
G36*
X103300000Y-26089999D02*
G01*
X102480001Y-26089999D01*
X102480001Y-25810000D01*
X103300000Y-25810000D01*
X103300000Y-26089999D01*
G37*
X103300000Y-26089999D02*
X102480001Y-26089999D01*
X102480001Y-25810000D01*
X103300000Y-25810000D01*
X103300000Y-26089999D01*
G36*
X103941600Y-23126600D02*
G01*
X103508400Y-23126600D01*
X103508400Y-22373400D01*
X103941600Y-22373400D01*
X103941600Y-23126600D01*
G37*
X103941600Y-23126600D02*
X103508400Y-23126600D01*
X103508400Y-22373400D01*
X103941600Y-22373400D01*
X103941600Y-23126600D01*
G36*
X106319999Y-26089999D02*
G01*
X105500000Y-26089999D01*
X105500000Y-25810000D01*
X106319999Y-25810000D01*
X106319999Y-26089999D01*
G37*
X106319999Y-26089999D02*
X105500000Y-26089999D01*
X105500000Y-25810000D01*
X106319999Y-25810000D01*
X106319999Y-26089999D01*
D15*
X102400000Y-62450000D03*
X103950000Y-62450000D03*
D16*
X100200000Y-24825000D03*
X100200000Y-26375000D03*
D17*
X102400000Y-61100000D03*
X100850000Y-61100000D03*
D18*
X103380000Y-55732500D03*
X102420000Y-55732500D03*
D19*
X102400000Y-57862500D03*
X102400000Y-56902500D03*
D20*
X120620000Y-37350000D03*
X121580000Y-37350000D03*
X120320000Y-35250000D03*
X121280000Y-35250000D03*
X121020000Y-38450000D03*
X121980000Y-38450000D03*
X120220000Y-36300000D03*
X121180000Y-36300000D03*
D21*
X96850000Y-42950000D03*
X96850000Y-40750000D03*
X95150000Y-40750000D03*
X95150000Y-42950000D03*
D22*
X98100000Y-23160000D03*
X98100000Y-22140000D03*
D23*
X111610000Y-19150000D03*
X110590000Y-19150000D03*
D24*
X89780000Y-23050000D03*
X84020000Y-23050000D03*
X84020000Y-19050000D03*
X89780000Y-19050000D03*
D25*
X107000000Y-34250000D03*
X107000000Y-31050000D03*
D19*
X109270572Y-25930000D03*
X109270572Y-24970000D03*
D26*
X102400000Y-52385000D03*
X102400000Y-53355000D03*
X101900000Y-46080000D03*
X101900000Y-47050000D03*
D18*
X99880000Y-39950000D03*
X98920000Y-39950000D03*
D27*
X99200000Y-43170000D03*
X99200000Y-44130000D03*
D20*
X109920000Y-43150000D03*
X110880000Y-43150000D03*
D22*
X100100000Y-37260000D03*
X100100000Y-36240000D03*
D20*
X93085000Y-29945000D03*
X94045000Y-29945000D03*
D23*
X121154000Y-39537000D03*
X120134000Y-39537000D03*
D28*
X112650000Y-20450000D03*
D29*
X110950000Y-20450000D03*
X110950000Y-22450000D03*
X112850000Y-22450000D03*
D22*
X83100000Y-37260000D03*
X83100000Y-36240000D03*
D20*
X92220000Y-22350000D03*
X93180000Y-22350000D03*
D23*
X97910000Y-21050000D03*
X96890000Y-21050000D03*
D30*
X121297000Y-50685000D03*
X121297000Y-49715000D03*
D27*
X103100000Y-46090000D03*
X103100000Y-47050000D03*
D31*
X118524100Y-39850000D03*
X118524100Y-39350001D03*
X118524100Y-38849999D03*
X118524100Y-38350000D03*
X118524100Y-37850001D03*
X118524100Y-37349999D03*
X118524100Y-36850000D03*
D32*
X117700000Y-36025900D03*
X117200001Y-36025900D03*
X116699999Y-36025900D03*
X116200000Y-36025900D03*
X115700001Y-36025900D03*
X115199999Y-36025900D03*
X114700000Y-36025900D03*
D31*
X113875900Y-36850000D03*
X113875900Y-37349999D03*
X113875900Y-37850001D03*
X113875900Y-38350000D03*
X113875900Y-38849999D03*
X113875900Y-39350001D03*
X113875900Y-39850000D03*
D32*
X114700000Y-40674100D03*
X115199999Y-40674100D03*
X115700001Y-40674100D03*
X116200000Y-40674100D03*
X116699999Y-40674100D03*
X117200001Y-40674100D03*
X117700000Y-40674100D03*
D33*
X116200000Y-38350000D03*
D23*
X118510000Y-34450000D03*
X117490000Y-34450000D03*
D34*
X87027500Y-41583650D03*
X87677501Y-41583650D03*
X88327499Y-41583650D03*
X88977501Y-41583650D03*
X89627499Y-41583650D03*
X90277498Y-41583650D03*
X90927499Y-41583650D03*
X91577498Y-41583650D03*
X92227499Y-41583650D03*
X92877498Y-41583650D03*
X92877500Y-35944850D03*
X92227502Y-35944850D03*
X91577501Y-35944850D03*
X90927502Y-35944850D03*
X90277501Y-35944850D03*
X89627502Y-35944850D03*
X88977501Y-35944850D03*
X88327502Y-35944850D03*
X87677501Y-35944850D03*
X87027502Y-35944850D03*
D35*
X90715001Y-27424999D03*
X90215000Y-27424999D03*
X89715000Y-27424999D03*
X89214999Y-27424999D03*
D36*
X88489999Y-28149811D03*
X88489999Y-28649937D03*
X88489999Y-29150063D03*
X88489999Y-29650189D03*
D35*
X89214999Y-30375001D03*
X89715000Y-30375001D03*
X90215000Y-30375001D03*
X90715001Y-30375001D03*
D36*
X91440001Y-29650189D03*
X91440001Y-29150063D03*
X91440001Y-28649937D03*
X91440001Y-28149811D03*
D37*
X89571300Y-29293700D03*
X90358700Y-28506300D03*
X90358700Y-29293700D03*
X89571300Y-28506300D03*
D19*
X104200000Y-34980000D03*
X104200000Y-34020000D03*
D16*
X98750000Y-24775000D03*
X98750000Y-26325000D03*
D20*
X90040000Y-25950000D03*
X91000000Y-25950000D03*
D19*
X108070572Y-25930000D03*
X108070572Y-24970000D03*
D27*
X98900000Y-36270000D03*
X98900000Y-37230000D03*
D20*
X110320000Y-38250000D03*
X111280000Y-38250000D03*
X100826000Y-45070000D03*
X101786000Y-45070000D03*
D38*
X102450000Y-43050001D03*
X102949999Y-43050001D03*
X103449998Y-43050001D03*
X103950000Y-43050001D03*
X104449999Y-43050001D03*
X104950000Y-43050001D03*
X105450000Y-43050001D03*
X105949998Y-43050001D03*
X106450000Y-43050001D03*
X106949999Y-43050001D03*
X107450001Y-43050001D03*
X107950000Y-43050001D03*
D39*
X108600001Y-42400000D03*
X108600001Y-41900001D03*
X108600001Y-41400002D03*
X108600001Y-40900000D03*
X108600001Y-40400001D03*
X108600001Y-39900000D03*
X108600001Y-39400000D03*
X108600001Y-38900002D03*
X108600001Y-38400000D03*
X108600001Y-37900001D03*
X108600001Y-37399999D03*
X108600001Y-36900000D03*
D38*
X107950000Y-36249999D03*
X107450001Y-36249999D03*
X106949999Y-36249999D03*
X106450000Y-36249999D03*
X105949998Y-36249999D03*
X105450000Y-36249999D03*
X104950000Y-36249999D03*
X104449999Y-36249999D03*
X103950000Y-36249999D03*
X103449998Y-36249999D03*
X102949999Y-36249999D03*
X102450000Y-36249999D03*
D39*
X101799999Y-36900000D03*
X101799999Y-37399999D03*
X101799999Y-37900001D03*
X101799999Y-38400000D03*
X101799999Y-38900002D03*
X101799999Y-39400000D03*
X101799999Y-39900000D03*
X101799999Y-40400001D03*
X101799999Y-40900000D03*
X101799999Y-41400002D03*
X101799999Y-41900001D03*
X101799999Y-42400000D03*
D40*
X105200000Y-39650000D03*
D41*
X102875001Y-40453501D03*
X106003501Y-37325001D03*
X106003501Y-41974999D03*
X102875001Y-38846499D03*
X107524999Y-38846499D03*
X104396499Y-41974999D03*
X104396499Y-40453501D03*
X107524999Y-40453501D03*
X104396499Y-38846499D03*
X104396499Y-37325001D03*
X106003501Y-38846499D03*
X106003501Y-40453501D03*
D18*
X99880000Y-41050000D03*
X98920000Y-41050000D03*
D42*
X108500000Y-49800000D03*
X108500000Y-47300000D03*
D23*
X121154000Y-40680000D03*
X120134000Y-40680000D03*
D43*
X116550000Y-31575000D03*
D44*
X116550000Y-30305000D03*
X117820000Y-31575000D03*
X117820000Y-30305000D03*
X119090000Y-31575000D03*
X119090000Y-30305000D03*
X120360000Y-31575000D03*
X120360000Y-30305000D03*
X121630000Y-31575000D03*
X121630000Y-30305000D03*
D45*
X83907000Y-32281000D03*
D46*
X83907000Y-29741000D03*
X83907000Y-27201000D03*
D47*
X117620000Y-56332500D03*
D48*
X119145000Y-57807500D03*
X119145000Y-54857500D03*
D45*
X105300000Y-19075000D03*
D46*
X102760000Y-19075000D03*
X100220000Y-19075000D03*
X97680000Y-19075000D03*
D27*
X113900000Y-49270000D03*
X113900000Y-50230000D03*
D19*
X107300000Y-23130000D03*
X107300000Y-22170000D03*
D18*
X102480000Y-51270000D03*
X101520000Y-51270000D03*
D49*
X102800000Y-34825000D03*
X102800000Y-33275000D03*
D27*
X102400000Y-63620000D03*
X102400000Y-64580000D03*
D50*
X116195000Y-25740000D03*
X116195000Y-19960000D03*
D51*
X115130000Y-26200000D03*
X115130000Y-25400000D03*
X115130000Y-24100000D03*
X115130000Y-23100000D03*
X115130000Y-22600000D03*
X115130000Y-21600000D03*
X115130000Y-20300000D03*
X115130000Y-19500000D03*
X115130000Y-19800000D03*
X115130000Y-20600000D03*
X115130000Y-21100000D03*
X115130000Y-22100000D03*
X115130000Y-23600000D03*
X115130000Y-24600000D03*
X115130000Y-25100000D03*
X115130000Y-25900000D03*
D52*
X119875000Y-27170000D03*
D53*
X115695000Y-18530000D03*
X115695000Y-27170000D03*
D52*
X119875000Y-18530000D03*
D19*
X110000000Y-37130000D03*
X110000000Y-36170000D03*
D20*
X102520000Y-48170000D03*
X103480000Y-48170000D03*
D49*
X97150000Y-26376000D03*
X97150000Y-24826000D03*
D22*
X119773000Y-49799000D03*
X119773000Y-48779000D03*
D20*
X102420000Y-54450000D03*
X103380000Y-54450000D03*
D30*
X84424000Y-42553000D03*
X84424000Y-41583000D03*
D19*
X110800000Y-50030000D03*
X110800000Y-49070000D03*
D23*
X109110000Y-19150000D03*
X108090000Y-19150000D03*
D27*
X110800000Y-47070000D03*
X110800000Y-48030000D03*
D26*
X102400000Y-58897500D03*
X102400000Y-59867500D03*
D27*
X104300000Y-46090000D03*
X104300000Y-47050000D03*
D54*
X113940000Y-53700000D03*
X114960000Y-53700000D03*
X93090000Y-31050000D03*
X94110000Y-31050000D03*
D55*
X102890000Y-22950000D03*
X102890000Y-23449999D03*
X102890000Y-23950001D03*
X102890000Y-24450000D03*
X102890000Y-24950002D03*
X102890000Y-25450001D03*
X102890000Y-25950000D03*
X105910000Y-25950000D03*
X105910000Y-25450001D03*
X105910000Y-24949999D03*
X105910000Y-24450000D03*
X105910000Y-23949998D03*
X105910000Y-23449999D03*
X105910000Y-22950000D03*
D37*
X104793700Y-24450000D03*
X104006300Y-25237400D03*
X104006300Y-23662600D03*
X104793700Y-23662600D03*
X104006300Y-24450000D03*
X104793700Y-25237400D03*
D26*
X102500000Y-49185000D03*
X102500000Y-50155000D03*
D56*
X115238000Y-52297800D03*
X115746000Y-52297800D03*
X116254000Y-52297800D03*
X116762000Y-52297800D03*
X116762000Y-49402200D03*
X116254000Y-49402200D03*
X115746000Y-49402200D03*
X115238000Y-49402200D03*
D57*
X116000000Y-50850000D03*
D54*
X111890000Y-24250000D03*
X112910000Y-24250000D03*
D22*
X96900000Y-23160000D03*
X96900000Y-22140000D03*
D30*
X84527000Y-37939000D03*
X84527000Y-36969000D03*
D22*
X82900000Y-41550000D03*
X82900000Y-40530000D03*
D23*
X121192000Y-41914000D03*
X120172000Y-41914000D03*
D58*
X101837000Y-44070000D03*
X102807000Y-44070000D03*
D59*
X101100000Y-33225000D03*
X101100000Y-34875000D03*
D58*
X103107000Y-45070000D03*
X104077000Y-45070000D03*
D17*
X104375000Y-31550000D03*
X102825000Y-31550000D03*
M02*
