%TF.GenerationSoftware,KiCad,Pcbnew,(6.0.8)*%
%TF.CreationDate,2022-11-18T14:33:23-05:00*%
%TF.ProjectId,Emrick,456d7269-636b-42e6-9b69-6361645f7063,2*%
%TF.SameCoordinates,Original*%
%TF.FileFunction,Drillmap*%
%TF.FilePolarity,Positive*%
%FSLAX45Y45*%
G04 Gerber Fmt 4.5, Leading zero omitted, Abs format (unit mm)*
G04 Created by KiCad (PCBNEW (6.0.8)) date 2022-11-18 14:33:23*
%MOMM*%
%LPD*%
G01*
G04 APERTURE LIST*
%ADD10C,0.100000*%
%ADD11C,0.200000*%
%ADD12C,0.020320*%
%ADD13C,0.025400*%
%ADD14C,0.030000*%
%ADD15C,0.040000*%
%ADD16C,0.060000*%
%ADD17C,0.065000*%
G04 APERTURE END LIST*
D10*
X12320000Y-1695000D02*
X12320000Y-9103250D01*
X8170000Y-1695000D02*
X12320000Y-1695000D01*
X8170000Y-9103250D02*
X8170000Y-1695000D01*
X8170000Y-9103250D02*
X12320000Y-9103250D01*
D11*
D12*
X10277340Y-3874490D02*
X10297660Y-3894810D01*
X10297660Y-3874490D02*
X10277340Y-3894810D01*
X10277340Y-4035190D02*
X10297660Y-4055510D01*
X10297660Y-4035190D02*
X10277340Y-4055510D01*
X10429490Y-3722340D02*
X10449810Y-3742660D01*
X10449810Y-3722340D02*
X10429490Y-3742660D01*
X10429490Y-3874490D02*
X10449810Y-3894810D01*
X10449810Y-3874490D02*
X10429490Y-3894810D01*
X10429490Y-4035190D02*
X10449810Y-4055510D01*
X10449810Y-4035190D02*
X10429490Y-4055510D01*
X10429490Y-4187340D02*
X10449810Y-4207660D01*
X10449810Y-4187340D02*
X10429490Y-4207660D01*
X10590190Y-3722340D02*
X10610510Y-3742660D01*
X10610510Y-3722340D02*
X10590190Y-3742660D01*
X10590190Y-3874490D02*
X10610510Y-3894810D01*
X10610510Y-3874490D02*
X10590190Y-3894810D01*
X10590190Y-4035190D02*
X10610510Y-4055510D01*
X10610510Y-4035190D02*
X10590190Y-4055510D01*
X10590190Y-4187340D02*
X10610510Y-4207660D01*
X10610510Y-4187340D02*
X10590190Y-4207660D01*
X10742340Y-3874490D02*
X10762660Y-3894810D01*
X10762660Y-3874490D02*
X10742340Y-3894810D01*
X10742340Y-4035190D02*
X10762660Y-4055510D01*
X10762660Y-4035190D02*
X10742340Y-4055510D01*
D13*
X8969830Y-2850630D02*
G75*
G03*
X8969830Y-2850630I-12700J0D01*
G01*
X8969830Y-2929370D02*
G75*
G03*
X8969830Y-2929370I-12700J0D01*
G01*
X9048570Y-2850630D02*
G75*
G03*
X9048570Y-2850630I-12700J0D01*
G01*
X9048570Y-2929370D02*
G75*
G03*
X9048570Y-2929370I-12700J0D01*
G01*
X10413330Y-2366260D02*
G75*
G03*
X10413330Y-2366260I-12700J0D01*
G01*
X10413330Y-2445000D02*
G75*
G03*
X10413330Y-2445000I-12700J0D01*
G01*
X10413330Y-2523740D02*
G75*
G03*
X10413330Y-2523740I-12700J0D01*
G01*
X10492070Y-2366260D02*
G75*
G03*
X10492070Y-2366260I-12700J0D01*
G01*
X10492070Y-2445000D02*
G75*
G03*
X10492070Y-2445000I-12700J0D01*
G01*
X10492070Y-2523740D02*
G75*
G03*
X10492070Y-2523740I-12700J0D01*
G01*
D14*
X8340000Y-5970000D02*
X8340000Y-6000000D01*
X8325000Y-5985000D02*
X8355000Y-5985000D01*
X8350000Y-4470000D02*
X8350000Y-4500000D01*
X8335000Y-4485000D02*
X8365000Y-4485000D01*
X8350000Y-4850000D02*
X8350000Y-4880000D01*
X8335000Y-4865000D02*
X8365000Y-4865000D01*
X8370000Y-7318250D02*
X8370000Y-7348250D01*
X8355000Y-7333250D02*
X8385000Y-7333250D01*
X8370000Y-7688250D02*
X8370000Y-7718250D01*
X8355000Y-7703250D02*
X8385000Y-7703250D01*
X8370000Y-7958250D02*
X8370000Y-7988250D01*
X8355000Y-7973250D02*
X8385000Y-7973250D01*
X8390000Y-8458250D02*
X8390000Y-8488250D01*
X8375000Y-8473250D02*
X8405000Y-8473250D01*
X8390000Y-8908250D02*
X8390000Y-8938250D01*
X8375000Y-8923250D02*
X8405000Y-8923250D01*
X8420000Y-5115000D02*
X8420000Y-5145000D01*
X8405000Y-5130000D02*
X8435000Y-5130000D01*
X8470000Y-3980000D02*
X8470000Y-4010000D01*
X8455000Y-3995000D02*
X8485000Y-3995000D01*
X8470000Y-7488250D02*
X8470000Y-7518250D01*
X8455000Y-7503250D02*
X8485000Y-7503250D01*
X8490000Y-3480000D02*
X8490000Y-3510000D01*
X8475000Y-3495000D02*
X8505000Y-3495000D01*
X8500000Y-5305000D02*
X8500000Y-5335000D01*
X8485000Y-5320000D02*
X8515000Y-5320000D01*
X8500000Y-8668250D02*
X8500000Y-8698250D01*
X8485000Y-8683250D02*
X8515000Y-8683250D01*
X8540000Y-5740000D02*
X8540000Y-5770000D01*
X8525000Y-5755000D02*
X8555000Y-5755000D01*
X8550000Y-4705000D02*
X8550000Y-4735000D01*
X8535000Y-4720000D02*
X8565000Y-4720000D01*
X8580000Y-3570000D02*
X8580000Y-3600000D01*
X8565000Y-3585000D02*
X8595000Y-3585000D01*
X8600000Y-7828250D02*
X8600000Y-7858250D01*
X8585000Y-7843250D02*
X8615000Y-7843250D01*
X8620000Y-5125000D02*
X8620000Y-5155000D01*
X8605000Y-5140000D02*
X8635000Y-5140000D01*
X8630000Y-3810000D02*
X8630000Y-3840000D01*
X8615000Y-3825000D02*
X8645000Y-3825000D01*
X8650000Y-3400000D02*
X8650000Y-3430000D01*
X8635000Y-3415000D02*
X8665000Y-3415000D01*
X8690000Y-7328250D02*
X8690000Y-7358250D01*
X8675000Y-7343250D02*
X8705000Y-7343250D01*
X8690000Y-8958250D02*
X8690000Y-8988250D01*
X8675000Y-8973250D02*
X8705000Y-8973250D01*
X8700000Y-3050000D02*
X8700000Y-3080000D01*
X8685000Y-3065000D02*
X8715000Y-3065000D01*
X8712450Y-3330000D02*
X8712450Y-3360000D01*
X8697450Y-3345000D02*
X8727450Y-3345000D01*
X8724750Y-2460000D02*
X8724750Y-2490000D01*
X8709750Y-2475000D02*
X8739750Y-2475000D01*
X8750000Y-8328250D02*
X8750000Y-8358250D01*
X8735000Y-8343250D02*
X8765000Y-8343250D01*
X8790000Y-3410000D02*
X8790000Y-3440000D01*
X8775000Y-3425000D02*
X8805000Y-3425000D01*
X8830000Y-5530000D02*
X8830000Y-5560000D01*
X8815000Y-5545000D02*
X8845000Y-5545000D01*
X8840000Y-3050000D02*
X8840000Y-3080000D01*
X8825000Y-3065000D02*
X8855000Y-3065000D01*
X8850000Y-7948250D02*
X8850000Y-7978250D01*
X8835000Y-7963250D02*
X8865000Y-7963250D01*
X8850927Y-2740927D02*
X8850927Y-2770927D01*
X8835927Y-2755927D02*
X8865927Y-2755927D01*
X8859925Y-3330075D02*
X8859925Y-3360075D01*
X8844925Y-3345075D02*
X8874925Y-3345075D01*
X8860000Y-4590000D02*
X8860000Y-4620000D01*
X8845000Y-4605000D02*
X8875000Y-4605000D01*
X8860000Y-4885000D02*
X8860000Y-4915000D01*
X8845000Y-4900000D02*
X8875000Y-4900000D01*
X8890000Y-3150000D02*
X8890000Y-3180000D01*
X8875000Y-3165000D02*
X8905000Y-3165000D01*
X8915000Y-5145000D02*
X8915000Y-5175000D01*
X8900000Y-5160000D02*
X8930000Y-5160000D01*
X8930000Y-7448250D02*
X8930000Y-7478250D01*
X8915000Y-7463250D02*
X8945000Y-7463250D01*
X8950000Y-3870000D02*
X8950000Y-3900000D01*
X8935000Y-3885000D02*
X8965000Y-3885000D01*
X8960000Y-5970000D02*
X8960000Y-6000000D01*
X8945000Y-5985000D02*
X8975000Y-5985000D01*
X9060000Y-8828250D02*
X9060000Y-8858250D01*
X9045000Y-8843250D02*
X9075000Y-8843250D01*
X9080000Y-8438250D02*
X9080000Y-8468250D01*
X9065000Y-8453250D02*
X9095000Y-8453250D01*
X9135000Y-4860000D02*
X9135000Y-4890000D01*
X9120000Y-4875000D02*
X9150000Y-4875000D01*
X9170000Y-7828250D02*
X9170000Y-7858250D01*
X9155000Y-7843250D02*
X9185000Y-7843250D01*
X9200000Y-2580000D02*
X9200000Y-2610000D01*
X9185000Y-2595000D02*
X9215000Y-2595000D01*
X9240000Y-7318250D02*
X9240000Y-7348250D01*
X9225000Y-7333250D02*
X9255000Y-7333250D01*
X9250000Y-5210000D02*
X9250000Y-5240000D01*
X9235000Y-5225000D02*
X9265000Y-5225000D01*
X9270000Y-2800000D02*
X9270000Y-2830000D01*
X9255000Y-2815000D02*
X9285000Y-2815000D01*
X9310000Y-8948250D02*
X9310000Y-8978250D01*
X9295000Y-8963250D02*
X9325000Y-8963250D01*
X9320000Y-3380000D02*
X9320000Y-3410000D01*
X9305000Y-3395000D02*
X9335000Y-3395000D01*
X9360000Y-4310000D02*
X9360000Y-4340000D01*
X9345000Y-4325000D02*
X9375000Y-4325000D01*
X9370000Y-2130000D02*
X9370000Y-2160000D01*
X9355000Y-2145000D02*
X9385000Y-2145000D01*
X9390000Y-5700000D02*
X9390000Y-5730000D01*
X9375000Y-5715000D02*
X9405000Y-5715000D01*
X9410000Y-2550000D02*
X9410000Y-2580000D01*
X9395000Y-2565000D02*
X9425000Y-2565000D01*
X9420000Y-3570000D02*
X9420000Y-3600000D01*
X9405000Y-3585000D02*
X9435000Y-3585000D01*
X9430000Y-3860000D02*
X9430000Y-3890000D01*
X9415000Y-3875000D02*
X9445000Y-3875000D01*
X9430000Y-8328250D02*
X9430000Y-8358250D01*
X9415000Y-8343250D02*
X9445000Y-8343250D01*
X9475000Y-4580000D02*
X9475000Y-4610000D01*
X9460000Y-4595000D02*
X9490000Y-4595000D01*
X9490000Y-1870000D02*
X9490000Y-1900000D01*
X9475000Y-1885000D02*
X9505000Y-1885000D01*
X9490000Y-3043125D02*
X9490000Y-3073125D01*
X9475000Y-3058125D02*
X9505000Y-3058125D01*
X9490000Y-5990000D02*
X9490000Y-6020000D01*
X9475000Y-6005000D02*
X9505000Y-6005000D01*
X9520000Y-3740000D02*
X9520000Y-3770000D01*
X9505000Y-3755000D02*
X9535000Y-3755000D01*
X9530000Y-4865000D02*
X9530000Y-4895000D01*
X9515000Y-4880000D02*
X9545000Y-4880000D01*
X9550000Y-5325000D02*
X9550000Y-5355000D01*
X9535000Y-5340000D02*
X9565000Y-5340000D01*
X9560000Y-7958250D02*
X9560000Y-7988250D01*
X9545000Y-7973250D02*
X9575000Y-7973250D01*
X9580000Y-7448250D02*
X9580000Y-7478250D01*
X9565000Y-7463250D02*
X9595000Y-7463250D01*
X9608050Y-2194950D02*
X9608050Y-2224950D01*
X9593050Y-2209950D02*
X9623050Y-2209950D01*
X9645000Y-3460000D02*
X9645000Y-3490000D01*
X9630000Y-3475000D02*
X9660000Y-3475000D01*
X9650000Y-3860000D02*
X9650000Y-3890000D01*
X9635000Y-3875000D02*
X9665000Y-3875000D01*
X9700000Y-8828250D02*
X9700000Y-8858250D01*
X9685000Y-8843250D02*
X9715000Y-8843250D01*
X9720000Y-8458250D02*
X9720000Y-8488250D01*
X9705000Y-8473250D02*
X9735000Y-8473250D01*
X9760000Y-6000000D02*
X9760000Y-6030000D01*
X9745000Y-6015000D02*
X9775000Y-6015000D01*
X9820000Y-4410000D02*
X9820000Y-4440000D01*
X9805000Y-4425000D02*
X9835000Y-4425000D01*
X9820000Y-5150000D02*
X9820000Y-5180000D01*
X9805000Y-5165000D02*
X9835000Y-5165000D01*
X9830000Y-4680000D02*
X9830000Y-4710000D01*
X9815000Y-4695000D02*
X9845000Y-4695000D01*
X9845000Y-3830000D02*
X9845000Y-3860000D01*
X9830000Y-3845000D02*
X9860000Y-3845000D01*
X9910000Y-2129950D02*
X9910000Y-2159950D01*
X9895000Y-2144950D02*
X9925000Y-2144950D01*
X9920000Y-2210000D02*
X9920000Y-2240000D01*
X9905000Y-2225000D02*
X9935000Y-2225000D01*
X9920000Y-7818250D02*
X9920000Y-7848250D01*
X9905000Y-7833250D02*
X9935000Y-7833250D01*
X9925000Y-4630000D02*
X9925000Y-4660000D01*
X9910000Y-4645000D02*
X9940000Y-4645000D01*
X9947709Y-3540000D02*
X9947709Y-3570000D01*
X9932709Y-3555000D02*
X9962709Y-3555000D01*
X9950000Y-5680000D02*
X9950000Y-5710000D01*
X9935000Y-5695000D02*
X9965000Y-5695000D01*
X9990000Y-7318250D02*
X9990000Y-7348250D01*
X9975000Y-7333250D02*
X10005000Y-7333250D01*
X10020000Y-8328250D02*
X10020000Y-8358250D01*
X10005000Y-8343250D02*
X10035000Y-8343250D01*
X10050000Y-8958250D02*
X10050000Y-8988250D01*
X10035000Y-8973250D02*
X10065000Y-8973250D01*
X10065841Y-4064159D02*
X10065841Y-4094159D01*
X10050841Y-4079159D02*
X10080841Y-4079159D01*
X10080000Y-2750000D02*
X10080000Y-2780000D01*
X10065000Y-2765000D02*
X10095000Y-2765000D01*
X10080000Y-3900000D02*
X10080000Y-3930000D01*
X10065000Y-3915000D02*
X10095000Y-3915000D01*
X10084795Y-3810282D02*
X10084795Y-3840282D01*
X10069795Y-3825282D02*
X10099795Y-3825282D01*
X10088000Y-4302000D02*
X10088000Y-4332000D01*
X10073000Y-4317000D02*
X10103000Y-4317000D01*
X10170000Y-2200000D02*
X10170000Y-2230000D01*
X10155000Y-2215000D02*
X10185000Y-2215000D01*
X10170000Y-2280000D02*
X10170000Y-2310000D01*
X10155000Y-2295000D02*
X10185000Y-2295000D01*
X10170000Y-2360000D02*
X10170000Y-2390000D01*
X10155000Y-2375000D02*
X10185000Y-2375000D01*
X10180000Y-6628250D02*
X10180000Y-6658250D01*
X10165000Y-6643250D02*
X10195000Y-6643250D01*
X10180000Y-7188250D02*
X10180000Y-7218250D01*
X10165000Y-7203250D02*
X10195000Y-7203250D01*
X10260000Y-7948250D02*
X10260000Y-7978250D01*
X10245000Y-7963250D02*
X10275000Y-7963250D01*
X10280000Y-8448250D02*
X10280000Y-8478250D01*
X10265000Y-8463250D02*
X10295000Y-8463250D01*
X10290000Y-7438250D02*
X10290000Y-7468250D01*
X10275000Y-7453250D02*
X10305000Y-7453250D01*
X10300000Y-2790000D02*
X10300000Y-2820000D01*
X10285000Y-2805000D02*
X10315000Y-2805000D01*
X10300000Y-6918250D02*
X10300000Y-6948250D01*
X10285000Y-6933250D02*
X10315000Y-6933250D01*
X10370000Y-2790000D02*
X10370000Y-2820000D01*
X10355000Y-2805000D02*
X10385000Y-2805000D01*
X10440000Y-2790000D02*
X10440000Y-2820000D01*
X10425000Y-2805000D02*
X10455000Y-2805000D01*
X10500000Y-5005000D02*
X10500000Y-5035000D01*
X10485000Y-5020000D02*
X10515000Y-5020000D01*
X10520045Y-4527450D02*
X10520045Y-4557450D01*
X10505045Y-4542450D02*
X10535045Y-4542450D01*
X10530000Y-6030000D02*
X10530000Y-6060000D01*
X10515000Y-6045000D02*
X10545000Y-6045000D01*
X10550000Y-3525000D02*
X10550000Y-3555000D01*
X10535000Y-3540000D02*
X10565000Y-3540000D01*
X10560000Y-8328250D02*
X10560000Y-8358250D01*
X10545000Y-8343250D02*
X10575000Y-8343250D01*
X10590000Y-5445000D02*
X10590000Y-5475000D01*
X10575000Y-5460000D02*
X10605000Y-5460000D01*
X10610000Y-5830000D02*
X10610000Y-5860000D01*
X10595000Y-5845000D02*
X10625000Y-5845000D01*
X10620000Y-7818250D02*
X10620000Y-7848250D01*
X10605000Y-7833250D02*
X10635000Y-7833250D01*
X10630000Y-2200000D02*
X10630000Y-2230000D01*
X10615000Y-2215000D02*
X10645000Y-2215000D01*
X10650000Y-2790000D02*
X10650000Y-2820000D01*
X10635000Y-2805000D02*
X10665000Y-2805000D01*
X10678411Y-3528187D02*
X10678411Y-3558187D01*
X10663411Y-3543187D02*
X10693411Y-3543187D01*
X10690000Y-5280000D02*
X10690000Y-5310000D01*
X10675000Y-5295000D02*
X10705000Y-5295000D01*
X10700000Y-3224750D02*
X10700000Y-3254750D01*
X10685000Y-3239750D02*
X10715000Y-3239750D01*
X10720000Y-2790000D02*
X10720000Y-2820000D01*
X10705000Y-2805000D02*
X10735000Y-2805000D01*
X10758310Y-3525328D02*
X10758310Y-3555328D01*
X10743310Y-3540328D02*
X10773310Y-3540328D01*
X10790000Y-2790000D02*
X10790000Y-2820000D01*
X10775000Y-2805000D02*
X10805000Y-2805000D01*
X10795000Y-2380000D02*
X10795000Y-2410000D01*
X10780000Y-2395000D02*
X10810000Y-2395000D01*
X10832550Y-3555000D02*
X10832550Y-3585000D01*
X10817550Y-3570000D02*
X10847550Y-3570000D01*
X10840000Y-4390000D02*
X10840000Y-4420000D01*
X10825000Y-4405000D02*
X10855000Y-4405000D01*
X10845000Y-4580000D02*
X10845000Y-4610000D01*
X10830000Y-4595000D02*
X10860000Y-4595000D01*
X10850000Y-2130000D02*
X10850000Y-2160000D01*
X10835000Y-2145000D02*
X10865000Y-2145000D01*
X10850000Y-8448250D02*
X10850000Y-8478250D01*
X10835000Y-8463250D02*
X10865000Y-8463250D01*
X10880000Y-5790000D02*
X10880000Y-5820000D01*
X10865000Y-5805000D02*
X10895000Y-5805000D01*
X10920000Y-2230000D02*
X10920000Y-2260000D01*
X10905000Y-2245000D02*
X10935000Y-2245000D01*
X10920000Y-2720000D02*
X10920000Y-2750000D01*
X10905000Y-2735000D02*
X10935000Y-2735000D01*
X10920000Y-7958250D02*
X10920000Y-7988250D01*
X10905000Y-7973250D02*
X10935000Y-7973250D01*
X10941468Y-4055006D02*
X10941468Y-4085006D01*
X10926468Y-4070006D02*
X10956468Y-4070006D01*
X10961456Y-3870750D02*
X10961456Y-3900750D01*
X10946456Y-3885750D02*
X10976456Y-3885750D01*
X10985000Y-5360000D02*
X10985000Y-5390000D01*
X10970000Y-5375000D02*
X11000000Y-5375000D01*
X10995000Y-3455000D02*
X10995000Y-3485000D01*
X10980000Y-3470000D02*
X11010000Y-3470000D01*
X10995000Y-5145000D02*
X10995000Y-5175000D01*
X10980000Y-5160000D02*
X11010000Y-5160000D01*
X11010000Y-4570000D02*
X11010000Y-4600000D01*
X10995000Y-4585000D02*
X11025000Y-4585000D01*
X11018663Y-3990061D02*
X11018663Y-4020061D01*
X11003663Y-4005061D02*
X11033663Y-4005061D01*
X11020000Y-4070000D02*
X11020000Y-4100000D01*
X11005000Y-4085000D02*
X11035000Y-4085000D01*
X11042334Y-3127334D02*
X11042334Y-3157334D01*
X11027334Y-3142334D02*
X11057334Y-3142334D01*
X11060000Y-6040000D02*
X11060000Y-6070000D01*
X11045000Y-6055000D02*
X11075000Y-6055000D01*
X11065050Y-3224750D02*
X11065050Y-3254750D01*
X11050050Y-3239750D02*
X11080050Y-3239750D01*
X11070000Y-4150000D02*
X11070000Y-4180000D01*
X11055000Y-4165000D02*
X11085000Y-4165000D01*
X11083353Y-3543353D02*
X11083353Y-3573353D01*
X11068353Y-3558353D02*
X11098353Y-3558353D01*
X11095873Y-3969309D02*
X11095873Y-3999309D01*
X11080873Y-3984309D02*
X11110873Y-3984309D01*
X11100000Y-4390000D02*
X11100000Y-4420000D01*
X11085000Y-4405000D02*
X11115000Y-4405000D01*
X11115841Y-3705841D02*
X11115841Y-3735841D01*
X11100841Y-3720841D02*
X11130841Y-3720841D01*
X11120000Y-8328250D02*
X11120000Y-8358250D01*
X11105000Y-8343250D02*
X11135000Y-8343250D01*
X11145000Y-3224750D02*
X11145000Y-3254750D01*
X11130000Y-3239750D02*
X11160000Y-3239750D01*
X11148353Y-3478353D02*
X11148353Y-3508353D01*
X11133353Y-3493353D02*
X11163353Y-3493353D01*
X11190000Y-7818250D02*
X11190000Y-7848250D01*
X11175000Y-7833250D02*
X11205000Y-7833250D01*
X11209950Y-3842738D02*
X11209950Y-3872738D01*
X11194950Y-3857738D02*
X11224950Y-3857738D01*
X11209950Y-4040000D02*
X11209950Y-4070000D01*
X11194950Y-4055000D02*
X11224950Y-4055000D01*
X11230000Y-3950000D02*
X11230000Y-3980000D01*
X11215000Y-3965000D02*
X11245000Y-3965000D01*
X11230000Y-5830000D02*
X11230000Y-5860000D01*
X11215000Y-5845000D02*
X11245000Y-5845000D01*
X11260000Y-3650000D02*
X11260000Y-3680000D01*
X11245000Y-3665000D02*
X11275000Y-3665000D01*
X11276827Y-3442450D02*
X11276827Y-3472450D01*
X11261827Y-3457450D02*
X11291827Y-3457450D01*
X11291225Y-4848845D02*
X11291225Y-4878845D01*
X11276225Y-4863845D02*
X11306225Y-4863845D01*
X11310000Y-5260000D02*
X11310000Y-5290000D01*
X11295000Y-5275000D02*
X11325000Y-5275000D01*
X11350000Y-4730000D02*
X11350000Y-4760000D01*
X11335000Y-4745000D02*
X11365000Y-4745000D01*
X11371151Y-1795539D02*
X11371151Y-1825539D01*
X11356151Y-1810539D02*
X11386151Y-1810539D01*
X11385842Y-2752550D02*
X11385842Y-2782550D01*
X11370842Y-2767550D02*
X11400842Y-2767550D01*
X11442416Y-3267550D02*
X11442416Y-3297550D01*
X11427416Y-3282550D02*
X11457416Y-3282550D01*
X11450000Y-6010000D02*
X11450000Y-6040000D01*
X11435000Y-6025000D02*
X11465000Y-6025000D01*
X11450000Y-7958250D02*
X11450000Y-7988250D01*
X11435000Y-7973250D02*
X11465000Y-7973250D01*
X11460000Y-8448250D02*
X11460000Y-8478250D01*
X11445000Y-8463250D02*
X11475000Y-8463250D01*
X11490000Y-5790000D02*
X11490000Y-5820000D01*
X11475000Y-5805000D02*
X11505000Y-5805000D01*
X11550000Y-4580000D02*
X11550000Y-4610000D01*
X11535000Y-4595000D02*
X11565000Y-4595000D01*
X11570000Y-4480000D02*
X11570000Y-4510000D01*
X11555000Y-4495000D02*
X11585000Y-4495000D01*
X11600000Y-3410000D02*
X11600000Y-3440000D01*
X11585000Y-3425000D02*
X11615000Y-3425000D01*
X11670000Y-4800000D02*
X11670000Y-4830000D01*
X11655000Y-4815000D02*
X11685000Y-4815000D01*
X11690000Y-8328250D02*
X11690000Y-8358250D01*
X11675000Y-8343250D02*
X11705000Y-8343250D01*
X11740000Y-7828250D02*
X11740000Y-7858250D01*
X11725000Y-7843250D02*
X11755000Y-7843250D01*
X11770000Y-6050000D02*
X11770000Y-6080000D01*
X11755000Y-6065000D02*
X11785000Y-6065000D01*
X11800000Y-4505000D02*
X11800000Y-4535000D01*
X11785000Y-4520000D02*
X11815000Y-4520000D01*
X11830000Y-2075000D02*
X11830000Y-2105000D01*
X11815000Y-2090000D02*
X11845000Y-2090000D01*
X11840000Y-2525000D02*
X11840000Y-2555000D01*
X11825000Y-2540000D02*
X11855000Y-2540000D01*
X11870000Y-7948250D02*
X11870000Y-7978250D01*
X11855000Y-7963250D02*
X11885000Y-7963250D01*
X11940000Y-3505000D02*
X11940000Y-3535000D01*
X11925000Y-3520000D02*
X11955000Y-3520000D01*
X11965000Y-5145000D02*
X11965000Y-5175000D01*
X11950000Y-5160000D02*
X11980000Y-5160000D01*
X11970000Y-4740000D02*
X11970000Y-4770000D01*
X11955000Y-4755000D02*
X11985000Y-4755000D01*
X11970000Y-8138250D02*
X11970000Y-8168250D01*
X11955000Y-8153250D02*
X11985000Y-8153250D01*
X11987573Y-3769950D02*
X11987573Y-3799950D01*
X11972573Y-3784950D02*
X12002573Y-3784950D01*
X12020000Y-3855000D02*
X12020000Y-3885000D01*
X12005000Y-3870000D02*
X12035000Y-3870000D01*
X12090000Y-8438250D02*
X12090000Y-8468250D01*
X12075000Y-8453250D02*
X12105000Y-8453250D01*
X12100000Y-5280000D02*
X12100000Y-5310000D01*
X12085000Y-5295000D02*
X12115000Y-5295000D01*
X12100000Y-7828250D02*
X12100000Y-7858250D01*
X12085000Y-7843250D02*
X12115000Y-7843250D01*
X12155000Y-2020000D02*
X12155000Y-2050000D01*
X12140000Y-2035000D02*
X12170000Y-2035000D01*
X12155000Y-2420000D02*
X12155000Y-2450000D01*
X12140000Y-2435000D02*
X12170000Y-2435000D01*
X12160000Y-6080000D02*
X12160000Y-6110000D01*
X12145000Y-6095000D02*
X12175000Y-6095000D01*
X12190000Y-5370000D02*
X12190000Y-5400000D01*
X12175000Y-5385000D02*
X12205000Y-5385000D01*
X12200000Y-5900000D02*
X12200000Y-5930000D01*
X12185000Y-5915000D02*
X12215000Y-5915000D01*
X12220000Y-5170000D02*
X12220000Y-5200000D01*
X12205000Y-5185000D02*
X12235000Y-5185000D01*
X12230000Y-4605000D02*
X12230000Y-4635000D01*
X12215000Y-4620000D02*
X12245000Y-4620000D01*
D15*
X9209142Y-2134142D02*
X9209142Y-2105858D01*
X9180858Y-2105858D01*
X9180858Y-2134142D01*
X9209142Y-2134142D01*
X9524142Y-2069142D02*
X9524142Y-2040858D01*
X9495858Y-2040858D01*
X9495858Y-2069142D01*
X9524142Y-2069142D01*
X9784142Y-3634142D02*
X9784142Y-3605858D01*
X9755858Y-3605858D01*
X9755858Y-3634142D01*
X9784142Y-3634142D01*
X10009142Y-3834142D02*
X10009142Y-3805858D01*
X9980858Y-3805858D01*
X9980858Y-3834142D01*
X10009142Y-3834142D01*
X10059142Y-5134142D02*
X10059142Y-5105858D01*
X10030858Y-5105858D01*
X10030858Y-5134142D01*
X10059142Y-5134142D01*
X10134142Y-3189142D02*
X10134142Y-3160858D01*
X10105858Y-3160858D01*
X10105858Y-3189142D01*
X10134142Y-3189142D01*
X10384142Y-4934142D02*
X10384142Y-4905858D01*
X10355858Y-4905858D01*
X10355858Y-4934142D01*
X10384142Y-4934142D01*
X10464142Y-3328842D02*
X10464142Y-3300558D01*
X10435858Y-3300558D01*
X10435858Y-3328842D01*
X10464142Y-3328842D01*
X10484142Y-5379142D02*
X10484142Y-5350858D01*
X10455858Y-5350858D01*
X10455858Y-5379142D01*
X10484142Y-5379142D01*
X10759142Y-4409142D02*
X10759142Y-4380858D01*
X10730858Y-4380858D01*
X10730858Y-4409142D01*
X10759142Y-4409142D01*
X10839142Y-1821692D02*
X10839142Y-1793408D01*
X10810858Y-1793408D01*
X10810858Y-1821692D01*
X10839142Y-1821692D01*
X10984142Y-2059142D02*
X10984142Y-2030858D01*
X10955858Y-2030858D01*
X10955858Y-2059142D01*
X10984142Y-2059142D01*
X11014142Y-1834142D02*
X11014142Y-1805858D01*
X10985858Y-1805858D01*
X10985858Y-1834142D01*
X11014142Y-1834142D01*
X11184142Y-3009142D02*
X11184142Y-2980858D01*
X11155858Y-2980858D01*
X11155858Y-3009142D01*
X11184142Y-3009142D01*
X11234142Y-4259142D02*
X11234142Y-4230858D01*
X11205858Y-4230858D01*
X11205858Y-4259142D01*
X11234142Y-4259142D01*
X11259192Y-2584142D02*
X11259192Y-2555858D01*
X11230908Y-2555858D01*
X11230908Y-2584142D01*
X11259192Y-2584142D01*
X11287138Y-4795017D02*
X11287138Y-4766732D01*
X11258854Y-4766732D01*
X11258854Y-4795017D01*
X11287138Y-4795017D01*
X11357912Y-3410372D02*
X11357912Y-3382088D01*
X11329628Y-3382088D01*
X11329628Y-3410372D01*
X11357912Y-3410372D01*
X11404142Y-2539142D02*
X11404142Y-2510858D01*
X11375858Y-2510858D01*
X11375858Y-2539142D01*
X11404142Y-2539142D01*
X11409142Y-2684142D02*
X11409142Y-2655858D01*
X11380858Y-2655858D01*
X11380858Y-2684142D01*
X11409142Y-2684142D01*
X11409642Y-2044142D02*
X11409642Y-2015858D01*
X11381358Y-2015858D01*
X11381358Y-2044142D01*
X11409642Y-2044142D01*
X11509142Y-3084142D02*
X11509142Y-3055858D01*
X11480858Y-3055858D01*
X11480858Y-3084142D01*
X11509142Y-3084142D01*
X11534142Y-3759142D02*
X11534142Y-3730858D01*
X11505858Y-3730858D01*
X11505858Y-3759142D01*
X11534142Y-3759142D01*
X11534142Y-3934142D02*
X11534142Y-3905858D01*
X11505858Y-3905858D01*
X11505858Y-3934142D01*
X11534142Y-3934142D01*
X11616642Y-5101642D02*
X11616642Y-5073358D01*
X11588358Y-5073358D01*
X11588358Y-5101642D01*
X11616642Y-5101642D01*
X11674142Y-2389142D02*
X11674142Y-2360858D01*
X11645858Y-2360858D01*
X11645858Y-2389142D01*
X11674142Y-2389142D01*
X11694142Y-2279142D02*
X11694142Y-2250858D01*
X11665858Y-2250858D01*
X11665858Y-2279142D01*
X11694142Y-2279142D01*
X11734142Y-3759142D02*
X11734142Y-3730858D01*
X11705858Y-3730858D01*
X11705858Y-3759142D01*
X11734142Y-3759142D01*
X11734142Y-3934142D02*
X11734142Y-3905858D01*
X11705858Y-3905858D01*
X11705858Y-3934142D01*
X11734142Y-3934142D01*
X11859142Y-4909142D02*
X11859142Y-4880858D01*
X11830858Y-4880858D01*
X11830858Y-4909142D01*
X11859142Y-4909142D01*
X11879142Y-3614142D02*
X11879142Y-3585858D01*
X11850858Y-3585858D01*
X11850858Y-3614142D01*
X11879142Y-3614142D01*
X12034142Y-4309142D02*
X12034142Y-4280858D01*
X12005858Y-4280858D01*
X12005858Y-4309142D01*
X12034142Y-4309142D01*
X12059142Y-3384142D02*
X12059142Y-3355858D01*
X12030858Y-3355858D01*
X12030858Y-3384142D01*
X12059142Y-3384142D01*
D16*
X11569500Y-1883000D02*
X11599500Y-1853000D01*
X11569500Y-1823000D01*
X11539500Y-1853000D01*
X11569500Y-1883000D01*
D11*
X11514500Y-1883000D02*
X11624500Y-1883000D01*
X11514500Y-1823000D02*
X11624500Y-1823000D01*
X11624500Y-1883000D02*
G75*
G03*
X11624500Y-1823000I0J30000D01*
G01*
X11514500Y-1823000D02*
G75*
G03*
X11514500Y-1883000I0J-30000D01*
G01*
D16*
X11569500Y-2747000D02*
X11599500Y-2717000D01*
X11569500Y-2687000D01*
X11539500Y-2717000D01*
X11569500Y-2747000D01*
D11*
X11514500Y-2747000D02*
X11624500Y-2747000D01*
X11514500Y-2687000D02*
X11624500Y-2687000D01*
X11624500Y-2747000D02*
G75*
G03*
X11624500Y-2687000I0J30000D01*
G01*
X11514500Y-2687000D02*
G75*
G03*
X11514500Y-2747000I0J-30000D01*
G01*
D16*
X11987500Y-1883000D02*
X12017500Y-1853000D01*
X11987500Y-1823000D01*
X11957500Y-1853000D01*
X11987500Y-1883000D01*
D11*
X11957500Y-1883000D02*
X12017500Y-1883000D01*
X11957500Y-1823000D02*
X12017500Y-1823000D01*
X12017500Y-1883000D02*
G75*
G03*
X12017500Y-1823000I0J30000D01*
G01*
X11957500Y-1823000D02*
G75*
G03*
X11957500Y-1883000I0J-30000D01*
G01*
D16*
X11987500Y-2747000D02*
X12017500Y-2717000D01*
X11987500Y-2687000D01*
X11957500Y-2717000D01*
X11987500Y-2747000D01*
D11*
X11957500Y-2747000D02*
X12017500Y-2747000D01*
X11957500Y-2687000D02*
X12017500Y-2687000D01*
X12017500Y-2747000D02*
G75*
G03*
X12017500Y-2687000I0J30000D01*
G01*
X11957500Y-2687000D02*
G75*
G03*
X11957500Y-2747000I0J-30000D01*
G01*
D17*
X11622500Y-2998000D02*
X11687500Y-3063000D01*
X11687500Y-2998000D02*
X11622500Y-3063000D01*
X11687500Y-3030500D02*
G75*
G03*
X11687500Y-3030500I-32500J0D01*
G01*
X11622500Y-3125000D02*
X11687500Y-3190000D01*
X11687500Y-3125000D02*
X11622500Y-3190000D01*
X11687500Y-3157500D02*
G75*
G03*
X11687500Y-3157500I-32500J0D01*
G01*
X11749500Y-2998000D02*
X11814500Y-3063000D01*
X11814500Y-2998000D02*
X11749500Y-3063000D01*
X11814500Y-3030500D02*
G75*
G03*
X11814500Y-3030500I-32500J0D01*
G01*
X11749500Y-3125000D02*
X11814500Y-3190000D01*
X11814500Y-3125000D02*
X11749500Y-3190000D01*
X11814500Y-3157500D02*
G75*
G03*
X11814500Y-3157500I-32500J0D01*
G01*
X11876500Y-2998000D02*
X11941500Y-3063000D01*
X11941500Y-2998000D02*
X11876500Y-3063000D01*
X11941500Y-3030500D02*
G75*
G03*
X11941500Y-3030500I-32500J0D01*
G01*
X11876500Y-3125000D02*
X11941500Y-3190000D01*
X11941500Y-3125000D02*
X11876500Y-3190000D01*
X11941500Y-3157500D02*
G75*
G03*
X11941500Y-3157500I-32500J0D01*
G01*
X12003500Y-2998000D02*
X12068500Y-3063000D01*
X12068500Y-2998000D02*
X12003500Y-3063000D01*
X12068500Y-3030500D02*
G75*
G03*
X12068500Y-3030500I-32500J0D01*
G01*
X12003500Y-3125000D02*
X12068500Y-3190000D01*
X12068500Y-3125000D02*
X12003500Y-3190000D01*
X12068500Y-3157500D02*
G75*
G03*
X12068500Y-3157500I-32500J0D01*
G01*
X12130500Y-2998000D02*
X12195500Y-3063000D01*
X12195500Y-2998000D02*
X12130500Y-3063000D01*
X12195500Y-3030500D02*
G75*
G03*
X12195500Y-3030500I-32500J0D01*
G01*
X12130500Y-3125000D02*
X12195500Y-3190000D01*
X12195500Y-3125000D02*
X12130500Y-3190000D01*
X12195500Y-3157500D02*
G75*
G03*
X12195500Y-3157500I-32500J0D01*
G01*
D10*
X8340700Y-2670100D02*
X8440700Y-2770100D01*
X8440700Y-2670100D02*
X8340700Y-2770100D01*
X8390700Y-2670100D02*
X8390700Y-2770100D01*
X8340700Y-2720100D02*
X8440700Y-2720100D01*
X8340700Y-2924100D02*
X8440700Y-3024100D01*
X8440700Y-2924100D02*
X8340700Y-3024100D01*
X8390700Y-2924100D02*
X8390700Y-3024100D01*
X8340700Y-2974100D02*
X8440700Y-2974100D01*
X8340700Y-3178100D02*
X8440700Y-3278100D01*
X8440700Y-3178100D02*
X8340700Y-3278100D01*
X8390700Y-3178100D02*
X8390700Y-3278100D01*
X8340700Y-3228100D02*
X8440700Y-3228100D01*
X9718000Y-1857500D02*
X9818000Y-1957500D01*
X9818000Y-1857500D02*
X9718000Y-1957500D01*
X9768000Y-1857500D02*
X9768000Y-1957500D01*
X9718000Y-1907500D02*
X9818000Y-1907500D01*
X9972000Y-1857500D02*
X10072000Y-1957500D01*
X10072000Y-1857500D02*
X9972000Y-1957500D01*
X10022000Y-1857500D02*
X10022000Y-1957500D01*
X9972000Y-1907500D02*
X10072000Y-1907500D01*
X10226000Y-1857500D02*
X10326000Y-1957500D01*
X10326000Y-1857500D02*
X10226000Y-1957500D01*
X10276000Y-1857500D02*
X10276000Y-1957500D01*
X10226000Y-1907500D02*
X10326000Y-1907500D01*
X10480000Y-1857500D02*
X10580000Y-1957500D01*
X10580000Y-1857500D02*
X10480000Y-1957500D01*
X10530000Y-1857500D02*
X10530000Y-1957500D01*
X10480000Y-1907500D02*
X10580000Y-1907500D01*
D11*
X8422619Y-9418726D02*
X8422619Y-9218726D01*
X8470238Y-9218726D01*
X8498810Y-9228250D01*
X8517857Y-9247298D01*
X8527381Y-9266345D01*
X8536905Y-9304440D01*
X8536905Y-9333012D01*
X8527381Y-9371107D01*
X8517857Y-9390155D01*
X8498810Y-9409202D01*
X8470238Y-9418726D01*
X8422619Y-9418726D01*
X8622619Y-9418726D02*
X8622619Y-9285393D01*
X8622619Y-9323488D02*
X8632143Y-9304440D01*
X8641667Y-9294917D01*
X8660714Y-9285393D01*
X8679762Y-9285393D01*
X8746429Y-9418726D02*
X8746429Y-9285393D01*
X8746429Y-9218726D02*
X8736905Y-9228250D01*
X8746429Y-9237774D01*
X8755952Y-9228250D01*
X8746429Y-9218726D01*
X8746429Y-9237774D01*
X8870238Y-9418726D02*
X8851190Y-9409202D01*
X8841667Y-9390155D01*
X8841667Y-9218726D01*
X8975000Y-9418726D02*
X8955952Y-9409202D01*
X8946429Y-9390155D01*
X8946429Y-9218726D01*
X9203571Y-9418726D02*
X9203571Y-9218726D01*
X9270238Y-9361583D01*
X9336905Y-9218726D01*
X9336905Y-9418726D01*
X9517857Y-9418726D02*
X9517857Y-9313964D01*
X9508333Y-9294917D01*
X9489286Y-9285393D01*
X9451190Y-9285393D01*
X9432143Y-9294917D01*
X9517857Y-9409202D02*
X9498810Y-9418726D01*
X9451190Y-9418726D01*
X9432143Y-9409202D01*
X9422619Y-9390155D01*
X9422619Y-9371107D01*
X9432143Y-9352060D01*
X9451190Y-9342536D01*
X9498810Y-9342536D01*
X9517857Y-9333012D01*
X9613095Y-9285393D02*
X9613095Y-9485393D01*
X9613095Y-9294917D02*
X9632143Y-9285393D01*
X9670238Y-9285393D01*
X9689286Y-9294917D01*
X9698810Y-9304440D01*
X9708333Y-9323488D01*
X9708333Y-9380631D01*
X9698810Y-9399679D01*
X9689286Y-9409202D01*
X9670238Y-9418726D01*
X9632143Y-9418726D01*
X9613095Y-9409202D01*
X9794048Y-9399679D02*
X9803571Y-9409202D01*
X9794048Y-9418726D01*
X9784524Y-9409202D01*
X9794048Y-9399679D01*
X9794048Y-9418726D01*
X9794048Y-9294917D02*
X9803571Y-9304440D01*
X9794048Y-9313964D01*
X9784524Y-9304440D01*
X9794048Y-9294917D01*
X9794048Y-9313964D01*
D12*
X8144680Y-9738090D02*
X8165000Y-9758410D01*
X8165000Y-9738090D02*
X8144680Y-9758410D01*
D11*
X8460714Y-9638726D02*
X8479762Y-9638726D01*
X8498810Y-9648250D01*
X8508333Y-9657774D01*
X8517857Y-9676821D01*
X8527381Y-9714917D01*
X8527381Y-9762536D01*
X8517857Y-9800631D01*
X8508333Y-9819679D01*
X8498810Y-9829202D01*
X8479762Y-9838726D01*
X8460714Y-9838726D01*
X8441667Y-9829202D01*
X8432143Y-9819679D01*
X8422619Y-9800631D01*
X8413095Y-9762536D01*
X8413095Y-9714917D01*
X8422619Y-9676821D01*
X8432143Y-9657774D01*
X8441667Y-9648250D01*
X8460714Y-9638726D01*
X8613095Y-9819679D02*
X8622619Y-9829202D01*
X8613095Y-9838726D01*
X8603571Y-9829202D01*
X8613095Y-9819679D01*
X8613095Y-9838726D01*
X8698810Y-9657774D02*
X8708333Y-9648250D01*
X8727381Y-9638726D01*
X8775000Y-9638726D01*
X8794048Y-9648250D01*
X8803571Y-9657774D01*
X8813095Y-9676821D01*
X8813095Y-9695869D01*
X8803571Y-9724440D01*
X8689286Y-9838726D01*
X8813095Y-9838726D01*
X8936905Y-9638726D02*
X8955952Y-9638726D01*
X8975000Y-9648250D01*
X8984524Y-9657774D01*
X8994048Y-9676821D01*
X9003571Y-9714917D01*
X9003571Y-9762536D01*
X8994048Y-9800631D01*
X8984524Y-9819679D01*
X8975000Y-9829202D01*
X8955952Y-9838726D01*
X8936905Y-9838726D01*
X8917857Y-9829202D01*
X8908333Y-9819679D01*
X8898810Y-9800631D01*
X8889286Y-9762536D01*
X8889286Y-9714917D01*
X8898810Y-9676821D01*
X8908333Y-9657774D01*
X8917857Y-9648250D01*
X8936905Y-9638726D01*
X9070238Y-9638726D02*
X9194048Y-9638726D01*
X9127381Y-9714917D01*
X9155952Y-9714917D01*
X9175000Y-9724440D01*
X9184524Y-9733964D01*
X9194048Y-9753012D01*
X9194048Y-9800631D01*
X9184524Y-9819679D01*
X9175000Y-9829202D01*
X9155952Y-9838726D01*
X9098810Y-9838726D01*
X9079762Y-9829202D01*
X9070238Y-9819679D01*
X9279762Y-9838726D02*
X9279762Y-9705393D01*
X9279762Y-9724440D02*
X9289286Y-9714917D01*
X9308333Y-9705393D01*
X9336905Y-9705393D01*
X9355952Y-9714917D01*
X9365476Y-9733964D01*
X9365476Y-9838726D01*
X9365476Y-9733964D02*
X9375000Y-9714917D01*
X9394048Y-9705393D01*
X9422619Y-9705393D01*
X9441667Y-9714917D01*
X9451190Y-9733964D01*
X9451190Y-9838726D01*
X9546429Y-9838726D02*
X9546429Y-9705393D01*
X9546429Y-9724440D02*
X9555952Y-9714917D01*
X9575000Y-9705393D01*
X9603571Y-9705393D01*
X9622619Y-9714917D01*
X9632143Y-9733964D01*
X9632143Y-9838726D01*
X9632143Y-9733964D02*
X9641667Y-9714917D01*
X9660714Y-9705393D01*
X9689286Y-9705393D01*
X9708333Y-9714917D01*
X9717857Y-9733964D01*
X9717857Y-9838726D01*
X10108333Y-9629202D02*
X9936905Y-9886345D01*
X10365476Y-9638726D02*
X10384524Y-9638726D01*
X10403571Y-9648250D01*
X10413095Y-9657774D01*
X10422619Y-9676821D01*
X10432143Y-9714917D01*
X10432143Y-9762536D01*
X10422619Y-9800631D01*
X10413095Y-9819679D01*
X10403571Y-9829202D01*
X10384524Y-9838726D01*
X10365476Y-9838726D01*
X10346429Y-9829202D01*
X10336905Y-9819679D01*
X10327381Y-9800631D01*
X10317857Y-9762536D01*
X10317857Y-9714917D01*
X10327381Y-9676821D01*
X10336905Y-9657774D01*
X10346429Y-9648250D01*
X10365476Y-9638726D01*
X10517857Y-9819679D02*
X10527381Y-9829202D01*
X10517857Y-9838726D01*
X10508333Y-9829202D01*
X10517857Y-9819679D01*
X10517857Y-9838726D01*
X10651190Y-9638726D02*
X10670238Y-9638726D01*
X10689286Y-9648250D01*
X10698810Y-9657774D01*
X10708333Y-9676821D01*
X10717857Y-9714917D01*
X10717857Y-9762536D01*
X10708333Y-9800631D01*
X10698810Y-9819679D01*
X10689286Y-9829202D01*
X10670238Y-9838726D01*
X10651190Y-9838726D01*
X10632143Y-9829202D01*
X10622619Y-9819679D01*
X10613095Y-9800631D01*
X10603571Y-9762536D01*
X10603571Y-9714917D01*
X10613095Y-9676821D01*
X10622619Y-9657774D01*
X10632143Y-9648250D01*
X10651190Y-9638726D01*
X10841667Y-9638726D02*
X10860714Y-9638726D01*
X10879762Y-9648250D01*
X10889286Y-9657774D01*
X10898810Y-9676821D01*
X10908333Y-9714917D01*
X10908333Y-9762536D01*
X10898810Y-9800631D01*
X10889286Y-9819679D01*
X10879762Y-9829202D01*
X10860714Y-9838726D01*
X10841667Y-9838726D01*
X10822619Y-9829202D01*
X10813095Y-9819679D01*
X10803571Y-9800631D01*
X10794048Y-9762536D01*
X10794048Y-9714917D01*
X10803571Y-9676821D01*
X10813095Y-9657774D01*
X10822619Y-9648250D01*
X10841667Y-9638726D01*
X11022619Y-9724440D02*
X11003571Y-9714917D01*
X10994048Y-9705393D01*
X10984524Y-9686345D01*
X10984524Y-9676821D01*
X10994048Y-9657774D01*
X11003571Y-9648250D01*
X11022619Y-9638726D01*
X11060714Y-9638726D01*
X11079762Y-9648250D01*
X11089286Y-9657774D01*
X11098810Y-9676821D01*
X11098810Y-9686345D01*
X11089286Y-9705393D01*
X11079762Y-9714917D01*
X11060714Y-9724440D01*
X11022619Y-9724440D01*
X11003571Y-9733964D01*
X10994048Y-9743488D01*
X10984524Y-9762536D01*
X10984524Y-9800631D01*
X10994048Y-9819679D01*
X11003571Y-9829202D01*
X11022619Y-9838726D01*
X11060714Y-9838726D01*
X11079762Y-9829202D01*
X11089286Y-9819679D01*
X11098810Y-9800631D01*
X11098810Y-9762536D01*
X11089286Y-9743488D01*
X11079762Y-9733964D01*
X11060714Y-9724440D01*
X11222619Y-9638726D02*
X11241667Y-9638726D01*
X11260714Y-9648250D01*
X11270238Y-9657774D01*
X11279762Y-9676821D01*
X11289286Y-9714917D01*
X11289286Y-9762536D01*
X11279762Y-9800631D01*
X11270238Y-9819679D01*
X11260714Y-9829202D01*
X11241667Y-9838726D01*
X11222619Y-9838726D01*
X11203571Y-9829202D01*
X11194048Y-9819679D01*
X11184524Y-9800631D01*
X11175000Y-9762536D01*
X11175000Y-9714917D01*
X11184524Y-9676821D01*
X11194048Y-9657774D01*
X11203571Y-9648250D01*
X11222619Y-9638726D01*
X11365476Y-9638726D02*
X11365476Y-9676821D01*
X11441667Y-9638726D02*
X11441667Y-9676821D01*
X11736905Y-9914917D02*
X11727381Y-9905393D01*
X11708333Y-9876821D01*
X11698809Y-9857774D01*
X11689286Y-9829202D01*
X11679762Y-9781583D01*
X11679762Y-9743488D01*
X11689286Y-9695869D01*
X11698809Y-9667298D01*
X11708333Y-9648250D01*
X11727381Y-9619679D01*
X11736905Y-9610155D01*
X11917857Y-9838726D02*
X11803571Y-9838726D01*
X11860714Y-9838726D02*
X11860714Y-9638726D01*
X11841667Y-9667298D01*
X11822619Y-9686345D01*
X11803571Y-9695869D01*
X11994048Y-9657774D02*
X12003571Y-9648250D01*
X12022619Y-9638726D01*
X12070238Y-9638726D01*
X12089286Y-9648250D01*
X12098809Y-9657774D01*
X12108333Y-9676821D01*
X12108333Y-9695869D01*
X12098809Y-9724440D01*
X11984524Y-9838726D01*
X12108333Y-9838726D01*
X12346428Y-9838726D02*
X12346428Y-9638726D01*
X12432143Y-9838726D02*
X12432143Y-9733964D01*
X12422619Y-9714917D01*
X12403571Y-9705393D01*
X12375000Y-9705393D01*
X12355952Y-9714917D01*
X12346428Y-9724440D01*
X12555952Y-9838726D02*
X12536905Y-9829202D01*
X12527381Y-9819679D01*
X12517857Y-9800631D01*
X12517857Y-9743488D01*
X12527381Y-9724440D01*
X12536905Y-9714917D01*
X12555952Y-9705393D01*
X12584524Y-9705393D01*
X12603571Y-9714917D01*
X12613095Y-9724440D01*
X12622619Y-9743488D01*
X12622619Y-9800631D01*
X12613095Y-9819679D01*
X12603571Y-9829202D01*
X12584524Y-9838726D01*
X12555952Y-9838726D01*
X12736905Y-9838726D02*
X12717857Y-9829202D01*
X12708333Y-9810155D01*
X12708333Y-9638726D01*
X12889286Y-9829202D02*
X12870238Y-9838726D01*
X12832143Y-9838726D01*
X12813095Y-9829202D01*
X12803571Y-9810155D01*
X12803571Y-9733964D01*
X12813095Y-9714917D01*
X12832143Y-9705393D01*
X12870238Y-9705393D01*
X12889286Y-9714917D01*
X12898809Y-9733964D01*
X12898809Y-9753012D01*
X12803571Y-9772060D01*
X12975000Y-9829202D02*
X12994048Y-9838726D01*
X13032143Y-9838726D01*
X13051190Y-9829202D01*
X13060714Y-9810155D01*
X13060714Y-9800631D01*
X13051190Y-9781583D01*
X13032143Y-9772060D01*
X13003571Y-9772060D01*
X12984524Y-9762536D01*
X12975000Y-9743488D01*
X12975000Y-9733964D01*
X12984524Y-9714917D01*
X13003571Y-9705393D01*
X13032143Y-9705393D01*
X13051190Y-9714917D01*
X13127381Y-9914917D02*
X13136905Y-9905393D01*
X13155952Y-9876821D01*
X13165476Y-9857774D01*
X13175000Y-9829202D01*
X13184524Y-9781583D01*
X13184524Y-9743488D01*
X13175000Y-9695869D01*
X13165476Y-9667298D01*
X13155952Y-9648250D01*
X13136905Y-9619679D01*
X13127381Y-9610155D01*
D13*
X8165000Y-10012250D02*
G75*
G03*
X8165000Y-10012250I-12700J0D01*
G01*
D11*
X8460714Y-9902726D02*
X8479762Y-9902726D01*
X8498810Y-9912250D01*
X8508333Y-9921774D01*
X8517857Y-9940821D01*
X8527381Y-9978917D01*
X8527381Y-10026536D01*
X8517857Y-10064631D01*
X8508333Y-10083679D01*
X8498810Y-10093202D01*
X8479762Y-10102726D01*
X8460714Y-10102726D01*
X8441667Y-10093202D01*
X8432143Y-10083679D01*
X8422619Y-10064631D01*
X8413095Y-10026536D01*
X8413095Y-9978917D01*
X8422619Y-9940821D01*
X8432143Y-9921774D01*
X8441667Y-9912250D01*
X8460714Y-9902726D01*
X8613095Y-10083679D02*
X8622619Y-10093202D01*
X8613095Y-10102726D01*
X8603571Y-10093202D01*
X8613095Y-10083679D01*
X8613095Y-10102726D01*
X8698810Y-9921774D02*
X8708333Y-9912250D01*
X8727381Y-9902726D01*
X8775000Y-9902726D01*
X8794048Y-9912250D01*
X8803571Y-9921774D01*
X8813095Y-9940821D01*
X8813095Y-9959869D01*
X8803571Y-9988440D01*
X8689286Y-10102726D01*
X8813095Y-10102726D01*
X8994048Y-9902726D02*
X8898810Y-9902726D01*
X8889286Y-9997964D01*
X8898810Y-9988440D01*
X8917857Y-9978917D01*
X8965476Y-9978917D01*
X8984524Y-9988440D01*
X8994048Y-9997964D01*
X9003571Y-10017012D01*
X9003571Y-10064631D01*
X8994048Y-10083679D01*
X8984524Y-10093202D01*
X8965476Y-10102726D01*
X8917857Y-10102726D01*
X8898810Y-10093202D01*
X8889286Y-10083679D01*
X9175000Y-9969393D02*
X9175000Y-10102726D01*
X9127381Y-9893202D02*
X9079762Y-10036060D01*
X9203571Y-10036060D01*
X9279762Y-10102726D02*
X9279762Y-9969393D01*
X9279762Y-9988440D02*
X9289286Y-9978917D01*
X9308333Y-9969393D01*
X9336905Y-9969393D01*
X9355952Y-9978917D01*
X9365476Y-9997964D01*
X9365476Y-10102726D01*
X9365476Y-9997964D02*
X9375000Y-9978917D01*
X9394048Y-9969393D01*
X9422619Y-9969393D01*
X9441667Y-9978917D01*
X9451190Y-9997964D01*
X9451190Y-10102726D01*
X9546429Y-10102726D02*
X9546429Y-9969393D01*
X9546429Y-9988440D02*
X9555952Y-9978917D01*
X9575000Y-9969393D01*
X9603571Y-9969393D01*
X9622619Y-9978917D01*
X9632143Y-9997964D01*
X9632143Y-10102726D01*
X9632143Y-9997964D02*
X9641667Y-9978917D01*
X9660714Y-9969393D01*
X9689286Y-9969393D01*
X9708333Y-9978917D01*
X9717857Y-9997964D01*
X9717857Y-10102726D01*
X10108333Y-9893202D02*
X9936905Y-10150345D01*
X10365476Y-9902726D02*
X10384524Y-9902726D01*
X10403571Y-9912250D01*
X10413095Y-9921774D01*
X10422619Y-9940821D01*
X10432143Y-9978917D01*
X10432143Y-10026536D01*
X10422619Y-10064631D01*
X10413095Y-10083679D01*
X10403571Y-10093202D01*
X10384524Y-10102726D01*
X10365476Y-10102726D01*
X10346429Y-10093202D01*
X10336905Y-10083679D01*
X10327381Y-10064631D01*
X10317857Y-10026536D01*
X10317857Y-9978917D01*
X10327381Y-9940821D01*
X10336905Y-9921774D01*
X10346429Y-9912250D01*
X10365476Y-9902726D01*
X10517857Y-10083679D02*
X10527381Y-10093202D01*
X10517857Y-10102726D01*
X10508333Y-10093202D01*
X10517857Y-10083679D01*
X10517857Y-10102726D01*
X10651190Y-9902726D02*
X10670238Y-9902726D01*
X10689286Y-9912250D01*
X10698810Y-9921774D01*
X10708333Y-9940821D01*
X10717857Y-9978917D01*
X10717857Y-10026536D01*
X10708333Y-10064631D01*
X10698810Y-10083679D01*
X10689286Y-10093202D01*
X10670238Y-10102726D01*
X10651190Y-10102726D01*
X10632143Y-10093202D01*
X10622619Y-10083679D01*
X10613095Y-10064631D01*
X10603571Y-10026536D01*
X10603571Y-9978917D01*
X10613095Y-9940821D01*
X10622619Y-9921774D01*
X10632143Y-9912250D01*
X10651190Y-9902726D01*
X10908333Y-10102726D02*
X10794048Y-10102726D01*
X10851190Y-10102726D02*
X10851190Y-9902726D01*
X10832143Y-9931298D01*
X10813095Y-9950345D01*
X10794048Y-9959869D01*
X11032143Y-9902726D02*
X11051190Y-9902726D01*
X11070238Y-9912250D01*
X11079762Y-9921774D01*
X11089286Y-9940821D01*
X11098810Y-9978917D01*
X11098810Y-10026536D01*
X11089286Y-10064631D01*
X11079762Y-10083679D01*
X11070238Y-10093202D01*
X11051190Y-10102726D01*
X11032143Y-10102726D01*
X11013095Y-10093202D01*
X11003571Y-10083679D01*
X10994048Y-10064631D01*
X10984524Y-10026536D01*
X10984524Y-9978917D01*
X10994048Y-9940821D01*
X11003571Y-9921774D01*
X11013095Y-9912250D01*
X11032143Y-9902726D01*
X11222619Y-9902726D02*
X11241667Y-9902726D01*
X11260714Y-9912250D01*
X11270238Y-9921774D01*
X11279762Y-9940821D01*
X11289286Y-9978917D01*
X11289286Y-10026536D01*
X11279762Y-10064631D01*
X11270238Y-10083679D01*
X11260714Y-10093202D01*
X11241667Y-10102726D01*
X11222619Y-10102726D01*
X11203571Y-10093202D01*
X11194048Y-10083679D01*
X11184524Y-10064631D01*
X11175000Y-10026536D01*
X11175000Y-9978917D01*
X11184524Y-9940821D01*
X11194048Y-9921774D01*
X11203571Y-9912250D01*
X11222619Y-9902726D01*
X11365476Y-9902726D02*
X11365476Y-9940821D01*
X11441667Y-9902726D02*
X11441667Y-9940821D01*
X11736905Y-10178917D02*
X11727381Y-10169393D01*
X11708333Y-10140821D01*
X11698809Y-10121774D01*
X11689286Y-10093202D01*
X11679762Y-10045583D01*
X11679762Y-10007488D01*
X11689286Y-9959869D01*
X11698809Y-9931298D01*
X11708333Y-9912250D01*
X11727381Y-9883679D01*
X11736905Y-9874155D01*
X11917857Y-10102726D02*
X11803571Y-10102726D01*
X11860714Y-10102726D02*
X11860714Y-9902726D01*
X11841667Y-9931298D01*
X11822619Y-9950345D01*
X11803571Y-9959869D01*
X12041667Y-9902726D02*
X12060714Y-9902726D01*
X12079762Y-9912250D01*
X12089286Y-9921774D01*
X12098809Y-9940821D01*
X12108333Y-9978917D01*
X12108333Y-10026536D01*
X12098809Y-10064631D01*
X12089286Y-10083679D01*
X12079762Y-10093202D01*
X12060714Y-10102726D01*
X12041667Y-10102726D01*
X12022619Y-10093202D01*
X12013095Y-10083679D01*
X12003571Y-10064631D01*
X11994048Y-10026536D01*
X11994048Y-9978917D01*
X12003571Y-9940821D01*
X12013095Y-9921774D01*
X12022619Y-9912250D01*
X12041667Y-9902726D01*
X12346428Y-10102726D02*
X12346428Y-9902726D01*
X12432143Y-10102726D02*
X12432143Y-9997964D01*
X12422619Y-9978917D01*
X12403571Y-9969393D01*
X12375000Y-9969393D01*
X12355952Y-9978917D01*
X12346428Y-9988440D01*
X12555952Y-10102726D02*
X12536905Y-10093202D01*
X12527381Y-10083679D01*
X12517857Y-10064631D01*
X12517857Y-10007488D01*
X12527381Y-9988440D01*
X12536905Y-9978917D01*
X12555952Y-9969393D01*
X12584524Y-9969393D01*
X12603571Y-9978917D01*
X12613095Y-9988440D01*
X12622619Y-10007488D01*
X12622619Y-10064631D01*
X12613095Y-10083679D01*
X12603571Y-10093202D01*
X12584524Y-10102726D01*
X12555952Y-10102726D01*
X12736905Y-10102726D02*
X12717857Y-10093202D01*
X12708333Y-10074155D01*
X12708333Y-9902726D01*
X12889286Y-10093202D02*
X12870238Y-10102726D01*
X12832143Y-10102726D01*
X12813095Y-10093202D01*
X12803571Y-10074155D01*
X12803571Y-9997964D01*
X12813095Y-9978917D01*
X12832143Y-9969393D01*
X12870238Y-9969393D01*
X12889286Y-9978917D01*
X12898809Y-9997964D01*
X12898809Y-10017012D01*
X12803571Y-10036060D01*
X12975000Y-10093202D02*
X12994048Y-10102726D01*
X13032143Y-10102726D01*
X13051190Y-10093202D01*
X13060714Y-10074155D01*
X13060714Y-10064631D01*
X13051190Y-10045583D01*
X13032143Y-10036060D01*
X13003571Y-10036060D01*
X12984524Y-10026536D01*
X12975000Y-10007488D01*
X12975000Y-9997964D01*
X12984524Y-9978917D01*
X13003571Y-9969393D01*
X13032143Y-9969393D01*
X13051190Y-9978917D01*
X13127381Y-10178917D02*
X13136905Y-10169393D01*
X13155952Y-10140821D01*
X13165476Y-10121774D01*
X13175000Y-10093202D01*
X13184524Y-10045583D01*
X13184524Y-10007488D01*
X13175000Y-9959869D01*
X13165476Y-9931298D01*
X13155952Y-9912250D01*
X13136905Y-9883679D01*
X13127381Y-9874155D01*
D14*
X8150000Y-10261250D02*
X8150000Y-10291250D01*
X8135000Y-10276250D02*
X8165000Y-10276250D01*
D11*
X8460714Y-10166726D02*
X8479762Y-10166726D01*
X8498810Y-10176250D01*
X8508333Y-10185774D01*
X8517857Y-10204821D01*
X8527381Y-10242917D01*
X8527381Y-10290536D01*
X8517857Y-10328631D01*
X8508333Y-10347679D01*
X8498810Y-10357202D01*
X8479762Y-10366726D01*
X8460714Y-10366726D01*
X8441667Y-10357202D01*
X8432143Y-10347679D01*
X8422619Y-10328631D01*
X8413095Y-10290536D01*
X8413095Y-10242917D01*
X8422619Y-10204821D01*
X8432143Y-10185774D01*
X8441667Y-10176250D01*
X8460714Y-10166726D01*
X8613095Y-10347679D02*
X8622619Y-10357202D01*
X8613095Y-10366726D01*
X8603571Y-10357202D01*
X8613095Y-10347679D01*
X8613095Y-10366726D01*
X8689286Y-10166726D02*
X8813095Y-10166726D01*
X8746429Y-10242917D01*
X8775000Y-10242917D01*
X8794048Y-10252440D01*
X8803571Y-10261964D01*
X8813095Y-10281012D01*
X8813095Y-10328631D01*
X8803571Y-10347679D01*
X8794048Y-10357202D01*
X8775000Y-10366726D01*
X8717857Y-10366726D01*
X8698810Y-10357202D01*
X8689286Y-10347679D01*
X8936905Y-10166726D02*
X8955952Y-10166726D01*
X8975000Y-10176250D01*
X8984524Y-10185774D01*
X8994048Y-10204821D01*
X9003571Y-10242917D01*
X9003571Y-10290536D01*
X8994048Y-10328631D01*
X8984524Y-10347679D01*
X8975000Y-10357202D01*
X8955952Y-10366726D01*
X8936905Y-10366726D01*
X8917857Y-10357202D01*
X8908333Y-10347679D01*
X8898810Y-10328631D01*
X8889286Y-10290536D01*
X8889286Y-10242917D01*
X8898810Y-10204821D01*
X8908333Y-10185774D01*
X8917857Y-10176250D01*
X8936905Y-10166726D01*
X9127381Y-10166726D02*
X9146429Y-10166726D01*
X9165476Y-10176250D01*
X9175000Y-10185774D01*
X9184524Y-10204821D01*
X9194048Y-10242917D01*
X9194048Y-10290536D01*
X9184524Y-10328631D01*
X9175000Y-10347679D01*
X9165476Y-10357202D01*
X9146429Y-10366726D01*
X9127381Y-10366726D01*
X9108333Y-10357202D01*
X9098810Y-10347679D01*
X9089286Y-10328631D01*
X9079762Y-10290536D01*
X9079762Y-10242917D01*
X9089286Y-10204821D01*
X9098810Y-10185774D01*
X9108333Y-10176250D01*
X9127381Y-10166726D01*
X9279762Y-10366726D02*
X9279762Y-10233393D01*
X9279762Y-10252440D02*
X9289286Y-10242917D01*
X9308333Y-10233393D01*
X9336905Y-10233393D01*
X9355952Y-10242917D01*
X9365476Y-10261964D01*
X9365476Y-10366726D01*
X9365476Y-10261964D02*
X9375000Y-10242917D01*
X9394048Y-10233393D01*
X9422619Y-10233393D01*
X9441667Y-10242917D01*
X9451190Y-10261964D01*
X9451190Y-10366726D01*
X9546429Y-10366726D02*
X9546429Y-10233393D01*
X9546429Y-10252440D02*
X9555952Y-10242917D01*
X9575000Y-10233393D01*
X9603571Y-10233393D01*
X9622619Y-10242917D01*
X9632143Y-10261964D01*
X9632143Y-10366726D01*
X9632143Y-10261964D02*
X9641667Y-10242917D01*
X9660714Y-10233393D01*
X9689286Y-10233393D01*
X9708333Y-10242917D01*
X9717857Y-10261964D01*
X9717857Y-10366726D01*
X10108333Y-10157202D02*
X9936905Y-10414345D01*
X10365476Y-10166726D02*
X10384524Y-10166726D01*
X10403571Y-10176250D01*
X10413095Y-10185774D01*
X10422619Y-10204821D01*
X10432143Y-10242917D01*
X10432143Y-10290536D01*
X10422619Y-10328631D01*
X10413095Y-10347679D01*
X10403571Y-10357202D01*
X10384524Y-10366726D01*
X10365476Y-10366726D01*
X10346429Y-10357202D01*
X10336905Y-10347679D01*
X10327381Y-10328631D01*
X10317857Y-10290536D01*
X10317857Y-10242917D01*
X10327381Y-10204821D01*
X10336905Y-10185774D01*
X10346429Y-10176250D01*
X10365476Y-10166726D01*
X10517857Y-10347679D02*
X10527381Y-10357202D01*
X10517857Y-10366726D01*
X10508333Y-10357202D01*
X10517857Y-10347679D01*
X10517857Y-10366726D01*
X10651190Y-10166726D02*
X10670238Y-10166726D01*
X10689286Y-10176250D01*
X10698810Y-10185774D01*
X10708333Y-10204821D01*
X10717857Y-10242917D01*
X10717857Y-10290536D01*
X10708333Y-10328631D01*
X10698810Y-10347679D01*
X10689286Y-10357202D01*
X10670238Y-10366726D01*
X10651190Y-10366726D01*
X10632143Y-10357202D01*
X10622619Y-10347679D01*
X10613095Y-10328631D01*
X10603571Y-10290536D01*
X10603571Y-10242917D01*
X10613095Y-10204821D01*
X10622619Y-10185774D01*
X10632143Y-10176250D01*
X10651190Y-10166726D01*
X10908333Y-10366726D02*
X10794048Y-10366726D01*
X10851190Y-10366726D02*
X10851190Y-10166726D01*
X10832143Y-10195298D01*
X10813095Y-10214345D01*
X10794048Y-10223869D01*
X11098810Y-10366726D02*
X10984524Y-10366726D01*
X11041667Y-10366726D02*
X11041667Y-10166726D01*
X11022619Y-10195298D01*
X11003571Y-10214345D01*
X10984524Y-10223869D01*
X11213095Y-10252440D02*
X11194048Y-10242917D01*
X11184524Y-10233393D01*
X11175000Y-10214345D01*
X11175000Y-10204821D01*
X11184524Y-10185774D01*
X11194048Y-10176250D01*
X11213095Y-10166726D01*
X11251190Y-10166726D01*
X11270238Y-10176250D01*
X11279762Y-10185774D01*
X11289286Y-10204821D01*
X11289286Y-10214345D01*
X11279762Y-10233393D01*
X11270238Y-10242917D01*
X11251190Y-10252440D01*
X11213095Y-10252440D01*
X11194048Y-10261964D01*
X11184524Y-10271488D01*
X11175000Y-10290536D01*
X11175000Y-10328631D01*
X11184524Y-10347679D01*
X11194048Y-10357202D01*
X11213095Y-10366726D01*
X11251190Y-10366726D01*
X11270238Y-10357202D01*
X11279762Y-10347679D01*
X11289286Y-10328631D01*
X11289286Y-10290536D01*
X11279762Y-10271488D01*
X11270238Y-10261964D01*
X11251190Y-10252440D01*
X11365476Y-10166726D02*
X11365476Y-10204821D01*
X11441667Y-10166726D02*
X11441667Y-10204821D01*
X11736905Y-10442917D02*
X11727381Y-10433393D01*
X11708333Y-10404821D01*
X11698809Y-10385774D01*
X11689286Y-10357202D01*
X11679762Y-10309583D01*
X11679762Y-10271488D01*
X11689286Y-10223869D01*
X11698809Y-10195298D01*
X11708333Y-10176250D01*
X11727381Y-10147679D01*
X11736905Y-10138155D01*
X11917857Y-10366726D02*
X11803571Y-10366726D01*
X11860714Y-10366726D02*
X11860714Y-10166726D01*
X11841667Y-10195298D01*
X11822619Y-10214345D01*
X11803571Y-10223869D01*
X12013095Y-10366726D02*
X12051190Y-10366726D01*
X12070238Y-10357202D01*
X12079762Y-10347679D01*
X12098809Y-10319107D01*
X12108333Y-10281012D01*
X12108333Y-10204821D01*
X12098809Y-10185774D01*
X12089286Y-10176250D01*
X12070238Y-10166726D01*
X12032143Y-10166726D01*
X12013095Y-10176250D01*
X12003571Y-10185774D01*
X11994048Y-10204821D01*
X11994048Y-10252440D01*
X12003571Y-10271488D01*
X12013095Y-10281012D01*
X12032143Y-10290536D01*
X12070238Y-10290536D01*
X12089286Y-10281012D01*
X12098809Y-10271488D01*
X12108333Y-10252440D01*
X12298809Y-10366726D02*
X12184524Y-10366726D01*
X12241667Y-10366726D02*
X12241667Y-10166726D01*
X12222619Y-10195298D01*
X12203571Y-10214345D01*
X12184524Y-10223869D01*
X12536905Y-10366726D02*
X12536905Y-10166726D01*
X12622619Y-10366726D02*
X12622619Y-10261964D01*
X12613095Y-10242917D01*
X12594048Y-10233393D01*
X12565476Y-10233393D01*
X12546428Y-10242917D01*
X12536905Y-10252440D01*
X12746428Y-10366726D02*
X12727381Y-10357202D01*
X12717857Y-10347679D01*
X12708333Y-10328631D01*
X12708333Y-10271488D01*
X12717857Y-10252440D01*
X12727381Y-10242917D01*
X12746428Y-10233393D01*
X12775000Y-10233393D01*
X12794048Y-10242917D01*
X12803571Y-10252440D01*
X12813095Y-10271488D01*
X12813095Y-10328631D01*
X12803571Y-10347679D01*
X12794048Y-10357202D01*
X12775000Y-10366726D01*
X12746428Y-10366726D01*
X12927381Y-10366726D02*
X12908333Y-10357202D01*
X12898809Y-10338155D01*
X12898809Y-10166726D01*
X13079762Y-10357202D02*
X13060714Y-10366726D01*
X13022619Y-10366726D01*
X13003571Y-10357202D01*
X12994048Y-10338155D01*
X12994048Y-10261964D01*
X13003571Y-10242917D01*
X13022619Y-10233393D01*
X13060714Y-10233393D01*
X13079762Y-10242917D01*
X13089286Y-10261964D01*
X13089286Y-10281012D01*
X12994048Y-10300060D01*
X13165476Y-10357202D02*
X13184524Y-10366726D01*
X13222619Y-10366726D01*
X13241667Y-10357202D01*
X13251190Y-10338155D01*
X13251190Y-10328631D01*
X13241667Y-10309583D01*
X13222619Y-10300060D01*
X13194048Y-10300060D01*
X13175000Y-10290536D01*
X13165476Y-10271488D01*
X13165476Y-10261964D01*
X13175000Y-10242917D01*
X13194048Y-10233393D01*
X13222619Y-10233393D01*
X13241667Y-10242917D01*
X13317857Y-10442917D02*
X13327381Y-10433393D01*
X13346428Y-10404821D01*
X13355952Y-10385774D01*
X13365476Y-10357202D01*
X13375000Y-10309583D01*
X13375000Y-10271488D01*
X13365476Y-10223869D01*
X13355952Y-10195298D01*
X13346428Y-10176250D01*
X13327381Y-10147679D01*
X13317857Y-10138155D01*
D15*
X8159142Y-10554392D02*
X8159142Y-10526108D01*
X8130858Y-10526108D01*
X8130858Y-10554392D01*
X8159142Y-10554392D01*
D11*
X8460714Y-10430726D02*
X8479762Y-10430726D01*
X8498810Y-10440250D01*
X8508333Y-10449774D01*
X8517857Y-10468821D01*
X8527381Y-10506917D01*
X8527381Y-10554536D01*
X8517857Y-10592631D01*
X8508333Y-10611679D01*
X8498810Y-10621202D01*
X8479762Y-10630726D01*
X8460714Y-10630726D01*
X8441667Y-10621202D01*
X8432143Y-10611679D01*
X8422619Y-10592631D01*
X8413095Y-10554536D01*
X8413095Y-10506917D01*
X8422619Y-10468821D01*
X8432143Y-10449774D01*
X8441667Y-10440250D01*
X8460714Y-10430726D01*
X8613095Y-10611679D02*
X8622619Y-10621202D01*
X8613095Y-10630726D01*
X8603571Y-10621202D01*
X8613095Y-10611679D01*
X8613095Y-10630726D01*
X8794048Y-10497393D02*
X8794048Y-10630726D01*
X8746429Y-10421202D02*
X8698810Y-10564060D01*
X8822619Y-10564060D01*
X8936905Y-10430726D02*
X8955952Y-10430726D01*
X8975000Y-10440250D01*
X8984524Y-10449774D01*
X8994048Y-10468821D01*
X9003571Y-10506917D01*
X9003571Y-10554536D01*
X8994048Y-10592631D01*
X8984524Y-10611679D01*
X8975000Y-10621202D01*
X8955952Y-10630726D01*
X8936905Y-10630726D01*
X8917857Y-10621202D01*
X8908333Y-10611679D01*
X8898810Y-10592631D01*
X8889286Y-10554536D01*
X8889286Y-10506917D01*
X8898810Y-10468821D01*
X8908333Y-10449774D01*
X8917857Y-10440250D01*
X8936905Y-10430726D01*
X9127381Y-10430726D02*
X9146429Y-10430726D01*
X9165476Y-10440250D01*
X9175000Y-10449774D01*
X9184524Y-10468821D01*
X9194048Y-10506917D01*
X9194048Y-10554536D01*
X9184524Y-10592631D01*
X9175000Y-10611679D01*
X9165476Y-10621202D01*
X9146429Y-10630726D01*
X9127381Y-10630726D01*
X9108333Y-10621202D01*
X9098810Y-10611679D01*
X9089286Y-10592631D01*
X9079762Y-10554536D01*
X9079762Y-10506917D01*
X9089286Y-10468821D01*
X9098810Y-10449774D01*
X9108333Y-10440250D01*
X9127381Y-10430726D01*
X9279762Y-10630726D02*
X9279762Y-10497393D01*
X9279762Y-10516440D02*
X9289286Y-10506917D01*
X9308333Y-10497393D01*
X9336905Y-10497393D01*
X9355952Y-10506917D01*
X9365476Y-10525964D01*
X9365476Y-10630726D01*
X9365476Y-10525964D02*
X9375000Y-10506917D01*
X9394048Y-10497393D01*
X9422619Y-10497393D01*
X9441667Y-10506917D01*
X9451190Y-10525964D01*
X9451190Y-10630726D01*
X9546429Y-10630726D02*
X9546429Y-10497393D01*
X9546429Y-10516440D02*
X9555952Y-10506917D01*
X9575000Y-10497393D01*
X9603571Y-10497393D01*
X9622619Y-10506917D01*
X9632143Y-10525964D01*
X9632143Y-10630726D01*
X9632143Y-10525964D02*
X9641667Y-10506917D01*
X9660714Y-10497393D01*
X9689286Y-10497393D01*
X9708333Y-10506917D01*
X9717857Y-10525964D01*
X9717857Y-10630726D01*
X10108333Y-10421202D02*
X9936905Y-10678345D01*
X10365476Y-10430726D02*
X10384524Y-10430726D01*
X10403571Y-10440250D01*
X10413095Y-10449774D01*
X10422619Y-10468821D01*
X10432143Y-10506917D01*
X10432143Y-10554536D01*
X10422619Y-10592631D01*
X10413095Y-10611679D01*
X10403571Y-10621202D01*
X10384524Y-10630726D01*
X10365476Y-10630726D01*
X10346429Y-10621202D01*
X10336905Y-10611679D01*
X10327381Y-10592631D01*
X10317857Y-10554536D01*
X10317857Y-10506917D01*
X10327381Y-10468821D01*
X10336905Y-10449774D01*
X10346429Y-10440250D01*
X10365476Y-10430726D01*
X10517857Y-10611679D02*
X10527381Y-10621202D01*
X10517857Y-10630726D01*
X10508333Y-10621202D01*
X10517857Y-10611679D01*
X10517857Y-10630726D01*
X10651190Y-10430726D02*
X10670238Y-10430726D01*
X10689286Y-10440250D01*
X10698810Y-10449774D01*
X10708333Y-10468821D01*
X10717857Y-10506917D01*
X10717857Y-10554536D01*
X10708333Y-10592631D01*
X10698810Y-10611679D01*
X10689286Y-10621202D01*
X10670238Y-10630726D01*
X10651190Y-10630726D01*
X10632143Y-10621202D01*
X10622619Y-10611679D01*
X10613095Y-10592631D01*
X10603571Y-10554536D01*
X10603571Y-10506917D01*
X10613095Y-10468821D01*
X10622619Y-10449774D01*
X10632143Y-10440250D01*
X10651190Y-10430726D01*
X10908333Y-10630726D02*
X10794048Y-10630726D01*
X10851190Y-10630726D02*
X10851190Y-10430726D01*
X10832143Y-10459298D01*
X10813095Y-10478345D01*
X10794048Y-10487869D01*
X11089286Y-10430726D02*
X10994048Y-10430726D01*
X10984524Y-10525964D01*
X10994048Y-10516440D01*
X11013095Y-10506917D01*
X11060714Y-10506917D01*
X11079762Y-10516440D01*
X11089286Y-10525964D01*
X11098810Y-10545012D01*
X11098810Y-10592631D01*
X11089286Y-10611679D01*
X11079762Y-10621202D01*
X11060714Y-10630726D01*
X11013095Y-10630726D01*
X10994048Y-10621202D01*
X10984524Y-10611679D01*
X11165476Y-10430726D02*
X11298809Y-10430726D01*
X11213095Y-10630726D01*
X11365476Y-10430726D02*
X11365476Y-10468821D01*
X11441667Y-10430726D02*
X11441667Y-10468821D01*
X11736905Y-10706917D02*
X11727381Y-10697393D01*
X11708333Y-10668821D01*
X11698809Y-10649774D01*
X11689286Y-10621202D01*
X11679762Y-10573583D01*
X11679762Y-10535488D01*
X11689286Y-10487869D01*
X11698809Y-10459298D01*
X11708333Y-10440250D01*
X11727381Y-10411679D01*
X11736905Y-10402155D01*
X11794048Y-10430726D02*
X11917857Y-10430726D01*
X11851190Y-10506917D01*
X11879762Y-10506917D01*
X11898809Y-10516440D01*
X11908333Y-10525964D01*
X11917857Y-10545012D01*
X11917857Y-10592631D01*
X11908333Y-10611679D01*
X11898809Y-10621202D01*
X11879762Y-10630726D01*
X11822619Y-10630726D01*
X11803571Y-10621202D01*
X11794048Y-10611679D01*
X11984524Y-10430726D02*
X12108333Y-10430726D01*
X12041667Y-10506917D01*
X12070238Y-10506917D01*
X12089286Y-10516440D01*
X12098809Y-10525964D01*
X12108333Y-10545012D01*
X12108333Y-10592631D01*
X12098809Y-10611679D01*
X12089286Y-10621202D01*
X12070238Y-10630726D01*
X12013095Y-10630726D01*
X11994048Y-10621202D01*
X11984524Y-10611679D01*
X12346428Y-10630726D02*
X12346428Y-10430726D01*
X12432143Y-10630726D02*
X12432143Y-10525964D01*
X12422619Y-10506917D01*
X12403571Y-10497393D01*
X12375000Y-10497393D01*
X12355952Y-10506917D01*
X12346428Y-10516440D01*
X12555952Y-10630726D02*
X12536905Y-10621202D01*
X12527381Y-10611679D01*
X12517857Y-10592631D01*
X12517857Y-10535488D01*
X12527381Y-10516440D01*
X12536905Y-10506917D01*
X12555952Y-10497393D01*
X12584524Y-10497393D01*
X12603571Y-10506917D01*
X12613095Y-10516440D01*
X12622619Y-10535488D01*
X12622619Y-10592631D01*
X12613095Y-10611679D01*
X12603571Y-10621202D01*
X12584524Y-10630726D01*
X12555952Y-10630726D01*
X12736905Y-10630726D02*
X12717857Y-10621202D01*
X12708333Y-10602155D01*
X12708333Y-10430726D01*
X12889286Y-10621202D02*
X12870238Y-10630726D01*
X12832143Y-10630726D01*
X12813095Y-10621202D01*
X12803571Y-10602155D01*
X12803571Y-10525964D01*
X12813095Y-10506917D01*
X12832143Y-10497393D01*
X12870238Y-10497393D01*
X12889286Y-10506917D01*
X12898809Y-10525964D01*
X12898809Y-10545012D01*
X12803571Y-10564060D01*
X12975000Y-10621202D02*
X12994048Y-10630726D01*
X13032143Y-10630726D01*
X13051190Y-10621202D01*
X13060714Y-10602155D01*
X13060714Y-10592631D01*
X13051190Y-10573583D01*
X13032143Y-10564060D01*
X13003571Y-10564060D01*
X12984524Y-10554536D01*
X12975000Y-10535488D01*
X12975000Y-10525964D01*
X12984524Y-10506917D01*
X13003571Y-10497393D01*
X13032143Y-10497393D01*
X13051190Y-10506917D01*
X13127381Y-10706917D02*
X13136905Y-10697393D01*
X13155952Y-10668821D01*
X13165476Y-10649774D01*
X13175000Y-10621202D01*
X13184524Y-10573583D01*
X13184524Y-10535488D01*
X13175000Y-10487869D01*
X13165476Y-10459298D01*
X13155952Y-10440250D01*
X13136905Y-10411679D01*
X13127381Y-10402155D01*
D16*
X8135000Y-10834250D02*
X8165000Y-10804250D01*
X8135000Y-10774250D01*
X8105000Y-10804250D01*
X8135000Y-10834250D01*
D11*
X8460714Y-10694726D02*
X8479762Y-10694726D01*
X8498810Y-10704250D01*
X8508333Y-10713774D01*
X8517857Y-10732821D01*
X8527381Y-10770917D01*
X8527381Y-10818536D01*
X8517857Y-10856631D01*
X8508333Y-10875679D01*
X8498810Y-10885202D01*
X8479762Y-10894726D01*
X8460714Y-10894726D01*
X8441667Y-10885202D01*
X8432143Y-10875679D01*
X8422619Y-10856631D01*
X8413095Y-10818536D01*
X8413095Y-10770917D01*
X8422619Y-10732821D01*
X8432143Y-10713774D01*
X8441667Y-10704250D01*
X8460714Y-10694726D01*
X8613095Y-10875679D02*
X8622619Y-10885202D01*
X8613095Y-10894726D01*
X8603571Y-10885202D01*
X8613095Y-10875679D01*
X8613095Y-10894726D01*
X8794048Y-10694726D02*
X8755952Y-10694726D01*
X8736905Y-10704250D01*
X8727381Y-10713774D01*
X8708333Y-10742345D01*
X8698810Y-10780440D01*
X8698810Y-10856631D01*
X8708333Y-10875679D01*
X8717857Y-10885202D01*
X8736905Y-10894726D01*
X8775000Y-10894726D01*
X8794048Y-10885202D01*
X8803571Y-10875679D01*
X8813095Y-10856631D01*
X8813095Y-10809012D01*
X8803571Y-10789964D01*
X8794048Y-10780440D01*
X8775000Y-10770917D01*
X8736905Y-10770917D01*
X8717857Y-10780440D01*
X8708333Y-10789964D01*
X8698810Y-10809012D01*
X8936905Y-10694726D02*
X8955952Y-10694726D01*
X8975000Y-10704250D01*
X8984524Y-10713774D01*
X8994048Y-10732821D01*
X9003571Y-10770917D01*
X9003571Y-10818536D01*
X8994048Y-10856631D01*
X8984524Y-10875679D01*
X8975000Y-10885202D01*
X8955952Y-10894726D01*
X8936905Y-10894726D01*
X8917857Y-10885202D01*
X8908333Y-10875679D01*
X8898810Y-10856631D01*
X8889286Y-10818536D01*
X8889286Y-10770917D01*
X8898810Y-10732821D01*
X8908333Y-10713774D01*
X8917857Y-10704250D01*
X8936905Y-10694726D01*
X9127381Y-10694726D02*
X9146429Y-10694726D01*
X9165476Y-10704250D01*
X9175000Y-10713774D01*
X9184524Y-10732821D01*
X9194048Y-10770917D01*
X9194048Y-10818536D01*
X9184524Y-10856631D01*
X9175000Y-10875679D01*
X9165476Y-10885202D01*
X9146429Y-10894726D01*
X9127381Y-10894726D01*
X9108333Y-10885202D01*
X9098810Y-10875679D01*
X9089286Y-10856631D01*
X9079762Y-10818536D01*
X9079762Y-10770917D01*
X9089286Y-10732821D01*
X9098810Y-10713774D01*
X9108333Y-10704250D01*
X9127381Y-10694726D01*
X9279762Y-10894726D02*
X9279762Y-10761393D01*
X9279762Y-10780440D02*
X9289286Y-10770917D01*
X9308333Y-10761393D01*
X9336905Y-10761393D01*
X9355952Y-10770917D01*
X9365476Y-10789964D01*
X9365476Y-10894726D01*
X9365476Y-10789964D02*
X9375000Y-10770917D01*
X9394048Y-10761393D01*
X9422619Y-10761393D01*
X9441667Y-10770917D01*
X9451190Y-10789964D01*
X9451190Y-10894726D01*
X9546429Y-10894726D02*
X9546429Y-10761393D01*
X9546429Y-10780440D02*
X9555952Y-10770917D01*
X9575000Y-10761393D01*
X9603571Y-10761393D01*
X9622619Y-10770917D01*
X9632143Y-10789964D01*
X9632143Y-10894726D01*
X9632143Y-10789964D02*
X9641667Y-10770917D01*
X9660714Y-10761393D01*
X9689286Y-10761393D01*
X9708333Y-10770917D01*
X9717857Y-10789964D01*
X9717857Y-10894726D01*
X10108333Y-10685202D02*
X9936905Y-10942345D01*
X10365476Y-10694726D02*
X10384524Y-10694726D01*
X10403571Y-10704250D01*
X10413095Y-10713774D01*
X10422619Y-10732821D01*
X10432143Y-10770917D01*
X10432143Y-10818536D01*
X10422619Y-10856631D01*
X10413095Y-10875679D01*
X10403571Y-10885202D01*
X10384524Y-10894726D01*
X10365476Y-10894726D01*
X10346429Y-10885202D01*
X10336905Y-10875679D01*
X10327381Y-10856631D01*
X10317857Y-10818536D01*
X10317857Y-10770917D01*
X10327381Y-10732821D01*
X10336905Y-10713774D01*
X10346429Y-10704250D01*
X10365476Y-10694726D01*
X10517857Y-10875679D02*
X10527381Y-10885202D01*
X10517857Y-10894726D01*
X10508333Y-10885202D01*
X10517857Y-10875679D01*
X10517857Y-10894726D01*
X10651190Y-10694726D02*
X10670238Y-10694726D01*
X10689286Y-10704250D01*
X10698810Y-10713774D01*
X10708333Y-10732821D01*
X10717857Y-10770917D01*
X10717857Y-10818536D01*
X10708333Y-10856631D01*
X10698810Y-10875679D01*
X10689286Y-10885202D01*
X10670238Y-10894726D01*
X10651190Y-10894726D01*
X10632143Y-10885202D01*
X10622619Y-10875679D01*
X10613095Y-10856631D01*
X10603571Y-10818536D01*
X10603571Y-10770917D01*
X10613095Y-10732821D01*
X10622619Y-10713774D01*
X10632143Y-10704250D01*
X10651190Y-10694726D01*
X10794048Y-10713774D02*
X10803571Y-10704250D01*
X10822619Y-10694726D01*
X10870238Y-10694726D01*
X10889286Y-10704250D01*
X10898810Y-10713774D01*
X10908333Y-10732821D01*
X10908333Y-10751869D01*
X10898810Y-10780440D01*
X10784524Y-10894726D01*
X10908333Y-10894726D01*
X10975000Y-10694726D02*
X11098810Y-10694726D01*
X11032143Y-10770917D01*
X11060714Y-10770917D01*
X11079762Y-10780440D01*
X11089286Y-10789964D01*
X11098810Y-10809012D01*
X11098810Y-10856631D01*
X11089286Y-10875679D01*
X11079762Y-10885202D01*
X11060714Y-10894726D01*
X11003571Y-10894726D01*
X10984524Y-10885202D01*
X10975000Y-10875679D01*
X11270238Y-10694726D02*
X11232143Y-10694726D01*
X11213095Y-10704250D01*
X11203571Y-10713774D01*
X11184524Y-10742345D01*
X11175000Y-10780440D01*
X11175000Y-10856631D01*
X11184524Y-10875679D01*
X11194048Y-10885202D01*
X11213095Y-10894726D01*
X11251190Y-10894726D01*
X11270238Y-10885202D01*
X11279762Y-10875679D01*
X11289286Y-10856631D01*
X11289286Y-10809012D01*
X11279762Y-10789964D01*
X11270238Y-10780440D01*
X11251190Y-10770917D01*
X11213095Y-10770917D01*
X11194048Y-10780440D01*
X11184524Y-10789964D01*
X11175000Y-10809012D01*
X11365476Y-10694726D02*
X11365476Y-10732821D01*
X11441667Y-10694726D02*
X11441667Y-10732821D01*
X11736905Y-10970917D02*
X11727381Y-10961393D01*
X11708333Y-10932821D01*
X11698809Y-10913774D01*
X11689286Y-10885202D01*
X11679762Y-10837583D01*
X11679762Y-10799488D01*
X11689286Y-10751869D01*
X11698809Y-10723298D01*
X11708333Y-10704250D01*
X11727381Y-10675679D01*
X11736905Y-10666155D01*
X11851190Y-10694726D02*
X11870238Y-10694726D01*
X11889286Y-10704250D01*
X11898809Y-10713774D01*
X11908333Y-10732821D01*
X11917857Y-10770917D01*
X11917857Y-10818536D01*
X11908333Y-10856631D01*
X11898809Y-10875679D01*
X11889286Y-10885202D01*
X11870238Y-10894726D01*
X11851190Y-10894726D01*
X11832143Y-10885202D01*
X11822619Y-10875679D01*
X11813095Y-10856631D01*
X11803571Y-10818536D01*
X11803571Y-10770917D01*
X11813095Y-10732821D01*
X11822619Y-10713774D01*
X11832143Y-10704250D01*
X11851190Y-10694726D01*
X12155952Y-10894726D02*
X12155952Y-10694726D01*
X12241667Y-10894726D02*
X12241667Y-10789964D01*
X12232143Y-10770917D01*
X12213095Y-10761393D01*
X12184524Y-10761393D01*
X12165476Y-10770917D01*
X12155952Y-10780440D01*
X12365476Y-10894726D02*
X12346428Y-10885202D01*
X12336905Y-10875679D01*
X12327381Y-10856631D01*
X12327381Y-10799488D01*
X12336905Y-10780440D01*
X12346428Y-10770917D01*
X12365476Y-10761393D01*
X12394048Y-10761393D01*
X12413095Y-10770917D01*
X12422619Y-10780440D01*
X12432143Y-10799488D01*
X12432143Y-10856631D01*
X12422619Y-10875679D01*
X12413095Y-10885202D01*
X12394048Y-10894726D01*
X12365476Y-10894726D01*
X12546428Y-10894726D02*
X12527381Y-10885202D01*
X12517857Y-10866155D01*
X12517857Y-10694726D01*
X12698809Y-10885202D02*
X12679762Y-10894726D01*
X12641667Y-10894726D01*
X12622619Y-10885202D01*
X12613095Y-10866155D01*
X12613095Y-10789964D01*
X12622619Y-10770917D01*
X12641667Y-10761393D01*
X12679762Y-10761393D01*
X12698809Y-10770917D01*
X12708333Y-10789964D01*
X12708333Y-10809012D01*
X12613095Y-10828060D01*
X12784524Y-10885202D02*
X12803571Y-10894726D01*
X12841667Y-10894726D01*
X12860714Y-10885202D01*
X12870238Y-10866155D01*
X12870238Y-10856631D01*
X12860714Y-10837583D01*
X12841667Y-10828060D01*
X12813095Y-10828060D01*
X12794048Y-10818536D01*
X12784524Y-10799488D01*
X12784524Y-10789964D01*
X12794048Y-10770917D01*
X12813095Y-10761393D01*
X12841667Y-10761393D01*
X12860714Y-10770917D01*
X13108333Y-10818536D02*
X13260714Y-10818536D01*
X13184524Y-10894726D02*
X13184524Y-10742345D01*
X13594048Y-10761393D02*
X13594048Y-10894726D01*
X13546428Y-10685202D02*
X13498809Y-10828060D01*
X13622619Y-10828060D01*
X13841667Y-10885202D02*
X13860714Y-10894726D01*
X13898809Y-10894726D01*
X13917857Y-10885202D01*
X13927381Y-10866155D01*
X13927381Y-10856631D01*
X13917857Y-10837583D01*
X13898809Y-10828060D01*
X13870238Y-10828060D01*
X13851190Y-10818536D01*
X13841667Y-10799488D01*
X13841667Y-10789964D01*
X13851190Y-10770917D01*
X13870238Y-10761393D01*
X13898809Y-10761393D01*
X13917857Y-10770917D01*
X14041667Y-10894726D02*
X14022619Y-10885202D01*
X14013095Y-10866155D01*
X14013095Y-10694726D01*
X14146428Y-10894726D02*
X14127381Y-10885202D01*
X14117857Y-10875679D01*
X14108333Y-10856631D01*
X14108333Y-10799488D01*
X14117857Y-10780440D01*
X14127381Y-10770917D01*
X14146428Y-10761393D01*
X14175000Y-10761393D01*
X14194048Y-10770917D01*
X14203571Y-10780440D01*
X14213095Y-10799488D01*
X14213095Y-10856631D01*
X14203571Y-10875679D01*
X14194048Y-10885202D01*
X14175000Y-10894726D01*
X14146428Y-10894726D01*
X14270238Y-10761393D02*
X14346428Y-10761393D01*
X14298809Y-10694726D02*
X14298809Y-10866155D01*
X14308333Y-10885202D01*
X14327381Y-10894726D01*
X14346428Y-10894726D01*
X14403571Y-10885202D02*
X14422619Y-10894726D01*
X14460714Y-10894726D01*
X14479762Y-10885202D01*
X14489286Y-10866155D01*
X14489286Y-10856631D01*
X14479762Y-10837583D01*
X14460714Y-10828060D01*
X14432143Y-10828060D01*
X14413095Y-10818536D01*
X14403571Y-10799488D01*
X14403571Y-10789964D01*
X14413095Y-10770917D01*
X14432143Y-10761393D01*
X14460714Y-10761393D01*
X14479762Y-10770917D01*
X14555952Y-10970917D02*
X14565476Y-10961393D01*
X14584524Y-10932821D01*
X14594048Y-10913774D01*
X14603571Y-10885202D01*
X14613095Y-10837583D01*
X14613095Y-10799488D01*
X14603571Y-10751869D01*
X14594048Y-10723298D01*
X14584524Y-10704250D01*
X14565476Y-10675679D01*
X14555952Y-10666155D01*
D17*
X8100000Y-11035750D02*
X8165000Y-11100750D01*
X8165000Y-11035750D02*
X8100000Y-11100750D01*
X8165000Y-11068250D02*
G75*
G03*
X8165000Y-11068250I-32500J0D01*
G01*
D11*
X8460714Y-10958726D02*
X8479762Y-10958726D01*
X8498810Y-10968250D01*
X8508333Y-10977774D01*
X8517857Y-10996821D01*
X8527381Y-11034917D01*
X8527381Y-11082536D01*
X8517857Y-11120631D01*
X8508333Y-11139679D01*
X8498810Y-11149202D01*
X8479762Y-11158726D01*
X8460714Y-11158726D01*
X8441667Y-11149202D01*
X8432143Y-11139679D01*
X8422619Y-11120631D01*
X8413095Y-11082536D01*
X8413095Y-11034917D01*
X8422619Y-10996821D01*
X8432143Y-10977774D01*
X8441667Y-10968250D01*
X8460714Y-10958726D01*
X8613095Y-11139679D02*
X8622619Y-11149202D01*
X8613095Y-11158726D01*
X8603571Y-11149202D01*
X8613095Y-11139679D01*
X8613095Y-11158726D01*
X8794048Y-10958726D02*
X8755952Y-10958726D01*
X8736905Y-10968250D01*
X8727381Y-10977774D01*
X8708333Y-11006345D01*
X8698810Y-11044440D01*
X8698810Y-11120631D01*
X8708333Y-11139679D01*
X8717857Y-11149202D01*
X8736905Y-11158726D01*
X8775000Y-11158726D01*
X8794048Y-11149202D01*
X8803571Y-11139679D01*
X8813095Y-11120631D01*
X8813095Y-11073012D01*
X8803571Y-11053964D01*
X8794048Y-11044440D01*
X8775000Y-11034917D01*
X8736905Y-11034917D01*
X8717857Y-11044440D01*
X8708333Y-11053964D01*
X8698810Y-11073012D01*
X8994048Y-10958726D02*
X8898810Y-10958726D01*
X8889286Y-11053964D01*
X8898810Y-11044440D01*
X8917857Y-11034917D01*
X8965476Y-11034917D01*
X8984524Y-11044440D01*
X8994048Y-11053964D01*
X9003571Y-11073012D01*
X9003571Y-11120631D01*
X8994048Y-11139679D01*
X8984524Y-11149202D01*
X8965476Y-11158726D01*
X8917857Y-11158726D01*
X8898810Y-11149202D01*
X8889286Y-11139679D01*
X9127381Y-10958726D02*
X9146429Y-10958726D01*
X9165476Y-10968250D01*
X9175000Y-10977774D01*
X9184524Y-10996821D01*
X9194048Y-11034917D01*
X9194048Y-11082536D01*
X9184524Y-11120631D01*
X9175000Y-11139679D01*
X9165476Y-11149202D01*
X9146429Y-11158726D01*
X9127381Y-11158726D01*
X9108333Y-11149202D01*
X9098810Y-11139679D01*
X9089286Y-11120631D01*
X9079762Y-11082536D01*
X9079762Y-11034917D01*
X9089286Y-10996821D01*
X9098810Y-10977774D01*
X9108333Y-10968250D01*
X9127381Y-10958726D01*
X9279762Y-11158726D02*
X9279762Y-11025393D01*
X9279762Y-11044440D02*
X9289286Y-11034917D01*
X9308333Y-11025393D01*
X9336905Y-11025393D01*
X9355952Y-11034917D01*
X9365476Y-11053964D01*
X9365476Y-11158726D01*
X9365476Y-11053964D02*
X9375000Y-11034917D01*
X9394048Y-11025393D01*
X9422619Y-11025393D01*
X9441667Y-11034917D01*
X9451190Y-11053964D01*
X9451190Y-11158726D01*
X9546429Y-11158726D02*
X9546429Y-11025393D01*
X9546429Y-11044440D02*
X9555952Y-11034917D01*
X9575000Y-11025393D01*
X9603571Y-11025393D01*
X9622619Y-11034917D01*
X9632143Y-11053964D01*
X9632143Y-11158726D01*
X9632143Y-11053964D02*
X9641667Y-11034917D01*
X9660714Y-11025393D01*
X9689286Y-11025393D01*
X9708333Y-11034917D01*
X9717857Y-11053964D01*
X9717857Y-11158726D01*
X10108333Y-10949202D02*
X9936905Y-11206345D01*
X10365476Y-10958726D02*
X10384524Y-10958726D01*
X10403571Y-10968250D01*
X10413095Y-10977774D01*
X10422619Y-10996821D01*
X10432143Y-11034917D01*
X10432143Y-11082536D01*
X10422619Y-11120631D01*
X10413095Y-11139679D01*
X10403571Y-11149202D01*
X10384524Y-11158726D01*
X10365476Y-11158726D01*
X10346429Y-11149202D01*
X10336905Y-11139679D01*
X10327381Y-11120631D01*
X10317857Y-11082536D01*
X10317857Y-11034917D01*
X10327381Y-10996821D01*
X10336905Y-10977774D01*
X10346429Y-10968250D01*
X10365476Y-10958726D01*
X10517857Y-11139679D02*
X10527381Y-11149202D01*
X10517857Y-11158726D01*
X10508333Y-11149202D01*
X10517857Y-11139679D01*
X10517857Y-11158726D01*
X10651190Y-10958726D02*
X10670238Y-10958726D01*
X10689286Y-10968250D01*
X10698810Y-10977774D01*
X10708333Y-10996821D01*
X10717857Y-11034917D01*
X10717857Y-11082536D01*
X10708333Y-11120631D01*
X10698810Y-11139679D01*
X10689286Y-11149202D01*
X10670238Y-11158726D01*
X10651190Y-11158726D01*
X10632143Y-11149202D01*
X10622619Y-11139679D01*
X10613095Y-11120631D01*
X10603571Y-11082536D01*
X10603571Y-11034917D01*
X10613095Y-10996821D01*
X10622619Y-10977774D01*
X10632143Y-10968250D01*
X10651190Y-10958726D01*
X10794048Y-10977774D02*
X10803571Y-10968250D01*
X10822619Y-10958726D01*
X10870238Y-10958726D01*
X10889286Y-10968250D01*
X10898810Y-10977774D01*
X10908333Y-10996821D01*
X10908333Y-11015869D01*
X10898810Y-11044440D01*
X10784524Y-11158726D01*
X10908333Y-11158726D01*
X11089286Y-10958726D02*
X10994048Y-10958726D01*
X10984524Y-11053964D01*
X10994048Y-11044440D01*
X11013095Y-11034917D01*
X11060714Y-11034917D01*
X11079762Y-11044440D01*
X11089286Y-11053964D01*
X11098810Y-11073012D01*
X11098810Y-11120631D01*
X11089286Y-11139679D01*
X11079762Y-11149202D01*
X11060714Y-11158726D01*
X11013095Y-11158726D01*
X10994048Y-11149202D01*
X10984524Y-11139679D01*
X11270238Y-10958726D02*
X11232143Y-10958726D01*
X11213095Y-10968250D01*
X11203571Y-10977774D01*
X11184524Y-11006345D01*
X11175000Y-11044440D01*
X11175000Y-11120631D01*
X11184524Y-11139679D01*
X11194048Y-11149202D01*
X11213095Y-11158726D01*
X11251190Y-11158726D01*
X11270238Y-11149202D01*
X11279762Y-11139679D01*
X11289286Y-11120631D01*
X11289286Y-11073012D01*
X11279762Y-11053964D01*
X11270238Y-11044440D01*
X11251190Y-11034917D01*
X11213095Y-11034917D01*
X11194048Y-11044440D01*
X11184524Y-11053964D01*
X11175000Y-11073012D01*
X11365476Y-10958726D02*
X11365476Y-10996821D01*
X11441667Y-10958726D02*
X11441667Y-10996821D01*
X11736905Y-11234917D02*
X11727381Y-11225393D01*
X11708333Y-11196821D01*
X11698809Y-11177774D01*
X11689286Y-11149202D01*
X11679762Y-11101583D01*
X11679762Y-11063488D01*
X11689286Y-11015869D01*
X11698809Y-10987298D01*
X11708333Y-10968250D01*
X11727381Y-10939679D01*
X11736905Y-10930155D01*
X11917857Y-11158726D02*
X11803571Y-11158726D01*
X11860714Y-11158726D02*
X11860714Y-10958726D01*
X11841667Y-10987298D01*
X11822619Y-11006345D01*
X11803571Y-11015869D01*
X12041667Y-10958726D02*
X12060714Y-10958726D01*
X12079762Y-10968250D01*
X12089286Y-10977774D01*
X12098809Y-10996821D01*
X12108333Y-11034917D01*
X12108333Y-11082536D01*
X12098809Y-11120631D01*
X12089286Y-11139679D01*
X12079762Y-11149202D01*
X12060714Y-11158726D01*
X12041667Y-11158726D01*
X12022619Y-11149202D01*
X12013095Y-11139679D01*
X12003571Y-11120631D01*
X11994048Y-11082536D01*
X11994048Y-11034917D01*
X12003571Y-10996821D01*
X12013095Y-10977774D01*
X12022619Y-10968250D01*
X12041667Y-10958726D01*
X12346428Y-11158726D02*
X12346428Y-10958726D01*
X12432143Y-11158726D02*
X12432143Y-11053964D01*
X12422619Y-11034917D01*
X12403571Y-11025393D01*
X12375000Y-11025393D01*
X12355952Y-11034917D01*
X12346428Y-11044440D01*
X12555952Y-11158726D02*
X12536905Y-11149202D01*
X12527381Y-11139679D01*
X12517857Y-11120631D01*
X12517857Y-11063488D01*
X12527381Y-11044440D01*
X12536905Y-11034917D01*
X12555952Y-11025393D01*
X12584524Y-11025393D01*
X12603571Y-11034917D01*
X12613095Y-11044440D01*
X12622619Y-11063488D01*
X12622619Y-11120631D01*
X12613095Y-11139679D01*
X12603571Y-11149202D01*
X12584524Y-11158726D01*
X12555952Y-11158726D01*
X12736905Y-11158726D02*
X12717857Y-11149202D01*
X12708333Y-11130155D01*
X12708333Y-10958726D01*
X12889286Y-11149202D02*
X12870238Y-11158726D01*
X12832143Y-11158726D01*
X12813095Y-11149202D01*
X12803571Y-11130155D01*
X12803571Y-11053964D01*
X12813095Y-11034917D01*
X12832143Y-11025393D01*
X12870238Y-11025393D01*
X12889286Y-11034917D01*
X12898809Y-11053964D01*
X12898809Y-11073012D01*
X12803571Y-11092060D01*
X12975000Y-11149202D02*
X12994048Y-11158726D01*
X13032143Y-11158726D01*
X13051190Y-11149202D01*
X13060714Y-11130155D01*
X13060714Y-11120631D01*
X13051190Y-11101583D01*
X13032143Y-11092060D01*
X13003571Y-11092060D01*
X12984524Y-11082536D01*
X12975000Y-11063488D01*
X12975000Y-11053964D01*
X12984524Y-11034917D01*
X13003571Y-11025393D01*
X13032143Y-11025393D01*
X13051190Y-11034917D01*
X13127381Y-11234917D02*
X13136905Y-11225393D01*
X13155952Y-11196821D01*
X13165476Y-11177774D01*
X13175000Y-11149202D01*
X13184524Y-11101583D01*
X13184524Y-11063488D01*
X13175000Y-11015869D01*
X13165476Y-10987298D01*
X13155952Y-10968250D01*
X13136905Y-10939679D01*
X13127381Y-10930155D01*
D10*
X8065000Y-11282250D02*
X8165000Y-11382250D01*
X8165000Y-11282250D02*
X8065000Y-11382250D01*
X8115000Y-11282250D02*
X8115000Y-11382250D01*
X8065000Y-11332250D02*
X8165000Y-11332250D01*
D11*
X8527381Y-11422726D02*
X8413095Y-11422726D01*
X8470238Y-11422726D02*
X8470238Y-11222726D01*
X8451190Y-11251298D01*
X8432143Y-11270345D01*
X8413095Y-11279869D01*
X8613095Y-11403678D02*
X8622619Y-11413202D01*
X8613095Y-11422726D01*
X8603571Y-11413202D01*
X8613095Y-11403678D01*
X8613095Y-11422726D01*
X8746429Y-11222726D02*
X8765476Y-11222726D01*
X8784524Y-11232250D01*
X8794048Y-11241774D01*
X8803571Y-11260821D01*
X8813095Y-11298917D01*
X8813095Y-11346536D01*
X8803571Y-11384631D01*
X8794048Y-11403678D01*
X8784524Y-11413202D01*
X8765476Y-11422726D01*
X8746429Y-11422726D01*
X8727381Y-11413202D01*
X8717857Y-11403678D01*
X8708333Y-11384631D01*
X8698810Y-11346536D01*
X8698810Y-11298917D01*
X8708333Y-11260821D01*
X8717857Y-11241774D01*
X8727381Y-11232250D01*
X8746429Y-11222726D01*
X8936905Y-11222726D02*
X8955952Y-11222726D01*
X8975000Y-11232250D01*
X8984524Y-11241774D01*
X8994048Y-11260821D01*
X9003571Y-11298917D01*
X9003571Y-11346536D01*
X8994048Y-11384631D01*
X8984524Y-11403678D01*
X8975000Y-11413202D01*
X8955952Y-11422726D01*
X8936905Y-11422726D01*
X8917857Y-11413202D01*
X8908333Y-11403678D01*
X8898810Y-11384631D01*
X8889286Y-11346536D01*
X8889286Y-11298917D01*
X8898810Y-11260821D01*
X8908333Y-11241774D01*
X8917857Y-11232250D01*
X8936905Y-11222726D01*
X9127381Y-11222726D02*
X9146429Y-11222726D01*
X9165476Y-11232250D01*
X9175000Y-11241774D01*
X9184524Y-11260821D01*
X9194048Y-11298917D01*
X9194048Y-11346536D01*
X9184524Y-11384631D01*
X9175000Y-11403678D01*
X9165476Y-11413202D01*
X9146429Y-11422726D01*
X9127381Y-11422726D01*
X9108333Y-11413202D01*
X9098810Y-11403678D01*
X9089286Y-11384631D01*
X9079762Y-11346536D01*
X9079762Y-11298917D01*
X9089286Y-11260821D01*
X9098810Y-11241774D01*
X9108333Y-11232250D01*
X9127381Y-11222726D01*
X9279762Y-11422726D02*
X9279762Y-11289393D01*
X9279762Y-11308440D02*
X9289286Y-11298917D01*
X9308333Y-11289393D01*
X9336905Y-11289393D01*
X9355952Y-11298917D01*
X9365476Y-11317964D01*
X9365476Y-11422726D01*
X9365476Y-11317964D02*
X9375000Y-11298917D01*
X9394048Y-11289393D01*
X9422619Y-11289393D01*
X9441667Y-11298917D01*
X9451190Y-11317964D01*
X9451190Y-11422726D01*
X9546429Y-11422726D02*
X9546429Y-11289393D01*
X9546429Y-11308440D02*
X9555952Y-11298917D01*
X9575000Y-11289393D01*
X9603571Y-11289393D01*
X9622619Y-11298917D01*
X9632143Y-11317964D01*
X9632143Y-11422726D01*
X9632143Y-11317964D02*
X9641667Y-11298917D01*
X9660714Y-11289393D01*
X9689286Y-11289393D01*
X9708333Y-11298917D01*
X9717857Y-11317964D01*
X9717857Y-11422726D01*
X10108333Y-11213202D02*
X9936905Y-11470345D01*
X10365476Y-11222726D02*
X10384524Y-11222726D01*
X10403571Y-11232250D01*
X10413095Y-11241774D01*
X10422619Y-11260821D01*
X10432143Y-11298917D01*
X10432143Y-11346536D01*
X10422619Y-11384631D01*
X10413095Y-11403678D01*
X10403571Y-11413202D01*
X10384524Y-11422726D01*
X10365476Y-11422726D01*
X10346429Y-11413202D01*
X10336905Y-11403678D01*
X10327381Y-11384631D01*
X10317857Y-11346536D01*
X10317857Y-11298917D01*
X10327381Y-11260821D01*
X10336905Y-11241774D01*
X10346429Y-11232250D01*
X10365476Y-11222726D01*
X10517857Y-11403678D02*
X10527381Y-11413202D01*
X10517857Y-11422726D01*
X10508333Y-11413202D01*
X10517857Y-11403678D01*
X10517857Y-11422726D01*
X10651190Y-11222726D02*
X10670238Y-11222726D01*
X10689286Y-11232250D01*
X10698810Y-11241774D01*
X10708333Y-11260821D01*
X10717857Y-11298917D01*
X10717857Y-11346536D01*
X10708333Y-11384631D01*
X10698810Y-11403678D01*
X10689286Y-11413202D01*
X10670238Y-11422726D01*
X10651190Y-11422726D01*
X10632143Y-11413202D01*
X10622619Y-11403678D01*
X10613095Y-11384631D01*
X10603571Y-11346536D01*
X10603571Y-11298917D01*
X10613095Y-11260821D01*
X10622619Y-11241774D01*
X10632143Y-11232250D01*
X10651190Y-11222726D01*
X10784524Y-11222726D02*
X10908333Y-11222726D01*
X10841667Y-11298917D01*
X10870238Y-11298917D01*
X10889286Y-11308440D01*
X10898810Y-11317964D01*
X10908333Y-11337012D01*
X10908333Y-11384631D01*
X10898810Y-11403678D01*
X10889286Y-11413202D01*
X10870238Y-11422726D01*
X10813095Y-11422726D01*
X10794048Y-11413202D01*
X10784524Y-11403678D01*
X11003571Y-11422726D02*
X11041667Y-11422726D01*
X11060714Y-11413202D01*
X11070238Y-11403678D01*
X11089286Y-11375107D01*
X11098810Y-11337012D01*
X11098810Y-11260821D01*
X11089286Y-11241774D01*
X11079762Y-11232250D01*
X11060714Y-11222726D01*
X11022619Y-11222726D01*
X11003571Y-11232250D01*
X10994048Y-11241774D01*
X10984524Y-11260821D01*
X10984524Y-11308440D01*
X10994048Y-11327488D01*
X11003571Y-11337012D01*
X11022619Y-11346536D01*
X11060714Y-11346536D01*
X11079762Y-11337012D01*
X11089286Y-11327488D01*
X11098810Y-11308440D01*
X11270238Y-11289393D02*
X11270238Y-11422726D01*
X11222619Y-11213202D02*
X11175000Y-11356059D01*
X11298809Y-11356059D01*
X11365476Y-11222726D02*
X11365476Y-11260821D01*
X11441667Y-11222726D02*
X11441667Y-11260821D01*
X11736905Y-11498917D02*
X11727381Y-11489393D01*
X11708333Y-11460821D01*
X11698809Y-11441774D01*
X11689286Y-11413202D01*
X11679762Y-11365583D01*
X11679762Y-11327488D01*
X11689286Y-11279869D01*
X11698809Y-11251298D01*
X11708333Y-11232250D01*
X11727381Y-11203678D01*
X11736905Y-11194155D01*
X11794048Y-11222726D02*
X11927381Y-11222726D01*
X11841667Y-11422726D01*
X12155952Y-11422726D02*
X12155952Y-11222726D01*
X12241667Y-11422726D02*
X12241667Y-11317964D01*
X12232143Y-11298917D01*
X12213095Y-11289393D01*
X12184524Y-11289393D01*
X12165476Y-11298917D01*
X12155952Y-11308440D01*
X12365476Y-11422726D02*
X12346428Y-11413202D01*
X12336905Y-11403678D01*
X12327381Y-11384631D01*
X12327381Y-11327488D01*
X12336905Y-11308440D01*
X12346428Y-11298917D01*
X12365476Y-11289393D01*
X12394048Y-11289393D01*
X12413095Y-11298917D01*
X12422619Y-11308440D01*
X12432143Y-11327488D01*
X12432143Y-11384631D01*
X12422619Y-11403678D01*
X12413095Y-11413202D01*
X12394048Y-11422726D01*
X12365476Y-11422726D01*
X12546428Y-11422726D02*
X12527381Y-11413202D01*
X12517857Y-11394155D01*
X12517857Y-11222726D01*
X12698809Y-11413202D02*
X12679762Y-11422726D01*
X12641667Y-11422726D01*
X12622619Y-11413202D01*
X12613095Y-11394155D01*
X12613095Y-11317964D01*
X12622619Y-11298917D01*
X12641667Y-11289393D01*
X12679762Y-11289393D01*
X12698809Y-11298917D01*
X12708333Y-11317964D01*
X12708333Y-11337012D01*
X12613095Y-11356059D01*
X12784524Y-11413202D02*
X12803571Y-11422726D01*
X12841667Y-11422726D01*
X12860714Y-11413202D01*
X12870238Y-11394155D01*
X12870238Y-11384631D01*
X12860714Y-11365583D01*
X12841667Y-11356059D01*
X12813095Y-11356059D01*
X12794048Y-11346536D01*
X12784524Y-11327488D01*
X12784524Y-11317964D01*
X12794048Y-11298917D01*
X12813095Y-11289393D01*
X12841667Y-11289393D01*
X12860714Y-11298917D01*
X12936905Y-11498917D02*
X12946428Y-11489393D01*
X12965476Y-11460821D01*
X12975000Y-11441774D01*
X12984524Y-11413202D01*
X12994048Y-11365583D01*
X12994048Y-11327488D01*
X12984524Y-11279869D01*
X12975000Y-11251298D01*
X12965476Y-11232250D01*
X12946428Y-11203678D01*
X12936905Y-11194155D01*
M02*
