G04 #@! TF.GenerationSoftware,KiCad,Pcbnew,(6.0.8)*
G04 #@! TF.CreationDate,2022-11-18T14:33:26-05:00*
G04 #@! TF.ProjectId,Emrick,456d7269-636b-42e6-9b69-6361645f7063,2*
G04 #@! TF.SameCoordinates,Original*
G04 #@! TF.FileFunction,Copper,L4,Bot*
G04 #@! TF.FilePolarity,Positive*
%FSLAX46Y46*%
G04 Gerber Fmt 4.6, Leading zero omitted, Abs format (unit mm)*
G04 Created by KiCad (PCBNEW (6.0.8)) date 2022-11-18 14:33:26*
%MOMM*%
%LPD*%
G01*
G04 APERTURE LIST*
G04 Aperture macros list*
%AMRoundRect*
0 Rectangle with rounded corners*
0 $1 Rounding radius*
0 $2 $3 $4 $5 $6 $7 $8 $9 X,Y pos of 4 corners*
0 Add a 4 corners polygon primitive as box body*
4,1,4,$2,$3,$4,$5,$6,$7,$8,$9,$2,$3,0*
0 Add four circle primitives for the rounded corners*
1,1,$1+$1,$2,$3*
1,1,$1+$1,$4,$5*
1,1,$1+$1,$6,$7*
1,1,$1+$1,$8,$9*
0 Add four rect primitives between the rounded corners*
20,1,$1+$1,$2,$3,$4,$5,0*
20,1,$1+$1,$4,$5,$6,$7,0*
20,1,$1+$1,$6,$7,$8,$9,0*
20,1,$1+$1,$8,$9,$2,$3,0*%
G04 Aperture macros list end*
G04 #@! TA.AperFunction,ComponentPad*
%ADD10C,0.508000*%
G04 #@! TD*
G04 #@! TA.AperFunction,ComponentPad*
%ADD11C,0.499999*%
G04 #@! TD*
G04 #@! TA.AperFunction,ComponentPad*
%ADD12R,1.000000X1.000000*%
G04 #@! TD*
G04 #@! TA.AperFunction,ComponentPad*
%ADD13O,1.000000X1.000000*%
G04 #@! TD*
G04 #@! TA.AperFunction,ComponentPad*
%ADD14R,1.700000X1.700000*%
G04 #@! TD*
G04 #@! TA.AperFunction,ComponentPad*
%ADD15O,1.700000X1.700000*%
G04 #@! TD*
G04 #@! TA.AperFunction,ComponentPad*
%ADD16O,1.600000X1.000000*%
G04 #@! TD*
G04 #@! TA.AperFunction,ComponentPad*
%ADD17O,2.100000X1.000000*%
G04 #@! TD*
G04 #@! TA.AperFunction,SMDPad,CuDef*
%ADD18R,2.500000X2.500000*%
G04 #@! TD*
G04 #@! TA.AperFunction,SMDPad,CuDef*
%ADD19RoundRect,0.200000X-0.275000X0.200000X-0.275000X-0.200000X0.275000X-0.200000X0.275000X0.200000X0*%
G04 #@! TD*
G04 #@! TA.AperFunction,SMDPad,CuDef*
%ADD20R,0.660400X2.000000*%
G04 #@! TD*
G04 #@! TA.AperFunction,SMDPad,CuDef*
%ADD21R,0.762000X1.854200*%
G04 #@! TD*
G04 #@! TA.AperFunction,SMDPad,CuDef*
%ADD22R,0.800000X1.900000*%
G04 #@! TD*
G04 #@! TA.AperFunction,ViaPad*
%ADD23C,0.600000*%
G04 #@! TD*
G04 #@! TA.AperFunction,ViaPad*
%ADD24C,0.700000*%
G04 #@! TD*
G04 #@! TA.AperFunction,ViaPad*
%ADD25C,0.800000*%
G04 #@! TD*
G04 #@! TA.AperFunction,Conductor*
%ADD26C,0.250000*%
G04 #@! TD*
G04 #@! TA.AperFunction,Conductor*
%ADD27C,0.300000*%
G04 #@! TD*
G04 #@! TA.AperFunction,Conductor*
%ADD28C,0.500000*%
G04 #@! TD*
G04 #@! TA.AperFunction,Conductor*
%ADD29C,0.800000*%
G04 #@! TD*
G04 APERTURE END LIST*
G36*
X102640125Y-64679783D02*
G01*
X102664584Y-64832395D01*
X102851244Y-65296085D01*
X103061459Y-65526250D01*
X103209949Y-65737580D01*
X103317671Y-66136404D01*
X103390471Y-66795289D01*
X103434194Y-67786798D01*
X103454684Y-69183496D01*
X103458334Y-70453439D01*
X103458334Y-75051251D01*
X85466667Y-75051251D01*
X85466667Y-77961667D01*
X121450000Y-77961667D01*
X121450000Y-85105417D01*
X85466667Y-85105417D01*
X85466667Y-88015834D01*
X101606250Y-88015834D01*
X101606250Y-90132500D01*
X83350000Y-90132500D01*
X83350000Y-82988751D01*
X119333334Y-82988751D01*
X119333334Y-80078334D01*
X83350000Y-80078334D01*
X83350000Y-72934584D01*
X101341667Y-72934584D01*
X101341667Y-69395106D01*
X101353469Y-67885659D01*
X101394473Y-66823085D01*
X101473081Y-66125502D01*
X101597691Y-65711025D01*
X101738542Y-65526250D01*
X102074763Y-65075789D01*
X102135417Y-64832395D01*
X102289215Y-64501610D01*
X102400000Y-64467917D01*
X102640125Y-64679783D01*
G37*
D10*
X89571300Y-29293700D03*
X90358700Y-28506300D03*
X90358700Y-29293700D03*
X89571300Y-28506300D03*
D11*
X107524999Y-38846499D03*
X102875001Y-40453501D03*
X106003501Y-37325001D03*
X106003501Y-41974999D03*
X102875001Y-38846499D03*
X104396499Y-41974999D03*
X104396499Y-40453501D03*
X107524999Y-40453501D03*
X104396499Y-38846499D03*
X104396499Y-37325001D03*
X106003501Y-38846499D03*
X106003501Y-40453501D03*
D12*
X116550000Y-31575000D03*
D13*
X116550000Y-30305000D03*
X117820000Y-31575000D03*
X117820000Y-30305000D03*
X119090000Y-31575000D03*
X119090000Y-30305000D03*
X120360000Y-31575000D03*
X120360000Y-30305000D03*
X121630000Y-31575000D03*
X121630000Y-30305000D03*
D14*
X83907000Y-32281000D03*
D15*
X83907000Y-29741000D03*
X83907000Y-27201000D03*
D14*
X105300000Y-19075000D03*
D15*
X102760000Y-19075000D03*
X100220000Y-19075000D03*
X97680000Y-19075000D03*
D16*
X119875000Y-27170000D03*
D17*
X115695000Y-18530000D03*
X115695000Y-27170000D03*
D16*
X119875000Y-18530000D03*
D10*
X104793700Y-24450000D03*
X104006300Y-25237400D03*
X104006300Y-23662600D03*
X104793700Y-23662600D03*
X104006300Y-24450000D03*
X104793700Y-25237400D03*
D18*
X107800000Y-29850000D03*
X103100000Y-29850000D03*
D19*
X98517500Y-26117500D03*
X98517500Y-27767500D03*
D20*
X88949999Y-19262000D03*
X87250000Y-19262000D03*
X85550001Y-19262000D03*
D21*
X90325000Y-24727400D03*
X84175000Y-24727400D03*
D22*
X94150000Y-32850000D03*
X92250000Y-32850000D03*
X93200000Y-29850000D03*
X100350000Y-33150000D03*
X98450000Y-33150000D03*
X99400000Y-30150000D03*
D19*
X96917500Y-26117500D03*
X96917500Y-27767500D03*
D22*
X97250000Y-32850000D03*
X95350000Y-32850000D03*
X96300000Y-29850000D03*
D19*
X95317500Y-26117500D03*
X95317500Y-27767500D03*
D23*
X120900000Y-84532500D03*
X90600000Y-88432500D03*
X111900000Y-78332500D03*
X93100000Y-89632500D03*
X111200000Y-83432500D03*
X121000000Y-78432500D03*
X109200000Y-79732500D03*
X95800000Y-74632500D03*
X102600000Y-79632500D03*
X97000000Y-88432500D03*
X90800000Y-84532500D03*
X108500000Y-84632500D03*
X106200000Y-78332500D03*
X92400000Y-73332500D03*
X94300000Y-83432500D03*
X83900000Y-84732500D03*
X105600000Y-83432500D03*
X83700000Y-73332500D03*
X102900000Y-74532500D03*
X87500000Y-83432500D03*
X119700000Y-81532500D03*
X97200000Y-84732500D03*
X99900000Y-73332500D03*
X101800000Y-66432500D03*
X116900000Y-83432500D03*
X83700000Y-79732500D03*
X95600000Y-79732500D03*
X83900000Y-89232500D03*
X86900000Y-89732500D03*
X88500000Y-79632500D03*
X89300000Y-74632500D03*
X118700000Y-79632500D03*
X103000000Y-69332500D03*
X101800000Y-72032500D03*
X83700000Y-77032500D03*
X102800000Y-84632500D03*
X114600000Y-84632500D03*
X114500000Y-79732500D03*
X85000000Y-86832500D03*
X117400000Y-78432500D03*
X86000000Y-78432500D03*
X84700000Y-75032500D03*
X91700000Y-78432500D03*
X100500000Y-89732500D03*
X100200000Y-83432500D03*
X86900000Y-73432500D03*
X99200000Y-78332500D03*
X83500000Y-48650000D03*
D24*
X99250000Y-46450000D03*
D25*
X120450000Y-33700000D03*
D23*
X93600000Y-43250000D03*
X93900000Y-57150000D03*
X84200000Y-51300000D03*
X113711515Y-18105387D03*
X99500000Y-56950000D03*
X92500000Y-52250000D03*
D24*
X98450000Y-38450000D03*
D23*
X88300000Y-55450000D03*
D24*
X112729962Y-47808742D03*
D25*
X113950000Y-26700000D03*
D23*
X92000000Y-25950000D03*
X121550000Y-20350000D03*
X95500000Y-53400000D03*
X95300000Y-48800000D03*
X94900000Y-18850000D03*
X122200000Y-51850000D03*
X86200000Y-51400000D03*
X118000000Y-45200000D03*
X121600000Y-60950000D03*
X122300000Y-46200000D03*
X89150000Y-51600000D03*
X105300000Y-60450000D03*
X94750000Y-45950000D03*
X83500000Y-44850000D03*
X98200000Y-51650000D03*
D25*
X115200000Y-37450000D03*
D23*
X85000000Y-53200000D03*
X98300000Y-46950000D03*
D25*
X116025000Y-50875000D03*
D23*
X121550000Y-24350000D03*
X94300000Y-38750000D03*
X86300000Y-38250000D03*
X114500000Y-60250000D03*
D25*
X111700000Y-29950000D03*
D23*
X85400000Y-57550000D03*
X89600000Y-59850000D03*
X109200000Y-22450000D03*
X121000000Y-52950000D03*
X117700000Y-60650000D03*
X94900000Y-60050000D03*
X105000000Y-50200000D03*
D25*
X117200000Y-39200000D03*
D23*
X109200000Y-27350000D03*
X97600000Y-60150000D03*
X108500000Y-21450000D03*
D24*
X103700000Y-49200000D03*
D23*
X114900000Y-58050000D03*
D25*
X117200000Y-37450000D03*
D23*
X106900000Y-52950000D03*
X109950000Y-51600000D03*
D24*
X104700000Y-53650000D03*
D23*
X109950000Y-34700000D03*
X91350000Y-48750000D03*
X112300000Y-58450000D03*
X111000000Y-44050000D03*
X94900000Y-30581254D03*
X83400000Y-59850000D03*
X118300000Y-20900000D03*
X118400000Y-25400000D03*
X96450000Y-34750000D03*
X96080500Y-22099500D03*
X105900000Y-54600000D03*
D25*
X112450500Y-25700000D03*
D23*
X106100000Y-58450000D03*
X88600000Y-49000000D03*
D25*
X115200000Y-39200000D03*
D23*
X88600000Y-46050000D03*
X109850000Y-53750000D03*
X85500000Y-47200000D03*
X89500000Y-38850000D03*
X100800000Y-27650000D03*
X84700000Y-39950000D03*
X110600000Y-60550000D03*
X108800000Y-58050000D03*
X122000000Y-59150000D03*
X95200000Y-37550000D03*
X119650000Y-51600000D03*
D25*
X108250000Y-18075500D03*
D24*
X100450000Y-51200000D03*
D23*
X121900000Y-53850000D03*
D25*
X99950000Y-38200000D03*
D23*
X88599251Y-33450749D03*
X87124500Y-33450000D03*
X88900000Y-31650000D03*
X99477086Y-35550000D03*
X111158411Y-37208411D03*
X112300000Y-39650000D03*
D25*
X112200000Y-42450000D03*
D23*
X84900000Y-34950000D03*
X88509266Y-27559266D03*
X116000000Y-34250000D03*
D25*
X118450000Y-48950000D03*
X120200000Y-42950000D03*
D23*
X108450000Y-45950000D03*
X105200451Y-45424500D03*
D25*
X91950000Y-21200000D03*
D23*
X112768267Y-34574500D03*
X94100000Y-25650000D03*
D25*
X97700000Y-36200000D03*
X95100000Y-20550000D03*
X113900000Y-25250000D03*
X113955000Y-20300000D03*
X109700000Y-20450000D03*
D23*
X101700000Y-22950000D03*
X106300000Y-22150000D03*
X100880000Y-43170000D03*
X107000000Y-32397502D03*
X100658411Y-40791589D03*
X115500000Y-45950000D03*
X110100000Y-45850000D03*
X108400000Y-44050000D03*
X119700000Y-47550000D03*
X85800000Y-35850000D03*
X86500000Y-34150000D03*
X93200000Y-33950000D03*
X100847950Y-38252821D03*
X87000000Y-30650000D03*
X96500000Y-38750000D03*
X88400000Y-30650000D03*
X100800000Y-39150000D03*
X94200000Y-35850000D03*
X113100000Y-52750000D03*
D25*
X101200000Y-31750000D03*
D23*
X114424156Y-32825500D03*
D25*
X104500000Y-33147002D03*
D23*
X93700000Y-21450000D03*
X87900000Y-34250000D03*
D25*
X114950000Y-30700000D03*
X113437701Y-33962299D03*
D23*
X108325501Y-35700000D03*
X111450000Y-32397502D03*
X110650497Y-32397502D03*
X107583099Y-35403277D03*
X110423339Y-31423339D03*
X106784108Y-35431875D03*
X87247499Y-24750000D03*
D25*
X116600000Y-23750000D03*
D23*
X120200000Y-38700000D03*
X119875734Y-37849500D03*
D25*
X116800000Y-22650000D03*
D23*
X112912254Y-48638453D03*
X105500000Y-35400000D03*
X107200000Y-28050000D03*
X107900000Y-28050000D03*
X106500000Y-28050000D03*
X104400000Y-28050000D03*
X103000000Y-28050000D03*
X103700000Y-28050000D03*
X99200000Y-22250000D03*
X101700000Y-23750000D03*
X101700000Y-22150000D03*
X99100000Y-21449500D03*
X98200000Y-44250000D03*
D25*
X107450000Y-43950000D03*
D23*
X110700000Y-41650000D03*
X115700000Y-44950000D03*
X116700000Y-48150000D03*
X110200000Y-40850000D03*
X109414683Y-40700062D03*
X113500000Y-47450000D03*
X113858420Y-27675500D03*
X119400000Y-35200000D03*
X112099500Y-40550000D03*
X110958728Y-39843088D03*
X109614558Y-38857499D03*
X112099500Y-38577378D03*
X92700000Y-28150000D03*
D25*
X110000000Y-18200000D03*
X118650000Y-36000000D03*
D23*
X111483531Y-34933531D03*
X110833531Y-35583531D03*
X112600000Y-36650000D03*
X107950000Y-23950000D03*
X110186629Y-40050609D03*
D26*
X96450000Y-34750000D02*
X96450000Y-33950000D01*
X96450000Y-33950000D02*
X95350000Y-32850000D01*
X98450000Y-33150000D02*
X100750000Y-30850000D01*
X100750000Y-30850000D02*
X100750000Y-30700000D01*
X88900000Y-31650000D02*
X88900000Y-33150000D01*
X84900000Y-34866116D02*
X86316116Y-33450000D01*
D27*
X111158411Y-37208411D02*
X111158411Y-37172350D01*
X113580761Y-34750000D02*
X113900000Y-34750000D01*
D26*
X84900000Y-34950000D02*
X84900000Y-34866116D01*
D27*
X111158411Y-37172350D02*
X113580761Y-34750000D01*
X113900000Y-34750000D02*
X115500000Y-34750000D01*
X115500000Y-34750000D02*
X116000000Y-34250000D01*
D26*
X86316116Y-33450000D02*
X87124500Y-33450000D01*
X88900000Y-33150000D02*
X88599251Y-33450749D01*
X108450000Y-45950000D02*
X105725951Y-45950000D01*
X105725951Y-45950000D02*
X105200451Y-45424500D01*
D28*
X91950000Y-19200000D02*
X93700000Y-17450000D01*
X103675000Y-17450000D02*
X105300000Y-19075000D01*
D29*
X105300000Y-19075000D02*
X105300000Y-19300000D01*
D28*
X91950000Y-21200000D02*
X91950000Y-19200000D01*
X93700000Y-17450000D02*
X103675000Y-17450000D01*
D26*
X97825000Y-36325000D02*
X97700000Y-36200000D01*
X112768267Y-34574500D02*
X111017767Y-36325000D01*
X111017767Y-36325000D02*
X97825000Y-36325000D01*
D29*
X109600000Y-20550000D02*
X95100000Y-20550000D01*
D28*
X113900000Y-20355000D02*
X113955000Y-20300000D01*
D29*
X109700000Y-20450000D02*
X109600000Y-20550000D01*
D28*
X113900000Y-25250000D02*
X113900000Y-20355000D01*
D26*
X115500000Y-45950000D02*
X117100000Y-47550000D01*
X110100000Y-45750000D02*
X110100000Y-45850000D01*
X108400000Y-44050000D02*
X110100000Y-45750000D01*
X117100000Y-47550000D02*
X119700000Y-47550000D01*
X91525000Y-34125000D02*
X90600000Y-33200000D01*
X90600000Y-33200000D02*
X90600000Y-30850000D01*
X90600000Y-30850000D02*
X90400000Y-30650000D01*
X101085842Y-39964159D02*
X97714159Y-39964159D01*
X85800000Y-35850000D02*
X85800000Y-34850000D01*
X97714159Y-39964159D02*
X96500000Y-38750000D01*
X101425000Y-38829871D02*
X101425000Y-39625001D01*
X93200000Y-33950000D02*
X93025000Y-34125000D01*
X90400000Y-30650000D02*
X88400000Y-30650000D01*
X87000000Y-30650000D02*
X88400000Y-30650000D01*
X85800000Y-34850000D02*
X86500000Y-34150000D01*
X100847950Y-38252821D02*
X101425000Y-38829871D01*
X101425000Y-39625001D02*
X101085842Y-39964159D01*
X93025000Y-34125000D02*
X91525000Y-34125000D01*
X100800000Y-39150000D02*
X98195405Y-39150000D01*
D27*
X94892291Y-35850000D02*
X94893848Y-35848443D01*
D26*
X98195405Y-39150000D02*
X94893848Y-35848443D01*
D27*
X94200000Y-35850000D02*
X94892291Y-35850000D01*
D28*
X104500000Y-33147002D02*
X102597002Y-33147002D01*
X102597002Y-33147002D02*
X101200000Y-31750000D01*
D27*
X90450300Y-22650000D02*
X92500000Y-22650000D01*
X86350000Y-30919239D02*
X86350000Y-26750300D01*
X87900000Y-32469239D02*
X86350000Y-30919239D01*
X87900000Y-34250000D02*
X87900000Y-32469239D01*
X92500000Y-22650000D02*
X93700000Y-21450000D01*
X86350000Y-26750300D02*
X90450300Y-22650000D01*
D29*
X85550001Y-19262000D02*
X85550001Y-28097999D01*
X85550001Y-28097999D02*
X83907000Y-29741000D01*
D26*
X87247499Y-24750000D02*
X87250000Y-24747499D01*
X87250000Y-24747499D02*
X87250000Y-19262000D01*
X87247499Y-24750000D02*
X87147000Y-24750000D01*
X119250734Y-36999266D02*
X120900000Y-35350000D01*
X120225305Y-32450000D02*
X115674695Y-32450000D01*
X120900000Y-35350000D02*
X120900000Y-34275305D01*
X120200000Y-38700000D02*
X119842350Y-38700000D01*
X121200000Y-33424695D02*
X120225305Y-32450000D01*
X117070000Y-27580000D02*
X117070000Y-24220000D01*
X119842350Y-38700000D02*
X119250734Y-38108384D01*
X117070000Y-24220000D02*
X116600000Y-23750000D01*
X120900000Y-34275305D02*
X121200000Y-33975305D01*
X115674695Y-28975305D02*
X117070000Y-27580000D01*
X115674695Y-32450000D02*
X115674695Y-28975305D01*
X119250734Y-38108384D02*
X119250734Y-36999266D01*
X121200000Y-33975305D02*
X121200000Y-33424695D01*
X122455000Y-28283274D02*
X116821726Y-22650000D01*
X119875734Y-37849500D02*
X120255095Y-37849500D01*
X116821726Y-22650000D02*
X116800000Y-22650000D01*
X120255095Y-37849500D02*
X122455000Y-35649595D01*
X122455000Y-35649595D02*
X122455000Y-28283274D01*
X100700000Y-23750000D02*
X99200000Y-22250000D01*
X101700000Y-23750000D02*
X100700000Y-23750000D01*
X99100000Y-21449500D02*
X100899500Y-21449500D01*
X100899500Y-21449500D02*
X101600000Y-22150000D01*
X101600000Y-22150000D02*
X101700000Y-22150000D01*
X98225000Y-44275000D02*
X98200000Y-44250000D01*
X106450000Y-44450000D02*
X106275000Y-44275000D01*
X107450000Y-43950000D02*
X106950000Y-44450000D01*
X106275000Y-44275000D02*
X98225000Y-44275000D01*
X106950000Y-44450000D02*
X106450000Y-44450000D01*
X110700000Y-41650000D02*
X112425305Y-41650000D01*
X115700000Y-44924695D02*
X115700000Y-44950000D01*
X112425305Y-41650000D02*
X115700000Y-44924695D01*
X110075000Y-41925000D02*
X116300000Y-48150000D01*
X116300000Y-48150000D02*
X116700000Y-48150000D01*
X110075000Y-40975000D02*
X110075000Y-41925000D01*
X110200000Y-40850000D02*
X110075000Y-40975000D01*
X109414683Y-43364683D02*
X113500000Y-47450000D01*
X109414683Y-40700062D02*
X109414683Y-43364683D01*
X119400000Y-35200000D02*
X117100000Y-32900000D01*
X113858420Y-31270121D02*
X113858420Y-27675500D01*
X115488299Y-32900000D02*
X113858420Y-31270121D01*
X117100000Y-32900000D02*
X115488299Y-32900000D01*
X111665640Y-40550000D02*
X112099500Y-40550000D01*
X110958728Y-39843088D02*
X111665640Y-40550000D01*
D27*
X111819379Y-38857499D02*
X112099500Y-38577378D01*
X109614558Y-38857499D02*
X111819379Y-38857499D01*
D26*
X95317500Y-26117500D02*
X96917500Y-26117500D01*
X94732500Y-26117500D02*
X95317500Y-26117500D01*
X92700000Y-28150000D02*
X94732500Y-26117500D01*
X96917500Y-26117500D02*
X98517500Y-26117500D01*
X118650000Y-36000000D02*
X116100000Y-33450000D01*
X113175000Y-18425000D02*
X112950000Y-18200000D01*
X116100000Y-33450000D02*
X113950000Y-33450000D01*
X112950000Y-18200000D02*
X110000000Y-18200000D01*
X113950000Y-33450000D02*
X113175000Y-32675000D01*
X113175000Y-32675000D02*
X113175000Y-18425000D01*
X111483531Y-34933531D02*
X110625000Y-34075000D01*
X110625000Y-34075000D02*
X100193150Y-34075000D01*
X108176327Y-34666942D02*
X98116942Y-34666942D01*
X110833531Y-35583531D02*
X109092916Y-35583531D01*
X109092916Y-35583531D02*
X108176327Y-34666942D01*
X97250000Y-33800000D02*
X97250000Y-32850000D01*
X98116942Y-34666942D02*
X97250000Y-33800000D01*
X112600000Y-36650000D02*
X111017001Y-38232999D01*
X97624695Y-37150000D02*
X94150000Y-33675305D01*
X94150000Y-33675305D02*
X94150000Y-32850000D01*
X104491325Y-38232999D02*
X103408326Y-37150000D01*
X103408326Y-37150000D02*
X97624695Y-37150000D01*
X111017001Y-38232999D02*
X104491325Y-38232999D01*
X96300000Y-29850000D02*
X96300000Y-28385000D01*
X96635500Y-27699500D02*
X96682500Y-27652500D01*
X96300000Y-28385000D02*
X96917500Y-27767500D01*
X95282500Y-27767500D02*
X95317500Y-27767500D01*
X93200000Y-29850000D02*
X95282500Y-27767500D01*
X99400000Y-28650000D02*
X98517500Y-27767500D01*
X99400000Y-30150000D02*
X99400000Y-28650000D01*
G04 #@! TA.AperFunction,Conductor*
G36*
X92382750Y-17478502D02*
G01*
X92429243Y-17532158D01*
X92439347Y-17602432D01*
X92409853Y-17667012D01*
X92403724Y-17673595D01*
X91461089Y-18616230D01*
X91446677Y-18628616D01*
X91435082Y-18637149D01*
X91435077Y-18637154D01*
X91429182Y-18641492D01*
X91424443Y-18647070D01*
X91424440Y-18647073D01*
X91394965Y-18681768D01*
X91388035Y-18689284D01*
X91382340Y-18694979D01*
X91380060Y-18697861D01*
X91364719Y-18717251D01*
X91361928Y-18720655D01*
X91343920Y-18741852D01*
X91314667Y-18776285D01*
X91311339Y-18782801D01*
X91307972Y-18787850D01*
X91304805Y-18792979D01*
X91300266Y-18798716D01*
X91269345Y-18864875D01*
X91267442Y-18868769D01*
X91234231Y-18933808D01*
X91232492Y-18940916D01*
X91230393Y-18946559D01*
X91228476Y-18952322D01*
X91225378Y-18958950D01*
X91223888Y-18966112D01*
X91223888Y-18966113D01*
X91210514Y-19030412D01*
X91209544Y-19034696D01*
X91192192Y-19105610D01*
X91191500Y-19116764D01*
X91191464Y-19116762D01*
X91191225Y-19120755D01*
X91190851Y-19124947D01*
X91189360Y-19132115D01*
X91189558Y-19139432D01*
X91191454Y-19209521D01*
X91191500Y-19212928D01*
X91191500Y-20663001D01*
X91174619Y-20726000D01*
X91150877Y-20767123D01*
X91123931Y-20813795D01*
X91115473Y-20828444D01*
X91056458Y-21010072D01*
X91055768Y-21016633D01*
X91055768Y-21016635D01*
X91042540Y-21142495D01*
X91036496Y-21200000D01*
X91037186Y-21206565D01*
X91052829Y-21355396D01*
X91056458Y-21389928D01*
X91115473Y-21571556D01*
X91210960Y-21736944D01*
X91250801Y-21781192D01*
X91281517Y-21845198D01*
X91272752Y-21915651D01*
X91227289Y-21970182D01*
X91157163Y-21991500D01*
X90532359Y-21991500D01*
X90520503Y-21990941D01*
X90512763Y-21989211D01*
X90504837Y-21989460D01*
X90504836Y-21989460D01*
X90441911Y-21991438D01*
X90437953Y-21991500D01*
X90408868Y-21991500D01*
X90404937Y-21991997D01*
X90404930Y-21991997D01*
X90404479Y-21992054D01*
X90392643Y-21992986D01*
X90346469Y-21994438D01*
X90325879Y-22000420D01*
X90306518Y-22004430D01*
X90299530Y-22005312D01*
X90293096Y-22006125D01*
X90293095Y-22006125D01*
X90285236Y-22007118D01*
X90277871Y-22010034D01*
X90277867Y-22010035D01*
X90242279Y-22024126D01*
X90231069Y-22027965D01*
X90186700Y-22040855D01*
X90168235Y-22051775D01*
X90150495Y-22060466D01*
X90130544Y-22068365D01*
X90093174Y-22095516D01*
X90083252Y-22102033D01*
X90050323Y-22121507D01*
X90050319Y-22121510D01*
X90043493Y-22125547D01*
X90028329Y-22140711D01*
X90013296Y-22153551D01*
X89995943Y-22166159D01*
X89978421Y-22187340D01*
X89966498Y-22201752D01*
X89958508Y-22210532D01*
X88098595Y-24070445D01*
X88036283Y-24104471D01*
X87965468Y-24099406D01*
X87908632Y-24056859D01*
X87883821Y-23990339D01*
X87883500Y-23981350D01*
X87883500Y-20733226D01*
X87903502Y-20665105D01*
X87933935Y-20632401D01*
X87943461Y-20625261D01*
X87999486Y-20550507D01*
X88056345Y-20507992D01*
X88127164Y-20502966D01*
X88189457Y-20537026D01*
X88201139Y-20550507D01*
X88251518Y-20617728D01*
X88264075Y-20630285D01*
X88366150Y-20706786D01*
X88381745Y-20715324D01*
X88502193Y-20760478D01*
X88517448Y-20764105D01*
X88568313Y-20769631D01*
X88575127Y-20770000D01*
X88677884Y-20770000D01*
X88693123Y-20765525D01*
X88694328Y-20764135D01*
X88695999Y-20756452D01*
X88695999Y-20751884D01*
X89203999Y-20751884D01*
X89208474Y-20767123D01*
X89209864Y-20768328D01*
X89217547Y-20769999D01*
X89324868Y-20769999D01*
X89331689Y-20769629D01*
X89382551Y-20764105D01*
X89397803Y-20760479D01*
X89518253Y-20715324D01*
X89533848Y-20706786D01*
X89635923Y-20630285D01*
X89648484Y-20617724D01*
X89724985Y-20515649D01*
X89733523Y-20500054D01*
X89778677Y-20379606D01*
X89782304Y-20364351D01*
X89787830Y-20313486D01*
X89788199Y-20306672D01*
X89788199Y-19534115D01*
X89783724Y-19518876D01*
X89782334Y-19517671D01*
X89774651Y-19516000D01*
X89222114Y-19516000D01*
X89206875Y-19520475D01*
X89205670Y-19521865D01*
X89203999Y-19529548D01*
X89203999Y-20751884D01*
X88695999Y-20751884D01*
X88695999Y-18989885D01*
X89203999Y-18989885D01*
X89208474Y-19005124D01*
X89209864Y-19006329D01*
X89217547Y-19008000D01*
X89770083Y-19008000D01*
X89785322Y-19003525D01*
X89786527Y-19002135D01*
X89788198Y-18994452D01*
X89788198Y-18217331D01*
X89787828Y-18210510D01*
X89782304Y-18159648D01*
X89778678Y-18144396D01*
X89733523Y-18023946D01*
X89724985Y-18008351D01*
X89648484Y-17906276D01*
X89635923Y-17893715D01*
X89533848Y-17817214D01*
X89518253Y-17808676D01*
X89397805Y-17763522D01*
X89382550Y-17759895D01*
X89331685Y-17754369D01*
X89324871Y-17754000D01*
X89222114Y-17754000D01*
X89206875Y-17758475D01*
X89205670Y-17759865D01*
X89203999Y-17767548D01*
X89203999Y-18989885D01*
X88695999Y-18989885D01*
X88695999Y-17772116D01*
X88691524Y-17756877D01*
X88690134Y-17755672D01*
X88682451Y-17754001D01*
X88575130Y-17754001D01*
X88568309Y-17754371D01*
X88517447Y-17759895D01*
X88502195Y-17763521D01*
X88381745Y-17808676D01*
X88366150Y-17817214D01*
X88264075Y-17893715D01*
X88251518Y-17906272D01*
X88201139Y-17973493D01*
X88144279Y-18016008D01*
X88073461Y-18021034D01*
X88011167Y-17986974D01*
X87999486Y-17973493D01*
X87943461Y-17898739D01*
X87826905Y-17811385D01*
X87690516Y-17760255D01*
X87628334Y-17753500D01*
X86871666Y-17753500D01*
X86809484Y-17760255D01*
X86673095Y-17811385D01*
X86556539Y-17898739D01*
X86500824Y-17973079D01*
X86443968Y-18015591D01*
X86373150Y-18020617D01*
X86310856Y-17986557D01*
X86299175Y-17973076D01*
X86248844Y-17905920D01*
X86248843Y-17905919D01*
X86243462Y-17898739D01*
X86126906Y-17811385D01*
X85990517Y-17760255D01*
X85928335Y-17753500D01*
X85171667Y-17753500D01*
X85109485Y-17760255D01*
X84973096Y-17811385D01*
X84856540Y-17898739D01*
X84769186Y-18015295D01*
X84718056Y-18151684D01*
X84711301Y-18213866D01*
X84711301Y-18883331D01*
X84705134Y-18922267D01*
X84656459Y-19072072D01*
X84655769Y-19078633D01*
X84655769Y-19078635D01*
X84652630Y-19108500D01*
X84641501Y-19214390D01*
X84641501Y-23165800D01*
X84621499Y-23233921D01*
X84567843Y-23280414D01*
X84515501Y-23291800D01*
X83745866Y-23291800D01*
X83683684Y-23298555D01*
X83547295Y-23349685D01*
X83430739Y-23437039D01*
X83343385Y-23553595D01*
X83292255Y-23689984D01*
X83285500Y-23752166D01*
X83285500Y-25702634D01*
X83292255Y-25764816D01*
X83323531Y-25848244D01*
X83328714Y-25919051D01*
X83294793Y-25981420D01*
X83263736Y-26004233D01*
X83180607Y-26047507D01*
X83176474Y-26050610D01*
X83176471Y-26050612D01*
X83006100Y-26178530D01*
X83001965Y-26181635D01*
X82847629Y-26343138D01*
X82721743Y-26527680D01*
X82699203Y-26576238D01*
X82630934Y-26723313D01*
X82627688Y-26730305D01*
X82567989Y-26945570D01*
X82544251Y-27167695D01*
X82544548Y-27172848D01*
X82544548Y-27172851D01*
X82556200Y-27374941D01*
X82557110Y-27390715D01*
X82558247Y-27395761D01*
X82558248Y-27395767D01*
X82580667Y-27495245D01*
X82606222Y-27608639D01*
X82659292Y-27739335D01*
X82685105Y-27802905D01*
X82690266Y-27815616D01*
X82702558Y-27835675D01*
X82801202Y-27996647D01*
X82806987Y-28006088D01*
X82953250Y-28174938D01*
X83125126Y-28317632D01*
X83191237Y-28356264D01*
X83198445Y-28360476D01*
X83247169Y-28412114D01*
X83260240Y-28481897D01*
X83233509Y-28547669D01*
X83193055Y-28581027D01*
X83180607Y-28587507D01*
X83176474Y-28590610D01*
X83176471Y-28590612D01*
X83006100Y-28718530D01*
X83001965Y-28721635D01*
X82965430Y-28759867D01*
X82868117Y-28861699D01*
X82847629Y-28883138D01*
X82844715Y-28887410D01*
X82844714Y-28887411D01*
X82840744Y-28893231D01*
X82721743Y-29067680D01*
X82714964Y-29082285D01*
X82641146Y-29241313D01*
X82627688Y-29270305D01*
X82567989Y-29485570D01*
X82544251Y-29707695D01*
X82544548Y-29712848D01*
X82544548Y-29712851D01*
X82553047Y-29860243D01*
X82557110Y-29930715D01*
X82558247Y-29935761D01*
X82558248Y-29935767D01*
X82576443Y-30016500D01*
X82606222Y-30148639D01*
X82690266Y-30355616D01*
X82806987Y-30546088D01*
X82953250Y-30714938D01*
X82957230Y-30718242D01*
X82961981Y-30722187D01*
X83001616Y-30781090D01*
X83003113Y-30852071D01*
X82965997Y-30912593D01*
X82925725Y-30937112D01*
X82852441Y-30964585D01*
X82810295Y-30980385D01*
X82693739Y-31067739D01*
X82606385Y-31184295D01*
X82555255Y-31320684D01*
X82548500Y-31382866D01*
X82548500Y-33179134D01*
X82555255Y-33241316D01*
X82606385Y-33377705D01*
X82693739Y-33494261D01*
X82810295Y-33581615D01*
X82946684Y-33632745D01*
X83008866Y-33639500D01*
X84805134Y-33639500D01*
X84867316Y-33632745D01*
X84914904Y-33614905D01*
X84985712Y-33609722D01*
X85048081Y-33643643D01*
X85082210Y-33705898D01*
X85077263Y-33776722D01*
X85048229Y-33821982D01*
X84730192Y-34140019D01*
X84681703Y-34170202D01*
X84553579Y-34213818D01*
X84493767Y-34250615D01*
X84405095Y-34305166D01*
X84405092Y-34305168D01*
X84399088Y-34308862D01*
X84394053Y-34313793D01*
X84394050Y-34313795D01*
X84287393Y-34418242D01*
X84269493Y-34435771D01*
X84171235Y-34588238D01*
X84168826Y-34594858D01*
X84168824Y-34594861D01*
X84119588Y-34730137D01*
X84109197Y-34758685D01*
X84086463Y-34938640D01*
X84104163Y-35119160D01*
X84161418Y-35291273D01*
X84165065Y-35297295D01*
X84165066Y-35297297D01*
X84245452Y-35430030D01*
X84255380Y-35446424D01*
X84260269Y-35451487D01*
X84260270Y-35451488D01*
X84297694Y-35490241D01*
X84381382Y-35576902D01*
X84387278Y-35580760D01*
X84513093Y-35663091D01*
X84533159Y-35676222D01*
X84539763Y-35678678D01*
X84539765Y-35678679D01*
X84696558Y-35736990D01*
X84696560Y-35736990D01*
X84703168Y-35739448D01*
X84710153Y-35740380D01*
X84710157Y-35740381D01*
X84804988Y-35753034D01*
X84881375Y-35763226D01*
X84946251Y-35792062D01*
X84985239Y-35851395D01*
X84990109Y-35875823D01*
X85004163Y-36019160D01*
X85061418Y-36191273D01*
X85065065Y-36197295D01*
X85065066Y-36197297D01*
X85132715Y-36308999D01*
X85155380Y-36346424D01*
X85160269Y-36351487D01*
X85160270Y-36351488D01*
X85185719Y-36377841D01*
X85281382Y-36476902D01*
X85433159Y-36576222D01*
X85439763Y-36578678D01*
X85439765Y-36578679D01*
X85596558Y-36636990D01*
X85596560Y-36636990D01*
X85603168Y-36639448D01*
X85682250Y-36650000D01*
X85775980Y-36662507D01*
X85775984Y-36662507D01*
X85782961Y-36663438D01*
X85789972Y-36662800D01*
X85789976Y-36662800D01*
X85932459Y-36649832D01*
X85963600Y-36646998D01*
X85970302Y-36644820D01*
X85970304Y-36644820D01*
X86129409Y-36593124D01*
X86129412Y-36593123D01*
X86136108Y-36590947D01*
X86291912Y-36498069D01*
X86423266Y-36372982D01*
X86523643Y-36221902D01*
X86588055Y-36052338D01*
X86589035Y-36045366D01*
X86612748Y-35876639D01*
X86612748Y-35876636D01*
X86613299Y-35872717D01*
X86613616Y-35850000D01*
X86593397Y-35669745D01*
X86591068Y-35663056D01*
X86536064Y-35505106D01*
X86536062Y-35505103D01*
X86533745Y-35498448D01*
X86523662Y-35482312D01*
X86452646Y-35368661D01*
X86433500Y-35301892D01*
X86433500Y-35164594D01*
X86453502Y-35096473D01*
X86470405Y-35075499D01*
X86560177Y-34985727D01*
X86622489Y-34951701D01*
X86637837Y-34949343D01*
X86663600Y-34946998D01*
X86670302Y-34944820D01*
X86670304Y-34944820D01*
X86829409Y-34893124D01*
X86829412Y-34893123D01*
X86836108Y-34890947D01*
X86991912Y-34798069D01*
X87066089Y-34727431D01*
X87129214Y-34694939D01*
X87199885Y-34701732D01*
X87252385Y-34741478D01*
X87255380Y-34746424D01*
X87260271Y-34751489D01*
X87260272Y-34751490D01*
X87275357Y-34767111D01*
X87381382Y-34876902D01*
X87411892Y-34896867D01*
X87520109Y-34967682D01*
X87533159Y-34976222D01*
X87539763Y-34978678D01*
X87539765Y-34978679D01*
X87696558Y-35036990D01*
X87696560Y-35036990D01*
X87703168Y-35039448D01*
X87781763Y-35049935D01*
X87875980Y-35062507D01*
X87875984Y-35062507D01*
X87882961Y-35063438D01*
X87889972Y-35062800D01*
X87889976Y-35062800D01*
X88037987Y-35049329D01*
X88063600Y-35046998D01*
X88070302Y-35044820D01*
X88070304Y-35044820D01*
X88229409Y-34993124D01*
X88229412Y-34993123D01*
X88236108Y-34990947D01*
X88391912Y-34898069D01*
X88523266Y-34772982D01*
X88623643Y-34621902D01*
X88680978Y-34470969D01*
X88685555Y-34458920D01*
X88685556Y-34458918D01*
X88688055Y-34452338D01*
X88689035Y-34445366D01*
X88703648Y-34341390D01*
X88732936Y-34276716D01*
X88789486Y-34239093D01*
X88928660Y-34193873D01*
X88928663Y-34193872D01*
X88935359Y-34191696D01*
X89076517Y-34107549D01*
X89085111Y-34102426D01*
X89085113Y-34102425D01*
X89091163Y-34098818D01*
X89222517Y-33973731D01*
X89322894Y-33822651D01*
X89387306Y-33653087D01*
X89388842Y-33642158D01*
X89398469Y-33573658D01*
X89417741Y-33525954D01*
X89416587Y-33525319D01*
X89426346Y-33507568D01*
X89437199Y-33491045D01*
X89444754Y-33481305D01*
X89449613Y-33475041D01*
X89467176Y-33434457D01*
X89472383Y-33423827D01*
X89493695Y-33385060D01*
X89495666Y-33377383D01*
X89495668Y-33377378D01*
X89498732Y-33365442D01*
X89505138Y-33346730D01*
X89510033Y-33335419D01*
X89513181Y-33328145D01*
X89514421Y-33320317D01*
X89514423Y-33320310D01*
X89520099Y-33284476D01*
X89522505Y-33272856D01*
X89531528Y-33237711D01*
X89531528Y-33237710D01*
X89533500Y-33230030D01*
X89533500Y-33209776D01*
X89535051Y-33190065D01*
X89535795Y-33185371D01*
X89538220Y-33170057D01*
X89534059Y-33126038D01*
X89533500Y-33114181D01*
X89533500Y-32195620D01*
X89554552Y-32125893D01*
X89578609Y-32089684D01*
X89623643Y-32021902D01*
X89665423Y-31911917D01*
X89685555Y-31858920D01*
X89685556Y-31858918D01*
X89688055Y-31852338D01*
X89689188Y-31844276D01*
X89712748Y-31676639D01*
X89712748Y-31676636D01*
X89713299Y-31672717D01*
X89713616Y-31650000D01*
X89693397Y-31469745D01*
X89686847Y-31450935D01*
X89683333Y-31380030D01*
X89718713Y-31318477D01*
X89781755Y-31285823D01*
X89805838Y-31283500D01*
X89840500Y-31283500D01*
X89908621Y-31303502D01*
X89955114Y-31357158D01*
X89966500Y-31409500D01*
X89966500Y-33121233D01*
X89965973Y-33132416D01*
X89964298Y-33139909D01*
X89964547Y-33147835D01*
X89964547Y-33147836D01*
X89966438Y-33207986D01*
X89966500Y-33211945D01*
X89966500Y-33239856D01*
X89966997Y-33243790D01*
X89966997Y-33243791D01*
X89967005Y-33243856D01*
X89967938Y-33255693D01*
X89969327Y-33299889D01*
X89974978Y-33319339D01*
X89978987Y-33338700D01*
X89980002Y-33346730D01*
X89981526Y-33358797D01*
X89984445Y-33366168D01*
X89984445Y-33366170D01*
X89997804Y-33399912D01*
X90001649Y-33411142D01*
X90008427Y-33434473D01*
X90013982Y-33453593D01*
X90018015Y-33460412D01*
X90018017Y-33460417D01*
X90024293Y-33471028D01*
X90032988Y-33488776D01*
X90040448Y-33507617D01*
X90045110Y-33514033D01*
X90045110Y-33514034D01*
X90066436Y-33543387D01*
X90072952Y-33553307D01*
X90089694Y-33581615D01*
X90095458Y-33591362D01*
X90109779Y-33605683D01*
X90122619Y-33620716D01*
X90134528Y-33637107D01*
X90161809Y-33659676D01*
X90168605Y-33665298D01*
X90177384Y-33673288D01*
X91021343Y-34517247D01*
X91028887Y-34525537D01*
X91033000Y-34532018D01*
X91038777Y-34537443D01*
X91082667Y-34578658D01*
X91085509Y-34581413D01*
X91105231Y-34601135D01*
X91108355Y-34603558D01*
X91108359Y-34603562D01*
X91108424Y-34603612D01*
X91117445Y-34611317D01*
X91149679Y-34641586D01*
X91156627Y-34645405D01*
X91156629Y-34645407D01*
X91167432Y-34651346D01*
X91183959Y-34662202D01*
X91193698Y-34669757D01*
X91193700Y-34669758D01*
X91199960Y-34674614D01*
X91240540Y-34692174D01*
X91251188Y-34697391D01*
X91259085Y-34701732D01*
X91289940Y-34718695D01*
X91297616Y-34720666D01*
X91297619Y-34720667D01*
X91309562Y-34723733D01*
X91328267Y-34730137D01*
X91346855Y-34738181D01*
X91354678Y-34739420D01*
X91354688Y-34739423D01*
X91390524Y-34745099D01*
X91402144Y-34747505D01*
X91437289Y-34756528D01*
X91444970Y-34758500D01*
X91465224Y-34758500D01*
X91484934Y-34760051D01*
X91504943Y-34763220D01*
X91512835Y-34762474D01*
X91531580Y-34760702D01*
X91548962Y-34759059D01*
X91560819Y-34758500D01*
X92946233Y-34758500D01*
X92957416Y-34759027D01*
X92964909Y-34760702D01*
X92972835Y-34760453D01*
X92972836Y-34760453D01*
X93032986Y-34758562D01*
X93036945Y-34758500D01*
X93064856Y-34758500D01*
X93068791Y-34758003D01*
X93068856Y-34757995D01*
X93080695Y-34757062D01*
X93090903Y-34756741D01*
X93114439Y-34756002D01*
X93135060Y-34757047D01*
X93175979Y-34762507D01*
X93175985Y-34762507D01*
X93182961Y-34763438D01*
X93189972Y-34762800D01*
X93189976Y-34762800D01*
X93332459Y-34749832D01*
X93363600Y-34746998D01*
X93370302Y-34744820D01*
X93370304Y-34744820D01*
X93529409Y-34693124D01*
X93529412Y-34693123D01*
X93536108Y-34690947D01*
X93651932Y-34621902D01*
X93685860Y-34601677D01*
X93685862Y-34601676D01*
X93691912Y-34598069D01*
X93823266Y-34472982D01*
X93829293Y-34463910D01*
X93831189Y-34462318D01*
X93831691Y-34461719D01*
X93831796Y-34461807D01*
X93883649Y-34418242D01*
X93954068Y-34409209D01*
X94023335Y-34444544D01*
X94413346Y-34834555D01*
X94447372Y-34896867D01*
X94442307Y-34967682D01*
X94399760Y-35024518D01*
X94333240Y-35049329D01*
X94309333Y-35048764D01*
X94205680Y-35036404D01*
X94198677Y-35037140D01*
X94198676Y-35037140D01*
X94032288Y-35054628D01*
X94032286Y-35054629D01*
X94025288Y-35055364D01*
X93853579Y-35113818D01*
X93834031Y-35125844D01*
X93705095Y-35205166D01*
X93705092Y-35205168D01*
X93699088Y-35208862D01*
X93694053Y-35213793D01*
X93694050Y-35213795D01*
X93574525Y-35330843D01*
X93569493Y-35335771D01*
X93471235Y-35488238D01*
X93468826Y-35494858D01*
X93468824Y-35494861D01*
X93435994Y-35585060D01*
X93409197Y-35658685D01*
X93386463Y-35838640D01*
X93404163Y-36019160D01*
X93461418Y-36191273D01*
X93465065Y-36197295D01*
X93465066Y-36197297D01*
X93532715Y-36308999D01*
X93555380Y-36346424D01*
X93560269Y-36351487D01*
X93560270Y-36351488D01*
X93585719Y-36377841D01*
X93681382Y-36476902D01*
X93833159Y-36576222D01*
X93839763Y-36578678D01*
X93839765Y-36578679D01*
X93996558Y-36636990D01*
X93996560Y-36636990D01*
X94003168Y-36639448D01*
X94082250Y-36650000D01*
X94175980Y-36662507D01*
X94175984Y-36662507D01*
X94182961Y-36663438D01*
X94189972Y-36662800D01*
X94189976Y-36662800D01*
X94332459Y-36649832D01*
X94363600Y-36646998D01*
X94370302Y-36644820D01*
X94370304Y-36644820D01*
X94529409Y-36593124D01*
X94529412Y-36593123D01*
X94536108Y-36590947D01*
X94556688Y-36578679D01*
X94579878Y-36564855D01*
X94648633Y-36547155D01*
X94716042Y-36569437D01*
X94733490Y-36583989D01*
X96046796Y-37897295D01*
X96080822Y-37959607D01*
X96075757Y-38030422D01*
X96033210Y-38087258D01*
X96023743Y-38093694D01*
X95999088Y-38108862D01*
X95994053Y-38113793D01*
X95994050Y-38113795D01*
X95899317Y-38206565D01*
X95869493Y-38235771D01*
X95771235Y-38388238D01*
X95768826Y-38394858D01*
X95768824Y-38394861D01*
X95720697Y-38527089D01*
X95709197Y-38558685D01*
X95686463Y-38738640D01*
X95704163Y-38919160D01*
X95761418Y-39091273D01*
X95765065Y-39097295D01*
X95765066Y-39097297D01*
X95846582Y-39231896D01*
X95855380Y-39246424D01*
X95860269Y-39251487D01*
X95860270Y-39251488D01*
X95908276Y-39301199D01*
X95981382Y-39376902D01*
X95987278Y-39380760D01*
X96113093Y-39463091D01*
X96133159Y-39476222D01*
X96139763Y-39478678D01*
X96139765Y-39478679D01*
X96296558Y-39536990D01*
X96296560Y-39536990D01*
X96303168Y-39539448D01*
X96310153Y-39540380D01*
X96310157Y-39540381D01*
X96347824Y-39545407D01*
X96365186Y-39547723D01*
X96430062Y-39576559D01*
X96437616Y-39583521D01*
X97210507Y-40356412D01*
X97218047Y-40364698D01*
X97222159Y-40371177D01*
X97227936Y-40376602D01*
X97271810Y-40417802D01*
X97274652Y-40420557D01*
X97294389Y-40440294D01*
X97297586Y-40442774D01*
X97306606Y-40450477D01*
X97338838Y-40480745D01*
X97345784Y-40484564D01*
X97345787Y-40484566D01*
X97356593Y-40490507D01*
X97373112Y-40501358D01*
X97389118Y-40513773D01*
X97396387Y-40516918D01*
X97396391Y-40516921D01*
X97429696Y-40531333D01*
X97440346Y-40536550D01*
X97479099Y-40557854D01*
X97486774Y-40559825D01*
X97486775Y-40559825D01*
X97498721Y-40562892D01*
X97517425Y-40569296D01*
X97525331Y-40572717D01*
X97536014Y-40577340D01*
X97543837Y-40578579D01*
X97543847Y-40578582D01*
X97579683Y-40584258D01*
X97591303Y-40586664D01*
X97626448Y-40595687D01*
X97634129Y-40597659D01*
X97654383Y-40597659D01*
X97674093Y-40599210D01*
X97694102Y-40602379D01*
X97701994Y-40601633D01*
X97738120Y-40598218D01*
X97749978Y-40597659D01*
X99725020Y-40597659D01*
X99793141Y-40617661D01*
X99839634Y-40671317D01*
X99850026Y-40739450D01*
X99844874Y-40780229D01*
X99862574Y-40960749D01*
X99919829Y-41132862D01*
X99923476Y-41138884D01*
X99923477Y-41138886D01*
X99990145Y-41248968D01*
X100013791Y-41288013D01*
X100018680Y-41293076D01*
X100018681Y-41293077D01*
X100026911Y-41301599D01*
X100139793Y-41418491D01*
X100291570Y-41517811D01*
X100298174Y-41520267D01*
X100298176Y-41520268D01*
X100454969Y-41578579D01*
X100454971Y-41578579D01*
X100461579Y-41581037D01*
X100545406Y-41592222D01*
X100634391Y-41604096D01*
X100634395Y-41604096D01*
X100641372Y-41605027D01*
X100648383Y-41604389D01*
X100648387Y-41604389D01*
X100790870Y-41591421D01*
X100822011Y-41588587D01*
X100828713Y-41586409D01*
X100828715Y-41586409D01*
X100987820Y-41534713D01*
X100987823Y-41534712D01*
X100994519Y-41532536D01*
X101150323Y-41439658D01*
X101281677Y-41314571D01*
X101298678Y-41288983D01*
X104069787Y-41288983D01*
X104074182Y-41299131D01*
X104383691Y-41608639D01*
X104397629Y-41616250D01*
X104399465Y-41616118D01*
X104406077Y-41611869D01*
X104716348Y-41301599D01*
X104723107Y-41289221D01*
X104722929Y-41288983D01*
X105676789Y-41288983D01*
X105681184Y-41299131D01*
X105990693Y-41608639D01*
X106004631Y-41616250D01*
X106006467Y-41616118D01*
X106013079Y-41611869D01*
X106323350Y-41301599D01*
X106330109Y-41289221D01*
X106329670Y-41288635D01*
X106304859Y-41222115D01*
X106319950Y-41152740D01*
X106329552Y-41139397D01*
X106329616Y-41139035D01*
X106329366Y-41138434D01*
X107199237Y-41138434D01*
X107202020Y-41142152D01*
X107333856Y-41191181D01*
X107347447Y-41194570D01*
X107502043Y-41215197D01*
X107516039Y-41215491D01*
X107671359Y-41201355D01*
X107685084Y-41198538D01*
X107833414Y-41150343D01*
X107842054Y-41146424D01*
X107850429Y-41137391D01*
X107846924Y-41128978D01*
X107537811Y-40819865D01*
X107523867Y-40812251D01*
X107522032Y-40812382D01*
X107515422Y-40816630D01*
X107205996Y-41126055D01*
X107199237Y-41138434D01*
X106329366Y-41138434D01*
X106325426Y-41128978D01*
X106016313Y-40819865D01*
X106002369Y-40812251D01*
X106000534Y-40812382D01*
X105993924Y-40816630D01*
X105684498Y-41126055D01*
X105677696Y-41138512D01*
X105702407Y-41204760D01*
X105687316Y-41274135D01*
X105676789Y-41288983D01*
X104722929Y-41288983D01*
X104722668Y-41288635D01*
X104697857Y-41222115D01*
X104712948Y-41152740D01*
X104722550Y-41139397D01*
X104722614Y-41139035D01*
X104718424Y-41128978D01*
X104409311Y-40819865D01*
X104395367Y-40812251D01*
X104393532Y-40812382D01*
X104386922Y-40816630D01*
X104077496Y-41126055D01*
X104070694Y-41138512D01*
X104095405Y-41204760D01*
X104080314Y-41274135D01*
X104069787Y-41288983D01*
X101298678Y-41288983D01*
X101382054Y-41163491D01*
X101391572Y-41138434D01*
X102549239Y-41138434D01*
X102552022Y-41142152D01*
X102683858Y-41191181D01*
X102697449Y-41194570D01*
X102852045Y-41215197D01*
X102866041Y-41215491D01*
X103021361Y-41201355D01*
X103035086Y-41198538D01*
X103183416Y-41150343D01*
X103192056Y-41146424D01*
X103200431Y-41137391D01*
X103196926Y-41128978D01*
X102887813Y-40819865D01*
X102873869Y-40812251D01*
X102872034Y-40812382D01*
X102865424Y-40816630D01*
X102555998Y-41126055D01*
X102549239Y-41138434D01*
X101391572Y-41138434D01*
X101437891Y-41016500D01*
X101443966Y-41000509D01*
X101443967Y-41000507D01*
X101446466Y-40993927D01*
X101447446Y-40986955D01*
X101471159Y-40818228D01*
X101471159Y-40818225D01*
X101471710Y-40814306D01*
X101472027Y-40791589D01*
X101451808Y-40611334D01*
X101447521Y-40599023D01*
X101444005Y-40528117D01*
X101477416Y-40468490D01*
X101491527Y-40454379D01*
X101496814Y-40449863D01*
X102112968Y-40449863D01*
X102128188Y-40605086D01*
X102131099Y-40618781D01*
X102180330Y-40766775D01*
X102182729Y-40771967D01*
X102190721Y-40779274D01*
X102199338Y-40775613D01*
X102508641Y-40466309D01*
X102515018Y-40454631D01*
X103233750Y-40454631D01*
X103233882Y-40456467D01*
X103238131Y-40463079D01*
X103547179Y-40772128D01*
X103559558Y-40778887D01*
X103559736Y-40778754D01*
X103626257Y-40753944D01*
X103695630Y-40769036D01*
X103710805Y-40779875D01*
X103720836Y-40775613D01*
X104030139Y-40466309D01*
X104036516Y-40454631D01*
X104755248Y-40454631D01*
X104755380Y-40456467D01*
X104759629Y-40463079D01*
X105068677Y-40772128D01*
X105081056Y-40778887D01*
X105085063Y-40775887D01*
X105088774Y-40769140D01*
X105139128Y-40719090D01*
X105208547Y-40704208D01*
X105274992Y-40729219D01*
X105304589Y-40765895D01*
X105319221Y-40779274D01*
X105327838Y-40775613D01*
X105637141Y-40466309D01*
X105643518Y-40454631D01*
X106362250Y-40454631D01*
X106362382Y-40456467D01*
X106366631Y-40463079D01*
X106675679Y-40772128D01*
X106688058Y-40778887D01*
X106688236Y-40778754D01*
X106754757Y-40753944D01*
X106824130Y-40769036D01*
X106839305Y-40779875D01*
X106849336Y-40775613D01*
X107158639Y-40466309D01*
X107165016Y-40454631D01*
X107883748Y-40454631D01*
X107883880Y-40456467D01*
X107888129Y-40463079D01*
X108197177Y-40772128D01*
X108209556Y-40778887D01*
X108213372Y-40776030D01*
X108261327Y-40649786D01*
X108264809Y-40636225D01*
X108286946Y-40478721D01*
X108287552Y-40470838D01*
X108287739Y-40457463D01*
X108287352Y-40449563D01*
X108269623Y-40291504D01*
X108266521Y-40277851D01*
X108215698Y-40131908D01*
X108210139Y-40126967D01*
X108201089Y-40130962D01*
X107891359Y-40440693D01*
X107883748Y-40454631D01*
X107165016Y-40454631D01*
X107166250Y-40452371D01*
X107166118Y-40450535D01*
X107161869Y-40443923D01*
X106852038Y-40134091D01*
X106839420Y-40127201D01*
X106773727Y-40151704D01*
X106704353Y-40136613D01*
X106689873Y-40126423D01*
X106679591Y-40130962D01*
X106369861Y-40440693D01*
X106362250Y-40454631D01*
X105643518Y-40454631D01*
X105644752Y-40452371D01*
X105644620Y-40450535D01*
X105640371Y-40443923D01*
X105330540Y-40134091D01*
X105318161Y-40127332D01*
X105314522Y-40130056D01*
X105311226Y-40136150D01*
X105261223Y-40186551D01*
X105191909Y-40201917D01*
X105125291Y-40177369D01*
X105089490Y-40133946D01*
X105081639Y-40126967D01*
X105072589Y-40130962D01*
X104762859Y-40440693D01*
X104755248Y-40454631D01*
X104036516Y-40454631D01*
X104037750Y-40452371D01*
X104037618Y-40450535D01*
X104033369Y-40443923D01*
X103723538Y-40134091D01*
X103710920Y-40127201D01*
X103645227Y-40151704D01*
X103575853Y-40136613D01*
X103561373Y-40126423D01*
X103551091Y-40130962D01*
X103241361Y-40440693D01*
X103233750Y-40454631D01*
X102515018Y-40454631D01*
X102516252Y-40452371D01*
X102516120Y-40450535D01*
X102511871Y-40443923D01*
X102202040Y-40134091D01*
X102189661Y-40127332D01*
X102186040Y-40130043D01*
X102136003Y-40267517D01*
X102132711Y-40281126D01*
X102113164Y-40435857D01*
X102112968Y-40449863D01*
X101496814Y-40449863D01*
X101506561Y-40441538D01*
X101516537Y-40434290D01*
X101516538Y-40434289D01*
X101522949Y-40429631D01*
X101551130Y-40395566D01*
X101559120Y-40386785D01*
X101817258Y-40128648D01*
X101825537Y-40121114D01*
X101832018Y-40117001D01*
X101878645Y-40067348D01*
X101881399Y-40064507D01*
X101901135Y-40044771D01*
X101903615Y-40041574D01*
X101911320Y-40032552D01*
X101921321Y-40021902D01*
X101941586Y-40000322D01*
X101945405Y-39993376D01*
X101945407Y-39993373D01*
X101951348Y-39982567D01*
X101962199Y-39966048D01*
X101969758Y-39956302D01*
X101974614Y-39950042D01*
X101977759Y-39942773D01*
X101977762Y-39942769D01*
X101992174Y-39909464D01*
X101997391Y-39898814D01*
X102018695Y-39860061D01*
X102023733Y-39840438D01*
X102030137Y-39821735D01*
X102035033Y-39810421D01*
X102035033Y-39810420D01*
X102038181Y-39803146D01*
X102039420Y-39795323D01*
X102039423Y-39795313D01*
X102043622Y-39768804D01*
X102548860Y-39768804D01*
X102552684Y-39777633D01*
X102862193Y-40087141D01*
X102876131Y-40094752D01*
X102877967Y-40094620D01*
X102884579Y-40090371D01*
X103194850Y-39780101D01*
X103201018Y-39768804D01*
X104070358Y-39768804D01*
X104074182Y-39777633D01*
X104383691Y-40087141D01*
X104397629Y-40094752D01*
X104399465Y-40094620D01*
X104406077Y-40090371D01*
X104716348Y-39780101D01*
X104722516Y-39768804D01*
X105677360Y-39768804D01*
X105681184Y-39777633D01*
X105990693Y-40087141D01*
X106004631Y-40094752D01*
X106006467Y-40094620D01*
X106013079Y-40090371D01*
X106323350Y-39780101D01*
X106329518Y-39768804D01*
X107198858Y-39768804D01*
X107202682Y-39777633D01*
X107512191Y-40087141D01*
X107526129Y-40094752D01*
X107527965Y-40094620D01*
X107534577Y-40090371D01*
X107844848Y-39780101D01*
X107851607Y-39767722D01*
X107849022Y-39764268D01*
X107843333Y-39761217D01*
X107792758Y-39711390D01*
X107777149Y-39642131D01*
X107801463Y-39575427D01*
X107830403Y-39551987D01*
X107840240Y-39541378D01*
X107840113Y-39541164D01*
X107840841Y-39540730D01*
X107850429Y-39530389D01*
X107846924Y-39521976D01*
X107537811Y-39212863D01*
X107523867Y-39205249D01*
X107522032Y-39205380D01*
X107515422Y-39209628D01*
X107205996Y-39519053D01*
X107199237Y-39531432D01*
X107202099Y-39535255D01*
X107208546Y-39538771D01*
X107258773Y-39588948D01*
X107273898Y-39658315D01*
X107249120Y-39724847D01*
X107208934Y-39757628D01*
X107198858Y-39768804D01*
X106329518Y-39768804D01*
X106330109Y-39767722D01*
X106327524Y-39764268D01*
X106321835Y-39761217D01*
X106271260Y-39711390D01*
X106255651Y-39642131D01*
X106279965Y-39575427D01*
X106308905Y-39551987D01*
X106318742Y-39541378D01*
X106318615Y-39541164D01*
X106319343Y-39540730D01*
X106328931Y-39530389D01*
X106325426Y-39521976D01*
X106016313Y-39212863D01*
X106002369Y-39205249D01*
X106000534Y-39205380D01*
X105993924Y-39209628D01*
X105684498Y-39519053D01*
X105677739Y-39531432D01*
X105680601Y-39535255D01*
X105687048Y-39538771D01*
X105737275Y-39588948D01*
X105752400Y-39658315D01*
X105727622Y-39724847D01*
X105687436Y-39757628D01*
X105677360Y-39768804D01*
X104722516Y-39768804D01*
X104723107Y-39767722D01*
X104720522Y-39764268D01*
X104714833Y-39761217D01*
X104664258Y-39711390D01*
X104648649Y-39642131D01*
X104672963Y-39575427D01*
X104701903Y-39551987D01*
X104711740Y-39541378D01*
X104711613Y-39541164D01*
X104712341Y-39540730D01*
X104721929Y-39530389D01*
X104718424Y-39521976D01*
X104409311Y-39212863D01*
X104395367Y-39205249D01*
X104393532Y-39205380D01*
X104386922Y-39209628D01*
X104077496Y-39519053D01*
X104070737Y-39531432D01*
X104073599Y-39535255D01*
X104080046Y-39538771D01*
X104130273Y-39588948D01*
X104145398Y-39658315D01*
X104120620Y-39724847D01*
X104080434Y-39757628D01*
X104070358Y-39768804D01*
X103201018Y-39768804D01*
X103201609Y-39767722D01*
X103199024Y-39764268D01*
X103193335Y-39761217D01*
X103142760Y-39711390D01*
X103127151Y-39642131D01*
X103151465Y-39575427D01*
X103180405Y-39551987D01*
X103190242Y-39541378D01*
X103190115Y-39541164D01*
X103190843Y-39540730D01*
X103200431Y-39530389D01*
X103196926Y-39521976D01*
X102887813Y-39212863D01*
X102873869Y-39205249D01*
X102872034Y-39205380D01*
X102865424Y-39209628D01*
X102555998Y-39519053D01*
X102549239Y-39531432D01*
X102552101Y-39535255D01*
X102558548Y-39538771D01*
X102608775Y-39588948D01*
X102623900Y-39658315D01*
X102599122Y-39724847D01*
X102558936Y-39757628D01*
X102548860Y-39768804D01*
X102043622Y-39768804D01*
X102045099Y-39759477D01*
X102047505Y-39747857D01*
X102056528Y-39712712D01*
X102056528Y-39712711D01*
X102058500Y-39705031D01*
X102058500Y-39684777D01*
X102060051Y-39665066D01*
X102061980Y-39652887D01*
X102063220Y-39645058D01*
X102059059Y-39601039D01*
X102058500Y-39589182D01*
X102058500Y-39300017D01*
X102078502Y-39231896D01*
X102132158Y-39185403D01*
X102172030Y-39180212D01*
X102199338Y-39168611D01*
X102508641Y-38859307D01*
X102516252Y-38845369D01*
X102516120Y-38843533D01*
X102511871Y-38836921D01*
X102202040Y-38527089D01*
X102189661Y-38520330D01*
X102163870Y-38539637D01*
X102162934Y-38538387D01*
X102145469Y-38555993D01*
X102076156Y-38571363D01*
X102009536Y-38546819D01*
X101982703Y-38519709D01*
X101958564Y-38486484D01*
X101952048Y-38476564D01*
X101933580Y-38445336D01*
X101933578Y-38445333D01*
X101929542Y-38438509D01*
X101915221Y-38424188D01*
X101902380Y-38409154D01*
X101895132Y-38399178D01*
X101890472Y-38392764D01*
X101856406Y-38364582D01*
X101847628Y-38356594D01*
X101758214Y-38267181D01*
X101682370Y-38191336D01*
X101648346Y-38129026D01*
X101646251Y-38116286D01*
X101644847Y-38103769D01*
X101641347Y-38072566D01*
X101598991Y-37950936D01*
X101595477Y-37880028D01*
X101630858Y-37818475D01*
X101693901Y-37785823D01*
X101717982Y-37783500D01*
X103093731Y-37783500D01*
X103161852Y-37803502D01*
X103182826Y-37820405D01*
X103301583Y-37939162D01*
X103335609Y-38001474D01*
X103330544Y-38072289D01*
X103287997Y-38129125D01*
X103221477Y-38153936D01*
X103170222Y-38146956D01*
X103055824Y-38106221D01*
X103042196Y-38103024D01*
X102887319Y-38084557D01*
X102873322Y-38084459D01*
X102718210Y-38100761D01*
X102704531Y-38103769D01*
X102556886Y-38154031D01*
X102555115Y-38154865D01*
X102548860Y-38161802D01*
X102552684Y-38170631D01*
X102875001Y-38492947D01*
X103547182Y-39165129D01*
X103559556Y-39171886D01*
X103559734Y-39171753D01*
X103626255Y-39146942D01*
X103695629Y-39162033D01*
X103710805Y-39172873D01*
X103720836Y-39168611D01*
X104064240Y-38825206D01*
X104126553Y-38791181D01*
X104203389Y-38798670D01*
X104205115Y-38799417D01*
X104206876Y-38800179D01*
X104217512Y-38805390D01*
X104256265Y-38826694D01*
X104263940Y-38828665D01*
X104263941Y-38828665D01*
X104275887Y-38831732D01*
X104294592Y-38838136D01*
X104313180Y-38846180D01*
X104321003Y-38847419D01*
X104321013Y-38847422D01*
X104356849Y-38853098D01*
X104368469Y-38855504D01*
X104403614Y-38864527D01*
X104411295Y-38866499D01*
X104431549Y-38866499D01*
X104451259Y-38868050D01*
X104471268Y-38871219D01*
X104479160Y-38870473D01*
X104515286Y-38867058D01*
X104527144Y-38866499D01*
X104717860Y-38866499D01*
X104785981Y-38886501D01*
X104806955Y-38903404D01*
X105068676Y-39165125D01*
X105081056Y-39171885D01*
X105085063Y-39168885D01*
X105088774Y-39162138D01*
X105139128Y-39112088D01*
X105208547Y-39097206D01*
X105274992Y-39122217D01*
X105304589Y-39158893D01*
X105319221Y-39172272D01*
X105327838Y-39168611D01*
X105593045Y-38903404D01*
X105655357Y-38869378D01*
X105682140Y-38866499D01*
X106324862Y-38866499D01*
X106392983Y-38886501D01*
X106413957Y-38903404D01*
X106675678Y-39165125D01*
X106688058Y-39171885D01*
X106688236Y-39171752D01*
X106754757Y-39146942D01*
X106824130Y-39162034D01*
X106839305Y-39172873D01*
X106849336Y-39168611D01*
X107114543Y-38903404D01*
X107176855Y-38869378D01*
X107203638Y-38866499D01*
X107846360Y-38866499D01*
X107914481Y-38886501D01*
X107935455Y-38903404D01*
X108197176Y-39165125D01*
X108209556Y-39171885D01*
X108213372Y-39169028D01*
X108261327Y-39042784D01*
X108264809Y-39029223D01*
X108272435Y-38974963D01*
X108301723Y-38910289D01*
X108361327Y-38871716D01*
X108397209Y-38866499D01*
X108688767Y-38866499D01*
X108756888Y-38886501D01*
X108803381Y-38940157D01*
X108814166Y-38980204D01*
X108818721Y-39026659D01*
X108820945Y-39033344D01*
X108820945Y-39033345D01*
X108837992Y-39084590D01*
X108875976Y-39198772D01*
X108879623Y-39204794D01*
X108879624Y-39204796D01*
X108963451Y-39343211D01*
X108969938Y-39353923D01*
X108974827Y-39358986D01*
X108974828Y-39358987D01*
X109050493Y-39437340D01*
X109095940Y-39484401D01*
X109116167Y-39497637D01*
X109201327Y-39553364D01*
X109247717Y-39583721D01*
X109349239Y-39621477D01*
X109406111Y-39663967D01*
X109430985Y-39730463D01*
X109423716Y-39782668D01*
X109411495Y-39816244D01*
X109369400Y-39873415D01*
X109306265Y-39898458D01*
X109246971Y-39904690D01*
X109246969Y-39904690D01*
X109239971Y-39905426D01*
X109068262Y-39963880D01*
X109062258Y-39967574D01*
X108919778Y-40055228D01*
X108919775Y-40055230D01*
X108913771Y-40058924D01*
X108908736Y-40063855D01*
X108908733Y-40063857D01*
X108819027Y-40151704D01*
X108784176Y-40185833D01*
X108685918Y-40338300D01*
X108683509Y-40344920D01*
X108683507Y-40344923D01*
X108626569Y-40501358D01*
X108623880Y-40508747D01*
X108601146Y-40688702D01*
X108618846Y-40869222D01*
X108676101Y-41041335D01*
X108679748Y-41047357D01*
X108679749Y-41047359D01*
X108762959Y-41184756D01*
X108781183Y-41250027D01*
X108781183Y-43148841D01*
X108761181Y-43216962D01*
X108707525Y-43263455D01*
X108637251Y-43273559D01*
X108612917Y-43267540D01*
X108592428Y-43260244D01*
X108592422Y-43260243D01*
X108585790Y-43257881D01*
X108578802Y-43257048D01*
X108578799Y-43257047D01*
X108445212Y-43241118D01*
X108405680Y-43236404D01*
X108398677Y-43237140D01*
X108398676Y-43237140D01*
X108232288Y-43254628D01*
X108232286Y-43254629D01*
X108225288Y-43255364D01*
X108160636Y-43277373D01*
X108089705Y-43280391D01*
X108045971Y-43260031D01*
X108042671Y-43257633D01*
X107922055Y-43170000D01*
X107912094Y-43162763D01*
X107912093Y-43162762D01*
X107906752Y-43158882D01*
X107900724Y-43156198D01*
X107900722Y-43156197D01*
X107738319Y-43083891D01*
X107738318Y-43083891D01*
X107732288Y-43081206D01*
X107638888Y-43061353D01*
X107551944Y-43042872D01*
X107551939Y-43042872D01*
X107545487Y-43041500D01*
X107354513Y-43041500D01*
X107348061Y-43042872D01*
X107348056Y-43042872D01*
X107261113Y-43061353D01*
X107167712Y-43081206D01*
X107161682Y-43083891D01*
X107161681Y-43083891D01*
X106999278Y-43156197D01*
X106999276Y-43156198D01*
X106993248Y-43158882D01*
X106987907Y-43162762D01*
X106987906Y-43162763D01*
X106977945Y-43170000D01*
X106838747Y-43271134D01*
X106834326Y-43276044D01*
X106834325Y-43276045D01*
X106747623Y-43372338D01*
X106710960Y-43413056D01*
X106685080Y-43457881D01*
X106633813Y-43546679D01*
X106615473Y-43578444D01*
X106613431Y-43584728D01*
X106610747Y-43590757D01*
X106609044Y-43589999D01*
X106574059Y-43641153D01*
X106508659Y-43668783D01*
X106459670Y-43664643D01*
X106453145Y-43661819D01*
X106445322Y-43660580D01*
X106445312Y-43660577D01*
X106409476Y-43654901D01*
X106397856Y-43652495D01*
X106362711Y-43643472D01*
X106362710Y-43643472D01*
X106355030Y-43641500D01*
X106334776Y-43641500D01*
X106315065Y-43639949D01*
X106312237Y-43639501D01*
X106295057Y-43636780D01*
X106287165Y-43637526D01*
X106251039Y-43640941D01*
X106239181Y-43641500D01*
X101748457Y-43641500D01*
X101680336Y-43621498D01*
X101633843Y-43567842D01*
X101623739Y-43497568D01*
X101630669Y-43470756D01*
X101665555Y-43378920D01*
X101665556Y-43378918D01*
X101668055Y-43372338D01*
X101670980Y-43351527D01*
X101692748Y-43196639D01*
X101692748Y-43196636D01*
X101693299Y-43192717D01*
X101693616Y-43170000D01*
X101673397Y-42989745D01*
X101671080Y-42983091D01*
X101616064Y-42825106D01*
X101616062Y-42825103D01*
X101613745Y-42818448D01*
X101552251Y-42720036D01*
X101521359Y-42670598D01*
X101517626Y-42664624D01*
X101512967Y-42659932D01*
X104070737Y-42659932D01*
X104073520Y-42663650D01*
X104205356Y-42712679D01*
X104218947Y-42716068D01*
X104373543Y-42736695D01*
X104387539Y-42736989D01*
X104542859Y-42722853D01*
X104556584Y-42720036D01*
X104704914Y-42671841D01*
X104713554Y-42667922D01*
X104720962Y-42659932D01*
X105677739Y-42659932D01*
X105680522Y-42663650D01*
X105812358Y-42712679D01*
X105825949Y-42716068D01*
X105980545Y-42736695D01*
X105994541Y-42736989D01*
X106149861Y-42722853D01*
X106163586Y-42720036D01*
X106311916Y-42671841D01*
X106320556Y-42667922D01*
X106328931Y-42658889D01*
X106325426Y-42650476D01*
X106016313Y-42341363D01*
X106002369Y-42333749D01*
X106000534Y-42333880D01*
X105993924Y-42338128D01*
X105684498Y-42647553D01*
X105677739Y-42659932D01*
X104720962Y-42659932D01*
X104721929Y-42658889D01*
X104718424Y-42650476D01*
X104409311Y-42341363D01*
X104395367Y-42333749D01*
X104393532Y-42333880D01*
X104386922Y-42338128D01*
X104077496Y-42647553D01*
X104070737Y-42659932D01*
X101512967Y-42659932D01*
X101503941Y-42650843D01*
X101394778Y-42540915D01*
X101394774Y-42540912D01*
X101389815Y-42535918D01*
X101378697Y-42528862D01*
X101330538Y-42498300D01*
X101236666Y-42438727D01*
X101207463Y-42428328D01*
X101072425Y-42380243D01*
X101072420Y-42380242D01*
X101065790Y-42377881D01*
X101058802Y-42377048D01*
X101058799Y-42377047D01*
X100935698Y-42362368D01*
X100885680Y-42356404D01*
X100878677Y-42357140D01*
X100878676Y-42357140D01*
X100712288Y-42374628D01*
X100712286Y-42374629D01*
X100705288Y-42375364D01*
X100533579Y-42433818D01*
X100527575Y-42437512D01*
X100385095Y-42525166D01*
X100385092Y-42525168D01*
X100379088Y-42528862D01*
X100374053Y-42533793D01*
X100374050Y-42533795D01*
X100257885Y-42647553D01*
X100249493Y-42655771D01*
X100151235Y-42808238D01*
X100148826Y-42814858D01*
X100148824Y-42814861D01*
X100097248Y-42956565D01*
X100089197Y-42978685D01*
X100066463Y-43158640D01*
X100084163Y-43339160D01*
X100127940Y-43470756D01*
X100129594Y-43475728D01*
X100132117Y-43546679D01*
X100095881Y-43607732D01*
X100032389Y-43639501D01*
X100010036Y-43641500D01*
X98784751Y-43641500D01*
X98716630Y-43621498D01*
X98712157Y-43618276D01*
X98709815Y-43615918D01*
X98698697Y-43608862D01*
X98593184Y-43541902D01*
X98556666Y-43518727D01*
X98527463Y-43508328D01*
X98392425Y-43460243D01*
X98392420Y-43460242D01*
X98385790Y-43457881D01*
X98378802Y-43457048D01*
X98378799Y-43457047D01*
X98255698Y-43442368D01*
X98205680Y-43436404D01*
X98198677Y-43437140D01*
X98198676Y-43437140D01*
X98032288Y-43454628D01*
X98032286Y-43454629D01*
X98025288Y-43455364D01*
X97853579Y-43513818D01*
X97791109Y-43552250D01*
X97705095Y-43605166D01*
X97705092Y-43605168D01*
X97699088Y-43608862D01*
X97694053Y-43613793D01*
X97694050Y-43613795D01*
X97600438Y-43705467D01*
X97569493Y-43735771D01*
X97471235Y-43888238D01*
X97409197Y-44058685D01*
X97386463Y-44238640D01*
X97404163Y-44419160D01*
X97461418Y-44591273D01*
X97465065Y-44597295D01*
X97465066Y-44597297D01*
X97551700Y-44740347D01*
X97555380Y-44746424D01*
X97560269Y-44751487D01*
X97560270Y-44751488D01*
X97625267Y-44818794D01*
X97681382Y-44876902D01*
X97687278Y-44880760D01*
X97818434Y-44966586D01*
X97833159Y-44976222D01*
X97839763Y-44978678D01*
X97839765Y-44978679D01*
X97996558Y-45036990D01*
X97996560Y-45036990D01*
X98003168Y-45039448D01*
X98069892Y-45048351D01*
X98175980Y-45062507D01*
X98175984Y-45062507D01*
X98182961Y-45063438D01*
X98189972Y-45062800D01*
X98189976Y-45062800D01*
X98344547Y-45048732D01*
X98363600Y-45046998D01*
X98370302Y-45044820D01*
X98370304Y-45044820D01*
X98529409Y-44993124D01*
X98529412Y-44993123D01*
X98536108Y-44990947D01*
X98644603Y-44926271D01*
X98709120Y-44908500D01*
X104347877Y-44908500D01*
X104415998Y-44928502D01*
X104462491Y-44982158D01*
X104472595Y-45052432D01*
X104466278Y-45077594D01*
X104412058Y-45226563D01*
X104409648Y-45233185D01*
X104386914Y-45413140D01*
X104404614Y-45593660D01*
X104461869Y-45765773D01*
X104465516Y-45771795D01*
X104465517Y-45771797D01*
X104536205Y-45888517D01*
X104555831Y-45920924D01*
X104560720Y-45925987D01*
X104560721Y-45925988D01*
X104605847Y-45972717D01*
X104681833Y-46051402D01*
X104833610Y-46150722D01*
X104840214Y-46153178D01*
X104840216Y-46153179D01*
X104997009Y-46211490D01*
X104997011Y-46211490D01*
X105003619Y-46213948D01*
X105010604Y-46214880D01*
X105010608Y-46214881D01*
X105045538Y-46219541D01*
X105065638Y-46222223D01*
X105130514Y-46251058D01*
X105138068Y-46258021D01*
X105222294Y-46342247D01*
X105229838Y-46350537D01*
X105233951Y-46357018D01*
X105239728Y-46362443D01*
X105283618Y-46403658D01*
X105286460Y-46406413D01*
X105306181Y-46426134D01*
X105309376Y-46428612D01*
X105318398Y-46436318D01*
X105350630Y-46466586D01*
X105357579Y-46470406D01*
X105368383Y-46476346D01*
X105384907Y-46487199D01*
X105400910Y-46499613D01*
X105441494Y-46517176D01*
X105452124Y-46522383D01*
X105490891Y-46543695D01*
X105498568Y-46545666D01*
X105498573Y-46545668D01*
X105510509Y-46548732D01*
X105529217Y-46555137D01*
X105547806Y-46563181D01*
X105555634Y-46564421D01*
X105555641Y-46564423D01*
X105591475Y-46570099D01*
X105603095Y-46572505D01*
X105638240Y-46581528D01*
X105645921Y-46583500D01*
X105666175Y-46583500D01*
X105685885Y-46585051D01*
X105705894Y-46588220D01*
X105713786Y-46587474D01*
X105749912Y-46584059D01*
X105761770Y-46583500D01*
X107903903Y-46583500D01*
X107972896Y-46604068D01*
X108039477Y-46647637D01*
X108083159Y-46676222D01*
X108089763Y-46678678D01*
X108089765Y-46678679D01*
X108246558Y-46736990D01*
X108246560Y-46736990D01*
X108253168Y-46739448D01*
X108336995Y-46750633D01*
X108425980Y-46762507D01*
X108425984Y-46762507D01*
X108432961Y-46763438D01*
X108439972Y-46762800D01*
X108439976Y-46762800D01*
X108582459Y-46749832D01*
X108613600Y-46746998D01*
X108620302Y-46744820D01*
X108620304Y-46744820D01*
X108779409Y-46693124D01*
X108779412Y-46693123D01*
X108786108Y-46690947D01*
X108941912Y-46598069D01*
X109073266Y-46472982D01*
X109173643Y-46321902D01*
X109176144Y-46315317D01*
X109176147Y-46315312D01*
X109184779Y-46292587D01*
X109227667Y-46236009D01*
X109294336Y-46211599D01*
X109363618Y-46227108D01*
X109410343Y-46272059D01*
X109444085Y-46327773D01*
X109455380Y-46346424D01*
X109460269Y-46351487D01*
X109460270Y-46351488D01*
X109470849Y-46362443D01*
X109581382Y-46476902D01*
X109650895Y-46522390D01*
X109708420Y-46560033D01*
X109733159Y-46576222D01*
X109739763Y-46578678D01*
X109739765Y-46578679D01*
X109896558Y-46636990D01*
X109896560Y-46636990D01*
X109903168Y-46639448D01*
X109986995Y-46650633D01*
X110075980Y-46662507D01*
X110075984Y-46662507D01*
X110082961Y-46663438D01*
X110089972Y-46662800D01*
X110089976Y-46662800D01*
X110232459Y-46649832D01*
X110263600Y-46646998D01*
X110270302Y-46644820D01*
X110270304Y-46644820D01*
X110429409Y-46593124D01*
X110429412Y-46593123D01*
X110436108Y-46590947D01*
X110559873Y-46517168D01*
X110585860Y-46501677D01*
X110585862Y-46501676D01*
X110591912Y-46498069D01*
X110723266Y-46372982D01*
X110823643Y-46221902D01*
X110888055Y-46052338D01*
X110892115Y-46023449D01*
X110921402Y-45958774D01*
X110981006Y-45920201D01*
X111052002Y-45919974D01*
X111105984Y-45951888D01*
X112664750Y-47510654D01*
X112698776Y-47572966D01*
X112701054Y-47587453D01*
X112704163Y-47619160D01*
X112712881Y-47645366D01*
X112735195Y-47712444D01*
X112737718Y-47783395D01*
X112701482Y-47844448D01*
X112656244Y-47871493D01*
X112565833Y-47902271D01*
X112524380Y-47927773D01*
X112417349Y-47993619D01*
X112417346Y-47993621D01*
X112411342Y-47997315D01*
X112406307Y-48002246D01*
X112406304Y-48002248D01*
X112304771Y-48101677D01*
X112281747Y-48124224D01*
X112183489Y-48276691D01*
X112181080Y-48283311D01*
X112181078Y-48283314D01*
X112151915Y-48363438D01*
X112121451Y-48447138D01*
X112098717Y-48627093D01*
X112116417Y-48807613D01*
X112173672Y-48979726D01*
X112177319Y-48985748D01*
X112177320Y-48985750D01*
X112188232Y-49003767D01*
X112267634Y-49134877D01*
X112393636Y-49265355D01*
X112545413Y-49364675D01*
X112552017Y-49367131D01*
X112552019Y-49367132D01*
X112708812Y-49425443D01*
X112708814Y-49425443D01*
X112715422Y-49427901D01*
X112799249Y-49439086D01*
X112888234Y-49450960D01*
X112888238Y-49450960D01*
X112895215Y-49451891D01*
X112902226Y-49451253D01*
X112902230Y-49451253D01*
X113044713Y-49438285D01*
X113075854Y-49435451D01*
X113082556Y-49433273D01*
X113082558Y-49433273D01*
X113241663Y-49381577D01*
X113241666Y-49381576D01*
X113248362Y-49379400D01*
X113404166Y-49286522D01*
X113535520Y-49161435D01*
X113635897Y-49010355D01*
X113686850Y-48876222D01*
X113697809Y-48847373D01*
X113697810Y-48847371D01*
X113700309Y-48840791D01*
X113701289Y-48833819D01*
X113725002Y-48665092D01*
X113725002Y-48665089D01*
X113725553Y-48661170D01*
X113725870Y-48638453D01*
X113705651Y-48458198D01*
X113701800Y-48447138D01*
X113687004Y-48404651D01*
X113677619Y-48377701D01*
X113674105Y-48306793D01*
X113709486Y-48245241D01*
X113757674Y-48216432D01*
X113829408Y-48193124D01*
X113836108Y-48190947D01*
X113948037Y-48124224D01*
X113985860Y-48101677D01*
X113985862Y-48101676D01*
X113991912Y-48098069D01*
X114123266Y-47972982D01*
X114223643Y-47821902D01*
X114288055Y-47652338D01*
X114289035Y-47645366D01*
X114312748Y-47476639D01*
X114312748Y-47476636D01*
X114313299Y-47472717D01*
X114313616Y-47450000D01*
X114304389Y-47367742D01*
X114316673Y-47297818D01*
X114364812Y-47245633D01*
X114433521Y-47227759D01*
X114500987Y-47249869D01*
X114518699Y-47264603D01*
X115796343Y-48542247D01*
X115803887Y-48550537D01*
X115808000Y-48557018D01*
X115813777Y-48562443D01*
X115857667Y-48603658D01*
X115860509Y-48606413D01*
X115880230Y-48626134D01*
X115883425Y-48628612D01*
X115892447Y-48636318D01*
X115924679Y-48666586D01*
X115931628Y-48670406D01*
X115942432Y-48676346D01*
X115958956Y-48687199D01*
X115974959Y-48699613D01*
X116015543Y-48717176D01*
X116026173Y-48722383D01*
X116064940Y-48743695D01*
X116072617Y-48745666D01*
X116072622Y-48745668D01*
X116084558Y-48748732D01*
X116103266Y-48755137D01*
X116121855Y-48763181D01*
X116129680Y-48764420D01*
X116129682Y-48764421D01*
X116146049Y-48767013D01*
X116195331Y-48786030D01*
X116279015Y-48840791D01*
X116333159Y-48876222D01*
X116339763Y-48878678D01*
X116339765Y-48878679D01*
X116496558Y-48936990D01*
X116496560Y-48936990D01*
X116503168Y-48939448D01*
X116582250Y-48950000D01*
X116675980Y-48962507D01*
X116675984Y-48962507D01*
X116682961Y-48963438D01*
X116689972Y-48962800D01*
X116689976Y-48962800D01*
X116832459Y-48949832D01*
X116863600Y-48946998D01*
X116870302Y-48944820D01*
X116870304Y-48944820D01*
X117029409Y-48893124D01*
X117029412Y-48893123D01*
X117036108Y-48890947D01*
X117132513Y-48833478D01*
X117185860Y-48801677D01*
X117185862Y-48801676D01*
X117191912Y-48798069D01*
X117323266Y-48672982D01*
X117328892Y-48664514D01*
X117330430Y-48663222D01*
X117331691Y-48661719D01*
X117331955Y-48661941D01*
X117383250Y-48618845D01*
X117453670Y-48609813D01*
X117517794Y-48640288D01*
X117555262Y-48700592D01*
X117557021Y-48758339D01*
X117556458Y-48760072D01*
X117536496Y-48950000D01*
X117537186Y-48956565D01*
X117543457Y-49016226D01*
X117556458Y-49139928D01*
X117615473Y-49321556D01*
X117710960Y-49486944D01*
X117838747Y-49628866D01*
X117993248Y-49741118D01*
X117999276Y-49743802D01*
X117999278Y-49743803D01*
X118161681Y-49816109D01*
X118167712Y-49818794D01*
X118261112Y-49838647D01*
X118348056Y-49857128D01*
X118348061Y-49857128D01*
X118354513Y-49858500D01*
X118545487Y-49858500D01*
X118551939Y-49857128D01*
X118551944Y-49857128D01*
X118638888Y-49838647D01*
X118732288Y-49818794D01*
X118738319Y-49816109D01*
X118900722Y-49743803D01*
X118900724Y-49743802D01*
X118906752Y-49741118D01*
X119061253Y-49628866D01*
X119189040Y-49486944D01*
X119284527Y-49321556D01*
X119343542Y-49139928D01*
X119356544Y-49016226D01*
X119362814Y-48956565D01*
X119363504Y-48950000D01*
X119345311Y-48776902D01*
X119344232Y-48766635D01*
X119344232Y-48766633D01*
X119343542Y-48760072D01*
X119284527Y-48578444D01*
X119263629Y-48542247D01*
X119224022Y-48473646D01*
X119207284Y-48404651D01*
X119230505Y-48337559D01*
X119286312Y-48293672D01*
X119356987Y-48286923D01*
X119377060Y-48292549D01*
X119401822Y-48301758D01*
X119496558Y-48336990D01*
X119496560Y-48336990D01*
X119503168Y-48339448D01*
X119586995Y-48350633D01*
X119675980Y-48362507D01*
X119675984Y-48362507D01*
X119682961Y-48363438D01*
X119689972Y-48362800D01*
X119689976Y-48362800D01*
X119832459Y-48349832D01*
X119863600Y-48346998D01*
X119870302Y-48344820D01*
X119870304Y-48344820D01*
X120029409Y-48293124D01*
X120029412Y-48293123D01*
X120036108Y-48290947D01*
X120191912Y-48198069D01*
X120323266Y-48072982D01*
X120423643Y-47921902D01*
X120473265Y-47791273D01*
X120485555Y-47758920D01*
X120485556Y-47758918D01*
X120488055Y-47752338D01*
X120513299Y-47572717D01*
X120513616Y-47550000D01*
X120493397Y-47369745D01*
X120491080Y-47363091D01*
X120436064Y-47205106D01*
X120436062Y-47205103D01*
X120433745Y-47198448D01*
X120337626Y-47044624D01*
X120332664Y-47039627D01*
X120214778Y-46920915D01*
X120214774Y-46920912D01*
X120209815Y-46915918D01*
X120198697Y-46908862D01*
X120150538Y-46878300D01*
X120056666Y-46818727D01*
X120027463Y-46808328D01*
X119892425Y-46760243D01*
X119892420Y-46760242D01*
X119885790Y-46757881D01*
X119878802Y-46757048D01*
X119878799Y-46757047D01*
X119739023Y-46740380D01*
X119705680Y-46736404D01*
X119698677Y-46737140D01*
X119698676Y-46737140D01*
X119532288Y-46754628D01*
X119532286Y-46754629D01*
X119525288Y-46755364D01*
X119353579Y-46813818D01*
X119217039Y-46897819D01*
X119151019Y-46916500D01*
X117414594Y-46916500D01*
X117346473Y-46896498D01*
X117325499Y-46879595D01*
X116849562Y-46403658D01*
X116334420Y-45888515D01*
X116300395Y-45826205D01*
X116298301Y-45813466D01*
X116294182Y-45776746D01*
X116293397Y-45769745D01*
X116249932Y-45644930D01*
X116246418Y-45574023D01*
X116282032Y-45512249D01*
X116318159Y-45477846D01*
X116318162Y-45477843D01*
X116323266Y-45472982D01*
X116423643Y-45321902D01*
X116488055Y-45152338D01*
X116489035Y-45145366D01*
X116512748Y-44976639D01*
X116512748Y-44976636D01*
X116513299Y-44972717D01*
X116513616Y-44950000D01*
X116493397Y-44769745D01*
X116483428Y-44741118D01*
X116436064Y-44605106D01*
X116436062Y-44605103D01*
X116433745Y-44598448D01*
X116337626Y-44444624D01*
X116305379Y-44412151D01*
X116214778Y-44320915D01*
X116214774Y-44320912D01*
X116209815Y-44315918D01*
X116056666Y-44218727D01*
X115885790Y-44157881D01*
X115878795Y-44157047D01*
X115878791Y-44157046D01*
X115864739Y-44155371D01*
X115799465Y-44127445D01*
X115790561Y-44119352D01*
X114621209Y-42950000D01*
X119286496Y-42950000D01*
X119287186Y-42956565D01*
X119304780Y-43123958D01*
X119306458Y-43139928D01*
X119365473Y-43321556D01*
X119460960Y-43486944D01*
X119465378Y-43491851D01*
X119465379Y-43491852D01*
X119582113Y-43621498D01*
X119588747Y-43628866D01*
X119660923Y-43681305D01*
X119735889Y-43735771D01*
X119743248Y-43741118D01*
X119749276Y-43743802D01*
X119749278Y-43743803D01*
X119911681Y-43816109D01*
X119917712Y-43818794D01*
X120011112Y-43838647D01*
X120098056Y-43857128D01*
X120098061Y-43857128D01*
X120104513Y-43858500D01*
X120295487Y-43858500D01*
X120301939Y-43857128D01*
X120301944Y-43857128D01*
X120388888Y-43838647D01*
X120482288Y-43818794D01*
X120488319Y-43816109D01*
X120650722Y-43743803D01*
X120650724Y-43743802D01*
X120656752Y-43741118D01*
X120664112Y-43735771D01*
X120739077Y-43681305D01*
X120811253Y-43628866D01*
X120817887Y-43621498D01*
X120934621Y-43491852D01*
X120934622Y-43491851D01*
X120939040Y-43486944D01*
X121034527Y-43321556D01*
X121093542Y-43139928D01*
X121095221Y-43123958D01*
X121112814Y-42956565D01*
X121113504Y-42950000D01*
X121100377Y-42825106D01*
X121094232Y-42766635D01*
X121094232Y-42766633D01*
X121093542Y-42760072D01*
X121034527Y-42578444D01*
X120939040Y-42413056D01*
X120906618Y-42377047D01*
X120815675Y-42276045D01*
X120815674Y-42276044D01*
X120811253Y-42271134D01*
X120656752Y-42158882D01*
X120650724Y-42156198D01*
X120650722Y-42156197D01*
X120488319Y-42083891D01*
X120488318Y-42083891D01*
X120482288Y-42081206D01*
X120388888Y-42061353D01*
X120301944Y-42042872D01*
X120301939Y-42042872D01*
X120295487Y-42041500D01*
X120104513Y-42041500D01*
X120098061Y-42042872D01*
X120098056Y-42042872D01*
X120011112Y-42061353D01*
X119917712Y-42081206D01*
X119911682Y-42083891D01*
X119911681Y-42083891D01*
X119749278Y-42156197D01*
X119749276Y-42156198D01*
X119743248Y-42158882D01*
X119588747Y-42271134D01*
X119584326Y-42276044D01*
X119584325Y-42276045D01*
X119493383Y-42377047D01*
X119460960Y-42413056D01*
X119365473Y-42578444D01*
X119306458Y-42760072D01*
X119305768Y-42766633D01*
X119305768Y-42766635D01*
X119299623Y-42825106D01*
X119286496Y-42950000D01*
X114621209Y-42950000D01*
X112928957Y-41257747D01*
X112921417Y-41249461D01*
X112917305Y-41242982D01*
X112867653Y-41196356D01*
X112864812Y-41193602D01*
X112845075Y-41173865D01*
X112841878Y-41171385D01*
X112832857Y-41163681D01*
X112821206Y-41152740D01*
X112805574Y-41138061D01*
X112769609Y-41076850D01*
X112772446Y-41005910D01*
X112786879Y-40976484D01*
X112819242Y-40927773D01*
X112823143Y-40921902D01*
X112877470Y-40778887D01*
X112885055Y-40758920D01*
X112885056Y-40758918D01*
X112887555Y-40752338D01*
X112895513Y-40695715D01*
X112912248Y-40576639D01*
X112912248Y-40576636D01*
X112912799Y-40572717D01*
X112912979Y-40559825D01*
X112913061Y-40553962D01*
X112913061Y-40553957D01*
X112913116Y-40550000D01*
X112892897Y-40369745D01*
X112875708Y-40320385D01*
X112872194Y-40249476D01*
X112907806Y-40187704D01*
X112923266Y-40172982D01*
X113023643Y-40021902D01*
X113070404Y-39898803D01*
X113085555Y-39858920D01*
X113085556Y-39858918D01*
X113088055Y-39852338D01*
X113093946Y-39810421D01*
X113112748Y-39676639D01*
X113112748Y-39676636D01*
X113113299Y-39672717D01*
X113113500Y-39658315D01*
X113113561Y-39653962D01*
X113113561Y-39653957D01*
X113113616Y-39650000D01*
X113093397Y-39469745D01*
X113084127Y-39443124D01*
X113036064Y-39305106D01*
X113036062Y-39305103D01*
X113033745Y-39298448D01*
X112984979Y-39220406D01*
X112941359Y-39150598D01*
X112937626Y-39144624D01*
X112878010Y-39084590D01*
X112865410Y-39071902D01*
X112858363Y-39064806D01*
X112824556Y-39002376D01*
X112829981Y-38931278D01*
X112832046Y-38925844D01*
X112872291Y-38819899D01*
X112885055Y-38786298D01*
X112885056Y-38786296D01*
X112887555Y-38779716D01*
X112894545Y-38729982D01*
X112912248Y-38604017D01*
X112912248Y-38604014D01*
X112912799Y-38600095D01*
X112913116Y-38577378D01*
X112892897Y-38397123D01*
X112890580Y-38390469D01*
X112835564Y-38232484D01*
X112835562Y-38232481D01*
X112833245Y-38225826D01*
X112821210Y-38206565D01*
X112740859Y-38077976D01*
X112737126Y-38072002D01*
X112732164Y-38067005D01*
X112614278Y-37948293D01*
X112614274Y-37948290D01*
X112609315Y-37943296D01*
X112493293Y-37869666D01*
X112446498Y-37816281D01*
X112435992Y-37746066D01*
X112465115Y-37681317D01*
X112471715Y-37674189D01*
X112660177Y-37485727D01*
X112722489Y-37451701D01*
X112737837Y-37449343D01*
X112763600Y-37446998D01*
X112770302Y-37444820D01*
X112770304Y-37444820D01*
X112929409Y-37393124D01*
X112929412Y-37393123D01*
X112936108Y-37390947D01*
X113091912Y-37298069D01*
X113223266Y-37172982D01*
X113323643Y-37021902D01*
X113388055Y-36852338D01*
X113413299Y-36672717D01*
X113413616Y-36650000D01*
X113393397Y-36469745D01*
X113357656Y-36367111D01*
X113336064Y-36305106D01*
X113336062Y-36305103D01*
X113333745Y-36298448D01*
X113244499Y-36155623D01*
X113225364Y-36087258D01*
X113246229Y-36019396D01*
X113262259Y-35999762D01*
X113816616Y-35445405D01*
X113878928Y-35411379D01*
X113905711Y-35408500D01*
X115417944Y-35408500D01*
X115429800Y-35409059D01*
X115429803Y-35409059D01*
X115437537Y-35410788D01*
X115508369Y-35408562D01*
X115512327Y-35408500D01*
X115541432Y-35408500D01*
X115545832Y-35407944D01*
X115557664Y-35407012D01*
X115603831Y-35405562D01*
X115624421Y-35399580D01*
X115643782Y-35395570D01*
X115650770Y-35394688D01*
X115657204Y-35393875D01*
X115657205Y-35393875D01*
X115665064Y-35392882D01*
X115672429Y-35389966D01*
X115672433Y-35389965D01*
X115708021Y-35375874D01*
X115719231Y-35372035D01*
X115763600Y-35359145D01*
X115782065Y-35348225D01*
X115799805Y-35339534D01*
X115819756Y-35331635D01*
X115857129Y-35304482D01*
X115867048Y-35297967D01*
X115899977Y-35278493D01*
X115899981Y-35278490D01*
X115906807Y-35274453D01*
X115921971Y-35259289D01*
X115937005Y-35246448D01*
X115947943Y-35238501D01*
X115954357Y-35233841D01*
X115983803Y-35198247D01*
X115991792Y-35189468D01*
X116100962Y-35080298D01*
X116162640Y-35047085D01*
X116163600Y-35046998D01*
X116252463Y-35018125D01*
X116329409Y-34993124D01*
X116329412Y-34993123D01*
X116336108Y-34990947D01*
X116491912Y-34898069D01*
X116495617Y-34894541D01*
X116561257Y-34869560D01*
X116630730Y-34884189D01*
X116660177Y-34906081D01*
X117702878Y-35948782D01*
X117736904Y-36011094D01*
X117739092Y-36024703D01*
X117756458Y-36189928D01*
X117815473Y-36371556D01*
X117818776Y-36377278D01*
X117818777Y-36377279D01*
X117852686Y-36436010D01*
X117910960Y-36536944D01*
X117915378Y-36541851D01*
X117915379Y-36541852D01*
X118029645Y-36668757D01*
X118038747Y-36678866D01*
X118193248Y-36791118D01*
X118199276Y-36793802D01*
X118199278Y-36793803D01*
X118361681Y-36866109D01*
X118367712Y-36868794D01*
X118502134Y-36897366D01*
X118516349Y-36900388D01*
X118578822Y-36934117D01*
X118613144Y-36996266D01*
X118615593Y-37011781D01*
X118616675Y-37023231D01*
X118617234Y-37035085D01*
X118617234Y-38029617D01*
X118616707Y-38040800D01*
X118615032Y-38048293D01*
X118615281Y-38056219D01*
X118615281Y-38056220D01*
X118617172Y-38116370D01*
X118617234Y-38120329D01*
X118617234Y-38148240D01*
X118617731Y-38152174D01*
X118617731Y-38152175D01*
X118617739Y-38152240D01*
X118618672Y-38164077D01*
X118620061Y-38208273D01*
X118623424Y-38219847D01*
X118625712Y-38227723D01*
X118629721Y-38247084D01*
X118632260Y-38267181D01*
X118635179Y-38274552D01*
X118635179Y-38274554D01*
X118648538Y-38308296D01*
X118652383Y-38319526D01*
X118662505Y-38354367D01*
X118664716Y-38361977D01*
X118668749Y-38368796D01*
X118668751Y-38368801D01*
X118675027Y-38379412D01*
X118683722Y-38397160D01*
X118691182Y-38416001D01*
X118695844Y-38422417D01*
X118695844Y-38422418D01*
X118717170Y-38451771D01*
X118723686Y-38461691D01*
X118738349Y-38486484D01*
X118746192Y-38499746D01*
X118760513Y-38514067D01*
X118773353Y-38529100D01*
X118785262Y-38545491D01*
X118791368Y-38550542D01*
X118819339Y-38573682D01*
X118828118Y-38581672D01*
X119338693Y-39092247D01*
X119346237Y-39100537D01*
X119350350Y-39107018D01*
X119356127Y-39112443D01*
X119400017Y-39153658D01*
X119402859Y-39156413D01*
X119422580Y-39176134D01*
X119425775Y-39178612D01*
X119434797Y-39186318D01*
X119467029Y-39216586D01*
X119473978Y-39220406D01*
X119484782Y-39226346D01*
X119501306Y-39237199D01*
X119517309Y-39249613D01*
X119557893Y-39267176D01*
X119568523Y-39272383D01*
X119607290Y-39293695D01*
X119614967Y-39295666D01*
X119614972Y-39295668D01*
X119626908Y-39298732D01*
X119645617Y-39305137D01*
X119651572Y-39307714D01*
X119679205Y-39324648D01*
X119681382Y-39326902D01*
X119687281Y-39330762D01*
X119687282Y-39330763D01*
X119763686Y-39380760D01*
X119833159Y-39426222D01*
X119839763Y-39428678D01*
X119839765Y-39428679D01*
X119996558Y-39486990D01*
X119996560Y-39486990D01*
X120003168Y-39489448D01*
X120086995Y-39500633D01*
X120175980Y-39512507D01*
X120175984Y-39512507D01*
X120182961Y-39513438D01*
X120189972Y-39512800D01*
X120189976Y-39512800D01*
X120332459Y-39499832D01*
X120363600Y-39496998D01*
X120370302Y-39494820D01*
X120370304Y-39494820D01*
X120529409Y-39443124D01*
X120529412Y-39443123D01*
X120536108Y-39440947D01*
X120691912Y-39348069D01*
X120823266Y-39222982D01*
X120923643Y-39071902D01*
X120981665Y-38919160D01*
X120985555Y-38908920D01*
X120985556Y-38908918D01*
X120988055Y-38902338D01*
X120992359Y-38871716D01*
X121012748Y-38726639D01*
X121012748Y-38726636D01*
X121013299Y-38722717D01*
X121013616Y-38700000D01*
X120993397Y-38519745D01*
X120980141Y-38481679D01*
X120936064Y-38355106D01*
X120936062Y-38355103D01*
X120933745Y-38348448D01*
X120912104Y-38313815D01*
X120878526Y-38260078D01*
X120859390Y-38191709D01*
X120880256Y-38123848D01*
X120896285Y-38104214D01*
X122476405Y-36524094D01*
X122538717Y-36490068D01*
X122609532Y-36495133D01*
X122666368Y-36537680D01*
X122691179Y-36604200D01*
X122691500Y-36613189D01*
X122691500Y-63963162D01*
X122671498Y-64031283D01*
X122617842Y-64077776D01*
X122565653Y-64089162D01*
X106704176Y-64108459D01*
X102814338Y-64113191D01*
X102746193Y-64093272D01*
X102730823Y-64081673D01*
X102712403Y-64065421D01*
X102709047Y-64062460D01*
X102707425Y-64061396D01*
X102706075Y-64060299D01*
X102684208Y-64041402D01*
X102677415Y-64035531D01*
X102660125Y-64027639D01*
X102655271Y-64025423D01*
X102638467Y-64016146D01*
X102632310Y-64012106D01*
X102618106Y-64002785D01*
X102588546Y-63993763D01*
X102573017Y-63987879D01*
X102544909Y-63975049D01*
X102536026Y-63973764D01*
X102536024Y-63973763D01*
X102520812Y-63971562D01*
X102502079Y-63967374D01*
X102487377Y-63962887D01*
X102487376Y-63962887D01*
X102478792Y-63960267D01*
X102447900Y-63959905D01*
X102431341Y-63958616D01*
X102400753Y-63954189D01*
X102391869Y-63955448D01*
X102391861Y-63955448D01*
X102376643Y-63957605D01*
X102357484Y-63958843D01*
X102333145Y-63958557D01*
X102318339Y-63962699D01*
X102299549Y-63967954D01*
X102294253Y-63969281D01*
X102289941Y-63969892D01*
X102285285Y-63971308D01*
X102285276Y-63971310D01*
X102260556Y-63978828D01*
X102257851Y-63979618D01*
X102192871Y-63997794D01*
X102192809Y-63997574D01*
X102168138Y-64004437D01*
X102161149Y-64005334D01*
X102161141Y-64005336D01*
X102152238Y-64006479D01*
X102117825Y-64021524D01*
X102112508Y-64023705D01*
X102110623Y-64024428D01*
X102106323Y-64025736D01*
X102102260Y-64027636D01*
X102102253Y-64027639D01*
X102081018Y-64037571D01*
X102078127Y-64038879D01*
X102018777Y-64064826D01*
X102013743Y-64069037D01*
X102007795Y-64071819D01*
X102001055Y-64077754D01*
X102001052Y-64077756D01*
X101995266Y-64082851D01*
X101930923Y-64112859D01*
X101912157Y-64114288D01*
X82334651Y-64138105D01*
X82266508Y-64118187D01*
X82219950Y-64064588D01*
X82208500Y-64012106D01*
X82208500Y-52738640D01*
X112286463Y-52738640D01*
X112304163Y-52919160D01*
X112361418Y-53091273D01*
X112365065Y-53097295D01*
X112365066Y-53097297D01*
X112375978Y-53115314D01*
X112455380Y-53246424D01*
X112581382Y-53376902D01*
X112733159Y-53476222D01*
X112739763Y-53478678D01*
X112739765Y-53478679D01*
X112896558Y-53536990D01*
X112896560Y-53536990D01*
X112903168Y-53539448D01*
X112986995Y-53550633D01*
X113075980Y-53562507D01*
X113075984Y-53562507D01*
X113082961Y-53563438D01*
X113089972Y-53562800D01*
X113089976Y-53562800D01*
X113232459Y-53549832D01*
X113263600Y-53546998D01*
X113270302Y-53544820D01*
X113270304Y-53544820D01*
X113429409Y-53493124D01*
X113429412Y-53493123D01*
X113436108Y-53490947D01*
X113591912Y-53398069D01*
X113723266Y-53272982D01*
X113823643Y-53121902D01*
X113888055Y-52952338D01*
X113889035Y-52945366D01*
X113912748Y-52776639D01*
X113912748Y-52776636D01*
X113913299Y-52772717D01*
X113913616Y-52750000D01*
X113893397Y-52569745D01*
X113891080Y-52563091D01*
X113836064Y-52405106D01*
X113836062Y-52405103D01*
X113833745Y-52398448D01*
X113737626Y-52244624D01*
X113723941Y-52230843D01*
X113614778Y-52120915D01*
X113614774Y-52120912D01*
X113609815Y-52115918D01*
X113598697Y-52108862D01*
X113550538Y-52078300D01*
X113456666Y-52018727D01*
X113427463Y-52008328D01*
X113292425Y-51960243D01*
X113292420Y-51960242D01*
X113285790Y-51957881D01*
X113278802Y-51957048D01*
X113278799Y-51957047D01*
X113155698Y-51942368D01*
X113105680Y-51936404D01*
X113098677Y-51937140D01*
X113098676Y-51937140D01*
X112932288Y-51954628D01*
X112932286Y-51954629D01*
X112925288Y-51955364D01*
X112753579Y-52013818D01*
X112747575Y-52017512D01*
X112605095Y-52105166D01*
X112605092Y-52105168D01*
X112599088Y-52108862D01*
X112594053Y-52113793D01*
X112594050Y-52113795D01*
X112474525Y-52230843D01*
X112469493Y-52235771D01*
X112371235Y-52388238D01*
X112368826Y-52394858D01*
X112368824Y-52394861D01*
X112311606Y-52552066D01*
X112309197Y-52558685D01*
X112286463Y-52738640D01*
X82208500Y-52738640D01*
X82208500Y-41971361D01*
X103634466Y-41971361D01*
X103649686Y-42126584D01*
X103652597Y-42140279D01*
X103701828Y-42288273D01*
X103704227Y-42293465D01*
X103712219Y-42300772D01*
X103720836Y-42297111D01*
X104030139Y-41987807D01*
X104036516Y-41976129D01*
X104755248Y-41976129D01*
X104755380Y-41977965D01*
X104759629Y-41984577D01*
X105068677Y-42293626D01*
X105081056Y-42300385D01*
X105085063Y-42297385D01*
X105088774Y-42290638D01*
X105139128Y-42240588D01*
X105208547Y-42225706D01*
X105274992Y-42250717D01*
X105304589Y-42287393D01*
X105319221Y-42300772D01*
X105327838Y-42297111D01*
X105637141Y-41987807D01*
X105643518Y-41976129D01*
X106362250Y-41976129D01*
X106362382Y-41977965D01*
X106366631Y-41984577D01*
X106675679Y-42293626D01*
X106688058Y-42300385D01*
X106691874Y-42297528D01*
X106739829Y-42171284D01*
X106743311Y-42157723D01*
X106765448Y-42000219D01*
X106766054Y-41992336D01*
X106766241Y-41978961D01*
X106765854Y-41971061D01*
X106748125Y-41813002D01*
X106745023Y-41799349D01*
X106694200Y-41653406D01*
X106688641Y-41648465D01*
X106679591Y-41652460D01*
X106369861Y-41962191D01*
X106362250Y-41976129D01*
X105643518Y-41976129D01*
X105644752Y-41973869D01*
X105644620Y-41972033D01*
X105640371Y-41965421D01*
X105330540Y-41655589D01*
X105318161Y-41648830D01*
X105314522Y-41651554D01*
X105311226Y-41657648D01*
X105261223Y-41708049D01*
X105191909Y-41723415D01*
X105125291Y-41698867D01*
X105089490Y-41655444D01*
X105081639Y-41648465D01*
X105072589Y-41652460D01*
X104762859Y-41962191D01*
X104755248Y-41976129D01*
X104036516Y-41976129D01*
X104037750Y-41973869D01*
X104037618Y-41972033D01*
X104033369Y-41965421D01*
X103723538Y-41655589D01*
X103711159Y-41648830D01*
X103707538Y-41651541D01*
X103657501Y-41789015D01*
X103654209Y-41802624D01*
X103634662Y-41957355D01*
X103634466Y-41971361D01*
X82208500Y-41971361D01*
X82208500Y-17584500D01*
X82228502Y-17516379D01*
X82282158Y-17469886D01*
X82334500Y-17458500D01*
X92314629Y-17458500D01*
X92382750Y-17478502D01*
G37*
G04 #@! TD.AperFunction*
G04 #@! TA.AperFunction,Conductor*
G36*
X99024773Y-37803502D02*
G01*
X99071266Y-37857158D01*
X99081370Y-37927432D01*
X99076486Y-37948433D01*
X99056458Y-38010072D01*
X99055768Y-38016633D01*
X99055768Y-38016635D01*
X99045286Y-38116370D01*
X99036496Y-38200000D01*
X99054238Y-38368801D01*
X99055134Y-38377330D01*
X99042362Y-38447168D01*
X98993860Y-38499015D01*
X98929824Y-38516500D01*
X98509999Y-38516500D01*
X98441878Y-38496498D01*
X98420904Y-38479595D01*
X97939904Y-37998595D01*
X97905878Y-37936283D01*
X97910943Y-37865468D01*
X97953490Y-37808632D01*
X98020010Y-37783821D01*
X98028999Y-37783500D01*
X98956652Y-37783500D01*
X99024773Y-37803502D01*
G37*
G04 #@! TD.AperFunction*
G04 #@! TA.AperFunction,Conductor*
G36*
X96388832Y-34034730D02*
G01*
X96400513Y-34048209D01*
X96486739Y-34163261D01*
X96603295Y-34250615D01*
X96739684Y-34301745D01*
X96801866Y-34308500D01*
X96810406Y-34308500D01*
X96878527Y-34328502D01*
X96899501Y-34345405D01*
X97613285Y-35059189D01*
X97620829Y-35067479D01*
X97624942Y-35073960D01*
X97630719Y-35079385D01*
X97634377Y-35082820D01*
X97670342Y-35144032D01*
X97667505Y-35214972D01*
X97626764Y-35273116D01*
X97574321Y-35297916D01*
X97424178Y-35329831D01*
X97424173Y-35329833D01*
X97417712Y-35331206D01*
X97411682Y-35333891D01*
X97411681Y-35333891D01*
X97249278Y-35406197D01*
X97249276Y-35406198D01*
X97243248Y-35408882D01*
X97237907Y-35412762D01*
X97237906Y-35412763D01*
X97222309Y-35424095D01*
X97088747Y-35521134D01*
X97084240Y-35526140D01*
X97084177Y-35526179D01*
X97079423Y-35530459D01*
X97078640Y-35529589D01*
X97023792Y-35563374D01*
X96952808Y-35562017D01*
X96901516Y-35530916D01*
X95861591Y-34490991D01*
X95827565Y-34428679D01*
X95832630Y-34357864D01*
X95875177Y-34301028D01*
X95906456Y-34283914D01*
X95988054Y-34253324D01*
X96003649Y-34244786D01*
X96105724Y-34168285D01*
X96118285Y-34155724D01*
X96198861Y-34048211D01*
X96255720Y-34005696D01*
X96326538Y-34000670D01*
X96388832Y-34034730D01*
G37*
G04 #@! TD.AperFunction*
G04 #@! TA.AperFunction,Conductor*
G36*
X119978831Y-33103502D02*
G01*
X119999806Y-33120405D01*
X120488838Y-33609438D01*
X120522863Y-33671750D01*
X120517798Y-33742566D01*
X120491593Y-33784784D01*
X120458489Y-33820037D01*
X120446356Y-33832957D01*
X120443601Y-33835799D01*
X120423865Y-33855535D01*
X120421385Y-33858732D01*
X120413682Y-33867752D01*
X120383414Y-33899984D01*
X120379595Y-33906930D01*
X120379593Y-33906933D01*
X120373652Y-33917739D01*
X120362801Y-33934258D01*
X120350386Y-33950264D01*
X120347241Y-33957533D01*
X120347238Y-33957537D01*
X120332826Y-33990842D01*
X120327609Y-34001492D01*
X120306305Y-34040245D01*
X120304334Y-34047920D01*
X120304334Y-34047921D01*
X120301267Y-34059867D01*
X120294863Y-34078571D01*
X120286819Y-34097160D01*
X120285580Y-34104983D01*
X120285577Y-34104993D01*
X120279901Y-34140829D01*
X120277495Y-34152449D01*
X120273338Y-34168642D01*
X120266500Y-34195275D01*
X120266500Y-34215529D01*
X120264949Y-34235239D01*
X120261780Y-34255248D01*
X120262526Y-34263140D01*
X120265941Y-34299266D01*
X120266500Y-34311124D01*
X120266500Y-34622833D01*
X120246498Y-34690954D01*
X120192842Y-34737447D01*
X120122568Y-34747551D01*
X120057988Y-34718057D01*
X120041753Y-34701096D01*
X120041361Y-34700602D01*
X120037626Y-34694624D01*
X120030393Y-34687340D01*
X119914778Y-34570915D01*
X119914774Y-34570912D01*
X119909815Y-34565918D01*
X119864946Y-34537443D01*
X119840263Y-34521779D01*
X119756666Y-34468727D01*
X119710640Y-34452338D01*
X119592425Y-34410243D01*
X119592420Y-34410242D01*
X119585790Y-34407881D01*
X119578802Y-34407048D01*
X119578799Y-34407047D01*
X119536008Y-34401945D01*
X119470734Y-34374018D01*
X119461831Y-34365926D01*
X118394500Y-33298595D01*
X118360474Y-33236283D01*
X118365539Y-33165468D01*
X118408086Y-33108632D01*
X118474606Y-33083821D01*
X118483595Y-33083500D01*
X119910710Y-33083500D01*
X119978831Y-33103502D01*
G37*
G04 #@! TD.AperFunction*
G04 #@! TA.AperFunction,Conductor*
G36*
X109231264Y-17478502D02*
G01*
X109277757Y-17532158D01*
X109287861Y-17602432D01*
X109265138Y-17658416D01*
X109260960Y-17663056D01*
X109257659Y-17668774D01*
X109257658Y-17668775D01*
X109171957Y-17817214D01*
X109165473Y-17828444D01*
X109106458Y-18010072D01*
X109105768Y-18016633D01*
X109105768Y-18016635D01*
X109093635Y-18132076D01*
X109086496Y-18200000D01*
X109087186Y-18206565D01*
X109105542Y-18381209D01*
X109106458Y-18389928D01*
X109165473Y-18571556D01*
X109260960Y-18736944D01*
X109265378Y-18741851D01*
X109265379Y-18741852D01*
X109319640Y-18802115D01*
X109388747Y-18878866D01*
X109543248Y-18991118D01*
X109549276Y-18993802D01*
X109549278Y-18993803D01*
X109711681Y-19066109D01*
X109717712Y-19068794D01*
X109811113Y-19088647D01*
X109898056Y-19107128D01*
X109898061Y-19107128D01*
X109904513Y-19108500D01*
X110095487Y-19108500D01*
X110101939Y-19107128D01*
X110101944Y-19107128D01*
X110188887Y-19088647D01*
X110282288Y-19068794D01*
X110288319Y-19066109D01*
X110450722Y-18993803D01*
X110450724Y-18993802D01*
X110456752Y-18991118D01*
X110491169Y-18966113D01*
X110605107Y-18883331D01*
X110611253Y-18878866D01*
X110615668Y-18873963D01*
X110620580Y-18869540D01*
X110621705Y-18870789D01*
X110675014Y-18837949D01*
X110708200Y-18833500D01*
X112415500Y-18833500D01*
X112483621Y-18853502D01*
X112530114Y-18907158D01*
X112541500Y-18959500D01*
X112541500Y-32596233D01*
X112540973Y-32607416D01*
X112539298Y-32614909D01*
X112539547Y-32622835D01*
X112539547Y-32622836D01*
X112541438Y-32682986D01*
X112541500Y-32686945D01*
X112541500Y-32714856D01*
X112541997Y-32718790D01*
X112541997Y-32718791D01*
X112542005Y-32718856D01*
X112542938Y-32730693D01*
X112544327Y-32774889D01*
X112549978Y-32794339D01*
X112553987Y-32813700D01*
X112556526Y-32833797D01*
X112559445Y-32841168D01*
X112559445Y-32841170D01*
X112572804Y-32874912D01*
X112576649Y-32886142D01*
X112585448Y-32916428D01*
X112588982Y-32928593D01*
X112593015Y-32935412D01*
X112593017Y-32935417D01*
X112599293Y-32946028D01*
X112607988Y-32963776D01*
X112615448Y-32982617D01*
X112620110Y-32989033D01*
X112620110Y-32989034D01*
X112641436Y-33018387D01*
X112647952Y-33028307D01*
X112649156Y-33030342D01*
X112670458Y-33066362D01*
X112684779Y-33080683D01*
X112697619Y-33095716D01*
X112709528Y-33112107D01*
X112723571Y-33123724D01*
X112743605Y-33140298D01*
X112752384Y-33148288D01*
X112770840Y-33166744D01*
X112804866Y-33229056D01*
X112799801Y-33299871D01*
X112775383Y-33340146D01*
X112698661Y-33425355D01*
X112603174Y-33590743D01*
X112554776Y-33739696D01*
X112514702Y-33798301D01*
X112475547Y-33820037D01*
X112428519Y-33836046D01*
X112428516Y-33836047D01*
X112421846Y-33838318D01*
X112373999Y-33867754D01*
X112273362Y-33929666D01*
X112273359Y-33929668D01*
X112267355Y-33933362D01*
X112262320Y-33938293D01*
X112262317Y-33938295D01*
X112158210Y-34040245D01*
X112137760Y-34060271D01*
X112054223Y-34189896D01*
X112000510Y-34236319D01*
X111930223Y-34246334D01*
X111880800Y-34228025D01*
X111869539Y-34220879D01*
X111840197Y-34202258D01*
X111780888Y-34181139D01*
X111675956Y-34143774D01*
X111675951Y-34143773D01*
X111669321Y-34141412D01*
X111662333Y-34140579D01*
X111662330Y-34140578D01*
X111619539Y-34135476D01*
X111554265Y-34107549D01*
X111545362Y-34099457D01*
X111128652Y-33682747D01*
X111121112Y-33674461D01*
X111117000Y-33667982D01*
X111067348Y-33621356D01*
X111064507Y-33618602D01*
X111044770Y-33598865D01*
X111041573Y-33596385D01*
X111032551Y-33588680D01*
X111000321Y-33558414D01*
X110993375Y-33554595D01*
X110993372Y-33554593D01*
X110982566Y-33548652D01*
X110966047Y-33537801D01*
X110965583Y-33537441D01*
X110950041Y-33525386D01*
X110942772Y-33522241D01*
X110942768Y-33522238D01*
X110909463Y-33507826D01*
X110898813Y-33502609D01*
X110860060Y-33481305D01*
X110840437Y-33476267D01*
X110821734Y-33469863D01*
X110810420Y-33464967D01*
X110810419Y-33464967D01*
X110803145Y-33461819D01*
X110795322Y-33460580D01*
X110795312Y-33460577D01*
X110759476Y-33454901D01*
X110747859Y-33452496D01*
X110742148Y-33451030D01*
X110729869Y-33447877D01*
X110668862Y-33411566D01*
X110637171Y-33348035D01*
X110644858Y-33277455D01*
X110689483Y-33222236D01*
X110749779Y-33200354D01*
X110807076Y-33195139D01*
X110814097Y-33194500D01*
X110820799Y-33192322D01*
X110820801Y-33192322D01*
X110979906Y-33140626D01*
X110979909Y-33140625D01*
X110986605Y-33138449D01*
X110992653Y-33134844D01*
X110999074Y-33131931D01*
X111000349Y-33134742D01*
X111055904Y-33120483D01*
X111095491Y-33128310D01*
X111253168Y-33186950D01*
X111336995Y-33198135D01*
X111425980Y-33210009D01*
X111425984Y-33210009D01*
X111432961Y-33210940D01*
X111439972Y-33210302D01*
X111439976Y-33210302D01*
X111582459Y-33197334D01*
X111613600Y-33194500D01*
X111620302Y-33192322D01*
X111620304Y-33192322D01*
X111779409Y-33140626D01*
X111779412Y-33140625D01*
X111786108Y-33138449D01*
X111916612Y-33060653D01*
X111935860Y-33049179D01*
X111935862Y-33049178D01*
X111941912Y-33045571D01*
X112073266Y-32920484D01*
X112173643Y-32769404D01*
X112223871Y-32637179D01*
X112235555Y-32606422D01*
X112235556Y-32606420D01*
X112238055Y-32599840D01*
X112240649Y-32581381D01*
X112262748Y-32424141D01*
X112262748Y-32424138D01*
X112263299Y-32420219D01*
X112263616Y-32397502D01*
X112243397Y-32217247D01*
X112239955Y-32207362D01*
X112186064Y-32052608D01*
X112186062Y-32052605D01*
X112183745Y-32045950D01*
X112162396Y-32011784D01*
X112091359Y-31898100D01*
X112087626Y-31892126D01*
X112078612Y-31883049D01*
X111964778Y-31768417D01*
X111964774Y-31768414D01*
X111959815Y-31763420D01*
X111951171Y-31757934D01*
X111875821Y-31710116D01*
X111806666Y-31666229D01*
X111770343Y-31653295D01*
X111642425Y-31607745D01*
X111642420Y-31607744D01*
X111635790Y-31605383D01*
X111628802Y-31604550D01*
X111628799Y-31604549D01*
X111505698Y-31589870D01*
X111455680Y-31583906D01*
X111448677Y-31584642D01*
X111448676Y-31584642D01*
X111432941Y-31586296D01*
X111374078Y-31592483D01*
X111304242Y-31579711D01*
X111252395Y-31531210D01*
X111235000Y-31462377D01*
X111235974Y-31451440D01*
X111236086Y-31449983D01*
X111236638Y-31446056D01*
X111236955Y-31423339D01*
X111216736Y-31243084D01*
X111213442Y-31233624D01*
X111159403Y-31078445D01*
X111159401Y-31078442D01*
X111157084Y-31071787D01*
X111146056Y-31054139D01*
X111064698Y-30923937D01*
X111060965Y-30917963D01*
X111056003Y-30912966D01*
X110938117Y-30794254D01*
X110938113Y-30794251D01*
X110933154Y-30789257D01*
X110926420Y-30784983D01*
X110840818Y-30730659D01*
X110780005Y-30692066D01*
X110750802Y-30681667D01*
X110615764Y-30633582D01*
X110615759Y-30633581D01*
X110609129Y-30631220D01*
X110602141Y-30630387D01*
X110602138Y-30630386D01*
X110479037Y-30615707D01*
X110429019Y-30609743D01*
X110422016Y-30610479D01*
X110422015Y-30610479D01*
X110255627Y-30627967D01*
X110255625Y-30627968D01*
X110248627Y-30628703D01*
X110076918Y-30687157D01*
X110019978Y-30722187D01*
X109928434Y-30778505D01*
X109928431Y-30778507D01*
X109922427Y-30782201D01*
X109917392Y-30787132D01*
X109917389Y-30787134D01*
X109827658Y-30875006D01*
X109764993Y-30908377D01*
X109694234Y-30902571D01*
X109637847Y-30859432D01*
X109613734Y-30792655D01*
X109613500Y-30784983D01*
X109613500Y-27935056D01*
X109613050Y-27913572D01*
X109594808Y-27815903D01*
X109587042Y-27774322D01*
X109587042Y-27774321D01*
X109586216Y-27769900D01*
X109576078Y-27740054D01*
X109546182Y-27669722D01*
X109470281Y-27563228D01*
X109466586Y-27558043D01*
X109466585Y-27558042D01*
X109461353Y-27550701D01*
X109346428Y-27460400D01*
X109342526Y-27458150D01*
X109342518Y-27458144D01*
X109337733Y-27455384D01*
X109336733Y-27454791D01*
X109329912Y-27449157D01*
X109321633Y-27445610D01*
X109321628Y-27445607D01*
X109267163Y-27422274D01*
X109251988Y-27413869D01*
X109252796Y-27411917D01*
X109240280Y-27406733D01*
X109238323Y-27405374D01*
X109193775Y-27350093D01*
X109186185Y-27279503D01*
X109189608Y-27265299D01*
X109203976Y-27217935D01*
X109207706Y-27199184D01*
X109214631Y-27044105D01*
X109178485Y-26902488D01*
X109164133Y-26867840D01*
X109111524Y-26771495D01*
X109011931Y-26664522D01*
X109004186Y-26659927D01*
X109004184Y-26659925D01*
X108890110Y-26592241D01*
X108886234Y-26589941D01*
X108851586Y-26575589D01*
X108850008Y-26575032D01*
X108850002Y-26575030D01*
X108805575Y-26559357D01*
X108805574Y-26559357D01*
X108799744Y-26557300D01*
X108781772Y-26554716D01*
X108659522Y-26537139D01*
X108659515Y-26537138D01*
X108655074Y-26536500D01*
X106149000Y-26536500D01*
X106118469Y-26538137D01*
X106100292Y-26539111D01*
X106100289Y-26539111D01*
X106094105Y-26539443D01*
X105952488Y-26575589D01*
X105917840Y-26589941D01*
X105821495Y-26642550D01*
X105815727Y-26647920D01*
X105815723Y-26647923D01*
X105734746Y-26723313D01*
X105671259Y-26755091D01*
X105600669Y-26747501D01*
X105556669Y-26716951D01*
X105513993Y-26671113D01*
X105507857Y-26664522D01*
X105500112Y-26659927D01*
X105500110Y-26659925D01*
X105386036Y-26592241D01*
X105382160Y-26589941D01*
X105347512Y-26575589D01*
X105345934Y-26575032D01*
X105345928Y-26575030D01*
X105301501Y-26559357D01*
X105301500Y-26559357D01*
X105295670Y-26557300D01*
X105277698Y-26554716D01*
X105155448Y-26537139D01*
X105155441Y-26537138D01*
X105151000Y-26536500D01*
X101849000Y-26536500D01*
X101818469Y-26538137D01*
X101800292Y-26539111D01*
X101800289Y-26539111D01*
X101794105Y-26539443D01*
X101652488Y-26575589D01*
X101617840Y-26589941D01*
X101521495Y-26642550D01*
X101414522Y-26742143D01*
X101409927Y-26749888D01*
X101409925Y-26749890D01*
X101379449Y-26801254D01*
X101339941Y-26867840D01*
X101325589Y-26902488D01*
X101307300Y-26954330D01*
X101306420Y-26960451D01*
X101287139Y-27094552D01*
X101287138Y-27094559D01*
X101286500Y-27099000D01*
X101286500Y-30715500D01*
X101266498Y-30783621D01*
X101212842Y-30830114D01*
X101160500Y-30841500D01*
X101104513Y-30841500D01*
X101098061Y-30842872D01*
X101098056Y-30842872D01*
X101032645Y-30856776D01*
X100917712Y-30881206D01*
X100911682Y-30883891D01*
X100911681Y-30883891D01*
X100749278Y-30956197D01*
X100749276Y-30956198D01*
X100743248Y-30958882D01*
X100737907Y-30962762D01*
X100737906Y-30962763D01*
X100734747Y-30965058D01*
X100588747Y-31071134D01*
X100528135Y-31138451D01*
X100467690Y-31175689D01*
X100396706Y-31174337D01*
X100337722Y-31134823D01*
X100309464Y-31069693D01*
X100308500Y-31054139D01*
X100308500Y-29151866D01*
X100301745Y-29089684D01*
X100250615Y-28953295D01*
X100163261Y-28836739D01*
X100085170Y-28778213D01*
X100042656Y-28721353D01*
X100034798Y-28681347D01*
X100033562Y-28642035D01*
X100033500Y-28638075D01*
X100033500Y-28610144D01*
X100032994Y-28606138D01*
X100032061Y-28594292D01*
X100031946Y-28590612D01*
X100030673Y-28550110D01*
X100025022Y-28530658D01*
X100021014Y-28511306D01*
X100019468Y-28499068D01*
X100019467Y-28499066D01*
X100018474Y-28491203D01*
X100002194Y-28450086D01*
X99998359Y-28438885D01*
X99986018Y-28396406D01*
X99981985Y-28389587D01*
X99981983Y-28389582D01*
X99975707Y-28378971D01*
X99967010Y-28361221D01*
X99959552Y-28342383D01*
X99950380Y-28329758D01*
X99933572Y-28306625D01*
X99927053Y-28296701D01*
X99908578Y-28265460D01*
X99908574Y-28265455D01*
X99904542Y-28258637D01*
X99890218Y-28244313D01*
X99877376Y-28229278D01*
X99871449Y-28221120D01*
X99865472Y-28212893D01*
X99831406Y-28184711D01*
X99822627Y-28176722D01*
X99537905Y-27892000D01*
X99503879Y-27829688D01*
X99501000Y-27802905D01*
X99500999Y-27513749D01*
X99500999Y-27510866D01*
X99500476Y-27505166D01*
X99496618Y-27463183D01*
X99494253Y-27437438D01*
X99490943Y-27426876D01*
X99445244Y-27281050D01*
X99445243Y-27281048D01*
X99442972Y-27273801D01*
X99354139Y-27127119D01*
X99258615Y-27031595D01*
X99224589Y-26969283D01*
X99229654Y-26898468D01*
X99258615Y-26853405D01*
X99354139Y-26757881D01*
X99442972Y-26611199D01*
X99450041Y-26588644D01*
X99491248Y-26457150D01*
X99494253Y-26447562D01*
X99501000Y-26374135D01*
X99500999Y-25926979D01*
X103681551Y-25926979D01*
X103684334Y-25930697D01*
X103814179Y-25978986D01*
X103827777Y-25982376D01*
X103983260Y-26003123D01*
X103997256Y-26003416D01*
X104153470Y-25989199D01*
X104167195Y-25986382D01*
X104316379Y-25937909D01*
X104329129Y-25932125D01*
X104336718Y-25927601D01*
X104347602Y-25924799D01*
X104343597Y-25922225D01*
X104450619Y-25922225D01*
X104461568Y-25925214D01*
X104471376Y-25930564D01*
X104601579Y-25978986D01*
X104615177Y-25982376D01*
X104770660Y-26003123D01*
X104784656Y-26003416D01*
X104940870Y-25989199D01*
X104954595Y-25986382D01*
X105103779Y-25937909D01*
X105110652Y-25934791D01*
X105118504Y-25926322D01*
X105115000Y-25917910D01*
X104806512Y-25609422D01*
X104792568Y-25601808D01*
X104790735Y-25601939D01*
X104784120Y-25606190D01*
X104489095Y-25901215D01*
X104450619Y-25922225D01*
X104343597Y-25922225D01*
X104310905Y-25901215D01*
X104019112Y-25609422D01*
X104005168Y-25601808D01*
X104003335Y-25601939D01*
X103996720Y-25606190D01*
X103688311Y-25914599D01*
X103681551Y-25926979D01*
X99500999Y-25926979D01*
X99500999Y-25860866D01*
X99499840Y-25848244D01*
X99494864Y-25794092D01*
X99494253Y-25787438D01*
X99470154Y-25710539D01*
X99445244Y-25631050D01*
X99445243Y-25631048D01*
X99442972Y-25623801D01*
X99354139Y-25477119D01*
X99232881Y-25355861D01*
X99086199Y-25267028D01*
X99078952Y-25264757D01*
X99078950Y-25264756D01*
X99001118Y-25240365D01*
X98979869Y-25233706D01*
X103240241Y-25233706D01*
X103255548Y-25389822D01*
X103258459Y-25403516D01*
X103307972Y-25552358D01*
X103309553Y-25555781D01*
X103316970Y-25562562D01*
X103325591Y-25558899D01*
X103634278Y-25250212D01*
X103640656Y-25238532D01*
X104370708Y-25238532D01*
X104370839Y-25240365D01*
X104375090Y-25246980D01*
X104387188Y-25259078D01*
X104401132Y-25266692D01*
X104402965Y-25266561D01*
X104409580Y-25262310D01*
X104421678Y-25250212D01*
X104428056Y-25238532D01*
X105158108Y-25238532D01*
X105158239Y-25240365D01*
X105162490Y-25246980D01*
X105470537Y-25555027D01*
X105482917Y-25561787D01*
X105486733Y-25558930D01*
X105533931Y-25434683D01*
X105537411Y-25421129D01*
X105559672Y-25262734D01*
X105560278Y-25254850D01*
X105560467Y-25241362D01*
X105560080Y-25233461D01*
X105542251Y-25074511D01*
X105539149Y-25060858D01*
X105487556Y-24912704D01*
X105480244Y-24897429D01*
X105457515Y-24932795D01*
X105165722Y-25224588D01*
X105158108Y-25238532D01*
X104428056Y-25238532D01*
X104429292Y-25236268D01*
X104429161Y-25234435D01*
X104424910Y-25227820D01*
X104412812Y-25215722D01*
X104398868Y-25208108D01*
X104397035Y-25208239D01*
X104390420Y-25212490D01*
X104378322Y-25224588D01*
X104370708Y-25238532D01*
X103640656Y-25238532D01*
X103641892Y-25236268D01*
X103641761Y-25234435D01*
X103637510Y-25227820D01*
X103342485Y-24932795D01*
X103321132Y-24893691D01*
X103318128Y-24904927D01*
X103312728Y-24914910D01*
X103263388Y-25050469D01*
X103260096Y-25064078D01*
X103240437Y-25219699D01*
X103240241Y-25233706D01*
X98979869Y-25233706D01*
X98922562Y-25215747D01*
X98849135Y-25209000D01*
X98846237Y-25209000D01*
X98516640Y-25209001D01*
X98185866Y-25209001D01*
X98183008Y-25209264D01*
X98182999Y-25209264D01*
X98147889Y-25212490D01*
X98112438Y-25215747D01*
X98106060Y-25217746D01*
X98106059Y-25217746D01*
X97956050Y-25264756D01*
X97956048Y-25264757D01*
X97948801Y-25267028D01*
X97802119Y-25355861D01*
X97796748Y-25361232D01*
X97795247Y-25362409D01*
X97729299Y-25388702D01*
X97659604Y-25375167D01*
X97639753Y-25362409D01*
X97638252Y-25361232D01*
X97632881Y-25355861D01*
X97486199Y-25267028D01*
X97478952Y-25264757D01*
X97478950Y-25264756D01*
X97401118Y-25240365D01*
X97322562Y-25215747D01*
X97249135Y-25209000D01*
X97246237Y-25209000D01*
X96916640Y-25209001D01*
X96585866Y-25209001D01*
X96583008Y-25209264D01*
X96582999Y-25209264D01*
X96547889Y-25212490D01*
X96512438Y-25215747D01*
X96506060Y-25217746D01*
X96506059Y-25217746D01*
X96356050Y-25264756D01*
X96356048Y-25264757D01*
X96348801Y-25267028D01*
X96202119Y-25355861D01*
X96196748Y-25361232D01*
X96195247Y-25362409D01*
X96129299Y-25388702D01*
X96059604Y-25375167D01*
X96039753Y-25362409D01*
X96038252Y-25361232D01*
X96032881Y-25355861D01*
X95886199Y-25267028D01*
X95878952Y-25264757D01*
X95878950Y-25264756D01*
X95801118Y-25240365D01*
X95722562Y-25215747D01*
X95649135Y-25209000D01*
X95646237Y-25209000D01*
X95316640Y-25209001D01*
X94985866Y-25209001D01*
X94983008Y-25209264D01*
X94982999Y-25209264D01*
X94947889Y-25212490D01*
X94912438Y-25215747D01*
X94896342Y-25220791D01*
X94825358Y-25222074D01*
X94764948Y-25184776D01*
X94751812Y-25167327D01*
X94737626Y-25144624D01*
X94657640Y-25064078D01*
X94614778Y-25020915D01*
X94614774Y-25020912D01*
X94609815Y-25015918D01*
X94598697Y-25008862D01*
X94548061Y-24976728D01*
X94456666Y-24918727D01*
X94427463Y-24908328D01*
X94292425Y-24860243D01*
X94292420Y-24860242D01*
X94285790Y-24857881D01*
X94278802Y-24857048D01*
X94278799Y-24857047D01*
X94176362Y-24844832D01*
X103977008Y-24844832D01*
X103977139Y-24846665D01*
X103981390Y-24853280D01*
X103993488Y-24865378D01*
X104007432Y-24872992D01*
X104009265Y-24872861D01*
X104015880Y-24868610D01*
X104027978Y-24856512D01*
X104034356Y-24844832D01*
X104764408Y-24844832D01*
X104764539Y-24846665D01*
X104768790Y-24853280D01*
X104780888Y-24865378D01*
X104794832Y-24872992D01*
X104796665Y-24872861D01*
X104803280Y-24868610D01*
X104815378Y-24856512D01*
X104822992Y-24842568D01*
X104822861Y-24840735D01*
X104818610Y-24834120D01*
X104806512Y-24822022D01*
X104792568Y-24814408D01*
X104790735Y-24814539D01*
X104784120Y-24818790D01*
X104772022Y-24830888D01*
X104764408Y-24844832D01*
X104034356Y-24844832D01*
X104035592Y-24842568D01*
X104035461Y-24840735D01*
X104031210Y-24834120D01*
X104019112Y-24822022D01*
X104005168Y-24814408D01*
X104003335Y-24814539D01*
X103996720Y-24818790D01*
X103984622Y-24830888D01*
X103977008Y-24844832D01*
X94176362Y-24844832D01*
X94155698Y-24842368D01*
X94105680Y-24836404D01*
X94098677Y-24837140D01*
X94098676Y-24837140D01*
X93932288Y-24854628D01*
X93932286Y-24854629D01*
X93925288Y-24855364D01*
X93753579Y-24913818D01*
X93711478Y-24939719D01*
X93605095Y-25005166D01*
X93605092Y-25005168D01*
X93599088Y-25008862D01*
X93594053Y-25013793D01*
X93594050Y-25013795D01*
X93474525Y-25130843D01*
X93469493Y-25135771D01*
X93371235Y-25288238D01*
X93368826Y-25294858D01*
X93368824Y-25294861D01*
X93334669Y-25388702D01*
X93309197Y-25458685D01*
X93286463Y-25638640D01*
X93304163Y-25819160D01*
X93361418Y-25991273D01*
X93365065Y-25997295D01*
X93365066Y-25997297D01*
X93439478Y-26120166D01*
X93455380Y-26146424D01*
X93460269Y-26151487D01*
X93460270Y-26151488D01*
X93470712Y-26162301D01*
X93542440Y-26236576D01*
X93575372Y-26299472D01*
X93569073Y-26370188D01*
X93540900Y-26413196D01*
X92638906Y-27315189D01*
X92576596Y-27349213D01*
X92562986Y-27351402D01*
X92554210Y-27352324D01*
X92532288Y-27354628D01*
X92532286Y-27354628D01*
X92525288Y-27355364D01*
X92353579Y-27413818D01*
X92307583Y-27442115D01*
X92205095Y-27505166D01*
X92205092Y-27505168D01*
X92199088Y-27508862D01*
X92194053Y-27513793D01*
X92194050Y-27513795D01*
X92075531Y-27629858D01*
X92069493Y-27635771D01*
X91971235Y-27788238D01*
X91968826Y-27794858D01*
X91968824Y-27794861D01*
X91925617Y-27913572D01*
X91909197Y-27958685D01*
X91886463Y-28138640D01*
X91904163Y-28319160D01*
X91961418Y-28491273D01*
X91965065Y-28497295D01*
X91965066Y-28497297D01*
X92051526Y-28640060D01*
X92055380Y-28646424D01*
X92060269Y-28651487D01*
X92060270Y-28651488D01*
X92110578Y-28703583D01*
X92181382Y-28776902D01*
X92187273Y-28780757D01*
X92187278Y-28780761D01*
X92234493Y-28811657D01*
X92280542Y-28865694D01*
X92291500Y-28917089D01*
X92291500Y-30848134D01*
X92298255Y-30910316D01*
X92349385Y-31046705D01*
X92436739Y-31163261D01*
X92443919Y-31168642D01*
X92493544Y-31205834D01*
X92536059Y-31262693D01*
X92541085Y-31333512D01*
X92513203Y-31389173D01*
X92505671Y-31397865D01*
X92504000Y-31405548D01*
X92504000Y-32978000D01*
X92483998Y-33046121D01*
X92430342Y-33092614D01*
X92378000Y-33104000D01*
X92122000Y-33104000D01*
X92053879Y-33083998D01*
X92007386Y-33030342D01*
X91996000Y-32978000D01*
X91996000Y-31410116D01*
X91991525Y-31394877D01*
X91990135Y-31393672D01*
X91982452Y-31392001D01*
X91805331Y-31392001D01*
X91798510Y-31392371D01*
X91747648Y-31397895D01*
X91732396Y-31401521D01*
X91611946Y-31446676D01*
X91596351Y-31455214D01*
X91494276Y-31531715D01*
X91481714Y-31544277D01*
X91460326Y-31572815D01*
X91403467Y-31615330D01*
X91332648Y-31620356D01*
X91270355Y-31586296D01*
X91236365Y-31523965D01*
X91233500Y-31497250D01*
X91233500Y-30928768D01*
X91234027Y-30917585D01*
X91235702Y-30910092D01*
X91233862Y-30851531D01*
X91233562Y-30842002D01*
X91233500Y-30838044D01*
X91233500Y-30810144D01*
X91232996Y-30806153D01*
X91232063Y-30794311D01*
X91232062Y-30794254D01*
X91230674Y-30750111D01*
X91228462Y-30742497D01*
X91228461Y-30742492D01*
X91225023Y-30730659D01*
X91221012Y-30711295D01*
X91219467Y-30699064D01*
X91218474Y-30691203D01*
X91215557Y-30683836D01*
X91215556Y-30683831D01*
X91202198Y-30650092D01*
X91198354Y-30638865D01*
X91195237Y-30628137D01*
X91186018Y-30596407D01*
X91175707Y-30578972D01*
X91167012Y-30561224D01*
X91159552Y-30542383D01*
X91133564Y-30506613D01*
X91127048Y-30496693D01*
X91108580Y-30465465D01*
X91108578Y-30465462D01*
X91104542Y-30458638D01*
X91090218Y-30444314D01*
X91077383Y-30429287D01*
X91065472Y-30412893D01*
X91031403Y-30384708D01*
X91022625Y-30376720D01*
X90903648Y-30257744D01*
X90896112Y-30249462D01*
X90892000Y-30242982D01*
X90842347Y-30196355D01*
X90839506Y-30193601D01*
X90819770Y-30173865D01*
X90816573Y-30171385D01*
X90807551Y-30163680D01*
X90775321Y-30133414D01*
X90768375Y-30129595D01*
X90768372Y-30129593D01*
X90757566Y-30123652D01*
X90741055Y-30112808D01*
X90731156Y-30105129D01*
X90689588Y-30047578D01*
X90684453Y-29984898D01*
X90680000Y-29974210D01*
X90371512Y-29665722D01*
X90357568Y-29658108D01*
X90355735Y-29658239D01*
X90349120Y-29662490D01*
X90054095Y-29957515D01*
X89991783Y-29991541D01*
X89920968Y-29986476D01*
X89875905Y-29957515D01*
X89584112Y-29665722D01*
X89570168Y-29658108D01*
X89568335Y-29658239D01*
X89561720Y-29662490D01*
X89244615Y-29979595D01*
X89182303Y-30013621D01*
X89155520Y-30016500D01*
X88947338Y-30016500D01*
X88879824Y-29996885D01*
X88817786Y-29957515D01*
X88756666Y-29918727D01*
X88674851Y-29889594D01*
X88592425Y-29860243D01*
X88592420Y-29860242D01*
X88585790Y-29857881D01*
X88578802Y-29857048D01*
X88578799Y-29857047D01*
X88455698Y-29842368D01*
X88405680Y-29836404D01*
X88398677Y-29837140D01*
X88398676Y-29837140D01*
X88232288Y-29854628D01*
X88232286Y-29854629D01*
X88225288Y-29855364D01*
X88053579Y-29913818D01*
X87917039Y-29997819D01*
X87851019Y-30016500D01*
X87547338Y-30016500D01*
X87479824Y-29996885D01*
X87417786Y-29957515D01*
X87356666Y-29918727D01*
X87274851Y-29889594D01*
X87192425Y-29860243D01*
X87192420Y-29860242D01*
X87185790Y-29857881D01*
X87178802Y-29857048D01*
X87178799Y-29857047D01*
X87133784Y-29851680D01*
X87119581Y-29849986D01*
X87054308Y-29822058D01*
X87014495Y-29763275D01*
X87008500Y-29724872D01*
X87008500Y-29290006D01*
X88805241Y-29290006D01*
X88820548Y-29446122D01*
X88823459Y-29459816D01*
X88872972Y-29608658D01*
X88874553Y-29612081D01*
X88881970Y-29618862D01*
X88890591Y-29615199D01*
X89199278Y-29306512D01*
X89205656Y-29294832D01*
X89935708Y-29294832D01*
X89935839Y-29296665D01*
X89940090Y-29303280D01*
X89952188Y-29315378D01*
X89966132Y-29322992D01*
X89967965Y-29322861D01*
X89974580Y-29318610D01*
X89986678Y-29306512D01*
X89993056Y-29294832D01*
X90723108Y-29294832D01*
X90723239Y-29296665D01*
X90727490Y-29303280D01*
X91035537Y-29611327D01*
X91047917Y-29618087D01*
X91051733Y-29615230D01*
X91098931Y-29490983D01*
X91102411Y-29477429D01*
X91124672Y-29319034D01*
X91125278Y-29311150D01*
X91125467Y-29297662D01*
X91125080Y-29289761D01*
X91107251Y-29130811D01*
X91104149Y-29117158D01*
X91052556Y-28969004D01*
X91045244Y-28953729D01*
X91022515Y-28989095D01*
X90730722Y-29280888D01*
X90723108Y-29294832D01*
X89993056Y-29294832D01*
X89994292Y-29292568D01*
X89994161Y-29290735D01*
X89989910Y-29284120D01*
X89977812Y-29272022D01*
X89963868Y-29264408D01*
X89962035Y-29264539D01*
X89955420Y-29268790D01*
X89943322Y-29280888D01*
X89935708Y-29294832D01*
X89205656Y-29294832D01*
X89206892Y-29292568D01*
X89206761Y-29290735D01*
X89202510Y-29284120D01*
X88907485Y-28989095D01*
X88886132Y-28949991D01*
X88883128Y-28961227D01*
X88877728Y-28971210D01*
X88828388Y-29106769D01*
X88825096Y-29120378D01*
X88805437Y-29275999D01*
X88805241Y-29290006D01*
X87008500Y-29290006D01*
X87008500Y-28901132D01*
X89542008Y-28901132D01*
X89542139Y-28902965D01*
X89546390Y-28909580D01*
X89558488Y-28921678D01*
X89572432Y-28929292D01*
X89574265Y-28929161D01*
X89580880Y-28924910D01*
X89592978Y-28912812D01*
X89599356Y-28901132D01*
X90329408Y-28901132D01*
X90329539Y-28902965D01*
X90333790Y-28909580D01*
X90345888Y-28921678D01*
X90359832Y-28929292D01*
X90361665Y-28929161D01*
X90368280Y-28924910D01*
X90380378Y-28912812D01*
X90387992Y-28898868D01*
X90387861Y-28897035D01*
X90383610Y-28890420D01*
X90371512Y-28878322D01*
X90357568Y-28870708D01*
X90355735Y-28870839D01*
X90349120Y-28875090D01*
X90337022Y-28887188D01*
X90329408Y-28901132D01*
X89599356Y-28901132D01*
X89600592Y-28898868D01*
X89600461Y-28897035D01*
X89596210Y-28890420D01*
X89584112Y-28878322D01*
X89570168Y-28870708D01*
X89568335Y-28870839D01*
X89561720Y-28875090D01*
X89549622Y-28887188D01*
X89542008Y-28901132D01*
X87008500Y-28901132D01*
X87008500Y-27547906D01*
X87695729Y-27547906D01*
X87713429Y-27728426D01*
X87770684Y-27900539D01*
X87774331Y-27906561D01*
X87774332Y-27906563D01*
X87859627Y-28047402D01*
X87864646Y-28055690D01*
X87869535Y-28060753D01*
X87869536Y-28060754D01*
X87923986Y-28117138D01*
X87990648Y-28186168D01*
X88031488Y-28212893D01*
X88076577Y-28242398D01*
X88142425Y-28285488D01*
X88149029Y-28287944D01*
X88149031Y-28287945D01*
X88305824Y-28346256D01*
X88305826Y-28346256D01*
X88312434Y-28348714D01*
X88396261Y-28359899D01*
X88485246Y-28371773D01*
X88485250Y-28371773D01*
X88492227Y-28372704D01*
X88499238Y-28372066D01*
X88499242Y-28372066D01*
X88618498Y-28361212D01*
X88668095Y-28356698D01*
X88737747Y-28370443D01*
X88788912Y-28419664D01*
X88805502Y-28483943D01*
X88805241Y-28502606D01*
X88820548Y-28658722D01*
X88823459Y-28672416D01*
X88872972Y-28821258D01*
X88878848Y-28833975D01*
X88880077Y-28836005D01*
X88880469Y-28837483D01*
X88881802Y-28840369D01*
X88881295Y-28840603D01*
X88883369Y-28848430D01*
X88907485Y-28810905D01*
X89210958Y-28507432D01*
X89935708Y-28507432D01*
X89935839Y-28509265D01*
X89940090Y-28515880D01*
X89952188Y-28527978D01*
X89966132Y-28535592D01*
X89967965Y-28535461D01*
X89974580Y-28531210D01*
X89986678Y-28519112D01*
X89993056Y-28507432D01*
X90723108Y-28507432D01*
X90723239Y-28509265D01*
X90727490Y-28515880D01*
X91022515Y-28810905D01*
X91043187Y-28848763D01*
X91047293Y-28836110D01*
X91051480Y-28828496D01*
X91098931Y-28703583D01*
X91102411Y-28690029D01*
X91124672Y-28531634D01*
X91125278Y-28523750D01*
X91125467Y-28510262D01*
X91125080Y-28502361D01*
X91107251Y-28343411D01*
X91104149Y-28329758D01*
X91053555Y-28184473D01*
X91048916Y-28180343D01*
X91039889Y-28184321D01*
X90730722Y-28493488D01*
X90723108Y-28507432D01*
X89993056Y-28507432D01*
X89994292Y-28505168D01*
X89994161Y-28503335D01*
X89989910Y-28496720D01*
X89977812Y-28484622D01*
X89963868Y-28477008D01*
X89962035Y-28477139D01*
X89955420Y-28481390D01*
X89943322Y-28493488D01*
X89935708Y-28507432D01*
X89210958Y-28507432D01*
X89875905Y-27842485D01*
X89915699Y-27820755D01*
X89904470Y-27817815D01*
X90015709Y-27817815D01*
X90054095Y-27842485D01*
X90345888Y-28134278D01*
X90359832Y-28141892D01*
X90361665Y-28141761D01*
X90368280Y-28137510D01*
X90677507Y-27828283D01*
X90684267Y-27815903D01*
X90681682Y-27812449D01*
X90681382Y-27812289D01*
X90540445Y-27762103D01*
X90526806Y-27758904D01*
X90371046Y-27740331D01*
X90357049Y-27740233D01*
X90201042Y-27756630D01*
X90187368Y-27759636D01*
X90038866Y-27810191D01*
X90019831Y-27819148D01*
X90018807Y-27816972D01*
X90015709Y-27817815D01*
X89904470Y-27817815D01*
X89904111Y-27817721D01*
X89893986Y-27812290D01*
X89753045Y-27762103D01*
X89739406Y-27758904D01*
X89583646Y-27740331D01*
X89569649Y-27740233D01*
X89456675Y-27752107D01*
X89386837Y-27739335D01*
X89334990Y-27690833D01*
X89317596Y-27622000D01*
X89318731Y-27609260D01*
X89318819Y-27608639D01*
X89322565Y-27581983D01*
X89322882Y-27559266D01*
X89302663Y-27379011D01*
X89299058Y-27368659D01*
X89245330Y-27214372D01*
X89245328Y-27214369D01*
X89243011Y-27207714D01*
X89146892Y-27053890D01*
X89124752Y-27031595D01*
X89024044Y-26930181D01*
X89024040Y-26930178D01*
X89019081Y-26925184D01*
X89007963Y-26918128D01*
X88933656Y-26870972D01*
X88865932Y-26827993D01*
X88771929Y-26794520D01*
X88701691Y-26769509D01*
X88701686Y-26769508D01*
X88695056Y-26767147D01*
X88688068Y-26766314D01*
X88688065Y-26766313D01*
X88562831Y-26751380D01*
X88514946Y-26745670D01*
X88507943Y-26746406D01*
X88507942Y-26746406D01*
X88341554Y-26763894D01*
X88341552Y-26763895D01*
X88334554Y-26764630D01*
X88162845Y-26823084D01*
X88113559Y-26853405D01*
X88014361Y-26914432D01*
X88014358Y-26914434D01*
X88008354Y-26918128D01*
X88003319Y-26923059D01*
X88003316Y-26923061D01*
X87965135Y-26960451D01*
X87878759Y-27045037D01*
X87780501Y-27197504D01*
X87778092Y-27204124D01*
X87778090Y-27204127D01*
X87726184Y-27346738D01*
X87718463Y-27367951D01*
X87695729Y-27547906D01*
X87008500Y-27547906D01*
X87008500Y-27075250D01*
X87028502Y-27007129D01*
X87045405Y-26986155D01*
X89220405Y-24811155D01*
X89282717Y-24777129D01*
X89353532Y-24782194D01*
X89410368Y-24824741D01*
X89435179Y-24891261D01*
X89435500Y-24900250D01*
X89435500Y-25702634D01*
X89442255Y-25764816D01*
X89493385Y-25901205D01*
X89580739Y-26017761D01*
X89697295Y-26105115D01*
X89833684Y-26156245D01*
X89895866Y-26163000D01*
X90754134Y-26163000D01*
X90816316Y-26156245D01*
X90952705Y-26105115D01*
X91069261Y-26017761D01*
X91156615Y-25901205D01*
X91207745Y-25764816D01*
X91214500Y-25702634D01*
X91214500Y-23752166D01*
X91207745Y-23689984D01*
X91156615Y-23553595D01*
X91123991Y-23510065D01*
X91099143Y-23443559D01*
X91114196Y-23374176D01*
X91164370Y-23323946D01*
X91224817Y-23308500D01*
X92417944Y-23308500D01*
X92429800Y-23309059D01*
X92429803Y-23309059D01*
X92437537Y-23310788D01*
X92508369Y-23308562D01*
X92512327Y-23308500D01*
X92541432Y-23308500D01*
X92545832Y-23307944D01*
X92557664Y-23307012D01*
X92603831Y-23305562D01*
X92624421Y-23299580D01*
X92643782Y-23295570D01*
X92650770Y-23294688D01*
X92657204Y-23293875D01*
X92657205Y-23293875D01*
X92665064Y-23292882D01*
X92672429Y-23289966D01*
X92672433Y-23289965D01*
X92708021Y-23275874D01*
X92719231Y-23272035D01*
X92763600Y-23259145D01*
X92782065Y-23248225D01*
X92799805Y-23239534D01*
X92819756Y-23231635D01*
X92857129Y-23204482D01*
X92867048Y-23197967D01*
X92899977Y-23178493D01*
X92899981Y-23178490D01*
X92906807Y-23174453D01*
X92921971Y-23159289D01*
X92937005Y-23146448D01*
X92947943Y-23138501D01*
X92954357Y-23133841D01*
X92983798Y-23098253D01*
X92991787Y-23089473D01*
X93340859Y-22740401D01*
X93800961Y-22280298D01*
X93862640Y-22247085D01*
X93863600Y-22246998D01*
X93952463Y-22218125D01*
X94029409Y-22193124D01*
X94029412Y-22193123D01*
X94036108Y-22190947D01*
X94145817Y-22125547D01*
X94185860Y-22101677D01*
X94185862Y-22101676D01*
X94191912Y-22098069D01*
X94323266Y-21972982D01*
X94423643Y-21821902D01*
X94488055Y-21652338D01*
X94491849Y-21625346D01*
X94512748Y-21476638D01*
X94512748Y-21476637D01*
X94513299Y-21472717D01*
X94513354Y-21468755D01*
X94513358Y-21468707D01*
X94538526Y-21402321D01*
X94595589Y-21360080D01*
X94666431Y-21355396D01*
X94701986Y-21369252D01*
X94728444Y-21384527D01*
X94764388Y-21396206D01*
X94767696Y-21397281D01*
X94779994Y-21402001D01*
X94817712Y-21418794D01*
X94824165Y-21420166D01*
X94824169Y-21420167D01*
X94858080Y-21427375D01*
X94870817Y-21430788D01*
X94903791Y-21441502D01*
X94903798Y-21441503D01*
X94910072Y-21443542D01*
X94916633Y-21444232D01*
X94916635Y-21444232D01*
X94930690Y-21445709D01*
X94951128Y-21447857D01*
X94964136Y-21449918D01*
X95004513Y-21458500D01*
X98174209Y-21458500D01*
X98242330Y-21478502D01*
X98288823Y-21532158D01*
X98299608Y-21572205D01*
X98304163Y-21618660D01*
X98361418Y-21790773D01*
X98365065Y-21796795D01*
X98365066Y-21796797D01*
X98420896Y-21888984D01*
X98439075Y-21957614D01*
X98431521Y-21997349D01*
X98411713Y-22051772D01*
X98409197Y-22058685D01*
X98386463Y-22238640D01*
X98404163Y-22419160D01*
X98461418Y-22591273D01*
X98465065Y-22597295D01*
X98465066Y-22597297D01*
X98513299Y-22676939D01*
X98555380Y-22746424D01*
X98560269Y-22751487D01*
X98560270Y-22751488D01*
X98637121Y-22831068D01*
X98681382Y-22876902D01*
X98711531Y-22896631D01*
X98821495Y-22968589D01*
X98833159Y-22976222D01*
X98839763Y-22978678D01*
X98839765Y-22978679D01*
X98996558Y-23036990D01*
X98996560Y-23036990D01*
X99003168Y-23039448D01*
X99010153Y-23040380D01*
X99010157Y-23040381D01*
X99045087Y-23045041D01*
X99065187Y-23047723D01*
X99130063Y-23076558D01*
X99137617Y-23083521D01*
X100196343Y-24142247D01*
X100203887Y-24150537D01*
X100208000Y-24157018D01*
X100213777Y-24162443D01*
X100257667Y-24203658D01*
X100260509Y-24206413D01*
X100280230Y-24226134D01*
X100283425Y-24228612D01*
X100292447Y-24236318D01*
X100324679Y-24266586D01*
X100331628Y-24270406D01*
X100342432Y-24276346D01*
X100358956Y-24287199D01*
X100374959Y-24299613D01*
X100415543Y-24317176D01*
X100426173Y-24322383D01*
X100464940Y-24343695D01*
X100472617Y-24345666D01*
X100472622Y-24345668D01*
X100484558Y-24348732D01*
X100503266Y-24355137D01*
X100521855Y-24363181D01*
X100529680Y-24364420D01*
X100529682Y-24364421D01*
X100565519Y-24370097D01*
X100577140Y-24372504D01*
X100612289Y-24381528D01*
X100619970Y-24383500D01*
X100640231Y-24383500D01*
X100659940Y-24385051D01*
X100679943Y-24388219D01*
X100687835Y-24387473D01*
X100693062Y-24386979D01*
X100723954Y-24384059D01*
X100735811Y-24383500D01*
X101153903Y-24383500D01*
X101222896Y-24404068D01*
X101297619Y-24452965D01*
X101333159Y-24476222D01*
X101339763Y-24478678D01*
X101339765Y-24478679D01*
X101496558Y-24536990D01*
X101496560Y-24536990D01*
X101503168Y-24539448D01*
X101586995Y-24550633D01*
X101675980Y-24562507D01*
X101675984Y-24562507D01*
X101682961Y-24563438D01*
X101689972Y-24562800D01*
X101689976Y-24562800D01*
X101832459Y-24549832D01*
X101863600Y-24546998D01*
X101870302Y-24544820D01*
X101870304Y-24544820D01*
X102029409Y-24493124D01*
X102029412Y-24493123D01*
X102036108Y-24490947D01*
X102110994Y-24446306D01*
X103240241Y-24446306D01*
X103255548Y-24602422D01*
X103258459Y-24616116D01*
X103307972Y-24764958D01*
X103313848Y-24777675D01*
X103315077Y-24779705D01*
X103315469Y-24781183D01*
X103316802Y-24784069D01*
X103316295Y-24784303D01*
X103318369Y-24792130D01*
X103342485Y-24754605D01*
X103634278Y-24462812D01*
X103640656Y-24451132D01*
X104370708Y-24451132D01*
X104370839Y-24452965D01*
X104375090Y-24459580D01*
X104387188Y-24471678D01*
X104401132Y-24479292D01*
X104402965Y-24479161D01*
X104409580Y-24474910D01*
X104421678Y-24462812D01*
X104428056Y-24451132D01*
X105158108Y-24451132D01*
X105158239Y-24452965D01*
X105162490Y-24459580D01*
X105457515Y-24754605D01*
X105478187Y-24792463D01*
X105482293Y-24779810D01*
X105486480Y-24772196D01*
X105533931Y-24647283D01*
X105537411Y-24633729D01*
X105559672Y-24475334D01*
X105560278Y-24467450D01*
X105560467Y-24453962D01*
X105560080Y-24446061D01*
X105542251Y-24287111D01*
X105539149Y-24273458D01*
X105487556Y-24125304D01*
X105480244Y-24110029D01*
X105457515Y-24145395D01*
X105165722Y-24437188D01*
X105158108Y-24451132D01*
X104428056Y-24451132D01*
X104429292Y-24448868D01*
X104429161Y-24447035D01*
X104424910Y-24440420D01*
X104412812Y-24428322D01*
X104398868Y-24420708D01*
X104397035Y-24420839D01*
X104390420Y-24425090D01*
X104378322Y-24437188D01*
X104370708Y-24451132D01*
X103640656Y-24451132D01*
X103641892Y-24448868D01*
X103641761Y-24447035D01*
X103637510Y-24440420D01*
X103342485Y-24145395D01*
X103321132Y-24106291D01*
X103318128Y-24117527D01*
X103312728Y-24127510D01*
X103263388Y-24263069D01*
X103260096Y-24276678D01*
X103240437Y-24432299D01*
X103240241Y-24446306D01*
X102110994Y-24446306D01*
X102191912Y-24398069D01*
X102323266Y-24272982D01*
X102423643Y-24121902D01*
X102448133Y-24057432D01*
X103977008Y-24057432D01*
X103977139Y-24059265D01*
X103981390Y-24065880D01*
X103993488Y-24077978D01*
X104007432Y-24085592D01*
X104009265Y-24085461D01*
X104015880Y-24081210D01*
X104027978Y-24069112D01*
X104034356Y-24057432D01*
X104764408Y-24057432D01*
X104764539Y-24059265D01*
X104768790Y-24065880D01*
X104780888Y-24077978D01*
X104794832Y-24085592D01*
X104796665Y-24085461D01*
X104803280Y-24081210D01*
X104815378Y-24069112D01*
X104822992Y-24055168D01*
X104822861Y-24053335D01*
X104818610Y-24046720D01*
X104806512Y-24034622D01*
X104792568Y-24027008D01*
X104790735Y-24027139D01*
X104784120Y-24031390D01*
X104772022Y-24043488D01*
X104764408Y-24057432D01*
X104034356Y-24057432D01*
X104035592Y-24055168D01*
X104035461Y-24053335D01*
X104031210Y-24046720D01*
X104019112Y-24034622D01*
X104005168Y-24027008D01*
X104003335Y-24027139D01*
X103996720Y-24031390D01*
X103984622Y-24043488D01*
X103977008Y-24057432D01*
X102448133Y-24057432D01*
X102481818Y-23968757D01*
X102485555Y-23958920D01*
X102485556Y-23958918D01*
X102488055Y-23952338D01*
X102489980Y-23938640D01*
X102512748Y-23776639D01*
X102512748Y-23776636D01*
X102513299Y-23772717D01*
X102513495Y-23758685D01*
X102513561Y-23753962D01*
X102513561Y-23753957D01*
X102513616Y-23750000D01*
X102503398Y-23658906D01*
X103240241Y-23658906D01*
X103255548Y-23815022D01*
X103258459Y-23828716D01*
X103307972Y-23977558D01*
X103313848Y-23990275D01*
X103315077Y-23992305D01*
X103315469Y-23993783D01*
X103316802Y-23996669D01*
X103316295Y-23996903D01*
X103318369Y-24004730D01*
X103342485Y-23967205D01*
X103634278Y-23675412D01*
X103640656Y-23663732D01*
X104370708Y-23663732D01*
X104370839Y-23665565D01*
X104375090Y-23672180D01*
X104387188Y-23684278D01*
X104401132Y-23691892D01*
X104402965Y-23691761D01*
X104409580Y-23687510D01*
X104421678Y-23675412D01*
X104428056Y-23663732D01*
X105158108Y-23663732D01*
X105158239Y-23665565D01*
X105162490Y-23672180D01*
X105457515Y-23967205D01*
X105478187Y-24005063D01*
X105482293Y-23992410D01*
X105486480Y-23984796D01*
X105504013Y-23938640D01*
X107136463Y-23938640D01*
X107154163Y-24119160D01*
X107211418Y-24291273D01*
X107215065Y-24297295D01*
X107215066Y-24297297D01*
X107299787Y-24437188D01*
X107305380Y-24446424D01*
X107310269Y-24451487D01*
X107310270Y-24451488D01*
X107336994Y-24479161D01*
X107431382Y-24576902D01*
X107437278Y-24580760D01*
X107538936Y-24647283D01*
X107583159Y-24676222D01*
X107589763Y-24678678D01*
X107589765Y-24678679D01*
X107746558Y-24736990D01*
X107746560Y-24736990D01*
X107753168Y-24739448D01*
X107836995Y-24750633D01*
X107925980Y-24762507D01*
X107925984Y-24762507D01*
X107932961Y-24763438D01*
X107939972Y-24762800D01*
X107939976Y-24762800D01*
X108082459Y-24749832D01*
X108113600Y-24746998D01*
X108120302Y-24744820D01*
X108120304Y-24744820D01*
X108279409Y-24693124D01*
X108279412Y-24693123D01*
X108286108Y-24690947D01*
X108441912Y-24598069D01*
X108573266Y-24472982D01*
X108673643Y-24321902D01*
X108718560Y-24203658D01*
X108735555Y-24158920D01*
X108735556Y-24158918D01*
X108738055Y-24152338D01*
X108739473Y-24142247D01*
X108762748Y-23976639D01*
X108762748Y-23976636D01*
X108763299Y-23972717D01*
X108763616Y-23950000D01*
X108743397Y-23769745D01*
X108741080Y-23763091D01*
X108686064Y-23605106D01*
X108686062Y-23605103D01*
X108683745Y-23598448D01*
X108587626Y-23444624D01*
X108544059Y-23400752D01*
X108464778Y-23320915D01*
X108464774Y-23320912D01*
X108459815Y-23315918D01*
X108451732Y-23310788D01*
X108390654Y-23272027D01*
X108306666Y-23218727D01*
X108266667Y-23204484D01*
X108142425Y-23160243D01*
X108142420Y-23160242D01*
X108135790Y-23157881D01*
X108128802Y-23157048D01*
X108128799Y-23157047D01*
X108005698Y-23142368D01*
X107955680Y-23136404D01*
X107948677Y-23137140D01*
X107948676Y-23137140D01*
X107782288Y-23154628D01*
X107782286Y-23154629D01*
X107775288Y-23155364D01*
X107603579Y-23213818D01*
X107547647Y-23248228D01*
X107455095Y-23305166D01*
X107455092Y-23305168D01*
X107449088Y-23308862D01*
X107444053Y-23313793D01*
X107444050Y-23313795D01*
X107378033Y-23378444D01*
X107319493Y-23435771D01*
X107221235Y-23588238D01*
X107218826Y-23594858D01*
X107218824Y-23594861D01*
X107163791Y-23746062D01*
X107159197Y-23758685D01*
X107136463Y-23938640D01*
X105504013Y-23938640D01*
X105533931Y-23859883D01*
X105537411Y-23846329D01*
X105559672Y-23687934D01*
X105560278Y-23680050D01*
X105560467Y-23666562D01*
X105560080Y-23658661D01*
X105542251Y-23499711D01*
X105539149Y-23486058D01*
X105488555Y-23340773D01*
X105483916Y-23336643D01*
X105474889Y-23340621D01*
X105165722Y-23649788D01*
X105158108Y-23663732D01*
X104428056Y-23663732D01*
X104429292Y-23661468D01*
X104429161Y-23659635D01*
X104424910Y-23653020D01*
X104412812Y-23640922D01*
X104398868Y-23633308D01*
X104397035Y-23633439D01*
X104390420Y-23637690D01*
X104378322Y-23649788D01*
X104370708Y-23663732D01*
X103640656Y-23663732D01*
X103641892Y-23661468D01*
X103641761Y-23659635D01*
X103637510Y-23653020D01*
X103328708Y-23344218D01*
X103316328Y-23337458D01*
X103312706Y-23340169D01*
X103263388Y-23475669D01*
X103260096Y-23489278D01*
X103240437Y-23644899D01*
X103240241Y-23658906D01*
X102503398Y-23658906D01*
X102493397Y-23569745D01*
X102433745Y-23398448D01*
X102434150Y-23398307D01*
X102423446Y-23332476D01*
X102430684Y-23303367D01*
X102485555Y-23158920D01*
X102485556Y-23158918D01*
X102488055Y-23152338D01*
X102490191Y-23137140D01*
X102512748Y-22976639D01*
X102512748Y-22976636D01*
X102513282Y-22972839D01*
X103680754Y-22972839D01*
X103684578Y-22981668D01*
X103993488Y-23290578D01*
X104007432Y-23298192D01*
X104009265Y-23298061D01*
X104015880Y-23293810D01*
X104310905Y-22998785D01*
X104350699Y-22977055D01*
X104339470Y-22974115D01*
X104450709Y-22974115D01*
X104489095Y-22998785D01*
X104780888Y-23290578D01*
X104794832Y-23298192D01*
X104796665Y-23298061D01*
X104803280Y-23293810D01*
X105112507Y-22984583D01*
X105119267Y-22972203D01*
X105116682Y-22968749D01*
X105116382Y-22968589D01*
X104975445Y-22918403D01*
X104961806Y-22915204D01*
X104806046Y-22896631D01*
X104792049Y-22896533D01*
X104636042Y-22912930D01*
X104622368Y-22915936D01*
X104473866Y-22966491D01*
X104454831Y-22975448D01*
X104453807Y-22973272D01*
X104450709Y-22974115D01*
X104339470Y-22974115D01*
X104339111Y-22974021D01*
X104328986Y-22968590D01*
X104188045Y-22918403D01*
X104174406Y-22915204D01*
X104018646Y-22896631D01*
X104004649Y-22896533D01*
X103848642Y-22912930D01*
X103834968Y-22915936D01*
X103686482Y-22966485D01*
X103680754Y-22972839D01*
X102513282Y-22972839D01*
X102513299Y-22972717D01*
X102513616Y-22950000D01*
X102493397Y-22769745D01*
X102489546Y-22758685D01*
X102478287Y-22726355D01*
X102433745Y-22598448D01*
X102434150Y-22598307D01*
X102423446Y-22532476D01*
X102430684Y-22503367D01*
X102485555Y-22358920D01*
X102485556Y-22358918D01*
X102488055Y-22352338D01*
X102489169Y-22344412D01*
X102512748Y-22176639D01*
X102512748Y-22176636D01*
X102513299Y-22172717D01*
X102513616Y-22150000D01*
X102493397Y-21969745D01*
X102491080Y-21963091D01*
X102436064Y-21805106D01*
X102436062Y-21805103D01*
X102433745Y-21798448D01*
X102341778Y-21651268D01*
X102322642Y-21582900D01*
X102343507Y-21515039D01*
X102397749Y-21469231D01*
X102448632Y-21458500D01*
X105552637Y-21458500D01*
X105620758Y-21478502D01*
X105667251Y-21532158D01*
X105677355Y-21602432D01*
X105658549Y-21652753D01*
X105571235Y-21788238D01*
X105568826Y-21794858D01*
X105568824Y-21794861D01*
X105544110Y-21862763D01*
X105509197Y-21958685D01*
X105486463Y-22138640D01*
X105504163Y-22319160D01*
X105561418Y-22491273D01*
X105565065Y-22497295D01*
X105565066Y-22497297D01*
X105626240Y-22598307D01*
X105655380Y-22646424D01*
X105781382Y-22776902D01*
X105933159Y-22876222D01*
X105939763Y-22878678D01*
X105939765Y-22878679D01*
X106096558Y-22936990D01*
X106096560Y-22936990D01*
X106103168Y-22939448D01*
X106182250Y-22950000D01*
X106275980Y-22962507D01*
X106275984Y-22962507D01*
X106282961Y-22963438D01*
X106289972Y-22962800D01*
X106289976Y-22962800D01*
X106432459Y-22949832D01*
X106463600Y-22946998D01*
X106470302Y-22944820D01*
X106470304Y-22944820D01*
X106629409Y-22893124D01*
X106629412Y-22893123D01*
X106636108Y-22890947D01*
X106791912Y-22798069D01*
X106923266Y-22672982D01*
X107023643Y-22521902D01*
X107088055Y-22352338D01*
X107089169Y-22344412D01*
X107112748Y-22176639D01*
X107112748Y-22176636D01*
X107113299Y-22172717D01*
X107113616Y-22150000D01*
X107093397Y-21969745D01*
X107091080Y-21963091D01*
X107036064Y-21805106D01*
X107036062Y-21805103D01*
X107033745Y-21798448D01*
X106941778Y-21651268D01*
X106922642Y-21582900D01*
X106943507Y-21515039D01*
X106997749Y-21469231D01*
X107048632Y-21458500D01*
X109518583Y-21458500D01*
X109538292Y-21460051D01*
X109552190Y-21462252D01*
X109558777Y-21461907D01*
X109558782Y-21461907D01*
X109620480Y-21458673D01*
X109627074Y-21458500D01*
X109647610Y-21458500D01*
X109650882Y-21458156D01*
X109650884Y-21458156D01*
X109668042Y-21456353D01*
X109674616Y-21455836D01*
X109736308Y-21452603D01*
X109736312Y-21452602D01*
X109742903Y-21452257D01*
X109749284Y-21450547D01*
X109749286Y-21450547D01*
X109756491Y-21448617D01*
X109775925Y-21445015D01*
X109783354Y-21444234D01*
X109783363Y-21444232D01*
X109789928Y-21443542D01*
X109854997Y-21422400D01*
X109861299Y-21420533D01*
X109927370Y-21402829D01*
X109939908Y-21396440D01*
X109958174Y-21388875D01*
X109965272Y-21386569D01*
X109965274Y-21386568D01*
X109971556Y-21384527D01*
X110030785Y-21350331D01*
X110036579Y-21347185D01*
X110048486Y-21341118D01*
X110097530Y-21316129D01*
X110108467Y-21307273D01*
X110124763Y-21296073D01*
X110131224Y-21292343D01*
X110131228Y-21292340D01*
X110136944Y-21289040D01*
X110141850Y-21284623D01*
X110141855Y-21284619D01*
X110187769Y-21243278D01*
X110192784Y-21238994D01*
X110201282Y-21232112D01*
X110208741Y-21226072D01*
X110223256Y-21211557D01*
X110228041Y-21207016D01*
X110273957Y-21165673D01*
X110278866Y-21161253D01*
X110282747Y-21155912D01*
X110287168Y-21151002D01*
X110287818Y-21151587D01*
X110301587Y-21137818D01*
X110301002Y-21137168D01*
X110305912Y-21132747D01*
X110311253Y-21128866D01*
X110357016Y-21078041D01*
X110361557Y-21073256D01*
X110376072Y-21058741D01*
X110388994Y-21042784D01*
X110393278Y-21037769D01*
X110434619Y-20991855D01*
X110434623Y-20991850D01*
X110439040Y-20986944D01*
X110442340Y-20981228D01*
X110442343Y-20981224D01*
X110446073Y-20974763D01*
X110457273Y-20958466D01*
X110461975Y-20952660D01*
X110461976Y-20952658D01*
X110466129Y-20947530D01*
X110497186Y-20886577D01*
X110500333Y-20880782D01*
X110531223Y-20827279D01*
X110531224Y-20827278D01*
X110534527Y-20821556D01*
X110538875Y-20808173D01*
X110546441Y-20789907D01*
X110549832Y-20783252D01*
X110552829Y-20777370D01*
X110554805Y-20769999D01*
X110570529Y-20711315D01*
X110572402Y-20704991D01*
X110576520Y-20692316D01*
X110593542Y-20639928D01*
X110594232Y-20633362D01*
X110594233Y-20633357D01*
X110595012Y-20625939D01*
X110598617Y-20606488D01*
X110600547Y-20599285D01*
X110602257Y-20592904D01*
X110603607Y-20567157D01*
X110605836Y-20524615D01*
X110606353Y-20518040D01*
X110612814Y-20456566D01*
X110612814Y-20456565D01*
X110613504Y-20450000D01*
X110612033Y-20436001D01*
X110611516Y-20416241D01*
X110611907Y-20408784D01*
X110611907Y-20408780D01*
X110612252Y-20402191D01*
X110601550Y-20334619D01*
X110600692Y-20328102D01*
X110599927Y-20320817D01*
X110593542Y-20260072D01*
X110589195Y-20246693D01*
X110584578Y-20227464D01*
X110583410Y-20220091D01*
X110582377Y-20213568D01*
X110557861Y-20149701D01*
X110555664Y-20143497D01*
X110546936Y-20116635D01*
X110534527Y-20078444D01*
X110527493Y-20066261D01*
X110518981Y-20048414D01*
X110516307Y-20041448D01*
X110516304Y-20041443D01*
X110513938Y-20035278D01*
X110476679Y-19977904D01*
X110473233Y-19972280D01*
X110442343Y-19918777D01*
X110439040Y-19913056D01*
X110429628Y-19902603D01*
X110417592Y-19886917D01*
X110413524Y-19880653D01*
X110413522Y-19880651D01*
X110409926Y-19875113D01*
X110361557Y-19826744D01*
X110357016Y-19821959D01*
X110315673Y-19776043D01*
X110311253Y-19771134D01*
X110299865Y-19762860D01*
X110284832Y-19750019D01*
X110274887Y-19740074D01*
X110268774Y-19736104D01*
X110217525Y-19702822D01*
X110212090Y-19699087D01*
X110162092Y-19662762D01*
X110156752Y-19658882D01*
X110150722Y-19656197D01*
X110150718Y-19656195D01*
X110143894Y-19653157D01*
X110126520Y-19643724D01*
X110125208Y-19642872D01*
X110114722Y-19636062D01*
X110108561Y-19633697D01*
X110108557Y-19633695D01*
X110050867Y-19611550D01*
X110044794Y-19609035D01*
X109982288Y-19581206D01*
X109975834Y-19579834D01*
X109975830Y-19579833D01*
X109968527Y-19578281D01*
X109949568Y-19572666D01*
X109936432Y-19567623D01*
X109905223Y-19562680D01*
X109868883Y-19556924D01*
X109862399Y-19555722D01*
X109801946Y-19542873D01*
X109801947Y-19542873D01*
X109795487Y-19541500D01*
X109781416Y-19541500D01*
X109761707Y-19539949D01*
X109747809Y-19537748D01*
X109741222Y-19538093D01*
X109741217Y-19538093D01*
X109679519Y-19541327D01*
X109672925Y-19541500D01*
X109604513Y-19541500D01*
X109598053Y-19542873D01*
X109598046Y-19542874D01*
X109590747Y-19544426D01*
X109571142Y-19547007D01*
X109570471Y-19547042D01*
X109557096Y-19547743D01*
X109550721Y-19549451D01*
X109550716Y-19549452D01*
X109491034Y-19565444D01*
X109484626Y-19566983D01*
X109417712Y-19581206D01*
X109411677Y-19583893D01*
X109404853Y-19586931D01*
X109386221Y-19593529D01*
X109379008Y-19595462D01*
X109372630Y-19597171D01*
X109366751Y-19600166D01*
X109366747Y-19600168D01*
X109312581Y-19627767D01*
X109255379Y-19641500D01*
X106784500Y-19641500D01*
X106716379Y-19621498D01*
X106669886Y-19567842D01*
X106658500Y-19515500D01*
X106658500Y-18176866D01*
X106651745Y-18114684D01*
X106600615Y-17978295D01*
X106513261Y-17861739D01*
X106396705Y-17774385D01*
X106260316Y-17723255D01*
X106198134Y-17716500D01*
X105066371Y-17716500D01*
X104998250Y-17696498D01*
X104977276Y-17679595D01*
X104971276Y-17673595D01*
X104937250Y-17611283D01*
X104942315Y-17540468D01*
X104984862Y-17483632D01*
X105051382Y-17458821D01*
X105060371Y-17458500D01*
X109163143Y-17458500D01*
X109231264Y-17478502D01*
G37*
G04 #@! TD.AperFunction*
G04 #@! TA.AperFunction,Conductor*
G36*
X97775396Y-28509833D02*
G01*
X97795247Y-28522591D01*
X97796748Y-28523768D01*
X97802119Y-28529139D01*
X97948801Y-28617972D01*
X97956048Y-28620243D01*
X97956050Y-28620244D01*
X98020372Y-28640401D01*
X98112438Y-28669253D01*
X98185865Y-28676000D01*
X98203974Y-28676000D01*
X98477906Y-28675999D01*
X98546025Y-28696001D01*
X98567000Y-28712904D01*
X98582668Y-28728572D01*
X98616694Y-28790884D01*
X98611629Y-28861699D01*
X98594400Y-28893231D01*
X98579725Y-28912812D01*
X98549385Y-28953295D01*
X98498255Y-29089684D01*
X98491500Y-29151866D01*
X98491500Y-31148134D01*
X98498255Y-31210316D01*
X98549385Y-31346705D01*
X98636739Y-31463261D01*
X98643919Y-31468642D01*
X98693544Y-31505834D01*
X98736059Y-31562693D01*
X98741085Y-31633512D01*
X98713203Y-31689173D01*
X98705671Y-31697865D01*
X98704000Y-31705548D01*
X98704000Y-33278000D01*
X98683998Y-33346121D01*
X98630342Y-33392614D01*
X98578000Y-33404000D01*
X98322000Y-33404000D01*
X98253879Y-33383998D01*
X98207386Y-33330342D01*
X98196000Y-33278000D01*
X98196000Y-31710116D01*
X98191525Y-31694877D01*
X98190135Y-31693672D01*
X98169217Y-31689122D01*
X98170035Y-31685360D01*
X98124530Y-31671999D01*
X98091825Y-31641566D01*
X98018643Y-31543920D01*
X98018642Y-31543919D01*
X98013261Y-31536739D01*
X97896705Y-31449385D01*
X97760316Y-31398255D01*
X97698134Y-31391500D01*
X97136941Y-31391500D01*
X97068820Y-31371498D01*
X97022327Y-31317842D01*
X97012223Y-31247568D01*
X97041717Y-31182988D01*
X97050005Y-31175266D01*
X97049731Y-31174992D01*
X97056081Y-31168642D01*
X97063261Y-31163261D01*
X97150615Y-31046705D01*
X97201745Y-30910316D01*
X97208500Y-30848134D01*
X97208500Y-28851866D01*
X97207301Y-28840829D01*
X97203821Y-28808792D01*
X97216349Y-28738910D01*
X97264670Y-28686894D01*
X97309570Y-28672307D01*
X97309344Y-28671179D01*
X97315908Y-28669864D01*
X97322562Y-28669253D01*
X97328947Y-28667252D01*
X97478950Y-28620244D01*
X97478952Y-28620243D01*
X97486199Y-28617972D01*
X97632881Y-28529139D01*
X97638252Y-28523768D01*
X97639753Y-28522591D01*
X97705701Y-28496298D01*
X97775396Y-28509833D01*
G37*
G04 #@! TD.AperFunction*
G04 #@! TA.AperFunction,Conductor*
G36*
X95309533Y-28740539D02*
G01*
X95366368Y-28783086D01*
X95391179Y-28849606D01*
X95391500Y-28858595D01*
X95391500Y-30848134D01*
X95398255Y-30910316D01*
X95449385Y-31046705D01*
X95536739Y-31163261D01*
X95543919Y-31168642D01*
X95593544Y-31205834D01*
X95636059Y-31262693D01*
X95641085Y-31333512D01*
X95613203Y-31389173D01*
X95605671Y-31397865D01*
X95604000Y-31405548D01*
X95604000Y-32978000D01*
X95583998Y-33046121D01*
X95530342Y-33092614D01*
X95478000Y-33104000D01*
X95222000Y-33104000D01*
X95153879Y-33083998D01*
X95107386Y-33030342D01*
X95096000Y-32978000D01*
X95096000Y-31410116D01*
X95091525Y-31394877D01*
X95090135Y-31393672D01*
X95082452Y-31392001D01*
X94905331Y-31392001D01*
X94898510Y-31392371D01*
X94847648Y-31397895D01*
X94832396Y-31401521D01*
X94794942Y-31415562D01*
X94724135Y-31420745D01*
X94706482Y-31415562D01*
X94660316Y-31398255D01*
X94598134Y-31391500D01*
X94036941Y-31391500D01*
X93968820Y-31371498D01*
X93922327Y-31317842D01*
X93912223Y-31247568D01*
X93941717Y-31182988D01*
X93950005Y-31175266D01*
X93949731Y-31174992D01*
X93956081Y-31168642D01*
X93963261Y-31163261D01*
X94050615Y-31046705D01*
X94101745Y-30910316D01*
X94108500Y-30848134D01*
X94108500Y-29889594D01*
X94128502Y-29821473D01*
X94145405Y-29800499D01*
X95176405Y-28769500D01*
X95238717Y-28735474D01*
X95309533Y-28740539D01*
G37*
G04 #@! TD.AperFunction*
G04 #@! TA.AperFunction,Conductor*
G36*
X121763621Y-31341002D02*
G01*
X121810114Y-31394658D01*
X121821500Y-31447000D01*
X121821500Y-32846100D01*
X121801498Y-32914221D01*
X121747842Y-32960714D01*
X121677568Y-32970818D01*
X121612988Y-32941324D01*
X121606404Y-32935195D01*
X121385719Y-32714509D01*
X121351694Y-32652197D01*
X121356759Y-32581381D01*
X121361742Y-32569821D01*
X121376000Y-32540821D01*
X121376000Y-31447000D01*
X121396002Y-31378879D01*
X121449658Y-31332386D01*
X121502000Y-31321000D01*
X121695500Y-31321000D01*
X121763621Y-31341002D01*
G37*
G04 #@! TD.AperFunction*
G04 #@! TA.AperFunction,Conductor*
G36*
X119286121Y-31341002D02*
G01*
X119332614Y-31394658D01*
X119344000Y-31447000D01*
X119344000Y-31690500D01*
X119323998Y-31758621D01*
X119270342Y-31805114D01*
X119218000Y-31816500D01*
X117692000Y-31816500D01*
X117623879Y-31796498D01*
X117577386Y-31742842D01*
X117566000Y-31690500D01*
X117566000Y-31447000D01*
X117586002Y-31378879D01*
X117639658Y-31332386D01*
X117692000Y-31321000D01*
X119218000Y-31321000D01*
X119286121Y-31341002D01*
G37*
G04 #@! TD.AperFunction*
G04 #@! TA.AperFunction,Conductor*
G36*
X117912012Y-24636644D02*
G01*
X117918595Y-24642773D01*
X119286214Y-26010392D01*
X119320240Y-26072704D01*
X119315175Y-26143519D01*
X119272628Y-26200355D01*
X119233538Y-26220109D01*
X119194921Y-26231768D01*
X119183584Y-26236441D01*
X119019923Y-26323460D01*
X119009706Y-26330249D01*
X118866067Y-26447397D01*
X118857363Y-26456041D01*
X118739216Y-26598856D01*
X118732356Y-26609027D01*
X118644196Y-26772076D01*
X118639444Y-26783381D01*
X118603750Y-26898692D01*
X118603544Y-26912795D01*
X118610299Y-26916000D01*
X120003000Y-26916000D01*
X120071121Y-26936002D01*
X120117614Y-26989658D01*
X120129000Y-27042000D01*
X120129000Y-28159885D01*
X120133475Y-28175124D01*
X120134865Y-28176329D01*
X120142548Y-28178000D01*
X120221657Y-28178000D01*
X120227805Y-28177699D01*
X120365603Y-28164188D01*
X120377638Y-28161805D01*
X120555076Y-28108233D01*
X120566416Y-28103559D01*
X120730077Y-28016540D01*
X120740294Y-28009751D01*
X120883933Y-27892603D01*
X120892636Y-27883960D01*
X120925317Y-27844455D01*
X120984151Y-27804716D01*
X121055129Y-27803094D01*
X121111497Y-27835675D01*
X121784595Y-28508773D01*
X121818621Y-28571085D01*
X121821500Y-28597868D01*
X121821500Y-29171091D01*
X121801498Y-29239212D01*
X121747842Y-29285705D01*
X121682330Y-29296401D01*
X121643205Y-29292289D01*
X121643202Y-29292289D01*
X121637075Y-29291645D01*
X121554576Y-29299153D01*
X121446251Y-29309011D01*
X121446248Y-29309012D01*
X121440112Y-29309570D01*
X121434206Y-29311308D01*
X121434202Y-29311309D01*
X121329076Y-29342249D01*
X121250381Y-29365410D01*
X121244923Y-29368263D01*
X121244919Y-29368265D01*
X121149135Y-29418340D01*
X121075110Y-29457040D01*
X121070310Y-29460900D01*
X121065153Y-29464274D01*
X121063769Y-29462158D01*
X121008365Y-29485027D01*
X120938512Y-29472334D01*
X120928898Y-29466709D01*
X120926675Y-29464870D01*
X120752701Y-29370802D01*
X120563768Y-29312318D01*
X120557643Y-29311674D01*
X120557642Y-29311674D01*
X120373204Y-29292289D01*
X120373202Y-29292289D01*
X120367075Y-29291645D01*
X120284576Y-29299153D01*
X120176251Y-29309011D01*
X120176248Y-29309012D01*
X120170112Y-29309570D01*
X120164206Y-29311308D01*
X120164202Y-29311309D01*
X120059076Y-29342249D01*
X119980381Y-29365410D01*
X119974923Y-29368263D01*
X119974919Y-29368265D01*
X119879135Y-29418340D01*
X119805110Y-29457040D01*
X119800310Y-29460900D01*
X119795153Y-29464274D01*
X119793769Y-29462158D01*
X119738365Y-29485027D01*
X119668512Y-29472334D01*
X119658898Y-29466709D01*
X119656675Y-29464870D01*
X119482701Y-29370802D01*
X119293768Y-29312318D01*
X119287643Y-29311674D01*
X119287642Y-29311674D01*
X119103204Y-29292289D01*
X119103202Y-29292289D01*
X119097075Y-29291645D01*
X119014576Y-29299153D01*
X118906251Y-29309011D01*
X118906248Y-29309012D01*
X118900112Y-29309570D01*
X118894206Y-29311308D01*
X118894202Y-29311309D01*
X118789076Y-29342249D01*
X118710381Y-29365410D01*
X118704923Y-29368263D01*
X118704919Y-29368265D01*
X118609135Y-29418340D01*
X118535110Y-29457040D01*
X118530310Y-29460900D01*
X118525153Y-29464274D01*
X118523769Y-29462158D01*
X118468365Y-29485027D01*
X118398512Y-29472334D01*
X118388898Y-29466709D01*
X118386675Y-29464870D01*
X118212701Y-29370802D01*
X118023768Y-29312318D01*
X118017643Y-29311674D01*
X118017642Y-29311674D01*
X117833204Y-29292289D01*
X117833202Y-29292289D01*
X117827075Y-29291645D01*
X117744576Y-29299153D01*
X117636251Y-29309011D01*
X117636248Y-29309012D01*
X117630112Y-29309570D01*
X117624206Y-29311308D01*
X117624202Y-29311309D01*
X117519076Y-29342249D01*
X117440381Y-29365410D01*
X117434923Y-29368263D01*
X117434919Y-29368265D01*
X117339135Y-29418340D01*
X117265110Y-29457040D01*
X117260310Y-29460900D01*
X117255153Y-29464274D01*
X117253769Y-29462158D01*
X117198365Y-29485027D01*
X117128512Y-29472334D01*
X117118898Y-29466709D01*
X117116675Y-29464870D01*
X116942701Y-29370802D01*
X116753768Y-29312318D01*
X116747643Y-29311674D01*
X116747642Y-29311674D01*
X116563205Y-29292289D01*
X116563202Y-29292289D01*
X116557075Y-29291645D01*
X116555463Y-29291792D01*
X116488991Y-29271772D01*
X116442871Y-29217795D01*
X116433255Y-29147453D01*
X116463195Y-29083078D01*
X116468750Y-29077154D01*
X117462247Y-28083657D01*
X117470537Y-28076113D01*
X117477018Y-28072000D01*
X117523659Y-28022332D01*
X117526413Y-28019491D01*
X117546134Y-27999770D01*
X117548612Y-27996575D01*
X117556318Y-27987553D01*
X117581158Y-27961101D01*
X117586586Y-27955321D01*
X117596346Y-27937568D01*
X117607199Y-27921045D01*
X117608991Y-27918735D01*
X117619613Y-27905041D01*
X117637176Y-27864457D01*
X117642383Y-27853827D01*
X117663695Y-27815060D01*
X117665666Y-27807383D01*
X117665668Y-27807378D01*
X117668732Y-27795442D01*
X117675138Y-27776730D01*
X117680033Y-27765419D01*
X117683181Y-27758145D01*
X117684421Y-27750317D01*
X117684423Y-27750310D01*
X117690099Y-27714476D01*
X117692505Y-27702856D01*
X117701528Y-27667711D01*
X117701528Y-27667710D01*
X117703500Y-27660030D01*
X117703500Y-27639776D01*
X117705051Y-27620065D01*
X117706980Y-27607886D01*
X117708220Y-27600057D01*
X117704059Y-27556038D01*
X117703500Y-27544181D01*
X117703500Y-27435768D01*
X118602425Y-27435768D01*
X118634138Y-27543521D01*
X118638731Y-27554889D01*
X118724607Y-27719154D01*
X118731321Y-27729415D01*
X118847468Y-27873873D01*
X118856046Y-27882632D01*
X118998039Y-28001778D01*
X119008159Y-28008708D01*
X119170585Y-28098002D01*
X119181858Y-28102834D01*
X119358538Y-28158880D01*
X119370532Y-28161430D01*
X119514761Y-28177607D01*
X119521785Y-28178000D01*
X119602885Y-28178000D01*
X119618124Y-28173525D01*
X119619329Y-28172135D01*
X119621000Y-28164452D01*
X119621000Y-27442115D01*
X119616525Y-27426876D01*
X119615135Y-27425671D01*
X119607452Y-27424000D01*
X118617076Y-27424000D01*
X118603545Y-27427973D01*
X118602425Y-27435768D01*
X117703500Y-27435768D01*
X117703500Y-24731868D01*
X117723502Y-24663747D01*
X117777158Y-24617254D01*
X117847432Y-24607150D01*
X117912012Y-24636644D01*
G37*
G04 #@! TD.AperFunction*
G04 #@! TA.AperFunction,Conductor*
G36*
X114579304Y-17478502D02*
G01*
X114625797Y-17532158D01*
X114635901Y-17602432D01*
X114606407Y-17667012D01*
X114584459Y-17686325D01*
X114584482Y-17686353D01*
X114583725Y-17686971D01*
X114580907Y-17689450D01*
X114579708Y-17690246D01*
X114436067Y-17807397D01*
X114427363Y-17816041D01*
X114309216Y-17958856D01*
X114302356Y-17969027D01*
X114214196Y-18132076D01*
X114209444Y-18143381D01*
X114173750Y-18258692D01*
X114173544Y-18272795D01*
X114180299Y-18276000D01*
X117202924Y-18276000D01*
X117216455Y-18272027D01*
X117217575Y-18264232D01*
X117185862Y-18156479D01*
X117181269Y-18145111D01*
X117095393Y-17980846D01*
X117088679Y-17970585D01*
X116972532Y-17826127D01*
X116963954Y-17817368D01*
X116821963Y-17698224D01*
X116807713Y-17688467D01*
X116762804Y-17633478D01*
X116754753Y-17562940D01*
X116786117Y-17499246D01*
X116846937Y-17462620D01*
X116878895Y-17458500D01*
X118941183Y-17458500D01*
X119009304Y-17478502D01*
X119055797Y-17532158D01*
X119065901Y-17602432D01*
X119036407Y-17667012D01*
X119014459Y-17686325D01*
X119014482Y-17686353D01*
X119013725Y-17686971D01*
X119010907Y-17689450D01*
X119009708Y-17690246D01*
X118866067Y-17807397D01*
X118857363Y-17816041D01*
X118739216Y-17958856D01*
X118732356Y-17969027D01*
X118644196Y-18132076D01*
X118639444Y-18143381D01*
X118603750Y-18258692D01*
X118603544Y-18272795D01*
X118610299Y-18276000D01*
X121132924Y-18276000D01*
X121146455Y-18272027D01*
X121147575Y-18264232D01*
X121115862Y-18156479D01*
X121111269Y-18145111D01*
X121025393Y-17980846D01*
X121018679Y-17970585D01*
X120902532Y-17826127D01*
X120893954Y-17817368D01*
X120751963Y-17698224D01*
X120737713Y-17688467D01*
X120692804Y-17633478D01*
X120684753Y-17562940D01*
X120716117Y-17499246D01*
X120776937Y-17462620D01*
X120808895Y-17458500D01*
X122565500Y-17458500D01*
X122633621Y-17478502D01*
X122680114Y-17532158D01*
X122691500Y-17584500D01*
X122691500Y-27319679D01*
X122671498Y-27387800D01*
X122617842Y-27434293D01*
X122547568Y-27444397D01*
X122482988Y-27414903D01*
X122476405Y-27408774D01*
X117744570Y-22676939D01*
X117710544Y-22614627D01*
X117708355Y-22601014D01*
X117708328Y-22600752D01*
X117697496Y-22497690D01*
X117694232Y-22466635D01*
X117694232Y-22466633D01*
X117693542Y-22460072D01*
X117634527Y-22278444D01*
X117539040Y-22113056D01*
X117534607Y-22108132D01*
X117415675Y-21976045D01*
X117415674Y-21976044D01*
X117411253Y-21971134D01*
X117256752Y-21858882D01*
X117250724Y-21856198D01*
X117250722Y-21856197D01*
X117088319Y-21783891D01*
X117088318Y-21783891D01*
X117082288Y-21781206D01*
X116988888Y-21761353D01*
X116901944Y-21742872D01*
X116901939Y-21742872D01*
X116895487Y-21741500D01*
X116704513Y-21741500D01*
X116698061Y-21742872D01*
X116698056Y-21742872D01*
X116611112Y-21761353D01*
X116517712Y-21781206D01*
X116511682Y-21783891D01*
X116511681Y-21783891D01*
X116349278Y-21856197D01*
X116349276Y-21856198D01*
X116343248Y-21858882D01*
X116188747Y-21971134D01*
X116184326Y-21976044D01*
X116184325Y-21976045D01*
X116065394Y-22108132D01*
X116060960Y-22113056D01*
X115965473Y-22278444D01*
X115906458Y-22460072D01*
X115905768Y-22466633D01*
X115905768Y-22466635D01*
X115900652Y-22515314D01*
X115886496Y-22650000D01*
X115887186Y-22656565D01*
X115899082Y-22769745D01*
X115906458Y-22839928D01*
X115919049Y-22878679D01*
X115961002Y-23007796D01*
X115963030Y-23078763D01*
X115934807Y-23131041D01*
X115860960Y-23213056D01*
X115765473Y-23378444D01*
X115706458Y-23560072D01*
X115705768Y-23566633D01*
X115705768Y-23566635D01*
X115693404Y-23684278D01*
X115686496Y-23750000D01*
X115687186Y-23756565D01*
X115705588Y-23931646D01*
X115706458Y-23939928D01*
X115765473Y-24121556D01*
X115768776Y-24127278D01*
X115768777Y-24127279D01*
X115783245Y-24152338D01*
X115860960Y-24286944D01*
X115865378Y-24291851D01*
X115865379Y-24291852D01*
X115981519Y-24420839D01*
X115988747Y-24428866D01*
X116143248Y-24541118D01*
X116149276Y-24543802D01*
X116149278Y-24543803D01*
X116291559Y-24607150D01*
X116317712Y-24618794D01*
X116324167Y-24620166D01*
X116324173Y-24620168D01*
X116336694Y-24622829D01*
X116399169Y-24656556D01*
X116433491Y-24718705D01*
X116436500Y-24746076D01*
X116436500Y-24783089D01*
X116416498Y-24851210D01*
X116362842Y-24897703D01*
X116293254Y-24907882D01*
X116288457Y-24906810D01*
X116282912Y-24906500D01*
X116149756Y-24906500D01*
X116014963Y-24921143D01*
X115896810Y-24960906D01*
X115849796Y-24976728D01*
X115849794Y-24976729D01*
X115843325Y-24978906D01*
X115688095Y-25072177D01*
X115683138Y-25076865D01*
X115683135Y-25076867D01*
X115561473Y-25191918D01*
X115556515Y-25196607D01*
X115552683Y-25202245D01*
X115552680Y-25202249D01*
X115508656Y-25267028D01*
X115454723Y-25346388D01*
X115387470Y-25514534D01*
X115386356Y-25521262D01*
X115386355Y-25521266D01*
X115368082Y-25631646D01*
X115357892Y-25693198D01*
X115358249Y-25700015D01*
X115358249Y-25700019D01*
X115362505Y-25781226D01*
X115367370Y-25874047D01*
X115369181Y-25880620D01*
X115369181Y-25880623D01*
X115374853Y-25901215D01*
X115399660Y-25991273D01*
X115402763Y-26002540D01*
X115401569Y-26073526D01*
X115362186Y-26132599D01*
X115297119Y-26161001D01*
X115281287Y-26162000D01*
X115098343Y-26162000D01*
X115092195Y-26162301D01*
X114954397Y-26175812D01*
X114942362Y-26178195D01*
X114764924Y-26231767D01*
X114753584Y-26236441D01*
X114589923Y-26323460D01*
X114579706Y-26330249D01*
X114436067Y-26447397D01*
X114427363Y-26456041D01*
X114309216Y-26598856D01*
X114302356Y-26609027D01*
X114214196Y-26772076D01*
X114209444Y-26783381D01*
X114203911Y-26801254D01*
X114164660Y-26860414D01*
X114099655Y-26888961D01*
X114054769Y-26886665D01*
X114050852Y-26885746D01*
X114044210Y-26883381D01*
X113919580Y-26868520D01*
X113854308Y-26840593D01*
X113814495Y-26781809D01*
X113808500Y-26743406D01*
X113808500Y-26284500D01*
X113828502Y-26216379D01*
X113882158Y-26169886D01*
X113934500Y-26158500D01*
X113995487Y-26158500D01*
X114001939Y-26157128D01*
X114001944Y-26157128D01*
X114088888Y-26138647D01*
X114182288Y-26118794D01*
X114188319Y-26116109D01*
X114350722Y-26043803D01*
X114350724Y-26043802D01*
X114356752Y-26041118D01*
X114511253Y-25928866D01*
X114517233Y-25922225D01*
X114634621Y-25791852D01*
X114634622Y-25791851D01*
X114639040Y-25786944D01*
X114734527Y-25621556D01*
X114793542Y-25439928D01*
X114797537Y-25401923D01*
X114812814Y-25256565D01*
X114813504Y-25250000D01*
X114793542Y-25060072D01*
X114734527Y-24878444D01*
X114722174Y-24857047D01*
X114695677Y-24811155D01*
X114675381Y-24776000D01*
X114658500Y-24713001D01*
X114658500Y-20924782D01*
X114678502Y-20856661D01*
X114685910Y-20846959D01*
X114689619Y-20841854D01*
X114694040Y-20836944D01*
X114719301Y-20793190D01*
X114786223Y-20677279D01*
X114786224Y-20677278D01*
X114789527Y-20671556D01*
X114848542Y-20489928D01*
X114852049Y-20456566D01*
X114867814Y-20306565D01*
X114868504Y-20300000D01*
X114860880Y-20227464D01*
X114849232Y-20116635D01*
X114849232Y-20116633D01*
X114848542Y-20110072D01*
X114789527Y-19928444D01*
X114694040Y-19763056D01*
X114682302Y-19750019D01*
X114600969Y-19659690D01*
X114570251Y-19595683D01*
X114579016Y-19525229D01*
X114624479Y-19470698D01*
X114692206Y-19449403D01*
X114744244Y-19459570D01*
X114751862Y-19462835D01*
X114928538Y-19518880D01*
X114940532Y-19521430D01*
X115084761Y-19537607D01*
X115091785Y-19538000D01*
X115279977Y-19538000D01*
X115348098Y-19558002D01*
X115394591Y-19611658D01*
X115404695Y-19681932D01*
X115396966Y-19710792D01*
X115387470Y-19734534D01*
X115386356Y-19741262D01*
X115386355Y-19741266D01*
X115364197Y-19875113D01*
X115357892Y-19913198D01*
X115358249Y-19920015D01*
X115358249Y-19920019D01*
X115362868Y-20008143D01*
X115367370Y-20094047D01*
X115369181Y-20100620D01*
X115369181Y-20100623D01*
X115411371Y-20253791D01*
X115415461Y-20268641D01*
X115499922Y-20428836D01*
X115504327Y-20434049D01*
X115504330Y-20434053D01*
X115612406Y-20561943D01*
X115612410Y-20561947D01*
X115616813Y-20567157D01*
X115622237Y-20571304D01*
X115622238Y-20571305D01*
X115755257Y-20673006D01*
X115755261Y-20673009D01*
X115760678Y-20677150D01*
X115847235Y-20717512D01*
X115918631Y-20750805D01*
X115918634Y-20750806D01*
X115924808Y-20753685D01*
X115931456Y-20755171D01*
X115931459Y-20755172D01*
X116030768Y-20777370D01*
X116101543Y-20793190D01*
X116107088Y-20793500D01*
X116240244Y-20793500D01*
X116375037Y-20778857D01*
X116510626Y-20733226D01*
X116540204Y-20723272D01*
X116540206Y-20723271D01*
X116546675Y-20721094D01*
X116552637Y-20717512D01*
X116573475Y-20704991D01*
X116701905Y-20627823D01*
X116706862Y-20623135D01*
X116706865Y-20623133D01*
X116828527Y-20508082D01*
X116828529Y-20508080D01*
X116833485Y-20503393D01*
X116837317Y-20497755D01*
X116837320Y-20497751D01*
X116931442Y-20359255D01*
X116935277Y-20353612D01*
X117002530Y-20185466D01*
X117003644Y-20178738D01*
X117003645Y-20178734D01*
X117030993Y-20013539D01*
X117030993Y-20013536D01*
X117032108Y-20006802D01*
X117030829Y-19982386D01*
X117022987Y-19832766D01*
X117022630Y-19825953D01*
X117018501Y-19810960D01*
X116976352Y-19657941D01*
X116974539Y-19651359D01*
X116890078Y-19491164D01*
X116885671Y-19485949D01*
X116885669Y-19485946D01*
X116879549Y-19478705D01*
X116850855Y-19413765D01*
X116861825Y-19343622D01*
X116896148Y-19299731D01*
X116953933Y-19252603D01*
X116962637Y-19243959D01*
X117080784Y-19101144D01*
X117087644Y-19090973D01*
X117175804Y-18927924D01*
X117180556Y-18916619D01*
X117216250Y-18801308D01*
X117216331Y-18795768D01*
X118602425Y-18795768D01*
X118634138Y-18903521D01*
X118638731Y-18914889D01*
X118724607Y-19079154D01*
X118731321Y-19089415D01*
X118847468Y-19233873D01*
X118856046Y-19242632D01*
X118998039Y-19361778D01*
X119008159Y-19368708D01*
X119170585Y-19458002D01*
X119181858Y-19462834D01*
X119358538Y-19518880D01*
X119370532Y-19521430D01*
X119514761Y-19537607D01*
X119521785Y-19538000D01*
X119602885Y-19538000D01*
X119618124Y-19533525D01*
X119619329Y-19532135D01*
X119621000Y-19524452D01*
X119621000Y-19519885D01*
X120129000Y-19519885D01*
X120133475Y-19535124D01*
X120134865Y-19536329D01*
X120142548Y-19538000D01*
X120221657Y-19538000D01*
X120227805Y-19537699D01*
X120365603Y-19524188D01*
X120377638Y-19521805D01*
X120555076Y-19468233D01*
X120566416Y-19463559D01*
X120730077Y-19376540D01*
X120740294Y-19369751D01*
X120883933Y-19252603D01*
X120892637Y-19243959D01*
X121010784Y-19101144D01*
X121017644Y-19090973D01*
X121105804Y-18927924D01*
X121110556Y-18916619D01*
X121146250Y-18801308D01*
X121146456Y-18787205D01*
X121139701Y-18784000D01*
X120147115Y-18784000D01*
X120131876Y-18788475D01*
X120130671Y-18789865D01*
X120129000Y-18797548D01*
X120129000Y-19519885D01*
X119621000Y-19519885D01*
X119621000Y-18802115D01*
X119616525Y-18786876D01*
X119615135Y-18785671D01*
X119607452Y-18784000D01*
X118617076Y-18784000D01*
X118603545Y-18787973D01*
X118602425Y-18795768D01*
X117216331Y-18795768D01*
X117216456Y-18787205D01*
X117209701Y-18784000D01*
X114187076Y-18784000D01*
X114173545Y-18787973D01*
X114172425Y-18795768D01*
X114204138Y-18903521D01*
X114208731Y-18914889D01*
X114294607Y-19079154D01*
X114301321Y-19089415D01*
X114417468Y-19233873D01*
X114426048Y-19242635D01*
X114431399Y-19247125D01*
X114470724Y-19306235D01*
X114471850Y-19377223D01*
X114434417Y-19437550D01*
X114370312Y-19468063D01*
X114299158Y-19458752D01*
X114237288Y-19431206D01*
X114143888Y-19411353D01*
X114056944Y-19392872D01*
X114056939Y-19392872D01*
X114050487Y-19391500D01*
X113934500Y-19391500D01*
X113866379Y-19371498D01*
X113819886Y-19317842D01*
X113808500Y-19265500D01*
X113808500Y-18503767D01*
X113809027Y-18492584D01*
X113810702Y-18485091D01*
X113808562Y-18417014D01*
X113808500Y-18413055D01*
X113808500Y-18385144D01*
X113807995Y-18381144D01*
X113807062Y-18369301D01*
X113805922Y-18333030D01*
X113805673Y-18325111D01*
X113800021Y-18305657D01*
X113796013Y-18286300D01*
X113794468Y-18274070D01*
X113794468Y-18274069D01*
X113793474Y-18266203D01*
X113790500Y-18258692D01*
X113777196Y-18225088D01*
X113773351Y-18213858D01*
X113763229Y-18179017D01*
X113763229Y-18179016D01*
X113761018Y-18171407D01*
X113756985Y-18164588D01*
X113756983Y-18164583D01*
X113750707Y-18153972D01*
X113742012Y-18136224D01*
X113734552Y-18117383D01*
X113727216Y-18107285D01*
X113708564Y-18081613D01*
X113702048Y-18071693D01*
X113683580Y-18040465D01*
X113683578Y-18040462D01*
X113679542Y-18033638D01*
X113665218Y-18019314D01*
X113652383Y-18004287D01*
X113640472Y-17987893D01*
X113606403Y-17959708D01*
X113597625Y-17951720D01*
X113453648Y-17807744D01*
X113446112Y-17799462D01*
X113442000Y-17792982D01*
X113392347Y-17746355D01*
X113389506Y-17743601D01*
X113369770Y-17723865D01*
X113366573Y-17721385D01*
X113357551Y-17713680D01*
X113331097Y-17688838D01*
X113325321Y-17683414D01*
X113325397Y-17683333D01*
X113284435Y-17630209D01*
X113278363Y-17559473D01*
X113311497Y-17496682D01*
X113373318Y-17461773D01*
X113401852Y-17458500D01*
X114511183Y-17458500D01*
X114579304Y-17478502D01*
G37*
G04 #@! TD.AperFunction*
G04 #@! TA.AperFunction,Conductor*
G36*
X96457180Y-18228502D02*
G01*
X96503673Y-18282158D01*
X96513777Y-18352432D01*
X96498615Y-18396738D01*
X96493001Y-18406621D01*
X96403338Y-18599783D01*
X96399775Y-18609470D01*
X96344389Y-18809183D01*
X96345912Y-18817607D01*
X96358292Y-18821000D01*
X97808000Y-18821000D01*
X97876121Y-18841002D01*
X97922614Y-18894658D01*
X97934000Y-18947000D01*
X97934000Y-19203000D01*
X97913998Y-19271121D01*
X97860342Y-19317614D01*
X97808000Y-19329000D01*
X96363225Y-19329000D01*
X96349694Y-19332973D01*
X96348257Y-19342966D01*
X96378563Y-19477438D01*
X96378683Y-19477822D01*
X96378686Y-19477985D01*
X96379701Y-19482489D01*
X96378771Y-19482699D01*
X96379966Y-19548807D01*
X96342668Y-19609217D01*
X96278631Y-19639873D01*
X96258448Y-19641500D01*
X95004513Y-19641500D01*
X94964136Y-19650082D01*
X94951128Y-19652143D01*
X94930690Y-19654291D01*
X94916635Y-19655768D01*
X94916633Y-19655768D01*
X94910072Y-19656458D01*
X94903798Y-19658497D01*
X94903791Y-19658498D01*
X94870817Y-19669212D01*
X94858080Y-19672625D01*
X94824169Y-19679833D01*
X94824165Y-19679834D01*
X94817712Y-19681206D01*
X94779994Y-19697999D01*
X94767698Y-19702718D01*
X94728444Y-19715473D01*
X94722723Y-19718776D01*
X94692710Y-19736104D01*
X94680961Y-19742091D01*
X94643248Y-19758882D01*
X94637909Y-19762761D01*
X94637904Y-19762764D01*
X94609851Y-19783146D01*
X94598798Y-19790325D01*
X94563056Y-19810960D01*
X94558147Y-19815380D01*
X94558143Y-19815383D01*
X94532386Y-19838575D01*
X94522143Y-19846871D01*
X94488747Y-19871134D01*
X94484333Y-19876036D01*
X94484331Y-19876038D01*
X94461129Y-19901806D01*
X94451806Y-19911129D01*
X94441933Y-19920019D01*
X94421134Y-19938747D01*
X94396871Y-19972143D01*
X94388575Y-19982386D01*
X94365383Y-20008143D01*
X94365380Y-20008147D01*
X94360960Y-20013056D01*
X94340325Y-20048798D01*
X94333146Y-20059851D01*
X94312764Y-20087904D01*
X94312761Y-20087909D01*
X94308882Y-20093248D01*
X94306199Y-20099275D01*
X94306198Y-20099276D01*
X94292092Y-20130959D01*
X94286105Y-20142708D01*
X94265473Y-20178444D01*
X94263432Y-20184727D01*
X94263431Y-20184728D01*
X94252719Y-20217696D01*
X94247999Y-20229994D01*
X94231206Y-20267712D01*
X94229834Y-20274165D01*
X94229833Y-20274169D01*
X94222625Y-20308080D01*
X94219212Y-20320817D01*
X94208498Y-20353791D01*
X94208497Y-20353798D01*
X94206458Y-20360072D01*
X94205768Y-20366633D01*
X94205768Y-20366635D01*
X94202144Y-20401122D01*
X94200082Y-20414136D01*
X94191500Y-20454513D01*
X94191500Y-20495784D01*
X94190810Y-20508955D01*
X94186496Y-20550000D01*
X94188736Y-20571305D01*
X94189053Y-20574325D01*
X94176281Y-20644164D01*
X94127780Y-20696011D01*
X94058947Y-20713406D01*
X94021477Y-20706196D01*
X93892428Y-20660244D01*
X93892422Y-20660243D01*
X93885790Y-20657881D01*
X93878802Y-20657048D01*
X93878799Y-20657047D01*
X93755698Y-20642368D01*
X93705680Y-20636404D01*
X93698677Y-20637140D01*
X93698676Y-20637140D01*
X93532288Y-20654628D01*
X93532286Y-20654629D01*
X93525288Y-20655364D01*
X93353579Y-20713818D01*
X93338212Y-20723272D01*
X93205095Y-20805166D01*
X93205092Y-20805168D01*
X93199088Y-20808862D01*
X93194053Y-20813793D01*
X93194050Y-20813795D01*
X93074525Y-20930843D01*
X93069493Y-20935771D01*
X93046971Y-20970719D01*
X92993258Y-21017142D01*
X92922971Y-21027157D01*
X92858428Y-20997582D01*
X92821228Y-20941398D01*
X92817799Y-20930843D01*
X92784527Y-20828444D01*
X92776070Y-20813795D01*
X92749123Y-20767123D01*
X92725381Y-20726000D01*
X92708500Y-20663001D01*
X92708500Y-19566371D01*
X92728502Y-19498250D01*
X92745405Y-19477276D01*
X93977276Y-18245405D01*
X94039588Y-18211379D01*
X94066371Y-18208500D01*
X96389059Y-18208500D01*
X96457180Y-18228502D01*
G37*
G04 #@! TD.AperFunction*
G04 #@! TA.AperFunction,Conductor*
G36*
X108689722Y-27064352D02*
G01*
X108704074Y-27099000D01*
X108700344Y-27117751D01*
X108663670Y-27206291D01*
X108644750Y-27350000D01*
X108663670Y-27493709D01*
X108719139Y-27627625D01*
X108807379Y-27742621D01*
X108922375Y-27830861D01*
X109056291Y-27886330D01*
X109059476Y-27886749D01*
X109062579Y-27887581D01*
X109062140Y-27889220D01*
X109089862Y-27905210D01*
X109100000Y-27935056D01*
X109100000Y-31501000D01*
X109085648Y-31535648D01*
X109051000Y-31550000D01*
X106149000Y-31550000D01*
X106114352Y-31535648D01*
X106100000Y-31501000D01*
X106100000Y-27099000D01*
X106114352Y-27064352D01*
X106149000Y-27050000D01*
X108655074Y-27050000D01*
X108689722Y-27064352D01*
G37*
G04 #@! TD.AperFunction*
G04 #@! TA.AperFunction,Conductor*
G36*
X105185648Y-27064352D02*
G01*
X105200000Y-27099000D01*
X105200000Y-31501000D01*
X105185648Y-31535648D01*
X105151000Y-31550000D01*
X101853718Y-31550000D01*
X101819070Y-31535648D01*
X101807881Y-31518319D01*
X101803163Y-31505832D01*
X101800000Y-31488513D01*
X101800000Y-27099000D01*
X101814352Y-27064352D01*
X101849000Y-27050000D01*
X105151000Y-27050000D01*
X105185648Y-27064352D01*
G37*
G04 #@! TD.AperFunction*
M02*
