M48
; DRILL file {KiCad (7.0.0)} date Sat Nov  4 11:38:19 2023
; FORMAT={-:-/ absolute / metric / decimal}
; #@! TF.CreationDate,2023-11-04T11:38:19-04:00
; #@! TF.GenerationSoftware,Kicad,Pcbnew,(7.0.0)
; #@! TF.FileFunction,Plated,1,4,PTH
FMAT,2
METRIC
; #@! TA.AperFunction,Plated,PTH,ComponentDrill
T1C0.203
; #@! TA.AperFunction,Plated,PTH,ComponentDrill
T2C0.254
; #@! TA.AperFunction,Plated,PTH,ViaDrill
T3C0.300
; #@! TA.AperFunction,Plated,PTH,ViaDrill
T4C0.400
; #@! TA.AperFunction,Plated,PTH,ComponentDrill
T5C0.400
; #@! TA.AperFunction,Plated,PTH,ComponentDrill
T6C0.600
; #@! TA.AperFunction,Plated,PTH,ComponentDrill
T7C0.650
; #@! TA.AperFunction,Plated,PTH,ComponentDrill
T8C1.100
%
G90
G05
T1
X102.875Y-38.846
X102.875Y-40.454
X104.396Y-37.325
X104.396Y-38.846
X104.396Y-40.454
X104.396Y-41.975
X106.004Y-37.325
X106.004Y-38.846
X106.004Y-40.454
X106.004Y-41.975
X107.525Y-38.846
X107.525Y-40.454
T2
X92.831Y-29.756
X92.831Y-30.544
X93.619Y-29.756
X93.619Y-30.544
T3
X85.852Y-32.512
X86.093Y-31.489
X87.133Y-34.665
X88.328Y-34.798
X88.9Y-32.224
X90.1Y-33.1
X91.106Y-25.689
X91.2Y-34.1
X92.2Y-27.0
X92.7Y-35.003
X93.6Y-43.25
X95.375Y-32.2
X95.5Y-38.4
X96.3Y-31.35
X96.366Y-35.308
X96.65Y-36.6
X97.5Y-39.0
X97.627Y-37.623
X97.775Y-28.725
X98.05Y-19.475
X98.075Y-17.475
X98.075Y-18.125
X98.075Y-18.775
X98.7Y-18.9
X98.7Y-33.4
X98.725Y-18.15
X98.75Y-17.475
X99.1Y-38.285
X99.225Y-21.775
X100.15Y-35.291
X100.658Y-40.792
X100.88Y-43.17
X100.9Y-35.801
X100.975Y-25.525
X101.0Y-24.825
X101.525Y-25.95
X101.7Y-35.8
X102.925Y-60.0
X105.0Y-50.2
X105.25Y-26.275
X105.425Y-45.875
X105.5Y-35.4
X105.9Y-54.6
X106.2Y-21.05
X106.225Y-21.7
X106.784Y-35.432
X106.9Y-52.95
X107.0Y-32.398
X107.053Y-43.897
X107.583Y-35.403
X108.049Y-44.125
X108.326Y-35.7
X108.45Y-45.95
X108.525Y-59.95
X109.0Y-44.125
X109.415Y-40.7
X109.615Y-38.857
X109.85Y-53.75
X109.95Y-34.7
X109.95Y-51.6
X110.187Y-40.051
X110.2Y-40.85
X110.299Y-30.634
X110.423Y-31.423
X110.65Y-32.398
X110.7Y-41.65
X110.834Y-35.584
X110.959Y-39.843
X111.0Y-44.05
X111.158Y-37.208
X111.45Y-32.398
X111.484Y-34.934
X111.762Y-39.512
X112.099Y-38.577
X112.099Y-40.55
X112.1Y-28.5
X112.6Y-36.65
X112.65Y-39.3
X112.912Y-48.638
X113.1Y-52.75
X113.5Y-47.45
X113.675Y-23.425
X113.712Y-18.105
X113.858Y-27.675
X114.424Y-32.825
X115.7Y-44.95
X116.0Y-34.25
X116.55Y-59.975
X116.7Y-48.15
X118.0Y-45.2
X119.025Y-20.2
X119.075Y-60.15
X119.175Y-54.5
X119.4Y-35.2
X119.65Y-51.6
X119.876Y-37.849
X120.2Y-38.7
X120.875Y-24.675
X121.0Y-52.95
X121.275Y-28.475
X121.65Y-18.575
X121.675Y-56.65
X121.725Y-22.0
X121.9Y-53.85
X122.2Y-51.85
X122.3Y-46.2
T4
X81.534Y-40.132
X87.376Y-21.336
X94.437Y-45.618
X95.123Y-52.07
X96.774Y-25.118
X98.137Y-38.365
X98.298Y-45.72
X100.45Y-51.2
X101.2Y-31.75
X102.0Y-27.5
X102.0Y-28.4
X102.0Y-29.3
X102.0Y-30.2
X103.7Y-49.2
X104.5Y-33.147
X104.7Y-53.65
X109.15Y-29.45
X111.7Y-29.95
X111.76Y-25.908
X111.76Y-26.924
X111.873Y-24.033
X111.882Y-25.031
X112.2Y-42.45
X112.575Y-23.322
X112.73Y-47.809
X113.03Y-19.812
X113.438Y-33.962
X113.95Y-26.7
X114.583Y-30.311
X115.2Y-37.45
X115.2Y-39.2
X116.025Y-50.875
X117.2Y-37.45
X117.2Y-39.2
X118.063Y-22.621
X118.65Y-36.0
X118.813Y-23.616
X120.2Y-42.95
X120.45Y-33.7
T5
X80.2Y-68.6
X80.2Y-73.6
X82.19Y-68.6
X82.19Y-73.6
X84.18Y-68.6
X84.18Y-73.6
X86.17Y-68.6
X86.17Y-73.6
X88.17Y-68.6
X88.17Y-73.6
X90.16Y-68.6
X90.16Y-73.6
X92.15Y-68.6
X92.15Y-73.6
X94.14Y-68.6
X94.14Y-73.6
X96.14Y-68.6
X96.14Y-73.6
X98.13Y-68.6
X98.13Y-73.6
X100.12Y-68.6
X100.12Y-73.6
X102.11Y-68.6
X102.11Y-73.6
X104.1Y-68.6
X104.1Y-73.6
X106.1Y-68.6
X106.1Y-73.6
X108.1Y-68.6
X108.1Y-73.6
X110.1Y-68.6
X110.1Y-73.6
X112.1Y-68.6
X112.1Y-73.6
X114.1Y-68.6
X114.1Y-73.6
X116.1Y-68.6
X116.1Y-73.6
X118.1Y-68.6
X118.1Y-73.6
X120.1Y-68.6
X120.1Y-73.6
X122.1Y-73.6
T7
X116.55Y-30.305
X116.55Y-31.575
X117.82Y-30.305
X117.82Y-31.575
X119.09Y-30.305
X119.09Y-31.575
X120.36Y-30.305
X120.36Y-31.575
X121.63Y-30.305
X121.63Y-31.575
T8
X82.55Y-21.13
X82.55Y-24.13
X82.55Y-27.13
T6
G00X81.85Y-18.33
M15
G01X83.25Y-18.33
M16
G05
G00X81.85Y-29.93
M15
G01X83.25Y-29.93
M16
G05
G00X115.145Y-18.53
M15
G01X116.245Y-18.53
M16
G05
G00X115.145Y-27.17
M15
G01X116.245Y-27.17
M16
G05
G00X119.575Y-18.53
M15
G01X120.175Y-18.53
M16
G05
G00X119.575Y-27.17
M15
G01X120.175Y-27.17
M16
G05
T0
M30
