G04 #@! TF.GenerationSoftware,KiCad,Pcbnew,(7.0.0)*
G04 #@! TF.CreationDate,2023-11-04T11:38:30-04:00*
G04 #@! TF.ProjectId,Emrick,456d7269-636b-42e6-9b69-6361645f7063,5.1*
G04 #@! TF.SameCoordinates,Original*
G04 #@! TF.FileFunction,Soldermask,Top*
G04 #@! TF.FilePolarity,Negative*
%FSLAX46Y46*%
G04 Gerber Fmt 4.6, Leading zero omitted, Abs format (unit mm)*
G04 Created by KiCad (PCBNEW (7.0.0)) date 2023-11-04 11:38:30*
%MOMM*%
%LPD*%
G01*
G04 APERTURE LIST*
G04 Aperture macros list*
%AMRoundRect*
0 Rectangle with rounded corners*
0 $1 Rounding radius*
0 $2 $3 $4 $5 $6 $7 $8 $9 X,Y pos of 4 corners*
0 Add a 4 corners polygon primitive as box body*
4,1,4,$2,$3,$4,$5,$6,$7,$8,$9,$2,$3,0*
0 Add four circle primitives for the rounded corners*
1,1,$1+$1,$2,$3*
1,1,$1+$1,$4,$5*
1,1,$1+$1,$6,$7*
1,1,$1+$1,$8,$9*
0 Add four rect primitives between the rounded corners*
20,1,$1+$1,$2,$3,$4,$5,0*
20,1,$1+$1,$4,$5,$6,$7,0*
20,1,$1+$1,$6,$7,$8,$9,0*
20,1,$1+$1,$8,$9,$2,$3,0*%
G04 Aperture macros list end*
%ADD10C,0.100000*%
%ADD11R,1.200000X1.400000*%
%ADD12R,2.200000X1.700000*%
%ADD13R,1.400000X2.200000*%
%ADD14RoundRect,0.135000X0.135000X0.185000X-0.135000X0.185000X-0.135000X-0.185000X0.135000X-0.185000X0*%
%ADD15R,2.000000X1.200000*%
%ADD16RoundRect,0.147500X-0.172500X0.147500X-0.172500X-0.147500X0.172500X-0.147500X0.172500X0.147500X0*%
%ADD17RoundRect,0.140000X0.140000X0.170000X-0.140000X0.170000X-0.140000X-0.170000X0.140000X-0.170000X0*%
%ADD18RoundRect,0.225000X0.250000X-0.225000X0.250000X0.225000X-0.250000X0.225000X-0.250000X-0.225000X0*%
%ADD19RoundRect,0.140000X-0.170000X0.140000X-0.170000X-0.140000X0.170000X-0.140000X0.170000X0.140000X0*%
%ADD20RoundRect,0.140000X-0.140000X-0.170000X0.140000X-0.170000X0.140000X0.170000X-0.140000X0.170000X0*%
%ADD21RoundRect,0.135000X0.185000X-0.135000X0.185000X0.135000X-0.185000X0.135000X-0.185000X-0.135000X0*%
%ADD22RoundRect,0.135000X-0.135000X-0.185000X0.135000X-0.185000X0.135000X0.185000X-0.135000X0.185000X0*%
%ADD23R,0.965200X0.254000*%
%ADD24R,0.254000X0.965200*%
%ADD25R,3.352800X3.352800*%
%ADD26R,0.355600X1.676400*%
%ADD27R,0.850000X0.280000*%
%ADD28R,0.280000X0.850000*%
%ADD29C,0.508000*%
%ADD30RoundRect,0.140000X0.170000X-0.140000X0.170000X0.140000X-0.170000X0.140000X-0.170000X-0.140000X0*%
%ADD31R,1.800000X1.800000*%
%ADD32C,1.800000*%
%ADD33O,2.500000X1.200000*%
%ADD34O,0.240000X0.599999*%
%ADD35O,0.599999X0.240000*%
%ADD36C,0.499999*%
%ADD37R,5.150000X5.150000*%
%ADD38R,1.800000X1.000000*%
%ADD39R,1.000000X1.000000*%
%ADD40O,1.000000X1.000000*%
%ADD41R,1.000000X2.700000*%
%ADD42R,2.000000X4.000000*%
%ADD43RoundRect,0.225000X-0.250000X0.225000X-0.250000X-0.225000X0.250000X-0.225000X0.250000X0.225000X0*%
%ADD44C,0.650000*%
%ADD45R,1.150000X0.300000*%
%ADD46O,2.100000X1.000000*%
%ADD47O,1.600000X1.000000*%
%ADD48RoundRect,0.147500X0.172500X-0.147500X0.172500X0.147500X-0.172500X0.147500X-0.172500X-0.147500X0*%
%ADD49RoundRect,0.147500X-0.147500X-0.172500X0.147500X-0.172500X0.147500X0.172500X-0.147500X0.172500X0*%
%ADD50R,0.254000X0.812800*%
%ADD51R,1.701800X0.304800*%
%ADD52RoundRect,0.200000X-0.275000X0.200000X-0.275000X-0.200000X0.275000X-0.200000X0.275000X0.200000X0*%
%ADD53RoundRect,0.225000X0.225000X0.250000X-0.225000X0.250000X-0.225000X-0.250000X0.225000X-0.250000X0*%
G04 APERTURE END LIST*
G36*
X92244595Y-29609596D02*
G01*
X91255404Y-29609596D01*
X91255404Y-29190402D01*
X92244595Y-29190402D01*
X92244595Y-29609596D01*
G37*
D10*
X92244595Y-29609596D02*
X91255404Y-29609596D01*
X91255404Y-29190402D01*
X92244595Y-29190402D01*
X92244595Y-29609596D01*
G36*
X92244595Y-30109595D02*
G01*
X91255404Y-30109595D01*
X91255404Y-29690404D01*
X92244595Y-29690404D01*
X92244595Y-30109595D01*
G37*
X92244595Y-30109595D02*
X91255404Y-30109595D01*
X91255404Y-29690404D01*
X92244595Y-29690404D01*
X92244595Y-30109595D01*
G36*
X92244595Y-30609594D02*
G01*
X91255404Y-30609594D01*
X91255404Y-30190403D01*
X92244595Y-30190403D01*
X92244595Y-30609594D01*
G37*
X92244595Y-30609594D02*
X91255404Y-30609594D01*
X91255404Y-30190403D01*
X92244595Y-30190403D01*
X92244595Y-30609594D01*
G36*
X92244595Y-31109596D02*
G01*
X91255404Y-31109596D01*
X91255404Y-30690402D01*
X92244595Y-30690402D01*
X92244595Y-31109596D01*
G37*
X92244595Y-31109596D02*
X91255404Y-31109596D01*
X91255404Y-30690402D01*
X92244595Y-30690402D01*
X92244595Y-31109596D01*
G36*
X92684406Y-29169595D02*
G01*
X92265214Y-29169595D01*
X92265214Y-28180404D01*
X92684406Y-28180404D01*
X92684406Y-29169595D01*
G37*
X92684406Y-29169595D02*
X92265214Y-29169595D01*
X92265214Y-28180404D01*
X92684406Y-28180404D01*
X92684406Y-29169595D01*
G36*
X92684406Y-32119594D02*
G01*
X92265214Y-32119594D01*
X92265214Y-31130403D01*
X92684406Y-31130403D01*
X92684406Y-32119594D01*
G37*
X92684406Y-32119594D02*
X92265214Y-32119594D01*
X92265214Y-31130403D01*
X92684406Y-31130403D01*
X92684406Y-32119594D01*
G36*
X92631299Y-31063499D02*
G01*
X92311499Y-31063499D01*
X92311499Y-29236499D01*
X92631299Y-29236499D01*
X92631299Y-31063499D01*
G37*
X92631299Y-31063499D02*
X92311499Y-31063499D01*
X92311499Y-29236499D01*
X92631299Y-29236499D01*
X92631299Y-31063499D01*
G36*
X94138499Y-29556299D02*
G01*
X92311499Y-29556299D01*
X92311499Y-29236499D01*
X94138499Y-29236499D01*
X94138499Y-29556299D01*
G37*
X94138499Y-29556299D02*
X92311499Y-29556299D01*
X92311499Y-29236499D01*
X94138499Y-29236499D01*
X94138499Y-29556299D01*
G36*
X94138499Y-30343699D02*
G01*
X92311499Y-30343699D01*
X92311499Y-29956299D01*
X94138499Y-29956299D01*
X94138499Y-30343699D01*
G37*
X94138499Y-30343699D02*
X92311499Y-30343699D01*
X92311499Y-29956299D01*
X94138499Y-29956299D01*
X94138499Y-30343699D01*
G36*
X94138499Y-31063499D02*
G01*
X92311499Y-31063499D01*
X92311499Y-30743699D01*
X94138499Y-30743699D01*
X94138499Y-31063499D01*
G37*
X94138499Y-31063499D02*
X92311499Y-31063499D01*
X92311499Y-30743699D01*
X94138499Y-30743699D01*
X94138499Y-31063499D01*
G36*
X93184532Y-29169595D02*
G01*
X92765340Y-29169595D01*
X92765340Y-28180404D01*
X93184532Y-28180404D01*
X93184532Y-29169595D01*
G37*
X93184532Y-29169595D02*
X92765340Y-29169595D01*
X92765340Y-28180404D01*
X93184532Y-28180404D01*
X93184532Y-29169595D01*
G36*
X93184532Y-32119594D02*
G01*
X92765340Y-32119594D01*
X92765340Y-31130403D01*
X93184532Y-31130403D01*
X93184532Y-32119594D01*
G37*
X93184532Y-32119594D02*
X92765340Y-32119594D01*
X92765340Y-31130403D01*
X93184532Y-31130403D01*
X93184532Y-32119594D01*
G36*
X93684658Y-29169595D02*
G01*
X93265466Y-29169595D01*
X93265466Y-28180404D01*
X93684658Y-28180404D01*
X93684658Y-29169595D01*
G37*
X93684658Y-29169595D02*
X93265466Y-29169595D01*
X93265466Y-28180404D01*
X93684658Y-28180404D01*
X93684658Y-29169595D01*
G36*
X93684658Y-32119594D02*
G01*
X93265466Y-32119594D01*
X93265466Y-31130403D01*
X93684658Y-31130403D01*
X93684658Y-32119594D01*
G37*
X93684658Y-32119594D02*
X93265466Y-32119594D01*
X93265466Y-31130403D01*
X93684658Y-31130403D01*
X93684658Y-32119594D01*
G36*
X93418699Y-31063499D02*
G01*
X93031299Y-31063499D01*
X93031299Y-29236499D01*
X93418699Y-29236499D01*
X93418699Y-31063499D01*
G37*
X93418699Y-31063499D02*
X93031299Y-31063499D01*
X93031299Y-29236499D01*
X93418699Y-29236499D01*
X93418699Y-31063499D01*
G36*
X94184784Y-29169595D02*
G01*
X93765592Y-29169595D01*
X93765592Y-28180404D01*
X94184784Y-28180404D01*
X94184784Y-29169595D01*
G37*
X94184784Y-29169595D02*
X93765592Y-29169595D01*
X93765592Y-28180404D01*
X94184784Y-28180404D01*
X94184784Y-29169595D01*
G36*
X94184784Y-32119594D02*
G01*
X93765592Y-32119594D01*
X93765592Y-31130403D01*
X94184784Y-31130403D01*
X94184784Y-32119594D01*
G37*
X94184784Y-32119594D02*
X93765592Y-32119594D01*
X93765592Y-31130403D01*
X94184784Y-31130403D01*
X94184784Y-32119594D01*
G36*
X94138499Y-31063499D02*
G01*
X93818699Y-31063499D01*
X93818699Y-29236499D01*
X94138499Y-29236499D01*
X94138499Y-31063499D01*
G37*
X94138499Y-31063499D02*
X93818699Y-31063499D01*
X93818699Y-29236499D01*
X94138499Y-29236499D01*
X94138499Y-31063499D01*
G36*
X95194594Y-29609596D02*
G01*
X94205403Y-29609596D01*
X94205403Y-29190402D01*
X95194594Y-29190402D01*
X95194594Y-29609596D01*
G37*
X95194594Y-29609596D02*
X94205403Y-29609596D01*
X94205403Y-29190402D01*
X95194594Y-29190402D01*
X95194594Y-29609596D01*
G36*
X95194594Y-30109595D02*
G01*
X94205403Y-30109595D01*
X94205403Y-29690404D01*
X95194594Y-29690404D01*
X95194594Y-30109595D01*
G37*
X95194594Y-30109595D02*
X94205403Y-30109595D01*
X94205403Y-29690404D01*
X95194594Y-29690404D01*
X95194594Y-30109595D01*
G36*
X95194594Y-30609594D02*
G01*
X94205403Y-30609594D01*
X94205403Y-30190403D01*
X95194594Y-30190403D01*
X95194594Y-30609594D01*
G37*
X95194594Y-30609594D02*
X94205403Y-30609594D01*
X94205403Y-30190403D01*
X95194594Y-30190403D01*
X95194594Y-30609594D01*
G36*
X95194594Y-31109596D02*
G01*
X94205403Y-31109596D01*
X94205403Y-30690402D01*
X95194594Y-30690402D01*
X95194594Y-31109596D01*
G37*
X95194594Y-31109596D02*
X94205403Y-31109596D01*
X94205403Y-30690402D01*
X95194594Y-30690402D01*
X95194594Y-31109596D01*
D11*
X96849999Y-42949999D03*
X96849999Y-40749999D03*
X95149999Y-40749999D03*
X95149999Y-42949999D03*
D12*
X81006999Y-44358999D03*
X89807999Y-44358999D03*
X80879999Y-48858999D03*
X89680999Y-48858999D03*
D13*
X85407999Y-51008999D03*
X85407999Y-42208999D03*
D14*
X113360000Y-21400000D03*
X112340000Y-21400000D03*
D15*
X106999999Y-34249999D03*
X106999999Y-31049999D03*
D16*
X102400000Y-52385000D03*
X102400000Y-53355000D03*
X101900000Y-46080000D03*
X101900000Y-47050000D03*
D17*
X99705000Y-39925000D03*
X98745000Y-39925000D03*
D18*
X113950000Y-56925000D03*
X113950000Y-55375000D03*
D19*
X99200000Y-43170000D03*
X99200000Y-44130000D03*
D20*
X109920000Y-43150000D03*
X110880000Y-43150000D03*
X120320000Y-35250000D03*
X121280000Y-35250000D03*
D17*
X94280000Y-27450000D03*
X93320000Y-27450000D03*
D14*
X121154000Y-39537000D03*
X120134000Y-39537000D03*
X90985000Y-32125000D03*
X89965000Y-32125000D03*
D21*
X83312000Y-33024000D03*
X83312000Y-32004000D03*
D22*
X86408800Y-29464000D03*
X87428800Y-29464000D03*
D19*
X103100000Y-46090000D03*
X103100000Y-47050000D03*
D23*
X118524099Y-39849999D03*
X118524099Y-39350000D03*
X118524099Y-38849998D03*
X118524099Y-38349999D03*
X118524099Y-37850000D03*
X118524099Y-37349998D03*
X118524099Y-36849999D03*
D24*
X117699999Y-36025899D03*
X117200000Y-36025899D03*
X116699998Y-36025899D03*
X116199999Y-36025899D03*
X115700000Y-36025899D03*
X115199998Y-36025899D03*
X114699999Y-36025899D03*
D23*
X113875899Y-36849999D03*
X113875899Y-37349998D03*
X113875899Y-37850000D03*
X113875899Y-38349999D03*
X113875899Y-38849998D03*
X113875899Y-39350000D03*
X113875899Y-39849999D03*
D24*
X114699999Y-40674099D03*
X115199998Y-40674099D03*
X115700000Y-40674099D03*
X116199999Y-40674099D03*
X116699998Y-40674099D03*
X117200000Y-40674099D03*
X117699999Y-40674099D03*
D25*
X116199999Y-38349999D03*
D14*
X118510000Y-34450000D03*
X117490000Y-34450000D03*
D26*
X94479999Y-53898799D03*
X95130000Y-53898799D03*
X95779998Y-53898799D03*
X96430000Y-53898799D03*
X97079998Y-53898799D03*
X97729997Y-53898799D03*
X98379998Y-53898799D03*
X99029997Y-53898799D03*
X99679998Y-53898799D03*
X100329997Y-53898799D03*
X100329999Y-48259999D03*
X99680001Y-48259999D03*
X99030000Y-48259999D03*
X98380001Y-48259999D03*
X97730000Y-48259999D03*
X97080001Y-48259999D03*
X96430000Y-48259999D03*
X95780001Y-48259999D03*
X95130000Y-48259999D03*
X94480001Y-48259999D03*
D27*
X91749997Y-29399997D03*
X91749997Y-29899998D03*
X91749997Y-30399998D03*
X91749997Y-30899999D03*
D28*
X92474809Y-31624999D03*
X92974935Y-31624999D03*
X93475061Y-31624999D03*
X93975187Y-31624999D03*
D27*
X94699999Y-30899999D03*
X94699999Y-30399998D03*
X94699999Y-29899998D03*
X94699999Y-29399997D03*
D28*
X93975187Y-28674997D03*
X93475061Y-28674997D03*
X92974935Y-28674997D03*
X92474809Y-28674997D03*
D29*
X92831299Y-29756299D03*
X92831299Y-30543699D03*
X93618699Y-29756299D03*
X93618699Y-30543699D03*
D30*
X104200000Y-34980000D03*
X104200000Y-34020000D03*
X88600000Y-28330000D03*
X88600000Y-27370000D03*
D20*
X110320000Y-38250000D03*
X111280000Y-38250000D03*
D31*
X82549999Y-27129999D03*
D32*
X82550000Y-24130000D03*
X82550000Y-21130000D03*
D33*
X82549999Y-18329999D03*
X82549999Y-29929999D03*
D20*
X100826000Y-45070000D03*
X101786000Y-45070000D03*
D34*
X102449999Y-43050000D03*
X102949998Y-43050000D03*
X103449997Y-43050000D03*
X103949999Y-43050000D03*
X104449998Y-43050000D03*
X104949999Y-43050000D03*
X105449999Y-43050000D03*
X105949997Y-43050000D03*
X106449999Y-43050000D03*
X106949998Y-43050000D03*
X107450000Y-43050000D03*
X107949999Y-43050000D03*
D35*
X108600000Y-42399999D03*
X108600000Y-41900000D03*
X108600000Y-41400001D03*
X108600000Y-40899999D03*
X108600000Y-40400000D03*
X108600000Y-39899999D03*
X108600000Y-39399999D03*
X108600000Y-38900001D03*
X108600000Y-38399999D03*
X108600000Y-37900000D03*
X108600000Y-37399998D03*
X108600000Y-36899999D03*
D34*
X107949999Y-36249998D03*
X107450000Y-36249998D03*
X106949998Y-36249998D03*
X106449999Y-36249998D03*
X105949997Y-36249998D03*
X105449999Y-36249998D03*
X104949999Y-36249998D03*
X104449998Y-36249998D03*
X103949999Y-36249998D03*
X103449997Y-36249998D03*
X102949998Y-36249998D03*
X102449999Y-36249998D03*
D35*
X101799998Y-36899999D03*
X101799998Y-37399998D03*
X101799998Y-37900000D03*
X101799998Y-38399999D03*
X101799998Y-38900001D03*
X101799998Y-39399999D03*
X101799998Y-39899999D03*
X101799998Y-40400000D03*
X101799998Y-40899999D03*
X101799998Y-41400001D03*
X101799998Y-41900000D03*
X101799998Y-42399999D03*
D36*
X104396499Y-41974999D03*
X106003501Y-41974999D03*
X102875001Y-40453501D03*
X104396499Y-40453501D03*
X106003501Y-40453501D03*
X107524999Y-40453501D03*
D37*
X105199999Y-39649999D03*
D36*
X102875001Y-38846499D03*
X104396499Y-38846499D03*
X106003501Y-38846499D03*
X107524999Y-38846499D03*
X104396499Y-37325001D03*
X106003501Y-37325001D03*
D17*
X99880000Y-41050000D03*
X98920000Y-41050000D03*
D38*
X108499999Y-49799999D03*
X108499999Y-47299999D03*
D14*
X121154000Y-40680000D03*
X120134000Y-40680000D03*
D39*
X116549999Y-31574999D03*
D40*
X116549999Y-30304999D03*
X117819999Y-31574999D03*
X117819999Y-30304999D03*
X119089999Y-31574999D03*
X119089999Y-30304999D03*
X120359999Y-31574999D03*
X120359999Y-30304999D03*
X121629999Y-31574999D03*
X121629999Y-30304999D03*
D19*
X88442800Y-29593600D03*
X88442800Y-30553600D03*
D41*
X101695999Y-18922999D03*
X103695999Y-18922999D03*
X105695999Y-18922999D03*
X107695999Y-18922999D03*
D42*
X109945999Y-23522999D03*
X99445999Y-23522999D03*
D19*
X113900000Y-49270000D03*
X113900000Y-50230000D03*
D14*
X87428800Y-30564000D03*
X86408800Y-30564000D03*
D17*
X102480000Y-51270000D03*
X101520000Y-51270000D03*
D18*
X102800000Y-34825000D03*
X102800000Y-33275000D03*
D43*
X112600000Y-56925000D03*
X112600000Y-58475000D03*
D20*
X115120000Y-56925000D03*
X116080000Y-56925000D03*
D44*
X116195000Y-25740000D03*
X116195000Y-19960000D03*
D45*
X115129999Y-26199999D03*
X115129999Y-25399999D03*
X115129999Y-24099999D03*
X115129999Y-23099999D03*
X115129999Y-22599999D03*
X115129999Y-21599999D03*
X115129999Y-20299999D03*
X115129999Y-19499999D03*
X115129999Y-19799999D03*
X115129999Y-20599999D03*
X115129999Y-21099999D03*
X115129999Y-22099999D03*
X115129999Y-23599999D03*
X115129999Y-24599999D03*
X115129999Y-25099999D03*
X115129999Y-25899999D03*
D46*
X115694999Y-27169999D03*
D47*
X119874999Y-27169999D03*
D46*
X115694999Y-18529999D03*
D47*
X119874999Y-18529999D03*
D30*
X110000000Y-37130000D03*
X110000000Y-36170000D03*
D20*
X102520000Y-48170000D03*
X103480000Y-48170000D03*
D14*
X82171000Y-37973000D03*
X81151000Y-37973000D03*
D20*
X102420000Y-54450000D03*
X103380000Y-54450000D03*
D48*
X84424000Y-35260000D03*
X84424000Y-34290000D03*
D21*
X99150000Y-35210000D03*
X99150000Y-34190000D03*
D17*
X109362500Y-56925000D03*
X108402500Y-56925000D03*
D30*
X110800000Y-50030000D03*
X110800000Y-49070000D03*
D20*
X121020000Y-38450000D03*
X121980000Y-38450000D03*
D22*
X112315000Y-22550000D03*
X113335000Y-22550000D03*
D20*
X120220000Y-36300000D03*
X121180000Y-36300000D03*
D19*
X110800000Y-47070000D03*
X110800000Y-48030000D03*
D49*
X110397500Y-56925000D03*
X111367500Y-56925000D03*
D20*
X120620000Y-37350000D03*
X121580000Y-37350000D03*
D19*
X104300000Y-46090000D03*
X104300000Y-47050000D03*
D22*
X113940000Y-53700000D03*
X114960000Y-53700000D03*
X95965188Y-28725000D03*
X96985188Y-28725000D03*
D16*
X102500000Y-49185000D03*
X102500000Y-50155000D03*
D50*
X115237999Y-52297799D03*
X115745999Y-52297799D03*
X116253999Y-52297799D03*
X116761999Y-52297799D03*
X116761999Y-49402199D03*
X116253999Y-49402199D03*
X115745999Y-49402199D03*
X115237999Y-49402199D03*
D51*
X115999999Y-50849999D03*
D21*
X112800000Y-25210000D03*
X112800000Y-24190000D03*
D48*
X84527000Y-32974000D03*
X84527000Y-32004000D03*
D21*
X82900000Y-35310000D03*
X82900000Y-34290000D03*
D14*
X121192000Y-41914000D03*
X120172000Y-41914000D03*
D49*
X101837000Y-44070000D03*
X102807000Y-44070000D03*
D52*
X101100000Y-33225000D03*
X101100000Y-34875000D03*
D49*
X103107000Y-45070000D03*
X104077000Y-45070000D03*
D53*
X104375000Y-31550000D03*
X102825000Y-31550000D03*
M02*
