G04 #@! TF.GenerationSoftware,KiCad,Pcbnew,(7.0.0)*
G04 #@! TF.CreationDate,2023-11-04T11:38:30-04:00*
G04 #@! TF.ProjectId,Emrick,456d7269-636b-42e6-9b69-6361645f7063,5.1*
G04 #@! TF.SameCoordinates,Original*
G04 #@! TF.FileFunction,Copper,L4,Bot*
G04 #@! TF.FilePolarity,Positive*
%FSLAX46Y46*%
G04 Gerber Fmt 4.6, Leading zero omitted, Abs format (unit mm)*
G04 Created by KiCad (PCBNEW (7.0.0)) date 2023-11-04 11:38:30*
%MOMM*%
%LPD*%
G01*
G04 APERTURE LIST*
G04 Aperture macros list*
%AMRoundRect*
0 Rectangle with rounded corners*
0 $1 Rounding radius*
0 $2 $3 $4 $5 $6 $7 $8 $9 X,Y pos of 4 corners*
0 Add a 4 corners polygon primitive as box body*
4,1,4,$2,$3,$4,$5,$6,$7,$8,$9,$2,$3,0*
0 Add four circle primitives for the rounded corners*
1,1,$1+$1,$2,$3*
1,1,$1+$1,$4,$5*
1,1,$1+$1,$6,$7*
1,1,$1+$1,$8,$9*
0 Add four rect primitives between the rounded corners*
20,1,$1+$1,$2,$3,$4,$5,0*
20,1,$1+$1,$4,$5,$6,$7,0*
20,1,$1+$1,$6,$7,$8,$9,0*
20,1,$1+$1,$8,$9,$2,$3,0*%
G04 Aperture macros list end*
G04 #@! TA.AperFunction,EtchedComponent*
%ADD10C,1.000000*%
G04 #@! TD*
G04 #@! TA.AperFunction,ComponentPad*
%ADD11C,1.000000*%
G04 #@! TD*
G04 #@! TA.AperFunction,ComponentPad*
%ADD12C,0.508000*%
G04 #@! TD*
G04 #@! TA.AperFunction,ComponentPad*
%ADD13R,1.800000X1.800000*%
G04 #@! TD*
G04 #@! TA.AperFunction,ComponentPad*
%ADD14C,1.800000*%
G04 #@! TD*
G04 #@! TA.AperFunction,ComponentPad*
%ADD15O,2.500000X1.200000*%
G04 #@! TD*
G04 #@! TA.AperFunction,ComponentPad*
%ADD16C,0.499999*%
G04 #@! TD*
G04 #@! TA.AperFunction,ComponentPad*
%ADD17R,1.000000X1.000000*%
G04 #@! TD*
G04 #@! TA.AperFunction,ComponentPad*
%ADD18O,1.000000X1.000000*%
G04 #@! TD*
G04 #@! TA.AperFunction,ComponentPad*
%ADD19O,2.100000X1.000000*%
G04 #@! TD*
G04 #@! TA.AperFunction,ComponentPad*
%ADD20O,1.600000X1.000000*%
G04 #@! TD*
G04 #@! TA.AperFunction,SMDPad,CuDef*
%ADD21RoundRect,0.135000X-0.135000X-0.185000X0.135000X-0.185000X0.135000X0.185000X-0.135000X0.185000X0*%
G04 #@! TD*
G04 #@! TA.AperFunction,SMDPad,CuDef*
%ADD22R,3.500000X2.350000*%
G04 #@! TD*
G04 #@! TA.AperFunction,SMDPad,CuDef*
%ADD23RoundRect,0.200000X-0.275000X0.200000X-0.275000X-0.200000X0.275000X-0.200000X0.275000X0.200000X0*%
G04 #@! TD*
G04 #@! TA.AperFunction,SMDPad,CuDef*
%ADD24RoundRect,0.135000X-0.185000X0.135000X-0.185000X-0.135000X0.185000X-0.135000X0.185000X0.135000X0*%
G04 #@! TD*
G04 #@! TA.AperFunction,SMDPad,CuDef*
%ADD25RoundRect,0.135000X0.135000X0.185000X-0.135000X0.185000X-0.135000X-0.185000X0.135000X-0.185000X0*%
G04 #@! TD*
G04 #@! TA.AperFunction,SMDPad,CuDef*
%ADD26R,0.700000X1.000000*%
G04 #@! TD*
G04 #@! TA.AperFunction,SMDPad,CuDef*
%ADD27R,0.700000X0.600000*%
G04 #@! TD*
G04 #@! TA.AperFunction,SMDPad,CuDef*
%ADD28R,0.660400X2.000000*%
G04 #@! TD*
G04 #@! TA.AperFunction,SMDPad,CuDef*
%ADD29R,0.762000X1.854200*%
G04 #@! TD*
G04 #@! TA.AperFunction,SMDPad,CuDef*
%ADD30RoundRect,0.140000X0.140000X0.170000X-0.140000X0.170000X-0.140000X-0.170000X0.140000X-0.170000X0*%
G04 #@! TD*
G04 #@! TA.AperFunction,SMDPad,CuDef*
%ADD31RoundRect,0.225000X-0.250000X0.225000X-0.250000X-0.225000X0.250000X-0.225000X0.250000X0.225000X0*%
G04 #@! TD*
G04 #@! TA.AperFunction,SMDPad,CuDef*
%ADD32RoundRect,0.140000X0.170000X-0.140000X0.170000X0.140000X-0.170000X0.140000X-0.170000X-0.140000X0*%
G04 #@! TD*
G04 #@! TA.AperFunction,SMDPad,CuDef*
%ADD33R,0.800000X1.900000*%
G04 #@! TD*
G04 #@! TA.AperFunction,SMDPad,CuDef*
%ADD34RoundRect,0.225000X0.250000X-0.225000X0.250000X0.225000X-0.250000X0.225000X-0.250000X-0.225000X0*%
G04 #@! TD*
G04 #@! TA.AperFunction,SMDPad,CuDef*
%ADD35R,0.600000X0.250000*%
G04 #@! TD*
G04 #@! TA.AperFunction,SMDPad,CuDef*
%ADD36R,0.600000X0.249200*%
G04 #@! TD*
G04 #@! TA.AperFunction,SMDPad,CuDef*
%ADD37R,0.250000X2.400000*%
G04 #@! TD*
G04 #@! TA.AperFunction,SMDPad,CuDef*
%ADD38R,0.300000X0.900000*%
G04 #@! TD*
G04 #@! TA.AperFunction,SMDPad,CuDef*
%ADD39R,0.300000X1.200000*%
G04 #@! TD*
G04 #@! TA.AperFunction,SMDPad,CuDef*
%ADD40RoundRect,0.135000X0.185000X-0.135000X0.185000X0.135000X-0.185000X0.135000X-0.185000X-0.135000X0*%
G04 #@! TD*
G04 #@! TA.AperFunction,ViaPad*
%ADD41C,0.600000*%
G04 #@! TD*
G04 #@! TA.AperFunction,ViaPad*
%ADD42C,0.800000*%
G04 #@! TD*
G04 #@! TA.AperFunction,ViaPad*
%ADD43C,0.700000*%
G04 #@! TD*
G04 #@! TA.AperFunction,Conductor*
%ADD44C,0.300000*%
G04 #@! TD*
G04 #@! TA.AperFunction,Conductor*
%ADD45C,0.250000*%
G04 #@! TD*
G04 #@! TA.AperFunction,Conductor*
%ADD46C,0.800000*%
G04 #@! TD*
G04 #@! TA.AperFunction,Conductor*
%ADD47C,0.500000*%
G04 #@! TD*
G04 APERTURE END LIST*
D10*
X122100000Y-73600000D02*
X121100000Y-72600000D01*
X121100000Y-72600000D02*
X121100000Y-69600000D01*
X121100000Y-69600000D02*
X120100000Y-68600000D01*
X120100000Y-73600000D02*
X119100000Y-72600000D01*
X119100000Y-72600000D02*
X119100000Y-69600000D01*
X119100000Y-69600000D02*
X118100000Y-68600000D01*
X118100000Y-73600000D02*
X117100000Y-72600000D01*
X117100000Y-72600000D02*
X117100000Y-69600000D01*
X117100000Y-69600000D02*
X116100000Y-68600000D01*
X116100000Y-73600000D02*
X115100000Y-72600000D01*
X115100000Y-72600000D02*
X115100000Y-69600000D01*
X115100000Y-69600000D02*
X114100000Y-68600000D01*
X114100000Y-73600000D02*
X113100000Y-72600000D01*
X113100000Y-72600000D02*
X113100000Y-69600000D01*
X113100000Y-69600000D02*
X112100000Y-68600000D01*
X112100000Y-73600000D02*
X111100000Y-72600000D01*
X111100000Y-72600000D02*
X111100000Y-69600000D01*
X111100000Y-69600000D02*
X110100000Y-68600000D01*
X110100000Y-73600000D02*
X109100000Y-72600000D01*
X109100000Y-72600000D02*
X109100000Y-69600000D01*
X109100000Y-69600000D02*
X108100000Y-68600000D01*
X108100000Y-73600000D02*
X107100000Y-72600000D01*
X107100000Y-72600000D02*
X107100000Y-69600000D01*
X107100000Y-69600000D02*
X106100000Y-68600000D01*
X106100000Y-73600000D02*
X105100000Y-72600000D01*
X105100000Y-72600000D02*
X105100000Y-69600000D01*
X105100000Y-69600000D02*
X104100000Y-68600000D01*
X104110000Y-73600000D02*
X103110000Y-72600000D01*
X103110000Y-72600000D02*
X103110000Y-69600000D01*
X103110000Y-69600000D02*
X102110000Y-68600000D01*
X102120000Y-73600000D02*
X101120000Y-72600000D01*
X101120000Y-72600000D02*
X101120000Y-69600000D01*
X101120000Y-69600000D02*
X100120000Y-68600000D01*
X100130000Y-73600000D02*
X99130000Y-72600000D01*
X99130000Y-72600000D02*
X99130000Y-69600000D01*
X99130000Y-69600000D02*
X98130000Y-68600000D01*
X98140000Y-73600000D02*
X97140000Y-72600000D01*
X97140000Y-72600000D02*
X97140000Y-69600000D01*
X97140000Y-69600000D02*
X96140000Y-68600000D01*
X96140000Y-73600000D02*
X95140000Y-72600000D01*
X95140000Y-72600000D02*
X95140000Y-69600000D01*
X95140000Y-69600000D02*
X94140000Y-68600000D01*
X94150000Y-73600000D02*
X93150000Y-72600000D01*
X93150000Y-72600000D02*
X93150000Y-69600000D01*
X93150000Y-69600000D02*
X92150000Y-68600000D01*
X92160000Y-73600000D02*
X91160000Y-72600000D01*
X91160000Y-72600000D02*
X91160000Y-69600000D01*
X91160000Y-69600000D02*
X90160000Y-68600000D01*
X90170000Y-73600000D02*
X89170000Y-72600000D01*
X89170000Y-72600000D02*
X89170000Y-69600000D01*
X89170000Y-69600000D02*
X88170000Y-68600000D01*
X88170000Y-73600000D02*
X87170000Y-72600000D01*
X87170000Y-72600000D02*
X87170000Y-69600000D01*
X87170000Y-69600000D02*
X86170000Y-68600000D01*
X86180000Y-73600000D02*
X85180000Y-72600000D01*
X85180000Y-72600000D02*
X85180000Y-69600000D01*
X85180000Y-69600000D02*
X84180000Y-68600000D01*
X84190000Y-73600000D02*
X83190000Y-72600000D01*
X83190000Y-72600000D02*
X83190000Y-69600000D01*
X83190000Y-69600000D02*
X82190000Y-68600000D01*
X82200000Y-73600000D02*
X81200000Y-72600000D01*
X81200000Y-72600000D02*
X81200000Y-69600000D01*
X81200000Y-69600000D02*
X80200000Y-68600000D01*
D11*
X122100000Y-73600000D03*
X120100000Y-73600000D03*
X120100000Y-68600000D03*
X118100000Y-73600000D03*
X118100000Y-68600000D03*
X116100000Y-73600000D03*
X116100000Y-68600000D03*
X114100000Y-73600000D03*
X114100000Y-68600000D03*
X112100000Y-73600000D03*
X112100000Y-68600000D03*
X110100000Y-73600000D03*
X110100000Y-68600000D03*
X108100000Y-73600000D03*
X108100000Y-68600000D03*
X106100000Y-73600000D03*
X106100000Y-68600000D03*
X104100000Y-73600000D03*
X104100000Y-68600000D03*
X102110000Y-73600000D03*
X102110000Y-68600000D03*
X100120000Y-73600000D03*
X100120000Y-68600000D03*
X98130000Y-73600000D03*
X98130000Y-68600000D03*
X96140000Y-73600000D03*
X96140000Y-68600000D03*
X94140000Y-73600000D03*
X94140000Y-68600000D03*
X92150000Y-73600000D03*
X92150000Y-68600000D03*
X90160000Y-73600000D03*
X90160000Y-68600000D03*
X88170000Y-73600000D03*
X88170000Y-68600000D03*
X86170000Y-73600000D03*
X86170000Y-68600000D03*
X84180000Y-73600000D03*
X84180000Y-68600000D03*
X82190000Y-73600000D03*
X82190000Y-68600000D03*
X80200000Y-73600000D03*
X80200000Y-68600000D03*
D12*
X92831299Y-29756299D03*
X92831299Y-30543699D03*
X93618699Y-29756299D03*
X93618699Y-30543699D03*
D13*
X82549999Y-27129999D03*
D14*
X82550000Y-24130000D03*
X82550000Y-21130000D03*
D15*
X82549999Y-18329999D03*
X82549999Y-29929999D03*
D16*
X104396499Y-41974999D03*
X106003501Y-41974999D03*
X102875001Y-40453501D03*
X104396499Y-40453501D03*
X106003501Y-40453501D03*
X107524999Y-40453501D03*
X102875001Y-38846499D03*
X104396499Y-38846499D03*
X106003501Y-38846499D03*
X107524999Y-38846499D03*
X104396499Y-37325001D03*
X106003501Y-37325001D03*
D17*
X116549999Y-31574999D03*
D18*
X116549999Y-30304999D03*
X117819999Y-31574999D03*
X117819999Y-30304999D03*
X119089999Y-31574999D03*
X119089999Y-30304999D03*
X120359999Y-31574999D03*
X120359999Y-30304999D03*
X121629999Y-31574999D03*
X121629999Y-30304999D03*
D19*
X115694999Y-27169999D03*
D20*
X119874999Y-27169999D03*
D19*
X115694999Y-18529999D03*
D20*
X119874999Y-18529999D03*
D21*
X101740190Y-21580000D03*
X102760190Y-21580000D03*
D22*
X104799999Y-30424999D03*
X104799999Y-24374999D03*
D23*
X98517500Y-26117500D03*
X98517500Y-27767500D03*
D24*
X118825000Y-28090000D03*
X118825000Y-29110000D03*
D25*
X102910000Y-18800000D03*
X101890000Y-18800000D03*
D26*
X120074999Y-20399999D03*
D27*
X120074999Y-22099999D03*
X118074999Y-22099999D03*
X118074999Y-20199999D03*
D28*
X86692000Y-24261399D03*
X88391999Y-24261399D03*
X90091998Y-24261399D03*
D29*
X85316999Y-18795999D03*
X91466999Y-18795999D03*
D25*
X100760000Y-20975000D03*
X99740000Y-20975000D03*
D30*
X102380000Y-19900000D03*
X101420000Y-19900000D03*
D31*
X110625000Y-22750000D03*
X110625000Y-24300000D03*
D32*
X117750000Y-29080000D03*
X117750000Y-28120000D03*
D33*
X93699999Y-35899999D03*
X91799999Y-35899999D03*
X92749999Y-32899999D03*
X100349999Y-33149999D03*
X98449999Y-33149999D03*
X99399999Y-30149999D03*
D31*
X108775000Y-19825000D03*
X108775000Y-21375000D03*
D34*
X107225000Y-21375000D03*
X107225000Y-19825000D03*
D24*
X96575000Y-37615000D03*
X96575000Y-38635000D03*
D30*
X105050190Y-18720000D03*
X104090190Y-18720000D03*
D35*
X104140000Y-19889999D03*
X104140000Y-20387730D03*
D36*
X104140000Y-20887856D03*
X104140000Y-21387982D03*
D37*
X105040000Y-20639999D03*
D38*
X105580600Y-21382205D03*
D39*
X105580600Y-20042205D03*
D23*
X96917500Y-26117500D03*
X96917500Y-27767500D03*
D33*
X97249999Y-32849999D03*
X95349999Y-32849999D03*
X96299999Y-29849999D03*
D40*
X121675000Y-20545000D03*
X121675000Y-19525000D03*
D23*
X95317500Y-26117500D03*
X95317500Y-27767500D03*
D41*
X98050000Y-19475000D03*
D42*
X120450000Y-33700000D03*
X98298000Y-45720000D03*
D41*
X93600000Y-43250000D03*
X106225000Y-21700000D03*
X113711515Y-18105387D03*
X108525000Y-59950000D03*
D43*
X112729962Y-47808742D03*
D41*
X88900000Y-32224500D03*
D42*
X113950000Y-26700000D03*
D41*
X122200000Y-51850000D03*
X101525000Y-25950000D03*
X118000000Y-45200000D03*
X122300000Y-46200000D03*
X121725000Y-22000000D03*
X98750000Y-17475000D03*
X100975000Y-25525000D03*
X98075000Y-17475000D03*
D42*
X115200000Y-37450000D03*
D41*
X121675000Y-56650000D03*
D42*
X116025000Y-50875000D03*
D41*
X113675000Y-23425000D03*
D42*
X111700000Y-29950000D03*
D41*
X121000000Y-52950000D03*
X106200000Y-21050000D03*
X116550000Y-59975000D03*
X99225000Y-21775000D03*
X98725000Y-18150000D03*
X98075000Y-18775000D03*
X105000000Y-50200000D03*
X97775000Y-28725000D03*
X101000000Y-24825000D03*
D42*
X117200000Y-39200000D03*
D43*
X103700000Y-49200000D03*
D42*
X117200000Y-37450000D03*
D41*
X106900000Y-52950000D03*
X109950000Y-51600000D03*
D43*
X104700000Y-53650000D03*
D41*
X109950000Y-34700000D03*
X86093000Y-31489000D03*
X119175000Y-54500000D03*
D42*
X94437200Y-45618400D03*
D41*
X111000000Y-44050000D03*
X119075000Y-60150000D03*
X102925000Y-60000000D03*
X98700000Y-33400000D03*
X105900000Y-54600000D03*
X98075000Y-18125000D03*
X95375000Y-32200000D03*
X120875000Y-24675000D03*
X98700000Y-18900000D03*
D42*
X115200000Y-39200000D03*
D41*
X109850000Y-53750000D03*
X119650000Y-51600000D03*
D43*
X100450000Y-51200000D03*
D41*
X121900000Y-53850000D03*
X101100000Y-18450000D03*
X85852000Y-32512000D03*
D42*
X98136787Y-38364700D03*
D41*
X111158411Y-37208411D03*
X111762500Y-39512500D03*
X100150000Y-35291442D03*
D42*
X112200000Y-42450000D03*
D41*
X121275000Y-28475000D03*
X116000000Y-34250000D03*
D42*
X120200000Y-42950000D03*
D41*
X108450000Y-45950000D03*
X105425500Y-45875000D03*
X112100000Y-28500000D03*
X112650000Y-39300000D03*
X101700000Y-35800000D03*
X110299367Y-30633506D03*
D42*
X96774000Y-25118000D03*
X113030000Y-19812000D03*
X117094000Y-21336000D03*
D41*
X100880000Y-43170000D03*
X107000000Y-32397502D03*
X100658411Y-40791589D03*
X109000000Y-44125000D03*
D42*
X90805000Y-39751000D03*
D41*
X90100000Y-33100000D03*
X91200000Y-34100000D03*
X99099784Y-38284881D03*
X97500000Y-39000000D03*
X96300000Y-31350000D03*
X100900498Y-35800780D03*
X92699500Y-35003261D03*
X95500000Y-38400000D03*
X96366074Y-35308426D03*
X97627307Y-37623396D03*
X113100000Y-52750000D03*
D42*
X101200000Y-31750000D03*
D41*
X114424156Y-32825500D03*
D42*
X104500000Y-33147002D03*
D41*
X105250000Y-26275000D03*
X88327502Y-34798000D03*
D42*
X114582920Y-30311050D03*
X113437701Y-33962299D03*
D41*
X108325501Y-35700000D03*
X111450000Y-32397502D03*
X110650497Y-32397502D03*
X107583099Y-35403277D03*
X110423339Y-31423339D03*
X106784108Y-35431875D03*
X91106051Y-25688894D03*
D42*
X111760000Y-26924000D03*
X111873114Y-24033374D03*
X111881829Y-25030833D03*
D41*
X87132531Y-34665469D03*
D42*
X111760000Y-25908000D03*
X118812707Y-23616382D03*
D41*
X119025000Y-20200000D03*
X120200000Y-38700000D03*
X119875734Y-37849500D03*
D42*
X118063207Y-22620860D03*
D41*
X112912254Y-48638453D03*
X105500000Y-35400000D03*
X107052985Y-43897015D03*
D42*
X95123000Y-52070000D03*
D41*
X110700000Y-41650000D03*
X115700000Y-44950000D03*
X116700000Y-48150000D03*
X110200000Y-40850000D03*
X109414683Y-40700062D03*
X113500000Y-47450000D03*
D42*
X102000000Y-29300000D03*
D41*
X113858420Y-27675500D03*
D42*
X109150048Y-29449951D03*
X102000000Y-27500000D03*
X102000000Y-30200000D03*
X102000000Y-28400000D03*
D41*
X119400000Y-35200000D03*
X112099500Y-40550000D03*
X110958728Y-39843088D03*
D42*
X112574814Y-23321600D03*
X118650000Y-36000000D03*
D41*
X109614558Y-38857499D03*
X112099500Y-38577378D03*
X92200000Y-27000000D03*
X111483531Y-34933531D03*
X110833531Y-35583531D03*
X112600000Y-36650000D03*
X96650000Y-36600000D03*
X110186629Y-40050609D03*
X102849810Y-18124500D03*
D42*
X87376000Y-21336000D03*
D41*
X121650000Y-18575000D03*
X108049333Y-44125500D03*
D42*
X81534000Y-40132000D03*
D44*
X96999999Y-18974999D02*
X96999999Y-18562000D01*
D45*
X101890000Y-18800000D02*
X101100000Y-18450000D01*
D44*
X97212999Y-18775000D02*
X96999999Y-18562000D01*
X98075000Y-18775000D02*
X97212999Y-18775000D01*
X99225000Y-21775000D02*
X99225000Y-21490000D01*
X96999999Y-18075001D02*
X96999999Y-18562000D01*
X97436999Y-18125000D02*
X96999999Y-18562000D01*
X98075000Y-17475000D02*
X97600000Y-17475000D01*
X98075000Y-18125000D02*
X97436999Y-18125000D01*
X97600000Y-17475000D02*
X96999999Y-18075001D01*
D45*
X95200000Y-32500000D02*
X95350000Y-32850000D01*
D44*
X97500000Y-19475000D02*
X96999999Y-18974999D01*
X99225000Y-21490000D02*
X99740000Y-20975000D01*
X98050000Y-19475000D02*
X97500000Y-19475000D01*
D45*
X90608884Y-39025000D02*
X96185000Y-39025000D01*
X120890000Y-28090000D02*
X121275000Y-28475000D01*
X98126487Y-38375000D02*
X96835000Y-38375000D01*
D44*
X111158411Y-37208411D02*
X111158411Y-37172350D01*
D45*
X85852000Y-32512000D02*
X86360000Y-33020000D01*
X98136787Y-38364700D02*
X98126487Y-38375000D01*
X96835000Y-38375000D02*
X96575000Y-38635000D01*
D44*
X113580761Y-34750000D02*
X113900000Y-34750000D01*
D45*
X86360000Y-34776116D02*
X90608884Y-39025000D01*
D44*
X111158411Y-37172350D02*
X113580761Y-34750000D01*
D45*
X118825000Y-28090000D02*
X120890000Y-28090000D01*
D44*
X113900000Y-34750000D02*
X115500000Y-34750000D01*
D45*
X96185000Y-39025000D02*
X96575000Y-38635000D01*
X86360000Y-33020000D02*
X86360000Y-34776116D01*
D44*
X115500000Y-34750000D02*
X116000000Y-34250000D01*
D45*
X105500500Y-45950000D02*
X108450000Y-45950000D01*
X105425500Y-45875000D02*
X105500500Y-45950000D01*
X117780000Y-29110000D02*
X117750000Y-29080000D01*
X121630000Y-30305000D02*
X120435000Y-29110000D01*
X118825000Y-29110000D02*
X117780000Y-29110000D01*
X120435000Y-29110000D02*
X118825000Y-29110000D01*
X117094000Y-21336000D02*
X119311000Y-21336000D01*
X119311000Y-21336000D02*
X120075000Y-22100000D01*
X90904500Y-39850500D02*
X98444384Y-39850500D01*
X98444384Y-39850500D02*
X101318884Y-42725000D01*
X107600000Y-42725000D02*
X109000000Y-44125000D01*
X90805000Y-39751000D02*
X90904500Y-39850500D01*
X101318884Y-42725000D02*
X107600000Y-42725000D01*
X97875000Y-39375000D02*
X97500000Y-39000000D01*
X98802881Y-39375000D02*
X97875000Y-39375000D01*
X99099784Y-39078097D02*
X98802881Y-39375000D01*
X90200000Y-33100000D02*
X91200000Y-34100000D01*
X99099784Y-38284881D02*
X99099784Y-39078097D01*
X90100000Y-33100000D02*
X90200000Y-33100000D01*
X96000000Y-34200000D02*
X96300000Y-33900000D01*
X92699500Y-35003261D02*
X92975000Y-34727761D01*
X96938604Y-34125000D02*
X97930546Y-35116942D01*
X100776278Y-35925000D02*
X100900498Y-35800780D01*
X92975000Y-34727761D02*
X92975000Y-34625000D01*
X96525000Y-34125000D02*
X96938604Y-34125000D01*
X96300000Y-31350000D02*
X96300000Y-33900000D01*
X96300000Y-33900000D02*
X96525000Y-34125000D01*
X92975000Y-34625000D02*
X93400000Y-34200000D01*
X99141116Y-35925000D02*
X100776278Y-35925000D01*
X98333058Y-35116942D02*
X99141116Y-35925000D01*
X93400000Y-34200000D02*
X96000000Y-34200000D01*
X97930546Y-35116942D02*
X98333058Y-35116942D01*
X97627307Y-37623396D02*
X97627307Y-36569659D01*
X95500000Y-36174500D02*
X95500000Y-38400000D01*
X96366074Y-35308426D02*
X95500000Y-36174500D01*
X97627307Y-36569659D02*
X96366074Y-35308426D01*
D46*
X104090190Y-18720000D02*
X104100000Y-18729810D01*
X104100000Y-18729810D02*
X104100000Y-19662731D01*
X104100000Y-19662731D02*
X104140001Y-19662731D01*
D47*
X104500000Y-33147002D02*
X102597002Y-33147002D01*
X102597002Y-33147002D02*
X101200000Y-31750000D01*
D45*
X102760190Y-20280190D02*
X102380000Y-19900000D01*
X104140001Y-20887857D02*
X103452333Y-20887857D01*
X102110190Y-20930000D02*
X100805000Y-20930000D01*
X103452333Y-20887857D02*
X102760190Y-21580000D01*
X102760190Y-21580000D02*
X102760190Y-20280190D01*
X102760190Y-21580000D02*
X102110190Y-20930000D01*
X100805000Y-20930000D02*
X100760000Y-20975000D01*
X91071157Y-25654000D02*
X89504399Y-25654000D01*
X88392000Y-24541601D02*
X88392000Y-24261400D01*
X89504399Y-25654000D02*
X88392000Y-24541601D01*
X91106051Y-25688894D02*
X91071157Y-25654000D01*
X91575000Y-26122914D02*
X92678914Y-25019000D01*
X95806000Y-25019000D02*
X98600000Y-22225000D01*
X99800000Y-18600000D02*
X99800000Y-19400000D01*
X99580700Y-23275000D02*
X98600000Y-22294300D01*
X100900000Y-17500000D02*
X99800000Y-18600000D01*
X91575000Y-29583000D02*
X91575000Y-26122914D01*
X100000000Y-19900000D02*
X98750000Y-19900000D01*
X87132531Y-32858585D02*
X88391116Y-31600000D01*
X105260190Y-17500000D02*
X100900000Y-17500000D01*
X87132531Y-34665469D02*
X87132531Y-32858585D01*
X107580190Y-19820000D02*
X105260190Y-17500000D01*
X100608884Y-23275000D02*
X99580700Y-23275000D01*
X98600000Y-22225000D02*
X98600000Y-20050000D01*
X98600000Y-20050000D02*
X98750000Y-19900000D01*
X89558000Y-31600000D02*
X91575000Y-29583000D01*
X92678914Y-25019000D02*
X95806000Y-25019000D01*
X88391116Y-31600000D02*
X89558000Y-31600000D01*
X99800000Y-19400000D02*
X100300000Y-19900000D01*
X100300000Y-19900000D02*
X100000000Y-19900000D01*
X100300000Y-19900000D02*
X101420000Y-19900000D01*
X101740190Y-21580000D02*
X101740190Y-22143694D01*
X98600000Y-22294300D02*
X98600000Y-20050000D01*
X101740190Y-22143694D02*
X100608884Y-23275000D01*
X122905000Y-28096878D02*
X122905000Y-35995000D01*
X118618605Y-23810484D02*
X122905000Y-28096878D01*
X118812707Y-23616382D02*
X118618605Y-23810484D01*
X122905000Y-35995000D02*
X120200000Y-38700000D01*
D44*
X118075000Y-20200000D02*
X119025000Y-20200000D01*
D45*
X122455000Y-35649595D02*
X120255095Y-37849500D01*
X120255095Y-37849500D02*
X119875734Y-37849500D01*
X118063207Y-22111793D02*
X118075000Y-22100000D01*
X118063207Y-23891481D02*
X122455000Y-28283274D01*
X118063207Y-22620860D02*
X118063207Y-22111793D01*
X118063207Y-22620860D02*
X118063207Y-23891481D01*
X122455000Y-28283274D02*
X122455000Y-35649595D01*
D44*
X95123000Y-52070000D02*
X95123000Y-47327000D01*
X95123000Y-47327000D02*
X98200000Y-44250000D01*
X98200000Y-44250000D02*
X98298000Y-44250000D01*
D45*
X106700000Y-44250000D02*
X107052985Y-43897015D01*
X98298000Y-44250000D02*
X106700000Y-44250000D01*
X110700000Y-41650000D02*
X112425305Y-41650000D01*
X115700000Y-44924695D02*
X115700000Y-44950000D01*
X112425305Y-41650000D02*
X115700000Y-44924695D01*
X110075000Y-41925000D02*
X116300000Y-48150000D01*
X116300000Y-48150000D02*
X116700000Y-48150000D01*
X110075000Y-40975000D02*
X110075000Y-41925000D01*
X110200000Y-40850000D02*
X110075000Y-40975000D01*
X109414683Y-43364683D02*
X113500000Y-47450000D01*
X109414683Y-40700062D02*
X109414683Y-43364683D01*
X96300000Y-29850000D02*
X96300000Y-28385000D01*
X96300000Y-28385000D02*
X96917500Y-27767500D01*
X92750000Y-32900000D02*
X95317500Y-30332500D01*
X95317500Y-30332500D02*
X95317500Y-27767500D01*
X99400000Y-28650000D02*
X98517500Y-27767500D01*
X99400000Y-30150000D02*
X99400000Y-28650000D01*
X119400000Y-35200000D02*
X117100000Y-32900000D01*
X113858420Y-31270121D02*
X113858420Y-27675500D01*
X115488299Y-32900000D02*
X113858420Y-31270121D01*
X117100000Y-32900000D02*
X115488299Y-32900000D01*
X111665640Y-40550000D02*
X112099500Y-40550000D01*
X110958728Y-39843088D02*
X111665640Y-40550000D01*
X113175000Y-23921786D02*
X112574814Y-23321600D01*
X113175000Y-32675000D02*
X113950000Y-33450000D01*
X116100000Y-33450000D02*
X118650000Y-36000000D01*
X113950000Y-33450000D02*
X116100000Y-33450000D01*
X113175000Y-32675000D02*
X113175000Y-23921786D01*
D44*
X111819379Y-38857499D02*
X112099500Y-38577378D01*
X109614558Y-38857499D02*
X111819379Y-38857499D01*
D45*
X92216810Y-26983190D02*
X92200000Y-27000000D01*
X95317500Y-26117500D02*
X96917500Y-26117500D01*
X92216810Y-26117500D02*
X92216810Y-26983190D01*
X92216810Y-26117500D02*
X95317500Y-26117500D01*
X96917500Y-26117500D02*
X98517500Y-26117500D01*
X111483531Y-34933531D02*
X110625000Y-34075000D01*
X110625000Y-34075000D02*
X100193150Y-34075000D01*
X108176327Y-34666942D02*
X98116942Y-34666942D01*
X110833531Y-35583531D02*
X109092916Y-35583531D01*
X109092916Y-35583531D02*
X108176327Y-34666942D01*
X97250000Y-33800000D02*
X97250000Y-32850000D01*
X98116942Y-34666942D02*
X97250000Y-33800000D01*
X97123115Y-35182290D02*
X96590825Y-34650000D01*
X94950000Y-34650000D02*
X93700000Y-35900000D01*
X102400780Y-36425780D02*
X98900780Y-36425780D01*
X112600000Y-36650000D02*
X111017001Y-38232999D01*
X97123115Y-35429778D02*
X97123115Y-35182290D01*
X98270894Y-35795894D02*
X97489231Y-35795894D01*
X111017001Y-38232999D02*
X104207999Y-38232999D01*
X104207999Y-38232999D02*
X102400780Y-36425780D01*
X96590825Y-34650000D02*
X94950000Y-34650000D01*
X97489231Y-35795894D02*
X97123115Y-35429778D01*
X98900780Y-36425780D02*
X98270894Y-35795894D01*
X96575000Y-36675000D02*
X96650000Y-36600000D01*
X96575000Y-37615000D02*
X96575000Y-36675000D01*
X103500000Y-20186334D02*
X103500000Y-20088036D01*
X103500000Y-20088036D02*
X103330000Y-19918036D01*
X103330000Y-19918036D02*
X103330000Y-19220000D01*
X104140001Y-20387731D02*
X104087731Y-20387731D01*
X102849810Y-18124500D02*
X102910000Y-18184690D01*
X102910000Y-18184690D02*
X102910000Y-19060190D01*
X104000000Y-20387731D02*
X103701397Y-20387731D01*
X103330000Y-19220000D02*
X102910000Y-18800000D01*
X103701397Y-20387731D02*
X103506833Y-20193167D01*
X104087731Y-20387731D02*
X104000000Y-20387731D01*
D46*
X90091999Y-22768001D02*
X90091999Y-24261400D01*
X88659998Y-21336000D02*
X90091999Y-22768001D01*
X87376000Y-21336000D02*
X88659998Y-21336000D01*
D45*
X121650000Y-18575000D02*
X121650000Y-19500000D01*
X121650000Y-19500000D02*
X121675000Y-19525000D01*
X107289854Y-43250000D02*
X108049333Y-44009479D01*
X108049333Y-44009479D02*
X108049333Y-44125500D01*
X85765884Y-40132000D02*
X86208884Y-40575000D01*
X95408884Y-40575000D02*
X98633884Y-43800000D01*
X101725000Y-43250000D02*
X107289854Y-43250000D01*
X98633884Y-43800000D02*
X101175000Y-43800000D01*
X101175000Y-43800000D02*
X101725000Y-43250000D01*
X81534000Y-40132000D02*
X85765884Y-40132000D01*
X86208884Y-40575000D02*
X95408884Y-40575000D01*
G04 #@! TA.AperFunction,Conductor*
G36*
X81337384Y-17105300D02*
G01*
X81401331Y-17122902D01*
X81447480Y-17170539D01*
X81463043Y-17235012D01*
X81443709Y-17298456D01*
X81394835Y-17343293D01*
X81303313Y-17390476D01*
X81303308Y-17390478D01*
X81297974Y-17393229D01*
X81293257Y-17396938D01*
X81293253Y-17396941D01*
X81136281Y-17520384D01*
X81136271Y-17520393D01*
X81131568Y-17524092D01*
X81127645Y-17528618D01*
X81127640Y-17528624D01*
X80996867Y-17679543D01*
X80996861Y-17679550D01*
X80992935Y-17684082D01*
X80989933Y-17689281D01*
X80989932Y-17689283D01*
X80890089Y-17862217D01*
X80890086Y-17862223D01*
X80887087Y-17867418D01*
X80885125Y-17873086D01*
X80885123Y-17873091D01*
X80819811Y-18061796D01*
X80819809Y-18061804D01*
X80817847Y-18067473D01*
X80816993Y-18073410D01*
X80816991Y-18073420D01*
X80788915Y-18268695D01*
X80787719Y-18277016D01*
X80797792Y-18488474D01*
X80799207Y-18494307D01*
X80799208Y-18494313D01*
X80829049Y-18617316D01*
X80847702Y-18694204D01*
X80850196Y-18699665D01*
X80933150Y-18881311D01*
X80933152Y-18881315D01*
X80935644Y-18886771D01*
X81058441Y-19059215D01*
X81062783Y-19063355D01*
X81182658Y-19177656D01*
X81211654Y-19205303D01*
X81389746Y-19319756D01*
X81586279Y-19398436D01*
X81794151Y-19438500D01*
X83249802Y-19438500D01*
X83252803Y-19438500D01*
X83410739Y-19423419D01*
X83613862Y-19363777D01*
X83802026Y-19266771D01*
X83968432Y-19135908D01*
X84107065Y-18975918D01*
X84212913Y-18792582D01*
X84273573Y-18617314D01*
X84307888Y-18565292D01*
X84362938Y-18536078D01*
X84425255Y-18536819D01*
X84444591Y-18542000D01*
X86189410Y-18542000D01*
X86202493Y-18538493D01*
X86206000Y-18525410D01*
X86206000Y-17823677D01*
X86205640Y-17816961D01*
X86200337Y-17767642D01*
X86196740Y-17752421D01*
X86151594Y-17631380D01*
X86143045Y-17615724D01*
X86066302Y-17513207D01*
X86053692Y-17500597D01*
X85951175Y-17423854D01*
X85935519Y-17415305D01*
X85814478Y-17370159D01*
X85791587Y-17364750D01*
X85791911Y-17363376D01*
X85741769Y-17344491D01*
X85700909Y-17296417D01*
X85688477Y-17234562D01*
X85707589Y-17174434D01*
X85753455Y-17131110D01*
X85814571Y-17115452D01*
X90923276Y-17127036D01*
X90989781Y-17146197D01*
X91036135Y-17197596D01*
X91048347Y-17265723D01*
X91022732Y-17330023D01*
X90967020Y-17371092D01*
X90848478Y-17415306D01*
X90832824Y-17423854D01*
X90730307Y-17500597D01*
X90717697Y-17513207D01*
X90640954Y-17615724D01*
X90632405Y-17631380D01*
X90587259Y-17752421D01*
X90583662Y-17767642D01*
X90578359Y-17816961D01*
X90578000Y-17823677D01*
X90578000Y-18525410D01*
X90581506Y-18538493D01*
X90594590Y-18542000D01*
X92339410Y-18542000D01*
X92352493Y-18538493D01*
X92356000Y-18525410D01*
X92356000Y-17823677D01*
X92355640Y-17816961D01*
X92350337Y-17767642D01*
X92346740Y-17752421D01*
X92301594Y-17631380D01*
X92293045Y-17615724D01*
X92216302Y-17513207D01*
X92203692Y-17500597D01*
X92101175Y-17423854D01*
X92085515Y-17415303D01*
X91973635Y-17373573D01*
X91917853Y-17332414D01*
X91892286Y-17267978D01*
X91904672Y-17199770D01*
X91951262Y-17148437D01*
X92017949Y-17129519D01*
X100052456Y-17147737D01*
X100109572Y-17161574D01*
X100154203Y-17199815D01*
X100176633Y-17254139D01*
X100171981Y-17312727D01*
X100141261Y-17362832D01*
X99407742Y-18096351D01*
X99399459Y-18103888D01*
X99392982Y-18108000D01*
X99387559Y-18113774D01*
X99387560Y-18113774D01*
X99346370Y-18157636D01*
X99343621Y-18160472D01*
X99326667Y-18177427D01*
X99326660Y-18177434D01*
X99323865Y-18180230D01*
X99321442Y-18183352D01*
X99321426Y-18183371D01*
X99321365Y-18183451D01*
X99313690Y-18192435D01*
X99288838Y-18218902D01*
X99288835Y-18218904D01*
X99283414Y-18224679D01*
X99279600Y-18231614D01*
X99279592Y-18231627D01*
X99273650Y-18242436D01*
X99262803Y-18258949D01*
X99255243Y-18268695D01*
X99255237Y-18268704D01*
X99250386Y-18274959D01*
X99247242Y-18282223D01*
X99247238Y-18282231D01*
X99232824Y-18315540D01*
X99227604Y-18326195D01*
X99210125Y-18357989D01*
X99210121Y-18357997D01*
X99206305Y-18364940D01*
X99204333Y-18372616D01*
X99204331Y-18372624D01*
X99201266Y-18384562D01*
X99194865Y-18403259D01*
X99189968Y-18414576D01*
X99189966Y-18414581D01*
X99186819Y-18421855D01*
X99185579Y-18429680D01*
X99185577Y-18429689D01*
X99179901Y-18465524D01*
X99177495Y-18477144D01*
X99168471Y-18512289D01*
X99168469Y-18512297D01*
X99166500Y-18519970D01*
X99166500Y-18527899D01*
X99166500Y-18540224D01*
X99164949Y-18559935D01*
X99163019Y-18572114D01*
X99163018Y-18572121D01*
X99161780Y-18579943D01*
X99162525Y-18587826D01*
X99162525Y-18587834D01*
X99165941Y-18623961D01*
X99166500Y-18635819D01*
X99166500Y-19140500D01*
X99149619Y-19203500D01*
X99103500Y-19249619D01*
X99040500Y-19266500D01*
X98828767Y-19266500D01*
X98817583Y-19265972D01*
X98810091Y-19264298D01*
X98802165Y-19264547D01*
X98742014Y-19266438D01*
X98738055Y-19266500D01*
X98710144Y-19266500D01*
X98706218Y-19266995D01*
X98706200Y-19266997D01*
X98706108Y-19267009D01*
X98694303Y-19267937D01*
X98658031Y-19269077D01*
X98658023Y-19269078D01*
X98650111Y-19269327D01*
X98642504Y-19271536D01*
X98642503Y-19271537D01*
X98630656Y-19274979D01*
X98611306Y-19278986D01*
X98591203Y-19281526D01*
X98583840Y-19284440D01*
X98583836Y-19284442D01*
X98550098Y-19297800D01*
X98538873Y-19301643D01*
X98504017Y-19311770D01*
X98504010Y-19311773D01*
X98496407Y-19313982D01*
X98489591Y-19318012D01*
X98489583Y-19318016D01*
X98478960Y-19324298D01*
X98461221Y-19332989D01*
X98449749Y-19337531D01*
X98449746Y-19337532D01*
X98442383Y-19340448D01*
X98435976Y-19345102D01*
X98435972Y-19345105D01*
X98406611Y-19366437D01*
X98396693Y-19372951D01*
X98365465Y-19391419D01*
X98365457Y-19391425D01*
X98358638Y-19395458D01*
X98353036Y-19401058D01*
X98353029Y-19401065D01*
X98344308Y-19409786D01*
X98329287Y-19422615D01*
X98319307Y-19429866D01*
X98319298Y-19429873D01*
X98312893Y-19434528D01*
X98307847Y-19440627D01*
X98307841Y-19440633D01*
X98284707Y-19468597D01*
X98276719Y-19477374D01*
X98207739Y-19546354D01*
X98199462Y-19553886D01*
X98192982Y-19558000D01*
X98187558Y-19563774D01*
X98187554Y-19563779D01*
X98146368Y-19607637D01*
X98143620Y-19610473D01*
X98126667Y-19627427D01*
X98126660Y-19627434D01*
X98123865Y-19630230D01*
X98121442Y-19633352D01*
X98121426Y-19633371D01*
X98121365Y-19633451D01*
X98113690Y-19642435D01*
X98088838Y-19668902D01*
X98088835Y-19668904D01*
X98083414Y-19674679D01*
X98079600Y-19681614D01*
X98079592Y-19681627D01*
X98073650Y-19692436D01*
X98062803Y-19708949D01*
X98055243Y-19718695D01*
X98055237Y-19718704D01*
X98050386Y-19724959D01*
X98047242Y-19732223D01*
X98047238Y-19732231D01*
X98032824Y-19765540D01*
X98027604Y-19776195D01*
X98010125Y-19807989D01*
X98010121Y-19807997D01*
X98006305Y-19814940D01*
X98004333Y-19822616D01*
X98004331Y-19822624D01*
X98001266Y-19834562D01*
X97994865Y-19853259D01*
X97989968Y-19864576D01*
X97989966Y-19864581D01*
X97986819Y-19871855D01*
X97985579Y-19879680D01*
X97985577Y-19879689D01*
X97979901Y-19915524D01*
X97977495Y-19927144D01*
X97968471Y-19962289D01*
X97968469Y-19962297D01*
X97966500Y-19969970D01*
X97966500Y-19977899D01*
X97966500Y-19990224D01*
X97964949Y-20009935D01*
X97963019Y-20022114D01*
X97963018Y-20022121D01*
X97961780Y-20029943D01*
X97962525Y-20037826D01*
X97962525Y-20037834D01*
X97965941Y-20073961D01*
X97966500Y-20085819D01*
X97966500Y-21910406D01*
X97956909Y-21958624D01*
X97929595Y-21999501D01*
X95580500Y-24348595D01*
X95539623Y-24375909D01*
X95491405Y-24385500D01*
X92757681Y-24385500D01*
X92746497Y-24384972D01*
X92739005Y-24383298D01*
X92731079Y-24383547D01*
X92670928Y-24385438D01*
X92666969Y-24385500D01*
X92639058Y-24385500D01*
X92635132Y-24385995D01*
X92635114Y-24385997D01*
X92635022Y-24386009D01*
X92623217Y-24386937D01*
X92586944Y-24388077D01*
X92586936Y-24388078D01*
X92579024Y-24388327D01*
X92571417Y-24390536D01*
X92571416Y-24390537D01*
X92559569Y-24393979D01*
X92540220Y-24397986D01*
X92527976Y-24399533D01*
X92520117Y-24400526D01*
X92512755Y-24403440D01*
X92512746Y-24403443D01*
X92479011Y-24416800D01*
X92467784Y-24420645D01*
X92432926Y-24430772D01*
X92432922Y-24430773D01*
X92425321Y-24432982D01*
X92418505Y-24437012D01*
X92418497Y-24437016D01*
X92407874Y-24443298D01*
X92390135Y-24451989D01*
X92378663Y-24456531D01*
X92378660Y-24456532D01*
X92371297Y-24459448D01*
X92364890Y-24464102D01*
X92364886Y-24464105D01*
X92335525Y-24485437D01*
X92325607Y-24491951D01*
X92294379Y-24510419D01*
X92294371Y-24510425D01*
X92287552Y-24514458D01*
X92281950Y-24520058D01*
X92281943Y-24520065D01*
X92273222Y-24528786D01*
X92258201Y-24541615D01*
X92248221Y-24548866D01*
X92248212Y-24548873D01*
X92241807Y-24553528D01*
X92236759Y-24559628D01*
X92236750Y-24559638D01*
X92213614Y-24587604D01*
X92205627Y-24596381D01*
X91767838Y-25034170D01*
X91720358Y-25064004D01*
X91664635Y-25070283D01*
X91611707Y-25051762D01*
X91465057Y-24959615D01*
X91465054Y-24959613D01*
X91459066Y-24955851D01*
X91452390Y-24953515D01*
X91452386Y-24953513D01*
X91293775Y-24898013D01*
X91293771Y-24898012D01*
X91287098Y-24895677D01*
X91106051Y-24875278D01*
X91099022Y-24876070D01*
X91070806Y-24879249D01*
X91002029Y-24867563D01*
X90950012Y-24821077D01*
X90930699Y-24754041D01*
X90930699Y-24640069D01*
X90936866Y-24601133D01*
X90939778Y-24592172D01*
X90985541Y-24451328D01*
X91000499Y-24309010D01*
X91000499Y-22849417D01*
X91002050Y-22829705D01*
X91004251Y-22815810D01*
X91000671Y-22747519D01*
X91000499Y-22740926D01*
X91000499Y-22723681D01*
X91000499Y-22720391D01*
X90998351Y-22699964D01*
X90997835Y-22693405D01*
X90994256Y-22625097D01*
X90990614Y-22611509D01*
X90987011Y-22592062D01*
X90986231Y-22584643D01*
X90985541Y-22578073D01*
X90964399Y-22513006D01*
X90962528Y-22506689D01*
X90960757Y-22500080D01*
X90944828Y-22440631D01*
X90938438Y-22428090D01*
X90930874Y-22409828D01*
X90926526Y-22396445D01*
X90892326Y-22337210D01*
X90889177Y-22331410D01*
X90885117Y-22323442D01*
X90858128Y-22270471D01*
X90849271Y-22259533D01*
X90838073Y-22243240D01*
X90834340Y-22236775D01*
X90831039Y-22231057D01*
X90818190Y-22216787D01*
X90788023Y-22183282D01*
X90785263Y-22180217D01*
X90780998Y-22175223D01*
X90768071Y-22159260D01*
X90753554Y-22144743D01*
X90749014Y-22139959D01*
X90733957Y-22123236D01*
X90703252Y-22089135D01*
X90691864Y-22080861D01*
X90676831Y-22068020D01*
X89359975Y-20751164D01*
X89347133Y-20736129D01*
X89338864Y-20724747D01*
X89288020Y-20678967D01*
X89283253Y-20674442D01*
X89271077Y-20662266D01*
X89268739Y-20659928D01*
X89252775Y-20647000D01*
X89247774Y-20642729D01*
X89241543Y-20637119D01*
X89206762Y-20605802D01*
X89201848Y-20601377D01*
X89201846Y-20601375D01*
X89196942Y-20596960D01*
X89184746Y-20589918D01*
X89168466Y-20578728D01*
X89165493Y-20576321D01*
X89157528Y-20569871D01*
X89096583Y-20538818D01*
X89090804Y-20535681D01*
X89031554Y-20501473D01*
X89025279Y-20499434D01*
X89025277Y-20499433D01*
X89018161Y-20497121D01*
X88999909Y-20489560D01*
X88993252Y-20486168D01*
X88993244Y-20486165D01*
X88987368Y-20483171D01*
X88980994Y-20481463D01*
X88980989Y-20481461D01*
X88921303Y-20465468D01*
X88914997Y-20463600D01*
X88849926Y-20442458D01*
X88843364Y-20441768D01*
X88843349Y-20441765D01*
X88835923Y-20440985D01*
X88816489Y-20437383D01*
X88809286Y-20435453D01*
X88809278Y-20435451D01*
X88802901Y-20433743D01*
X88796305Y-20433397D01*
X88796304Y-20433397D01*
X88734597Y-20430162D01*
X88728038Y-20429646D01*
X88707608Y-20427500D01*
X88704315Y-20427500D01*
X88687072Y-20427500D01*
X88680478Y-20427327D01*
X88618779Y-20424093D01*
X88618774Y-20424093D01*
X88612188Y-20423748D01*
X88598290Y-20425949D01*
X88578581Y-20427500D01*
X87471487Y-20427500D01*
X87280513Y-20427500D01*
X87274059Y-20428871D01*
X87274056Y-20428872D01*
X87240143Y-20436080D01*
X87227125Y-20438141D01*
X87192646Y-20441766D01*
X87192637Y-20441767D01*
X87186072Y-20442458D01*
X87179798Y-20444496D01*
X87179786Y-20444499D01*
X87146817Y-20455212D01*
X87134080Y-20458625D01*
X87100168Y-20465833D01*
X87100161Y-20465834D01*
X87093712Y-20467206D01*
X87087690Y-20469887D01*
X87087678Y-20469891D01*
X87056004Y-20483993D01*
X87043699Y-20488717D01*
X87010726Y-20499431D01*
X87010719Y-20499433D01*
X87004444Y-20501473D01*
X86998724Y-20504775D01*
X86998718Y-20504778D01*
X86968705Y-20522105D01*
X86956961Y-20528089D01*
X86925285Y-20542193D01*
X86925276Y-20542197D01*
X86919248Y-20544882D01*
X86913913Y-20548757D01*
X86913904Y-20548763D01*
X86885849Y-20569145D01*
X86874799Y-20576321D01*
X86844773Y-20593658D01*
X86844765Y-20593663D01*
X86839056Y-20596960D01*
X86834155Y-20601372D01*
X86834149Y-20601377D01*
X86808383Y-20624576D01*
X86798143Y-20632869D01*
X86770083Y-20653257D01*
X86764747Y-20657134D01*
X86760337Y-20662031D01*
X86760330Y-20662038D01*
X86737129Y-20687806D01*
X86727806Y-20697129D01*
X86702038Y-20720330D01*
X86702031Y-20720337D01*
X86697134Y-20724747D01*
X86693257Y-20730082D01*
X86693257Y-20730083D01*
X86672869Y-20758143D01*
X86664576Y-20768383D01*
X86641377Y-20794149D01*
X86641372Y-20794155D01*
X86636960Y-20799056D01*
X86633663Y-20804765D01*
X86633658Y-20804773D01*
X86616321Y-20834799D01*
X86609145Y-20845849D01*
X86588763Y-20873904D01*
X86588757Y-20873913D01*
X86584882Y-20879248D01*
X86582197Y-20885276D01*
X86582193Y-20885285D01*
X86568089Y-20916961D01*
X86562105Y-20928705D01*
X86544778Y-20958718D01*
X86544777Y-20958721D01*
X86541473Y-20964444D01*
X86539433Y-20970719D01*
X86539431Y-20970726D01*
X86528717Y-21003699D01*
X86523993Y-21016004D01*
X86509891Y-21047678D01*
X86509887Y-21047690D01*
X86507206Y-21053712D01*
X86505834Y-21060161D01*
X86505833Y-21060168D01*
X86498625Y-21094080D01*
X86495212Y-21106817D01*
X86484499Y-21139786D01*
X86484496Y-21139798D01*
X86482458Y-21146072D01*
X86481768Y-21152635D01*
X86481766Y-21152646D01*
X86478141Y-21187125D01*
X86476080Y-21200143D01*
X86469266Y-21232206D01*
X86467500Y-21240513D01*
X86467500Y-21247118D01*
X86467500Y-21281784D01*
X86466810Y-21294954D01*
X86462496Y-21336000D01*
X86463186Y-21342565D01*
X86466810Y-21377045D01*
X86467500Y-21390216D01*
X86467500Y-21431487D01*
X86468871Y-21437941D01*
X86468873Y-21437952D01*
X86476079Y-21471856D01*
X86478141Y-21484874D01*
X86481766Y-21519355D01*
X86481768Y-21519364D01*
X86482458Y-21525928D01*
X86484497Y-21532204D01*
X86484499Y-21532212D01*
X86495212Y-21565183D01*
X86498625Y-21577919D01*
X86507206Y-21618288D01*
X86509890Y-21624317D01*
X86509891Y-21624319D01*
X86523994Y-21655995D01*
X86528721Y-21668309D01*
X86539430Y-21701271D01*
X86541473Y-21707556D01*
X86544770Y-21713267D01*
X86544773Y-21713273D01*
X86562107Y-21743296D01*
X86568094Y-21755045D01*
X86584882Y-21792752D01*
X86588761Y-21798092D01*
X86588764Y-21798096D01*
X86609144Y-21826148D01*
X86616325Y-21837205D01*
X86633658Y-21867226D01*
X86633660Y-21867230D01*
X86636960Y-21872944D01*
X86651843Y-21889473D01*
X86664575Y-21903614D01*
X86672873Y-21913862D01*
X86674809Y-21916526D01*
X86697134Y-21947253D01*
X86702042Y-21951672D01*
X86727804Y-21974868D01*
X86737131Y-21984195D01*
X86764747Y-22014866D01*
X86770088Y-22018747D01*
X86770091Y-22018749D01*
X86798135Y-22039124D01*
X86808384Y-22047423D01*
X86839056Y-22075040D01*
X86844771Y-22078339D01*
X86844773Y-22078341D01*
X86874794Y-22095674D01*
X86885855Y-22102857D01*
X86919248Y-22127118D01*
X86953594Y-22142409D01*
X86956956Y-22143906D01*
X86968710Y-22149896D01*
X86998715Y-22167220D01*
X86998720Y-22167222D01*
X87004444Y-22170527D01*
X87010730Y-22172569D01*
X87010736Y-22172572D01*
X87043698Y-22183282D01*
X87056013Y-22188009D01*
X87093712Y-22204794D01*
X87100174Y-22206167D01*
X87100176Y-22206168D01*
X87110509Y-22208364D01*
X87134076Y-22213373D01*
X87146814Y-22216785D01*
X87164095Y-22222401D01*
X87179790Y-22227501D01*
X87179792Y-22227501D01*
X87186072Y-22229542D01*
X87227128Y-22233857D01*
X87240136Y-22235917D01*
X87280513Y-22244500D01*
X87328390Y-22244500D01*
X87471487Y-22244500D01*
X88231495Y-22244500D01*
X88279713Y-22254091D01*
X88320590Y-22281405D01*
X88576990Y-22537805D01*
X88607728Y-22587964D01*
X88612344Y-22646611D01*
X88589831Y-22700961D01*
X88545098Y-22739167D01*
X88487895Y-22752900D01*
X88013162Y-22752900D01*
X88009815Y-22753259D01*
X88009811Y-22753260D01*
X87960432Y-22758568D01*
X87960425Y-22758569D01*
X87952599Y-22759411D01*
X87945223Y-22762161D01*
X87945219Y-22762163D01*
X87824036Y-22807362D01*
X87824030Y-22807365D01*
X87815596Y-22810511D01*
X87808388Y-22815906D01*
X87808382Y-22815910D01*
X87705750Y-22892740D01*
X87705746Y-22892743D01*
X87698539Y-22898139D01*
X87693143Y-22905346D01*
X87693139Y-22905351D01*
X87642555Y-22972923D01*
X87598087Y-23010086D01*
X87541688Y-23023413D01*
X87485288Y-23010085D01*
X87440820Y-22972922D01*
X87390503Y-22905707D01*
X87377893Y-22893097D01*
X87275376Y-22816354D01*
X87259720Y-22807805D01*
X87138679Y-22762659D01*
X87123458Y-22759062D01*
X87074139Y-22753759D01*
X87067424Y-22753400D01*
X86962591Y-22753400D01*
X86949507Y-22756906D01*
X86946001Y-22769990D01*
X86946001Y-25752810D01*
X86949507Y-25765893D01*
X86962591Y-25769400D01*
X87067424Y-25769400D01*
X87074139Y-25769040D01*
X87123458Y-25763737D01*
X87138679Y-25760140D01*
X87259720Y-25714994D01*
X87275376Y-25706445D01*
X87377893Y-25629702D01*
X87390503Y-25617092D01*
X87440820Y-25549877D01*
X87485288Y-25512714D01*
X87541688Y-25499386D01*
X87598087Y-25512713D01*
X87642556Y-25549877D01*
X87669771Y-25586232D01*
X87698539Y-25624661D01*
X87705750Y-25630059D01*
X87801995Y-25702108D01*
X87815596Y-25712289D01*
X87952599Y-25763389D01*
X88013162Y-25769900D01*
X88672204Y-25769900D01*
X88720422Y-25779491D01*
X88761299Y-25806805D01*
X89000746Y-26046252D01*
X89008285Y-26054535D01*
X89012399Y-26061018D01*
X89018178Y-26066444D01*
X89018179Y-26066446D01*
X89062050Y-26107643D01*
X89064891Y-26110397D01*
X89084629Y-26130135D01*
X89087759Y-26132563D01*
X89087831Y-26132619D01*
X89096839Y-26140313D01*
X89129078Y-26170586D01*
X89136026Y-26174405D01*
X89136028Y-26174407D01*
X89146825Y-26180343D01*
X89163349Y-26191197D01*
X89173093Y-26198755D01*
X89173096Y-26198757D01*
X89179358Y-26203614D01*
X89212776Y-26218074D01*
X89219934Y-26221172D01*
X89230599Y-26226397D01*
X89269339Y-26247695D01*
X89288959Y-26252732D01*
X89307651Y-26259130D01*
X89326254Y-26267181D01*
X89369924Y-26274097D01*
X89381524Y-26276498D01*
X89424369Y-26287500D01*
X89444623Y-26287500D01*
X89464333Y-26289050D01*
X89484342Y-26292220D01*
X89528360Y-26288058D01*
X89540218Y-26287500D01*
X90509075Y-26287500D01*
X90557293Y-26297091D01*
X90587103Y-26317010D01*
X90588236Y-26315590D01*
X90593762Y-26319997D01*
X90598770Y-26325005D01*
X90604764Y-26328771D01*
X90604765Y-26328772D01*
X90704411Y-26391384D01*
X90753036Y-26421937D01*
X90759715Y-26424274D01*
X90857115Y-26458356D01*
X90901202Y-26484921D01*
X90930987Y-26526899D01*
X90941500Y-26577285D01*
X90941500Y-29268406D01*
X90931909Y-29316624D01*
X90904595Y-29357501D01*
X89332500Y-30929595D01*
X89291623Y-30956909D01*
X89243405Y-30966500D01*
X88469883Y-30966500D01*
X88458699Y-30965972D01*
X88451207Y-30964298D01*
X88443281Y-30964547D01*
X88383117Y-30966438D01*
X88379159Y-30966500D01*
X88351260Y-30966500D01*
X88347335Y-30966995D01*
X88347314Y-30966997D01*
X88347240Y-30967007D01*
X88335429Y-30967936D01*
X88299150Y-30969076D01*
X88299142Y-30969077D01*
X88291227Y-30969326D01*
X88283616Y-30971536D01*
X88283609Y-30971538D01*
X88271764Y-30974979D01*
X88252419Y-30978985D01*
X88240188Y-30980530D01*
X88240175Y-30980533D01*
X88232319Y-30981526D01*
X88224955Y-30984441D01*
X88224945Y-30984444D01*
X88191208Y-30997802D01*
X88179981Y-31001646D01*
X88145134Y-31011770D01*
X88145129Y-31011772D01*
X88137523Y-31013982D01*
X88130706Y-31018012D01*
X88130697Y-31018017D01*
X88120076Y-31024298D01*
X88102337Y-31032989D01*
X88090865Y-31037531D01*
X88090862Y-31037532D01*
X88083499Y-31040448D01*
X88077092Y-31045102D01*
X88077088Y-31045105D01*
X88047727Y-31066437D01*
X88037809Y-31072951D01*
X88006581Y-31091419D01*
X88006573Y-31091425D01*
X87999754Y-31095458D01*
X87994152Y-31101058D01*
X87994145Y-31101065D01*
X87985424Y-31109786D01*
X87970403Y-31122615D01*
X87960423Y-31129866D01*
X87960414Y-31129873D01*
X87954009Y-31134528D01*
X87948961Y-31140628D01*
X87948952Y-31140638D01*
X87925816Y-31168604D01*
X87917829Y-31177381D01*
X86817867Y-32277342D01*
X86763653Y-32309323D01*
X86700734Y-32311088D01*
X86644811Y-32282197D01*
X86609845Y-32229865D01*
X86585043Y-32158985D01*
X86488111Y-32004719D01*
X86359281Y-31875889D01*
X86353287Y-31872123D01*
X86353285Y-31872121D01*
X86211006Y-31782721D01*
X86211003Y-31782719D01*
X86205015Y-31778957D01*
X86198339Y-31776621D01*
X86198335Y-31776619D01*
X86039724Y-31721119D01*
X86039720Y-31721118D01*
X86033047Y-31718783D01*
X85974940Y-31712236D01*
X85859029Y-31699176D01*
X85852000Y-31698384D01*
X85844971Y-31699176D01*
X85677981Y-31717991D01*
X85677979Y-31717991D01*
X85670953Y-31718783D01*
X85664280Y-31721117D01*
X85664275Y-31721119D01*
X85505664Y-31776619D01*
X85505656Y-31776622D01*
X85498985Y-31778957D01*
X85493000Y-31782717D01*
X85492993Y-31782721D01*
X85350714Y-31872121D01*
X85350707Y-31872126D01*
X85344719Y-31875889D01*
X85339714Y-31880893D01*
X85339710Y-31880897D01*
X85220897Y-31999710D01*
X85220893Y-31999714D01*
X85215889Y-32004719D01*
X85212126Y-32010707D01*
X85212121Y-32010714D01*
X85122721Y-32152993D01*
X85122717Y-32153000D01*
X85118957Y-32158985D01*
X85116622Y-32165656D01*
X85116619Y-32165664D01*
X85061119Y-32324275D01*
X85061117Y-32324280D01*
X85058783Y-32330953D01*
X85057991Y-32337979D01*
X85057991Y-32337981D01*
X85049287Y-32415231D01*
X85038384Y-32512000D01*
X85058783Y-32693047D01*
X85061118Y-32699720D01*
X85061119Y-32699724D01*
X85116619Y-32858335D01*
X85116621Y-32858339D01*
X85118957Y-32865015D01*
X85122719Y-32871003D01*
X85122721Y-32871006D01*
X85196881Y-32989031D01*
X85215889Y-33019281D01*
X85344719Y-33148111D01*
X85350713Y-33151877D01*
X85350714Y-33151878D01*
X85384616Y-33173180D01*
X85498985Y-33245043D01*
X85642115Y-33295126D01*
X85686202Y-33321690D01*
X85715987Y-33363669D01*
X85726500Y-33414055D01*
X85726500Y-34697349D01*
X85725972Y-34708532D01*
X85724298Y-34716025D01*
X85724547Y-34723949D01*
X85724547Y-34723951D01*
X85726438Y-34784102D01*
X85726500Y-34788061D01*
X85726500Y-34815972D01*
X85726995Y-34819890D01*
X85726997Y-34819922D01*
X85727008Y-34820004D01*
X85727937Y-34831813D01*
X85729077Y-34868085D01*
X85729078Y-34868092D01*
X85729327Y-34876005D01*
X85731537Y-34883614D01*
X85731538Y-34883616D01*
X85734978Y-34895458D01*
X85738986Y-34914809D01*
X85741526Y-34934913D01*
X85744444Y-34942285D01*
X85744445Y-34942286D01*
X85757800Y-34976017D01*
X85761645Y-34987246D01*
X85771771Y-35022102D01*
X85771773Y-35022108D01*
X85773982Y-35029709D01*
X85778014Y-35036527D01*
X85778015Y-35036529D01*
X85784293Y-35047145D01*
X85792990Y-35064898D01*
X85800448Y-35083733D01*
X85805107Y-35090146D01*
X85805108Y-35090147D01*
X85826432Y-35119497D01*
X85832948Y-35129417D01*
X85849265Y-35157006D01*
X85855458Y-35167478D01*
X85861063Y-35173083D01*
X85869778Y-35181798D01*
X85882618Y-35196831D01*
X85884920Y-35200000D01*
X85894528Y-35213223D01*
X85900635Y-35218275D01*
X85900636Y-35218276D01*
X85928598Y-35241408D01*
X85937378Y-35249398D01*
X89939651Y-39251671D01*
X89973075Y-39311352D01*
X89970389Y-39379702D01*
X89913497Y-39554794D01*
X89913495Y-39554801D01*
X89911458Y-39561072D01*
X89910768Y-39567633D01*
X89910768Y-39567635D01*
X89901755Y-39653388D01*
X89891496Y-39751000D01*
X89892812Y-39763525D01*
X89896891Y-39802329D01*
X89884829Y-39870735D01*
X89838351Y-39922354D01*
X89771581Y-39941500D01*
X86523479Y-39941500D01*
X86475261Y-39931909D01*
X86434383Y-39904595D01*
X86354396Y-39824608D01*
X86269530Y-39739741D01*
X86261995Y-39731459D01*
X86257884Y-39724982D01*
X86208231Y-39678355D01*
X86205389Y-39675600D01*
X86188458Y-39658669D01*
X86185654Y-39655865D01*
X86182459Y-39653386D01*
X86173438Y-39645682D01*
X86146981Y-39620838D01*
X86141205Y-39615414D01*
X86134261Y-39611596D01*
X86134255Y-39611592D01*
X86123450Y-39605652D01*
X86106931Y-39594801D01*
X86090925Y-39582386D01*
X86083650Y-39579238D01*
X86083647Y-39579236D01*
X86050350Y-39564828D01*
X86039688Y-39559605D01*
X86007891Y-39542124D01*
X86007889Y-39542123D01*
X86000944Y-39538305D01*
X85993267Y-39536334D01*
X85993265Y-39536333D01*
X85981322Y-39533267D01*
X85962618Y-39526863D01*
X85951304Y-39521967D01*
X85951302Y-39521966D01*
X85944029Y-39518819D01*
X85936203Y-39517579D01*
X85936202Y-39517579D01*
X85900359Y-39511902D01*
X85888743Y-39509496D01*
X85845914Y-39498500D01*
X85837985Y-39498500D01*
X85825660Y-39498500D01*
X85805949Y-39496949D01*
X85793769Y-39495019D01*
X85793762Y-39495018D01*
X85785941Y-39493780D01*
X85778057Y-39494525D01*
X85778049Y-39494525D01*
X85743349Y-39497806D01*
X85742706Y-39497867D01*
X85741923Y-39497941D01*
X85730065Y-39498500D01*
X82242200Y-39498500D01*
X82190953Y-39487608D01*
X82155275Y-39461687D01*
X82154580Y-39462460D01*
X82149667Y-39458037D01*
X82145253Y-39453134D01*
X81990752Y-39340882D01*
X81816288Y-39263206D01*
X81809835Y-39261834D01*
X81809831Y-39261833D01*
X81635943Y-39224872D01*
X81635940Y-39224871D01*
X81629487Y-39223500D01*
X81438513Y-39223500D01*
X81432060Y-39224871D01*
X81432056Y-39224872D01*
X81258168Y-39261833D01*
X81258161Y-39261835D01*
X81251712Y-39263206D01*
X81245682Y-39265890D01*
X81245681Y-39265891D01*
X81083278Y-39338197D01*
X81083275Y-39338198D01*
X81077248Y-39340882D01*
X81071907Y-39344762D01*
X81071906Y-39344763D01*
X80928091Y-39449250D01*
X80928087Y-39449254D01*
X80922747Y-39453134D01*
X80918330Y-39458039D01*
X80918325Y-39458044D01*
X80812564Y-39575505D01*
X80794960Y-39595056D01*
X80791661Y-39600769D01*
X80791658Y-39600774D01*
X80702777Y-39754721D01*
X80699473Y-39760444D01*
X80697434Y-39766718D01*
X80697430Y-39766728D01*
X80642497Y-39935794D01*
X80642495Y-39935801D01*
X80640458Y-39942072D01*
X80639768Y-39948633D01*
X80639768Y-39948635D01*
X80625097Y-40088220D01*
X80620496Y-40132000D01*
X80621186Y-40138565D01*
X80635977Y-40279299D01*
X80640458Y-40321928D01*
X80642495Y-40328200D01*
X80642497Y-40328205D01*
X80697430Y-40497271D01*
X80697433Y-40497278D01*
X80699473Y-40503556D01*
X80794960Y-40668944D01*
X80922747Y-40810866D01*
X80928089Y-40814747D01*
X80928091Y-40814749D01*
X80933641Y-40818781D01*
X81077248Y-40923118D01*
X81251712Y-41000794D01*
X81438513Y-41040500D01*
X81622884Y-41040500D01*
X81629487Y-41040500D01*
X81816288Y-41000794D01*
X81990752Y-40923118D01*
X82145253Y-40810866D01*
X82149669Y-40805961D01*
X82154580Y-40801540D01*
X82155275Y-40802312D01*
X82190953Y-40776392D01*
X82242200Y-40765500D01*
X85451290Y-40765500D01*
X85499508Y-40775091D01*
X85540385Y-40802405D01*
X85705226Y-40967246D01*
X85712768Y-40975533D01*
X85716884Y-40982018D01*
X85722663Y-40987444D01*
X85722664Y-40987446D01*
X85766551Y-41028658D01*
X85769393Y-41031413D01*
X85789115Y-41051135D01*
X85792243Y-41053561D01*
X85792244Y-41053562D01*
X85792298Y-41053604D01*
X85801330Y-41061317D01*
X85833563Y-41091586D01*
X85840508Y-41095404D01*
X85851314Y-41101345D01*
X85867840Y-41112201D01*
X85877574Y-41119751D01*
X85877576Y-41119752D01*
X85883844Y-41124614D01*
X85924414Y-41142170D01*
X85935070Y-41147390D01*
X85966877Y-41164876D01*
X85973824Y-41168695D01*
X85993450Y-41173734D01*
X86012143Y-41180134D01*
X86030739Y-41188181D01*
X86038570Y-41189421D01*
X86038573Y-41189422D01*
X86055012Y-41192025D01*
X86074409Y-41195097D01*
X86086009Y-41197498D01*
X86128854Y-41208500D01*
X86149108Y-41208500D01*
X86168818Y-41210050D01*
X86188827Y-41213220D01*
X86232845Y-41209058D01*
X86244703Y-41208500D01*
X95094290Y-41208500D01*
X95142508Y-41218091D01*
X95183384Y-41245404D01*
X97639265Y-43701286D01*
X97671876Y-43757768D01*
X97671876Y-43822990D01*
X97639264Y-43879474D01*
X94715396Y-46803342D01*
X94706622Y-46811327D01*
X94706605Y-46811340D01*
X94699920Y-46815584D01*
X94694503Y-46821352D01*
X94694495Y-46821359D01*
X94651393Y-46867258D01*
X94648645Y-46870094D01*
X94628073Y-46890667D01*
X94625647Y-46893793D01*
X94625625Y-46893819D01*
X94625325Y-46894206D01*
X94617649Y-46903191D01*
X94591454Y-46931088D01*
X94591451Y-46931091D01*
X94586028Y-46936867D01*
X94582212Y-46943806D01*
X94582205Y-46943817D01*
X94575689Y-46955669D01*
X94564844Y-46972179D01*
X94556556Y-46982864D01*
X94556550Y-46982872D01*
X94551696Y-46989132D01*
X94548549Y-46996402D01*
X94548547Y-46996407D01*
X94533351Y-47031523D01*
X94528131Y-47042178D01*
X94509697Y-47075710D01*
X94509693Y-47075718D01*
X94505876Y-47082663D01*
X94503905Y-47090336D01*
X94503902Y-47090346D01*
X94500541Y-47103438D01*
X94494140Y-47122134D01*
X94488767Y-47134550D01*
X94488765Y-47134554D01*
X94485620Y-47141824D01*
X94484381Y-47149641D01*
X94484380Y-47149648D01*
X94478393Y-47187452D01*
X94475986Y-47199073D01*
X94466471Y-47236130D01*
X94466469Y-47236140D01*
X94464500Y-47243812D01*
X94464500Y-47251741D01*
X94464500Y-47265259D01*
X94462949Y-47284968D01*
X94459594Y-47306152D01*
X94460339Y-47314043D01*
X94460340Y-47314043D01*
X94463941Y-47352138D01*
X94464500Y-47363996D01*
X94464500Y-51395241D01*
X94456131Y-51440395D01*
X94432136Y-51479550D01*
X94383960Y-51533056D01*
X94380661Y-51538769D01*
X94380658Y-51538774D01*
X94291777Y-51692721D01*
X94288473Y-51698444D01*
X94286434Y-51704718D01*
X94286430Y-51704728D01*
X94231497Y-51873794D01*
X94231495Y-51873801D01*
X94229458Y-51880072D01*
X94209496Y-52070000D01*
X94229458Y-52259928D01*
X94231495Y-52266200D01*
X94231497Y-52266205D01*
X94286430Y-52435271D01*
X94286433Y-52435278D01*
X94288473Y-52441556D01*
X94383960Y-52606944D01*
X94511747Y-52748866D01*
X94666248Y-52861118D01*
X94840712Y-52938794D01*
X95027513Y-52978500D01*
X95211884Y-52978500D01*
X95218487Y-52978500D01*
X95405288Y-52938794D01*
X95579752Y-52861118D01*
X95732692Y-52750000D01*
X112286384Y-52750000D01*
X112306783Y-52931047D01*
X112309118Y-52937720D01*
X112309119Y-52937724D01*
X112364619Y-53096335D01*
X112364621Y-53096339D01*
X112366957Y-53103015D01*
X112463889Y-53257281D01*
X112592719Y-53386111D01*
X112746985Y-53483043D01*
X112918953Y-53543217D01*
X113100000Y-53563616D01*
X113281047Y-53543217D01*
X113453015Y-53483043D01*
X113607281Y-53386111D01*
X113736111Y-53257281D01*
X113833043Y-53103015D01*
X113893217Y-52931047D01*
X113913616Y-52750000D01*
X113893217Y-52568953D01*
X113833043Y-52396985D01*
X113736111Y-52242719D01*
X113607281Y-52113889D01*
X113601287Y-52110123D01*
X113601285Y-52110121D01*
X113459006Y-52020721D01*
X113459003Y-52020719D01*
X113453015Y-52016957D01*
X113446339Y-52014621D01*
X113446335Y-52014619D01*
X113287724Y-51959119D01*
X113287720Y-51959118D01*
X113281047Y-51956783D01*
X113100000Y-51936384D01*
X113092971Y-51937176D01*
X112925981Y-51955991D01*
X112925979Y-51955991D01*
X112918953Y-51956783D01*
X112912280Y-51959117D01*
X112912275Y-51959119D01*
X112753664Y-52014619D01*
X112753656Y-52014622D01*
X112746985Y-52016957D01*
X112741000Y-52020717D01*
X112740993Y-52020721D01*
X112598714Y-52110121D01*
X112598707Y-52110126D01*
X112592719Y-52113889D01*
X112587714Y-52118893D01*
X112587710Y-52118897D01*
X112468897Y-52237710D01*
X112468893Y-52237714D01*
X112463889Y-52242719D01*
X112460126Y-52248707D01*
X112460121Y-52248714D01*
X112370721Y-52390993D01*
X112370717Y-52391000D01*
X112366957Y-52396985D01*
X112364622Y-52403656D01*
X112364619Y-52403664D01*
X112309119Y-52562275D01*
X112309117Y-52562280D01*
X112306783Y-52568953D01*
X112305991Y-52575979D01*
X112305991Y-52575981D01*
X112290123Y-52716813D01*
X112286384Y-52750000D01*
X95732692Y-52750000D01*
X95734253Y-52748866D01*
X95862040Y-52606944D01*
X95957527Y-52441556D01*
X96016542Y-52259928D01*
X96036504Y-52070000D01*
X96016542Y-51880072D01*
X95957527Y-51698444D01*
X95862040Y-51533056D01*
X95813863Y-51479550D01*
X95789869Y-51440395D01*
X95781500Y-51395241D01*
X95781500Y-47651950D01*
X95791091Y-47603732D01*
X95818405Y-47562855D01*
X98460855Y-44920405D01*
X98501732Y-44893091D01*
X98549950Y-44883500D01*
X105069531Y-44883500D01*
X105136567Y-44902813D01*
X105183053Y-44954831D01*
X105194739Y-45023608D01*
X105168042Y-45088060D01*
X105111146Y-45128429D01*
X105079164Y-45139619D01*
X105079156Y-45139622D01*
X105072485Y-45141957D01*
X105066500Y-45145717D01*
X105066493Y-45145721D01*
X104924214Y-45235121D01*
X104924207Y-45235126D01*
X104918219Y-45238889D01*
X104913214Y-45243893D01*
X104913210Y-45243897D01*
X104794397Y-45362710D01*
X104794393Y-45362714D01*
X104789389Y-45367719D01*
X104785626Y-45373707D01*
X104785621Y-45373714D01*
X104696221Y-45515993D01*
X104696217Y-45516000D01*
X104692457Y-45521985D01*
X104690122Y-45528656D01*
X104690119Y-45528664D01*
X104634619Y-45687275D01*
X104634617Y-45687280D01*
X104632283Y-45693953D01*
X104631491Y-45700979D01*
X104631491Y-45700981D01*
X104623041Y-45775981D01*
X104611884Y-45875000D01*
X104632283Y-46056047D01*
X104634618Y-46062720D01*
X104634619Y-46062724D01*
X104690119Y-46221335D01*
X104690121Y-46221339D01*
X104692457Y-46228015D01*
X104696219Y-46234003D01*
X104696221Y-46234006D01*
X104739582Y-46303015D01*
X104789389Y-46382281D01*
X104918219Y-46511111D01*
X104924213Y-46514877D01*
X104924214Y-46514878D01*
X105066491Y-46604277D01*
X105072485Y-46608043D01*
X105244453Y-46668217D01*
X105425500Y-46688616D01*
X105606547Y-46668217D01*
X105778515Y-46608043D01*
X105786841Y-46602811D01*
X105788612Y-46602300D01*
X105790882Y-46601208D01*
X105791067Y-46601593D01*
X105853875Y-46583500D01*
X107902264Y-46583500D01*
X107969300Y-46602813D01*
X108096985Y-46683043D01*
X108268953Y-46743217D01*
X108450000Y-46763616D01*
X108631047Y-46743217D01*
X108803015Y-46683043D01*
X108957281Y-46586111D01*
X109086111Y-46457281D01*
X109183043Y-46303015D01*
X109243217Y-46131047D01*
X109263616Y-45950000D01*
X109243217Y-45768953D01*
X109183043Y-45596985D01*
X109086111Y-45442719D01*
X108957281Y-45313889D01*
X108951287Y-45310123D01*
X108951285Y-45310121D01*
X108809006Y-45220721D01*
X108809003Y-45220719D01*
X108803015Y-45216957D01*
X108796339Y-45214621D01*
X108796335Y-45214619D01*
X108637724Y-45159119D01*
X108637720Y-45159118D01*
X108631047Y-45156783D01*
X108450000Y-45136384D01*
X108442971Y-45137176D01*
X108442970Y-45137176D01*
X108319836Y-45151049D01*
X108271687Y-45144709D01*
X108235218Y-45168587D01*
X108103664Y-45214619D01*
X108103656Y-45214622D01*
X108096985Y-45216957D01*
X108091000Y-45220717D01*
X108090993Y-45220721D01*
X107969300Y-45297187D01*
X107902264Y-45316500D01*
X106062582Y-45316500D01*
X106014364Y-45306909D01*
X105973487Y-45279595D01*
X105937789Y-45243897D01*
X105932781Y-45238889D01*
X105926787Y-45235123D01*
X105926785Y-45235121D01*
X105784506Y-45145721D01*
X105784503Y-45145719D01*
X105778515Y-45141957D01*
X105771839Y-45139621D01*
X105771835Y-45139619D01*
X105739854Y-45128429D01*
X105682958Y-45088060D01*
X105656261Y-45023608D01*
X105667947Y-44954831D01*
X105714433Y-44902813D01*
X105781469Y-44883500D01*
X106621233Y-44883500D01*
X106632416Y-44884027D01*
X106639909Y-44885702D01*
X106707985Y-44883562D01*
X106711945Y-44883500D01*
X106735894Y-44883500D01*
X106739856Y-44883500D01*
X106743856Y-44882994D01*
X106755699Y-44882061D01*
X106799889Y-44880673D01*
X106819333Y-44875023D01*
X106838702Y-44871012D01*
X106858797Y-44868474D01*
X106899915Y-44852193D01*
X106911117Y-44848357D01*
X106953593Y-44836018D01*
X106971039Y-44825699D01*
X106988769Y-44817013D01*
X107007617Y-44809552D01*
X107043387Y-44783561D01*
X107053298Y-44777051D01*
X107091362Y-44754542D01*
X107105688Y-44740215D01*
X107120713Y-44727381D01*
X107133533Y-44718067D01*
X107193481Y-44694800D01*
X107234032Y-44690232D01*
X107334605Y-44655039D01*
X107404258Y-44651128D01*
X107465315Y-44684874D01*
X107542052Y-44761611D01*
X107548046Y-44765377D01*
X107548047Y-44765378D01*
X107654051Y-44831985D01*
X107696318Y-44858543D01*
X107868286Y-44918717D01*
X108049333Y-44939116D01*
X108179496Y-44924450D01*
X108227645Y-44930789D01*
X108264109Y-44906914D01*
X108402348Y-44858543D01*
X108458027Y-44823556D01*
X108525064Y-44804243D01*
X108592101Y-44823556D01*
X108646985Y-44858043D01*
X108818953Y-44918217D01*
X109000000Y-44938616D01*
X109181047Y-44918217D01*
X109353015Y-44858043D01*
X109507281Y-44761111D01*
X109622149Y-44646243D01*
X109678633Y-44613631D01*
X109743855Y-44613631D01*
X109800339Y-44646243D01*
X112665655Y-47511559D01*
X112690082Y-47545984D01*
X112701767Y-47586544D01*
X112705989Y-47624009D01*
X112705990Y-47624017D01*
X112706783Y-47631047D01*
X112709119Y-47637723D01*
X112709120Y-47637727D01*
X112734604Y-47710556D01*
X112739478Y-47775596D01*
X112711180Y-47834359D01*
X112657291Y-47871100D01*
X112565916Y-47903073D01*
X112565911Y-47903075D01*
X112559239Y-47905410D01*
X112553254Y-47909170D01*
X112553247Y-47909174D01*
X112410968Y-47998574D01*
X112410961Y-47998579D01*
X112404973Y-48002342D01*
X112399968Y-48007346D01*
X112399964Y-48007350D01*
X112281151Y-48126163D01*
X112281147Y-48126167D01*
X112276143Y-48131172D01*
X112272380Y-48137160D01*
X112272375Y-48137167D01*
X112182975Y-48279446D01*
X112182971Y-48279453D01*
X112179211Y-48285438D01*
X112176876Y-48292109D01*
X112176873Y-48292117D01*
X112121373Y-48450728D01*
X112121371Y-48450733D01*
X112119037Y-48457406D01*
X112098638Y-48638453D01*
X112119037Y-48819500D01*
X112121372Y-48826173D01*
X112121373Y-48826177D01*
X112176873Y-48984788D01*
X112176875Y-48984792D01*
X112179211Y-48991468D01*
X112276143Y-49145734D01*
X112404973Y-49274564D01*
X112559239Y-49371496D01*
X112731207Y-49431670D01*
X112912254Y-49452069D01*
X113093301Y-49431670D01*
X113265269Y-49371496D01*
X113419535Y-49274564D01*
X113548365Y-49145734D01*
X113645297Y-48991468D01*
X113705471Y-48819500D01*
X113725870Y-48638453D01*
X113705471Y-48457406D01*
X113677648Y-48377894D01*
X113672775Y-48312856D01*
X113701074Y-48254092D01*
X113754959Y-48217353D01*
X113853015Y-48183043D01*
X114007281Y-48086111D01*
X114136111Y-47957281D01*
X114233043Y-47803015D01*
X114293217Y-47631047D01*
X114313616Y-47450000D01*
X114304349Y-47367756D01*
X114312614Y-47306743D01*
X114348806Y-47256928D01*
X114404282Y-47230212D01*
X114465794Y-47232974D01*
X114518652Y-47264556D01*
X115796342Y-48542246D01*
X115803884Y-48550533D01*
X115808000Y-48557018D01*
X115813779Y-48562444D01*
X115813780Y-48562446D01*
X115857667Y-48603658D01*
X115860508Y-48606412D01*
X115880230Y-48626134D01*
X115883414Y-48628604D01*
X115892437Y-48636309D01*
X115924679Y-48666586D01*
X115931628Y-48670406D01*
X115942429Y-48676344D01*
X115958959Y-48687202D01*
X115968694Y-48694754D01*
X115968697Y-48694756D01*
X115974959Y-48699613D01*
X116015536Y-48717172D01*
X116026171Y-48722381D01*
X116064940Y-48743695D01*
X116084566Y-48748734D01*
X116103259Y-48755134D01*
X116121855Y-48763181D01*
X116143138Y-48766551D01*
X116191588Y-48787909D01*
X116192719Y-48786111D01*
X116256483Y-48826177D01*
X116346985Y-48883043D01*
X116518953Y-48943217D01*
X116700000Y-48963616D01*
X116881047Y-48943217D01*
X117053015Y-48883043D01*
X117207281Y-48786111D01*
X117336111Y-48657281D01*
X117433043Y-48503015D01*
X117493217Y-48331047D01*
X117513616Y-48150000D01*
X117493217Y-47968953D01*
X117433043Y-47796985D01*
X117336111Y-47642719D01*
X117207281Y-47513889D01*
X117201287Y-47510123D01*
X117201285Y-47510121D01*
X117059006Y-47420721D01*
X117059003Y-47420719D01*
X117053015Y-47416957D01*
X117046339Y-47414621D01*
X117046335Y-47414619D01*
X116887724Y-47359119D01*
X116887720Y-47359118D01*
X116881047Y-47356783D01*
X116700000Y-47336384D01*
X116692971Y-47337176D01*
X116525977Y-47355991D01*
X116525971Y-47355992D01*
X116518953Y-47356783D01*
X116512287Y-47359115D01*
X116512280Y-47359117D01*
X116507549Y-47360773D01*
X116437898Y-47364682D01*
X116376842Y-47330937D01*
X112530559Y-43484654D01*
X112499321Y-43432923D01*
X112495764Y-43372597D01*
X112520704Y-43317553D01*
X112568406Y-43280452D01*
X112571230Y-43279194D01*
X112656752Y-43241118D01*
X112811253Y-43128866D01*
X112815744Y-43123877D01*
X112815801Y-43123841D01*
X112820580Y-43119539D01*
X112821299Y-43120338D01*
X112872539Y-43087687D01*
X112939866Y-43085919D01*
X112998484Y-43119083D01*
X114862442Y-44983042D01*
X114886869Y-45017467D01*
X114898555Y-45058028D01*
X114906783Y-45131047D01*
X114909119Y-45137725D01*
X114909120Y-45137726D01*
X114964619Y-45296335D01*
X114964621Y-45296339D01*
X114966957Y-45303015D01*
X114970719Y-45309003D01*
X114970721Y-45309006D01*
X115051591Y-45437710D01*
X115063889Y-45457281D01*
X115192719Y-45586111D01*
X115346985Y-45683043D01*
X115518953Y-45743217D01*
X115700000Y-45763616D01*
X115881047Y-45743217D01*
X116053015Y-45683043D01*
X116207281Y-45586111D01*
X116336111Y-45457281D01*
X116433043Y-45303015D01*
X116493217Y-45131047D01*
X116513616Y-44950000D01*
X116493217Y-44768953D01*
X116433043Y-44596985D01*
X116336111Y-44442719D01*
X116207281Y-44313889D01*
X116201287Y-44310123D01*
X116201285Y-44310121D01*
X116059006Y-44220721D01*
X116059003Y-44220719D01*
X116053015Y-44216957D01*
X116046339Y-44214621D01*
X116046335Y-44214619D01*
X115887726Y-44159120D01*
X115887725Y-44159119D01*
X115881047Y-44156783D01*
X115874020Y-44155991D01*
X115874019Y-44155991D01*
X115865063Y-44154982D01*
X115824503Y-44143296D01*
X115790078Y-44118869D01*
X114621209Y-42950000D01*
X119286496Y-42950000D01*
X119287186Y-42956565D01*
X119292831Y-43010279D01*
X119306458Y-43139928D01*
X119308495Y-43146200D01*
X119308497Y-43146205D01*
X119363430Y-43315271D01*
X119363433Y-43315278D01*
X119365473Y-43321556D01*
X119460960Y-43486944D01*
X119588747Y-43628866D01*
X119743248Y-43741118D01*
X119917712Y-43818794D01*
X120104513Y-43858500D01*
X120288884Y-43858500D01*
X120295487Y-43858500D01*
X120482288Y-43818794D01*
X120656752Y-43741118D01*
X120811253Y-43628866D01*
X120939040Y-43486944D01*
X121034527Y-43321556D01*
X121093542Y-43139928D01*
X121113504Y-42950000D01*
X121093542Y-42760072D01*
X121034527Y-42578444D01*
X120939040Y-42413056D01*
X120811253Y-42271134D01*
X120805911Y-42267253D01*
X120805908Y-42267250D01*
X120686154Y-42180244D01*
X120656752Y-42158882D01*
X120482288Y-42081206D01*
X120475835Y-42079834D01*
X120475831Y-42079833D01*
X120301943Y-42042872D01*
X120301940Y-42042871D01*
X120295487Y-42041500D01*
X120104513Y-42041500D01*
X120098060Y-42042871D01*
X120098056Y-42042872D01*
X119924168Y-42079833D01*
X119924161Y-42079835D01*
X119917712Y-42081206D01*
X119911682Y-42083890D01*
X119911681Y-42083891D01*
X119749278Y-42156197D01*
X119749275Y-42156198D01*
X119743248Y-42158882D01*
X119737907Y-42162762D01*
X119737906Y-42162763D01*
X119594091Y-42267250D01*
X119594083Y-42267256D01*
X119588747Y-42271134D01*
X119584330Y-42276039D01*
X119584325Y-42276044D01*
X119538894Y-42326501D01*
X119460960Y-42413056D01*
X119457661Y-42418769D01*
X119457658Y-42418774D01*
X119399255Y-42519932D01*
X119365473Y-42578444D01*
X119363434Y-42584718D01*
X119363430Y-42584728D01*
X119308497Y-42753794D01*
X119308495Y-42753801D01*
X119306458Y-42760072D01*
X119286496Y-42950000D01*
X114621209Y-42950000D01*
X112928951Y-41257741D01*
X112921417Y-41249463D01*
X112917305Y-41242982D01*
X112867653Y-41196356D01*
X112864811Y-41193601D01*
X112847879Y-41176669D01*
X112847878Y-41176668D01*
X112845075Y-41173865D01*
X112841880Y-41171386D01*
X112832858Y-41163681D01*
X112805290Y-41137793D01*
X112773511Y-41090039D01*
X112766194Y-41033147D01*
X112784854Y-40978910D01*
X112832543Y-40903015D01*
X112892717Y-40731047D01*
X112913116Y-40550000D01*
X112892717Y-40368953D01*
X112841644Y-40222996D01*
X112836771Y-40157959D01*
X112865070Y-40099196D01*
X112918954Y-40062456D01*
X113003015Y-40033043D01*
X113157281Y-39936111D01*
X113286111Y-39807281D01*
X113383043Y-39653015D01*
X113443217Y-39481047D01*
X113463616Y-39300000D01*
X113443217Y-39118953D01*
X113383043Y-38946985D01*
X113286111Y-38792719D01*
X113157281Y-38663889D01*
X113151287Y-38660123D01*
X113151285Y-38660121D01*
X113009006Y-38570721D01*
X113009003Y-38570719D01*
X113003015Y-38566957D01*
X112993638Y-38563675D01*
X112982928Y-38559928D01*
X112926035Y-38519558D01*
X112899339Y-38455107D01*
X112892717Y-38396331D01*
X112832543Y-38224363D01*
X112735611Y-38070097D01*
X112606781Y-37941267D01*
X112530054Y-37893056D01*
X112493595Y-37870147D01*
X112453944Y-37830495D01*
X112435424Y-37777567D01*
X112441703Y-37721845D01*
X112471535Y-37674367D01*
X112661562Y-37484340D01*
X112695986Y-37459915D01*
X112736545Y-37448230D01*
X112781047Y-37443217D01*
X112953015Y-37383043D01*
X113107281Y-37286111D01*
X113236111Y-37157281D01*
X113333043Y-37003015D01*
X113393217Y-36831047D01*
X113413616Y-36650000D01*
X113393217Y-36468953D01*
X113333043Y-36296985D01*
X113300687Y-36245491D01*
X113244496Y-36156063D01*
X113225975Y-36103134D01*
X113232254Y-36047412D01*
X113262086Y-35999934D01*
X113816616Y-35445404D01*
X113857494Y-35418091D01*
X113905712Y-35408500D01*
X113941432Y-35408500D01*
X115417944Y-35408500D01*
X115429800Y-35409059D01*
X115429803Y-35409059D01*
X115437537Y-35410788D01*
X115508369Y-35408561D01*
X115512327Y-35408500D01*
X115537476Y-35408500D01*
X115541432Y-35408500D01*
X115545831Y-35407943D01*
X115557664Y-35407012D01*
X115603831Y-35405562D01*
X115624416Y-35399581D01*
X115643784Y-35395570D01*
X115665064Y-35392882D01*
X115708019Y-35375874D01*
X115719231Y-35372035D01*
X115763600Y-35359145D01*
X115782055Y-35348229D01*
X115799813Y-35339530D01*
X115819756Y-35331635D01*
X115857148Y-35304466D01*
X115867040Y-35297969D01*
X115906807Y-35274453D01*
X115921977Y-35259281D01*
X115937005Y-35246447D01*
X115954357Y-35233841D01*
X115983812Y-35198234D01*
X115991782Y-35189476D01*
X116101407Y-35079851D01*
X116135834Y-35055425D01*
X116167292Y-35046363D01*
X116167114Y-35045584D01*
X116174011Y-35044009D01*
X116181047Y-35043217D01*
X116353015Y-34983043D01*
X116503839Y-34888273D01*
X116556761Y-34869755D01*
X116612484Y-34876034D01*
X116659964Y-34905868D01*
X117702877Y-35948781D01*
X117727508Y-35983631D01*
X117739092Y-36024705D01*
X117754694Y-36173145D01*
X117756458Y-36189928D01*
X117758495Y-36196200D01*
X117758497Y-36196205D01*
X117813430Y-36365271D01*
X117813433Y-36365278D01*
X117815473Y-36371556D01*
X117865887Y-36458875D01*
X117904011Y-36524909D01*
X117910960Y-36536944D01*
X118038747Y-36678866D01*
X118044089Y-36682747D01*
X118044091Y-36682749D01*
X118077642Y-36707125D01*
X118193248Y-36791118D01*
X118367712Y-36868794D01*
X118554513Y-36908500D01*
X118738884Y-36908500D01*
X118745487Y-36908500D01*
X118932288Y-36868794D01*
X119106752Y-36791118D01*
X119261253Y-36678866D01*
X119389040Y-36536944D01*
X119484527Y-36371556D01*
X119543542Y-36189928D01*
X119555230Y-36078721D01*
X119581735Y-36013702D01*
X119638920Y-35972966D01*
X119753015Y-35933043D01*
X119907281Y-35836111D01*
X120036111Y-35707281D01*
X120133043Y-35553015D01*
X120193217Y-35381047D01*
X120213616Y-35200000D01*
X120193217Y-35018953D01*
X120133043Y-34846985D01*
X120119779Y-34825875D01*
X120039878Y-34698714D01*
X120039877Y-34698713D01*
X120036111Y-34692719D01*
X119907281Y-34563889D01*
X119901287Y-34560123D01*
X119901285Y-34560121D01*
X119759006Y-34470721D01*
X119759003Y-34470719D01*
X119753015Y-34466957D01*
X119746339Y-34464621D01*
X119746335Y-34464619D01*
X119587724Y-34409119D01*
X119587720Y-34409118D01*
X119581047Y-34406783D01*
X119574020Y-34405991D01*
X119574019Y-34405991D01*
X119536548Y-34401769D01*
X119495986Y-34390083D01*
X119461561Y-34365656D01*
X117884371Y-32788466D01*
X117850527Y-32726977D01*
X117854832Y-32656922D01*
X117895947Y-32600039D01*
X117961117Y-32573978D01*
X118011437Y-32569022D01*
X118023531Y-32566616D01*
X118201686Y-32512573D01*
X118213069Y-32507858D01*
X118377259Y-32420096D01*
X118384993Y-32414929D01*
X118430417Y-32396112D01*
X118479583Y-32396112D01*
X118525007Y-32414929D01*
X118532740Y-32420096D01*
X118696930Y-32507858D01*
X118708313Y-32512573D01*
X118821877Y-32547022D01*
X118833345Y-32547727D01*
X118836000Y-32536552D01*
X118836000Y-31845590D01*
X118832493Y-31832506D01*
X118819410Y-31829000D01*
X117692000Y-31829000D01*
X117629000Y-31812119D01*
X117582881Y-31766000D01*
X117566000Y-31703000D01*
X117566000Y-31447000D01*
X117582881Y-31384000D01*
X117629000Y-31337881D01*
X117692000Y-31321000D01*
X119218000Y-31321000D01*
X119281000Y-31337881D01*
X119327119Y-31384000D01*
X119344000Y-31447000D01*
X119344000Y-32536552D01*
X119346654Y-32547727D01*
X119358122Y-32547022D01*
X119471686Y-32512573D01*
X119483069Y-32507858D01*
X119647266Y-32420092D01*
X119654543Y-32415231D01*
X119699963Y-32396416D01*
X119749125Y-32396416D01*
X119793669Y-32414864D01*
X119796996Y-32417595D01*
X119972196Y-32511241D01*
X120162299Y-32568908D01*
X120168460Y-32569514D01*
X120168461Y-32569515D01*
X120353837Y-32587773D01*
X120360000Y-32588380D01*
X120557701Y-32568908D01*
X120747804Y-32511241D01*
X120923004Y-32417595D01*
X120926326Y-32414868D01*
X120970867Y-32396416D01*
X121020034Y-32396415D01*
X121065458Y-32415231D01*
X121072736Y-32420094D01*
X121236930Y-32507858D01*
X121248313Y-32512573D01*
X121361877Y-32547022D01*
X121373345Y-32547727D01*
X121376000Y-32536552D01*
X121376000Y-31447000D01*
X121392881Y-31384000D01*
X121439000Y-31337881D01*
X121502000Y-31321000D01*
X121695500Y-31321000D01*
X121758500Y-31337881D01*
X121804619Y-31384000D01*
X121821500Y-31447000D01*
X121821500Y-35335000D01*
X121811909Y-35383218D01*
X121784597Y-35424092D01*
X120573281Y-36635408D01*
X120183215Y-37025474D01*
X120129000Y-37057454D01*
X120066080Y-37059218D01*
X120063459Y-37058619D01*
X120056781Y-37056283D01*
X119875734Y-37035884D01*
X119868705Y-37036676D01*
X119701715Y-37055491D01*
X119701713Y-37055491D01*
X119694687Y-37056283D01*
X119688014Y-37058617D01*
X119688009Y-37058619D01*
X119529398Y-37114119D01*
X119529390Y-37114122D01*
X119522719Y-37116457D01*
X119516734Y-37120217D01*
X119516727Y-37120221D01*
X119374448Y-37209621D01*
X119374441Y-37209626D01*
X119368453Y-37213389D01*
X119363448Y-37218393D01*
X119363444Y-37218397D01*
X119244631Y-37337210D01*
X119244627Y-37337214D01*
X119239623Y-37342219D01*
X119235860Y-37348207D01*
X119235855Y-37348214D01*
X119146455Y-37490493D01*
X119146451Y-37490500D01*
X119142691Y-37496485D01*
X119140356Y-37503156D01*
X119140353Y-37503164D01*
X119084853Y-37661775D01*
X119084851Y-37661780D01*
X119082517Y-37668453D01*
X119081725Y-37675479D01*
X119081725Y-37675481D01*
X119070223Y-37777567D01*
X119062118Y-37849500D01*
X119082517Y-38030547D01*
X119084852Y-38037220D01*
X119084853Y-38037224D01*
X119140353Y-38195835D01*
X119140355Y-38195839D01*
X119142691Y-38202515D01*
X119146453Y-38208503D01*
X119146455Y-38208506D01*
X119226865Y-38336478D01*
X119239623Y-38356781D01*
X119244631Y-38361789D01*
X119363371Y-38480529D01*
X119393205Y-38528009D01*
X119399484Y-38583731D01*
X119386384Y-38700000D01*
X119406783Y-38881047D01*
X119409118Y-38887720D01*
X119409119Y-38887724D01*
X119464619Y-39046335D01*
X119464621Y-39046339D01*
X119466957Y-39053015D01*
X119470719Y-39059003D01*
X119470721Y-39059006D01*
X119543687Y-39175131D01*
X119563889Y-39207281D01*
X119692719Y-39336111D01*
X119698713Y-39339877D01*
X119698714Y-39339878D01*
X119787802Y-39395856D01*
X119846985Y-39433043D01*
X120018953Y-39493217D01*
X120200000Y-39513616D01*
X120381047Y-39493217D01*
X120553015Y-39433043D01*
X120707281Y-39336111D01*
X120836111Y-39207281D01*
X120933043Y-39053015D01*
X120993217Y-38881047D01*
X120998230Y-38836545D01*
X121009915Y-38795986D01*
X121034340Y-38761562D01*
X122889830Y-36906072D01*
X122939978Y-36875340D01*
X122998618Y-36870720D01*
X123052966Y-36893224D01*
X123091175Y-36937946D01*
X123104920Y-36995140D01*
X123111027Y-61562324D01*
X123094133Y-61625378D01*
X123047954Y-61671517D01*
X122984884Y-61688355D01*
X79136884Y-61638641D01*
X79073954Y-61621718D01*
X79027894Y-61575618D01*
X79011027Y-61512674D01*
X79003172Y-29877016D01*
X80787719Y-29877016D01*
X80797792Y-30088474D01*
X80799207Y-30094307D01*
X80799208Y-30094313D01*
X80819882Y-30179531D01*
X80847702Y-30294204D01*
X80850196Y-30299665D01*
X80933150Y-30481311D01*
X80933152Y-30481315D01*
X80935644Y-30486771D01*
X81058441Y-30659215D01*
X81062783Y-30663355D01*
X81195087Y-30789507D01*
X81211654Y-30805303D01*
X81389746Y-30919756D01*
X81586279Y-30998436D01*
X81794151Y-31038500D01*
X83249802Y-31038500D01*
X83252803Y-31038500D01*
X83410739Y-31023419D01*
X83613862Y-30963777D01*
X83802026Y-30866771D01*
X83968432Y-30735908D01*
X84107065Y-30575918D01*
X84212913Y-30392582D01*
X84282153Y-30192527D01*
X84312281Y-29982984D01*
X84302208Y-29771526D01*
X84252298Y-29565796D01*
X84164356Y-29373229D01*
X84041559Y-29200785D01*
X83986211Y-29148011D01*
X83892684Y-29058833D01*
X83892682Y-29058831D01*
X83888346Y-29054697D01*
X83883304Y-29051457D01*
X83883302Y-29051455D01*
X83715302Y-28943488D01*
X83715300Y-28943487D01*
X83710254Y-28940244D01*
X83704679Y-28938012D01*
X83519293Y-28863794D01*
X83519286Y-28863792D01*
X83513721Y-28861564D01*
X83507833Y-28860429D01*
X83507829Y-28860428D01*
X83311737Y-28822634D01*
X83311728Y-28822633D01*
X83305849Y-28821500D01*
X81847197Y-28821500D01*
X81844219Y-28821784D01*
X81844205Y-28821785D01*
X81695236Y-28836010D01*
X81695231Y-28836010D01*
X81689261Y-28836581D01*
X81683511Y-28838269D01*
X81683502Y-28838271D01*
X81491903Y-28894530D01*
X81491900Y-28894530D01*
X81486138Y-28896223D01*
X81480806Y-28898971D01*
X81480798Y-28898975D01*
X81303312Y-28990476D01*
X81303303Y-28990481D01*
X81297974Y-28993229D01*
X81293257Y-28996938D01*
X81293253Y-28996941D01*
X81136281Y-29120384D01*
X81136271Y-29120393D01*
X81131568Y-29124092D01*
X81127645Y-29128618D01*
X81127640Y-29128624D01*
X80996867Y-29279543D01*
X80996861Y-29279550D01*
X80992935Y-29284082D01*
X80989933Y-29289281D01*
X80989932Y-29289283D01*
X80890089Y-29462217D01*
X80890086Y-29462223D01*
X80887087Y-29467418D01*
X80885125Y-29473086D01*
X80885123Y-29473091D01*
X80819811Y-29661796D01*
X80819809Y-29661804D01*
X80817847Y-29667473D01*
X80816993Y-29673410D01*
X80816991Y-29673420D01*
X80788573Y-29871073D01*
X80787719Y-29877016D01*
X79003172Y-29877016D01*
X79001745Y-24130000D01*
X81136673Y-24130000D01*
X81137103Y-24135189D01*
X81153128Y-24328588D01*
X81155949Y-24362626D01*
X81161867Y-24385997D01*
X81211262Y-24581056D01*
X81213251Y-24588907D01*
X81215343Y-24593676D01*
X81215344Y-24593679D01*
X81226939Y-24620113D01*
X81307016Y-24802669D01*
X81434686Y-24998083D01*
X81438214Y-25001915D01*
X81589247Y-25165981D01*
X81589252Y-25165985D01*
X81592780Y-25169818D01*
X81776983Y-25313190D01*
X81982273Y-25424287D01*
X82001364Y-25430841D01*
X82133859Y-25476327D01*
X82191086Y-25516476D01*
X82218104Y-25580949D01*
X82206598Y-25649901D01*
X82160109Y-25702108D01*
X82092947Y-25721500D01*
X81601362Y-25721500D01*
X81598015Y-25721859D01*
X81598011Y-25721860D01*
X81548632Y-25727168D01*
X81548625Y-25727169D01*
X81540799Y-25728011D01*
X81533423Y-25730761D01*
X81533419Y-25730763D01*
X81412236Y-25775962D01*
X81412230Y-25775965D01*
X81403796Y-25779111D01*
X81396588Y-25784506D01*
X81396582Y-25784510D01*
X81293950Y-25861340D01*
X81293946Y-25861343D01*
X81286739Y-25866739D01*
X81281343Y-25873946D01*
X81281340Y-25873950D01*
X81204510Y-25976582D01*
X81204506Y-25976588D01*
X81199111Y-25983796D01*
X81195965Y-25992230D01*
X81195962Y-25992236D01*
X81150763Y-26113419D01*
X81150761Y-26113423D01*
X81148011Y-26120799D01*
X81147169Y-26128625D01*
X81147168Y-26128632D01*
X81142079Y-26175977D01*
X81141500Y-26181362D01*
X81141500Y-28078638D01*
X81141859Y-28081985D01*
X81141860Y-28081988D01*
X81147168Y-28131367D01*
X81147169Y-28131373D01*
X81148011Y-28139201D01*
X81150762Y-28146578D01*
X81150763Y-28146580D01*
X81195962Y-28267763D01*
X81195964Y-28267766D01*
X81199111Y-28276204D01*
X81204508Y-28283414D01*
X81204510Y-28283417D01*
X81262745Y-28361209D01*
X81286739Y-28393261D01*
X81293950Y-28398659D01*
X81327149Y-28423512D01*
X81403796Y-28480889D01*
X81540799Y-28531989D01*
X81601362Y-28538500D01*
X83495269Y-28538500D01*
X83498638Y-28538500D01*
X83559201Y-28531989D01*
X83696204Y-28480889D01*
X83813261Y-28393261D01*
X83900889Y-28276204D01*
X83951989Y-28139201D01*
X83958500Y-28078638D01*
X83958500Y-26181362D01*
X83951989Y-26120799D01*
X83900889Y-25983796D01*
X83873788Y-25947594D01*
X83818659Y-25873950D01*
X83813261Y-25866739D01*
X83740450Y-25812233D01*
X83703417Y-25784510D01*
X83703414Y-25784508D01*
X83696204Y-25779111D01*
X83687766Y-25775964D01*
X83687763Y-25775962D01*
X83566580Y-25730763D01*
X83566578Y-25730762D01*
X83559201Y-25728011D01*
X83551373Y-25727169D01*
X83551367Y-25727168D01*
X83501988Y-25721860D01*
X83501985Y-25721859D01*
X83498638Y-25721500D01*
X83007053Y-25721500D01*
X82939891Y-25702108D01*
X82893402Y-25649901D01*
X82881896Y-25580949D01*
X82908914Y-25516476D01*
X82966141Y-25476327D01*
X83021284Y-25457396D01*
X83117727Y-25424287D01*
X83323017Y-25313190D01*
X83331454Y-25306623D01*
X85853801Y-25306623D01*
X85854160Y-25313338D01*
X85859463Y-25362657D01*
X85863060Y-25377878D01*
X85908206Y-25498919D01*
X85916755Y-25514575D01*
X85993498Y-25617092D01*
X86006108Y-25629702D01*
X86108625Y-25706445D01*
X86124281Y-25714994D01*
X86245322Y-25760140D01*
X86260543Y-25763737D01*
X86309862Y-25769040D01*
X86316578Y-25769400D01*
X86421411Y-25769400D01*
X86434494Y-25765893D01*
X86438001Y-25752810D01*
X86438001Y-24531990D01*
X86434494Y-24518906D01*
X86421411Y-24515400D01*
X85870391Y-24515400D01*
X85857307Y-24518906D01*
X85853801Y-24531990D01*
X85853801Y-25306623D01*
X83331454Y-25306623D01*
X83507220Y-25169818D01*
X83665314Y-24998083D01*
X83792984Y-24802669D01*
X83886749Y-24588907D01*
X83944051Y-24362626D01*
X83963327Y-24130000D01*
X83951793Y-23990810D01*
X85853801Y-23990810D01*
X85857307Y-24003893D01*
X85870391Y-24007400D01*
X86421411Y-24007400D01*
X86434494Y-24003893D01*
X86438001Y-23990810D01*
X86438001Y-22769990D01*
X86434494Y-22756906D01*
X86421411Y-22753400D01*
X86316578Y-22753400D01*
X86309862Y-22753759D01*
X86260543Y-22759062D01*
X86245322Y-22762659D01*
X86124281Y-22807805D01*
X86108625Y-22816354D01*
X86006108Y-22893097D01*
X85993498Y-22905707D01*
X85916755Y-23008224D01*
X85908206Y-23023880D01*
X85863060Y-23144921D01*
X85859463Y-23160142D01*
X85854160Y-23209461D01*
X85853801Y-23216177D01*
X85853801Y-23990810D01*
X83951793Y-23990810D01*
X83944051Y-23897374D01*
X83886749Y-23671093D01*
X83792984Y-23457331D01*
X83665314Y-23261917D01*
X83601880Y-23193010D01*
X83510752Y-23094018D01*
X83510747Y-23094013D01*
X83507220Y-23090182D01*
X83410879Y-23015196D01*
X83327130Y-22950011D01*
X83327127Y-22950009D01*
X83323017Y-22946810D01*
X83318438Y-22944332D01*
X83318435Y-22944330D01*
X83122312Y-22838194D01*
X83122309Y-22838192D01*
X83117727Y-22835713D01*
X83112799Y-22834021D01*
X83112794Y-22834019D01*
X82901881Y-22761612D01*
X82901875Y-22761610D01*
X82896951Y-22759920D01*
X82891814Y-22759062D01*
X82891811Y-22759062D01*
X82863164Y-22754282D01*
X82800110Y-22724100D01*
X82762848Y-22664953D01*
X82762848Y-22595047D01*
X82800110Y-22535900D01*
X82863164Y-22505718D01*
X82896951Y-22500080D01*
X83117727Y-22424287D01*
X83323017Y-22313190D01*
X83507220Y-22169818D01*
X83665314Y-21998083D01*
X83792984Y-21802669D01*
X83886749Y-21588907D01*
X83944051Y-21362626D01*
X83963327Y-21130000D01*
X83944051Y-20897374D01*
X83886749Y-20671093D01*
X83792984Y-20457331D01*
X83665314Y-20261917D01*
X83593177Y-20183556D01*
X83510752Y-20094018D01*
X83510747Y-20094013D01*
X83507220Y-20090182D01*
X83503101Y-20086976D01*
X83327130Y-19950011D01*
X83327127Y-19950009D01*
X83323017Y-19946810D01*
X83318438Y-19944332D01*
X83318435Y-19944330D01*
X83122312Y-19838194D01*
X83122309Y-19838192D01*
X83117727Y-19835713D01*
X83112799Y-19834021D01*
X83112794Y-19834019D01*
X82921429Y-19768323D01*
X84428000Y-19768323D01*
X84428359Y-19775038D01*
X84433662Y-19824357D01*
X84437259Y-19839578D01*
X84482405Y-19960619D01*
X84490954Y-19976275D01*
X84567697Y-20078792D01*
X84580307Y-20091402D01*
X84682824Y-20168145D01*
X84698480Y-20176694D01*
X84819521Y-20221840D01*
X84834742Y-20225437D01*
X84884061Y-20230740D01*
X84890777Y-20231100D01*
X85046410Y-20231100D01*
X85059493Y-20227593D01*
X85063000Y-20214510D01*
X85571000Y-20214510D01*
X85574506Y-20227593D01*
X85587590Y-20231100D01*
X85743223Y-20231100D01*
X85749938Y-20230740D01*
X85799257Y-20225437D01*
X85814478Y-20221840D01*
X85935519Y-20176694D01*
X85951175Y-20168145D01*
X86053692Y-20091402D01*
X86066302Y-20078792D01*
X86143045Y-19976275D01*
X86151594Y-19960619D01*
X86196740Y-19839578D01*
X86200337Y-19824357D01*
X86205640Y-19775038D01*
X86206000Y-19768323D01*
X90578000Y-19768323D01*
X90578359Y-19775038D01*
X90583662Y-19824357D01*
X90587259Y-19839578D01*
X90632405Y-19960619D01*
X90640954Y-19976275D01*
X90717697Y-20078792D01*
X90730307Y-20091402D01*
X90832824Y-20168145D01*
X90848480Y-20176694D01*
X90969521Y-20221840D01*
X90984742Y-20225437D01*
X91034061Y-20230740D01*
X91040777Y-20231100D01*
X91196410Y-20231100D01*
X91209493Y-20227593D01*
X91213000Y-20214510D01*
X91721000Y-20214510D01*
X91724506Y-20227593D01*
X91737590Y-20231100D01*
X91893223Y-20231100D01*
X91899938Y-20230740D01*
X91949257Y-20225437D01*
X91964478Y-20221840D01*
X92085519Y-20176694D01*
X92101175Y-20168145D01*
X92203692Y-20091402D01*
X92216302Y-20078792D01*
X92293045Y-19976275D01*
X92301594Y-19960619D01*
X92346740Y-19839578D01*
X92350337Y-19824357D01*
X92355640Y-19775038D01*
X92356000Y-19768323D01*
X92356000Y-19066590D01*
X92352493Y-19053506D01*
X92339410Y-19050000D01*
X91737590Y-19050000D01*
X91724506Y-19053506D01*
X91721000Y-19066590D01*
X91721000Y-20214510D01*
X91213000Y-20214510D01*
X91213000Y-19066590D01*
X91209493Y-19053506D01*
X91196410Y-19050000D01*
X90594590Y-19050000D01*
X90581506Y-19053506D01*
X90578000Y-19066590D01*
X90578000Y-19768323D01*
X86206000Y-19768323D01*
X86206000Y-19066590D01*
X86202493Y-19053506D01*
X86189410Y-19050000D01*
X85587590Y-19050000D01*
X85574506Y-19053506D01*
X85571000Y-19066590D01*
X85571000Y-20214510D01*
X85063000Y-20214510D01*
X85063000Y-19066590D01*
X85059493Y-19053506D01*
X85046410Y-19050000D01*
X84444590Y-19050000D01*
X84431506Y-19053506D01*
X84428000Y-19066590D01*
X84428000Y-19768323D01*
X82921429Y-19768323D01*
X82901881Y-19761612D01*
X82901875Y-19761610D01*
X82896951Y-19759920D01*
X82891814Y-19759062D01*
X82891811Y-19759062D01*
X82671849Y-19722357D01*
X82671846Y-19722356D01*
X82666712Y-19721500D01*
X82433288Y-19721500D01*
X82428154Y-19722356D01*
X82428150Y-19722357D01*
X82208188Y-19759062D01*
X82208182Y-19759063D01*
X82203049Y-19759920D01*
X82198127Y-19761609D01*
X82198118Y-19761612D01*
X81987205Y-19834019D01*
X81987196Y-19834022D01*
X81982273Y-19835713D01*
X81977694Y-19838190D01*
X81977687Y-19838194D01*
X81781564Y-19944330D01*
X81781556Y-19944335D01*
X81776983Y-19946810D01*
X81772877Y-19950005D01*
X81772869Y-19950011D01*
X81596898Y-20086976D01*
X81596892Y-20086981D01*
X81592780Y-20090182D01*
X81589258Y-20094007D01*
X81589247Y-20094018D01*
X81438214Y-20258084D01*
X81438211Y-20258087D01*
X81434686Y-20261917D01*
X81431838Y-20266275D01*
X81431835Y-20266280D01*
X81309868Y-20452965D01*
X81307016Y-20457331D01*
X81304923Y-20462101D01*
X81304921Y-20462106D01*
X81215344Y-20666320D01*
X81215341Y-20666326D01*
X81213251Y-20671093D01*
X81211973Y-20676137D01*
X81211971Y-20676145D01*
X81161892Y-20873904D01*
X81155949Y-20897374D01*
X81155519Y-20902562D01*
X81155518Y-20902569D01*
X81142994Y-21053712D01*
X81136673Y-21130000D01*
X81137103Y-21135189D01*
X81154286Y-21342565D01*
X81155949Y-21362626D01*
X81161263Y-21383610D01*
X81208832Y-21571459D01*
X81213251Y-21588907D01*
X81215343Y-21593676D01*
X81215344Y-21593679D01*
X81296410Y-21778490D01*
X81307016Y-21802669D01*
X81434686Y-21998083D01*
X81462156Y-22027923D01*
X81589247Y-22165981D01*
X81589252Y-22165985D01*
X81592780Y-22169818D01*
X81686967Y-22243127D01*
X81743064Y-22286790D01*
X81776983Y-22313190D01*
X81982273Y-22424287D01*
X82203049Y-22500080D01*
X82208194Y-22500938D01*
X82208200Y-22500940D01*
X82236835Y-22505719D01*
X82299889Y-22535901D01*
X82337151Y-22595047D01*
X82337151Y-22664953D01*
X82299889Y-22724099D01*
X82236835Y-22754281D01*
X82208200Y-22759059D01*
X82208183Y-22759063D01*
X82203049Y-22759920D01*
X82198127Y-22761609D01*
X82198118Y-22761612D01*
X81987205Y-22834019D01*
X81987196Y-22834022D01*
X81982273Y-22835713D01*
X81977694Y-22838190D01*
X81977687Y-22838194D01*
X81781564Y-22944330D01*
X81781556Y-22944335D01*
X81776983Y-22946810D01*
X81772877Y-22950005D01*
X81772869Y-22950011D01*
X81596898Y-23086976D01*
X81596892Y-23086981D01*
X81592780Y-23090182D01*
X81589258Y-23094007D01*
X81589247Y-23094018D01*
X81438214Y-23258084D01*
X81438211Y-23258087D01*
X81434686Y-23261917D01*
X81431838Y-23266275D01*
X81431835Y-23266280D01*
X81322901Y-23433017D01*
X81307016Y-23457331D01*
X81304923Y-23462101D01*
X81304921Y-23462106D01*
X81215344Y-23666320D01*
X81215341Y-23666326D01*
X81213251Y-23671093D01*
X81211973Y-23676137D01*
X81211971Y-23676145D01*
X81162368Y-23872026D01*
X81155949Y-23897374D01*
X81155519Y-23902562D01*
X81155518Y-23902569D01*
X81137961Y-24114446D01*
X81136673Y-24130000D01*
X79001745Y-24130000D01*
X79000031Y-17226315D01*
X79016949Y-17163222D01*
X79063187Y-17117077D01*
X79126315Y-17100286D01*
X81337384Y-17105300D01*
G37*
G04 #@! TD.AperFunction*
G04 #@! TA.AperFunction,Conductor*
G36*
X98425743Y-36866068D02*
G01*
X98475902Y-36896806D01*
X98481010Y-36901914D01*
X98484194Y-36904384D01*
X98493217Y-36912089D01*
X98525459Y-36942366D01*
X98532408Y-36946186D01*
X98543209Y-36952124D01*
X98559739Y-36962982D01*
X98569474Y-36970534D01*
X98569477Y-36970536D01*
X98575739Y-36975393D01*
X98616316Y-36992952D01*
X98626951Y-36998161D01*
X98665720Y-37019475D01*
X98685346Y-37024514D01*
X98704039Y-37030914D01*
X98722635Y-37038961D01*
X98730466Y-37040201D01*
X98730469Y-37040202D01*
X98746908Y-37042805D01*
X98766305Y-37045877D01*
X98777905Y-37048278D01*
X98820750Y-37059280D01*
X98841004Y-37059280D01*
X98860714Y-37060830D01*
X98880723Y-37064000D01*
X98924741Y-37059838D01*
X98936599Y-37059280D01*
X102086186Y-37059280D01*
X102134404Y-37068871D01*
X102175281Y-37096185D01*
X102948647Y-37869551D01*
X102982393Y-37930608D01*
X102978481Y-38000261D01*
X102938112Y-38057156D01*
X102873660Y-38083854D01*
X102712291Y-38102036D01*
X102698583Y-38105166D01*
X102550708Y-38156909D01*
X102549757Y-38157367D01*
X102546370Y-38160753D01*
X102552393Y-38170340D01*
X102875001Y-38492947D01*
X102875002Y-38492948D01*
X103551161Y-39169108D01*
X103561590Y-39175662D01*
X103583226Y-39168099D01*
X103603158Y-39156599D01*
X103668364Y-39156608D01*
X103688223Y-39168073D01*
X103709908Y-39175660D01*
X103720339Y-39169106D01*
X103993583Y-38895862D01*
X104049432Y-38863423D01*
X104114014Y-38862916D01*
X104127969Y-38866499D01*
X104148223Y-38866499D01*
X104167933Y-38868049D01*
X104187942Y-38871219D01*
X104231960Y-38867057D01*
X104243818Y-38866499D01*
X104717860Y-38866499D01*
X104766078Y-38876090D01*
X104806955Y-38903404D01*
X105072657Y-39169106D01*
X105082245Y-39175131D01*
X105085616Y-39171762D01*
X105086489Y-39169953D01*
X105132980Y-39117949D01*
X105200013Y-39098647D01*
X105267041Y-39117964D01*
X105313521Y-39169978D01*
X105314374Y-39171749D01*
X105317755Y-39175130D01*
X105327341Y-39169106D01*
X105593046Y-38903403D01*
X105633923Y-38876090D01*
X105682141Y-38866499D01*
X106324862Y-38866499D01*
X106373080Y-38876090D01*
X106413957Y-38903404D01*
X106679659Y-39169106D01*
X106690091Y-39175662D01*
X106711726Y-39168099D01*
X106731658Y-39156599D01*
X106796864Y-39156608D01*
X106816723Y-39168073D01*
X106838408Y-39175660D01*
X106848839Y-39169106D01*
X107114544Y-38903403D01*
X107155421Y-38876090D01*
X107203639Y-38866499D01*
X107846360Y-38866499D01*
X107894578Y-38876090D01*
X107935455Y-38903404D01*
X108201157Y-39169106D01*
X108210745Y-39175131D01*
X108214117Y-39171761D01*
X108214596Y-39170769D01*
X108266331Y-39022916D01*
X108269461Y-39009207D01*
X108272933Y-38978392D01*
X108294035Y-38921521D01*
X108339265Y-38881101D01*
X108398141Y-38866499D01*
X108689355Y-38866499D01*
X108748231Y-38881100D01*
X108793461Y-38921520D01*
X108814563Y-38978391D01*
X108821341Y-39038546D01*
X108823676Y-39045219D01*
X108823677Y-39045223D01*
X108879177Y-39203834D01*
X108879179Y-39203838D01*
X108881515Y-39210514D01*
X108885277Y-39216502D01*
X108885279Y-39216505D01*
X108963430Y-39340882D01*
X108978447Y-39364780D01*
X109107277Y-39493610D01*
X109113271Y-39497376D01*
X109113272Y-39497377D01*
X109225087Y-39567635D01*
X109261543Y-39590542D01*
X109347084Y-39620474D01*
X109400970Y-39657212D01*
X109429269Y-39715976D01*
X109424395Y-39781016D01*
X109412537Y-39814904D01*
X109372168Y-39871799D01*
X109307718Y-39898497D01*
X109240663Y-39906053D01*
X109240661Y-39906053D01*
X109233636Y-39906845D01*
X109226959Y-39909181D01*
X109226956Y-39909182D01*
X109068347Y-39964681D01*
X109068339Y-39964684D01*
X109061668Y-39967019D01*
X109055683Y-39970779D01*
X109055676Y-39970783D01*
X108913397Y-40060183D01*
X108913390Y-40060188D01*
X108907402Y-40063951D01*
X108902397Y-40068955D01*
X108902393Y-40068959D01*
X108783580Y-40187772D01*
X108783576Y-40187776D01*
X108778572Y-40192781D01*
X108774809Y-40198769D01*
X108774804Y-40198776D01*
X108685404Y-40341055D01*
X108685400Y-40341062D01*
X108681640Y-40347047D01*
X108679305Y-40353718D01*
X108679302Y-40353726D01*
X108623802Y-40512337D01*
X108623800Y-40512342D01*
X108621466Y-40519015D01*
X108601067Y-40700062D01*
X108621466Y-40881109D01*
X108623801Y-40887782D01*
X108623802Y-40887786D01*
X108679302Y-41046397D01*
X108679304Y-41046401D01*
X108681640Y-41053077D01*
X108685402Y-41059065D01*
X108685404Y-41059068D01*
X108761870Y-41180762D01*
X108781183Y-41247798D01*
X108781183Y-42706088D01*
X108767450Y-42763291D01*
X108729244Y-42808024D01*
X108674894Y-42830537D01*
X108616247Y-42825921D01*
X108566087Y-42795183D01*
X108433623Y-42662719D01*
X108103641Y-42332736D01*
X108096111Y-42324461D01*
X108092000Y-42317982D01*
X108042347Y-42271355D01*
X108039505Y-42268600D01*
X108022574Y-42251669D01*
X108019770Y-42248865D01*
X108016575Y-42246386D01*
X108007554Y-42238682D01*
X107981097Y-42213838D01*
X107975321Y-42208414D01*
X107968377Y-42204596D01*
X107968371Y-42204592D01*
X107957566Y-42198652D01*
X107941047Y-42187801D01*
X107925041Y-42175386D01*
X107917766Y-42172238D01*
X107917763Y-42172236D01*
X107884466Y-42157828D01*
X107873804Y-42152605D01*
X107842007Y-42135124D01*
X107842005Y-42135123D01*
X107835060Y-42131305D01*
X107827383Y-42129334D01*
X107827381Y-42129333D01*
X107815438Y-42126267D01*
X107796734Y-42119863D01*
X107785420Y-42114967D01*
X107785418Y-42114966D01*
X107778145Y-42111819D01*
X107770319Y-42110579D01*
X107770318Y-42110579D01*
X107734475Y-42104902D01*
X107722859Y-42102496D01*
X107680030Y-42091500D01*
X107672101Y-42091500D01*
X107659776Y-42091500D01*
X107640065Y-42089949D01*
X107627885Y-42088019D01*
X107627878Y-42088018D01*
X107620057Y-42086780D01*
X107612173Y-42087525D01*
X107612165Y-42087525D01*
X107576039Y-42090941D01*
X107564181Y-42091500D01*
X106891504Y-42091500D01*
X106828504Y-42074619D01*
X106782385Y-42028500D01*
X106767997Y-41974807D01*
X106766296Y-41974999D01*
X106747962Y-41812289D01*
X106744833Y-41798581D01*
X106693096Y-41650722D01*
X106692624Y-41649742D01*
X106689245Y-41646365D01*
X106679661Y-41652388D01*
X106357063Y-41974986D01*
X106357050Y-41975002D01*
X106277458Y-42054595D01*
X106236580Y-42081909D01*
X106188362Y-42091500D01*
X105818640Y-42091500D01*
X105770422Y-42081909D01*
X105729545Y-42054595D01*
X105649951Y-41975001D01*
X105649949Y-41974998D01*
X105327344Y-41652393D01*
X105317755Y-41646368D01*
X105314369Y-41649756D01*
X105313525Y-41651509D01*
X105267043Y-41703530D01*
X105200009Y-41722848D01*
X105132972Y-41703541D01*
X105086482Y-41651527D01*
X105085622Y-41649743D01*
X105082243Y-41646365D01*
X105072659Y-41652388D01*
X104750061Y-41974986D01*
X104750048Y-41975002D01*
X104670456Y-42054595D01*
X104629578Y-42081909D01*
X104581360Y-42091500D01*
X104211638Y-42091500D01*
X104163420Y-42081909D01*
X104122543Y-42054595D01*
X104042949Y-41975001D01*
X104042947Y-41974998D01*
X103720342Y-41652393D01*
X103710753Y-41646368D01*
X103707367Y-41649755D01*
X103706909Y-41650706D01*
X103655166Y-41798581D01*
X103652037Y-41812289D01*
X103633704Y-41974999D01*
X103632002Y-41974807D01*
X103617615Y-42028500D01*
X103571496Y-42074619D01*
X103508496Y-42091500D01*
X101633478Y-42091500D01*
X101585260Y-42081909D01*
X101544383Y-42054595D01*
X101124986Y-41635198D01*
X101095151Y-41587716D01*
X101088874Y-41531991D01*
X101107397Y-41479062D01*
X101147048Y-41439414D01*
X101165692Y-41427700D01*
X101294522Y-41298870D01*
X101391454Y-41144604D01*
X101393329Y-41139245D01*
X102546367Y-41139245D01*
X102549744Y-41142624D01*
X102550724Y-41143096D01*
X102698583Y-41194833D01*
X102712291Y-41197962D01*
X102867972Y-41215504D01*
X102882030Y-41215504D01*
X103037710Y-41197962D01*
X103051418Y-41194833D01*
X103199271Y-41143098D01*
X103200263Y-41142619D01*
X103202791Y-41140090D01*
X104067335Y-41140090D01*
X104074919Y-41161775D01*
X104086391Y-41181650D01*
X104086382Y-41246872D01*
X104074943Y-41266677D01*
X104067337Y-41288408D01*
X104073891Y-41298840D01*
X104384770Y-41609718D01*
X104396498Y-41616489D01*
X104408228Y-41609717D01*
X104719103Y-41298842D01*
X104725660Y-41288407D01*
X104718073Y-41266723D01*
X104706608Y-41246864D01*
X104706599Y-41181658D01*
X104718099Y-41161726D01*
X104725662Y-41140091D01*
X104725661Y-41140090D01*
X105674337Y-41140090D01*
X105681921Y-41161775D01*
X105693393Y-41181650D01*
X105693384Y-41246872D01*
X105681945Y-41266677D01*
X105674339Y-41288408D01*
X105680893Y-41298840D01*
X105991772Y-41609718D01*
X106003500Y-41616489D01*
X106015230Y-41609717D01*
X106326105Y-41298842D01*
X106332662Y-41288407D01*
X106325075Y-41266723D01*
X106313610Y-41246864D01*
X106313601Y-41181658D01*
X106325101Y-41161726D01*
X106332664Y-41140091D01*
X106332132Y-41139245D01*
X107196365Y-41139245D01*
X107199742Y-41142624D01*
X107200722Y-41143096D01*
X107348581Y-41194833D01*
X107362289Y-41197962D01*
X107517970Y-41215504D01*
X107532028Y-41215504D01*
X107687708Y-41197962D01*
X107701416Y-41194833D01*
X107849269Y-41143098D01*
X107850261Y-41142619D01*
X107853631Y-41139247D01*
X107847606Y-41129659D01*
X107536728Y-40818781D01*
X107524998Y-40812009D01*
X107513270Y-40818780D01*
X107202388Y-41129661D01*
X107196365Y-41139245D01*
X106332132Y-41139245D01*
X106326108Y-41129659D01*
X106015230Y-40818781D01*
X106003500Y-40812009D01*
X105991772Y-40818780D01*
X105680890Y-41129661D01*
X105674337Y-41140090D01*
X104725661Y-41140090D01*
X104719106Y-41129659D01*
X104408228Y-40818781D01*
X104396498Y-40812009D01*
X104384770Y-40818780D01*
X104073888Y-41129661D01*
X104067335Y-41140090D01*
X103202791Y-41140090D01*
X103203633Y-41139247D01*
X103197608Y-41129659D01*
X102886730Y-40818781D01*
X102875000Y-40812009D01*
X102863272Y-40818780D01*
X102552390Y-41129661D01*
X102546367Y-41139245D01*
X101393329Y-41139245D01*
X101451628Y-40972636D01*
X101472027Y-40791589D01*
X101451628Y-40610542D01*
X101399137Y-40460530D01*
X102112998Y-40460530D01*
X102130539Y-40616210D01*
X102133668Y-40629918D01*
X102185408Y-40777785D01*
X102185874Y-40778751D01*
X102189254Y-40782131D01*
X102198844Y-40776105D01*
X102509719Y-40465230D01*
X102516491Y-40453500D01*
X103233509Y-40453500D01*
X103240281Y-40465230D01*
X103551159Y-40776108D01*
X103561591Y-40782664D01*
X103583226Y-40775101D01*
X103603158Y-40763601D01*
X103668364Y-40763610D01*
X103688223Y-40775075D01*
X103709907Y-40782662D01*
X103720342Y-40776105D01*
X104031217Y-40465230D01*
X104037989Y-40453500D01*
X104755007Y-40453500D01*
X104761779Y-40465230D01*
X105072657Y-40776108D01*
X105082245Y-40782133D01*
X105085616Y-40778764D01*
X105086489Y-40776955D01*
X105132980Y-40724951D01*
X105200013Y-40705649D01*
X105267041Y-40724966D01*
X105313521Y-40776980D01*
X105314374Y-40778751D01*
X105317754Y-40782131D01*
X105327344Y-40776105D01*
X105638219Y-40465230D01*
X105644991Y-40453500D01*
X106362009Y-40453500D01*
X106368781Y-40465230D01*
X106679659Y-40776108D01*
X106690091Y-40782664D01*
X106711726Y-40775101D01*
X106731658Y-40763601D01*
X106796864Y-40763610D01*
X106816723Y-40775075D01*
X106838407Y-40782662D01*
X106848842Y-40776105D01*
X107159717Y-40465230D01*
X107166489Y-40453500D01*
X107883507Y-40453500D01*
X107890279Y-40465230D01*
X108201157Y-40776108D01*
X108210745Y-40782133D01*
X108214117Y-40778763D01*
X108214596Y-40777771D01*
X108266331Y-40629918D01*
X108269460Y-40616210D01*
X108287002Y-40460530D01*
X108287002Y-40446472D01*
X108269460Y-40290791D01*
X108266331Y-40277083D01*
X108214594Y-40129224D01*
X108214122Y-40128244D01*
X108210743Y-40124867D01*
X108201159Y-40130890D01*
X107890278Y-40441772D01*
X107883507Y-40453500D01*
X107166489Y-40453500D01*
X107159718Y-40441772D01*
X106848840Y-40130893D01*
X106838408Y-40124339D01*
X106816677Y-40131945D01*
X106796872Y-40143384D01*
X106731650Y-40143393D01*
X106711775Y-40131921D01*
X106690090Y-40124337D01*
X106679661Y-40130890D01*
X106368780Y-40441772D01*
X106362009Y-40453500D01*
X105644991Y-40453500D01*
X105638220Y-40441772D01*
X105327342Y-40130893D01*
X105317755Y-40124870D01*
X105314369Y-40128258D01*
X105313525Y-40130011D01*
X105267043Y-40182032D01*
X105200009Y-40201350D01*
X105132972Y-40182043D01*
X105086482Y-40130029D01*
X105085622Y-40128245D01*
X105082243Y-40124867D01*
X105072659Y-40130890D01*
X104761778Y-40441772D01*
X104755007Y-40453500D01*
X104037989Y-40453500D01*
X104031218Y-40441772D01*
X103720340Y-40130893D01*
X103709908Y-40124339D01*
X103688177Y-40131945D01*
X103668372Y-40143384D01*
X103603150Y-40143393D01*
X103583275Y-40131921D01*
X103561590Y-40124337D01*
X103551161Y-40130890D01*
X103240280Y-40441772D01*
X103233509Y-40453500D01*
X102516491Y-40453500D01*
X102509720Y-40441772D01*
X102198842Y-40130893D01*
X102189255Y-40124870D01*
X102185869Y-40128257D01*
X102185411Y-40129208D01*
X102133668Y-40277083D01*
X102130539Y-40290791D01*
X102112998Y-40446472D01*
X102112998Y-40460530D01*
X101399137Y-40460530D01*
X101391454Y-40438574D01*
X101342789Y-40361124D01*
X101298289Y-40290303D01*
X101298288Y-40290302D01*
X101294522Y-40284308D01*
X101165692Y-40155478D01*
X101159698Y-40151712D01*
X101159696Y-40151710D01*
X101017417Y-40062310D01*
X101017414Y-40062308D01*
X101011426Y-40058546D01*
X101004750Y-40056210D01*
X101004746Y-40056208D01*
X100846135Y-40000708D01*
X100846131Y-40000707D01*
X100839458Y-39998372D01*
X100658411Y-39977973D01*
X100651382Y-39978765D01*
X100484392Y-39997580D01*
X100484390Y-39997580D01*
X100477364Y-39998372D01*
X100470691Y-40000706D01*
X100470686Y-40000708D01*
X100312075Y-40056208D01*
X100312067Y-40056211D01*
X100305396Y-40058546D01*
X100299411Y-40062306D01*
X100299404Y-40062310D01*
X100157125Y-40151710D01*
X100157118Y-40151715D01*
X100151130Y-40155478D01*
X100146125Y-40160482D01*
X100146121Y-40160486D01*
X100027305Y-40279302D01*
X100027301Y-40279306D01*
X100022300Y-40284308D01*
X100018538Y-40290294D01*
X100018530Y-40290305D01*
X100010579Y-40302958D01*
X99970927Y-40342606D01*
X99918000Y-40361124D01*
X99862279Y-40354845D01*
X99814801Y-40325012D01*
X99370881Y-39881093D01*
X99338269Y-39824608D01*
X99338269Y-39759386D01*
X99370879Y-39702904D01*
X99492043Y-39581740D01*
X99500317Y-39574211D01*
X99506802Y-39570097D01*
X99542348Y-39532243D01*
X102546367Y-39532243D01*
X102549745Y-39535622D01*
X102551529Y-39536482D01*
X102603543Y-39582972D01*
X102622850Y-39650009D01*
X102603532Y-39717043D01*
X102551511Y-39763525D01*
X102549758Y-39764369D01*
X102546370Y-39767755D01*
X102552393Y-39777342D01*
X102863272Y-40088220D01*
X102875000Y-40094991D01*
X102886730Y-40088219D01*
X103197605Y-39777344D01*
X103203631Y-39767754D01*
X103200251Y-39764374D01*
X103198480Y-39763521D01*
X103146466Y-39717041D01*
X103127149Y-39650013D01*
X103146451Y-39582980D01*
X103198455Y-39536489D01*
X103200264Y-39535616D01*
X103203633Y-39532245D01*
X103203632Y-39532243D01*
X104067865Y-39532243D01*
X104071243Y-39535622D01*
X104073027Y-39536482D01*
X104125041Y-39582972D01*
X104144348Y-39650009D01*
X104125030Y-39717043D01*
X104073009Y-39763525D01*
X104071256Y-39764369D01*
X104067868Y-39767755D01*
X104073891Y-39777342D01*
X104384770Y-40088220D01*
X104396498Y-40094991D01*
X104408228Y-40088219D01*
X104719103Y-39777344D01*
X104725129Y-39767754D01*
X104721749Y-39764374D01*
X104719978Y-39763521D01*
X104667964Y-39717041D01*
X104648647Y-39650013D01*
X104667949Y-39582980D01*
X104719953Y-39536489D01*
X104721762Y-39535616D01*
X104725131Y-39532245D01*
X104725130Y-39532243D01*
X105674867Y-39532243D01*
X105678245Y-39535622D01*
X105680029Y-39536482D01*
X105732043Y-39582972D01*
X105751350Y-39650009D01*
X105732032Y-39717043D01*
X105680011Y-39763525D01*
X105678258Y-39764369D01*
X105674870Y-39767755D01*
X105680893Y-39777342D01*
X105991772Y-40088220D01*
X106003500Y-40094991D01*
X106015230Y-40088219D01*
X106326105Y-39777344D01*
X106332131Y-39767754D01*
X106328751Y-39764374D01*
X106326980Y-39763521D01*
X106274966Y-39717041D01*
X106255649Y-39650013D01*
X106274951Y-39582980D01*
X106326955Y-39536489D01*
X106328764Y-39535616D01*
X106332133Y-39532245D01*
X106332132Y-39532243D01*
X107196365Y-39532243D01*
X107199743Y-39535622D01*
X107201527Y-39536482D01*
X107253541Y-39582972D01*
X107272848Y-39650009D01*
X107253530Y-39717043D01*
X107201509Y-39763525D01*
X107199756Y-39764369D01*
X107196368Y-39767755D01*
X107202391Y-39777342D01*
X107513270Y-40088220D01*
X107524998Y-40094991D01*
X107536728Y-40088219D01*
X107847603Y-39777344D01*
X107853629Y-39767754D01*
X107850249Y-39764374D01*
X107848478Y-39763521D01*
X107796464Y-39717041D01*
X107777147Y-39650013D01*
X107796449Y-39582980D01*
X107848453Y-39536489D01*
X107850262Y-39535616D01*
X107853631Y-39532245D01*
X107847606Y-39522657D01*
X107536728Y-39211779D01*
X107524998Y-39205007D01*
X107513270Y-39211778D01*
X107202388Y-39522659D01*
X107196365Y-39532243D01*
X106332132Y-39532243D01*
X106326108Y-39522657D01*
X106015230Y-39211779D01*
X106003500Y-39205007D01*
X105991772Y-39211778D01*
X105680890Y-39522659D01*
X105674867Y-39532243D01*
X104725130Y-39532243D01*
X104719106Y-39522657D01*
X104408228Y-39211779D01*
X104396498Y-39205007D01*
X104384770Y-39211778D01*
X104073888Y-39522659D01*
X104067865Y-39532243D01*
X103203632Y-39532243D01*
X103197608Y-39522657D01*
X102886730Y-39211779D01*
X102875000Y-39205007D01*
X102863272Y-39211778D01*
X102552390Y-39522659D01*
X102546367Y-39532243D01*
X99542348Y-39532243D01*
X99553460Y-39520409D01*
X99556152Y-39517631D01*
X99575918Y-39497867D01*
X99578385Y-39494685D01*
X99586094Y-39485658D01*
X99616370Y-39453418D01*
X99626129Y-39435664D01*
X99636983Y-39419140D01*
X99649397Y-39403138D01*
X99663828Y-39369788D01*
X99666951Y-39362572D01*
X99672176Y-39351905D01*
X99679713Y-39338197D01*
X99693479Y-39313157D01*
X99698516Y-39293539D01*
X99704922Y-39274827D01*
X99709816Y-39263518D01*
X99712965Y-39256242D01*
X99719880Y-39212574D01*
X99722288Y-39200950D01*
X99731313Y-39165802D01*
X99733284Y-39158127D01*
X99733284Y-39137873D01*
X99734835Y-39118162D01*
X99736764Y-39105982D01*
X99738004Y-39098154D01*
X99733842Y-39054135D01*
X99733284Y-39042278D01*
X99733284Y-38853528D01*
X102112998Y-38853528D01*
X102130539Y-39009208D01*
X102133668Y-39022916D01*
X102185408Y-39170783D01*
X102185874Y-39171749D01*
X102189255Y-39175130D01*
X102198841Y-39169106D01*
X102509720Y-38858226D01*
X102516491Y-38846498D01*
X102509719Y-38834768D01*
X102198844Y-38523893D01*
X102189255Y-38517868D01*
X102185869Y-38521255D01*
X102185411Y-38522206D01*
X102133668Y-38670081D01*
X102130539Y-38683789D01*
X102112998Y-38839470D01*
X102112998Y-38853528D01*
X99733284Y-38853528D01*
X99733284Y-38832617D01*
X99752597Y-38765581D01*
X99788065Y-38709134D01*
X99832827Y-38637896D01*
X99893001Y-38465928D01*
X99913400Y-38284881D01*
X99893001Y-38103834D01*
X99832827Y-37931866D01*
X99781073Y-37849500D01*
X99739662Y-37783595D01*
X99739661Y-37783594D01*
X99735895Y-37777600D01*
X99607065Y-37648770D01*
X99601071Y-37645004D01*
X99601069Y-37645002D01*
X99458790Y-37555602D01*
X99458787Y-37555600D01*
X99452799Y-37551838D01*
X99446123Y-37549502D01*
X99446119Y-37549500D01*
X99287508Y-37494000D01*
X99287504Y-37493999D01*
X99280831Y-37491664D01*
X99099784Y-37471265D01*
X99092755Y-37472057D01*
X98925765Y-37490872D01*
X98925763Y-37490872D01*
X98918737Y-37491664D01*
X98912064Y-37493998D01*
X98912059Y-37494000D01*
X98753447Y-37549500D01*
X98753437Y-37549504D01*
X98746769Y-37551838D01*
X98740783Y-37555599D01*
X98740773Y-37555604D01*
X98718978Y-37569298D01*
X98654302Y-37588586D01*
X98593806Y-37572981D01*
X98593539Y-37573582D01*
X98589965Y-37571990D01*
X98589961Y-37571988D01*
X98587515Y-37570900D01*
X98587510Y-37570897D01*
X98501416Y-37532566D01*
X98490957Y-37527909D01*
X98444880Y-37492825D01*
X98420647Y-37443447D01*
X98420524Y-37442349D01*
X98360350Y-37270381D01*
X98280120Y-37142696D01*
X98260807Y-37075660D01*
X98260807Y-36985901D01*
X98274540Y-36928698D01*
X98312746Y-36883965D01*
X98367096Y-36861452D01*
X98425743Y-36866068D01*
G37*
G04 #@! TD.AperFunction*
G04 #@! TA.AperFunction,Conductor*
G36*
X89490416Y-32234027D02*
G01*
X89497909Y-32235702D01*
X89516905Y-32235104D01*
X89577760Y-32248618D01*
X89624691Y-32289653D01*
X89646206Y-32348164D01*
X89637039Y-32409827D01*
X89599433Y-32459547D01*
X89598704Y-32460128D01*
X89592719Y-32463889D01*
X89587718Y-32468889D01*
X89587714Y-32468893D01*
X89468897Y-32587710D01*
X89468893Y-32587714D01*
X89463889Y-32592719D01*
X89460126Y-32598707D01*
X89460121Y-32598714D01*
X89370721Y-32740993D01*
X89370717Y-32741000D01*
X89366957Y-32746985D01*
X89364622Y-32753656D01*
X89364619Y-32753664D01*
X89309119Y-32912275D01*
X89309117Y-32912280D01*
X89306783Y-32918953D01*
X89305991Y-32925979D01*
X89305991Y-32925981D01*
X89294462Y-33028301D01*
X89286384Y-33100000D01*
X89306783Y-33281047D01*
X89309118Y-33287720D01*
X89309119Y-33287724D01*
X89364619Y-33446335D01*
X89364621Y-33446339D01*
X89366957Y-33453015D01*
X89370719Y-33459003D01*
X89370721Y-33459006D01*
X89458600Y-33598865D01*
X89463889Y-33607281D01*
X89592719Y-33736111D01*
X89746985Y-33833043D01*
X89918953Y-33893217D01*
X90076152Y-33910929D01*
X90116711Y-33922614D01*
X90151137Y-33947041D01*
X90365655Y-34161559D01*
X90390082Y-34195984D01*
X90401767Y-34236544D01*
X90405989Y-34274009D01*
X90405990Y-34274017D01*
X90406783Y-34281047D01*
X90409119Y-34287723D01*
X90409120Y-34287727D01*
X90464619Y-34446335D01*
X90464621Y-34446339D01*
X90466957Y-34453015D01*
X90470719Y-34459003D01*
X90470721Y-34459006D01*
X90541991Y-34572432D01*
X90563889Y-34607281D01*
X90692719Y-34736111D01*
X90772234Y-34786074D01*
X90833036Y-34824278D01*
X90876278Y-34870016D01*
X90892000Y-34930965D01*
X90892000Y-35629410D01*
X90895506Y-35642493D01*
X90908590Y-35646000D01*
X91928000Y-35646000D01*
X91991000Y-35662881D01*
X92037119Y-35709000D01*
X92054000Y-35772000D01*
X92054000Y-37341410D01*
X92057506Y-37354493D01*
X92070590Y-37358000D01*
X92245223Y-37358000D01*
X92251938Y-37357640D01*
X92301257Y-37352337D01*
X92316478Y-37348740D01*
X92437519Y-37303594D01*
X92453175Y-37295045D01*
X92555692Y-37218302D01*
X92568298Y-37205696D01*
X92648818Y-37098134D01*
X92693287Y-37060971D01*
X92749686Y-37047643D01*
X92806086Y-37060970D01*
X92850555Y-37098133D01*
X92936739Y-37213261D01*
X92943950Y-37218659D01*
X93027363Y-37281102D01*
X93053796Y-37300889D01*
X93190799Y-37351989D01*
X93251362Y-37358500D01*
X94145269Y-37358500D01*
X94148638Y-37358500D01*
X94209201Y-37351989D01*
X94346204Y-37300889D01*
X94463261Y-37213261D01*
X94550889Y-37096204D01*
X94601989Y-36959201D01*
X94608500Y-36898638D01*
X94608500Y-35939595D01*
X94618091Y-35891377D01*
X94645405Y-35850500D01*
X94707448Y-35788457D01*
X94758233Y-35757517D01*
X94817553Y-35753316D01*
X94872192Y-35776789D01*
X94909981Y-35822708D01*
X94922500Y-35880843D01*
X94910758Y-35924219D01*
X94913042Y-35925124D01*
X94910124Y-35932492D01*
X94906305Y-35939440D01*
X94904333Y-35947116D01*
X94904331Y-35947124D01*
X94901266Y-35959062D01*
X94894865Y-35977759D01*
X94889968Y-35989076D01*
X94889966Y-35989081D01*
X94886819Y-35996355D01*
X94885579Y-36004180D01*
X94885577Y-36004189D01*
X94879901Y-36040024D01*
X94877495Y-36051644D01*
X94868471Y-36086789D01*
X94868469Y-36086797D01*
X94866500Y-36094470D01*
X94866500Y-36102399D01*
X94866500Y-36114724D01*
X94864949Y-36134435D01*
X94863019Y-36146614D01*
X94863018Y-36146621D01*
X94861780Y-36154443D01*
X94862525Y-36162326D01*
X94862525Y-36162334D01*
X94865941Y-36198461D01*
X94866500Y-36210319D01*
X94866500Y-37852264D01*
X94847187Y-37919300D01*
X94770721Y-38040993D01*
X94770717Y-38041000D01*
X94766957Y-38046985D01*
X94764622Y-38053656D01*
X94764619Y-38053664D01*
X94709119Y-38212275D01*
X94709117Y-38212280D01*
X94706783Y-38218953D01*
X94705991Y-38225977D01*
X94705991Y-38225980D01*
X94699949Y-38279607D01*
X94678847Y-38336478D01*
X94633617Y-38376899D01*
X94574741Y-38391500D01*
X90923479Y-38391500D01*
X90875261Y-38381909D01*
X90834384Y-38354595D01*
X89375012Y-36895223D01*
X90892000Y-36895223D01*
X90892359Y-36901938D01*
X90897662Y-36951257D01*
X90901259Y-36966478D01*
X90946405Y-37087519D01*
X90954954Y-37103175D01*
X91031697Y-37205692D01*
X91044307Y-37218302D01*
X91146824Y-37295045D01*
X91162480Y-37303594D01*
X91283521Y-37348740D01*
X91298742Y-37352337D01*
X91348061Y-37357640D01*
X91354777Y-37358000D01*
X91529410Y-37358000D01*
X91542493Y-37354493D01*
X91546000Y-37341410D01*
X91546000Y-36170590D01*
X91542493Y-36157506D01*
X91529410Y-36154000D01*
X90908590Y-36154000D01*
X90895506Y-36157506D01*
X90892000Y-36170590D01*
X90892000Y-36895223D01*
X89375012Y-36895223D01*
X88300321Y-35820532D01*
X88266575Y-35759475D01*
X88270487Y-35689822D01*
X88310857Y-35632926D01*
X88375307Y-35606229D01*
X88508549Y-35591217D01*
X88680517Y-35531043D01*
X88834783Y-35434111D01*
X88963613Y-35305281D01*
X89060545Y-35151015D01*
X89120719Y-34979047D01*
X89141118Y-34798000D01*
X89120719Y-34616953D01*
X89060545Y-34444985D01*
X88963613Y-34290719D01*
X88834783Y-34161889D01*
X88828789Y-34158123D01*
X88828787Y-34158121D01*
X88686508Y-34068721D01*
X88686505Y-34068719D01*
X88680517Y-34064957D01*
X88673841Y-34062621D01*
X88673837Y-34062619D01*
X88515226Y-34007119D01*
X88515222Y-34007118D01*
X88508549Y-34004783D01*
X88327502Y-33984384D01*
X88320473Y-33985176D01*
X88153483Y-34003991D01*
X88153481Y-34003991D01*
X88146455Y-34004783D01*
X88139782Y-34007117D01*
X88139777Y-34007119D01*
X87981166Y-34062619D01*
X87981158Y-34062622D01*
X87974487Y-34064957D01*
X87968502Y-34068717D01*
X87968495Y-34068721D01*
X87959067Y-34074646D01*
X87895565Y-34093909D01*
X87831082Y-34078237D01*
X87783506Y-34031976D01*
X87766031Y-33967959D01*
X87766031Y-33173180D01*
X87775622Y-33124962D01*
X87802936Y-33084084D01*
X88616617Y-32270404D01*
X88657494Y-32243091D01*
X88705712Y-32233500D01*
X89479233Y-32233500D01*
X89490416Y-32234027D01*
G37*
G04 #@! TD.AperFunction*
G04 #@! TA.AperFunction,Conductor*
G36*
X104621442Y-35315043D02*
G01*
X104666672Y-35355464D01*
X104687773Y-35412334D01*
X104690652Y-35437878D01*
X104704299Y-35559006D01*
X104706783Y-35581047D01*
X104709118Y-35587720D01*
X104709119Y-35587724D01*
X104764619Y-35746335D01*
X104764621Y-35746339D01*
X104766957Y-35753015D01*
X104770719Y-35759003D01*
X104770721Y-35759006D01*
X104856479Y-35895489D01*
X104863889Y-35907281D01*
X104992719Y-36036111D01*
X104998713Y-36039877D01*
X104998714Y-36039878D01*
X105133615Y-36124642D01*
X105146985Y-36133043D01*
X105318953Y-36193217D01*
X105500000Y-36213616D01*
X105681047Y-36193217D01*
X105853015Y-36133043D01*
X106007281Y-36036111D01*
X106037019Y-36006371D01*
X106093502Y-35973759D01*
X106158726Y-35973758D01*
X106215211Y-36006370D01*
X106276827Y-36067986D01*
X106282821Y-36071752D01*
X106282822Y-36071753D01*
X106351210Y-36114724D01*
X106431093Y-36164918D01*
X106603061Y-36225092D01*
X106784108Y-36245491D01*
X106965155Y-36225092D01*
X107137123Y-36164918D01*
X107148222Y-36157943D01*
X107201152Y-36139418D01*
X107256877Y-36145695D01*
X107402052Y-36196494D01*
X107583099Y-36216893D01*
X107590128Y-36216101D01*
X107590132Y-36216101D01*
X107610143Y-36213845D01*
X107626966Y-36211950D01*
X107682690Y-36218227D01*
X107730171Y-36248062D01*
X107818220Y-36336111D01*
X107824214Y-36339877D01*
X107824215Y-36339878D01*
X107966494Y-36429278D01*
X107972486Y-36433043D01*
X108144454Y-36493217D01*
X108325501Y-36513616D01*
X108506548Y-36493217D01*
X108678516Y-36433043D01*
X108832782Y-36336111D01*
X108915951Y-36252941D01*
X108964229Y-36222833D01*
X109012886Y-36217848D01*
X109012886Y-36217031D01*
X109033140Y-36217031D01*
X109052850Y-36218581D01*
X109072859Y-36221751D01*
X109116877Y-36217589D01*
X109128735Y-36217031D01*
X110285795Y-36217031D01*
X110352831Y-36236344D01*
X110480516Y-36316574D01*
X110607674Y-36361068D01*
X110662321Y-36398698D01*
X110690274Y-36458875D01*
X110683780Y-36524909D01*
X110649991Y-36571161D01*
X110651130Y-36572300D01*
X110527308Y-36696121D01*
X110527304Y-36696125D01*
X110522300Y-36701130D01*
X110518537Y-36707118D01*
X110518532Y-36707125D01*
X110429132Y-36849404D01*
X110429128Y-36849411D01*
X110425368Y-36855396D01*
X110423033Y-36862067D01*
X110423030Y-36862075D01*
X110367530Y-37020686D01*
X110367528Y-37020691D01*
X110365194Y-37027364D01*
X110364402Y-37034390D01*
X110364402Y-37034392D01*
X110350556Y-37157281D01*
X110344795Y-37208411D01*
X110345587Y-37215440D01*
X110357139Y-37317972D01*
X110365194Y-37389458D01*
X110367529Y-37396130D01*
X110380040Y-37431885D01*
X110385873Y-37491114D01*
X110363870Y-37546412D01*
X110318941Y-37585443D01*
X110261110Y-37599499D01*
X106876362Y-37599499D01*
X106809326Y-37580186D01*
X106762840Y-37528168D01*
X106751154Y-37459392D01*
X106765504Y-37332031D01*
X106765504Y-37317972D01*
X106747962Y-37162291D01*
X106744833Y-37148583D01*
X106693096Y-37000724D01*
X106692624Y-36999744D01*
X106689245Y-36996367D01*
X106679661Y-37002390D01*
X106357063Y-37324988D01*
X106357050Y-37325004D01*
X106119461Y-37562594D01*
X106078583Y-37589908D01*
X106030365Y-37599499D01*
X105976637Y-37599499D01*
X105928419Y-37589908D01*
X105887542Y-37562594D01*
X105649951Y-37325003D01*
X105649949Y-37325000D01*
X105327344Y-37002395D01*
X105317755Y-36996370D01*
X105314369Y-36999758D01*
X105313525Y-37001511D01*
X105267043Y-37053532D01*
X105200009Y-37072850D01*
X105132972Y-37053543D01*
X105086482Y-37001529D01*
X105085622Y-36999745D01*
X105082243Y-36996367D01*
X105072659Y-37002390D01*
X104750050Y-37325000D01*
X104750047Y-37325004D01*
X104562073Y-37512978D01*
X104505589Y-37545590D01*
X104440367Y-37545590D01*
X104383883Y-37512978D01*
X103510160Y-36639255D01*
X104067868Y-36639255D01*
X104073891Y-36648842D01*
X104384770Y-36959720D01*
X104396498Y-36966491D01*
X104408228Y-36959719D01*
X104719103Y-36648844D01*
X104725128Y-36639255D01*
X105674870Y-36639255D01*
X105680893Y-36648842D01*
X105991772Y-36959720D01*
X106003500Y-36966491D01*
X106015230Y-36959719D01*
X106326105Y-36648844D01*
X106332131Y-36639254D01*
X106328751Y-36635874D01*
X106327785Y-36635408D01*
X106179918Y-36583668D01*
X106166210Y-36580539D01*
X106010530Y-36562998D01*
X105996472Y-36562998D01*
X105840791Y-36580539D01*
X105827083Y-36583668D01*
X105679208Y-36635411D01*
X105678257Y-36635869D01*
X105674870Y-36639255D01*
X104725128Y-36639255D01*
X104725129Y-36639254D01*
X104721749Y-36635874D01*
X104720783Y-36635408D01*
X104572916Y-36583668D01*
X104559208Y-36580539D01*
X104403528Y-36562998D01*
X104389470Y-36562998D01*
X104233789Y-36580539D01*
X104220081Y-36583668D01*
X104072206Y-36635411D01*
X104071255Y-36635869D01*
X104067868Y-36639255D01*
X103510160Y-36639255D01*
X102904426Y-36033521D01*
X102896892Y-36025243D01*
X102892780Y-36018762D01*
X102843127Y-35972135D01*
X102840285Y-35969380D01*
X102823354Y-35952449D01*
X102820550Y-35949645D01*
X102817355Y-35947166D01*
X102808334Y-35939462D01*
X102792101Y-35924219D01*
X102776101Y-35909194D01*
X102769157Y-35905376D01*
X102769151Y-35905372D01*
X102758346Y-35899432D01*
X102741827Y-35888581D01*
X102725821Y-35876166D01*
X102718546Y-35873018D01*
X102718543Y-35873016D01*
X102685246Y-35858608D01*
X102674584Y-35853385D01*
X102642787Y-35835904D01*
X102642785Y-35835903D01*
X102635840Y-35832085D01*
X102628163Y-35830114D01*
X102628161Y-35830113D01*
X102616218Y-35827047D01*
X102597514Y-35820643D01*
X102578925Y-35812599D01*
X102579735Y-35810725D01*
X102549917Y-35795166D01*
X102518420Y-35757681D01*
X102503590Y-35711020D01*
X102493217Y-35618953D01*
X102440415Y-35468055D01*
X102434582Y-35408829D01*
X102456584Y-35353529D01*
X102501513Y-35314498D01*
X102559345Y-35300442D01*
X104562566Y-35300442D01*
X104621442Y-35315043D01*
G37*
G04 #@! TD.AperFunction*
G04 #@! TA.AperFunction,Conductor*
G36*
X111412537Y-27830975D02*
G01*
X111458798Y-27878551D01*
X111474470Y-27943034D01*
X111455207Y-28006536D01*
X111370721Y-28140993D01*
X111370717Y-28141000D01*
X111366957Y-28146985D01*
X111364622Y-28153656D01*
X111364619Y-28153664D01*
X111309119Y-28312275D01*
X111309117Y-28312280D01*
X111306783Y-28318953D01*
X111305991Y-28325979D01*
X111305991Y-28325981D01*
X111298056Y-28396406D01*
X111286384Y-28500000D01*
X111306783Y-28681047D01*
X111309118Y-28687720D01*
X111309119Y-28687724D01*
X111364619Y-28846335D01*
X111364621Y-28846339D01*
X111366957Y-28853015D01*
X111370719Y-28859003D01*
X111370721Y-28859006D01*
X111457391Y-28996941D01*
X111463889Y-29007281D01*
X111592719Y-29136111D01*
X111746985Y-29233043D01*
X111918953Y-29293217D01*
X112100000Y-29313616D01*
X112281047Y-29293217D01*
X112351953Y-29268406D01*
X112373885Y-29260732D01*
X112433114Y-29254898D01*
X112488413Y-29276900D01*
X112527444Y-29321829D01*
X112541500Y-29379661D01*
X112541500Y-32596233D01*
X112540972Y-32607416D01*
X112539298Y-32614909D01*
X112539547Y-32622833D01*
X112539547Y-32622835D01*
X112541438Y-32682986D01*
X112541500Y-32686945D01*
X112541500Y-32714856D01*
X112541995Y-32718774D01*
X112541997Y-32718806D01*
X112542008Y-32718888D01*
X112542937Y-32730697D01*
X112544077Y-32766969D01*
X112544078Y-32766976D01*
X112544327Y-32774889D01*
X112546537Y-32782498D01*
X112546538Y-32782500D01*
X112549978Y-32794342D01*
X112553986Y-32813693D01*
X112556526Y-32833797D01*
X112559444Y-32841169D01*
X112559445Y-32841170D01*
X112572800Y-32874901D01*
X112576645Y-32886130D01*
X112586771Y-32920986D01*
X112586773Y-32920992D01*
X112588982Y-32928593D01*
X112593014Y-32935411D01*
X112593015Y-32935413D01*
X112599293Y-32946029D01*
X112607990Y-32963782D01*
X112615448Y-32982617D01*
X112620107Y-32989030D01*
X112620108Y-32989031D01*
X112641432Y-33018381D01*
X112647948Y-33028301D01*
X112666422Y-33059538D01*
X112670458Y-33066362D01*
X112676063Y-33071967D01*
X112684778Y-33080682D01*
X112697618Y-33095715D01*
X112703637Y-33104000D01*
X112709528Y-33112107D01*
X112715635Y-33117159D01*
X112715636Y-33117160D01*
X112743598Y-33140292D01*
X112752378Y-33148282D01*
X112770839Y-33166743D01*
X112802863Y-33221107D01*
X112804515Y-33284181D01*
X112775381Y-33340147D01*
X112703080Y-33420447D01*
X112698661Y-33425355D01*
X112695362Y-33431068D01*
X112695359Y-33431073D01*
X112606478Y-33585020D01*
X112603174Y-33590743D01*
X112601135Y-33597017D01*
X112601131Y-33597027D01*
X112546198Y-33766093D01*
X112546196Y-33766100D01*
X112544159Y-33772371D01*
X112543469Y-33778932D01*
X112543469Y-33778934D01*
X112531703Y-33890880D01*
X112524197Y-33962299D01*
X112544159Y-34152227D01*
X112546196Y-34158499D01*
X112546198Y-34158504D01*
X112601131Y-34327570D01*
X112601134Y-34327577D01*
X112603174Y-34333855D01*
X112698661Y-34499243D01*
X112703075Y-34504146D01*
X112703083Y-34504156D01*
X112714168Y-34516466D01*
X112743303Y-34572432D01*
X112741652Y-34635507D01*
X112709628Y-34689872D01*
X112499251Y-34900249D01*
X112438194Y-34933995D01*
X112368541Y-34930083D01*
X112311645Y-34889714D01*
X112284948Y-34825262D01*
X112284346Y-34819922D01*
X112276748Y-34752484D01*
X112216574Y-34580516D01*
X112212809Y-34574524D01*
X112123409Y-34432245D01*
X112123408Y-34432244D01*
X112119642Y-34426250D01*
X111990812Y-34297420D01*
X111984818Y-34293654D01*
X111984816Y-34293652D01*
X111842537Y-34204252D01*
X111842534Y-34204250D01*
X111836546Y-34200488D01*
X111829870Y-34198152D01*
X111829866Y-34198150D01*
X111671255Y-34142650D01*
X111671251Y-34142649D01*
X111664578Y-34140314D01*
X111657551Y-34139522D01*
X111657550Y-34139522D01*
X111620079Y-34135300D01*
X111579517Y-34123614D01*
X111545092Y-34099187D01*
X111128646Y-33682741D01*
X111121112Y-33674463D01*
X111117000Y-33667982D01*
X111067348Y-33621356D01*
X111064506Y-33618601D01*
X111047574Y-33601669D01*
X111044770Y-33598865D01*
X111041575Y-33596386D01*
X111032554Y-33588682D01*
X111006097Y-33563838D01*
X111000321Y-33558414D01*
X110993377Y-33554596D01*
X110993371Y-33554592D01*
X110982566Y-33548652D01*
X110966047Y-33537801D01*
X110950041Y-33525386D01*
X110942766Y-33522238D01*
X110942763Y-33522236D01*
X110909466Y-33507828D01*
X110898804Y-33502605D01*
X110867007Y-33485124D01*
X110867005Y-33485123D01*
X110860060Y-33481305D01*
X110852383Y-33479334D01*
X110852381Y-33479333D01*
X110840438Y-33476267D01*
X110821734Y-33469863D01*
X110810420Y-33464967D01*
X110810418Y-33464966D01*
X110803145Y-33461819D01*
X110795319Y-33460579D01*
X110795318Y-33460579D01*
X110759475Y-33454902D01*
X110747847Y-33452493D01*
X110728797Y-33447601D01*
X110669140Y-33412714D01*
X110636858Y-33351607D01*
X110641664Y-33282665D01*
X110682111Y-33226627D01*
X110746027Y-33200354D01*
X110831544Y-33190719D01*
X111003512Y-33130545D01*
X111003878Y-33131593D01*
X111050243Y-33121007D01*
X111096618Y-33131592D01*
X111096985Y-33130545D01*
X111268953Y-33190719D01*
X111450000Y-33211118D01*
X111631047Y-33190719D01*
X111803015Y-33130545D01*
X111957281Y-33033613D01*
X112086111Y-32904783D01*
X112183043Y-32750517D01*
X112243217Y-32578549D01*
X112263616Y-32397502D01*
X112243217Y-32216455D01*
X112183043Y-32044487D01*
X112086111Y-31890221D01*
X111957281Y-31761391D01*
X111951287Y-31757625D01*
X111951285Y-31757623D01*
X111809006Y-31668223D01*
X111809003Y-31668221D01*
X111803015Y-31664459D01*
X111796339Y-31662123D01*
X111796335Y-31662121D01*
X111637724Y-31606621D01*
X111637720Y-31606620D01*
X111631047Y-31604285D01*
X111610669Y-31601989D01*
X111457029Y-31584678D01*
X111450000Y-31583886D01*
X111442971Y-31584678D01*
X111372898Y-31592573D01*
X111317175Y-31586294D01*
X111269694Y-31556459D01*
X111239861Y-31508977D01*
X111233584Y-31453254D01*
X111236163Y-31430371D01*
X111236163Y-31430368D01*
X111236955Y-31423339D01*
X111216556Y-31242292D01*
X111156382Y-31070324D01*
X111090200Y-30964997D01*
X111071680Y-30912068D01*
X111077960Y-30856344D01*
X111079484Y-30851988D01*
X111092584Y-30814553D01*
X111112983Y-30633506D01*
X111092584Y-30452459D01*
X111032410Y-30280491D01*
X111010385Y-30245438D01*
X110939245Y-30132220D01*
X110939244Y-30132219D01*
X110935478Y-30126225D01*
X110806648Y-29997395D01*
X110800654Y-29993629D01*
X110800652Y-29993627D01*
X110658373Y-29904227D01*
X110658370Y-29904225D01*
X110652382Y-29900463D01*
X110645706Y-29898127D01*
X110645702Y-29898125D01*
X110487093Y-29842626D01*
X110487092Y-29842625D01*
X110480414Y-29840289D01*
X110473385Y-29839497D01*
X110425391Y-29834089D01*
X110368521Y-29812987D01*
X110328101Y-29767757D01*
X110313500Y-29708881D01*
X110313500Y-27939500D01*
X110330381Y-27876500D01*
X110376500Y-27830381D01*
X110439500Y-27813500D01*
X111348520Y-27813500D01*
X111412537Y-27830975D01*
G37*
G04 #@! TD.AperFunction*
G04 #@! TA.AperFunction,Conductor*
G36*
X94390061Y-32306158D02*
G01*
X94428267Y-32350891D01*
X94442000Y-32408094D01*
X94442000Y-32579410D01*
X94445506Y-32592493D01*
X94458590Y-32596000D01*
X95478000Y-32596000D01*
X95541000Y-32612881D01*
X95587119Y-32659000D01*
X95604000Y-32722000D01*
X95604000Y-32978000D01*
X95587119Y-33041000D01*
X95541000Y-33087119D01*
X95478000Y-33104000D01*
X94458590Y-33104000D01*
X94445506Y-33107506D01*
X94442000Y-33120590D01*
X94442000Y-33440500D01*
X94425119Y-33503500D01*
X94379000Y-33549619D01*
X94316000Y-33566500D01*
X93784500Y-33566500D01*
X93721500Y-33549619D01*
X93675381Y-33503500D01*
X93658500Y-33440500D01*
X93658500Y-32939594D01*
X93668091Y-32891376D01*
X93695405Y-32850499D01*
X94226905Y-32318999D01*
X94277064Y-32288261D01*
X94335711Y-32283645D01*
X94390061Y-32306158D01*
G37*
G04 #@! TD.AperFunction*
G04 #@! TA.AperFunction,Conductor*
G36*
X94470057Y-26760591D02*
G01*
X94510934Y-26787905D01*
X94576434Y-26853405D01*
X94609046Y-26909889D01*
X94609046Y-26975111D01*
X94576434Y-27031595D01*
X94486076Y-27121952D01*
X94486072Y-27121956D01*
X94480684Y-27127345D01*
X94476743Y-27133864D01*
X94476740Y-27133868D01*
X94395616Y-27268063D01*
X94395613Y-27268068D01*
X94391673Y-27274587D01*
X94389406Y-27281860D01*
X94389405Y-27281864D01*
X94344022Y-27427506D01*
X94340487Y-27438851D01*
X94339884Y-27445481D01*
X94339883Y-27445489D01*
X94334258Y-27507385D01*
X94334257Y-27507406D01*
X94334000Y-27510235D01*
X94334000Y-27513095D01*
X94334000Y-27513096D01*
X94334000Y-28021900D01*
X94334000Y-28021921D01*
X94334001Y-28024764D01*
X94334259Y-28027613D01*
X94334260Y-28027616D01*
X94339883Y-28089511D01*
X94339884Y-28089519D01*
X94340487Y-28096149D01*
X94342468Y-28102508D01*
X94342469Y-28102510D01*
X94376865Y-28212893D01*
X94391673Y-28260413D01*
X94395615Y-28266934D01*
X94395616Y-28266936D01*
X94473884Y-28396406D01*
X94480684Y-28407655D01*
X94602345Y-28529316D01*
X94608866Y-28533258D01*
X94623186Y-28541915D01*
X94667748Y-28587846D01*
X94684000Y-28649743D01*
X94684000Y-30017904D01*
X94674409Y-30066123D01*
X94647095Y-30107000D01*
X94508655Y-30245438D01*
X94462008Y-30274977D01*
X94407210Y-30281735D01*
X94354784Y-30264416D01*
X94314795Y-30226345D01*
X94310556Y-30220001D01*
X94303446Y-30202836D01*
X94282514Y-30239093D01*
X93618699Y-30902909D01*
X93618698Y-30902910D01*
X93314093Y-31207514D01*
X93257609Y-31240125D01*
X93192387Y-31240125D01*
X93135903Y-31207513D01*
X92843028Y-30914638D01*
X92831298Y-30907866D01*
X92819570Y-30914637D01*
X92510661Y-31223545D01*
X92503917Y-31234978D01*
X92515639Y-31257669D01*
X92529617Y-31319918D01*
X92511311Y-31381034D01*
X92465414Y-31425348D01*
X92403694Y-31441500D01*
X92301362Y-31441500D01*
X92298015Y-31441859D01*
X92298011Y-31441860D01*
X92248632Y-31447168D01*
X92248625Y-31447169D01*
X92240799Y-31448011D01*
X92233423Y-31450761D01*
X92233419Y-31450763D01*
X92112236Y-31495962D01*
X92112230Y-31495965D01*
X92103796Y-31499111D01*
X92096588Y-31504506D01*
X92096582Y-31504510D01*
X91993950Y-31581340D01*
X91993946Y-31581343D01*
X91986739Y-31586739D01*
X91981343Y-31593946D01*
X91981340Y-31593950D01*
X91904510Y-31696582D01*
X91904506Y-31696588D01*
X91899111Y-31703796D01*
X91895965Y-31712230D01*
X91895962Y-31712236D01*
X91850763Y-31833419D01*
X91850761Y-31833423D01*
X91848011Y-31840799D01*
X91847169Y-31848625D01*
X91847168Y-31848632D01*
X91842053Y-31896216D01*
X91841500Y-31901362D01*
X91841500Y-31904731D01*
X91841500Y-33320245D01*
X91824025Y-33384263D01*
X91776448Y-33430523D01*
X91711966Y-33446195D01*
X91648464Y-33426932D01*
X91648411Y-33426899D01*
X91584084Y-33386479D01*
X91559006Y-33370721D01*
X91559003Y-33370719D01*
X91553015Y-33366957D01*
X91546339Y-33364621D01*
X91546335Y-33364619D01*
X91387727Y-33309120D01*
X91387723Y-33309119D01*
X91381047Y-33306783D01*
X91374023Y-33305991D01*
X91374008Y-33305988D01*
X91336545Y-33301767D01*
X91295984Y-33290082D01*
X91261560Y-33265655D01*
X90901904Y-32905999D01*
X90872070Y-32858519D01*
X90865999Y-32841170D01*
X90833043Y-32746985D01*
X90743864Y-32605058D01*
X90739878Y-32598714D01*
X90739877Y-32598713D01*
X90736111Y-32592719D01*
X90607281Y-32463889D01*
X90601287Y-32460123D01*
X90601285Y-32460121D01*
X90459006Y-32370721D01*
X90459003Y-32370719D01*
X90453015Y-32366957D01*
X90446339Y-32364621D01*
X90446335Y-32364619D01*
X90287724Y-32309119D01*
X90287720Y-32309118D01*
X90281047Y-32306783D01*
X90100000Y-32286384D01*
X90092971Y-32287176D01*
X90092967Y-32287176D01*
X90088527Y-32287676D01*
X90026778Y-32279109D01*
X89976693Y-32241990D01*
X89950533Y-32185404D01*
X89954702Y-32123203D01*
X89988179Y-32070613D01*
X89988685Y-32070136D01*
X89995107Y-32065472D01*
X90023294Y-32031397D01*
X90031272Y-32022630D01*
X91910197Y-30143706D01*
X91968503Y-30110622D01*
X92035527Y-30112126D01*
X92092292Y-30147794D01*
X92122729Y-30207527D01*
X92118220Y-30274417D01*
X92086038Y-30366389D01*
X92082911Y-30380092D01*
X92065269Y-30536670D01*
X92065269Y-30550728D01*
X92082911Y-30707305D01*
X92086038Y-30721008D01*
X92134865Y-30860549D01*
X92141369Y-30870283D01*
X92151449Y-30864337D01*
X92460358Y-30555429D01*
X92467130Y-30543699D01*
X93195466Y-30543699D01*
X93202238Y-30555428D01*
X93213269Y-30566459D01*
X93224999Y-30573231D01*
X93236728Y-30566459D01*
X93247759Y-30555428D01*
X93254531Y-30543699D01*
X93247759Y-30531969D01*
X93236728Y-30520938D01*
X93224999Y-30514166D01*
X93213269Y-30520938D01*
X93202238Y-30531969D01*
X93195466Y-30543699D01*
X92467130Y-30543699D01*
X92467131Y-30543698D01*
X92460359Y-30531969D01*
X92167484Y-30239094D01*
X92134872Y-30182610D01*
X92134872Y-30149999D01*
X92801766Y-30149999D01*
X92808538Y-30161728D01*
X92819569Y-30172759D01*
X92831299Y-30179531D01*
X92843028Y-30172759D01*
X92854059Y-30161728D01*
X92860831Y-30149999D01*
X93589166Y-30149999D01*
X93595938Y-30161728D01*
X93606969Y-30172759D01*
X93618699Y-30179531D01*
X93630428Y-30172759D01*
X93641459Y-30161728D01*
X93648231Y-30149999D01*
X93641459Y-30138269D01*
X93630428Y-30127238D01*
X93618699Y-30120466D01*
X93606969Y-30127238D01*
X93595938Y-30138269D01*
X93589166Y-30149999D01*
X92860831Y-30149999D01*
X92854059Y-30138269D01*
X92843028Y-30127238D01*
X92831299Y-30120466D01*
X92819569Y-30127238D01*
X92808538Y-30138269D01*
X92801766Y-30149999D01*
X92134872Y-30149999D01*
X92134872Y-30117388D01*
X92167484Y-30060903D01*
X92472089Y-29756298D01*
X93195466Y-29756298D01*
X93202238Y-29768028D01*
X93213269Y-29779059D01*
X93224999Y-29785831D01*
X93236728Y-29779059D01*
X93247759Y-29768028D01*
X93254531Y-29756298D01*
X93982866Y-29756298D01*
X93989638Y-29768028D01*
X94282513Y-30060903D01*
X94303446Y-30097159D01*
X94310557Y-30079994D01*
X94315133Y-30073145D01*
X94363957Y-29933612D01*
X94367086Y-29919904D01*
X94384729Y-29763328D01*
X94384729Y-29749270D01*
X94367086Y-29592693D01*
X94363957Y-29578985D01*
X94315132Y-29439449D01*
X94308627Y-29429714D01*
X94298545Y-29435661D01*
X93989637Y-29744570D01*
X93982866Y-29756298D01*
X93254531Y-29756298D01*
X93247759Y-29744569D01*
X93236728Y-29733538D01*
X93224999Y-29726766D01*
X93213269Y-29733538D01*
X93202238Y-29744569D01*
X93195466Y-29756298D01*
X92472089Y-29756298D01*
X92831299Y-29397089D01*
X92831299Y-29397090D01*
X92831300Y-29397089D01*
X92831299Y-29397089D01*
X93135903Y-29092484D01*
X93172161Y-29071550D01*
X93172159Y-29071549D01*
X93277835Y-29071549D01*
X93314094Y-29092484D01*
X93606969Y-29385359D01*
X93618698Y-29392131D01*
X93630429Y-29385358D01*
X93939337Y-29076449D01*
X93945283Y-29066369D01*
X93935549Y-29059865D01*
X93796008Y-29011038D01*
X93782305Y-29007911D01*
X93625728Y-28990269D01*
X93611670Y-28990269D01*
X93455092Y-29007911D01*
X93441389Y-29011038D01*
X93301845Y-29059865D01*
X93294997Y-29064442D01*
X93277835Y-29071549D01*
X93172159Y-29071549D01*
X93154997Y-29064440D01*
X93148151Y-29059866D01*
X93008608Y-29011038D01*
X92994905Y-29007911D01*
X92838328Y-28990269D01*
X92824270Y-28990269D01*
X92667693Y-29007911D01*
X92653985Y-29011040D01*
X92505266Y-29063078D01*
X92492595Y-29069180D01*
X92401536Y-29126397D01*
X92338034Y-29145660D01*
X92273551Y-29129988D01*
X92225975Y-29083727D01*
X92208500Y-29019710D01*
X92208500Y-27925259D01*
X92223101Y-27866383D01*
X92263522Y-27821153D01*
X92320393Y-27800051D01*
X92324381Y-27799601D01*
X92381047Y-27793217D01*
X92553015Y-27733043D01*
X92707281Y-27636111D01*
X92836111Y-27507281D01*
X92933043Y-27353015D01*
X92993217Y-27181047D01*
X93013616Y-27000000D01*
X93007137Y-26942499D01*
X93001347Y-26891107D01*
X93013033Y-26822330D01*
X93059519Y-26770313D01*
X93126555Y-26751000D01*
X94421839Y-26751000D01*
X94470057Y-26760591D01*
G37*
G04 #@! TD.AperFunction*
G04 #@! TA.AperFunction,Conductor*
G36*
X97795211Y-28522558D02*
G01*
X97796947Y-28523918D01*
X97802345Y-28529316D01*
X97949587Y-28618327D01*
X98113851Y-28669513D01*
X98185235Y-28676000D01*
X98477905Y-28675999D01*
X98526123Y-28685590D01*
X98567000Y-28712904D01*
X98582696Y-28728600D01*
X98613618Y-28779329D01*
X98617857Y-28838589D01*
X98594470Y-28893203D01*
X98554510Y-28946583D01*
X98554508Y-28946585D01*
X98549111Y-28953796D01*
X98545965Y-28962230D01*
X98545962Y-28962236D01*
X98500763Y-29083419D01*
X98500761Y-29083423D01*
X98498011Y-29090799D01*
X98497169Y-29098625D01*
X98497168Y-29098632D01*
X98492113Y-29145660D01*
X98491500Y-29151362D01*
X98491500Y-31148638D01*
X98491859Y-31151985D01*
X98491860Y-31151988D01*
X98497168Y-31201367D01*
X98497169Y-31201373D01*
X98498011Y-31209201D01*
X98500762Y-31216578D01*
X98500763Y-31216580D01*
X98545962Y-31337763D01*
X98545964Y-31337766D01*
X98549111Y-31346204D01*
X98554508Y-31353414D01*
X98554510Y-31353417D01*
X98612118Y-31430371D01*
X98636739Y-31463261D01*
X98643950Y-31468659D01*
X98693082Y-31505439D01*
X98735628Y-31562274D01*
X98740694Y-31633088D01*
X98708367Y-31692291D01*
X98704000Y-31708590D01*
X98704000Y-33278000D01*
X98687119Y-33341000D01*
X98641000Y-33387119D01*
X98578000Y-33404000D01*
X98322000Y-33404000D01*
X98259000Y-33387119D01*
X98212881Y-33341000D01*
X98196000Y-33278000D01*
X98196000Y-31708590D01*
X98192493Y-31695506D01*
X98163388Y-31687707D01*
X98164043Y-31685261D01*
X98136159Y-31678672D01*
X98091691Y-31641509D01*
X98085387Y-31633088D01*
X98013261Y-31536739D01*
X98006049Y-31531340D01*
X97903417Y-31454510D01*
X97903414Y-31454508D01*
X97896204Y-31449111D01*
X97887766Y-31445964D01*
X97887763Y-31445962D01*
X97766580Y-31400763D01*
X97766578Y-31400762D01*
X97759201Y-31398011D01*
X97751373Y-31397169D01*
X97751367Y-31397168D01*
X97701988Y-31391860D01*
X97701985Y-31391859D01*
X97698638Y-31391500D01*
X97695269Y-31391500D01*
X97230893Y-31391500D01*
X97172018Y-31376899D01*
X97126787Y-31336479D01*
X97105685Y-31279609D01*
X97101236Y-31240125D01*
X97094332Y-31178852D01*
X97097945Y-31131724D01*
X97118671Y-31089240D01*
X97150889Y-31046204D01*
X97201989Y-30909201D01*
X97208500Y-30848638D01*
X97208500Y-28851362D01*
X97203920Y-28808766D01*
X97214254Y-28743688D01*
X97256029Y-28692722D01*
X97308350Y-28673324D01*
X97307971Y-28671417D01*
X97314509Y-28670116D01*
X97321149Y-28669513D01*
X97485413Y-28618327D01*
X97632655Y-28529316D01*
X97638052Y-28523918D01*
X97639789Y-28522558D01*
X97689814Y-28498819D01*
X97745186Y-28498819D01*
X97795211Y-28522558D01*
G37*
G04 #@! TD.AperFunction*
G04 #@! TA.AperFunction,Conductor*
G36*
X122974317Y-17199715D02*
G01*
X123037187Y-17216686D01*
X123083187Y-17262779D01*
X123100031Y-17325684D01*
X123102459Y-27094211D01*
X123088737Y-27151422D01*
X123050535Y-27196167D01*
X122996182Y-27218689D01*
X122937529Y-27214077D01*
X122887364Y-27183337D01*
X119712801Y-24008775D01*
X119679377Y-23949093D01*
X119682062Y-23880745D01*
X119706249Y-23806310D01*
X119726211Y-23616382D01*
X119706249Y-23426454D01*
X119672180Y-23321600D01*
X119649276Y-23251110D01*
X119649275Y-23251108D01*
X119647234Y-23244826D01*
X119562013Y-23097219D01*
X119545143Y-23032528D01*
X119563743Y-22968313D01*
X119612575Y-22922653D01*
X119676362Y-22908734D01*
X119676362Y-22908500D01*
X119677434Y-22908500D01*
X120470269Y-22908500D01*
X120473638Y-22908500D01*
X120534201Y-22901989D01*
X120671204Y-22850889D01*
X120788261Y-22763261D01*
X120875889Y-22646204D01*
X120926989Y-22509201D01*
X120933500Y-22448638D01*
X120933500Y-21751362D01*
X120926989Y-21690799D01*
X120875889Y-21553796D01*
X120859731Y-21532212D01*
X120793659Y-21443950D01*
X120788261Y-21436739D01*
X120786555Y-21435462D01*
X120755835Y-21382254D01*
X120755835Y-21317032D01*
X120788447Y-21260548D01*
X120793301Y-21255693D01*
X120861585Y-21164476D01*
X120902068Y-21129397D01*
X120953465Y-21114305D01*
X121006486Y-21121928D01*
X121051549Y-21150889D01*
X121087159Y-21186499D01*
X121099595Y-21196145D01*
X121225778Y-21270770D01*
X121240216Y-21277018D01*
X121382436Y-21318337D01*
X121395023Y-21320636D01*
X121403626Y-21321313D01*
X121417233Y-21318607D01*
X121421000Y-21305252D01*
X121929000Y-21305252D01*
X121932766Y-21318607D01*
X121946373Y-21321313D01*
X121954976Y-21320636D01*
X121967563Y-21318337D01*
X122109783Y-21277018D01*
X122124221Y-21270770D01*
X122250404Y-21196145D01*
X122262840Y-21186499D01*
X122366499Y-21082840D01*
X122376145Y-21070404D01*
X122450770Y-20944221D01*
X122457018Y-20929783D01*
X122490924Y-20813080D01*
X122491509Y-20801631D01*
X122480355Y-20799000D01*
X121945590Y-20799000D01*
X121932506Y-20802506D01*
X121929000Y-20815590D01*
X121929000Y-21305252D01*
X121421000Y-21305252D01*
X121421000Y-20815590D01*
X121417493Y-20802506D01*
X121404410Y-20799000D01*
X120933000Y-20799000D01*
X120870000Y-20782119D01*
X120823881Y-20736000D01*
X120807000Y-20673000D01*
X120807000Y-20670590D01*
X120803493Y-20657506D01*
X120790410Y-20654000D01*
X119947000Y-20654000D01*
X119884000Y-20637119D01*
X119837881Y-20591000D01*
X119821000Y-20528000D01*
X119821000Y-20363425D01*
X119821792Y-20349318D01*
X119837824Y-20207029D01*
X119838616Y-20200000D01*
X119821792Y-20050682D01*
X119821000Y-20036575D01*
X119821000Y-19594590D01*
X119817493Y-19581506D01*
X119804410Y-19578000D01*
X119747000Y-19578000D01*
X119684000Y-19561119D01*
X119637881Y-19515000D01*
X119621000Y-19452000D01*
X119621000Y-19335410D01*
X120129000Y-19335410D01*
X120132506Y-19348493D01*
X120145590Y-19352000D01*
X120203000Y-19352000D01*
X120266000Y-19368881D01*
X120312119Y-19415000D01*
X120329000Y-19478000D01*
X120329000Y-20129410D01*
X120332506Y-20142493D01*
X120345590Y-20146000D01*
X120847000Y-20146000D01*
X120910000Y-20162881D01*
X120956119Y-20209000D01*
X120973000Y-20272000D01*
X120973000Y-20274410D01*
X120976506Y-20287493D01*
X120989590Y-20291000D01*
X121337458Y-20291000D01*
X121372610Y-20296003D01*
X121378302Y-20297656D01*
X121388534Y-20300629D01*
X121425011Y-20303500D01*
X121924988Y-20303499D01*
X121961466Y-20300629D01*
X121974401Y-20296871D01*
X121977390Y-20296003D01*
X122012542Y-20291000D01*
X122480355Y-20291000D01*
X122491509Y-20288368D01*
X122490924Y-20276919D01*
X122457018Y-20160217D01*
X122450769Y-20145775D01*
X122423478Y-20099628D01*
X122405931Y-20035488D01*
X122423477Y-19971352D01*
X122455269Y-19917596D01*
X122500629Y-19761466D01*
X122503500Y-19724989D01*
X122503499Y-19325012D01*
X122500629Y-19288534D01*
X122455269Y-19132404D01*
X122451235Y-19125583D01*
X122451233Y-19125578D01*
X122394789Y-19030138D01*
X122377856Y-18978418D01*
X122384312Y-18924387D01*
X122443217Y-18756047D01*
X122463616Y-18575000D01*
X122443217Y-18393953D01*
X122383043Y-18221985D01*
X122286111Y-18067719D01*
X122157281Y-17938889D01*
X122151287Y-17935123D01*
X122151285Y-17935121D01*
X122009006Y-17845721D01*
X122009003Y-17845719D01*
X122003015Y-17841957D01*
X121996339Y-17839621D01*
X121996335Y-17839619D01*
X121837724Y-17784119D01*
X121837720Y-17784118D01*
X121831047Y-17781783D01*
X121650000Y-17761384D01*
X121642971Y-17762176D01*
X121475981Y-17780991D01*
X121475979Y-17780991D01*
X121468953Y-17781783D01*
X121462280Y-17784117D01*
X121462275Y-17784119D01*
X121303664Y-17839619D01*
X121303656Y-17839622D01*
X121296985Y-17841957D01*
X121291000Y-17845717D01*
X121290993Y-17845721D01*
X121142719Y-17938889D01*
X121141865Y-17937530D01*
X121091183Y-17959773D01*
X121026896Y-17952979D01*
X120974439Y-17915201D01*
X120895134Y-17818568D01*
X120886427Y-17809861D01*
X120742514Y-17691755D01*
X120732261Y-17684904D01*
X120568069Y-17597141D01*
X120556686Y-17592426D01*
X120378531Y-17538383D01*
X120366437Y-17535977D01*
X120227598Y-17522303D01*
X120221426Y-17522000D01*
X120145590Y-17522000D01*
X120132506Y-17525506D01*
X120129000Y-17538590D01*
X120129000Y-19335410D01*
X119621000Y-19335410D01*
X119621000Y-18800590D01*
X119617493Y-18787506D01*
X119604410Y-18784000D01*
X118613448Y-18784000D01*
X118602272Y-18786654D01*
X118602977Y-18798122D01*
X118637426Y-18911686D01*
X118642141Y-18923069D01*
X118729904Y-19087261D01*
X118736751Y-19097508D01*
X118843509Y-19227593D01*
X118869424Y-19281647D01*
X118867427Y-19341559D01*
X118837972Y-19393767D01*
X118787725Y-19426456D01*
X118739250Y-19443418D01*
X118696350Y-19450482D01*
X118653603Y-19442545D01*
X118541583Y-19400764D01*
X118541580Y-19400763D01*
X118534201Y-19398011D01*
X118526373Y-19397169D01*
X118526367Y-19397168D01*
X118476988Y-19391860D01*
X118476985Y-19391859D01*
X118473638Y-19391500D01*
X117676362Y-19391500D01*
X117673015Y-19391859D01*
X117673011Y-19391860D01*
X117623632Y-19397168D01*
X117623625Y-19397169D01*
X117615799Y-19398011D01*
X117608423Y-19400761D01*
X117608419Y-19400763D01*
X117487236Y-19445962D01*
X117487230Y-19445965D01*
X117478796Y-19449111D01*
X117471588Y-19454506D01*
X117471582Y-19454510D01*
X117368950Y-19531340D01*
X117368946Y-19531343D01*
X117361739Y-19536739D01*
X117356343Y-19543946D01*
X117356340Y-19543950D01*
X117279510Y-19646582D01*
X117279506Y-19646588D01*
X117274111Y-19653796D01*
X117270965Y-19662230D01*
X117270962Y-19662236D01*
X117225763Y-19783419D01*
X117225761Y-19783423D01*
X117223011Y-19790799D01*
X117222169Y-19798625D01*
X117222168Y-19798632D01*
X117216860Y-19848011D01*
X117216500Y-19851362D01*
X117216500Y-19854731D01*
X117216500Y-20301500D01*
X117199619Y-20364500D01*
X117153500Y-20410619D01*
X117090500Y-20427500D01*
X116998513Y-20427500D01*
X116992060Y-20428871D01*
X116992056Y-20428872D01*
X116811712Y-20467206D01*
X116811226Y-20464922D01*
X116759982Y-20467987D01*
X116702934Y-20440566D01*
X116666418Y-20388866D01*
X116659648Y-20325933D01*
X116684331Y-20267652D01*
X116697698Y-20250233D01*
X116755687Y-20110236D01*
X116775466Y-19960000D01*
X116761413Y-19853259D01*
X116756765Y-19817952D01*
X116756764Y-19817951D01*
X116755687Y-19809764D01*
X116697698Y-19669767D01*
X116658171Y-19618255D01*
X116635196Y-19569159D01*
X116634974Y-19514952D01*
X116657547Y-19465668D01*
X116698738Y-19430430D01*
X116802261Y-19375095D01*
X116812514Y-19368244D01*
X116956427Y-19250138D01*
X116965138Y-19241427D01*
X117083244Y-19097514D01*
X117090095Y-19087261D01*
X117177858Y-18923069D01*
X117182573Y-18911686D01*
X117217022Y-18798122D01*
X117217727Y-18786654D01*
X117206552Y-18784000D01*
X114183448Y-18784000D01*
X114172272Y-18786654D01*
X114172977Y-18798122D01*
X114207426Y-18911686D01*
X114212141Y-18923069D01*
X114299904Y-19087261D01*
X114306755Y-19097514D01*
X114424861Y-19241427D01*
X114433572Y-19250138D01*
X114577485Y-19368244D01*
X114587738Y-19375095D01*
X114751930Y-19462858D01*
X114763313Y-19467573D01*
X114941468Y-19521616D01*
X114953562Y-19524022D01*
X115092401Y-19537696D01*
X115098574Y-19538000D01*
X115558309Y-19538000D01*
X115617705Y-19552878D01*
X115663074Y-19593998D01*
X115683702Y-19651650D01*
X115674718Y-19712218D01*
X115642169Y-19790799D01*
X115634313Y-19809764D01*
X115633236Y-19817944D01*
X115633234Y-19817952D01*
X115616052Y-19948463D01*
X115614534Y-19960000D01*
X115615612Y-19968188D01*
X115633234Y-20102047D01*
X115633235Y-20102053D01*
X115634313Y-20110236D01*
X115637472Y-20117864D01*
X115637473Y-20117865D01*
X115689141Y-20242603D01*
X115689142Y-20242606D01*
X115692302Y-20250233D01*
X115697329Y-20256784D01*
X115697330Y-20256786D01*
X115768046Y-20348944D01*
X115784549Y-20370451D01*
X115904767Y-20462698D01*
X116044764Y-20520687D01*
X116157280Y-20535500D01*
X116228598Y-20535500D01*
X116232720Y-20535500D01*
X116302005Y-20526378D01*
X116362369Y-20533202D01*
X116412526Y-20567480D01*
X116440813Y-20621244D01*
X116440654Y-20681994D01*
X116412087Y-20735609D01*
X116354960Y-20799056D01*
X116351661Y-20804769D01*
X116351658Y-20804774D01*
X116271149Y-20944221D01*
X116259473Y-20964444D01*
X116257434Y-20970718D01*
X116257430Y-20970728D01*
X116202497Y-21139794D01*
X116202495Y-21139801D01*
X116200458Y-21146072D01*
X116199768Y-21152633D01*
X116199768Y-21152635D01*
X116182490Y-21317032D01*
X116180496Y-21336000D01*
X116181186Y-21342565D01*
X116199343Y-21515325D01*
X116200458Y-21525928D01*
X116202495Y-21532200D01*
X116202497Y-21532205D01*
X116257430Y-21701271D01*
X116257433Y-21701278D01*
X116259473Y-21707556D01*
X116354960Y-21872944D01*
X116417054Y-21941906D01*
X116467635Y-21998083D01*
X116482747Y-22014866D01*
X116488089Y-22018747D01*
X116488091Y-22018749D01*
X116516135Y-22039124D01*
X116637248Y-22127118D01*
X116811712Y-22204794D01*
X116998513Y-22244500D01*
X117005116Y-22244500D01*
X117056817Y-22244500D01*
X117114020Y-22258233D01*
X117158754Y-22296440D01*
X117181266Y-22350791D01*
X117176649Y-22409439D01*
X117171704Y-22424655D01*
X117171702Y-22424659D01*
X117169665Y-22430932D01*
X117168975Y-22437493D01*
X117168975Y-22437495D01*
X117150685Y-22611515D01*
X117149703Y-22620860D01*
X117150393Y-22627425D01*
X117164176Y-22758568D01*
X117169665Y-22810788D01*
X117171702Y-22817060D01*
X117171704Y-22817065D01*
X117226637Y-22986131D01*
X117226640Y-22986138D01*
X117228680Y-22992416D01*
X117324167Y-23157804D01*
X117397345Y-23239076D01*
X117421338Y-23278230D01*
X117429707Y-23323384D01*
X117429707Y-23812714D01*
X117429179Y-23823897D01*
X117427505Y-23831390D01*
X117427754Y-23839314D01*
X117427754Y-23839316D01*
X117429645Y-23899467D01*
X117429707Y-23903426D01*
X117429707Y-23931337D01*
X117430202Y-23935255D01*
X117430204Y-23935287D01*
X117430215Y-23935369D01*
X117431144Y-23947178D01*
X117432284Y-23983450D01*
X117432285Y-23983457D01*
X117432534Y-23991370D01*
X117434744Y-23998979D01*
X117434745Y-23998981D01*
X117438185Y-24010823D01*
X117442193Y-24030174D01*
X117444733Y-24050278D01*
X117447651Y-24057650D01*
X117447652Y-24057651D01*
X117461007Y-24091382D01*
X117464852Y-24102611D01*
X117474978Y-24137467D01*
X117474980Y-24137473D01*
X117477189Y-24145074D01*
X117481221Y-24151892D01*
X117481222Y-24151894D01*
X117487500Y-24162510D01*
X117496197Y-24180263D01*
X117503655Y-24199098D01*
X117508314Y-24205511D01*
X117508315Y-24205512D01*
X117529639Y-24234862D01*
X117536155Y-24244782D01*
X117554629Y-24276019D01*
X117558665Y-24282843D01*
X117564269Y-24288447D01*
X117564270Y-24288448D01*
X117572985Y-24297163D01*
X117585825Y-24312196D01*
X117586270Y-24312809D01*
X117597735Y-24328588D01*
X117603842Y-24333640D01*
X117603843Y-24333641D01*
X117631805Y-24356773D01*
X117640585Y-24364763D01*
X119286303Y-26010481D01*
X119318644Y-26065970D01*
X119319432Y-26130191D01*
X119288463Y-26186458D01*
X119233784Y-26220150D01*
X119193313Y-26232426D01*
X119181930Y-26237141D01*
X119017738Y-26324904D01*
X119007485Y-26331755D01*
X118863572Y-26449861D01*
X118854861Y-26458572D01*
X118736755Y-26602485D01*
X118729904Y-26612738D01*
X118642141Y-26776930D01*
X118637426Y-26788313D01*
X118602977Y-26901877D01*
X118602272Y-26913345D01*
X118613448Y-26916000D01*
X120003000Y-26916000D01*
X120066000Y-26932881D01*
X120112119Y-26979000D01*
X120129000Y-27042000D01*
X120129000Y-27298000D01*
X120112119Y-27361000D01*
X120066000Y-27407119D01*
X120003000Y-27424000D01*
X119410739Y-27424000D01*
X119346600Y-27406453D01*
X119274424Y-27363768D01*
X119274417Y-27363765D01*
X119267596Y-27359731D01*
X119221487Y-27346335D01*
X119117643Y-27316165D01*
X119117637Y-27316164D01*
X119111466Y-27314371D01*
X119105058Y-27313866D01*
X119105055Y-27313866D01*
X119077444Y-27311693D01*
X119077438Y-27311692D01*
X119074989Y-27311500D01*
X119072519Y-27311500D01*
X118577484Y-27311500D01*
X118577458Y-27311500D01*
X118575012Y-27311501D01*
X118572568Y-27311693D01*
X118572549Y-27311694D01*
X118544952Y-27313865D01*
X118544941Y-27313866D01*
X118538534Y-27314371D01*
X118532355Y-27316165D01*
X118532350Y-27316167D01*
X118390017Y-27357519D01*
X118390015Y-27357519D01*
X118382404Y-27359731D01*
X118375588Y-27363761D01*
X118375576Y-27363767D01*
X118327420Y-27392247D01*
X118263282Y-27409793D01*
X118199144Y-27392247D01*
X118186221Y-27384604D01*
X118171783Y-27378357D01*
X118028358Y-27336687D01*
X118019842Y-27335132D01*
X118007765Y-27337534D01*
X118004000Y-27350887D01*
X118004000Y-27820429D01*
X118001949Y-27843070D01*
X118001166Y-27847354D01*
X117999371Y-27853534D01*
X117998866Y-27859942D01*
X117998866Y-27859946D01*
X117997402Y-27878551D01*
X117996500Y-27890011D01*
X117996500Y-28089511D01*
X117996501Y-28165500D01*
X117979620Y-28228500D01*
X117933501Y-28274619D01*
X117870501Y-28291500D01*
X117514516Y-28291500D01*
X117512068Y-28291692D01*
X117512059Y-28291693D01*
X117484156Y-28293889D01*
X117484151Y-28293889D01*
X117477746Y-28294394D01*
X117471574Y-28296187D01*
X117471569Y-28296188D01*
X117328015Y-28337894D01*
X117328011Y-28337895D01*
X117320403Y-28340106D01*
X117313586Y-28344136D01*
X117313580Y-28344140D01*
X117292760Y-28356454D01*
X117228621Y-28374000D01*
X116952987Y-28374000D01*
X116941832Y-28376631D01*
X116942417Y-28388080D01*
X116978357Y-28511783D01*
X116984604Y-28526221D01*
X116990014Y-28535368D01*
X117007561Y-28599504D01*
X116990018Y-28663642D01*
X116984141Y-28673580D01*
X116980106Y-28680403D01*
X116977895Y-28688011D01*
X116977894Y-28688015D01*
X116936188Y-28831569D01*
X116936187Y-28831574D01*
X116934394Y-28837746D01*
X116933889Y-28844151D01*
X116933889Y-28844156D01*
X116931693Y-28872059D01*
X116931500Y-28874516D01*
X116931500Y-28876986D01*
X116931500Y-29196955D01*
X116918046Y-29253606D01*
X116880558Y-29298159D01*
X116827041Y-29321100D01*
X116768924Y-29317529D01*
X116753632Y-29312890D01*
X116753621Y-29312887D01*
X116747701Y-29311092D01*
X116741547Y-29310485D01*
X116741538Y-29310484D01*
X116556163Y-29292227D01*
X116550000Y-29291620D01*
X116543837Y-29292227D01*
X116358461Y-29310484D01*
X116358450Y-29310486D01*
X116352299Y-29311092D01*
X116346382Y-29312886D01*
X116346376Y-29312888D01*
X116168119Y-29366962D01*
X116168116Y-29366963D01*
X116162196Y-29368759D01*
X116156738Y-29371676D01*
X116156734Y-29371678D01*
X115992454Y-29459487D01*
X115992449Y-29459490D01*
X115986996Y-29462405D01*
X115982217Y-29466326D01*
X115982211Y-29466331D01*
X115838211Y-29584509D01*
X115838205Y-29584514D01*
X115833432Y-29588432D01*
X115829514Y-29593205D01*
X115829509Y-29593211D01*
X115711331Y-29737211D01*
X115711326Y-29737217D01*
X115707405Y-29741996D01*
X115704491Y-29747446D01*
X115704486Y-29747455D01*
X115620073Y-29905381D01*
X115574610Y-29953525D01*
X115511012Y-29971968D01*
X115446846Y-29955616D01*
X115399833Y-29908986D01*
X115321960Y-29774106D01*
X115194173Y-29632184D01*
X115188831Y-29628303D01*
X115188828Y-29628300D01*
X115085358Y-29553125D01*
X115039672Y-29519932D01*
X114865208Y-29442256D01*
X114858755Y-29440884D01*
X114858751Y-29440883D01*
X114684863Y-29403922D01*
X114684860Y-29403921D01*
X114678407Y-29402550D01*
X114671804Y-29402550D01*
X114617920Y-29402550D01*
X114554920Y-29385669D01*
X114508801Y-29339550D01*
X114491920Y-29276550D01*
X114491920Y-28223236D01*
X114511232Y-28156202D01*
X114521914Y-28139201D01*
X114534345Y-28119416D01*
X114579567Y-28076461D01*
X114639853Y-28060458D01*
X114700428Y-28075330D01*
X114751930Y-28102858D01*
X114763313Y-28107573D01*
X114941468Y-28161616D01*
X114953562Y-28164022D01*
X115092401Y-28177696D01*
X115098574Y-28178000D01*
X115424410Y-28178000D01*
X115437493Y-28174493D01*
X115441000Y-28161410D01*
X115949000Y-28161410D01*
X115952506Y-28174493D01*
X115965590Y-28178000D01*
X116291426Y-28178000D01*
X116297598Y-28177696D01*
X116436437Y-28164022D01*
X116448531Y-28161616D01*
X116626686Y-28107573D01*
X116638069Y-28102858D01*
X116802264Y-28015093D01*
X116812508Y-28008249D01*
X116881201Y-27951874D01*
X116904025Y-27922628D01*
X116908309Y-27913667D01*
X116952200Y-27878541D01*
X117007000Y-27866000D01*
X117479410Y-27866000D01*
X117492493Y-27862493D01*
X117496000Y-27849410D01*
X117496000Y-27350887D01*
X117492234Y-27337534D01*
X117480157Y-27335132D01*
X117471641Y-27336687D01*
X117328216Y-27378357D01*
X117313778Y-27384604D01*
X117298761Y-27393486D01*
X117268125Y-27414219D01*
X117219450Y-27424000D01*
X115965590Y-27424000D01*
X115952506Y-27427506D01*
X115949000Y-27440590D01*
X115949000Y-28161410D01*
X115441000Y-28161410D01*
X115441000Y-27042000D01*
X115457881Y-26979000D01*
X115504000Y-26932881D01*
X115567000Y-26916000D01*
X117206552Y-26916000D01*
X117217727Y-26913345D01*
X117217022Y-26901877D01*
X117182573Y-26788313D01*
X117177858Y-26776930D01*
X117090095Y-26612738D01*
X117083244Y-26602485D01*
X116965138Y-26458572D01*
X116956427Y-26449861D01*
X116812514Y-26331755D01*
X116802264Y-26324906D01*
X116698737Y-26269569D01*
X116657547Y-26234330D01*
X116634974Y-26185046D01*
X116635196Y-26130839D01*
X116658169Y-26081747D01*
X116697698Y-26030233D01*
X116755687Y-25890236D01*
X116775466Y-25740000D01*
X116755687Y-25589764D01*
X116697698Y-25449767D01*
X116683175Y-25430841D01*
X116610477Y-25336099D01*
X116605451Y-25329549D01*
X116598900Y-25324522D01*
X116491786Y-25242330D01*
X116491784Y-25242329D01*
X116485233Y-25237302D01*
X116477606Y-25234142D01*
X116477603Y-25234141D01*
X116352865Y-25182473D01*
X116352864Y-25182472D01*
X116345236Y-25179313D01*
X116337053Y-25178235D01*
X116337047Y-25178234D01*
X116236807Y-25165038D01*
X116236806Y-25165037D01*
X116232720Y-25164500D01*
X116157280Y-25164500D01*
X116153194Y-25165037D01*
X116153192Y-25165038D01*
X116052952Y-25178234D01*
X116052944Y-25178236D01*
X116044764Y-25179313D01*
X116037137Y-25182472D01*
X116037134Y-25182473D01*
X115912396Y-25234141D01*
X115912390Y-25234144D01*
X115904767Y-25237302D01*
X115898218Y-25242326D01*
X115898213Y-25242330D01*
X115791099Y-25324522D01*
X115791094Y-25324526D01*
X115784549Y-25329549D01*
X115779526Y-25336094D01*
X115779522Y-25336099D01*
X115697330Y-25443213D01*
X115697326Y-25443218D01*
X115692302Y-25449767D01*
X115689144Y-25457390D01*
X115689141Y-25457396D01*
X115637964Y-25580949D01*
X115634313Y-25589764D01*
X115633236Y-25597944D01*
X115633234Y-25597952D01*
X115618893Y-25706889D01*
X115614534Y-25740000D01*
X115615612Y-25748188D01*
X115633234Y-25882047D01*
X115633235Y-25882053D01*
X115634313Y-25890236D01*
X115637472Y-25897864D01*
X115637473Y-25897865D01*
X115674718Y-25987782D01*
X115683702Y-26048350D01*
X115663074Y-26106002D01*
X115617705Y-26147122D01*
X115558309Y-26162000D01*
X115098574Y-26162000D01*
X115092401Y-26162303D01*
X114953562Y-26175977D01*
X114941468Y-26178383D01*
X114763313Y-26232426D01*
X114751930Y-26237141D01*
X114587738Y-26324904D01*
X114577485Y-26331755D01*
X114433572Y-26449861D01*
X114424861Y-26458572D01*
X114306755Y-26602485D01*
X114299904Y-26612738D01*
X114212141Y-26776930D01*
X114207427Y-26788312D01*
X114203686Y-26800644D01*
X114167955Y-26857219D01*
X114108295Y-26887522D01*
X114053583Y-26883821D01*
X114053042Y-26886194D01*
X114046144Y-26884619D01*
X114039467Y-26882283D01*
X114032440Y-26881491D01*
X114032439Y-26881491D01*
X114000909Y-26877938D01*
X113920391Y-26868866D01*
X113863522Y-26847765D01*
X113823102Y-26802535D01*
X113808500Y-26743659D01*
X113808500Y-24000553D01*
X113809027Y-23989369D01*
X113810702Y-23981877D01*
X113808562Y-23913800D01*
X113808500Y-23909841D01*
X113808500Y-23885894D01*
X113808500Y-23881930D01*
X113807994Y-23877933D01*
X113807061Y-23866083D01*
X113807023Y-23864877D01*
X113805673Y-23821896D01*
X113800020Y-23802442D01*
X113796012Y-23783083D01*
X113793474Y-23762989D01*
X113777197Y-23721879D01*
X113773351Y-23710646D01*
X113763229Y-23675805D01*
X113761018Y-23668193D01*
X113750707Y-23650759D01*
X113742008Y-23633001D01*
X113737469Y-23621537D01*
X113734552Y-23614169D01*
X113708561Y-23578396D01*
X113702050Y-23568484D01*
X113679542Y-23530423D01*
X113665217Y-23516098D01*
X113652376Y-23501063D01*
X113645134Y-23491095D01*
X113645131Y-23491092D01*
X113640472Y-23484679D01*
X113606405Y-23456496D01*
X113597626Y-23448507D01*
X113521936Y-23372817D01*
X113497305Y-23337966D01*
X113485721Y-23296892D01*
X113468356Y-23131672D01*
X113428245Y-23008224D01*
X113411383Y-22956328D01*
X113411382Y-22956326D01*
X113409341Y-22950044D01*
X113313854Y-22784656D01*
X113203499Y-22662094D01*
X113179231Y-22622220D01*
X113171144Y-22576248D01*
X113171199Y-22571793D01*
X113192723Y-20806705D01*
X113205919Y-20752089D01*
X113241546Y-20708638D01*
X113292520Y-20684996D01*
X113296105Y-20684233D01*
X113312288Y-20680794D01*
X113486752Y-20603118D01*
X113641253Y-20490866D01*
X113769040Y-20348944D01*
X113864527Y-20183556D01*
X113923542Y-20001928D01*
X113943504Y-19812000D01*
X113923542Y-19622072D01*
X113876730Y-19478000D01*
X113866569Y-19446728D01*
X113866568Y-19446726D01*
X113864527Y-19440444D01*
X113769040Y-19275056D01*
X113641253Y-19133134D01*
X113635911Y-19129253D01*
X113635908Y-19129250D01*
X113545211Y-19063355D01*
X113486752Y-19020882D01*
X113312288Y-18943206D01*
X113305836Y-18941834D01*
X113305822Y-18941830D01*
X113170178Y-18912998D01*
X113128760Y-18896073D01*
X113095868Y-18865741D01*
X113050183Y-18805316D01*
X113047679Y-18802004D01*
X113038371Y-18792582D01*
X113005153Y-18758955D01*
X113002227Y-18755993D01*
X112895474Y-18673211D01*
X112887795Y-18670002D01*
X112887792Y-18670001D01*
X112774663Y-18622737D01*
X112774662Y-18622736D01*
X112770826Y-18621134D01*
X112708389Y-18604268D01*
X112704276Y-18603722D01*
X112704270Y-18603721D01*
X112578604Y-18587047D01*
X112578597Y-18587046D01*
X112574478Y-18586500D01*
X112570318Y-18586500D01*
X107294785Y-18586500D01*
X107246567Y-18576909D01*
X107205690Y-18549595D01*
X106929440Y-18273345D01*
X114172272Y-18273345D01*
X114183448Y-18276000D01*
X115424410Y-18276000D01*
X115437493Y-18272493D01*
X115441000Y-18259410D01*
X115949000Y-18259410D01*
X115952506Y-18272493D01*
X115965590Y-18276000D01*
X117206552Y-18276000D01*
X117217727Y-18273345D01*
X118602272Y-18273345D01*
X118613448Y-18276000D01*
X119604410Y-18276000D01*
X119617493Y-18272493D01*
X119621000Y-18259410D01*
X119621000Y-17538590D01*
X119617493Y-17525506D01*
X119604410Y-17522000D01*
X119528574Y-17522000D01*
X119522401Y-17522303D01*
X119383562Y-17535977D01*
X119371468Y-17538383D01*
X119193313Y-17592426D01*
X119181930Y-17597141D01*
X119017738Y-17684904D01*
X119007485Y-17691755D01*
X118863572Y-17809861D01*
X118854861Y-17818572D01*
X118736755Y-17962485D01*
X118729904Y-17972738D01*
X118642141Y-18136930D01*
X118637426Y-18148313D01*
X118602977Y-18261877D01*
X118602272Y-18273345D01*
X117217727Y-18273345D01*
X117217022Y-18261877D01*
X117182573Y-18148313D01*
X117177858Y-18136930D01*
X117090095Y-17972738D01*
X117083244Y-17962485D01*
X116965138Y-17818572D01*
X116956427Y-17809861D01*
X116812514Y-17691755D01*
X116802261Y-17684904D01*
X116638069Y-17597141D01*
X116626686Y-17592426D01*
X116448531Y-17538383D01*
X116436437Y-17535977D01*
X116297598Y-17522303D01*
X116291426Y-17522000D01*
X115965590Y-17522000D01*
X115952506Y-17525506D01*
X115949000Y-17538590D01*
X115949000Y-18259410D01*
X115441000Y-18259410D01*
X115441000Y-17538590D01*
X115437493Y-17525506D01*
X115424410Y-17522000D01*
X115098574Y-17522000D01*
X115092401Y-17522303D01*
X114953562Y-17535977D01*
X114941468Y-17538383D01*
X114763313Y-17592426D01*
X114751930Y-17597141D01*
X114587738Y-17684904D01*
X114577485Y-17691755D01*
X114433572Y-17809861D01*
X114424861Y-17818572D01*
X114306755Y-17962485D01*
X114299904Y-17972738D01*
X114212141Y-18136930D01*
X114207426Y-18148313D01*
X114172977Y-18261877D01*
X114172272Y-18273345D01*
X106929440Y-18273345D01*
X106032690Y-17376595D01*
X106001934Y-17326382D01*
X105997354Y-17267676D01*
X106019950Y-17213300D01*
X106064786Y-17175130D01*
X106122065Y-17161501D01*
X122974317Y-17199715D01*
G37*
G04 #@! TD.AperFunction*
G04 #@! TA.AperFunction,Conductor*
G36*
X98654444Y-23244648D02*
G01*
X99077042Y-23667246D01*
X99084584Y-23675533D01*
X99088700Y-23682018D01*
X99094479Y-23687444D01*
X99094480Y-23687446D01*
X99138367Y-23728658D01*
X99141208Y-23731412D01*
X99160930Y-23751134D01*
X99164114Y-23753604D01*
X99173137Y-23761309D01*
X99205379Y-23791586D01*
X99212328Y-23795406D01*
X99223129Y-23801344D01*
X99239659Y-23812202D01*
X99249394Y-23819754D01*
X99249397Y-23819756D01*
X99255659Y-23824613D01*
X99296236Y-23842172D01*
X99306871Y-23847381D01*
X99345640Y-23868695D01*
X99365266Y-23873734D01*
X99383959Y-23880134D01*
X99402555Y-23888181D01*
X99410386Y-23889421D01*
X99410389Y-23889422D01*
X99426828Y-23892025D01*
X99446225Y-23895097D01*
X99457825Y-23897498D01*
X99500670Y-23908500D01*
X99520924Y-23908500D01*
X99540634Y-23910050D01*
X99560643Y-23913220D01*
X99604661Y-23909058D01*
X99616519Y-23908500D01*
X100351151Y-23908500D01*
X100414611Y-23925648D01*
X100460798Y-23972423D01*
X100477141Y-24036095D01*
X100475171Y-24191722D01*
X100475077Y-24199110D01*
X100475400Y-24202486D01*
X100475401Y-24202499D01*
X100485323Y-24306071D01*
X100485324Y-24306083D01*
X100485649Y-24309467D01*
X100486338Y-24312805D01*
X100486339Y-24312809D01*
X100495723Y-24358249D01*
X100495725Y-24358259D01*
X100496414Y-24361592D01*
X100497459Y-24364836D01*
X100497461Y-24364841D01*
X100528330Y-24460610D01*
X100530423Y-24467103D01*
X100533858Y-24472991D01*
X100533859Y-24472993D01*
X100584406Y-24559638D01*
X100586284Y-24562856D01*
X100588312Y-24565601D01*
X100614561Y-24601133D01*
X100617912Y-24605668D01*
X100693025Y-24687202D01*
X100783887Y-24750715D01*
X100830549Y-24776322D01*
X100833705Y-24777633D01*
X100833711Y-24777636D01*
X100854038Y-24786081D01*
X100905715Y-24825805D01*
X100930627Y-24886037D01*
X100922107Y-24950658D01*
X100899025Y-25006379D01*
X100899020Y-25006395D01*
X100896440Y-25012624D01*
X100895241Y-25019263D01*
X100895240Y-25019270D01*
X100877543Y-25117345D01*
X100876945Y-25120661D01*
X100876705Y-25124014D01*
X100876705Y-25124015D01*
X100873423Y-25169880D01*
X100873422Y-25169892D01*
X100873183Y-25173244D01*
X100873303Y-25176608D01*
X100873303Y-25176614D01*
X100875649Y-25242330D01*
X100877099Y-25282953D01*
X100878768Y-25289495D01*
X100878769Y-25289498D01*
X100890662Y-25336099D01*
X100904245Y-25389323D01*
X100905425Y-25392487D01*
X100905426Y-25392490D01*
X100918315Y-25427051D01*
X100918317Y-25427055D01*
X100919729Y-25430841D01*
X100920113Y-25430697D01*
X100927151Y-25444962D01*
X100933282Y-25464944D01*
X100934990Y-25468685D01*
X100934992Y-25468689D01*
X100955098Y-25512714D01*
X100990544Y-25590329D01*
X100992976Y-25594113D01*
X100992983Y-25594126D01*
X100993174Y-25594423D01*
X100993223Y-25594565D01*
X100995135Y-25598067D01*
X100994542Y-25598390D01*
X101012629Y-25650819D01*
X101003959Y-25709843D01*
X100969110Y-25758263D01*
X100915893Y-25785224D01*
X100894911Y-25790136D01*
X100891344Y-25791440D01*
X100891333Y-25791444D01*
X100842774Y-25809207D01*
X100842769Y-25809208D01*
X100839210Y-25810511D01*
X100835842Y-25812227D01*
X100835830Y-25812233D01*
X100735780Y-25863234D01*
X100735777Y-25863235D01*
X100729001Y-25866690D01*
X100723249Y-25871662D01*
X100723243Y-25871667D01*
X100638304Y-25945104D01*
X100638296Y-25945111D01*
X100635425Y-25947594D01*
X100632870Y-25950407D01*
X100632863Y-25950415D01*
X100598939Y-25987782D01*
X100595558Y-25991506D01*
X100593368Y-25994596D01*
X100593360Y-25994607D01*
X100528444Y-26086233D01*
X100528440Y-26086240D01*
X100524042Y-26092448D01*
X100521254Y-26099531D01*
X100521251Y-26099538D01*
X100480140Y-26204010D01*
X100480137Y-26204018D01*
X100478742Y-26207564D01*
X100477782Y-26211256D01*
X100477782Y-26211259D01*
X100464789Y-26261274D01*
X100464787Y-26261283D01*
X100463830Y-26264968D01*
X100463323Y-26268743D01*
X100463322Y-26268750D01*
X100449094Y-26374765D01*
X100447375Y-26387577D01*
X100447326Y-26391370D01*
X100447326Y-26391384D01*
X100416856Y-28798542D01*
X100400836Y-28858449D01*
X100358179Y-28903459D01*
X100299218Y-28922670D01*
X100238233Y-28911427D01*
X100189998Y-28872456D01*
X100163261Y-28836739D01*
X100086570Y-28779329D01*
X100085228Y-28778324D01*
X100048964Y-28735618D01*
X100034799Y-28681414D01*
X100033562Y-28642031D01*
X100033500Y-28638075D01*
X100033500Y-28614100D01*
X100033500Y-28610144D01*
X100032993Y-28606134D01*
X100032061Y-28594294D01*
X100030673Y-28550110D01*
X100025020Y-28530656D01*
X100021012Y-28511297D01*
X100019585Y-28500000D01*
X100018474Y-28491203D01*
X100002197Y-28450092D01*
X99998358Y-28438882D01*
X99986018Y-28396406D01*
X99975703Y-28378966D01*
X99967010Y-28361221D01*
X99959552Y-28342383D01*
X99933564Y-28306614D01*
X99927046Y-28296690D01*
X99908578Y-28265462D01*
X99904542Y-28258637D01*
X99890217Y-28244312D01*
X99877376Y-28229277D01*
X99870134Y-28219309D01*
X99870131Y-28219306D01*
X99865472Y-28212893D01*
X99831405Y-28184710D01*
X99822626Y-28176721D01*
X99537904Y-27891999D01*
X99510590Y-27851122D01*
X99500999Y-27802904D01*
X99500999Y-27513099D01*
X99500999Y-27513096D01*
X99500999Y-27510236D01*
X99494513Y-27438851D01*
X99443327Y-27274587D01*
X99354316Y-27127345D01*
X99258565Y-27031594D01*
X99225954Y-26975111D01*
X99225954Y-26909889D01*
X99258566Y-26853405D01*
X99293018Y-26818953D01*
X99354316Y-26757655D01*
X99443327Y-26610413D01*
X99494513Y-26446149D01*
X99501000Y-26374765D01*
X99500999Y-25860236D01*
X99494513Y-25788851D01*
X99443327Y-25624587D01*
X99354316Y-25477345D01*
X99232655Y-25355684D01*
X99226131Y-25351740D01*
X99091936Y-25270616D01*
X99091934Y-25270615D01*
X99085413Y-25266673D01*
X99069614Y-25261750D01*
X98927513Y-25217470D01*
X98927512Y-25217469D01*
X98921149Y-25215487D01*
X98914516Y-25214884D01*
X98914510Y-25214883D01*
X98852614Y-25209258D01*
X98852594Y-25209257D01*
X98849765Y-25209000D01*
X98846903Y-25209000D01*
X98188099Y-25209000D01*
X98188077Y-25209000D01*
X98185236Y-25209001D01*
X98182387Y-25209259D01*
X98182383Y-25209260D01*
X98120488Y-25214883D01*
X98120479Y-25214884D01*
X98113851Y-25215487D01*
X98107493Y-25217468D01*
X98107489Y-25217469D01*
X97956864Y-25264405D01*
X97956860Y-25264406D01*
X97949587Y-25266673D01*
X97943069Y-25270612D01*
X97943065Y-25270615D01*
X97870034Y-25314764D01*
X97803453Y-25332927D01*
X97737292Y-25313293D01*
X97691398Y-25261750D01*
X97679540Y-25193766D01*
X97687504Y-25118000D01*
X97667542Y-24928072D01*
X97617701Y-24774679D01*
X97610569Y-24752728D01*
X97610568Y-24752726D01*
X97608527Y-24746444D01*
X97513040Y-24581056D01*
X97416226Y-24473534D01*
X97387094Y-24417571D01*
X97388746Y-24354497D01*
X97420768Y-24300134D01*
X98476258Y-23244645D01*
X98532738Y-23212036D01*
X98597960Y-23212036D01*
X98654444Y-23244648D01*
G37*
G04 #@! TD.AperFunction*
G04 #@! TA.AperFunction,Conductor*
G36*
X107479000Y-22316410D02*
G01*
X107482506Y-22329493D01*
X107495590Y-22333000D01*
X107520639Y-22333000D01*
X107527028Y-22332674D01*
X107617398Y-22323442D01*
X107630762Y-22320581D01*
X107779920Y-22271154D01*
X107793132Y-22264994D01*
X107932728Y-22178891D01*
X107933835Y-22180686D01*
X107972068Y-22162377D01*
X108027824Y-22162353D01*
X108062201Y-22178779D01*
X109125000Y-22925000D01*
X109380889Y-23075523D01*
X107381367Y-23064098D01*
X107238779Y-23063283D01*
X107176085Y-23046164D01*
X107130261Y-23000078D01*
X107113500Y-22937286D01*
X107113500Y-22433622D01*
X107113500Y-22429500D01*
X107096003Y-22296595D01*
X107079390Y-22234595D01*
X107028091Y-22110749D01*
X107019843Y-22100000D01*
X107479000Y-22100000D01*
X107479000Y-22316410D01*
G37*
G04 #@! TD.AperFunction*
G04 #@! TA.AperFunction,Conductor*
G36*
X99918500Y-20737881D02*
G01*
X99964619Y-20784000D01*
X99981500Y-20847000D01*
X99981500Y-21222515D01*
X99981500Y-21222540D01*
X99981501Y-21224988D01*
X99981693Y-21227432D01*
X99981694Y-21227450D01*
X99983865Y-21255047D01*
X99983866Y-21255056D01*
X99984371Y-21261466D01*
X99986167Y-21267650D01*
X99986168Y-21267652D01*
X99988997Y-21277390D01*
X99994000Y-21312542D01*
X99994000Y-21780355D01*
X99996631Y-21791509D01*
X100008080Y-21790924D01*
X100124782Y-21757018D01*
X100139216Y-21750772D01*
X100185368Y-21723478D01*
X100249508Y-21705931D01*
X100313645Y-21723476D01*
X100367404Y-21755269D01*
X100523534Y-21800629D01*
X100560011Y-21803500D01*
X100851664Y-21803499D01*
X100904114Y-21814935D01*
X100947044Y-21847168D01*
X100972660Y-21894346D01*
X100979104Y-21916526D01*
X100980149Y-21983014D01*
X100947203Y-22040774D01*
X100383384Y-22604595D01*
X100342506Y-22631909D01*
X100294288Y-22641500D01*
X99895295Y-22641500D01*
X99847077Y-22631909D01*
X99806200Y-22604595D01*
X99270405Y-22068800D01*
X99243091Y-22027923D01*
X99233500Y-21979705D01*
X99233500Y-21889473D01*
X99246787Y-21833154D01*
X99283847Y-21788713D01*
X99336863Y-21765523D01*
X99394653Y-21768476D01*
X99471919Y-21790924D01*
X99483368Y-21791509D01*
X99486000Y-21780355D01*
X99486000Y-20847000D01*
X99502881Y-20784000D01*
X99549000Y-20737881D01*
X99612000Y-20721000D01*
X99855500Y-20721000D01*
X99918500Y-20737881D01*
G37*
G04 #@! TD.AperFunction*
G04 #@! TA.AperFunction,Conductor*
G36*
X101078128Y-18387290D02*
G01*
X101112810Y-18440177D01*
X101117426Y-18503253D01*
X101114363Y-18520023D01*
X101113686Y-18528626D01*
X101116392Y-18542233D01*
X101129748Y-18546000D01*
X102005500Y-18546000D01*
X102068500Y-18562881D01*
X102114619Y-18609000D01*
X102131500Y-18672000D01*
X102131501Y-18928000D01*
X102114620Y-18991000D01*
X102068501Y-19037119D01*
X102005501Y-19054000D01*
X101129748Y-19054000D01*
X101114886Y-19058191D01*
X101098710Y-19075690D01*
X101091218Y-19090465D01*
X101033521Y-19126294D01*
X101028016Y-19127893D01*
X101028007Y-19127896D01*
X101020403Y-19130106D01*
X101013590Y-19134134D01*
X101013581Y-19134139D01*
X100886191Y-19209478D01*
X100886187Y-19209480D01*
X100879371Y-19213512D01*
X100873769Y-19219113D01*
X100873765Y-19219117D01*
X100863288Y-19229595D01*
X100822411Y-19256909D01*
X100774193Y-19266500D01*
X100614595Y-19266500D01*
X100566376Y-19256909D01*
X100525499Y-19229595D01*
X100470404Y-19174499D01*
X100443091Y-19133622D01*
X100433500Y-19085404D01*
X100433500Y-18914595D01*
X100443091Y-18866377D01*
X100470404Y-18825500D01*
X100686904Y-18609000D01*
X100904383Y-18391520D01*
X100958893Y-18359457D01*
X101022119Y-18357917D01*
X101078128Y-18387290D01*
G37*
G04 #@! TD.AperFunction*
G04 #@! TA.AperFunction,Conductor*
G36*
X104530842Y-21224143D02*
G01*
X104581301Y-21269875D01*
X104600000Y-21335356D01*
X104600000Y-22676000D01*
X104583387Y-22738000D01*
X104538000Y-22783387D01*
X104476000Y-22800000D01*
X102700000Y-22800000D01*
X102700000Y-25900000D01*
X102716326Y-25900000D01*
X104678086Y-25900000D01*
X104737513Y-25915168D01*
X104782401Y-25956960D01*
X104801770Y-26015154D01*
X104790881Y-26075510D01*
X104764835Y-26132543D01*
X104763573Y-26141316D01*
X104763572Y-26141322D01*
X104751776Y-26223373D01*
X104744353Y-26275000D01*
X104745615Y-26283777D01*
X104763572Y-26408677D01*
X104763573Y-26408681D01*
X104764835Y-26417457D01*
X104824623Y-26548373D01*
X104830430Y-26555075D01*
X104830431Y-26555076D01*
X104913065Y-26650442D01*
X104913067Y-26650444D01*
X104918872Y-26657143D01*
X105039947Y-26734953D01*
X105178039Y-26775500D01*
X105313090Y-26775500D01*
X105321961Y-26775500D01*
X105460053Y-26734953D01*
X105581128Y-26657143D01*
X105675377Y-26548373D01*
X105735165Y-26417457D01*
X105755647Y-26275000D01*
X105735165Y-26132543D01*
X105709118Y-26075510D01*
X105698230Y-26015154D01*
X105717599Y-25956960D01*
X105762487Y-25915168D01*
X105821914Y-25900000D01*
X106883790Y-25900000D01*
X106900000Y-25900000D01*
X106923673Y-23698368D01*
X106940846Y-23636731D01*
X106986462Y-23591860D01*
X107048375Y-23575705D01*
X111174405Y-23599282D01*
X111236764Y-23616517D01*
X111281955Y-23662817D01*
X111297674Y-23725577D01*
X111295581Y-23838569D01*
X111291378Y-23868359D01*
X111291175Y-23869114D01*
X111288070Y-23876612D01*
X111287010Y-23884657D01*
X111287009Y-23884664D01*
X111268843Y-24022654D01*
X111267432Y-24033374D01*
X111268493Y-24041433D01*
X111287735Y-24187596D01*
X111288775Y-24206077D01*
X111277178Y-24832353D01*
X111260521Y-24892170D01*
X111216954Y-24936412D01*
X111157400Y-24953986D01*
X109815960Y-24999458D01*
X109815956Y-24999459D01*
X109800000Y-25000000D01*
X109800000Y-25015967D01*
X109800000Y-30580958D01*
X109798738Y-30598604D01*
X109793720Y-30633506D01*
X109794982Y-30642283D01*
X109798738Y-30668407D01*
X109800000Y-30686054D01*
X109800000Y-31925136D01*
X109783243Y-31987384D01*
X109737502Y-32032809D01*
X109675139Y-32049132D01*
X109564101Y-32048361D01*
X107394590Y-32033294D01*
X107328412Y-32013613D01*
X107217516Y-31942345D01*
X107217515Y-31942344D01*
X107210053Y-31937549D01*
X107154863Y-31921343D01*
X107080473Y-31899501D01*
X107080470Y-31899500D01*
X107071961Y-31897002D01*
X106928039Y-31897002D01*
X106919530Y-31899500D01*
X106919526Y-31899501D01*
X106798461Y-31935049D01*
X106789947Y-31937549D01*
X106782487Y-31942343D01*
X106782483Y-31942345D01*
X106680042Y-32008180D01*
X106647524Y-32022962D01*
X106612142Y-32027861D01*
X102723139Y-32000855D01*
X102661504Y-31983957D01*
X102616470Y-31938609D01*
X102600000Y-31876858D01*
X102600000Y-31216326D01*
X102600000Y-31200000D01*
X102583674Y-31200000D01*
X101466031Y-31200000D01*
X101418578Y-31190561D01*
X101364271Y-31168066D01*
X101364268Y-31168065D01*
X101356762Y-31164956D01*
X101348708Y-31163895D01*
X101348702Y-31163894D01*
X101208059Y-31145379D01*
X101200000Y-31144318D01*
X101043238Y-31164956D01*
X101042921Y-31162551D01*
X101001386Y-31163828D01*
X100949875Y-31140175D01*
X100914272Y-31096069D01*
X100902016Y-31040728D01*
X100907282Y-30624729D01*
X100960834Y-26394076D01*
X100975746Y-26336672D01*
X101015613Y-26292760D01*
X101071314Y-26272385D01*
X101130106Y-26280211D01*
X101178534Y-26314442D01*
X101193872Y-26332143D01*
X101314947Y-26409953D01*
X101453039Y-26450500D01*
X101588090Y-26450500D01*
X101596961Y-26450500D01*
X101735053Y-26409953D01*
X101856128Y-26332143D01*
X101950377Y-26223373D01*
X102010165Y-26092457D01*
X102030647Y-25950000D01*
X102010165Y-25807543D01*
X101950377Y-25676627D01*
X101856128Y-25567857D01*
X101735053Y-25490047D01*
X101679863Y-25473841D01*
X101605473Y-25451999D01*
X101605470Y-25451998D01*
X101596961Y-25449500D01*
X101588090Y-25449500D01*
X101570433Y-25449500D01*
X101503394Y-25429816D01*
X101457639Y-25377012D01*
X101437847Y-25333674D01*
X101400377Y-25251627D01*
X101400858Y-25251406D01*
X101385374Y-25209888D01*
X101389136Y-25157305D01*
X101414400Y-25111040D01*
X101425377Y-25098373D01*
X101485165Y-24967457D01*
X101505647Y-24825000D01*
X101485165Y-24682543D01*
X101425377Y-24551627D01*
X101405562Y-24528759D01*
X101336934Y-24449557D01*
X101336932Y-24449555D01*
X101331128Y-24442857D01*
X101210053Y-24365047D01*
X101201542Y-24362548D01*
X101201540Y-24362547D01*
X101077591Y-24326153D01*
X101030929Y-24300546D01*
X100999301Y-24257734D01*
X100988536Y-24205609D01*
X100998794Y-23395212D01*
X101008526Y-23348608D01*
X101035098Y-23309110D01*
X101956486Y-22387723D01*
X101964454Y-22380423D01*
X101985071Y-22363124D01*
X101985070Y-22363124D01*
X101993384Y-22356149D01*
X102012281Y-22323415D01*
X102018080Y-22314316D01*
X102033521Y-22292265D01*
X102033520Y-22292265D01*
X102039744Y-22283378D01*
X102042550Y-22272899D01*
X102043158Y-22271598D01*
X102088915Y-22219420D01*
X102155541Y-22200000D01*
X103383674Y-22200000D01*
X103400000Y-22200000D01*
X103400000Y-21451878D01*
X103409439Y-21404425D01*
X103436319Y-21364197D01*
X103550840Y-21249676D01*
X103591068Y-21222796D01*
X103638521Y-21213357D01*
X104163892Y-21213357D01*
X104168476Y-21213357D01*
X104169986Y-21213090D01*
X104173049Y-21212957D01*
X104453652Y-21212957D01*
X104459749Y-21212957D01*
X104464340Y-21212043D01*
X104530842Y-21224143D01*
G37*
G04 #@! TD.AperFunction*
G04 #@! TA.AperFunction,Conductor*
G36*
X110041121Y-20714048D02*
G01*
X110058387Y-20724878D01*
X110290556Y-20933357D01*
X110598929Y-21218887D01*
X110632559Y-21250026D01*
X110653369Y-21269294D01*
X110658503Y-21274333D01*
X110745042Y-21364334D01*
X111184883Y-21821768D01*
X111201410Y-21847307D01*
X111219500Y-23095500D01*
X111219500Y-23269325D01*
X111202769Y-23331529D01*
X111157090Y-23376948D01*
X111094791Y-23393323D01*
X109909634Y-23386549D01*
X109125000Y-22925000D01*
X107950000Y-22100000D01*
X105400000Y-22100000D01*
X105400000Y-20946178D01*
X105437095Y-20913646D01*
X105505685Y-20903089D01*
X105508637Y-20903477D01*
X105524000Y-20905500D01*
X105784685Y-20905500D01*
X105787454Y-20905500D01*
X105823941Y-20902235D01*
X105867273Y-20894417D01*
X105935649Y-20868913D01*
X105970652Y-20848144D01*
X105974471Y-20844952D01*
X105978541Y-20842073D01*
X105978603Y-20842161D01*
X105984509Y-20837819D01*
X106043358Y-20800000D01*
X106200000Y-20800000D01*
X106200000Y-20705500D01*
X109995879Y-20705500D01*
X110041121Y-20714048D01*
G37*
G04 #@! TD.AperFunction*
G04 #@! TA.AperFunction,Conductor*
G36*
X112636915Y-19116866D02*
G01*
X112682367Y-19162877D01*
X112698469Y-19225515D01*
X112698169Y-19250066D01*
X112685053Y-19304073D01*
X112649666Y-19346926D01*
X112630022Y-19362000D01*
X112601718Y-19383718D01*
X112596774Y-19390160D01*
X112596771Y-19390164D01*
X112510411Y-19502711D01*
X112510408Y-19502714D01*
X112505464Y-19509159D01*
X112502355Y-19516662D01*
X112502354Y-19516666D01*
X112448066Y-19647728D01*
X112448064Y-19647733D01*
X112444956Y-19655238D01*
X112443896Y-19663289D01*
X112443894Y-19663297D01*
X112425702Y-19801482D01*
X112424318Y-19812000D01*
X112425379Y-19820059D01*
X112443894Y-19960702D01*
X112443895Y-19960708D01*
X112444956Y-19968762D01*
X112505464Y-20114841D01*
X112601718Y-20240282D01*
X112608164Y-20245228D01*
X112636048Y-20266624D01*
X112672106Y-20310835D01*
X112684553Y-20366512D01*
X112657343Y-22597818D01*
X112642872Y-22654455D01*
X112604062Y-22698169D01*
X112549538Y-22719245D01*
X112426110Y-22735495D01*
X112426108Y-22735495D01*
X112418052Y-22736556D01*
X112410547Y-22739664D01*
X112410542Y-22739666D01*
X112279480Y-22793954D01*
X112279476Y-22793955D01*
X112271973Y-22797064D01*
X112265528Y-22802008D01*
X112265525Y-22802011D01*
X112152978Y-22888371D01*
X112152974Y-22888374D01*
X112146532Y-22893318D01*
X112141588Y-22899760D01*
X112141585Y-22899764D01*
X112055225Y-23012311D01*
X112055222Y-23012314D01*
X112050278Y-23018759D01*
X112047169Y-23026262D01*
X112047168Y-23026266D01*
X111992880Y-23157328D01*
X111992878Y-23157333D01*
X111989770Y-23164838D01*
X111988710Y-23172889D01*
X111988708Y-23172897D01*
X111971107Y-23306601D01*
X111969132Y-23321600D01*
X111970193Y-23329659D01*
X111988708Y-23470302D01*
X111988709Y-23470308D01*
X111989770Y-23478362D01*
X111992879Y-23485868D01*
X111992880Y-23485871D01*
X112006718Y-23519278D01*
X112050278Y-23624441D01*
X112146532Y-23749882D01*
X112271973Y-23846136D01*
X112418052Y-23906644D01*
X112426110Y-23907704D01*
X112426111Y-23907705D01*
X112531875Y-23921629D01*
X112587226Y-23943283D01*
X112626141Y-23988207D01*
X112639681Y-24046080D01*
X112601494Y-27177512D01*
X112584383Y-27238871D01*
X112539066Y-27283638D01*
X112477503Y-27300000D01*
X110129500Y-27300000D01*
X110067500Y-27283387D01*
X110022113Y-27238000D01*
X110005500Y-27176000D01*
X110005500Y-25318520D01*
X110021419Y-25257737D01*
X110065090Y-25212561D01*
X110125299Y-25194591D01*
X110179089Y-25192767D01*
X111164362Y-25159368D01*
X111215562Y-25151083D01*
X111275116Y-25133509D01*
X111278726Y-25131924D01*
X111281855Y-25130782D01*
X111326575Y-25123273D01*
X111425000Y-25125000D01*
X111425000Y-25049544D01*
X111439491Y-24995573D01*
X111438381Y-24995107D01*
X111439214Y-24993126D01*
X111458489Y-24947297D01*
X111475146Y-24887480D01*
X111482643Y-24836158D01*
X111494240Y-24209882D01*
X111493950Y-24194531D01*
X111492910Y-24176050D01*
X111491477Y-24160774D01*
X111476835Y-24049553D01*
X111476835Y-24017195D01*
X111488126Y-23931422D01*
X111489906Y-23921733D01*
X111489830Y-23921718D01*
X111494479Y-23898948D01*
X111494863Y-23897068D01*
X111499066Y-23867278D01*
X111501046Y-23842375D01*
X111503139Y-23729383D01*
X111497017Y-23675649D01*
X111481298Y-23612889D01*
X111461370Y-23562614D01*
X111456465Y-23556044D01*
X111449636Y-23546896D01*
X111431320Y-23511798D01*
X111425000Y-23472715D01*
X111425000Y-21786908D01*
X111425000Y-21775000D01*
X111416749Y-21766419D01*
X111416748Y-21766417D01*
X111053767Y-21388917D01*
X110800000Y-21125000D01*
X110125000Y-20500000D01*
X110113390Y-20500000D01*
X106016326Y-20500000D01*
X106000000Y-20500000D01*
X106000000Y-20516324D01*
X105997583Y-20525344D01*
X105984832Y-20575304D01*
X105943039Y-20620193D01*
X105876328Y-20663064D01*
X105876322Y-20663069D01*
X105868872Y-20667857D01*
X105865789Y-20671413D01*
X105830786Y-20692182D01*
X105787454Y-20700000D01*
X105524000Y-20700000D01*
X105462000Y-20683387D01*
X105416613Y-20638000D01*
X105400000Y-20576000D01*
X105400000Y-19424000D01*
X105416613Y-19362000D01*
X105462000Y-19316613D01*
X105524000Y-19300000D01*
X106182728Y-19300000D01*
X106200000Y-19300000D01*
X106265727Y-19168545D01*
X106311445Y-19118519D01*
X106376636Y-19100000D01*
X112574478Y-19100000D01*
X112636915Y-19116866D01*
G37*
G04 #@! TD.AperFunction*
G04 #@! TA.AperFunction,Conductor*
G36*
X105438000Y-18216613D02*
G01*
X105483387Y-18262000D01*
X105500000Y-18324000D01*
X105500000Y-18998584D01*
X105489499Y-19048523D01*
X105459776Y-19090004D01*
X105415864Y-19116002D01*
X105412738Y-19117062D01*
X105408812Y-19118115D01*
X105405058Y-19119669D01*
X105405049Y-19119673D01*
X105366760Y-19135533D01*
X105366752Y-19135537D01*
X105359250Y-19138645D01*
X105352804Y-19143591D01*
X105352801Y-19143593D01*
X105319921Y-19168823D01*
X105319914Y-19168828D01*
X105316690Y-19171303D01*
X105313817Y-19174175D01*
X105313809Y-19174183D01*
X105274183Y-19213809D01*
X105274175Y-19213817D01*
X105271303Y-19216690D01*
X105268828Y-19219914D01*
X105268823Y-19219921D01*
X105243593Y-19252801D01*
X105243591Y-19252804D01*
X105238645Y-19259250D01*
X105235537Y-19266752D01*
X105235533Y-19266760D01*
X105219669Y-19305058D01*
X105219664Y-19305071D01*
X105218115Y-19308812D01*
X105217067Y-19312722D01*
X105217065Y-19312729D01*
X105202550Y-19366898D01*
X105202547Y-19366909D01*
X105201502Y-19370812D01*
X105200973Y-19374823D01*
X105200972Y-19374833D01*
X105195029Y-19419977D01*
X105195028Y-19419986D01*
X105194500Y-19424000D01*
X105194500Y-20576000D01*
X105195028Y-20580014D01*
X105195029Y-20580022D01*
X105200972Y-20625166D01*
X105200973Y-20625173D01*
X105201502Y-20629188D01*
X105218115Y-20691188D01*
X105219666Y-20694932D01*
X105219669Y-20694941D01*
X105234564Y-20730898D01*
X105243072Y-20793525D01*
X105225194Y-20838236D01*
X105226166Y-20838677D01*
X105220701Y-20850736D01*
X105212817Y-20861368D01*
X105210023Y-20874303D01*
X105210022Y-20874306D01*
X105195893Y-20939725D01*
X105195892Y-20939731D01*
X105194500Y-20946178D01*
X105194500Y-22100000D01*
X105210143Y-22178641D01*
X105216927Y-22188794D01*
X105216928Y-22188796D01*
X105243725Y-22228900D01*
X105254690Y-22245310D01*
X105321359Y-22289857D01*
X105400000Y-22305500D01*
X106476000Y-22305500D01*
X106538000Y-22322113D01*
X106583387Y-22367500D01*
X106600000Y-22429500D01*
X106600000Y-23676000D01*
X106583387Y-23738000D01*
X106538000Y-23783387D01*
X106476000Y-23800000D01*
X104824000Y-23800000D01*
X104762000Y-23783387D01*
X104716613Y-23738000D01*
X104700000Y-23676000D01*
X104700000Y-22962300D01*
X104707947Y-22918621D01*
X104728981Y-22883528D01*
X104728697Y-22883310D01*
X104728697Y-22883309D01*
X104761355Y-22840750D01*
X104781885Y-22791188D01*
X104798498Y-22729188D01*
X104805500Y-22676000D01*
X104805500Y-21335356D01*
X104797601Y-21278928D01*
X104778902Y-21213447D01*
X104755811Y-21161356D01*
X104728791Y-21128976D01*
X104707421Y-21091786D01*
X104700000Y-21049534D01*
X104700000Y-19904622D01*
X104709439Y-19857169D01*
X104725045Y-19819493D01*
X104745683Y-19662731D01*
X104725045Y-19505969D01*
X104709938Y-19469499D01*
X104700500Y-19422047D01*
X104700500Y-18777297D01*
X104701561Y-18761112D01*
X104704621Y-18737869D01*
X104705682Y-18729810D01*
X104685044Y-18573048D01*
X104624536Y-18426969D01*
X104619589Y-18420522D01*
X104616613Y-18415367D01*
X104600000Y-18353367D01*
X104600000Y-18324000D01*
X104616613Y-18262000D01*
X104662000Y-18216613D01*
X104724000Y-18200000D01*
X105376000Y-18200000D01*
X105438000Y-18216613D01*
G37*
G04 #@! TD.AperFunction*
M02*
