G04 ================== begin FILE IDENTIFICATION RECORD ==================*
G04 Layout Name:  LAUNCHXL-CC1310.brd*
G04 Film Name:    LAUNCHXL-CC1310_paste_top*
G04 File Format:  Gerber RS274X*
G04 File Origin:  Cadence Allegro 17.2-S024*
G04 Origin Date:  Tue Feb 18 08:08:47 2020*
G04 *
G04 Layer:  DRAWING FORMAT/TITLE_BLOCK*
G04 Layer:  BOARD GEOMETRY/TOP PASTE*
G04 Layer:  PIN/FILMMASKTOP*
G04 Layer:  BOARD GEOMETRY/OUTLINE*
G04 *
G04 Offset:    (0.0000 0.0000)*
G04 Mirror:    No*
G04 Mode:      Positive*
G04 Rotation:  0*
G04 FullContactRelief:  No*
G04 UndefLineWidth:     0.0990*
G04 ================== end FILE IDENTIFICATION RECORD ====================*
%FSLAX25Y25*MOIN*%
%IR0*IPPOS*OFA0.00000B0.00000*MIA0B0*SFA1.00000B1.00000*%
%ADD16O,.059094X.007913*%
%ADD23O,.007913X.059094*%
%AMMACRO62*
4,1,22,-.005906,.015748,
-.005906,-.012795,
-.005861,-.013308,
-.005727,-.013805,
-.00551,-.014272,
-.005215,-.014693,
-.004851,-.015057,
-.004429,-.015352,
-.003963,-.01557,
-.003465,-.015703,
-.002953,-.015748,
.002953,-.015748,
.003465,-.015703,
.003963,-.01557,
.004429,-.015352,
.004851,-.015057,
.005215,-.014693,
.00551,-.014272,
.005727,-.013805,
.005861,-.013308,
.005906,-.012795,
.005906,.015748,
-.005906,.015748,
0.0*
%
%ADD62MACRO62*%
%AMMACRO59*
4,1,22,-.015748,-.005906,
.012795,-.005906,
.013308,-.005861,
.013805,-.005727,
.014272,-.00551,
.014693,-.005215,
.015057,-.004851,
.015352,-.004429,
.01557,-.003963,
.015703,-.003465,
.015748,-.002953,
.015748,.002953,
.015703,.003465,
.01557,.003963,
.015352,.004429,
.015057,.004851,
.014693,.005215,
.014272,.00551,
.013805,.005727,
.013308,.005861,
.012795,.005906,
-.015748,.005906,
-.015748,-.005906,
0.0*
%
%ADD59MACRO59*%
%AMMACRO50*
4,1,45,0.0,-.014764,
.003465,-.014764,
.003892,-.014723,
.004305,-.014609,
.004692,-.014424,
.005042,-.014175,
.005342,-.01387,
.005586,-.013516,
.005764,-.013126,
.005872,-.012711,
.005906,-.012284,
.005906,-.012283,
.005906,.012283,
.005872,.012711,
.005764,.013126,
.005586,.013516,
.005343,.01387,
.005042,.014175,
.004692,.014424,
.004305,.014609,
.003892,.014723,
.003465,.014764,
.003465,.014764,
-.003465,.014764,
-.003892,.014723,
-.004305,.014609,
-.004692,.014424,
-.005042,.014175,
-.005342,.01387,
-.005586,.013516,
-.005764,.013126,
-.005872,.012711,
-.005906,.012284,
-.005906,.012283,
-.005906,-.012283,
-.005872,-.012711,
-.005764,-.013126,
-.005586,-.013516,
-.005343,-.01387,
-.005042,-.014175,
-.004692,-.014424,
-.004305,-.014609,
-.003892,-.014723,
-.003465,-.014764,
-.003465,-.014764,
0.0,-.014764,
0.0*
%
%ADD50MACRO50*%
%ADD54R,.066929X.011811*%
%AMMACRO38*
4,1,41,0.0,-.012795,
.005906,-.012795,
.006931,-.012706,
.007925,-.012439,
.008858,-.012004,
.009702,-.011414,
.010429,-.010686,
.01102,-.009843,
.011455,-.00891,
.011721,-.007915,
.011811,-.00689,
.011811,.00689,
.011721,.007915,
.011455,.00891,
.01102,.009843,
.010429,.010686,
.009702,.011414,
.008858,.012004,
.007925,.012439,
.006931,.012706,
.005906,.012795,
-.005906,.012795,
-.006931,.012706,
-.007925,.012439,
-.008858,.012004,
-.009702,.011414,
-.010429,.010686,
-.01102,.009843,
-.011455,.00891,
-.011721,.007915,
-.011811,.00689,
-.011811,-.00689,
-.011721,-.007915,
-.011455,-.00891,
-.01102,-.009843,
-.010429,-.010686,
-.009702,-.011414,
-.008858,-.012004,
-.007925,-.012439,
-.006931,-.012706,
-.005906,-.012795,
0.0,-.012795,
0.0*
%
%ADD38MACRO38*%
%ADD31O,.031496X.045276*%
%AMMACRO43*
4,1,44,.017717,.007402,
.017717,-.007402,
.017605,-.008686,
.017273,-.009931,
.016729,-.0111,
.015991,-.012157,
.01508,-.013069,
.014025,-.013809,
.012857,-.014355,
.011612,-.01469,
.010328,-.014803,
.010315,-.014803,
-.010315,-.014803,
-.011599,-.014692,
-.012845,-.014359,
-.014013,-.013816,
-.01507,-.013077,
-.015982,-.012167,
-.016723,-.011111,
-.017268,-.009944,
-.017603,-.008699,
-.017717,-.007415,
-.017717,-.007402,
-.017717,.007402,
-.017605,.008686,
-.017273,.009931,
-.016729,.0111,
-.015991,.012157,
-.01508,.013069,
-.014025,.013809,
-.012857,.014355,
-.011612,.01469,
-.010328,.014803,
-.010315,.014803,
.010315,.014803,
.011599,.014692,
.012845,.014359,
.014013,.013816,
.01507,.013077,
.015982,.012167,
.016723,.011111,
.017268,.009944,
.017603,.008699,
.017717,.007415,
.017717,.007402,
0.0*
%
%ADD43MACRO43*%
%AMMACRO22*
4,1,45,.014803,0.0,
.014803,.00811,
.014706,.009269,
.014408,.010393,
.01392,.011449,
.013257,.012403,
.012437,.013228,
.011487,.013898,
.010434,.014393,
.009312,.014698,
.008154,.014803,
.00811,.014803,
-.00811,.014803,
-.009269,.014706,
-.010393,.014408,
-.011449,.01392,
-.012403,.013257,
-.013228,.012437,
-.013898,.011487,
-.014393,.010434,
-.014698,.009312,
-.014803,.008154,
-.014803,.00811,
-.014803,-.00811,
-.014706,-.009269,
-.014408,-.010393,
-.01392,-.011449,
-.013257,-.012403,
-.012437,-.013228,
-.011487,-.013898,
-.010434,-.014393,
-.009312,-.014698,
-.008154,-.014803,
-.00811,-.014803,
.00811,-.014803,
.009269,-.014706,
.010393,-.014408,
.011449,-.01392,
.012403,-.013257,
.013228,-.012437,
.013898,-.011487,
.014393,-.010434,
.014698,-.009312,
.014803,-.008154,
.014803,-.00811,
.014803,0.0,
0.0*
%
%ADD22MACRO22*%
%ADD29R,.035433X.066929*%
%AMMACRO30*
4,1,41,-.01378,0.0,
-.01378,-.002953,
-.013735,-.003465,
-.013601,-.003963,
-.013384,-.004429,
-.013089,-.004851,
-.012725,-.005215,
-.012303,-.00551,
-.011837,-.005727,
-.01134,-.005861,
-.010827,-.005906,
.010827,-.005906,
.01134,-.005861,
.011837,-.005727,
.012303,-.00551,
.012725,-.005215,
.013089,-.004851,
.013384,-.004429,
.013601,-.003963,
.013735,-.003465,
.01378,-.002953,
.01378,.002953,
.013735,.003465,
.013601,.003963,
.013384,.004429,
.013089,.004851,
.012725,.005215,
.012303,.00551,
.011837,.005727,
.01134,.005861,
.010827,.005906,
-.010827,.005906,
-.01134,.005861,
-.011837,.005727,
-.012303,.00551,
-.012725,.005215,
-.013089,.004851,
-.013384,.004429,
-.013601,.003963,
-.013735,.003465,
-.01378,.002953,
-.01378,0.0,
0.0*
%
%ADD30MACRO30*%
%AMMACRO37*
4,1,45,-.007874,0.0,
-.007874,-.003465,
-.007818,-.004062,
-.00766,-.004642,
-.007403,-.005184,
-.007055,-.005674,
-.006628,-.006096,
-.006135,-.006438,
-.005589,-.006689,
-.005008,-.006841,
-.004409,-.00689,
-.004409,-.00689,
.004409,-.00689,
.005008,-.006841,
.005589,-.006689,
.006135,-.006438,
.006628,-.006096,
.007055,-.005674,
.007403,-.005184,
.00766,-.004642,
.007818,-.004062,
.007874,-.003465,
.007874,-.003465,
.007874,.003465,
.007818,.004062,
.00766,.004642,
.007403,.005184,
.007055,.005674,
.006628,.006096,
.006135,.006438,
.005589,.006689,
.005008,.006841,
.004409,.00689,
.004409,.00689,
-.004409,.00689,
-.005008,.006841,
-.005589,.006689,
-.006135,.006438,
-.006628,.006096,
-.007055,.005674,
-.007403,.005184,
-.00766,.004642,
-.007818,.004062,
-.007874,.003465,
-.007874,.003465,
-.007874,0.0,
0.0*
%
%ADD37MACRO37*%
%AMMACRO45*
4,1,42,.019685,0.0,
.019685,.00937,
.01954,.010993,
.019114,.012567,
.018422,.014043,
.017485,.015376,
.01633,.016526,
.014993,.017458,
.013514,.018144,
.011939,.018562,
.010315,.018701,
.010315,.018701,
-.010315,.018701,
-.011939,.018562,
-.013514,.018144,
-.014993,.017458,
-.01633,.016526,
-.017485,.015376,
-.018422,.014043,
-.019114,.012567,
-.01954,.010993,
-.019685,.00937,
-.019685,-.00937,
-.01954,-.010993,
-.019114,-.012567,
-.018422,-.014043,
-.017485,-.015376,
-.01633,-.016526,
-.014993,-.017458,
-.013514,-.018144,
-.011939,-.018562,
-.010315,-.018701,
.010315,-.018701,
.011939,-.018562,
.013514,-.018144,
.014993,-.017458,
.01633,-.016526,
.017485,-.015376,
.018422,-.014043,
.019114,-.012567,
.01954,-.010993,
.019685,-.00937,
.019685,0.0,
0.0*
%
%ADD45MACRO45*%
%AMMACRO66*
4,1,45,0.0,.027559,
-.008346,.027559,
-.010312,.027391,
-.012219,.026883,
-.014009,.026052,
-.015627,.024924,
-.017024,.023531,
-.018159,.021917,
-.018996,.02013,
-.01951,.018225,
-.019685,.01626,
-.019685,.01622,
-.019685,-.01622,
-.019516,-.018186,
-.019009,-.020093,
-.018178,-.021883,
-.01705,-.023501,
-.015657,-.024898,
-.014043,-.026033,
-.012256,-.02687,
-.010351,-.027384,
-.008386,-.027559,
-.008346,-.027559,
.008346,-.027559,
.010312,-.027391,
.012219,-.026883,
.014009,-.026052,
.015627,-.024924,
.017024,-.023531,
.018159,-.021917,
.018996,-.02013,
.01951,-.018225,
.019685,-.01626,
.019685,-.01622,
.019685,.01622,
.019516,.018186,
.019009,.020093,
.018178,.021883,
.01705,.023501,
.015657,.024898,
.014043,.026033,
.012256,.02687,
.010351,.027384,
.008386,.027559,
.008346,.027559,
0.0,.027559,
0.0*
%
%ADD66MACRO66*%
%AMMACRO32*
4,1,45,-.027559,0.0,
-.027559,-.008346,
-.027391,-.010312,
-.026883,-.012219,
-.026052,-.014009,
-.024924,-.015627,
-.023531,-.017024,
-.021917,-.018159,
-.02013,-.018996,
-.018225,-.01951,
-.01626,-.019685,
-.01622,-.019685,
.01622,-.019685,
.018186,-.019516,
.020093,-.019009,
.021883,-.018178,
.023501,-.01705,
.024898,-.015657,
.026033,-.014043,
.02687,-.012256,
.027384,-.010351,
.027559,-.008386,
.027559,-.008346,
.027559,.008346,
.027391,.010312,
.026883,.012219,
.026052,.014009,
.024924,.015627,
.023531,.017024,
.021917,.018159,
.02013,.018996,
.018225,.01951,
.01626,.019685,
.01622,.019685,
-.01622,.019685,
-.018186,.019516,
-.020093,.019009,
-.021883,.018178,
-.023501,.01705,
-.024898,.015657,
-.026033,.014043,
-.02687,.012256,
-.027384,.010351,
-.027559,.008386,
-.027559,.008346,
-.027559,0.0,
0.0*
%
%ADD32MACRO32*%
%AMMACRO64*
4,1,45,0.0,-.060039,
.007362,-.060039,
.008644,-.059931,
.009888,-.059601,
.011056,-.05906,
.012112,-.058325,
.013024,-.057418,
.013765,-.056365,
.014312,-.055201,
.014648,-.053959,
.014764,-.052677,
.014764,-.052638,
.014764,.052638,
.014655,.05392,
.014325,.055164,
.013785,.056331,
.013049,.057387,
.012142,.0583,
.01109,.059041,
.009925,.059587,
.008683,.059924,
.007402,.060039,
.007362,.060039,
-.007362,.060039,
-.008644,.059931,
-.009888,.059601,
-.011056,.05906,
-.012112,.058325,
-.013024,.057418,
-.013765,.056365,
-.014312,.055201,
-.014648,.053959,
-.014764,.052677,
-.014764,.052638,
-.014764,-.052638,
-.014655,-.05392,
-.014325,-.055164,
-.013785,-.056331,
-.013049,-.057387,
-.012142,-.0583,
-.01109,-.059041,
-.009925,-.059587,
-.008683,-.059924,
-.007402,-.060039,
-.007362,-.060039,
0.0,-.060039,
0.0*
%
%ADD64MACRO64*%
%AMMACRO65*
4,1,41,.025591,0.0,
.025591,.008858,
.025456,.010396,
.025056,.011888,
.024404,.013287,
.023518,.014552,
.022426,.015644,
.021161,.01653,
.019762,.017182,
.018271,.017582,
.016732,.017717,
-.016732,.017717,
-.018271,.017582,
-.019762,.017182,
-.021161,.01653,
-.022426,.015644,
-.023518,.014552,
-.024404,.013287,
-.025056,.011888,
-.025456,.010396,
-.025591,.008858,
-.025591,-.008858,
-.025456,-.010396,
-.025056,-.011888,
-.024404,-.013287,
-.023518,-.014552,
-.022426,-.015644,
-.021161,-.01653,
-.019762,-.017182,
-.018271,-.017582,
-.016732,-.017717,
.016732,-.017717,
.018271,-.017582,
.019762,-.017182,
.021161,-.01653,
.022426,-.015644,
.023518,-.014552,
.024404,-.013287,
.025056,-.011888,
.025456,-.010396,
.025591,-.008858,
.025591,0.0,
0.0*
%
%ADD65MACRO65*%
%AMMACRO48*
4,1,41,0.0,.012795,
-.001969,.012795,
-.00231,.012765,
-.002642,.012677,
-.002953,.012532,
-.003234,.012335,
-.003476,.012092,
-.003673,.011811,
-.003818,.0115,
-.003907,.011169,
-.003937,.010827,
-.003937,-.010827,
-.003907,-.011169,
-.003818,-.0115,
-.003673,-.011811,
-.003476,-.012092,
-.003234,-.012335,
-.002953,-.012532,
-.002642,-.012677,
-.00231,-.012765,
-.001969,-.012795,
.001969,-.012795,
.00231,-.012765,
.002642,-.012677,
.002953,-.012532,
.003234,-.012335,
.003476,-.012092,
.003673,-.011811,
.003818,-.0115,
.003907,-.011169,
.003937,-.010827,
.003937,.010827,
.003907,.011169,
.003818,.0115,
.003673,.011811,
.003476,.012092,
.003234,.012335,
.002953,.012532,
.002642,.012677,
.00231,.012765,
.001969,.012795,
0.0,.012795,
0.0*
%
%ADD48MACRO48*%
%AMMACRO35*
4,1,43,0.0,-.027559,
.004409,-.027559,
.005179,-.027495,
.005925,-.027299,
.006627,-.026976,
.007261,-.026535,
.007809,-.025992,
.008255,-.025362,
.008584,-.024663,
.008788,-.023918,
.008858,-.02315,
.008858,.02315,
.008788,.023918,
.008584,.024663,
.008255,.025362,
.007809,.025992,
.007261,.026535,
.006627,.026976,
.005925,.027299,
.005179,.027495,
.004409,.027559,
.004409,.027559,
-.004409,.027559,
-.005179,.027495,
-.005925,.027299,
-.006627,.026976,
-.007261,.026535,
-.007809,.025992,
-.008255,.025362,
-.008584,.024663,
-.008788,.023918,
-.008858,.02315,
-.008858,.02315,
-.008858,-.02315,
-.008788,-.023918,
-.008584,-.024663,
-.008255,-.025362,
-.007809,-.025992,
-.007261,-.026535,
-.006627,-.026976,
-.005925,-.027299,
-.005179,-.027495,
-.004409,-.027559,
0.0,-.027559,
0.0*
%
%ADD35MACRO35*%
%AMMACRO26*
4,1,45,0.0,.027598,
-.012283,.027598,
-.014249,.027423,
-.016154,.026909,
-.01794,.026072,
-.019555,.024938,
-.020947,.02354,
-.022076,.021922,
-.022907,.020133,
-.023414,.018226,
-.023583,.01626,
-.023583,.01622,
-.023583,-.01622,
-.023421,-.018187,
-.02292,-.020095,
-.022096,-.021888,
-.020973,-.02351,
-.019585,-.024912,
-.017974,-.026052,
-.016191,-.026895,
-.014288,-.027416,
-.012323,-.027598,
-.012283,-.027598,
.012283,-.027598,
.014249,-.027423,
.016154,-.026909,
.01794,-.026072,
.019555,-.024938,
.020947,-.02354,
.022076,-.021922,
.022907,-.020133,
.023414,-.018226,
.023583,-.01626,
.023583,-.01622,
.023583,.01622,
.023421,.018187,
.02292,.020095,
.022096,.021888,
.020973,.02351,
.019585,.024912,
.017974,.026052,
.016191,.026895,
.014288,.027416,
.012323,.027598,
.012283,.027598,
0.0,.027598,
0.0*
%
%ADD26MACRO26*%
%AMMACRO19*
4,1,40,-.010315,-.004331,
-.010231,-.005288,
-.009983,-.006216,
-.009577,-.007087,
-.009025,-.007874,
-.008346,-.008553,
-.007559,-.009104,
-.006688,-.00951,
-.00576,-.009759,
-.004803,-.009843,
.004803,-.009843,
.00576,-.009759,
.006688,-.00951,
.007559,-.009104,
.008346,-.008553,
.009025,-.007874,
.009577,-.007087,
.009983,-.006216,
.010231,-.005288,
.010315,-.004331,
.010315,.004331,
.010231,.005288,
.009983,.006216,
.009577,.007087,
.009025,.007874,
.008346,.008553,
.007559,.009104,
.006688,.00951,
.00576,.009759,
.004803,.009843,
-.004803,.009843,
-.00576,.009759,
-.006688,.00951,
-.007559,.009104,
-.008346,.008553,
-.009025,.007874,
-.009577,.007087,
-.009983,.006216,
-.010231,.005288,
-.010315,.004331,
-.010315,-.004331,
0.0*
%
%ADD19MACRO19*%
%AMMACRO18*
4,1,40,-.004331,.010315,
-.005288,.010231,
-.006216,.009983,
-.007087,.009577,
-.007874,.009025,
-.008553,.008346,
-.009104,.007559,
-.00951,.006688,
-.009759,.00576,
-.009843,.004803,
-.009843,-.004803,
-.009759,-.00576,
-.00951,-.006688,
-.009104,-.007559,
-.008553,-.008346,
-.007874,-.009025,
-.007087,-.009577,
-.006216,-.009983,
-.005288,-.010231,
-.004331,-.010315,
.004331,-.010315,
.005288,-.010231,
.006216,-.009983,
.007087,-.009577,
.007874,-.009025,
.008553,-.008346,
.009104,-.007559,
.00951,-.006688,
.009759,-.00576,
.009843,-.004803,
.009843,.004803,
.009759,.00576,
.00951,.006688,
.009104,.007559,
.008553,.008346,
.007874,.009025,
.007087,.009577,
.006216,.009983,
.005288,.010231,
.004331,.010315,
-.004331,.010315,
0.0*
%
%ADD18MACRO18*%
%AMMACRO12*
4,1,44,.004232,.010354,
.003497,.010973,
.002665,.011453,
.001762,.011782,
.000816,.011949,
-.000145,.01195,
-.001091,.011783,
-.001994,.011455,
-.002826,.010975,
-.003562,.010357,
-.003563,.010354,
-.010354,.003563,
-.010973,.002828,
-.011454,.001996,
-.011782,.001093,
-.011949,.000147,
-.01195,-.000814,
-.011783,-.00176,
-.011454,-.002663,
-.010974,-.003495,
-.010357,-.004231,
-.010354,-.004232,
-.004232,-.010354,
-.003497,-.010973,
-.002665,-.011453,
-.001762,-.011782,
-.000816,-.011949,
.000145,-.01195,
.001091,-.011783,
.001994,-.011455,
.002826,-.010975,
.003562,-.010357,
.003563,-.010354,
.010354,-.003563,
.010973,-.002828,
.011454,-.001996,
.011782,-.001093,
.011949,-.000147,
.01195,.000814,
.011783,.00176,
.011454,.002663,
.010974,.003495,
.010357,.004231,
.010354,.004232,
.004232,.010354,
0.0*
%
%ADD12MACRO12*%
%AMMACRO11*
4,1,44,-.004232,-.010354,
-.003497,-.010973,
-.002665,-.011453,
-.001762,-.011782,
-.000816,-.011949,
.000145,-.01195,
.001091,-.011783,
.001994,-.011455,
.002826,-.010975,
.003562,-.010357,
.003563,-.010354,
.010354,-.003563,
.010973,-.002828,
.011454,-.001996,
.011782,-.001093,
.011949,-.000147,
.01195,.000814,
.011783,.00176,
.011454,.002663,
.010974,.003495,
.010357,.004231,
.010354,.004232,
.004232,.010354,
.003497,.010973,
.002665,.011453,
.001762,.011782,
.000816,.011949,
-.000145,.01195,
-.001091,.011783,
-.001994,.011455,
-.002826,.010975,
-.003562,.010357,
-.003563,.010354,
-.010354,.003563,
-.010973,.002828,
-.011454,.001996,
-.011782,.001093,
-.011949,.000147,
-.01195,-.000814,
-.011783,-.00176,
-.011454,-.002663,
-.010974,-.003495,
-.010357,-.004231,
-.010354,-.004232,
-.004232,-.010354,
0.0*
%
%ADD11MACRO11*%
%AMMACRO52*
4,1,41,0.0,.012795,
-.005315,.012795,
-.00658,.012685,
-.007806,.012356,
-.008957,.011819,
-.009997,.011091,
-.010894,.010194,
-.011623,.009154,
-.012159,.008003,
-.012488,.006777,
-.012598,.005512,
-.012598,-.005512,
-.012488,-.006777,
-.012159,-.008003,
-.011623,-.009154,
-.010894,-.010194,
-.009997,-.011091,
-.008957,-.011819,
-.007806,-.012356,
-.00658,-.012685,
-.005315,-.012795,
.005315,-.012795,
.00658,-.012685,
.007806,-.012356,
.008957,-.011819,
.009997,-.011091,
.010894,-.010194,
.011623,-.009154,
.012159,-.008003,
.012488,-.006777,
.012598,-.005512,
.012598,.005512,
.012488,.006777,
.012159,.008003,
.011623,.009154,
.010894,.010194,
.009997,.011091,
.008957,.011819,
.007806,.012356,
.00658,.012685,
.005315,.012795,
0.0,.012795,
0.0*
%
%ADD52MACRO52*%
%AMMACRO21*
4,1,41,-.012795,0.0,
-.012795,-.005315,
-.012685,-.00658,
-.012356,-.007806,
-.011819,-.008957,
-.011091,-.009997,
-.010194,-.010894,
-.009154,-.011623,
-.008003,-.012159,
-.006777,-.012488,
-.005512,-.012598,
.005512,-.012598,
.006777,-.012488,
.008003,-.012159,
.009154,-.011623,
.010194,-.010894,
.011091,-.009997,
.011819,-.008957,
.012356,-.007806,
.012685,-.00658,
.012795,-.005315,
.012795,.005315,
.012685,.00658,
.012356,.007806,
.011819,.008957,
.011091,.009997,
.010194,.010894,
.009154,.011623,
.008003,.012159,
.006777,.012488,
.005512,.012598,
-.005512,.012598,
-.006777,.012488,
-.008003,.012159,
-.009154,.011623,
-.010194,.010894,
-.011091,.009997,
-.011819,.008957,
-.012356,.007806,
-.012685,.00658,
-.012795,.005315,
-.012795,0.0,
0.0*
%
%ADD21MACRO21*%
%AMMACRO60*
4,1,22,.015748,.005906,
-.012795,.005906,
-.013308,.005861,
-.013805,.005727,
-.014272,.00551,
-.014693,.005215,
-.015057,.004851,
-.015352,.004429,
-.01557,.003963,
-.015703,.003465,
-.015748,.002953,
-.015748,-.002953,
-.015703,-.003465,
-.01557,-.003963,
-.015352,-.004429,
-.015057,-.004851,
-.014693,-.005215,
-.014272,-.00551,
-.013805,-.005727,
-.013308,-.005861,
-.012795,-.005906,
.015748,-.005906,
.015748,.005906,
0.0*
%
%ADD60MACRO60*%
%AMMACRO27*
4,1,44,-.017717,-.007402,
-.017717,.007402,
-.017605,.008686,
-.017273,.009931,
-.016729,.0111,
-.015991,.012157,
-.01508,.013069,
-.014025,.013809,
-.012857,.014355,
-.011612,.01469,
-.010328,.014803,
-.010315,.014803,
.010315,.014803,
.011599,.014692,
.012845,.014359,
.014013,.013816,
.01507,.013077,
.015982,.012167,
.016723,.011111,
.017268,.009944,
.017603,.008699,
.017717,.007415,
.017717,.007402,
.017717,-.007402,
.017605,-.008686,
.017273,-.009931,
.016729,-.0111,
.015991,-.012157,
.01508,-.013069,
.014025,-.013809,
.012857,-.014355,
.011612,-.01469,
.010328,-.014803,
.010315,-.014803,
-.010315,-.014803,
-.011599,-.014692,
-.012845,-.014359,
-.014013,-.013816,
-.01507,-.013077,
-.015982,-.012167,
-.016723,-.011111,
-.017268,-.009944,
-.017603,-.008699,
-.017717,-.007415,
-.017717,-.007402,
0.0*
%
%ADD27MACRO27*%
%AMMACRO61*
4,1,22,.005906,-.015748,
.005906,.012795,
.005861,.013308,
.005727,.013805,
.00551,.014272,
.005215,.014693,
.004851,.015057,
.004429,.015352,
.003963,.01557,
.003465,.015703,
.002953,.015748,
-.002953,.015748,
-.003465,.015703,
-.003963,.01557,
-.004429,.015352,
-.004851,.015057,
-.005215,.014693,
-.00551,.014272,
-.005727,.013805,
-.005861,.013308,
-.005906,.012795,
-.005906,-.015748,
.005906,-.015748,
0.0*
%
%ADD61MACRO61*%
%AMMACRO15*
4,1,45,-.014803,0.0,
-.014803,-.00811,
-.014706,-.009269,
-.014408,-.010393,
-.01392,-.011449,
-.013257,-.012403,
-.012437,-.013228,
-.011487,-.013898,
-.010434,-.014393,
-.009312,-.014698,
-.008154,-.014803,
-.00811,-.014803,
.00811,-.014803,
.009269,-.014706,
.010393,-.014408,
.011449,-.01392,
.012403,-.013257,
.013228,-.012437,
.013898,-.011487,
.014393,-.010434,
.014698,-.009312,
.014803,-.008154,
.014803,-.00811,
.014803,.00811,
.014706,.009269,
.014408,.010393,
.01392,.011449,
.013257,.012403,
.012437,.013228,
.011487,.013898,
.010434,.014393,
.009312,.014698,
.008154,.014803,
.00811,.014803,
-.00811,.014803,
-.009269,.014706,
-.010393,.014408,
-.011449,.01392,
-.012403,.013257,
-.013228,.012437,
-.013898,.011487,
-.014393,.010434,
-.014698,.009312,
-.014803,.008154,
-.014803,.00811,
-.014803,0.0,
0.0*
%
%ADD15MACRO15*%
%ADD51R,.098425X.064961*%
%AMMACRO42*
4,1,41,.035433,0.0,
.035433,.009843,
.035284,.011552,
.034839,.013209,
.034114,.014764,
.03313,.016169,
.031917,.017382,
.030512,.018366,
.028957,.019091,
.0273,.019536,
.025591,.019685,
-.025591,.019685,
-.0273,.019536,
-.028957,.019091,
-.030512,.018366,
-.031917,.017382,
-.03313,.016169,
-.034114,.014764,
-.034839,.013209,
-.035284,.011552,
-.035433,.009843,
-.035433,-.009843,
-.035284,-.011552,
-.034839,-.013209,
-.034114,-.014764,
-.03313,-.016169,
-.031917,-.017382,
-.030512,-.018366,
-.028957,-.019091,
-.0273,-.019536,
-.025591,-.019685,
.025591,-.019685,
.0273,-.019536,
.028957,-.019091,
.030512,-.018366,
.031917,-.017382,
.03313,-.016169,
.034114,-.014764,
.034839,-.013209,
.035284,-.011552,
.035433,-.009843,
.035433,0.0,
0.0*
%
%ADD42MACRO42*%
%ADD57C,.070866*%
%AMMACRO36*
4,1,41,0.0,-.007874,
.002953,-.007874,
.003465,-.007829,
.003963,-.007696,
.004429,-.007478,
.004851,-.007183,
.005215,-.006819,
.00551,-.006398,
.005727,-.005931,
.005861,-.005434,
.005906,-.004921,
.005906,.004921,
.005861,.005434,
.005727,.005931,
.00551,.006398,
.005215,.006819,
.004851,.007183,
.004429,.007478,
.003963,.007696,
.003465,.007829,
.002953,.007874,
-.002953,.007874,
-.003465,.007829,
-.003963,.007696,
-.004429,.007478,
-.004851,.007183,
-.005215,.006819,
-.00551,.006398,
-.005727,.005931,
-.005861,.005434,
-.005906,.004921,
-.005906,-.004921,
-.005861,-.005434,
-.005727,-.005931,
-.00551,-.006398,
-.005215,-.006819,
-.004851,-.007183,
-.004429,-.007478,
-.003963,-.007696,
-.003465,-.007829,
-.002953,-.007874,
0.0,-.007874,
0.0*
%
%ADD36MACRO36*%
%ADD10C,.05*%
%AMMACRO58*
4,1,42,-.019685,0.0,
-.019685,-.00937,
-.01954,-.010993,
-.019114,-.012567,
-.018422,-.014043,
-.017485,-.015376,
-.01633,-.016526,
-.014993,-.017458,
-.013514,-.018144,
-.011939,-.018562,
-.010315,-.018701,
.010315,-.018701,
.011939,-.018562,
.013514,-.018144,
.014993,-.017458,
.01633,-.016526,
.017485,-.015376,
.018422,-.014043,
.019114,-.012567,
.01954,-.010993,
.019685,-.00937,
.019685,.00937,
.01954,.010993,
.019114,.012567,
.018422,.014043,
.017485,.015376,
.01633,.016526,
.014993,.017458,
.013514,.018144,
.011939,.018562,
.010315,.018701,
.010315,.018701,
-.010315,.018701,
-.011939,.018562,
-.013514,.018144,
-.014993,.017458,
-.01633,.016526,
-.017485,.015376,
-.018422,.014043,
-.019114,.012567,
-.01954,.010993,
-.019685,.00937,
-.019685,0.0,
0.0*
%
%ADD58MACRO58*%
%AMMACRO44*
4,1,41,0.0,.019685,
-.00937,.019685,
-.010993,.01954,
-.012567,.019114,
-.014043,.018422,
-.015376,.017485,
-.016526,.01633,
-.017458,.014993,
-.018144,.013514,
-.018562,.011939,
-.018701,.010315,
-.018701,-.010315,
-.018562,-.011939,
-.018144,-.013514,
-.017458,-.014993,
-.016526,-.01633,
-.015376,-.017485,
-.014043,-.018422,
-.012567,-.019114,
-.010993,-.01954,
-.00937,-.019685,
.00937,-.019685,
.010993,-.01954,
.012567,-.019114,
.014043,-.018422,
.015376,-.017485,
.016526,-.01633,
.017458,-.014993,
.018144,-.013514,
.018562,-.011939,
.018701,-.010315,
.018701,.010315,
.018562,.011939,
.018144,.013514,
.017458,.014993,
.016526,.01633,
.015376,.017485,
.014043,.018422,
.012567,.019114,
.010993,.01954,
.00937,.019685,
0.0,.019685,
0.0*
%
%ADD44MACRO44*%
%AMMACRO63*
4,1,45,0.0,.060039,
-.007362,.060039,
-.008644,.059931,
-.009888,.059601,
-.011056,.05906,
-.012112,.058325,
-.013024,.057418,
-.013765,.056365,
-.014312,.055201,
-.014648,.053959,
-.014764,.052677,
-.014764,.052638,
-.014764,-.052638,
-.014655,-.05392,
-.014325,-.055164,
-.013785,-.056331,
-.013049,-.057387,
-.012142,-.0583,
-.01109,-.059041,
-.009925,-.059587,
-.008683,-.059924,
-.007402,-.060039,
-.007362,-.060039,
.007362,-.060039,
.008644,-.059931,
.009888,-.059601,
.011056,-.05906,
.012112,-.058325,
.013024,-.057418,
.013765,-.056365,
.014312,-.055201,
.014648,-.053959,
.014764,-.052677,
.014764,-.052638,
.014764,.052638,
.014655,.05392,
.014325,.055164,
.013785,.056331,
.013049,.057387,
.012142,.0583,
.01109,.059041,
.009925,.059587,
.008683,.059924,
.007402,.060039,
.007362,.060039,
0.0,.060039,
0.0*
%
%ADD63MACRO63*%
%ADD41R,.206693X.206693*%
%AMMACRO14*
4,1,45,0.0,-.027559,
.008346,-.027559,
.010312,-.027391,
.012219,-.026883,
.014009,-.026052,
.015627,-.024924,
.017024,-.023531,
.018159,-.021917,
.018996,-.02013,
.01951,-.018225,
.019685,-.01626,
.019685,-.01622,
.019685,.01622,
.019516,.018186,
.019009,.020093,
.018178,.021883,
.01705,.023501,
.015657,.024898,
.014043,.026033,
.012256,.02687,
.010351,.027384,
.008386,.027559,
.008346,.027559,
-.008346,.027559,
-.010312,.027391,
-.012219,.026883,
-.014009,.026052,
-.015627,.024924,
-.017024,.023531,
-.018159,.021917,
-.018996,.02013,
-.01951,.018225,
-.019685,.01626,
-.019685,.01622,
-.019685,-.01622,
-.019516,-.018186,
-.019009,-.020093,
-.018178,-.021883,
-.01705,-.023501,
-.015657,-.024898,
-.014043,-.026033,
-.012256,-.02687,
-.010351,-.027384,
-.008386,-.027559,
-.008346,-.027559,
0.0,-.027559,
0.0*
%
%ADD14MACRO14*%
%AMMACRO53*
4,1,41,0.0,.025591,
-.008858,.025591,
-.010396,.025456,
-.011888,.025056,
-.013287,.024404,
-.014552,.023518,
-.015644,.022426,
-.01653,.021161,
-.017182,.019762,
-.017582,.018271,
-.017717,.016732,
-.017717,-.016732,
-.017582,-.018271,
-.017182,-.019762,
-.01653,-.021161,
-.015644,-.022426,
-.014552,-.023518,
-.013287,-.024404,
-.011888,-.025056,
-.010396,-.025456,
-.008858,-.025591,
.008858,-.025591,
.010396,-.025456,
.011888,-.025056,
.013287,-.024404,
.014552,-.023518,
.015644,-.022426,
.01653,-.021161,
.017182,-.019762,
.017582,-.018271,
.017717,-.016732,
.017717,.016732,
.017582,.018271,
.017182,.019762,
.01653,.021161,
.015644,.022426,
.014552,.023518,
.013287,.024404,
.011888,.025056,
.010396,.025456,
.008858,.025591,
0.0,.025591,
0.0*
%
%ADD53MACRO53*%
%AMMACRO13*
4,1,41,-.025591,0.0,
-.025591,-.008858,
-.025456,-.010396,
-.025056,-.011888,
-.024404,-.013287,
-.023518,-.014552,
-.022426,-.015644,
-.021161,-.01653,
-.019762,-.017182,
-.018271,-.017582,
-.016732,-.017717,
.016732,-.017717,
.018271,-.017582,
.019762,-.017182,
.021161,-.01653,
.022426,-.015644,
.023518,-.014552,
.024404,-.013287,
.025056,-.011888,
.025456,-.010396,
.025591,-.008858,
.025591,.008858,
.025456,.010396,
.025056,.011888,
.024404,.013287,
.023518,.014552,
.022426,.015644,
.021161,.01653,
.019762,.017182,
.018271,.017582,
.016732,.017717,
-.016732,.017717,
-.018271,.017582,
-.019762,.017182,
-.021161,.01653,
-.022426,.015644,
-.023518,.014552,
-.024404,.013287,
-.025056,.011888,
-.025456,.010396,
-.025591,.008858,
-.025591,0.0,
0.0*
%
%ADD13MACRO13*%
%AMMACRO34*
4,1,42,0.0,-.041339,
.014252,-.041339,
.016731,-.041125,
.019134,-.040485,
.02139,-.039436,
.02343,-.038012,
.025192,-.036256,
.026621,-.03422,
.027676,-.031967,
.028323,-.029565,
.028543,-.027087,
.028543,.027087,
.028323,.029565,
.027676,.031967,
.026621,.03422,
.025192,.036256,
.02343,.038012,
.02139,.039436,
.019134,.040485,
.016731,.041125,
.014252,.041339,
.014252,.041339,
-.014252,.041339,
-.016731,.041125,
-.019134,.040485,
-.02139,.039436,
-.02343,.038012,
-.025192,.036256,
-.026621,.03422,
-.027676,.031967,
-.028323,.029565,
-.028543,.027087,
-.028543,-.027087,
-.028323,-.029565,
-.027676,-.031967,
-.026621,-.03422,
-.025192,-.036256,
-.02343,-.038012,
-.02139,-.039436,
-.019134,-.040485,
-.016731,-.041125,
-.014252,-.041339,
0.0,-.041339,
0.0*
%
%ADD34MACRO34*%
%AMMACRO47*
4,1,41,.017717,0.0,
.017717,.001969,
.017687,.00231,
.017598,.002642,
.017453,.002953,
.017256,.003234,
.017013,.003476,
.016732,.003673,
.016421,.003818,
.01609,.003907,
.015748,.003937,
-.015748,.003937,
-.01609,.003907,
-.016421,.003818,
-.016732,.003673,
-.017013,.003476,
-.017256,.003234,
-.017453,.002953,
-.017598,.002642,
-.017687,.00231,
-.017717,.001969,
-.017717,-.001969,
-.017687,-.00231,
-.017598,-.002642,
-.017453,-.002953,
-.017256,-.003234,
-.017013,-.003476,
-.016732,-.003673,
-.016421,-.003818,
-.01609,-.003907,
-.015748,-.003937,
.015748,-.003937,
.01609,-.003907,
.016421,-.003818,
.016732,-.003673,
.017013,-.003476,
.017256,-.003234,
.017453,-.002953,
.017598,-.002642,
.017687,-.00231,
.017717,-.001969,
.017717,0.0,
0.0*
%
%ADD47MACRO47*%
%AMMACRO33*
4,1,41,0.0,-.037402,
.01378,-.037402,
.016172,-.037192,
.018492,-.036571,
.020669,-.035555,
.022637,-.034178,
.024335,-.032479,
.025713,-.030512,
.026728,-.028335,
.02735,-.026015,
.027559,-.023622,
.027559,.023622,
.02735,.026015,
.026728,.028335,
.025713,.030512,
.024335,.032479,
.022637,.034178,
.020669,.035555,
.018492,.036571,
.016172,.037192,
.01378,.037402,
-.01378,.037402,
-.016172,.037192,
-.018492,.036571,
-.020669,.035555,
-.022637,.034178,
-.024335,.032479,
-.025713,.030512,
-.026728,.028335,
-.02735,.026015,
-.027559,.023622,
-.027559,-.023622,
-.02735,-.026015,
-.026728,-.028335,
-.025713,-.030512,
-.024335,-.032479,
-.022637,-.034178,
-.020669,-.035555,
-.018492,-.036571,
-.016172,-.037192,
-.01378,-.037402,
0.0,-.037402,
0.0*
%
%ADD33MACRO33*%
%AMMACRO46*
4,1,41,.028543,0.0,
.028543,.011339,
.028368,.013304,
.027854,.015209,
.027017,.016995,
.025883,.01861,
.024485,.020002,
.022867,.021131,
.021077,.021962,
.019171,.022469,
.017244,.022638,
-.017244,.022638,
-.019209,.022462,
-.021114,.021948,
-.022901,.021112,
-.024515,.019977,
-.025908,.018579,
-.027037,.016961,
-.027867,.015172,
-.028375,.013265,
-.028543,.011339,
-.028543,-.011339,
-.028368,-.013304,
-.027854,-.015209,
-.027017,-.016995,
-.025883,-.01861,
-.024485,-.020002,
-.022867,-.021131,
-.021077,-.021962,
-.019171,-.022469,
-.017244,-.022638,
.017244,-.022638,
.019209,-.022462,
.021114,-.021948,
.022901,-.021112,
.024515,-.019977,
.025908,-.018579,
.027037,-.016961,
.027867,-.015172,
.028375,-.013265,
.028543,-.011339,
.028543,0.0,
0.0*
%
%ADD46MACRO46*%
%AMMACRO39*
4,1,41,.017717,0.0,
.017717,.002953,
.017672,.003465,
.017538,.003963,
.017321,.004429,
.017026,.004851,
.016662,.005215,
.01624,.00551,
.015774,.005727,
.015277,.005861,
.014764,.005906,
-.014764,.005906,
-.015277,.005861,
-.015774,.005727,
-.01624,.00551,
-.016662,.005215,
-.017026,.004851,
-.017321,.004429,
-.017538,.003963,
-.017672,.003465,
-.017717,.002953,
-.017717,-.002953,
-.017672,-.003465,
-.017538,-.003963,
-.017321,-.004429,
-.017026,-.004851,
-.016662,-.005215,
-.01624,-.00551,
-.015774,-.005727,
-.015277,-.005861,
-.014764,-.005906,
.014764,-.005906,
.015277,-.005861,
.015774,-.005727,
.01624,-.00551,
.016662,-.005215,
.017026,-.004851,
.017321,-.004429,
.017538,-.003963,
.017672,-.003465,
.017717,-.002953,
.017717,0.0,
0.0*
%
%ADD39MACRO39*%
%AMMACRO56*
4,1,41,0.0,-.03937,
.020433,-.03937,
.023723,-.039081,
.026913,-.038224,
.029905,-.036827,
.03261,-.034931,
.034944,-.032594,
.036837,-.029888,
.038231,-.026894,
.039084,-.023704,
.03937,-.020433,
.03937,.020433,
.039081,.023723,
.038224,.026913,
.036827,.029905,
.034931,.03261,
.032594,.034944,
.029888,.036837,
.026894,.038231,
.023704,.039084,
.020433,.03937,
-.020433,.03937,
-.023723,.039081,
-.026913,.038224,
-.029905,.036827,
-.03261,.034931,
-.034944,.032594,
-.036837,.029888,
-.038231,.026894,
-.039084,.023704,
-.03937,.020433,
-.03937,-.020433,
-.039081,-.023723,
-.038224,-.026913,
-.036827,-.029905,
-.034931,-.03261,
-.032594,-.034944,
-.029888,-.036837,
-.026894,-.038231,
-.023704,-.039084,
-.020433,-.03937,
0.0,-.03937,
0.0*
%
%ADD56MACRO56*%
%AMMACRO55*
4,1,41,0.0,-.008858,
.001969,-.008858,
.002652,-.008798,
.003315,-.008621,
.003937,-.008331,
.004499,-.007937,
.004984,-.007452,
.005378,-.00689,
.005668,-.006268,
.005846,-.005605,
.005906,-.004921,
.005906,.004921,
.005846,.005605,
.005668,.006268,
.005378,.00689,
.004984,.007452,
.004499,.007937,
.003937,.008331,
.003315,.008621,
.002652,.008798,
.001969,.008858,
-.001969,.008858,
-.002652,.008798,
-.003315,.008621,
-.003937,.008331,
-.004499,.007937,
-.004984,.007452,
-.005378,.00689,
-.005668,.006268,
-.005846,.005605,
-.005906,.004921,
-.005906,-.004921,
-.005846,-.005605,
-.005668,-.006268,
-.005378,-.00689,
-.004984,-.007452,
-.004499,-.007937,
-.003937,-.008331,
-.003315,-.008621,
-.002652,-.008798,
-.001969,-.008858,
0.0,-.008858,
0.0*
%
%ADD55MACRO55*%
%AMMACRO49*
4,1,41,.012795,0.0,
.012795,.001969,
.012765,.00231,
.012677,.002642,
.012532,.002953,
.012335,.003234,
.012092,.003476,
.011811,.003673,
.0115,.003818,
.011169,.003907,
.010827,.003937,
-.010827,.003937,
-.011169,.003907,
-.0115,.003818,
-.011811,.003673,
-.012092,.003476,
-.012335,.003234,
-.012532,.002953,
-.012677,.002642,
-.012765,.00231,
-.012795,.001969,
-.012795,-.001969,
-.012765,-.00231,
-.012677,-.002642,
-.012532,-.002953,
-.012335,-.003234,
-.012092,-.003476,
-.011811,-.003673,
-.0115,-.003818,
-.011169,-.003907,
-.010827,-.003937,
.010827,-.003937,
.011169,-.003907,
.0115,-.003818,
.011811,-.003673,
.012092,-.003476,
.012335,-.003234,
.012532,-.002953,
.012677,-.002642,
.012765,-.00231,
.012795,-.001969,
.012795,0.0,
0.0*
%
%ADD49MACRO49*%
%AMMACRO40*
4,1,41,0.0,-.017717,
.002953,-.017717,
.003465,-.017672,
.003963,-.017538,
.004429,-.017321,
.004851,-.017026,
.005215,-.016662,
.00551,-.01624,
.005727,-.015774,
.005861,-.015277,
.005906,-.014764,
.005906,.014764,
.005861,.015277,
.005727,.015774,
.00551,.01624,
.005215,.016662,
.004851,.017026,
.004429,.017321,
.003963,.017538,
.003465,.017672,
.002953,.017717,
-.002953,.017717,
-.003465,.017672,
-.003963,.017538,
-.004429,.017321,
-.004851,.017026,
-.005215,.016662,
-.00551,.01624,
-.005727,.015774,
-.005861,.015277,
-.005906,.014764,
-.005906,-.014764,
-.005861,-.015277,
-.005727,-.015774,
-.00551,-.01624,
-.005215,-.016662,
-.004851,-.017026,
-.004429,-.017321,
-.003963,-.017538,
-.003465,-.017672,
-.002953,-.017717,
0.0,-.017717,
0.0*
%
%ADD40MACRO40*%
%ADD24O,.035394X.015709*%
%AMMACRO20*
4,1,40,.010315,.004331,
.010231,.005288,
.009983,.006216,
.009577,.007087,
.009025,.007874,
.008346,.008553,
.007559,.009104,
.006688,.00951,
.00576,.009759,
.004803,.009843,
-.004803,.009843,
-.00576,.009759,
-.006688,.00951,
-.007559,.009104,
-.008346,.008553,
-.009025,.007874,
-.009577,.007087,
-.009983,.006216,
-.010231,.005288,
-.010315,.004331,
-.010315,-.004331,
-.010231,-.005288,
-.009983,-.006216,
-.009577,-.007087,
-.009025,-.007874,
-.008346,-.008553,
-.007559,-.009104,
-.006688,-.00951,
-.00576,-.009759,
-.004803,-.009843,
.004803,-.009843,
.00576,-.009759,
.006688,-.00951,
.007559,-.009104,
.008346,-.008553,
.009025,-.007874,
.009577,-.007087,
.009983,-.006216,
.010231,-.005288,
.010315,-.004331,
.010315,.004331,
0.0*
%
%ADD20MACRO20*%
%AMMACRO17*
4,1,40,.004331,-.010315,
.005288,-.010231,
.006216,-.009983,
.007087,-.009577,
.007874,-.009025,
.008553,-.008346,
.009104,-.007559,
.00951,-.006688,
.009759,-.00576,
.009843,-.004803,
.009843,.004803,
.009759,.00576,
.00951,.006688,
.009104,.007559,
.008553,.008346,
.007874,.009025,
.007087,.009577,
.006216,.009983,
.005288,.010231,
.004331,.010315,
-.004331,.010315,
-.005288,.010231,
-.006216,.009983,
-.007087,.009577,
-.007874,.009025,
-.008553,.008346,
-.009104,.007559,
-.00951,.006688,
-.009759,.00576,
-.009843,.004803,
-.009843,-.004803,
-.009759,-.00576,
-.00951,-.006688,
-.009104,-.007559,
-.008553,-.008346,
-.007874,-.009025,
-.007087,-.009577,
-.006216,-.009983,
-.005288,-.010231,
-.004331,-.010315,
.004331,-.010315,
0.0*
%
%ADD17MACRO17*%
%AMMACRO28*
4,1,41,.012795,0.0,
.012795,.005315,
.012685,.00658,
.012356,.007806,
.011819,.008957,
.011091,.009997,
.010194,.010894,
.009154,.011623,
.008003,.012159,
.006777,.012488,
.005512,.012598,
-.005512,.012598,
-.006777,.012488,
-.008003,.012159,
-.009154,.011623,
-.010194,.010894,
-.011091,.009997,
-.011819,.008957,
-.012356,.007806,
-.012685,.00658,
-.012795,.005315,
-.012795,-.005315,
-.012685,-.00658,
-.012356,-.007806,
-.011819,-.008957,
-.011091,-.009997,
-.010194,-.010894,
-.009154,-.011623,
-.008003,-.012159,
-.006777,-.012488,
-.005512,-.012598,
.005512,-.012598,
.006777,-.012488,
.008003,-.012159,
.009154,-.011623,
.010194,-.010894,
.011091,-.009997,
.011819,-.008957,
.012356,-.007806,
.012685,-.00658,
.012795,-.005315,
.012795,0.0,
0.0*
%
%ADD28MACRO28*%
%AMMACRO25*
4,1,41,0.0,-.012795,
.005315,-.012795,
.00658,-.012685,
.007806,-.012356,
.008957,-.011819,
.009997,-.011091,
.010894,-.010194,
.011623,-.009154,
.012159,-.008003,
.012488,-.006777,
.012598,-.005512,
.012598,.005512,
.012488,.006777,
.012159,.008003,
.011623,.009154,
.010894,.010194,
.009997,.011091,
.008957,.011819,
.007806,.012356,
.00658,.012685,
.005315,.012795,
-.005315,.012795,
-.00658,.012685,
-.007806,.012356,
-.008957,.011819,
-.009997,.011091,
-.010894,.010194,
-.011623,.009154,
-.012159,.008003,
-.012488,.006777,
-.012598,.005512,
-.012598,-.005512,
-.012488,-.006777,
-.012159,-.008003,
-.011623,-.009154,
-.010894,-.010194,
-.009997,-.011091,
-.008957,-.011819,
-.007806,-.012356,
-.00658,-.012685,
-.005315,-.012795,
0.0,-.012795,
0.0*
%
%ADD25MACRO25*%
%ADD67C,.003937*%
%ADD68C,.003898*%
G75*
%LPD*%
G75*
G54D10*
X795866Y720472D03*
X1009646D03*
X1009606Y1122244D03*
G54D20*
X792583Y1069094D03*
X792819Y1060433D03*
Y1064567D03*
X792740Y1087402D03*
X858583Y1019882D03*
X810433Y982283D03*
X805118Y1033268D03*
X826929Y1028543D03*
X849409Y1033071D03*
X826929Y1032283D03*
X855906Y1107480D03*
X853937Y1104724D03*
X846756D03*
X840260Y1113780D03*
X819213Y1122441D03*
X831992Y1113780D03*
X847150Y1110433D03*
X809843Y1138976D03*
X898528Y808465D03*
X893504Y849409D03*
X902165Y821457D03*
X880220Y896260D03*
Y893504D03*
X889866Y859055D03*
X893504Y868307D03*
X888094Y877953D03*
X895472D03*
X891835Y880709D03*
X870772Y1078740D03*
X869984Y1096063D03*
X870669Y1082874D03*
X870472Y1088976D03*
X869984Y1092520D03*
X875315Y1139409D03*
X883189Y1135374D03*
X876181Y1143504D03*
X883069Y1138930D03*
X922441Y884843D03*
X921260Y905512D03*
X953937Y1009055D03*
X924016Y1020079D03*
X1006102Y967520D03*
G54D11*
X803150Y863386D03*
X800787Y865748D03*
G54D21*
X792717Y1055906D03*
X796260D03*
X837402Y1129921D03*
X840945D03*
X960630Y847047D03*
X964173D03*
X957480Y865551D03*
X961024D03*
G54D12*
X800577Y860813D03*
X798215Y863176D03*
G54D30*
X843898Y1116535D03*
Y1118504D03*
Y1120472D03*
Y1122441D03*
X835630Y1116535D03*
Y1118504D03*
Y1120472D03*
Y1122441D03*
G54D40*
X892618Y912008D03*
X894587D03*
X896555D03*
X898524D03*
X900492D03*
X902461D03*
X904429D03*
X906398D03*
X908366D03*
X910335D03*
X912303D03*
Y884843D03*
X910335D03*
X908366D03*
X906398D03*
X904429D03*
X902461D03*
X900492D03*
X898524D03*
X896555D03*
X894587D03*
X892618D03*
X914272Y912008D03*
Y884843D03*
G54D13*
X804528Y979429D03*
Y995965D03*
G54D22*
X849016Y851776D03*
Y845866D03*
X858858Y851776D03*
Y845866D03*
G54D31*
X850787Y1128740D03*
Y1114961D03*
G54D14*
X797441Y974409D03*
Y1000984D03*
G54D41*
X903445Y898425D03*
G54D32*
X854528Y1155118D03*
X881102D03*
G54D50*
X877657Y1123819D03*
X875098D03*
X872539D03*
X869980D03*
X877657Y1135630D03*
X875098D03*
X872539D03*
X869980D03*
G54D23*
X857087Y1038976D03*
X855508D03*
X853937D03*
X852358D03*
X850787D03*
X849209D03*
X847638D03*
X846067D03*
X844488D03*
X842917D03*
X841339D03*
X839768D03*
X838189D03*
X836618D03*
X835039D03*
X833469D03*
X831890D03*
X830319D03*
X828736D03*
X827169D03*
X825587D03*
X824016D03*
X822437D03*
X820866D03*
X819287D03*
X817717D03*
X816138D03*
X814567D03*
X812988D03*
X811417D03*
X809839D03*
X808268D03*
Y1099606D03*
X809839D03*
X811417D03*
X812988D03*
X814567D03*
X816138D03*
X817717D03*
X819287D03*
X820866D03*
X822437D03*
X824016D03*
X825587D03*
X827169D03*
X828736D03*
X830319D03*
X831890D03*
X833469D03*
X835039D03*
X836618D03*
X838189D03*
X839768D03*
X841339D03*
X842917D03*
X844488D03*
X846067D03*
X847638D03*
X849209D03*
X850787D03*
X852358D03*
X853937D03*
X855508D03*
X857087D03*
G54D24*
X835748Y1027559D03*
Y1030118D03*
Y1032677D03*
X844409D03*
Y1027559D03*
G54D33*
X835976Y1152165D03*
X828591D03*
G54D42*
X913976Y871654D03*
Y861811D03*
G54D51*
X873819Y1129724D03*
G54D15*
X792323Y1044091D03*
Y1050000D03*
X796063Y1044091D03*
Y1050000D03*
G54D60*
X936417Y988780D03*
X936220Y1024016D03*
Y1025984D03*
Y1027953D03*
G54D25*
X822244Y1029331D03*
Y1032874D03*
X845276Y1126181D03*
Y1129724D03*
X809252Y1107480D03*
Y1111024D03*
G54D34*
X841976Y1143110D03*
X822591D03*
G54D61*
X941339Y991732D03*
X939370D03*
X937402D03*
X939173Y1028937D03*
G54D52*
X882577Y1127127D03*
Y1123584D03*
X865161Y1127362D03*
Y1123819D03*
X862402Y1103543D03*
Y1100000D03*
X955906Y850787D03*
Y847244D03*
G54D43*
X882677Y926378D03*
Y920866D03*
G54D16*
X802358Y1044886D03*
Y1046457D03*
Y1048035D03*
Y1049606D03*
Y1051177D03*
Y1052756D03*
Y1054327D03*
Y1055906D03*
Y1057476D03*
Y1059055D03*
Y1060626D03*
Y1062205D03*
Y1063776D03*
Y1065354D03*
Y1066925D03*
Y1068508D03*
Y1070075D03*
Y1071657D03*
Y1073228D03*
Y1074807D03*
Y1076378D03*
Y1077957D03*
Y1079528D03*
Y1081106D03*
Y1082677D03*
Y1084256D03*
Y1085827D03*
Y1087406D03*
Y1088976D03*
Y1090547D03*
Y1092126D03*
Y1093697D03*
X862988Y1074807D03*
Y1073228D03*
Y1071657D03*
Y1070075D03*
Y1068508D03*
Y1066925D03*
Y1065354D03*
Y1063776D03*
Y1062205D03*
Y1060626D03*
Y1059055D03*
Y1057476D03*
Y1055906D03*
Y1054327D03*
Y1052756D03*
Y1051177D03*
Y1049606D03*
Y1048035D03*
Y1046457D03*
Y1044886D03*
Y1093697D03*
Y1092126D03*
Y1090547D03*
Y1088976D03*
Y1087406D03*
Y1085827D03*
Y1084256D03*
Y1082677D03*
Y1081106D03*
Y1079528D03*
Y1077957D03*
Y1076378D03*
G54D17*
X792323Y1039370D03*
X796063D03*
X802677Y1111118D03*
X848917Y858953D03*
X808858Y1029331D03*
X814370Y1033071D03*
X818110D03*
X831102Y1122142D03*
X806102Y1111024D03*
X828346Y1111512D03*
X902165Y821457D03*
X893504Y856299D03*
X902165Y814961D03*
X858957Y858756D03*
X885039Y885433D03*
X899213Y875197D03*
X895472D03*
X893504Y865551D03*
X891732Y875197D03*
X879528Y914858D03*
X875000Y915055D03*
X895571Y921551D03*
X871260Y1055512D03*
X872835Y1073228D03*
X870669Y1027559D03*
X901969Y1035724D03*
Y1027559D03*
X868898Y1073228D03*
X886417Y1034937D03*
X870472Y1035528D03*
X886417Y1026969D03*
X869291Y1103835D03*
X865945Y1103638D03*
X861417Y1123228D03*
X955906Y861220D03*
X921063Y872441D03*
X920866Y864268D03*
X921063Y913874D03*
X973071Y1020370D03*
G54D53*
X859547Y1148031D03*
X876083D03*
G54D44*
X888878Y930118D03*
X895177D03*
G54D26*
X817091Y1107874D03*
Y1116535D03*
X823780D03*
Y1107874D03*
X867795Y882677D03*
Y891654D03*
X874803D03*
Y882677D03*
G54D35*
X837402Y1141732D03*
X834843D03*
X832283D03*
X829724D03*
X827165D03*
G54D62*
X941339Y985827D03*
X939370D03*
X937402D03*
X939173Y1023031D03*
G54D63*
X947555Y1018437D03*
X952555D03*
X957555D03*
X962555D03*
X967555D03*
X947555Y1033594D03*
X952555D03*
X957555D03*
X962555D03*
X967555D03*
G54D36*
X833661Y1135197D03*
X831693D03*
X829724D03*
X833661Y1132874D03*
X831693D03*
X829724D03*
G54D27*
X857283Y1111811D03*
Y1117323D03*
G54D18*
X792323Y1035732D03*
X796063D03*
X802677Y1107480D03*
X848917Y855315D03*
X808858Y1025693D03*
X814370Y1029433D03*
X818110D03*
X831102Y1118504D03*
X806102Y1107386D03*
X828346Y1107874D03*
X858957Y855118D03*
X902165Y817819D03*
X893504Y852661D03*
X902165Y811323D03*
X879528Y911220D03*
X875000Y911417D03*
X885039Y881795D03*
X899213Y871559D03*
X895472D03*
X893504Y861913D03*
X891732Y871559D03*
X895571Y917913D03*
X871260Y1051874D03*
X872835Y1069591D03*
X870669Y1023921D03*
X901969Y1032087D03*
Y1023921D03*
X868898Y1069591D03*
X886417Y1031299D03*
X870472Y1031890D03*
X886417Y1023331D03*
X869291Y1100197D03*
X865945Y1100000D03*
X861417Y1119591D03*
X955906Y857583D03*
X921063Y868803D03*
X920866Y860630D03*
X921063Y910236D03*
X973071Y1016732D03*
G54D45*
X891240Y924213D03*
Y917913D03*
X887192Y1130041D03*
Y1123741D03*
X926181Y965945D03*
X931890D03*
X937598D03*
X943307D03*
X926181Y972244D03*
X931890D03*
X937598D03*
X943307D03*
X981732Y979921D03*
Y973622D03*
X987598Y979921D03*
Y973622D03*
G54D54*
X963189Y856102D03*
G54D28*
X840945Y1125984D03*
X837402D03*
G54D55*
X966142Y851378D03*
X964173D03*
X962205D03*
X960236D03*
X966142Y860827D03*
X964173D03*
X962205D03*
X960236D03*
G54D46*
X901181Y926969D03*
Y919882D03*
G54D19*
X796220Y1069094D03*
X796457Y1060433D03*
Y1064567D03*
X796378Y1087402D03*
X814071Y982283D03*
X808756Y1033268D03*
X830567Y1028543D03*
X853047Y1033071D03*
X830567Y1032283D03*
X857575Y1104724D03*
X850394D03*
X843898Y1113780D03*
X822850Y1122441D03*
X835630Y1113780D03*
X850787Y1110433D03*
X813480Y1138976D03*
X902165Y808465D03*
X897142Y849409D03*
X905803Y821457D03*
X883858Y896260D03*
Y893504D03*
X893504Y859055D03*
X897142Y868307D03*
X891732Y877953D03*
X899110D03*
X895472Y880709D03*
X862220Y1019882D03*
X859543Y1107480D03*
X874409Y1078740D03*
X873622Y1096063D03*
X874307Y1082874D03*
X874110Y1088976D03*
X873622Y1092520D03*
X878952Y1139409D03*
X886827Y1135374D03*
X879819Y1143504D03*
X886707Y1138930D03*
X926079Y884843D03*
X924898Y905512D03*
X957575Y1009055D03*
X927654Y1020079D03*
X1009740Y967520D03*
G54D64*
X966181Y998425D03*
X961181D03*
X956181D03*
X951181D03*
X966181Y983268D03*
X961181D03*
X956181D03*
X951181D03*
X971181Y998425D03*
Y983268D03*
G54D37*
X902165Y799567D03*
Y801772D03*
G54D56*
X946850Y829331D03*
X968898D03*
Y807283D03*
X946850D03*
G54D47*
X897638Y1026378D03*
X866142D03*
X881890D03*
G54D65*
X1000787Y995768D03*
Y979232D03*
G54D29*
X839764Y1119488D03*
G54D38*
X906024Y804921D03*
X902165D03*
G54D39*
X889862Y887598D03*
Y889567D03*
Y891535D03*
Y893504D03*
Y895472D03*
Y897441D03*
Y899409D03*
Y901378D03*
Y903346D03*
Y905315D03*
Y907283D03*
Y909252D03*
X917028D03*
Y907283D03*
Y905315D03*
Y903346D03*
Y901378D03*
Y899409D03*
Y897441D03*
Y895472D03*
Y893504D03*
Y891535D03*
Y889567D03*
Y887598D03*
G54D57*
X957874Y818307D03*
G54D48*
X897283Y1023917D03*
X895709D03*
X894134D03*
X892559D03*
Y1033563D03*
X894134D03*
X895709D03*
X897283D03*
X865787Y1023917D03*
X864213D03*
X862638D03*
X861063D03*
Y1033563D03*
X862638D03*
X864213D03*
X865787D03*
X881535Y1023917D03*
X879961D03*
X878386D03*
X876811D03*
Y1033563D03*
X878386D03*
X879961D03*
X881535D03*
G54D66*
X1007874Y1000787D03*
Y974213D03*
G54D67*
G01X790945Y638681D02*
Y579626D01*
X1086220D01*
Y638681D01*
X790945D01*
G01X938583D02*
Y579626D01*
G01Y599311D02*
X1086220D01*
G01Y618996D02*
X938583D01*
G01X988488D02*
Y599311D01*
G54D49*
X891713Y1026378D03*
Y1027953D03*
Y1029528D03*
Y1031102D03*
X898130D03*
Y1029528D03*
Y1027953D03*
X860217Y1026378D03*
Y1027953D03*
Y1029528D03*
Y1031102D03*
X866634D03*
Y1029528D03*
Y1027953D03*
X875965Y1026378D03*
Y1027953D03*
Y1029528D03*
Y1031102D03*
X882382D03*
Y1029528D03*
Y1027953D03*
G54D58*
X950787Y854134D03*
Y860433D03*
G54D68*
G01X794390Y692913D02*
X1011220D01*
G03X1017913Y700591I-552J7237D01*
G01Y964567D01*
G03X1013583Y976969I-19922J0D01*
G02X1009252Y989370I15591J12402D01*
G02X1013583Y1001772I19922J0D01*
G03X1017913Y1014173I-15591J12402D01*
G01Y1158811D01*
G03X1012157Y1164567I-5756J0D01*
G01X849803D01*
Y1159843D01*
X843504D01*
Y1151575D01*
X839961D01*
Y1159843D01*
X825000D01*
Y1151575D01*
X821457D01*
Y1159843D01*
X815157D01*
Y1164567D01*
X793354D01*
G03X787598Y1158811I0J-5756D01*
G01Y1014173D01*
G03X791929Y1001772I19922J0D01*
G02X796260Y989370I-15591J-12402D01*
G02X791929Y976969I-19922J0D01*
G03X787598Y964567I15591J-12402D01*
G01Y700591D01*
G03X794390Y692913I8087J312D01*
G01X950912Y586071D02*
Y593571D01*
X952778D01*
X953524Y593196D01*
X954084Y592696D01*
X954551Y591946D01*
X954924Y591071D01*
X955017Y589821D01*
X954924Y588571D01*
X954551Y587696D01*
X954084Y586946D01*
X953524Y586446D01*
X952778Y586071D01*
X950912D01*
G01X958132D02*
X960465Y593571D01*
X962797Y586071D01*
G01X961957Y588696D02*
X958972D01*
G01X967965Y593571D02*
Y586071D01*
G01X965819Y593571D02*
X970111D01*
G01X977331Y586071D02*
X973598D01*
Y593571D01*
X977331D01*
G01X975838Y589946D02*
X973598D01*
G01X982965Y585821D02*
X982778Y585946D01*
Y586196D01*
X982965Y586321D01*
X983151Y586196D01*
Y585946D01*
X982965Y585821D01*
G01Y589196D02*
X982778Y589321D01*
Y589571D01*
X982965Y589696D01*
X983151Y589571D01*
Y589321D01*
X982965Y589196D01*
G01X996192Y592321D02*
X996752Y593071D01*
X997405Y593446D01*
X998151Y593571D01*
X999084Y593321D01*
X999737Y592696D01*
X999924Y591946D01*
X999831Y591196D01*
X999457Y590571D01*
X997591Y589321D01*
X996752Y588446D01*
X996192Y587196D01*
X996005Y586071D01*
X999924D01*
G01X1005465Y593571D02*
X1004718Y593321D01*
X1004158Y592696D01*
X1003785Y591946D01*
X1003505Y590946D01*
X1003412Y589821D01*
X1003505Y588696D01*
X1003785Y587696D01*
X1004158Y586946D01*
X1004718Y586321D01*
X1005465Y586071D01*
X1006211Y586321D01*
X1006771Y586946D01*
X1007144Y587696D01*
X1007424Y588696D01*
X1007517Y589821D01*
X1007424Y590946D01*
X1007144Y591946D01*
X1006771Y592696D01*
X1006211Y593321D01*
X1005465Y593571D01*
G01X1011192Y592321D02*
X1011752Y593071D01*
X1012405Y593446D01*
X1013151Y593571D01*
X1014084Y593321D01*
X1014737Y592696D01*
X1014924Y591946D01*
X1014831Y591196D01*
X1014457Y590571D01*
X1012591Y589321D01*
X1011752Y588446D01*
X1011192Y587196D01*
X1011005Y586071D01*
X1014924D01*
G01X1020465Y593571D02*
X1019718Y593321D01*
X1019158Y592696D01*
X1018785Y591946D01*
X1018505Y590946D01*
X1018412Y589821D01*
X1018505Y588696D01*
X1018785Y587696D01*
X1019158Y586946D01*
X1019718Y586321D01*
X1020465Y586071D01*
X1021211Y586321D01*
X1021771Y586946D01*
X1022144Y587696D01*
X1022424Y588696D01*
X1022517Y589821D01*
X1022424Y590946D01*
X1022144Y591946D01*
X1021771Y592696D01*
X1021211Y593321D01*
X1020465Y593571D01*
G01X1026752Y588571D02*
X1029178D01*
G01X1035465Y593571D02*
X1034718Y593321D01*
X1034158Y592696D01*
X1033785Y591946D01*
X1033505Y590946D01*
X1033412Y589821D01*
X1033505Y588696D01*
X1033785Y587696D01*
X1034158Y586946D01*
X1034718Y586321D01*
X1035465Y586071D01*
X1036211Y586321D01*
X1036771Y586946D01*
X1037144Y587696D01*
X1037424Y588696D01*
X1037517Y589821D01*
X1037424Y590946D01*
X1037144Y591946D01*
X1036771Y592696D01*
X1036211Y593321D01*
X1035465Y593571D01*
G01X1041192Y592321D02*
X1041752Y593071D01*
X1042405Y593446D01*
X1043151Y593571D01*
X1044084Y593321D01*
X1044737Y592696D01*
X1044924Y591946D01*
X1044831Y591196D01*
X1044457Y590571D01*
X1042591Y589321D01*
X1041752Y588446D01*
X1041192Y587196D01*
X1041005Y586071D01*
X1044924D01*
G01X1049252Y588571D02*
X1051678D01*
G01X1057965Y586071D02*
Y593571D01*
X1056845Y592071D01*
G01Y586071D02*
X1059084D01*
G01X1065278D02*
X1065465Y587696D01*
X1065744Y589071D01*
X1066118Y590321D01*
X1066584Y591696D01*
X1067331Y593571D01*
X1063598D01*
G01X943650Y606201D02*
Y613701D01*
X945889D01*
X946635Y613326D01*
X947195Y612451D01*
X947382Y611451D01*
X947195Y610451D01*
X946729Y609701D01*
X945889Y609326D01*
X943650D01*
G01X950590Y606201D02*
Y613701D01*
X953016Y607451D01*
X955442Y613701D01*
Y606201D01*
G01X968016Y613701D02*
Y606201D01*
G01X965870Y613701D02*
X970162D01*
G01X975516Y606201D02*
X974769Y606326D01*
X974116Y606826D01*
X973556Y607576D01*
X973183Y608451D01*
X972996Y609451D01*
Y610451D01*
X973183Y611451D01*
X973556Y612326D01*
X974116Y613076D01*
X974769Y613576D01*
X975516Y613701D01*
X976262Y613576D01*
X976915Y613076D01*
X977475Y612326D01*
X977848Y611451D01*
X978035Y610451D01*
Y609451D01*
X977848Y608451D01*
X977475Y607576D01*
X976915Y606826D01*
X976262Y606326D01*
X975516Y606201D01*
G01X981150D02*
Y613701D01*
X983389D01*
X984135Y613326D01*
X984695Y612451D01*
X984882Y611451D01*
X984695Y610451D01*
X984229Y609701D01*
X983389Y609326D01*
X981150D01*
G01X952768Y632744D02*
Y625244D01*
G01X950622Y632744D02*
X954914D01*
G01X962134Y625244D02*
X958402D01*
Y632744D01*
X962134D01*
G01X960641Y629119D02*
X958402D01*
G01X965808Y625244D02*
X969727Y632744D01*
G01X965808D02*
X969727Y625244D01*
G01X972935D02*
X975268Y632744D01*
X977600Y625244D01*
G01X976761Y627869D02*
X973775D01*
G01X980808Y626244D02*
X981555Y625619D01*
X982394Y625244D01*
X983141D01*
X983887Y625619D01*
X984447Y626244D01*
X984727Y627119D01*
X984541Y627994D01*
X984074Y628744D01*
X983234Y629244D01*
X982115Y629494D01*
X981461Y629994D01*
X981181Y630869D01*
X981368Y631744D01*
X981835Y632369D01*
X982488Y632744D01*
X983141D01*
X983794Y632494D01*
X984354Y631869D01*
G01X996648Y632744D02*
X998887D01*
G01X997768D02*
Y625244D01*
G01X996648D02*
X998887D01*
G01X1003122D02*
Y632744D01*
X1007414Y625244D01*
Y632744D01*
G01X1010808Y626244D02*
X1011555Y625619D01*
X1012394Y625244D01*
X1013141D01*
X1013887Y625619D01*
X1014447Y626244D01*
X1014727Y627119D01*
X1014541Y627994D01*
X1014074Y628744D01*
X1013234Y629244D01*
X1012115Y629494D01*
X1011461Y629994D01*
X1011181Y630869D01*
X1011368Y631744D01*
X1011835Y632369D01*
X1012488Y632744D01*
X1013141D01*
X1013794Y632494D01*
X1014354Y631869D01*
G01X1020268Y632744D02*
Y625244D01*
G01X1018122Y632744D02*
X1022414D01*
G01X1025902Y625244D02*
Y632744D01*
X1028234D01*
X1028981Y632369D01*
X1029447Y631869D01*
X1029634Y630869D01*
X1029447Y629869D01*
X1028887Y629244D01*
X1028234Y628869D01*
X1025902D01*
G01X1028234D02*
X1029634Y625244D01*
G01X1033215Y632744D02*
Y627369D01*
X1033588Y626244D01*
X1034335Y625494D01*
X1035268Y625244D01*
X1036201Y625494D01*
X1036947Y626244D01*
X1037320Y627369D01*
Y632744D01*
G01X1040342Y625244D02*
Y632744D01*
X1042768Y626494D01*
X1045194Y632744D01*
Y625244D01*
G01X1052134D02*
X1048402D01*
Y632744D01*
X1052134D01*
G01X1050641Y629119D02*
X1048402D01*
G01X1055622Y625244D02*
Y632744D01*
X1059914Y625244D01*
Y632744D01*
G01X1065268D02*
Y625244D01*
G01X1063122Y632744D02*
X1067414D01*
G01X1070808Y626244D02*
X1071555Y625619D01*
X1072394Y625244D01*
X1073141D01*
X1073887Y625619D01*
X1074447Y626244D01*
X1074727Y627119D01*
X1074541Y627994D01*
X1074074Y628744D01*
X1073234Y629244D01*
X1072115Y629494D01*
X1071461Y629994D01*
X1071181Y630869D01*
X1071368Y631744D01*
X1071835Y632369D01*
X1072488Y632744D01*
X1073141D01*
X1073794Y632494D01*
X1074354Y631869D01*
G01X992312Y609398D02*
Y606299D01*
X993845D01*
G01X995219D02*
X996177Y609398D01*
X997135Y606299D01*
G01X996790Y607383D02*
X995564D01*
G01X998433Y609398D02*
Y607177D01*
X998586Y606712D01*
X998893Y606402D01*
X999276Y606299D01*
X999659Y606402D01*
X999965Y606712D01*
X1000119Y607177D01*
Y609398D01*
G01X1001493Y606299D02*
Y609398D01*
X1003256Y606299D01*
Y609398D01*
G01X1006315Y609139D02*
X1006085Y609294D01*
X1005817Y609398D01*
X1005511D01*
X1005166Y609243D01*
X1004898Y608985D01*
X1004706Y608675D01*
X1004553Y608158D01*
X1004515Y607693D01*
X1004591Y607229D01*
X1004706Y606919D01*
X1004936Y606609D01*
X1005204Y606402D01*
X1005472Y606299D01*
X1005741D01*
X1006009Y606402D01*
X1006239Y606557D01*
X1006430Y606764D01*
G01X1007766Y606299D02*
Y609398D01*
G01X1009376D02*
Y606299D01*
G01Y607848D02*
X1007766D01*
G01X1010865Y606299D02*
X1012474Y609398D01*
G01X1010865D02*
X1012474Y606299D01*
G01X1014001Y609398D02*
Y606299D01*
X1015534D01*
G01X1017368Y607332D02*
X1018364D01*
G01X1021807Y609139D02*
X1021578Y609294D01*
X1021309Y609398D01*
X1021003D01*
X1020658Y609243D01*
X1020390Y608985D01*
X1020198Y608675D01*
X1020045Y608158D01*
X1020007Y607693D01*
X1020083Y607229D01*
X1020198Y606919D01*
X1020428Y606609D01*
X1020696Y606402D01*
X1020965Y606299D01*
X1021233D01*
X1021501Y606402D01*
X1021731Y606557D01*
X1021922Y606764D01*
G01X1024906Y609139D02*
X1024676Y609294D01*
X1024408Y609398D01*
X1024101D01*
X1023756Y609243D01*
X1023488Y608985D01*
X1023296Y608675D01*
X1023143Y608158D01*
X1023105Y607693D01*
X1023181Y607229D01*
X1023296Y606919D01*
X1023526Y606609D01*
X1023795Y606402D01*
X1024063Y606299D01*
X1024331D01*
X1024600Y606402D01*
X1024830Y606557D01*
X1025021Y606764D01*
G01X1027161Y606299D02*
Y609398D01*
X1026702Y608778D01*
G01Y606299D02*
X1027621D01*
G01X1029417Y606919D02*
X1029647Y606557D01*
X1029953Y606351D01*
X1030298Y606299D01*
X1030605Y606351D01*
X1030911Y606609D01*
X1031103Y606919D01*
X1031141Y607229D01*
X1031065Y607590D01*
X1030796Y607848D01*
X1030528Y607952D01*
X1030183D01*
G01X1030528D02*
X1030758Y608107D01*
X1030950Y608365D01*
X1031026Y608675D01*
X1030950Y608985D01*
X1030758Y609243D01*
X1030413Y609398D01*
X1030068Y609346D01*
X1029723Y609139D01*
G01X1033358Y606299D02*
Y609398D01*
X1032898Y608778D01*
G01Y606299D02*
X1033818D01*
G01X1036457Y609398D02*
X1036150Y609294D01*
X1035920Y609036D01*
X1035767Y608726D01*
X1035652Y608313D01*
X1035614Y607848D01*
X1035652Y607383D01*
X1035767Y606970D01*
X1035920Y606661D01*
X1036150Y606402D01*
X1036457Y606299D01*
X1036763Y606402D01*
X1036993Y606661D01*
X1037146Y606970D01*
X1037261Y607383D01*
X1037300Y607848D01*
X1037261Y608313D01*
X1037146Y608726D01*
X1036993Y609036D01*
X1036763Y609294D01*
X1036457Y609398D01*
G01X1041696Y606299D02*
X1042654Y609398D01*
X1043611Y606299D01*
G01X1043267Y607383D02*
X1042041D01*
G54D59*
X942323Y988780D03*
X942126Y1024016D03*
Y1025984D03*
Y1027953D03*
M02*
