G04 ================== begin FILE IDENTIFICATION RECORD ==================*
G04 Layout Name:  LAUNCHXL-CC1310.brd*
G04 Film Name:    LAUNCHXL-CC1310_silk_top*
G04 File Format:  Gerber RS274X*
G04 File Origin:  Cadence Allegro 17.2-S024*
G04 Origin Date:  Tue Feb 18 08:08:47 2020*
G04 *
G04 Layer:  DRAWING FORMAT/TITLE_BLOCK*
G04 Layer:  BOARD GEOMETRY/TOP SILK*
G04 Layer:  DEVICE TYPE/SILKSCREEN_TOP*
G04 Layer:  PACKAGE GEOMETRY/SILKSCREEN_TOP*
G04 Layer:  MANUFACTURING/AUTOSILK_TOP*
G04 Layer:  BOARD GEOMETRY/OUTLINE*
G04 *
G04 Offset:    (0.0000 0.0000)*
G04 Mirror:    No*
G04 Mode:      Positive*
G04 Rotation:  0*
G04 FullContactRelief:  No*
G04 UndefLineWidth:     0.0990*
G04 ================== end FILE IDENTIFICATION RECORD ====================*
%FSLAX25Y25*MOIN*%
%IR0*IPPOS*OFA0.00000B0.00000*MIA0B0*SFA1.00000B1.00000*%
%ADD10C,.003937*%
%ADD11C,.011811*%
%ADD12C,.023622*%
%ADD13C,.009843*%
%ADD14C,.007087*%
%ADD15C,.003898*%
G75*
%LPD*%
G75*
G36*
G01X789193Y827862D02*
X803394D01*
X807969Y832437D01*
X803445Y836961D01*
X789193D01*
Y832413D01*
Y827862D01*
G37*
G36*
G01X789031Y847736D02*
X803232D01*
X807807Y852311D01*
X805543Y854571D01*
X803283Y856835D01*
X789031D01*
Y852283D01*
Y847736D01*
G37*
G36*
G01Y837894D02*
X803232D01*
X807807Y842469D01*
X805543Y844728D01*
X803283Y846992D01*
X789031D01*
Y842441D01*
Y837894D01*
G37*
G36*
G01X804106Y967094D02*
X789906D01*
Y958047D01*
X804106D01*
X806370Y960307D01*
X808630Y962571D01*
X806370Y964831D01*
X804106Y967094D01*
G37*
G36*
G01X843315Y822366D02*
Y821996D01*
X841291D01*
Y822366D01*
X841516D01*
G03X841709Y822559I-1J194D01*
G01Y827063D01*
G03X841516Y827260I-194J3D01*
G01X840366D01*
G03X840228Y827201I2J-194D01*
G01X839713Y826689D01*
X839902Y827894D01*
X844701D01*
X844894Y826689D01*
X844374Y827201D01*
G03X844240Y827260I-139J-135D01*
G01X843091D01*
G03X842894Y827063I-2J-195D01*
G01Y822559D01*
G03X843091Y822366I195J2D01*
G01X843315D01*
G37*
G36*
G01X855150Y815358D02*
Y815067D01*
X853551D01*
Y815358D01*
X853728D01*
G03X853882Y815508I1J152D01*
G01Y819067D01*
G03X853728Y819220I-153J1D01*
G01X852823D01*
G03X852713Y819177I-3J-153D01*
G01X852307Y818772D01*
X852457Y819724D01*
X856248D01*
X856398Y818772D01*
X855988Y819177D01*
G03X855882Y819220I-107J-110D01*
G01X854972D01*
G03X854819Y819067I0J-153D01*
G01Y815508D01*
G03X854972Y815358I153J3D01*
G01X855150D01*
G37*
G36*
G01X848606Y826110D02*
X849819Y824398D01*
G02Y824217I-128J-91D01*
G01X848618Y822484D01*
G02X848488Y822417I-128J89D01*
G01X848185D01*
Y821996D01*
X849610D01*
Y822417D01*
X849343D01*
X850248Y823791D01*
X851217Y822417D01*
X850929D01*
Y821996D01*
X852547D01*
Y822417D01*
X852500D01*
G02X852374Y822484I2J156D01*
G01X851157Y824220D01*
G02Y824394I130J87D01*
G01X852248Y826102D01*
G02X852378Y826177I133J-81D01*
G01X852732D01*
Y826685D01*
X851051D01*
Y826319D01*
Y826177D01*
X851504D01*
X850693Y824941D01*
X849878Y826177D01*
X850374D01*
Y826685D01*
X848173D01*
Y826177D01*
X848480D01*
G02X848606Y826110I-2J-156D01*
G37*
G36*
G01X855563Y821996D02*
Y822417D01*
X855697D01*
G03X855846Y822626I2J156D01*
G01X854744Y825705D01*
X854000Y823787D01*
X855406D01*
X855567Y823339D01*
X853827Y823335D01*
X853551Y822630D01*
G03X853697Y822417I146J-56D01*
G01X853724D01*
Y821996D01*
X852646D01*
Y822417D01*
X852669D01*
G03X852815Y822516I0J157D01*
G01X854425Y826685D01*
X855480D01*
X857008Y822520D01*
G03X857154Y822417I146J53D01*
G01X857323D01*
Y821996D01*
X855563D01*
G37*
G36*
G01X857047Y815504D02*
Y819295D01*
G03X856890Y819453I-156J1D01*
G01X856602D01*
Y819717D01*
X859508D01*
X859602Y819701D01*
X859697Y819685D01*
X859744Y819677D01*
X859787Y819665D01*
X859846Y819650D01*
X859882Y819642D01*
X859925Y819626D01*
X859972Y819606D01*
X860016Y819587D01*
X860059Y819567D01*
X860102Y819543D01*
X860142Y819520D01*
X860185Y819492D01*
X860220Y819465D01*
X860260Y819437D01*
X860299Y819406D01*
X860335Y819370D01*
X860354Y819350D01*
X860402Y819299D01*
X860433Y819264D01*
X860461Y819224D01*
X860488Y819185D01*
X860516Y819142D01*
X860539Y819098D01*
X860559Y819055D01*
X860579Y819012D01*
X860594Y818969D01*
X860610Y818921D01*
X860622Y818870D01*
X860630Y818831D01*
X860638Y818783D01*
X860642Y818736D01*
X860646Y818689D01*
X860650Y818642D01*
X860654Y818449D01*
Y818406D01*
X860657Y818350D01*
X860661Y818256D01*
X860665Y818205D01*
Y818157D01*
Y818110D01*
X860661Y818063D01*
X860657Y818016D01*
X860650Y817992D01*
X860646Y817969D01*
X860642Y817953D01*
X860634Y817925D01*
X860622Y817902D01*
X860614Y817878D01*
X860602Y817858D01*
X860591Y817839D01*
X860567Y817795D01*
X860539Y817752D01*
X860508Y817717D01*
X860476Y817677D01*
X860441Y817642D01*
X860406Y817610D01*
X860370Y817579D01*
X860343Y817559D01*
X860291Y817528D01*
X860252Y817504D01*
X860217Y817484D01*
X860173Y817461D01*
X860134Y817445D01*
X860051Y817406D01*
X860012Y817390D01*
X859969Y817370D01*
X859925Y817350D01*
X859882Y817327D01*
X859835Y817303D01*
X859791Y817276D01*
X859744Y817248D01*
X859693Y817213D01*
X859677Y817197D01*
X859665Y817189D01*
X859654Y817181D01*
X859646Y817173D01*
X859638Y817161D01*
X859634Y817154D01*
X859630Y817142D01*
Y817138D01*
X859634Y817130D01*
X859638Y817122D01*
X859646Y817114D01*
X859654Y817106D01*
X859665Y817098D01*
X859689Y817083D01*
X859732Y817059D01*
X859764Y817039D01*
X859787Y817024D01*
X859811Y817012D01*
X859835Y816996D01*
X859854Y816980D01*
X859874Y816969D01*
X859909Y816937D01*
X859941Y816906D01*
X859972Y816874D01*
X860004Y816843D01*
X860035Y816803D01*
X860063Y816776D01*
X860091Y816740D01*
X860122Y816705D01*
X860150Y816665D01*
X860177Y816626D01*
X860236Y816547D01*
X860264Y816508D01*
X860287Y816469D01*
X860315Y816425D01*
X860327Y816402D01*
X860386Y816299D01*
X860429Y816213D01*
X860472Y816130D01*
X860520Y816043D01*
X860543Y816004D01*
X860567Y815965D01*
X860587Y815941D01*
X860622Y815886D01*
X860654Y815850D01*
X860681Y815811D01*
X860713Y815776D01*
X860748Y815740D01*
X860815Y815673D01*
X860898Y815591D01*
X860953Y815539D01*
X861024Y815476D01*
X861122Y815390D01*
G03X861224Y815350I103J115D01*
G01X861421D01*
Y815055D01*
X860339D01*
G02X860220Y815106I-2J157D01*
G01X860004Y815350D01*
X859969Y815390D01*
X859933Y815429D01*
X859898Y815469D01*
X859862Y815508D01*
X859827Y815547D01*
X859795Y815591D01*
X859764Y815634D01*
X859728Y815673D01*
X859701Y815713D01*
X859669Y815760D01*
X859638Y815807D01*
X859610Y815854D01*
X859583Y815898D01*
X859559Y815945D01*
X859535Y815996D01*
X859512Y816043D01*
X859492Y816091D01*
X859472Y816142D01*
X859453Y816193D01*
X859437Y816244D01*
X859417Y816291D01*
X859398Y816343D01*
X859378Y816394D01*
X859358Y816441D01*
X859346Y816469D01*
X859307Y816535D01*
X859283Y816583D01*
X859256Y816626D01*
X859224Y816673D01*
X859197Y816717D01*
X859177Y816748D01*
X859138Y816811D01*
X859110Y816854D01*
X859079Y816898D01*
X859047Y816941D01*
X859008Y816980D01*
X858980Y817004D01*
X858925Y817043D01*
X858878Y817067D01*
X858831Y817091D01*
X858780Y817114D01*
X857976D01*
Y817555D01*
X858902D01*
X858957Y817559D01*
X859012Y817563D01*
X859051Y817567D01*
X859118Y817575D01*
X859173Y817587D01*
X859224Y817598D01*
X859252Y817606D01*
X859327Y817638D01*
X859378Y817665D01*
X859425Y817693D01*
X859469Y817728D01*
X859512Y817764D01*
X859551Y817803D01*
X859587Y817846D01*
X859622Y817894D01*
X859650Y817941D01*
X859669Y817984D01*
X859689Y818039D01*
X859705Y818091D01*
X859713Y818146D01*
X859720Y818197D01*
X859724Y818252D01*
Y818307D01*
Y818362D01*
Y818429D01*
X859720Y818476D01*
X859717Y818531D01*
X859713Y818587D01*
X859705Y818642D01*
X859697Y818693D01*
X859685Y818748D01*
X859669Y818799D01*
X859654Y818850D01*
X859630Y818898D01*
X859614Y818925D01*
X859571Y818992D01*
X859535Y819035D01*
X859500Y819075D01*
X859457Y819110D01*
X859413Y819146D01*
X859366Y819173D01*
X859335Y819189D01*
X859264Y819213D01*
X859213Y819224D01*
X859157Y819232D01*
X859106Y819240D01*
X859051Y819248D01*
X857961D01*
Y815504D01*
G03X858118Y815350I155J2D01*
G01X858472D01*
Y815055D01*
X856602D01*
Y815350D01*
X856890D01*
G03X857047Y815504I2J156D01*
G37*
G36*
G01X847224Y824957D02*
X847335D01*
Y823791D01*
X847224D01*
X847067Y823992D01*
G03X846945Y824051I-122J-97D01*
G01X845350D01*
Y822543D01*
X847358D01*
G03X847472Y822591I2J157D01*
G01X847957Y823098D01*
X848091D01*
X847748Y822102D01*
G02X847598Y821996I-148J50D01*
G01X844031D01*
Y822165D01*
X844469Y822394D01*
G03X844555Y822531I-70J140D01*
G01Y826012D01*
G03X844476Y826146I-156J-2D01*
G01X844031Y826409D01*
Y826677D01*
X847413D01*
G02X847555Y826579I-3J-155D01*
G01X847980Y825559D01*
X847748Y825461D01*
X847335Y825913D01*
G03X847220Y825965I-116J-105D01*
G01X845350D01*
Y824764D01*
X846957D01*
G03X847063Y824807I-1J155D01*
G01X847224Y824957D01*
G37*
G36*
G01X842866Y815732D02*
G03X843177Y815421I312J1D01*
G01X843346D01*
Y815067D01*
X841291Y815059D01*
Y815421D01*
X841457D01*
G03X841772Y815732I2J313D01*
G01Y820567D01*
G03X841457Y820878I-312J-1D01*
G01X841291D01*
Y821146D01*
X843315D01*
Y820878D01*
X843177D01*
G03X842866Y820567I0J-312D01*
G01Y815732D01*
G37*
G36*
G01X843618Y815421D02*
X843913D01*
G03X844071Y815579I1J157D01*
G01Y819240D01*
G03X843913Y819394I-156J-3D01*
G01X843594D01*
Y819740D01*
X845031D01*
G02X845150Y819685I-1J-156D01*
G01X847386Y817098D01*
Y819209D01*
G03X847228Y819362I-156J-2D01*
G01X846846D01*
Y819740D01*
X848417D01*
Y819362D01*
X848087D01*
G03X847933Y819209I2J-155D01*
G01Y815067D01*
X847689D01*
G02X847571Y815118I-3J155D01*
G01X844870Y818248D01*
Y815579D01*
G03X845024Y815421I156J-2D01*
G01X845260D01*
Y815067D01*
X843618D01*
Y815421D01*
G37*
G36*
G01X848906Y815110D02*
X848512Y816555D01*
X848693Y816598D01*
X848768Y816496D01*
X848846Y816394D01*
X848925Y816291D01*
X849004Y816197D01*
X849087Y816106D01*
X849173Y816024D01*
X849268Y815945D01*
X849362Y815878D01*
X849472Y815823D01*
X849575Y815776D01*
X849693Y815740D01*
X849811Y815713D01*
X849957Y815681D01*
X850055Y815661D01*
X850181Y815638D01*
X850307Y815618D01*
X850429Y815606D01*
X850555Y815602D01*
X850677Y815606D01*
X850795Y815626D01*
X850913Y815654D01*
X851039Y815705D01*
X851138Y815764D01*
X851240Y815843D01*
X851323Y815937D01*
X851398Y816091D01*
X851409Y816161D01*
X851406Y816283D01*
X851374Y816409D01*
X851319Y816528D01*
X851217Y816661D01*
X851157Y816717D01*
X851055Y816783D01*
X850941Y816839D01*
X850827Y816878D01*
X850657Y816917D01*
X850583Y816933D01*
X850461Y816953D01*
X850343Y816972D01*
X850224Y816988D01*
X850102Y817008D01*
X849984Y817024D01*
X849866Y817043D01*
X849744Y817063D01*
X849626Y817091D01*
X849547Y817106D01*
X849382Y817154D01*
X849264Y817197D01*
X849150Y817248D01*
X849043Y817307D01*
X848945Y817374D01*
X848858Y817453D01*
X848783Y817547D01*
X848720Y817650D01*
X848673Y817760D01*
X848634Y817878D01*
X848606Y818004D01*
X848591Y818130D01*
X848579Y818319D01*
Y818390D01*
X848587Y818520D01*
X848602Y818646D01*
X848626Y818768D01*
X848661Y818886D01*
X848705Y819000D01*
X848760Y819106D01*
X848835Y819209D01*
X848906Y819295D01*
X848996Y819374D01*
X849094Y819449D01*
X849201Y819516D01*
X849311Y819571D01*
X849425Y819622D01*
X849598Y819681D01*
X849661Y819701D01*
X849783Y819728D01*
X849902Y819752D01*
X850020Y819768D01*
X850142Y819780D01*
X850260Y819783D01*
X850386D01*
X850512Y819776D01*
X850634Y819760D01*
X850752Y819736D01*
X850870Y819701D01*
X850961Y819669D01*
X851094Y819610D01*
X851201Y819551D01*
X851307Y819492D01*
Y819787D01*
X851650D01*
X851953Y818469D01*
X851843Y818358D01*
X851748Y818429D01*
X851654Y818504D01*
X851559Y818571D01*
X851465Y818642D01*
X851362Y818705D01*
X851256Y818764D01*
X851157Y818815D01*
X851047Y818862D01*
X850933Y818902D01*
X850819Y818933D01*
X850705Y818961D01*
X850587Y818984D01*
X850516Y818992D01*
X850354Y819008D01*
X850236Y819012D01*
X850118Y819004D01*
X850020Y818992D01*
X849878Y818965D01*
X849764Y818925D01*
X849661Y818866D01*
X849610Y818815D01*
X849528Y818665D01*
X849500Y818543D01*
X849504Y818417D01*
X849535Y818319D01*
X849606Y818213D01*
X849701Y818142D01*
X849811Y818087D01*
X849933Y818043D01*
X850043Y818012D01*
X850177Y817984D01*
X850295Y817965D01*
X850413Y817949D01*
X850528Y817933D01*
X850642Y817917D01*
X850760Y817898D01*
X850870Y817878D01*
X850984Y817850D01*
X851098Y817823D01*
X851213Y817791D01*
X851319Y817760D01*
X851441Y817717D01*
X851555Y817673D01*
X851661Y817626D01*
X851768Y817571D01*
X851866Y817504D01*
X851945Y817441D01*
X852035Y817343D01*
X852102Y817248D01*
X852165Y817146D01*
X852213Y817035D01*
X852256Y816921D01*
X852287Y816803D01*
X852311Y816689D01*
X852323Y816567D01*
X852331Y816449D01*
X852327Y816331D01*
X852311Y816213D01*
X852287Y816091D01*
X852260Y815980D01*
X852220Y815870D01*
X852173Y815760D01*
X852118Y815654D01*
X852051Y815551D01*
X851980Y815457D01*
X851894Y815362D01*
X851811Y815287D01*
X851717Y815217D01*
X851614Y815154D01*
X851508Y815094D01*
X851398Y815047D01*
X851283Y815008D01*
X851165Y814972D01*
X851047Y814949D01*
X850925Y814929D01*
X850803Y814917D01*
X850669D01*
X850567Y814921D01*
X850449Y814933D01*
X850331Y814949D01*
X850217Y814972D01*
X850102Y815000D01*
X849988Y815031D01*
X849874Y815071D01*
X849764Y815110D01*
X849650Y815150D01*
X849539Y815193D01*
X849429Y815240D01*
X849319Y815287D01*
Y815110D01*
X848906D01*
G37*
G36*
G01X857646Y822047D02*
X857252Y823492D01*
X857433Y823535D01*
X857512Y823433D01*
X857587Y823331D01*
X857665Y823232D01*
X857748Y823134D01*
X857831Y823043D01*
X857917Y822961D01*
X858008Y822886D01*
X858106Y822819D01*
X858213Y822760D01*
X858319Y822717D01*
X858433Y822681D01*
X858551Y822650D01*
X858697Y822618D01*
X858799Y822598D01*
X858921Y822575D01*
X859047Y822559D01*
X859173Y822547D01*
X859295Y822539D01*
X859417Y822547D01*
X859539Y822563D01*
X859657Y822594D01*
X859780Y822646D01*
X859882Y822701D01*
X859980Y822783D01*
X860063Y822874D01*
X860138Y823028D01*
X860150Y823098D01*
Y823224D01*
X860118Y823346D01*
X860063Y823465D01*
X859961Y823598D01*
X859898Y823657D01*
X859795Y823724D01*
X859685Y823776D01*
X859567Y823815D01*
X859398Y823854D01*
X859323Y823870D01*
X859205Y823890D01*
X859083Y823909D01*
X858965Y823929D01*
X858846Y823945D01*
X858724Y823961D01*
X858606Y823980D01*
X858488Y824004D01*
X858366Y824028D01*
X858291Y824047D01*
X858126Y824091D01*
X858004Y824134D01*
X857890Y824185D01*
X857783Y824244D01*
X857685Y824311D01*
X857602Y824390D01*
X857524Y824484D01*
X857465Y824587D01*
X857413Y824701D01*
X857378Y824819D01*
X857346Y824941D01*
X857331Y825067D01*
X857319Y825256D01*
Y825327D01*
X857327Y825457D01*
X857343Y825583D01*
X857370Y825705D01*
X857402Y825823D01*
X857449Y825937D01*
X857504Y826043D01*
X857575Y826150D01*
X857650Y826232D01*
X857736Y826315D01*
X857835Y826386D01*
X857941Y826453D01*
X858051Y826508D01*
X858165Y826559D01*
X858339Y826618D01*
X858406Y826638D01*
X858524Y826669D01*
X858642Y826689D01*
X858764Y826709D01*
X858886Y826717D01*
X859004Y826720D01*
X859130D01*
X859252Y826713D01*
X859374Y826697D01*
X859496Y826673D01*
X859610Y826642D01*
X859705Y826606D01*
X859835Y826547D01*
X859945Y826488D01*
X860047Y826429D01*
Y826728D01*
X860390D01*
X860697Y825406D01*
X860583Y825295D01*
X860492Y825366D01*
X860398Y825441D01*
X860303Y825512D01*
X860205Y825579D01*
X860106Y825642D01*
X859996Y825705D01*
X859898Y825752D01*
X859787Y825799D01*
X859677Y825839D01*
X859563Y825870D01*
X859445Y825902D01*
X859331Y825921D01*
X859260Y825933D01*
X859098Y825945D01*
X858980Y825949D01*
X858862Y825945D01*
X858760Y825933D01*
X858622Y825906D01*
X858504Y825866D01*
X858406Y825803D01*
X858354Y825752D01*
X858272Y825602D01*
X858244Y825480D01*
X858248Y825354D01*
X858276Y825256D01*
X858350Y825154D01*
X858441Y825079D01*
X858551Y825024D01*
X858673Y824980D01*
X858787Y824949D01*
X858917Y824921D01*
X859039Y824902D01*
X859154Y824886D01*
X859268Y824870D01*
X859382Y824854D01*
X859500Y824835D01*
X859610Y824815D01*
X859724Y824791D01*
X859839Y824760D01*
X859953Y824728D01*
X860063Y824697D01*
X860181Y824654D01*
X860295Y824614D01*
X860406Y824563D01*
X860508Y824508D01*
X860606Y824445D01*
X860685Y824378D01*
X860776Y824283D01*
X860846Y824185D01*
X860906Y824083D01*
X860957Y823972D01*
X860996Y823858D01*
X861031Y823740D01*
X861051Y823626D01*
X861067Y823508D01*
X861071Y823390D01*
X861067Y823272D01*
X861055Y823154D01*
X861031Y823028D01*
X861004Y822921D01*
X860961Y822807D01*
X860913Y822697D01*
X860858Y822591D01*
X860795Y822488D01*
X860724Y822394D01*
X860634Y822299D01*
X860555Y822228D01*
X860461Y822154D01*
X860358Y822091D01*
X860252Y822035D01*
X860142Y821984D01*
X860024Y821945D01*
X859909Y821909D01*
X859787Y821886D01*
X859669Y821866D01*
X859547Y821858D01*
X859409Y821854D01*
X859307Y821858D01*
X859189Y821870D01*
X859071Y821886D01*
X858957Y821909D01*
X858843Y821937D01*
X858728Y821972D01*
X858618Y822008D01*
X858504Y822047D01*
X858394Y822091D01*
X858283Y822134D01*
X858169Y822177D01*
X858059Y822224D01*
Y822047D01*
X857646D01*
G37*
G36*
G01X831583Y828150D02*
X830685D01*
Y830807D01*
X826969D01*
Y825252D01*
X823024D01*
X823055Y825110D01*
X823091Y824972D01*
X823126Y824835D01*
X823165Y824701D01*
X823213Y824567D01*
X823260Y824441D01*
X823319Y824319D01*
X823386Y824205D01*
X823461Y824094D01*
X823504Y824043D01*
X823642Y823902D01*
X823744Y823811D01*
X823854Y823724D01*
X823961Y823642D01*
X824071Y823555D01*
X824193Y823457D01*
X824280Y823378D01*
X824378Y823280D01*
X824472Y823181D01*
X824559Y823075D01*
X824646Y822972D01*
X824732Y822862D01*
X824815Y822756D01*
X824858Y822614D01*
X824898Y822476D01*
X824937Y822335D01*
X824980Y822193D01*
X825024Y822055D01*
X825067Y821917D01*
X825118Y821780D01*
X825165Y821642D01*
X825220Y821508D01*
X825280Y821374D01*
X825362Y821197D01*
X825409Y821110D01*
X825480Y820980D01*
X825563Y820862D01*
X825661Y820748D01*
X825776Y820650D01*
X825902Y820571D01*
X826047Y820512D01*
X826197Y820476D01*
X826343Y820472D01*
X826453Y820496D01*
X826606Y820567D01*
X826720Y820657D01*
X826827Y820768D01*
X826921Y820886D01*
X827020Y821008D01*
X827110Y821126D01*
X827209Y821240D01*
X827307Y821343D01*
X827417Y821433D01*
X827547Y821508D01*
X827677Y821559D01*
X827858Y821587D01*
X827969Y821575D01*
X828110Y821535D01*
X828244Y821469D01*
X828402Y821350D01*
X828480Y821283D01*
X828579Y821173D01*
X828669Y821059D01*
X828748Y820937D01*
X828823Y820811D01*
X828870Y820728D01*
X828965Y820555D01*
X829031Y820425D01*
X829098Y820295D01*
X829165Y820165D01*
X829228Y820035D01*
X829287Y819902D01*
X829339Y819791D01*
X829409Y819638D01*
X829469Y819504D01*
X829531Y819370D01*
X829591Y819236D01*
X829650Y819106D01*
X829713Y818972D01*
X829807Y818780D01*
X829843Y818713D01*
X829906Y818583D01*
X829976Y818453D01*
X830047Y818327D01*
X830126Y818205D01*
X830205Y818079D01*
X830283Y817961D01*
X830374Y817839D01*
X830429Y817764D01*
X830559Y817610D01*
X830661Y817500D01*
X830764Y817394D01*
X830874Y817291D01*
X830984Y817193D01*
X831098Y817102D01*
X831213Y817016D01*
X831366Y816909D01*
X831441Y816862D01*
X831559Y816795D01*
X831677Y816732D01*
X831803Y816681D01*
X831929Y816638D01*
X832063Y816598D01*
X832205Y816567D01*
X832350Y816543D01*
X832508Y816528D01*
X832677Y816520D01*
X832925Y816516D01*
X833047Y816524D01*
X833244Y816535D01*
X833433Y816563D01*
X833602Y816602D01*
X833736Y816654D01*
X833827Y816724D01*
X833862Y816831D01*
X833831Y816925D01*
X833748Y817051D01*
X833642Y817185D01*
X833587Y817559D01*
X833539Y817929D01*
X833516Y818287D01*
X833524Y818630D01*
X833563Y818902D01*
X833677Y819256D01*
X833831Y819535D01*
X834024Y819791D01*
X834256Y820035D01*
X834524Y820260D01*
X834819Y820469D01*
X835142Y820669D01*
X835488Y820854D01*
X835850Y821035D01*
X836224Y821213D01*
X836606Y821382D01*
X836992Y821551D01*
X837681D01*
Y824705D01*
X836980Y825406D01*
Y828150D01*
X833783D01*
X833394Y826071D01*
X834331D01*
X834094Y824748D01*
X833236D01*
X832713Y821972D01*
X833390Y821976D01*
Y820862D01*
G02X833106Y820500I-316J-45D01*
G01X830921D01*
G02X830276Y821004I-43J611D01*
G01Y821319D01*
X830890Y824748D01*
X829976D01*
X830260Y826071D01*
X831236D01*
X831583Y828150D01*
G37*
G36*
G01X831913Y828370D02*
X832272Y829937D01*
X833909D01*
X833551Y828370D01*
X831913D01*
G37*
G36*
G01Y828150D02*
X830665Y821976D01*
X832303D01*
X833551Y828150D01*
X831913D01*
G37*
G36*
G01X845807Y966941D02*
X831606D01*
X827031Y962366D01*
X831555Y957843D01*
X845807D01*
Y962390D01*
Y966941D01*
G37*
G36*
G01X846008Y957382D02*
X831807D01*
X827232Y952807D01*
X829496Y950547D01*
X831756Y948283D01*
X846008D01*
Y952835D01*
Y957382D01*
G37*
G36*
G01X847866Y993870D02*
Y979669D01*
X856913D01*
Y993870D01*
X854654Y996134D01*
X852390Y998394D01*
X850130Y996134D01*
X847866Y993870D01*
G37*
G36*
G01X846941Y979744D02*
Y993945D01*
X842366Y998520D01*
X837843Y993996D01*
Y979744D01*
X842390D01*
X846941D01*
G37*
G36*
G01X837303Y979583D02*
Y993783D01*
X832728Y998358D01*
X830469Y996094D01*
X828205Y993835D01*
Y979583D01*
X832756D01*
X837303D01*
G37*
G36*
G01X884240Y815358D02*
Y815067D01*
X882642D01*
Y815358D01*
X882819D01*
G03X882972Y815508I1J153D01*
G01Y819067D01*
G03X882819Y819220I-153J0D01*
G01X881909D01*
G03X881803Y819177I0J-153D01*
G01X881394Y818772D01*
X881543Y819724D01*
X885339D01*
X885488Y818772D01*
X885079Y819177D01*
G03X884969Y819220I-107J-110D01*
G01X884063D01*
G03X883909Y819067I-1J-153D01*
G01Y815508D01*
G03X884063Y815358I152J3D01*
G01X884240D01*
G37*
G36*
G01X862567Y815067D02*
X864705D01*
G03X865500Y815933I-82J873D01*
G01Y819295D01*
G02X865654Y819453I156J2D01*
G01X865886D01*
Y819740D01*
X864370D01*
Y819453D01*
X864693D01*
G02X864850Y819295I1J-156D01*
G01Y816181D01*
G02X864106Y815606I-707J147D01*
G01X863252D01*
G02X862579Y816181I19J704D01*
G01Y819295D01*
G02X862732Y819453I156J2D01*
G01X863071D01*
Y819740D01*
X861016D01*
Y819453D01*
X861417D01*
G02X861575Y819295I1J-157D01*
G01Y816295D01*
G03X862567Y815067I1268J9D01*
G37*
G36*
G01X866122Y815059D02*
X867594D01*
Y815421D01*
X867276D01*
G02X867118Y815579I-1J156D01*
G01Y818555D01*
X868843Y815059D01*
X870500Y818500D01*
Y815579D01*
G02X870343Y815421I-157J-1D01*
G01X870161D01*
Y815067D01*
X871945D01*
Y815421D01*
X871878D01*
G02X871720Y815579I-1J156D01*
G01Y819315D01*
G02X871878Y819472I156J2D01*
G01X872035D01*
Y819740D01*
X870500D01*
G03X870358Y819646I2J-156D01*
G01X869157Y816874D01*
X867878Y819650D01*
G03X867736Y819740I-142J-66D01*
G01X866122D01*
Y819453D01*
X866484D01*
G02X866642Y819295I2J-156D01*
G01Y815579D01*
G02X866484Y815421I-156J-1D01*
G01X866122D01*
Y815059D01*
G37*
G36*
G01X875551Y818020D02*
X875665D01*
Y816854D01*
X875551D01*
X875394Y817055D01*
G03X875272Y817114I-122J-97D01*
G01X873677D01*
Y815606D01*
X875685D01*
G03X875799Y815654I2J156D01*
G01X876283Y816161D01*
X876421D01*
X876075Y815165D01*
G02X875929Y815059I-148J49D01*
G01X872358D01*
Y815228D01*
X872799Y815457D01*
G03X872882Y815594I-74J138D01*
G01Y819075D01*
G03X872803Y819209I-156J-1D01*
G01X872358Y819472D01*
Y819740D01*
X875740D01*
G02X875886Y819642I0J-157D01*
G01X876307Y818618D01*
X876075Y818524D01*
X875661Y818976D01*
G03X875547Y819028I-116J-106D01*
G01X873677D01*
Y817827D01*
X875283D01*
G03X875394Y817870I3J155D01*
G01X875551Y818020D01*
G37*
G36*
G01X876484Y815421D02*
X876780D01*
G03X876937Y815579I2J156D01*
G01Y819240D01*
G03X876780Y819394I-156J-2D01*
G01X876465D01*
Y819740D01*
X877902D01*
G02X878020Y819685I-1J-156D01*
G01X880252Y817098D01*
Y819209D01*
G03X880098Y819362I-155J-2D01*
G01X879717D01*
Y819740D01*
X881287D01*
Y819362D01*
X880957D01*
G03X880799Y819209I-2J-156D01*
G01Y815067D01*
X880559D01*
G02X880441Y815118I-3J155D01*
G01X877736Y818248D01*
Y815579D01*
G03X877894Y815421I156J-1D01*
G01X878126D01*
Y815067D01*
X876484D01*
Y815421D01*
G37*
G36*
G01X886083Y815138D02*
X885693Y816579D01*
X885874Y816626D01*
X885949Y816520D01*
X886024Y816417D01*
X886102Y816319D01*
X886185Y816224D01*
X886268Y816134D01*
X886354Y816051D01*
X886445Y815972D01*
X886543Y815906D01*
X886650Y815846D01*
X886756Y815803D01*
X886870Y815768D01*
X886992Y815736D01*
X887134Y815709D01*
X887236Y815689D01*
X887362Y815665D01*
X887484Y815646D01*
X887610Y815634D01*
X887732Y815630D01*
X887854Y815634D01*
X887976Y815650D01*
X888094Y815681D01*
X888220Y815732D01*
X888319Y815791D01*
X888417Y815870D01*
X888504Y815965D01*
X888575Y816114D01*
X888591Y816189D01*
X888587Y816311D01*
X888555Y816437D01*
X888500Y816555D01*
X888398Y816689D01*
X888335Y816744D01*
X888232Y816811D01*
X888122Y816862D01*
X888004Y816902D01*
X887835Y816945D01*
X887764Y816957D01*
X887642Y816980D01*
X887524Y817000D01*
X887402Y817016D01*
X887283Y817031D01*
X887165Y817051D01*
X887043Y817071D01*
X886925Y817091D01*
X886803Y817114D01*
X886728Y817134D01*
X886563Y817181D01*
X886445Y817224D01*
X886331Y817272D01*
X886220Y817331D01*
X886122Y817402D01*
X886039Y817480D01*
X885961Y817575D01*
X885902Y817677D01*
X885850Y817787D01*
X885815Y817906D01*
X885787Y818031D01*
X885768Y818157D01*
X885760Y818346D01*
Y818417D01*
X885764Y818543D01*
X885780Y818669D01*
X885807Y818795D01*
X885843Y818913D01*
X885886Y819024D01*
X885941Y819130D01*
X886012Y819236D01*
X886087Y819319D01*
X886177Y819402D01*
X886276Y819476D01*
X886378Y819539D01*
X886488Y819598D01*
X886606Y819650D01*
X886780Y819709D01*
X886843Y819728D01*
X886961Y819756D01*
X887083Y819780D01*
X887201Y819795D01*
X887323Y819807D01*
X887441Y819811D01*
X887567Y819807D01*
X887689Y819799D01*
X887811Y819787D01*
X887933Y819760D01*
X888051Y819728D01*
X888142Y819697D01*
X888272Y819638D01*
X888382Y819579D01*
X888488Y819516D01*
Y819815D01*
X888831D01*
X889134Y818496D01*
X889024Y818382D01*
X888929Y818457D01*
X888835Y818528D01*
X888740Y818598D01*
X888642Y818665D01*
X888543Y818728D01*
X888437Y818791D01*
X888335Y818839D01*
X888224Y818886D01*
X888114Y818925D01*
X888000Y818961D01*
X887886Y818988D01*
X887768Y819012D01*
X887697Y819020D01*
X887535Y819035D01*
X887417D01*
X887299Y819031D01*
X887197Y819020D01*
X887059Y818992D01*
X886945Y818953D01*
X886843Y818894D01*
X886791Y818843D01*
X886709Y818693D01*
X886681Y818567D01*
X886685Y818445D01*
X886717Y818346D01*
X886787Y818240D01*
X886882Y818169D01*
X886992Y818110D01*
X887110Y818071D01*
X887224Y818039D01*
X887358Y818012D01*
X887476Y817992D01*
X887591Y817972D01*
X887709Y817961D01*
X887819Y817945D01*
X887937Y817925D01*
X888047Y817906D01*
X888161Y817878D01*
X888276Y817850D01*
X888390Y817819D01*
X888500Y817783D01*
X888622Y817744D01*
X888732Y817701D01*
X888843Y817654D01*
X888949Y817594D01*
X889043Y817531D01*
X889126Y817465D01*
X889213Y817370D01*
X889283Y817276D01*
X889343Y817173D01*
X889394Y817063D01*
X889437Y816949D01*
X889469Y816831D01*
X889492Y816713D01*
X889504Y816594D01*
X889508Y816476D01*
X889504Y816358D01*
X889492Y816240D01*
X889469Y816114D01*
X889441Y816008D01*
X889402Y815894D01*
X889354Y815783D01*
X889295Y815681D01*
X889232Y815579D01*
X889161Y815484D01*
X889075Y815390D01*
X888992Y815315D01*
X888898Y815244D01*
X888795Y815177D01*
X888689Y815122D01*
X888579Y815075D01*
X888465Y815031D01*
X888346Y815000D01*
X888228Y814972D01*
X888106Y814957D01*
X887984Y814945D01*
X887850Y814941D01*
X887744Y814949D01*
X887626Y814957D01*
X887512Y814976D01*
X887394Y815000D01*
X887280Y815028D01*
X887165Y815059D01*
X887055Y815094D01*
X886941Y815134D01*
X886831Y815177D01*
X886720Y815220D01*
X886610Y815268D01*
X886496Y815311D01*
Y815138D01*
X886083D01*
G37*
G36*
G01X995321Y789008D02*
Y788869D01*
G03X995570Y788619I249J0D01*
G01X996616D01*
X996772Y787057D01*
X997495Y786335D01*
X997267Y788620D01*
X1004154Y788622D01*
X1004080Y787931D01*
X1004027Y787896D01*
X1003958Y787793D01*
X1003934Y787672D01*
X1003935Y787536D01*
X1000122Y783715D01*
X1000571Y783266D01*
X1003946Y786641D01*
X1003304Y780500D01*
X990757Y793037D01*
G03X990406Y793038I-176J-176D01*
G01X990280Y792912D01*
G03X990279Y792559I175J-177D01*
G01X1003213Y779623D01*
X1003023Y777806D01*
G03X1002120Y776628I278J-1148D01*
G01X1002697D01*
G02X1002698Y776608I605J26D01*
G01X998464Y776608D01*
X998052Y780747D01*
X1000053Y782748D01*
X999598Y783204D01*
X997969Y781576D01*
X997609Y785193D01*
X996885Y785916D01*
X997377Y780984D01*
X990295Y773908D01*
G03X990302Y773549I176J-176D01*
G01X990411Y773447D01*
G03X990758Y773453I170J182D01*
G01X997460Y780155D01*
X997852Y776222D01*
X997900Y776120D01*
X997931Y776074D01*
X997984Y776026D01*
Y775576D01*
G03X998233Y775326I249J0D01*
G01X998748D01*
G03X998997Y775576I0J249D01*
G01Y775962D01*
X1002347D01*
G03X1003656Y777785I954J696D01*
G01X1003788Y779048D01*
X1009395Y773440D01*
G03X1009748I177J176D01*
G01X1009883Y773574D01*
G03Y773927I-176J176D01*
G01X1003880Y779925D01*
X1004660Y787355D01*
X1005074Y787356D01*
Y786723D01*
X1004615D01*
X1004549Y786090D01*
X1005508Y786090D01*
G03X1005707Y786290I0J199D01*
G01X1005706Y787791D01*
G03X1005505Y787990I-199J0D01*
G01X1005293Y787989D01*
X1009843Y792538D01*
G03X1009844Y792890I-176J177D01*
G01X1009744Y792989D01*
G03X1009391Y792990I-177J-176D01*
G01X1004762Y788365D01*
X1004790Y788623D01*
X1005010D01*
X1005654Y789260D01*
X1005634D01*
G03X1004249Y789798I-750J121D01*
G01X1004013Y790110D01*
X1002955Y790889D01*
X1002397Y791106D01*
X1002032Y791247D01*
Y791398D01*
G03X1001783Y791647I-249J0D01*
G01X1000724D01*
Y791209D01*
X1001406D01*
Y790956D01*
X1000013D01*
Y791181D01*
Y791209D01*
X1000704D01*
Y791647D01*
X999626D01*
G03X999377Y791398I0J-249D01*
G01Y791354D01*
X998680Y791113D01*
Y791147D01*
X997794D01*
Y790655D01*
X997213Y790265D01*
X997080Y790178D01*
X996992Y790079D01*
X996883Y789957D01*
X996613Y789652D01*
X996432Y789448D01*
X996361Y789369D01*
X996285Y789282D01*
X997133Y789283D01*
X997302Y789474D01*
X997509Y789707D01*
X997794Y789896D01*
Y789283D01*
X998680D01*
Y790441D01*
X999413Y790696D01*
X999469Y790613D01*
X999572Y790544D01*
X999685Y790523D01*
X1001733D01*
X1001840Y790544D01*
X1001935Y790608D01*
X1002400Y790426D01*
X1002678Y790317D01*
X1003557Y789661D01*
X1003859Y789260D01*
X995570Y789257D01*
G03X995321Y789008I0J-249D01*
G37*
G36*
G01X992717Y769488D02*
X1008465D01*
Y765551D01*
X992717D01*
Y769488D01*
G37*
G36*
G01X999440Y786406D02*
X1001972D01*
Y785773D01*
X999440D01*
Y786406D01*
G37*
G36*
G01X1003625Y776658D02*
G03X1002977I-324J0D01*
G03X1003625I324J0D01*
G37*
G36*
G01X1016087Y856988D02*
X1001886D01*
X997311Y852413D01*
X999575Y850154D01*
X1001835Y847890D01*
X1016087D01*
Y852441D01*
Y856988D01*
G37*
G36*
G01Y847146D02*
X1001886D01*
X997311Y842571D01*
X999575Y840311D01*
X1001835Y838047D01*
X1016087D01*
Y842598D01*
Y847146D01*
G37*
G36*
G01X1001846Y827677D02*
X1016047D01*
Y836724D01*
X1001846D01*
X999583Y834465D01*
X997323Y832201D01*
X999583Y829941D01*
X1001846Y827677D01*
G37*
G36*
G01X1015693Y966831D02*
X1001492D01*
X996917Y962256D01*
X999181Y959996D01*
X1001441Y957732D01*
X1015693D01*
Y962283D01*
Y966831D01*
G37*
%LPC*%
G75*
G36*
G01X793614Y834760D02*
X794878Y834744D01*
X796142Y834732D01*
Y833976D01*
X795205Y833965D01*
X794268Y833949D01*
X794185Y833504D01*
X794118Y833122D01*
X794110Y833004D01*
G03X794138Y832984I23J3D01*
G03X794193Y833008I-14J109D01*
G01X794350Y833122D01*
X794528Y833201D01*
G02X794728Y833248I358J-1071D01*
G01X794961Y833264D01*
X795256Y833248D01*
G02X795496Y833189I-134J-1063D01*
G02X795709Y833079I-346J-928D01*
G02X795921Y832909I-978J-1447D01*
G02X796122Y832677I-990J-1059D01*
G02X796264Y832413I-1061J-740D01*
G02X796346Y832114I-1336J-530D01*
G02X796374Y831768I-2170J-347D01*
G02X796287Y831205I-1870J-1D01*
G02X796039Y830732I-1427J448D01*
G02X795638Y830374I-1189J929D01*
G01X795110Y830154D01*
X794925Y830110D01*
X794776Y830094D01*
G02X794626Y830098I-46J1104D01*
G01X794421Y830126D01*
X793886Y830272D01*
G02X793472Y830528I542J1338D01*
G01X793185Y830890D01*
G02X793028Y831350I1395J734D01*
G01X792996Y831539D01*
X793476D01*
X793752Y831535D01*
G02X793874Y831524I-12J-757D01*
G02X793933Y831496I-25J-130D01*
G02X793953Y831453I-39J-44D01*
G03X793980Y831331I285J0D01*
G01X794071Y831185D01*
X794185Y831047D01*
X794311Y830961D01*
X794484Y830898D01*
X794697Y830882D01*
G03X794902Y830906I-15J1031D01*
G01X795071Y830969D01*
X795217Y831094D01*
X795346Y831287D01*
X795433Y831512D01*
X795461Y831724D01*
G03X795339Y832197I-961J4D01*
G03X795004Y832512I-665J-371D01*
G01X794551Y832571D01*
G03X794114Y832366I162J-915D01*
G01X794016Y832299D01*
G02X793921Y832264I-169J306D01*
G01X793795Y832248D01*
X793563Y832244D01*
X793161D01*
X793280Y832909D01*
X793335Y833209D01*
X793394Y833555D01*
X793457Y833894D01*
X793504Y834165D01*
X793614Y834760D01*
G37*
G36*
G01X796476Y834807D02*
X797520D01*
X797843Y833787D01*
X797980Y833354D01*
X798130Y832894D01*
X798264Y832472D01*
X798358Y832177D01*
G03X798437Y831941I8073J2560D01*
G03X798504Y831768I2713J949D01*
G01X798559Y831650D01*
G03X798583I12J6D01*
G01X798602Y831701D01*
X798752Y832150D01*
X798917Y832665D01*
X799110Y833260D01*
X799602Y834807D01*
X800122D01*
X800319Y834803D01*
X800488Y834795D01*
X800626Y834783D01*
G02X800642Y834768I0J-16D01*
G01X800634Y834740D01*
X800417Y834075D01*
X800173Y833331D01*
G02X799882Y832457I-468750J155765D01*
G01X799122Y830177D01*
X798547Y830193D01*
X797969Y830209D01*
X797343Y832118D01*
X797094Y832878D01*
X796866Y833583D01*
X796677Y834173D01*
X796598Y834417D01*
X796476Y834807D01*
G37*
G36*
G01X802976Y848488D02*
X789783D01*
Y856079D01*
X802980D01*
X804854Y854209D01*
G02X805571Y853488I-139819J-139771D01*
G01X806173Y852870D01*
X806713Y852319D01*
G02X806724Y852283I-39J-33D01*
G01X806713Y852248D01*
X806173Y851697D01*
G02X805571Y851083I-73556J71539D01*
G01X802976Y848488D01*
G37*
G36*
G01Y838646D02*
X789783D01*
Y846236D01*
X802980D01*
X804854Y844366D01*
G02X805571Y843646I-139819J-139771D01*
G01X806173Y843028D01*
X806713Y842476D01*
G02X806724Y842441I-39J-33D01*
G01X806713Y842406D01*
X806173Y841854D01*
G02X805571Y841240I-73556J71539D01*
G01X802976Y838646D01*
G37*
G36*
G01X793791Y964925D02*
X794146Y964909D01*
X794504Y964866D01*
X794736Y964795D01*
X794957Y964673D01*
X795161Y964516D01*
G02X795331Y964335I-1035J-1137D01*
G02X795441Y964154I-682J-540D01*
G01X795535Y963791D01*
X795500Y963402D01*
G02X795350Y963063I-1065J268D01*
G02X795110Y962839I-586J386D01*
G01X794921Y962732D01*
X795102Y962673D01*
G02X795386Y962496I-222J-670D01*
G01X795598Y962185D01*
X795709Y961799D01*
G02X795689Y961406I-1210J-137D01*
G02X795622Y961177I-1579J339D01*
G01X795528Y960980D01*
X795390Y960803D01*
X795205Y960614D01*
X794665Y960315D01*
X794000Y960217D01*
G02X793335Y960335I34J2126D01*
G02X792803Y960654I489J1417D01*
G02X792654Y960831I673J720D01*
G01X792524Y961063D01*
X792429Y961323D01*
G02X792382Y961575I1315J377D01*
G01X792354Y961866D01*
X793213D01*
X793248Y961681D01*
X793390Y961307D01*
X793646Y961063D01*
X793976Y960972D01*
G03X794346Y961051I-3J921D01*
G01X794520Y961161D01*
G03X794646Y961303I-359J446D01*
G03X794720Y961484I-516J319D01*
G01X794748Y961705D01*
X794705Y961976D01*
X794587Y962165D01*
X794366Y962283D01*
G03X794028Y962350I-542J-1850D01*
G01X793724Y962382D01*
Y963024D01*
X793953D01*
G03X794173Y963043I2J1225D01*
G01X794362Y963102D01*
X794508Y963201D01*
G03X794606Y963327I-301J336D01*
G03X794665Y963614I-476J248D01*
G03X794567Y963898I-578J-42D01*
G01X794335Y964106D01*
X794028Y964177D01*
X793803Y964142D01*
X793610Y964028D01*
G03X793461Y963850I442J-525D01*
G03X793366Y963618I781J-453D01*
G01X793303Y963374D01*
X792457D01*
X792488Y963606D01*
G02X792606Y964031I1617J-220D01*
G02X792835Y964402I1362J-585D01*
G02X793165Y964693I1156J-979D01*
G02X793575Y964890I967J-1487D01*
G02X793791Y964925I218J-653D01*
G37*
G36*
G01X795795Y964933D02*
X796839D01*
X797146Y963965D01*
X797280Y963547D01*
X797425Y963094D01*
X797559Y962669D01*
X797657Y962354D01*
X797740Y962110D01*
X797815Y961917D01*
G03X797878Y961768I4970J2005D01*
G03X797898Y961764I11J3D01*
G03X797917Y961807I-177J107D01*
G01X798067Y962260D01*
X798236Y962776D01*
G03X798429Y963374I-173712J56330D01*
G01X798925Y964933D01*
X799441D01*
X799642Y964929D01*
X799807Y964921D01*
X799945Y964909D01*
G02X799961Y964894I0J-15D01*
G01X799953Y964866D01*
X799736Y964201D01*
X799492Y963457D01*
G02X799201Y962583I-468750J155764D01*
G01X798441Y960303D01*
X797283Y960335D01*
X796760Y961941D01*
X796327Y963280D01*
X796138Y963870D01*
X796020Y964240D01*
X795795Y964933D01*
G37*
G36*
G01X801831Y964913D02*
G02X802169Y964874I-161J-2858D01*
G01X802425Y964799D01*
X802772Y964594D01*
G02X803024Y964335I-694J-925D01*
G02X803173Y964024I-854J-602D01*
G02X803224Y963665I-1215J-356D01*
G01X803201Y963394D01*
G02X803122Y963165I-877J175D01*
G01X802992Y962984D01*
X802811Y962846D01*
X802626Y962740D01*
X802795Y962677D01*
X802874Y962642D01*
X802969Y962579D01*
X803063Y962500D01*
X803146Y962421D01*
G02X803398Y961898I-773J-695D01*
G02X803354Y961280I-1285J-221D01*
G02X803020Y960717I-1411J458D01*
G02X802476Y960350I-1096J1040D01*
G02X802122Y960256I-579J1460D01*
G02X801701Y960228I-392J2756D01*
G02X801287Y960264I23J2702D01*
G01X800965Y960362D01*
X800846Y960421D01*
X800720Y960496D01*
X800610Y960567D01*
X800528Y960630D01*
G02X800374Y960799I543J647D01*
G01X800232Y961043D01*
X800130Y961319D01*
X800075Y961583D01*
X800047Y961866D01*
X800906D01*
X800965Y961610D01*
G03X801110Y961283I948J227D01*
G01X801358Y961063D01*
X801669Y960976D01*
X802008Y961039D01*
G03X802240Y961189I-266J668D01*
G01X802398Y961413D01*
G03X802457Y961685I-655J285D01*
G03X802409Y961965I-792J10D01*
G03X802323Y962114I-443J-157D01*
G03X802185Y962228I-402J-345D01*
G03X801988Y962307I-386J-680D01*
G01X801728Y962350D01*
X801417Y962382D01*
Y963024D01*
X801646D01*
X801945Y963059D01*
G03X802173Y963169I-165J634D01*
G03X802319Y963343I-291J393D01*
G01X802370Y963567D01*
X802283Y963878D01*
G03X802035Y964102I-535J-342D01*
G03X801705Y964177I-309J-597D01*
G03X801378Y964079I24J-672D01*
G03X801268Y963988I279J-452D01*
G03X801169Y963858I545J-515D01*
G03X801094Y963701I801J-477D01*
G01X801043Y963512D01*
G02X801012Y963429I-279J59D01*
G01X800961Y963394D01*
X800866Y963378D01*
X800583Y963374D01*
X800150D01*
X800185Y963606D01*
X800303Y964039D01*
X800524Y964398D01*
G02X800835Y964673I1064J-888D01*
G02X801232Y964862I928J-1439D01*
G01X801831Y964913D01*
G37*
G36*
G01X834559Y964681D02*
X835823Y964665D01*
X837087Y964654D01*
Y963898D01*
X836150Y963886D01*
X835213Y963870D01*
X835130Y963425D01*
X835063Y963043D01*
X835055Y962925D01*
G03X835083Y962906I23J3D01*
G03X835138Y962929I-14J109D01*
G01X835295Y963043D01*
X835472Y963122D01*
G02X835673Y963169I358J-1071D01*
G01X835906Y963185D01*
X836201Y963169D01*
G02X836441Y963110I-134J-1063D01*
G02X836654Y963000I-346J-928D01*
G02X836866Y962831I-978J-1447D01*
G02X837067Y962598I-990J-1059D01*
G02X837209Y962335I-1061J-740D01*
G02X837291Y962035I-1336J-530D01*
G02X837319Y961689I-2170J-347D01*
G02X837232Y961126I-1870J-1D01*
G02X836984Y960654I-1427J448D01*
G02X836583Y960295I-1189J929D01*
G01X836055Y960075D01*
X835870Y960031D01*
X835720Y960016D01*
G02X835571Y960020I-46J1104D01*
G01X835366Y960047D01*
X834831Y960193D01*
G02X834417Y960449I542J1338D01*
G01X834130Y960811D01*
G02X833972Y961272I1395J734D01*
G01X833941Y961461D01*
X834421D01*
X834697Y961457D01*
G02X834819Y961445I-12J-757D01*
G02X834878Y961417I-25J-130D01*
G02X834898Y961374I-39J-44D01*
G03X834925Y961252I285J0D01*
G01X835016Y961106D01*
X835130Y960969D01*
X835256Y960882D01*
X835429Y960819D01*
X835642Y960803D01*
G03X835846Y960827I-15J1031D01*
G01X836016Y960890D01*
X836161Y961016D01*
X836291Y961209D01*
X836378Y961433D01*
X836406Y961646D01*
G03X836283Y962118I-961J4D01*
G03X835949Y962433I-665J-371D01*
G01X835496Y962492D01*
G03X835059Y962287I162J-915D01*
G01X834961Y962220D01*
G02X834866Y962185I-169J306D01*
G01X834740Y962169D01*
X834508Y962165D01*
X834106D01*
X834224Y962831D01*
X834280Y963130D01*
X834339Y963476D01*
X834402Y963815D01*
X834449Y964087D01*
X834559Y964681D01*
G37*
G36*
G01X837421Y964728D02*
X838465D01*
X838787Y963709D01*
X838925Y963276D01*
X839075Y962815D01*
X839209Y962394D01*
X839303Y962098D01*
G03X839382Y961862I8073J2560D01*
G03X839449Y961689I2713J949D01*
G01X839504Y961571D01*
G03X839528I12J6D01*
G01X839547Y961622D01*
X839697Y962071D01*
X839862Y962587D01*
X840055Y963181D01*
X840547Y964728D01*
X841067D01*
X841264Y964724D01*
X841433Y964717D01*
X841571Y964705D01*
G02X841587Y964689I0J-16D01*
G01X841579Y964661D01*
X841362Y963996D01*
X841118Y963252D01*
G02X840827Y962378I-468750J155765D01*
G01X840067Y960098D01*
X839492Y960114D01*
X838913Y960130D01*
X838287Y962039D01*
X838039Y962799D01*
X837811Y963504D01*
X837622Y964094D01*
X837543Y964339D01*
X837421Y964728D01*
G37*
G36*
G01X832063Y956630D02*
X845256D01*
Y949039D01*
X832059D01*
X830185Y950909D01*
G02X829469Y951630I139819J139771D01*
G01X828866Y952248D01*
X828327Y952799D01*
G02X828315Y952835I39J33D01*
G01X828327Y952870D01*
X828866Y953421D01*
G02X829469Y954035I73556J-71539D01*
G01X832063Y956630D01*
G37*
G36*
G01X850047Y991594D02*
G02X850087Y991933I2858J-161D01*
G01X850161Y992189D01*
X850366Y992535D01*
G02X850626Y992787I925J-694D01*
G02X850937Y992937I602J-854D01*
G02X851295Y992988I356J-1215D01*
G01X851567Y992965D01*
G02X851795Y992886I-175J-877D01*
G01X851976Y992756D01*
X852114Y992575D01*
X852220Y992390D01*
X852283Y992559D01*
X852319Y992638D01*
X852382Y992732D01*
X852461Y992827D01*
X852539Y992909D01*
G02X853063Y993161I695J-773D01*
G02X853681Y993118I221J-1285D01*
G02X854244Y992783I-458J-1411D01*
G02X854610Y992240I-1040J-1096D01*
G02X854705Y991886I-1460J-579D01*
G02X854732Y991465I-2756J-392D01*
G02X854697Y991051I-2702J23D01*
G01X854598Y990728D01*
X854539Y990610D01*
X854465Y990484D01*
X854394Y990374D01*
X854331Y990291D01*
G02X854161Y990138I-647J543D01*
G01X853917Y989996D01*
X853642Y989894D01*
X853378Y989839D01*
X853094Y989811D01*
Y990669D01*
X853350Y990728D01*
G03X853677Y990874I-227J948D01*
G01X853898Y991122D01*
X853984Y991433D01*
X853921Y991772D01*
G03X853772Y992004I-668J-266D01*
G01X853547Y992161D01*
G03X853276Y992220I-285J-655D01*
G03X852996Y992173I-10J-792D01*
G03X852846Y992087I157J-443D01*
G03X852732Y991949I345J-402D01*
G03X852654Y991752I680J-386D01*
G01X852610Y991492D01*
X852579Y991181D01*
X851937D01*
Y991409D01*
X851902Y991709D01*
G03X851791Y991937I-634J-165D01*
G03X851618Y992083I-393J-291D01*
G01X851394Y992134D01*
X851083Y992047D01*
G03X850858Y991799I342J-535D01*
G03X850783Y991469I597J-309D01*
G03X850882Y991142I672J24D01*
G03X850972Y991031I452J279D01*
G03X851102Y990933I515J545D01*
G03X851260Y990858I477J801D01*
G01X851449Y990807D01*
G02X851531Y990776I-59J-279D01*
G01X851567Y990724D01*
X851583Y990630D01*
X851587Y990346D01*
Y989913D01*
X851354Y989949D01*
X850921Y990067D01*
X850563Y990287D01*
G02X850287Y990598I888J1064D01*
G02X850098Y990996I1439J928D01*
G01X850047Y991594D01*
G37*
G36*
G01X850028Y985559D02*
Y986602D01*
X850996Y986909D01*
X851413Y987043D01*
X851866Y987189D01*
X852291Y987323D01*
X852606Y987421D01*
X852850Y987504D01*
X853043Y987579D01*
G03X853193Y987642I-2005J4970D01*
G03X853197Y987661I-3J11D01*
G03X853154Y987681I-107J-177D01*
G01X852701Y987831D01*
X852185Y988000D01*
G03X851587Y988193I-56330J-173712D01*
G01X850028Y988689D01*
Y989205D01*
X850031Y989406D01*
X850039Y989571D01*
X850051Y989709D01*
G02X850067Y989724I15J0D01*
G01X850094Y989717D01*
X850760Y989500D01*
X851504Y989256D01*
G02X852378Y988965I-155764J-468750D01*
G01X854657Y988205D01*
X854626Y987047D01*
X853020Y986524D01*
X851681Y986091D01*
X851091Y985902D01*
X850720Y985783D01*
X850028Y985559D01*
G37*
G36*
G01X850035Y983555D02*
X850051Y983909D01*
X850094Y984268D01*
X850165Y984500D01*
X850287Y984720D01*
X850445Y984925D01*
G02X850626Y985094I1137J-1035D01*
G02X850807Y985205I540J-682D01*
G01X851169Y985299D01*
X851559Y985264D01*
G02X851898Y985114I-268J-1065D01*
G02X852122Y984874I-386J-586D01*
G01X852228Y984685D01*
X852287Y984866D01*
G02X852465Y985150I670J-222D01*
G01X852776Y985362D01*
X853161Y985472D01*
G02X853555Y985453I137J-1210D01*
G02X853783Y985386I-339J-1579D01*
G01X853980Y985291D01*
X854157Y985154D01*
X854346Y984969D01*
X854646Y984429D01*
X854744Y983764D01*
G02X854626Y983098I-2126J34D01*
G02X854307Y982567I-1417J489D01*
G02X854130Y982417I-720J673D01*
G01X853898Y982287D01*
X853638Y982193D01*
G02X853386Y982146I-377J1315D01*
G01X853094Y982118D01*
Y982976D01*
X853280Y983012D01*
X853654Y983154D01*
X853898Y983409D01*
X853988Y983740D01*
G03X853909Y984110I-921J-3D01*
G01X853799Y984283D01*
G03X853657Y984409I-446J-359D01*
G03X853476Y984484I-319J-516D01*
G01X853256Y984512D01*
X852984Y984469D01*
X852795Y984350D01*
X852677Y984130D01*
G03X852610Y983791I1850J-542D01*
G01X852579Y983488D01*
X851937D01*
Y983717D01*
G03X851917Y983937I-1225J2D01*
G01X851858Y984126D01*
X851760Y984272D01*
G03X851634Y984370I-336J-301D01*
G03X851346Y984429I-248J-476D01*
G03X851063Y984331I42J-578D01*
G01X850854Y984098D01*
X850783Y983791D01*
X850819Y983567D01*
X850933Y983374D01*
G03X851110Y983224I525J442D01*
G03X851343Y983130I453J781D01*
G01X851587Y983067D01*
Y982220D01*
X851354Y982252D01*
G02X850929Y982370I220J1617D01*
G02X850559Y982598I585J1362D01*
G02X850268Y982929I979J1156D01*
G02X850071Y983339I1487J967D01*
G02X850035Y983555I653J218D01*
G37*
G36*
G01X839996Y987028D02*
Y988071D01*
X841016Y988394D01*
X841449Y988531D01*
X841909Y988681D01*
X842331Y988815D01*
X842626Y988909D01*
G03X842862Y988988I-2560J8073D01*
G03X843035Y989055I-949J2713D01*
G01X843154Y989110D01*
G03Y989134I-6J12D01*
G01X843102Y989154D01*
X842654Y989303D01*
X842138Y989469D01*
X841543Y989661D01*
X839996Y990154D01*
Y990673D01*
X840000Y990870D01*
X840008Y991039D01*
X840020Y991177D01*
G02X840035Y991193I16J0D01*
G01X840063Y991185D01*
X840728Y990969D01*
X841472Y990724D01*
G02X842346Y990433I-155765J-468750D01*
G01X844626Y989673D01*
X844610Y989098D01*
X844594Y988520D01*
X842685Y987894D01*
X841925Y987646D01*
X841220Y987417D01*
X840630Y987228D01*
X840386Y987150D01*
X839996Y987028D01*
G37*
G36*
G01X840043Y984165D02*
X840059Y985429D01*
X840071Y986693D01*
X840827D01*
X840839Y985756D01*
X840854Y984819D01*
X841299Y984736D01*
X841681Y984669D01*
X841799Y984661D01*
G03X841819Y984689I-3J23D01*
G03X841795Y984744I-109J-14D01*
G01X841681Y984902D01*
X841602Y985079D01*
G02X841555Y985280I1071J358D01*
G01X841539Y985512D01*
X841555Y985807D01*
G02X841614Y986047I1063J-134D01*
G02X841724Y986260I928J-346D01*
G02X841894Y986472I1447J-978D01*
G02X842126Y986673I1059J-990D01*
G02X842390Y986815I740J-1061D01*
G02X842689Y986898I530J-1336D01*
G02X843035Y986925I347J-2170D01*
G02X843598Y986839I1J-1870D01*
G02X844071Y986591I-448J-1427D01*
G02X844429Y986189I-929J-1189D01*
G01X844650Y985661D01*
X844693Y985476D01*
X844709Y985327D01*
G02X844705Y985177I-1104J-46D01*
G01X844677Y984972D01*
X844531Y984437D01*
G02X844276Y984024I-1338J542D01*
G01X843913Y983736D01*
G02X843453Y983579I-734J1395D01*
G01X843264Y983547D01*
Y984028D01*
X843268Y984303D01*
G02X843280Y984425I757J-12D01*
G02X843307Y984484I130J-25D01*
G02X843350Y984504I44J-39D01*
G03X843472Y984531I0J285D01*
G01X843618Y984622D01*
X843756Y984736D01*
X843843Y984862D01*
X843906Y985035D01*
X843921Y985248D01*
G03X843898Y985453I-1031J-15D01*
G01X843835Y985622D01*
X843709Y985768D01*
X843516Y985898D01*
X843291Y985984D01*
X843079Y986012D01*
G03X842606Y985890I-4J-961D01*
G03X842291Y985555I371J-665D01*
G01X842232Y985102D01*
G03X842437Y984665I915J162D01*
G01X842504Y984567D01*
G02X842539Y984472I-306J-169D01*
G01X842555Y984346D01*
X842559Y984114D01*
Y983713D01*
X841894Y983831D01*
X841594Y983886D01*
X841248Y983945D01*
X840909Y984008D01*
X840638Y984055D01*
X840043Y984165D01*
G37*
G36*
G01X836551Y993528D02*
Y980335D01*
X828961D01*
Y993531D01*
X830831Y995406D01*
G02X831551Y996122I139771J-139819D01*
G01X832169Y996724D01*
X832720Y997264D01*
G02X832756Y997276I33J-39D01*
G01X832791Y997264D01*
X833343Y996724D01*
G02X833957Y996122I-71539J-73556D01*
G01X836551Y993528D01*
G37*
G36*
G01X1002142Y856236D02*
X1015335D01*
Y848646D01*
X1002138D01*
X1000264Y850516D01*
G02X999547Y851236I139819J139771D01*
G01X998945Y851854D01*
X998406Y852406D01*
G02X998394Y852441I39J33D01*
G01X998406Y852476D01*
X998945Y853028D01*
G02X999547Y853642I73556J-71539D01*
G01X1002142Y856236D01*
G37*
G36*
G01Y846394D02*
X1015335D01*
Y838803D01*
X1002138D01*
X1000264Y840673D01*
G02X999547Y841394I139819J139771D01*
G01X998945Y842012D01*
X998406Y842563D01*
G02X998394Y842598I39J33D01*
G01X998406Y842634D01*
X998945Y843185D01*
G02X999547Y843799I73556J-71539D01*
G01X1002142Y846394D01*
G37*
G36*
G01X1005319Y834130D02*
X1005673Y834114D01*
X1006031Y834071D01*
X1006264Y834000D01*
X1006484Y833878D01*
X1006689Y833720D01*
G02X1006858Y833539I-1035J-1137D01*
G02X1006969Y833358I-682J-540D01*
G01X1007063Y832996D01*
X1007028Y832606D01*
G02X1006878Y832268I-1065J268D01*
G02X1006638Y832043I-586J386D01*
G01X1006449Y831937D01*
X1006630Y831878D01*
G02X1006913Y831701I-222J-670D01*
G01X1007126Y831390D01*
X1007236Y831004D01*
G02X1007217Y830610I-1210J-137D01*
G02X1007150Y830382I-1579J339D01*
G01X1007055Y830185D01*
X1006917Y830008D01*
X1006732Y829819D01*
X1006193Y829520D01*
X1005528Y829421D01*
G02X1004862Y829539I34J2126D01*
G02X1004331Y829858I489J1417D01*
G02X1004181Y830035I673J720D01*
G01X1004051Y830268D01*
X1003957Y830528D01*
G02X1003909Y830780I1315J377D01*
G01X1003882Y831071D01*
X1004740D01*
X1004776Y830886D01*
X1004917Y830512D01*
X1005173Y830268D01*
X1005504Y830177D01*
G03X1005874Y830256I-3J921D01*
G01X1006047Y830366D01*
G03X1006173Y830508I-359J446D01*
G03X1006248Y830689I-516J319D01*
G01X1006276Y830909D01*
X1006232Y831181D01*
X1006114Y831370D01*
X1005894Y831488D01*
G03X1005555Y831555I-542J-1850D01*
G01X1005252Y831587D01*
Y832228D01*
X1005480D01*
G03X1005701Y832248I2J1225D01*
G01X1005890Y832307D01*
X1006035Y832406D01*
G03X1006134Y832531I-301J336D01*
G03X1006193Y832819I-476J248D01*
G03X1006094Y833102I-578J-42D01*
G01X1005862Y833311D01*
X1005555Y833382D01*
X1005331Y833346D01*
X1005138Y833232D01*
G03X1004988Y833055I442J-525D01*
G03X1004894Y832823I781J-453D01*
G01X1004831Y832579D01*
X1003984D01*
X1004016Y832811D01*
G02X1004134Y833236I1617J-220D01*
G02X1004362Y833606I1362J-585D01*
G02X1004693Y833898I1156J-979D01*
G02X1005102Y834094I967J-1487D01*
G02X1005319Y834130I218J-653D01*
G37*
G36*
G01X1007323Y834138D02*
X1008366D01*
X1008673Y833169D01*
X1008807Y832752D01*
X1008953Y832299D01*
X1009087Y831874D01*
X1009185Y831559D01*
X1009268Y831315D01*
X1009343Y831122D01*
G03X1009406Y830972I4970J2005D01*
G03X1009425Y830969I11J3D01*
G03X1009445Y831012I-177J107D01*
G01X1009594Y831465D01*
X1009764Y831980D01*
G03X1009957Y832579I-173712J56330D01*
G01X1010453Y834138D01*
X1010969D01*
X1011169Y834134D01*
X1011335Y834126D01*
X1011472Y834114D01*
G02X1011488Y834098I0J-15D01*
G01X1011480Y834071D01*
X1011264Y833406D01*
X1011020Y832661D01*
G02X1010728Y831787I-468750J155764D01*
G01X1009969Y829508D01*
X1008811Y829539D01*
X1008287Y831146D01*
X1007854Y832484D01*
X1007665Y833075D01*
X1007547Y833445D01*
X1007323Y834138D01*
G37*
G36*
G01X1013358Y834118D02*
G02X1013697Y834079I-161J-2858D01*
G01X1013953Y834004D01*
X1014299Y833799D01*
G02X1014551Y833539I-694J-925D01*
G02X1014701Y833228I-854J-602D01*
G02X1014752Y832870I-1215J-356D01*
G01X1014728Y832598D01*
G02X1014650Y832370I-877J175D01*
G01X1014520Y832189D01*
X1014339Y832051D01*
X1014154Y831945D01*
X1014323Y831882D01*
X1014402Y831846D01*
X1014496Y831783D01*
X1014591Y831705D01*
X1014673Y831626D01*
G02X1014925Y831102I-773J-695D01*
G02X1014882Y830484I-1285J-221D01*
G02X1014547Y829921I-1411J458D01*
G02X1014004Y829555I-1096J1040D01*
G02X1013650Y829461I-579J1460D01*
G02X1013228Y829433I-392J2756D01*
G02X1012815Y829469I23J2702D01*
G01X1012492Y829567D01*
X1012374Y829626D01*
X1012248Y829701D01*
X1012138Y829772D01*
X1012055Y829835D01*
G02X1011902Y830004I543J647D01*
G01X1011760Y830248D01*
X1011657Y830524D01*
X1011602Y830787D01*
X1011575Y831071D01*
X1012433D01*
X1012492Y830815D01*
G03X1012638Y830488I948J227D01*
G01X1012886Y830268D01*
X1013197Y830181D01*
X1013535Y830244D01*
G03X1013768Y830394I-266J668D01*
G01X1013925Y830618D01*
G03X1013984Y830890I-655J285D01*
G03X1013937Y831169I-792J10D01*
G03X1013850Y831319I-443J-157D01*
G03X1013713Y831433I-402J-345D01*
G03X1013516Y831512I-386J-680D01*
G01X1013256Y831555D01*
X1012945Y831587D01*
Y832228D01*
X1013173D01*
X1013472Y832264D01*
G03X1013701Y832374I-165J634D01*
G03X1013846Y832547I-291J393D01*
G01X1013898Y832772D01*
X1013811Y833083D01*
G03X1013563Y833307I-535J-342D01*
G03X1013232Y833382I-309J-597D01*
G03X1012906Y833283I24J-672D01*
G03X1012795Y833193I279J-452D01*
G03X1012697Y833063I545J-515D01*
G03X1012622Y832906I801J-477D01*
G01X1012571Y832717D01*
G02X1012539Y832634I-279J59D01*
G01X1012488Y832598D01*
X1012394Y832583D01*
X1012110Y832579D01*
X1011677D01*
X1011713Y832811D01*
X1011831Y833244D01*
X1012051Y833602D01*
G02X1012362Y833878I1064J-888D01*
G02X1012760Y834067I928J-1439D01*
G01X1013358Y834118D01*
G37*
G36*
G01X1001748Y966079D02*
X1014941D01*
Y958488D01*
X1001744D01*
X999870Y960358D01*
G02X999154Y961079I139819J139771D01*
G01X998551Y961697D01*
X998012Y962248D01*
G02X998000Y962283I39J33D01*
G01X998012Y962319D01*
X998551Y962870D01*
G02X999154Y963484I73556J-71539D01*
G01X1001748Y966079D01*
G37*
%LPD*%
G75*
G36*
G01X802252Y854535D02*
X801949Y854551D01*
X801146Y854567D01*
X799929Y854583D01*
Y850244D01*
X801122Y850260D01*
X801906Y850276D01*
X802205Y850295D01*
X802406Y850339D01*
X802630Y850421D01*
G03X803035Y850681I-741J1602D01*
G01X803354Y851043D01*
X803583Y851500D01*
X803709Y852039D01*
X803720Y852811D01*
X803535Y853492D01*
X803177Y854039D01*
G03X802669Y854409I-1216J-1135D01*
G01X802252Y854535D01*
G37*
G36*
G01X796425Y854551D02*
X795941Y854563D01*
X795453Y854579D01*
Y850252D01*
X796358D01*
X796370Y851685D01*
X796386Y853114D01*
X797264Y851685D01*
X798142Y850252D01*
X798622Y850264D01*
X799098Y850280D01*
X799110Y852425D01*
X799126Y854575D01*
X798220D01*
X798209Y853130D01*
X798193Y851689D01*
X797311Y853118D01*
X796425Y854551D01*
G37*
G36*
G01X792811Y854673D02*
X792445Y854661D01*
G03X792150Y854602I124J-1390D01*
G03X791791Y854445I523J-1675D01*
G01X791445Y854197D01*
G03X791150Y853894I1524J-1780D01*
G01X790937Y853563D01*
G03X790843Y853323I1539J-744D01*
G01X790760Y853004D01*
X790701Y852681D01*
G03X790681Y852413I1817J-268D01*
G03X790760Y851791I2498J0D01*
G03X790988Y851213I2420J621D01*
G01X791343Y850728D01*
G03X791783Y850402I1180J1132D01*
G01X792335Y850205D01*
X792878Y850165D01*
X793378Y850283D01*
G03X793815Y850555I-611J1470D01*
G01X793988Y850709D01*
X794031Y850492D01*
X794075Y850280D01*
X794386Y850264D01*
X794701Y850248D01*
Y852614D01*
X792890D01*
Y851909D01*
X793508D01*
X793657Y851902D01*
X793783Y851894D01*
G02X793807Y851882I-6J-41D01*
G02X793827Y851803I-55J-56D01*
G01X793760Y851598D01*
X793661Y851390D01*
G02X793563Y851252I-545J285D01*
G02X793299Y851067I-600J574D01*
G02X792961Y850972I-491J1106D01*
G01X792594Y850980D01*
G02X792256Y851091I176J1116D01*
G01X792071Y851224D01*
X791902Y851433D01*
X791764Y851685D01*
G02X791681Y851949I1286J548D01*
G02X791638Y852390I2011J420D01*
G02X791685Y852850I2511J-25D01*
G01X791811Y853264D01*
G02X792000Y853563I929J-378D01*
G02X792236Y853736I565J-523D01*
G01X792563Y853846D01*
X792909Y853870D01*
G02X793209Y853803I-42J-891D01*
G02X793350Y853720I-231J-558D01*
G01X793496Y853583D01*
G02X793614Y853429I-880J-799D01*
G02X793673Y853291I-394J-250D01*
G03X793709Y853220I182J47D01*
G03X793764Y853185I79J62D01*
G01X793870Y853169D01*
X794154D01*
G03X794488Y853177I-7J7399D01*
G03X794579Y853220I-6J128D01*
G03X794602Y853315I-79J70D01*
G01X794516Y853598D01*
G03X794366Y853886I-1010J-343D01*
G03X794114Y854173I-1710J-1245D01*
G01X793807Y854413D01*
X793496Y854567D01*
G03X792811Y854673I-839J-3149D01*
G37*
G36*
G01Y844831D02*
X792445Y844819D01*
G03X792150Y844760I124J-1390D01*
G03X791791Y844602I523J-1675D01*
G01X791445Y844354D01*
G03X791150Y844051I1524J-1780D01*
G01X790937Y843720D01*
G03X790843Y843480I1539J-744D01*
G01X790760Y843161D01*
X790701Y842839D01*
G03X790681Y842571I1817J-268D01*
G03X790760Y841949I2498J0D01*
G03X790988Y841370I2420J621D01*
G01X791343Y840886D01*
G03X791783Y840559I1180J1132D01*
G01X792335Y840362D01*
X792878Y840323D01*
X793378Y840441D01*
G03X793815Y840713I-611J1470D01*
G01X793988Y840866D01*
X794031Y840650D01*
X794075Y840437D01*
X794386Y840421D01*
X794701Y840406D01*
Y842772D01*
X792890D01*
Y842067D01*
X793508D01*
X793657Y842059D01*
X793783Y842051D01*
G02X793807Y842039I-6J-41D01*
G02X793827Y841961I-55J-56D01*
G01X793760Y841756D01*
X793661Y841547D01*
G02X793563Y841409I-545J285D01*
G02X793299Y841224I-600J574D01*
G02X792961Y841130I-491J1106D01*
G01X792594Y841138D01*
G02X792256Y841248I176J1116D01*
G01X792071Y841382D01*
X791902Y841591D01*
X791764Y841843D01*
G02X791681Y842106I1286J548D01*
G02X791638Y842547I2011J420D01*
G02X791685Y843008I2511J-25D01*
G01X791811Y843421D01*
G02X792000Y843720I929J-378D01*
G02X792236Y843894I565J-523D01*
G01X792563Y844004D01*
X792909Y844028D01*
G02X793209Y843961I-42J-891D01*
G02X793350Y843878I-231J-558D01*
G01X793496Y843740D01*
G02X793614Y843587I-880J-799D01*
G02X793673Y843449I-394J-250D01*
G03X793709Y843378I182J47D01*
G03X793764Y843343I79J62D01*
G01X793870Y843327D01*
X794154D01*
G03X794488Y843335I-7J7399D01*
G03X794579Y843378I-6J128D01*
G03X794602Y843472I-79J70D01*
G01X794516Y843756D01*
G03X794366Y844043I-1010J-343D01*
G03X794114Y844331I-1710J-1245D01*
G01X793807Y844571D01*
X793496Y844724D01*
G03X792811Y844831I-839J-3149D01*
G37*
G36*
G01X796425Y844709D02*
X795941Y844720D01*
X795453Y844736D01*
Y840409D01*
X796358D01*
X796370Y841843D01*
X796386Y843272D01*
X797264Y841843D01*
X798142Y840409D01*
X798622Y840421D01*
X799098Y840437D01*
X799110Y842583D01*
X799126Y844732D01*
X798220D01*
X798209Y843287D01*
X798193Y841846D01*
X797311Y843276D01*
X796425Y844709D01*
G37*
G36*
G01X802252Y844693D02*
X801949Y844709D01*
X801146Y844724D01*
X799929Y844740D01*
Y840402D01*
X801122Y840417D01*
X801906Y840433D01*
X802205Y840453D01*
X802406Y840496D01*
X802630Y840579D01*
G03X803035Y840839I-741J1602D01*
G01X803354Y841201D01*
X803583Y841657D01*
X803709Y842197D01*
X803720Y842969D01*
X803535Y843650D01*
X803177Y844197D01*
G03X802669Y844567I-1216J-1135D01*
G01X802252Y844693D01*
G37*
G36*
G01X842803Y954929D02*
X842500Y954945D01*
X841697Y954961D01*
X840480Y954976D01*
Y950638D01*
X841673Y950654D01*
X842457Y950669D01*
X842756Y950689D01*
X842957Y950732D01*
X843181Y950815D01*
G03X843587Y951075I-741J1602D01*
G01X843906Y951437D01*
X844134Y951894D01*
X844260Y952433D01*
X844272Y953205D01*
X844087Y953886D01*
X843728Y954433D01*
G03X843220Y954803I-1216J-1135D01*
G01X842803Y954929D01*
G37*
G36*
G01X836976Y954945D02*
X836492Y954957D01*
X836004Y954972D01*
Y950646D01*
X836909D01*
X836921Y952079D01*
X836937Y953508D01*
X837815Y952079D01*
X838693Y950646D01*
X839173Y950657D01*
X839650Y950673D01*
X839661Y952819D01*
X839677Y954969D01*
X838772D01*
X838760Y953524D01*
X838744Y952083D01*
X837862Y953512D01*
X836976Y954945D01*
G37*
G36*
G01X833362Y955067D02*
X832996Y955055D01*
G03X832701Y954996I124J-1390D01*
G03X832343Y954839I523J-1675D01*
G01X831996Y954591D01*
G03X831701Y954287I1524J-1780D01*
G01X831488Y953957D01*
G03X831394Y953717I1539J-744D01*
G01X831311Y953398D01*
X831252Y953075D01*
G03X831232Y952807I1817J-268D01*
G03X831311Y952185I2498J0D01*
G03X831539Y951606I2420J621D01*
G01X831894Y951122D01*
G03X832335Y950795I1180J1132D01*
G01X832886Y950598D01*
X833429Y950559D01*
X833929Y950677D01*
G03X834366Y950949I-611J1470D01*
G01X834539Y951102D01*
X834583Y950886D01*
X834626Y950673D01*
X834937Y950657D01*
X835252Y950642D01*
Y953008D01*
X833441D01*
Y952303D01*
X834059D01*
X834209Y952295D01*
X834335Y952287D01*
G02X834358Y952276I-6J-41D01*
G02X834378Y952197I-55J-56D01*
G01X834311Y951992D01*
X834213Y951783D01*
G02X834114Y951646I-545J285D01*
G02X833850Y951461I-600J574D01*
G02X833512Y951366I-491J1106D01*
G01X833146Y951374D01*
G02X832807Y951484I176J1116D01*
G01X832622Y951618D01*
X832453Y951827D01*
X832315Y952079D01*
G02X832232Y952343I1286J548D01*
G02X832189Y952783I2011J420D01*
G02X832236Y953244I2511J-25D01*
G01X832362Y953657D01*
G02X832551Y953957I929J-378D01*
G02X832787Y954130I565J-523D01*
G01X833114Y954240D01*
X833461Y954264D01*
G02X833760Y954197I-42J-891D01*
G02X833902Y954114I-231J-558D01*
G01X834047Y953976D01*
G02X834165Y953823I-880J-799D01*
G02X834224Y953685I-394J-250D01*
G03X834260Y953614I182J47D01*
G03X834315Y953579I79J62D01*
G01X834421Y953563D01*
X834705D01*
G03X835039Y953571I-7J7399D01*
G03X835130Y953614I-6J128D01*
G03X835154Y953709I-79J70D01*
G01X835067Y953992D01*
G03X834917Y954280I-1010J-343D01*
G03X834665Y954567I-1710J-1245D01*
G01X834358Y954807D01*
X834047Y954961D01*
G03X833362Y955067I-839J-3149D01*
G37*
G36*
G01X830366Y983362D02*
X830378Y982996D01*
G03X830437Y982701I1390J124D01*
G03X830594Y982343I1675J523D01*
G01X830843Y981996D01*
G03X831146Y981701I1780J1524D01*
G01X831476Y981488D01*
G03X831717Y981394I744J1539D01*
G01X832035Y981311D01*
X832358Y981252D01*
G03X832626Y981232I268J1817D01*
G03X833248Y981311I0J2498D01*
G03X833827Y981539I-621J2420D01*
G01X834311Y981894D01*
G03X834638Y982335I-1132J1180D01*
G01X834835Y982886D01*
X834874Y983429D01*
X834756Y983929D01*
G03X834484Y984366I-1470J-611D01*
G01X834331Y984539D01*
X834547Y984583D01*
X834760Y984626D01*
X834776Y984937D01*
X834791Y985252D01*
X832425D01*
Y983441D01*
X833130D01*
Y984059D01*
X833138Y984209D01*
X833146Y984335D01*
G02X833157Y984358I41J-6D01*
G02X833236Y984378I56J-55D01*
G01X833441Y984311D01*
X833650Y984213D01*
G02X833787Y984114I-285J-545D01*
G02X833972Y983850I-574J-600D01*
G02X834067Y983512I-1106J-491D01*
G01X834059Y983146D01*
G02X833949Y982807I-1116J176D01*
G01X833815Y982622D01*
X833606Y982453D01*
X833354Y982315D01*
G02X833091Y982232I-548J1286D01*
G02X832650Y982189I-420J2011D01*
G02X832189Y982236I25J2511D01*
G01X831776Y982362D01*
G02X831476Y982551I378J929D01*
G02X831303Y982787I523J565D01*
G01X831193Y983114D01*
X831169Y983461D01*
G02X831236Y983760I891J-42D01*
G02X831319Y983902I558J-231D01*
G01X831457Y984047D01*
G02X831610Y984165I799J-880D01*
G02X831748Y984224I250J-394D01*
G03X831819Y984260I-47J182D01*
G03X831854Y984315I-62J79D01*
G01X831870Y984421D01*
Y984705D01*
G03X831862Y985039I-7399J-7D01*
G03X831819Y985130I-128J-6D01*
G03X831724Y985154I-70J-79D01*
G01X831441Y985067D01*
G03X831154Y984917I343J-1010D01*
G03X830866Y984665I1245J-1710D01*
G01X830626Y984358D01*
X830472Y984047D01*
G03X830366Y983362I3149J-839D01*
G37*
G36*
G01X830488Y986976D02*
X830476Y986492D01*
X830461Y986004D01*
X834787D01*
Y986909D01*
X833354Y986921D01*
X831925Y986937D01*
X833354Y987815D01*
X834787Y988693D01*
X834776Y989173D01*
X834760Y989650D01*
X832614Y989661D01*
X830465Y989677D01*
Y988772D01*
X831909Y988760D01*
X833350Y988744D01*
X831921Y987862D01*
X830488Y986976D01*
G37*
G36*
G01X830504Y992803D02*
X830488Y992500D01*
X830472Y991697D01*
X830457Y990480D01*
X834795D01*
X834780Y991673D01*
X834764Y992457D01*
X834744Y992756D01*
X834701Y992957D01*
X834618Y993181D01*
G03X834358Y993587I-1602J-741D01*
G01X833996Y993906D01*
X833539Y994134D01*
X833000Y994260D01*
X832228Y994272D01*
X831547Y994087D01*
X831000Y993728D01*
G03X830630Y993220I1135J-1216D01*
G01X830504Y992803D01*
G37*
G36*
G01X1003441Y854673D02*
X1003075Y854661D01*
G03X1002780Y854602I124J-1390D01*
G03X1002421Y854445I523J-1675D01*
G01X1002075Y854197D01*
G03X1001780Y853894I1524J-1780D01*
G01X1001567Y853563D01*
G03X1001472Y853323I1539J-744D01*
G01X1001390Y853004D01*
X1001331Y852681D01*
G03X1001311Y852413I1817J-268D01*
G03X1001390Y851791I2498J0D01*
G03X1001618Y851213I2420J621D01*
G01X1001972Y850728D01*
G03X1002413Y850402I1180J1132D01*
G01X1002965Y850205D01*
X1003508Y850165D01*
X1004008Y850283D01*
G03X1004445Y850555I-611J1470D01*
G01X1004618Y850709D01*
X1004661Y850492D01*
X1004705Y850280D01*
X1005016Y850264D01*
X1005331Y850248D01*
Y852614D01*
X1003520D01*
Y851909D01*
X1004138D01*
X1004287Y851902D01*
X1004413Y851894D01*
G02X1004437Y851882I-6J-41D01*
G02X1004457Y851803I-55J-56D01*
G01X1004390Y851598D01*
X1004291Y851390D01*
G02X1004193Y851252I-545J285D01*
G02X1003929Y851067I-600J574D01*
G02X1003591Y850972I-491J1106D01*
G01X1003224Y850980D01*
G02X1002886Y851091I176J1116D01*
G01X1002701Y851224D01*
X1002531Y851433D01*
X1002394Y851685D01*
G02X1002311Y851949I1286J548D01*
G02X1002268Y852390I2011J420D01*
G02X1002315Y852850I2511J-25D01*
G01X1002441Y853264D01*
G02X1002630Y853563I929J-378D01*
G02X1002866Y853736I565J-523D01*
G01X1003193Y853846D01*
X1003539Y853870D01*
G02X1003839Y853803I-42J-891D01*
G02X1003980Y853720I-231J-558D01*
G01X1004126Y853583D01*
G02X1004244Y853429I-880J-799D01*
G02X1004303Y853291I-394J-250D01*
G03X1004339Y853220I182J47D01*
G03X1004394Y853185I79J62D01*
G01X1004500Y853169D01*
X1004783D01*
G03X1005118Y853177I-7J7399D01*
G03X1005209Y853220I-6J128D01*
G03X1005232Y853315I-79J70D01*
G01X1005146Y853598D01*
G03X1004996Y853886I-1010J-343D01*
G03X1004744Y854173I-1710J-1245D01*
G01X1004437Y854413D01*
X1004126Y854567D01*
G03X1003441Y854673I-839J-3149D01*
G37*
G36*
G01X1007055Y854551D02*
X1006571Y854563D01*
X1006083Y854579D01*
Y850252D01*
X1006988D01*
X1007000Y851685D01*
X1007016Y853114D01*
X1007894Y851685D01*
X1008772Y850252D01*
X1009252Y850264D01*
X1009728Y850280D01*
X1009740Y852425D01*
X1009756Y854575D01*
X1008850D01*
X1008839Y853130D01*
X1008823Y851689D01*
X1007941Y853118D01*
X1007055Y854551D01*
G37*
G36*
G01X1012882Y854535D02*
X1012579Y854551D01*
X1011776Y854567D01*
X1010559Y854583D01*
Y850244D01*
X1011752Y850260D01*
X1012535Y850276D01*
X1012835Y850295D01*
X1013035Y850339D01*
X1013260Y850421D01*
G03X1013665Y850681I-741J1602D01*
G01X1013984Y851043D01*
X1014213Y851500D01*
X1014339Y852039D01*
X1014350Y852811D01*
X1014165Y853492D01*
X1013807Y854039D01*
G03X1013299Y854409I-1216J-1135D01*
G01X1012882Y854535D01*
G37*
G36*
G01X1003441Y844831D02*
X1003075Y844819D01*
G03X1002780Y844760I124J-1390D01*
G03X1002421Y844602I523J-1675D01*
G01X1002075Y844354D01*
G03X1001780Y844051I1524J-1780D01*
G01X1001567Y843720D01*
G03X1001472Y843480I1539J-744D01*
G01X1001390Y843161D01*
X1001331Y842839D01*
G03X1001311Y842571I1817J-268D01*
G03X1001390Y841949I2498J0D01*
G03X1001618Y841370I2420J621D01*
G01X1001972Y840886D01*
G03X1002413Y840559I1180J1132D01*
G01X1002965Y840362D01*
X1003508Y840323D01*
X1004008Y840441D01*
G03X1004445Y840713I-611J1470D01*
G01X1004618Y840866D01*
X1004661Y840650D01*
X1004705Y840437D01*
X1005016Y840421D01*
X1005331Y840406D01*
Y842772D01*
X1003520D01*
Y842067D01*
X1004138D01*
X1004287Y842059D01*
X1004413Y842051D01*
G02X1004437Y842039I-6J-41D01*
G02X1004457Y841961I-55J-56D01*
G01X1004390Y841756D01*
X1004291Y841547D01*
G02X1004193Y841409I-545J285D01*
G02X1003929Y841224I-600J574D01*
G02X1003591Y841130I-491J1106D01*
G01X1003224Y841138D01*
G02X1002886Y841248I176J1116D01*
G01X1002701Y841382D01*
X1002531Y841591D01*
X1002394Y841843D01*
G02X1002311Y842106I1286J548D01*
G02X1002268Y842547I2011J420D01*
G02X1002315Y843008I2511J-25D01*
G01X1002441Y843421D01*
G02X1002630Y843720I929J-378D01*
G02X1002866Y843894I565J-523D01*
G01X1003193Y844004D01*
X1003539Y844028D01*
G02X1003839Y843961I-42J-891D01*
G02X1003980Y843878I-231J-558D01*
G01X1004126Y843740D01*
G02X1004244Y843587I-880J-799D01*
G02X1004303Y843449I-394J-250D01*
G03X1004339Y843378I182J47D01*
G03X1004394Y843343I79J62D01*
G01X1004500Y843327D01*
X1004783D01*
G03X1005118Y843335I-7J7399D01*
G03X1005209Y843378I-6J128D01*
G03X1005232Y843472I-79J70D01*
G01X1005146Y843756D01*
G03X1004996Y844043I-1010J-343D01*
G03X1004744Y844331I-1710J-1245D01*
G01X1004437Y844571D01*
X1004126Y844724D01*
G03X1003441Y844831I-839J-3149D01*
G37*
G36*
G01X1007055Y844709D02*
X1006571Y844720D01*
X1006083Y844736D01*
Y840409D01*
X1006988D01*
X1007000Y841843D01*
X1007016Y843272D01*
X1007894Y841843D01*
X1008772Y840409D01*
X1009252Y840421D01*
X1009728Y840437D01*
X1009740Y842583D01*
X1009756Y844732D01*
X1008850D01*
X1008839Y843287D01*
X1008823Y841846D01*
X1007941Y843276D01*
X1007055Y844709D01*
G37*
G36*
G01X1012882Y844693D02*
X1012579Y844709D01*
X1011776Y844724D01*
X1010559Y844740D01*
Y840402D01*
X1011752Y840417D01*
X1012535Y840433D01*
X1012835Y840453D01*
X1013035Y840496D01*
X1013260Y840579D01*
G03X1013665Y840839I-741J1602D01*
G01X1013984Y841201D01*
X1014213Y841657D01*
X1014339Y842197D01*
X1014350Y842969D01*
X1014165Y843650D01*
X1013807Y844197D01*
G03X1013299Y844567I-1216J-1135D01*
G01X1012882Y844693D01*
G37*
G36*
G01X1012488Y964378D02*
X1012185Y964394D01*
X1011382Y964409D01*
X1010165Y964425D01*
Y960087D01*
X1011358Y960102D01*
X1012142Y960118D01*
X1012441Y960138D01*
X1012642Y960181D01*
X1012866Y960264D01*
G03X1013272Y960524I-741J1602D01*
G01X1013591Y960886D01*
X1013819Y961343D01*
X1013945Y961882D01*
X1013957Y962654D01*
X1013772Y963335D01*
X1013413Y963882D01*
G03X1012906Y964252I-1216J-1135D01*
G01X1012488Y964378D01*
G37*
G36*
G01X1006661Y964394D02*
X1006177Y964406D01*
X1005689Y964421D01*
Y960094D01*
X1006594D01*
X1006606Y961528D01*
X1006622Y962957D01*
X1007500Y961528D01*
X1008378Y960094D01*
X1008858Y960106D01*
X1009335Y960122D01*
X1009346Y962268D01*
X1009362Y964417D01*
X1008457D01*
X1008445Y962972D01*
X1008429Y961531D01*
X1007547Y962961D01*
X1006661Y964394D01*
G37*
G36*
G01X1003047Y964516D02*
X1002681Y964504D01*
G03X1002386Y964445I124J-1390D01*
G03X1002028Y964287I523J-1675D01*
G01X1001681Y964039D01*
G03X1001386Y963736I1524J-1780D01*
G01X1001173Y963406D01*
G03X1001079Y963165I1539J-744D01*
G01X1000996Y962846D01*
X1000937Y962524D01*
G03X1000917Y962256I1817J-268D01*
G03X1000996Y961634I2498J0D01*
G03X1001224Y961055I2420J621D01*
G01X1001579Y960571D01*
G03X1002020Y960244I1180J1132D01*
G01X1002571Y960047D01*
X1003114Y960008D01*
X1003614Y960126D01*
G03X1004051Y960398I-611J1470D01*
G01X1004224Y960551D01*
X1004268Y960335D01*
X1004311Y960122D01*
X1004622Y960106D01*
X1004937Y960091D01*
Y962457D01*
X1003126D01*
Y961752D01*
X1003744D01*
X1003894Y961744D01*
X1004020Y961736D01*
G02X1004043Y961724I-6J-41D01*
G02X1004063Y961646I-55J-56D01*
G01X1003996Y961441D01*
X1003898Y961232D01*
G02X1003799Y961094I-545J285D01*
G02X1003535Y960909I-600J574D01*
G02X1003197Y960815I-491J1106D01*
G01X1002831Y960823D01*
G02X1002492Y960933I176J1116D01*
G01X1002307Y961067D01*
X1002138Y961276D01*
X1002000Y961528D01*
G02X1001917Y961791I1286J548D01*
G02X1001874Y962232I2011J420D01*
G02X1001921Y962693I2511J-25D01*
G01X1002047Y963106D01*
G02X1002236Y963406I929J-378D01*
G02X1002472Y963579I565J-523D01*
G01X1002799Y963689D01*
X1003146Y963713D01*
G02X1003445Y963646I-42J-891D01*
G02X1003587Y963563I-231J-558D01*
G01X1003732Y963425D01*
G02X1003850Y963272I-880J-799D01*
G02X1003909Y963134I-394J-250D01*
G03X1003945Y963063I182J47D01*
G03X1004000Y963028I79J62D01*
G01X1004106Y963012D01*
X1004390D01*
G03X1004724Y963020I-7J7399D01*
G03X1004815Y963063I-6J128D01*
G03X1004839Y963157I-79J70D01*
G01X1004752Y963441D01*
G03X1004602Y963728I-1010J-343D01*
G03X1004350Y964016I-1710J-1245D01*
G01X1004043Y964256D01*
X1003732Y964409D01*
G03X1003047Y964516I-839J-3149D01*
G37*
%LPC*%
G75*
G36*
G01X800882Y853783D02*
X801480Y853764D01*
X801854Y853748D01*
X802028Y853728D01*
X802150Y853681D01*
X802295Y853594D01*
X802500Y853409D01*
X802642Y853185D01*
G02X802732Y852906I-1131J-521D01*
G01X802780Y852551D01*
Y852165D01*
G02X802724Y851843I-1611J109D01*
G02X802614Y851575I-1184J331D01*
G02X802449Y851354I-869J479D01*
G01X802260Y851209D01*
X802055Y851118D01*
G02X801780Y851071I-371J1338D01*
G01X801374Y851055D01*
X800882D01*
Y853783D01*
G37*
G36*
G01Y843941D02*
X801480Y843921D01*
X801854Y843906D01*
X802028Y843886D01*
X802150Y843839D01*
X802295Y843752D01*
X802500Y843567D01*
X802642Y843343D01*
G02X802732Y843063I-1131J-521D01*
G01X802780Y842709D01*
Y842323D01*
G02X802724Y842000I-1611J109D01*
G02X802614Y841732I-1184J331D01*
G02X802449Y841512I-869J479D01*
G01X802260Y841366D01*
X802055Y841276D01*
G02X801780Y841228I-371J1338D01*
G01X801374Y841213D01*
X800882D01*
Y843941D01*
G37*
G36*
G01X841433Y954177D02*
X842031Y954157D01*
X842406Y954142D01*
X842579Y954122D01*
X842701Y954075D01*
X842846Y953988D01*
X843051Y953803D01*
X843193Y953579D01*
G02X843283Y953299I-1131J-521D01*
G01X843331Y952945D01*
Y952559D01*
G02X843276Y952236I-1611J109D01*
G02X843165Y951969I-1184J331D01*
G02X843000Y951748I-869J479D01*
G01X842811Y951602D01*
X842606Y951512D01*
G02X842331Y951465I-371J1338D01*
G01X841925Y951449D01*
X841433D01*
Y954177D01*
G37*
G36*
G01X831256Y991433D02*
X831276Y992031D01*
X831291Y992406D01*
X831311Y992579D01*
X831358Y992701D01*
X831445Y992846D01*
X831630Y993051D01*
X831854Y993193D01*
G02X832134Y993283I521J-1131D01*
G01X832488Y993331D01*
X832874D01*
G02X833197Y993276I-109J-1611D01*
G02X833465Y993165I-331J-1184D01*
G02X833685Y993000I-479J-869D01*
G01X833831Y992811D01*
X833921Y992606D01*
G02X833969Y992331I-1338J-371D01*
G01X833984Y991925D01*
Y991433D01*
X831256D01*
G37*
G36*
G01X1011512Y853783D02*
X1012110Y853764D01*
X1012484Y853748D01*
X1012657Y853728D01*
X1012780Y853681D01*
X1012925Y853594D01*
X1013130Y853409D01*
X1013272Y853185D01*
G02X1013362Y852906I-1131J-521D01*
G01X1013409Y852551D01*
Y852165D01*
G02X1013354Y851843I-1611J109D01*
G02X1013244Y851575I-1184J331D01*
G02X1013079Y851354I-869J479D01*
G01X1012890Y851209D01*
X1012685Y851118D01*
G02X1012409Y851071I-371J1338D01*
G01X1012004Y851055D01*
X1011512D01*
Y853783D01*
G37*
G36*
G01Y843941D02*
X1012110Y843921D01*
X1012484Y843906D01*
X1012657Y843886D01*
X1012780Y843839D01*
X1012925Y843752D01*
X1013130Y843567D01*
X1013272Y843343D01*
G02X1013362Y843063I-1131J-521D01*
G01X1013409Y842709D01*
Y842323D01*
G02X1013354Y842000I-1611J109D01*
G02X1013244Y841732I-1184J331D01*
G02X1013079Y841512I-869J479D01*
G01X1012890Y841366D01*
X1012685Y841276D01*
G02X1012409Y841228I-371J1338D01*
G01X1012004Y841213D01*
X1011512D01*
Y843941D01*
G37*
G36*
G01X1011118Y963626D02*
X1011717Y963606D01*
X1012091Y963591D01*
X1012264Y963571D01*
X1012386Y963524D01*
X1012531Y963437D01*
X1012736Y963252D01*
X1012878Y963028D01*
G02X1012969Y962748I-1131J-521D01*
G01X1013016Y962394D01*
Y962008D01*
G02X1012961Y961685I-1611J109D01*
G02X1012850Y961417I-1184J331D01*
G02X1012685Y961197I-869J479D01*
G01X1012496Y961051D01*
X1012291Y960961D01*
G02X1012016Y960913I-371J1338D01*
G01X1011610Y960898D01*
X1011118D01*
Y963626D01*
G37*
%LPD*%
G75*
G54D10*
G01X790945Y638681D02*
Y579626D01*
X1086220D01*
Y638681D01*
X790945D01*
G01X820777Y864874D02*
X821005Y864465D01*
X821310Y864231D01*
X821652Y864173D01*
X821957Y864231D01*
X822261Y864524D01*
X822452Y864874D01*
X822489Y865224D01*
X822413Y865633D01*
X822147Y865925D01*
X821881Y866042D01*
X821538D01*
G01X821881D02*
X822109Y866217D01*
X822299Y866509D01*
X822375Y866859D01*
X822299Y867210D01*
X822109Y867502D01*
X821767Y867677D01*
X821424Y867619D01*
X821081Y867385D01*
G01X824213Y867677D02*
X823908Y867560D01*
X823680Y867269D01*
X823528Y866918D01*
X823413Y866451D01*
X823375Y865925D01*
X823413Y865400D01*
X823528Y864932D01*
X823680Y864582D01*
X823908Y864290D01*
X824213Y864173D01*
X824517Y864290D01*
X824745Y864582D01*
X824898Y864932D01*
X825012Y865400D01*
X825050Y865925D01*
X825012Y866451D01*
X824898Y866918D01*
X824745Y867269D01*
X824517Y867560D01*
X824213Y867677D01*
G01X811378Y864173D02*
Y867677D01*
X810921Y866976D01*
G01Y864173D02*
X811835D01*
G01X813976Y867677D02*
X813672Y867560D01*
X813444Y867269D01*
X813291Y866918D01*
X813177Y866451D01*
X813139Y865925D01*
X813177Y865400D01*
X813291Y864932D01*
X813444Y864582D01*
X813672Y864290D01*
X813976Y864173D01*
X814281Y864290D01*
X814509Y864582D01*
X814661Y864932D01*
X814776Y865400D01*
X814814Y865925D01*
X814776Y866451D01*
X814661Y866918D01*
X814509Y867269D01*
X814281Y867560D01*
X813976Y867677D01*
G01X812559Y967323D02*
Y970827D01*
X812102Y970126D01*
G01Y967323D02*
X813016D01*
G01X820891Y970243D02*
X821119Y970593D01*
X821386Y970769D01*
X821690Y970827D01*
X822071Y970710D01*
X822337Y970418D01*
X822413Y970068D01*
X822375Y969717D01*
X822223Y969425D01*
X821462Y968841D01*
X821119Y968432D01*
X820891Y967848D01*
X820815Y967323D01*
X822413D01*
G01X824213D02*
Y970827D01*
X823756Y970126D01*
G01Y967323D02*
X824669D01*
G01X805499Y970386D02*
X805689Y970035D01*
X805917Y969802D01*
X806184Y969685D01*
X806488Y969802D01*
X806717Y970035D01*
X806945Y970386D01*
X807021Y970853D01*
Y973189D01*
G01X808858Y969685D02*
Y973189D01*
X808402Y972488D01*
G01Y969685D02*
X809315D01*
G01X826759Y970386D02*
X826949Y970035D01*
X827177Y969802D01*
X827444Y969685D01*
X827748Y969802D01*
X827976Y970035D01*
X828205Y970386D01*
X828281Y970853D01*
Y973189D01*
G01X829281Y970386D02*
X829509Y969977D01*
X829814Y969743D01*
X830156Y969685D01*
X830461Y969743D01*
X830765Y970035D01*
X830956Y970386D01*
X830993Y970736D01*
X830917Y971145D01*
X830651Y971437D01*
X830385Y971554D01*
X830042D01*
G01X830385D02*
X830613Y971729D01*
X830803Y972021D01*
X830879Y972371D01*
X830803Y972722D01*
X830613Y973014D01*
X830270Y973189D01*
X829928Y973131D01*
X829585Y972897D01*
G01X938583Y638681D02*
Y579626D01*
G01Y599311D02*
X1086220D01*
G01Y618996D02*
X938583D01*
G01X988488D02*
Y599311D01*
G01X980226Y865268D02*
X980454Y864859D01*
X980759Y864625D01*
X981101Y864567D01*
X981406Y864625D01*
X981710Y864917D01*
X981900Y865268D01*
X981938Y865618D01*
X981862Y866027D01*
X981596Y866319D01*
X981330Y866436D01*
X980987D01*
G01X981330D02*
X981558Y866611D01*
X981748Y866903D01*
X981824Y867253D01*
X981748Y867604D01*
X981558Y867896D01*
X981215Y868071D01*
X980873Y868013D01*
X980530Y867779D01*
G01X983661Y864567D02*
Y868071D01*
X983205Y867370D01*
G01Y864567D02*
X984118D01*
G01X991299D02*
Y868071D01*
X990843Y867370D01*
G01Y864567D02*
X991756D01*
G01X993898D02*
Y868071D01*
X993441Y867370D01*
G01Y864567D02*
X994354D01*
G01X990576Y970243D02*
X990804Y970593D01*
X991071Y970769D01*
X991375Y970827D01*
X991756Y970710D01*
X992022Y970418D01*
X992098Y970068D01*
X992060Y969717D01*
X991908Y969425D01*
X991147Y968841D01*
X990804Y968432D01*
X990576Y967848D01*
X990500Y967323D01*
X992098D01*
G01X993898Y970827D02*
X993593Y970710D01*
X993365Y970418D01*
X993213Y970068D01*
X993098Y969600D01*
X993060Y969075D01*
X993098Y968549D01*
X993213Y968082D01*
X993365Y967731D01*
X993593Y967440D01*
X993898Y967323D01*
X994202Y967440D01*
X994430Y967731D01*
X994583Y968082D01*
X994697Y968549D01*
X994735Y969075D01*
X994697Y969600D01*
X994583Y970068D01*
X994430Y970418D01*
X994202Y970710D01*
X993898Y970827D01*
G01X981520Y967323D02*
Y970827D01*
X980111Y968316D01*
X982015D01*
G01X983661Y970827D02*
X983357Y970710D01*
X983129Y970418D01*
X982976Y970068D01*
X982862Y969600D01*
X982824Y969075D01*
X982862Y968549D01*
X982976Y968082D01*
X983129Y967731D01*
X983357Y967440D01*
X983661Y967323D01*
X983966Y967440D01*
X984194Y967731D01*
X984346Y968082D01*
X984461Y968549D01*
X984499Y969075D01*
X984461Y969600D01*
X984346Y970068D01*
X984194Y970418D01*
X983966Y970710D01*
X983661Y970827D01*
G01X996444Y970386D02*
X996634Y970035D01*
X996862Y969802D01*
X997129Y969685D01*
X997433Y969802D01*
X997661Y970035D01*
X997890Y970386D01*
X997966Y970853D01*
Y973189D01*
G01X999080Y972605D02*
X999308Y972956D01*
X999575Y973131D01*
X999879Y973189D01*
X1000260Y973072D01*
X1000526Y972780D01*
X1000602Y972430D01*
X1000564Y972079D01*
X1000412Y971787D01*
X999651Y971204D01*
X999308Y970794D01*
X999080Y970211D01*
X999004Y969685D01*
X1000602D01*
G01X973019Y968614D02*
X973209Y968264D01*
X973437Y968030D01*
X973704Y967913D01*
X974008Y968030D01*
X974236Y968264D01*
X974465Y968614D01*
X974541Y969081D01*
Y971417D01*
G01X976835Y967913D02*
Y971417D01*
X975426Y968906D01*
X977330D01*
G54D11*
G01X853362Y1007087D02*
X858161D01*
G01X844961D02*
X849764D01*
G01X836563D02*
X841362D01*
G01X828362D02*
X833161D01*
G01X878362D02*
X883161D01*
G01X869961D02*
X874764D01*
G01X861563D02*
X866362D01*
G01X886764D02*
X891563D01*
G01X894961D02*
X899764D01*
G01X903362D02*
X908161D01*
G01X911764D02*
X916563D01*
G01X919961D02*
X924764D01*
G01X928362D02*
X933161D01*
G01X936764D02*
X941563D01*
G01X944961D02*
X949764D01*
G01X953362D02*
X958161D01*
G01X961764D02*
X966563D01*
G01X969961D02*
X974764D01*
G01X978362D02*
X983161D01*
G54D12*
G01X992717Y1010335D02*
Y1000492D01*
X992815Y1000394D01*
G01X992717Y1013287D02*
Y1021850D01*
X992815Y1021949D01*
G54D13*
G01X804176Y798622D02*
Y803622D01*
X805759D01*
X806266Y803372D01*
X806583Y803039D01*
X806709Y802372D01*
X806583Y801706D01*
X806203Y801289D01*
X805759Y801039D01*
X804176D01*
G01X805759D02*
X806709Y798622D01*
G01X809592Y800872D02*
X811618D01*
X811428Y801456D01*
X811111Y801789D01*
X810668Y801955D01*
X810225Y801872D01*
X809845Y801622D01*
X809592Y801039D01*
X809465Y800539D01*
Y800039D01*
X809592Y799539D01*
X809908Y799039D01*
X810288Y798706D01*
X810731Y798622D01*
X811174Y798789D01*
X811618Y799289D01*
G01X814500Y801955D02*
X815640Y798622D01*
X816780Y801955D01*
G01X820738Y798456D02*
X820611Y798539D01*
Y798706D01*
X820738Y798789D01*
X820865Y798706D01*
Y798539D01*
X820738Y798456D01*
G01Y800705D02*
X820611Y800789D01*
Y800956D01*
X820738Y801039D01*
X820865Y800956D01*
Y800789D01*
X820738Y800705D01*
G01X824254Y798622D02*
X825837Y803622D01*
X827420Y798622D01*
G01X826850Y800372D02*
X824823D01*
G01X804176Y811496D02*
Y806496D01*
X806709D01*
G01X808958D02*
X810541Y811496D01*
X812124Y806496D01*
G01X811554Y808246D02*
X809528D01*
G01X814247Y811496D02*
Y807913D01*
X814500Y807163D01*
X815007Y806663D01*
X815640Y806496D01*
X816273Y806663D01*
X816780Y807163D01*
X817033Y807913D01*
Y811496D01*
G01X819282Y806496D02*
Y811496D01*
X822194Y806496D01*
Y811496D01*
G01X827230Y811080D02*
X826850Y811330D01*
X826407Y811496D01*
X825900D01*
X825330Y811246D01*
X824887Y810830D01*
X824570Y810330D01*
X824317Y809496D01*
X824254Y808746D01*
X824380Y807996D01*
X824570Y807496D01*
X824950Y806996D01*
X825393Y806663D01*
X825837Y806496D01*
X826280D01*
X826723Y806663D01*
X827103Y806913D01*
X827420Y807246D01*
G01X829605Y806496D02*
Y811496D01*
G01X832265D02*
Y806496D01*
G01Y808996D02*
X829605D01*
G01X834704Y806496D02*
X837363Y811496D01*
G01X834704D02*
X837363Y806496D01*
G01X839865Y811496D02*
Y806496D01*
X842398D01*
G01X845407Y808163D02*
X847054D01*
G01X852722Y811080D02*
X852342Y811330D01*
X851899Y811496D01*
X851392D01*
X850822Y811246D01*
X850379Y810830D01*
X850062Y810330D01*
X849809Y809496D01*
X849746Y808746D01*
X849872Y807996D01*
X850062Y807496D01*
X850442Y806996D01*
X850885Y806663D01*
X851329Y806496D01*
X851772D01*
X852215Y806663D01*
X852595Y806913D01*
X852912Y807246D01*
G01X857820Y811080D02*
X857440Y811330D01*
X856997Y811496D01*
X856491D01*
X855920Y811246D01*
X855478Y810830D01*
X855161Y810330D01*
X854907Y809496D01*
X854844Y808746D01*
X854971Y807996D01*
X855161Y807496D01*
X855541Y806996D01*
X855984Y806663D01*
X856427Y806496D01*
X856870D01*
X857314Y806663D01*
X857694Y806913D01*
X858010Y807246D01*
G01X861526Y806496D02*
Y811496D01*
X860766Y810496D01*
G01Y806496D02*
X862285D01*
G01X865231Y807496D02*
X865611Y806913D01*
X866117Y806580D01*
X866687Y806496D01*
X867194Y806580D01*
X867700Y806996D01*
X868017Y807496D01*
X868080Y807996D01*
X867954Y808579D01*
X867511Y808996D01*
X867067Y809163D01*
X866497D01*
G01X867067D02*
X867447Y809413D01*
X867764Y809829D01*
X867891Y810330D01*
X867764Y810830D01*
X867447Y811246D01*
X866877Y811496D01*
X866307Y811413D01*
X865737Y811080D01*
G01X871722Y806496D02*
Y811496D01*
X870963Y810496D01*
G01Y806496D02*
X872482D01*
G01X876821Y811496D02*
X876314Y811330D01*
X875934Y810913D01*
X875681Y810413D01*
X875491Y809746D01*
X875428Y808996D01*
X875491Y808246D01*
X875681Y807579D01*
X875934Y807079D01*
X876314Y806663D01*
X876821Y806496D01*
X877328Y806663D01*
X877707Y807079D01*
X877961Y807579D01*
X878151Y808246D01*
X878214Y808996D01*
X878151Y809746D01*
X877961Y810413D01*
X877707Y810913D01*
X877328Y811330D01*
X876821Y811496D01*
G54D14*
G01X792690Y879924D02*
X792664Y884057D01*
X793583Y884063D01*
X793951Y883859D01*
X794229Y883585D01*
X794461Y883173D01*
X794648Y882692D01*
X794698Y882003D01*
X794657Y881314D01*
X794476Y880831D01*
X794249Y880416D01*
X793975Y880139D01*
X793609Y879930D01*
X792690Y879924D01*
G01X796273Y884080D02*
X797375Y884087D01*
G01X796824Y884084D02*
X796850Y879950D01*
G01X796299Y879946D02*
X797402Y879954D01*
G01X800000Y879970D02*
X799632Y880037D01*
X799309Y880310D01*
X799031Y880722D01*
X798844Y881203D01*
X798748Y881754D01*
X798745Y882305D01*
X798833Y882857D01*
X799014Y883340D01*
X799287Y883755D01*
X799607Y884033D01*
X799974Y884104D01*
X800341Y884037D01*
X800665Y883764D01*
X800943Y883352D01*
X801130Y882871D01*
X801225Y882320D01*
X801229Y881769D01*
X801141Y881218D01*
X800960Y880734D01*
X800687Y880319D01*
X800367Y880041D01*
X800000Y879970D01*
G01X803701Y879994D02*
X803674Y884128D01*
X801994Y881154D01*
X804291Y881169D01*
G01X792887Y869687D02*
X792861Y873821D01*
X793780Y873827D01*
X794148Y873622D01*
X794426Y873349D01*
X794658Y872937D01*
X794844Y872456D01*
X794895Y871767D01*
X794854Y871078D01*
X794673Y870594D01*
X794446Y870180D01*
X794172Y869902D01*
X793806Y869693D01*
X792887Y869687D01*
G01X796470Y873844D02*
X797572Y873851D01*
G01X797021Y873848D02*
X797047Y869714D01*
G01X796496Y869710D02*
X797598Y869717D01*
G01X800197Y869734D02*
X799829Y869800D01*
X799506Y870074D01*
X799228Y870486D01*
X799041Y870967D01*
X798945Y871517D01*
X798942Y872069D01*
X799030Y872620D01*
X799211Y873104D01*
X799484Y873519D01*
X799804Y873796D01*
X800170Y873868D01*
X800538Y873801D01*
X800862Y873528D01*
X801140Y873116D01*
X801327Y872635D01*
X801422Y872084D01*
X801426Y871533D01*
X801337Y870981D01*
X801157Y870498D01*
X800883Y870083D01*
X800564Y869805D01*
X800197Y869734D01*
G01X802332Y870368D02*
X802610Y870025D01*
X802933Y869820D01*
X803346Y869754D01*
X803759Y869894D01*
X804079Y870172D01*
X804305Y870656D01*
X804348Y871207D01*
X804252Y871758D01*
X804020Y872101D01*
X803697Y872374D01*
X803375Y872441D01*
X803054Y872370D01*
X802643Y872092D01*
X802769Y873884D01*
X804009Y873892D01*
G01X793084Y910433D02*
Y914567D01*
X794003D01*
X794370Y914360D01*
X794646Y914085D01*
X794875Y913671D01*
X795059Y913189D01*
X795105Y912500D01*
X795059Y911811D01*
X794875Y911329D01*
X794646Y910915D01*
X794370Y910640D01*
X794003Y910433D01*
X793084D01*
G01X796693Y914567D02*
X797795D01*
G01X797244D02*
Y910433D01*
G01X796693D02*
X797795D01*
G01X800394D02*
X800026Y910502D01*
X799705Y910778D01*
X799429Y911191D01*
X799245Y911673D01*
X799154Y912224D01*
Y912776D01*
X799245Y913327D01*
X799429Y913809D01*
X799705Y914222D01*
X800026Y914498D01*
X800394Y914567D01*
X800761Y914498D01*
X801083Y914222D01*
X801358Y913809D01*
X801542Y913327D01*
X801634Y912776D01*
Y912224D01*
X801542Y911673D01*
X801358Y911191D01*
X801083Y910778D01*
X800761Y910502D01*
X800394Y910433D01*
G01X802670Y913878D02*
X802946Y914291D01*
X803268Y914498D01*
X803635Y914567D01*
X804094Y914429D01*
X804416Y914085D01*
X804508Y913671D01*
X804462Y913258D01*
X804278Y912913D01*
X803359Y912224D01*
X802946Y911742D01*
X802670Y911053D01*
X802579Y910433D01*
X804508D01*
G01X807244D02*
Y914567D01*
X805544Y911604D01*
X807841D01*
G01X792493Y899215D02*
X792467Y903349D01*
X793386Y903355D01*
X793754Y903150D01*
X794032Y902876D01*
X794264Y902465D01*
X794451Y901983D01*
X794501Y901294D01*
X794460Y900606D01*
X794279Y900122D01*
X794052Y899707D01*
X793778Y899430D01*
X793412Y899221D01*
X792493Y899215D01*
G01X796076Y903372D02*
X797178Y903379D01*
G01X796627Y903375D02*
X796654Y899241D01*
G01X796102Y899238D02*
X797205Y899245D01*
G01X799803Y899261D02*
X799435Y899328D01*
X799112Y899602D01*
X798834Y900013D01*
X798647Y900494D01*
X798552Y901045D01*
X798548Y901596D01*
X798636Y902148D01*
X798817Y902631D01*
X799090Y903046D01*
X799410Y903324D01*
X799777Y903395D01*
X800144Y903329D01*
X800468Y903055D01*
X800746Y902644D01*
X800933Y902163D01*
X801028Y901612D01*
X801032Y901061D01*
X800944Y900509D01*
X800763Y900026D01*
X800490Y899610D01*
X800170Y899333D01*
X799803Y899261D01*
G01X802953Y899281D02*
X802926Y903415D01*
X802380Y902585D01*
G01X802402Y899278D02*
X803504Y899285D01*
G01X806076Y903435D02*
X805709Y903295D01*
X805436Y902949D01*
X805255Y902535D01*
X805120Y901982D01*
X805079Y901362D01*
X805129Y900742D01*
X805270Y900192D01*
X805456Y899780D01*
X805734Y899437D01*
X806102Y899302D01*
X806469Y899442D01*
X806742Y899788D01*
X806923Y900202D01*
X807057Y900755D01*
X807100Y901375D01*
X807050Y901995D01*
X806909Y902545D01*
X806722Y902957D01*
X806444Y903300D01*
X806076Y903435D01*
G01X792493Y889372D02*
X792467Y893506D01*
X793386Y893512D01*
X793754Y893307D01*
X794032Y893034D01*
X794264Y892622D01*
X794451Y892141D01*
X794501Y891452D01*
X794460Y890763D01*
X794279Y890280D01*
X794052Y889865D01*
X793778Y889587D01*
X793412Y889378D01*
X792493Y889372D01*
G01X796076Y893529D02*
X797178Y893536D01*
G01X796627Y893533D02*
X796654Y889399D01*
G01X796102Y889395D02*
X797205Y889402D01*
G01X799803Y889419D02*
X799435Y889485D01*
X799112Y889759D01*
X798834Y890171D01*
X798647Y890652D01*
X798552Y891202D01*
X798548Y891754D01*
X798636Y892306D01*
X798817Y892789D01*
X799090Y893204D01*
X799410Y893481D01*
X799777Y893553D01*
X800144Y893486D01*
X800468Y893213D01*
X800746Y892801D01*
X800933Y892320D01*
X801028Y891769D01*
X801032Y891218D01*
X800944Y890667D01*
X800763Y890183D01*
X800490Y889768D01*
X800170Y889490D01*
X799803Y889419D01*
G01X802058Y892878D02*
X802331Y893293D01*
X802651Y893502D01*
X803018Y893574D01*
X803478Y893439D01*
X803802Y893096D01*
X803896Y892683D01*
X803854Y892270D01*
X803672Y891924D01*
X802757Y891229D01*
X802347Y890744D01*
X802076Y890054D01*
X801988Y889433D01*
X803917Y889445D01*
G01X806102Y889459D02*
X806076Y893593D01*
X805530Y892763D01*
G01X805551Y889456D02*
X806654Y889463D01*
G01X793281Y950394D02*
Y954528D01*
X794200D01*
X794567Y954321D01*
X794843Y954045D01*
X795072Y953632D01*
X795256Y953150D01*
X795302Y952461D01*
X795256Y951772D01*
X795072Y951289D01*
X794843Y950876D01*
X794567Y950600D01*
X794200Y950394D01*
X793281D01*
G01X796890Y954528D02*
X797992D01*
G01X797441D02*
Y950394D01*
G01X796890D02*
X797992D01*
G01X800591D02*
X800223Y950463D01*
X799902Y950738D01*
X799626Y951152D01*
X799442Y951634D01*
X799350Y952185D01*
Y952736D01*
X799442Y953287D01*
X799626Y953770D01*
X799902Y954183D01*
X800223Y954459D01*
X800591Y954528D01*
X800958Y954459D01*
X801280Y954183D01*
X801555Y953770D01*
X801739Y953287D01*
X801831Y952736D01*
Y952185D01*
X801739Y951634D01*
X801555Y951152D01*
X801280Y950738D01*
X800958Y950463D01*
X800591Y950394D01*
G01X802867Y953839D02*
X803143Y954252D01*
X803465Y954459D01*
X803832Y954528D01*
X804291Y954390D01*
X804613Y954045D01*
X804705Y953632D01*
X804659Y953219D01*
X804475Y952874D01*
X803556Y952185D01*
X803143Y951703D01*
X802867Y951014D01*
X802776Y950394D01*
X804705D01*
G01X805879Y951220D02*
X806155Y950738D01*
X806522Y950463D01*
X806936Y950394D01*
X807303Y950463D01*
X807670Y950807D01*
X807900Y951220D01*
X807946Y951634D01*
X807854Y952116D01*
X807533Y952461D01*
X807211Y952598D01*
X806798D01*
G01X807211D02*
X807487Y952805D01*
X807717Y953150D01*
X807808Y953563D01*
X807717Y953976D01*
X807487Y954321D01*
X807074Y954528D01*
X806660Y954459D01*
X806247Y954183D01*
G01X792887Y930512D02*
Y934646D01*
X793806D01*
X794173Y934439D01*
X794449Y934163D01*
X794678Y933750D01*
X794862Y933268D01*
X794908Y932579D01*
X794862Y931890D01*
X794678Y931407D01*
X794449Y930994D01*
X794173Y930719D01*
X793806Y930512D01*
X792887D01*
G01X796496Y934646D02*
X797598D01*
G01X797047D02*
Y930512D01*
G01X796496D02*
X797598D01*
G01X800197D02*
X799830Y930581D01*
X799508Y930856D01*
X799232Y931270D01*
X799048Y931752D01*
X798957Y932303D01*
Y932854D01*
X799048Y933406D01*
X799232Y933888D01*
X799508Y934301D01*
X799830Y934577D01*
X800197Y934646D01*
X800564Y934577D01*
X800886Y934301D01*
X801161Y933888D01*
X801345Y933406D01*
X801437Y932854D01*
Y932303D01*
X801345Y931752D01*
X801161Y931270D01*
X800886Y930856D01*
X800564Y930581D01*
X800197Y930512D01*
G01X802336Y931339D02*
X802611Y930856D01*
X802979Y930581D01*
X803393Y930512D01*
X803760Y930581D01*
X804127Y930925D01*
X804357Y931339D01*
X804403Y931752D01*
X804311Y932234D01*
X803989Y932579D01*
X803668Y932717D01*
X803255D01*
G01X803668D02*
X803944Y932923D01*
X804173Y933268D01*
X804265Y933681D01*
X804173Y934094D01*
X803944Y934439D01*
X803530Y934646D01*
X803117Y934577D01*
X802704Y934301D01*
G01X793084Y940551D02*
Y944685D01*
X794003D01*
X794370Y944478D01*
X794646Y944203D01*
X794875Y943789D01*
X795059Y943307D01*
X795105Y942618D01*
X795059Y941929D01*
X794875Y941447D01*
X794646Y941033D01*
X794370Y940758D01*
X794003Y940551D01*
X793084D01*
G01X796693Y944685D02*
X797795D01*
G01X797244D02*
Y940551D01*
G01X796693D02*
X797795D01*
G01X800394D02*
X800026Y940620D01*
X799705Y940896D01*
X799429Y941309D01*
X799245Y941791D01*
X799154Y942343D01*
Y942894D01*
X799245Y943445D01*
X799429Y943927D01*
X799705Y944341D01*
X800026Y944616D01*
X800394Y944685D01*
X800761Y944616D01*
X801083Y944341D01*
X801358Y943927D01*
X801542Y943445D01*
X801634Y942894D01*
Y942343D01*
X801542Y941791D01*
X801358Y941309D01*
X801083Y940896D01*
X800761Y940620D01*
X800394Y940551D01*
G01X802670Y943996D02*
X802946Y944409D01*
X803268Y944616D01*
X803635Y944685D01*
X804094Y944547D01*
X804416Y944203D01*
X804508Y943789D01*
X804462Y943376D01*
X804278Y943031D01*
X803359Y942343D01*
X802946Y941860D01*
X802670Y941171D01*
X802579Y940551D01*
X804508D01*
G01X792887Y920669D02*
Y924803D01*
X793806D01*
X794173Y924596D01*
X794449Y924321D01*
X794678Y923907D01*
X794862Y923425D01*
X794908Y922736D01*
X794862Y922047D01*
X794678Y921565D01*
X794449Y921152D01*
X794173Y920876D01*
X793806Y920669D01*
X792887D01*
G01X796496Y924803D02*
X797598D01*
G01X797047D02*
Y920669D01*
G01X796496D02*
X797598D01*
G01X800197D02*
X799830Y920738D01*
X799508Y921014D01*
X799232Y921427D01*
X799048Y921909D01*
X798957Y922461D01*
Y923012D01*
X799048Y923563D01*
X799232Y924045D01*
X799508Y924459D01*
X799830Y924734D01*
X800197Y924803D01*
X800564Y924734D01*
X800886Y924459D01*
X801161Y924045D01*
X801345Y923563D01*
X801437Y923012D01*
Y922461D01*
X801345Y921909D01*
X801161Y921427D01*
X800886Y921014D01*
X800564Y920738D01*
X800197Y920669D01*
G01X802474Y924114D02*
X802749Y924528D01*
X803071Y924734D01*
X803438Y924803D01*
X803898Y924665D01*
X804219Y924321D01*
X804311Y923907D01*
X804265Y923494D01*
X804081Y923150D01*
X803163Y922461D01*
X802749Y921978D01*
X802474Y921289D01*
X802382Y920669D01*
X804311D01*
G01X805623Y924114D02*
X805899Y924528D01*
X806220Y924734D01*
X806588Y924803D01*
X807047Y924665D01*
X807369Y924321D01*
X807461Y923907D01*
X807415Y923494D01*
X807231Y923150D01*
X806312Y922461D01*
X805899Y921978D01*
X805623Y921289D01*
X805531Y920669D01*
X807461D01*
G01X833530Y849213D02*
Y853346D01*
X834678D01*
X835046Y853140D01*
X835276Y852864D01*
X835367Y852313D01*
X835276Y851762D01*
X835000Y851417D01*
X834678Y851211D01*
X833530D01*
G01X834678D02*
X835367Y849213D01*
G01X836909Y851073D02*
X838379D01*
X838241Y851555D01*
X838012Y851831D01*
X837690Y851969D01*
X837369Y851900D01*
X837093Y851693D01*
X836909Y851211D01*
X836818Y850797D01*
Y850384D01*
X836909Y849970D01*
X837139Y849557D01*
X837415Y849281D01*
X837736Y849213D01*
X838058Y849350D01*
X838379Y849764D01*
G01X841575Y853346D02*
Y849213D01*
G01Y849833D02*
X841391Y849488D01*
X841115Y849281D01*
X840794Y849213D01*
X840426Y849350D01*
X840151Y849695D01*
X839967Y850108D01*
X839921Y850591D01*
X839967Y851073D01*
X840151Y851486D01*
X840426Y851831D01*
X840794Y851969D01*
X841115Y851900D01*
X841345Y851762D01*
X841575Y851486D01*
G01X843898Y849075D02*
X843806Y849144D01*
Y849281D01*
X843898Y849350D01*
X843989Y849281D01*
Y849144D01*
X843898Y849075D01*
G01Y850935D02*
X843806Y851004D01*
Y851142D01*
X843898Y851211D01*
X843989Y851142D01*
Y851004D01*
X843898Y850935D01*
G01X833281Y842717D02*
Y846850D01*
X834200D01*
X834567Y846644D01*
X834843Y846368D01*
X835072Y845955D01*
X835256Y845472D01*
X835302Y844783D01*
X835256Y844094D01*
X835072Y843612D01*
X834843Y843199D01*
X834567Y842923D01*
X834200Y842717D01*
X833281D01*
G01X836890Y846850D02*
X837992D01*
G01X837441D02*
Y842717D01*
G01X836890D02*
X837992D01*
G01X840591D02*
X840223Y842785D01*
X839902Y843061D01*
X839626Y843474D01*
X839442Y843957D01*
X839350Y844508D01*
Y845059D01*
X839442Y845610D01*
X839626Y846093D01*
X839902Y846506D01*
X840223Y846781D01*
X840591Y846850D01*
X840958Y846781D01*
X841280Y846506D01*
X841555Y846093D01*
X841739Y845610D01*
X841831Y845059D01*
Y844508D01*
X841739Y843957D01*
X841555Y843474D01*
X841280Y843061D01*
X840958Y842785D01*
X840591Y842717D01*
G01X842867Y844439D02*
X843189Y844921D01*
X843465Y845197D01*
X843832Y845335D01*
X844154Y845197D01*
X844383Y844921D01*
X844567Y844508D01*
X844613Y844026D01*
X844567Y843612D01*
X844383Y843199D01*
X844107Y842854D01*
X843786Y842717D01*
X843419Y842854D01*
X843097Y843268D01*
X842913Y843888D01*
X842867Y844577D01*
X842959Y845472D01*
X843097Y845955D01*
X843327Y846437D01*
X843648Y846781D01*
X843970Y846850D01*
X844291Y846713D01*
X844521Y846368D01*
G01X848393Y840748D02*
Y836614D01*
X850230D01*
G01X853379D02*
X851542D01*
Y840748D01*
X853379D01*
G01X852644Y838750D02*
X851542D01*
G01X854600Y836614D02*
Y840748D01*
X855519D01*
X855886Y840541D01*
X856161Y840266D01*
X856391Y839852D01*
X856575Y839370D01*
X856621Y838681D01*
X856575Y837992D01*
X856391Y837510D01*
X856161Y837096D01*
X855886Y836821D01*
X855519Y836614D01*
X854600D01*
G01X858071Y837096D02*
X858300Y836821D01*
X858622Y836614D01*
X858898D01*
X859173Y836752D01*
X859357Y836959D01*
X859449Y837234D01*
X859403Y837648D01*
X859219Y837854D01*
X858393Y838268D01*
X858209Y838750D01*
X858300Y839094D01*
X858484Y839301D01*
X858760Y839370D01*
X859035Y839301D01*
X859311Y839094D01*
G01X828517Y890354D02*
Y894488D01*
X829436D01*
X829803Y894281D01*
X830079Y894006D01*
X830308Y893593D01*
X830492Y893110D01*
X830538Y892421D01*
X830492Y891732D01*
X830308Y891250D01*
X830079Y890837D01*
X829803Y890561D01*
X829436Y890354D01*
X828517D01*
G01X832126Y894488D02*
X833228D01*
G01X832677D02*
Y890354D01*
G01X832126D02*
X833228D01*
G01X835827D02*
X835459Y890423D01*
X835138Y890699D01*
X834862Y891112D01*
X834678Y891594D01*
X834587Y892146D01*
Y892697D01*
X834678Y893248D01*
X834862Y893730D01*
X835138Y894144D01*
X835459Y894419D01*
X835827Y894488D01*
X836194Y894419D01*
X836516Y894144D01*
X836791Y893730D01*
X836975Y893248D01*
X837067Y892697D01*
Y892146D01*
X836975Y891594D01*
X836791Y891112D01*
X836516Y890699D01*
X836194Y890423D01*
X835827Y890354D01*
G01X837966Y891181D02*
X838241Y890699D01*
X838609Y890423D01*
X839022Y890354D01*
X839390Y890423D01*
X839757Y890768D01*
X839987Y891181D01*
X840033Y891594D01*
X839941Y892077D01*
X839619Y892421D01*
X839298Y892559D01*
X838885D01*
G01X839298D02*
X839574Y892766D01*
X839803Y893110D01*
X839895Y893524D01*
X839803Y893937D01*
X839574Y894281D01*
X839160Y894488D01*
X838747Y894419D01*
X838333Y894144D01*
G01X842126Y894488D02*
X841759Y894350D01*
X841483Y894006D01*
X841299Y893593D01*
X841161Y893041D01*
X841115Y892421D01*
X841161Y891801D01*
X841299Y891250D01*
X841483Y890837D01*
X841759Y890492D01*
X842126Y890354D01*
X842493Y890492D01*
X842769Y890837D01*
X842953Y891250D01*
X843091Y891801D01*
X843137Y892421D01*
X843091Y893041D01*
X842953Y893593D01*
X842769Y894006D01*
X842493Y894350D01*
X842126Y894488D01*
G01X828517Y899409D02*
Y903543D01*
X829436D01*
X829803Y903337D01*
X830079Y903061D01*
X830308Y902648D01*
X830492Y902165D01*
X830538Y901476D01*
X830492Y900787D01*
X830308Y900305D01*
X830079Y899892D01*
X829803Y899616D01*
X829436Y899409D01*
X828517D01*
G01X832126Y903543D02*
X833228D01*
G01X832677D02*
Y899409D01*
G01X832126D02*
X833228D01*
G01X835827D02*
X835459Y899478D01*
X835138Y899754D01*
X834862Y900167D01*
X834678Y900650D01*
X834587Y901201D01*
Y901752D01*
X834678Y902303D01*
X834862Y902785D01*
X835138Y903199D01*
X835459Y903474D01*
X835827Y903543D01*
X836194Y903474D01*
X836516Y903199D01*
X836791Y902785D01*
X836975Y902303D01*
X837067Y901752D01*
Y901201D01*
X836975Y900650D01*
X836791Y900167D01*
X836516Y899754D01*
X836194Y899478D01*
X835827Y899409D01*
G01X838104Y902854D02*
X838379Y903268D01*
X838701Y903474D01*
X839068Y903543D01*
X839528Y903406D01*
X839849Y903061D01*
X839941Y902648D01*
X839895Y902234D01*
X839711Y901890D01*
X838793Y901201D01*
X838379Y900719D01*
X838104Y900030D01*
X838012Y899409D01*
X839941D01*
G01X841345Y899892D02*
X841667Y899547D01*
X842034Y899409D01*
X842402Y899547D01*
X842723Y899961D01*
X842953Y900581D01*
X843044Y901201D01*
Y901959D01*
X842953Y902579D01*
X842723Y903130D01*
X842448Y903406D01*
X842126Y903543D01*
X841759Y903406D01*
X841483Y903130D01*
X841299Y902717D01*
X841207Y902165D01*
X841299Y901683D01*
X841529Y901201D01*
X841804Y900925D01*
X842126Y900856D01*
X842493Y900994D01*
X842769Y901339D01*
X843044Y901959D01*
G01X828517Y909252D02*
Y913386D01*
X829436D01*
X829803Y913179D01*
X830079Y912904D01*
X830308Y912490D01*
X830492Y912008D01*
X830538Y911319D01*
X830492Y910630D01*
X830308Y910148D01*
X830079Y909734D01*
X829803Y909459D01*
X829436Y909252D01*
X828517D01*
G01X832126Y913386D02*
X833228D01*
G01X832677D02*
Y909252D01*
G01X832126D02*
X833228D01*
G01X835827D02*
X835459Y909321D01*
X835138Y909596D01*
X834862Y910010D01*
X834678Y910492D01*
X834587Y911043D01*
Y911594D01*
X834678Y912146D01*
X834862Y912628D01*
X835138Y913041D01*
X835459Y913317D01*
X835827Y913386D01*
X836194Y913317D01*
X836516Y913041D01*
X836791Y912628D01*
X836975Y912146D01*
X837067Y911594D01*
Y911043D01*
X836975Y910492D01*
X836791Y910010D01*
X836516Y909596D01*
X836194Y909321D01*
X835827Y909252D01*
G01X838104Y912697D02*
X838379Y913110D01*
X838701Y913317D01*
X839068Y913386D01*
X839528Y913248D01*
X839849Y912904D01*
X839941Y912490D01*
X839895Y912077D01*
X839711Y911732D01*
X838793Y911043D01*
X838379Y910561D01*
X838104Y909872D01*
X838012Y909252D01*
X839941D01*
G01X842126D02*
X842448Y909321D01*
X842815Y909528D01*
X843044Y909872D01*
X843137Y910354D01*
X843044Y910837D01*
X842769Y911250D01*
X842356Y911457D01*
X841896D01*
X841621Y911594D01*
X841391Y911939D01*
X841299Y912421D01*
X841437Y912904D01*
X841759Y913248D01*
X842126Y913386D01*
X842493Y913248D01*
X842815Y912904D01*
X842953Y912421D01*
X842861Y911939D01*
X842631Y911594D01*
X842356Y911457D01*
X841896D01*
X841483Y911250D01*
X841207Y910837D01*
X841115Y910354D01*
X841207Y909872D01*
X841437Y909528D01*
X841804Y909321D01*
X842126Y909252D01*
G01X827926Y870472D02*
Y874606D01*
X828845D01*
X829213Y874400D01*
X829488Y874124D01*
X829718Y873711D01*
X829902Y873228D01*
X829948Y872539D01*
X829902Y871850D01*
X829718Y871368D01*
X829488Y870955D01*
X829213Y870679D01*
X828845Y870472D01*
X827926D01*
G01X831535Y874606D02*
X832638D01*
G01X832087D02*
Y870472D01*
G01X831535D02*
X832638D01*
G01X835236D02*
X834869Y870541D01*
X834547Y870817D01*
X834272Y871230D01*
X834088Y871713D01*
X833996Y872264D01*
Y872815D01*
X834088Y873366D01*
X834272Y873848D01*
X834547Y874262D01*
X834869Y874537D01*
X835236Y874606D01*
X835604Y874537D01*
X835925Y874262D01*
X836201Y873848D01*
X836385Y873366D01*
X836476Y872815D01*
Y872264D01*
X836385Y871713D01*
X836201Y871230D01*
X835925Y870817D01*
X835604Y870541D01*
X835236Y870472D01*
G01X838386D02*
Y874606D01*
X837835Y873780D01*
G01Y870472D02*
X838937D01*
G01X828517Y920669D02*
Y924803D01*
X829436D01*
X829803Y924596D01*
X830079Y924321D01*
X830308Y923907D01*
X830492Y923425D01*
X830538Y922736D01*
X830492Y922047D01*
X830308Y921565D01*
X830079Y921152D01*
X829803Y920876D01*
X829436Y920669D01*
X828517D01*
G01X832126Y924803D02*
X833228D01*
G01X832677D02*
Y920669D01*
G01X832126D02*
X833228D01*
G01X835827D02*
X835459Y920738D01*
X835138Y921014D01*
X834862Y921427D01*
X834678Y921909D01*
X834587Y922461D01*
Y923012D01*
X834678Y923563D01*
X834862Y924045D01*
X835138Y924459D01*
X835459Y924734D01*
X835827Y924803D01*
X836194Y924734D01*
X836516Y924459D01*
X836791Y924045D01*
X836975Y923563D01*
X837067Y923012D01*
Y922461D01*
X836975Y921909D01*
X836791Y921427D01*
X836516Y921014D01*
X836194Y920738D01*
X835827Y920669D01*
G01X838104Y924114D02*
X838379Y924528D01*
X838701Y924734D01*
X839068Y924803D01*
X839528Y924665D01*
X839849Y924321D01*
X839941Y923907D01*
X839895Y923494D01*
X839711Y923150D01*
X838793Y922461D01*
X838379Y921978D01*
X838104Y921289D01*
X838012Y920669D01*
X839941D01*
G01X842034D02*
X842126Y921565D01*
X842264Y922323D01*
X842448Y923012D01*
X842677Y923770D01*
X843044Y924803D01*
X841207D01*
G01X828517Y940256D02*
Y944390D01*
X829436D01*
X829803Y944183D01*
X830079Y943907D01*
X830308Y943494D01*
X830492Y943012D01*
X830538Y942323D01*
X830492Y941634D01*
X830308Y941152D01*
X830079Y940738D01*
X829803Y940463D01*
X829436Y940256D01*
X828517D01*
G01X832126Y944390D02*
X833228D01*
G01X832677D02*
Y940256D01*
G01X832126D02*
X833228D01*
G01X835827D02*
X835459Y940325D01*
X835138Y940600D01*
X834862Y941014D01*
X834678Y941496D01*
X834587Y942047D01*
Y942598D01*
X834678Y943150D01*
X834862Y943632D01*
X835138Y944045D01*
X835459Y944321D01*
X835827Y944390D01*
X836194Y944321D01*
X836516Y944045D01*
X836791Y943632D01*
X836975Y943150D01*
X837067Y942598D01*
Y942047D01*
X836975Y941496D01*
X836791Y941014D01*
X836516Y940600D01*
X836194Y940325D01*
X835827Y940256D01*
G01X838104Y943701D02*
X838379Y944114D01*
X838701Y944321D01*
X839068Y944390D01*
X839528Y944252D01*
X839849Y943907D01*
X839941Y943494D01*
X839895Y943081D01*
X839711Y942736D01*
X838793Y942047D01*
X838379Y941565D01*
X838104Y940876D01*
X838012Y940256D01*
X839941D01*
G01X841115Y940876D02*
X841391Y940531D01*
X841713Y940325D01*
X842126Y940256D01*
X842539Y940394D01*
X842861Y940669D01*
X843091Y941152D01*
X843137Y941703D01*
X843044Y942254D01*
X842815Y942598D01*
X842493Y942874D01*
X842172Y942943D01*
X841850Y942874D01*
X841437Y942598D01*
X841575Y944390D01*
X842815D01*
G01X828419Y930413D02*
Y934547D01*
X829337D01*
X829705Y934341D01*
X829980Y934065D01*
X830210Y933652D01*
X830394Y933169D01*
X830440Y932480D01*
X830394Y931791D01*
X830210Y931309D01*
X829980Y930896D01*
X829705Y930620D01*
X829337Y930413D01*
X828419D01*
G01X832028Y934547D02*
X833130D01*
G01X832579D02*
Y930413D01*
G01X832028D02*
X833130D01*
G01X835728D02*
X835361Y930482D01*
X835039Y930758D01*
X834764Y931171D01*
X834580Y931654D01*
X834488Y932205D01*
Y932756D01*
X834580Y933307D01*
X834764Y933789D01*
X835039Y934203D01*
X835361Y934478D01*
X835728Y934547D01*
X836096Y934478D01*
X836417Y934203D01*
X836693Y933789D01*
X836877Y933307D01*
X836969Y932756D01*
Y932205D01*
X836877Y931654D01*
X836693Y931171D01*
X836417Y930758D01*
X836096Y930482D01*
X835728Y930413D01*
G01X838005Y933858D02*
X838281Y934272D01*
X838602Y934478D01*
X838970Y934547D01*
X839429Y934409D01*
X839751Y934065D01*
X839843Y933652D01*
X839796Y933238D01*
X839613Y932894D01*
X838694Y932205D01*
X838281Y931722D01*
X838005Y931033D01*
X837913Y930413D01*
X839843D01*
G01X841155Y932136D02*
X841476Y932618D01*
X841752Y932894D01*
X842119Y933031D01*
X842441Y932894D01*
X842670Y932618D01*
X842854Y932205D01*
X842900Y931722D01*
X842854Y931309D01*
X842670Y930896D01*
X842395Y930551D01*
X842074Y930413D01*
X841706Y930551D01*
X841385Y930965D01*
X841201Y931585D01*
X841155Y932274D01*
X841247Y933169D01*
X841385Y933652D01*
X841614Y934134D01*
X841936Y934478D01*
X842257Y934547D01*
X842579Y934409D01*
X842808Y934065D01*
G01X809226Y995118D02*
X809409Y995325D01*
X809547Y995669D01*
X809639Y996152D01*
X809547Y996565D01*
X809363Y996841D01*
X809042Y997047D01*
X807802D01*
Y992913D01*
X809318D01*
X809639Y993189D01*
X809823Y993602D01*
X809915Y994085D01*
X809823Y994567D01*
X809547Y994980D01*
X809226Y995118D01*
X807802D01*
G01X812008Y997047D02*
Y992913D01*
G01X810952Y997047D02*
X813064D01*
G01X814101Y992913D02*
Y997047D01*
X816214Y992913D01*
Y997047D01*
G01X817710Y994291D02*
X818904D01*
G01X821457Y992913D02*
Y997047D01*
X820906Y996220D01*
G01Y992913D02*
X822008D01*
G01X807454Y985433D02*
Y989567D01*
X808373D01*
X808740Y989360D01*
X809016Y989085D01*
X809245Y988671D01*
X809429Y988189D01*
X809475Y987500D01*
X809429Y986811D01*
X809245Y986329D01*
X809016Y985915D01*
X808740Y985640D01*
X808373Y985433D01*
X807454D01*
G01X811063Y989567D02*
X812165D01*
G01X811614D02*
Y985433D01*
G01X811063D02*
X812165D01*
G01X814764D02*
X814396Y985502D01*
X814075Y985778D01*
X813799Y986191D01*
X813615Y986673D01*
X813524Y987224D01*
Y987776D01*
X813615Y988327D01*
X813799Y988809D01*
X814075Y989222D01*
X814396Y989498D01*
X814764Y989567D01*
X815131Y989498D01*
X815453Y989222D01*
X815728Y988809D01*
X815912Y988327D01*
X816004Y987776D01*
Y987224D01*
X815912Y986673D01*
X815728Y986191D01*
X815453Y985778D01*
X815131Y985502D01*
X814764Y985433D01*
G01X817913D02*
Y989567D01*
X817362Y988740D01*
G01Y985433D02*
X818465D01*
G01X820052Y986260D02*
X820328Y985778D01*
X820696Y985502D01*
X821109Y985433D01*
X821476Y985502D01*
X821844Y985846D01*
X822074Y986260D01*
X822119Y986673D01*
X822028Y987156D01*
X821706Y987500D01*
X821385Y987638D01*
X820971D01*
G01X821385D02*
X821660Y987844D01*
X821890Y988189D01*
X821981Y988602D01*
X821890Y989016D01*
X821660Y989360D01*
X821247Y989567D01*
X820833Y989498D01*
X820420Y989222D01*
G01X911148Y763435D02*
X910873Y763642D01*
X910551Y763780D01*
X910184D01*
X909770Y763573D01*
X909449Y763228D01*
X909219Y762815D01*
X909035Y762126D01*
X908989Y761506D01*
X909081Y760886D01*
X909219Y760472D01*
X909495Y760059D01*
X909816Y759783D01*
X910138Y759646D01*
X910459D01*
X910781Y759783D01*
X911056Y759990D01*
X911286Y760266D01*
G01X914298Y763435D02*
X914022Y763642D01*
X913701Y763780D01*
X913333D01*
X912920Y763573D01*
X912598Y763228D01*
X912369Y762815D01*
X912185Y762126D01*
X912139Y761506D01*
X912231Y760886D01*
X912369Y760472D01*
X912644Y760059D01*
X912966Y759783D01*
X913287Y759646D01*
X913609D01*
X913930Y759783D01*
X914206Y759990D01*
X914436Y760266D01*
G01X915840Y761024D02*
X917034D01*
G01X918438Y759646D02*
X919587Y763780D01*
X920735Y759646D01*
G01X920322Y761093D02*
X918852D01*
G01X921680Y759646D02*
Y763780D01*
X923793Y759646D01*
Y763780D01*
G01X925886D02*
Y759646D01*
G01X924830Y763780D02*
X926942D01*
G01X929954Y759646D02*
X928117D01*
Y763780D01*
X929954D01*
G01X929219Y761781D02*
X928117D01*
G01X931129Y759646D02*
Y763780D01*
X933241Y759646D01*
Y763780D01*
G01X934278Y759646D02*
Y763780D01*
X936391Y759646D01*
Y763780D01*
G01X937336Y759646D02*
X938484Y763780D01*
X939633Y759646D01*
G01X939219Y761093D02*
X937749D01*
G01X941037Y761024D02*
X942231D01*
G01X943773Y759646D02*
Y763780D01*
X944692D01*
X945059Y763573D01*
X945335Y763297D01*
X945564Y762884D01*
X945748Y762402D01*
X945794Y761713D01*
X945748Y761024D01*
X945564Y760541D01*
X945335Y760128D01*
X945059Y759852D01*
X944692Y759646D01*
X943773D01*
G01X946922D02*
Y763780D01*
G01X948668D02*
X946922Y761230D01*
G01X948944Y759646D02*
X947704Y762402D01*
G01X864173Y851673D02*
X865092D01*
Y850433D01*
X864816Y850020D01*
X864495Y849744D01*
X864035Y849606D01*
X863576Y849744D01*
X863255Y850020D01*
X862979Y850433D01*
X862795Y850915D01*
X862704Y851467D01*
Y851949D01*
X862795Y852362D01*
X862979Y852844D01*
X863255Y853258D01*
X863530Y853533D01*
X863898Y853740D01*
X864219D01*
X864587Y853602D01*
X864862Y853327D01*
G01X866404Y849606D02*
Y852362D01*
G01Y851811D02*
X866634Y852087D01*
X866863Y852293D01*
X867185Y852362D01*
X867415Y852293D01*
X867690Y852087D01*
G01X869508Y851467D02*
X870978D01*
X870840Y851949D01*
X870610Y852224D01*
X870289Y852362D01*
X869967Y852293D01*
X869692Y852087D01*
X869508Y851604D01*
X869416Y851191D01*
Y850778D01*
X869508Y850364D01*
X869737Y849951D01*
X870013Y849675D01*
X870335Y849606D01*
X870656Y849744D01*
X870978Y850157D01*
G01X872657Y851467D02*
X874127D01*
X873989Y851949D01*
X873760Y852224D01*
X873438Y852362D01*
X873117Y852293D01*
X872841Y852087D01*
X872657Y851604D01*
X872566Y851191D01*
Y850778D01*
X872657Y850364D01*
X872887Y849951D01*
X873163Y849675D01*
X873484Y849606D01*
X873806Y849744D01*
X874127Y850157D01*
G01X875715Y849606D02*
Y852362D01*
G01Y851673D02*
X875899Y852018D01*
X876174Y852293D01*
X876542Y852362D01*
X876863Y852293D01*
X877139Y852018D01*
X877277Y851535D01*
Y849606D01*
G01X879646Y849469D02*
X879554Y849537D01*
Y849675D01*
X879646Y849744D01*
X879737Y849675D01*
Y849537D01*
X879646Y849469D01*
G01Y851329D02*
X879554Y851398D01*
Y851535D01*
X879646Y851604D01*
X879737Y851535D01*
Y851398D01*
X879646Y851329D01*
G01X863674Y842913D02*
Y847047D01*
X864593D01*
X864961Y846841D01*
X865236Y846565D01*
X865466Y846152D01*
X865650Y845669D01*
X865696Y844980D01*
X865650Y844291D01*
X865466Y843809D01*
X865236Y843396D01*
X864961Y843120D01*
X864593Y842913D01*
X863674D01*
G01X867283Y847047D02*
X868386D01*
G01X867835D02*
Y842913D01*
G01X867283D02*
X868386D01*
G01X870984D02*
X870617Y842982D01*
X870295Y843258D01*
X870020Y843671D01*
X869836Y844154D01*
X869744Y844705D01*
Y845256D01*
X869836Y845807D01*
X870020Y846289D01*
X870295Y846703D01*
X870617Y846978D01*
X870984Y847047D01*
X871352Y846978D01*
X871673Y846703D01*
X871949Y846289D01*
X872133Y845807D01*
X872224Y845256D01*
Y844705D01*
X872133Y844154D01*
X871949Y843671D01*
X871673Y843258D01*
X871352Y842982D01*
X870984Y842913D01*
G01X874042D02*
X874134Y843809D01*
X874272Y844567D01*
X874456Y845256D01*
X874685Y846014D01*
X875052Y847047D01*
X873215D01*
G01X869488Y980906D02*
X873622D01*
G01X869488Y979849D02*
Y981962D01*
G01X873622Y983091D02*
X869488Y985020D01*
G01Y983091D02*
X873622Y985020D01*
G01Y986194D02*
X869488D01*
Y987113D01*
X869695Y987480D01*
X869970Y987756D01*
X870384Y987985D01*
X870866Y988169D01*
X871555Y988215D01*
X872244Y988169D01*
X872726Y987985D01*
X873140Y987756D01*
X873415Y987480D01*
X873622Y987113D01*
Y986194D01*
G01Y989436D02*
X872244Y991273D01*
X870866Y989436D01*
G01X873622Y992585D02*
X872244Y994422D01*
X870866Y992585D01*
G01X864567Y979987D02*
X860433D01*
Y981135D01*
X860640Y981503D01*
X860915Y981732D01*
X861467Y981824D01*
X862018Y981732D01*
X862362Y981457D01*
X862569Y981135D01*
Y979987D01*
G01Y981135D02*
X864567Y981824D01*
G01Y983091D02*
X860433Y985020D01*
G01Y983091D02*
X864567Y985020D01*
G01Y986194D02*
X860433D01*
Y987113D01*
X860640Y987480D01*
X860915Y987756D01*
X861329Y987985D01*
X861811Y988169D01*
X862500Y988215D01*
X863189Y988169D01*
X863671Y987985D01*
X864085Y987756D01*
X864360Y987480D01*
X864567Y987113D01*
Y986194D01*
G01Y991273D02*
X863189Y989436D01*
X861811Y991273D01*
G01X864567Y994422D02*
X863189Y992585D01*
X861811Y994422D01*
G01X890748Y987598D02*
X894882D01*
G01X890748Y986542D02*
Y988655D01*
G01X894882Y989554D02*
X890748D01*
X894193Y990748D01*
X890748Y991942D01*
X894882D01*
G01X894331Y992933D02*
X894675Y993300D01*
X894882Y993714D01*
Y994081D01*
X894675Y994449D01*
X894331Y994724D01*
X893848Y994862D01*
X893366Y994770D01*
X892953Y994541D01*
X892677Y994127D01*
X892539Y993576D01*
X892264Y993255D01*
X891781Y993117D01*
X891299Y993209D01*
X890955Y993438D01*
X890748Y993760D01*
Y994081D01*
X890886Y994403D01*
X891230Y994678D01*
G01X885433Y987074D02*
X881299D01*
Y988222D01*
X881506Y988589D01*
X881781Y988819D01*
X882333Y988911D01*
X882884Y988819D01*
X883228Y988543D01*
X883435Y988222D01*
Y987074D01*
G01Y988222D02*
X885433Y988911D01*
G01X884882Y990177D02*
X885226Y990544D01*
X885433Y990958D01*
Y991326D01*
X885226Y991693D01*
X884882Y991969D01*
X884400Y992106D01*
X883917Y992015D01*
X883504Y991785D01*
X883228Y991371D01*
X883091Y990820D01*
X882815Y990499D01*
X882333Y990361D01*
X881850Y990453D01*
X881506Y990682D01*
X881299Y991004D01*
Y991326D01*
X881437Y991647D01*
X881781Y991922D01*
G01X881299Y994291D02*
X885433D01*
G01X881299Y993235D02*
Y995348D01*
G01X910039Y987598D02*
X914173D01*
G01X910039Y986542D02*
Y988655D01*
G01X914173Y989737D02*
X910039D01*
Y990656D01*
X910246Y991024D01*
X910522Y991299D01*
X910935Y991529D01*
X911417Y991713D01*
X912106Y991759D01*
X912795Y991713D01*
X913278Y991529D01*
X913691Y991299D01*
X913967Y991024D01*
X914173Y990656D01*
Y989737D01*
G01Y993898D02*
X914104Y993530D01*
X913829Y993209D01*
X913415Y992933D01*
X912933Y992749D01*
X912382Y992657D01*
X911831D01*
X911280Y992749D01*
X910797Y992933D01*
X910384Y993209D01*
X910108Y993530D01*
X910039Y993898D01*
X910108Y994265D01*
X910384Y994587D01*
X910797Y994862D01*
X911280Y995046D01*
X911831Y995138D01*
X912382D01*
X912933Y995046D01*
X913415Y994862D01*
X913829Y994587D01*
X914104Y994265D01*
X914173Y993898D01*
G01X899803Y987598D02*
X903937D01*
G01X899803Y986542D02*
Y988655D01*
G01X900148Y991759D02*
X899941Y991483D01*
X899803Y991161D01*
Y990794D01*
X900010Y990381D01*
X900354Y990059D01*
X900768Y989830D01*
X901457Y989646D01*
X902077Y989600D01*
X902697Y989692D01*
X903110Y989830D01*
X903524Y990105D01*
X903799Y990426D01*
X903937Y990748D01*
Y991070D01*
X903799Y991391D01*
X903593Y991667D01*
X903317Y991896D01*
G01X903937Y992887D02*
X899803D01*
G01Y994633D02*
X902352Y992887D01*
G01X903937Y994908D02*
X901181Y993668D01*
G01X914062Y765945D02*
Y770079D01*
X915256Y766634D01*
X916450Y770079D01*
Y765945D01*
G01X918406D02*
X918130Y766014D01*
X917854Y766289D01*
X917670Y766772D01*
X917579Y767323D01*
X917670Y767874D01*
X917854Y768356D01*
X918130Y768632D01*
X918406Y768701D01*
X918681Y768632D01*
X918957Y768356D01*
X919141Y767874D01*
X919186Y767323D01*
X919141Y766772D01*
X918957Y766289D01*
X918681Y766014D01*
X918406Y765945D01*
G01X920774Y768701D02*
Y766772D01*
X920958Y766289D01*
X921233Y766014D01*
X921555Y765945D01*
X921877Y766014D01*
X922152Y766289D01*
X922336Y766772D01*
G01Y765945D02*
Y768701D01*
G01X923924Y765945D02*
Y768701D01*
G01Y768012D02*
X924107Y768356D01*
X924383Y768632D01*
X924751Y768701D01*
X925072Y768632D01*
X925348Y768356D01*
X925485Y767874D01*
Y765945D01*
G01X927854Y770079D02*
Y765945D01*
G01X927211Y768701D02*
X928497D01*
G01X933878Y765945D02*
Y769459D01*
X933970Y769803D01*
X934154Y770010D01*
X934429Y770079D01*
X934705Y769941D01*
X934843Y769596D01*
G01X934291Y768425D02*
X933373D01*
G01X937303Y765945D02*
X937028Y766014D01*
X936752Y766289D01*
X936568Y766772D01*
X936476Y767323D01*
X936568Y767874D01*
X936752Y768356D01*
X937028Y768632D01*
X937303Y768701D01*
X937579Y768632D01*
X937854Y768356D01*
X938038Y767874D01*
X938084Y767323D01*
X938038Y766772D01*
X937854Y766289D01*
X937579Y766014D01*
X937303Y765945D01*
G01X939810D02*
Y768701D01*
G01Y768150D02*
X940039Y768425D01*
X940269Y768632D01*
X940591Y768701D01*
X940820Y768632D01*
X941096Y768425D01*
G01X943602Y765807D02*
X943511Y765876D01*
Y766014D01*
X943602Y766083D01*
X943694Y766014D01*
Y765876D01*
X943602Y765807D01*
G01Y767667D02*
X943511Y767736D01*
Y767874D01*
X943602Y767943D01*
X943694Y767874D01*
Y767736D01*
X943602Y767667D01*
G01X963359Y911850D02*
X963543Y912057D01*
X963681Y912402D01*
X963773Y912884D01*
X963681Y913297D01*
X963497Y913573D01*
X963176Y913780D01*
X961936D01*
Y909646D01*
X963452D01*
X963773Y909921D01*
X963957Y910335D01*
X964048Y910817D01*
X963957Y911299D01*
X963681Y911713D01*
X963359Y911850D01*
X961936D01*
G01X965223Y909646D02*
Y913780D01*
X966326D01*
X966693Y913573D01*
X966969Y913091D01*
X967060Y912539D01*
X966969Y911988D01*
X966739Y911575D01*
X966326Y911368D01*
X965223D01*
G01X968373Y909646D02*
Y913780D01*
X969521D01*
X969889Y913573D01*
X970118Y913297D01*
X970210Y912746D01*
X970118Y912195D01*
X969843Y911850D01*
X969521Y911644D01*
X968373D01*
G01X969521D02*
X970210Y909646D01*
G01X971476Y910197D02*
X971844Y909852D01*
X972257Y909646D01*
X972625D01*
X972992Y909852D01*
X973268Y910197D01*
X973406Y910679D01*
X973314Y911161D01*
X973084Y911575D01*
X972670Y911850D01*
X972119Y911988D01*
X971798Y912264D01*
X971660Y912746D01*
X971752Y913228D01*
X971981Y913573D01*
X972303Y913780D01*
X972625D01*
X972946Y913642D01*
X973222Y913297D01*
G01X975591Y913780D02*
Y909646D01*
G01X974534Y913780D02*
X976647D01*
G01X962572Y879530D02*
X962546Y883664D01*
X963465Y883670D01*
X963833Y883465D01*
X964111Y883191D01*
X964343Y882780D01*
X964530Y882298D01*
X964580Y881609D01*
X964539Y880920D01*
X964358Y880437D01*
X964131Y880022D01*
X963857Y879745D01*
X963491Y879536D01*
X962572Y879530D01*
G01X966155Y883687D02*
X967257Y883694D01*
G01X966706Y883690D02*
X966732Y879556D01*
G01X966181Y879553D02*
X967283Y879560D01*
G01X969882Y879576D02*
X969514Y879643D01*
X969191Y879917D01*
X968913Y880328D01*
X968726Y880809D01*
X968630Y881360D01*
X968627Y881911D01*
X968715Y882463D01*
X968896Y882946D01*
X969169Y883361D01*
X969489Y883639D01*
X969856Y883710D01*
X970223Y883644D01*
X970547Y883370D01*
X970825Y882959D01*
X971012Y882478D01*
X971107Y881927D01*
X971111Y881376D01*
X971022Y880824D01*
X970842Y880341D01*
X970569Y879925D01*
X970249Y879648D01*
X969882Y879576D01*
G01X973031Y879596D02*
X973005Y883730D01*
X972459Y882900D01*
G01X972480Y879593D02*
X973583Y879600D01*
G01X975297Y881333D02*
X975616Y881818D01*
X975890Y882095D01*
X976256Y882235D01*
X976579Y882100D01*
X976810Y881826D01*
X976996Y881413D01*
X977045Y880931D01*
X977002Y880517D01*
X976821Y880103D01*
X976548Y879757D01*
X976227Y879617D01*
X975859Y879752D01*
X975535Y880164D01*
X975347Y880783D01*
X975296Y881471D01*
X975383Y882367D01*
X975517Y882851D01*
X975744Y883334D01*
X976063Y883681D01*
X976384Y883752D01*
X976707Y883616D01*
X976939Y883273D01*
G01X962178Y869687D02*
X962152Y873821D01*
X963071Y873827D01*
X963439Y873622D01*
X963717Y873349D01*
X963949Y872937D01*
X964136Y872456D01*
X964186Y871767D01*
X964145Y871078D01*
X963964Y870594D01*
X963737Y870180D01*
X963463Y869902D01*
X963097Y869693D01*
X962178Y869687D01*
G01X965761Y873844D02*
X966863Y873851D01*
G01X966312Y873848D02*
X966339Y869714D01*
G01X965787Y869710D02*
X966890Y869717D01*
G01X969488Y869734D02*
X969120Y869800D01*
X968797Y870074D01*
X968519Y870486D01*
X968332Y870967D01*
X968237Y871517D01*
X968233Y872069D01*
X968321Y872620D01*
X968502Y873104D01*
X968775Y873519D01*
X969095Y873796D01*
X969462Y873868D01*
X969830Y873801D01*
X970153Y873528D01*
X970431Y873116D01*
X970618Y872635D01*
X970713Y872084D01*
X970717Y871533D01*
X970629Y870981D01*
X970448Y870498D01*
X970175Y870083D01*
X969855Y869805D01*
X969488Y869734D01*
G01X972638Y869754D02*
X972611Y873888D01*
X972065Y873057D01*
G01X972087Y869750D02*
X973189Y869757D01*
G01X975696Y869774D02*
X975781Y870670D01*
X975915Y871428D01*
X976094Y872119D01*
X976319Y872878D01*
X976680Y873914D01*
X974843Y873902D01*
G01X961981Y919685D02*
Y923819D01*
X962900D01*
X963268Y923612D01*
X963543Y923337D01*
X963773Y922923D01*
X963957Y922441D01*
X964003Y921752D01*
X963957Y921063D01*
X963773Y920581D01*
X963543Y920167D01*
X963268Y919892D01*
X962900Y919685D01*
X961981D01*
G01X965591Y923819D02*
X966693D01*
G01X966142D02*
Y919685D01*
G01X965591D02*
X966693D01*
G01X969291D02*
X968924Y919754D01*
X968602Y920030D01*
X968327Y920443D01*
X968143Y920925D01*
X968051Y921476D01*
Y922028D01*
X968143Y922579D01*
X968327Y923061D01*
X968602Y923474D01*
X968924Y923750D01*
X969291Y923819D01*
X969659Y923750D01*
X969980Y923474D01*
X970256Y923061D01*
X970440Y922579D01*
X970531Y922028D01*
Y921476D01*
X970440Y920925D01*
X970256Y920443D01*
X969980Y920030D01*
X969659Y919754D01*
X969291Y919685D01*
G01X972441D02*
Y923819D01*
X971890Y922992D01*
G01Y919685D02*
X972992D01*
G01X975591D02*
X975912Y919754D01*
X976280Y919961D01*
X976509Y920305D01*
X976601Y920787D01*
X976509Y921270D01*
X976233Y921683D01*
X975820Y921890D01*
X975361D01*
X975085Y922028D01*
X974856Y922372D01*
X974764Y922854D01*
X974902Y923337D01*
X975223Y923681D01*
X975591Y923819D01*
X975958Y923681D01*
X976280Y923337D01*
X976417Y922854D01*
X976326Y922372D01*
X976096Y922028D01*
X975820Y921890D01*
X975361D01*
X974948Y921683D01*
X974672Y921270D01*
X974580Y920787D01*
X974672Y920305D01*
X974902Y919961D01*
X975269Y919754D01*
X975591Y919685D01*
G01X961981Y929724D02*
Y933858D01*
X962900D01*
X963268Y933652D01*
X963543Y933376D01*
X963773Y932963D01*
X963957Y932480D01*
X964003Y931791D01*
X963957Y931102D01*
X963773Y930620D01*
X963543Y930207D01*
X963268Y929931D01*
X962900Y929724D01*
X961981D01*
G01X965591Y933858D02*
X966693D01*
G01X966142D02*
Y929724D01*
G01X965591D02*
X966693D01*
G01X969291D02*
X968924Y929793D01*
X968602Y930069D01*
X968327Y930482D01*
X968143Y930965D01*
X968051Y931516D01*
Y932067D01*
X968143Y932618D01*
X968327Y933100D01*
X968602Y933514D01*
X968924Y933789D01*
X969291Y933858D01*
X969659Y933789D01*
X969980Y933514D01*
X970256Y933100D01*
X970440Y932618D01*
X970531Y932067D01*
Y931516D01*
X970440Y930965D01*
X970256Y930482D01*
X969980Y930069D01*
X969659Y929793D01*
X969291Y929724D01*
G01X972441D02*
Y933858D01*
X971890Y933031D01*
G01Y929724D02*
X972992D01*
G01X974810Y930207D02*
X975131Y929862D01*
X975499Y929724D01*
X975866Y929862D01*
X976188Y930276D01*
X976417Y930896D01*
X976509Y931516D01*
Y932274D01*
X976417Y932894D01*
X976188Y933445D01*
X975912Y933720D01*
X975591Y933858D01*
X975223Y933720D01*
X974948Y933445D01*
X974764Y933031D01*
X974672Y932480D01*
X974764Y931998D01*
X974993Y931516D01*
X975269Y931240D01*
X975591Y931171D01*
X975958Y931309D01*
X976233Y931654D01*
X976509Y932274D01*
G01X961981Y939764D02*
Y943898D01*
X962900D01*
X963268Y943691D01*
X963543Y943415D01*
X963773Y943002D01*
X963957Y942520D01*
X964003Y941831D01*
X963957Y941142D01*
X963773Y940659D01*
X963543Y940246D01*
X963268Y939970D01*
X962900Y939764D01*
X961981D01*
G01X965591Y943898D02*
X966693D01*
G01X966142D02*
Y939764D01*
G01X965591D02*
X966693D01*
G01X969291D02*
X968924Y939833D01*
X968602Y940108D01*
X968327Y940522D01*
X968143Y941004D01*
X968051Y941555D01*
Y942106D01*
X968143Y942657D01*
X968327Y943140D01*
X968602Y943553D01*
X968924Y943829D01*
X969291Y943898D01*
X969659Y943829D01*
X969980Y943553D01*
X970256Y943140D01*
X970440Y942657D01*
X970531Y942106D01*
Y941555D01*
X970440Y941004D01*
X970256Y940522D01*
X969980Y940108D01*
X969659Y939833D01*
X969291Y939764D01*
G01X971568Y943209D02*
X971844Y943622D01*
X972165Y943829D01*
X972533Y943898D01*
X972992Y943760D01*
X973314Y943415D01*
X973406Y943002D01*
X973359Y942589D01*
X973176Y942244D01*
X972257Y941555D01*
X971844Y941073D01*
X971568Y940384D01*
X971476Y939764D01*
X973406D01*
G01X975591Y943898D02*
X975223Y943760D01*
X974948Y943415D01*
X974764Y943002D01*
X974626Y942451D01*
X974580Y941831D01*
X974626Y941211D01*
X974764Y940659D01*
X974948Y940246D01*
X975223Y939902D01*
X975591Y939764D01*
X975958Y939902D01*
X976233Y940246D01*
X976417Y940659D01*
X976555Y941211D01*
X976601Y941831D01*
X976555Y942451D01*
X976417Y943002D01*
X976233Y943415D01*
X975958Y943760D01*
X975591Y943898D01*
G01X965328Y949606D02*
Y953740D01*
X966247D01*
X966614Y953533D01*
X966890Y953258D01*
X967119Y952844D01*
X967303Y952362D01*
X967349Y951673D01*
X967303Y950984D01*
X967119Y950502D01*
X966890Y950089D01*
X966614Y949813D01*
X966247Y949606D01*
X965328D01*
G01X968937Y953740D02*
X970039D01*
G01X969488D02*
Y949606D01*
G01X968937D02*
X970039D01*
G01X972638D02*
X972270Y949675D01*
X971949Y949951D01*
X971673Y950364D01*
X971489Y950846D01*
X971398Y951398D01*
Y951949D01*
X971489Y952500D01*
X971673Y952982D01*
X971949Y953396D01*
X972270Y953671D01*
X972638Y953740D01*
X973005Y953671D01*
X973327Y953396D01*
X973602Y952982D01*
X973786Y952500D01*
X973878Y951949D01*
Y951398D01*
X973786Y950846D01*
X973602Y950364D01*
X973327Y949951D01*
X973005Y949675D01*
X972638Y949606D01*
G01X974915Y951329D02*
X975236Y951811D01*
X975512Y952087D01*
X975879Y952224D01*
X976201Y952087D01*
X976430Y951811D01*
X976614Y951398D01*
X976660Y950915D01*
X976614Y950502D01*
X976430Y950089D01*
X976155Y949744D01*
X975833Y949606D01*
X975466Y949744D01*
X975144Y950157D01*
X974961Y950778D01*
X974915Y951467D01*
X975007Y952362D01*
X975144Y952844D01*
X975374Y953327D01*
X975696Y953671D01*
X976017Y953740D01*
X976339Y953602D01*
X976568Y953258D01*
G01X966115Y960236D02*
Y964370D01*
X967034D01*
X967402Y964163D01*
X967677Y963888D01*
X967907Y963474D01*
X968091Y962992D01*
X968137Y962303D01*
X968091Y961614D01*
X967907Y961132D01*
X967677Y960719D01*
X967402Y960443D01*
X967034Y960236D01*
X966115D01*
G01X969724Y964370D02*
X970827D01*
G01X970276D02*
Y960236D01*
G01X969724D02*
X970827D01*
G01X973425D02*
X973058Y960305D01*
X972736Y960581D01*
X972461Y960994D01*
X972277Y961476D01*
X972185Y962028D01*
Y962579D01*
X972277Y963130D01*
X972461Y963612D01*
X972736Y964026D01*
X973058Y964301D01*
X973425Y964370D01*
X973793Y964301D01*
X974114Y964026D01*
X974390Y963612D01*
X974574Y963130D01*
X974665Y962579D01*
Y962028D01*
X974574Y961476D01*
X974390Y960994D01*
X974114Y960581D01*
X973793Y960305D01*
X973425Y960236D01*
G01X976483D02*
X976575Y961132D01*
X976713Y961890D01*
X976896Y962579D01*
X977126Y963337D01*
X977493Y964370D01*
X975656D01*
G01X924016Y954823D02*
X928150D01*
G01X924016Y953767D02*
Y955879D01*
G01X928150Y956962D02*
X924016D01*
Y957881D01*
X924222Y958248D01*
X924498Y958524D01*
X924911Y958753D01*
X925394Y958937D01*
X926083Y958983D01*
X926772Y958937D01*
X927254Y958753D01*
X927667Y958524D01*
X927943Y958248D01*
X928150Y957881D01*
Y956962D01*
G01X924016Y960571D02*
Y961673D01*
G01Y961122D02*
X928150D01*
G01Y960571D02*
Y961673D01*
G01X930512Y954823D02*
X934646D01*
G01X930512Y953767D02*
Y955879D01*
G01X934646Y956962D02*
X930512D01*
Y957881D01*
X930719Y958248D01*
X930994Y958524D01*
X931407Y958753D01*
X931890Y958937D01*
X932579Y958983D01*
X933268Y958937D01*
X933750Y958753D01*
X934163Y958524D01*
X934439Y958248D01*
X934646Y957881D01*
Y956962D01*
G01Y961122D02*
X934577Y960755D01*
X934301Y960433D01*
X933888Y960157D01*
X933406Y959974D01*
X932854Y959882D01*
X932303D01*
X931752Y959974D01*
X931270Y960157D01*
X930856Y960433D01*
X930581Y960755D01*
X930512Y961122D01*
X930581Y961489D01*
X930856Y961811D01*
X931270Y962087D01*
X931752Y962270D01*
X932303Y962362D01*
X932854D01*
X933406Y962270D01*
X933888Y962087D01*
X934301Y961811D01*
X934577Y961489D01*
X934646Y961122D01*
G01X935630Y954823D02*
X939764D01*
G01X935630Y953767D02*
Y955879D01*
G01X935974Y958983D02*
X935768Y958707D01*
X935630Y958386D01*
Y958019D01*
X935837Y957605D01*
X936181Y957283D01*
X936594Y957054D01*
X937283Y956870D01*
X937904Y956824D01*
X938524Y956916D01*
X938937Y957054D01*
X939350Y957330D01*
X939626Y957651D01*
X939764Y957972D01*
Y958294D01*
X939626Y958615D01*
X939419Y958891D01*
X939144Y959121D01*
G01X939764Y960111D02*
X935630D01*
G01Y961857D02*
X938179Y960111D01*
G01X939764Y962133D02*
X937008Y960893D01*
G01X941240Y954823D02*
X945374D01*
G01X941240Y953767D02*
Y955879D01*
G01X945374Y956778D02*
X941240D01*
X944685Y957972D01*
X941240Y959167D01*
X945374D01*
G01X944823Y960157D02*
X945167Y960525D01*
X945374Y960938D01*
Y961306D01*
X945167Y961673D01*
X944823Y961949D01*
X944341Y962087D01*
X943858Y961995D01*
X943445Y961765D01*
X943169Y961352D01*
X943031Y960800D01*
X942756Y960479D01*
X942274Y960341D01*
X941791Y960433D01*
X941447Y960663D01*
X941240Y960984D01*
Y961306D01*
X941378Y961627D01*
X941722Y961903D01*
G01X919882Y987598D02*
X924016D01*
G01X919882Y986542D02*
Y988655D01*
G01X924016Y989737D02*
X919882D01*
Y990656D01*
X920089Y991024D01*
X920364Y991299D01*
X920778Y991529D01*
X921260Y991713D01*
X921949Y991759D01*
X922638Y991713D01*
X923120Y991529D01*
X923533Y991299D01*
X923809Y991024D01*
X924016Y990656D01*
Y989737D01*
G01X919882Y993346D02*
Y994449D01*
G01Y993898D02*
X924016D01*
G01Y993346D02*
Y994449D01*
G01X933307Y987028D02*
X933652Y987395D01*
X933858Y987808D01*
Y988176D01*
X933652Y988543D01*
X933307Y988819D01*
X932825Y988957D01*
X932343Y988865D01*
X931929Y988635D01*
X931654Y988222D01*
X931516Y987670D01*
X931240Y987349D01*
X930758Y987211D01*
X930276Y987303D01*
X929931Y987533D01*
X929724Y987854D01*
Y988176D01*
X929862Y988497D01*
X930207Y988773D01*
G01X929724Y989764D02*
X933858Y990407D01*
X929724Y991142D01*
X933858Y991877D01*
X929724Y992520D01*
G01X933858Y994291D02*
X933789Y993924D01*
X933514Y993602D01*
X933100Y993327D01*
X932618Y993143D01*
X932067Y993051D01*
X931516D01*
X930965Y993143D01*
X930482Y993327D01*
X930069Y993602D01*
X929793Y993924D01*
X929724Y994291D01*
X929793Y994659D01*
X930069Y994980D01*
X930482Y995256D01*
X930965Y995440D01*
X931516Y995531D01*
X932067D01*
X932618Y995440D01*
X933100Y995256D01*
X933514Y994980D01*
X933789Y994659D01*
X933858Y994291D01*
G01X917421Y981890D02*
Y977756D01*
G01X916365Y981890D02*
X918478D01*
G01X921398Y977756D02*
Y980512D01*
G01Y980030D02*
X921214Y980305D01*
X920938Y980443D01*
X920617Y980512D01*
X920295Y980374D01*
X920020Y980098D01*
X919836Y979685D01*
X919744Y979134D01*
X919836Y978583D01*
X920020Y978169D01*
X920295Y977894D01*
X920617Y977756D01*
X920938Y977825D01*
X921214Y978031D01*
X921398Y978307D01*
G01X923078Y977756D02*
Y980512D01*
G01Y979961D02*
X923307Y980236D01*
X923537Y980443D01*
X923858Y980512D01*
X924088Y980443D01*
X924363Y980236D01*
G01X926227Y976722D02*
X926548Y976447D01*
X926916Y976378D01*
X927237Y976447D01*
X927513Y976791D01*
X927697Y977274D01*
Y980512D01*
G01Y979961D02*
X927513Y980236D01*
X927237Y980443D01*
X926916Y980512D01*
X926548Y980374D01*
X926319Y980098D01*
X926135Y979616D01*
X926043Y979134D01*
X926089Y978720D01*
X926273Y978238D01*
X926548Y977894D01*
X926916Y977756D01*
X927192Y977825D01*
X927513Y978100D01*
X927697Y978376D01*
G01X929331Y979616D02*
X930800D01*
X930663Y980098D01*
X930433Y980374D01*
X930111Y980512D01*
X929790Y980443D01*
X929515Y980236D01*
X929331Y979754D01*
X929239Y979341D01*
Y978927D01*
X929331Y978514D01*
X929560Y978100D01*
X929836Y977825D01*
X930157Y977756D01*
X930479Y977894D01*
X930800Y978307D01*
G01X933169Y981890D02*
Y977756D01*
G01X932526Y980512D02*
X933812D01*
G01X938917Y981890D02*
X940020D01*
G01X939469D02*
Y977756D01*
G01X938917D02*
X940020D01*
G01X941837D02*
Y980512D01*
G01Y979823D02*
X942021Y980167D01*
X942296Y980443D01*
X942664Y980512D01*
X942985Y980443D01*
X943261Y980167D01*
X943399Y979685D01*
Y977756D01*
G01X998005Y880512D02*
Y884646D01*
X998924D01*
X999291Y884439D01*
X999567Y884163D01*
X999796Y883750D01*
X999980Y883268D01*
X1000026Y882579D01*
X999980Y881890D01*
X999796Y881407D01*
X999567Y880994D01*
X999291Y880719D01*
X998924Y880512D01*
X998005D01*
G01X1001614Y884646D02*
X1002717D01*
G01X1002165D02*
Y880512D01*
G01X1001614D02*
X1002717D01*
G01X1005315D02*
X1004948Y880581D01*
X1004626Y880856D01*
X1004350Y881270D01*
X1004167Y881752D01*
X1004075Y882303D01*
Y882854D01*
X1004167Y883406D01*
X1004350Y883888D01*
X1004626Y884301D01*
X1004948Y884577D01*
X1005315Y884646D01*
X1005682Y884577D01*
X1006004Y884301D01*
X1006280Y883888D01*
X1006463Y883406D01*
X1006555Y882854D01*
Y882303D01*
X1006463Y881752D01*
X1006280Y881270D01*
X1006004Y880856D01*
X1005682Y880581D01*
X1005315Y880512D01*
G01X1008465D02*
Y884646D01*
X1007913Y883819D01*
G01Y880512D02*
X1009016D01*
G01X1012165D02*
Y884646D01*
X1010466Y881683D01*
X1012763D01*
G01X998104Y890453D02*
Y894587D01*
X999022D01*
X999390Y894380D01*
X999665Y894104D01*
X999895Y893691D01*
X1000079Y893209D01*
X1000125Y892520D01*
X1000079Y891831D01*
X999895Y891348D01*
X999665Y890935D01*
X999390Y890659D01*
X999022Y890453D01*
X998104D01*
G01X1001713Y894587D02*
X1002815D01*
G01X1002264D02*
Y890453D01*
G01X1001713D02*
X1002815D01*
G01X1005413D02*
X1005046Y890522D01*
X1004724Y890797D01*
X1004449Y891211D01*
X1004265Y891693D01*
X1004173Y892244D01*
Y892795D01*
X1004265Y893346D01*
X1004449Y893829D01*
X1004724Y894242D01*
X1005046Y894518D01*
X1005413Y894587D01*
X1005781Y894518D01*
X1006102Y894242D01*
X1006378Y893829D01*
X1006562Y893346D01*
X1006654Y892795D01*
Y892244D01*
X1006562Y891693D01*
X1006378Y891211D01*
X1006102Y890797D01*
X1005781Y890522D01*
X1005413Y890453D01*
G01X1008563D02*
Y894587D01*
X1008012Y893760D01*
G01Y890453D02*
X1009114D01*
G01X1010702Y891280D02*
X1010978Y890797D01*
X1011345Y890522D01*
X1011759Y890453D01*
X1012126Y890522D01*
X1012493Y890866D01*
X1012723Y891280D01*
X1012769Y891693D01*
X1012677Y892175D01*
X1012356Y892520D01*
X1012034Y892657D01*
X1011621D01*
G01X1012034D02*
X1012310Y892864D01*
X1012539Y893209D01*
X1012631Y893622D01*
X1012539Y894035D01*
X1012310Y894380D01*
X1011896Y894587D01*
X1011483Y894518D01*
X1011070Y894242D01*
G01X998202Y900394D02*
Y904528D01*
X999121D01*
X999488Y904321D01*
X999764Y904045D01*
X999993Y903632D01*
X1000177Y903150D01*
X1000223Y902461D01*
X1000177Y901772D01*
X999993Y901289D01*
X999764Y900876D01*
X999488Y900600D01*
X999121Y900394D01*
X998202D01*
G01X1001811Y904528D02*
X1002913D01*
G01X1002362D02*
Y900394D01*
G01X1001811D02*
X1002913D01*
G01X1005512D02*
X1005144Y900463D01*
X1004823Y900738D01*
X1004547Y901152D01*
X1004363Y901634D01*
X1004272Y902185D01*
Y902736D01*
X1004363Y903287D01*
X1004547Y903770D01*
X1004823Y904183D01*
X1005144Y904459D01*
X1005512Y904528D01*
X1005879Y904459D01*
X1006201Y904183D01*
X1006476Y903770D01*
X1006660Y903287D01*
X1006752Y902736D01*
Y902185D01*
X1006660Y901634D01*
X1006476Y901152D01*
X1006201Y900738D01*
X1005879Y900463D01*
X1005512Y900394D01*
G01X1008661D02*
X1008983Y900463D01*
X1009350Y900669D01*
X1009580Y901014D01*
X1009672Y901496D01*
X1009580Y901978D01*
X1009304Y902392D01*
X1008891Y902598D01*
X1008432D01*
X1008156Y902736D01*
X1007926Y903081D01*
X1007835Y903563D01*
X1007972Y904045D01*
X1008294Y904390D01*
X1008661Y904528D01*
X1009029Y904390D01*
X1009350Y904045D01*
X1009488Y903563D01*
X1009396Y903081D01*
X1009167Y902736D01*
X1008891Y902598D01*
X1008432D01*
X1008019Y902392D01*
X1007743Y901978D01*
X1007651Y901496D01*
X1007743Y901014D01*
X1007972Y900669D01*
X1008340Y900463D01*
X1008661Y900394D01*
G01X998300Y910138D02*
Y914272D01*
X999219D01*
X999587Y914065D01*
X999862Y913789D01*
X1000092Y913376D01*
X1000276Y912894D01*
X1000322Y912205D01*
X1000276Y911516D01*
X1000092Y911033D01*
X999862Y910620D01*
X999587Y910344D01*
X999219Y910138D01*
X998300D01*
G01X1001909Y914272D02*
X1003012D01*
G01X1002461D02*
Y910138D01*
G01X1001909D02*
X1003012D01*
G01X1005610D02*
X1005243Y910207D01*
X1004921Y910482D01*
X1004646Y910896D01*
X1004462Y911378D01*
X1004370Y911929D01*
Y912480D01*
X1004462Y913031D01*
X1004646Y913514D01*
X1004921Y913927D01*
X1005243Y914203D01*
X1005610Y914272D01*
X1005978Y914203D01*
X1006299Y913927D01*
X1006575Y913514D01*
X1006759Y913031D01*
X1006850Y912480D01*
Y911929D01*
X1006759Y911378D01*
X1006575Y910896D01*
X1006299Y910482D01*
X1005978Y910207D01*
X1005610Y910138D01*
G01X1007979Y910620D02*
X1008300Y910276D01*
X1008668Y910138D01*
X1009035Y910276D01*
X1009357Y910689D01*
X1009587Y911309D01*
X1009678Y911929D01*
Y912687D01*
X1009587Y913307D01*
X1009357Y913858D01*
X1009081Y914134D01*
X1008760Y914272D01*
X1008393Y914134D01*
X1008117Y913858D01*
X1007933Y913445D01*
X1007841Y912894D01*
X1007933Y912411D01*
X1008163Y911929D01*
X1008438Y911654D01*
X1008760Y911585D01*
X1009127Y911722D01*
X1009403Y912067D01*
X1009678Y912687D01*
G01X969068Y904143D02*
X969094Y900009D01*
G01X968012Y904136D02*
X970124Y904149D01*
G01X971050Y900021D02*
X971024Y904155D01*
X972240Y900718D01*
X973412Y904170D01*
X973438Y900037D01*
G01X974426Y900594D02*
X974795Y900252D01*
X975210Y900048D01*
X975578Y900050D01*
X975944Y900259D01*
X976217Y900605D01*
X976352Y901089D01*
X976257Y901570D01*
X976024Y901982D01*
X975609Y902255D01*
X975057Y902389D01*
X974734Y902663D01*
X974593Y903144D01*
X974682Y903627D01*
X974909Y903973D01*
X975230Y904182D01*
X975551Y904184D01*
X975874Y904048D01*
X976151Y903706D01*
G01X969068Y894300D02*
X969094Y890166D01*
G01X968012Y894293D02*
X970124Y894307D01*
G01X973230Y893982D02*
X972954Y894187D01*
X972631Y894323D01*
X972264Y894320D01*
X971852Y894111D01*
X971532Y893765D01*
X971305Y893350D01*
X971126Y892659D01*
X971084Y892039D01*
X971180Y891420D01*
X971320Y891007D01*
X971598Y890596D01*
X971922Y890322D01*
X972244Y890186D01*
X972566Y890188D01*
X972886Y890328D01*
X973161Y890537D01*
X973389Y890814D01*
G01X974383Y890200D02*
X974357Y894334D01*
G01X976102Y894345D02*
X974373Y891785D01*
G01X976404Y890213D02*
X975146Y892961D01*
G01X998005Y870472D02*
Y874606D01*
X998924D01*
X999291Y874400D01*
X999567Y874124D01*
X999796Y873711D01*
X999980Y873228D01*
X1000026Y872539D01*
X999980Y871850D01*
X999796Y871368D01*
X999567Y870955D01*
X999291Y870679D01*
X998924Y870472D01*
X998005D01*
G01X1001614Y874606D02*
X1002717D01*
G01X1002165D02*
Y870472D01*
G01X1001614D02*
X1002717D01*
G01X1005315D02*
X1004948Y870541D01*
X1004626Y870817D01*
X1004350Y871230D01*
X1004167Y871713D01*
X1004075Y872264D01*
Y872815D01*
X1004167Y873366D01*
X1004350Y873848D01*
X1004626Y874262D01*
X1004948Y874537D01*
X1005315Y874606D01*
X1005682Y874537D01*
X1006004Y874262D01*
X1006280Y873848D01*
X1006463Y873366D01*
X1006555Y872815D01*
Y872264D01*
X1006463Y871713D01*
X1006280Y871230D01*
X1006004Y870817D01*
X1005682Y870541D01*
X1005315Y870472D01*
G01X1008465D02*
Y874606D01*
X1007913Y873780D01*
G01Y870472D02*
X1009016D01*
G01X1010604Y871093D02*
X1010879Y870748D01*
X1011201Y870541D01*
X1011614Y870472D01*
X1012028Y870610D01*
X1012349Y870886D01*
X1012579Y871368D01*
X1012625Y871919D01*
X1012533Y872470D01*
X1012303Y872815D01*
X1011981Y873091D01*
X1011660Y873159D01*
X1011339Y873091D01*
X1010925Y872815D01*
X1011063Y874606D01*
X1012303D01*
G01X998393Y924902D02*
Y920768D01*
X1000230D01*
G01X1001542D02*
Y924902D01*
X1002644D01*
X1003012Y924695D01*
X1003287Y924213D01*
X1003379Y923661D01*
X1003287Y923110D01*
X1003058Y922697D01*
X1002644Y922490D01*
X1001542D01*
G01X1004692Y920768D02*
Y924902D01*
X1005840D01*
X1006207Y924695D01*
X1006437Y924419D01*
X1006529Y923868D01*
X1006437Y923317D01*
X1006161Y922972D01*
X1005840Y922766D01*
X1004692D01*
G01X1005840D02*
X1006529Y920768D01*
G01X1007795Y921319D02*
X1008163Y920974D01*
X1008576Y920768D01*
X1008944D01*
X1009311Y920974D01*
X1009587Y921319D01*
X1009724Y921801D01*
X1009633Y922283D01*
X1009403Y922697D01*
X1008989Y922972D01*
X1008438Y923110D01*
X1008117Y923386D01*
X1007979Y923868D01*
X1008071Y924350D01*
X1008300Y924695D01*
X1008622Y924902D01*
X1008944D01*
X1009265Y924764D01*
X1009541Y924419D01*
G01X1011909Y924902D02*
Y920768D01*
G01X1010853Y924902D02*
X1012966D01*
G01X998300Y940453D02*
Y944587D01*
X999219D01*
X999587Y944380D01*
X999862Y944104D01*
X1000092Y943691D01*
X1000276Y943209D01*
X1000322Y942520D01*
X1000276Y941831D01*
X1000092Y941348D01*
X999862Y940935D01*
X999587Y940659D01*
X999219Y940453D01*
X998300D01*
G01X1001909Y944587D02*
X1003012D01*
G01X1002461D02*
Y940453D01*
G01X1001909D02*
X1003012D01*
G01X1005610D02*
X1005243Y940522D01*
X1004921Y940797D01*
X1004646Y941211D01*
X1004462Y941693D01*
X1004370Y942244D01*
Y942795D01*
X1004462Y943346D01*
X1004646Y943829D01*
X1004921Y944242D01*
X1005243Y944518D01*
X1005610Y944587D01*
X1005978Y944518D01*
X1006299Y944242D01*
X1006575Y943829D01*
X1006759Y943346D01*
X1006850Y942795D01*
Y942244D01*
X1006759Y941693D01*
X1006575Y941211D01*
X1006299Y940797D01*
X1005978Y940522D01*
X1005610Y940453D01*
G01X1008760D02*
Y944587D01*
X1008209Y943760D01*
G01Y940453D02*
X1009311D01*
G01X1011909D02*
Y944587D01*
X1011358Y943760D01*
G01Y940453D02*
X1012461D01*
G01X998497Y950591D02*
Y954724D01*
X999416D01*
X999783Y954518D01*
X1000059Y954242D01*
X1000289Y953829D01*
X1000472Y953346D01*
X1000519Y952657D01*
X1000472Y951969D01*
X1000289Y951486D01*
X1000059Y951073D01*
X999783Y950797D01*
X999416Y950591D01*
X998497D01*
G01X1002106Y954724D02*
X1003209D01*
G01X1002657D02*
Y950591D01*
G01X1002106D02*
X1003209D01*
G01X1005807D02*
X1005440Y950659D01*
X1005118Y950935D01*
X1004843Y951348D01*
X1004659Y951831D01*
X1004567Y952382D01*
Y952933D01*
X1004659Y953484D01*
X1004843Y953967D01*
X1005118Y954380D01*
X1005440Y954656D01*
X1005807Y954724D01*
X1006174Y954656D01*
X1006496Y954380D01*
X1006772Y953967D01*
X1006956Y953484D01*
X1007047Y952933D01*
Y952382D01*
X1006956Y951831D01*
X1006772Y951348D01*
X1006496Y950935D01*
X1006174Y950659D01*
X1005807Y950591D01*
G01X1008957D02*
Y954724D01*
X1008406Y953898D01*
G01Y950591D02*
X1009508D01*
G01X1011233Y954035D02*
X1011509Y954449D01*
X1011831Y954656D01*
X1012198Y954724D01*
X1012657Y954587D01*
X1012979Y954242D01*
X1013071Y953829D01*
X1013025Y953415D01*
X1012841Y953071D01*
X1011922Y952382D01*
X1011509Y951900D01*
X1011233Y951211D01*
X1011142Y950591D01*
X1013071D01*
G01X980584Y992559D02*
X980768Y992766D01*
X980906Y993110D01*
X980997Y993593D01*
X980906Y994006D01*
X980722Y994281D01*
X980400Y994488D01*
X979160D01*
Y990354D01*
X980676D01*
X980997Y990630D01*
X981181Y991043D01*
X981273Y991526D01*
X981181Y992008D01*
X980906Y992421D01*
X980584Y992559D01*
X979160D01*
G01X983366Y994488D02*
Y990354D01*
G01X982310Y994488D02*
X984422D01*
G01X985459Y990354D02*
Y994488D01*
X987572Y990354D01*
Y994488D01*
G01X989068Y991732D02*
X990263D01*
G01X991942Y993799D02*
X992218Y994213D01*
X992539Y994419D01*
X992907Y994488D01*
X993366Y994350D01*
X993688Y994006D01*
X993780Y993593D01*
X993733Y993179D01*
X993550Y992835D01*
X992631Y992146D01*
X992218Y991663D01*
X991942Y990974D01*
X991850Y990354D01*
X993780D01*
G01X979009Y984252D02*
Y988386D01*
X979928D01*
X980295Y988179D01*
X980571Y987904D01*
X980800Y987490D01*
X980984Y987008D01*
X981030Y986319D01*
X980984Y985630D01*
X980800Y985148D01*
X980571Y984734D01*
X980295Y984459D01*
X979928Y984252D01*
X979009D01*
G01X982618Y988386D02*
X983720D01*
G01X983169D02*
Y984252D01*
G01X982618D02*
X983720D01*
G01X986319D02*
X985952Y984321D01*
X985630Y984596D01*
X985354Y985010D01*
X985170Y985492D01*
X985079Y986043D01*
Y986594D01*
X985170Y987146D01*
X985354Y987628D01*
X985630Y988041D01*
X985952Y988317D01*
X986319Y988386D01*
X986686Y988317D01*
X987008Y988041D01*
X987283Y987628D01*
X987467Y987146D01*
X987559Y986594D01*
Y986043D01*
X987467Y985492D01*
X987283Y985010D01*
X987008Y984596D01*
X986686Y984321D01*
X986319Y984252D01*
G01X989469D02*
Y988386D01*
X988917Y987559D01*
G01Y984252D02*
X990020D01*
G01X993169D02*
Y988386D01*
X991470Y985423D01*
X993767D01*
G01X975170Y975630D02*
X975354Y975837D01*
X975492Y976181D01*
X975584Y976663D01*
X975492Y977077D01*
X975308Y977352D01*
X974987Y977559D01*
X973747D01*
Y973425D01*
X975263D01*
X975584Y973701D01*
X975768Y974114D01*
X975859Y974596D01*
X975768Y975079D01*
X975492Y975492D01*
X975170Y975630D01*
X973747D01*
G01X977034Y973425D02*
Y977559D01*
X978137D01*
X978504Y977352D01*
X978780Y976870D01*
X978871Y976319D01*
X978780Y975768D01*
X978550Y975354D01*
X978137Y975148D01*
X977034D01*
G01X991404Y978937D02*
Y974803D01*
X993241D01*
G01X994554D02*
Y978937D01*
X995656D01*
X996024Y978730D01*
X996299Y978248D01*
X996391Y977697D01*
X996299Y977146D01*
X996070Y976732D01*
X995656Y976526D01*
X994554D01*
G01X995886Y1017618D02*
X997815Y1021752D01*
G01X995886D02*
X997815Y1017618D01*
G01X998989D02*
Y1021752D01*
X999908D01*
X1000276Y1021545D01*
X1000551Y1021270D01*
X1000781Y1020856D01*
X1000965Y1020374D01*
X1001011Y1019685D01*
X1000965Y1018996D01*
X1000781Y1018514D01*
X1000551Y1018100D01*
X1000276Y1017825D01*
X999908Y1017618D01*
X998989D01*
G01X1002185Y1018169D02*
X1002552Y1017825D01*
X1002966Y1017618D01*
X1003333D01*
X1003701Y1017825D01*
X1003976Y1018169D01*
X1004114Y1018652D01*
X1004022Y1019134D01*
X1003793Y1019547D01*
X1003379Y1019823D01*
X1002828Y1019961D01*
X1002507Y1020236D01*
X1002369Y1020719D01*
X1002461Y1021201D01*
X1002690Y1021545D01*
X1003012Y1021752D01*
X1003333D01*
X1003655Y1021614D01*
X1003930Y1021270D01*
G01X1006299Y1017618D02*
Y1021752D01*
X1005748Y1020925D01*
G01Y1017618D02*
X1006850D01*
G01X1009449D02*
Y1021752D01*
X1008898Y1020925D01*
G01Y1017618D02*
X1010000D01*
G01X1012598Y1021752D02*
X1012231Y1021614D01*
X1011956Y1021270D01*
X1011772Y1020856D01*
X1011634Y1020305D01*
X1011588Y1019685D01*
X1011634Y1019065D01*
X1011772Y1018514D01*
X1011956Y1018100D01*
X1012231Y1017756D01*
X1012598Y1017618D01*
X1012966Y1017756D01*
X1013241Y1018100D01*
X1013425Y1018514D01*
X1013563Y1019065D01*
X1013609Y1019685D01*
X1013563Y1020305D01*
X1013425Y1020856D01*
X1013241Y1021270D01*
X1012966Y1021614D01*
X1012598Y1021752D01*
G01X996030Y1012303D02*
Y1016437D01*
X997133D01*
X997500Y1016230D01*
X997776Y1015748D01*
X997867Y1015197D01*
X997776Y1014646D01*
X997546Y1014232D01*
X997133Y1014026D01*
X996030D01*
G01X1000098Y1012303D02*
X999823Y1012372D01*
X999547Y1012648D01*
X999363Y1013130D01*
X999272Y1013681D01*
X999363Y1014232D01*
X999547Y1014715D01*
X999823Y1014990D01*
X1000098Y1015059D01*
X1000374Y1014990D01*
X1000650Y1014715D01*
X1000833Y1014232D01*
X1000879Y1013681D01*
X1000833Y1013130D01*
X1000650Y1012648D01*
X1000374Y1012372D01*
X1000098Y1012303D01*
G01X1002100Y1015059D02*
X1002651Y1012303D01*
X1003248Y1015059D01*
X1003845Y1012303D01*
X1004396Y1015059D01*
G01X1005709Y1014163D02*
X1007178D01*
X1007041Y1014646D01*
X1006811Y1014921D01*
X1006489Y1015059D01*
X1006168Y1014990D01*
X1005893Y1014783D01*
X1005709Y1014301D01*
X1005617Y1013888D01*
Y1013474D01*
X1005709Y1013061D01*
X1005938Y1012648D01*
X1006214Y1012372D01*
X1006535Y1012303D01*
X1006857Y1012441D01*
X1007178Y1012854D01*
G01X1008904Y1012303D02*
Y1015059D01*
G01Y1014508D02*
X1009134Y1014783D01*
X1009363Y1014990D01*
X1009685Y1015059D01*
X1009915Y1014990D01*
X1010190Y1014783D01*
G01X997572Y1005118D02*
X995735D01*
Y1009252D01*
X997572D01*
G01X996837Y1007254D02*
X995735D01*
G01X999114Y1007874D02*
X1000492Y1005118D01*
G01Y1007874D02*
X999114Y1005118D01*
G01X1002953Y1009252D02*
Y1005118D01*
G01X1002310Y1007874D02*
X1003596D01*
G01X1005413Y1006978D02*
X1006883D01*
X1006745Y1007461D01*
X1006516Y1007736D01*
X1006194Y1007874D01*
X1005873Y1007805D01*
X1005597Y1007598D01*
X1005413Y1007116D01*
X1005322Y1006703D01*
Y1006289D01*
X1005413Y1005876D01*
X1005643Y1005463D01*
X1005919Y1005187D01*
X1006240Y1005118D01*
X1006562Y1005256D01*
X1006883Y1005669D01*
G01X1008609Y1005118D02*
Y1007874D01*
G01Y1007323D02*
X1008839Y1007598D01*
X1009068Y1007805D01*
X1009390Y1007874D01*
X1009619Y1007805D01*
X1009895Y1007598D01*
G01X1011621Y1005118D02*
Y1007874D01*
G01Y1007185D02*
X1011804Y1007530D01*
X1012080Y1007805D01*
X1012448Y1007874D01*
X1012769Y1007805D01*
X1013044Y1007530D01*
X1013182Y1007047D01*
Y1005118D01*
G01X995735Y999213D02*
Y1003346D01*
X996837D01*
X997205Y1003140D01*
X997480Y1002657D01*
X997572Y1002106D01*
X997480Y1001555D01*
X997251Y1001142D01*
X996837Y1000935D01*
X995735D01*
G01X998655Y1001969D02*
X999206Y999213D01*
X999803Y1001969D01*
X1000400Y999213D01*
X1000952Y1001969D01*
G01X1002310Y999213D02*
Y1001969D01*
G01Y1001417D02*
X1002539Y1001693D01*
X1002769Y1001900D01*
X1003091Y1001969D01*
X1003320Y1001900D01*
X1003596Y1001693D01*
G01X989534Y1028543D02*
Y1024409D01*
X991371D01*
G01X992638Y1024961D02*
X993005Y1024616D01*
X993419Y1024409D01*
X993786D01*
X994154Y1024616D01*
X994429Y1024961D01*
X994567Y1025443D01*
X994475Y1025925D01*
X994245Y1026339D01*
X993832Y1026614D01*
X993281Y1026752D01*
X992959Y1027028D01*
X992822Y1027510D01*
X992913Y1027992D01*
X993143Y1028337D01*
X993465Y1028543D01*
X993786D01*
X994107Y1028406D01*
X994383Y1028061D01*
G01X995374Y1023031D02*
X998130D01*
G01X998983Y1024409D02*
Y1028543D01*
X1000085D01*
X1000453Y1028337D01*
X1000728Y1027854D01*
X1000820Y1027303D01*
X1000728Y1026752D01*
X1000499Y1026339D01*
X1000085Y1026132D01*
X998983D01*
G01X1001673Y1028543D02*
X1002316Y1024409D01*
X1003051Y1028543D01*
X1003786Y1024409D01*
X1004429Y1028543D01*
G01X1005282Y1024409D02*
Y1028543D01*
X1006430D01*
X1006798Y1028337D01*
X1007028Y1028061D01*
X1007119Y1027510D01*
X1007028Y1026959D01*
X1006752Y1026614D01*
X1006430Y1026407D01*
X1005282D01*
G01X1006430D02*
X1007119Y1024409D01*
G54D15*
G01X794390Y692913D02*
X1011220D01*
G03X1017913Y700591I-552J7237D01*
G01Y964567D01*
G03X1013583Y976969I-19922J0D01*
G02X1009252Y989370I15591J12402D01*
G02X1013583Y1001772I19922J0D01*
G03X1017913Y1014173I-15591J12402D01*
G01Y1158811D01*
G03X1012157Y1164567I-5756J0D01*
G01X849803D01*
Y1159843D01*
X843504D01*
Y1151575D01*
X839961D01*
Y1159843D01*
X825000D01*
Y1151575D01*
X821457D01*
Y1159843D01*
X815157D01*
Y1164567D01*
X793354D01*
G03X787598Y1158811I0J-5756D01*
G01Y1014173D01*
G03X791929Y1001772I19922J0D01*
G02X796260Y989370I-15591J-12402D01*
G02X791929Y976969I-19922J0D01*
G03X787598Y964567I15591J-12402D01*
G01Y700591D01*
G03X794390Y692913I8087J312D01*
G01X950912Y586071D02*
Y593571D01*
X952778D01*
X953524Y593196D01*
X954084Y592696D01*
X954551Y591946D01*
X954924Y591071D01*
X955017Y589821D01*
X954924Y588571D01*
X954551Y587696D01*
X954084Y586946D01*
X953524Y586446D01*
X952778Y586071D01*
X950912D01*
G01X958132D02*
X960465Y593571D01*
X962797Y586071D01*
G01X961957Y588696D02*
X958972D01*
G01X967965Y593571D02*
Y586071D01*
G01X965819Y593571D02*
X970111D01*
G01X977331Y586071D02*
X973598D01*
Y593571D01*
X977331D01*
G01X975838Y589946D02*
X973598D01*
G01X982965Y585821D02*
X982778Y585946D01*
Y586196D01*
X982965Y586321D01*
X983151Y586196D01*
Y585946D01*
X982965Y585821D01*
G01Y589196D02*
X982778Y589321D01*
Y589571D01*
X982965Y589696D01*
X983151Y589571D01*
Y589321D01*
X982965Y589196D01*
G01X996192Y592321D02*
X996752Y593071D01*
X997405Y593446D01*
X998151Y593571D01*
X999084Y593321D01*
X999737Y592696D01*
X999924Y591946D01*
X999831Y591196D01*
X999457Y590571D01*
X997591Y589321D01*
X996752Y588446D01*
X996192Y587196D01*
X996005Y586071D01*
X999924D01*
G01X1005465Y593571D02*
X1004718Y593321D01*
X1004158Y592696D01*
X1003785Y591946D01*
X1003505Y590946D01*
X1003412Y589821D01*
X1003505Y588696D01*
X1003785Y587696D01*
X1004158Y586946D01*
X1004718Y586321D01*
X1005465Y586071D01*
X1006211Y586321D01*
X1006771Y586946D01*
X1007144Y587696D01*
X1007424Y588696D01*
X1007517Y589821D01*
X1007424Y590946D01*
X1007144Y591946D01*
X1006771Y592696D01*
X1006211Y593321D01*
X1005465Y593571D01*
G01X1011192Y592321D02*
X1011752Y593071D01*
X1012405Y593446D01*
X1013151Y593571D01*
X1014084Y593321D01*
X1014737Y592696D01*
X1014924Y591946D01*
X1014831Y591196D01*
X1014457Y590571D01*
X1012591Y589321D01*
X1011752Y588446D01*
X1011192Y587196D01*
X1011005Y586071D01*
X1014924D01*
G01X1020465Y593571D02*
X1019718Y593321D01*
X1019158Y592696D01*
X1018785Y591946D01*
X1018505Y590946D01*
X1018412Y589821D01*
X1018505Y588696D01*
X1018785Y587696D01*
X1019158Y586946D01*
X1019718Y586321D01*
X1020465Y586071D01*
X1021211Y586321D01*
X1021771Y586946D01*
X1022144Y587696D01*
X1022424Y588696D01*
X1022517Y589821D01*
X1022424Y590946D01*
X1022144Y591946D01*
X1021771Y592696D01*
X1021211Y593321D01*
X1020465Y593571D01*
G01X1026752Y588571D02*
X1029178D01*
G01X1035465Y593571D02*
X1034718Y593321D01*
X1034158Y592696D01*
X1033785Y591946D01*
X1033505Y590946D01*
X1033412Y589821D01*
X1033505Y588696D01*
X1033785Y587696D01*
X1034158Y586946D01*
X1034718Y586321D01*
X1035465Y586071D01*
X1036211Y586321D01*
X1036771Y586946D01*
X1037144Y587696D01*
X1037424Y588696D01*
X1037517Y589821D01*
X1037424Y590946D01*
X1037144Y591946D01*
X1036771Y592696D01*
X1036211Y593321D01*
X1035465Y593571D01*
G01X1041192Y592321D02*
X1041752Y593071D01*
X1042405Y593446D01*
X1043151Y593571D01*
X1044084Y593321D01*
X1044737Y592696D01*
X1044924Y591946D01*
X1044831Y591196D01*
X1044457Y590571D01*
X1042591Y589321D01*
X1041752Y588446D01*
X1041192Y587196D01*
X1041005Y586071D01*
X1044924D01*
G01X1049252Y588571D02*
X1051678D01*
G01X1057965Y586071D02*
Y593571D01*
X1056845Y592071D01*
G01Y586071D02*
X1059084D01*
G01X1065278D02*
X1065465Y587696D01*
X1065744Y589071D01*
X1066118Y590321D01*
X1066584Y591696D01*
X1067331Y593571D01*
X1063598D01*
G01X939226Y607200D02*
X939972Y606576D01*
X940812Y606201D01*
X941558D01*
X942305Y606576D01*
X942865Y607200D01*
X943144Y608076D01*
X942958Y608951D01*
X942491Y609701D01*
X941652Y610201D01*
X940532Y610451D01*
X939879Y610951D01*
X939599Y611826D01*
X939785Y612701D01*
X940252Y613326D01*
X940905Y613701D01*
X941558D01*
X942211Y613451D01*
X942771Y612826D01*
G01X947565Y613701D02*
X949805D01*
G01X948685D02*
Y606201D01*
G01X947565D02*
X949805D01*
G01X954319Y613701D02*
Y606201D01*
X958051D01*
G01X961632D02*
Y613701D01*
G01X965178D02*
X961632Y609076D01*
G01X965738Y606201D02*
X963219Y611201D01*
G01X971185Y613701D02*
Y606201D01*
G01X969039Y613701D02*
X973331D01*
G01X978685Y606201D02*
X977939Y606326D01*
X977285Y606826D01*
X976726Y607576D01*
X976352Y608451D01*
X976166Y609451D01*
Y610451D01*
X976352Y611451D01*
X976726Y612326D01*
X977285Y613076D01*
X977939Y613576D01*
X978685Y613701D01*
X979431Y613576D01*
X980085Y613076D01*
X980644Y612326D01*
X981018Y611451D01*
X981204Y610451D01*
Y609451D01*
X981018Y608451D01*
X980644Y607576D01*
X980085Y606826D01*
X979431Y606326D01*
X978685Y606201D01*
G01X984319D02*
Y613701D01*
X986558D01*
X987305Y613326D01*
X987865Y612451D01*
X988051Y611451D01*
X987865Y610451D01*
X987398Y609701D01*
X986558Y609326D01*
X984319D01*
G01X952768Y632744D02*
Y625244D01*
G01X950622Y632744D02*
X954914D01*
G01X962134Y625244D02*
X958402D01*
Y632744D01*
X962134D01*
G01X960641Y629119D02*
X958402D01*
G01X965808Y625244D02*
X969727Y632744D01*
G01X965808D02*
X969727Y625244D01*
G01X972935D02*
X975268Y632744D01*
X977600Y625244D01*
G01X976761Y627869D02*
X973775D01*
G01X980808Y626244D02*
X981555Y625619D01*
X982394Y625244D01*
X983141D01*
X983887Y625619D01*
X984447Y626244D01*
X984727Y627119D01*
X984541Y627994D01*
X984074Y628744D01*
X983234Y629244D01*
X982115Y629494D01*
X981461Y629994D01*
X981181Y630869D01*
X981368Y631744D01*
X981835Y632369D01*
X982488Y632744D01*
X983141D01*
X983794Y632494D01*
X984354Y631869D01*
G01X996648Y632744D02*
X998887D01*
G01X997768D02*
Y625244D01*
G01X996648D02*
X998887D01*
G01X1003122D02*
Y632744D01*
X1007414Y625244D01*
Y632744D01*
G01X1010808Y626244D02*
X1011555Y625619D01*
X1012394Y625244D01*
X1013141D01*
X1013887Y625619D01*
X1014447Y626244D01*
X1014727Y627119D01*
X1014541Y627994D01*
X1014074Y628744D01*
X1013234Y629244D01*
X1012115Y629494D01*
X1011461Y629994D01*
X1011181Y630869D01*
X1011368Y631744D01*
X1011835Y632369D01*
X1012488Y632744D01*
X1013141D01*
X1013794Y632494D01*
X1014354Y631869D01*
G01X1020268Y632744D02*
Y625244D01*
G01X1018122Y632744D02*
X1022414D01*
G01X1025902Y625244D02*
Y632744D01*
X1028234D01*
X1028981Y632369D01*
X1029447Y631869D01*
X1029634Y630869D01*
X1029447Y629869D01*
X1028887Y629244D01*
X1028234Y628869D01*
X1025902D01*
G01X1028234D02*
X1029634Y625244D01*
G01X1033215Y632744D02*
Y627369D01*
X1033588Y626244D01*
X1034335Y625494D01*
X1035268Y625244D01*
X1036201Y625494D01*
X1036947Y626244D01*
X1037320Y627369D01*
Y632744D01*
G01X1040342Y625244D02*
Y632744D01*
X1042768Y626494D01*
X1045194Y632744D01*
Y625244D01*
G01X1052134D02*
X1048402D01*
Y632744D01*
X1052134D01*
G01X1050641Y629119D02*
X1048402D01*
G01X1055622Y625244D02*
Y632744D01*
X1059914Y625244D01*
Y632744D01*
G01X1065268D02*
Y625244D01*
G01X1063122Y632744D02*
X1067414D01*
G01X1070808Y626244D02*
X1071555Y625619D01*
X1072394Y625244D01*
X1073141D01*
X1073887Y625619D01*
X1074447Y626244D01*
X1074727Y627119D01*
X1074541Y627994D01*
X1074074Y628744D01*
X1073234Y629244D01*
X1072115Y629494D01*
X1071461Y629994D01*
X1071181Y630869D01*
X1071368Y631744D01*
X1071835Y632369D01*
X1072488Y632744D01*
X1073141D01*
X1073794Y632494D01*
X1074354Y631869D01*
G01X947250Y1042126D02*
X948656Y1045118D01*
G01X947250D02*
X948656Y1042126D01*
G01X949535D02*
Y1045118D01*
X950205D01*
X950472Y1044969D01*
X950673Y1044769D01*
X950841Y1044470D01*
X950974Y1044121D01*
X951008Y1043622D01*
X950974Y1043123D01*
X950841Y1042774D01*
X950673Y1042475D01*
X950472Y1042276D01*
X950205Y1042126D01*
X949535D01*
G01X951888Y1042525D02*
X952156Y1042276D01*
X952457Y1042126D01*
X952724D01*
X952992Y1042276D01*
X953193Y1042525D01*
X953293Y1042874D01*
X953226Y1043223D01*
X953059Y1043522D01*
X952758Y1043722D01*
X952356Y1043822D01*
X952122Y1044021D01*
X952022Y1044370D01*
X952089Y1044719D01*
X952256Y1044969D01*
X952490Y1045118D01*
X952724D01*
X952959Y1045019D01*
X953159Y1044769D01*
G01X954909Y1042126D02*
Y1045118D01*
X954508Y1044520D01*
G01Y1042126D02*
X955311D01*
G01X957228D02*
Y1045118D01*
X956827Y1044520D01*
G01Y1042126D02*
X957630D01*
G01X959547Y1045118D02*
X959280Y1045019D01*
X959079Y1044769D01*
X958945Y1044470D01*
X958844Y1044071D01*
X958811Y1043622D01*
X958844Y1043173D01*
X958945Y1042774D01*
X959079Y1042475D01*
X959280Y1042226D01*
X959547Y1042126D01*
X959815Y1042226D01*
X960016Y1042475D01*
X960150Y1042774D01*
X960250Y1043173D01*
X960283Y1043622D01*
X960250Y1044071D01*
X960150Y1044470D01*
X960016Y1044769D01*
X959815Y1045019D01*
X959547Y1045118D01*
G01X964185Y1042126D02*
X963917Y1042176D01*
X963683Y1042375D01*
X963482Y1042674D01*
X963348Y1043024D01*
X963281Y1043422D01*
Y1043822D01*
X963348Y1044220D01*
X963482Y1044570D01*
X963683Y1044869D01*
X963917Y1045068D01*
X964185Y1045118D01*
X964453Y1045068D01*
X964687Y1044869D01*
X964888Y1044570D01*
X965022Y1044220D01*
X965089Y1043822D01*
Y1043422D01*
X965022Y1043024D01*
X964888Y1042674D01*
X964687Y1042375D01*
X964453Y1042176D01*
X964185Y1042126D01*
G01X965935Y1044121D02*
Y1042724D01*
X966069Y1042375D01*
X966270Y1042176D01*
X966504Y1042126D01*
X966738Y1042176D01*
X966939Y1042375D01*
X967073Y1042724D01*
G01Y1042126D02*
Y1044121D01*
G01X968823Y1045118D02*
Y1042126D01*
G01X968354Y1044121D02*
X969291D01*
G01X992312Y609398D02*
Y606299D01*
X993845D01*
G01X995219D02*
X996177Y609398D01*
X997135Y606299D01*
G01X996790Y607383D02*
X995564D01*
G01X998433Y609398D02*
Y607177D01*
X998586Y606712D01*
X998893Y606402D01*
X999276Y606299D01*
X999659Y606402D01*
X999965Y606712D01*
X1000119Y607177D01*
Y609398D01*
G01X1001493Y606299D02*
Y609398D01*
X1003256Y606299D01*
Y609398D01*
G01X1006315Y609139D02*
X1006085Y609294D01*
X1005817Y609398D01*
X1005511D01*
X1005166Y609243D01*
X1004898Y608985D01*
X1004706Y608675D01*
X1004553Y608158D01*
X1004515Y607693D01*
X1004591Y607229D01*
X1004706Y606919D01*
X1004936Y606609D01*
X1005204Y606402D01*
X1005472Y606299D01*
X1005741D01*
X1006009Y606402D01*
X1006239Y606557D01*
X1006430Y606764D01*
G01X1007766Y606299D02*
Y609398D01*
G01X1009376D02*
Y606299D01*
G01Y607848D02*
X1007766D01*
G01X1010865Y606299D02*
X1012474Y609398D01*
G01X1010865D02*
X1012474Y606299D01*
G01X1014001Y609398D02*
Y606299D01*
X1015534D01*
G01X1017368Y607332D02*
X1018364D01*
G01X1021807Y609139D02*
X1021578Y609294D01*
X1021309Y609398D01*
X1021003D01*
X1020658Y609243D01*
X1020390Y608985D01*
X1020198Y608675D01*
X1020045Y608158D01*
X1020007Y607693D01*
X1020083Y607229D01*
X1020198Y606919D01*
X1020428Y606609D01*
X1020696Y606402D01*
X1020965Y606299D01*
X1021233D01*
X1021501Y606402D01*
X1021731Y606557D01*
X1021922Y606764D01*
G01X1024906Y609139D02*
X1024676Y609294D01*
X1024408Y609398D01*
X1024101D01*
X1023756Y609243D01*
X1023488Y608985D01*
X1023296Y608675D01*
X1023143Y608158D01*
X1023105Y607693D01*
X1023181Y607229D01*
X1023296Y606919D01*
X1023526Y606609D01*
X1023795Y606402D01*
X1024063Y606299D01*
X1024331D01*
X1024600Y606402D01*
X1024830Y606557D01*
X1025021Y606764D01*
G01X1027161Y606299D02*
Y609398D01*
X1026702Y608778D01*
G01Y606299D02*
X1027621D01*
G01X1029417Y606919D02*
X1029647Y606557D01*
X1029953Y606351D01*
X1030298Y606299D01*
X1030605Y606351D01*
X1030911Y606609D01*
X1031103Y606919D01*
X1031141Y607229D01*
X1031065Y607590D01*
X1030796Y607848D01*
X1030528Y607952D01*
X1030183D01*
G01X1030528D02*
X1030758Y608107D01*
X1030950Y608365D01*
X1031026Y608675D01*
X1030950Y608985D01*
X1030758Y609243D01*
X1030413Y609398D01*
X1030068Y609346D01*
X1029723Y609139D01*
G01X1033358Y606299D02*
Y609398D01*
X1032898Y608778D01*
G01Y606299D02*
X1033818D01*
G01X1036457Y609398D02*
X1036150Y609294D01*
X1035920Y609036D01*
X1035767Y608726D01*
X1035652Y608313D01*
X1035614Y607848D01*
X1035652Y607383D01*
X1035767Y606970D01*
X1035920Y606661D01*
X1036150Y606402D01*
X1036457Y606299D01*
X1036763Y606402D01*
X1036993Y606661D01*
X1037146Y606970D01*
X1037261Y607383D01*
X1037300Y607848D01*
X1037261Y608313D01*
X1037146Y608726D01*
X1036993Y609036D01*
X1036763Y609294D01*
X1036457Y609398D01*
G01X1041696Y606299D02*
X1042654Y609398D01*
X1043611Y606299D01*
G01X1043267Y607383D02*
X1042041D01*
M02*
