G04 ================== begin FILE IDENTIFICATION RECORD ==================*
G04 Layout Name:  LAUNCHXL-CC1310.brd*
G04 Film Name:    LAUNCHXL-CC1310_Top*
G04 File Format:  Gerber RS274X*
G04 File Origin:  Cadence Allegro 17.2-S024*
G04 Origin Date:  Tue Feb 18 08:08:47 2020*
G04 *
G04 Layer:  DRAWING FORMAT/TITLE_BLOCK*
G04 Layer:  BOARD GEOMETRY/LAYER1*
G04 Layer:  BOARD GEOMETRY/OUTLINE*
G04 Layer:  DRAWING FORMAT/ANTENNA_GROUND*
G04 Layer:  VIA CLASS/TOP*
G04 Layer:  PIN/TOP*
G04 Layer:  ETCH/TOP*
G04 *
G04 Offset:    (0.0000 0.0000)*
G04 Mirror:    No*
G04 Mode:      Positive*
G04 Rotation:  0*
G04 FullContactRelief:  No*
G04 UndefLineWidth:     0.0990*
G04 ================== end FILE IDENTIFICATION RECORD ====================*
%FSLAX25Y25*MOIN*%
%IR0*IPPOS*OFA0.00000B0.00000*MIA0B0*SFA1.00000B1.00000*%
%ADD20O,.059094X.007913*%
%ADD29O,.007913X.059094*%
%AMMACRO71*
4,1,22,-.005906,.015748,
-.005906,-.012795,
-.005861,-.013308,
-.005727,-.013805,
-.00551,-.014272,
-.005215,-.014693,
-.004851,-.015057,
-.004429,-.015352,
-.003963,-.01557,
-.003465,-.015703,
-.002953,-.015748,
.002953,-.015748,
.003465,-.015703,
.003963,-.01557,
.004429,-.015352,
.004851,-.015057,
.005215,-.014693,
.00551,-.014272,
.005727,-.013805,
.005861,-.013308,
.005906,-.012795,
.005906,.015748,
-.005906,.015748,
0.0*
%
%ADD71MACRO71*%
%AMMACRO68*
4,1,22,-.015748,-.005906,
.012795,-.005906,
.013308,-.005861,
.013805,-.005727,
.014272,-.00551,
.014693,-.005215,
.015057,-.004851,
.015352,-.004429,
.01557,-.003963,
.015703,-.003465,
.015748,-.002953,
.015748,.002953,
.015703,.003465,
.01557,.003963,
.015352,.004429,
.015057,.004851,
.014693,.005215,
.014272,.00551,
.013805,.005727,
.013308,.005861,
.012795,.005906,
-.015748,.005906,
-.015748,-.005906,
0.0*
%
%ADD68MACRO68*%
%AMMACRO59*
4,1,45,0.0,-.014764,
.003465,-.014764,
.003892,-.014723,
.004305,-.014609,
.004692,-.014424,
.005042,-.014175,
.005342,-.01387,
.005586,-.013516,
.005764,-.013126,
.005872,-.012711,
.005906,-.012284,
.005906,-.012283,
.005906,.012283,
.005872,.012711,
.005764,.013126,
.005586,.013516,
.005343,.01387,
.005042,.014175,
.004692,.014424,
.004305,.014609,
.003892,.014723,
.003465,.014764,
.003465,.014764,
-.003465,.014764,
-.003892,.014723,
-.004305,.014609,
-.004692,.014424,
-.005042,.014175,
-.005342,.01387,
-.005586,.013516,
-.005764,.013126,
-.005872,.012711,
-.005906,.012284,
-.005906,.012283,
-.005906,-.012283,
-.005872,-.012711,
-.005764,-.013126,
-.005586,-.013516,
-.005343,-.01387,
-.005042,-.014175,
-.004692,-.014424,
-.004305,-.014609,
-.003892,-.014723,
-.003465,-.014764,
-.003465,-.014764,
0.0,-.014764,
0.0*
%
%ADD59MACRO59*%
%ADD63R,.066929X.011811*%
%AMMACRO46*
4,1,41,0.0,-.012795,
.005906,-.012795,
.006931,-.012706,
.007925,-.012439,
.008858,-.012004,
.009702,-.011414,
.010429,-.010686,
.01102,-.009843,
.011455,-.00891,
.011721,-.007915,
.011811,-.00689,
.011811,.00689,
.011721,.007915,
.011455,.00891,
.01102,.009843,
.010429,.010686,
.009702,.011414,
.008858,.012004,
.007925,.012439,
.006931,.012706,
.005906,.012795,
-.005906,.012795,
-.006931,.012706,
-.007925,.012439,
-.008858,.012004,
-.009702,.011414,
-.010429,.010686,
-.01102,.009843,
-.011455,.00891,
-.011721,.007915,
-.011811,.00689,
-.011811,-.00689,
-.011721,-.007915,
-.011455,-.00891,
-.01102,-.009843,
-.010429,-.010686,
-.009702,-.011414,
-.008858,-.012004,
-.007925,-.012439,
-.006931,-.012706,
-.005906,-.012795,
0.0,-.012795,
0.0*
%
%ADD46MACRO46*%
%ADD37O,.031496X.045276*%
%AMMACRO52*
4,1,44,.017717,.007402,
.017717,-.007402,
.017605,-.008686,
.017273,-.009931,
.016729,-.0111,
.015991,-.012157,
.01508,-.013069,
.014025,-.013809,
.012857,-.014355,
.011612,-.01469,
.010328,-.014803,
.010315,-.014803,
-.010315,-.014803,
-.011599,-.014692,
-.012845,-.014359,
-.014013,-.013816,
-.01507,-.013077,
-.015982,-.012167,
-.016723,-.011111,
-.017268,-.009944,
-.017603,-.008699,
-.017717,-.007415,
-.017717,-.007402,
-.017717,.007402,
-.017605,.008686,
-.017273,.009931,
-.016729,.0111,
-.015991,.012157,
-.01508,.013069,
-.014025,.013809,
-.012857,.014355,
-.011612,.01469,
-.010328,.014803,
-.010315,.014803,
.010315,.014803,
.011599,.014692,
.012845,.014359,
.014013,.013816,
.01507,.013077,
.015982,.012167,
.016723,.011111,
.017268,.009944,
.017603,.008699,
.017717,.007415,
.017717,.007402,
0.0*
%
%ADD52MACRO52*%
%ADD26C,.003937*%
%AMMACRO27*
4,1,45,.014803,0.0,
.014803,.00811,
.014706,.009269,
.014408,.010393,
.01392,.011449,
.013257,.012403,
.012437,.013228,
.011487,.013898,
.010434,.014393,
.009312,.014698,
.008154,.014803,
.00811,.014803,
-.00811,.014803,
-.009269,.014706,
-.010393,.014408,
-.011449,.01392,
-.012403,.013257,
-.013228,.012437,
-.013898,.011487,
-.014393,.010434,
-.014698,.009312,
-.014803,.008154,
-.014803,.00811,
-.014803,-.00811,
-.014706,-.009269,
-.014408,-.010393,
-.01392,-.011449,
-.013257,-.012403,
-.012437,-.013228,
-.011487,-.013898,
-.010434,-.014393,
-.009312,-.014698,
-.008154,-.014803,
-.00811,-.014803,
.00811,-.014803,
.009269,-.014706,
.010393,-.014408,
.011449,-.01392,
.012403,-.013257,
.013228,-.012437,
.013898,-.011487,
.014393,-.010434,
.014698,-.009312,
.014803,-.008154,
.014803,-.00811,
.014803,0.0,
0.0*
%
%ADD27MACRO27*%
%ADD35R,.035433X.066929*%
%ADD12C,.015748*%
%ADD51C,.019685*%
%AMMACRO36*
4,1,41,-.01378,0.0,
-.01378,-.002953,
-.013735,-.003465,
-.013601,-.003963,
-.013384,-.004429,
-.013089,-.004851,
-.012725,-.005215,
-.012303,-.00551,
-.011837,-.005727,
-.01134,-.005861,
-.010827,-.005906,
.010827,-.005906,
.01134,-.005861,
.011837,-.005727,
.012303,-.00551,
.012725,-.005215,
.013089,-.004851,
.013384,-.004429,
.013601,-.003963,
.013735,-.003465,
.01378,-.002953,
.01378,.002953,
.013735,.003465,
.013601,.003963,
.013384,.004429,
.013089,.004851,
.012725,.005215,
.012303,.00551,
.011837,.005727,
.01134,.005861,
.010827,.005906,
-.010827,.005906,
-.01134,.005861,
-.011837,.005727,
-.012303,.00551,
-.012725,.005215,
-.013089,.004851,
-.013384,.004429,
-.013601,.003963,
-.013735,.003465,
-.01378,.002953,
-.01378,0.0,
0.0*
%
%ADD36MACRO36*%
%AMMACRO45*
4,1,45,-.007874,0.0,
-.007874,-.003465,
-.007818,-.004062,
-.00766,-.004642,
-.007403,-.005184,
-.007055,-.005674,
-.006628,-.006096,
-.006135,-.006438,
-.005589,-.006689,
-.005008,-.006841,
-.004409,-.00689,
-.004409,-.00689,
.004409,-.00689,
.005008,-.006841,
.005589,-.006689,
.006135,-.006438,
.006628,-.006096,
.007055,-.005674,
.007403,-.005184,
.00766,-.004642,
.007818,-.004062,
.007874,-.003465,
.007874,-.003465,
.007874,.003465,
.007818,.004062,
.00766,.004642,
.007403,.005184,
.007055,.005674,
.006628,.006096,
.006135,.006438,
.005589,.006689,
.005008,.006841,
.004409,.00689,
.004409,.00689,
-.004409,.00689,
-.005008,.006841,
-.005589,.006689,
-.006135,.006438,
-.006628,.006096,
-.007055,.005674,
-.007403,.005184,
-.00766,.004642,
-.007818,.004062,
-.007874,.003465,
-.007874,.003465,
-.007874,0.0,
0.0*
%
%ADD45MACRO45*%
%AMMACRO54*
4,1,42,.019685,0.0,
.019685,.00937,
.01954,.010993,
.019114,.012567,
.018422,.014043,
.017485,.015376,
.01633,.016526,
.014993,.017458,
.013514,.018144,
.011939,.018562,
.010315,.018701,
.010315,.018701,
-.010315,.018701,
-.011939,.018562,
-.013514,.018144,
-.014993,.017458,
-.01633,.016526,
-.017485,.015376,
-.018422,.014043,
-.019114,.012567,
-.01954,.010993,
-.019685,.00937,
-.019685,-.00937,
-.01954,-.010993,
-.019114,-.012567,
-.018422,-.014043,
-.017485,-.015376,
-.01633,-.016526,
-.014993,-.017458,
-.013514,-.018144,
-.011939,-.018562,
-.010315,-.018701,
.010315,-.018701,
.011939,-.018562,
.013514,-.018144,
.014993,-.017458,
.01633,-.016526,
.017485,-.015376,
.018422,-.014043,
.019114,-.012567,
.01954,-.010993,
.019685,-.00937,
.019685,0.0,
0.0*
%
%ADD54MACRO54*%
%AMMACRO75*
4,1,45,0.0,.027559,
-.008346,.027559,
-.010312,.027391,
-.012219,.026883,
-.014009,.026052,
-.015627,.024924,
-.017024,.023531,
-.018159,.021917,
-.018996,.02013,
-.01951,.018225,
-.019685,.01626,
-.019685,.01622,
-.019685,-.01622,
-.019516,-.018186,
-.019009,-.020093,
-.018178,-.021883,
-.01705,-.023501,
-.015657,-.024898,
-.014043,-.026033,
-.012256,-.02687,
-.010351,-.027384,
-.008386,-.027559,
-.008346,-.027559,
.008346,-.027559,
.010312,-.027391,
.012219,-.026883,
.014009,-.026052,
.015627,-.024924,
.017024,-.023531,
.018159,-.021917,
.018996,-.02013,
.01951,-.018225,
.019685,-.01626,
.019685,-.01622,
.019685,.01622,
.019516,.018186,
.019009,.020093,
.018178,.021883,
.01705,.023501,
.015657,.024898,
.014043,.026033,
.012256,.02687,
.010351,.027384,
.008386,.027559,
.008346,.027559,
0.0,.027559,
0.0*
%
%ADD75MACRO75*%
%AMMACRO38*
4,1,45,-.027559,0.0,
-.027559,-.008346,
-.027391,-.010312,
-.026883,-.012219,
-.026052,-.014009,
-.024924,-.015627,
-.023531,-.017024,
-.021917,-.018159,
-.02013,-.018996,
-.018225,-.01951,
-.01626,-.019685,
-.01622,-.019685,
.01622,-.019685,
.018186,-.019516,
.020093,-.019009,
.021883,-.018178,
.023501,-.01705,
.024898,-.015657,
.026033,-.014043,
.02687,-.012256,
.027384,-.010351,
.027559,-.008386,
.027559,-.008346,
.027559,.008346,
.027391,.010312,
.026883,.012219,
.026052,.014009,
.024924,.015627,
.023531,.017024,
.021917,.018159,
.02013,.018996,
.018225,.01951,
.01626,.019685,
.01622,.019685,
-.01622,.019685,
-.018186,.019516,
-.020093,.019009,
-.021883,.018178,
-.023501,.01705,
-.024898,.015657,
-.026033,.014043,
-.02687,.012256,
-.027384,.010351,
-.027559,.008386,
-.027559,.008346,
-.027559,0.0,
0.0*
%
%ADD38MACRO38*%
%AMMACRO73*
4,1,45,0.0,-.060039,
.007362,-.060039,
.008644,-.059931,
.009888,-.059601,
.011056,-.05906,
.012112,-.058325,
.013024,-.057418,
.013765,-.056365,
.014312,-.055201,
.014648,-.053959,
.014764,-.052677,
.014764,-.052638,
.014764,.052638,
.014655,.05392,
.014325,.055164,
.013785,.056331,
.013049,.057387,
.012142,.0583,
.01109,.059041,
.009925,.059587,
.008683,.059924,
.007402,.060039,
.007362,.060039,
-.007362,.060039,
-.008644,.059931,
-.009888,.059601,
-.011056,.05906,
-.012112,.058325,
-.013024,.057418,
-.013765,.056365,
-.014312,.055201,
-.014648,.053959,
-.014764,.052677,
-.014764,.052638,
-.014764,-.052638,
-.014655,-.05392,
-.014325,-.055164,
-.013785,-.056331,
-.013049,-.057387,
-.012142,-.0583,
-.01109,-.059041,
-.009925,-.059587,
-.008683,-.059924,
-.007402,-.060039,
-.007362,-.060039,
0.0,-.060039,
0.0*
%
%ADD73MACRO73*%
%AMMACRO74*
4,1,41,.025591,0.0,
.025591,.008858,
.025456,.010396,
.025056,.011888,
.024404,.013287,
.023518,.014552,
.022426,.015644,
.021161,.01653,
.019762,.017182,
.018271,.017582,
.016732,.017717,
-.016732,.017717,
-.018271,.017582,
-.019762,.017182,
-.021161,.01653,
-.022426,.015644,
-.023518,.014552,
-.024404,.013287,
-.025056,.011888,
-.025456,.010396,
-.025591,.008858,
-.025591,-.008858,
-.025456,-.010396,
-.025056,-.011888,
-.024404,-.013287,
-.023518,-.014552,
-.022426,-.015644,
-.021161,-.01653,
-.019762,-.017182,
-.018271,-.017582,
-.016732,-.017717,
.016732,-.017717,
.018271,-.017582,
.019762,-.017182,
.021161,-.01653,
.022426,-.015644,
.023518,-.014552,
.024404,-.013287,
.025056,-.011888,
.025456,-.010396,
.025591,-.008858,
.025591,0.0,
0.0*
%
%ADD74MACRO74*%
%AMMACRO57*
4,1,41,0.0,.012795,
-.001969,.012795,
-.00231,.012765,
-.002642,.012677,
-.002953,.012532,
-.003234,.012335,
-.003476,.012092,
-.003673,.011811,
-.003818,.0115,
-.003907,.011169,
-.003937,.010827,
-.003937,-.010827,
-.003907,-.011169,
-.003818,-.0115,
-.003673,-.011811,
-.003476,-.012092,
-.003234,-.012335,
-.002953,-.012532,
-.002642,-.012677,
-.00231,-.012765,
-.001969,-.012795,
.001969,-.012795,
.00231,-.012765,
.002642,-.012677,
.002953,-.012532,
.003234,-.012335,
.003476,-.012092,
.003673,-.011811,
.003818,-.0115,
.003907,-.011169,
.003937,-.010827,
.003937,.010827,
.003907,.011169,
.003818,.0115,
.003673,.011811,
.003476,.012092,
.003234,.012335,
.002953,.012532,
.002642,.012677,
.00231,.012765,
.001969,.012795,
0.0,.012795,
0.0*
%
%ADD57MACRO57*%
%AMMACRO42*
4,1,43,0.0,-.027559,
.004409,-.027559,
.005179,-.027495,
.005925,-.027299,
.006627,-.026976,
.007261,-.026535,
.007809,-.025992,
.008255,-.025362,
.008584,-.024663,
.008788,-.023918,
.008858,-.02315,
.008858,.02315,
.008788,.023918,
.008584,.024663,
.008255,.025362,
.007809,.025992,
.007261,.026535,
.006627,.026976,
.005925,.027299,
.005179,.027495,
.004409,.027559,
.004409,.027559,
-.004409,.027559,
-.005179,.027495,
-.005925,.027299,
-.006627,.026976,
-.007261,.026535,
-.007809,.025992,
-.008255,.025362,
-.008584,.024663,
-.008788,.023918,
-.008858,.02315,
-.008858,.02315,
-.008858,-.02315,
-.008788,-.023918,
-.008584,-.024663,
-.008255,-.025362,
-.007809,-.025992,
-.007261,-.026535,
-.006627,-.026976,
-.005925,-.027299,
-.005179,-.027495,
-.004409,-.027559,
0.0,-.027559,
0.0*
%
%ADD42MACRO42*%
%AMMACRO32*
4,1,45,0.0,.027598,
-.012283,.027598,
-.014249,.027423,
-.016154,.026909,
-.01794,.026072,
-.019555,.024938,
-.020947,.02354,
-.022076,.021922,
-.022907,.020133,
-.023414,.018226,
-.023583,.01626,
-.023583,.01622,
-.023583,-.01622,
-.023421,-.018187,
-.02292,-.020095,
-.022096,-.021888,
-.020973,-.02351,
-.019585,-.024912,
-.017974,-.026052,
-.016191,-.026895,
-.014288,-.027416,
-.012323,-.027598,
-.012283,-.027598,
.012283,-.027598,
.014249,-.027423,
.016154,-.026909,
.01794,-.026072,
.019555,-.024938,
.020947,-.02354,
.022076,-.021922,
.022907,-.020133,
.023414,-.018226,
.023583,-.01626,
.023583,-.01622,
.023583,.01622,
.023421,.018187,
.02292,.020095,
.022096,.021888,
.020973,.02351,
.019585,.024912,
.017974,.026052,
.016191,.026895,
.014288,.027416,
.012323,.027598,
.012283,.027598,
0.0,.027598,
0.0*
%
%ADD32MACRO32*%
%AMMACRO23*
4,1,40,-.010315,-.004331,
-.010231,-.005288,
-.009983,-.006216,
-.009577,-.007087,
-.009025,-.007874,
-.008346,-.008553,
-.007559,-.009104,
-.006688,-.00951,
-.00576,-.009759,
-.004803,-.009843,
.004803,-.009843,
.00576,-.009759,
.006688,-.00951,
.007559,-.009104,
.008346,-.008553,
.009025,-.007874,
.009577,-.007087,
.009983,-.006216,
.010231,-.005288,
.010315,-.004331,
.010315,.004331,
.010231,.005288,
.009983,.006216,
.009577,.007087,
.009025,.007874,
.008346,.008553,
.007559,.009104,
.006688,.00951,
.00576,.009759,
.004803,.009843,
-.004803,.009843,
-.00576,.009759,
-.006688,.00951,
-.007559,.009104,
-.008346,.008553,
-.009025,.007874,
-.009577,.007087,
-.009983,.006216,
-.010231,.005288,
-.010315,.004331,
-.010315,-.004331,
0.0*
%
%ADD23MACRO23*%
%AMMACRO22*
4,1,40,-.004331,.010315,
-.005288,.010231,
-.006216,.009983,
-.007087,.009577,
-.007874,.009025,
-.008553,.008346,
-.009104,.007559,
-.00951,.006688,
-.009759,.00576,
-.009843,.004803,
-.009843,-.004803,
-.009759,-.00576,
-.00951,-.006688,
-.009104,-.007559,
-.008553,-.008346,
-.007874,-.009025,
-.007087,-.009577,
-.006216,-.009983,
-.005288,-.010231,
-.004331,-.010315,
.004331,-.010315,
.005288,-.010231,
.006216,-.009983,
.007087,-.009577,
.007874,-.009025,
.008553,-.008346,
.009104,-.007559,
.00951,-.006688,
.009759,-.00576,
.009843,-.004803,
.009843,.004803,
.009759,.00576,
.00951,.006688,
.009104,.007559,
.008553,.008346,
.007874,.009025,
.007087,.009577,
.006216,.009983,
.005288,.010231,
.004331,.010315,
-.004331,.010315,
0.0*
%
%ADD22MACRO22*%
%AMMACRO14*
4,1,44,.004232,.010354,
.003497,.010973,
.002665,.011453,
.001762,.011782,
.000816,.011949,
-.000145,.01195,
-.001091,.011783,
-.001994,.011455,
-.002826,.010975,
-.003562,.010357,
-.003563,.010354,
-.010354,.003563,
-.010973,.002828,
-.011454,.001996,
-.011782,.001093,
-.011949,.000147,
-.01195,-.000814,
-.011783,-.00176,
-.011454,-.002663,
-.010974,-.003495,
-.010357,-.004231,
-.010354,-.004232,
-.004232,-.010354,
-.003497,-.010973,
-.002665,-.011453,
-.001762,-.011782,
-.000816,-.011949,
.000145,-.01195,
.001091,-.011783,
.001994,-.011455,
.002826,-.010975,
.003562,-.010357,
.003563,-.010354,
.010354,-.003563,
.010973,-.002828,
.011454,-.001996,
.011782,-.001093,
.011949,-.000147,
.01195,.000814,
.011783,.00176,
.011454,.002663,
.010974,.003495,
.010357,.004231,
.010354,.004232,
.004232,.010354,
0.0*
%
%ADD14MACRO14*%
%AMMACRO13*
4,1,44,-.004232,-.010354,
-.003497,-.010973,
-.002665,-.011453,
-.001762,-.011782,
-.000816,-.011949,
.000145,-.01195,
.001091,-.011783,
.001994,-.011455,
.002826,-.010975,
.003562,-.010357,
.003563,-.010354,
.010354,-.003563,
.010973,-.002828,
.011454,-.001996,
.011782,-.001093,
.011949,-.000147,
.01195,.000814,
.011783,.00176,
.011454,.002663,
.010974,.003495,
.010357,.004231,
.010354,.004232,
.004232,.010354,
.003497,.010973,
.002665,.011453,
.001762,.011782,
.000816,.011949,
-.000145,.01195,
-.001091,.011783,
-.001994,.011455,
-.002826,.010975,
-.003562,.010357,
-.003563,.010354,
-.010354,.003563,
-.010973,.002828,
-.011454,.001996,
-.011782,.001093,
-.011949,.000147,
-.01195,-.000814,
-.011783,-.00176,
-.011454,-.002663,
-.010974,-.003495,
-.010357,-.004231,
-.010354,-.004232,
-.004232,-.010354,
0.0*
%
%ADD13MACRO13*%
%AMMACRO61*
4,1,41,0.0,.012795,
-.005315,.012795,
-.00658,.012685,
-.007806,.012356,
-.008957,.011819,
-.009997,.011091,
-.010894,.010194,
-.011623,.009154,
-.012159,.008003,
-.012488,.006777,
-.012598,.005512,
-.012598,-.005512,
-.012488,-.006777,
-.012159,-.008003,
-.011623,-.009154,
-.010894,-.010194,
-.009997,-.011091,
-.008957,-.011819,
-.007806,-.012356,
-.00658,-.012685,
-.005315,-.012795,
.005315,-.012795,
.00658,-.012685,
.007806,-.012356,
.008957,-.011819,
.009997,-.011091,
.010894,-.010194,
.011623,-.009154,
.012159,-.008003,
.012488,-.006777,
.012598,-.005512,
.012598,.005512,
.012488,.006777,
.012159,.008003,
.011623,.009154,
.010894,.010194,
.009997,.011091,
.008957,.011819,
.007806,.012356,
.00658,.012685,
.005315,.012795,
0.0,.012795,
0.0*
%
%ADD61MACRO61*%
%AMMACRO25*
4,1,41,-.012795,0.0,
-.012795,-.005315,
-.012685,-.00658,
-.012356,-.007806,
-.011819,-.008957,
-.011091,-.009997,
-.010194,-.010894,
-.009154,-.011623,
-.008003,-.012159,
-.006777,-.012488,
-.005512,-.012598,
.005512,-.012598,
.006777,-.012488,
.008003,-.012159,
.009154,-.011623,
.010194,-.010894,
.011091,-.009997,
.011819,-.008957,
.012356,-.007806,
.012685,-.00658,
.012795,-.005315,
.012795,.005315,
.012685,.00658,
.012356,.007806,
.011819,.008957,
.011091,.009997,
.010194,.010894,
.009154,.011623,
.008003,.012159,
.006777,.012488,
.005512,.012598,
-.005512,.012598,
-.006777,.012488,
-.008003,.012159,
-.009154,.011623,
-.010194,.010894,
-.011091,.009997,
-.011819,.008957,
-.012356,.007806,
-.012685,.00658,
-.012795,.005315,
-.012795,0.0,
0.0*
%
%ADD25MACRO25*%
%ADD44R,.07874X.03937*%
%ADD39O,.055118X.082677*%
%AMMACRO69*
4,1,22,.015748,.005906,
-.012795,.005906,
-.013308,.005861,
-.013805,.005727,
-.014272,.00551,
-.014693,.005215,
-.015057,.004851,
-.015352,.004429,
-.01557,.003963,
-.015703,.003465,
-.015748,.002953,
-.015748,-.002953,
-.015703,-.003465,
-.01557,-.003963,
-.015352,-.004429,
-.015057,-.004851,
-.014693,-.005215,
-.014272,-.00551,
-.013805,-.005727,
-.013308,-.005861,
-.012795,-.005906,
.015748,-.005906,
.015748,.005906,
0.0*
%
%ADD69MACRO69*%
%AMMACRO33*
4,1,44,-.017717,-.007402,
-.017717,.007402,
-.017605,.008686,
-.017273,.009931,
-.016729,.0111,
-.015991,.012157,
-.01508,.013069,
-.014025,.013809,
-.012857,.014355,
-.011612,.01469,
-.010328,.014803,
-.010315,.014803,
.010315,.014803,
.011599,.014692,
.012845,.014359,
.014013,.013816,
.01507,.013077,
.015982,.012167,
.016723,.011111,
.017268,.009944,
.017603,.008699,
.017717,.007415,
.017717,.007402,
.017717,-.007402,
.017605,-.008686,
.017273,-.009931,
.016729,-.0111,
.015991,-.012157,
.01508,-.013069,
.014025,-.013809,
.012857,-.014355,
.011612,-.01469,
.010328,-.014803,
.010315,-.014803,
-.010315,-.014803,
-.011599,-.014692,
-.012845,-.014359,
-.014013,-.013816,
-.01507,-.013077,
-.015982,-.012167,
-.016723,-.011111,
-.017268,-.009944,
-.017603,-.008699,
-.017717,-.007415,
-.017717,-.007402,
0.0*
%
%ADD33MACRO33*%
%AMMACRO70*
4,1,22,.005906,-.015748,
.005906,.012795,
.005861,.013308,
.005727,.013805,
.00551,.014272,
.005215,.014693,
.004851,.015057,
.004429,.015352,
.003963,.01557,
.003465,.015703,
.002953,.015748,
-.002953,.015748,
-.003465,.015703,
-.003963,.01557,
-.004429,.015352,
-.004851,.015057,
-.005215,.014693,
-.00551,.014272,
-.005727,.013805,
-.005861,.013308,
-.005906,.012795,
-.005906,-.015748,
.005906,-.015748,
0.0*
%
%ADD70MACRO70*%
%AMMACRO19*
4,1,45,-.014803,0.0,
-.014803,-.00811,
-.014706,-.009269,
-.014408,-.010393,
-.01392,-.011449,
-.013257,-.012403,
-.012437,-.013228,
-.011487,-.013898,
-.010434,-.014393,
-.009312,-.014698,
-.008154,-.014803,
-.00811,-.014803,
.00811,-.014803,
.009269,-.014706,
.010393,-.014408,
.011449,-.01392,
.012403,-.013257,
.013228,-.012437,
.013898,-.011487,
.014393,-.010434,
.014698,-.009312,
.014803,-.008154,
.014803,-.00811,
.014803,.00811,
.014706,.009269,
.014408,.010393,
.01392,.011449,
.013257,.012403,
.012437,.013228,
.011487,.013898,
.010434,.014393,
.009312,.014698,
.008154,.014803,
.00811,.014803,
-.00811,.014803,
-.009269,.014706,
-.010393,.014408,
-.011449,.01392,
-.012403,.013257,
-.013228,.012437,
-.013898,.011487,
-.014393,.010434,
-.014698,.009312,
-.014803,.008154,
-.014803,.00811,
-.014803,0.0,
0.0*
%
%ADD19MACRO19*%
%ADD60R,.098425X.064961*%
%AMMACRO50*
4,1,41,.035433,0.0,
.035433,.009843,
.035284,.011552,
.034839,.013209,
.034114,.014764,
.03313,.016169,
.031917,.017382,
.030512,.018366,
.028957,.019091,
.0273,.019536,
.025591,.019685,
-.025591,.019685,
-.0273,.019536,
-.028957,.019091,
-.030512,.018366,
-.031917,.017382,
-.03313,.016169,
-.034114,.014764,
-.034839,.013209,
-.035284,.011552,
-.035433,.009843,
-.035433,-.009843,
-.035284,-.011552,
-.034839,-.013209,
-.034114,-.014764,
-.03313,-.016169,
-.031917,-.017382,
-.030512,-.018366,
-.028957,-.019091,
-.0273,-.019536,
-.025591,-.019685,
.025591,-.019685,
.0273,-.019536,
.028957,-.019091,
.030512,-.018366,
.031917,-.017382,
.03313,-.016169,
.034114,-.014764,
.034839,-.013209,
.035284,-.011552,
.035433,-.009843,
.035433,0.0,
0.0*
%
%ADD50MACRO50*%
%ADD66C,.070866*%
%AMMACRO43*
4,1,41,0.0,-.007874,
.002953,-.007874,
.003465,-.007829,
.003963,-.007696,
.004429,-.007478,
.004851,-.007183,
.005215,-.006819,
.00551,-.006398,
.005727,-.005931,
.005861,-.005434,
.005906,-.004921,
.005906,.004921,
.005861,.005434,
.005727,.005931,
.00551,.006398,
.005215,.006819,
.004851,.007183,
.004429,.007478,
.003963,.007696,
.003465,.007829,
.002953,.007874,
-.002953,.007874,
-.003465,.007829,
-.003963,.007696,
-.004429,.007478,
-.004851,.007183,
-.005215,.006819,
-.00551,.006398,
-.005727,.005931,
-.005861,.005434,
-.005906,.004921,
-.005906,-.004921,
-.005861,-.005434,
-.005727,-.005931,
-.00551,-.006398,
-.005215,-.006819,
-.004851,-.007183,
-.004429,-.007478,
-.003963,-.007696,
-.003465,-.007829,
-.002953,-.007874,
0.0,-.007874,
0.0*
%
%ADD43MACRO43*%
%ADD10C,.05*%
%ADD11C,.149606*%
%AMMACRO67*
4,1,42,-.019685,0.0,
-.019685,-.00937,
-.01954,-.010993,
-.019114,-.012567,
-.018422,-.014043,
-.017485,-.015376,
-.01633,-.016526,
-.014993,-.017458,
-.013514,-.018144,
-.011939,-.018562,
-.010315,-.018701,
.010315,-.018701,
.011939,-.018562,
.013514,-.018144,
.014993,-.017458,
.01633,-.016526,
.017485,-.015376,
.018422,-.014043,
.019114,-.012567,
.01954,-.010993,
.019685,-.00937,
.019685,.00937,
.01954,.010993,
.019114,.012567,
.018422,.014043,
.017485,.015376,
.01633,.016526,
.014993,.017458,
.013514,.018144,
.011939,.018562,
.010315,.018701,
.010315,.018701,
-.010315,.018701,
-.011939,.018562,
-.013514,.018144,
-.014993,.017458,
-.01633,.016526,
-.017485,.015376,
-.018422,.014043,
-.019114,.012567,
-.01954,.010993,
-.019685,.00937,
-.019685,0.0,
0.0*
%
%ADD67MACRO67*%
%AMMACRO53*
4,1,41,0.0,.019685,
-.00937,.019685,
-.010993,.01954,
-.012567,.019114,
-.014043,.018422,
-.015376,.017485,
-.016526,.01633,
-.017458,.014993,
-.018144,.013514,
-.018562,.011939,
-.018701,.010315,
-.018701,-.010315,
-.018562,-.011939,
-.018144,-.013514,
-.017458,-.014993,
-.016526,-.01633,
-.015376,-.017485,
-.014043,-.018422,
-.012567,-.019114,
-.010993,-.01954,
-.00937,-.019685,
.00937,-.019685,
.010993,-.01954,
.012567,-.019114,
.014043,-.018422,
.015376,-.017485,
.016526,-.01633,
.017458,-.014993,
.018144,-.013514,
.018562,-.011939,
.018701,-.010315,
.018701,.010315,
.018562,.011939,
.018144,.013514,
.017458,.014993,
.016526,.01633,
.015376,.017485,
.014043,.018422,
.012567,.019114,
.010993,.01954,
.00937,.019685,
0.0,.019685,
0.0*
%
%ADD53MACRO53*%
%ADD28C,.064961*%
%AMMACRO72*
4,1,45,0.0,.060039,
-.007362,.060039,
-.008644,.059931,
-.009888,.059601,
-.011056,.05906,
-.012112,.058325,
-.013024,.057418,
-.013765,.056365,
-.014312,.055201,
-.014648,.053959,
-.014764,.052677,
-.014764,.052638,
-.014764,-.052638,
-.014655,-.05392,
-.014325,-.055164,
-.013785,-.056331,
-.013049,-.057387,
-.012142,-.0583,
-.01109,-.059041,
-.009925,-.059587,
-.008683,-.059924,
-.007402,-.060039,
-.007362,-.060039,
.007362,-.060039,
.008644,-.059931,
.009888,-.059601,
.011056,-.05906,
.012112,-.058325,
.013024,-.057418,
.013765,-.056365,
.014312,-.055201,
.014648,-.053959,
.014764,-.052677,
.014764,-.052638,
.014764,.052638,
.014655,.05392,
.014325,.055164,
.013785,.056331,
.013049,.057387,
.012142,.0583,
.01109,.059041,
.009925,.059587,
.008683,.059924,
.007402,.060039,
.007362,.060039,
0.0,.060039,
0.0*
%
%ADD72MACRO72*%
%ADD49R,.206693X.206693*%
%AMMACRO18*
4,1,45,0.0,-.027559,
.008346,-.027559,
.010312,-.027391,
.012219,-.026883,
.014009,-.026052,
.015627,-.024924,
.017024,-.023531,
.018159,-.021917,
.018996,-.02013,
.01951,-.018225,
.019685,-.01626,
.019685,-.01622,
.019685,.01622,
.019516,.018186,
.019009,.020093,
.018178,.021883,
.01705,.023501,
.015657,.024898,
.014043,.026033,
.012256,.02687,
.010351,.027384,
.008386,.027559,
.008346,.027559,
-.008346,.027559,
-.010312,.027391,
-.012219,.026883,
-.014009,.026052,
-.015627,.024924,
-.017024,.023531,
-.018159,.021917,
-.018996,.02013,
-.01951,.018225,
-.019685,.01626,
-.019685,.01622,
-.019685,-.01622,
-.019516,-.018186,
-.019009,-.020093,
-.018178,-.021883,
-.01705,-.023501,
-.015657,-.024898,
-.014043,-.026033,
-.012256,-.02687,
-.010351,-.027384,
-.008386,-.027559,
-.008346,-.027559,
0.0,-.027559,
0.0*
%
%ADD18MACRO18*%
%ADD16C,.003898*%
%ADD15C,.06689*%
%AMMACRO62*
4,1,41,0.0,.025591,
-.008858,.025591,
-.010396,.025456,
-.011888,.025056,
-.013287,.024404,
-.014552,.023518,
-.015644,.022426,
-.01653,.021161,
-.017182,.019762,
-.017582,.018271,
-.017717,.016732,
-.017717,-.016732,
-.017582,-.018271,
-.017182,-.019762,
-.01653,-.021161,
-.015644,-.022426,
-.014552,-.023518,
-.013287,-.024404,
-.011888,-.025056,
-.010396,-.025456,
-.008858,-.025591,
.008858,-.025591,
.010396,-.025456,
.011888,-.025056,
.013287,-.024404,
.014552,-.023518,
.015644,-.022426,
.01653,-.021161,
.017182,-.019762,
.017582,-.018271,
.017717,-.016732,
.017717,.016732,
.017582,.018271,
.017182,.019762,
.01653,.021161,
.015644,.022426,
.014552,.023518,
.013287,.024404,
.011888,.025056,
.010396,.025456,
.008858,.025591,
0.0,.025591,
0.0*
%
%ADD62MACRO62*%
%AMMACRO17*
4,1,41,-.025591,0.0,
-.025591,-.008858,
-.025456,-.010396,
-.025056,-.011888,
-.024404,-.013287,
-.023518,-.014552,
-.022426,-.015644,
-.021161,-.01653,
-.019762,-.017182,
-.018271,-.017582,
-.016732,-.017717,
.016732,-.017717,
.018271,-.017582,
.019762,-.017182,
.021161,-.01653,
.022426,-.015644,
.023518,-.014552,
.024404,-.013287,
.025056,-.011888,
.025456,-.010396,
.025591,-.008858,
.025591,.008858,
.025456,.010396,
.025056,.011888,
.024404,.013287,
.023518,.014552,
.022426,.015644,
.021161,.01653,
.019762,.017182,
.018271,.017582,
.016732,.017717,
-.016732,.017717,
-.018271,.017582,
-.019762,.017182,
-.021161,.01653,
-.022426,.015644,
-.023518,.014552,
-.024404,.013287,
-.025056,.011888,
-.025456,.010396,
-.025591,.008858,
-.025591,0.0,
0.0*
%
%ADD17MACRO17*%
%AMMACRO41*
4,1,42,0.0,-.041339,
.014252,-.041339,
.016731,-.041125,
.019134,-.040485,
.02139,-.039436,
.02343,-.038012,
.025192,-.036256,
.026621,-.03422,
.027676,-.031967,
.028323,-.029565,
.028543,-.027087,
.028543,.027087,
.028323,.029565,
.027676,.031967,
.026621,.03422,
.025192,.036256,
.02343,.038012,
.02139,.039436,
.019134,.040485,
.016731,.041125,
.014252,.041339,
.014252,.041339,
-.014252,.041339,
-.016731,.041125,
-.019134,.040485,
-.02139,.039436,
-.02343,.038012,
-.025192,.036256,
-.026621,.03422,
-.027676,.031967,
-.028323,.029565,
-.028543,.027087,
-.028543,-.027087,
-.028323,-.029565,
-.027676,-.031967,
-.026621,-.03422,
-.025192,-.036256,
-.02343,-.038012,
-.02139,-.039436,
-.019134,-.040485,
-.016731,-.041125,
-.014252,-.041339,
0.0,-.041339,
0.0*
%
%ADD41MACRO41*%
%AMMACRO56*
4,1,41,.017717,0.0,
.017717,.001969,
.017687,.00231,
.017598,.002642,
.017453,.002953,
.017256,.003234,
.017013,.003476,
.016732,.003673,
.016421,.003818,
.01609,.003907,
.015748,.003937,
-.015748,.003937,
-.01609,.003907,
-.016421,.003818,
-.016732,.003673,
-.017013,.003476,
-.017256,.003234,
-.017453,.002953,
-.017598,.002642,
-.017687,.00231,
-.017717,.001969,
-.017717,-.001969,
-.017687,-.00231,
-.017598,-.002642,
-.017453,-.002953,
-.017256,-.003234,
-.017013,-.003476,
-.016732,-.003673,
-.016421,-.003818,
-.01609,-.003907,
-.015748,-.003937,
.015748,-.003937,
.01609,-.003907,
.016421,-.003818,
.016732,-.003673,
.017013,-.003476,
.017256,-.003234,
.017453,-.002953,
.017598,-.002642,
.017687,-.00231,
.017717,-.001969,
.017717,0.0,
0.0*
%
%ADD56MACRO56*%
%AMMACRO40*
4,1,41,0.0,-.037402,
.01378,-.037402,
.016172,-.037192,
.018492,-.036571,
.020669,-.035555,
.022637,-.034178,
.024335,-.032479,
.025713,-.030512,
.026728,-.028335,
.02735,-.026015,
.027559,-.023622,
.027559,.023622,
.02735,.026015,
.026728,.028335,
.025713,.030512,
.024335,.032479,
.022637,.034178,
.020669,.035555,
.018492,.036571,
.016172,.037192,
.01378,.037402,
-.01378,.037402,
-.016172,.037192,
-.018492,.036571,
-.020669,.035555,
-.022637,.034178,
-.024335,.032479,
-.025713,.030512,
-.026728,.028335,
-.02735,.026015,
-.027559,.023622,
-.027559,-.023622,
-.02735,-.026015,
-.026728,-.028335,
-.025713,-.030512,
-.024335,-.032479,
-.022637,-.034178,
-.020669,-.035555,
-.018492,-.036571,
-.016172,-.037192,
-.01378,-.037402,
0.0,-.037402,
0.0*
%
%ADD40MACRO40*%
%AMMACRO55*
4,1,41,.028543,0.0,
.028543,.011339,
.028368,.013304,
.027854,.015209,
.027017,.016995,
.025883,.01861,
.024485,.020002,
.022867,.021131,
.021077,.021962,
.019171,.022469,
.017244,.022638,
-.017244,.022638,
-.019209,.022462,
-.021114,.021948,
-.022901,.021112,
-.024515,.019977,
-.025908,.018579,
-.027037,.016961,
-.027867,.015172,
-.028375,.013265,
-.028543,.011339,
-.028543,-.011339,
-.028368,-.013304,
-.027854,-.015209,
-.027017,-.016995,
-.025883,-.01861,
-.024485,-.020002,
-.022867,-.021131,
-.021077,-.021962,
-.019171,-.022469,
-.017244,-.022638,
.017244,-.022638,
.019209,-.022462,
.021114,-.021948,
.022901,-.021112,
.024515,-.019977,
.025908,-.018579,
.027037,-.016961,
.027867,-.015172,
.028375,-.013265,
.028543,-.011339,
.028543,0.0,
0.0*
%
%ADD55MACRO55*%
%AMMACRO47*
4,1,41,.017717,0.0,
.017717,.002953,
.017672,.003465,
.017538,.003963,
.017321,.004429,
.017026,.004851,
.016662,.005215,
.01624,.00551,
.015774,.005727,
.015277,.005861,
.014764,.005906,
-.014764,.005906,
-.015277,.005861,
-.015774,.005727,
-.01624,.00551,
-.016662,.005215,
-.017026,.004851,
-.017321,.004429,
-.017538,.003963,
-.017672,.003465,
-.017717,.002953,
-.017717,-.002953,
-.017672,-.003465,
-.017538,-.003963,
-.017321,-.004429,
-.017026,-.004851,
-.016662,-.005215,
-.01624,-.00551,
-.015774,-.005727,
-.015277,-.005861,
-.014764,-.005906,
.014764,-.005906,
.015277,-.005861,
.015774,-.005727,
.01624,-.00551,
.016662,-.005215,
.017026,-.004851,
.017321,-.004429,
.017538,-.003963,
.017672,-.003465,
.017717,-.002953,
.017717,0.0,
0.0*
%
%ADD47MACRO47*%
%AMMACRO65*
4,1,41,0.0,-.03937,
.020433,-.03937,
.023723,-.039081,
.026913,-.038224,
.029905,-.036827,
.03261,-.034931,
.034944,-.032594,
.036837,-.029888,
.038231,-.026894,
.039084,-.023704,
.03937,-.020433,
.03937,.020433,
.039081,.023723,
.038224,.026913,
.036827,.029905,
.034931,.03261,
.032594,.034944,
.029888,.036837,
.026894,.038231,
.023704,.039084,
.020433,.03937,
-.020433,.03937,
-.023723,.039081,
-.026913,.038224,
-.029905,.036827,
-.03261,.034931,
-.034944,.032594,
-.036837,.029888,
-.038231,.026894,
-.039084,.023704,
-.03937,.020433,
-.03937,-.020433,
-.039081,-.023723,
-.038224,-.026913,
-.036827,-.029905,
-.034931,-.03261,
-.032594,-.034944,
-.029888,-.036837,
-.026894,-.038231,
-.023704,-.039084,
-.020433,-.03937,
0.0,-.03937,
0.0*
%
%ADD65MACRO65*%
%AMMACRO64*
4,1,41,0.0,-.008858,
.001969,-.008858,
.002652,-.008798,
.003315,-.008621,
.003937,-.008331,
.004499,-.007937,
.004984,-.007452,
.005378,-.00689,
.005668,-.006268,
.005846,-.005605,
.005906,-.004921,
.005906,.004921,
.005846,.005605,
.005668,.006268,
.005378,.00689,
.004984,.007452,
.004499,.007937,
.003937,.008331,
.003315,.008621,
.002652,.008798,
.001969,.008858,
-.001969,.008858,
-.002652,.008798,
-.003315,.008621,
-.003937,.008331,
-.004499,.007937,
-.004984,.007452,
-.005378,.00689,
-.005668,.006268,
-.005846,.005605,
-.005906,.004921,
-.005906,-.004921,
-.005846,-.005605,
-.005668,-.006268,
-.005378,-.00689,
-.004984,-.007452,
-.004499,-.007937,
-.003937,-.008331,
-.003315,-.008621,
-.002652,-.008798,
-.001969,-.008858,
0.0,-.008858,
0.0*
%
%ADD64MACRO64*%
%AMMACRO58*
4,1,41,.012795,0.0,
.012795,.001969,
.012765,.00231,
.012677,.002642,
.012532,.002953,
.012335,.003234,
.012092,.003476,
.011811,.003673,
.0115,.003818,
.011169,.003907,
.010827,.003937,
-.010827,.003937,
-.011169,.003907,
-.0115,.003818,
-.011811,.003673,
-.012092,.003476,
-.012335,.003234,
-.012532,.002953,
-.012677,.002642,
-.012765,.00231,
-.012795,.001969,
-.012795,-.001969,
-.012765,-.00231,
-.012677,-.002642,
-.012532,-.002953,
-.012335,-.003234,
-.012092,-.003476,
-.011811,-.003673,
-.0115,-.003818,
-.011169,-.003907,
-.010827,-.003937,
.010827,-.003937,
.011169,-.003907,
.0115,-.003818,
.011811,-.003673,
.012092,-.003476,
.012335,-.003234,
.012532,-.002953,
.012677,-.002642,
.012765,-.00231,
.012795,-.001969,
.012795,0.0,
0.0*
%
%ADD58MACRO58*%
%AMMACRO48*
4,1,41,0.0,-.017717,
.002953,-.017717,
.003465,-.017672,
.003963,-.017538,
.004429,-.017321,
.004851,-.017026,
.005215,-.016662,
.00551,-.01624,
.005727,-.015774,
.005861,-.015277,
.005906,-.014764,
.005906,.014764,
.005861,.015277,
.005727,.015774,
.00551,.01624,
.005215,.016662,
.004851,.017026,
.004429,.017321,
.003963,.017538,
.003465,.017672,
.002953,.017717,
-.002953,.017717,
-.003465,.017672,
-.003963,.017538,
-.004429,.017321,
-.004851,.017026,
-.005215,.016662,
-.00551,.01624,
-.005727,.015774,
-.005861,.015277,
-.005906,.014764,
-.005906,-.014764,
-.005861,-.015277,
-.005727,-.015774,
-.00551,-.01624,
-.005215,-.016662,
-.004851,-.017026,
-.004429,-.017321,
-.003963,-.017538,
-.003465,-.017672,
-.002953,-.017717,
0.0,-.017717,
0.0*
%
%ADD48MACRO48*%
%ADD30O,.035394X.015709*%
%AMMACRO24*
4,1,40,.010315,.004331,
.010231,.005288,
.009983,.006216,
.009577,.007087,
.009025,.007874,
.008346,.008553,
.007559,.009104,
.006688,.00951,
.00576,.009759,
.004803,.009843,
-.004803,.009843,
-.00576,.009759,
-.006688,.00951,
-.007559,.009104,
-.008346,.008553,
-.009025,.007874,
-.009577,.007087,
-.009983,.006216,
-.010231,.005288,
-.010315,.004331,
-.010315,-.004331,
-.010231,-.005288,
-.009983,-.006216,
-.009577,-.007087,
-.009025,-.007874,
-.008346,-.008553,
-.007559,-.009104,
-.006688,-.00951,
-.00576,-.009759,
-.004803,-.009843,
.004803,-.009843,
.00576,-.009759,
.006688,-.00951,
.007559,-.009104,
.008346,-.008553,
.009025,-.007874,
.009577,-.007087,
.009983,-.006216,
.010231,-.005288,
.010315,-.004331,
.010315,.004331,
0.0*
%
%ADD24MACRO24*%
%AMMACRO21*
4,1,40,.004331,-.010315,
.005288,-.010231,
.006216,-.009983,
.007087,-.009577,
.007874,-.009025,
.008553,-.008346,
.009104,-.007559,
.00951,-.006688,
.009759,-.00576,
.009843,-.004803,
.009843,.004803,
.009759,.00576,
.00951,.006688,
.009104,.007559,
.008553,.008346,
.007874,.009025,
.007087,.009577,
.006216,.009983,
.005288,.010231,
.004331,.010315,
-.004331,.010315,
-.005288,.010231,
-.006216,.009983,
-.007087,.009577,
-.007874,.009025,
-.008553,.008346,
-.009104,.007559,
-.00951,.006688,
-.009759,.00576,
-.009843,.004803,
-.009843,-.004803,
-.009759,-.00576,
-.00951,-.006688,
-.009104,-.007559,
-.008553,-.008346,
-.007874,-.009025,
-.007087,-.009577,
-.006216,-.009983,
-.005288,-.010231,
-.004331,-.010315,
.004331,-.010315,
0.0*
%
%ADD21MACRO21*%
%AMMACRO34*
4,1,41,.012795,0.0,
.012795,.005315,
.012685,.00658,
.012356,.007806,
.011819,.008957,
.011091,.009997,
.010194,.010894,
.009154,.011623,
.008003,.012159,
.006777,.012488,
.005512,.012598,
-.005512,.012598,
-.006777,.012488,
-.008003,.012159,
-.009154,.011623,
-.010194,.010894,
-.011091,.009997,
-.011819,.008957,
-.012356,.007806,
-.012685,.00658,
-.012795,.005315,
-.012795,-.005315,
-.012685,-.00658,
-.012356,-.007806,
-.011819,-.008957,
-.011091,-.009997,
-.010194,-.010894,
-.009154,-.011623,
-.008003,-.012159,
-.006777,-.012488,
-.005512,-.012598,
.005512,-.012598,
.006777,-.012488,
.008003,-.012159,
.009154,-.011623,
.010194,-.010894,
.011091,-.009997,
.011819,-.008957,
.012356,-.007806,
.012685,-.00658,
.012795,-.005315,
.012795,0.0,
0.0*
%
%ADD34MACRO34*%
%AMMACRO31*
4,1,41,0.0,-.012795,
.005315,-.012795,
.00658,-.012685,
.007806,-.012356,
.008957,-.011819,
.009997,-.011091,
.010894,-.010194,
.011623,-.009154,
.012159,-.008003,
.012488,-.006777,
.012598,-.005512,
.012598,.005512,
.012488,.006777,
.012159,.008003,
.011623,.009154,
.010894,.010194,
.009997,.011091,
.008957,.011819,
.007806,.012356,
.00658,.012685,
.005315,.012795,
-.005315,.012795,
-.00658,.012685,
-.007806,.012356,
-.008957,.011819,
-.009997,.011091,
-.010894,.010194,
-.011623,.009154,
-.012159,.008003,
-.012488,.006777,
-.012598,.005512,
-.012598,-.005512,
-.012488,-.006777,
-.012159,-.008003,
-.011623,-.009154,
-.010894,-.010194,
-.009997,-.011091,
-.008957,-.011819,
-.007806,-.012356,
-.00658,-.012685,
-.005315,-.012795,
0.0,-.012795,
0.0*
%
%ADD31MACRO31*%
%ADD76C,.007874*%
%ADD77C,.011811*%
%ADD78C,.012598*%
%ADD79C,.023622*%
%ADD80C,.005906*%
%ADD81C,.027559*%
%ADD82C,.03937*%
%ADD86O,.01974X.070921*%
%ADD83C,.027575*%
%ADD85C,.051945*%
%ADD84C,.076787*%
G75*
%LPD*%
G75*
G36*
G01X866269Y945673D02*
X866111Y945670D01*
G03X867515Y944167I31J-1378D01*
G01X867909Y944527D01*
X904672D01*
X904917Y944281D01*
X904921Y944123D01*
G03X906559Y942800I1378J31D01*
G01X906742Y942835D01*
X907499Y942209D01*
Y934231D01*
X906774Y933602D01*
X906595Y933628D01*
G03X906100Y933610I-198J-1365D01*
G01X905915Y933569D01*
X905139Y934193D01*
Y934968D01*
G03X903365I-887J1056D01*
G01Y930617D01*
X903711Y930271D01*
X903452Y929759D01*
X903168Y929803D01*
G03X902906Y929824I-265J-1703D01*
G01X900833D01*
X898766Y931891D01*
X897639D01*
Y935631D01*
X888582D01*
Y932086D01*
X892519D01*
Y927361D01*
X897735D01*
Y925834D01*
G03X899456Y924113I1723J2D01*
G01X902906D01*
G03X903446Y924201I-2J1723D01*
G01X904231Y923569D01*
Y922521D01*
X903744D01*
X903662Y922561D01*
G03X902906Y922737I-758J-1548D01*
G01X899456D01*
G03X897735Y921016I2J-1723D01*
G01Y919857D01*
X896757Y919282D01*
X896559Y919392D01*
G03X896004Y919536I-556J-999D01*
G01X895137D01*
G03X894599Y919401I0J-1143D01*
G01X894462Y919328D01*
X893643Y919541D01*
X893559Y919672D01*
G03X892272Y920375I-1285J-823D01*
G01X890209D01*
G03X888768Y919359I-2J-1526D01*
G01X888675Y919095D01*
X887921D01*
X887836Y919139D01*
G03X886457Y919072I-631J-1226D01*
G01X886260Y918944D01*
X885237Y919502D01*
Y931694D01*
X880981D01*
X880316Y932359D01*
Y934843D01*
G03X875196I-2560J0D01*
G01Y931299D01*
G03X875946Y929489I2560J0D01*
G01X880117Y925318D01*
Y918772D01*
X880023Y918661D01*
G03X879929Y918406I300J-255D01*
G01Y916921D01*
G03X879930Y916904I394J0D01*
G01X879930Y916893D01*
Y916481D01*
X879094D01*
G03X877952Y915339I0J-1143D01*
G01Y914378D01*
G03X878380Y913486I1143J0D01*
G01Y912593D01*
G03X878120Y912296I715J-891D01*
G01X878004Y912107D01*
X876586D01*
X876483Y912347D01*
G03X875433Y913040I-1050J-450D01*
G01X874567D01*
G03X873756Y912702I0J-1143D01*
G01X873658Y912604D01*
X872894Y912515D01*
X872776Y912588D01*
G03X870851Y910733I-729J-1170D01*
G01X870964Y910535D01*
X870392Y909548D01*
X864934D01*
X828941Y945541D01*
X828937Y945700D01*
G03X826202Y945916I-1378J-31D01*
G01X826162Y945694D01*
X825105Y945299D01*
X824930Y945439D01*
G03X823964Y938879I-2398J-2998D01*
G01X824035Y938907D01*
X824507D01*
Y938215D01*
X856426Y906296D01*
X856224Y905808D01*
X852336D01*
X827678Y930465D01*
X826813D01*
X826193Y931270D01*
X826243Y931459D01*
G03X824546Y929172I-3712J982D01*
G01X825026Y928692D01*
X826944D01*
X850521Y905115D01*
X850319Y904627D01*
X845647D01*
X826946Y923328D01*
X826278D01*
X826191Y923604D01*
G03X825850Y920511I-3659J-1163D01*
G01X825948Y920679D01*
X826956Y920810D01*
X843832Y903934D01*
X843630Y903446D01*
X841107D01*
X831226Y913328D01*
X826278D01*
X826191Y913604D01*
G03Y911278I-3659J-1163D01*
G01X826278Y911554D01*
X830491D01*
X839293Y902753D01*
X839090Y902265D01*
X828009D01*
X826946Y903328D01*
X826278D01*
X826191Y903604D01*
G03X825850Y900511I-3659J-1163D01*
G01X825948Y900679D01*
X826956Y900810D01*
X827274Y900491D01*
X848350D01*
X848552Y900003D01*
X841877Y893328D01*
X826278D01*
X826191Y893604D01*
G03Y891278I-3659J-1163D01*
G01X826278Y891554D01*
X842611D01*
X850367Y899310D01*
X880179D01*
X880806Y898684D01*
X880806Y898520D01*
G03X881765Y897211I1379J3D01*
G01X881856Y897181D01*
X882240Y896797D01*
G03X882235Y896693I1138J-104D01*
G01Y895827D01*
G03X882415Y895213I1143J0D01*
G01X882476Y895115D01*
Y894648D01*
X882415Y894551D01*
G03X882235Y893937I964J-614D01*
G01Y893552D01*
X881495Y892812D01*
Y891957D01*
X881452Y891871D01*
X881451Y891871D01*
G03X881328Y890954I1226J-631D01*
G01X880690Y890257D01*
X880341D01*
X878373Y888288D01*
X872021D01*
X870704Y889604D01*
X870730Y889798D01*
G03X870745Y890031I-1708J227D01*
G01Y893276D01*
G03X869024Y895005I-1723J6D01*
G01X866567D01*
G03X864846Y893276I2J-1723D01*
G01Y890031D01*
G03X866567Y888302I1723J-6D01*
G01X869024D01*
G03X869260Y888319I-2J1723D01*
G01X869455Y888346D01*
X871286Y886515D01*
X871739D01*
X872289Y885474D01*
X872154Y885277D01*
G03X871854Y884299I1423J-972D01*
G01Y881055D01*
G03X873574Y879326I1723J-6D01*
G01X876032D01*
G03X877753Y881055I-2J1723D01*
G01Y884299D01*
G03X877701Y884723I-1723J5D01*
G01X878115Y885137D01*
X879895D01*
X880375Y885617D01*
X881481Y885314D01*
X881538Y885091D01*
G03X883584Y884251I1336J342D01*
G01X883705D01*
G03X884606Y883810I902J701D01*
G01X885472D01*
G03X886615Y884953I0J1143D01*
G01Y885385D01*
X887289Y886058D01*
X887336D01*
X887694Y886417D01*
X891436D01*
Y882677D01*
X889764D01*
Y869291D01*
X891535D01*
Y837008D01*
X900197Y828346D01*
Y797835D01*
X789374D01*
Y962799D01*
G02X793276Y973969I17950J-4D01*
G03X797001Y980948I-17135J13630D01*
G01X798021Y981253D01*
X798183Y981124D01*
G03X800794Y980753I1620J2030D01*
G01X800829Y980767D01*
X801291Y980862D01*
X801380Y980427D01*
X801378Y980378D01*
G03X801377Y980315I1476J-59D01*
G01Y978543D01*
G03X802854Y977066I1477J0D01*
G01X806201D01*
G03X807678Y978543I0J1477D01*
G01Y980315D01*
G03X807663Y980523I-1477J-1D01*
G01X808217Y981078D01*
X809075Y981102D01*
X809193Y980998D01*
G03X809953Y980708I760J852D01*
G01X810913D01*
G03X811805Y981136I0J1143D01*
G01X812699D01*
G03X813591Y980708I892J715D01*
G01X813996D01*
X814198Y980220D01*
X799113Y965135D01*
Y890558D01*
X808117Y881554D01*
X808785D01*
X808872Y881278D01*
G03X809263Y880426I3659J1162D01*
G01X806397Y877560D01*
Y872611D01*
X801241Y867456D01*
G03X800013Y867202I-421J-1062D01*
G01X799334Y866522D01*
G03X799035Y865430I808J-808D01*
G01X799041Y865408D01*
X799074Y865167D01*
X798796Y864889D01*
X798555Y864922D01*
X798533Y864928D01*
G03X798261Y864964I-284J-1107D01*
G01X798100Y864965D01*
X797196Y865869D01*
X797167Y865960D01*
G03X795434Y864226I-1313J-420D01*
G01X795525Y864197D01*
X796426Y863296D01*
X796427Y863134D01*
G03X796761Y862334I1142J8D01*
G01X797374Y861722D01*
G03X798174Y861387I808J808D01*
G01X798336Y861386D01*
X798788Y860934D01*
X798789Y860772D01*
G03X799124Y859972I1142J8D01*
G01X799736Y859360D01*
G03X801352I808J808D01*
G01X802031Y860039D01*
G03X802365Y860823I-808J808D01*
G01X802369Y860982D01*
X802981Y861594D01*
X803140Y861598D01*
G03X803924Y861932I-24J1142D01*
G01X804603Y862611D01*
G03X804938Y863427I-808J808D01*
G01X804937Y863593D01*
X810517Y869172D01*
G03X815800Y874456I2015J3269D01*
G01X818603Y877259D01*
Y879293D01*
X819741Y879792D01*
X819931Y879617D01*
G03X819329Y884559I2601J2824D01*
G01X818603Y884777D01*
Y885210D01*
X815525Y888288D01*
X814090D01*
Y888924D01*
X814303Y889035D01*
G03X810517Y895709I-1772J3406D01*
G01X803249Y902978D01*
Y909779D01*
X803737Y909981D01*
X809263Y904456D01*
G03X810517Y905709I3268J-2015D01*
G01X804430Y911796D01*
Y928598D01*
X804918Y928800D01*
X809263Y924456D01*
G03X810517Y925709I3268J-2015D01*
G01X805611Y930615D01*
Y937417D01*
X806099Y937619D01*
X809263Y934456D01*
G03X810517Y935709I3268J-2015D01*
G01X806792Y939434D01*
Y946236D01*
X807280Y946438D01*
X809263Y944456D01*
G03X810517Y945709I3268J-2015D01*
G01X808367Y947859D01*
Y949537D01*
X809550Y950006D01*
X809735Y949811D01*
G03X811361Y956098I2797J2630D01*
G01X811131Y956024D01*
X810681Y956475D01*
X811588Y957381D01*
X827139D01*
X829824Y960066D01*
Y972270D01*
X839934Y982381D01*
X840519D01*
G03X842809Y983881I1056J887D01*
G01X843432Y984743D01*
X844289D01*
X844918Y984024D01*
X844894Y983846D01*
G03X847316Y982775I1366J-185D01*
G01X889003D01*
X920696Y951082D01*
X955144D01*
X956003Y950223D01*
Y905289D01*
X955049Y904335D01*
X954891Y904331D01*
G03X953915Y903896I31J-1378D01*
G01X953863Y903840D01*
X953525Y903682D01*
X953359Y903757D01*
G03X952835Y903559I-163J-361D01*
G02X951606Y902748I-1261J574D01*
G01X951317Y902625D01*
X951171Y902677D01*
G03X949653Y902265I-463J-1299D01*
G01X947640D01*
X947011Y902984D01*
X947035Y903162D01*
G03X944613Y904233I-1366J185D01*
G01X923506D01*
X922878Y904880D01*
X922882Y905046D01*
G03X922883Y905078I-1142J30D01*
G01Y905945D01*
G03X922860Y906170I-1143J0D01*
G03X922842Y908410I-813J1113D01*
G01X922731Y908489D01*
X922512Y909215D01*
X922561Y909343D01*
G03X922639Y909756I-1065J414D01*
G01Y910717D01*
G03X921496Y911859I-1143J0D01*
G01X920630D01*
G03X919487Y910717I0J-1143D01*
G01Y910291D01*
X918995D01*
X918910Y910335D01*
G03X918504Y910434I-406J-788D01*
G01X917914D01*
Y945991D01*
G03X916372Y948260I-887J1056D01*
G01X916243Y948191D01*
X915456Y948359D01*
X915367Y948475D01*
G03X913723Y948903I-1095J-837D01*
G01X913527Y948818D01*
X913170Y949052D01*
Y949522D01*
X913280Y949637D01*
G03X911766Y951869I-996J953D01*
G01X911694Y951840D01*
X911221D01*
Y952881D01*
G03X910469Y955309I-887J1056D01*
G01X910307Y955325D01*
X909743Y956008D01*
X909759Y956170D01*
G03X907499Y955243I-1373J129D01*
G01Y952663D01*
X906562Y952073D01*
X906365Y952168D01*
G03X904712Y951812I-597J-1243D01*
G01X863270D01*
G03X863226I-22J-887D01*
G01X862881D01*
X862639Y951570D01*
X862636Y951567D01*
G03X862621Y951553I611J-643D01*
G01X862621Y951552D01*
X862254Y951185D01*
X862095Y951181D01*
G03X863499Y949679I31J-1378D01*
G01X863893Y950039D01*
X904712D01*
G03X906365Y949683I1056J887D01*
G01X906562Y949777D01*
X907499Y949188D01*
Y946098D01*
X906742Y945472D01*
X906559Y945507D01*
G03X906330Y945532I-260J-1354D01*
G01X906171Y945535D01*
X905407Y946300D01*
X867286D01*
G03X867241I-22J-887D01*
G01X866896D01*
X866655Y946058D01*
X866652Y946055D01*
G03X866637Y946041I611J-643D01*
G01X866269Y945673D01*
G37*
G36*
G01X809816Y888288D02*
X802068Y896037D01*
Y900960D01*
X802556Y901163D01*
X809263Y894456D01*
G03X810760Y889035I3268J-2014D01*
G01X810973Y888924D01*
Y888288D01*
X809816D01*
G37*
G36*
G01X808107Y884072D02*
X800887Y891293D01*
Y894019D01*
X801375Y894222D01*
X809081Y886515D01*
X809530D01*
X810011Y885349D01*
X809824Y885163D01*
G03X809213Y884372I2707J-2723D01*
G01X809115Y884203D01*
X808107Y884072D01*
G37*
G36*
G01X904134Y797835D02*
Y819388D01*
X904622Y819591D01*
X907874Y816339D01*
X949268D01*
X949346Y816044D01*
G03Y820570I8528J2263D01*
G01X949268Y820276D01*
X909843D01*
X906693Y823425D01*
X904134D01*
Y829921D01*
X895472Y838583D01*
Y869291D01*
X897244D01*
Y872638D01*
X901181D01*
Y877209D01*
X901669Y877411D01*
X905609Y873471D01*
Y864585D01*
X909270Y860924D01*
X909809D01*
X909860Y860589D01*
G03X911417Y859251I1557J238D01*
G01X916535D01*
G03X917680Y859743I0J1576D01*
G01X919365D01*
G03X920433Y859007I1068J406D01*
G01X921299D01*
G03X922442Y860150I0J1143D01*
G01Y861110D01*
G03X921299Y862253I-1143J0D01*
G01X920433D01*
G03X919365Y861517I0J-1142D01*
G01X918111D01*
Y862795D01*
G03X916535Y864371I-1576J0D01*
G01X911417D01*
G03X910181Y863772I0J-1576D01*
G01X910070Y863632D01*
X909126Y863577D01*
X907383Y865320D01*
Y872681D01*
X907871Y872883D01*
X909842Y870912D01*
Y870669D01*
G03X911417Y869094I1576J0D01*
G01X916535D01*
G03X918093Y870431I0J1576D01*
G01X918144Y870767D01*
X918682D01*
X919003Y871087D01*
X919831Y871143D01*
G03X920630Y870818I798J818D01*
G01X921496D01*
G03X922639Y871961I0J1143D01*
G01Y872921D01*
G03X921496Y874064I-1143J0D01*
G01X920630D01*
G03X919562Y873328I0J-1142D01*
G01X918735D01*
X918455Y873048D01*
X918050Y873119D01*
X917963Y873306D01*
G03X916535Y874213I-1427J-668D01*
G01X911417D01*
G03X910417Y873855I0J-1576D01*
G01X910299Y873758D01*
X909463Y873799D01*
X908447Y874815D01*
X908649Y875303D01*
X930929D01*
G03X931274Y875511I-1J393D01*
G03X931374Y875772I-295J262D01*
G01Y876176D01*
X954300D01*
X971854Y893730D01*
X972342Y893527D01*
Y881456D01*
X979342Y874456D01*
G03X985298Y875182I3268J-2015D01*
G01X985256Y875224D01*
X985039Y875626D01*
X985713Y875988D01*
G03X985917Y876333I-190J346D01*
G01Y878548D01*
G03X985713Y878894I-394J0D01*
G01X985039Y879256D01*
X985256Y879657D01*
X985298Y879700D01*
G03X980596Y885709I-2688J2742D01*
G01X975296Y891009D01*
Y892838D01*
X975784Y893041D01*
X977270Y891554D01*
X978863D01*
X978951Y891278D01*
G03Y893604I3659J1163D01*
G01X978863Y893328D01*
X978005D01*
X976477Y894856D01*
Y906630D01*
X976965Y906832D01*
X979342Y904456D01*
G03X980596Y905709I3269J-2015D01*
G01X977855Y908450D01*
Y915252D01*
X978343Y915454D01*
X979342Y914456D01*
G03X980596Y915709I3269J-2015D01*
G01X979233Y917072D01*
Y918837D01*
X980269Y919389D01*
X980466Y919256D01*
G03Y925626I2144J3185D01*
G01X980269Y925493D01*
X979233Y926045D01*
Y928837D01*
X980269Y929389D01*
X980466Y929256D01*
G03Y935626I2144J3185D01*
G01X980269Y935493D01*
X979233Y936045D01*
Y938837D01*
X980269Y939389D01*
X980466Y939256D01*
G03Y945626I2144J3185D01*
G01X980269Y945493D01*
X979233Y946045D01*
Y948837D01*
X980269Y949389D01*
X980466Y949256D01*
G03Y955626I2144J3185D01*
G01X980269Y955493D01*
X979233Y956045D01*
Y958837D01*
X980269Y959389D01*
X980466Y959256D01*
G03Y965626I2144J3185D01*
G01X980269Y965493D01*
X979233Y966045D01*
Y970669D01*
X980064Y971285D01*
X980255Y971227D01*
G03X980701Y971161I444J1460D01*
G01X982764D01*
G03X984017Y971813I2J1526D01*
G01X984135Y971981D01*
X985196D01*
X985314Y971813D01*
G03X986367Y971174I1251J875D01*
G01X986712Y971128D01*
Y970302D01*
X989593Y967420D01*
X997074D01*
X999310Y965184D01*
Y924584D01*
X998054Y923328D01*
X996357D01*
X996269Y923604D01*
G03Y921278I-3659J-1163D01*
G01X996357Y921554D01*
X998789D01*
X1001083Y923849D01*
Y965919D01*
X997808Y969194D01*
X990328D01*
X989203Y970319D01*
X989306Y971305D01*
X989465Y971408D01*
G03X990158Y972685I-833J1279D01*
G01Y974559D01*
G03X988630Y976083I-1526J-2D01*
G01X986567D01*
G03X985314Y975431I-2J-1526D01*
G01X985196Y975263D01*
X984135D01*
X984017Y975431D01*
G03X982764Y976083I-1251J-874D01*
G01X980701D01*
G03X979198Y974833I-2J-1526D01*
G01X979138Y974509D01*
X978601D01*
X977460Y973367D01*
Y960508D01*
X976972Y960306D01*
X973005Y964272D01*
X948997D01*
X946438Y966831D01*
X945901D01*
X945842Y967156D01*
G03X944339Y968406I-1501J-276D01*
G01X942276D01*
G03X940970Y967673I-2J-1526D01*
G01X939936D01*
G03X938630Y968406I-1304J-793D01*
G01X936567D01*
G03X935261Y967673I-2J-1526D01*
G01X934227D01*
G03X932921Y968406I-1304J-793D01*
G01X930858D01*
G03X929552Y967673I-2J-1526D01*
G01X928519D01*
G03X927213Y968406I-1304J-793D01*
G01X925150D01*
G03X923621Y966882I-2J-1526D01*
G01Y965007D01*
G03X925150Y963483I1526J2D01*
G01X927212D01*
G03X927466Y963505I0J1526D01*
G01X931722Y959249D01*
X931519Y958761D01*
X926348D01*
X892824Y992284D01*
X864875D01*
X863418Y993741D01*
Y998694D01*
X863694Y998782D01*
G03X865172Y1005228I-1163J3659D01*
G01X864978Y1005412D01*
X865448Y1006594D01*
X867938D01*
X870517Y1009172D01*
G03X875784Y1010401I2015J3268D01*
G01X875900Y1010586D01*
X876515D01*
Y1009436D01*
X879357Y1006594D01*
X879615D01*
X880085Y1005412D01*
X879891Y1005228D01*
G03X885172I2641J-2787D01*
G01X884978Y1005412D01*
X885448Y1006594D01*
X887938D01*
X890517Y1009172D01*
G03X895374Y1009860I2014J3268D01*
G01X895556Y1010061D01*
X896751Y1009600D01*
Y1009278D01*
X899436Y1006594D01*
X899615D01*
X900085Y1005412D01*
X899891Y1005228D01*
G03X905172I2641J-2787D01*
G01X904978Y1005412D01*
X905448Y1006594D01*
X905682D01*
X908564Y1009475D01*
Y1010561D01*
X909176D01*
X909293Y1010378D01*
G03X914067Y1008922I3238J2063D01*
G01X914895Y1008535D01*
X914992Y1008248D01*
G03X915365Y1007980I373J126D01*
G01X919698D01*
G03X920071Y1008248I-1J394D01*
G01X920168Y1008535D01*
X920996Y1008922D01*
G03X920517Y1015709I1536J3519D01*
G01X917033Y1019194D01*
X910066D01*
X906791Y1015919D01*
Y1015237D01*
X905588Y1014781D01*
X905407Y1014985D01*
G03X903694Y1016100I-2875J-2545D01*
G01X903418Y1016188D01*
Y1018647D01*
X901541Y1020524D01*
X897838D01*
X897717Y1020646D01*
G03X897594Y1020728I-277J-279D01*
G01X897523Y1020758D01*
X896595Y1021686D01*
Y1022362D01*
X896628Y1022520D01*
G03X896694Y1022834I-723J314D01*
G01Y1025000D01*
G03X895906Y1025788I-788J0D01*
G01X895512D01*
G03X895187Y1025718I0J-788D01*
G01X895109Y1025683D01*
X894733D01*
X894656Y1025718D01*
G03X894331Y1025788I-325J-718D01*
G01X893583D01*
Y1026575D01*
G03X892795Y1027363I-788J0D01*
G01X890629D01*
G03X890315Y1027298I0J-788D01*
G01X890240Y1027265D01*
X889571D01*
X889304Y1027927D01*
X889439Y1028106D01*
G03X889016Y1030138I-1100J832D01*
G01X888969Y1030165D01*
X888650Y1030483D01*
X889109Y1030941D01*
X889200Y1030970D01*
G03X889289Y1031002I-417J1314D01*
G01X889321Y1031015D01*
X889776Y1031107D01*
X889861Y1030730D01*
G03X890630Y1030117I769J175D01*
G01X892795D01*
G03X893583Y1030906I0J788D01*
G01Y1031692D01*
X894331D01*
G03X894656Y1031762I0J788D01*
G01X894733Y1031797D01*
X895109D01*
X895187Y1031762D01*
G03X895512Y1031692I325J718D01*
G01X896259D01*
Y1030906D01*
G03X896329Y1030581I788J0D01*
G01X896364Y1030503D01*
Y1030127D01*
X896329Y1030049D01*
G03X896259Y1029724I718J-325D01*
G01Y1029331D01*
G03X896329Y1029006I788J0D01*
G01X896364Y1028928D01*
Y1028552D01*
X896329Y1028474D01*
G03X896259Y1028150I718J-325D01*
G01Y1027756D01*
G03X897047Y1026968I788J0D01*
G01X899213D01*
G03X899527Y1027033I0J788D01*
G01X899603Y1027066D01*
X900354D01*
X900434Y1026776D01*
G03X901535Y1025936I1102J303D01*
G01X902402D01*
G03X903303Y1026377I0J1142D01*
G01X904629D01*
X906335Y1024671D01*
X906364Y1024580D01*
G03X908098Y1026313I1313J420D01*
G01X908006Y1026342D01*
X905607Y1028741D01*
X903303D01*
G03X903150Y1028902I-902J-701D01*
G01Y1029426D01*
X902802Y1029775D01*
G03X902689Y1030135I-1424J-247D01*
G01X902857Y1030550D01*
X902974Y1030618D01*
G03X903544Y1031606I-573J989D01*
G01Y1032567D01*
G03X902402Y1033709I-1143J0D01*
G01X901426D01*
X900752Y1034384D01*
X900722Y1034476D01*
G03X898251Y1033308I-1313J-420D01*
G01X898378Y1033110D01*
X897821Y1032087D01*
X896694D01*
Y1034646D01*
G03X896628Y1034960I-788J0D01*
G01X896595Y1035036D01*
Y1043048D01*
X893541Y1046103D01*
X889109D01*
X888480Y1046748D01*
X888485Y1046914D01*
G03X885728I-1378J35D01*
G01X885732Y1046748D01*
X885104Y1046103D01*
X879889D01*
X879262Y1045476D01*
X879103Y1045473D01*
G03X877756Y1044144I31J-1378D01*
G01X877374Y1043762D01*
X876510Y1044626D01*
X876603Y1045604D01*
X876757Y1045709D01*
G03X876871Y1047906I-773J1142D01*
G01Y1055289D01*
X875761Y1056398D01*
X872761D01*
G03X871693Y1057135I-1068J-406D01*
G01X870826D01*
G03X870108Y1056880I0J-1143D01*
G01X869999Y1056792D01*
X867165D01*
X866530Y1057390D01*
G03X866408Y1057959I-983J86D01*
G01X866357Y1058049D01*
Y1058482D01*
X866408Y1058572D01*
G03X866409Y1059535I-861J483D01*
G01X866359Y1059625D01*
Y1060056D01*
X866409Y1060146D01*
G03X866408Y1061109I-862J480D01*
G01X866357Y1061199D01*
Y1061632D01*
X866408Y1061722D01*
G03X866409Y1062685I-861J483D01*
G01X866359Y1062775D01*
Y1063206D01*
X866409Y1063295D01*
G03X866408Y1064258I-862J480D01*
G01X866357Y1064348D01*
Y1064781D01*
X866408Y1064872D01*
G03X866411Y1064876I-881J443D01*
G01X866472Y1064986D01*
X866930Y1065207D01*
X867059Y1065182D01*
G03X866861Y1067835I264J1353D01*
G01X866797Y1067812D01*
X865981D01*
G03X865547Y1067912I-434J-887D01*
G01X860429D01*
G03X859567Y1066445I0J-987D01*
G01X859617Y1066355D01*
Y1065924D01*
X859567Y1065835D01*
G03X859569Y1064872I862J-480D01*
G01X859619Y1064781D01*
Y1064348D01*
X859569Y1064258D01*
G03X859567Y1063295I861J-483D01*
G01X859617Y1063206D01*
Y1062775D01*
X859567Y1062685D01*
G03X859569Y1061722I862J-480D01*
G01X859619Y1061632D01*
Y1061199D01*
X859569Y1061109D01*
G03X859567Y1060146I861J-483D01*
G01X859617Y1060056D01*
Y1059625D01*
X859567Y1059535D01*
G03X859569Y1058572I862J-480D01*
G01X859619Y1058482D01*
Y1058049D01*
X859569Y1057959D01*
G03X859567Y1056996I861J-483D01*
G01X859617Y1056906D01*
Y1056476D01*
X859567Y1056386D01*
G03X859569Y1055423I862J-480D01*
G01X859619Y1055333D01*
Y1054900D01*
X859569Y1054809D01*
G03X859567Y1053846I861J-483D01*
G01X859617Y1053757D01*
Y1053326D01*
X859567Y1053236D01*
G03X859569Y1052273I862J-480D01*
G01X859619Y1052183D01*
Y1051750D01*
X859569Y1051660D01*
G03X859567Y1050697I861J-483D01*
G01X859617Y1050607D01*
Y1050176D01*
X859567Y1050087D01*
G03Y1049126I862J-480D01*
G01X859617Y1049036D01*
Y1048606D01*
X859567Y1048516D01*
G03X859569Y1047553I862J-480D01*
G01X859619Y1047463D01*
Y1047030D01*
X859569Y1046939D01*
G03X859567Y1045976I861J-483D01*
G01X859617Y1045887D01*
Y1045456D01*
X859567Y1045366D01*
G03X859474Y1045135I862J-480D01*
G01X859125Y1044786D01*
X858930Y1044981D01*
X845487D01*
X843602Y1043096D01*
Y1042492D01*
X843206D01*
X843124Y1042501D01*
X843123D01*
G03X842435Y1042396I-205J-965D01*
G01X842344Y1042346D01*
X841911D01*
X841821Y1042396D01*
G03X840858Y1042398I-483J-861D01*
G01X840769Y1042348D01*
X840338D01*
X840248Y1042398D01*
G03X839285Y1042396I-480J-862D01*
G01X839195Y1042346D01*
X838762D01*
X838672Y1042396D01*
G03X837709Y1042398I-483J-861D01*
G01X837619Y1042348D01*
X837188D01*
X837098Y1042398D01*
G03X836135Y1042396I-480J-862D01*
G01X836045Y1042346D01*
X835612D01*
X835522Y1042396D01*
G03X834052Y1041535I-483J-861D01*
G01Y1036417D01*
G03X835522Y1035557I987J0D01*
G01X835612Y1035607D01*
X836045D01*
X836135Y1035557D01*
G03X837098Y1035555I483J861D01*
G01X837188Y1035605D01*
X837619D01*
X837709Y1035555D01*
G03X838672Y1035557I480J862D01*
G01X838762Y1035607D01*
X839195D01*
X839285Y1035557D01*
G03X840248Y1035555I483J861D01*
G01X840338Y1035605D01*
X840769D01*
X840858Y1035555D01*
G03X841821Y1035557I480J862D01*
G01X841911Y1035607D01*
X842344D01*
X842435Y1035557D01*
G03X843398Y1035555I483J861D01*
G01X843487Y1035605D01*
X843918D01*
X844008Y1035555D01*
G03X844971Y1035557I480J862D01*
G01X845061Y1035607D01*
X845494D01*
X845584Y1035557D01*
G03X846154Y1035434I483J861D01*
G01X846751Y1034799D01*
Y1034475D01*
X846928Y1034298D01*
Y1034251D01*
X847787Y1033393D01*
Y1032638D01*
G03X848114Y1031837I1143J0D01*
G01X848228Y1031722D01*
Y1031425D01*
X848184Y1031340D01*
X848183Y1031339D01*
G03X850635I1226J-631D01*
G01X850635Y1031340D01*
X850591Y1031425D01*
Y1031722D01*
X850705Y1031837D01*
G03X851032Y1032638I-815J801D01*
G01Y1033440D01*
X851674Y1034081D01*
Y1034799D01*
X852272Y1035434D01*
G03X852841Y1035557I86J983D01*
G01X852931Y1035607D01*
X853364D01*
X853454Y1035557D01*
G03X854417Y1035555I483J861D01*
G01X854507Y1035605D01*
X854938D01*
X855028Y1035555D01*
G03X855991Y1035557I480J862D01*
G01X856081Y1035607D01*
X856514D01*
X856604Y1035556D01*
G03X857030Y1035432I483J861D01*
G01X857186Y1035423D01*
X857775Y1034799D01*
Y1032290D01*
X858403Y1031662D01*
X858361Y1031454D01*
G03X858346Y1031300I773J-155D01*
G01Y1030906D01*
G03X859134Y1030117I788J0D01*
G01X861299D01*
G03X862087Y1030906I0J788D01*
G01Y1031299D01*
G03X862006Y1031648I-789J0D01*
G01X861969Y1031724D01*
X861956Y1032101D01*
X861989Y1032180D01*
G03X862048Y1032479I-729J300D01*
G01Y1034530D01*
X862837Y1035320D01*
X863249Y1034908D01*
X863231Y1034722D01*
G03X863228Y1034646I785J-75D01*
G01Y1032480D01*
G03X864016Y1031692I788J0D01*
G01X864763D01*
Y1030906D01*
G03X864833Y1030581I788J0D01*
G01X864868Y1030503D01*
Y1030127D01*
X864833Y1030049D01*
G03X864763Y1029724I718J-325D01*
G01Y1029331D01*
G03X864833Y1029006I788J0D01*
G01X864868Y1028928D01*
Y1028552D01*
X864833Y1028474D01*
G03X864763Y1028150I718J-325D01*
G01Y1027756D01*
G03X865551Y1026968I788J0D01*
G01X867717D01*
G03X868031Y1027033I0J788D01*
G01X868107Y1027066D01*
X869055D01*
X869135Y1026776D01*
G03X870236Y1025936I1102J303D01*
G01X871102D01*
G03X872245Y1027079I0J1143D01*
G01Y1027928D01*
X872683Y1028366D01*
X872842Y1028370D01*
G03X873833Y1030674I-31J1378D01*
G01X873719Y1030799D01*
X873783Y1031706D01*
X873913Y1031814D01*
G03X871915Y1033683I-881J1060D01*
G01X871840Y1033579D01*
X871363Y1033424D01*
X871243Y1033461D01*
G03X870906Y1033513I-338J-1091D01*
G01X870039D01*
G03X868897Y1032381I0J-1143D01*
G01X868893Y1031989D01*
X868189D01*
X868031Y1032022D01*
G03X867717Y1032087I-314J-723D01*
G01X865198D01*
Y1034646D01*
G03X865132Y1034960I-788J0D01*
G01X865099Y1035036D01*
Y1041015D01*
X867122Y1043038D01*
X867940Y1043091D01*
X868058Y1043001D01*
G03X870170Y1043565I839J1094D01*
G01X870252Y1043760D01*
X871311Y1043970D01*
X875924Y1039357D01*
Y1035119D01*
X875891Y1034960D01*
G03X875826Y1034646I723J-314D01*
G01Y1032480D01*
G03X876614Y1031692I788J0D01*
G01X877008D01*
G03X877796Y1032480I0J788D01*
G01Y1034646D01*
G03X877731Y1034960I-788J0D01*
G01X877698Y1035036D01*
Y1035457D01*
X878455Y1036083D01*
X878638Y1036048D01*
G03X878727Y1036033I261J1354D01*
G01X879074Y1035990D01*
Y1035119D01*
X879041Y1034960D01*
G03X878976Y1034646I723J-314D01*
G01Y1032480D01*
G03X879041Y1032166I788J0D01*
G01X879074Y1032090D01*
Y1026601D01*
X879485Y1026191D01*
Y1026181D01*
G03X879499Y1026030I830J1D01*
G01X879110Y1025641D01*
X878869Y1025734D01*
G03X878583Y1025788I-287J-734D01*
G01X878189D01*
G03X877864Y1025718I0J-788D01*
G01X877787Y1025683D01*
X877410D01*
X877333Y1025718D01*
G03X877008Y1025788I-325J-718D01*
G01X876614D01*
G03X875826Y1025000I0J-788D01*
G01Y1022834D01*
G03X875891Y1022520I788J0D01*
G01X875924Y1022444D01*
Y1021475D01*
X876515Y1020885D01*
Y1015535D01*
X875367Y1015043D01*
X875178Y1015222D01*
G03X869263Y1010426I-2647J-2781D01*
G01X867204Y1008367D01*
X865533D01*
X865052Y1009533D01*
X865239Y1009719D01*
G03X864261Y1015869I-2708J2722D01*
G01X864081Y1015960D01*
X863915Y1016992D01*
X865099Y1018176D01*
Y1022362D01*
X865132Y1022520D01*
G03X865198Y1022834I-723J314D01*
G01Y1025000D01*
G03X864409Y1025788I-788J0D01*
G01X864016D01*
G03X863691Y1025718I0J-788D01*
G01X863613Y1025683D01*
X863237D01*
X863159Y1025718D01*
G03X862835Y1025788I-325J-718D01*
G01X862087D01*
Y1026575D01*
G03X861299Y1027363I-788J0D01*
G01X859133D01*
G03X858819Y1027298I0J-788D01*
G01X858744Y1027265D01*
X855144D01*
X853247Y1025367D01*
Y1017794D01*
X853616Y1017425D01*
X853080Y1016251D01*
X852806Y1016270D01*
G03X855243Y1009723I-274J-3830D01*
G01X855430Y1009910D01*
X856594Y1009427D01*
Y1008294D01*
X858294Y1006594D01*
X859615D01*
X860085Y1005412D01*
X859891Y1005228D01*
G03X861369Y998782I2641J-2787D01*
G01X861645Y998694D01*
Y993007D01*
X863119Y991532D01*
X862917Y991044D01*
X825022D01*
X819938Y985959D01*
X818913Y986094D01*
G03X816278Y985801I-1276J-523D01*
G01X816257Y985676D01*
X814440Y983859D01*
X813591D01*
G03X812699Y983431I0J-1143D01*
G01X811805D01*
G03X810913Y983859I-892J-715D01*
G01X809953D01*
G03X809000Y983347I0J-1143D01*
G01X808883Y983170D01*
X807802D01*
X806418Y981786D01*
X806246Y981791D01*
G03X806201Y981792I-48J-1476D01*
G01X802854D01*
G03X802678Y981781I1J-1477D01*
G02X802257Y982304I-47J393D01*
G03X799030Y985633I-2454J850D01*
G01X798833Y985572D01*
X797993Y986224D01*
X798004Y986431D01*
G03X797995Y988928I-21863J1166D01*
G01X797982Y989136D01*
X798824Y989794D01*
X799023Y989731D01*
G03X798150Y994212I780J2477D01*
G01X797989Y994079D01*
X796962Y994373D01*
X796896Y994570D01*
G03X793276Y1001228I-20755J-6972D01*
G02X789374Y1012398I14048J11173D01*
G01Y1012969D01*
X789370Y1012992D01*
X789374Y1024016D01*
Y1100217D01*
X789862Y1100419D01*
X792152Y1098129D01*
X797074D01*
X797735Y1097467D01*
Y1095558D01*
X796887Y1094945D01*
X796694Y1095009D01*
G03X795766Y1094988I-435J-1308D01*
G01X795639Y1094939D01*
X794901Y1095166D01*
G03X792814Y1093432I-1201J-677D01*
G01Y1092743D01*
X793085Y1092472D01*
X793085Y1091586D01*
X792970Y1091470D01*
G03X793916Y1089119I977J-973D01*
G01X794075Y1089115D01*
X794849Y1088341D01*
X794792Y1088122D01*
G03X794755Y1087835I1106J-287D01*
G01Y1086969D01*
G03X795006Y1086255I1142J0D01*
G01X795071Y1086173D01*
X795138Y1085742D01*
X795098Y1085642D01*
G03X797658I1280J-512D01*
G01X797618Y1085742D01*
X797685Y1086173D01*
X797751Y1086255D01*
G03X797811Y1086338I-892J713D01*
G01X797928Y1086515D01*
X798843D01*
Y1086072D01*
G03X798937Y1085346I956J-245D01*
G01X798987Y1085257D01*
Y1084826D01*
X798937Y1084736D01*
G03X798939Y1083773I862J-480D01*
G01X798989Y1083683D01*
Y1083250D01*
X798939Y1083160D01*
G03X798937Y1082197I861J-483D01*
G01X798987Y1082107D01*
Y1081676D01*
X798937Y1081587D01*
G03X798939Y1080624I862J-480D01*
G01X798989Y1080533D01*
Y1080100D01*
X798939Y1080010D01*
G03X798937Y1079047I861J-483D01*
G01X798987Y1078957D01*
Y1078527D01*
X798937Y1078437D01*
G03X798939Y1077474I862J-480D01*
G01X798989Y1077384D01*
Y1076951D01*
X798939Y1076861D01*
G03X798937Y1075898I861J-483D01*
G01X798987Y1075808D01*
Y1075377D01*
X798937Y1075287D01*
G03X798939Y1074324I862J-480D01*
G01X798989Y1074234D01*
Y1073801D01*
X798939Y1073711D01*
G03X798937Y1072748I861J-483D01*
G01X798987Y1072658D01*
Y1072228D01*
X798937Y1072138D01*
G03X798939Y1071173I862J-481D01*
G01X798990Y1071083D01*
Y1070649D01*
X798939Y1070559D01*
G03X798836Y1070291I861J-483D01*
G01X798767Y1069981D01*
X797771D01*
X797654Y1070158D01*
G03X796701Y1070670I-953J-631D01*
G01X796471D01*
X796172Y1070969D01*
G03X793809Y1070591I-1290J487D01*
G01X793996Y1070359D01*
X794607Y1069748D01*
X794599Y1069574D01*
G03X794598Y1069528I1141J-52D01*
G01Y1068661D01*
G03X795740Y1067519I1143J0D01*
G01X796701D01*
G03X797378Y1067741I0J1142D01*
G01X797496Y1067828D01*
X798302Y1067767D01*
X798448Y1067621D01*
X799365D01*
G03X799799Y1067521I434J887D01*
G01X804917D01*
G03X805780Y1068987I0J987D01*
G01X805731Y1069077D01*
Y1069506D01*
X805780Y1069596D01*
G03X805778Y1070559I-863J479D01*
G01X805727Y1070649D01*
Y1071083D01*
X805778Y1071173D01*
G03X805780Y1072138I-860J484D01*
G01X805730Y1072228D01*
Y1072658D01*
X805780Y1072748D01*
G03X805778Y1073711I-862J480D01*
G01X805728Y1073801D01*
Y1074234D01*
X805778Y1074324D01*
G03X805780Y1075287I-861J483D01*
G01X805730Y1075377D01*
Y1075808D01*
X805780Y1075898D01*
G03X805778Y1076861I-862J480D01*
G01X805728Y1076951D01*
Y1077384D01*
X805778Y1077474D01*
G03X805780Y1078437I-861J483D01*
G01X805730Y1078527D01*
Y1078957D01*
X805780Y1079047D01*
G03X805778Y1080010I-862J480D01*
G01X805728Y1080100D01*
Y1080533D01*
X805778Y1080624D01*
G03X805780Y1081587I-861J483D01*
G01X805730Y1081676D01*
Y1082107D01*
X805780Y1082197D01*
G03X805778Y1083160I-862J480D01*
G01X805728Y1083250D01*
Y1083683D01*
X805778Y1083773D01*
G03X805780Y1084736I-861J483D01*
G01X805730Y1084826D01*
Y1085257D01*
X805780Y1085346D01*
G03X805778Y1086309I-862J480D01*
G01X805728Y1086400D01*
Y1086833D01*
X805778Y1086923D01*
G03X805780Y1087886I-861J483D01*
G01X805730Y1087976D01*
Y1088406D01*
X805780Y1088496D01*
G03Y1089457I-862J480D01*
G01X805730Y1089546D01*
Y1089977D01*
X805780Y1090067D01*
G03X805778Y1091030I-862J480D01*
G01X805728Y1091120D01*
Y1091553D01*
X805778Y1091643D01*
G03X805780Y1092606I-861J483D01*
G01X805730Y1092696D01*
Y1093127D01*
X805780Y1093217D01*
G03X804917Y1094684I-862J480D01*
G01X800066D01*
X799509Y1095241D01*
Y1098202D01*
X797808Y1099902D01*
X792887D01*
X791831Y1100958D01*
Y1133007D01*
X792768Y1133596D01*
X792965Y1133502D01*
G03X796869Y1135281I1208J2521D01*
G01X796910Y1135430D01*
X797626Y1135878D01*
X797778Y1135850D01*
G03X798449Y1135891I254J1355D01*
G01X798612Y1135943D01*
X799414Y1135498D01*
X799456Y1135332D01*
G03X800114Y1137923I2709J691D01*
G01X799191Y1137970D01*
X799080Y1138100D01*
G03X798062Y1138583I-1049J-895D01*
G01X797904Y1138587D01*
X796037Y1140454D01*
X792546D01*
X789862Y1137770D01*
X789374Y1137972D01*
Y1147314D01*
X790626Y1147733D01*
X790797Y1147505D01*
G03X801290Y1159347I6447J4857D01*
G01X801027Y1159499D01*
X801383Y1160823D01*
X812988D01*
Y1156098D01*
X813582D01*
Y1154676D01*
X813561Y1154615D01*
G03X813385Y1153544I3171J-1071D01*
G01Y1150787D01*
G03X813561Y1149716I3347J0D01*
G01X813582Y1149654D01*
Y1140552D01*
X813000D01*
G03X811857Y1139409I0J-1143D01*
G01Y1138543D01*
G03X813000Y1137401I1143J0D01*
G01X813582D01*
Y1136810D01*
X823621D01*
Y1135337D01*
X827072Y1131887D01*
X826869Y1131398D01*
X825761D01*
X824186Y1132973D01*
X815381D01*
X808365Y1125957D01*
Y1112870D01*
X808143Y1112761D01*
G03X807920Y1112624I578J-1186D01*
G01X807814Y1112543D01*
X807284D01*
Y1113654D01*
X807328Y1113739D01*
G03X804876Y1113739I-1226J631D01*
G01X804877Y1113739D01*
X804920Y1113654D01*
Y1112380D01*
X804819Y1112267D01*
G03X804527Y1111504I850J-763D01*
G01Y1110543D01*
G03X805106Y1109549I1142J0D01*
G02Y1108860I-195J-344D01*
G03X804945Y1108750I563J-994D01*
G01X804829Y1108655D01*
X803993Y1108685D01*
G03X803110Y1109103I-883J-725D01*
G01X802244D01*
G03X801205Y1108435I0J-1143D01*
G01X801123Y1108256D01*
X800124Y1108032D01*
X799974Y1108159D01*
G03X797234Y1108659I-1805J-2135D01*
G01X797096Y1108609D01*
X796600Y1108802D01*
X796531Y1108921D01*
G03X794958Y1106899I-1189J-697D01*
G01X795090Y1106861D01*
X795399Y1106428D01*
X795385Y1106281D01*
G03X800919Y1105514I2784J-258D01*
G01X801730Y1105965D01*
X801894Y1105913D01*
G03X802244Y1105857I351J1087D01*
G01X803110D01*
G03X803835Y1106117I0J1142D01*
G01X803950Y1106211D01*
X804774Y1106181D01*
X804882Y1106078D01*
G03X805039Y1105953I788J827D01*
G01X805216Y1105835D01*
Y1105192D01*
X807381Y1103026D01*
Y1102599D01*
G03X807281Y1102165I887J-434D01*
G01Y1097047D01*
G03X808748Y1096185I987J0D01*
G01X808838Y1096235D01*
X809269D01*
X809358Y1096185D01*
G03X810321Y1096187I480J862D01*
G01X810411Y1096237D01*
X810844D01*
X810935Y1096187D01*
G03X811898Y1096185I483J861D01*
G01X811987Y1096235D01*
X812418D01*
X812508Y1096185D01*
G03X813471Y1096187I480J862D01*
G01X813561Y1096237D01*
X813994D01*
X814084Y1096187D01*
G03X814506Y1096062I483J861D01*
G01X814695Y1096051D01*
X815271Y1095240D01*
X815220Y1095058D01*
G03X817926Y1094654I1327J-373D01*
G01X817929Y1094813D01*
X818603Y1095487D01*
Y1096091D01*
X818999D01*
X819081Y1096082D01*
G03X819770Y1096187I206J965D01*
G01X819860Y1096237D01*
X820293D01*
X820383Y1096187D01*
G03X820892Y1096061I483J861D01*
G01X821452Y1095431D01*
Y1075010D01*
X812781Y1066339D01*
X804978D01*
X804967Y1066340D01*
G03X804917Y1066341I-56J-985D01*
G01X799799D01*
G03X799750Y1066340I6J-987D01*
G01X799739Y1066339D01*
X796836D01*
X796639Y1066143D01*
X795976D01*
G03X794834Y1065000I0J-1143D01*
G01Y1064134D01*
G03X795307Y1063207I1143J0D01*
G01X795472Y1063089D01*
Y1061911D01*
X795307Y1061793D01*
G03X794834Y1060866I669J-926D01*
G01Y1060000D01*
G03X795307Y1059074I1143J0D01*
G01X795472Y1058955D01*
Y1057763D01*
X795222Y1057664D01*
G03X794389Y1056437I487J-1227D01*
G01Y1055374D01*
G03X795709Y1054054I1320J0D01*
G01X796811D01*
G03X798123Y1055235I0J1320D01*
G01X798138Y1055375D01*
X798526Y1055761D01*
X798883Y1055525D01*
X798930Y1055438D01*
G03X798938Y1055423I877J452D01*
G01X798989Y1055333D01*
Y1054900D01*
X798939Y1054809D01*
G03X798937Y1053846I861J-483D01*
G01X798987Y1053757D01*
Y1053326D01*
X798937Y1053236D01*
G03X798939Y1052273I862J-480D01*
G01X798989Y1052183D01*
Y1051750D01*
X798939Y1051660D01*
G03X798937Y1050697I861J-483D01*
G01X798987Y1050607D01*
Y1050176D01*
X798937Y1050087D01*
G03Y1049126I862J-480D01*
G01X798987Y1049036D01*
Y1048606D01*
X798937Y1048516D01*
G03X798939Y1047553I862J-480D01*
G01X798989Y1047463D01*
Y1047030D01*
X798939Y1046939D01*
G03X798937Y1045976I861J-483D01*
G01X798987Y1045887D01*
Y1045456D01*
X798937Y1045366D01*
G03X798893Y1045277I861J-482D01*
G01X798850Y1045178D01*
X798481Y1044908D01*
X798104Y1045203D01*
X798066Y1045314D01*
G03X796874Y1046162I-1190J-410D01*
G01X795247D01*
G03X794537Y1045941I3J-1258D01*
G01X794436Y1045872D01*
X793950D01*
X793848Y1045941D01*
G03X793134Y1046162I-712J-1038D01*
G01X791507D01*
G03X790251Y1044902I3J-1258D01*
G01Y1043280D01*
G03X791436Y1042021I1258J-2D01*
G01Y1040920D01*
X791259Y1040803D01*
G03X790747Y1039850I631J-953D01*
G01Y1038890D01*
G03X791175Y1037998I1143J0D01*
G01Y1037104D01*
G03X790747Y1036213I715J-892D01*
G01Y1035252D01*
G03X791259Y1034299I1143J0D01*
G01X791436Y1034182D01*
Y1033097D01*
X793137Y1031397D01*
X801548D01*
X802603Y1032452D01*
X803584Y1032355D01*
X803688Y1032199D01*
G03X803820Y1032037I950J635D01*
G01X804093Y1031757D01*
X803424Y1031089D01*
Y1029321D01*
X803337Y1029213D01*
G03X805482I1073J-866D01*
G01X805394Y1029321D01*
Y1030273D01*
X806103Y1030982D01*
Y1031809D01*
G03X806490Y1032120I-505J1025D01*
G01X807384D01*
G03X807756Y1031817I891J715D01*
G01X807972Y1031707D01*
Y1030881D01*
X807794Y1030764D01*
G03X807283Y1029811I631J-953D01*
G01Y1028850D01*
G03X808425Y1027708I1143J0D01*
G01X809291D01*
G03X810434Y1028850I0J1143D01*
G01Y1029811D01*
G03X810288Y1030369I-1142J0D01*
G01X810896Y1030858D01*
G03X813004Y1031197I915J1031D01*
G01X813070Y1031312D01*
X813543Y1031510D01*
X813669Y1031480D01*
G03X813937Y1031448I268J1111D01*
G01X814803D01*
G03X815705Y1031889I0J1142D01*
G01X816776D01*
G03X817677Y1031448I902J701D01*
G01X818543D01*
G03X819351Y1031783I0J1142D01*
G01X819487Y1031919D01*
X820486Y1031799D01*
X820586Y1031635D01*
G03X820695Y1031483I1127J687D01*
G01X820785Y1031373D01*
Y1030831D01*
X820695Y1030722D01*
G03X820393Y1029882I1018J-840D01*
G01Y1028780D01*
G03X820969Y1027689I1320J0D01*
G03X823519I1275J-524D01*
G03X824095Y1028780I-744J1090D01*
G01Y1029882D01*
G03X823934Y1030513I-1320J0D01*
G01X824553Y1031397D01*
X825379D01*
X825496Y1031220D01*
G03X825853Y1030876I952J631D01*
G01X826043Y1030760D01*
Y1030044D01*
G03X825306Y1028976I406J-1068D01*
G01Y1028110D01*
G03X826043Y1027043I1142J0D01*
G01Y1026837D01*
X827389Y1025491D01*
X834934D01*
X835625Y1026182D01*
X836732D01*
G03X837767Y1028467I0J1377D01*
G01Y1029210D01*
G03X836732Y1031495I-1035J908D01*
G01X834764D01*
G03X833729Y1029210I0J-1377D01*
G01Y1028476D01*
X833652Y1028372D01*
G03X833389Y1027638I1112J-812D01*
G01X832994Y1027265D01*
X829175D01*
X828547Y1027911D01*
X828552Y1028078D01*
G03X828552Y1028110I-1142J30D01*
G01Y1028976D01*
G03X827816Y1030044I-1142J0D01*
G01Y1030783D01*
G03X828552Y1031850I-406J1068D01*
G01Y1032717D01*
G03X827409Y1033859I-1143J0D01*
G01X826449D01*
G03X825496Y1033347I0J-1143D01*
G01X825379Y1033170D01*
X824121D01*
X824091Y1033533D01*
G03X822776Y1034745I-1315J-108D01*
G01X821753D01*
Y1035983D01*
G03X821853Y1036417I-887J434D01*
G01Y1041535D01*
G03X820383Y1042396I-987J0D01*
G01X820293Y1042346D01*
X819860D01*
X819770Y1042396D01*
G03X818807Y1042398I-483J-861D01*
G01X818717Y1042348D01*
X818287D01*
X818197Y1042398D01*
G03X817234Y1042396I-480J-862D01*
G01X817144Y1042346D01*
X816711D01*
X816620Y1042396D01*
G03X815657Y1042398I-483J-861D01*
G01X815568Y1042348D01*
X815137D01*
X815047Y1042398D01*
G03X814355Y1042500I-481J-862D01*
G01X814313Y1042491D01*
X813875D01*
Y1043096D01*
X811989Y1044981D01*
X805900D01*
G03X805780Y1045366I-982J-96D01*
G01X805730Y1045456D01*
Y1045887D01*
X805780Y1045976D01*
G03X805778Y1046939I-862J480D01*
G01X805728Y1047030D01*
Y1047463D01*
X805778Y1047553D01*
G03X805780Y1048516I-861J483D01*
G01X805730Y1048606D01*
Y1049036D01*
X805780Y1049126D01*
G03Y1050087I-862J480D01*
G01X805730Y1050176D01*
Y1050607D01*
X805780Y1050697D01*
G03X805778Y1051660I-862J480D01*
G01X805728Y1051750D01*
Y1052183D01*
X805778Y1052273D01*
G03X805847Y1052424I-860J484D01*
G01X805891Y1052547D01*
X806505Y1052960D01*
G03X806506Y1055693I184J1366D01*
G01X805892Y1056109D01*
X805848Y1056233D01*
G03X805780Y1056386I-931J-327D01*
G01X805730Y1056476D01*
Y1056906D01*
X805780Y1056996D01*
G03X805778Y1057959I-862J480D01*
G01X805728Y1058049D01*
Y1058482D01*
X805778Y1058572D01*
G03X805780Y1059535I-861J483D01*
G01X805730Y1059625D01*
Y1060056D01*
X805780Y1060146D01*
G03X805778Y1061109I-862J480D01*
G01X805728Y1061199D01*
Y1061632D01*
X805778Y1061722D01*
G03X805780Y1062685I-861J483D01*
G01X805730Y1062775D01*
Y1063206D01*
X805780Y1063295D01*
G03X805898Y1063666I-862J480D01*
G01X805915Y1063816D01*
X806533Y1064369D01*
X813597D01*
X823422Y1074194D01*
Y1095431D01*
X823975Y1096050D01*
X824126Y1096067D01*
G03X824496Y1096185I-110J981D01*
G01X824586Y1096235D01*
X825017D01*
X825106Y1096185D01*
G03X826071Y1096187I481J862D01*
G01X826161Y1096238D01*
X826595D01*
X826685Y1096187D01*
G03X827648Y1096184I484J860D01*
G01X827738Y1096234D01*
X828167D01*
X828257Y1096184D01*
G03X829220Y1096187I479J863D01*
G01X829311Y1096238D01*
X829744D01*
X829835Y1096187D01*
G03X830799Y1096185I484J860D01*
G01X830889Y1096235D01*
X831320D01*
X831409Y1096185D01*
G03X832877Y1097047I480J862D01*
G01Y1102165D01*
G03X831409Y1103028I-987J0D01*
G01X831320Y1102978D01*
X830889D01*
X830799Y1103028D01*
G03X829835Y1103026I-481J-862D01*
G01X829744Y1102975D01*
X829311D01*
X829220Y1103026D01*
G03X828257Y1103028I-484J-860D01*
G01X828167Y1102979D01*
X827738D01*
X827648Y1103028D01*
G03X826685Y1103026I-479J-863D01*
G01X826595Y1102975D01*
X826161D01*
X826071Y1103026D01*
G03X825106Y1103028I-484J-860D01*
G01X825017Y1102978D01*
X824586D01*
X824496Y1103028D01*
G03X823533Y1103026I-480J-862D01*
G01X823443Y1102976D01*
X823170D01*
G03X822754Y1103211I-734J-810D01*
G01X822636Y1104124D01*
X823035Y1104523D01*
X825008D01*
G03X826657Y1105752I-2J1723D01*
G01X826703Y1105906D01*
X827464Y1106331D01*
X827619Y1106290D01*
G03X827913Y1106251I294J1104D01*
G01X828780D01*
G03X829922Y1107394I0J1143D01*
G01Y1108354D01*
G03X828780Y1109497I-1143J0D01*
G01X827913D01*
G03X827619Y1109458I0J-1143D01*
G01X827464Y1109417D01*
X826703Y1109842D01*
X826657Y1109996D01*
G03X825008Y1111225I-1651J-494D01*
G01X822551D01*
G03X822183Y1111185I2J-1723D01*
G01X821998Y1111144D01*
X821222Y1111768D01*
Y1113257D01*
X819989Y1114490D01*
G03X820040Y1114913I-1672J418D01*
G01Y1118157D01*
G03X818686Y1119846I-1723J6D01*
G01X818491Y1120513D01*
X818844Y1120865D01*
X819693D01*
G03X820835Y1122008I0J1143D01*
G01Y1122874D01*
G03X819693Y1124017I-1143J0D01*
G01X818732D01*
G03X817590Y1122874I0J-1143D01*
G01Y1122119D01*
X816204Y1120733D01*
Y1120281D01*
X815825Y1119892D01*
X815683Y1119877D01*
G03X815043Y1119678I181J-1714D01*
G01X814845Y1119571D01*
X813875Y1120149D01*
Y1123652D01*
X817289Y1127066D01*
X817448D01*
G03Y1128839I1056J887D01*
G01X816772D01*
X816381Y1129169D01*
G03X815862Y1130031I-1359J-231D01*
G01X815855Y1130939D01*
X816116Y1131200D01*
X823452D01*
X825026Y1129625D01*
X830046D01*
G03X832481Y1130481I1056J887D01*
G01X832485Y1130703D01*
G03X832544Y1130850I-792J399D01*
G01X832580Y1130889D01*
Y1131065D01*
G03X832580Y1131106I-887J37D01*
G01Y1131707D01*
X832670Y1131816D01*
G03X832875Y1132382I-682J566D01*
G01Y1133367D01*
G03X832874Y1133404I-887J0D01*
G01Y1133408D01*
X832870Y1133589D01*
X833114Y1133828D01*
X833299Y1133820D01*
X833304Y1133820D01*
G03X833366Y1133818I59J885D01*
G01X833957D01*
G03X834843Y1134705I0J887D01*
G01Y1135689D01*
G03X834808Y1135937I-887J-1D01*
G01X834801Y1135961D01*
X834763Y1136210D01*
X835038Y1136493D01*
X835277Y1136462D01*
X835299Y1136457D01*
G03X836496Y1136722I331J1339D01*
G01X836605Y1136810D01*
X850985D01*
Y1149654D01*
X851006Y1149716D01*
G03X851182Y1150787I-3171J1071D01*
G01Y1153544D01*
G03X851006Y1154615I-3347J0D01*
G01X850985Y1154676D01*
Y1156098D01*
X851579D01*
Y1160823D01*
X1002948D01*
X1003304Y1159499D01*
X1003041Y1159347D01*
G03X1014387Y1148920I4045J-6985D01*
G01X1015744Y1148589D01*
Y1012398D01*
G02X1011843Y1001228I-17950J4D01*
G03X1008219Y994559I17135J-13630D01*
G01X1008155Y994370D01*
X1007174Y994049D01*
X1007011Y994164D01*
G03X1006131Y989521I-1500J-2121D01*
G01X1006325Y989569D01*
X1007121Y988911D01*
X1007111Y988713D01*
G03X1007120Y986323I21866J-1116D01*
G01X1007131Y986123D01*
X1006333Y985460D01*
X1006139Y985509D01*
G03X1003068Y982110I-627J-2520D01*
G02X1002646Y981583I-372J-134D01*
G03X1002461Y981595I-186J-1465D01*
G01X999114D01*
G03X997637Y980118I0J-1477D01*
G01Y978346D01*
G03X999114Y976869I1477J0D01*
G01X999901D01*
Y972420D01*
X1004480Y967841D01*
Y967087D01*
G03X1005622Y965944I1143J0D01*
G01X1006583D01*
G03X1007474Y966372I0J1143D01*
G01X1008368D01*
G03X1008664Y966112I891J715D01*
G01X1008854Y965996D01*
Y890816D01*
X1001365Y883328D01*
X996357D01*
X996269Y883604D01*
G03Y881278I-3659J-1163D01*
G01X996357Y881554D01*
X1002100D01*
X1010627Y890081D01*
Y966019D01*
G03X1011363Y967087I-406J1068D01*
G01Y967953D01*
G03X1010220Y969095I-1143J0D01*
G01X1009260D01*
G03X1008368Y968667I0J-1143D01*
G01X1007474D01*
G03X1006583Y969095I-892J-715D01*
G01X1005733D01*
X1001674Y973155D01*
Y976869D01*
X1002461D01*
G03X1003938Y978346I0J1477D01*
G01Y980118D01*
G03X1003935Y980206I-1477J-2D01*
G01X1003932Y980259D01*
X1004022Y980698D01*
X1004485Y980602D01*
X1004519Y980588D01*
G03X1007046Y980893I992J2400D01*
G01X1007207Y981011D01*
X1008197Y980699D01*
X1008262Y980510D01*
G03X1011843Y973969I20715J7089D01*
G02X1015744Y962799I-14048J-11173D01*
G01X1015746Y890081D01*
X1015747Y881554D01*
Y876334D01*
Y876333D01*
X1015747Y875988D01*
Y875182D01*
Y872441D01*
X1015748Y868505D01*
Y867126D01*
Y866070D01*
Y865154D01*
Y864765D01*
Y863386D01*
Y862795D01*
Y855908D01*
Y852362D01*
X1015748Y847579D01*
Y797835D01*
X904134D01*
G37*
G36*
G01X797613Y1038213D02*
Y1038645D01*
X797619Y1038681D01*
G03X797639Y1038890I-1123J209D01*
G01Y1039850D01*
G03X797127Y1040803I-1143J0D01*
G01X796950Y1040920D01*
Y1041987D01*
X797233Y1042070D01*
G03X798135Y1043280I-357J1207D01*
G01Y1043564D01*
X799117Y1044137D01*
X799315Y1044026D01*
G03X799799Y1043899I485J860D01*
G01X803801D01*
X804003Y1043411D01*
X798806Y1038213D01*
X797613D01*
G37*
G36*
G01X793871Y1033170D02*
X793526Y1033515D01*
X793503Y1034373D01*
X793607Y1034491D01*
G03X793823Y1034844I-851J762D01*
G02X794563I370J-141D01*
G03X795630Y1034109I1067J407D01*
G01X796496D01*
G03X797639Y1035252I0J1143D01*
G01Y1036101D01*
X797978Y1036440D01*
X799541D01*
X802759Y1039659D01*
X803247Y1039456D01*
Y1035604D01*
X800814Y1033170D01*
X793871D01*
G37*
G36*
G01X789374Y1156354D02*
Y1156843D01*
G02X793157Y1160626I3783J0D01*
G01X794098D01*
G02X794492Y1160232I0J-394D01*
G01Y1160228D01*
G02X794244Y1159862I-394J0D01*
G03X790118Y1156169I2998J-7501D01*
G02X789772Y1155961I-347J185D01*
G01X789768D01*
G02X789374Y1156354I0J393D01*
G37*
G36*
G01Y1142520D02*
Y1156843D01*
G02X793157Y1160626I3783J0D01*
G01X812594D01*
G02X812988Y1160232I0J-394D01*
G01Y1156295D01*
G03X813382Y1155902I394J0D01*
G01X813386D01*
Y1153760D01*
G03X813378Y1153543I3346J-230D01*
G01Y1150787D01*
G03X813386Y1150571I3354J14D01*
G01Y1142520D01*
G02X812992Y1142126I-394J0D01*
G01X789768D01*
G02X789374Y1142520I0J394D01*
G37*
G36*
G01Y1155945D02*
Y1157039D01*
G02X793157Y1160823I3783J0D01*
G01X795061D01*
Y1160138D01*
X794785Y1160050D01*
G03X790119Y1156155I2459J-7688D01*
G01X790007Y1155945D01*
X789374D01*
G37*
G36*
G01X827346Y698102D02*
Y725661D01*
X969079D01*
Y737472D01*
X827346D01*
Y765031D01*
X898213D01*
Y792591D01*
X906087D01*
Y757157D01*
X835220D01*
Y745346D01*
X976953D01*
Y717787D01*
X835220D01*
Y705976D01*
X895850D01*
Y698102D01*
X827346D01*
G37*
G36*
G01X857232Y907998D02*
X826280Y938950D01*
Y939946D01*
X825800Y940426D01*
G03X826256Y943374I-3268J2015D01*
G01X826201Y943592D01*
X827001Y944389D01*
X827219Y944333D01*
G03X827528Y944291I339J1336D01*
G01X827687Y944287D01*
X863119Y908855D01*
X862917Y908367D01*
X860954D01*
X860839Y908565D01*
G03X858373Y908404I-1193J-691D01*
G01X858291Y908208D01*
X857232Y907998D01*
G37*
G36*
G01X816198Y959154D02*
X815639Y960174D01*
X815766Y960372D01*
G03X812934Y966259I-3234J2069D01*
G01X812686Y966285D01*
X812281Y967429D01*
X819950Y975098D01*
X829452D01*
X829655Y974609D01*
X828050Y973005D01*
Y960800D01*
X826404Y959154D01*
X825231D01*
Y959706D01*
X825337Y959820D01*
G03X819297Y960372I-2806J2621D01*
G01X819424Y960174D01*
X818865Y959154D01*
X816198D01*
G37*
G36*
G01X857489Y1017314D02*
X857378Y1017453D01*
G03X855918Y1017920I-1079J-858D01*
G01X855694Y1017855D01*
X855020Y1018529D01*
Y1024633D01*
X855879Y1025491D01*
X858744D01*
X858819Y1025458D01*
G03X859134Y1025393I314J723D01*
G01X860078D01*
Y1022835D01*
G03X860143Y1022520I788J0D01*
G01X860176Y1022444D01*
Y1020948D01*
X860604Y1020521D01*
X860598Y1020350D01*
G03X860598Y1020315I1142J-30D01*
G01Y1019426D01*
X858432Y1017261D01*
X857489Y1017314D01*
G37*
G36*
G01X806593Y1034264D02*
G03X805598Y1034843I-994J-563D01*
G01X805020D01*
Y1039200D01*
X806793Y1040972D01*
X807281Y1040769D01*
Y1036417D01*
G03X807352Y1036048I987J0D01*
G01X807381Y1035977D01*
Y1034799D01*
X807366Y1034745D01*
G03X807350Y1034638I378J-109D01*
G01Y1034594D01*
G02X807325Y1034334I-1337J0D01*
G03X807281Y1034264I951J-633D01*
G02X806593I-344J195D01*
G37*
G36*
G01X816701Y1102976D02*
G03X815577Y1102978I-563J-810D01*
G01X815128D01*
G03X814622Y1103151I-561J-812D01*
G01X814465Y1103159D01*
X813875Y1103783D01*
Y1112922D01*
X814845Y1113500D01*
X815043Y1113393D01*
G03X815862Y1113184I821J1515D01*
G01X818319D01*
G03X818550Y1113200I-2J1723D01*
G01X818744Y1113226D01*
X819448Y1112522D01*
Y1105115D01*
X818401Y1104067D01*
Y1103783D01*
X817814Y1103160D01*
X817657Y1103150D01*
G03X817153Y1102976I59J-985D01*
G01X816701D01*
G37*
G36*
G01X814173Y1137797D02*
Y1155506D01*
G02X814569Y1155902I396J0D01*
G01X818892D01*
G02X819287Y1155506I0J-396D01*
G01Y1146565D01*
X819264Y1146500D01*
G03X819145Y1145819I1899J-684D01*
G01Y1140401D01*
G03X821165Y1138385I2019J2D01*
G01X824016D01*
G03X824991Y1138635I2J2019D01*
G02X825365Y1138639I191J-347D01*
G01X825575Y1138529D01*
G02X825787Y1138179I-184J-350D01*
G01Y1137797D01*
G02X825391Y1137402I-396J0D01*
G01X814569D01*
G02X814173Y1137797I0J396D01*
G37*
G36*
G01X843402Y1138385D02*
G03X845422Y1140401I2J2019D01*
G01Y1145819D01*
G03X845300Y1146509I-2019J-2D01*
G01X845276Y1146575D01*
Y1148425D01*
X845280D01*
Y1155506D01*
G02X845675Y1155902I396J0D01*
G01X849998D01*
G02X850394Y1155506I0J-396D01*
G01Y1137797D01*
G02X849998Y1137402I-396J0D01*
G01X839176D01*
G02X838780Y1137797I0J396D01*
G01Y1138179D01*
G02X838992Y1138529I396J0D01*
G01X839202Y1138639D01*
G02X839576Y1138635I184J-351D01*
G03X840551Y1138385I973J1769D01*
G01X843402D01*
G37*
G36*
G01X884646Y922833D02*
Y916341D01*
G02X884250Y915945I-396J0D01*
G01X881104D01*
G02X880709Y916341I0J396D01*
G01Y922833D01*
G02X881104Y923228I396J0D01*
G01X884250D01*
G02X884646Y922833I0J-396D01*
G37*
G36*
G01X893118Y927953D02*
G03X893110Y928083I-1385J-19D01*
G01Y932283D01*
G03X892717Y932677I-394J0D01*
G01X889953D01*
G03X889815Y932685I-156J-1525D01*
G01X889567D01*
G02X889173Y933079I0J394D01*
G01Y934646D01*
G02X889567Y935039I394J0D01*
G01X896654D01*
G02X897047Y934646I0J-394D01*
G01Y928346D01*
G02X896654Y927953I-394J0D01*
G01X893118D01*
G37*
G36*
G01X884646Y930707D02*
Y924411D01*
G02X884250Y924016I-396J0D01*
G01X881104D01*
G02X880709Y924411I0J396D01*
G01Y930707D01*
G02X881104Y931102I396J0D01*
G01X884250D01*
G02X884646Y930707I0J-396D01*
G37*
G36*
G01X895556Y1014821D02*
X895374Y1015022D01*
G03X890786Y1015861I-2843J-2581D01*
G01X890620Y1015776D01*
X889720Y1016161D01*
X889668Y1016339D01*
G03X889233Y1017001I-1321J-394D01*
G01Y1024719D01*
X890005Y1025491D01*
X890248D01*
G03X890630Y1025393I381J690D01*
G01X893149D01*
Y1022835D01*
G03X893214Y1022520I788J0D01*
G01X893247Y1022444D01*
Y1020853D01*
X896751Y1017349D01*
Y1015282D01*
X895556Y1014821D01*
G37*
G36*
G01X885052Y1009533D02*
X885239Y1009719D01*
G03X883694Y1016100I-2708J2722D01*
G01X883418Y1016188D01*
Y1017438D01*
X882283Y1018573D01*
X882280Y1018731D01*
G03X881167Y1020054I-1378J-31D01*
G01X880847Y1020117D01*
Y1022444D01*
X880880Y1022520D01*
G03X880946Y1022835I-723J314D01*
G01Y1025393D01*
X883465D01*
G03X884044Y1025647I0J788D01*
G01X884158Y1025770D01*
X885063Y1025793D01*
X885182Y1025675D01*
G03X885984Y1025346I802J813D01*
G01X886850D01*
G03X887009Y1025357I0J1143D01*
G01X887037Y1025361D01*
X887460D01*
Y1017001D01*
G03X888191Y1014575I887J-1056D01*
G01X888375Y1014554D01*
X888912Y1013736D01*
X888858Y1013558D01*
G03X889263Y1010426I3673J-1117D01*
G01X887204Y1008367D01*
X885533D01*
X885052Y1009533D01*
G37*
G36*
G01X892044Y1035394D02*
X887278Y1040161D01*
X887481Y1040649D01*
X889389D01*
X893247Y1036790D01*
Y1035826D01*
X892820Y1035431D01*
G03X892756Y1035434I-66J-785D01*
G01X892362D01*
G03X892243Y1035425I-1J-788D01*
G01X892044Y1035394D01*
G37*
G36*
G01X883855Y1031989D02*
X883779Y1032022D01*
G03X883465Y1032087I-314J-723D01*
G01X882520D01*
Y1034646D01*
G03X882455Y1034960I-788J0D01*
G01X882422Y1035036D01*
Y1036543D01*
G03X882913Y1037658I-887J1056D01*
G01X882906Y1037827D01*
X883535Y1038483D01*
X886448D01*
X890058Y1034873D01*
Y1034207D01*
X889275Y1033584D01*
X889089Y1033627D01*
G03X887624Y1033037I-310J-1344D01*
G01X887179Y1032874D01*
G03X886850Y1032922I-329J-1094D01*
G01X885984D01*
G03X884934Y1032229I0J-1143D01*
G01X884831Y1031989D01*
X883855D01*
G37*
G36*
G01X880531Y1044237D02*
X880624Y1044330D01*
X892806D01*
X894822Y1042314D01*
Y1038414D01*
X894334Y1038211D01*
X890123Y1042422D01*
X880902D01*
X880307Y1043339D01*
X880394Y1043535D01*
G03X880507Y1043970I-1260J560D01*
G01X880531Y1044237D01*
G37*
G36*
G01X924056Y883855D02*
Y884271D01*
X924058Y884292D01*
G03X924064Y884409I-1137J116D01*
G01Y885276D01*
G03X922921Y886418I-1143J0D01*
G01X922489D01*
X921816Y887092D01*
Y887139D01*
X920763Y888192D01*
X920965Y888680D01*
X953613D01*
G03X954078Y888322I1056J887D01*
G01X954263Y888233D01*
X954443Y887193D01*
X951105Y883855D01*
X924056D01*
G37*
G36*
G01X1014252Y1156094D02*
G03X1011441Y1159169I-7167J-3730D01*
G01X1011437D01*
G02X1011272Y1159610I213J331D01*
G01X1011484Y1160343D01*
G02X1011862Y1160626I378J-111D01*
G01X1011961D01*
G02X1015744Y1156843I0J-3783D01*
G01Y1156461D01*
G02X1015445Y1156079I-393J0D01*
G01X1014693Y1155894D01*
G02X1014252Y1156094I-92J382D01*
G37*
G36*
G01X1015350Y1142520D02*
X997638D01*
G02X997244Y1142913I0J394D01*
G01Y1160232D01*
G02X997638Y1160626I394J0D01*
G01X1011965D01*
G02X1015744Y1156843I-4J-3783D01*
G01Y1142913D01*
G02X1015350Y1142520I-394J0D01*
G37*
G36*
G01X1014394Y1155806D02*
X1014250Y1156081D01*
G03X1011132Y1159347I-7164J-3719D01*
G01X1010870Y1159499D01*
X1011226Y1160823D01*
X1011961D01*
G02X1015744Y1157039I0J-3783D01*
G01Y1156135D01*
X1014394Y1155806D01*
G37*
%LPC*%
G75*
G36*
G01X849832Y849704D02*
X848205D01*
G02X846944Y850965I-3J1258D01*
G01Y852586D01*
G02X847469Y853611I1258J3D01*
G01X847559Y854165D01*
G02X847342Y854834I926J670D01*
G01Y855795D01*
G02X847770Y856687I1143J0D01*
G01Y857581D01*
G02X847342Y858472I715J892D01*
G01Y859433D01*
G02X847634Y860196I1142J0D01*
G01X847735Y860309D01*
Y861602D01*
X847492Y861704D01*
G02X850352Y861667I1477J3544D01*
G01X850099Y861569D01*
Y860309D01*
X850200Y860196D01*
G02X850493Y859433I-850J-763D01*
G01Y858472D01*
G02X850065Y857581I-1143J0D01*
G01Y856687D01*
G02X850493Y855795I-715J-892D01*
G01Y854835D01*
G02X850419Y854430I-1142J0D01*
G01X850374Y854312D01*
X850550Y853628D01*
X850645Y853546D01*
G02X851087Y852586I-816J-958D01*
G01Y850965D01*
G02X849832Y849704I-1258J-3D01*
G37*
G36*
G01X860532Y855598D02*
Y854637D01*
G02X860379Y854065I-1143J0D01*
G01X860470Y853561D01*
G02X860930Y852586I-799J-973D01*
G01Y850965D01*
G02X859674Y849704I-1258J-3D01*
G01X858048D01*
G02X856787Y850965I-3J1258D01*
G01Y852586D01*
G02X857354Y853641I1258J3D01*
G01X857494Y854143D01*
G02X857381Y854637I1030J495D01*
G01Y855598D01*
G02X857809Y856490I1143J0D01*
G01Y857384D01*
G02X857381Y858276I715J892D01*
G01Y859236D01*
G02X857674Y860000I1142J0D01*
G01X857775Y860112D01*
Y861189D01*
G02X857779Y861287I1182J2D01*
G01X857533Y861687D01*
G02X860399Y861685I1436J3561D01*
G01X860150Y861585D01*
Y861201D01*
G02X860142Y861056I-1182J-2D01*
G01X860139Y861032D01*
Y860112D01*
X860240Y860000D01*
G02X860532Y859236I-850J-763D01*
G01Y858276D01*
G02X860104Y857384I-1143J0D01*
G01Y856490D01*
G02X860532Y855598I-715J-892D01*
G37*
G36*
G01X870048Y957874D02*
X870207Y957878D01*
X870696Y958367D01*
X884420D01*
X884503Y958652D01*
G02X885857Y956889I1324J-385D01*
G01X885699Y956886D01*
X885407Y956594D01*
X871494D01*
X871438Y956265D01*
G02X870048Y957874I-1359J231D01*
G37*
G36*
G01X876661Y1141928D02*
X875701D01*
G02X874558Y1143071I0J1143D01*
G01Y1143937D01*
G02X874613Y1144285I1143J0D01*
G01X874652Y1144407D01*
X874429Y1145090D01*
X874326Y1145165D01*
G02X873720Y1146358I871J1193D01*
G01Y1149705D01*
G02X873731Y1149890I1477J-1D01*
G03X873205Y1150312I-393J50D01*
G02X874713Y1151730I-878J2444D01*
G03X875102Y1151179I363J-156D01*
G02X875197Y1151182I96J-1474D01*
G01X876969D01*
G02X878446Y1149705I0J-1477D01*
G01Y1146358D01*
G02X878399Y1145991I-1477J0D01*
G01X878343Y1145772D01*
X878783Y1145333D01*
X879913Y1146464D01*
X879928Y1146603D01*
G02X881846Y1145191I1371J-146D01*
G01X881709Y1145132D01*
X881358Y1144392D01*
X881398Y1144249D01*
G02X881442Y1143937I-1099J-312D01*
G01Y1143071D01*
G02X880299Y1141928I-1143J0D01*
G01X879339D01*
G02X878447Y1142356I0J1143D01*
G01X877553D01*
G02X876661Y1141928I-892J715D01*
G37*
G36*
G01X873425Y1132874D02*
X868898D01*
Y1133622D01*
X868332Y1134243D01*
X868180Y1134257D01*
G02X868475Y1136998I128J1373D01*
G01X868880Y1137221D01*
G02X869632Y1137698I756J-361D01*
G01X870328D01*
G02X870806Y1137546I-3J-837D01*
G01X870908Y1137474D01*
X871612D01*
X871714Y1137546D01*
G02X872191Y1137698I481J-686D01*
G01X872887D01*
G02X873721Y1136857I-4J-837D01*
G01Y1134403D01*
G02X873520Y1133855I-837J-3D01*
G01X873425Y1133744D01*
Y1132874D01*
G37*
G36*
G01X1014528Y1122244D02*
G02X1009406Y1127166I-4931J-6D01*
G01X1009807D01*
G02X1014528Y1122244I-175J-4893D01*
G37*
G36*
G01X858317Y1115251D02*
X856250D01*
G02X854920Y1116581I1J1331D01*
G01Y1118065D01*
G02X854926Y1118190I1331J0D01*
G01X854944Y1118376D01*
X854652Y1118668D01*
G02X854133Y1119921I1253J1253D01*
G01Y1120079D01*
G02X855055Y1121634I1772J0D01*
G01X855105Y1121661D01*
X858444Y1125001D01*
X863454D01*
X863572Y1125160D01*
G02X864630Y1125690I1057J-790D01*
G01X865694D01*
G02X866133Y1125614I0J-1320D01*
G01X866198Y1125591D01*
X868898D01*
Y1126575D01*
X878740D01*
Y1125788D01*
X885113D01*
G02X886161Y1126203I1046J-1112D01*
G01X888223D01*
G02X888336Y1126199I3J-1526D01*
G01X888507Y1126186D01*
X889184Y1126816D01*
Y1133798D01*
X888924Y1134059D01*
X888111Y1134116D01*
X887993Y1134028D01*
G02X887307Y1133798I-686J913D01*
G01X886346D01*
G02X885455Y1134226I0J1143D01*
G01X884561D01*
G02X883669Y1133798I-892J715D01*
G01X882709D01*
G02X881566Y1134941I0J1143D01*
G01Y1135807D01*
G02X882024Y1136722I1143J0D01*
G01X882182Y1136840D01*
Y1137406D01*
X881993Y1137522D01*
G02X881480Y1138222I596J975D01*
G01X881405Y1138523D01*
X880503D01*
X880385Y1138346D01*
G02X880028Y1138002I-952J631D01*
G01X879839Y1137886D01*
Y1136557D01*
X878839Y1135558D01*
Y1134403D01*
G02X878772Y1134070I-837J-3D01*
G01X878740Y1133996D01*
Y1132874D01*
X876575D01*
Y1133996D01*
X876543Y1134070D01*
G02X876476Y1134403I770J329D01*
G01Y1136857D01*
G02X876969Y1137624I837J3D01*
G01X877109Y1137687D01*
X877442Y1138458D01*
X877392Y1138604D01*
G02X877330Y1138976I1080J373D01*
G01Y1139843D01*
G02X878472Y1140985I1143J0D01*
G01X879433D01*
G02X880385Y1140473I0J-1143D01*
G01X880503Y1140296D01*
X881921D01*
X882013Y1140350D01*
G02X882588Y1140505I575J-988D01*
G01X883549D01*
G02X884441Y1140077I0J-1143D01*
G01X885335D01*
G02X886226Y1140505I892J-715D01*
G01X887187D01*
G02X888330Y1139363I0J-1143D01*
G01Y1138496D01*
G02X888042Y1137739I-1143J0D01*
G01X887936Y1137619D01*
X887974Y1136748D01*
X888091Y1136638D01*
G02X888260Y1136438I-783J-832D01*
G01X888377Y1136261D01*
X889230D01*
X890957Y1134533D01*
Y1125788D01*
X893111D01*
Y1121062D01*
X885586D01*
X881649Y1121653D01*
X873818D01*
Y1121875D01*
X873331D01*
X873250Y1121835D01*
G02X872887Y1121751I-366J753D01*
G01X872191D01*
G02X871651Y1121952I3J837D01*
G01X871540Y1122046D01*
X870980D01*
X870869Y1121952D01*
G02X870328Y1121751I-544J637D01*
G01X869632D01*
G02X869092Y1121952I3J837D01*
G01X868981Y1122046D01*
X866198D01*
X866133Y1122024D01*
G02X865749Y1121949I-440J1244D01*
G01X865595Y1121943D01*
X865108Y1121456D01*
X860572D01*
X859950Y1120670D01*
X859993Y1120484D01*
G02X860040Y1120079I-1726J-405D01*
G01Y1119528D01*
G02X859611Y1118371I-1772J0D01*
G02X859646Y1118065I-1295J-307D01*
G01Y1116581D01*
G02X858317Y1115251I-1331J1D01*
G37*
G36*
G01X836110Y1112204D02*
X835150D01*
G02X834007Y1113346I0J1143D01*
G01Y1114213D01*
G02X834112Y1114691I1143J0D01*
G01X834165Y1114806D01*
X834030Y1115509D01*
X833937Y1115596D01*
G02X833908Y1115626I608J646D01*
G01X833791Y1115747D01*
X831352D01*
X830368Y1116731D01*
X828096D01*
X824851Y1119977D01*
Y1123036D01*
X821385Y1126503D01*
G02X823891Y1129009I1253J1253D01*
G01X828396Y1124505D01*
Y1121446D01*
X829202Y1120639D01*
X829652Y1121089D01*
X829580Y1121317D01*
G02X829527Y1121661I1089J344D01*
G01Y1122622D01*
G02X829819Y1123385I1142J0D01*
G01X829920Y1123498D01*
Y1126080D01*
X833959Y1130119D01*
X835518D01*
X835531Y1130500D01*
G02X836850Y1131772I1319J-48D01*
G01X837953D01*
G02X839272Y1130453I0J-1320D01*
G01Y1129389D01*
G02X838814Y1128389I-1320J0D01*
G01Y1127516D01*
G02X839272Y1126516I-861J-1000D01*
G01Y1125453D01*
G02X837953Y1124133I-1320J0D01*
G01X837222D01*
X837118Y1124029D01*
Y1123547D01*
X837267Y1123428D01*
G02X837599Y1122736I-554J-692D01*
G01Y1122146D01*
G02X837460Y1121669I-887J0D01*
G01Y1121244D01*
G02X837599Y1120768I-748J-477D01*
G01Y1120177D01*
G02X837460Y1119701I-887J0D01*
G01Y1119276D01*
G02X837599Y1118799I-748J-477D01*
G01Y1118208D01*
G02X837398Y1117646I-887J0D01*
G02Y1117393I-1768J-126D01*
G02X837599Y1116831I-686J-562D01*
G01Y1116240D01*
G02X837322Y1115596I-887J0D01*
G01X837230Y1115509D01*
X837094Y1114806D01*
X837148Y1114691D01*
G02X837253Y1114213I-1038J-478D01*
G01Y1113346D01*
G02X836110Y1112204I-1143J0D01*
G37*
G36*
G01X835926Y1096093D02*
Y1095150D01*
G02X834153I-887J-1056D01*
G01Y1096607D01*
X834124Y1096678D01*
G02X834052Y1097047I916J369D01*
G01Y1102165D01*
G02X835603Y1102976I987J0D01*
G01X836055D01*
G02X837179Y1102978I563J-810D01*
G01X837628D01*
G02X838752Y1102976I561J-812D01*
G01X839204D01*
G02X840328Y1102978I563J-810D01*
G01X840778D01*
G02X841902Y1102976I561J-812D01*
G01X842354D01*
G02X843478Y1102978I563J-810D01*
G01X843928D01*
G02X845052Y1102976I561J-812D01*
G01X845504D01*
G02X846628Y1102978I563J-810D01*
G01X847077D01*
G02X848198I561J-812D01*
G01X848648D01*
G02X848804Y1103065I560J-812D01*
G03X848969Y1103649I-163J361D01*
G02X848771Y1104291I945J642D01*
G01Y1105157D01*
G02X849182Y1106035I1142J0D01*
G02X849594Y1107817I1212J658D01*
G01X849757Y1107932D01*
X849774Y1108970D01*
X849615Y1109091D01*
G02X849165Y1110000I692J909D01*
G01Y1110866D01*
G02X849606Y1111768I1142J0D01*
G01Y1112456D01*
G02X848756Y1113520I1182J1815D01*
G01X848660Y1113779D01*
X847633D01*
X846058Y1115354D01*
X845328D01*
Y1114856D01*
X845378Y1114766D01*
G02X845520Y1114213I-1000J-553D01*
G01Y1113346D01*
G02X844378Y1112204I-1143J0D01*
G01X843417D01*
G02X842275Y1113346I0J1143D01*
G01Y1114213D01*
G02X842380Y1114691I1143J0D01*
G01X842433Y1114806D01*
X842298Y1115509D01*
X842205Y1115596D01*
G02X841928Y1116240I610J644D01*
G01Y1116831D01*
G02X842067Y1117307I887J0D01*
G01Y1117732D01*
G02X841928Y1118209I748J477D01*
G01Y1118799D01*
G02X842067Y1119276I887J0D01*
G01Y1119701D01*
G02X841928Y1120177I748J477D01*
G01Y1120768D01*
G02X842815Y1121654I887J0D01*
G01X845877D01*
X846125Y1121902D01*
Y1123641D01*
X845456Y1124310D01*
X844744D01*
G02X843424Y1125630I0J1320D01*
G01Y1126732D01*
G02X844744Y1128052I1320J0D01*
G01X845807D01*
G02X847127Y1126732I0J-1320D01*
G01Y1125981D01*
X848489Y1124620D01*
Y1120924D01*
X846856Y1119291D01*
X845863D01*
Y1118880D01*
X845865Y1118865D01*
G02X845867Y1118799I-884J-65D01*
G01Y1118209D01*
G02X845865Y1118143I-887J-1D01*
G01X845863Y1118128D01*
Y1117717D01*
X847037D01*
X848001Y1116753D01*
X848954Y1116818D01*
X849063Y1116961D01*
G02X852954Y1115650I1724J-1311D01*
G01Y1114568D01*
X854623D01*
X855506Y1113685D01*
X855749Y1113784D01*
G02X856250Y1113883I502J-1232D01*
G01X858317D01*
G02X859646Y1112553I-1J-1331D01*
G01Y1111069D01*
G02X858757Y1109815I-1331J1D01*
G03X858934Y1109048I131J-373D01*
G02X859063Y1109056I131J-1135D01*
G01X860024D01*
G02X860827Y1108726I0J-1143D01*
G02X862796Y1107511I591J-1246D01*
G01X862799Y1107352D01*
X863068Y1107083D01*
X863978Y1107104D01*
X864092Y1107229D01*
G02X866489Y1106330I1018J-930D01*
G01X866492Y1106171D01*
X866831Y1105832D01*
Y1105188D01*
X867009Y1105071D01*
G02X867520Y1104118I-631J-953D01*
G01Y1103157D01*
G02X866941Y1102163I-1142J0D01*
G03Y1101474I195J-344D01*
G02X867041Y1101411I-562J-995D01*
G01X867159Y1101327D01*
X867954Y1101390D01*
X868056Y1101491D01*
G02X868858Y1101820I802J-814D01*
G01X869724D01*
G02X870668Y1101321I0J-1142D01*
G02X870397Y1098793I395J-1321D01*
G02X869724Y1098574I-672J923D01*
G01X868858D01*
G02X868195Y1098786I0J1143D01*
G01X868078Y1098870D01*
X867283Y1098807D01*
X867180Y1098706D01*
G02X866378Y1098377I-802J814D01*
G01X865512D01*
G02X864857Y1098583I0J1143D01*
G01X864741Y1098665D01*
X863955Y1098601D01*
X863853Y1098502D01*
G02X862933Y1098129I-920J946D01*
G01X861870D01*
G02X860550Y1099449I0J1320D01*
G01Y1100551D01*
G02X860943Y1101490I1319J0D01*
G01Y1102053D01*
G02X860550Y1102992I927J939D01*
G01Y1104094D01*
G02X861293Y1105281I1320J0D01*
G01X861515Y1105389D01*
Y1106065D01*
X861186Y1106121D01*
G02X860827Y1106235I232J1359D01*
G02X860024Y1105905I-803J813D01*
G01X859063D01*
G02X858171Y1106333I0J1143D01*
G01X857278D01*
G02X856386Y1105905I-892J715D01*
G01X855724D01*
X855519Y1105700D01*
Y1105463D01*
X855530Y1105419D01*
G02X855560Y1105157I-1112J-261D01*
G01Y1104291D01*
G02X855122Y1103392I-1143J0D01*
G01X855021Y1103313D01*
X854822Y1102621D01*
X854865Y1102500D01*
G02X854924Y1102165I-928J-335D01*
G01Y1097047D01*
G02X853374Y1096237I-987J0D01*
G01X852922D01*
G02X851798Y1096235I-563J810D01*
G01X851348D01*
G02X850914Y1096069I-561J812D01*
G01X850574Y1095620D01*
G02X847844Y1095621I-1365J-195D01*
G01X847506Y1096069D01*
G02X847077Y1096235I132J978D01*
G01X846628D01*
G02X845504Y1096237I-561J812D01*
G01X845052D01*
G02X843928Y1096235I-563J810D01*
G01X843478D01*
G02X842354Y1096237I-561J812D01*
G01X841902D01*
G02X840778Y1096235I-563J810D01*
G01X840328D01*
G02X839204Y1096237I-561J812D01*
G01X838752D01*
G02X837628Y1096235I-563J810D01*
G01X837179D01*
G02X836406Y1096083I-561J812D01*
G01X836365Y1096093D01*
X835926D01*
G37*
G36*
G01X865547Y1069088D02*
X860429D01*
G02X859620Y1070640I0J987D01*
G01Y1071093D01*
G02X859617Y1072218I809J565D01*
G01Y1072668D01*
G02X859619Y1073792I812J561D01*
G01Y1074244D01*
G02X859617Y1075368I810J563D01*
G01Y1075817D01*
G02X859619Y1076941I812J561D01*
G01Y1077393D01*
G02X860429Y1078944I810J563D01*
G01X865547D01*
G02X866357Y1077393I0J-987D01*
G01Y1076941D01*
G02X866532Y1076437I-810J-563D01*
G01X866542Y1076281D01*
X867165Y1075694D01*
X867686D01*
X868529Y1074851D01*
X869451D01*
X869480Y1075215D01*
G02X869877Y1076079I1374J-109D01*
G01X870014Y1076217D01*
X869883Y1077222D01*
X869715Y1077320D01*
G02X869339Y1077676I576J987D01*
G01X869221Y1077854D01*
X868578D01*
X867027Y1079404D01*
Y1079679D01*
X866125Y1080278D01*
X865929Y1080196D01*
G02X865548Y1080119I-382J910D01*
G01X860429D01*
G02X859617Y1081667I0J987D01*
G01Y1082117D01*
G02X860429Y1083664I812J561D01*
G01X865547D01*
G02X866321Y1083290I0J-987D01*
G01X866440Y1083140D01*
X867027D01*
Y1084137D01*
X866223Y1084940D01*
X865981D01*
G02X865548Y1084840I-434J887D01*
G01X860429D01*
G02X859619Y1086390I0J987D01*
G01Y1086842D01*
G02X859617Y1087966I810J563D01*
G01Y1088416D01*
G02Y1089537I812J561D01*
G01Y1089987D01*
G02X859619Y1091111I812J561D01*
G01Y1091563D01*
G02X860429Y1093113I810J563D01*
G01X865563D01*
X865730Y1093110D01*
X868361Y1095741D01*
Y1096496D01*
G02X869504Y1097639I1143J0D01*
G01X870465D01*
G02X871356Y1097211I0J-1143D01*
G01X872250D01*
G02X873142Y1097639I892J-715D01*
G01X874102D01*
G02X875245Y1096496I0J-1143D01*
G01Y1095704D01*
X875589Y1095658D01*
G02Y1092924I-180J-1367D01*
G01X875245Y1092879D01*
Y1092087D01*
G02X874102Y1090944I-1143J0D01*
G01X873142D01*
G02X872250Y1091372I0J1143D01*
G01X871356D01*
G02X871170Y1091188I-891J715D01*
G03X871296Y1090499I244J-311D01*
G02X872095Y1089409I-343J-1090D01*
G01Y1088543D01*
G02X870953Y1087401I-1143J0D01*
G01X869867D01*
X869664Y1086913D01*
X871556Y1085021D01*
Y1084398D01*
X871745Y1084282D01*
G02X872041Y1084022I-595J-975D01*
G01X872935D01*
G02X873231Y1084282I891J-715D01*
G01X873420Y1084398D01*
Y1085396D01*
G02X875233Y1085361I926J1022D01*
G01Y1084381D01*
X875412Y1084263D01*
G02X875930Y1083307I-624J-956D01*
G01Y1082441D01*
G02X874787Y1081298I-1143J0D01*
G01X873827D01*
G02X872935Y1081726I0J1143D01*
G01X872041D01*
G02X871150Y1081298I-892J715D01*
G01X870189D01*
G02X869836Y1081354I0J1143D01*
G01X869644Y1081417D01*
X868800Y1080804D01*
Y1080139D01*
X869217Y1079722D01*
X869496Y1079994D01*
G02X870291Y1080316I795J-821D01*
G01X871252D01*
G02X872394Y1079173I0J-1143D01*
G01Y1078307D01*
G02X871887Y1077357I-1143J0D01*
G01X871728Y1077251D01*
X871649Y1076249D01*
X871790Y1076119D01*
G02X872229Y1075215I-936J-1012D01*
G01X872258Y1074851D01*
X873268D01*
G02X874410Y1073709I0J-1143D01*
G01Y1072748D01*
G02X873268Y1071606I-1143J0D01*
G01X872402D01*
G02X871500Y1072046I0J1142D01*
G01X870232D01*
G02X869331Y1071606I-902J701D01*
G01X868465D01*
G02X867490Y1072152I0J1142D01*
G01X867374Y1072342D01*
X866504D01*
Y1071904D01*
X866513Y1071863D01*
G02X866357Y1071093I-965J-206D01*
G01Y1070640D01*
G02X865547Y1069088I-809J-565D01*
G37*
G36*
G01X839264Y1047126D02*
G02X837508I-878J-1063D01*
G03Y1048346I-504J610D01*
G02X839264I878J1063D01*
G03Y1047126I504J-610D01*
G37*
G36*
G01X832776Y1035983D02*
Y1035851D01*
G02X830525Y1034991I-887J-1056D01*
G01X830187Y1035439D01*
G02X829754Y1035608I132J978D01*
G01X829301D01*
G02X828177Y1035604I-565J809D01*
G01X827729D01*
G02X826604Y1035608I-559J813D01*
G01X826152D01*
G02X825026Y1035605I-565J809D01*
G01X824576D01*
G02X823029Y1036417I-561J812D01*
G01Y1041535D01*
G02X824576Y1042348I987J0D01*
G01X825026D01*
G02X826152Y1042345I561J-812D01*
G01X826604D01*
G02X827729Y1042349I565J-809D01*
G01X828177D01*
G02X829301Y1042345I559J-813D01*
G01X829754D01*
G02X830880Y1042348I565J-809D01*
G01X831329D01*
G02X832877Y1041535I561J-812D01*
G01Y1036417D01*
G02X832776Y1035983I-987J0D01*
G37*
G36*
G01X845394Y1031300D02*
X843425D01*
G02Y1034054I0J1377D01*
G01X845394D01*
G02Y1031300I0J-1377D01*
G37*
G36*
G01X968291Y1026999D02*
X966819D01*
G02X965487Y1028331I-2J1330D01*
G01Y1038858D01*
G02X965715Y1039604I1329J2D01*
G01X965783Y1039704D01*
Y1040713D01*
G02X969328I1772J0D01*
G01Y1039704D01*
X969395Y1039604D01*
G02X969623Y1038858I-1102J-744D01*
G01Y1028331D01*
G02X968291Y1026999I-1330J-2D01*
G37*
G36*
G01X845394Y1026182D02*
X843425D01*
G02Y1028936I0J1377D01*
G01X845394D01*
G02Y1026182I0J-1377D01*
G37*
G36*
G01X968291Y1011797D02*
X966820D01*
G02X965443Y1013174I-3J1374D01*
G01Y1023700D01*
G02X966820Y1025077I1374J3D01*
G01X968291D01*
G02X968904Y1024934I2J-1374D01*
G02X970499Y1022900I1175J-721D01*
G01X970408Y1022870D01*
X969668Y1022130D01*
Y1021823D01*
X969780Y1021552D01*
X971736D01*
G02X972638Y1021993I902J-701D01*
G01X973504D01*
G02X974646Y1020850I0J-1143D01*
G01Y1019890D01*
G02X973504Y1018747I-1143J0D01*
G01X972638D01*
G02X971736Y1019188I0J1142D01*
G01X969668D01*
Y1013174D01*
G02X968291Y1011797I-1374J-3D01*
G37*
G36*
G01X958055Y1007480D02*
X957094D01*
G02X955952Y1008622I0J1143D01*
G01Y1009489D01*
G02X956257Y1010266I1143J0D01*
G01X956321Y1010711D01*
G02X956217Y1011659I1234J615D01*
G01X956059Y1012079D01*
G02X955487Y1013174I758J1092D01*
G01Y1023700D01*
G02X955543Y1024081I1329J2D01*
G01X955599Y1024271D01*
X954982Y1025098D01*
X954304D01*
Y1024576D01*
X954377Y1024473D01*
G02X954623Y1023700I-1084J-770D01*
G01Y1013174D01*
G02X953782Y1011935I-1330J-2D01*
G01X953706Y1011905D01*
X953146Y1011345D01*
X953150Y1011176D01*
G02X950682Y1011991I-1378J-31D01*
G01X950701Y1012448D01*
G02X950487Y1013174I1116J723D01*
G01Y1023700D01*
G02X950543Y1024081I1329J2D01*
G01X950599Y1024271D01*
X949982Y1025098D01*
X949304D01*
Y1024576D01*
X949377Y1024473D01*
G02X949623Y1023700I-1084J-770D01*
G01Y1013174D01*
G02X948291Y1011842I-1330J-2D01*
G01X946819D01*
G02X945487Y1013174I-2J1330D01*
G01Y1016428D01*
X944889Y1017053D01*
X944731Y1017059D01*
G02Y1019815I61J1378D01*
G01X944889Y1019821D01*
X945487Y1020446D01*
Y1020863D01*
X944769Y1021492D01*
X944592Y1021468D01*
G02X943066Y1022527I-182J1367D01*
G01X942995Y1022834D01*
X939960D01*
Y1026771D01*
X938387D01*
Y1022834D01*
X937107D01*
Y1021528D01*
G02X935334I-887J-1056D01*
G01Y1022438D01*
X934939Y1022834D01*
G02X934237Y1023182I2J887D01*
G01X933697Y1023267D01*
G02X931536Y1024341I-784J1134D01*
G01X931529Y1024500D01*
X930904Y1025098D01*
X926253D01*
X924932Y1023776D01*
X925134Y1023288D01*
X929501D01*
X933418Y1019371D01*
Y1016188D01*
X933694Y1016100D01*
G02X931369I-1163J-3659D01*
G01X931645Y1016188D01*
Y1018637D01*
X929765Y1020517D01*
X929276Y1020315D01*
Y1019646D01*
G02X928134Y1018503I-1143J0D01*
G01X927173D01*
G02X926031Y1019646I0J1143D01*
G01Y1020512D01*
G02X926037Y1020637I1143J2D01*
G01X926057Y1020813D01*
X925428Y1021515D01*
X920308D01*
G02X920205Y1023398I-1056J887D01*
G01X920320Y1023288D01*
X920698D01*
X921323Y1024052D01*
X921286Y1024236D01*
G02X923591Y1025504I1352J272D01*
G01X923706Y1025394D01*
X924042D01*
X925519Y1026871D01*
X934115D01*
Y1027328D01*
X934096Y1027387D01*
G02X934054Y1027657I845J270D01*
G01Y1028248D01*
G02X934941Y1029135I887J0D01*
G01X937991D01*
Y1030217D01*
G02X938019Y1030435I887J0D01*
G01X938031Y1030482D01*
Y1031567D01*
X937987Y1031652D01*
G02X940438I1226J631D01*
G01X940394Y1031567D01*
Y1029135D01*
X943406D01*
G02X943833Y1029024I0J-887D01*
G02X946067Y1027768I867J-1072D01*
G01X946043Y1027590D01*
X946672Y1026871D01*
X950006D01*
X950619Y1027719D01*
X950555Y1027911D01*
G02X950487Y1028331I1262J418D01*
G01Y1038858D01*
G02X951819Y1040190I1330J2D01*
G01X953291D01*
G02X954623Y1038858I2J-1330D01*
G01Y1028331D01*
G02X954556Y1027911I-1330J-2D01*
G01X954492Y1027719D01*
X955104Y1026871D01*
X959903D01*
X961741Y1025032D01*
X963291D01*
G02X964623Y1023700I2J-1330D01*
G01Y1013174D01*
G02X963713Y1011909I-1330J-2D01*
G01X963442Y1011820D01*
Y1010898D01*
G02X961669I-887J-1056D01*
G01Y1011820D01*
X961398Y1011909D01*
G02X960487Y1013174I419J1262D01*
G01Y1023778D01*
X960111Y1024155D01*
X959623Y1023952D01*
Y1013174D01*
G02X959052Y1012079I-1330J-2D01*
G01X958893Y1011659D01*
G02X958799Y1010733I-1338J-332D01*
G01X958873Y1010286D01*
G02X959198Y1009488I-818J-798D01*
G01Y1008622D01*
G02X958055Y1007480I-1143J0D01*
G37*
G36*
G01X984135Y978281D02*
X984017Y978112D01*
G02X982763Y977460I-1251J874D01*
G01X980701D01*
G02X979172Y978984I-2J1526D01*
G01Y980859D01*
G02X980501Y982370I1526J-2D01*
G01X980846Y982415D01*
Y989778D01*
X974661Y995963D01*
X974499Y995964D01*
G02X974211Y995996I9J1379D01*
G01X974026Y996037D01*
X973249Y995413D01*
Y993162D01*
G02X971917Y991830I-1330J-2D01*
G01X970445D01*
G02X969113Y993162I-2J1330D01*
G01Y1003689D01*
G02X970445Y1005020I1330J2D01*
G01X971917D01*
G02X973249Y1003689I2J-1330D01*
G01Y999312D01*
X973820D01*
X974406Y998726D01*
X974561Y998720D01*
G02X975885Y997395I-53J-1378D01*
G01X975892Y997240D01*
X982619Y990513D01*
Y982415D01*
X982963Y982370D01*
G02X984017Y981731I-197J-1514D01*
G01X984135Y981562D01*
X985196D01*
X985314Y981731D01*
G02X986567Y982383I1251J-874D01*
G01X988630D01*
G02X990158Y980859I2J-1526D01*
G01Y978984D01*
G02X988630Y977460I-1526J2D01*
G01X986567D01*
G02X985314Y978112I-2J1526D01*
G01X985196Y978281D01*
X984135D01*
G37*
G36*
G01X952954Y977167D02*
Y975591D01*
G02X949409I-1772J0D01*
G01Y977167D01*
G02X949113Y978004I1034J835D01*
G01Y988531D01*
G02X949277Y989173I1330J3D01*
G01X948659Y990058D01*
X942520D01*
Y989566D01*
X938583D01*
Y987993D01*
X942520D01*
Y984547D01*
G02X942316Y983981I-886J0D01*
G01X942225Y983871D01*
Y982196D01*
X942246Y982133D01*
G02X939779Y982431I-1305J-444D01*
G01X939165Y982923D01*
X938539Y982297D01*
X938536Y982139D01*
G02X936196Y983157I-1378J31D01*
G01X936292Y983251D01*
X936400Y983995D01*
X936333Y984113D01*
G02X936220Y984547I773J435D01*
G01Y987204D01*
X935731Y987406D01*
X934620Y986295D01*
G02X932042Y986654I-1352J-271D01*
G01X932042Y986655D01*
X932086Y986740D01*
Y987104D01*
X932141Y987159D01*
X931937Y988216D01*
X931743Y988298D01*
G02X932253Y990945I540J1268D01*
G01X932411Y990949D01*
X934081Y992619D01*
X935824D01*
X936220Y993014D01*
G02X936424Y993578I887J-2D01*
G01X936515Y993688D01*
Y995840D01*
X939987Y999312D01*
X946580D01*
X946680Y999378D01*
G02X948202I761J-1149D01*
G01X948302Y999312D01*
X949113D01*
Y1003689D01*
G02X949131Y1003904I1329J1D01*
G01X949160Y1004084D01*
X948532Y1004822D01*
X944757D01*
G02Y1006595I-1056J887D01*
G01X956064D01*
X957068Y1005592D01*
Y1005043D01*
X957339Y1004953D01*
G02X958249Y1003689I-419J-1262D01*
G01Y993161D01*
G02X958204Y992819I-1329J-1D01*
G01X958604Y992322D01*
G02X958750Y992321I59J-1378D01*
G03X959158Y992818I26J395D01*
G02X959113Y993161I1285J343D01*
G01Y1003689D01*
G02X960445Y1005020I1330J2D01*
G01X961917D01*
G02X963249Y1003689I2J-1330D01*
G01Y992910D01*
X963706Y992720D01*
G02X963747Y992717I-87J-1382D01*
G01X964113Y993084D01*
Y1003689D01*
G02X965445Y1005020I1330J2D01*
G01X966917D01*
G02X968249Y1003689I2J-1330D01*
G01Y993161D01*
G02X966917Y991830I-1330J-2D01*
G01X965367D01*
X965009Y991471D01*
X965006Y991334D01*
G02X964678Y990444I-1384J4D01*
G03X965092Y989816I310J-246D01*
G02X965445Y989863I350J-1283D01*
G01X966917D01*
G02X968249Y988531I2J-1330D01*
G01Y978004D01*
G02X966917Y976672I-1330J-2D01*
G01X965445D01*
G02X964113Y978004I-2J1330D01*
G01Y988531D01*
G02X964243Y989105I1330J2D01*
G01X963687Y989943D01*
X963529Y989957D01*
G02X962346Y990802I93J1381D01*
G01X962274Y990965D01*
X961230Y991157D01*
X960131Y990058D01*
X959717D01*
G02X957606I-1056J887D01*
G01X953703D01*
X953085Y989173D01*
G02X953249Y988531I-1166J-639D01*
G01Y978004D01*
G02X952954Y977167I-1330J-2D01*
G37*
G36*
G01X921132Y973823D02*
X921291Y973819D01*
G02X919881Y972410I-31J-1378D01*
G01X919878Y972569D01*
X916633Y975814D01*
Y979357D01*
X911645Y984345D01*
Y998694D01*
X911369Y998782D01*
G02X913694I1163J3659D01*
G01X913418Y998694D01*
Y985080D01*
X918406Y980092D01*
Y976548D01*
X921132Y973823D01*
G37*
G36*
G01X927212Y969783D02*
X925150D01*
G02X923621Y971307I-2J1526D01*
G01Y973181D01*
G02X924601Y974604I1526J-2D01*
G01X924843Y975069D01*
G02X924803Y975371I1338J332D01*
G01X924799Y975530D01*
X921645Y978684D01*
Y998694D01*
X921369Y998782D01*
G02X924947Y1005425I1163J3659D01*
G01X924984Y1005395D01*
X925386Y1005206D01*
X925744Y1005969D01*
G02X926098Y1006193I356J-169D01*
G01X928965D01*
G02X929319Y1005969I-1J-394D01*
G01X929677Y1005206D01*
X930079Y1005395D01*
X930116Y1005425D01*
G02X930517Y999172I2416J-2984D01*
G01X926083Y994739D01*
Y980190D01*
G02X925739Y977866I-887J-1056D01*
G01X925668Y977836D01*
X925334Y977502D01*
X926053Y976783D01*
X926212Y976780D01*
G02X927519Y975069I-31J-1378D01*
G01X927761Y974604D01*
G02X928519Y973972I-547J-1425D01*
G01X929552D01*
G02X930340Y974616I1304J-793D01*
G01X930599Y975035D01*
G02X933331Y974987I1369J162D01*
G01X933558Y974567D01*
G02X934227Y973972I-635J-1388D01*
G01X935261D01*
G02X936008Y974600I1304J-793D01*
G01X936259Y974976D01*
G02X939016Y974950I1378J25D01*
G01X939251Y974574D01*
G02X939936Y973972I-619J-1395D01*
G01X940970D01*
G02X942276Y974706I1304J-793D01*
G01X943832D01*
X944452Y975265D01*
X944467Y975416D01*
G02X946506Y974069I1372J-141D01*
G01X946458Y974043D01*
X945855Y973440D01*
X945865Y973263D01*
G02X945867Y973181I-1524J-85D01*
G01Y971307D01*
G02X944338Y969783I-1526J2D01*
G01X942276D01*
G02X940970Y970516I-2J1526D01*
G01X939936D01*
G02X938630Y969783I-1304J793D01*
G01X936567D01*
G02X935261Y970516I-2J1526D01*
G01X934227D01*
G02X932921Y969783I-1304J793D01*
G01X930859D01*
G02X929552Y970516I-2J1526D01*
G01X928519D01*
G02X927212Y969783I-1304J793D01*
G37*
G36*
G01X951819Y857972D02*
X949756D01*
G02X948228Y859496I-2J1526D01*
G01Y861370D01*
G02X949756Y862894I1526J-2D01*
G01X951819D01*
G02X952943Y862402I2J-1526D01*
G01X954571D01*
G02X955472Y862843I902J-701D01*
G01X956339D01*
G02X957240Y862402I0J-1142D01*
G01X958474D01*
X958867Y862009D01*
X959323D01*
X959431Y862093D01*
G02X960039Y862304I609J-774D01*
G01X960433D01*
G02X960572Y862294I0J-985D01*
G01X960599Y862290D01*
X961023D01*
Y863700D01*
X960472D01*
G02X959533Y864093I0J1319D01*
G01X958970D01*
G02X958031Y863700I-939J927D01*
G01X956929D01*
G02X955883Y864215I0J1320D01*
G01X955765Y864369D01*
X954038D01*
X953608Y864800D01*
X953517Y864829D01*
G02X955083Y866909I420J1313D01*
G01X955200Y866733D01*
X955765D01*
X955883Y866887D01*
G02X956929Y867402I1046J-805D01*
G01X958031D01*
G02X958970Y867010I0J-1319D01*
G01X959533D01*
G02X960472Y867402I939J-927D01*
G01X961575D01*
G02X961984Y867337I0J-1320D01*
G01X962124Y867292D01*
X962872Y867606D01*
X962938Y867738D01*
G02X965060Y866070I1235J-612D01*
G01Y865154D01*
X965976Y864559D01*
X966172Y864646D01*
G02X967418Y862190I560J-1260D01*
G01X967249Y861695D01*
G02X967324Y861319I-910J-377D01*
G01Y860335D01*
G02X966339Y859350I-985J0D01*
G01X965945D01*
G02X965383Y859526I0J985D01*
G01X964932D01*
G02X964370Y859350I-562J809D01*
G01X963976D01*
G02X963415Y859526I0J985D01*
G01X962963D01*
G02X962402Y859350I-562J809D01*
G01X962008D01*
G02X961446Y859526I0J985D01*
G01X960995D01*
G02X960433Y859350I-562J809D01*
G01X960039D01*
G02X959431Y859560I0J985D01*
G01X959323Y859645D01*
X957889D01*
X957652Y859881D01*
X957107Y859894D01*
G02X956339Y859598I-768J846D01*
G01X955472D01*
G02X954571Y860039I0J1142D01*
G01X953347D01*
Y859496D01*
G02X951819Y857972I-1526J2D01*
G37*
G36*
G01X961181Y845196D02*
X960079D01*
G02X958932Y845863I0J1319D01*
G01X958818Y846062D01*
X957613D01*
X957494Y845903D01*
G02X956437Y845373I-1057J790D01*
G01X955374D01*
G02X954317Y845903I0J1320D01*
G01X954198Y846062D01*
X951479D01*
X950458Y847083D01*
X950367Y847112D01*
G02X949562Y849056I421J1313D01*
G01X949606Y849142D01*
Y851651D01*
X949322Y851735D01*
G02X948228Y853196I432J1464D01*
G01Y855071D01*
G02X949756Y856595I1526J-2D01*
G01X951819D01*
G02X953347Y855071I2J-1526D01*
G01Y853196D01*
G02X953333Y852989I-1526J3D01*
G01X953312Y852841D01*
X953764Y852157D01*
X953907Y852117D01*
G02X954224Y851986I-365J-1329D01*
G02X955374Y852658I1150J-648D01*
G01X956437D01*
G02X957278Y852356I0J-1320D01*
G01X957388Y852265D01*
X959113D01*
X959231Y852434D01*
G02X960039Y852855I808J-564D01*
G01X960434D01*
G02X960782Y852791I-1J-985D01*
G01X960850Y852765D01*
X961318D01*
Y853426D01*
X962912Y855020D01*
X969220D01*
G02Y853247I1056J-887D01*
G01X965843D01*
X965233Y852388D01*
X965300Y852195D01*
G02X965355Y851870I-929J-325D01*
G01Y850886D01*
G02X965144Y850277I-985J0D01*
G01X965060Y850169D01*
Y848880D01*
X965287Y848772D01*
G02X966044Y847579I-563J-1194D01*
G01Y846516D01*
G02X964724Y845196I-1320J0D01*
G01X963622D01*
G02X962683Y845589I0J1319D01*
G01X962120D01*
G02X961181Y845196I-939J927D01*
G37*
G54D86*
X857087Y1099606D03*
G54D83*
X886614Y975591D03*
X891496Y967028D03*
X882531Y979579D03*
X803110Y1118110D03*
X801890Y1102165D03*
G54D85*
X863272Y1152756D03*
G54D84*
X822531Y952441D03*
X848969Y875248D03*
X858969D03*
X812531Y912441D03*
X822531Y872441D03*
X812598Y832362D03*
Y842362D03*
Y852362D03*
X983858Y1022441D03*
Y1012441D03*
X842531D03*
X832531D03*
X983858Y1002441D03*
X892531D03*
X872531D03*
X852531D03*
X842531D03*
X832531D03*
X992610Y962441D03*
Y952441D03*
Y942441D03*
Y932441D03*
Y912441D03*
Y902441D03*
Y892441D03*
Y872441D03*
X992520Y852362D03*
Y842362D03*
Y832362D03*
%LPD*%
G75*
G36*
G01X803197Y1157823D02*
Y1157827D01*
G03X801598Y1159169I-5952J-5464D01*
G01X801594D01*
G02X801429Y1159610I213J331D01*
G01X801642Y1160343D01*
G02X802020Y1160626I378J-111D01*
G01X804220D01*
G02X804551Y1160445I-1J-394D01*
G01X804913Y1159886D01*
G02X804941Y1159508I-332J-214D01*
G03X804559Y1158236I4496J-2043D01*
G02X804283Y1157921I-388J62D01*
G01X803602Y1157713D01*
G02X803197Y1157823I-115J377D01*
G37*
G36*
G01X833172Y1121743D02*
X832678Y1122237D01*
Y1122622D01*
G03X832385Y1123385I-1142J0D01*
G01X832284Y1123498D01*
Y1125101D01*
X834938Y1127755D01*
X835752D01*
Y1127256D01*
X835701Y1127165D01*
G03X835531Y1126516I1149J-649D01*
G01Y1125785D01*
X834448Y1124702D01*
Y1123656D01*
X834205Y1123554D01*
G03X833661Y1122736I342J-818D01*
G01Y1121945D01*
X833172Y1121743D01*
G37*
G36*
G01X851833Y1105778D02*
G03X851606Y1106035I-959J-621D01*
G03X850502Y1108067I-1212J658D01*
G01X850138Y1108096D01*
Y1108857D01*
X851268D01*
G03X852410Y1110000I0J1143D01*
G01Y1110866D01*
G03X852364Y1111189I-1143J0D01*
G01X852307Y1111379D01*
X852924Y1112204D01*
X853644D01*
X854923Y1110925D01*
X854946Y1110808D01*
G03X855788Y1109822I1305J262D01*
G01X856046Y1109727D01*
Y1109056D01*
X855425D01*
G03X854283Y1107913I0J-1143D01*
G01Y1107250D01*
X853331Y1106299D01*
X853217Y1106274D01*
G03X852498Y1105778I240J-1117D01*
G02X851833I-332J215D01*
G37*
G36*
G01X873031Y1124604D02*
Y1123033D01*
G02X872636Y1122638I-396J0D01*
G01X869293D01*
G02X868898Y1123033I0J396D01*
G01Y1124604D01*
G02X869293Y1125000I396J0D01*
G01X872636D01*
G02X873031Y1124604I0J-396D01*
G37*
G36*
G01X892520Y1124801D02*
Y1122049D01*
G02X892124Y1121654I-396J0D01*
G01X885659D01*
G02X885601Y1121658I0J396D01*
G01X881722Y1122240D01*
G03X881663Y1122244I-58J-391D01*
G01X874805D01*
G02X874409Y1122640I0J396D01*
G01Y1124801D01*
G02X874805Y1125197I396J0D01*
G01X892124D01*
G02X892520Y1124801I0J-396D01*
G37*
G36*
G01X945595Y991831D02*
X944990Y992714D01*
X945065Y992908D01*
G03X944714Y994419I-1286J497D01*
G03X943731Y994863I-1014J-935D01*
G01X943573Y994866D01*
X943025Y995414D01*
X939288D01*
X939085Y995902D01*
X940722Y997539D01*
X946231D01*
X946350Y997385D01*
G03X948001Y996969I1091J843D01*
G01X948197Y997056D01*
X949113Y996460D01*
Y993162D01*
G03X949157Y992823I1329J-2D01*
G01X949206Y992635D01*
X948585Y991831D01*
X945595D01*
G37*
G36*
G01X939236Y1020972D02*
G02X939130Y1020988I4J393D01*
G02X938961Y1021087I107J379D01*
G01X937894Y1022154D01*
G02X937807Y1022583I278J279D01*
G02X938173Y1022827I364J-150D01*
G01X938394Y1023047D01*
Y1026370D01*
G02X938787Y1026764I394J0D01*
G01X939559D01*
G02X939953Y1026370I0J-394D01*
G01Y1023220D01*
G03X940346Y1022827I394J0D01*
G01X942677D01*
G02X943059Y1022524I-1J-394D01*
G01Y1022520D01*
G03X943205Y1022154I1347J324D01*
G02X943201Y1021760I-344J-193D01*
G01X942854Y1021169D01*
G02X942516Y1020972I-341J196D01*
G01X939236D01*
G37*
G54D10*
X795866Y720472D03*
X1009646D03*
X1009606Y1122244D03*
G54D11*
X797244Y702756D03*
Y1152362D03*
X1007087Y702756D03*
Y1152362D03*
G54D20*
X802358Y1044886D03*
Y1046457D03*
Y1048035D03*
Y1049606D03*
Y1051177D03*
Y1052756D03*
Y1054327D03*
Y1055906D03*
Y1057476D03*
Y1059055D03*
Y1060626D03*
Y1062205D03*
Y1063776D03*
Y1065354D03*
Y1066925D03*
Y1068508D03*
Y1070075D03*
Y1071657D03*
Y1073228D03*
Y1074807D03*
Y1076378D03*
Y1077957D03*
Y1079528D03*
Y1081106D03*
Y1082677D03*
Y1084256D03*
Y1085827D03*
Y1087406D03*
Y1088976D03*
Y1090547D03*
Y1092126D03*
Y1093697D03*
X862988Y1074807D03*
Y1073228D03*
Y1071657D03*
Y1070075D03*
Y1068508D03*
Y1066925D03*
Y1065354D03*
Y1063776D03*
Y1062205D03*
Y1060626D03*
Y1059055D03*
Y1057476D03*
Y1055906D03*
Y1054327D03*
Y1052756D03*
Y1051177D03*
Y1049606D03*
Y1048035D03*
Y1046457D03*
Y1044886D03*
Y1093697D03*
Y1092126D03*
Y1090547D03*
Y1088976D03*
Y1087406D03*
Y1085827D03*
Y1084256D03*
Y1082677D03*
Y1081106D03*
Y1079528D03*
Y1077957D03*
Y1076378D03*
G54D21*
X792323Y1039370D03*
X796063D03*
X802677Y1111118D03*
X848917Y858953D03*
X808858Y1029331D03*
X814370Y1033071D03*
X818110D03*
X831102Y1122142D03*
X806102Y1111024D03*
X828346Y1111512D03*
X902165Y821457D03*
X893504Y856299D03*
X902165Y814961D03*
X858957Y858756D03*
X885039Y885433D03*
X899213Y875197D03*
X895472D03*
X893504Y865551D03*
X891732Y875197D03*
X879528Y914858D03*
X875000Y915055D03*
X895571Y921551D03*
X871260Y1055512D03*
X872835Y1073228D03*
X870669Y1027559D03*
X901969Y1035724D03*
Y1027559D03*
X868898Y1073228D03*
X886417Y1034937D03*
X870472Y1035528D03*
X886417Y1026969D03*
X869291Y1103835D03*
X865945Y1103638D03*
X861417Y1123228D03*
X955906Y861220D03*
X921063Y872441D03*
X920866Y864268D03*
X921063Y913874D03*
X973071Y1020370D03*
G54D30*
X835748Y1027559D03*
Y1030118D03*
Y1032677D03*
X844409D03*
Y1027559D03*
G54D12*
G01X827165Y1136417D02*
Y1138189D01*
G01D02*
Y1141732D01*
X793701Y799409D03*
X800000Y806693D03*
X800197Y818307D03*
X794685Y840748D03*
X801378Y832087D03*
X790354Y848622D03*
X790157Y832480D03*
Y818110D03*
X790354Y806890D03*
X797244Y853543D03*
X797638Y909449D03*
X797244Y888583D03*
X797638Y900197D03*
X790748Y893898D03*
X790945Y866535D03*
X797165Y871654D03*
X791024Y879921D03*
X795854Y865539D03*
X797244Y950000D03*
X791024Y934449D03*
X798031Y920669D03*
X797638Y932283D03*
X798031Y962598D03*
X790709Y956496D03*
X790866Y943110D03*
X790551Y918504D03*
X799409Y969291D03*
X803346Y1001969D03*
X791142Y967717D03*
X801772Y974409D03*
X798622Y996063D03*
X800197Y987598D03*
X799016Y979331D03*
X790748Y1058858D03*
X790945Y1062795D03*
X791181Y1066874D03*
X797323Y1052768D03*
X791142Y1053150D03*
X800197Y1035039D03*
X790551Y1074606D03*
X792323Y1028937D03*
X801378Y1028543D03*
X800394Y1041929D03*
X794882Y1071457D03*
X792815Y1120787D03*
X798622Y1113583D03*
X797441Y1102165D03*
X803543Y1130118D03*
X798042Y1122371D03*
X790421Y1087402D03*
X795669Y1076378D03*
X793110Y1118110D03*
X790945Y1082087D03*
X797047Y1081890D03*
X793055Y1124350D03*
X792618Y1128543D03*
X797795D03*
X796260Y1093701D03*
X801890Y1102165D03*
X803110Y1118110D03*
X793947Y1090497D03*
X793701Y1094488D03*
X795341Y1108224D03*
X796378Y1085130D03*
X797244Y1140748D03*
X798031Y1137205D03*
X828346Y748425D03*
X828150Y738386D03*
X836417Y743701D03*
X846457Y738583D03*
X847244Y719094D03*
X828543Y716339D03*
X833858Y711024D03*
X828543Y700000D03*
X838386Y704921D03*
X847047Y699606D03*
X835591Y724213D03*
X818898Y799016D03*
X840748D03*
X855315Y758071D03*
X833661Y757283D03*
X840551Y763583D03*
X828740D03*
X851772Y807677D03*
X828150Y854921D03*
X842323Y854724D03*
X820079Y843898D03*
X819685Y852362D03*
X837598Y848425D03*
X807874Y804134D03*
X821654Y824409D03*
X841535Y836417D03*
X840354Y823622D03*
X830906Y805709D03*
X821457Y810630D03*
X805709Y846654D03*
X811024Y820866D03*
X840945Y810236D03*
X823228Y834055D03*
X829134Y847441D03*
X849803Y818701D03*
X807283Y812795D03*
X844094Y846063D03*
X853346Y843504D03*
Y833465D03*
X833465Y832087D03*
X827559Y817126D03*
X835630Y910433D03*
X850197Y910236D03*
X806496Y894685D03*
X808268Y885630D03*
X837992Y868701D03*
X853937Y861614D03*
X840748Y880118D03*
X851181Y893110D03*
X817717Y868110D03*
X817913Y887992D03*
X809646Y859055D03*
X836811Y859843D03*
X830079Y905315D03*
X817520Y897638D03*
X829331D03*
X845472Y884449D03*
X852193Y896949D03*
X851772Y885236D03*
X841339Y894685D03*
X828543Y876378D03*
X814370Y863780D03*
X805906Y880512D03*
X847244Y905709D03*
X841929Y911220D03*
X824606Y863583D03*
X835433Y874606D03*
X837205Y888976D03*
X839567Y897441D03*
X828150Y887795D03*
X854724Y881791D03*
X854921Y887992D03*
X851181Y889173D03*
X845276Y891339D03*
X806496Y903937D03*
X836417Y932087D03*
X843504Y924803D03*
X850591Y918110D03*
X843307Y917126D03*
X851378Y947638D03*
X817717Y944291D03*
X842717Y957480D03*
X855276Y962008D03*
X839528Y946260D03*
X854528Y913386D03*
X836811Y923622D03*
X817717Y937598D03*
X817520Y916929D03*
X832283Y961811D03*
X830512Y938780D03*
X830709Y922441D03*
X829134Y931299D03*
X828150Y915945D03*
X826969Y926181D03*
X852165Y935236D03*
X842520Y933661D03*
X854331Y922047D03*
X846457Y941535D03*
X855315Y940945D03*
X856693Y956102D03*
X847047Y961811D03*
X838780Y953740D03*
X837795Y939764D03*
X831890Y949213D03*
X836614Y963976D03*
X846654Y951181D03*
X837008Y915748D03*
X848031Y929331D03*
X829134Y956890D03*
X854488Y929921D03*
X806299Y924213D03*
X807087Y934449D03*
X807677Y944094D03*
X827559Y945669D03*
X826378Y973819D03*
X837480Y1007677D03*
X847244Y1005709D03*
X837008Y1018307D03*
X827165Y1007677D03*
X823622Y1000591D03*
X847244Y975197D03*
X852283Y969882D03*
X847638Y1021260D03*
X819488Y997638D03*
X831496Y969291D03*
X844094Y979528D03*
X838583Y978740D03*
X817913Y968110D03*
X841102Y969882D03*
X849409Y981299D03*
X840157Y975000D03*
X804528Y991142D03*
X809646Y996260D03*
X832913Y1019291D03*
X807559Y988386D03*
X814961Y1000394D03*
X804331Y984252D03*
X857283Y981299D03*
X858071Y975591D03*
X852559Y977756D03*
X834252Y973819D03*
X856063Y1019882D03*
X821260Y1021260D03*
X821457Y1007283D03*
X812598Y1014764D03*
X808268Y976969D03*
X807480Y986024D03*
X841575Y983268D03*
X826772Y977953D03*
X829724Y981693D03*
X856299Y1016594D03*
X817638Y985571D03*
X846260Y983661D03*
X848819Y1069685D03*
X834331Y1065748D03*
X853386Y1030799D03*
X832283Y1030618D03*
X849016Y1026181D03*
X844409Y1050197D03*
X857638D03*
X853346Y1066339D03*
X808858Y1063189D03*
X812795Y1074409D03*
X838898Y1032677D03*
X837638Y1021654D03*
X814488Y1027114D03*
X833465Y1043701D03*
X822437Y1044091D03*
X808661Y1067323D03*
X818268Y1027114D03*
X806102Y1036811D03*
X857480Y1029134D03*
X849803Y1075591D03*
X856299Y1075394D03*
X813780Y1061811D03*
X821457D03*
X829724D03*
X838583Y1062008D03*
X848819Y1062205D03*
X857677Y1062008D03*
X817520Y1058071D03*
X833465D03*
X817913Y1066535D03*
X825787D03*
X844488Y1066339D03*
X839567Y1069685D03*
X830906Y1069291D03*
X821063D03*
X826575Y1074606D03*
X835827Y1074409D03*
X839764Y1058071D03*
X857874Y1054921D03*
X853228Y1054724D03*
X828937Y1053346D03*
X812598Y1051181D03*
X820866Y1052559D03*
X851181Y1050197D03*
X848504Y1054528D03*
X825394Y1058071D03*
X808465Y1045866D03*
X815748Y1045276D03*
X830315Y1047441D03*
X854331Y1046457D03*
X847559Y1046654D03*
X808661Y1022638D03*
X804409Y1028346D03*
X838386Y1049409D03*
Y1046063D03*
X849409Y1030709D03*
X822244Y1027165D03*
X831890Y1034795D03*
X806689Y1054327D03*
X811811Y1031890D03*
X835827Y1081693D03*
X855579Y1095406D03*
X821457Y1120583D03*
X817078Y1103827D03*
X829528Y1113816D03*
X839370Y1077756D03*
X826181Y1094488D03*
X807874Y1089173D03*
Y1094488D03*
X811614D03*
X843307Y1105118D03*
X812913Y1085039D03*
X833071Y1094882D03*
X833465Y1124803D03*
X857480Y1089173D03*
X832283Y1085039D03*
X846654Y1084646D03*
X845669Y1080315D03*
X852953Y1080512D03*
X851969Y1084646D03*
X852953Y1089173D03*
X843110Y1087008D03*
X840748Y1091339D03*
X846850Y1092520D03*
X848425Y1089173D03*
X836811Y1087402D03*
X840748Y1083071D03*
X843110Y1075787D03*
X830906Y1089764D03*
X811969Y1090157D03*
X808031Y1076969D03*
X819843Y1077362D03*
X820472Y1084843D03*
X826378Y1085236D03*
X828740Y1079331D03*
X827402Y1104528D03*
X840157Y1111220D03*
X850709Y1123622D03*
X807087Y1119488D03*
X816732Y1112008D03*
X815945Y1089173D03*
X827362Y1127953D03*
X833268Y1105118D03*
X850709Y1120079D03*
X853228Y1110433D03*
X844488D03*
X849209Y1095425D03*
X825295Y1125098D03*
X806102Y1114370D03*
X822638Y1127756D03*
X818504Y1127953D03*
X815022Y1128937D03*
X855906Y1120079D03*
X835039Y1094094D03*
X816547Y1094685D03*
X850394Y1106693D03*
X807402Y1132480D03*
Y1138976D03*
X852756Y1159055D03*
Y1151575D03*
X833661Y1130799D03*
X857480Y1133071D03*
X856102Y1147244D03*
X809764Y1136614D03*
X845276Y1132874D03*
X848819Y1132283D03*
X851772Y1133071D03*
X841929Y1132874D03*
X821890Y1135039D03*
X827165Y1136417D03*
Y1138189D03*
X815591Y1146457D03*
X818110Y1139567D03*
X816693Y1142717D03*
X830315Y1137598D03*
X832874Y1137795D03*
X831102Y1130512D03*
X835630Y1137795D03*
X858268Y744094D03*
X868504Y738583D03*
X891339D03*
X902165Y743701D03*
X880118Y743898D03*
X905512Y719094D03*
X888976Y724606D03*
X858661Y724409D03*
X859843Y704921D03*
X868307Y699606D03*
X881299Y704724D03*
X890551Y699213D03*
X874961Y719165D03*
X887008Y803346D03*
X882087Y799213D03*
X906299Y802354D03*
X912205Y799016D03*
X897835Y801969D03*
X858661Y798819D03*
X874606Y799016D03*
X890354Y798819D03*
X897835Y799016D03*
X906299Y798819D03*
X899409Y791142D03*
X904724Y781496D03*
X899409Y770472D03*
X904528Y758465D03*
X891929Y763976D03*
X866929Y763780D03*
X876969Y758535D03*
X883268Y822441D03*
X878740Y804134D03*
X886024Y812795D03*
X879134Y814567D03*
X886614Y818701D03*
X894094Y817323D03*
X897835Y814961D03*
X892913Y822047D03*
X878740Y824606D03*
X884449Y843307D03*
X907874Y841732D03*
X908858Y855906D03*
X893504Y803937D03*
X896209Y808465D03*
X906496Y825787D03*
X909843Y846457D03*
X905118Y837795D03*
X910630Y852559D03*
X905906Y850197D03*
X905512Y857480D03*
X903543Y853543D03*
X908268Y835630D03*
X903150Y834055D03*
X899213Y838189D03*
X902559Y845276D03*
X897835Y847138D03*
X899803Y852756D03*
X899461Y849606D03*
X897047Y851681D03*
X899409Y856890D03*
X896654Y855118D03*
X872638Y807087D03*
X897835Y827559D03*
X867520Y833071D03*
X879331Y846457D03*
X889370Y841339D03*
X874606Y843307D03*
X867126Y838780D03*
X858465Y841732D03*
X864370Y845669D03*
X869685Y849016D03*
X876063Y855512D03*
X869685Y854921D03*
X863583Y851575D03*
X882480Y850000D03*
X877362Y850984D03*
X882362Y856299D03*
X885827Y852559D03*
X889370Y846260D03*
X890354Y848819D03*
X890551Y852756D03*
X889961Y856783D03*
X863583Y857874D03*
X911024Y828937D03*
X860827Y835236D03*
X888583Y831496D03*
X872441Y828150D03*
X861614Y816732D03*
X891929Y812008D03*
X883268Y808268D03*
X891929Y827362D03*
X883858Y828543D03*
X861417Y808465D03*
X862402Y827953D03*
X911024Y833071D03*
X878937Y839370D03*
X884252Y837598D03*
X889370Y836417D03*
X902756Y841142D03*
X910827Y822638D03*
X906299Y814961D03*
X908492Y805118D03*
X906299Y807480D03*
X897835Y842520D03*
X906102Y831102D03*
X893504Y831890D03*
X878740Y832480D03*
X872441Y837205D03*
X871850Y816929D03*
X898031Y820669D03*
Y806102D03*
Y810827D03*
X910236Y874984D03*
X907677Y860236D03*
X902362Y860039D03*
X904921Y863386D03*
X896457Y859252D03*
X901772Y869291D03*
X912205Y866929D03*
X904724Y867717D03*
Y872638D03*
X900984Y865157D03*
X899409Y861811D03*
X896260Y862992D03*
X897047Y866035D03*
X902165Y875394D03*
X899461Y868307D03*
X901484Y871654D03*
X864961Y862008D03*
X871063Y861811D03*
X888661Y870669D03*
X874961D03*
X887598Y863583D03*
X887547Y859055D03*
X889764Y861327D03*
X888189Y880709D03*
X885433Y878346D03*
X888583Y874213D03*
X890354Y866929D03*
X881693Y875984D03*
X867520Y875000D03*
X871063Y873031D03*
X861811Y891929D03*
X885827Y875197D03*
X867323Y878346D03*
X868189Y911024D03*
X889291Y885236D03*
X887559Y883465D03*
X882768Y880906D03*
X879921Y879331D03*
X872244Y895669D03*
X868976Y866929D03*
X877559Y895669D03*
X863583Y895472D03*
X874016Y875591D03*
X867913Y897638D03*
X880512Y882480D03*
X884094Y871063D03*
X884409Y866142D03*
X874173Y865354D03*
X879528Y867126D03*
X878583Y873031D03*
X883307Y861024D03*
X877795Y860433D03*
X878543Y898425D03*
X862992Y885138D03*
X908465Y870866D03*
X882185Y898524D03*
X882874Y885433D03*
X882677Y891240D03*
X872047Y911417D03*
X859646Y907874D03*
X906398Y878740D03*
X864094Y922047D03*
Y936417D03*
Y928937D03*
X905315Y964370D03*
X863780D03*
X883307Y953740D03*
X867559Y948228D03*
X860000Y941142D03*
X874016Y931102D03*
X891535Y942717D03*
X905512Y959055D03*
X894016Y960039D03*
X889449Y964567D03*
X882835Y960630D03*
X858465Y949016D03*
X864094Y912992D03*
X859528Y933268D03*
X876220Y926969D03*
X858583Y917717D03*
X859213Y926378D03*
X868346Y941732D03*
X873543Y954134D03*
X872913Y963780D03*
X897008Y942717D03*
X901260Y932087D03*
X882480Y934252D03*
X873701Y924606D03*
X891732Y927953D03*
X887795Y925984D03*
X864094Y941535D03*
X864252Y956102D03*
X868031Y933661D03*
X882087Y942717D03*
X904528Y939961D03*
X873858Y937598D03*
X873701Y942913D03*
X887598Y922638D03*
X895866Y924803D03*
X868031Y916732D03*
X871969Y920079D03*
X890079Y956890D03*
X897008Y953346D03*
X882362Y948031D03*
X890079Y948228D03*
X896378Y948031D03*
X868346Y926181D03*
X887598Y933661D03*
X878346Y919291D03*
X886220Y942323D03*
X897165Y936614D03*
X889449Y936811D03*
X881890Y938583D03*
X873386Y948228D03*
X871811Y914961D03*
X885984Y937795D03*
X894173Y938976D03*
X897165Y964567D03*
X887205Y917913D03*
X882677D03*
X882835Y914858D03*
X895748Y933858D03*
X892913D03*
X870079Y956496D03*
X885827Y958268D03*
X912283Y950591D03*
X910335Y953937D03*
X862126Y949803D03*
X905768Y950925D03*
X866142Y944291D03*
X906299Y944154D03*
X877756Y934843D03*
Y931693D03*
X900492Y915256D03*
X902677Y915650D03*
X904252Y936024D03*
X908386Y956299D03*
Y927953D03*
X906398Y932264D03*
X906929Y979921D03*
X896850Y1007087D03*
X907677Y1000394D03*
X888386Y979528D03*
X899213Y970276D03*
X863386Y978740D03*
X901378Y987205D03*
X888780Y970866D03*
X882677Y970276D03*
X861890D03*
X868110Y975787D03*
X871063Y970079D03*
X878425Y980906D03*
X868110Y981299D03*
X909449Y986220D03*
X911417Y976772D03*
X866339Y1020866D03*
X878740Y976378D03*
X893898Y975197D03*
X882531Y979579D03*
X879724Y985630D03*
X894291Y987008D03*
X891496Y967028D03*
X886614Y975591D03*
X880902Y1018701D03*
X888346Y1015945D03*
X870709Y1021602D03*
X858807Y1068504D03*
X877657Y1050984D03*
X875118Y1021850D03*
X904161Y1022441D03*
X868504Y1037402D03*
X901890Y1038189D03*
X894646Y1028839D03*
X870866Y1067520D03*
X886220Y1037256D03*
X862992Y1029331D03*
X871339Y1041732D03*
X879843Y1056299D03*
X901193Y1058268D03*
X906606Y1060272D03*
X910551Y1037795D03*
Y1033465D03*
X911969Y1027362D03*
X897638Y1037402D03*
X878287Y1029134D03*
X907283Y1074972D03*
X910236Y1075000D03*
X901772Y1075591D03*
X903150Y1070472D03*
X904331Y1067323D03*
X911024Y1069291D03*
X910709Y1058268D03*
X870236Y1061713D03*
X880512Y1051181D03*
X881496Y1046949D03*
X892913Y1041929D03*
X889173Y1039567D03*
X885039Y1043307D03*
X890866Y1021850D03*
X898740D03*
X884094Y1021654D03*
X906197Y1057087D03*
X910079Y1066535D03*
X906496Y1070276D03*
X897953Y1069685D03*
X878898Y1037402D03*
X875984Y1046850D03*
X868898Y1044094D03*
X879134D03*
X887106Y1046949D03*
X881535Y1037598D03*
X860630Y1037795D03*
X873031Y1032874D03*
X888780Y1032283D03*
X867323Y1066535D03*
X873134Y1051874D03*
X870854Y1075106D03*
X899409Y1034055D03*
X907677Y1025000D03*
X901378Y1029528D03*
X888339Y1028937D03*
X872811Y1029748D03*
X876429Y1088976D03*
X859646Y1104921D03*
X858661Y1092520D03*
X860827Y1111811D03*
X858661Y1080118D03*
Y1084449D03*
X868976Y1106299D03*
X909843Y1087795D03*
X896850Y1117323D03*
X875118Y1076575D03*
X910709Y1108661D03*
X906299Y1095472D03*
X910551Y1103937D03*
X911024Y1094685D03*
X871654Y1103740D03*
X907874Y1099016D03*
X897323Y1093110D03*
X911024Y1089961D03*
X906693Y1092520D03*
X902992Y1086614D03*
X906457Y1083071D03*
X899055Y1097441D03*
X900630Y1100197D03*
X900945Y1091929D03*
X898898Y1081693D03*
X910039Y1081890D03*
X861220Y1116732D03*
X863780D03*
X870866Y1114173D03*
X874606Y1111614D03*
X870177Y1127953D03*
X877461D03*
X873917Y1129724D03*
X883071D03*
X881102D03*
X877362Y1119488D03*
X880118Y1113780D03*
X874213Y1117323D03*
X897244Y1110630D03*
X905315Y1119291D03*
X871063Y1100000D03*
X865110Y1106299D03*
X858268Y1120079D03*
X874346Y1086417D03*
X861417Y1107480D03*
X875409Y1094291D03*
X891654Y1124409D03*
X891535Y1122638D03*
X890157Y1123622D03*
X904331Y1159055D03*
X862992Y1148031D03*
X889370Y1159252D03*
X904331Y1151772D03*
X897244Y1149213D03*
X881299Y1151378D03*
X883858Y1159646D03*
X889567Y1153346D03*
X874213Y1159449D03*
X861614Y1159055D03*
X867323Y1149409D03*
X889134Y1145079D03*
X891142Y1136811D03*
X899803Y1136220D03*
X885039Y1155315D03*
X859252Y1155118D03*
X886417Y1147835D03*
X909449Y1142323D03*
Y1138189D03*
X895906Y1134646D03*
X898583Y1133465D03*
X888780Y1147835D03*
X904724Y1130315D03*
X903346Y1137992D03*
X895866D03*
X893110Y1143110D03*
X904134Y1143504D03*
X898819Y1143307D03*
X908346Y1130906D03*
X909449Y1148819D03*
X870276Y1131791D03*
X877461Y1131890D03*
X872244Y1139567D03*
X887008Y1132874D03*
X884646D03*
X881102Y1131693D03*
X883071D03*
X873543Y1141535D03*
X881299Y1146457D03*
X868307Y1135630D03*
X928543Y744094D03*
X955315Y744291D03*
X966142Y738850D03*
X942520D03*
X915354Y738386D03*
X963583Y724409D03*
X939961Y724213D03*
X934646Y719291D03*
X954016Y719165D03*
X916339Y724213D03*
X934252Y803150D03*
X949016Y800787D03*
X922244Y803150D03*
X956890Y799409D03*
X939370D03*
X926969Y799213D03*
X919488Y798819D03*
X943898Y853937D03*
X920276Y837795D03*
X921260Y842520D03*
X936811Y833071D03*
X928543Y832480D03*
X919488Y832087D03*
X946654Y834843D03*
X940551Y829331D03*
X923425Y827953D03*
X913780Y849213D03*
X914567Y857087D03*
X924409Y851772D03*
X939567Y848819D03*
X930315Y851772D03*
X920472Y857283D03*
X926772Y807677D03*
X915354Y806693D03*
X912598Y813976D03*
X918701Y822638D03*
X917126Y846654D03*
X924606D03*
X915945Y836614D03*
X933071Y846654D03*
X936811Y841339D03*
X944685Y846850D03*
X937795Y856496D03*
X932087Y857677D03*
X918898Y852165D03*
X925984Y857283D03*
X914173Y841732D03*
X960630Y856102D03*
X958268Y858071D03*
X954331Y829724D03*
X957087Y806299D03*
X932874Y837008D03*
X937795Y808268D03*
X932677Y828346D03*
X915551Y827362D03*
X947835Y841142D03*
X958071Y837008D03*
X928346Y840354D03*
X924606Y836811D03*
X961614Y830315D03*
X929528Y826575D03*
X942126Y813780D03*
X932087Y813583D03*
X920669Y813189D03*
X932874Y810039D03*
X946654Y822835D03*
X937205Y822638D03*
X941339Y837402D03*
X927362Y822638D03*
X965197Y840945D03*
X953701Y841339D03*
X965748Y856102D03*
X950787Y848425D03*
X953543Y850787D03*
X950000Y867913D03*
X938583Y874606D03*
X923819Y874409D03*
X918504D03*
X966299Y872047D03*
X949134Y886024D03*
X926181Y872244D03*
X949921Y873228D03*
X962205Y870472D03*
X917717Y866732D03*
X926575Y861417D03*
X929528Y869094D03*
X953740Y909449D03*
X945669Y862992D03*
X941732Y860433D03*
X937795Y863583D03*
X931299D03*
X923622Y864370D03*
X923819Y868701D03*
X963937Y884055D03*
X953858Y875000D03*
X932441Y906102D03*
Y912008D03*
X925394Y907874D03*
X928543Y885236D03*
X937638Y910827D03*
X949291Y906693D03*
X942126Y869094D03*
X963937Y878150D03*
X942362Y887205D03*
X936378Y886024D03*
X944291Y875197D03*
X958268Y877559D03*
X927953Y905315D03*
X932087Y875197D03*
X934449Y870866D03*
X926378Y887402D03*
X924882Y911614D03*
X928819Y910236D03*
X937480Y905709D03*
X943780Y908071D03*
X922047Y907283D03*
X918898Y885236D03*
X966732Y863386D03*
X948976Y891535D03*
X964173Y867126D03*
X944409Y893504D03*
X954669Y889567D03*
X963386Y898283D03*
X953937Y866142D03*
X950709Y901378D03*
X954921Y902953D03*
X945669Y903346D03*
X941260Y942913D03*
X948976Y944488D03*
X954488Y942913D03*
X954646Y948031D03*
X929291Y943307D03*
X929606Y950000D03*
X958071Y965748D03*
X954173Y917913D03*
X945197Y931299D03*
X920472Y949803D03*
X948346Y950197D03*
X924094Y944685D03*
X926299Y961220D03*
X936378Y945866D03*
X949016Y966535D03*
X919685Y946063D03*
X954488Y937598D03*
X935591D03*
X919528Y921063D03*
X942047Y925197D03*
X939055Y917126D03*
X954331Y925591D03*
X932126Y919685D03*
X919843Y925591D03*
X926142Y937598D03*
X937205Y931299D03*
X954488Y930906D03*
X946772Y915157D03*
X932441Y925591D03*
X920630Y931693D03*
X919528Y938189D03*
X918898Y912992D03*
X929449Y931890D03*
X947835Y922638D03*
X945354Y937795D03*
X921102Y916339D03*
X924213Y916142D03*
X928346Y916339D03*
X920945Y966732D03*
X925984Y923425D03*
X960236Y937992D03*
X963386Y917520D03*
X914272Y947638D03*
X917028Y947047D03*
X966043Y950000D03*
X963976Y952362D03*
X960039Y947638D03*
X918110Y969488D03*
X920945Y977362D03*
X961260Y975394D03*
X966457Y1008268D03*
X918701Y984646D03*
X914803Y972835D03*
X929134Y986417D03*
X929331Y980118D03*
X951339Y1007382D03*
X921709Y1018898D03*
X945185Y988976D03*
X956378Y975394D03*
X938268Y1001378D03*
X966535Y970669D03*
X953150D03*
X939685Y1020276D03*
X945669Y996063D03*
X940945Y1011417D03*
X927559Y1010039D03*
X937157Y982169D03*
X937638Y975000D03*
X943701Y1005709D03*
X943780Y993406D03*
X943701Y993484D03*
X945839Y975276D03*
X947441Y998228D03*
X932283Y989567D03*
X921260Y972441D03*
X931969Y975197D03*
X958661Y990945D03*
X926181Y975402D03*
X940941Y981689D03*
X963622Y991339D03*
X951181Y975591D03*
X933268Y986024D03*
X925197Y979134D03*
X944791Y1018437D03*
X962555Y1009843D03*
X951772Y1011146D03*
X936220Y1020472D03*
X957555Y1011327D03*
X947441Y1040945D03*
X957480Y1040886D03*
X962598D03*
X938476Y1038280D03*
X941429Y1046654D03*
X951654Y1046063D03*
X929713Y1056299D03*
X925697Y1044488D03*
X949409Y1064764D03*
X924409Y1074803D03*
X929134Y1065945D03*
X925591Y1068504D03*
X929524Y1063189D03*
X932087Y1047039D03*
X925000Y1055709D03*
X956299Y1067126D03*
X953701Y1069291D03*
X960945Y1068898D03*
X922362Y1064567D03*
X922047Y1066929D03*
X916535Y1060039D03*
X937205Y1046654D03*
X927362Y1046457D03*
X931890Y1043307D03*
X916378Y1037795D03*
X916220Y1033661D03*
X912756Y1035827D03*
X922441Y1069685D03*
X920472Y1075000D03*
X936693Y1069291D03*
X948819Y1073031D03*
X939764Y1056102D03*
X930315Y1024016D03*
X943110Y1073031D03*
X914370Y1063386D03*
X948819Y1056299D03*
X916929Y1074606D03*
X939764Y1064961D03*
Y1061811D03*
X919055Y1039961D03*
X931024Y1030630D03*
Y1033307D03*
X921890D03*
X919252Y1022402D03*
X922638Y1024508D03*
X932913Y1024402D03*
X944701Y1027953D03*
X944409Y1022835D03*
X939213Y1032283D03*
X950591Y1122835D03*
X917126Y1111220D03*
X947756Y1097441D03*
X917520Y1102559D03*
X953228Y1093307D03*
X943898Y1113976D03*
X940157Y1104921D03*
X938567Y1117898D03*
X928189Y1100000D03*
X917323Y1125591D03*
X914370Y1129921D03*
X965551Y1080906D03*
X961417D03*
X960236Y1091929D03*
X945669Y1123031D03*
X955276Y1101378D03*
X950236Y1102756D03*
X918110Y1091339D03*
X931299Y1123031D03*
X933071Y1096063D03*
X923214Y1096639D03*
X958071Y1129724D03*
X957480Y1121260D03*
X940354Y1121654D03*
X937992Y1125000D03*
X966772Y1116732D03*
X953543Y1090354D03*
X913386Y1082087D03*
X917126Y1082677D03*
X921260D03*
X919094Y1086417D03*
X931811Y1086024D03*
X936063Y1085039D03*
X936220Y1082283D03*
X935276Y1113976D03*
X949921Y1111024D03*
X926457Y1094488D03*
Y1091142D03*
X940748Y1081102D03*
X944488Y1077559D03*
X958858Y1106299D03*
X965551Y1127953D03*
X961614Y1119882D03*
X936535Y1102756D03*
X947402Y1084252D03*
X929921Y1112598D03*
X937008Y1092717D03*
X955709Y1096260D03*
X953858Y1113976D03*
X958661Y1125197D03*
X944094Y1091732D03*
X923307Y1102953D03*
X921260Y1104331D03*
X925512Y1100394D03*
X920787Y1095669D03*
X955276Y1076378D03*
X938386D03*
X923622Y1078740D03*
X926181D03*
X919882Y1109252D03*
X930236Y1076575D03*
X949213Y1126969D03*
X924213Y1121063D03*
X951024Y1148622D03*
X916929Y1154224D03*
X944094Y1140354D03*
X916732Y1159055D03*
X952492Y1152362D03*
X914370Y1156496D03*
X954134Y1135039D03*
X952559Y1141339D03*
X930079Y1131496D03*
X940551Y1145276D03*
X917126Y1142520D03*
Y1138189D03*
X913189Y1142520D03*
X913386Y1138189D03*
X927953Y1144685D03*
X966142Y1148031D03*
X939961Y1140165D03*
X949319Y1140354D03*
X944488Y1134449D03*
X941535Y1152559D03*
X947638Y1152756D03*
X935039Y1152953D03*
X963976Y1156102D03*
X958858Y1154528D03*
X935630Y1140157D03*
X924567Y1131102D03*
X931969Y1135039D03*
X921772Y1149803D03*
X931024Y1159252D03*
X962795Y1133465D03*
X966732D03*
X964764Y1141535D03*
X951575Y1136220D03*
X917962Y1130857D03*
X975197Y744094D03*
X970472Y731496D03*
X975591Y719488D03*
X996850Y801181D03*
X1008858Y799409D03*
X989567D03*
X967717D03*
X974606Y833661D03*
X968110Y835827D03*
X982677Y855315D03*
X1011417Y832677D03*
X1001969Y826575D03*
X1006890Y807480D03*
X976378Y804331D03*
X982087Y817913D03*
X968346Y851378D03*
X973622Y851575D03*
X976378Y844882D03*
X1013228Y850984D03*
X1005709Y832087D03*
X1004331Y818504D03*
X984567Y847441D03*
X981299Y826969D03*
X983071Y806890D03*
X1000394Y806496D03*
X1001772Y843307D03*
X991142Y822244D03*
X993898Y813386D03*
X983268Y810630D03*
X970079Y818504D03*
X975197Y812992D03*
X974016Y824213D03*
X968189Y845472D03*
X1013386Y839173D03*
X1013780Y822638D03*
X1013583Y805709D03*
X979843Y840354D03*
X980787Y833858D03*
X984567Y829921D03*
X973701Y839764D03*
X979685Y851181D03*
X1002362Y854921D03*
X970276Y854134D03*
X971024Y869291D03*
X985984Y865157D03*
X977165Y866339D03*
X1013386Y870079D03*
X971339Y859646D03*
X977638D03*
X1012598Y902362D03*
X970236Y878740D03*
X969449Y884843D03*
X992913Y864567D03*
X975433Y874409D03*
X998031Y860827D03*
X1001102Y877362D03*
X1001378Y901772D03*
Y889370D03*
X1001575Y866142D03*
X984055Y859843D03*
X1013780Y890748D03*
X1013386Y880315D03*
X1013189Y860630D03*
X970866Y890748D03*
X978268Y899606D03*
X977795Y904528D03*
X987795Y956693D03*
X1012441Y922638D03*
X1013228Y937992D03*
X980709Y927165D03*
X988189Y928740D03*
X987598Y947047D03*
X1003543Y950984D03*
X1002953Y935039D03*
X1001575Y916732D03*
X968898Y965748D03*
X1013976Y958071D03*
X1013780Y945866D03*
Y930118D03*
Y914370D03*
X1014173Y966535D03*
X975984Y965551D03*
X1003346Y962992D03*
X992717Y971457D03*
X990945Y984843D03*
X991535Y1007874D03*
X983465Y985433D03*
X975591Y973031D03*
X992323Y976575D03*
X1006929Y979134D03*
X975295Y1015354D03*
X970669Y975197D03*
X973386Y1008465D03*
X983465Y995669D03*
X990079Y1020276D03*
X975394Y983465D03*
X993307Y994882D03*
X996378Y986614D03*
X1007677Y1004921D03*
X1003543Y1000984D03*
X996850Y1012008D03*
X1001378Y1017520D03*
X1012008Y1013583D03*
X1004134Y1011811D03*
X1008465Y1019488D03*
X987795Y989961D03*
X980906Y969291D03*
X1005197Y987598D03*
X974508Y997343D03*
X988583Y1029134D03*
X982677Y1058071D03*
X1009055Y1024161D03*
X996654Y1040748D03*
X1000787Y1040945D03*
X998583Y1036614D03*
X996457Y1033661D03*
X1000315D03*
X996693Y1065157D03*
X998425Y1048819D03*
X986299Y1066535D03*
X985039Y1071063D03*
X1013780Y1065945D03*
X996693Y1055906D03*
X996850Y1072047D03*
X976535Y1061417D03*
X968031Y1066732D03*
X1013976Y1075000D03*
X1008465Y1066339D03*
X1006898Y1072244D03*
X1010827Y1071654D03*
X1011811Y1026378D03*
X1002362Y1054528D03*
X977756Y1033465D03*
X1008268Y1054134D03*
X1008661Y1043504D03*
X1013780Y1031299D03*
X1002953Y1023228D03*
X993898Y1028543D03*
X989567Y1039764D03*
X992126Y1049409D03*
X1004567Y1066732D03*
X992598Y1061614D03*
X1012598Y1056496D03*
Y1035236D03*
X1007402Y1075197D03*
X988780Y1036417D03*
X1007461Y1040374D03*
X988976Y1033465D03*
X1007283Y1037205D03*
X974646Y1040157D03*
X972283Y1026575D03*
X970079Y1024213D03*
X967555Y1040713D03*
X991339Y1129921D03*
X991142Y1122047D03*
X984449Y1112008D03*
X1012992Y1099016D03*
X1012795Y1115157D03*
X1010236Y1113976D03*
X983858Y1086417D03*
X987217Y1075984D03*
X977638Y1098425D03*
X980717Y1105315D03*
X974213Y1127165D03*
X974016Y1120079D03*
X1013189Y1083465D03*
X1000591Y1082677D03*
X1007677Y1083268D03*
X996252Y1090748D03*
X991732Y1082677D03*
X994094Y1102756D03*
Y1100197D03*
X972441Y1101378D03*
X996654Y1126181D03*
X1002756Y1124016D03*
X996063Y1121063D03*
X994685Y1107874D03*
X1000984D03*
X1001181Y1100394D03*
X998425Y1103937D03*
X981299Y1114370D03*
X1001181Y1076780D03*
X967717Y1122638D03*
X972047Y1080709D03*
X976969Y1078740D03*
X968110Y1091339D03*
X973031Y1091142D03*
X967768Y1094094D03*
X1011811Y1093307D03*
X976969Y1083661D03*
X969780Y1085421D03*
X991142Y1087587D03*
X980906Y1079421D03*
X987598Y1097441D03*
X990236Y1119488D03*
X991929Y1125787D03*
X968307Y1104528D03*
X981260Y1101772D03*
X1012795Y1139567D03*
X988976Y1149213D03*
X984449Y1154528D03*
X989370Y1141535D03*
X978937Y1156299D03*
X988780Y1136417D03*
X991142Y1133858D03*
X970669Y1133071D03*
X976575Y1159252D03*
X993898Y1157874D03*
X995669Y1142126D03*
X1004724Y1139370D03*
X997835Y1134843D03*
X1008268Y1132480D03*
X981693Y1144291D03*
X970669Y1158465D03*
X968701Y1141929D03*
X972638Y1143457D03*
G54D31*
X822244Y1029331D03*
Y1032874D03*
X845276Y1126181D03*
Y1129724D03*
X809252Y1107480D03*
Y1111024D03*
G54D40*
X835976Y1152165D03*
X828591D03*
G54D13*
X803150Y863386D03*
X800787Y865748D03*
G54D22*
X792323Y1035732D03*
X796063D03*
X802677Y1107480D03*
X848917Y855315D03*
X808858Y1025693D03*
X814370Y1029433D03*
X818110D03*
X831102Y1118504D03*
X806102Y1107386D03*
X828346Y1107874D03*
X858957Y855118D03*
X902165Y817819D03*
X893504Y852661D03*
X902165Y811323D03*
X879528Y911220D03*
X875000Y911417D03*
X885039Y881795D03*
X899213Y871559D03*
X895472D03*
X893504Y861913D03*
X891732Y871559D03*
X895571Y917913D03*
X871260Y1051874D03*
X872835Y1069591D03*
X870669Y1023921D03*
X901969Y1032087D03*
Y1023921D03*
X868898Y1069591D03*
X886417Y1031299D03*
X870472Y1031890D03*
X886417Y1023331D03*
X869291Y1100197D03*
X865945Y1100000D03*
X861417Y1119591D03*
X955906Y857583D03*
X921063Y868803D03*
X920866Y860630D03*
X921063Y910236D03*
X973071Y1016732D03*
G54D41*
X841976Y1143110D03*
X822591D03*
G54D50*
X913976Y871654D03*
Y861811D03*
G54D14*
X800577Y860813D03*
X798215Y863176D03*
G54D23*
X796220Y1069094D03*
X796457Y1060433D03*
Y1064567D03*
X796378Y1087402D03*
X814071Y982283D03*
X808756Y1033268D03*
X830567Y1028543D03*
X853047Y1033071D03*
X830567Y1032283D03*
X857575Y1104724D03*
X850394D03*
X843898Y1113780D03*
X822850Y1122441D03*
X835630Y1113780D03*
X850787Y1110433D03*
X813480Y1138976D03*
X902165Y808465D03*
X897142Y849409D03*
X905803Y821457D03*
X883858Y896260D03*
Y893504D03*
X893504Y859055D03*
X897142Y868307D03*
X891732Y877953D03*
X899110D03*
X895472Y880709D03*
X862220Y1019882D03*
X859543Y1107480D03*
X874409Y1078740D03*
X873622Y1096063D03*
X874307Y1082874D03*
X874110Y1088976D03*
X873622Y1092520D03*
X878952Y1139409D03*
X886827Y1135374D03*
X879819Y1143504D03*
X886707Y1138930D03*
X926079Y884843D03*
X924898Y905512D03*
X957575Y1009055D03*
X927654Y1020079D03*
X1009740Y967520D03*
G54D32*
X817091Y1107874D03*
Y1116535D03*
X823780D03*
Y1107874D03*
X867795Y882677D03*
Y891654D03*
X874803D03*
Y882677D03*
G54D24*
X792583Y1069094D03*
X792819Y1060433D03*
Y1064567D03*
X792740Y1087402D03*
X858583Y1019882D03*
X810433Y982283D03*
X805118Y1033268D03*
X826929Y1028543D03*
X849409Y1033071D03*
X826929Y1032283D03*
X855906Y1107480D03*
X853937Y1104724D03*
X846756D03*
X840260Y1113780D03*
X819213Y1122441D03*
X831992Y1113780D03*
X847150Y1110433D03*
X809843Y1138976D03*
X898528Y808465D03*
X893504Y849409D03*
X902165Y821457D03*
X880220Y896260D03*
Y893504D03*
X889866Y859055D03*
X893504Y868307D03*
X888094Y877953D03*
X895472D03*
X891835Y880709D03*
X870772Y1078740D03*
X869984Y1096063D03*
X870669Y1082874D03*
X870472Y1088976D03*
X869984Y1092520D03*
X875315Y1139409D03*
X883189Y1135374D03*
X876181Y1143504D03*
X883069Y1138930D03*
X922441Y884843D03*
X921260Y905512D03*
X953937Y1009055D03*
X924016Y1020079D03*
X1006102Y967520D03*
G54D15*
X799213Y1014173D03*
G54D60*
X873819Y1129724D03*
G54D33*
X857283Y1111811D03*
Y1117323D03*
G54D42*
X837402Y1141732D03*
X834843D03*
X832283D03*
X829724D03*
X827165D03*
G54D51*
X895374Y890354D03*
X899311D03*
X903248D03*
X907185D03*
X911122D03*
Y894291D03*
X907185D03*
X903248D03*
X899311D03*
X895374D03*
X911122Y898228D03*
X907185D03*
X903248D03*
X899311D03*
X895374D03*
X911122Y902165D03*
X907185D03*
X903248D03*
X899311D03*
X895374D03*
X911122Y906102D03*
X907185D03*
X903248D03*
X899311D03*
X895374D03*
G54D34*
X840945Y1125984D03*
X837402D03*
G54D16*
G01X794390Y692913D02*
X1011220D01*
G03X1017913Y700591I-552J7237D01*
G01Y964567D01*
G03X1013583Y976969I-19922J0D01*
G02X1009252Y989370I15591J12402D01*
G02X1013583Y1001772I19922J0D01*
G03X1017913Y1014173I-15591J12402D01*
G01Y1158811D01*
G03X1012157Y1164567I-5756J0D01*
G01X849803D01*
Y1159843D01*
X843504D01*
Y1151575D01*
X839961D01*
Y1159843D01*
X825000D01*
Y1151575D01*
X821457D01*
Y1159843D01*
X815157D01*
Y1164567D01*
X793354D01*
G03X787598Y1158811I0J-5756D01*
G01Y1014173D01*
G03X791929Y1001772I19922J0D01*
G02X796260Y989370I-15591J-12402D01*
G02X791929Y976969I-19922J0D01*
G03X787598Y964567I15591J-12402D01*
G01Y700591D01*
G03X794390Y692913I8087J312D01*
G01X950912Y586071D02*
Y593571D01*
X952778D01*
X953524Y593196D01*
X954084Y592696D01*
X954551Y591946D01*
X954924Y591071D01*
X955017Y589821D01*
X954924Y588571D01*
X954551Y587696D01*
X954084Y586946D01*
X953524Y586446D01*
X952778Y586071D01*
X950912D01*
G01X958132D02*
X960465Y593571D01*
X962797Y586071D01*
G01X961957Y588696D02*
X958972D01*
G01X967965Y593571D02*
Y586071D01*
G01X965819Y593571D02*
X970111D01*
G01X977331Y586071D02*
X973598D01*
Y593571D01*
X977331D01*
G01X975838Y589946D02*
X973598D01*
G01X982965Y585821D02*
X982778Y585946D01*
Y586196D01*
X982965Y586321D01*
X983151Y586196D01*
Y585946D01*
X982965Y585821D01*
G01Y589196D02*
X982778Y589321D01*
Y589571D01*
X982965Y589696D01*
X983151Y589571D01*
Y589321D01*
X982965Y589196D01*
G01X996192Y592321D02*
X996752Y593071D01*
X997405Y593446D01*
X998151Y593571D01*
X999084Y593321D01*
X999737Y592696D01*
X999924Y591946D01*
X999831Y591196D01*
X999457Y590571D01*
X997591Y589321D01*
X996752Y588446D01*
X996192Y587196D01*
X996005Y586071D01*
X999924D01*
G01X1005465Y593571D02*
X1004718Y593321D01*
X1004158Y592696D01*
X1003785Y591946D01*
X1003505Y590946D01*
X1003412Y589821D01*
X1003505Y588696D01*
X1003785Y587696D01*
X1004158Y586946D01*
X1004718Y586321D01*
X1005465Y586071D01*
X1006211Y586321D01*
X1006771Y586946D01*
X1007144Y587696D01*
X1007424Y588696D01*
X1007517Y589821D01*
X1007424Y590946D01*
X1007144Y591946D01*
X1006771Y592696D01*
X1006211Y593321D01*
X1005465Y593571D01*
G01X1011192Y592321D02*
X1011752Y593071D01*
X1012405Y593446D01*
X1013151Y593571D01*
X1014084Y593321D01*
X1014737Y592696D01*
X1014924Y591946D01*
X1014831Y591196D01*
X1014457Y590571D01*
X1012591Y589321D01*
X1011752Y588446D01*
X1011192Y587196D01*
X1011005Y586071D01*
X1014924D01*
G01X1020465Y593571D02*
X1019718Y593321D01*
X1019158Y592696D01*
X1018785Y591946D01*
X1018505Y590946D01*
X1018412Y589821D01*
X1018505Y588696D01*
X1018785Y587696D01*
X1019158Y586946D01*
X1019718Y586321D01*
X1020465Y586071D01*
X1021211Y586321D01*
X1021771Y586946D01*
X1022144Y587696D01*
X1022424Y588696D01*
X1022517Y589821D01*
X1022424Y590946D01*
X1022144Y591946D01*
X1021771Y592696D01*
X1021211Y593321D01*
X1020465Y593571D01*
G01X1026752Y588571D02*
X1029178D01*
G01X1035465Y593571D02*
X1034718Y593321D01*
X1034158Y592696D01*
X1033785Y591946D01*
X1033505Y590946D01*
X1033412Y589821D01*
X1033505Y588696D01*
X1033785Y587696D01*
X1034158Y586946D01*
X1034718Y586321D01*
X1035465Y586071D01*
X1036211Y586321D01*
X1036771Y586946D01*
X1037144Y587696D01*
X1037424Y588696D01*
X1037517Y589821D01*
X1037424Y590946D01*
X1037144Y591946D01*
X1036771Y592696D01*
X1036211Y593321D01*
X1035465Y593571D01*
G01X1041192Y592321D02*
X1041752Y593071D01*
X1042405Y593446D01*
X1043151Y593571D01*
X1044084Y593321D01*
X1044737Y592696D01*
X1044924Y591946D01*
X1044831Y591196D01*
X1044457Y590571D01*
X1042591Y589321D01*
X1041752Y588446D01*
X1041192Y587196D01*
X1041005Y586071D01*
X1044924D01*
G01X1049252Y588571D02*
X1051678D01*
G01X1057965Y586071D02*
Y593571D01*
X1056845Y592071D01*
G01Y586071D02*
X1059084D01*
G01X1065278D02*
X1065465Y587696D01*
X1065744Y589071D01*
X1066118Y590321D01*
X1066584Y591696D01*
X1067331Y593571D01*
X1063598D01*
G01X958807Y613701D02*
Y606201D01*
X962539D01*
G01X968173D02*
Y613701D01*
X967054Y612201D01*
G01Y606201D02*
X969293D01*
G01X952768Y632744D02*
Y625244D01*
G01X950622Y632744D02*
X954914D01*
G01X962134Y625244D02*
X958402D01*
Y632744D01*
X962134D01*
G01X960641Y629119D02*
X958402D01*
G01X965808Y625244D02*
X969727Y632744D01*
G01X965808D02*
X969727Y625244D01*
G01X972935D02*
X975268Y632744D01*
X977600Y625244D01*
G01X976761Y627869D02*
X973775D01*
G01X980808Y626244D02*
X981555Y625619D01*
X982394Y625244D01*
X983141D01*
X983887Y625619D01*
X984447Y626244D01*
X984727Y627119D01*
X984541Y627994D01*
X984074Y628744D01*
X983234Y629244D01*
X982115Y629494D01*
X981461Y629994D01*
X981181Y630869D01*
X981368Y631744D01*
X981835Y632369D01*
X982488Y632744D01*
X983141D01*
X983794Y632494D01*
X984354Y631869D01*
G01X996648Y632744D02*
X998887D01*
G01X997768D02*
Y625244D01*
G01X996648D02*
X998887D01*
G01X1003122D02*
Y632744D01*
X1007414Y625244D01*
Y632744D01*
G01X1010808Y626244D02*
X1011555Y625619D01*
X1012394Y625244D01*
X1013141D01*
X1013887Y625619D01*
X1014447Y626244D01*
X1014727Y627119D01*
X1014541Y627994D01*
X1014074Y628744D01*
X1013234Y629244D01*
X1012115Y629494D01*
X1011461Y629994D01*
X1011181Y630869D01*
X1011368Y631744D01*
X1011835Y632369D01*
X1012488Y632744D01*
X1013141D01*
X1013794Y632494D01*
X1014354Y631869D01*
G01X1020268Y632744D02*
Y625244D01*
G01X1018122Y632744D02*
X1022414D01*
G01X1025902Y625244D02*
Y632744D01*
X1028234D01*
X1028981Y632369D01*
X1029447Y631869D01*
X1029634Y630869D01*
X1029447Y629869D01*
X1028887Y629244D01*
X1028234Y628869D01*
X1025902D01*
G01X1028234D02*
X1029634Y625244D01*
G01X1033215Y632744D02*
Y627369D01*
X1033588Y626244D01*
X1034335Y625494D01*
X1035268Y625244D01*
X1036201Y625494D01*
X1036947Y626244D01*
X1037320Y627369D01*
Y632744D01*
G01X1040342Y625244D02*
Y632744D01*
X1042768Y626494D01*
X1045194Y632744D01*
Y625244D01*
G01X1052134D02*
X1048402D01*
Y632744D01*
X1052134D01*
G01X1050641Y629119D02*
X1048402D01*
G01X1055622Y625244D02*
Y632744D01*
X1059914Y625244D01*
Y632744D01*
G01X1065268D02*
Y625244D01*
G01X1063122Y632744D02*
X1067414D01*
G01X1070808Y626244D02*
X1071555Y625619D01*
X1072394Y625244D01*
X1073141D01*
X1073887Y625619D01*
X1074447Y626244D01*
X1074727Y627119D01*
X1074541Y627994D01*
X1074074Y628744D01*
X1073234Y629244D01*
X1072115Y629494D01*
X1071461Y629994D01*
X1071181Y630869D01*
X1071368Y631744D01*
X1071835Y632369D01*
X1072488Y632744D01*
X1073141D01*
X1073794Y632494D01*
X1074354Y631869D01*
G01X992312Y609398D02*
Y606299D01*
X993845D01*
G01X995219D02*
X996177Y609398D01*
X997135Y606299D01*
G01X996790Y607383D02*
X995564D01*
G01X998433Y609398D02*
Y607177D01*
X998586Y606712D01*
X998893Y606402D01*
X999276Y606299D01*
X999659Y606402D01*
X999965Y606712D01*
X1000119Y607177D01*
Y609398D01*
G01X1001493Y606299D02*
Y609398D01*
X1003256Y606299D01*
Y609398D01*
G01X1006315Y609139D02*
X1006085Y609294D01*
X1005817Y609398D01*
X1005511D01*
X1005166Y609243D01*
X1004898Y608985D01*
X1004706Y608675D01*
X1004553Y608158D01*
X1004515Y607693D01*
X1004591Y607229D01*
X1004706Y606919D01*
X1004936Y606609D01*
X1005204Y606402D01*
X1005472Y606299D01*
X1005741D01*
X1006009Y606402D01*
X1006239Y606557D01*
X1006430Y606764D01*
G01X1007766Y606299D02*
Y609398D01*
G01X1009376D02*
Y606299D01*
G01Y607848D02*
X1007766D01*
G01X1010865Y606299D02*
X1012474Y609398D01*
G01X1010865D02*
X1012474Y606299D01*
G01X1014001Y609398D02*
Y606299D01*
X1015534D01*
G01X1017368Y607332D02*
X1018364D01*
G01X1021807Y609139D02*
X1021578Y609294D01*
X1021309Y609398D01*
X1021003D01*
X1020658Y609243D01*
X1020390Y608985D01*
X1020198Y608675D01*
X1020045Y608158D01*
X1020007Y607693D01*
X1020083Y607229D01*
X1020198Y606919D01*
X1020428Y606609D01*
X1020696Y606402D01*
X1020965Y606299D01*
X1021233D01*
X1021501Y606402D01*
X1021731Y606557D01*
X1021922Y606764D01*
G01X1024906Y609139D02*
X1024676Y609294D01*
X1024408Y609398D01*
X1024101D01*
X1023756Y609243D01*
X1023488Y608985D01*
X1023296Y608675D01*
X1023143Y608158D01*
X1023105Y607693D01*
X1023181Y607229D01*
X1023296Y606919D01*
X1023526Y606609D01*
X1023795Y606402D01*
X1024063Y606299D01*
X1024331D01*
X1024600Y606402D01*
X1024830Y606557D01*
X1025021Y606764D01*
G01X1027161Y606299D02*
Y609398D01*
X1026702Y608778D01*
G01Y606299D02*
X1027621D01*
G01X1029417Y606919D02*
X1029647Y606557D01*
X1029953Y606351D01*
X1030298Y606299D01*
X1030605Y606351D01*
X1030911Y606609D01*
X1031103Y606919D01*
X1031141Y607229D01*
X1031065Y607590D01*
X1030796Y607848D01*
X1030528Y607952D01*
X1030183D01*
G01X1030528D02*
X1030758Y608107D01*
X1030950Y608365D01*
X1031026Y608675D01*
X1030950Y608985D01*
X1030758Y609243D01*
X1030413Y609398D01*
X1030068Y609346D01*
X1029723Y609139D01*
G01X1033358Y606299D02*
Y609398D01*
X1032898Y608778D01*
G01Y606299D02*
X1033818D01*
G01X1036457Y609398D02*
X1036150Y609294D01*
X1035920Y609036D01*
X1035767Y608726D01*
X1035652Y608313D01*
X1035614Y607848D01*
X1035652Y607383D01*
X1035767Y606970D01*
X1035920Y606661D01*
X1036150Y606402D01*
X1036457Y606299D01*
X1036763Y606402D01*
X1036993Y606661D01*
X1037146Y606970D01*
X1037261Y607383D01*
X1037300Y607848D01*
X1037261Y608313D01*
X1037146Y608726D01*
X1036993Y609036D01*
X1036763Y609294D01*
X1036457Y609398D01*
G01X1041696Y606299D02*
X1042654Y609398D01*
X1043611Y606299D01*
G01X1043267Y607383D02*
X1042041D01*
X799803Y983154D03*
Y992209D03*
X872933Y780807D03*
X863272Y1152756D03*
X872327D03*
X931988Y780807D03*
X1005512Y992043D03*
Y982988D03*
G54D43*
X833661Y1135197D03*
X831693D03*
X829724D03*
X833661Y1132874D03*
X831693D03*
X829724D03*
G54D70*
X941339Y991732D03*
X939370D03*
X937402D03*
X939173Y1028937D03*
G54D25*
X792717Y1055906D03*
X796260D03*
X837402Y1129921D03*
X840945D03*
X960630Y847047D03*
X964173D03*
X957480Y865551D03*
X961024D03*
G54D61*
X882577Y1127127D03*
Y1123584D03*
X865161Y1127362D03*
Y1123819D03*
X862402Y1103543D03*
Y1100000D03*
X955906Y850787D03*
Y847244D03*
G54D52*
X882677Y926378D03*
Y920866D03*
G54D80*
G01X829724Y981693D02*
X820272D01*
X802362Y963783D01*
Y902610D01*
X812531Y892441D01*
G01X908366Y884843D02*
Y883169D01*
X912110Y879425D01*
X952949D01*
X969339Y895815D01*
Y953988D01*
X967815Y955512D01*
X923232D01*
X888587Y990157D01*
X825390D01*
X800000Y964768D01*
Y890925D01*
X808484Y882441D01*
X812531D01*
G01X800787Y865748D02*
X807283Y872244D01*
Y877193D01*
X812531Y882441D01*
G01X803150Y863386D02*
X804476Y864713D01*
X804803D01*
X812531Y872441D01*
G01X910335Y884843D02*
Y883193D01*
X912921Y880606D01*
X952457D01*
X967717Y895866D01*
Y953740D01*
X967126Y954331D01*
X922047D01*
X887402Y988976D01*
X825882D01*
X801181Y964276D01*
Y895669D01*
X809449Y887402D01*
X815157D01*
X817717Y884843D01*
Y877626D01*
X812531Y872441D01*
G01X795754Y1010715D02*
X799213Y1014173D01*
G01D02*
X802671Y1017632D01*
G01X802358Y1066925D02*
X795677D01*
G01X792323Y1035732D02*
Y1033465D01*
X793504Y1032283D01*
X801181D01*
X804134Y1035236D01*
Y1039567D01*
X807480Y1042913D01*
X810276D01*
X811417Y1041772D01*
Y1038976D01*
G01X796063Y1035732D02*
Y1035780D01*
X797610Y1037327D01*
X799173D01*
X805941Y1044094D01*
X811622D01*
X812988Y1042728D01*
Y1038976D01*
G01X792323Y1044091D02*
Y1039370D01*
G01X796063D02*
Y1044091D01*
G01X802358Y1054327D02*
X806689D01*
G01X796220Y1069094D02*
X798228D01*
X798815Y1068508D01*
X802358D01*
G01Y1093697D02*
X799799D01*
X798622Y1094874D01*
Y1097835D01*
X797441Y1099016D01*
X792520D01*
X790945Y1100591D01*
Y1137598D01*
X792913Y1139567D01*
X795669D01*
X798031Y1137205D01*
G01X796260Y1093701D02*
X797449D01*
X799024Y1092126D01*
X802358D01*
G01X793947Y1090497D02*
X795066Y1089378D01*
X798417D01*
X798819Y1088976D01*
X802358D01*
G01X793701Y1094488D02*
Y1093110D01*
X795323Y1091488D01*
X797980D01*
X798921Y1090547D01*
X802358D01*
G01X802677Y1107480D02*
X806008D01*
X806102Y1107386D01*
G01X796378Y1087402D02*
Y1085130D01*
G01X802358Y1087406D02*
X798209D01*
X798205Y1087402D01*
X796378D01*
G01X797244Y1143895D02*
Y1152362D01*
G01D02*
X805711D01*
G01X816839Y852362D02*
X816339D01*
G01X809208Y838972D02*
X812598Y842362D01*
G01D02*
X815989Y845752D01*
G01X809208Y848972D02*
X812598Y852362D01*
G01D02*
X815989Y855752D01*
G01X848917Y851874D02*
X849016Y851776D01*
G01X812531Y902441D02*
X803543Y911429D01*
Y963291D01*
X819976Y979724D01*
X830512D01*
X838583Y987795D01*
X886909D01*
X921555Y953150D01*
X958071D01*
X962795Y948425D01*
Y919685D01*
X961713Y918602D01*
Y901283D01*
X953933Y893504D01*
X944409D01*
G01X822531Y932441D02*
X825394Y929579D01*
X827311D01*
X851969Y904921D01*
X886902D01*
X887295Y905315D01*
X889862D01*
G01Y903346D02*
X887295D01*
X886902Y903740D01*
X845280D01*
X826579Y922441D01*
X822531D01*
G01X889862Y901378D02*
X886386D01*
X885205Y902559D01*
X840740D01*
X830858Y912441D01*
X822531D01*
G01Y902441D02*
X826579D01*
X827642Y901378D01*
X884713D01*
X886681Y899409D01*
X889862D01*
G01X822531Y942441D02*
X825394Y939579D01*
Y938583D01*
X857776Y906201D01*
X885925D01*
X887008Y907283D01*
X889862D01*
G01Y897441D02*
X886697D01*
X883941Y900197D01*
X850000D01*
X842244Y892441D01*
X822531D01*
G01Y956681D02*
Y955709D01*
G01X819141Y949051D02*
X822531Y952441D01*
G01D02*
X825922Y955831D01*
G01X812531Y932441D02*
X805906Y939067D01*
Y962307D01*
X819583Y975984D01*
X829531D01*
X839177Y985630D01*
X879724D01*
G01X841575Y983268D02*
X839567D01*
X828937Y972638D01*
Y960433D01*
X826772Y958268D01*
X811220D01*
X807480Y954528D01*
Y947492D01*
X812531Y942441D01*
G01X827559Y945669D02*
X864567Y908661D01*
X884055D01*
X887402Y912008D01*
X892618D01*
G01X812531Y922441D02*
X804724Y930248D01*
Y962799D01*
X819878Y977953D01*
X826772D01*
G01X832531Y998201D02*
Y999016D01*
G01Y1016681D02*
Y1016626D01*
G01X829141Y1009051D02*
X832531Y1012441D01*
G01D02*
X835922Y1015831D01*
G01X828296Y1002441D02*
X832531D01*
G01X829141Y999051D02*
X832531Y1002441D01*
G01X804528Y979429D02*
X805315D01*
X808169Y982283D01*
X810433D01*
G01X862220Y1019882D02*
Y1019795D01*
X857480Y1015055D01*
Y1008661D01*
X858661Y1007480D01*
X867571D01*
X872531Y1012441D01*
G01X856299Y1016594D02*
X855701D01*
X854134Y1018161D01*
Y1025000D01*
X855512Y1026378D01*
X860217D01*
G01X817638Y985571D02*
X817406D01*
X814118Y982283D01*
X814071D01*
G01X846260Y983661D02*
X889370D01*
X921063Y951969D01*
X955512D01*
X956890Y950591D01*
Y904921D01*
X954921Y902953D01*
G01X826929Y1028543D02*
Y1032283D01*
G01X835748Y1027559D02*
X834567Y1026378D01*
X827756D01*
X826929Y1027205D01*
Y1028543D01*
G01X820866Y1038976D02*
Y1034252D01*
X822244Y1032874D01*
G01X826929Y1032283D02*
X822835D01*
X822244Y1032874D01*
G01X860217Y1031102D02*
X858661Y1032657D01*
Y1042323D01*
X858071Y1042913D01*
X846657D01*
X846067Y1042323D01*
Y1038976D01*
G01X860630Y1037795D02*
Y1042028D01*
X858563Y1044094D01*
X845854D01*
X844488Y1042728D01*
Y1038976D01*
G01X850787D02*
Y1034449D01*
X849409Y1033071D01*
G01X847638Y1038976D02*
Y1034843D01*
X847815Y1034665D01*
Y1034618D01*
X849362Y1033071D01*
X849409D01*
G01X817717Y1038976D02*
Y1033465D01*
X818110Y1033071D01*
G01X819287Y1038976D02*
Y1034248D01*
X818110Y1033071D01*
G01X831890Y1038976D02*
Y1034795D01*
G01X808268Y1038976D02*
Y1033756D01*
X808756Y1033268D01*
G01X808858Y1029331D02*
Y1033165D01*
X808756Y1033268D01*
G01X845083Y1091547D02*
X845079Y1091551D01*
G01X849209Y1099606D02*
Y1095425D01*
G01X820866Y1099606D02*
Y1103608D01*
X823780Y1106521D01*
Y1107874D01*
G01D02*
X828346D01*
G01X817091Y1116535D02*
Y1116134D01*
X820335Y1112889D01*
Y1104747D01*
X819287Y1103700D01*
Y1099606D01*
G01X817091Y1116535D02*
Y1120366D01*
X819165Y1122441D01*
X819213D01*
G01X818504Y1127953D02*
X816921D01*
X812988Y1124020D01*
Y1099606D01*
G01X815022Y1128937D02*
Y1128339D01*
X811417Y1124733D01*
Y1099606D01*
G01X809252Y1107480D02*
Y1105559D01*
X809839Y1104972D01*
Y1099606D01*
G01X806102Y1107386D02*
Y1105559D01*
X808268Y1103394D01*
Y1099606D01*
G01X835039D02*
Y1094094D01*
G01X817717Y1099606D02*
Y1095854D01*
X816547Y1094685D01*
G01X850787Y1099606D02*
Y1104331D01*
X850394Y1104724D01*
G01X809252Y1111024D02*
Y1125590D01*
X815748Y1132087D01*
X823819D01*
X825394Y1130512D01*
X831102D01*
G01X833661Y1130799D02*
Y1132874D01*
G01X818110Y1139567D02*
X816528D01*
X815937Y1138976D01*
G01D02*
X813480D01*
G01X829724Y1141732D02*
Y1138189D01*
X830315Y1137598D01*
G01D02*
X831693Y1136220D01*
Y1135197D01*
G01X832283Y1141732D02*
Y1138386D01*
X832874Y1137795D01*
G01D02*
X833661Y1137008D01*
Y1135197D01*
G01X831693Y1132874D02*
Y1131102D01*
X831102Y1130512D01*
G01X834843Y1141732D02*
Y1138583D01*
X835630Y1137795D01*
G01X861417Y808465D02*
X861024D01*
G01X858957Y851874D02*
X858858Y851776D01*
G01X913976Y861811D02*
X909638D01*
X906496Y864953D01*
Y873839D01*
X898768Y881567D01*
Y884598D01*
X898524Y884843D01*
G01X913976Y871654D02*
X910354D01*
X900492Y881516D01*
Y884843D01*
G01X879528Y911220D02*
X883268D01*
X886811Y914764D01*
X894094D01*
X894587Y914272D01*
Y912008D01*
G01X879528Y911220D02*
X875197D01*
X875000Y911417D01*
G01D02*
X872047D01*
G01X910335Y912008D02*
Y953937D01*
G01X894291Y987008D02*
X924606Y956693D01*
X968307D01*
X970728Y954272D01*
Y895531D01*
X953441Y878244D01*
X911028D01*
X906398Y882874D01*
Y884843D01*
G01X904429D02*
Y882276D01*
X905661Y881043D01*
X906555D01*
X910535Y877063D01*
X953933D01*
X971909Y895039D01*
Y954764D01*
X968799Y957874D01*
X925980D01*
X892457Y991398D01*
X864508D01*
X862531Y993374D01*
Y1002441D01*
G01X858957Y861189D02*
X858969Y861201D01*
G01X900492Y912008D02*
Y915256D01*
G01X902461Y912008D02*
Y915433D01*
X902677Y915650D01*
G01X904252Y936024D02*
Y930984D01*
X905118Y930118D01*
Y915650D01*
X904429Y914961D01*
Y912008D01*
G01X859646Y907874D02*
X859744D01*
X860138Y907480D01*
X884744D01*
X886516Y909252D01*
X889862D01*
G01X908366Y912008D02*
Y927933D01*
X908386Y927953D01*
G01X906398Y932264D02*
Y912008D01*
G01Y878740D02*
X905276Y879862D01*
X904583D01*
X902461Y881984D01*
Y884843D01*
G01X874803Y882677D02*
Y883079D01*
X877748Y886024D01*
X879528D01*
X881299Y887795D01*
X884744D01*
X886516Y889567D01*
X889862D01*
G01Y891535D02*
X886417D01*
X884252Y889370D01*
X880709D01*
X878740Y887402D01*
X871654D01*
X867795Y891260D01*
Y891654D01*
G01X885827Y958268D02*
X885039Y957480D01*
X871063D01*
X870079Y956496D01*
G01X905768Y950925D02*
X863248D01*
X862126Y949803D01*
G01X866142Y944291D02*
X867264Y945413D01*
X905039D01*
X906299Y944154D01*
G01X908386Y956299D02*
Y927953D01*
G01X862220Y1019882D02*
Y1020157D01*
X861063Y1021315D01*
Y1023917D01*
G01X862531Y1012441D02*
Y1016862D01*
X864213Y1018543D01*
Y1023917D01*
G01X879961D02*
Y1019642D01*
X880902Y1018701D01*
G01X882531Y1012441D02*
Y1017071D01*
X880902Y1018701D01*
G01X892531Y1012441D02*
X887571Y1007480D01*
X879724D01*
X877402Y1009803D01*
Y1021252D01*
X876811Y1021843D01*
Y1023917D01*
G01X895709D02*
Y1021319D01*
X897390Y1019638D01*
X901173D01*
X902531Y1018280D01*
Y1012441D01*
G01X922531D02*
X916665Y1018307D01*
X910433D01*
X907677Y1015551D01*
Y1009843D01*
X905315Y1007480D01*
X899803D01*
X897638Y1009646D01*
Y1017717D01*
X894134Y1021220D01*
Y1023917D01*
G01X888346Y1015945D02*
Y1025087D01*
X889638Y1026378D01*
X891713D01*
G01X862988Y1052756D02*
X867126D01*
X878346Y1041535D01*
X889756D01*
X894134Y1037157D01*
Y1033563D01*
G01X879961D02*
Y1026969D01*
X880551Y1026378D01*
X881890D01*
G01X878898Y1037402D02*
X878937D01*
X879961Y1036378D01*
Y1033563D01*
G01X871260Y1055512D02*
X870866Y1055906D01*
X862988D01*
G01X875984Y1046850D02*
Y1054921D01*
X875394Y1055512D01*
X871260D01*
G01X876811Y1033563D02*
Y1039724D01*
X866929Y1049606D01*
X862988D01*
G01Y1051177D02*
X867031D01*
X878839Y1039370D01*
X886815D01*
X890945Y1035240D01*
Y1031870D01*
X891713Y1031102D01*
G01X868898Y1044094D02*
Y1045878D01*
X866740Y1048035D01*
X862988D01*
G01X895709Y1033563D02*
Y1042681D01*
X893173Y1045217D01*
X880256D01*
X879134Y1044094D01*
G01X862988Y1044886D02*
Y1036724D01*
X861063Y1034799D01*
Y1033563D01*
G01X864213D02*
Y1041382D01*
X866929Y1044098D01*
Y1045866D01*
X866339Y1046457D01*
X862988D01*
G01X881535Y1033563D02*
Y1037598D01*
G01X866634Y1031102D02*
X869685D01*
X870472Y1031890D01*
G01X866634Y1031102D02*
Y1029528D01*
G01X882382D02*
Y1031102D01*
G01D02*
X886220D01*
X886417Y1031299D01*
G01X862988Y1066925D02*
X866933D01*
X867323Y1066535D01*
G01X862988Y1054327D02*
X868854D01*
X871260Y1051921D01*
Y1051874D01*
G01X862988Y1073228D02*
X868898D01*
G01X862988Y1074807D02*
X867319D01*
X868898Y1073228D01*
G01X898130Y1031102D02*
Y1029528D01*
G01Y1031102D02*
X900583D01*
X900681Y1031201D01*
X901083D01*
X901969Y1032087D01*
G01X898130Y1027953D02*
X901575D01*
X901969Y1027559D01*
G01X882382Y1027953D02*
X885433D01*
X886417Y1026969D01*
G01D02*
Y1027016D01*
X888339Y1028937D01*
G01X866634Y1027953D02*
X870276D01*
X870669Y1027559D01*
G01X872811Y1029748D02*
X870669Y1027606D01*
Y1027559D01*
G01X862988Y1092126D02*
X866000D01*
X869937Y1096063D01*
X869984D01*
G01X865945Y1100000D02*
X869488D01*
G01X862402D02*
X865945D01*
G01X869488D02*
X869291Y1100197D01*
G01X871063Y1100000D02*
X869488D01*
G01X870669Y1082874D02*
Y1084654D01*
X867917Y1087406D01*
X862988D01*
G01X869984Y1092520D02*
X869937D01*
X867965Y1090547D01*
X862988D01*
G01Y1085827D02*
X866591D01*
X867913Y1084504D01*
Y1079772D01*
X868945Y1078740D01*
X870772D01*
G01X862988Y1088976D02*
X870472D01*
G01X865945Y1103638D02*
Y1105465D01*
X865110Y1106299D01*
G01X862402Y1103543D02*
Y1106496D01*
X861417Y1107480D01*
G01X874307Y1082874D02*
Y1084795D01*
X874346Y1084835D01*
Y1086417D01*
G01X886827Y1135374D02*
X888862D01*
X890071Y1134165D01*
Y1123709D01*
G01D02*
X890157Y1123622D01*
G01X883069Y1138930D02*
Y1135494D01*
X883189Y1135374D01*
G01X878952Y1139409D02*
X882589D01*
X883069Y1138930D01*
G01X878952Y1139409D02*
Y1136925D01*
X877657Y1135630D01*
G01X869980D02*
X868307D01*
G01X886707Y1138930D02*
Y1135494D01*
X886827Y1135374D01*
G01X970276Y854134D02*
X963280D01*
X962205Y853059D01*
Y851378D01*
G01X960236D02*
X956496D01*
X955906Y850787D01*
G01D02*
X953543D01*
G01X964173Y851378D02*
Y847047D01*
G01X923819Y868701D02*
X923717Y868803D01*
X921063D01*
G01X923622Y864370D02*
X923520Y864268D01*
X920866D01*
G01X921063Y868803D02*
Y866976D01*
X920866Y866780D01*
Y864268D01*
G01Y860630D02*
X915157D01*
X913976Y861811D01*
G01X921063Y872441D02*
X919102D01*
X918315Y871654D01*
X913976D01*
G01X960236Y937992D02*
Y902756D01*
X952953Y895472D01*
X917028D01*
G01X966142Y860827D02*
Y862795D01*
X966732Y863386D01*
G01X963386Y917520D02*
Y901181D01*
X953740Y891535D01*
X948976D01*
G01D02*
X917028D01*
G01X964173Y860827D02*
Y867126D01*
G01X944409Y893504D02*
X917028D01*
G01X914272Y912008D02*
Y947638D01*
G01X917028Y909252D02*
Y947047D01*
G01X912283Y950591D02*
Y948142D01*
X912303Y948122D01*
Y912008D01*
G01X963386Y898283D02*
X954669Y889567D01*
G01D02*
X917028D01*
G01X966043Y950000D02*
Y948417D01*
X966240Y948220D01*
Y896063D01*
X951965Y881787D01*
X913709D01*
X912303Y883193D01*
Y884843D01*
G01X963976Y952362D02*
Y948622D01*
X965059Y947539D01*
Y896555D01*
X951472Y882969D01*
X917531D01*
X915657Y884843D01*
X914272D01*
G01X917028Y901378D02*
X950709D01*
G01X921063Y910236D02*
Y909669D01*
X918677Y907283D01*
X917028D01*
G01X960039Y947638D02*
X958268Y945866D01*
Y903150D01*
X952559Y897441D01*
X917028D01*
G01Y899409D02*
X951378D01*
X954921Y902953D01*
G01X917028Y903346D02*
X945669D01*
G01X937598Y965945D02*
Y963189D01*
X939173Y961614D01*
X971850D01*
X975591Y957874D01*
Y894488D01*
X977638Y892441D01*
X982610D01*
G01X931890Y965945D02*
X931988D01*
X937697Y960236D01*
X970272D01*
X974409Y956098D01*
Y890642D01*
X982610Y882441D01*
G01Y902441D02*
X976969Y908083D01*
Y959055D01*
X972638Y963386D01*
X948630D01*
X946071Y965945D01*
X943307D01*
G01X926181D02*
X926280D01*
X933169Y959055D01*
X969291D01*
X973228Y955118D01*
Y881823D01*
X982610Y872441D01*
G01X937157Y982169D02*
X939370Y984382D01*
Y985827D01*
G01X937598Y972244D02*
Y974961D01*
X937638Y975000D01*
G01X939370Y991732D02*
Y994102D01*
X939795Y994528D01*
X942657D01*
X943701Y993484D01*
G01D02*
X943780Y993406D01*
G01X943701Y1005709D02*
X955697D01*
X956181Y1005224D01*
Y998425D01*
G01X932283Y989567D02*
X934449Y991732D01*
X937402D01*
G01D02*
Y995472D01*
X940354Y998425D01*
X947638D01*
G01D02*
X951181D01*
G01X947441Y998228D02*
X947638Y998425D01*
G01X945839Y975276D02*
Y974677D01*
X943406Y972244D01*
X943307D01*
G01X921260Y972441D02*
X917520Y976181D01*
Y979724D01*
X912531Y984713D01*
Y1002441D01*
G01X931890Y972244D02*
X931969Y972323D01*
Y975197D01*
G01X958661Y990945D02*
X959764D01*
X961181Y992362D01*
Y998425D01*
G01X958661Y990945D02*
X942126D01*
X941339Y991732D01*
G01X926181Y975402D02*
Y972244D01*
G01X922531Y1002441D02*
Y979051D01*
X926181Y975402D01*
G01X940941Y981689D02*
X941339Y982087D01*
Y985827D01*
G01X966181Y998425D02*
Y993898D01*
X963622Y991339D01*
G01X925197Y979134D02*
Y995106D01*
X932531Y1002441D01*
G01X927654Y1020079D02*
Y1022299D01*
X927756Y1022402D01*
G01X932531Y1012441D02*
Y1019004D01*
X929134Y1022402D01*
X927756D01*
G01X947555Y1018437D02*
X944791D01*
G01X942126Y1025984D02*
X959535D01*
X962555Y1022965D01*
Y1018437D01*
G01D02*
Y1009843D01*
G01X951772Y1011146D02*
Y1011224D01*
X952555Y1012008D01*
Y1018437D01*
G01X936220Y1020472D02*
Y1024016D01*
G01X957555Y1018437D02*
Y1011327D01*
G01D02*
Y1009075D01*
X957575Y1009055D01*
G01X919252Y1022402D02*
X927756D01*
G01X936220Y1025984D02*
X933465D01*
G01D02*
X925886D01*
X924409Y1024508D01*
X922638D01*
G01X933465Y1025984D02*
X932913Y1025433D01*
Y1024402D01*
G01X942126Y1027953D02*
X944701D01*
G01X942126Y1024016D02*
X943228D01*
X944409Y1022835D01*
G01X992520Y838122D02*
Y838780D01*
G01X989130Y838972D02*
X992520Y842362D01*
G01D02*
X995910Y845752D01*
G01X989130Y848972D02*
X992520Y852362D01*
G01D02*
X995910Y855752D01*
G01X1009740Y967520D02*
Y890449D01*
X1001732Y882441D01*
X992610D01*
G01Y958201D02*
Y958858D01*
G01X988370Y962441D02*
X989173D01*
G01X992610D02*
Y966676D01*
G01X989220Y959051D02*
X992610Y962441D01*
G01Y922441D02*
X998421D01*
X1000197Y924217D01*
Y965551D01*
X997441Y968307D01*
X989961D01*
X987598Y970669D01*
Y973622D01*
G01X981732D02*
X978969D01*
X978346Y973000D01*
Y916705D01*
X982610Y912441D01*
G01X981732Y979921D02*
Y990146D01*
X974508Y997370D01*
G01X981732Y979921D02*
X987598D01*
G01X974508Y997370D02*
X973453Y998425D01*
X971181D01*
G01X974508Y997343D02*
Y997370D01*
G01X1000787Y979232D02*
Y972787D01*
X1006055Y967520D01*
X1006102D01*
G01X1007087Y1143895D02*
Y1152362D01*
G01X998619D02*
X1007087D01*
G54D17*
X804528Y979429D03*
Y995965D03*
G54D62*
X859547Y1148031D03*
X876083D03*
G54D53*
X888878Y930118D03*
X895177D03*
G54D44*
X902165Y794488D03*
G54D35*
X839764Y1119488D03*
G54D26*
G01X790945Y638681D02*
Y579626D01*
X1086220D01*
Y638681D01*
X790945D01*
G01X938583D02*
Y579626D01*
G01Y599311D02*
X1086220D01*
G01Y618996D02*
X938583D01*
G01X988488D02*
Y599311D01*
X798169Y1106024D03*
X802165Y1136024D03*
X794173D03*
G54D71*
X941339Y985827D03*
X939370D03*
X937402D03*
X939173Y1023031D03*
G54D81*
G01X812598Y852362D02*
Y856602D01*
G01Y852362D02*
X808358D01*
G01X812598D02*
Y848122D01*
G01Y847236D02*
Y842362D01*
G01D02*
Y838122D01*
G01Y842362D02*
X816839D01*
G01X812598D02*
X808358D01*
G01X816339Y852362D02*
X812598D01*
G01X818291Y952441D02*
X822531D01*
G01D02*
X826772D01*
G01X822531D02*
Y948201D01*
G01Y955709D02*
Y952441D01*
G01X832531Y1012441D02*
X836772D01*
G01X828291D02*
X832531D01*
G01Y1008201D02*
Y1012441D01*
G01X827756Y1002559D02*
X832413D01*
X832531Y1002441D01*
G01D02*
X836772D01*
G01X832531Y1007315D02*
Y1002441D01*
G01Y999016D02*
Y1002441D01*
G01Y1016626D02*
Y1012441D01*
G01X988280Y852362D02*
X992520D01*
G01D02*
X996760D01*
G01X992520D02*
Y856602D01*
G01Y852362D02*
Y842362D01*
G01D02*
X996760D01*
G01X987441D02*
X992520D01*
G01Y838780D02*
Y842362D01*
G01X992610Y962441D02*
X996850D01*
G01X992610Y958858D02*
Y962441D01*
G01X989173D02*
X992610D01*
G54D18*
X797441Y974409D03*
Y1000984D03*
G54D72*
X947555Y1018437D03*
X952555D03*
X957555D03*
X962555D03*
X967555D03*
X947555Y1033594D03*
X952555D03*
X957555D03*
X962555D03*
X967555D03*
G54D54*
X891240Y924213D03*
Y917913D03*
X887192Y1130041D03*
Y1123741D03*
X926181Y965945D03*
X931890D03*
X937598D03*
X943307D03*
X926181Y972244D03*
X931890D03*
X937598D03*
X943307D03*
X981732Y979921D03*
Y973622D03*
X987598Y979921D03*
Y973622D03*
G54D45*
X902165Y799567D03*
Y801772D03*
G54D36*
X843898Y1116535D03*
Y1118504D03*
Y1120472D03*
Y1122441D03*
X835630Y1116535D03*
Y1118504D03*
Y1120472D03*
Y1122441D03*
G54D27*
X849016Y851776D03*
Y845866D03*
X858858Y851776D03*
Y845866D03*
G54D63*
X963189Y856102D03*
G54D82*
G01X877756Y931693D02*
Y931299D01*
X882677Y926378D01*
G01X877756Y931693D02*
Y934843D01*
G54D64*
X966142Y851378D03*
X964173D03*
X962205D03*
X960236D03*
X966142Y860827D03*
X964173D03*
X962205D03*
X960236D03*
G54D55*
X901181Y926969D03*
Y919882D03*
G54D28*
X812598Y852362D03*
Y842362D03*
Y832362D03*
X822531Y872441D03*
Y882441D03*
Y892441D03*
Y902441D03*
Y912441D03*
X812531Y872441D03*
Y882441D03*
Y892441D03*
Y902441D03*
Y912441D03*
X858969Y875248D03*
X848969D03*
X858969Y865248D03*
X848969D03*
X822531Y922441D03*
Y932441D03*
Y942441D03*
Y952441D03*
Y962441D03*
X812531Y922441D03*
Y932441D03*
Y942441D03*
Y952441D03*
Y962441D03*
X832531Y1002441D03*
X842531D03*
X852531D03*
X832531Y1012441D03*
X842531D03*
X852531D03*
X862531Y1002441D03*
X872531D03*
X882531D03*
X892531D03*
X902531D03*
X912531D03*
X862531Y1012441D03*
X872531D03*
X882531D03*
X892531D03*
X902531D03*
X912531D03*
X922531Y1002441D03*
X932531D03*
X922531Y1012441D03*
X932531D03*
X992520Y852362D03*
Y842362D03*
Y832362D03*
X992610Y872441D03*
Y882441D03*
Y892441D03*
Y902441D03*
Y912441D03*
X982610Y872441D03*
Y882441D03*
Y892441D03*
Y902441D03*
Y912441D03*
X992610Y922441D03*
Y932441D03*
Y942441D03*
Y952441D03*
Y962441D03*
X982610Y922441D03*
Y932441D03*
Y942441D03*
Y952441D03*
Y962441D03*
X983858Y1002441D03*
Y1012441D03*
Y1022441D03*
G54D19*
X792323Y1044091D03*
Y1050000D03*
X796063Y1044091D03*
Y1050000D03*
G54D73*
X966181Y998425D03*
X961181D03*
X956181D03*
X951181D03*
X966181Y983268D03*
X961181D03*
X956181D03*
X951181D03*
X971181Y998425D03*
Y983268D03*
G54D37*
X850787Y1128740D03*
Y1114961D03*
G54D46*
X906024Y804921D03*
X902165D03*
G54D65*
X946850Y829331D03*
X968898D03*
Y807283D03*
X946850D03*
G54D47*
X889862Y887598D03*
Y889567D03*
Y891535D03*
Y893504D03*
Y895472D03*
Y897441D03*
Y899409D03*
Y901378D03*
Y903346D03*
Y905315D03*
Y907283D03*
Y909252D03*
X917028D03*
Y907283D03*
Y905315D03*
Y903346D03*
Y901378D03*
Y899409D03*
Y897441D03*
Y895472D03*
Y893504D03*
Y891535D03*
Y889567D03*
Y887598D03*
G54D56*
X897638Y1026378D03*
X866142D03*
X881890D03*
G54D74*
X1000787Y995768D03*
Y979232D03*
G54D38*
X854528Y1155118D03*
X881102D03*
G54D29*
X857087Y1038976D03*
X855508D03*
X853937D03*
X852358D03*
X850787D03*
X849209D03*
X847638D03*
X846067D03*
X844488D03*
X842917D03*
X841339D03*
X839768D03*
X838189D03*
X836618D03*
X835039D03*
X833469D03*
X831890D03*
X830319D03*
X828736D03*
X827169D03*
X825587D03*
X824016D03*
X822437D03*
X820866D03*
X819287D03*
X817717D03*
X816138D03*
X814567D03*
X812988D03*
X811417D03*
X809839D03*
X808268D03*
Y1099606D03*
X809839D03*
X811417D03*
X812988D03*
X814567D03*
X816138D03*
X817717D03*
X819287D03*
X820866D03*
X822437D03*
X824016D03*
X825587D03*
X827169D03*
X828736D03*
X830319D03*
X831890D03*
X833469D03*
X835039D03*
X836618D03*
X838189D03*
X839768D03*
X841339D03*
X842917D03*
X844488D03*
X846067D03*
X847638D03*
X849209D03*
X850787D03*
X852358D03*
X853937D03*
X855508D03*
X857087D03*
G54D48*
X892618Y912008D03*
X894587D03*
X896555D03*
X898524D03*
X900492D03*
X902461D03*
X904429D03*
X906398D03*
X908366D03*
X910335D03*
X912303D03*
Y884843D03*
X910335D03*
X908366D03*
X906398D03*
X904429D03*
X902461D03*
X900492D03*
X898524D03*
X896555D03*
X894587D03*
X892618D03*
X914272Y912008D03*
Y884843D03*
G54D66*
X957874Y818307D03*
G54D39*
X847835Y1152165D03*
X816732D03*
G54D57*
X897283Y1023917D03*
X895709D03*
X894134D03*
X892559D03*
Y1033563D03*
X894134D03*
X895709D03*
X897283D03*
X865787Y1023917D03*
X864213D03*
X862638D03*
X861063D03*
Y1033563D03*
X862638D03*
X864213D03*
X865787D03*
X881535Y1023917D03*
X879961D03*
X878386D03*
X876811D03*
Y1033563D03*
X878386D03*
X879961D03*
X881535D03*
G54D75*
X1007874Y1000787D03*
Y974213D03*
G54D76*
G01X796457Y1064567D02*
X797244Y1065354D01*
X802358D01*
G01X796457Y1064567D02*
Y1060433D01*
G01X802358Y1065354D02*
X813189D01*
X822437Y1074602D01*
Y1099606D01*
G01X796457Y1060433D02*
Y1056102D01*
X796260Y1055906D01*
G01X794882Y1071457D02*
Y1070866D01*
X796220Y1069528D01*
Y1069094D01*
G01X804409Y1028346D02*
Y1030681D01*
X805118Y1031390D01*
Y1033268D01*
G01X853937Y1104724D02*
Y1105512D01*
X855906Y1107480D01*
G01X852358Y1099606D02*
Y1102539D01*
X853937Y1104118D01*
Y1104724D01*
G01X825000Y1137992D02*
X824803Y1137795D01*
G01X899110Y877953D02*
X897488Y879575D01*
Y882102D01*
X896555Y883035D01*
Y884843D01*
G01X876083Y1148031D02*
Y1143602D01*
X876181Y1143504D01*
G01X879819D02*
Y1144976D01*
X881299Y1146457D01*
G54D58*
X891713Y1026378D03*
Y1027953D03*
Y1029528D03*
Y1031102D03*
X898130D03*
Y1029528D03*
Y1027953D03*
X860217Y1026378D03*
Y1027953D03*
Y1029528D03*
Y1031102D03*
X866634D03*
Y1029528D03*
Y1027953D03*
X875965Y1026378D03*
Y1027953D03*
Y1029528D03*
Y1031102D03*
X882382D03*
Y1029528D03*
Y1027953D03*
G54D49*
X903445Y898425D03*
G54D67*
X950787Y854134D03*
Y860433D03*
G54D77*
G01X800577Y860813D02*
X800579Y860815D01*
X798217Y863177D01*
X798215Y863176D01*
G01X795854Y865539D02*
X798217Y863177D01*
X798215Y863176D01*
G01X848917Y855315D02*
Y851874D01*
G01Y858953D02*
Y865197D01*
X848969Y865248D01*
G01X849409Y1033071D02*
Y1030709D01*
G01X822244Y1029331D02*
Y1027165D01*
G01X814370Y1033071D02*
X818110D01*
G01X814370D02*
X812992D01*
X811811Y1031890D01*
G01X806102Y1111024D02*
Y1114370D01*
G01X835630Y1117520D02*
Y1118504D01*
G01Y1116535D02*
Y1113780D01*
G01Y1117520D02*
Y1116535D01*
G01X850394Y1104724D02*
Y1106693D01*
G01X831102Y1122142D02*
X832772Y1120472D01*
X835630D01*
G01X837402Y1129921D02*
X836417Y1128937D01*
X834449D01*
X831102Y1125591D01*
Y1122142D01*
G01X835630Y1122441D02*
Y1124213D01*
X837402Y1125984D01*
G01X845276Y1126181D02*
Y1126161D01*
X847307Y1124130D01*
Y1121413D01*
X846366Y1120472D01*
X843898D01*
G01Y1116535D02*
X846547D01*
X848122Y1114961D01*
X850787D01*
G01X843898Y1116535D02*
Y1113780D01*
G01X850787Y1114961D02*
Y1110433D01*
G01Y1114961D02*
X852362Y1113386D01*
X854134D01*
X855709Y1111811D01*
X857283D01*
G01X837992Y1135921D02*
X837598Y1136315D01*
G01D02*
Y1141535D01*
X837402Y1141732D01*
G01X829724Y1135197D02*
X828953Y1135969D01*
X827614D01*
X827165Y1136417D01*
G01X824803Y1137795D02*
Y1135827D01*
X827756Y1132874D01*
X829724D01*
G01X858957Y855118D02*
Y851874D01*
G01X893504Y859055D02*
Y856299D01*
G01Y852661D02*
Y849409D01*
G01X898524Y912008D02*
Y917224D01*
X901181Y919882D01*
G01X895571Y917913D02*
X896555Y916929D01*
Y912008D01*
G01X882185Y898524D02*
X883858Y896850D01*
Y896260D01*
G01X889862Y895472D02*
X886575D01*
X885984Y896063D01*
X883858D01*
Y896260D01*
G01X889862Y887598D02*
X887205D01*
X886846Y887240D01*
X886799D01*
X885039Y885480D01*
Y885433D01*
G01D02*
X882874D01*
G01X883858Y893504D02*
X882677Y892323D01*
Y891240D01*
G01X883858Y893504D02*
X889862D01*
G01X858957Y858756D02*
Y861189D01*
G01X858969Y861201D02*
Y865248D01*
G01X899110Y877953D02*
Y875299D01*
X899213Y875197D01*
G01X891835Y880709D02*
Y878055D01*
X891732Y877953D01*
G01X891835Y880709D02*
X892618Y881492D01*
Y884843D01*
G01X891732Y875197D02*
Y877953D01*
G01X893504Y869591D02*
X895472Y871559D01*
G01X893504Y869591D02*
Y868307D01*
G01D02*
Y865551D01*
G01X891732Y871559D02*
X893504Y869787D01*
Y869591D01*
G01Y861913D02*
Y859055D01*
G01X895472Y875197D02*
Y877953D01*
G01X894587Y884843D02*
Y881594D01*
X895472Y880709D01*
G01D02*
Y877953D01*
G01X895571Y921551D02*
Y924508D01*
X895866Y924803D01*
G01X891240Y924213D02*
Y927461D01*
X891732Y927953D01*
G01X891240Y917913D02*
X887205D01*
G01X895571D02*
X891240D01*
G01X879528Y914858D02*
X882835D01*
G01X873031Y1032874D02*
X872047Y1031890D01*
X870472D01*
G01X888780Y1032283D02*
X887795Y1031299D01*
X886417D01*
G01X871260Y1051874D02*
X873134D01*
G01X870866Y1073228D02*
Y1074343D01*
X870854Y1074354D01*
Y1075106D01*
G01X870866Y1073228D02*
X868898D01*
G01X872835D02*
X870866D01*
G01X901969Y1032087D02*
X901378D01*
X899409Y1034055D01*
G01X901969Y1027559D02*
X905118D01*
X907677Y1025000D01*
G01X901969Y1027559D02*
Y1028937D01*
X901378Y1029528D01*
G01X859543Y1107480D02*
X861417D01*
G01X873622Y1092520D02*
Y1094291D01*
G01D02*
Y1096063D01*
G01Y1094291D02*
X875409D01*
G01X950787Y848425D02*
Y854134D01*
G01Y848425D02*
X951969Y847244D01*
X955906D01*
G01X960630Y847047D02*
X960433Y847244D01*
X955906D01*
G01X917028Y905315D02*
X921063D01*
X921260Y905512D01*
G01D02*
Y906496D01*
X922047Y907283D01*
G01X918898Y885236D02*
X922047D01*
X922441Y884843D01*
G01X917028Y887598D02*
X919685D01*
X920634Y886650D01*
Y886602D01*
X922394Y884843D01*
X922441D01*
G01X957480Y865551D02*
X954528D01*
X953937Y866142D01*
G01X962205Y860827D02*
Y864370D01*
X961024Y865551D01*
G01X960236Y860827D02*
X958378D01*
X957984Y861220D01*
X955906D01*
G01D02*
X951575D01*
X950787Y860433D01*
G01X936417Y988780D02*
X935433D01*
X933268Y986614D01*
Y986024D01*
G01X939213Y1032283D02*
Y1028976D01*
X939173Y1028937D01*
G01X1009843Y1000984D02*
X1007776D01*
X1002756Y995965D01*
G01X973071Y1020370D02*
X968736D01*
X967555Y1019189D01*
G01D02*
Y1018437D01*
G01X970079Y1024213D02*
X967555Y1021689D01*
Y1019189D01*
G54D59*
X877657Y1123819D03*
X875098D03*
X872539D03*
X869980D03*
X877657Y1135630D03*
X875098D03*
X872539D03*
X869980D03*
G54D68*
X942323Y988780D03*
X942126Y1024016D03*
Y1025984D03*
Y1027953D03*
G54D78*
G01X902165Y801772D02*
Y804921D01*
G01Y799567D02*
Y794488D01*
G01Y821457D02*
Y829220D01*
X893504Y837882D01*
Y849409D01*
G01X957874Y818307D02*
X909000D01*
X905850Y821457D01*
X905803D01*
G01X902165Y811323D02*
Y808465D01*
G01Y804921D02*
Y808465D01*
G01Y817819D02*
Y814961D01*
G54D69*
X936417Y988780D03*
X936220Y1024016D03*
Y1025984D03*
Y1027953D03*
G54D79*
G01X799213Y1014173D02*
X804134D01*
G01X799213D02*
X793504D01*
G01X799213D02*
Y1018307D01*
G01Y1014173D02*
Y1009055D01*
G01X825295Y1125098D02*
X822638Y1127756D01*
G01X835630Y1117520D02*
X832087D01*
X831102Y1118504D01*
G01D02*
X828831D01*
X826623Y1120711D01*
Y1123770D01*
X825295Y1125098D01*
G01X857283Y1117323D02*
Y1118543D01*
G01D02*
X855906Y1119921D01*
Y1120079D01*
G01X858268D02*
Y1119528D01*
X857283Y1118543D01*
G01X861417Y1123228D02*
X859179D01*
X856685Y1120735D01*
Y1119423D01*
X857283Y1118824D01*
Y1118543D01*
G01X882677Y920866D02*
Y917913D01*
G01D02*
Y915016D01*
X882835Y914858D01*
G01X901181Y926969D02*
X898031Y930118D01*
X895177D01*
G01D02*
X895748Y930689D01*
Y933858D01*
G01D02*
X892913D01*
G01X865161Y1123819D02*
X869980D01*
G01D02*
X870267D01*
G01X861417Y1123228D02*
X864374D01*
X864965Y1123819D01*
X865161D01*
G01X951181Y983268D02*
Y975591D01*
G01X967555Y1033594D02*
Y1040713D01*
M02*
