G04 ================== begin FILE IDENTIFICATION RECORD ==================*
G04 Layout Name:  LAUNCHXL-CC1310.brd*
G04 Film Name:    LAUNCHXL-CC1310_soldmask_top*
G04 File Format:  Gerber RS274X*
G04 File Origin:  Cadence Allegro 17.2-S024*
G04 Origin Date:  Tue Feb 18 08:08:47 2020*
G04 *
G04 Layer:  DRAWING FORMAT/TITLE_BLOCK*
G04 Layer:  BOARD GEOMETRY/TOP SOLDER MASK*
G04 Layer:  PACKAGE GEOMETRY/SOLDERMASK_TOP*
G04 Layer:  VIA CLASS/SOLDERMASK_TOP*
G04 Layer:  PIN/SOLDERMASK_TOP*
G04 Layer:  BOARD GEOMETRY/OUTLINE*
G04 *
G04 Offset:    (0.0000 0.0000)*
G04 Mirror:    No*
G04 Mode:      Positive*
G04 Rotation:  0*
G04 FullContactRelief:  No*
G04 UndefLineWidth:     0.0990*
G04 ================== end FILE IDENTIFICATION RECORD ====================*
%FSLAX25Y25*MOIN*%
%IR0*IPPOS*OFA0.00000B0.00000*MIA0B0*SFA1.00000B1.00000*%
%AMMACRO33*
4,1,41,.014764,0.0,
.014764,.007283,
.014653,.008548,
.014325,.009775,
.013788,.010925,
.01306,.011965,
.012162,.012863,
.011122,.013591,
.009971,.014128,
.008745,.014456,
.00748,.014567,
-.00748,.014567,
-.008745,.014456,
-.009971,.014128,
-.011122,.013591,
-.012162,.012863,
-.01306,.011965,
-.013788,.010925,
-.014325,.009775,
-.014653,.008548,
-.014764,.007283,
-.014764,-.007283,
-.014653,-.008548,
-.014325,-.009775,
-.013788,-.010925,
-.01306,-.011965,
-.012162,-.012863,
-.011122,-.013591,
-.009971,-.014128,
-.008745,-.014456,
-.00748,-.014567,
.00748,-.014567,
.008745,-.014456,
.009971,-.014128,
.011122,-.013591,
.012162,-.012863,
.01306,-.011965,
.013788,-.010925,
.014325,-.009775,
.014653,-.008548,
.014764,-.007283,
.014764,0.0,
0.0*
%
%ADD33MACRO33*%
%AMMACRO32*
4,1,41,-.020709,0.0,
-.020709,-.008898,
-.020565,-.010437,
-.020156,-.011929,
-.019494,-.013326,
-.018599,-.014588,
-.0175,-.015675,
-.016228,-.016554,
-.014822,-.017199,
-.013326,-.017591,
-.011811,-.017717,
.011811,-.017717,
.013352,-.017586,
.014847,-.017191,
.01625,-.016541,
.01752,-.015658,
.018616,-.014568,
.019507,-.013304,
.020165,-.011904,
.020569,-.010412,
.020709,-.008898,
.020709,.008898,
.020565,.010437,
.020156,.011929,
.019494,.013326,
.018599,.014588,
.0175,.015675,
.016228,.016554,
.014822,.017199,
.013326,.017591,
.011811,.017717,
-.011811,.017717,
-.013352,.017586,
-.014847,.017191,
-.01625,.016541,
-.01752,.015658,
-.018616,.014568,
-.019507,.013304,
-.020165,.011904,
-.020569,.010412,
-.020709,.008898,
-.020709,0.0,
0.0*
%
%ADD32MACRO32*%
%AMMACRO30*
4,1,41,0.0,-.014764,
.007283,-.014764,
.008548,-.014653,
.009775,-.014325,
.010925,-.013788,
.011965,-.01306,
.012863,-.012162,
.013591,-.011122,
.014128,-.009971,
.014456,-.008745,
.014567,-.00748,
.014567,.00748,
.014456,.008745,
.014128,.009971,
.013591,.011122,
.012863,.012162,
.011965,.01306,
.010925,.013788,
.009775,.014325,
.008548,.014653,
.007283,.014764,
-.007283,.014764,
-.008548,.014653,
-.009775,.014325,
-.010925,.013788,
-.011965,.01306,
-.012863,.012162,
-.013591,.011122,
-.014128,.009971,
-.014456,.008745,
-.014567,.00748,
-.014567,-.00748,
-.014456,-.008745,
-.014128,-.009971,
-.013591,-.011122,
-.012863,-.012162,
-.011965,-.01306,
-.010925,-.013788,
-.009775,-.014325,
-.008548,-.014653,
-.007283,-.014764,
0.0,-.014764,
0.0*
%
%ADD30MACRO30*%
%AMMACRO63*
4,1,41,0.0,-.042323,
.021181,-.042323,
.024855,-.041998,
.028418,-.04104,
.031759,-.039478,
.034779,-.037359,
.037385,-.034749,
.039498,-.031725,
.041053,-.028381,
.042005,-.024817,
.042323,-.021181,
.042323,.021181,
.041998,.024855,
.04104,.028418,
.039478,.031759,
.037359,.034779,
.034749,.037385,
.031725,.039498,
.028381,.041053,
.024817,.042005,
.021181,.042323,
-.021181,.042323,
-.024855,.041998,
-.028418,.04104,
-.031759,.039478,
-.034779,.037359,
-.037385,.034749,
-.039498,.031725,
-.041053,.028381,
-.042005,.024817,
-.042323,.021181,
-.042323,-.021181,
-.041998,-.024855,
-.04104,-.028418,
-.039478,-.031759,
-.037359,-.034779,
-.034749,-.037385,
-.031725,-.039498,
-.028381,-.041053,
-.024817,-.042005,
-.021181,-.042323,
0.0,-.042323,
0.0*
%
%ADD63MACRO63*%
%AMMACRO23*
4,1,41,.013268,0.0,
.013268,.004331,
.013139,.005801,
.012757,.007226,
.012134,.008563,
.011287,.009772,
.010244,.010815,
.009035,.011661,
.007698,.012285,
.006273,.012667,
.004803,.012795,
-.004803,.012795,
-.006273,.012667,
-.007698,.012285,
-.009035,.011661,
-.010244,.010815,
-.011287,.009772,
-.012134,.008563,
-.012757,.007226,
-.013139,.005801,
-.013268,.004331,
-.013268,-.004331,
-.013139,-.005801,
-.012757,-.007226,
-.012134,-.008563,
-.011287,-.009772,
-.010244,-.010815,
-.009035,-.011661,
-.007698,-.012285,
-.006273,-.012667,
-.004803,-.012795,
.004803,-.012795,
.006273,-.012667,
.007698,-.012285,
.009035,-.011661,
.010244,-.010815,
.011287,-.009772,
.012134,-.008563,
.012757,-.007226,
.013139,-.005801,
.013268,-.004331,
.013268,0.0,
0.0*
%
%ADD23MACRO23*%
%AMMACRO20*
4,1,41,0.0,-.013268,
.004331,-.013268,
.005801,-.013139,
.007226,-.012757,
.008563,-.012134,
.009772,-.011287,
.010815,-.010244,
.011661,-.009035,
.012285,-.007698,
.012667,-.006273,
.012795,-.004803,
.012795,.004803,
.012667,.006273,
.012285,.007698,
.011661,.009035,
.010815,.010244,
.009772,.011287,
.008563,.012134,
.007226,.012757,
.005801,.013139,
.004331,.013268,
-.004331,.013268,
-.005801,.013139,
-.007226,.012757,
-.008563,.012134,
-.009772,.011287,
-.010815,.010244,
-.011661,.009035,
-.012285,.007698,
-.012667,.006273,
-.012795,.004803,
-.012795,-.004803,
-.012667,-.006273,
-.012285,-.007698,
-.011661,-.009035,
-.010815,-.010244,
-.009772,-.011287,
-.008563,-.012134,
-.007226,-.012757,
-.005801,-.013139,
-.004331,-.013268,
0.0,-.013268,
0.0*
%
%ADD20MACRO20*%
%AMMACRO57*
4,1,41,0.0,-.016732,
.003937,-.016732,
.004621,-.016672,
.005284,-.016495,
.005906,-.016205,
.006468,-.015811,
.006953,-.015326,
.007347,-.014764,
.007637,-.014142,
.007814,-.013479,
.007874,-.012795,
.007874,.012795,
.007814,.013479,
.007637,.014142,
.007347,.014764,
.006953,.015326,
.006468,.015811,
.005906,.016205,
.005284,.016495,
.004621,.016672,
.003937,.016732,
-.003937,.016732,
-.004621,.016672,
-.005284,.016495,
-.005906,.016205,
-.006468,.015811,
-.006953,.015326,
-.007347,.014764,
-.007637,.014142,
-.007814,.013479,
-.007874,.012795,
-.007874,-.012795,
-.007814,-.013479,
-.007637,-.014142,
-.007347,-.014764,
-.006953,-.015326,
-.006468,-.015811,
-.005906,-.016205,
-.005284,-.016495,
-.004621,-.016672,
-.003937,-.016732,
0.0,-.016732,
0.0*
%
%ADD57MACRO57*%
%AMMACRO26*
4,1,41,.017717,0.0,
.017717,.009606,
.01759,.011017,
.017221,.012384,
.01662,.013667,
.015806,.014826,
.014802,.015825,
.01364,.016636,
.012356,.017232,
.010987,.017596,
.009606,.017717,
-.009606,.017717,
-.011017,.01759,
-.012384,.017221,
-.013667,.01662,
-.014826,.015806,
-.015825,.014802,
-.016636,.01364,
-.017232,.012356,
-.017596,.010987,
-.017717,.009606,
-.017717,-.009606,
-.01759,-.011017,
-.017221,-.012384,
-.01662,-.013667,
-.015806,-.014826,
-.014802,-.015825,
-.01364,-.016636,
-.012356,-.017232,
-.010987,-.017596,
-.009606,-.017717,
.009606,-.017717,
.011017,-.01759,
.012384,-.017221,
.013667,-.01662,
.014826,-.015806,
.015825,-.014802,
.016636,-.01364,
.017232,-.012356,
.017596,-.010987,
.017717,-.009606,
.017717,0.0,
0.0*
%
%ADD26MACRO26*%
%ADD19O,.065X.011811*%
%AMMACRO45*
4,1,45,0.0,-.015748,
.00811,-.015748,
.009264,-.015649,
.010383,-.015351,
.011433,-.014863,
.012383,-.0142,
.013203,-.013382,
.013869,-.012435,
.01436,-.011386,
.014661,-.010268,
.014764,-.009114,
.014764,-.009094,
.014764,.009094,
.014665,.010248,
.014366,.011367,
.013879,.012418,
.013216,.013367,
.012398,.014187,
.01145,.014853,
.010402,.015344,
.009283,.015645,
.00813,.015748,
.00811,.015748,
-.00811,.015748,
-.009264,.015649,
-.010383,.015351,
-.011433,.014863,
-.012383,.0142,
-.013203,.013382,
-.013869,.012435,
-.01436,.011386,
-.014661,.010268,
-.014764,.009114,
-.014764,.009094,
-.014764,-.009094,
-.014665,-.010248,
-.014366,-.011367,
-.013879,-.012418,
-.013216,-.013367,
-.012398,-.014187,
-.01145,-.014853,
-.010402,-.015344,
-.009283,-.015645,
-.00813,-.015748,
-.00811,-.015748,
0.0,-.015748,
0.0*
%
%ADD45MACRO45*%
%ADD28O,.011811X.065*%
%ADD36O,.037402X.051181*%
%ADD29O,.041299X.021693*%
%ADD61R,.072835X.017717*%
%AMMACRO54*
4,1,41,.019685,0.0,
.019685,.002953,
.01964,.003465,
.019507,.003963,
.019289,.004429,
.018994,.004851,
.01863,.005215,
.018209,.00551,
.017742,.005727,
.017245,.005861,
.016732,.005906,
-.016732,.005906,
-.017245,.005861,
-.017742,.005727,
-.018209,.00551,
-.01863,.005215,
-.018994,.004851,
-.019289,.004429,
-.019507,.003963,
-.01964,.003465,
-.019685,.002953,
-.019685,-.002953,
-.01964,-.003465,
-.019507,-.003963,
-.019289,-.004429,
-.018994,-.004851,
-.01863,-.005215,
-.018209,-.00551,
-.017742,-.005727,
-.017245,-.005861,
-.016732,-.005906,
.016732,-.005906,
.017245,-.005861,
.017742,-.005727,
.018209,-.00551,
.01863,-.005215,
.018994,-.004851,
.019289,-.004429,
.019507,-.003963,
.01964,-.003465,
.019685,-.002953,
.019685,0.0,
0.0*
%
%ADD54MACRO54*%
%AMMACRO67*
4,1,22,.017717,-.007874,
.017717,.007874,
-.01378,.007874,
-.014463,.007814,
-.015126,.007637,
-.015748,.007347,
-.01631,.006953,
-.016795,.006468,
-.017189,.005906,
-.017479,.005284,
-.017657,.004621,
-.017717,.003937,
-.017717,-.003937,
-.017657,-.004621,
-.017479,-.005284,
-.017189,-.005906,
-.016795,-.006468,
-.01631,-.006953,
-.015748,-.007347,
-.015126,-.007637,
-.014463,-.007814,
-.01378,-.007874,
.017717,-.007874,
0.0*
%
%ADD67MACRO67*%
%AMMACRO65*
4,1,44,-.022638,0.0,
-.022638,-.00937,
-.022447,-.011506,
-.021889,-.013577,
-.02098,-.015519,
-.019747,-.017274,
-.018228,-.018788,
-.016469,-.020015,
-.014524,-.020918,
-.012452,-.02147,
-.010315,-.021654,
-.010315,-.021654,
.010315,-.021654,
.012452,-.02147,
.014524,-.020918,
.016469,-.020015,
.018228,-.018788,
.019747,-.017274,
.02098,-.015519,
.021889,-.013577,
.022447,-.011506,
.022638,-.00937,
.022638,.00937,
.022447,.011506,
.021889,.013577,
.02098,.015519,
.019747,.017274,
.018228,.018788,
.016469,.020015,
.014524,.020918,
.012452,.02147,
.010315,.021654,
.010315,.021654,
-.010315,.021654,
-.012452,.02147,
-.014524,.020918,
-.016469,.020015,
-.018228,.018788,
-.019747,.017274,
-.02098,.015519,
-.021889,.013577,
-.022447,.011506,
-.022638,.00937,
-.022638,.00937,
-.022638,0.0,
0.0*
%
%ADD65MACRO65*%
%AMMACRO51*
4,1,41,0.0,.022638,
-.00937,.022638,
-.011506,.022447,
-.013577,.021889,
-.015519,.02098,
-.017274,.019747,
-.018788,.018228,
-.020015,.016469,
-.020918,.014524,
-.02147,.012452,
-.021654,.010315,
-.021654,-.010315,
-.02147,-.012452,
-.020918,-.014524,
-.020015,-.016469,
-.018788,-.018228,
-.017274,-.019747,
-.015519,-.02098,
-.013577,-.021889,
-.011506,-.022447,
-.00937,-.022638,
.00937,-.022638,
.011506,-.022447,
.013577,-.021889,
.015519,-.02098,
.017274,-.019747,
.018788,-.018228,
.020015,-.016469,
.020918,-.014524,
.02147,-.012452,
.021654,-.010315,
.021654,.010315,
.02147,.012452,
.020918,.014524,
.020015,.016469,
.018788,.018228,
.017274,.019747,
.015519,.02098,
.013577,.021889,
.011506,.022447,
.00937,.022638,
0.0,.022638,
0.0*
%
%ADD51MACRO51*%
%AMMACRO46*
4,1,41,.019685,0.0,
.019685,.002953,
.01961,.003807,
.019388,.004636,
.019026,.005413,
.018534,.006116,
.017927,.006723,
.017224,.007215,
.016447,.007577,
.015618,.007799,
.014764,.007874,
-.014764,.007874,
-.015618,.007799,
-.016447,.007577,
-.017224,.007215,
-.017927,.006723,
-.018534,.006116,
-.019026,.005413,
-.019388,.004636,
-.01961,.003807,
-.019685,.002953,
-.019685,-.002953,
-.01961,-.003807,
-.019388,-.004636,
-.019026,-.005413,
-.018534,-.006116,
-.017927,-.006723,
-.017224,-.007215,
-.016447,-.007577,
-.015618,-.007799,
-.014764,-.007874,
.014764,-.007874,
.015618,-.007799,
.016447,-.007577,
.017224,-.007215,
.017927,-.006723,
.018534,-.006116,
.019026,-.005413,
.019388,-.004636,
.01961,-.003807,
.019685,-.002953,
.019685,0.0,
0.0*
%
%ADD46MACRO46*%
%AMMACRO68*
4,1,22,-.007874,-.017717,
.007874,-.017717,
.007874,.01378,
.007814,.014463,
.007637,.015126,
.007347,.015748,
.006953,.01631,
.006468,.016795,
.005906,.017189,
.005284,.017479,
.004621,.017657,
.003937,.017717,
-.003937,.017717,
-.004621,.017657,
-.005284,.017479,
-.005906,.017189,
-.006468,.016795,
-.006953,.01631,
-.007347,.015748,
-.007637,.015126,
-.007814,.014463,
-.007874,.01378,
-.007874,-.017717,
0.0*
%
%ADD68MACRO68*%
%AMMACRO47*
4,1,41,0.0,-.019685,
.002953,-.019685,
.003807,-.01961,
.004636,-.019388,
.005413,-.019026,
.006116,-.018534,
.006723,-.017927,
.007215,-.017224,
.007577,-.016447,
.007799,-.015618,
.007874,-.014764,
.007874,.014764,
.007799,.015618,
.007577,.016447,
.007215,.017224,
.006723,.017927,
.006116,.018534,
.005413,.019026,
.004636,.019388,
.003807,.01961,
.002953,.019685,
-.002953,.019685,
-.003807,.01961,
-.004636,.019388,
-.005413,.019026,
-.006116,.018534,
-.006723,.017927,
-.007215,.017224,
-.007577,.016447,
-.007799,.015618,
-.007874,.014764,
-.007874,-.014764,
-.007799,-.015618,
-.007577,-.016447,
-.007215,-.017224,
-.006723,-.017927,
-.006116,-.018534,
-.005413,-.019026,
-.004636,-.019388,
-.003807,-.01961,
-.002953,-.019685,
0.0,-.019685,
0.0*
%
%ADD47MACRO47*%
%AMMACRO35*
4,1,41,-.015748,0.0,
-.015748,-.002953,
-.015673,-.003807,
-.015451,-.004636,
-.015089,-.005413,
-.014597,-.006116,
-.01399,-.006723,
-.013287,-.007215,
-.01251,-.007577,
-.011681,-.007799,
-.010827,-.007874,
.010827,-.007874,
.011681,-.007799,
.01251,-.007577,
.013287,-.007215,
.01399,-.006723,
.014597,-.006116,
.015089,-.005413,
.015451,-.004636,
.015673,-.003807,
.015748,-.002953,
.015748,.002953,
.015673,.003807,
.015451,.004636,
.015089,.005413,
.014597,.006116,
.01399,.006723,
.013287,.007215,
.01251,.007577,
.011681,.007799,
.010827,.007874,
-.010827,.007874,
-.011681,.007799,
-.01251,.007577,
-.013287,.007215,
-.01399,.006723,
-.014597,.006116,
-.015089,.005413,
-.015451,.004636,
-.015673,.003807,
-.015748,.002953,
-.015748,0.0,
0.0*
%
%ADD35MACRO35*%
%AMMACRO44*
4,1,42,-.009843,0.0,
-.009843,-.003465,
-.009757,-.004404,
-.009509,-.005315,
-.009107,-.006169,
-.008563,-.00694,
-.007894,-.007604,
-.007119,-.008143,
-.006262,-.008539,
-.00535,-.008779,
-.004409,-.008858,
.004409,-.008858,
.00535,-.008779,
.006262,-.008539,
.007119,-.008143,
.007894,-.007604,
.008563,-.00694,
.009107,-.006169,
.009509,-.005315,
.009757,-.004404,
.009843,-.003465,
.009843,.003465,
.009757,.004404,
.009509,.005315,
.009107,.006169,
.008563,.00694,
.007894,.007604,
.007119,.008143,
.006262,.008539,
.00535,.008779,
.004409,.008858,
.004409,.008858,
-.004409,.008858,
-.00535,.008779,
-.006262,.008539,
-.007119,.008143,
-.007894,.007604,
-.008563,.00694,
-.009107,.006169,
-.009509,.005315,
-.009757,.004404,
-.009843,.003465,
-.009843,0.0,
0.0*
%
%ADD44MACRO44*%
%AMMACRO60*
4,1,41,0.0,.028543,
-.008858,.028543,
-.010909,.028364,
-.012898,.027831,
-.014764,.026961,
-.01645,.02578,
-.017906,.024324,
-.019087,.022638,
-.019957,.020772,
-.02049,.018783,
-.020669,.016732,
-.020669,-.016732,
-.02049,-.018783,
-.019957,-.020772,
-.019087,-.022638,
-.017906,-.024324,
-.01645,-.02578,
-.014764,-.026961,
-.012898,-.027831,
-.010909,-.028364,
-.008858,-.028543,
.008858,-.028543,
.010909,-.028364,
.012898,-.027831,
.014764,-.026961,
.01645,-.02578,
.017906,-.024324,
.019087,-.022638,
.019957,-.020772,
.02049,-.018783,
.020669,-.016732,
.020669,.016732,
.02049,.018783,
.019957,.020772,
.019087,.022638,
.017906,.024324,
.01645,.02578,
.014764,.026961,
.012898,.027831,
.010909,.028364,
.008858,.028543,
0.0,.028543,
0.0*
%
%ADD60MACRO60*%
%AMMACRO16*
4,1,41,-.028543,0.0,
-.028543,-.008858,
-.028364,-.010909,
-.027831,-.012898,
-.026961,-.014764,
-.02578,-.01645,
-.024324,-.017906,
-.022638,-.019087,
-.020772,-.019957,
-.018783,-.02049,
-.016732,-.020669,
.016732,-.020669,
.018783,-.02049,
.020772,-.019957,
.022638,-.019087,
.024324,-.017906,
.02578,-.01645,
.026961,-.014764,
.027831,-.012898,
.028364,-.010909,
.028543,-.008858,
.028543,.008858,
.028364,.010909,
.027831,.012898,
.026961,.014764,
.02578,.01645,
.024324,.017906,
.022638,.019087,
.020772,.019957,
.018783,.02049,
.016732,.020669,
-.016732,.020669,
-.018783,.02049,
-.020772,.019957,
-.022638,.019087,
-.024324,.017906,
-.02578,.01645,
-.026961,.014764,
-.027831,.012898,
-.028364,.010909,
-.028543,.008858,
-.028543,0.0,
0.0*
%
%ADD16MACRO16*%
%AMMACRO73*
4,1,41,0.0,.030512,
-.011339,.030512,
-.013304,.030336,
-.015209,.029822,
-.016995,.028986,
-.01861,.027851,
-.020002,.026453,
-.021131,.024835,
-.021962,.023046,
-.022469,.021139,
-.022638,.019213,
-.022638,-.019213,
-.022462,-.021178,
-.021948,-.023083,
-.021112,-.024869,
-.019977,-.026484,
-.018579,-.027876,
-.016961,-.029005,
-.015172,-.029836,
-.013265,-.030343,
-.011339,-.030512,
.011339,-.030512,
.013304,-.030336,
.015209,-.029822,
.016995,-.028986,
.01861,-.027851,
.020002,-.026453,
.021131,-.024835,
.021962,-.023046,
.022469,-.021139,
.022638,-.019213,
.022638,.019213,
.022462,.021178,
.021948,.023083,
.021112,.024869,
.019977,.026484,
.018579,.027876,
.016961,.029005,
.015172,.029836,
.013265,.030343,
.011339,.030512,
0.0,.030512,
0.0*
%
%ADD73MACRO73*%
%AMMACRO37*
4,1,41,-.030512,0.0,
-.030512,-.011339,
-.030336,-.013304,
-.029822,-.015209,
-.028986,-.016995,
-.027851,-.01861,
-.026453,-.020002,
-.024835,-.021131,
-.023046,-.021962,
-.021139,-.022469,
-.019213,-.022638,
.019213,-.022638,
.021178,-.022462,
.023083,-.021948,
.024869,-.021112,
.026484,-.019977,
.027876,-.018579,
.029005,-.016961,
.029836,-.015172,
.030343,-.013265,
.030512,-.011339,
.030512,.011339,
.030336,.013304,
.029822,.015209,
.028986,.016995,
.027851,.01861,
.026453,.020002,
.024835,.021131,
.023046,.021962,
.021139,.022469,
.019213,.022638,
-.019213,.022638,
-.021178,.022462,
-.023083,.021948,
-.024869,.021112,
-.026484,.019977,
-.027876,.018579,
-.029005,.016961,
-.029836,.015172,
-.030343,.013265,
-.030512,.011339,
-.030512,0.0,
0.0*
%
%ADD37MACRO37*%
%AMMACRO55*
4,1,41,0.0,.014764,
-.001969,.014764,
-.002652,.014704,
-.003315,.014526,
-.003937,.014236,
-.004499,.013843,
-.004984,.013357,
-.005378,.012795,
-.005668,.012173,
-.005846,.01151,
-.005906,.010827,
-.005906,-.010827,
-.005846,-.01151,
-.005668,-.012173,
-.005378,-.012795,
-.004984,-.013357,
-.004499,-.013843,
-.003937,-.014236,
-.003315,-.014526,
-.002652,-.014704,
-.001969,-.014764,
.001969,-.014764,
.002652,-.014704,
.003315,-.014526,
.003937,-.014236,
.004499,-.013843,
.004984,-.013357,
.005378,-.012795,
.005668,-.012173,
.005846,-.01151,
.005906,-.010827,
.005906,.010827,
.005846,.01151,
.005668,.012173,
.005378,.012795,
.004984,.013357,
.004499,.013843,
.003937,.014236,
.003315,.014526,
.002652,.014704,
.001969,.014764,
0.0,.014764,
0.0*
%
%ADD55MACRO55*%
%AMMACRO71*
4,1,45,0.0,-.062992,
.007362,-.062992,
.009157,-.062839,
.010898,-.062376,
.012532,-.061617,
.01401,-.060587,
.015286,-.059316,
.016322,-.057842,
.017087,-.056211,
.017556,-.054471,
.017717,-.052677,
.017717,-.052638,
.017717,.052638,
.017563,.054433,
.0171,.056174,
.016342,.057808,
.015311,.059285,
.01404,.060562,
.012566,.061598,
.010935,.062362,
.009196,.062832,
.007402,.062992,
.007362,.062992,
-.007362,.062992,
-.009157,.062839,
-.010898,.062376,
-.012532,.061617,
-.01401,.060587,
-.015286,.059316,
-.016322,.057842,
-.017087,.056211,
-.017556,.054471,
-.017717,.052677,
-.017717,.052638,
-.017717,-.052638,
-.017563,-.054433,
-.0171,-.056174,
-.016342,-.057808,
-.015311,-.059285,
-.01404,-.060562,
-.012566,-.061598,
-.010935,-.062362,
-.009196,-.062832,
-.007402,-.062992,
-.007362,-.062992,
0.0,-.062992,
0.0*
%
%ADD71MACRO71*%
%AMMACRO41*
4,1,42,0.0,-.029528,
.004409,-.029528,
.005521,-.029434,
.006599,-.029148,
.007611,-.02868,
.008526,-.028043,
.009317,-.027257,
.00996,-.026346,
.010434,-.025337,
.010726,-.02426,
.010827,-.02315,
.010827,.02315,
.010726,.02426,
.010434,.025337,
.00996,.026346,
.009317,.027257,
.008526,.028043,
.007611,.02868,
.006599,.029148,
.005521,.029434,
.004409,.029528,
-.004409,.029528,
-.005521,.029434,
-.006599,.029148,
-.007611,.02868,
-.008526,.028043,
-.009317,.027257,
-.00996,.026346,
-.010434,.025337,
-.010726,.02426,
-.010827,.02315,
-.010827,.02315,
-.010827,-.02315,
-.010726,-.02426,
-.010434,-.025337,
-.00996,-.026346,
-.009317,-.027257,
-.008526,-.028043,
-.007611,-.02868,
-.006599,-.029148,
-.005521,-.029434,
-.004409,-.029528,
0.0,-.029528,
0.0*
%
%ADD41MACRO41*%
%AMMACRO59*
4,1,41,0.0,.014764,
-.007283,.014764,
-.008548,.014653,
-.009775,.014325,
-.010925,.013788,
-.011965,.01306,
-.012863,.012162,
-.013591,.011122,
-.014128,.009971,
-.014456,.008745,
-.014567,.00748,
-.014567,-.00748,
-.014456,-.008745,
-.014128,-.009971,
-.013591,-.011122,
-.012863,-.012162,
-.011965,-.01306,
-.010925,-.013788,
-.009775,-.014325,
-.008548,-.014653,
-.007283,-.014764,
.007283,-.014764,
.008548,-.014653,
.009775,-.014325,
.010925,-.013788,
.011965,-.01306,
.012863,-.012162,
.013591,-.011122,
.014128,-.009971,
.014456,-.008745,
.014567,-.00748,
.014567,.00748,
.014456,.008745,
.014128,.009971,
.013591,.011122,
.012863,.012162,
.011965,.01306,
.010925,.013788,
.009775,.014325,
.008548,.014653,
.007283,.014764,
0.0,.014764,
0.0*
%
%ADD59MACRO59*%
%AMMACRO24*
4,1,41,-.014764,0.0,
-.014764,-.007283,
-.014653,-.008548,
-.014325,-.009775,
-.013788,-.010925,
-.01306,-.011965,
-.012162,-.012863,
-.011122,-.013591,
-.009971,-.014128,
-.008745,-.014456,
-.00748,-.014567,
.00748,-.014567,
.008745,-.014456,
.009971,-.014128,
.011122,-.013591,
.012162,-.012863,
.01306,-.011965,
.013788,-.010925,
.014325,-.009775,
.014653,-.008548,
.014764,-.007283,
.014764,.007283,
.014653,.008548,
.014325,.009775,
.013788,.010925,
.01306,.011965,
.012162,.012863,
.011122,.013591,
.009971,.014128,
.008745,.014456,
.00748,.014567,
-.00748,.014567,
-.008745,.014456,
-.009971,.014128,
-.011122,.013591,
-.012162,.012863,
-.01306,.011965,
-.013788,.010925,
-.014325,.009775,
-.014653,.008548,
-.014764,.007283,
-.014764,0.0,
0.0*
%
%ADD24MACRO24*%
%AMMACRO50*
4,1,41,.020709,0.0,
.020709,.008898,
.020565,.010437,
.020156,.011929,
.019494,.013326,
.018599,.014588,
.0175,.015675,
.016228,.016554,
.014822,.017199,
.013326,.017591,
.011811,.017717,
-.011811,.017717,
-.013352,.017586,
-.014847,.017191,
-.01625,.016541,
-.01752,.015658,
-.018616,.014568,
-.019507,.013304,
-.020165,.011904,
-.020569,.010412,
-.020709,.008898,
-.020709,-.008898,
-.020565,-.010437,
-.020156,-.011929,
-.019494,-.013326,
-.018599,-.014588,
-.0175,-.015675,
-.016228,-.016554,
-.014822,-.017199,
-.013326,-.017591,
-.011811,-.017717,
.011811,-.017717,
.013352,-.017586,
.014847,-.017191,
.01625,-.016541,
.01752,-.015658,
.018616,-.014568,
.019507,-.013304,
.020165,-.011904,
.020569,-.010412,
.020709,-.008898,
.020709,0.0,
0.0*
%
%ADD50MACRO50*%
%AMMACRO31*
4,1,41,0.0,.030512,
-.014016,.030512,
-.016198,.030327,
-.018314,.029767,
-.020302,.028847,
-.022099,.027596,
-.023652,.026052,
-.024913,.024262,
-.025844,.02228,
-.026417,.020167,
-.026614,.017992,
-.026614,-.017992,
-.026416,-.020173,
-.025842,-.022286,
-.02491,-.024268,
-.023648,-.026057,
-.022094,-.0276,
-.020296,-.02885,
-.018308,-.029769,
-.016191,-.030328,
-.014016,-.030512,
.014016,-.030512,
.016198,-.030327,
.018314,-.029767,
.020302,-.028847,
.022099,-.027596,
.023652,-.026052,
.024913,-.024262,
.025844,-.02228,
.026417,-.020167,
.026614,-.017992,
.026614,.017992,
.026416,.020173,
.025842,.022286,
.02491,.024268,
.023648,.026057,
.022094,.0276,
.020296,.02885,
.018308,.029769,
.016191,.030328,
.014016,.030512,
0.0,.030512,
0.0*
%
%ADD31MACRO31*%
%AMMACRO22*
4,1,41,-.013268,0.0,
-.013268,-.004331,
-.013139,-.005801,
-.012757,-.007226,
-.012134,-.008563,
-.011287,-.009772,
-.010244,-.010815,
-.009035,-.011661,
-.007698,-.012285,
-.006273,-.012667,
-.004803,-.012795,
.004803,-.012795,
.006273,-.012667,
.007698,-.012285,
.009035,-.011661,
.010244,-.010815,
.011287,-.009772,
.012134,-.008563,
.012757,-.007226,
.013139,-.005801,
.013268,-.004331,
.013268,.004331,
.013139,.005801,
.012757,.007226,
.012134,.008563,
.011287,.009772,
.010244,.010815,
.009035,.011661,
.007698,.012285,
.006273,.012667,
.004803,.012795,
-.004803,.012795,
-.006273,.012667,
-.007698,.012285,
-.009035,.011661,
-.010244,.010815,
-.011287,.009772,
-.012134,.008563,
-.012757,.007226,
-.013139,.005801,
-.013268,.004331,
-.013268,0.0,
0.0*
%
%ADD22MACRO22*%
%AMMACRO21*
4,1,41,0.0,.013268,
-.004331,.013268,
-.005801,.013139,
-.007226,.012757,
-.008563,.012134,
-.009772,.011287,
-.010815,.010244,
-.011661,.009035,
-.012285,.007698,
-.012667,.006273,
-.012795,.004803,
-.012795,-.004803,
-.012667,-.006273,
-.012285,-.007698,
-.011661,-.009035,
-.010815,-.010244,
-.009772,-.011287,
-.008563,-.012134,
-.007226,-.012757,
-.005801,-.013139,
-.004331,-.013268,
.004331,-.013268,
.005801,-.013139,
.007226,-.012757,
.008563,-.012134,
.009772,-.011287,
.010815,-.010244,
.011661,-.009035,
.012285,-.007698,
.012667,-.006273,
.012795,-.004803,
.012795,.004803,
.012667,.006273,
.012285,.007698,
.011661,.009035,
.010815,.010244,
.009772,.011287,
.008563,.012134,
.007226,.012757,
.005801,.013139,
.004331,.013268,
0.0,.013268,
0.0*
%
%ADD21MACRO21*%
%AMMACRO13*
4,1,41,.009382,.009382,
.006319,.012445,
.005188,.013393,
.00391,.014131,
.002524,.014635,
.001071,.014891,
-.000405,.014891,
-.001858,.014634,
-.003244,.01413,
-.004522,.013392,
-.00565,.012445,
-.012445,.00565,
-.013393,.00452,
-.014131,.003242,
-.014635,.001855,
-.014891,.000402,
-.014891,-.001074,
-.014634,-.002527,
-.014129,-.003913,
-.013391,-.005191,
-.012445,-.006319,
-.006319,-.012445,
-.005188,-.013393,
-.00391,-.014131,
-.002524,-.014635,
-.001071,-.014891,
.000405,-.014891,
.001858,-.014634,
.003244,-.01413,
.004522,-.013392,
.00565,-.012445,
.012445,-.00565,
.013393,-.00452,
.014131,-.003242,
.014635,-.001855,
.014891,-.000402,
.014891,.001074,
.014634,.002527,
.014129,.003913,
.013391,.005191,
.012445,.006319,
.009382,.009382,
0.0*
%
%ADD13MACRO13*%
%AMMACRO12*
4,1,41,-.009382,-.009382,
-.006319,-.012445,
-.005188,-.013393,
-.00391,-.014131,
-.002524,-.014635,
-.001071,-.014891,
.000405,-.014891,
.001858,-.014634,
.003244,-.01413,
.004522,-.013392,
.00565,-.012445,
.012445,-.00565,
.013393,-.00452,
.014131,-.003242,
.014635,-.001855,
.014891,-.000402,
.014891,.001074,
.014634,.002527,
.014129,.003913,
.013391,.005191,
.012445,.006319,
.006319,.012445,
.005188,.013393,
.00391,.014131,
.002524,.014635,
.001071,.014891,
-.000405,.014891,
-.001858,.014634,
-.003244,.01413,
-.004522,.013392,
-.00565,.012445,
-.012445,.00565,
-.013393,.00452,
-.014131,.003242,
-.014635,.001855,
-.014891,.000402,
-.014891,-.001074,
-.014634,-.002527,
-.014129,-.003913,
-.013391,-.005191,
-.012445,-.006319,
-.009382,-.009382,
0.0*
%
%ADD12MACRO12*%
%AMMACRO18*
4,1,41,-.017717,0.0,
-.017717,-.009606,
-.01759,-.011017,
-.017221,-.012384,
-.01662,-.013667,
-.015806,-.014826,
-.014802,-.015825,
-.01364,-.016636,
-.012356,-.017232,
-.010987,-.017596,
-.009606,-.017717,
.009606,-.017717,
.011017,-.01759,
.012384,-.017221,
.013667,-.01662,
.014826,-.015806,
.015825,-.014802,
.016636,-.01364,
.017232,-.012356,
.017596,-.010987,
.017717,-.009606,
.017717,.009606,
.01759,.011017,
.017221,.012384,
.01662,.013667,
.015806,.014826,
.014802,.015825,
.01364,.016636,
.012356,.017232,
.010987,.017596,
.009606,.017717,
-.009606,.017717,
-.011017,.01759,
-.012384,.017221,
-.013667,.01662,
-.014826,.015806,
-.015825,.014802,
-.016636,.01364,
-.017232,.012356,
-.017596,.010987,
-.017717,.009606,
-.017717,0.0,
0.0*
%
%ADD18MACRO18*%
%ADD15C,.043307*%
%ADD25C,.047244*%
%ADD38O,.061024X.088583*%
%ADD34R,.041339X.072835*%
%ADD10C,.055906*%
%ADD58R,.104331X.070866*%
%ADD43C,.133898*%
%ADD27C,.070866*%
%ADD64C,.076772*%
%ADD48R,.212598X.212598*%
%ADD11C,.155512*%
%AMMACRO69*
4,1,22,.007874,.017717,
-.007874,.017717,
-.007874,-.01378,
-.007814,-.014463,
-.007637,-.015126,
-.007347,-.015748,
-.006953,-.01631,
-.006468,-.016795,
-.005906,-.017189,
-.005284,-.017479,
-.004621,-.017657,
-.003937,-.017717,
.003937,-.017717,
.004621,-.017657,
.005284,-.017479,
.005906,-.017189,
.006468,-.016795,
.006953,-.01631,
.007347,-.015748,
.007637,-.015126,
.007814,-.014463,
.007874,-.01378,
.007874,.017717,
0.0*
%
%ADD69MACRO69*%
%AMMACRO66*
4,1,22,-.017717,.007874,
-.017717,-.007874,
.01378,-.007874,
.014463,-.007814,
.015126,-.007637,
.015748,-.007347,
.01631,-.006953,
.016795,-.006468,
.017189,-.005906,
.017479,-.005284,
.017657,-.004621,
.017717,-.003937,
.017717,.003937,
.017657,.004621,
.017479,.005284,
.017189,.005906,
.016795,.006468,
.01631,.006953,
.015748,.007347,
.015126,.007637,
.014463,.007814,
.01378,.007874,
-.017717,.007874,
0.0*
%
%ADD66MACRO66*%
%ADD14C,.072795*%
%AMMACRO52*
4,1,44,.022638,0.0,
.022638,.00937,
.022447,.011506,
.021889,.013577,
.02098,.015519,
.019747,.017274,
.018228,.018788,
.016469,.020015,
.014524,.020918,
.012452,.02147,
.010315,.021654,
.010315,.021654,
-.010315,.021654,
-.012452,.02147,
-.014524,.020918,
-.016469,.020015,
-.018228,.018788,
-.019747,.017274,
-.02098,.015519,
-.021889,.013577,
-.022447,.011506,
-.022638,.00937,
-.022638,.00937,
-.022638,-.00937,
-.022447,-.011506,
-.021889,-.013577,
-.02098,-.015519,
-.019747,-.017274,
-.018228,-.018788,
-.016469,-.020015,
-.014524,-.020918,
-.012452,-.02147,
-.010315,-.021654,
-.010315,-.021654,
.010315,-.021654,
.012452,-.02147,
.014524,-.020918,
.016469,-.020015,
.018228,-.018788,
.019747,-.017274,
.02098,-.015519,
.021889,-.013577,
.022447,-.011506,
.022638,-.00937,
.022638,0.0,
0.0*
%
%ADD52MACRO52*%
%AMMACRO53*
4,1,41,.031496,0.0,
.031496,.011339,
.031276,.013817,
.030629,.016219,
.029574,.018472,
.028144,.020508,
.026383,.022264,
.024343,.023688,
.022087,.024737,
.019683,.025377,
.017244,.025591,
-.017244,.025591,
-.019722,.02537,
-.022124,.024723,
-.024377,.023669,
-.026413,.022239,
-.02817,.020477,
-.029594,.018438,
-.030642,.016182,
-.031283,.013778,
-.031496,.011339,
-.031496,-.011339,
-.031276,-.013817,
-.030629,-.016219,
-.029574,-.018472,
-.028144,-.020508,
-.026383,-.022264,
-.024343,-.023688,
-.022087,-.024737,
-.019683,-.025377,
-.017244,-.025591,
.017244,-.025591,
.019722,-.02537,
.022124,-.024723,
.024377,-.023669,
.026413,-.022239,
.02817,-.020477,
.029594,-.018438,
.030642,-.016182,
.031283,-.013778,
.031496,-.011339,
.031496,0.0,
0.0*
%
%ADD53MACRO53*%
%AMMACRO42*
4,1,41,0.0,-.009843,
.002953,-.009843,
.003807,-.009768,
.004636,-.009546,
.005413,-.009183,
.006116,-.008691,
.006723,-.008085,
.007215,-.007382,
.007577,-.006604,
.007799,-.005776,
.007874,-.004921,
.007874,.004921,
.007799,.005776,
.007577,.006604,
.007215,.007382,
.006723,.008085,
.006116,.008691,
.005413,.009183,
.004636,.009546,
.003807,.009768,
.002953,.009843,
-.002953,.009843,
-.003807,.009768,
-.004636,.009546,
-.005413,.009183,
-.006116,.008691,
-.006723,.008085,
-.007215,.007382,
-.007577,.006604,
-.007799,.005776,
-.007874,.004921,
-.007874,-.004921,
-.007799,-.005776,
-.007577,-.006604,
-.007215,-.007382,
-.006723,-.008085,
-.006116,-.008691,
-.005413,-.009183,
-.004636,-.009546,
-.003807,-.009768,
-.002953,-.009843,
0.0,-.009843,
0.0*
%
%ADD42MACRO42*%
%AMMACRO70*
4,1,45,0.0,.062992,
-.007362,.062992,
-.009157,.062839,
-.010898,.062376,
-.012532,.061617,
-.01401,.060587,
-.015286,.059316,
-.016322,.057842,
-.017087,.056211,
-.017556,.054471,
-.017717,.052677,
-.017717,.052638,
-.017717,-.052638,
-.017563,-.054433,
-.0171,-.056174,
-.016342,-.057808,
-.015311,-.059285,
-.01404,-.060562,
-.012566,-.061598,
-.010935,-.062362,
-.009196,-.062832,
-.007402,-.062992,
-.007362,-.062992,
.007362,-.062992,
.009157,-.062839,
.010898,-.062376,
.012532,-.061617,
.01401,-.060587,
.015286,-.059316,
.016322,-.057842,
.017087,-.056211,
.017556,-.054471,
.017717,-.052677,
.017717,-.052638,
.017717,.052638,
.017563,.054433,
.0171,.056174,
.016342,.057808,
.015311,.059285,
.01404,.060562,
.012566,.061598,
.010935,.062362,
.009196,.062832,
.007402,.062992,
.007362,.062992,
0.0,.062992,
0.0*
%
%ADD70MACRO70*%
%AMMACRO72*
4,1,41,.028543,0.0,
.028543,.008858,
.028364,.010909,
.027831,.012898,
.026961,.014764,
.02578,.01645,
.024324,.017906,
.022638,.019087,
.020772,.019957,
.018783,.02049,
.016732,.020669,
-.016732,.020669,
-.018783,.02049,
-.020772,.019957,
-.022638,.019087,
-.024324,.017906,
-.02578,.01645,
-.026961,.014764,
-.027831,.012898,
-.028364,.010909,
-.028543,.008858,
-.028543,-.008858,
-.028364,-.010909,
-.027831,-.012898,
-.026961,-.014764,
-.02578,-.01645,
-.024324,-.017906,
-.022638,-.019087,
-.020772,-.019957,
-.018783,-.02049,
-.016732,-.020669,
.016732,-.020669,
.018783,-.02049,
.020772,-.019957,
.022638,-.019087,
.024324,-.017906,
.02578,-.01645,
.026961,-.014764,
.027831,-.012898,
.028364,-.010909,
.028543,-.008858,
.028543,0.0,
0.0*
%
%ADD72MACRO72*%
%AMMACRO40*
4,1,42,0.0,-.043307,
.014252,-.043307,
.017072,-.043064,
.019808,-.042334,
.022375,-.041141,
.024696,-.03952,
.0267,-.037521,
.028326,-.035204,
.029526,-.03264,
.030262,-.029906,
.030512,-.027087,
.030512,.027087,
.030262,.029906,
.029526,.03264,
.028326,.035204,
.0267,.037521,
.024696,.03952,
.022375,.041141,
.019808,.042334,
.017072,.043064,
.014252,.043307,
.014252,.043307,
-.014252,.043307,
-.017072,.043064,
-.019808,.042334,
-.022375,.041141,
-.024696,.03952,
-.0267,.037521,
-.028326,.035204,
-.029526,.03264,
-.030262,.029906,
-.030512,.027087,
-.030512,-.027087,
-.030262,-.029906,
-.029526,-.03264,
-.028326,-.035204,
-.0267,-.037521,
-.024696,-.03952,
-.022375,-.041141,
-.019808,-.042334,
-.017072,-.043064,
-.014252,-.043307,
0.0,-.043307,
0.0*
%
%ADD40MACRO40*%
%AMMACRO39*
4,1,41,0.0,-.040354,
.01378,-.040354,
.016685,-.0401,
.019502,-.039345,
.022146,-.038113,
.024535,-.03644,
.026597,-.034377,
.02827,-.031988,
.029503,-.029345,
.030258,-.026528,
.030512,-.023622,
.030512,.023622,
.030258,.026528,
.029503,.029345,
.02827,.031988,
.026597,.034377,
.024535,.03644,
.022146,.038113,
.019502,.039345,
.016685,.0401,
.01378,.040354,
-.01378,.040354,
-.016685,.0401,
-.019502,.039345,
-.022146,.038113,
-.024535,.03644,
-.026597,.034377,
-.02827,.031988,
-.029503,.029345,
-.030258,.026528,
-.030512,.023622,
-.030512,-.023622,
-.030258,-.026528,
-.029503,-.029345,
-.02827,-.031988,
-.026597,-.034377,
-.024535,-.03644,
-.022146,-.038113,
-.019502,-.039345,
-.016685,-.0401,
-.01378,-.040354,
0.0,-.040354,
0.0*
%
%ADD39MACRO39*%
%AMMACRO17*
4,1,41,0.0,-.030512,
.011339,-.030512,
.013304,-.030336,
.015209,-.029822,
.016995,-.028986,
.01861,-.027851,
.020002,-.026453,
.021131,-.024835,
.021962,-.023046,
.022469,-.021139,
.022638,-.019213,
.022638,.019213,
.022462,.021178,
.021948,.023083,
.021112,.024869,
.019977,.026484,
.018579,.027876,
.016961,.029005,
.015172,.029836,
.013265,.030343,
.011339,.030512,
-.011339,.030512,
-.013304,.030336,
-.015209,.029822,
-.016995,.028986,
-.01861,.027851,
-.020002,.026453,
-.021131,.024835,
-.021962,.023046,
-.022469,.021139,
-.022638,.019213,
-.022638,-.019213,
-.022462,-.021178,
-.021948,-.023083,
-.021112,-.024869,
-.019977,-.026484,
-.018579,-.027876,
-.016961,-.029005,
-.015172,-.029836,
-.013265,-.030343,
-.011339,-.030512,
0.0,-.030512,
0.0*
%
%ADD17MACRO17*%
%AMMACRO62*
4,1,41,0.0,-.010827,
.002953,-.010827,
.003807,-.010752,
.004636,-.01053,
.005413,-.010167,
.006116,-.009675,
.006723,-.009069,
.007215,-.008366,
.007577,-.007589,
.007799,-.00676,
.007874,-.005906,
.007874,.005906,
.007799,.00676,
.007577,.007589,
.007215,.008366,
.006723,.009069,
.006116,.009675,
.005413,.010167,
.004636,.01053,
.003807,.010752,
.002953,.010827,
-.002953,.010827,
-.003807,.010752,
-.004636,.01053,
-.005413,.010167,
-.006116,.009675,
-.006723,.009069,
-.007215,.008366,
-.007577,.007589,
-.007799,.00676,
-.007874,.005906,
-.007874,-.005906,
-.007799,-.00676,
-.007577,-.007589,
-.007215,-.008366,
-.006723,-.009069,
-.006116,-.009675,
-.005413,-.010167,
-.004636,-.01053,
-.003807,-.010752,
-.002953,-.010827,
0.0,-.010827,
0.0*
%
%ADD62MACRO62*%
%AMMACRO56*
4,1,41,.014764,0.0,
.014764,.001969,
.014704,.002652,
.014526,.003315,
.014236,.003937,
.013843,.004499,
.013357,.004984,
.012795,.005378,
.012173,.005668,
.01151,.005846,
.010827,.005906,
-.010827,.005906,
-.01151,.005846,
-.012173,.005668,
-.012795,.005378,
-.013357,.004984,
-.013843,.004499,
-.014236,.003937,
-.014526,.003315,
-.014704,.002652,
-.014764,.001969,
-.014764,-.001969,
-.014704,-.002652,
-.014526,-.003315,
-.014236,-.003937,
-.013843,-.004499,
-.013357,-.004984,
-.012795,-.005378,
-.012173,-.005668,
-.01151,-.005846,
-.010827,-.005906,
.010827,-.005906,
.01151,-.005846,
.012173,-.005668,
.012795,-.005378,
.013357,-.004984,
.013843,-.004499,
.014236,-.003937,
.014526,-.003315,
.014704,-.002652,
.014764,-.001969,
.014764,0.0,
0.0*
%
%ADD56MACRO56*%
%AMMACRO49*
4,1,41,.038386,0.0,
.038386,.009843,
.038191,.012064,
.037614,.014219,
.036672,.01624,
.035392,.018067,
.033815,.019644,
.031988,.020924,
.029967,.021866,
.027812,.022443,
.025591,.022638,
-.025591,.022638,
-.027812,.022443,
-.029967,.021866,
-.031988,.020924,
-.033815,.019644,
-.035392,.018067,
-.036672,.01624,
-.037614,.014219,
-.038191,.012064,
-.038386,.009843,
-.038386,-.009843,
-.038191,-.012064,
-.037614,-.014219,
-.036672,-.01624,
-.035392,-.018067,
-.033815,-.019644,
-.031988,-.020924,
-.029967,-.021866,
-.027812,-.022443,
-.025591,-.022638,
.025591,-.022638,
.027812,-.022443,
.029967,-.021866,
.031988,-.020924,
.033815,-.019644,
.035392,-.018067,
.036672,-.01624,
.037614,-.014219,
.038191,-.012064,
.038386,-.009843,
.038386,0.0,
0.0*
%
%ADD49MACRO49*%
%ADD74C,.003937*%
%ADD75C,.003898*%
G75*
%LPD*%
G75*
G36*
G01X790480Y1004331D02*
X789370Y1009220D01*
X789374Y1024016D01*
X824803D01*
Y1004331D01*
X790480D01*
G37*
G54D10*
X795866Y720472D03*
X1009646D03*
X1009606Y1122244D03*
G54D11*
X797244Y702756D03*
Y1152362D03*
X1007087Y702756D03*
Y1152362D03*
G54D20*
X792323Y1039370D03*
X796063D03*
X802677Y1111118D03*
X848917Y858953D03*
X808858Y1029331D03*
X814370Y1033071D03*
X818110D03*
X831102Y1122142D03*
X806102Y1111024D03*
X828346Y1111512D03*
X902165Y821457D03*
X893504Y856299D03*
X902165Y814961D03*
X858957Y858756D03*
X885039Y885433D03*
X899213Y875197D03*
X895472D03*
X893504Y865551D03*
X891732Y875197D03*
X879528Y914858D03*
X875000Y915055D03*
X895571Y921551D03*
X871260Y1055512D03*
X872835Y1073228D03*
X870669Y1027559D03*
X901969Y1035724D03*
Y1027559D03*
X868898Y1073228D03*
X886417Y1034937D03*
X870472Y1035528D03*
X886417Y1026969D03*
X869291Y1103835D03*
X865945Y1103638D03*
X861417Y1123228D03*
X955906Y861220D03*
X921063Y872441D03*
X920866Y864268D03*
X921063Y913874D03*
X973071Y1020370D03*
G54D12*
X803150Y863386D03*
X800787Y865748D03*
G54D21*
X792323Y1035732D03*
X796063D03*
X802677Y1107480D03*
X848917Y855315D03*
X808858Y1025693D03*
X814370Y1029433D03*
X818110D03*
X831102Y1118504D03*
X806102Y1107386D03*
X828346Y1107874D03*
X858957Y855118D03*
X902165Y817819D03*
X893504Y852661D03*
X902165Y811323D03*
X879528Y911220D03*
X875000Y911417D03*
X885039Y881795D03*
X899213Y871559D03*
X895472D03*
X893504Y861913D03*
X891732Y871559D03*
X895571Y917913D03*
X871260Y1051874D03*
X872835Y1069591D03*
X870669Y1023921D03*
X901969Y1032087D03*
Y1023921D03*
X868898Y1069591D03*
X886417Y1031299D03*
X870472Y1031890D03*
X886417Y1023331D03*
X869291Y1100197D03*
X865945Y1100000D03*
X861417Y1119591D03*
X955906Y857583D03*
X921063Y868803D03*
X920866Y860630D03*
X921063Y910236D03*
X973071Y1016732D03*
G54D30*
X822244Y1029331D03*
Y1032874D03*
X845276Y1126181D03*
Y1129724D03*
X809252Y1107480D03*
Y1111024D03*
G54D40*
X841976Y1143110D03*
X822591D03*
G54D13*
X800577Y860813D03*
X798215Y863176D03*
G54D22*
X796220Y1069094D03*
X796457Y1060433D03*
Y1064567D03*
X796378Y1087402D03*
X814071Y982283D03*
X808756Y1033268D03*
X830567Y1028543D03*
X853047Y1033071D03*
X830567Y1032283D03*
X857575Y1104724D03*
X850394D03*
X843898Y1113780D03*
X822850Y1122441D03*
X835630Y1113780D03*
X850787Y1110433D03*
X813480Y1138976D03*
X902165Y808465D03*
X897142Y849409D03*
X905803Y821457D03*
X883858Y896260D03*
Y893504D03*
X893504Y859055D03*
X897142Y868307D03*
X891732Y877953D03*
X899110D03*
X895472Y880709D03*
X862220Y1019882D03*
X859543Y1107480D03*
X874409Y1078740D03*
X873622Y1096063D03*
X874307Y1082874D03*
X874110Y1088976D03*
X873622Y1092520D03*
X878952Y1139409D03*
X886827Y1135374D03*
X879819Y1143504D03*
X886707Y1138930D03*
X926079Y884843D03*
X924898Y905512D03*
X957575Y1009055D03*
X927654Y1020079D03*
X1009740Y967520D03*
G54D31*
X817091Y1107874D03*
Y1116535D03*
X823780D03*
Y1107874D03*
X867795Y882677D03*
Y891654D03*
X874803D03*
Y882677D03*
G54D14*
X799213Y1014173D03*
G54D50*
X882677Y926378D03*
Y920866D03*
G54D41*
X837402Y1141732D03*
X834843D03*
X832283D03*
X829724D03*
X827165D03*
G54D23*
X792583Y1069094D03*
X792819Y1060433D03*
Y1064567D03*
X792740Y1087402D03*
X858583Y1019882D03*
X810433Y982283D03*
X805118Y1033268D03*
X826929Y1028543D03*
X849409Y1033071D03*
X826929Y1032283D03*
X855906Y1107480D03*
X853937Y1104724D03*
X846756D03*
X840260Y1113780D03*
X819213Y1122441D03*
X831992Y1113780D03*
X847150Y1110433D03*
X809843Y1138976D03*
X898528Y808465D03*
X893504Y849409D03*
X902165Y821457D03*
X880220Y896260D03*
Y893504D03*
X889866Y859055D03*
X893504Y868307D03*
X888094Y877953D03*
X895472D03*
X891835Y880709D03*
X870772Y1078740D03*
X869984Y1096063D03*
X870669Y1082874D03*
X870472Y1088976D03*
X869984Y1092520D03*
X875315Y1139409D03*
X883189Y1135374D03*
X876181Y1143504D03*
X883069Y1138930D03*
X922441Y884843D03*
X921260Y905512D03*
X953937Y1009055D03*
X924016Y1020079D03*
X1006102Y967520D03*
G54D32*
X857283Y1111811D03*
Y1117323D03*
G54D42*
X833661Y1135197D03*
X831693D03*
X829724D03*
X833661Y1132874D03*
X831693D03*
X829724D03*
G54D15*
X799803Y983154D03*
Y992209D03*
X863272Y1152756D03*
X872327D03*
X1005512Y992043D03*
Y982988D03*
G54D24*
X792717Y1055906D03*
X796260D03*
X837402Y1129921D03*
X840945D03*
X960630Y847047D03*
X964173D03*
X957480Y865551D03*
X961024D03*
G54D60*
X859547Y1148031D03*
X876083D03*
G54D51*
X888878Y930118D03*
X895177D03*
G54D33*
X840945Y1125984D03*
X837402D03*
G54D70*
X947555Y1018437D03*
X952555D03*
X957555D03*
X962555D03*
X967555D03*
X947555Y1033594D03*
X952555D03*
X957555D03*
X962555D03*
X967555D03*
G54D52*
X891240Y924213D03*
Y917913D03*
X887192Y1130041D03*
Y1123741D03*
X926181Y965945D03*
X931890D03*
X937598D03*
X943307D03*
X926181Y972244D03*
X931890D03*
X937598D03*
X943307D03*
X981732Y979921D03*
Y973622D03*
X987598Y979921D03*
Y973622D03*
G54D43*
X872933Y780807D03*
X931988D03*
G54D34*
X839764Y1119488D03*
G54D25*
X798169Y1106024D03*
X802165Y1136024D03*
X794173D03*
G54D16*
X804528Y979429D03*
Y995965D03*
G54D61*
X963189Y856102D03*
G54D62*
X966142Y851378D03*
X964173D03*
X962205D03*
X960236D03*
X966142Y860827D03*
X964173D03*
X962205D03*
X960236D03*
G54D17*
X797441Y974409D03*
Y1000984D03*
G54D53*
X901181Y926969D03*
Y919882D03*
G54D71*
X966181Y998425D03*
X961181D03*
X956181D03*
X951181D03*
X966181Y983268D03*
X961181D03*
X956181D03*
X951181D03*
X971181Y998425D03*
Y983268D03*
G54D44*
X902165Y799567D03*
Y801772D03*
G54D35*
X843898Y1116535D03*
Y1118504D03*
Y1120472D03*
Y1122441D03*
X835630Y1116535D03*
Y1118504D03*
Y1120472D03*
Y1122441D03*
G54D26*
X849016Y851776D03*
Y845866D03*
X858858Y851776D03*
Y845866D03*
G54D72*
X1000787Y995768D03*
Y979232D03*
G54D27*
X812598Y852362D03*
Y842362D03*
Y832362D03*
X822531Y872441D03*
Y882441D03*
Y892441D03*
Y902441D03*
Y912441D03*
X812531Y872441D03*
Y882441D03*
Y892441D03*
Y902441D03*
Y912441D03*
X858969Y875248D03*
X848969D03*
X858969Y865248D03*
X848969D03*
X822531Y922441D03*
Y932441D03*
Y942441D03*
Y952441D03*
Y962441D03*
X812531Y922441D03*
Y932441D03*
Y942441D03*
Y952441D03*
Y962441D03*
X832531Y1002441D03*
X842531D03*
X852531D03*
X832531Y1012441D03*
X842531D03*
X852531D03*
X862531Y1002441D03*
X872531D03*
X882531D03*
X892531D03*
X902531D03*
X912531D03*
X862531Y1012441D03*
X872531D03*
X882531D03*
X892531D03*
X902531D03*
X912531D03*
X922531Y1002441D03*
X932531D03*
X922531Y1012441D03*
X932531D03*
X992520Y852362D03*
Y842362D03*
Y832362D03*
X992610Y872441D03*
Y882441D03*
Y892441D03*
Y902441D03*
Y912441D03*
X982610Y872441D03*
Y882441D03*
Y892441D03*
Y902441D03*
Y912441D03*
X992610Y922441D03*
Y932441D03*
Y942441D03*
Y952441D03*
Y962441D03*
X982610Y922441D03*
Y932441D03*
Y942441D03*
Y952441D03*
Y962441D03*
X983858Y1002441D03*
Y1012441D03*
Y1022441D03*
G54D18*
X792323Y1044091D03*
Y1050000D03*
X796063Y1044091D03*
Y1050000D03*
G54D54*
X897638Y1026378D03*
X866142D03*
X881890D03*
G54D36*
X850787Y1128740D03*
Y1114961D03*
G54D45*
X906024Y804921D03*
X902165D03*
G54D63*
X946850Y829331D03*
X968898D03*
Y807283D03*
X946850D03*
G54D64*
X957874Y818307D03*
G54D55*
X897283Y1023917D03*
X895709D03*
X894134D03*
X892559D03*
Y1033563D03*
X894134D03*
X895709D03*
X897283D03*
X865787Y1023917D03*
X864213D03*
X862638D03*
X861063D03*
Y1033563D03*
X862638D03*
X864213D03*
X865787D03*
X881535Y1023917D03*
X879961D03*
X878386D03*
X876811D03*
Y1033563D03*
X878386D03*
X879961D03*
X881535D03*
G54D37*
X854528Y1155118D03*
X881102D03*
G54D73*
X1007874Y1000787D03*
Y974213D03*
G54D46*
X889862Y887598D03*
Y889567D03*
Y891535D03*
Y893504D03*
Y895472D03*
Y897441D03*
Y899409D03*
Y901378D03*
Y903346D03*
Y905315D03*
Y907283D03*
Y909252D03*
X917028D03*
Y907283D03*
Y905315D03*
Y903346D03*
Y901378D03*
Y899409D03*
Y897441D03*
Y895472D03*
Y893504D03*
Y891535D03*
Y889567D03*
Y887598D03*
G54D28*
X857087Y1038976D03*
X855508D03*
X853937D03*
X852358D03*
X850787D03*
X849209D03*
X847638D03*
X846067D03*
X844488D03*
X842917D03*
X841339D03*
X839768D03*
X838189D03*
X836618D03*
X835039D03*
X833469D03*
X831890D03*
X830319D03*
X828736D03*
X827169D03*
X825587D03*
X824016D03*
X822437D03*
X820866D03*
X819287D03*
X817717D03*
X816138D03*
X814567D03*
X812988D03*
X811417D03*
X809839D03*
X808268D03*
Y1099606D03*
X809839D03*
X811417D03*
X812988D03*
X814567D03*
X816138D03*
X817717D03*
X819287D03*
X820866D03*
X822437D03*
X824016D03*
X825587D03*
X827169D03*
X828736D03*
X830319D03*
X831890D03*
X833469D03*
X835039D03*
X836618D03*
X838189D03*
X839768D03*
X841339D03*
X842917D03*
X844488D03*
X846067D03*
X847638D03*
X849209D03*
X850787D03*
X852358D03*
X853937D03*
X855508D03*
X857087D03*
G54D19*
X802358Y1044886D03*
Y1046457D03*
Y1048035D03*
Y1049606D03*
Y1051177D03*
Y1052756D03*
Y1054327D03*
Y1055906D03*
Y1057476D03*
Y1059055D03*
Y1060626D03*
Y1062205D03*
Y1063776D03*
Y1065354D03*
Y1066925D03*
Y1068508D03*
Y1070075D03*
Y1071657D03*
Y1073228D03*
Y1074807D03*
Y1076378D03*
Y1077957D03*
Y1079528D03*
Y1081106D03*
Y1082677D03*
Y1084256D03*
Y1085827D03*
Y1087406D03*
Y1088976D03*
Y1090547D03*
Y1092126D03*
Y1093697D03*
X862988Y1074807D03*
Y1073228D03*
Y1071657D03*
Y1070075D03*
Y1068508D03*
Y1066925D03*
Y1065354D03*
Y1063776D03*
Y1062205D03*
Y1060626D03*
Y1059055D03*
Y1057476D03*
Y1055906D03*
Y1054327D03*
Y1052756D03*
Y1051177D03*
Y1049606D03*
Y1048035D03*
Y1046457D03*
Y1044886D03*
Y1093697D03*
Y1092126D03*
Y1090547D03*
Y1088976D03*
Y1087406D03*
Y1085827D03*
Y1084256D03*
Y1082677D03*
Y1081106D03*
Y1079528D03*
Y1077957D03*
Y1076378D03*
G54D74*
G01X790945Y638681D02*
Y579626D01*
X1086220D01*
Y638681D01*
X790945D01*
G01X938583D02*
Y579626D01*
G01Y599311D02*
X1086220D01*
G01Y618996D02*
X938583D01*
G01X988488D02*
Y599311D01*
G54D56*
X891713Y1026378D03*
Y1027953D03*
Y1029528D03*
Y1031102D03*
X898130D03*
Y1029528D03*
Y1027953D03*
X860217Y1026378D03*
Y1027953D03*
Y1029528D03*
Y1031102D03*
X866634D03*
Y1029528D03*
Y1027953D03*
X875965Y1026378D03*
Y1027953D03*
Y1029528D03*
Y1031102D03*
X882382D03*
Y1029528D03*
Y1027953D03*
G54D38*
X847835Y1152165D03*
X816732D03*
G54D47*
X892618Y912008D03*
X894587D03*
X896555D03*
X898524D03*
X900492D03*
X902461D03*
X904429D03*
X906398D03*
X908366D03*
X910335D03*
X912303D03*
Y884843D03*
X910335D03*
X908366D03*
X906398D03*
X904429D03*
X902461D03*
X900492D03*
X898524D03*
X896555D03*
X894587D03*
X892618D03*
X914272Y912008D03*
Y884843D03*
G54D65*
X950787Y854134D03*
Y860433D03*
G54D29*
X835748Y1027559D03*
Y1030118D03*
Y1032677D03*
X844409D03*
Y1027559D03*
G54D75*
G01X794390Y692913D02*
X1011220D01*
G03X1017913Y700591I-552J7237D01*
G01Y964567D01*
G03X1013583Y976969I-19922J0D01*
G02X1009252Y989370I15591J12402D01*
G02X1013583Y1001772I19922J0D01*
G03X1017913Y1014173I-15591J12402D01*
G01Y1158811D01*
G03X1012157Y1164567I-5756J0D01*
G01X849803D01*
Y1159843D01*
X843504D01*
Y1151575D01*
X839961D01*
Y1159843D01*
X825000D01*
Y1151575D01*
X821457D01*
Y1159843D01*
X815157D01*
Y1164567D01*
X793354D01*
G03X787598Y1158811I0J-5756D01*
G01Y1014173D01*
G03X791929Y1001772I19922J0D01*
G02X796260Y989370I-15591J-12402D01*
G02X791929Y976969I-19922J0D01*
G03X787598Y964567I15591J-12402D01*
G01Y700591D01*
G03X794390Y692913I8087J312D01*
G01X950912Y586071D02*
Y593571D01*
X952778D01*
X953524Y593196D01*
X954084Y592696D01*
X954551Y591946D01*
X954924Y591071D01*
X955017Y589821D01*
X954924Y588571D01*
X954551Y587696D01*
X954084Y586946D01*
X953524Y586446D01*
X952778Y586071D01*
X950912D01*
G01X958132D02*
X960465Y593571D01*
X962797Y586071D01*
G01X961957Y588696D02*
X958972D01*
G01X967965Y593571D02*
Y586071D01*
G01X965819Y593571D02*
X970111D01*
G01X977331Y586071D02*
X973598D01*
Y593571D01*
X977331D01*
G01X975838Y589946D02*
X973598D01*
G01X982965Y585821D02*
X982778Y585946D01*
Y586196D01*
X982965Y586321D01*
X983151Y586196D01*
Y585946D01*
X982965Y585821D01*
G01Y589196D02*
X982778Y589321D01*
Y589571D01*
X982965Y589696D01*
X983151Y589571D01*
Y589321D01*
X982965Y589196D01*
G01X996192Y592321D02*
X996752Y593071D01*
X997405Y593446D01*
X998151Y593571D01*
X999084Y593321D01*
X999737Y592696D01*
X999924Y591946D01*
X999831Y591196D01*
X999457Y590571D01*
X997591Y589321D01*
X996752Y588446D01*
X996192Y587196D01*
X996005Y586071D01*
X999924D01*
G01X1005465Y593571D02*
X1004718Y593321D01*
X1004158Y592696D01*
X1003785Y591946D01*
X1003505Y590946D01*
X1003412Y589821D01*
X1003505Y588696D01*
X1003785Y587696D01*
X1004158Y586946D01*
X1004718Y586321D01*
X1005465Y586071D01*
X1006211Y586321D01*
X1006771Y586946D01*
X1007144Y587696D01*
X1007424Y588696D01*
X1007517Y589821D01*
X1007424Y590946D01*
X1007144Y591946D01*
X1006771Y592696D01*
X1006211Y593321D01*
X1005465Y593571D01*
G01X1011192Y592321D02*
X1011752Y593071D01*
X1012405Y593446D01*
X1013151Y593571D01*
X1014084Y593321D01*
X1014737Y592696D01*
X1014924Y591946D01*
X1014831Y591196D01*
X1014457Y590571D01*
X1012591Y589321D01*
X1011752Y588446D01*
X1011192Y587196D01*
X1011005Y586071D01*
X1014924D01*
G01X1020465Y593571D02*
X1019718Y593321D01*
X1019158Y592696D01*
X1018785Y591946D01*
X1018505Y590946D01*
X1018412Y589821D01*
X1018505Y588696D01*
X1018785Y587696D01*
X1019158Y586946D01*
X1019718Y586321D01*
X1020465Y586071D01*
X1021211Y586321D01*
X1021771Y586946D01*
X1022144Y587696D01*
X1022424Y588696D01*
X1022517Y589821D01*
X1022424Y590946D01*
X1022144Y591946D01*
X1021771Y592696D01*
X1021211Y593321D01*
X1020465Y593571D01*
G01X1026752Y588571D02*
X1029178D01*
G01X1035465Y593571D02*
X1034718Y593321D01*
X1034158Y592696D01*
X1033785Y591946D01*
X1033505Y590946D01*
X1033412Y589821D01*
X1033505Y588696D01*
X1033785Y587696D01*
X1034158Y586946D01*
X1034718Y586321D01*
X1035465Y586071D01*
X1036211Y586321D01*
X1036771Y586946D01*
X1037144Y587696D01*
X1037424Y588696D01*
X1037517Y589821D01*
X1037424Y590946D01*
X1037144Y591946D01*
X1036771Y592696D01*
X1036211Y593321D01*
X1035465Y593571D01*
G01X1041192Y592321D02*
X1041752Y593071D01*
X1042405Y593446D01*
X1043151Y593571D01*
X1044084Y593321D01*
X1044737Y592696D01*
X1044924Y591946D01*
X1044831Y591196D01*
X1044457Y590571D01*
X1042591Y589321D01*
X1041752Y588446D01*
X1041192Y587196D01*
X1041005Y586071D01*
X1044924D01*
G01X1049252Y588571D02*
X1051678D01*
G01X1057965Y586071D02*
Y593571D01*
X1056845Y592071D01*
G01Y586071D02*
X1059084D01*
G01X1065278D02*
X1065465Y587696D01*
X1065744Y589071D01*
X1066118Y590321D01*
X1066584Y591696D01*
X1067331Y593571D01*
X1063598D01*
G01X943556Y607200D02*
X944303Y606576D01*
X945143Y606201D01*
X945889D01*
X946635Y606576D01*
X947195Y607200D01*
X947475Y608076D01*
X947289Y608951D01*
X946822Y609701D01*
X945982Y610201D01*
X944863Y610451D01*
X944209Y610951D01*
X943930Y611826D01*
X944116Y612701D01*
X944583Y613326D01*
X945236Y613701D01*
X945889D01*
X946542Y613451D01*
X947102Y612826D01*
G01X950590Y606201D02*
Y613701D01*
X953016Y607451D01*
X955442Y613701D01*
Y606201D01*
G01X968016Y613701D02*
Y606201D01*
G01X965870Y613701D02*
X970162D01*
G01X975516Y606201D02*
X974769Y606326D01*
X974116Y606826D01*
X973556Y607576D01*
X973183Y608451D01*
X972996Y609451D01*
Y610451D01*
X973183Y611451D01*
X973556Y612326D01*
X974116Y613076D01*
X974769Y613576D01*
X975516Y613701D01*
X976262Y613576D01*
X976915Y613076D01*
X977475Y612326D01*
X977848Y611451D01*
X978035Y610451D01*
Y609451D01*
X977848Y608451D01*
X977475Y607576D01*
X976915Y606826D01*
X976262Y606326D01*
X975516Y606201D01*
G01X981150D02*
Y613701D01*
X983389D01*
X984135Y613326D01*
X984695Y612451D01*
X984882Y611451D01*
X984695Y610451D01*
X984229Y609701D01*
X983389Y609326D01*
X981150D01*
G01X952768Y632744D02*
Y625244D01*
G01X950622Y632744D02*
X954914D01*
G01X962134Y625244D02*
X958402D01*
Y632744D01*
X962134D01*
G01X960641Y629119D02*
X958402D01*
G01X965808Y625244D02*
X969727Y632744D01*
G01X965808D02*
X969727Y625244D01*
G01X972935D02*
X975268Y632744D01*
X977600Y625244D01*
G01X976761Y627869D02*
X973775D01*
G01X980808Y626244D02*
X981555Y625619D01*
X982394Y625244D01*
X983141D01*
X983887Y625619D01*
X984447Y626244D01*
X984727Y627119D01*
X984541Y627994D01*
X984074Y628744D01*
X983234Y629244D01*
X982115Y629494D01*
X981461Y629994D01*
X981181Y630869D01*
X981368Y631744D01*
X981835Y632369D01*
X982488Y632744D01*
X983141D01*
X983794Y632494D01*
X984354Y631869D01*
G01X996648Y632744D02*
X998887D01*
G01X997768D02*
Y625244D01*
G01X996648D02*
X998887D01*
G01X1003122D02*
Y632744D01*
X1007414Y625244D01*
Y632744D01*
G01X1010808Y626244D02*
X1011555Y625619D01*
X1012394Y625244D01*
X1013141D01*
X1013887Y625619D01*
X1014447Y626244D01*
X1014727Y627119D01*
X1014541Y627994D01*
X1014074Y628744D01*
X1013234Y629244D01*
X1012115Y629494D01*
X1011461Y629994D01*
X1011181Y630869D01*
X1011368Y631744D01*
X1011835Y632369D01*
X1012488Y632744D01*
X1013141D01*
X1013794Y632494D01*
X1014354Y631869D01*
G01X1020268Y632744D02*
Y625244D01*
G01X1018122Y632744D02*
X1022414D01*
G01X1025902Y625244D02*
Y632744D01*
X1028234D01*
X1028981Y632369D01*
X1029447Y631869D01*
X1029634Y630869D01*
X1029447Y629869D01*
X1028887Y629244D01*
X1028234Y628869D01*
X1025902D01*
G01X1028234D02*
X1029634Y625244D01*
G01X1033215Y632744D02*
Y627369D01*
X1033588Y626244D01*
X1034335Y625494D01*
X1035268Y625244D01*
X1036201Y625494D01*
X1036947Y626244D01*
X1037320Y627369D01*
Y632744D01*
G01X1040342Y625244D02*
Y632744D01*
X1042768Y626494D01*
X1045194Y632744D01*
Y625244D01*
G01X1052134D02*
X1048402D01*
Y632744D01*
X1052134D01*
G01X1050641Y629119D02*
X1048402D01*
G01X1055622Y625244D02*
Y632744D01*
X1059914Y625244D01*
Y632744D01*
G01X1065268D02*
Y625244D01*
G01X1063122Y632744D02*
X1067414D01*
G01X1070808Y626244D02*
X1071555Y625619D01*
X1072394Y625244D01*
X1073141D01*
X1073887Y625619D01*
X1074447Y626244D01*
X1074727Y627119D01*
X1074541Y627994D01*
X1074074Y628744D01*
X1073234Y629244D01*
X1072115Y629494D01*
X1071461Y629994D01*
X1071181Y630869D01*
X1071368Y631744D01*
X1071835Y632369D01*
X1072488Y632744D01*
X1073141D01*
X1073794Y632494D01*
X1074354Y631869D01*
G01X992312Y609398D02*
Y606299D01*
X993845D01*
G01X995219D02*
X996177Y609398D01*
X997135Y606299D01*
G01X996790Y607383D02*
X995564D01*
G01X998433Y609398D02*
Y607177D01*
X998586Y606712D01*
X998893Y606402D01*
X999276Y606299D01*
X999659Y606402D01*
X999965Y606712D01*
X1000119Y607177D01*
Y609398D01*
G01X1001493Y606299D02*
Y609398D01*
X1003256Y606299D01*
Y609398D01*
G01X1006315Y609139D02*
X1006085Y609294D01*
X1005817Y609398D01*
X1005511D01*
X1005166Y609243D01*
X1004898Y608985D01*
X1004706Y608675D01*
X1004553Y608158D01*
X1004515Y607693D01*
X1004591Y607229D01*
X1004706Y606919D01*
X1004936Y606609D01*
X1005204Y606402D01*
X1005472Y606299D01*
X1005741D01*
X1006009Y606402D01*
X1006239Y606557D01*
X1006430Y606764D01*
G01X1007766Y606299D02*
Y609398D01*
G01X1009376D02*
Y606299D01*
G01Y607848D02*
X1007766D01*
G01X1010865Y606299D02*
X1012474Y609398D01*
G01X1010865D02*
X1012474Y606299D01*
G01X1014001Y609398D02*
Y606299D01*
X1015534D01*
G01X1017368Y607332D02*
X1018364D01*
G01X1021807Y609139D02*
X1021578Y609294D01*
X1021309Y609398D01*
X1021003D01*
X1020658Y609243D01*
X1020390Y608985D01*
X1020198Y608675D01*
X1020045Y608158D01*
X1020007Y607693D01*
X1020083Y607229D01*
X1020198Y606919D01*
X1020428Y606609D01*
X1020696Y606402D01*
X1020965Y606299D01*
X1021233D01*
X1021501Y606402D01*
X1021731Y606557D01*
X1021922Y606764D01*
G01X1024906Y609139D02*
X1024676Y609294D01*
X1024408Y609398D01*
X1024101D01*
X1023756Y609243D01*
X1023488Y608985D01*
X1023296Y608675D01*
X1023143Y608158D01*
X1023105Y607693D01*
X1023181Y607229D01*
X1023296Y606919D01*
X1023526Y606609D01*
X1023795Y606402D01*
X1024063Y606299D01*
X1024331D01*
X1024600Y606402D01*
X1024830Y606557D01*
X1025021Y606764D01*
G01X1027161Y606299D02*
Y609398D01*
X1026702Y608778D01*
G01Y606299D02*
X1027621D01*
G01X1029417Y606919D02*
X1029647Y606557D01*
X1029953Y606351D01*
X1030298Y606299D01*
X1030605Y606351D01*
X1030911Y606609D01*
X1031103Y606919D01*
X1031141Y607229D01*
X1031065Y607590D01*
X1030796Y607848D01*
X1030528Y607952D01*
X1030183D01*
G01X1030528D02*
X1030758Y608107D01*
X1030950Y608365D01*
X1031026Y608675D01*
X1030950Y608985D01*
X1030758Y609243D01*
X1030413Y609398D01*
X1030068Y609346D01*
X1029723Y609139D01*
G01X1033358Y606299D02*
Y609398D01*
X1032898Y608778D01*
G01Y606299D02*
X1033818D01*
G01X1036457Y609398D02*
X1036150Y609294D01*
X1035920Y609036D01*
X1035767Y608726D01*
X1035652Y608313D01*
X1035614Y607848D01*
X1035652Y607383D01*
X1035767Y606970D01*
X1035920Y606661D01*
X1036150Y606402D01*
X1036457Y606299D01*
X1036763Y606402D01*
X1036993Y606661D01*
X1037146Y606970D01*
X1037261Y607383D01*
X1037300Y607848D01*
X1037261Y608313D01*
X1037146Y608726D01*
X1036993Y609036D01*
X1036763Y609294D01*
X1036457Y609398D01*
G01X1041696Y606299D02*
X1042654Y609398D01*
X1043611Y606299D01*
G01X1043267Y607383D02*
X1042041D01*
G54D39*
X835976Y1152165D03*
X828591D03*
G54D66*
X942323Y988780D03*
X942126Y1024016D03*
Y1025984D03*
Y1027953D03*
G54D48*
X903445Y898425D03*
G54D57*
X877657Y1123819D03*
X875098D03*
X872539D03*
X869980D03*
X877657Y1135630D03*
X875098D03*
X872539D03*
X869980D03*
G54D49*
X913976Y871654D03*
Y861811D03*
G54D58*
X873819Y1129724D03*
G54D67*
X936417Y988780D03*
X936220Y1024016D03*
Y1025984D03*
Y1027953D03*
G54D59*
X882577Y1127127D03*
Y1123584D03*
X865161Y1127362D03*
Y1123819D03*
X862402Y1103543D03*
Y1100000D03*
X955906Y850787D03*
Y847244D03*
G54D68*
X941339Y991732D03*
X939370D03*
X937402D03*
X939173Y1028937D03*
G54D69*
X941339Y985827D03*
X939370D03*
X937402D03*
X939173Y1023031D03*
M02*
