G04 ================== begin FILE IDENTIFICATION RECORD ==================*
G04 Layout Name:  LAUNCHXL-CC1310.brd*
G04 Film Name:    LAUNCHXL-CC1310_assembly_bottom*
G04 File Format:  Gerber RS274X*
G04 File Origin:  Cadence Allegro 17.2-S024*
G04 Origin Date:  Tue Feb 18 08:08:47 2020*
G04 *
G04 Layer:  DRAWING FORMAT/TITLE_BLOCK*
G04 Layer:  BOARD GEOMETRY/BOTTOM ASSEMBLY*
G04 Layer:  REF DES/ASSEMBLY_BOTTOM*
G04 Layer:  PACKAGE GEOMETRY/ASSEMBLY_BOTTOM*
G04 Layer:  BOARD GEOMETRY/OUTLINE*
G04 *
G04 Offset:    (0.0000 0.0000)*
G04 Mirror:    No*
G04 Mode:      Positive*
G04 Rotation:  0*
G04 FullContactRelief:  No*
G04 UndefLineWidth:     0.0990*
G04 ================== end FILE IDENTIFICATION RECORD ====================*
%FSLAX25Y25*MOIN*%
%IR0*IPPOS*OFA0.00000B0.00000*MIA0B0*SFA1.00000B1.00000*%
%ADD10C,.003937*%
%ADD11C,.001969*%
%ADD12C,.003898*%
G75*
%LPD*%
G75*
G54D10*
G01X790945Y638681D02*
Y579626D01*
X1086220D01*
Y638681D01*
X790945D01*
G01X818269Y972378D02*
X818079Y972028D01*
X817850Y971794D01*
X817584Y971677D01*
X817280Y971794D01*
X817051Y972028D01*
X816823Y972378D01*
X816747Y972845D01*
Y975181D01*
G01X814909Y971677D02*
Y975181D01*
X815366Y974480D01*
G01Y971677D02*
X814453D01*
G01X938583Y638681D02*
Y579626D01*
G01Y599311D02*
X1086220D01*
G01Y618996D02*
X938583D01*
G01X988488D02*
Y599311D01*
G01X988348Y972378D02*
X988157Y972028D01*
X987929Y971794D01*
X987663Y971677D01*
X987358Y971794D01*
X987130Y972028D01*
X986902Y972378D01*
X986826Y972845D01*
Y975181D01*
G01X985711Y974597D02*
X985483Y974948D01*
X985217Y975123D01*
X984912Y975181D01*
X984531Y975064D01*
X984265Y974772D01*
X984189Y974422D01*
X984227Y974071D01*
X984379Y973780D01*
X985141Y973196D01*
X985483Y972787D01*
X985711Y972203D01*
X985787Y971677D01*
X984189D01*
G54D11*
G01X802465Y701969D02*
Y704173D01*
X801850Y702336D01*
X801236Y704173D01*
Y701969D01*
G01X800732D02*
Y704173D01*
G01X799740D02*
Y701969D01*
G01Y703071D02*
X800732D01*
G01X798622Y701969D02*
Y704173D01*
X798906Y703732D01*
G01Y701969D02*
X798339D01*
G01X797181Y1115646D02*
X799386D01*
Y1116213D01*
X799276Y1116402D01*
X799019Y1116543D01*
X798724Y1116591D01*
X798430Y1116543D01*
X798210Y1116425D01*
X798100Y1116213D01*
Y1115646D01*
G01X797181Y1117732D02*
X797218Y1117898D01*
X797328Y1118087D01*
X797512Y1118205D01*
X797769Y1118252D01*
X798026Y1118205D01*
X798247Y1118063D01*
X798357Y1117850D01*
Y1117614D01*
X798430Y1117472D01*
X798614Y1117354D01*
X798871Y1117307D01*
X799129Y1117378D01*
X799312Y1117543D01*
X799386Y1117732D01*
X799312Y1117921D01*
X799129Y1118087D01*
X798871Y1118157D01*
X798614Y1118110D01*
X798430Y1117992D01*
X798357Y1117850D01*
Y1117614D01*
X798247Y1117402D01*
X798026Y1117260D01*
X797769Y1117213D01*
X797512Y1117260D01*
X797328Y1117378D01*
X797218Y1117567D01*
X797181Y1117732D01*
G01X802465Y1151575D02*
Y1153780D01*
X801850Y1151942D01*
X801236Y1153780D01*
Y1151575D01*
G01X800732D02*
Y1153780D01*
G01X799740D02*
Y1151575D01*
G01Y1152677D02*
X800732D01*
G01X799142Y1152016D02*
X799000Y1151759D01*
X798811Y1151611D01*
X798598Y1151575D01*
X798409Y1151611D01*
X798220Y1151795D01*
X798102Y1152016D01*
X798079Y1152236D01*
X798126Y1152493D01*
X798291Y1152677D01*
X798457Y1152751D01*
X798669D01*
G01X798457D02*
X798315Y1152861D01*
X798197Y1153044D01*
X798150Y1153265D01*
X798197Y1153485D01*
X798315Y1153669D01*
X798528Y1153780D01*
X798740Y1153743D01*
X798953Y1153596D01*
G01X809874Y709921D02*
Y712126D01*
X809260Y710289D01*
X808646Y712126D01*
Y709921D01*
G01X807646D02*
Y712126D01*
X807929Y711685D01*
G01Y709921D02*
X807362D01*
G01X806551Y710252D02*
X806409Y710068D01*
X806244Y709958D01*
X806031Y709921D01*
X805819Y709995D01*
X805654Y710142D01*
X805535Y710399D01*
X805512Y710693D01*
X805559Y710987D01*
X805677Y711170D01*
X805843Y711318D01*
X806008Y711354D01*
X806173Y711318D01*
X806386Y711170D01*
X806315Y712126D01*
X805677D01*
G01X810268Y1146732D02*
Y1148937D01*
X809654Y1147100D01*
X809039Y1148937D01*
Y1146732D01*
G01X808039D02*
Y1148937D01*
X808323Y1148496D01*
G01Y1146732D02*
X807756D01*
G01X806472D02*
X806425Y1147210D01*
X806354Y1147614D01*
X806260Y1147981D01*
X806142Y1148386D01*
X805953Y1148937D01*
X806898D01*
G01X905315Y821102D02*
Y819291D01*
X904528D01*
G01X903386Y820257D02*
X903307Y820348D01*
X903248Y820499D01*
X903209Y820710D01*
X903248Y820891D01*
X903327Y821012D01*
X903465Y821102D01*
X903996D01*
Y819291D01*
X903346D01*
X903209Y819412D01*
X903130Y819593D01*
X903091Y819804D01*
X903130Y820016D01*
X903248Y820197D01*
X903386Y820257D01*
X903996D01*
G01X902559Y821102D02*
Y819291D01*
X901772D01*
G01X900787D02*
Y821102D01*
X901024Y820740D01*
G01Y819291D02*
X900551D01*
G01X945335Y695610D02*
Y693406D01*
X944390D01*
G01X943059Y694581D02*
X942965Y694692D01*
X942894Y694875D01*
X942846Y695133D01*
X942894Y695353D01*
X942988Y695500D01*
X943154Y695610D01*
X943791D01*
Y693406D01*
X943012D01*
X942846Y693552D01*
X942752Y693773D01*
X942705Y694030D01*
X942752Y694287D01*
X942894Y694508D01*
X943059Y694581D01*
X943791D01*
G01X942106Y695610D02*
Y693406D01*
X941161D01*
G01X939736D02*
Y695610D01*
X940610Y694030D01*
X939429D01*
G01X1012307Y701969D02*
Y704173D01*
X1011693Y702336D01*
X1011079Y704173D01*
Y701969D01*
G01X1010575D02*
Y704173D01*
G01X1009583D02*
Y701969D01*
G01Y703071D02*
X1010575D01*
G01X1008913Y703806D02*
X1008772Y704026D01*
X1008606Y704137D01*
X1008417Y704173D01*
X1008181Y704100D01*
X1008016Y703916D01*
X1007969Y703696D01*
X1007992Y703475D01*
X1008087Y703291D01*
X1008559Y702924D01*
X1008772Y702667D01*
X1008913Y702299D01*
X1008961Y701969D01*
X1007969D01*
G01X1008102Y709724D02*
Y711929D01*
X1007488Y710092D01*
X1006874Y711929D01*
Y709724D01*
G01X1005874D02*
Y711929D01*
X1006157Y711488D01*
G01Y709724D02*
X1005591D01*
G01X1004709Y710643D02*
X1004543Y710900D01*
X1004402Y711047D01*
X1004213Y711121D01*
X1004047Y711047D01*
X1003929Y710900D01*
X1003835Y710680D01*
X1003811Y710422D01*
X1003835Y710202D01*
X1003929Y709981D01*
X1004071Y709798D01*
X1004236Y709724D01*
X1004425Y709798D01*
X1004591Y710019D01*
X1004685Y710349D01*
X1004709Y710717D01*
X1004661Y711194D01*
X1004591Y711452D01*
X1004472Y711709D01*
X1004307Y711893D01*
X1004142Y711929D01*
X1003976Y711856D01*
X1003858Y711672D01*
G01X1012307Y1151575D02*
Y1153780D01*
X1011693Y1151942D01*
X1011079Y1153780D01*
Y1151575D01*
G01X1010575D02*
Y1153780D01*
G01X1009583D02*
Y1151575D01*
G01Y1152677D02*
X1010575D01*
G01X1008181Y1151575D02*
Y1153780D01*
X1009055Y1152200D01*
X1007874D01*
G01X1006134Y1146535D02*
Y1148740D01*
X1005520Y1146903D01*
X1004906Y1148740D01*
Y1146535D01*
G01X1003906D02*
Y1148740D01*
X1004189Y1148299D01*
G01Y1146535D02*
X1003622D01*
G01X1002291D02*
X1002126Y1146572D01*
X1001937Y1146682D01*
X1001819Y1146866D01*
X1001772Y1147123D01*
X1001819Y1147381D01*
X1001961Y1147601D01*
X1002173Y1147711D01*
X1002409D01*
X1002551Y1147785D01*
X1002669Y1147969D01*
X1002717Y1148226D01*
X1002646Y1148483D01*
X1002480Y1148667D01*
X1002291Y1148740D01*
X1002102Y1148667D01*
X1001937Y1148483D01*
X1001866Y1148226D01*
X1001913Y1147969D01*
X1002031Y1147785D01*
X1002173Y1147711D01*
X1002409D01*
X1002622Y1147601D01*
X1002764Y1147381D01*
X1002811Y1147123D01*
X1002764Y1146866D01*
X1002646Y1146682D01*
X1002457Y1146572D01*
X1002291Y1146535D01*
G54D12*
G01X794390Y692913D02*
X1011220D01*
G03X1017913Y700591I-552J7237D01*
G01Y964567D01*
G03X1013583Y976969I-19922J0D01*
G02X1009252Y989370I15591J12402D01*
G02X1013583Y1001772I19922J0D01*
G03X1017913Y1014173I-15591J12402D01*
G01Y1158811D01*
G03X1012157Y1164567I-5756J0D01*
G01X849803D01*
Y1159843D01*
X843504D01*
Y1151575D01*
X839961D01*
Y1159843D01*
X825000D01*
Y1151575D01*
X821457D01*
Y1159843D01*
X815157D01*
Y1164567D01*
X793354D01*
G03X787598Y1158811I0J-5756D01*
G01Y1014173D01*
G03X791929Y1001772I19922J0D01*
G02X796260Y989370I-15591J-12402D01*
G02X791929Y976969I-19922J0D01*
G03X787598Y964567I15591J-12402D01*
G01Y700591D01*
G03X794390Y692913I8087J312D01*
G01X801378Y720472D02*
G03I-5512J0D01*
G01X805118Y702756D02*
G03I-7874J0D01*
G01X817323Y708858D02*
G03I-13386J0D01*
G01X811417Y1096524D02*
Y1145524D01*
X784921D01*
Y1096524D01*
X811417D01*
G01X805118Y1152362D02*
G03I-7874J0D01*
G01X817717Y1145669D02*
G03I-13386J0D01*
G01X827280Y968441D02*
Y866441D01*
G01D02*
X807783D01*
G01D02*
Y968441D01*
G01X810980Y880890D02*
Y883992D01*
G01D02*
X814083D01*
G01Y880890D02*
X810980D01*
G01X814083Y883992D02*
Y880890D01*
G01X820980D02*
Y883992D01*
G01D02*
X824083D01*
G01Y880890D02*
X820980D01*
G01X824083Y883992D02*
Y880890D01*
G01X810980Y890890D02*
Y893992D01*
G01D02*
X814083D01*
G01Y890890D02*
X810980D01*
G01X814083Y893992D02*
Y890890D01*
G01X820980D02*
Y893992D01*
G01D02*
X824083D01*
G01Y890890D02*
X820980D01*
G01X824083Y893992D02*
Y890890D01*
G01X810980Y900890D02*
Y903992D01*
G01D02*
X814083D01*
G01Y900890D02*
X810980D01*
G01X814083Y903992D02*
Y900890D01*
G01X820980D02*
Y903992D01*
G01D02*
X824083D01*
G01Y900890D02*
X820980D01*
G01X824083Y903992D02*
Y900890D01*
G01X810980Y910890D02*
Y913992D01*
G01X814083Y910890D02*
X810980D01*
G01X814083Y913992D02*
Y910890D01*
G01X820980D02*
Y913992D01*
G01X824083Y910890D02*
X820980D01*
G01X824083Y913992D02*
Y910890D01*
G01X810980Y870890D02*
Y873992D01*
G01D02*
X814083D01*
G01Y870890D02*
X810980D01*
G01X814083Y873992D02*
Y870890D01*
G01X824083Y873992D02*
Y870890D01*
G01D02*
X820980D01*
G01Y873992D02*
X824083D01*
G01X820980Y870890D02*
Y873992D01*
G01X810980Y913992D02*
X814083D01*
G01X820980D02*
X824083D01*
G01X810980Y920890D02*
Y923992D01*
G01D02*
X814083D01*
G01Y920890D02*
X810980D01*
G01X814083Y923992D02*
Y920890D01*
G01X820980D02*
Y923992D01*
G01D02*
X824083D01*
G01Y920890D02*
X820980D01*
G01X824083Y923992D02*
Y920890D01*
G01X810980Y930890D02*
Y933992D01*
G01D02*
X814083D01*
G01Y930890D02*
X810980D01*
G01X814083Y933992D02*
Y930890D01*
G01X820980D02*
Y933992D01*
G01D02*
X824083D01*
G01Y930890D02*
X820980D01*
G01X824083Y933992D02*
Y930890D01*
G01X810980Y940890D02*
Y943992D01*
G01D02*
X814083D01*
G01Y940890D02*
X810980D01*
G01X814083Y943992D02*
Y940890D01*
G01X820980D02*
Y943992D01*
G01D02*
X824083D01*
G01Y940890D02*
X820980D01*
G01X824083Y943992D02*
Y940890D01*
G01X810980Y950890D02*
Y953992D01*
G01D02*
X814083D01*
G01Y950890D02*
X810980D01*
G01X814083Y953992D02*
Y950890D01*
G01X820980D02*
Y953992D01*
G01D02*
X824083D01*
G01Y950890D02*
X820980D01*
G01X824083Y953992D02*
Y950890D01*
G01X810980Y960890D02*
Y963992D01*
G01D02*
X814083D01*
G01Y960890D02*
X810980D01*
G01X814083Y963992D02*
Y960890D01*
G01X824083D02*
X820980D01*
G01D02*
Y963992D01*
G01X824083D02*
Y960890D01*
G01X820980Y963992D02*
X824083D01*
G01X807783Y968441D02*
X827280D01*
G01X945571Y711516D02*
Y697736D01*
X867224D01*
Y711516D01*
X945571D01*
G01X950912Y586071D02*
Y593571D01*
X952778D01*
X953524Y593196D01*
X954084Y592696D01*
X954551Y591946D01*
X954924Y591071D01*
X955017Y589821D01*
X954924Y588571D01*
X954551Y587696D01*
X954084Y586946D01*
X953524Y586446D01*
X952778Y586071D01*
X950912D01*
G01X958132D02*
X960465Y593571D01*
X962797Y586071D01*
G01X961957Y588696D02*
X958972D01*
G01X967965Y593571D02*
Y586071D01*
G01X965819Y593571D02*
X970111D01*
G01X977331Y586071D02*
X973598D01*
Y593571D01*
X977331D01*
G01X975838Y589946D02*
X973598D01*
G01X982965Y585821D02*
X982778Y585946D01*
Y586196D01*
X982965Y586321D01*
X983151Y586196D01*
Y585946D01*
X982965Y585821D01*
G01Y589196D02*
X982778Y589321D01*
Y589571D01*
X982965Y589696D01*
X983151Y589571D01*
Y589321D01*
X982965Y589196D01*
G01X996192Y592321D02*
X996752Y593071D01*
X997405Y593446D01*
X998151Y593571D01*
X999084Y593321D01*
X999737Y592696D01*
X999924Y591946D01*
X999831Y591196D01*
X999457Y590571D01*
X997591Y589321D01*
X996752Y588446D01*
X996192Y587196D01*
X996005Y586071D01*
X999924D01*
G01X1005465Y593571D02*
X1004718Y593321D01*
X1004158Y592696D01*
X1003785Y591946D01*
X1003505Y590946D01*
X1003412Y589821D01*
X1003505Y588696D01*
X1003785Y587696D01*
X1004158Y586946D01*
X1004718Y586321D01*
X1005465Y586071D01*
X1006211Y586321D01*
X1006771Y586946D01*
X1007144Y587696D01*
X1007424Y588696D01*
X1007517Y589821D01*
X1007424Y590946D01*
X1007144Y591946D01*
X1006771Y592696D01*
X1006211Y593321D01*
X1005465Y593571D01*
G01X1011192Y592321D02*
X1011752Y593071D01*
X1012405Y593446D01*
X1013151Y593571D01*
X1014084Y593321D01*
X1014737Y592696D01*
X1014924Y591946D01*
X1014831Y591196D01*
X1014457Y590571D01*
X1012591Y589321D01*
X1011752Y588446D01*
X1011192Y587196D01*
X1011005Y586071D01*
X1014924D01*
G01X1020465Y593571D02*
X1019718Y593321D01*
X1019158Y592696D01*
X1018785Y591946D01*
X1018505Y590946D01*
X1018412Y589821D01*
X1018505Y588696D01*
X1018785Y587696D01*
X1019158Y586946D01*
X1019718Y586321D01*
X1020465Y586071D01*
X1021211Y586321D01*
X1021771Y586946D01*
X1022144Y587696D01*
X1022424Y588696D01*
X1022517Y589821D01*
X1022424Y590946D01*
X1022144Y591946D01*
X1021771Y592696D01*
X1021211Y593321D01*
X1020465Y593571D01*
G01X1026752Y588571D02*
X1029178D01*
G01X1035465Y593571D02*
X1034718Y593321D01*
X1034158Y592696D01*
X1033785Y591946D01*
X1033505Y590946D01*
X1033412Y589821D01*
X1033505Y588696D01*
X1033785Y587696D01*
X1034158Y586946D01*
X1034718Y586321D01*
X1035465Y586071D01*
X1036211Y586321D01*
X1036771Y586946D01*
X1037144Y587696D01*
X1037424Y588696D01*
X1037517Y589821D01*
X1037424Y590946D01*
X1037144Y591946D01*
X1036771Y592696D01*
X1036211Y593321D01*
X1035465Y593571D01*
G01X1041192Y592321D02*
X1041752Y593071D01*
X1042405Y593446D01*
X1043151Y593571D01*
X1044084Y593321D01*
X1044737Y592696D01*
X1044924Y591946D01*
X1044831Y591196D01*
X1044457Y590571D01*
X1042591Y589321D01*
X1041752Y588446D01*
X1041192Y587196D01*
X1041005Y586071D01*
X1044924D01*
G01X1049252Y588571D02*
X1051678D01*
G01X1057965Y586071D02*
Y593571D01*
X1056845Y592071D01*
G01Y586071D02*
X1059084D01*
G01X1065278D02*
X1065465Y587696D01*
X1065744Y589071D01*
X1066118Y590321D01*
X1066584Y591696D01*
X1067331Y593571D01*
X1063598D01*
G01X938852Y606201D02*
X941185Y613701D01*
X943518Y606201D01*
G01X942678Y608826D02*
X939692D01*
G01X946726Y607200D02*
X947472Y606576D01*
X948312Y606201D01*
X949058D01*
X949805Y606576D01*
X950365Y607200D01*
X950644Y608076D01*
X950458Y608951D01*
X949991Y609701D01*
X949152Y610201D01*
X948032Y610451D01*
X947379Y610951D01*
X947099Y611826D01*
X947285Y612701D01*
X947752Y613326D01*
X948405Y613701D01*
X949058D01*
X949711Y613451D01*
X950271Y612826D01*
G01X954226Y607200D02*
X954972Y606576D01*
X955812Y606201D01*
X956558D01*
X957305Y606576D01*
X957865Y607200D01*
X958144Y608076D01*
X957958Y608951D01*
X957491Y609701D01*
X956652Y610201D01*
X955532Y610451D01*
X954879Y610951D01*
X954599Y611826D01*
X954785Y612701D01*
X955252Y613326D01*
X955905Y613701D01*
X956558D01*
X957211Y613451D01*
X957771Y612826D01*
G01X963685Y606201D02*
Y609576D01*
X961819Y613701D01*
G01X965551D02*
X963685Y609576D01*
G01X971931Y610201D02*
X972305Y610576D01*
X972585Y611201D01*
X972771Y612076D01*
X972585Y612826D01*
X972211Y613326D01*
X971558Y613701D01*
X969039D01*
Y606201D01*
X972118D01*
X972771Y606701D01*
X973144Y607451D01*
X973331Y608326D01*
X973144Y609201D01*
X972585Y609951D01*
X971931Y610201D01*
X969039D01*
G01X978685Y606201D02*
X977939Y606326D01*
X977285Y606826D01*
X976726Y607576D01*
X976352Y608451D01*
X976166Y609451D01*
Y610451D01*
X976352Y611451D01*
X976726Y612326D01*
X977285Y613076D01*
X977939Y613576D01*
X978685Y613701D01*
X979431Y613576D01*
X980085Y613076D01*
X980644Y612326D01*
X981018Y611451D01*
X981204Y610451D01*
Y609451D01*
X981018Y608451D01*
X980644Y607576D01*
X980085Y606826D01*
X979431Y606326D01*
X978685Y606201D01*
G01X986185Y613701D02*
Y606201D01*
G01X984039Y613701D02*
X988331D01*
G01X952768Y632744D02*
Y625244D01*
G01X950622Y632744D02*
X954914D01*
G01X962134Y625244D02*
X958402D01*
Y632744D01*
X962134D01*
G01X960641Y629119D02*
X958402D01*
G01X965808Y625244D02*
X969727Y632744D01*
G01X965808D02*
X969727Y625244D01*
G01X972935D02*
X975268Y632744D01*
X977600Y625244D01*
G01X976761Y627869D02*
X973775D01*
G01X980808Y626244D02*
X981555Y625619D01*
X982394Y625244D01*
X983141D01*
X983887Y625619D01*
X984447Y626244D01*
X984727Y627119D01*
X984541Y627994D01*
X984074Y628744D01*
X983234Y629244D01*
X982115Y629494D01*
X981461Y629994D01*
X981181Y630869D01*
X981368Y631744D01*
X981835Y632369D01*
X982488Y632744D01*
X983141D01*
X983794Y632494D01*
X984354Y631869D01*
G01X996648Y632744D02*
X998887D01*
G01X997768D02*
Y625244D01*
G01X996648D02*
X998887D01*
G01X1003122D02*
Y632744D01*
X1007414Y625244D01*
Y632744D01*
G01X1010808Y626244D02*
X1011555Y625619D01*
X1012394Y625244D01*
X1013141D01*
X1013887Y625619D01*
X1014447Y626244D01*
X1014727Y627119D01*
X1014541Y627994D01*
X1014074Y628744D01*
X1013234Y629244D01*
X1012115Y629494D01*
X1011461Y629994D01*
X1011181Y630869D01*
X1011368Y631744D01*
X1011835Y632369D01*
X1012488Y632744D01*
X1013141D01*
X1013794Y632494D01*
X1014354Y631869D01*
G01X1020268Y632744D02*
Y625244D01*
G01X1018122Y632744D02*
X1022414D01*
G01X1025902Y625244D02*
Y632744D01*
X1028234D01*
X1028981Y632369D01*
X1029447Y631869D01*
X1029634Y630869D01*
X1029447Y629869D01*
X1028887Y629244D01*
X1028234Y628869D01*
X1025902D01*
G01X1028234D02*
X1029634Y625244D01*
G01X1033215Y632744D02*
Y627369D01*
X1033588Y626244D01*
X1034335Y625494D01*
X1035268Y625244D01*
X1036201Y625494D01*
X1036947Y626244D01*
X1037320Y627369D01*
Y632744D01*
G01X1040342Y625244D02*
Y632744D01*
X1042768Y626494D01*
X1045194Y632744D01*
Y625244D01*
G01X1052134D02*
X1048402D01*
Y632744D01*
X1052134D01*
G01X1050641Y629119D02*
X1048402D01*
G01X1055622Y625244D02*
Y632744D01*
X1059914Y625244D01*
Y632744D01*
G01X1065268D02*
Y625244D01*
G01X1063122Y632744D02*
X1067414D01*
G01X1070808Y626244D02*
X1071555Y625619D01*
X1072394Y625244D01*
X1073141D01*
X1073887Y625619D01*
X1074447Y626244D01*
X1074727Y627119D01*
X1074541Y627994D01*
X1074074Y628744D01*
X1073234Y629244D01*
X1072115Y629494D01*
X1071461Y629994D01*
X1071181Y630869D01*
X1071368Y631744D01*
X1071835Y632369D01*
X1072488Y632744D01*
X1073141D01*
X1073794Y632494D01*
X1074354Y631869D01*
G01X1015157Y720472D02*
G03I-5510J0D01*
G01X1014961Y702756D02*
G03I-7874J0D01*
G01X1015551Y708661D02*
G03I-13386J0D01*
G01X997358Y968441D02*
Y866441D01*
G01D02*
X977862D01*
G01D02*
Y968441D01*
G01X981059Y880890D02*
Y883992D01*
G01D02*
X984161D01*
G01Y880890D02*
X981059D01*
G01X984161Y883992D02*
Y880890D01*
G01X991059D02*
Y883992D01*
G01D02*
X994161D01*
G01Y880890D02*
X991059D01*
G01X994161Y883992D02*
Y880890D01*
G01X981059Y890890D02*
Y893992D01*
G01D02*
X984161D01*
G01Y890890D02*
X981059D01*
G01X984161Y893992D02*
Y890890D01*
G01X991059D02*
Y893992D01*
G01D02*
X994161D01*
G01Y890890D02*
X991059D01*
G01X994161Y893992D02*
Y890890D01*
G01X981059Y900890D02*
Y903992D01*
G01D02*
X984161D01*
G01Y900890D02*
X981059D01*
G01X984161Y903992D02*
Y900890D01*
G01X991059D02*
Y903992D01*
G01D02*
X994161D01*
G01Y900890D02*
X991059D01*
G01X994161Y903992D02*
Y900890D01*
G01X981059Y910890D02*
Y913992D01*
G01X984161Y910890D02*
X981059D01*
G01X984161Y913992D02*
Y910890D01*
G01X991059D02*
Y913992D01*
G01X994161Y910890D02*
X991059D01*
G01X994161Y913992D02*
Y910890D01*
G01X981059Y870890D02*
Y873992D01*
G01D02*
X984161D01*
G01Y870890D02*
X981059D01*
G01X984161Y873992D02*
Y870890D01*
G01X994161Y873992D02*
Y870890D01*
G01D02*
X991059D01*
G01Y873992D02*
X994161D01*
G01X991059Y870890D02*
Y873992D01*
G01X981059Y913992D02*
X984161D01*
G01X991059D02*
X994161D01*
G01X981059Y920890D02*
Y923992D01*
G01D02*
X984161D01*
G01Y920890D02*
X981059D01*
G01X984161Y923992D02*
Y920890D01*
G01X991059D02*
Y923992D01*
G01D02*
X994161D01*
G01Y920890D02*
X991059D01*
G01X994161Y923992D02*
Y920890D01*
G01X981059Y930890D02*
Y933992D01*
G01D02*
X984161D01*
G01Y930890D02*
X981059D01*
G01X984161Y933992D02*
Y930890D01*
G01X991059D02*
Y933992D01*
G01D02*
X994161D01*
G01Y930890D02*
X991059D01*
G01X994161Y933992D02*
Y930890D01*
G01X981059Y940890D02*
Y943992D01*
G01D02*
X984161D01*
G01Y940890D02*
X981059D01*
G01X984161Y943992D02*
Y940890D01*
G01X991059D02*
Y943992D01*
G01D02*
X994161D01*
G01Y940890D02*
X991059D01*
G01X994161Y943992D02*
Y940890D01*
G01X981059Y950890D02*
Y953992D01*
G01D02*
X984161D01*
G01Y950890D02*
X981059D01*
G01X984161Y953992D02*
Y950890D01*
G01X991059D02*
Y953992D01*
G01D02*
X994161D01*
G01Y950890D02*
X991059D01*
G01X994161Y953992D02*
Y950890D01*
G01X981059Y960890D02*
Y963992D01*
G01D02*
X984161D01*
G01Y960890D02*
X981059D01*
G01X984161Y963992D02*
Y960890D01*
G01X994161D02*
X991059D01*
G01D02*
Y963992D01*
G01X994161D02*
Y960890D01*
G01X991059Y963992D02*
X994161D01*
G01X977862Y968441D02*
X997358D01*
G01X1015157Y1122244D02*
G03I-5510J1D01*
G01X1014961Y1152362D02*
G03I-7874J0D01*
G01X1013583Y1145472D02*
G03I-13386J0D01*
G01X992312Y609398D02*
Y606299D01*
X993845D01*
G01X995219D02*
X996177Y609398D01*
X997135Y606299D01*
G01X996790Y607383D02*
X995564D01*
G01X998433Y609398D02*
Y607177D01*
X998586Y606712D01*
X998893Y606402D01*
X999276Y606299D01*
X999659Y606402D01*
X999965Y606712D01*
X1000119Y607177D01*
Y609398D01*
G01X1001493Y606299D02*
Y609398D01*
X1003256Y606299D01*
Y609398D01*
G01X1006315Y609139D02*
X1006085Y609294D01*
X1005817Y609398D01*
X1005511D01*
X1005166Y609243D01*
X1004898Y608985D01*
X1004706Y608675D01*
X1004553Y608158D01*
X1004515Y607693D01*
X1004591Y607229D01*
X1004706Y606919D01*
X1004936Y606609D01*
X1005204Y606402D01*
X1005472Y606299D01*
X1005741D01*
X1006009Y606402D01*
X1006239Y606557D01*
X1006430Y606764D01*
G01X1007766Y606299D02*
Y609398D01*
G01X1009376D02*
Y606299D01*
G01Y607848D02*
X1007766D01*
G01X1010865Y606299D02*
X1012474Y609398D01*
G01X1010865D02*
X1012474Y606299D01*
G01X1014001Y609398D02*
Y606299D01*
X1015534D01*
G01X1017368Y607332D02*
X1018364D01*
G01X1021807Y609139D02*
X1021578Y609294D01*
X1021309Y609398D01*
X1021003D01*
X1020658Y609243D01*
X1020390Y608985D01*
X1020198Y608675D01*
X1020045Y608158D01*
X1020007Y607693D01*
X1020083Y607229D01*
X1020198Y606919D01*
X1020428Y606609D01*
X1020696Y606402D01*
X1020965Y606299D01*
X1021233D01*
X1021501Y606402D01*
X1021731Y606557D01*
X1021922Y606764D01*
G01X1024906Y609139D02*
X1024676Y609294D01*
X1024408Y609398D01*
X1024101D01*
X1023756Y609243D01*
X1023488Y608985D01*
X1023296Y608675D01*
X1023143Y608158D01*
X1023105Y607693D01*
X1023181Y607229D01*
X1023296Y606919D01*
X1023526Y606609D01*
X1023795Y606402D01*
X1024063Y606299D01*
X1024331D01*
X1024600Y606402D01*
X1024830Y606557D01*
X1025021Y606764D01*
G01X1027161Y606299D02*
Y609398D01*
X1026702Y608778D01*
G01Y606299D02*
X1027621D01*
G01X1029417Y606919D02*
X1029647Y606557D01*
X1029953Y606351D01*
X1030298Y606299D01*
X1030605Y606351D01*
X1030911Y606609D01*
X1031103Y606919D01*
X1031141Y607229D01*
X1031065Y607590D01*
X1030796Y607848D01*
X1030528Y607952D01*
X1030183D01*
G01X1030528D02*
X1030758Y608107D01*
X1030950Y608365D01*
X1031026Y608675D01*
X1030950Y608985D01*
X1030758Y609243D01*
X1030413Y609398D01*
X1030068Y609346D01*
X1029723Y609139D01*
G01X1033358Y606299D02*
Y609398D01*
X1032898Y608778D01*
G01Y606299D02*
X1033818D01*
G01X1036457Y609398D02*
X1036150Y609294D01*
X1035920Y609036D01*
X1035767Y608726D01*
X1035652Y608313D01*
X1035614Y607848D01*
X1035652Y607383D01*
X1035767Y606970D01*
X1035920Y606661D01*
X1036150Y606402D01*
X1036457Y606299D01*
X1036763Y606402D01*
X1036993Y606661D01*
X1037146Y606970D01*
X1037261Y607383D01*
X1037300Y607848D01*
X1037261Y608313D01*
X1037146Y608726D01*
X1036993Y609036D01*
X1036763Y609294D01*
X1036457Y609398D01*
G01X1041696Y606299D02*
X1042654Y609398D01*
X1043611Y606299D01*
G01X1043267Y607383D02*
X1042041D01*
M02*
