G04 ================== begin FILE IDENTIFICATION RECORD ==================*
G04 Layout Name:  LAUNCHXL-CC1310.brd*
G04 Film Name:    LAUNCHXL-CC1310_Bottom*
G04 File Format:  Gerber RS274X*
G04 File Origin:  Cadence Allegro 17.2-S024*
G04 Origin Date:  Tue Feb 18 08:08:47 2020*
G04 *
G04 Layer:  DRAWING FORMAT/TITLE_BLOCK*
G04 Layer:  BOARD GEOMETRY/LAYER4*
G04 Layer:  BOARD GEOMETRY/OUTLINE*
G04 Layer:  VIA CLASS/BOTTOM*
G04 Layer:  PIN/BOTTOM*
G04 Layer:  ETCH/BOTTOM*
G04 *
G04 Offset:    (0.0000 0.0000)*
G04 Mirror:    No*
G04 Mode:      Positive*
G04 Rotation:  0*
G04 FullContactRelief:  No*
G04 UndefLineWidth:     0.0990*
G04 ================== end FILE IDENTIFICATION RECORD ====================*
%FSLAX25Y25*MOIN*%
%IR0*IPPOS*OFA0.00000B0.00000*MIA0B0*SFA1.00000B1.00000*%
%ADD15C,.003937*%
%ADD12C,.015748*%
%ADD19C,.019685*%
%ADD16C,.031496*%
%ADD18O,.055118X.082677*%
%ADD10C,.05*%
%ADD11C,.149606*%
%ADD17C,.064961*%
%ADD14C,.003898*%
%ADD13C,.06689*%
%ADD20C,.011811*%
%ADD21C,.005906*%
%ADD22C,.023622*%
%ADD23C,.027559*%
%ADD24C,.03937*%
%ADD26C,.027575*%
%ADD25C,.051945*%
%ADD27C,.076787*%
G75*
%LPD*%
G75*
G36*
G01X789770Y797441D02*
G02X789374Y797837I0J396D01*
G01Y962602D01*
G02X793276Y973772I17950J-4D01*
G03X796987Y980707I-17135J13630D01*
G01X797017Y980799D01*
X797154Y980935D01*
X797829Y981146D01*
G02X798083Y981140I118J-378D01*
G01X798220Y981093D01*
X798269Y981057D01*
G03X799061Y985643I1534J2096D01*
G01X799034Y985635D01*
X798976Y985626D01*
G02X798674Y985704I-59J391D01*
G01X798168Y986095D01*
G02X798014Y986408I242J313D01*
G01Y986426D01*
X798014Y986435D01*
G03X797983Y988902I-21873J958D01*
G01Y988905D01*
X797982Y988919D01*
Y988954D01*
G02X798128Y989261I396J0D01*
G01X798142Y989272D01*
X798624Y989650D01*
G02X798869Y989735I244J-311D01*
G01X798954D01*
X799062Y989719D01*
X799088Y989712D01*
G03X798110Y994178I715J2497D01*
G01X798035Y994114D01*
X797844Y994070D01*
X797135Y994263D01*
X797133Y994263D01*
G03X797058Y994275I-97J-384D01*
G01X796909Y994394D01*
X796870Y994471D01*
X796849Y994511D01*
X796839Y994540D01*
G03X793764Y1000394I-20698J-7140D01*
G03X793276Y1001031I-17627J-12986D01*
G02X791827Y1003150I14053J11167D01*
G01X791647Y1003458D01*
X791644Y1003463D01*
G02X789374Y1012200I15681J8738D01*
G01Y1012953D01*
X789370Y1012992D01*
X789372Y1091280D01*
G02X789616Y1091646I396J0D01*
G01X789727Y1091692D01*
X789962Y1091645D01*
X791881Y1089726D01*
G03X792161Y1089611I280J280D01*
G01X792643D01*
G02X792790Y1089582I0J-396D01*
G01X792989Y1089502D01*
X793040Y1089458D01*
G03X793207Y1091661I907J1039D01*
G01X793163Y1091632D01*
X793007Y1091584D01*
G02X792871Y1091567I-117J378D01*
G01X792686Y1091575D01*
G02X792425Y1091691I19J395D01*
G01X791613Y1092503D01*
G02X791497Y1092782I280J280D01*
G01Y1096066D01*
G02X791741Y1096431I396J0D01*
G01X791852Y1096478D01*
X792087Y1096431D01*
X792507Y1096010D01*
G02X792623Y1095749I-280J-280D01*
G01X792635Y1095494D01*
X792614Y1095428D01*
X792566Y1095272D01*
X792538Y1095228D01*
G03X794195Y1093201I1163J-740D01*
G01X794196Y1093201D01*
X794258Y1093225D01*
X794323Y1093227D01*
G02X794454Y1093210I14J-395D01*
G01X794981Y1093047D01*
X795034Y1093009D01*
X795089Y1092969D01*
X795128Y1092913D01*
G03X797299Y1094607I1132J788D01*
G01X797255Y1094658D01*
X797175Y1094858D01*
G02X797146Y1095005I367J147D01*
G01Y1096004D01*
G02X797262Y1096284I396J0D01*
G01X801704Y1100725D01*
X801844Y1100785D01*
X801920Y1100787D01*
G03X800511Y1102196I-31J1378D01*
G01X800510Y1102120D01*
X800450Y1101979D01*
X795489Y1097019D01*
G03X795373Y1096739I280J-280D01*
G01Y1096607D01*
G02X795129Y1096242I-396J0D01*
G01X795018Y1096196D01*
X794783Y1096243D01*
X794354Y1096672D01*
X794349Y1096677D01*
G03X794307Y1096719I-648J-606D01*
G01X794302Y1096724D01*
X793719Y1097307D01*
G02X793603Y1097586I280J280D01*
G01Y1106271D01*
G02X793789Y1106606I396J0D01*
G01X794363Y1106967D01*
X794377Y1106974D01*
G02X794739Y1106983I190J-347D01*
G01X794751Y1106978D01*
X794769Y1106969D01*
G03X794904Y1106916I572J1255D01*
G01X794960Y1106898D01*
X795161Y1106755D01*
X795204Y1106702D01*
X795354Y1106491D01*
X795392Y1106353D01*
X795385Y1106282D01*
G03X800451Y1107639I2784J-258D01*
G01Y1107640D01*
X800450Y1107640D01*
G02X800380Y1107826I323J228D01*
G01X800369Y1107930D01*
X800718Y1108740D01*
X800880Y1108865D01*
X800982Y1108880D01*
G03X801140Y1108910I-319J2142D01*
G01X801220Y1108929D01*
X801231Y1108931D01*
G02X801611Y1108828I100J-383D01*
G01X809635Y1100804D01*
G03X809915Y1100688I280J280D01*
G01X860881D01*
G02X861246Y1100444I0J-396D01*
G01X861293Y1100333D01*
X861246Y1100098D01*
X860181Y1099034D01*
G02X859902Y1098918I-280J280D01*
G01X850029D01*
G03X849749Y1098802I0J-396D01*
G01X848438Y1097491D01*
G03X848322Y1097211I280J-280D01*
G01Y1096729D01*
G02X848294Y1096582I-396J0D01*
G01X848239Y1096444D01*
G02X848169Y1096331I-367J147D01*
G03X850372Y1096165I1039J-906D01*
G01X850344Y1096209D01*
X850295Y1096365D01*
G02X850278Y1096501I378J117D01*
G01X850287Y1096686D01*
G02X850402Y1096947I395J-19D01*
G01X850484Y1097029D01*
G02X850763Y1097145I280J-280D01*
G01X860637D01*
G03X860916Y1097261I0J396D01*
G01X862653Y1098998D01*
G02X862933Y1099113I280J-280D01*
G01X869759D01*
G02X869906Y1099085I0J-396D01*
G01X870106Y1099005D01*
X870156Y1098961D01*
G03Y1101039I907J1039D01*
G01X870106Y1100995D01*
X869906Y1100915D01*
G02X869759Y1100887I-147J367D01*
G01X861906D01*
G02X861541Y1101131I0J396D01*
G01X861495Y1101242D01*
X861542Y1101477D01*
X864924Y1104859D01*
X865065Y1104919D01*
X865141Y1104921D01*
G03X863732Y1106330I-31J1378D01*
G01X863730Y1106254D01*
X863670Y1106113D01*
X860134Y1102577D01*
G02X859855Y1102461I-280J280D01*
G01X810649D01*
G02X810370Y1102577I0J396D01*
G01X802867Y1110080D01*
G02X802755Y1110412I280J280D01*
G01X802762Y1110466D01*
X802768Y1110488D01*
G03X798838Y1112181I-2099J535D01*
G02X798504Y1111996I-334J211D01*
G01X797835D01*
G02X797500Y1112181I0J396D01*
G03X796826Y1112855I-1831J-1157D01*
G02X796642Y1113189I211J334D01*
G01Y1113835D01*
G02X796646Y1113890I396J0D01*
G01X796648Y1113902D01*
G02X796760Y1114126I392J-56D01*
G01X796825Y1114191D01*
X796859Y1114213D01*
G03X793794Y1117108I-1190J1810D01*
G01X793741Y1117016D01*
X793558Y1116910D01*
X793096D01*
G03X792816Y1116794I0J-396D01*
G01X792172Y1116150D01*
G02X791741Y1116065I-280J280D01*
G01X791630Y1116111D01*
X791497Y1116310D01*
Y1124331D01*
G02X791613Y1124611I396J0D01*
G01X792023Y1125021D01*
G02X792303Y1125137I280J-280D01*
G01X793558D01*
X793741Y1125031D01*
X793794Y1124939D01*
G03X797500Y1124867I1875J1084D01*
G01X797554Y1124951D01*
X797726Y1125048D01*
X797835Y1125051D01*
X798504D01*
G02X798838Y1124867I0J-396D01*
G03X799512Y1124193I1831J1157D01*
G02X799696Y1123858I-211J-334D01*
G01Y1123189D01*
G02X799512Y1122855I-396J0D01*
G03X801217Y1118928I1157J-1831D01*
G01X801222Y1118929D01*
G02X801611Y1118828I109J-380D01*
G01X801650Y1118789D01*
G02X801765Y1118510I-280J-280D01*
G01Y1118454D01*
X801758Y1118380D01*
X801755Y1118363D01*
G03X803596Y1119400I1355J-253D01*
G01X803516Y1119431D01*
X802867Y1120080D01*
G02X802755Y1120412I280J280D01*
G01X802762Y1120465D01*
X802768Y1120488D01*
G03X801826Y1122855I-2099J536D01*
G02X801642Y1123189I211J334D01*
G01Y1123858D01*
G02X801826Y1124193I396J0D01*
G03Y1127855I-1157J1831D01*
G02X801642Y1128189I211J334D01*
G01Y1128858D01*
G02X801826Y1129192I396J0D01*
G03X802510Y1132166I-1157J1831D01*
G01X802461Y1132245D01*
X802443Y1132429D01*
X802700Y1133104D01*
G02X802958Y1133342I370J-141D01*
G03X800230Y1138041I-792J2681D01*
G01X800171Y1137985D01*
X800018Y1137928D01*
X799362Y1137961D01*
G02X799086Y1138094I20J395D01*
G01X799063Y1138119D01*
X799062Y1138121D01*
X799055Y1138128D01*
G03X797063Y1138186I-1024J-924D01*
G01X797009Y1138133D01*
X796874Y1138074D01*
X796328Y1138055D01*
G02X796161Y1138085I-15J395D01*
G01X795994Y1138147D01*
X795942Y1138189D01*
G03X795825Y1133768I-1769J-2165D01*
G01X795874Y1133804D01*
X796033Y1133859D01*
X796072Y1133864D01*
X796173Y1133879D01*
X796285Y1133841D01*
G02X796336Y1133820I-125J-376D01*
G01X796929Y1133528D01*
G02X797032Y1133454I-175J-355D01*
G01X797066Y1133420D01*
X797121Y1133333D01*
G03X797177Y1133262I336J209D01*
G01X798550Y1131889D01*
X798604Y1131685D01*
X798577Y1131583D01*
G03X799512Y1129193I2093J-559D01*
G02X799696Y1128858I-211J-334D01*
G01Y1128189D01*
G02X799512Y1127855I-396J0D01*
G03X798838Y1127181I1157J-1831D01*
G02X798504Y1126996I-334J211D01*
G01X797835D01*
G02X797500Y1127181I0J396D01*
G03X793794Y1127108I-1831J-1157D01*
G01X793741Y1127016D01*
X793558Y1126910D01*
X791568D01*
G03X791289Y1126794I0J-396D01*
G01X790048Y1125554D01*
G02X789617Y1125469I-280J280D01*
G01X789506Y1125515D01*
X789373Y1125714D01*
X789374Y1147030D01*
G02X789644Y1147405I396J0D01*
G01X790355Y1147643D01*
G02X790794Y1147509I126J-375D01*
G01X790813Y1147484D01*
X790814Y1147483D01*
G03X801620Y1159145I6430J4879D01*
G01X801584Y1159168D01*
X801520Y1159231D01*
G02X801420Y1159622I280J280D01*
G01X801630Y1160341D01*
G02X802010Y1160626I380J-111D01*
G01X812593D01*
G02X812988Y1160230I0J-396D01*
G01Y1156297D01*
G03X813285Y1155914I396J0D01*
G01X813417Y1155880D01*
X813582Y1155667D01*
Y1154742D01*
X813561Y1154617D01*
X813552Y1154588D01*
G03X813385Y1153545I3181J-1043D01*
G01Y1150787D01*
G03X813561Y1149716I3347J0D01*
G01X813582Y1149654D01*
Y1137206D01*
G03X813978Y1136810I396J0D01*
G01X825227D01*
G02X825507Y1136694I0J-396D01*
G01X825647Y1136554D01*
X825681Y1136511D01*
X825705Y1136469D01*
X825765Y1136342D01*
G02X825800Y1136227I-357J-170D01*
G03X828537Y1136282I1365J191D01*
G01X828544Y1136350D01*
X828603Y1136474D01*
X828767Y1136638D01*
G02X829327Y1136637I280J-280D01*
G01X829335Y1136629D01*
X829335Y1136628D01*
G03X831342Y1136679I979J971D01*
G02X831636Y1136810I295J-264D01*
G01X831828D01*
X831955Y1136765D01*
X832008Y1136722D01*
G03X833740I866J1073D01*
G01X833793Y1136765D01*
X833920Y1136810D01*
X834665D01*
G03X834743Y1136739I966J984D01*
G01Y1135374D01*
G02X834628Y1135094I-396J0D01*
G01X834394Y1134861D01*
G02X834115Y1134745I-280J280D01*
G01X832663D01*
G03X832383Y1134629I0J-396D01*
G01X830331Y1132578D01*
G03X830216Y1132298I280J-280D01*
G01Y1131816D01*
G02X830187Y1131669I-396J0D01*
G01X830132Y1131531D01*
G02X830063Y1131418I-367J147D01*
G03X832266Y1131252I1039J-906D01*
G01X832237Y1131296D01*
X832189Y1131452D01*
G02X832172Y1131588I378J117D01*
G01X832180Y1131773D01*
G02X832296Y1132034I395J-19D01*
G01X833118Y1132856D01*
G02X833397Y1132972I280J-280D01*
G01X834849D01*
G03X835129Y1133087I0J396D01*
G01X836401Y1134359D01*
G03X836517Y1134639I-280J280D01*
G01Y1136739D01*
G03X836594Y1136810I-888J1055D01*
G01X850589D01*
G03X850985Y1137206I0J396D01*
G01Y1149589D01*
X851006Y1149714D01*
X851015Y1149743D01*
G03X851182Y1150785I-3181J1043D01*
G01Y1153544D01*
G03X851006Y1154615I-3347J0D01*
G01X850985Y1154676D01*
Y1155506D01*
G02X851381Y1155902I396J0D01*
G01X851463Y1155984D01*
G03X851579Y1156263I-280J280D01*
G01Y1160230D01*
G02X851974Y1160626I396J0D01*
G01X1002321D01*
G02X1002700Y1160341I0J-396D01*
G01X1002910Y1159622D01*
G02X1002810Y1159231I-380J-111D01*
G01X1002746Y1159168D01*
X1002711Y1159145D01*
G03X1014251Y1148643I4376J-6783D01*
G01X1014314Y1148765D01*
X1014563Y1148878D01*
X1015442Y1148663D01*
G02X1015744Y1148279I-94J-384D01*
G01X1015744Y1137206D01*
Y1136739D01*
Y1135630D01*
X1015745Y1133087D01*
Y1132972D01*
Y1132856D01*
Y1132576D01*
Y1128189D01*
Y1127756D01*
X1015745Y1123858D01*
Y1111131D01*
Y1111023D01*
X1015746Y1110488D01*
Y1110466D01*
Y1110412D01*
Y1110363D01*
Y1100166D01*
Y1100000D01*
X1015746Y1097261D01*
Y1097145D01*
Y1090497D01*
Y1087796D01*
Y1086417D01*
X1015746Y1076485D01*
Y1075106D01*
Y1072835D01*
Y1071457D01*
X1015747Y1067914D01*
Y1066535D01*
Y1055706D01*
Y1054327D01*
X1015747Y1053253D01*
Y1051874D01*
Y1049409D01*
Y1048328D01*
Y1046980D01*
Y1046903D01*
Y1046829D01*
Y1046194D01*
Y1046030D01*
Y1042091D01*
X1015748Y1040713D01*
Y1035434D01*
Y1034055D01*
Y1033662D01*
Y1032283D01*
X1015748Y1029528D01*
Y1029331D01*
Y1029179D01*
Y1029178D01*
Y1029019D01*
Y1026772D01*
Y1012240D01*
G02X1015745Y1012191I-396J1D01*
G01X1015355Y1009056D01*
X1015352Y1009041D01*
X1015100Y1007782D01*
X1015099Y1007780D01*
X1015098Y1007774D01*
X1015098Y1007772D01*
G03X1015094Y1007719I392J-53D01*
G01Y1007478D01*
G02X1015080Y1007372I-396J0D01*
G02X1011843Y1001031I-17287J4830D01*
G03X1008270Y994515I17134J-13630D01*
G01X1008239Y994425D01*
X1008104Y994293D01*
X1007437Y994085D01*
G02X1007195Y994087I-118J378D01*
G01X1007054Y994134D01*
X1007006Y994168D01*
G03X1006120Y989518I-1494J-2125D01*
G01X1006141Y989523D01*
X1006189Y989530D01*
G02X1006492Y989441I50J-393D01*
G01X1006980Y989036D01*
G02X1007122Y988708I-253J-304D01*
G03X1007108Y986353I21856J-1302D01*
G01Y986348D01*
X1007109Y986319D01*
Y986318D01*
X1007114Y986224D01*
X1007076Y986138D01*
G02X1006966Y985993I-362J160D01*
G01X1006404Y985530D01*
X1006222Y985488D01*
X1006131Y985511D01*
G03X1006940Y980819I-619J-2522D01*
G01X1006960Y980832D01*
X1007024Y980864D01*
G02X1007085Y980889I178J-354D01*
G01X1007147Y980907D01*
G02X1007286Y980924I115J-378D01*
G01X1007339Y980921D01*
X1008048Y980687D01*
X1008181Y980555D01*
X1008210Y980466D01*
G03X1011843Y973772I20767J6935D01*
G02X1015744Y962602I-14048J-11173D01*
G01Y797837D01*
G02X1015348Y797441I-396J0D01*
G01X789770D01*
G37*
G36*
G01X807480Y1160232D02*
Y1143307D01*
G02X807087Y1142913I-394J0D01*
G01X789768D01*
G02X789374Y1143307I0J394D01*
G01Y1156843D01*
G02X793157Y1160626I3783J0D01*
G01X807087D01*
G02X807480Y1160232I0J-394D01*
G37*
G36*
G01X789374Y1156176D02*
Y1156843D01*
G02X793157Y1160626I3783J0D01*
G01X794115D01*
G02X794511Y1160230I0J-396D01*
G01Y1160109D01*
X794375Y1159907D01*
X794262Y1159863D01*
G03X790119Y1156155I2982J-7501D01*
G02X789770Y1155945I-349J186D01*
G01X789606D01*
X789374Y1156176D01*
G37*
G36*
G01X827362Y698031D02*
Y725591D01*
X969094D01*
Y737402D01*
X827362D01*
Y764961D01*
X898228D01*
Y792520D01*
X906102D01*
Y757087D01*
X835236D01*
Y745276D01*
X976969D01*
Y717717D01*
X835236D01*
Y705906D01*
X895866D01*
Y698031D01*
X827362D01*
G37*
G36*
G01X814173Y1137797D02*
Y1155506D01*
G02X814569Y1155902I396J0D01*
G01X818892D01*
G02X819287Y1155506I0J-396D01*
G01Y1148030D01*
G03X819683Y1147634I396J0D01*
G01X826380D01*
G03X826776Y1148030I0J396D01*
G01Y1155506D01*
G02X827171Y1155902I396J0D01*
G01X837396D01*
G02X837791Y1155506I0J-396D01*
G01Y1148030D01*
G03X838187Y1147634I396J0D01*
G01X844884D01*
G03X845280Y1148030I0J396D01*
G01Y1155506D01*
G02X845675Y1155902I396J0D01*
G01X849998D01*
G02X850394Y1155506I0J-396D01*
G01Y1137797D01*
G02X849998Y1137402I-396J0D01*
G01X837240D01*
X837009Y1137633D01*
Y1137797D01*
G03X834754Y1138860I-1379J-2D01*
G02X834503Y1138770I-251J306D01*
G01X834001D01*
G02X833750Y1138860I0J396D01*
G03X831976Y1138841I-876J-1065D01*
G01X831928Y1138800D01*
X831811Y1138752D01*
X831219Y1138706D01*
X831096Y1138736D01*
X831043Y1138770D01*
G03X829486Y1138700I-727J-1171D01*
G01X829419Y1138650D01*
X829257Y1138612D01*
X828519Y1138750D01*
X828381Y1138844D01*
X828337Y1138915D01*
G03X825787Y1138191I-1172J-726D01*
G01Y1138113D01*
X825726Y1137968D01*
X825275Y1137517D01*
G02X824995Y1137402I-280J280D01*
G01X814569D01*
G02X814173Y1137797I0J396D01*
G37*
G36*
G01X1015350Y1142520D02*
X997638D01*
G02X997244Y1142913I0J394D01*
G01Y1160232D01*
G02X997638Y1160626I394J0D01*
G01X1011965D01*
G02X1015744Y1156843I-4J-3783D01*
G01Y1142913D01*
G02X1015350Y1142520I-394J0D01*
G37*
G36*
G01X1015348Y1153820D02*
X1015209D01*
X1014993Y1153994D01*
X1014963Y1154130D01*
G03X1011427Y1159167I-7876J-1768D01*
G01X1011316Y1159239D01*
X1011223Y1159485D01*
X1011473Y1160341D01*
G02X1011853Y1160626I380J-111D01*
G01X1011961D01*
G02X1015744Y1156843I0J-3783D01*
G01Y1155902D01*
Y1154216D01*
G02X1015348Y1153820I-396J0D01*
G37*
%LPC*%
G75*
G36*
G01X892772Y1123247D02*
G02X890296Y1122034I-1237J-609D01*
G03X889989Y1122254I-356J-173D01*
G02X890174Y1125001I169J1368D01*
G03X890507Y1125176I5J396D01*
G02X892799Y1123642I1146J-767D01*
G03X892772Y1123247I329J-220D01*
G37*
G36*
G01X856823Y1119050D02*
G02Y1121107I-918J1029D01*
G03X857350I263J295D01*
G02Y1119050I918J-1029D01*
G03X856823I-263J-295D01*
G37*
G36*
G01X1009846Y1127166D02*
G02X1004728Y1122243I-188J-4927D01*
G03Y1122245I-396J1D01*
G02X1009449Y1127166I4895J29D01*
G01X1009846D01*
G37*
G36*
G01X873833Y1030674D02*
G02X871930Y1030808I-1022J-926D01*
G03X872010Y1031948I-506J608D01*
G02X873913Y1031814I1022J926D01*
G03X873833Y1030674I506J-608D01*
G37*
G36*
G01X889338Y1029887D02*
G02X887619Y1030113I-999J-950D01*
G03X887780Y1031333I-413J675D01*
G02X889499Y1031107I999J950D01*
G03X889338Y1029887I413J-675D01*
G37*
G36*
G01X881898Y1019654D02*
G02X879905I-996J-953D01*
G03X880015Y1019927I-286J274D01*
G01Y1034652D01*
G02X880131Y1034932I396J0D01*
G01X880962Y1035763D01*
G03Y1036322I-280J280D01*
G01X880922Y1036363D01*
X880872Y1036390D01*
G02X880779Y1036446I659J1211D01*
G01X880724Y1036481D01*
X880597Y1036515D01*
X880052Y1036474D01*
G03X879817Y1036374I29J-395D01*
G02X877519Y1037371I-919J1028D01*
G01X877518Y1037447D01*
X877457Y1037588D01*
X875213Y1039832D01*
G02X875098Y1040111I280J280D01*
G01Y1045624D01*
G03X874988Y1045897I-396J0D01*
G02X876981I996J953D01*
G03X876871Y1045624I286J-274D01*
G01Y1040846D01*
G03X876987Y1040567I396J0D01*
G01X878711Y1038842D01*
X878852Y1038781D01*
X878928Y1038780D01*
G02X879654Y1038554I-30J-1378D01*
G01X879709Y1038519D01*
X879836Y1038485D01*
X880381Y1038526D01*
G03X880616Y1038626I-29J395D01*
G02X882555Y1038527I919J-1028D01*
G01X882609Y1038467D01*
X882757Y1038400D01*
X883410Y1038385D01*
G03X883699Y1038500I9J396D01*
G01X887226Y1042027D01*
G03X887342Y1042307I-280J280D01*
G01Y1045028D01*
G03X887238Y1045295I-396J0D01*
G01X887078Y1045470D01*
G03X886857Y1045593I-292J-267D01*
G02X888485Y1046980I249J1356D01*
G01X888486Y1046903D01*
X888546Y1046763D01*
X888999Y1046310D01*
G02X889115Y1046030I-280J-280D01*
G01Y1041572D01*
G02X888999Y1041293I-396J0D01*
G01X881904Y1034197D01*
G03X881788Y1033918I280J-280D01*
G01Y1019927D01*
G03X881898Y1019654I396J0D01*
G37*
G36*
G01X845211Y1015191D02*
G02X839852I-2680J-2750D01*
G03X839972Y1015474I-276J284D01*
G01Y1037150D01*
G03X839856Y1037430I-396J0D01*
G01X835942Y1041344D01*
G02X835826Y1041623I280J280D01*
G01Y1049409D01*
G02X840946I2560J0D01*
G01Y1043744D01*
G03X841061Y1043464I396J0D01*
G01X844976Y1039550D01*
G02X845091Y1039270I-280J-280D01*
G01Y1015474D01*
G03X845211Y1015191I396J0D01*
G37*
G36*
G01X893962Y1016004D02*
G02X888858Y1013558I-1430J-3563D01*
G01Y1013559D01*
G03X888811Y1013891I-379J115D01*
G01X888428Y1014473D01*
X888278Y1014565D01*
X888191Y1014575D01*
G02X889668Y1016339I156J1370D01*
G01X889693Y1016255D01*
X889810Y1016123D01*
X890450Y1015849D01*
G03X890786Y1015861I156J364D01*
G02X891101Y1016004I1744J-3420D01*
G03X891350Y1016371I-147J367D01*
G01Y1017857D01*
G02X891465Y1018137I396J0D01*
G01X893096Y1019767D01*
G02X893375Y1019883I280J-280D01*
G01X911158D01*
G03X911437Y1019998I0J396D01*
G01X920458Y1029019D01*
G02X920737Y1029135I280J-280D01*
G01X943890D01*
G03X944069Y1029178I0J396D01*
G01X944070Y1029178D01*
G02X945331Y1029179I631J-1226D01*
G01X945332Y1029178D01*
G03X945512Y1029135I180J352D01*
G01X966664D01*
G02X966944Y1029019I0J-396D01*
G01X970374Y1025589D01*
X970454Y1025540D01*
X970499Y1025526D01*
G02X968766Y1023792I-420J-1313D01*
G01X968751Y1023837D01*
X968702Y1023918D01*
X965965Y1026655D01*
G03X965685Y1026771I-280J-280D01*
G01X945512D01*
G03X945332Y1026728I0J-396D01*
G01X945332Y1026727D01*
G02X944070Y1026727I-631J1226D01*
G01X944069Y1026728D01*
G03X943890Y1026771I-180J-352D01*
G01X921716D01*
G03X921437Y1026655I0J-396D01*
G01X919677Y1024895D01*
G03X919566Y1024553I280J-280D01*
G01X919681Y1023827D01*
X919793Y1023673D01*
X919878Y1023630D01*
G02X918023Y1021776I-626J-1229D01*
G01X917980Y1021861D01*
X917826Y1021972D01*
X917100Y1022088D01*
G03X916759Y1021977I-62J-391D01*
G01X912416Y1017635D01*
G02X912137Y1017519I-280J280D01*
G01X894354D01*
G03X894074Y1017403I0J-396D01*
G01X893829Y1017158D01*
G03X893713Y1016878I280J-280D01*
G01Y1016371D01*
G03X893962Y1016004I396J0D01*
G37*
G36*
G01X855986Y1014116D02*
G02X853863Y1016042I-3455J-1675D01*
G03X854926Y1016715I274J742D01*
G02X856553Y1015239I1373J-120D01*
G03X855986Y1014116I145J-778D01*
G37*
G36*
G01X933399Y990377D02*
G02X931330Y988570I-1116J-810D01*
G03X931057Y988680I-274J-286D01*
G01X896647D01*
G02X896367Y988796I0J396D01*
G01X891761Y993403D01*
G02X891645Y993682I280J280D01*
G01Y998534D01*
X891493Y998743D01*
X891369Y998782D01*
G02X893694I1163J3659D01*
G01X893570Y998743D01*
X893418Y998534D01*
Y994417D01*
G03X893534Y994137I396J0D01*
G01X897102Y990569D01*
G03X897381Y990454I280J280D01*
G01X931057D01*
G03X931330Y990563I0J396D01*
G02X931819Y990865I953J-997D01*
G01X931937Y990907D01*
X932081Y991112D01*
Y991237D01*
G03X931685Y991633I-396J0D01*
G01X902946D01*
G02X902667Y991749I0J396D01*
G01X901761Y992655D01*
G02X901645Y992934I280J280D01*
G01Y998534D01*
X901493Y998743D01*
X901369Y998782D01*
G02X903694I1163J3659D01*
G01X903570Y998743D01*
X903418Y998534D01*
Y993590D01*
X903478Y993445D01*
X903517Y993406D01*
X942098D01*
X942319Y993590D01*
X942344Y993731D01*
G02X942704Y994437I1357J-246D01*
G03X942814Y994711I-286J274D01*
G01Y1004482D01*
G03X942704Y1004756I-396J0D01*
G02X944697I996J953D01*
G03X944587Y1004482I286J-274D01*
G01Y994711D01*
G03X944697Y994437I396J0D01*
G02X944706Y994428I-1012J-936D01*
G03X944723Y994411I288J271D01*
G02X943691Y992030I-944J-1005D01*
G01X943605Y992035D01*
X943445Y991975D01*
X943219Y991749D01*
G02X942940Y991633I-280J280D01*
G01X934039D01*
G03X933687Y991417I0J-396D01*
G01X933316Y990689D01*
X933333Y990467D01*
X933399Y990377D01*
G37*
G36*
G01X842955Y983313D02*
X842953Y983237D01*
G02X841544Y984646I-1378J31D01*
G01X841620Y984648D01*
X841761Y984708D01*
X844615Y987562D01*
G02X844895Y987678I280J-280D01*
G01X855552D01*
G03X855831Y987794I0J396D01*
G01X861596Y993559D01*
G03X861712Y993838I-280J280D01*
G01Y997874D01*
X861652Y998020D01*
X861645Y998026D01*
Y998405D01*
G03X861369Y998782I-396J0D01*
G02X863755Y998802I1162J3659D01*
G01X863633Y998761D01*
X863485Y998554D01*
Y993104D01*
G02X863369Y992824I-396J0D01*
G01X856566Y986020D01*
G02X856286Y985905I-280J280D01*
G01X845630D01*
G03X845350Y985789I0J-396D01*
G01X844939Y985378D01*
G03Y984819I280J-280D01*
G01X845043Y984715D01*
X845333Y984692D01*
X845451Y984778D01*
G02X844889Y983510I809J-1117D01*
G01X844877Y983623D01*
X844735Y983802D01*
X843954Y984076D01*
G03X843543Y983982I-131J-373D01*
G01X843015Y983454D01*
X842955Y983313D01*
G37*
G36*
G01X883528Y980532D02*
G02X881535I-996J-953D01*
G03X881645Y980805I-286J274D01*
G01Y983777D01*
G03X881443Y984122I-396J0D01*
G01X880748Y984512D01*
X880533Y984508D01*
X880442Y984452D01*
G02X878771Y984633I-717J1178D01*
G03X878498Y984743I-274J-286D01*
G01X874127D01*
G02X873848Y984859I0J396D01*
G01X871761Y986946D01*
G02X871645Y987226I280J280D01*
G01Y998405D01*
G03X871369Y998782I-396J0D01*
G02X873694I1162J3659D01*
G03X873418Y998405I120J-377D01*
G01Y987960D01*
G03X873534Y987681I396J0D01*
G01X874582Y986632D01*
G03X874862Y986517I280J280D01*
G01X878498D01*
G03X878771Y986626I0J396D01*
G02X880442Y986807I953J-996D01*
G01X880533Y986752D01*
X880748Y986748D01*
X881443Y987138D01*
G03X881645Y987483I-194J345D01*
G01Y998405D01*
G03X881369Y998782I-396J0D01*
G02X883694I1162J3659D01*
G03X883418Y998405I120J-377D01*
G01Y980805D01*
G03X883528Y980532I396J0D01*
G37*
G36*
G01X932965Y976150D02*
G02X930972I-996J-953D01*
G03X931082Y976423I-286J274D01*
G01Y980794D01*
G02X931198Y981074I396J0D01*
G01X933451Y983327D01*
G03X933548Y983726I-280J280D01*
G01X933304Y984501D01*
X933138Y984646D01*
X933029Y984666D01*
G02X934626Y986263I239J1358D01*
G01X934645Y986154D01*
X934791Y985987D01*
X935565Y985743D01*
G03X935964Y985840I119J377D01*
G01X937115Y986991D01*
G02X937395Y987107I280J-280D01*
G01X956162D01*
G03X956441Y987223I0J396D01*
G01X957659Y988441D01*
G03X957775Y988720I-280J280D01*
G01Y989719D01*
G03X957665Y989992I-396J0D01*
G02X959658I996J953D01*
G03X959548Y989719I286J-274D01*
G01Y987985D01*
G02X959432Y987706I-396J0D01*
G01X957176Y985450D01*
G02X956896Y985334I-280J280D01*
G01X938130D01*
G03X937850Y985218I0J-396D01*
G01X937383Y984752D01*
G03X937276Y984390I280J-280D01*
G01X937413Y983742D01*
G03X937656Y983455I387J82D01*
G01X937657Y983454D01*
G02X938154Y981216I-499J-1285D01*
G01X938101Y981161D01*
X938044Y981019D01*
Y980893D01*
G03X938160Y980614I396J0D01*
G01X938834Y979939D01*
G03X939114Y979824I280J280D01*
G01X939947D01*
G03X940343Y980219I0J396D01*
G01Y980318D01*
X940250Y980492D01*
X940169Y980547D01*
G02X940910Y983067I772J1142D01*
G01X940986Y983069D01*
X941127Y983129D01*
X941436Y983438D01*
G02X941454Y983456I629J-625D01*
G01X941580Y983582D01*
G02X941859Y983698I280J-280D01*
G01X942036D01*
G02X942090I27J-887D01*
G01X959248D01*
G03X959528Y983813I0J396D01*
G01X962580Y986866D01*
G03X962696Y987145I-280J280D01*
G01Y990155D01*
G03X962595Y990419I-396J0D01*
G02X964619Y990385I1027J920D01*
G03X964509Y990112I286J-274D01*
G01Y989389D01*
X964469Y989349D01*
Y986411D01*
G02X964354Y986131I-396J0D01*
G01X960024Y981802D01*
G02X959464I-280J280D01*
G01X959457Y981809D01*
G03X959178Y981924I-280J-280D01*
G01X942516D01*
X942370Y981864D01*
X942339Y981832D01*
X942314Y981565D01*
G02X942139Y981007I-1373J125D01*
G01Y981006D01*
G03X942141Y980612I344J-196D01*
G01X942484Y980020D01*
G03X942826Y979824I342J199D01*
G01X960689D01*
G03X960969Y979939I0J396D01*
G01X973506Y992476D01*
G03X973621Y992756I-280J280D01*
G01Y996116D01*
G03X973511Y996389I-396J0D01*
G02X975504I996J953D01*
G03X975394Y996116I286J-274D01*
G01Y992021D01*
G02X975279Y991741I-396J0D01*
G01X961704Y978166D01*
G02X961424Y978050I-280J280D01*
G01X938379D01*
G02X938100Y978166I0J396D01*
G01X936387Y979879D01*
G02X936271Y980159I280J280D01*
G01Y980943D01*
G03X936161Y981216I-396J0D01*
G02X935872Y981670I997J953D01*
G01X935872Y981671D01*
G03X935585Y981914I-369J-144D01*
G01X934937Y982051D01*
G03X934575Y981943I-82J-387D01*
G01X932971Y980339D01*
G03X932855Y980059I280J-280D01*
G01Y976423D01*
G03X932965Y976150I396J0D01*
G37*
G36*
G01X881503Y971948D02*
X838379D01*
G02X838100Y972064I0J396D01*
G01X829911Y980253D01*
X829770Y980313D01*
X829694Y980315D01*
G02X831103Y981724I31J1378D01*
G01X831104Y981647D01*
X831165Y981507D01*
X838834Y973837D01*
G03X839114Y973721I280J280D01*
G01X880768D01*
G03X881048Y973837I0J396D01*
G01X883572Y976361D01*
G02X883852Y976477I280J-280D01*
G01X885388D01*
G03X885661Y976587I0J396D01*
G02Y974594I953J-996D01*
G03X885388Y974704I-274J-286D01*
G01X884586D01*
G03X884307Y974588I0J-396D01*
G01X881782Y972064D01*
G02X881503Y971948I-280J280D01*
G37*
G36*
G01X910469Y955309D02*
G02X908962Y954066I-135J-1372D01*
G03X908251Y954927I-788J74D01*
G02X909759Y956170I135J1372D01*
G03X910469Y955309I788J-74D01*
G37*
G36*
G01X966103Y951378D02*
G02X964670Y950123I-60J-1377D01*
G03X963917Y950985I-788J71D01*
G02X965350Y952239I60J1377D01*
G03X966103Y951378I788J-71D01*
G37*
G36*
G01X916372Y948260D02*
G02X915932Y946210I656J-1213D01*
G03X914928Y946425I-629J-481D01*
G02X915367Y948475I-656J1213D01*
G03X916372Y948260I629J481D01*
G37*
G36*
G01X826256Y943374D02*
G02X824930Y945439I-3724J-933D01*
G03X826202Y945916I494J618D01*
G02X827219Y944333I1357J-247D01*
G03X826256Y943374I-195J-767D01*
G37*
G36*
G01X893814Y932814D02*
G02Y934902I-900J1044D01*
G03X894848I517J599D01*
G02Y932814I900J-1044D01*
G03X893814I-517J-599D01*
G37*
G36*
G01X878704Y932693D02*
G02X876807I-948J-1000D01*
G03Y933842I-545J574D01*
G02X878704I948J1000D01*
G03Y932693I545J-574D01*
G37*
G36*
G01X901532Y914350D02*
G02X901150Y916467I-1040J905D01*
G03X901637Y916555I189J348D01*
G02X902019Y914438I1040J-905D01*
G03X901532Y914350I-189J-348D01*
G37*
G36*
G01X883761Y915879D02*
G02X881808Y915778I-927J-1021D01*
G03X881750Y916893I-589J528D01*
G02X883704Y916993I927J1021D01*
G03X883761Y915879I589J-528D01*
G37*
G36*
G01X826191Y871279D02*
Y871278D01*
G02Y873604I-3659J1163D01*
G01Y873603D01*
G03X826567Y873328I377J120D01*
G01X835638D01*
G03X835918Y873443I0J396D01*
G01X846710Y884235D01*
G02X846989Y884351I280J-280D01*
G01X868170D01*
G03X868449Y884467I0J396D01*
G01X869596Y885613D01*
G02X869875Y885729I280J-280D01*
G01X875847D01*
G03X876126Y885845I0J396D01*
G01X878942Y888661D01*
G02X879222Y888776I280J-280D01*
G01X890857D01*
G02X891137Y888661I0J-396D01*
G01X893756Y886042D01*
G03X894035Y885926I280J280D01*
G01X900302D01*
G02X900581Y885810I0J-396D01*
G01X906211Y880180D01*
X906352Y880120D01*
X906428Y880119D01*
G02X905019Y878709I-31J-1378D01*
G01X905018Y878786D01*
X904957Y878926D01*
X899847Y884037D01*
G03X899567Y884153I-280J-280D01*
G01X893300D01*
G02X893021Y884269I0J396D01*
G01X890402Y886887D01*
G03X890122Y887003I-280J-280D01*
G01X884900D01*
G03X884574Y886831I0J-396D01*
G01X884149Y886213D01*
X884126Y886019D01*
X884161Y885928D01*
G02X881587I-1287J-495D01*
G01X881622Y886019D01*
X881599Y886213D01*
X881174Y886831D01*
G03X880848Y887003I-326J-224D01*
G01X879956D01*
G03X879677Y886887I0J-396D01*
G01X876861Y884072D01*
G02X876581Y883956I-280J280D01*
G01X870610D01*
G03X870330Y883840I0J-396D01*
G01X869184Y882694D01*
G02X868904Y882578I-280J280D01*
G01X847724D01*
G03X847444Y882462I0J-396D01*
G01X836652Y871670D01*
G02X836373Y871554I-280J280D01*
G01X826567D01*
G03X826191Y871279I0J-396D01*
G37*
G36*
G01X809849Y835042D02*
G02Y829683I2750J-2680D01*
G03X809565Y829802I-284J-276D01*
G01X805985D01*
G02X805706Y829918I0J396D01*
G01X799524Y836100D01*
G02X799409Y836379I280J280D01*
G01Y962774D01*
G02X799524Y963054I396J0D01*
G01X833771Y997301D01*
G03X833845Y997759I-280J280D01*
G01X833449Y998544D01*
X833222Y998662D01*
X833096Y998643D01*
G02X836329Y1001877I-564J3798D01*
G01X836310Y1001750D01*
X836428Y1001523D01*
X837214Y1001128D01*
G03X837672Y1001201I178J353D01*
G01X838633Y1002163D01*
X838693Y1002311D01*
X838693Y1002391D01*
G02X842482Y998602I3839J50D01*
G01X842481D01*
X842402Y998603D01*
X842254Y998543D01*
X825207Y981496D01*
G03X825091Y981217I280J-280D01*
G01Y979932D01*
G03X825272Y979600I396J0D01*
G01X825915Y979185D01*
X826115Y979169D01*
X826207Y979211D01*
G02X828150Y977983I565J-1258D01*
G01X828152Y977907D01*
X828212Y977767D01*
X837948Y968030D01*
G03X838228Y967914I280J280D01*
G01X890270D01*
G03X890543Y968024I0J396D01*
G02Y966031I953J-996D01*
G03X890270Y966141I-274J-286D01*
G01X837493D01*
G02X837214Y966257I0J396D01*
G01X826958Y976513D01*
X826817Y976573D01*
X826741Y976574D01*
G02X826207Y976695I30J1378D01*
G01X826115Y976736D01*
X825915Y976721D01*
X825272Y976305D01*
G03X825091Y975973I215J-332D01*
G01Y965474D01*
G03X825211Y965191I396J0D01*
G02X819852I-2680J-2750D01*
G03X819972Y965474I-276J284D01*
G01Y975306D01*
G03X819728Y975672I-396J0D01*
G01X819617Y975718D01*
X819381Y975671D01*
X811292Y967581D01*
G03X811218Y967123I280J-280D01*
G01X811614Y966337D01*
X811841Y966220D01*
X811967Y966239D01*
G02X808734Y963005I564J-3798D01*
G01X808753Y963131D01*
X808635Y963359D01*
X807849Y963754D01*
G03X807391Y963681I-178J-353D01*
G01X804644Y960933D01*
G03X804528Y960654I280J-280D01*
G01Y838500D01*
G03X804644Y838220I396J0D01*
G01X807826Y835038D01*
G03X808106Y834922I280J280D01*
G01X809565D01*
G03X809849Y835042I0J396D01*
G37*
G54D26*
X881299Y1146457D03*
X868307Y1135630D03*
X815022Y1128937D03*
X818504Y1127953D03*
X822638Y1127756D03*
X825295Y1125098D03*
X806102Y1114370D03*
X861417Y1107480D03*
X850394Y1106693D03*
X816547Y1094685D03*
X875409Y1094291D03*
X835039Y1094094D03*
X874346Y1086417D03*
X796378Y1085130D03*
X870854Y1075106D03*
X794882Y1071457D03*
X867323Y1066535D03*
X806689Y1054327D03*
X873134Y1051874D03*
X879134Y1044094D03*
X868898D03*
X967555Y1040713D03*
X860630Y1037795D03*
X831890Y1034795D03*
X899409Y1034055D03*
X939213Y1032283D03*
X811811Y1031890D03*
X849409Y1030709D03*
X901378Y1029528D03*
X804409Y1028346D03*
X822244Y1027165D03*
X907677Y1025000D03*
X922638Y1024508D03*
X932913Y1024402D03*
X944409Y1022835D03*
X936220Y1020472D03*
X944791Y1018437D03*
X957555Y1011327D03*
X951772Y1011146D03*
X962555Y1009843D03*
X947441Y998228D03*
X894291Y987008D03*
X817638Y985571D03*
X925197Y979134D03*
X951181Y975591D03*
X926181Y975402D03*
X945839Y975276D03*
X937638Y975000D03*
X921260Y972441D03*
X885827Y958268D03*
X870079Y956496D03*
X905768Y950925D03*
X912283Y950591D03*
X862126Y949803D03*
X960039Y947638D03*
X866142Y944291D03*
X906299Y944154D03*
X960236Y937992D03*
X904252Y936024D03*
X906398Y932264D03*
X908386Y927953D03*
X887205Y917913D03*
X963386Y917520D03*
X872047Y911417D03*
X859646Y907874D03*
X922047Y907283D03*
X945669Y903346D03*
X954921Y902953D03*
X950709Y901378D03*
X882185Y898524D03*
X963386Y898283D03*
X944409Y893504D03*
X948976Y891535D03*
X882677Y891240D03*
X954669Y889567D03*
X918898Y885236D03*
X964173Y867126D03*
X953937Y866142D03*
X795854Y865539D03*
X966732Y863386D03*
X970276Y854134D03*
X953543Y850787D03*
X950787Y848425D03*
G54D25*
X872327Y1152756D03*
X863272D03*
G54D27*
X983858Y1022441D03*
Y1012441D03*
X932531D03*
X922531D03*
X912531D03*
X902531D03*
X882531D03*
X872531D03*
X862531D03*
X832531D03*
X983858Y1002441D03*
X932531D03*
X922531D03*
X912531D03*
X852531D03*
X992610Y962441D03*
X982610D03*
X992610Y952441D03*
X982610D03*
X822531D03*
X812531D03*
X992610Y942441D03*
X982610D03*
X812531D03*
X992610Y932441D03*
X982610D03*
X822531D03*
X812531D03*
X992610Y922441D03*
X982610D03*
X822531D03*
X812531D03*
X992610Y912441D03*
X982610D03*
X822531D03*
X812531D03*
X992610Y902441D03*
X982610D03*
X822531D03*
X812531D03*
X992610Y892441D03*
X982610D03*
X822531D03*
X812531D03*
X992610Y882441D03*
X982610D03*
X822531D03*
X812531D03*
X858969Y875248D03*
X848969D03*
X992610Y872441D03*
X982610D03*
X812531D03*
X858969Y865248D03*
X848969D03*
X992520Y852362D03*
X812598D03*
X992520Y842362D03*
X812598D03*
X992520Y832362D03*
%LPD*%
G75*
G54D10*
X795866Y720472D03*
X1009646D03*
Y1122244D03*
G54D20*
G01X795341Y1108224D02*
Y1110696D01*
X795669Y1111024D01*
G01X944701Y1027953D02*
X921063D01*
X911811Y1018701D01*
X893701D01*
X892531Y1017531D01*
Y1012441D01*
G01X970079Y1024213D02*
X966339Y1027953D01*
X944701D01*
G54D11*
X797244Y702756D03*
Y1152362D03*
X1007087Y702756D03*
Y1152362D03*
G54D21*
G01X798622Y1113583D02*
Y1113976D01*
X800669Y1116024D01*
G01X792815Y1120787D02*
X793110D01*
X793138Y1120815D01*
X795496D01*
X795669Y1121024D01*
G01X792618Y1128680D02*
Y1128543D01*
G01X800669Y1121024D02*
X803110Y1118583D01*
Y1118110D01*
G01X796260Y1093701D02*
Y1096535D01*
X801890Y1102165D01*
G01X793947Y1090497D02*
X792364D01*
X790610Y1092251D01*
Y1124862D01*
X791772Y1126024D01*
X795669D01*
G01Y1116024D02*
X793299D01*
X792717Y1115441D01*
Y1097055D01*
X793701Y1096071D01*
Y1094488D01*
G01X800669Y1111024D02*
X810118Y1101575D01*
X860386D01*
X865110Y1106299D01*
G01X800669Y1131024D02*
X798031Y1133661D01*
Y1137205D01*
G01X812598Y848122D02*
Y848819D01*
G01Y846602D02*
Y845866D01*
G01Y838122D02*
Y838976D01*
G01X808358Y842362D02*
X809252D01*
G01X809208Y838972D02*
X812598Y842362D01*
G01D02*
X815989Y845752D01*
G01X809208Y848972D02*
X812598Y852362D01*
G01D02*
X815989Y855752D01*
G01X822531Y872441D02*
X836169D01*
X847193Y883465D01*
X868701D01*
X870079Y884843D01*
X876378D01*
X879425Y887890D01*
X890654D01*
X893504Y885039D01*
X900098D01*
X906398Y878740D01*
G01X822531Y948201D02*
Y948819D01*
G01X818291Y952441D02*
X819094D01*
G01X822531Y956681D02*
Y956102D01*
G01X819141Y949051D02*
X822531Y952441D01*
G01D02*
X825922Y955831D01*
G01X836772Y1002441D02*
X836024D01*
G01X836772Y1012441D02*
X836024D01*
G01X832531Y1016681D02*
Y1016626D01*
G01X829141Y1009051D02*
X832531Y1012441D01*
G01D02*
X835922Y1015831D01*
G01X829141Y999051D02*
X832531Y1002441D01*
G01D02*
X835922Y1005831D01*
G01X841575Y983268D02*
X845098Y986791D01*
X856083D01*
X862598Y993307D01*
Y998327D01*
X862531Y998394D01*
Y1002441D01*
G01X891496Y967028D02*
X837697D01*
X826772Y977953D01*
G01X886614Y975591D02*
X884055D01*
X881299Y972835D01*
X838583D01*
X829724Y981693D01*
G01X849209Y1095425D02*
Y1097008D01*
X850232Y1098031D01*
X860433D01*
X862402Y1100000D01*
X871063D01*
G01X835630Y1137795D02*
Y1134843D01*
X834646Y1133858D01*
X832866D01*
X831102Y1132094D01*
Y1130512D01*
G01X882531Y979579D02*
Y1002441D01*
G01X943701Y993484D02*
X942736Y992520D01*
X903150D01*
X902531Y993138D01*
Y1002441D01*
G01X892531D02*
Y993886D01*
X896850Y989567D01*
X932283D01*
G01X879724Y985630D02*
X874331D01*
X872531Y987429D01*
Y1002441D01*
G01X887106Y1046949D02*
X888228Y1045827D01*
Y1041776D01*
X880902Y1034449D01*
Y1018701D01*
G01X875984Y1046850D02*
Y1040315D01*
X878898Y1037402D01*
G01X974508Y997343D02*
Y992224D01*
X961220Y978937D01*
X938583D01*
X937157Y980362D01*
Y982169D01*
G01X943701Y1005709D02*
Y993484D01*
G01X958661Y990945D02*
Y988189D01*
X956693Y986220D01*
X937598D01*
X931969Y980591D01*
Y975197D01*
G01X940941Y981689D02*
X942063Y982811D01*
X959709D01*
X959744Y982776D01*
X963583Y986614D01*
Y989717D01*
X963622Y989756D01*
Y991339D01*
G01X992520Y846602D02*
Y845866D01*
G01Y838122D02*
Y838976D01*
G01X989130Y838972D02*
X992520Y842362D01*
G01D02*
X995910Y845752D01*
G01X989130Y848972D02*
X992520Y852362D01*
G01D02*
X995910Y855752D01*
G01X992610Y958201D02*
Y958858D01*
G01X989220Y959051D02*
X992610Y962441D01*
G01D02*
X996000Y965831D01*
G54D12*
X793701Y799409D03*
X800000Y806693D03*
X800197Y818307D03*
X794685Y840748D03*
X801378Y832087D03*
X790354Y848622D03*
X790157Y832480D03*
Y818110D03*
X790354Y806890D03*
X797244Y853543D03*
X797638Y909449D03*
X797244Y888583D03*
X797638Y900197D03*
X790748Y893898D03*
X790945Y866535D03*
X797165Y871654D03*
X791024Y879921D03*
X795854Y865539D03*
X797244Y950000D03*
X791024Y934449D03*
X798031Y920669D03*
X797638Y932283D03*
X798031Y962598D03*
X790709Y956496D03*
X790866Y943110D03*
X790551Y918504D03*
X799409Y969291D03*
X803346Y1001969D03*
X791142Y967717D03*
X801772Y974409D03*
X798622Y996063D03*
X800197Y987598D03*
X799016Y979331D03*
X790748Y1058858D03*
X790945Y1062795D03*
X791181Y1066874D03*
X797323Y1052768D03*
X791142Y1053150D03*
X800197Y1035039D03*
X790551Y1074606D03*
X792323Y1028937D03*
X801378Y1028543D03*
X800394Y1041929D03*
X794882Y1071457D03*
X792815Y1120787D03*
X798622Y1113583D03*
X797441Y1102165D03*
X803543Y1130118D03*
X798042Y1122371D03*
X790421Y1087402D03*
X795669Y1076378D03*
X793110Y1118110D03*
X790945Y1082087D03*
X797047Y1081890D03*
X793055Y1124350D03*
X792618Y1128543D03*
X797795D03*
X796260Y1093701D03*
X801890Y1102165D03*
X803110Y1118110D03*
X793947Y1090497D03*
X793701Y1094488D03*
X795341Y1108224D03*
X796378Y1085130D03*
X797244Y1140748D03*
X798031Y1137205D03*
X828346Y748425D03*
X828150Y738386D03*
X836417Y743701D03*
X846457Y738583D03*
X847244Y719094D03*
X828543Y716339D03*
X833858Y711024D03*
X828543Y700000D03*
X838386Y704921D03*
X847047Y699606D03*
X835591Y724213D03*
X818898Y799016D03*
X840748D03*
X855315Y758071D03*
X833661Y757283D03*
X840551Y763583D03*
X828740D03*
X851772Y807677D03*
X828150Y854921D03*
X842323Y854724D03*
X820079Y843898D03*
X819685Y852362D03*
X837598Y848425D03*
X807874Y804134D03*
X821654Y824409D03*
X841535Y836417D03*
X840354Y823622D03*
X830906Y805709D03*
X821457Y810630D03*
X805709Y846654D03*
X811024Y820866D03*
X840945Y810236D03*
X823228Y834055D03*
X829134Y847441D03*
X849803Y818701D03*
X807283Y812795D03*
X844094Y846063D03*
X853346Y843504D03*
Y833465D03*
X833465Y832087D03*
X827559Y817126D03*
X835630Y910433D03*
X850197Y910236D03*
X806496Y894685D03*
X808268Y885630D03*
X837992Y868701D03*
X853937Y861614D03*
X840748Y880118D03*
X851181Y893110D03*
X817717Y868110D03*
X817913Y887992D03*
X809646Y859055D03*
X836811Y859843D03*
X830079Y905315D03*
X817520Y897638D03*
X829331D03*
X845472Y884449D03*
X852193Y896949D03*
X851772Y885236D03*
X841339Y894685D03*
X828543Y876378D03*
X814370Y863780D03*
X805906Y880512D03*
X847244Y905709D03*
X841929Y911220D03*
X824606Y863583D03*
X835433Y874606D03*
X837205Y888976D03*
X839567Y897441D03*
X828150Y887795D03*
X854724Y881791D03*
X854921Y887992D03*
X851181Y889173D03*
X845276Y891339D03*
X806496Y903937D03*
X836417Y932087D03*
X843504Y924803D03*
X850591Y918110D03*
X843307Y917126D03*
X851378Y947638D03*
X817717Y944291D03*
X842717Y957480D03*
X855276Y962008D03*
X839528Y946260D03*
X854528Y913386D03*
X836811Y923622D03*
X817717Y937598D03*
X817520Y916929D03*
X832283Y961811D03*
X830512Y938780D03*
X830709Y922441D03*
X829134Y931299D03*
X828150Y915945D03*
X826969Y926181D03*
X852165Y935236D03*
X842520Y933661D03*
X854331Y922047D03*
X846457Y941535D03*
X855315Y940945D03*
X856693Y956102D03*
X847047Y961811D03*
X838780Y953740D03*
X837795Y939764D03*
X831890Y949213D03*
X836614Y963976D03*
X846654Y951181D03*
X837008Y915748D03*
X848031Y929331D03*
X829134Y956890D03*
X854488Y929921D03*
X806299Y924213D03*
X807087Y934449D03*
X807677Y944094D03*
X827559Y945669D03*
X826378Y973819D03*
X837480Y1007677D03*
X847244Y1005709D03*
X837008Y1018307D03*
X827165Y1007677D03*
X823622Y1000591D03*
X847244Y975197D03*
X852283Y969882D03*
X847638Y1021260D03*
X819488Y997638D03*
X831496Y969291D03*
X844094Y979528D03*
X838583Y978740D03*
X817913Y968110D03*
X841102Y969882D03*
X849409Y981299D03*
X840157Y975000D03*
X804528Y991142D03*
X809646Y996260D03*
X832913Y1019291D03*
X807559Y988386D03*
X814961Y1000394D03*
X804331Y984252D03*
X857283Y981299D03*
X858071Y975591D03*
X852559Y977756D03*
X834252Y973819D03*
X856063Y1019882D03*
X821260Y1021260D03*
X821457Y1007283D03*
X812598Y1014764D03*
X808268Y976969D03*
X807480Y986024D03*
X841575Y983268D03*
X826772Y977953D03*
X829724Y981693D03*
X856299Y1016594D03*
X817638Y985571D03*
X846260Y983661D03*
X848819Y1069685D03*
X834331Y1065748D03*
X853386Y1030799D03*
X832283Y1030618D03*
X849016Y1026181D03*
X844409Y1050197D03*
X857638D03*
X853346Y1066339D03*
X808858Y1063189D03*
X812795Y1074409D03*
X838898Y1032677D03*
X837638Y1021654D03*
X814488Y1027114D03*
X833465Y1043701D03*
X822437Y1044091D03*
X808661Y1067323D03*
X818268Y1027114D03*
X806102Y1036811D03*
X857480Y1029134D03*
X849803Y1075591D03*
X856299Y1075394D03*
X813780Y1061811D03*
X821457D03*
X829724D03*
X838583Y1062008D03*
X848819Y1062205D03*
X857677Y1062008D03*
X817520Y1058071D03*
X833465D03*
X817913Y1066535D03*
X825787D03*
X844488Y1066339D03*
X839567Y1069685D03*
X830906Y1069291D03*
X821063D03*
X826575Y1074606D03*
X835827Y1074409D03*
X839764Y1058071D03*
X857874Y1054921D03*
X853228Y1054724D03*
X828937Y1053346D03*
X812598Y1051181D03*
X820866Y1052559D03*
X851181Y1050197D03*
X848504Y1054528D03*
X825394Y1058071D03*
X808465Y1045866D03*
X815748Y1045276D03*
X830315Y1047441D03*
X854331Y1046457D03*
X847559Y1046654D03*
X808661Y1022638D03*
X804409Y1028346D03*
X838386Y1049409D03*
Y1046063D03*
X849409Y1030709D03*
X822244Y1027165D03*
X831890Y1034795D03*
X806689Y1054327D03*
X811811Y1031890D03*
X835827Y1081693D03*
X855579Y1095406D03*
X821457Y1120583D03*
X817078Y1103827D03*
X829528Y1113816D03*
X839370Y1077756D03*
X826181Y1094488D03*
X807874Y1089173D03*
Y1094488D03*
X811614D03*
X843307Y1105118D03*
X812913Y1085039D03*
X833071Y1094882D03*
X833465Y1124803D03*
X857480Y1089173D03*
X832283Y1085039D03*
X846654Y1084646D03*
X845669Y1080315D03*
X852953Y1080512D03*
X851969Y1084646D03*
X852953Y1089173D03*
X843110Y1087008D03*
X840748Y1091339D03*
X846850Y1092520D03*
X848425Y1089173D03*
X836811Y1087402D03*
X840748Y1083071D03*
X843110Y1075787D03*
X830906Y1089764D03*
X811969Y1090157D03*
X808031Y1076969D03*
X819843Y1077362D03*
X820472Y1084843D03*
X826378Y1085236D03*
X828740Y1079331D03*
X827402Y1104528D03*
X840157Y1111220D03*
X850709Y1123622D03*
X807087Y1119488D03*
X816732Y1112008D03*
X815945Y1089173D03*
X827362Y1127953D03*
X833268Y1105118D03*
X850709Y1120079D03*
X853228Y1110433D03*
X844488D03*
X849209Y1095425D03*
X825295Y1125098D03*
X806102Y1114370D03*
X822638Y1127756D03*
X818504Y1127953D03*
X815022Y1128937D03*
X855906Y1120079D03*
X835039Y1094094D03*
X816547Y1094685D03*
X850394Y1106693D03*
X807402Y1132480D03*
Y1138976D03*
X852756Y1159055D03*
Y1151575D03*
X833661Y1130799D03*
X857480Y1133071D03*
X856102Y1147244D03*
X809764Y1136614D03*
X845276Y1132874D03*
X848819Y1132283D03*
X851772Y1133071D03*
X841929Y1132874D03*
X821890Y1135039D03*
X827165Y1136417D03*
Y1138189D03*
X815591Y1146457D03*
X818110Y1139567D03*
X816693Y1142717D03*
X830315Y1137598D03*
X832874Y1137795D03*
X831102Y1130512D03*
X835630Y1137795D03*
X858268Y744094D03*
X868504Y738583D03*
X891339D03*
X902165Y743701D03*
X880118Y743898D03*
X905512Y719094D03*
X888976Y724606D03*
X858661Y724409D03*
X859843Y704921D03*
X868307Y699606D03*
X881299Y704724D03*
X890551Y699213D03*
X874961Y719165D03*
X887008Y803346D03*
X882087Y799213D03*
X906299Y802354D03*
X912205Y799016D03*
X897835Y801969D03*
X858661Y798819D03*
X874606Y799016D03*
X890354Y798819D03*
X897835Y799016D03*
X906299Y798819D03*
X899409Y791142D03*
X904724Y781496D03*
X899409Y770472D03*
X904528Y758465D03*
X891929Y763976D03*
X866929Y763780D03*
X876969Y758535D03*
X883268Y822441D03*
X878740Y804134D03*
X886024Y812795D03*
X879134Y814567D03*
X886614Y818701D03*
X894094Y817323D03*
X897835Y814961D03*
X892913Y822047D03*
X878740Y824606D03*
X884449Y843307D03*
X907874Y841732D03*
X908858Y855906D03*
X893504Y803937D03*
X896209Y808465D03*
X906496Y825787D03*
X909843Y846457D03*
X905118Y837795D03*
X910630Y852559D03*
X905906Y850197D03*
X905512Y857480D03*
X903543Y853543D03*
X908268Y835630D03*
X903150Y834055D03*
X899213Y838189D03*
X902559Y845276D03*
X897835Y847138D03*
X899803Y852756D03*
X899461Y849606D03*
X897047Y851681D03*
X899409Y856890D03*
X896654Y855118D03*
X872638Y807087D03*
X897835Y827559D03*
X867520Y833071D03*
X879331Y846457D03*
X889370Y841339D03*
X874606Y843307D03*
X867126Y838780D03*
X858465Y841732D03*
X864370Y845669D03*
X869685Y849016D03*
X876063Y855512D03*
X869685Y854921D03*
X863583Y851575D03*
X882480Y850000D03*
X877362Y850984D03*
X882362Y856299D03*
X885827Y852559D03*
X889370Y846260D03*
X890354Y848819D03*
X890551Y852756D03*
X889961Y856783D03*
X863583Y857874D03*
X911024Y828937D03*
X860827Y835236D03*
X888583Y831496D03*
X872441Y828150D03*
X861614Y816732D03*
X891929Y812008D03*
X883268Y808268D03*
X891929Y827362D03*
X883858Y828543D03*
X861417Y808465D03*
X862402Y827953D03*
X911024Y833071D03*
X878937Y839370D03*
X884252Y837598D03*
X889370Y836417D03*
X902756Y841142D03*
X910827Y822638D03*
X906299Y814961D03*
X908492Y805118D03*
X906299Y807480D03*
X897835Y842520D03*
X906102Y831102D03*
X893504Y831890D03*
X878740Y832480D03*
X872441Y837205D03*
X871850Y816929D03*
X898031Y820669D03*
Y806102D03*
Y810827D03*
X910236Y874984D03*
X907677Y860236D03*
X902362Y860039D03*
X904921Y863386D03*
X896457Y859252D03*
X901772Y869291D03*
X912205Y866929D03*
X904724Y867717D03*
Y872638D03*
X900984Y865157D03*
X899409Y861811D03*
X896260Y862992D03*
X897047Y866035D03*
X902165Y875394D03*
X899461Y868307D03*
X901484Y871654D03*
X864961Y862008D03*
X871063Y861811D03*
X888661Y870669D03*
X874961D03*
X887598Y863583D03*
X887547Y859055D03*
X889764Y861327D03*
X888189Y880709D03*
X885433Y878346D03*
X888583Y874213D03*
X890354Y866929D03*
X881693Y875984D03*
X867520Y875000D03*
X871063Y873031D03*
X861811Y891929D03*
X885827Y875197D03*
X867323Y878346D03*
X868189Y911024D03*
X889291Y885236D03*
X887559Y883465D03*
X882768Y880906D03*
X879921Y879331D03*
X872244Y895669D03*
X868976Y866929D03*
X877559Y895669D03*
X863583Y895472D03*
X874016Y875591D03*
X867913Y897638D03*
X880512Y882480D03*
X884094Y871063D03*
X884409Y866142D03*
X874173Y865354D03*
X879528Y867126D03*
X878583Y873031D03*
X883307Y861024D03*
X877795Y860433D03*
X878543Y898425D03*
X862992Y885138D03*
X908465Y870866D03*
X882185Y898524D03*
X882874Y885433D03*
X882677Y891240D03*
X872047Y911417D03*
X859646Y907874D03*
X906398Y878740D03*
X864094Y922047D03*
Y936417D03*
Y928937D03*
X905315Y964370D03*
X863780D03*
X883307Y953740D03*
X867559Y948228D03*
X860000Y941142D03*
X874016Y931102D03*
X891535Y942717D03*
X905512Y959055D03*
X894016Y960039D03*
X889449Y964567D03*
X882835Y960630D03*
X858465Y949016D03*
X864094Y912992D03*
X859528Y933268D03*
X876220Y926969D03*
X858583Y917717D03*
X859213Y926378D03*
X868346Y941732D03*
X873543Y954134D03*
X872913Y963780D03*
X897008Y942717D03*
X901260Y932087D03*
X882480Y934252D03*
X873701Y924606D03*
X891732Y927953D03*
X887795Y925984D03*
X864094Y941535D03*
X864252Y956102D03*
X868031Y933661D03*
X882087Y942717D03*
X904528Y939961D03*
X873858Y937598D03*
X873701Y942913D03*
X887598Y922638D03*
X895866Y924803D03*
X868031Y916732D03*
X871969Y920079D03*
X890079Y956890D03*
X897008Y953346D03*
X882362Y948031D03*
X890079Y948228D03*
X896378Y948031D03*
X868346Y926181D03*
X887598Y933661D03*
X878346Y919291D03*
X886220Y942323D03*
X897165Y936614D03*
X889449Y936811D03*
X881890Y938583D03*
X873386Y948228D03*
X871811Y914961D03*
X885984Y937795D03*
X894173Y938976D03*
X897165Y964567D03*
X887205Y917913D03*
X882677D03*
X882835Y914858D03*
X895748Y933858D03*
X892913D03*
X870079Y956496D03*
X885827Y958268D03*
X912283Y950591D03*
X910335Y953937D03*
X862126Y949803D03*
X905768Y950925D03*
X866142Y944291D03*
X906299Y944154D03*
X877756Y934843D03*
Y931693D03*
X900492Y915256D03*
X902677Y915650D03*
X904252Y936024D03*
X908386Y956299D03*
Y927953D03*
X906398Y932264D03*
X906929Y979921D03*
X896850Y1007087D03*
X907677Y1000394D03*
X888386Y979528D03*
X899213Y970276D03*
X863386Y978740D03*
X901378Y987205D03*
X888780Y970866D03*
X882677Y970276D03*
X861890D03*
X868110Y975787D03*
X871063Y970079D03*
X878425Y980906D03*
X868110Y981299D03*
X909449Y986220D03*
X911417Y976772D03*
X866339Y1020866D03*
X878740Y976378D03*
X893898Y975197D03*
X882531Y979579D03*
X879724Y985630D03*
X894291Y987008D03*
X891496Y967028D03*
X886614Y975591D03*
X880902Y1018701D03*
X888346Y1015945D03*
X870709Y1021602D03*
X858807Y1068504D03*
X877657Y1050984D03*
X875118Y1021850D03*
X904161Y1022441D03*
X868504Y1037402D03*
X901890Y1038189D03*
X894646Y1028839D03*
X870866Y1067520D03*
X886220Y1037256D03*
X862992Y1029331D03*
X871339Y1041732D03*
X879843Y1056299D03*
X901193Y1058268D03*
X906606Y1060272D03*
X910551Y1037795D03*
Y1033465D03*
X911969Y1027362D03*
X897638Y1037402D03*
X878287Y1029134D03*
X907283Y1074972D03*
X910236Y1075000D03*
X901772Y1075591D03*
X903150Y1070472D03*
X904331Y1067323D03*
X911024Y1069291D03*
X910709Y1058268D03*
X870236Y1061713D03*
X880512Y1051181D03*
X881496Y1046949D03*
X892913Y1041929D03*
X889173Y1039567D03*
X885039Y1043307D03*
X890866Y1021850D03*
X898740D03*
X884094Y1021654D03*
X906197Y1057087D03*
X910079Y1066535D03*
X906496Y1070276D03*
X897953Y1069685D03*
X878898Y1037402D03*
X875984Y1046850D03*
X868898Y1044094D03*
X879134D03*
X887106Y1046949D03*
X881535Y1037598D03*
X860630Y1037795D03*
X873031Y1032874D03*
X888780Y1032283D03*
X867323Y1066535D03*
X873134Y1051874D03*
X870854Y1075106D03*
X899409Y1034055D03*
X907677Y1025000D03*
X901378Y1029528D03*
X888339Y1028937D03*
X872811Y1029748D03*
X876429Y1088976D03*
X859646Y1104921D03*
X858661Y1092520D03*
X860827Y1111811D03*
X858661Y1080118D03*
Y1084449D03*
X868976Y1106299D03*
X909843Y1087795D03*
X896850Y1117323D03*
X875118Y1076575D03*
X910709Y1108661D03*
X906299Y1095472D03*
X910551Y1103937D03*
X911024Y1094685D03*
X871654Y1103740D03*
X907874Y1099016D03*
X897323Y1093110D03*
X911024Y1089961D03*
X906693Y1092520D03*
X902992Y1086614D03*
X906457Y1083071D03*
X899055Y1097441D03*
X900630Y1100197D03*
X900945Y1091929D03*
X898898Y1081693D03*
X910039Y1081890D03*
X861220Y1116732D03*
X863780D03*
X870866Y1114173D03*
X874606Y1111614D03*
X870177Y1127953D03*
X877461D03*
X873917Y1129724D03*
X883071D03*
X881102D03*
X877362Y1119488D03*
X880118Y1113780D03*
X874213Y1117323D03*
X897244Y1110630D03*
X905315Y1119291D03*
X871063Y1100000D03*
X865110Y1106299D03*
X858268Y1120079D03*
X874346Y1086417D03*
X861417Y1107480D03*
X875409Y1094291D03*
X891654Y1124409D03*
X891535Y1122638D03*
X890157Y1123622D03*
X904331Y1159055D03*
X862992Y1148031D03*
X889370Y1159252D03*
X904331Y1151772D03*
X897244Y1149213D03*
X881299Y1151378D03*
X883858Y1159646D03*
X889567Y1153346D03*
X874213Y1159449D03*
X861614Y1159055D03*
X867323Y1149409D03*
X889134Y1145079D03*
X891142Y1136811D03*
X899803Y1136220D03*
X885039Y1155315D03*
X859252Y1155118D03*
X886417Y1147835D03*
X909449Y1142323D03*
Y1138189D03*
X895906Y1134646D03*
X898583Y1133465D03*
X888780Y1147835D03*
X904724Y1130315D03*
X903346Y1137992D03*
X895866D03*
X893110Y1143110D03*
X904134Y1143504D03*
X898819Y1143307D03*
X908346Y1130906D03*
X909449Y1148819D03*
X870276Y1131791D03*
X877461Y1131890D03*
X872244Y1139567D03*
X887008Y1132874D03*
X884646D03*
X881102Y1131693D03*
X883071D03*
X873543Y1141535D03*
X881299Y1146457D03*
X868307Y1135630D03*
X928543Y744094D03*
X955315Y744291D03*
X966142Y738850D03*
X942520D03*
X915354Y738386D03*
X963583Y724409D03*
X939961Y724213D03*
X934646Y719291D03*
X954016Y719165D03*
X916339Y724213D03*
X934252Y803150D03*
X949016Y800787D03*
X922244Y803150D03*
X956890Y799409D03*
X939370D03*
X926969Y799213D03*
X919488Y798819D03*
X943898Y853937D03*
X920276Y837795D03*
X921260Y842520D03*
X936811Y833071D03*
X928543Y832480D03*
X919488Y832087D03*
X946654Y834843D03*
X940551Y829331D03*
X923425Y827953D03*
X913780Y849213D03*
X914567Y857087D03*
X924409Y851772D03*
X939567Y848819D03*
X930315Y851772D03*
X920472Y857283D03*
X926772Y807677D03*
X915354Y806693D03*
X912598Y813976D03*
X918701Y822638D03*
X917126Y846654D03*
X924606D03*
X915945Y836614D03*
X933071Y846654D03*
X936811Y841339D03*
X944685Y846850D03*
X937795Y856496D03*
X932087Y857677D03*
X918898Y852165D03*
X925984Y857283D03*
X914173Y841732D03*
X960630Y856102D03*
X958268Y858071D03*
X954331Y829724D03*
X957087Y806299D03*
X932874Y837008D03*
X937795Y808268D03*
X932677Y828346D03*
X915551Y827362D03*
X947835Y841142D03*
X958071Y837008D03*
X928346Y840354D03*
X924606Y836811D03*
X961614Y830315D03*
X929528Y826575D03*
X942126Y813780D03*
X932087Y813583D03*
X920669Y813189D03*
X932874Y810039D03*
X946654Y822835D03*
X937205Y822638D03*
X941339Y837402D03*
X927362Y822638D03*
X965197Y840945D03*
X953701Y841339D03*
X965748Y856102D03*
X950787Y848425D03*
X953543Y850787D03*
X950000Y867913D03*
X938583Y874606D03*
X923819Y874409D03*
X918504D03*
X966299Y872047D03*
X949134Y886024D03*
X926181Y872244D03*
X949921Y873228D03*
X962205Y870472D03*
X917717Y866732D03*
X926575Y861417D03*
X929528Y869094D03*
X953740Y909449D03*
X945669Y862992D03*
X941732Y860433D03*
X937795Y863583D03*
X931299D03*
X923622Y864370D03*
X923819Y868701D03*
X963937Y884055D03*
X953858Y875000D03*
X932441Y906102D03*
Y912008D03*
X925394Y907874D03*
X928543Y885236D03*
X937638Y910827D03*
X949291Y906693D03*
X942126Y869094D03*
X963937Y878150D03*
X942362Y887205D03*
X936378Y886024D03*
X944291Y875197D03*
X958268Y877559D03*
X927953Y905315D03*
X932087Y875197D03*
X934449Y870866D03*
X926378Y887402D03*
X924882Y911614D03*
X928819Y910236D03*
X937480Y905709D03*
X943780Y908071D03*
X922047Y907283D03*
X918898Y885236D03*
X966732Y863386D03*
X948976Y891535D03*
X964173Y867126D03*
X944409Y893504D03*
X954669Y889567D03*
X963386Y898283D03*
X953937Y866142D03*
X950709Y901378D03*
X954921Y902953D03*
X945669Y903346D03*
X941260Y942913D03*
X948976Y944488D03*
X954488Y942913D03*
X954646Y948031D03*
X929291Y943307D03*
X929606Y950000D03*
X958071Y965748D03*
X954173Y917913D03*
X945197Y931299D03*
X920472Y949803D03*
X948346Y950197D03*
X924094Y944685D03*
X926299Y961220D03*
X936378Y945866D03*
X949016Y966535D03*
X919685Y946063D03*
X954488Y937598D03*
X935591D03*
X919528Y921063D03*
X942047Y925197D03*
X939055Y917126D03*
X954331Y925591D03*
X932126Y919685D03*
X919843Y925591D03*
X926142Y937598D03*
X937205Y931299D03*
X954488Y930906D03*
X946772Y915157D03*
X932441Y925591D03*
X920630Y931693D03*
X919528Y938189D03*
X918898Y912992D03*
X929449Y931890D03*
X947835Y922638D03*
X945354Y937795D03*
X921102Y916339D03*
X924213Y916142D03*
X928346Y916339D03*
X920945Y966732D03*
X925984Y923425D03*
X960236Y937992D03*
X963386Y917520D03*
X914272Y947638D03*
X917028Y947047D03*
X966043Y950000D03*
X963976Y952362D03*
X960039Y947638D03*
X918110Y969488D03*
X920945Y977362D03*
X961260Y975394D03*
X966457Y1008268D03*
X918701Y984646D03*
X914803Y972835D03*
X929134Y986417D03*
X929331Y980118D03*
X951339Y1007382D03*
X921709Y1018898D03*
X945185Y988976D03*
X956378Y975394D03*
X938268Y1001378D03*
X966535Y970669D03*
X953150D03*
X939685Y1020276D03*
X945669Y996063D03*
X940945Y1011417D03*
X927559Y1010039D03*
X937157Y982169D03*
X937638Y975000D03*
X943701Y1005709D03*
X943780Y993406D03*
X943701Y993484D03*
X945839Y975276D03*
X947441Y998228D03*
X932283Y989567D03*
X921260Y972441D03*
X931969Y975197D03*
X958661Y990945D03*
X926181Y975402D03*
X940941Y981689D03*
X963622Y991339D03*
X951181Y975591D03*
X933268Y986024D03*
X925197Y979134D03*
X944791Y1018437D03*
X962555Y1009843D03*
X951772Y1011146D03*
X936220Y1020472D03*
X957555Y1011327D03*
X947441Y1040945D03*
X957480Y1040886D03*
X962598D03*
X938476Y1038280D03*
X941429Y1046654D03*
X951654Y1046063D03*
X929713Y1056299D03*
X925697Y1044488D03*
X949409Y1064764D03*
X924409Y1074803D03*
X929134Y1065945D03*
X925591Y1068504D03*
X929524Y1063189D03*
X932087Y1047039D03*
X925000Y1055709D03*
X956299Y1067126D03*
X953701Y1069291D03*
X960945Y1068898D03*
X922362Y1064567D03*
X922047Y1066929D03*
X916535Y1060039D03*
X937205Y1046654D03*
X927362Y1046457D03*
X931890Y1043307D03*
X916378Y1037795D03*
X916220Y1033661D03*
X912756Y1035827D03*
X922441Y1069685D03*
X920472Y1075000D03*
X936693Y1069291D03*
X948819Y1073031D03*
X939764Y1056102D03*
X930315Y1024016D03*
X943110Y1073031D03*
X914370Y1063386D03*
X948819Y1056299D03*
X916929Y1074606D03*
X939764Y1064961D03*
Y1061811D03*
X919055Y1039961D03*
X931024Y1030630D03*
Y1033307D03*
X921890D03*
X919252Y1022402D03*
X922638Y1024508D03*
X932913Y1024402D03*
X944701Y1027953D03*
X944409Y1022835D03*
X939213Y1032283D03*
X950591Y1122835D03*
X917126Y1111220D03*
X947756Y1097441D03*
X917520Y1102559D03*
X953228Y1093307D03*
X943898Y1113976D03*
X940157Y1104921D03*
X938567Y1117898D03*
X928189Y1100000D03*
X917323Y1125591D03*
X914370Y1129921D03*
X965551Y1080906D03*
X961417D03*
X960236Y1091929D03*
X945669Y1123031D03*
X955276Y1101378D03*
X950236Y1102756D03*
X918110Y1091339D03*
X931299Y1123031D03*
X933071Y1096063D03*
X923214Y1096639D03*
X958071Y1129724D03*
X957480Y1121260D03*
X940354Y1121654D03*
X937992Y1125000D03*
X966772Y1116732D03*
X953543Y1090354D03*
X913386Y1082087D03*
X917126Y1082677D03*
X921260D03*
X919094Y1086417D03*
X931811Y1086024D03*
X936063Y1085039D03*
X936220Y1082283D03*
X935276Y1113976D03*
X949921Y1111024D03*
X926457Y1094488D03*
Y1091142D03*
X940748Y1081102D03*
X944488Y1077559D03*
X958858Y1106299D03*
X965551Y1127953D03*
X961614Y1119882D03*
X936535Y1102756D03*
X947402Y1084252D03*
X929921Y1112598D03*
X937008Y1092717D03*
X955709Y1096260D03*
X953858Y1113976D03*
X958661Y1125197D03*
X944094Y1091732D03*
X923307Y1102953D03*
X921260Y1104331D03*
X925512Y1100394D03*
X920787Y1095669D03*
X955276Y1076378D03*
X938386D03*
X923622Y1078740D03*
X926181D03*
X919882Y1109252D03*
X930236Y1076575D03*
X949213Y1126969D03*
X924213Y1121063D03*
X951024Y1148622D03*
X916929Y1154224D03*
X944094Y1140354D03*
X916732Y1159055D03*
X952492Y1152362D03*
X914370Y1156496D03*
X954134Y1135039D03*
X952559Y1141339D03*
X930079Y1131496D03*
X940551Y1145276D03*
X917126Y1142520D03*
Y1138189D03*
X913189Y1142520D03*
X913386Y1138189D03*
X927953Y1144685D03*
X966142Y1148031D03*
X939961Y1140165D03*
X949319Y1140354D03*
X944488Y1134449D03*
X941535Y1152559D03*
X947638Y1152756D03*
X935039Y1152953D03*
X963976Y1156102D03*
X958858Y1154528D03*
X935630Y1140157D03*
X924567Y1131102D03*
X931969Y1135039D03*
X921772Y1149803D03*
X931024Y1159252D03*
X962795Y1133465D03*
X966732D03*
X964764Y1141535D03*
X951575Y1136220D03*
X917962Y1130857D03*
X975197Y744094D03*
X970472Y731496D03*
X975591Y719488D03*
X996850Y801181D03*
X1008858Y799409D03*
X989567D03*
X967717D03*
X974606Y833661D03*
X968110Y835827D03*
X982677Y855315D03*
X1011417Y832677D03*
X1001969Y826575D03*
X1006890Y807480D03*
X976378Y804331D03*
X982087Y817913D03*
X968346Y851378D03*
X973622Y851575D03*
X976378Y844882D03*
X1013228Y850984D03*
X1005709Y832087D03*
X1004331Y818504D03*
X984567Y847441D03*
X981299Y826969D03*
X983071Y806890D03*
X1000394Y806496D03*
X1001772Y843307D03*
X991142Y822244D03*
X993898Y813386D03*
X983268Y810630D03*
X970079Y818504D03*
X975197Y812992D03*
X974016Y824213D03*
X968189Y845472D03*
X1013386Y839173D03*
X1013780Y822638D03*
X1013583Y805709D03*
X979843Y840354D03*
X980787Y833858D03*
X984567Y829921D03*
X973701Y839764D03*
X979685Y851181D03*
X1002362Y854921D03*
X970276Y854134D03*
X971024Y869291D03*
X985984Y865157D03*
X977165Y866339D03*
X1013386Y870079D03*
X971339Y859646D03*
X977638D03*
X1012598Y902362D03*
X970236Y878740D03*
X969449Y884843D03*
X992913Y864567D03*
X975433Y874409D03*
X998031Y860827D03*
X1001102Y877362D03*
X1001378Y901772D03*
Y889370D03*
X1001575Y866142D03*
X984055Y859843D03*
X1013780Y890748D03*
X1013386Y880315D03*
X1013189Y860630D03*
X970866Y890748D03*
X978268Y899606D03*
X977795Y904528D03*
X987795Y956693D03*
X1012441Y922638D03*
X1013228Y937992D03*
X980709Y927165D03*
X988189Y928740D03*
X987598Y947047D03*
X1003543Y950984D03*
X1002953Y935039D03*
X1001575Y916732D03*
X968898Y965748D03*
X1013976Y958071D03*
X1013780Y945866D03*
Y930118D03*
Y914370D03*
X1014173Y966535D03*
X975984Y965551D03*
X1003346Y962992D03*
X992717Y971457D03*
X990945Y984843D03*
X991535Y1007874D03*
X983465Y985433D03*
X975591Y973031D03*
X992323Y976575D03*
X1006929Y979134D03*
X975295Y1015354D03*
X970669Y975197D03*
X973386Y1008465D03*
X983465Y995669D03*
X990079Y1020276D03*
X975394Y983465D03*
X993307Y994882D03*
X996378Y986614D03*
X1007677Y1004921D03*
X1003543Y1000984D03*
X996850Y1012008D03*
X1001378Y1017520D03*
X1012008Y1013583D03*
X1004134Y1011811D03*
X1008465Y1019488D03*
X987795Y989961D03*
X980906Y969291D03*
X1005197Y987598D03*
X974508Y997343D03*
X988583Y1029134D03*
X982677Y1058071D03*
X1009055Y1024161D03*
X996654Y1040748D03*
X1000787Y1040945D03*
X998583Y1036614D03*
X996457Y1033661D03*
X1000315D03*
X996693Y1065157D03*
X998425Y1048819D03*
X986299Y1066535D03*
X985039Y1071063D03*
X1013780Y1065945D03*
X996693Y1055906D03*
X996850Y1072047D03*
X976535Y1061417D03*
X968031Y1066732D03*
X1013976Y1075000D03*
X1008465Y1066339D03*
X1006898Y1072244D03*
X1010827Y1071654D03*
X1011811Y1026378D03*
X1002362Y1054528D03*
X977756Y1033465D03*
X1008268Y1054134D03*
X1008661Y1043504D03*
X1013780Y1031299D03*
X1002953Y1023228D03*
X993898Y1028543D03*
X989567Y1039764D03*
X992126Y1049409D03*
X1004567Y1066732D03*
X992598Y1061614D03*
X1012598Y1056496D03*
Y1035236D03*
X1007402Y1075197D03*
X988780Y1036417D03*
X1007461Y1040374D03*
X988976Y1033465D03*
X1007283Y1037205D03*
X974646Y1040157D03*
X972283Y1026575D03*
X970079Y1024213D03*
X967555Y1040713D03*
X991339Y1129921D03*
X991142Y1122047D03*
X984449Y1112008D03*
X1012992Y1099016D03*
X1012795Y1115157D03*
X1010236Y1113976D03*
X983858Y1086417D03*
X987217Y1075984D03*
X977638Y1098425D03*
X980717Y1105315D03*
X974213Y1127165D03*
X974016Y1120079D03*
X1013189Y1083465D03*
X1000591Y1082677D03*
X1007677Y1083268D03*
X996252Y1090748D03*
X991732Y1082677D03*
X994094Y1102756D03*
Y1100197D03*
X972441Y1101378D03*
X996654Y1126181D03*
X1002756Y1124016D03*
X996063Y1121063D03*
X994685Y1107874D03*
X1000984D03*
X1001181Y1100394D03*
X998425Y1103937D03*
X981299Y1114370D03*
X1001181Y1076780D03*
X967717Y1122638D03*
X972047Y1080709D03*
X976969Y1078740D03*
X968110Y1091339D03*
X973031Y1091142D03*
X967768Y1094094D03*
X1011811Y1093307D03*
X976969Y1083661D03*
X969780Y1085421D03*
X991142Y1087587D03*
X980906Y1079421D03*
X987598Y1097441D03*
X990236Y1119488D03*
X991929Y1125787D03*
X968307Y1104528D03*
X981260Y1101772D03*
X1012795Y1139567D03*
X988976Y1149213D03*
X984449Y1154528D03*
X989370Y1141535D03*
X978937Y1156299D03*
X988780Y1136417D03*
X991142Y1133858D03*
X970669Y1133071D03*
X976575Y1159252D03*
X993898Y1157874D03*
X995669Y1142126D03*
X1004724Y1139370D03*
X997835Y1134843D03*
X1008268Y1132480D03*
X981693Y1144291D03*
X970669Y1158465D03*
X968701Y1141929D03*
X972638Y1143457D03*
G54D22*
G01X799213Y1014173D02*
X804331D01*
G01X799213D02*
Y1009646D01*
G01Y1014173D02*
Y1018898D01*
G01Y1014173D02*
X793898D01*
G54D13*
X799213D03*
G54D23*
G01X812598Y842362D02*
X816839D01*
G01X812598Y852362D02*
X808358D01*
G01X812598D02*
X816839D01*
G01X812598D02*
Y856602D01*
G01Y848819D02*
Y852362D01*
G01Y845866D02*
Y842362D01*
G01Y838976D02*
Y842362D01*
G01X809252D02*
X812598D01*
G01X822531Y952441D02*
X826772D01*
G01X822531Y948819D02*
Y952441D01*
G01X819094D02*
X822531D01*
G01Y956102D02*
Y952441D01*
G01X832531Y1012441D02*
Y1002441D01*
G01Y998201D02*
Y1002441D01*
G01X828291Y1012441D02*
X832531D01*
G01X828291Y1002441D02*
X832531D01*
G01X836024D02*
X832531D01*
G01X836024Y1012441D02*
X832531D01*
G01Y1016626D02*
Y1012441D01*
G01X992520Y852362D02*
X996760D01*
G01X988280D02*
X992520D01*
G01D02*
Y856602D01*
G01Y848122D02*
Y852362D01*
G01Y842362D02*
X996760D01*
G01X992520D02*
X988280D01*
G01X992520Y845866D02*
Y842362D01*
G01Y838976D02*
Y842362D01*
G01X992610Y962441D02*
X996850D01*
G01X988370D02*
X992610D01*
G01D02*
Y966681D01*
G01Y958858D02*
Y962441D01*
G54D14*
G01X794390Y692913D02*
X1011220D01*
G03X1017913Y700591I-552J7237D01*
G01Y964567D01*
G03X1013583Y976969I-19922J0D01*
G02X1009252Y989370I15591J12402D01*
G02X1013583Y1001772I19922J0D01*
G03X1017913Y1014173I-15591J12402D01*
G01Y1158811D01*
G03X1012157Y1164567I-5756J0D01*
G01X849803D01*
Y1159843D01*
X843504D01*
Y1151575D01*
X839961D01*
Y1159843D01*
X825000D01*
Y1151575D01*
X821457D01*
Y1159843D01*
X815157D01*
Y1164567D01*
X793354D01*
G03X787598Y1158811I0J-5756D01*
G01Y1014173D01*
G03X791929Y1001772I19922J0D01*
G02X796260Y989370I-15591J-12402D01*
G02X791929Y976969I-19922J0D01*
G03X787598Y964567I15591J-12402D01*
G01Y700591D01*
G03X794390Y692913I8087J312D01*
G01X950912Y586071D02*
Y593571D01*
X952778D01*
X953524Y593196D01*
X954084Y592696D01*
X954551Y591946D01*
X954924Y591071D01*
X955017Y589821D01*
X954924Y588571D01*
X954551Y587696D01*
X954084Y586946D01*
X953524Y586446D01*
X952778Y586071D01*
X950912D01*
G01X958132D02*
X960465Y593571D01*
X962797Y586071D01*
G01X961957Y588696D02*
X958972D01*
G01X967965Y593571D02*
Y586071D01*
G01X965819Y593571D02*
X970111D01*
G01X977331Y586071D02*
X973598D01*
Y593571D01*
X977331D01*
G01X975838Y589946D02*
X973598D01*
G01X982965Y585821D02*
X982778Y585946D01*
Y586196D01*
X982965Y586321D01*
X983151Y586196D01*
Y585946D01*
X982965Y585821D01*
G01Y589196D02*
X982778Y589321D01*
Y589571D01*
X982965Y589696D01*
X983151Y589571D01*
Y589321D01*
X982965Y589196D01*
G01X996192Y592321D02*
X996752Y593071D01*
X997405Y593446D01*
X998151Y593571D01*
X999084Y593321D01*
X999737Y592696D01*
X999924Y591946D01*
X999831Y591196D01*
X999457Y590571D01*
X997591Y589321D01*
X996752Y588446D01*
X996192Y587196D01*
X996005Y586071D01*
X999924D01*
G01X1005465Y593571D02*
X1004718Y593321D01*
X1004158Y592696D01*
X1003785Y591946D01*
X1003505Y590946D01*
X1003412Y589821D01*
X1003505Y588696D01*
X1003785Y587696D01*
X1004158Y586946D01*
X1004718Y586321D01*
X1005465Y586071D01*
X1006211Y586321D01*
X1006771Y586946D01*
X1007144Y587696D01*
X1007424Y588696D01*
X1007517Y589821D01*
X1007424Y590946D01*
X1007144Y591946D01*
X1006771Y592696D01*
X1006211Y593321D01*
X1005465Y593571D01*
G01X1011192Y592321D02*
X1011752Y593071D01*
X1012405Y593446D01*
X1013151Y593571D01*
X1014084Y593321D01*
X1014737Y592696D01*
X1014924Y591946D01*
X1014831Y591196D01*
X1014457Y590571D01*
X1012591Y589321D01*
X1011752Y588446D01*
X1011192Y587196D01*
X1011005Y586071D01*
X1014924D01*
G01X1020465Y593571D02*
X1019718Y593321D01*
X1019158Y592696D01*
X1018785Y591946D01*
X1018505Y590946D01*
X1018412Y589821D01*
X1018505Y588696D01*
X1018785Y587696D01*
X1019158Y586946D01*
X1019718Y586321D01*
X1020465Y586071D01*
X1021211Y586321D01*
X1021771Y586946D01*
X1022144Y587696D01*
X1022424Y588696D01*
X1022517Y589821D01*
X1022424Y590946D01*
X1022144Y591946D01*
X1021771Y592696D01*
X1021211Y593321D01*
X1020465Y593571D01*
G01X1026752Y588571D02*
X1029178D01*
G01X1035465Y593571D02*
X1034718Y593321D01*
X1034158Y592696D01*
X1033785Y591946D01*
X1033505Y590946D01*
X1033412Y589821D01*
X1033505Y588696D01*
X1033785Y587696D01*
X1034158Y586946D01*
X1034718Y586321D01*
X1035465Y586071D01*
X1036211Y586321D01*
X1036771Y586946D01*
X1037144Y587696D01*
X1037424Y588696D01*
X1037517Y589821D01*
X1037424Y590946D01*
X1037144Y591946D01*
X1036771Y592696D01*
X1036211Y593321D01*
X1035465Y593571D01*
G01X1041192Y592321D02*
X1041752Y593071D01*
X1042405Y593446D01*
X1043151Y593571D01*
X1044084Y593321D01*
X1044737Y592696D01*
X1044924Y591946D01*
X1044831Y591196D01*
X1044457Y590571D01*
X1042591Y589321D01*
X1041752Y588446D01*
X1041192Y587196D01*
X1041005Y586071D01*
X1044924D01*
G01X1049252Y588571D02*
X1051678D01*
G01X1057965Y586071D02*
Y593571D01*
X1056845Y592071D01*
G01Y586071D02*
X1059084D01*
G01X1065278D02*
X1065465Y587696D01*
X1065744Y589071D01*
X1066118Y590321D01*
X1066584Y591696D01*
X1067331Y593571D01*
X1063598D01*
G01X958807Y613701D02*
Y606201D01*
X962539D01*
G01X969293D02*
Y613701D01*
X965841Y608326D01*
X970506D01*
G01X952768Y632744D02*
Y625244D01*
G01X950622Y632744D02*
X954914D01*
G01X962134Y625244D02*
X958402D01*
Y632744D01*
X962134D01*
G01X960641Y629119D02*
X958402D01*
G01X965808Y625244D02*
X969727Y632744D01*
G01X965808D02*
X969727Y625244D01*
G01X972935D02*
X975268Y632744D01*
X977600Y625244D01*
G01X976761Y627869D02*
X973775D01*
G01X980808Y626244D02*
X981555Y625619D01*
X982394Y625244D01*
X983141D01*
X983887Y625619D01*
X984447Y626244D01*
X984727Y627119D01*
X984541Y627994D01*
X984074Y628744D01*
X983234Y629244D01*
X982115Y629494D01*
X981461Y629994D01*
X981181Y630869D01*
X981368Y631744D01*
X981835Y632369D01*
X982488Y632744D01*
X983141D01*
X983794Y632494D01*
X984354Y631869D01*
G01X996648Y632744D02*
X998887D01*
G01X997768D02*
Y625244D01*
G01X996648D02*
X998887D01*
G01X1003122D02*
Y632744D01*
X1007414Y625244D01*
Y632744D01*
G01X1010808Y626244D02*
X1011555Y625619D01*
X1012394Y625244D01*
X1013141D01*
X1013887Y625619D01*
X1014447Y626244D01*
X1014727Y627119D01*
X1014541Y627994D01*
X1014074Y628744D01*
X1013234Y629244D01*
X1012115Y629494D01*
X1011461Y629994D01*
X1011181Y630869D01*
X1011368Y631744D01*
X1011835Y632369D01*
X1012488Y632744D01*
X1013141D01*
X1013794Y632494D01*
X1014354Y631869D01*
G01X1020268Y632744D02*
Y625244D01*
G01X1018122Y632744D02*
X1022414D01*
G01X1025902Y625244D02*
Y632744D01*
X1028234D01*
X1028981Y632369D01*
X1029447Y631869D01*
X1029634Y630869D01*
X1029447Y629869D01*
X1028887Y629244D01*
X1028234Y628869D01*
X1025902D01*
G01X1028234D02*
X1029634Y625244D01*
G01X1033215Y632744D02*
Y627369D01*
X1033588Y626244D01*
X1034335Y625494D01*
X1035268Y625244D01*
X1036201Y625494D01*
X1036947Y626244D01*
X1037320Y627369D01*
Y632744D01*
G01X1040342Y625244D02*
Y632744D01*
X1042768Y626494D01*
X1045194Y632744D01*
Y625244D01*
G01X1052134D02*
X1048402D01*
Y632744D01*
X1052134D01*
G01X1050641Y629119D02*
X1048402D01*
G01X1055622Y625244D02*
Y632744D01*
X1059914Y625244D01*
Y632744D01*
G01X1065268D02*
Y625244D01*
G01X1063122Y632744D02*
X1067414D01*
G01X1070808Y626244D02*
X1071555Y625619D01*
X1072394Y625244D01*
X1073141D01*
X1073887Y625619D01*
X1074447Y626244D01*
X1074727Y627119D01*
X1074541Y627994D01*
X1074074Y628744D01*
X1073234Y629244D01*
X1072115Y629494D01*
X1071461Y629994D01*
X1071181Y630869D01*
X1071368Y631744D01*
X1071835Y632369D01*
X1072488Y632744D01*
X1073141D01*
X1073794Y632494D01*
X1074354Y631869D01*
G01X992312Y609398D02*
Y606299D01*
X993845D01*
G01X995219D02*
X996177Y609398D01*
X997135Y606299D01*
G01X996790Y607383D02*
X995564D01*
G01X998433Y609398D02*
Y607177D01*
X998586Y606712D01*
X998893Y606402D01*
X999276Y606299D01*
X999659Y606402D01*
X999965Y606712D01*
X1000119Y607177D01*
Y609398D01*
G01X1001493Y606299D02*
Y609398D01*
X1003256Y606299D01*
Y609398D01*
G01X1006315Y609139D02*
X1006085Y609294D01*
X1005817Y609398D01*
X1005511D01*
X1005166Y609243D01*
X1004898Y608985D01*
X1004706Y608675D01*
X1004553Y608158D01*
X1004515Y607693D01*
X1004591Y607229D01*
X1004706Y606919D01*
X1004936Y606609D01*
X1005204Y606402D01*
X1005472Y606299D01*
X1005741D01*
X1006009Y606402D01*
X1006239Y606557D01*
X1006430Y606764D01*
G01X1007766Y606299D02*
Y609398D01*
G01X1009376D02*
Y606299D01*
G01Y607848D02*
X1007766D01*
G01X1010865Y606299D02*
X1012474Y609398D01*
G01X1010865D02*
X1012474Y606299D01*
G01X1014001Y609398D02*
Y606299D01*
X1015534D01*
G01X1017368Y607332D02*
X1018364D01*
G01X1021807Y609139D02*
X1021578Y609294D01*
X1021309Y609398D01*
X1021003D01*
X1020658Y609243D01*
X1020390Y608985D01*
X1020198Y608675D01*
X1020045Y608158D01*
X1020007Y607693D01*
X1020083Y607229D01*
X1020198Y606919D01*
X1020428Y606609D01*
X1020696Y606402D01*
X1020965Y606299D01*
X1021233D01*
X1021501Y606402D01*
X1021731Y606557D01*
X1021922Y606764D01*
G01X1024906Y609139D02*
X1024676Y609294D01*
X1024408Y609398D01*
X1024101D01*
X1023756Y609243D01*
X1023488Y608985D01*
X1023296Y608675D01*
X1023143Y608158D01*
X1023105Y607693D01*
X1023181Y607229D01*
X1023296Y606919D01*
X1023526Y606609D01*
X1023795Y606402D01*
X1024063Y606299D01*
X1024331D01*
X1024600Y606402D01*
X1024830Y606557D01*
X1025021Y606764D01*
G01X1027161Y606299D02*
Y609398D01*
X1026702Y608778D01*
G01Y606299D02*
X1027621D01*
G01X1029417Y606919D02*
X1029647Y606557D01*
X1029953Y606351D01*
X1030298Y606299D01*
X1030605Y606351D01*
X1030911Y606609D01*
X1031103Y606919D01*
X1031141Y607229D01*
X1031065Y607590D01*
X1030796Y607848D01*
X1030528Y607952D01*
X1030183D01*
G01X1030528D02*
X1030758Y608107D01*
X1030950Y608365D01*
X1031026Y608675D01*
X1030950Y608985D01*
X1030758Y609243D01*
X1030413Y609398D01*
X1030068Y609346D01*
X1029723Y609139D01*
G01X1033358Y606299D02*
Y609398D01*
X1032898Y608778D01*
G01Y606299D02*
X1033818D01*
G01X1036457Y609398D02*
X1036150Y609294D01*
X1035920Y609036D01*
X1035767Y608726D01*
X1035652Y608313D01*
X1035614Y607848D01*
X1035652Y607383D01*
X1035767Y606970D01*
X1035920Y606661D01*
X1036150Y606402D01*
X1036457Y606299D01*
X1036763Y606402D01*
X1036993Y606661D01*
X1037146Y606970D01*
X1037261Y607383D01*
X1037300Y607848D01*
X1037261Y608313D01*
X1037146Y608726D01*
X1036993Y609036D01*
X1036763Y609294D01*
X1036457Y609398D01*
G01X1041696Y606299D02*
X1042654Y609398D01*
X1043611Y606299D01*
G01X1043267Y607383D02*
X1042041D01*
X799803Y983154D03*
Y992209D03*
X872933Y780807D03*
X863272Y1152756D03*
X872327D03*
X931988Y780807D03*
X1005512Y992043D03*
Y982988D03*
G54D24*
G01X812598Y832362D02*
X806882D01*
X801969Y837276D01*
Y961878D01*
X822531Y982441D01*
G01D02*
Y962441D01*
G01X842531Y1012441D02*
Y1038374D01*
X838386Y1042520D01*
Y1046063D01*
G01X842531Y1002441D02*
X822531Y982441D01*
G01X838386Y1046063D02*
Y1049409D01*
G54D15*
G01X790945Y638681D02*
Y579626D01*
X1086220D01*
Y638681D01*
X790945D01*
G01X938583D02*
Y579626D01*
G01Y599311D02*
X1086220D01*
G01Y618996D02*
X938583D01*
G01X988488D02*
Y599311D01*
X798169Y1106024D03*
X802165Y1136024D03*
X794173D03*
G54D16*
X800669Y1131024D03*
Y1126024D03*
Y1121024D03*
Y1116024D03*
Y1111024D03*
X795669Y1131024D03*
Y1126024D03*
Y1121024D03*
Y1116024D03*
Y1111024D03*
G54D17*
X812598Y852362D03*
Y842362D03*
Y832362D03*
X822531Y872441D03*
Y882441D03*
Y892441D03*
Y902441D03*
Y912441D03*
X812531Y872441D03*
Y882441D03*
Y892441D03*
Y902441D03*
Y912441D03*
X858969Y875248D03*
X848969D03*
X858969Y865248D03*
X848969D03*
X822531Y922441D03*
Y932441D03*
Y942441D03*
Y952441D03*
Y962441D03*
X812531Y922441D03*
Y932441D03*
Y942441D03*
Y952441D03*
Y962441D03*
X832531Y1002441D03*
X842531D03*
X852531D03*
X832531Y1012441D03*
X842531D03*
X852531D03*
X862531Y1002441D03*
X872531D03*
X882531D03*
X892531D03*
X902531D03*
X912531D03*
X862531Y1012441D03*
X872531D03*
X882531D03*
X892531D03*
X902531D03*
X912531D03*
X922531Y1002441D03*
X932531D03*
X922531Y1012441D03*
X932531D03*
X992520Y852362D03*
Y842362D03*
Y832362D03*
X992610Y872441D03*
Y882441D03*
Y892441D03*
Y902441D03*
Y912441D03*
X982610Y872441D03*
Y882441D03*
Y892441D03*
Y902441D03*
Y912441D03*
X992610Y922441D03*
Y932441D03*
Y942441D03*
Y952441D03*
Y962441D03*
X982610Y922441D03*
Y932441D03*
Y942441D03*
Y952441D03*
Y962441D03*
X983858Y1002441D03*
Y1012441D03*
Y1022441D03*
G54D18*
X847835Y1152165D03*
X816732D03*
G54D19*
X895374Y890354D03*
X899311D03*
X903248D03*
X907185D03*
X911122D03*
Y894291D03*
X907185D03*
X903248D03*
X899311D03*
X895374D03*
X911122Y898228D03*
X907185D03*
X903248D03*
X899311D03*
X895374D03*
X911122Y902165D03*
X907185D03*
X903248D03*
X899311D03*
X895374D03*
X911122Y906102D03*
X907185D03*
X903248D03*
X899311D03*
X895374D03*
M02*
