G04 #@! TF.GenerationSoftware,KiCad,Pcbnew,(7.0.0)*
G04 #@! TF.CreationDate,2023-05-25T13:49:03-05:00*
G04 #@! TF.ProjectId,Emrick,456d7269-636b-42e6-9b69-6361645f7063,3*
G04 #@! TF.SameCoordinates,Original*
G04 #@! TF.FileFunction,Copper,L3,Inr*
G04 #@! TF.FilePolarity,Positive*
%FSLAX46Y46*%
G04 Gerber Fmt 4.6, Leading zero omitted, Abs format (unit mm)*
G04 Created by KiCad (PCBNEW (7.0.0)) date 2023-05-25 13:49:03*
%MOMM*%
%LPD*%
G01*
G04 APERTURE LIST*
G04 #@! TA.AperFunction,ComponentPad*
%ADD10C,2.057400*%
G04 #@! TD*
G04 #@! TA.AperFunction,ComponentPad*
%ADD11C,0.508000*%
G04 #@! TD*
G04 #@! TA.AperFunction,ComponentPad*
%ADD12C,0.499999*%
G04 #@! TD*
G04 #@! TA.AperFunction,ComponentPad*
%ADD13O,1.000000X1.000000*%
G04 #@! TD*
G04 #@! TA.AperFunction,ComponentPad*
%ADD14R,1.000000X1.000000*%
G04 #@! TD*
G04 #@! TA.AperFunction,ComponentPad*
%ADD15O,1.600000X1.000000*%
G04 #@! TD*
G04 #@! TA.AperFunction,ComponentPad*
%ADD16O,2.100000X1.000000*%
G04 #@! TD*
G04 #@! TA.AperFunction,ViaPad*
%ADD17C,0.600000*%
G04 #@! TD*
G04 #@! TA.AperFunction,ViaPad*
%ADD18C,0.800000*%
G04 #@! TD*
G04 #@! TA.AperFunction,ViaPad*
%ADD19C,0.700000*%
G04 #@! TD*
G04 APERTURE END LIST*
D10*
X86000000Y-19596100D03*
X86000000Y-24295100D03*
X86000000Y-28994100D03*
D11*
X92556111Y-28931299D03*
X93343511Y-28931299D03*
X93343511Y-29718699D03*
X92556111Y-29718699D03*
D12*
X104396499Y-37325001D03*
X106003501Y-38846499D03*
X104396499Y-38846499D03*
X107524999Y-40453501D03*
X106003501Y-40453501D03*
X104396499Y-40453501D03*
X104396499Y-41974999D03*
X106003501Y-37325001D03*
X102875001Y-38846499D03*
X102875001Y-40453501D03*
X106003501Y-41974999D03*
X107524999Y-38846499D03*
D13*
X121629999Y-30304999D03*
X121629999Y-31574999D03*
X120359999Y-30304999D03*
X120359999Y-31574999D03*
X119089999Y-30304999D03*
X119089999Y-31574999D03*
X117819999Y-30304999D03*
X117819999Y-31574999D03*
X116549999Y-30304999D03*
D14*
X116549999Y-31574999D03*
D15*
X119874999Y-18529999D03*
D16*
X115694999Y-18529999D03*
D15*
X119874999Y-27169999D03*
D16*
X115694999Y-27169999D03*
D17*
X97000000Y-24800000D03*
X96800000Y-23400000D03*
X96400000Y-24200000D03*
X96200000Y-24900000D03*
X97100000Y-24100000D03*
X93649502Y-33000000D03*
X100800000Y-18700000D03*
X108430190Y-18300000D03*
X107580190Y-22346799D03*
X100100000Y-20699500D03*
X96100000Y-26900000D03*
X92600000Y-26800000D03*
X110299367Y-30633506D03*
X112100000Y-28500000D03*
X101700000Y-35800000D03*
X99400000Y-35300000D03*
X98700000Y-33400000D03*
X100500000Y-22500000D03*
X88300000Y-34500000D03*
X87000000Y-34409500D03*
X93000000Y-37700000D03*
X95500000Y-38400000D03*
X100835473Y-39340371D03*
X97500000Y-39000000D03*
X91200000Y-34100000D03*
X90100000Y-33100000D03*
X100900000Y-38300000D03*
X96116518Y-36525000D03*
X97748115Y-35170894D03*
X101107677Y-36525500D03*
X95200000Y-32500000D03*
X88700000Y-25600000D03*
X90400000Y-31800000D03*
X92099310Y-26000000D03*
D18*
X91800000Y-20400000D03*
X110600000Y-26800000D03*
X111600000Y-26800000D03*
X110600000Y-25900000D03*
X111600000Y-25900000D03*
X110600000Y-24900000D03*
X111600000Y-24900000D03*
X111600000Y-23900000D03*
X110600000Y-23900000D03*
X109150048Y-29449951D03*
X102000000Y-27500000D03*
X102000000Y-28400000D03*
X102000000Y-29300000D03*
X102000000Y-30200000D03*
D17*
X120900000Y-84532500D03*
X90600000Y-88432500D03*
X111900000Y-78332500D03*
X93100000Y-89632500D03*
X111200000Y-83432500D03*
X121000000Y-78432500D03*
X109200000Y-79732500D03*
X95800000Y-74632500D03*
X102600000Y-79632500D03*
X97000000Y-88432500D03*
X90800000Y-84532500D03*
X108500000Y-84632500D03*
X106200000Y-78332500D03*
X92400000Y-73332500D03*
X94300000Y-83432500D03*
X83900000Y-84732500D03*
X105600000Y-83432500D03*
X83700000Y-73332500D03*
X102900000Y-74532500D03*
X87500000Y-83432500D03*
X119700000Y-81532500D03*
X97200000Y-84732500D03*
X99900000Y-73332500D03*
X101800000Y-66432500D03*
X116900000Y-83432500D03*
X83700000Y-79732500D03*
X95600000Y-79732500D03*
X83900000Y-89232500D03*
X86900000Y-89732500D03*
X88500000Y-79632500D03*
X89300000Y-74632500D03*
X118700000Y-79632500D03*
X103000000Y-69332500D03*
X101800000Y-72032500D03*
X83700000Y-77032500D03*
X102800000Y-84632500D03*
X114600000Y-84632500D03*
X114500000Y-79732500D03*
X85000000Y-86832500D03*
X117400000Y-78432500D03*
X86000000Y-78432500D03*
X84700000Y-75032500D03*
X91700000Y-78432500D03*
X100500000Y-89732500D03*
X100200000Y-83432500D03*
X86900000Y-73432500D03*
X99200000Y-78332500D03*
X83500000Y-48650000D03*
D19*
X99250000Y-46450000D03*
D18*
X120450000Y-33700000D03*
D17*
X93600000Y-43250000D03*
X93900000Y-57150000D03*
X84200000Y-51300000D03*
X113711515Y-18105387D03*
X99500000Y-56950000D03*
X92500000Y-52250000D03*
D19*
X98450000Y-38450000D03*
D17*
X88300000Y-55450000D03*
D19*
X112729962Y-47808742D03*
D18*
X113950000Y-26700000D03*
D17*
X121550000Y-20350000D03*
X95500000Y-53400000D03*
X95300000Y-48800000D03*
X122200000Y-51850000D03*
X86200000Y-51400000D03*
X118000000Y-45200000D03*
X121600000Y-60950000D03*
X122300000Y-46200000D03*
X89150000Y-51600000D03*
X105300000Y-60450000D03*
X94750000Y-45950000D03*
X83500000Y-44850000D03*
X98200000Y-51650000D03*
D18*
X115200000Y-37450000D03*
D17*
X85000000Y-53200000D03*
X98300000Y-46950000D03*
D18*
X116025000Y-50875000D03*
D17*
X121550000Y-24350000D03*
X86300000Y-38250000D03*
X114500000Y-60250000D03*
D18*
X111700000Y-29950000D03*
D17*
X85400000Y-57550000D03*
X89600000Y-59850000D03*
X121000000Y-52950000D03*
X117700000Y-60650000D03*
X94900000Y-60050000D03*
X105000000Y-50200000D03*
D18*
X117200000Y-39200000D03*
D17*
X97600000Y-60150000D03*
D19*
X103700000Y-49200000D03*
D17*
X114900000Y-58050000D03*
D18*
X117200000Y-37450000D03*
D17*
X106900000Y-52950000D03*
X109950000Y-51600000D03*
D19*
X104700000Y-53650000D03*
D17*
X109950000Y-34700000D03*
X91350000Y-48750000D03*
X112300000Y-58450000D03*
X111000000Y-44050000D03*
X83400000Y-59850000D03*
X118300000Y-20900000D03*
X118400000Y-25400000D03*
X105900000Y-54600000D03*
X106100000Y-58450000D03*
X88600000Y-49000000D03*
D18*
X115200000Y-39200000D03*
D17*
X88600000Y-46050000D03*
X109850000Y-53750000D03*
X85500000Y-47200000D03*
X90200000Y-39500000D03*
X84700000Y-39950000D03*
X110600000Y-60550000D03*
X108800000Y-58050000D03*
X122000000Y-59150000D03*
X119650000Y-51600000D03*
D19*
X100450000Y-51200000D03*
D17*
X121900000Y-53850000D03*
D18*
X99950000Y-38200000D03*
D17*
X111158411Y-37208411D03*
X112300000Y-39650000D03*
D18*
X112200000Y-42450000D03*
D17*
X116000000Y-34250000D03*
D18*
X118450000Y-48950000D03*
X120200000Y-42950000D03*
D17*
X108450000Y-45950000D03*
X105200451Y-45424500D03*
D18*
X113900000Y-25250000D03*
X113955000Y-20300000D03*
D17*
X100880000Y-43170000D03*
X107000000Y-32397502D03*
X100658411Y-40791589D03*
X115500000Y-45950000D03*
X110100000Y-45850000D03*
X108400000Y-44050000D03*
X119700000Y-47550000D03*
X113100000Y-52750000D03*
D18*
X101200000Y-31750000D03*
D17*
X114424156Y-32825500D03*
D18*
X104500000Y-33147002D03*
X114950000Y-30700000D03*
X113437701Y-33962299D03*
D17*
X108325501Y-35700000D03*
X111450000Y-32397502D03*
X110650497Y-32397502D03*
X107583099Y-35403277D03*
X110423339Y-31423339D03*
X106784108Y-35431875D03*
D18*
X116600000Y-23750000D03*
D17*
X120200000Y-38700000D03*
X119875734Y-37849500D03*
D18*
X116800000Y-22650000D03*
D17*
X112912254Y-48638453D03*
X105500000Y-35400000D03*
X98200000Y-44250000D03*
D18*
X107450000Y-43950000D03*
D17*
X110700000Y-41650000D03*
X115700000Y-44950000D03*
X116700000Y-48150000D03*
X110200000Y-40850000D03*
X109414683Y-40700062D03*
X113500000Y-47450000D03*
X113858420Y-27675500D03*
X119400000Y-35200000D03*
X112099500Y-40550000D03*
X110958728Y-39843088D03*
X109614558Y-38857499D03*
X112099500Y-38577378D03*
D18*
X112700000Y-18100000D03*
X118650000Y-36000000D03*
D17*
X111483531Y-34933531D03*
X110833531Y-35583531D03*
X112600000Y-36650000D03*
X102849810Y-18124500D03*
X110186629Y-40050609D03*
G04 #@! TA.AperFunction,Conductor*
G36*
X102426324Y-17216413D02*
G01*
X102472307Y-17261375D01*
X102490110Y-17323173D01*
X102475097Y-17385707D01*
X102431178Y-17432687D01*
X102348524Y-17484621D01*
X102348517Y-17484626D01*
X102342529Y-17488389D01*
X102337524Y-17493393D01*
X102337520Y-17493397D01*
X102218707Y-17612210D01*
X102218703Y-17612214D01*
X102213699Y-17617219D01*
X102209936Y-17623207D01*
X102209931Y-17623214D01*
X102120531Y-17765493D01*
X102120527Y-17765500D01*
X102116767Y-17771485D01*
X102114432Y-17778156D01*
X102114429Y-17778164D01*
X102058929Y-17936775D01*
X102058927Y-17936780D01*
X102056593Y-17943453D01*
X102055801Y-17950479D01*
X102055801Y-17950481D01*
X102053293Y-17972738D01*
X102036194Y-18124500D01*
X102056593Y-18305547D01*
X102058928Y-18312220D01*
X102058929Y-18312224D01*
X102114429Y-18470835D01*
X102114431Y-18470839D01*
X102116767Y-18477515D01*
X102213699Y-18631781D01*
X102342529Y-18760611D01*
X102348523Y-18764377D01*
X102348524Y-18764378D01*
X102377761Y-18782749D01*
X102496795Y-18857543D01*
X102668763Y-18917717D01*
X102849810Y-18938116D01*
X103030857Y-18917717D01*
X103202825Y-18857543D01*
X103357091Y-18760611D01*
X103485921Y-18631781D01*
X103582853Y-18477515D01*
X103643027Y-18305547D01*
X103663426Y-18124500D01*
X103643027Y-17943453D01*
X103582853Y-17771485D01*
X103559757Y-17734728D01*
X103489688Y-17623214D01*
X103489687Y-17623213D01*
X103485921Y-17617219D01*
X103357091Y-17488389D01*
X103351097Y-17484623D01*
X103351095Y-17484621D01*
X103268442Y-17432687D01*
X103224523Y-17385707D01*
X103209510Y-17323173D01*
X103227313Y-17261375D01*
X103273296Y-17216413D01*
X103335478Y-17200000D01*
X112007132Y-17200000D01*
X112065507Y-17214338D01*
X112110596Y-17254090D01*
X112132138Y-17310207D01*
X112125230Y-17369919D01*
X112092062Y-17418725D01*
X112088747Y-17421134D01*
X112084325Y-17426044D01*
X112084325Y-17426045D01*
X111983176Y-17538383D01*
X111960960Y-17563056D01*
X111957661Y-17568769D01*
X111957658Y-17568774D01*
X111890611Y-17684904D01*
X111865473Y-17728444D01*
X111863434Y-17734718D01*
X111863430Y-17734728D01*
X111808497Y-17903794D01*
X111808495Y-17903801D01*
X111806458Y-17910072D01*
X111805768Y-17916633D01*
X111805768Y-17916635D01*
X111789361Y-18072742D01*
X111786496Y-18100000D01*
X111787186Y-18106565D01*
X111804625Y-18272493D01*
X111806458Y-18289928D01*
X111808495Y-18296200D01*
X111808497Y-18296205D01*
X111863430Y-18465271D01*
X111863433Y-18465278D01*
X111865473Y-18471556D01*
X111960960Y-18636944D01*
X112088747Y-18778866D01*
X112094089Y-18782747D01*
X112094091Y-18782749D01*
X112118647Y-18800590D01*
X112243248Y-18891118D01*
X112417712Y-18968794D01*
X112604513Y-19008500D01*
X112788884Y-19008500D01*
X112795487Y-19008500D01*
X112982288Y-18968794D01*
X113156752Y-18891118D01*
X113311253Y-18778866D01*
X113439040Y-18636944D01*
X113534527Y-18471556D01*
X113593542Y-18289928D01*
X113595285Y-18273345D01*
X114172272Y-18273345D01*
X114183448Y-18276000D01*
X115424410Y-18276000D01*
X115437493Y-18272493D01*
X115441000Y-18259410D01*
X115949000Y-18259410D01*
X115952506Y-18272493D01*
X115965590Y-18276000D01*
X117206552Y-18276000D01*
X117217727Y-18273345D01*
X118602272Y-18273345D01*
X118613448Y-18276000D01*
X119604410Y-18276000D01*
X119617493Y-18272493D01*
X119621000Y-18259410D01*
X120129000Y-18259410D01*
X120132506Y-18272493D01*
X120145590Y-18276000D01*
X121136552Y-18276000D01*
X121147727Y-18273345D01*
X121147022Y-18261877D01*
X121112573Y-18148313D01*
X121107858Y-18136930D01*
X121020095Y-17972738D01*
X121013244Y-17962485D01*
X120895138Y-17818572D01*
X120886427Y-17809861D01*
X120742514Y-17691755D01*
X120732261Y-17684904D01*
X120568069Y-17597141D01*
X120556686Y-17592426D01*
X120378531Y-17538383D01*
X120366437Y-17535977D01*
X120227598Y-17522303D01*
X120221426Y-17522000D01*
X120145590Y-17522000D01*
X120132506Y-17525506D01*
X120129000Y-17538590D01*
X120129000Y-18259410D01*
X119621000Y-18259410D01*
X119621000Y-17538590D01*
X119617493Y-17525506D01*
X119604410Y-17522000D01*
X119528574Y-17522000D01*
X119522401Y-17522303D01*
X119383562Y-17535977D01*
X119371468Y-17538383D01*
X119193313Y-17592426D01*
X119181930Y-17597141D01*
X119017738Y-17684904D01*
X119007485Y-17691755D01*
X118863572Y-17809861D01*
X118854861Y-17818572D01*
X118736755Y-17962485D01*
X118729904Y-17972738D01*
X118642141Y-18136930D01*
X118637426Y-18148313D01*
X118602977Y-18261877D01*
X118602272Y-18273345D01*
X117217727Y-18273345D01*
X117217022Y-18261877D01*
X117182573Y-18148313D01*
X117177858Y-18136930D01*
X117090095Y-17972738D01*
X117083244Y-17962485D01*
X116965138Y-17818572D01*
X116956427Y-17809861D01*
X116812514Y-17691755D01*
X116802261Y-17684904D01*
X116638069Y-17597141D01*
X116626686Y-17592426D01*
X116448531Y-17538383D01*
X116436437Y-17535977D01*
X116297598Y-17522303D01*
X116291426Y-17522000D01*
X115965590Y-17522000D01*
X115952506Y-17525506D01*
X115949000Y-17538590D01*
X115949000Y-18259410D01*
X115441000Y-18259410D01*
X115441000Y-17538590D01*
X115437493Y-17525506D01*
X115424410Y-17522000D01*
X115098574Y-17522000D01*
X115092401Y-17522303D01*
X114953562Y-17535977D01*
X114941468Y-17538383D01*
X114763313Y-17592426D01*
X114751930Y-17597141D01*
X114587738Y-17684904D01*
X114577485Y-17691755D01*
X114433572Y-17809861D01*
X114424861Y-17818572D01*
X114306755Y-17962485D01*
X114299904Y-17972738D01*
X114212141Y-18136930D01*
X114207426Y-18148313D01*
X114172977Y-18261877D01*
X114172272Y-18273345D01*
X113595285Y-18273345D01*
X113613504Y-18100000D01*
X113593542Y-17910072D01*
X113534527Y-17728444D01*
X113439040Y-17563056D01*
X113311253Y-17421134D01*
X113307937Y-17418725D01*
X113274770Y-17369919D01*
X113267862Y-17310207D01*
X113289404Y-17254090D01*
X113334493Y-17214338D01*
X113392868Y-17200000D01*
X122974030Y-17200000D01*
X123037021Y-17216876D01*
X123083139Y-17262983D01*
X123100029Y-17325968D01*
X123104920Y-38059006D01*
X123111029Y-63962622D01*
X123094184Y-64025591D01*
X123048126Y-64071715D01*
X122985182Y-64088652D01*
X82137182Y-64138345D01*
X82074126Y-64121520D01*
X82027945Y-64075406D01*
X82011029Y-64012375D01*
X82011017Y-63962622D01*
X82008376Y-52750000D01*
X112286384Y-52750000D01*
X112306783Y-52931047D01*
X112309118Y-52937720D01*
X112309119Y-52937724D01*
X112364619Y-53096335D01*
X112364621Y-53096339D01*
X112366957Y-53103015D01*
X112463889Y-53257281D01*
X112592719Y-53386111D01*
X112746985Y-53483043D01*
X112918953Y-53543217D01*
X113100000Y-53563616D01*
X113281047Y-53543217D01*
X113453015Y-53483043D01*
X113607281Y-53386111D01*
X113736111Y-53257281D01*
X113833043Y-53103015D01*
X113893217Y-52931047D01*
X113913616Y-52750000D01*
X113893217Y-52568953D01*
X113833043Y-52396985D01*
X113736111Y-52242719D01*
X113607281Y-52113889D01*
X113601287Y-52110123D01*
X113601285Y-52110121D01*
X113459006Y-52020721D01*
X113459003Y-52020719D01*
X113453015Y-52016957D01*
X113446339Y-52014621D01*
X113446335Y-52014619D01*
X113287724Y-51959119D01*
X113287720Y-51959118D01*
X113281047Y-51956783D01*
X113100000Y-51936384D01*
X113092971Y-51937176D01*
X112925981Y-51955991D01*
X112925979Y-51955991D01*
X112918953Y-51956783D01*
X112912280Y-51959117D01*
X112912275Y-51959119D01*
X112753664Y-52014619D01*
X112753656Y-52014622D01*
X112746985Y-52016957D01*
X112741000Y-52020717D01*
X112740993Y-52020721D01*
X112598714Y-52110121D01*
X112598707Y-52110126D01*
X112592719Y-52113889D01*
X112587714Y-52118893D01*
X112587710Y-52118897D01*
X112468897Y-52237710D01*
X112468893Y-52237714D01*
X112463889Y-52242719D01*
X112460126Y-52248707D01*
X112460121Y-52248714D01*
X112370721Y-52390993D01*
X112370717Y-52391000D01*
X112366957Y-52396985D01*
X112364622Y-52403656D01*
X112364619Y-52403664D01*
X112309119Y-52562275D01*
X112309117Y-52562280D01*
X112306783Y-52568953D01*
X112286384Y-52750000D01*
X82008376Y-52750000D01*
X82007407Y-48638453D01*
X112098638Y-48638453D01*
X112119037Y-48819500D01*
X112121372Y-48826173D01*
X112121373Y-48826177D01*
X112176873Y-48984788D01*
X112176875Y-48984792D01*
X112179211Y-48991468D01*
X112276143Y-49145734D01*
X112404973Y-49274564D01*
X112559239Y-49371496D01*
X112731207Y-49431670D01*
X112912254Y-49452069D01*
X113093301Y-49431670D01*
X113265269Y-49371496D01*
X113419535Y-49274564D01*
X113548365Y-49145734D01*
X113645297Y-48991468D01*
X113705471Y-48819500D01*
X113725870Y-48638453D01*
X113705471Y-48457406D01*
X113677648Y-48377894D01*
X113672775Y-48312856D01*
X113701074Y-48254092D01*
X113754959Y-48217353D01*
X113853015Y-48183043D01*
X113905602Y-48150000D01*
X115886384Y-48150000D01*
X115906783Y-48331047D01*
X115909118Y-48337720D01*
X115909119Y-48337724D01*
X115964619Y-48496335D01*
X115964621Y-48496339D01*
X115966957Y-48503015D01*
X115970719Y-48509003D01*
X115970721Y-48509006D01*
X116052058Y-48638453D01*
X116063889Y-48657281D01*
X116192719Y-48786111D01*
X116198713Y-48789877D01*
X116198714Y-48789878D01*
X116340993Y-48879278D01*
X116346985Y-48883043D01*
X116518953Y-48943217D01*
X116700000Y-48963616D01*
X116881047Y-48943217D01*
X117053015Y-48883043D01*
X117207281Y-48786111D01*
X117336111Y-48657281D01*
X117336876Y-48656062D01*
X117388827Y-48618196D01*
X117455208Y-48611917D01*
X117515498Y-48640394D01*
X117552815Y-48695651D01*
X117556562Y-48759749D01*
X117556458Y-48760072D01*
X117555769Y-48766625D01*
X117555768Y-48766631D01*
X117549510Y-48826177D01*
X117536496Y-48950000D01*
X117556458Y-49139928D01*
X117558495Y-49146200D01*
X117558497Y-49146205D01*
X117613430Y-49315271D01*
X117613433Y-49315278D01*
X117615473Y-49321556D01*
X117710960Y-49486944D01*
X117838747Y-49628866D01*
X117993248Y-49741118D01*
X118167712Y-49818794D01*
X118354513Y-49858500D01*
X118538884Y-49858500D01*
X118545487Y-49858500D01*
X118732288Y-49818794D01*
X118906752Y-49741118D01*
X119061253Y-49628866D01*
X119189040Y-49486944D01*
X119284527Y-49321556D01*
X119343542Y-49139928D01*
X119363504Y-48950000D01*
X119343542Y-48760072D01*
X119284527Y-48578444D01*
X119224775Y-48474951D01*
X119207983Y-48416665D01*
X119220373Y-48357284D01*
X119259074Y-48310574D01*
X119315116Y-48287360D01*
X119375508Y-48293023D01*
X119518953Y-48343217D01*
X119700000Y-48363616D01*
X119881047Y-48343217D01*
X120053015Y-48283043D01*
X120207281Y-48186111D01*
X120336111Y-48057281D01*
X120433043Y-47903015D01*
X120493217Y-47731047D01*
X120513616Y-47550000D01*
X120493217Y-47368953D01*
X120433043Y-47196985D01*
X120336111Y-47042719D01*
X120207281Y-46913889D01*
X120201287Y-46910123D01*
X120201285Y-46910121D01*
X120059006Y-46820721D01*
X120059003Y-46820719D01*
X120053015Y-46816957D01*
X120046339Y-46814621D01*
X120046335Y-46814619D01*
X119887724Y-46759119D01*
X119887720Y-46759118D01*
X119881047Y-46756783D01*
X119700000Y-46736384D01*
X119692971Y-46737176D01*
X119525981Y-46755991D01*
X119525979Y-46755991D01*
X119518953Y-46756783D01*
X119512280Y-46759117D01*
X119512275Y-46759119D01*
X119353664Y-46814619D01*
X119353656Y-46814622D01*
X119346985Y-46816957D01*
X119341000Y-46820717D01*
X119340993Y-46820721D01*
X119198714Y-46910121D01*
X119198707Y-46910126D01*
X119192719Y-46913889D01*
X119187714Y-46918893D01*
X119187710Y-46918897D01*
X119068897Y-47037710D01*
X119068893Y-47037714D01*
X119063889Y-47042719D01*
X119060126Y-47048707D01*
X119060121Y-47048714D01*
X118970721Y-47190993D01*
X118970717Y-47191000D01*
X118966957Y-47196985D01*
X118964622Y-47203656D01*
X118964619Y-47203664D01*
X118909119Y-47362275D01*
X118909117Y-47362280D01*
X118906783Y-47368953D01*
X118886384Y-47550000D01*
X118906783Y-47731047D01*
X118909118Y-47737720D01*
X118909119Y-47737724D01*
X118964619Y-47896335D01*
X118964621Y-47896339D01*
X118966957Y-47903015D01*
X118970719Y-47909002D01*
X118970720Y-47909004D01*
X118993314Y-47944962D01*
X119012463Y-48005592D01*
X118999569Y-48067853D01*
X118957915Y-48115890D01*
X118898108Y-48137473D01*
X118835377Y-48127104D01*
X118732288Y-48081206D01*
X118725835Y-48079834D01*
X118725831Y-48079833D01*
X118551943Y-48042872D01*
X118551940Y-48042871D01*
X118545487Y-48041500D01*
X118354513Y-48041500D01*
X118348060Y-48042871D01*
X118348056Y-48042872D01*
X118174168Y-48079833D01*
X118174161Y-48079835D01*
X118167712Y-48081206D01*
X118161682Y-48083890D01*
X118161681Y-48083891D01*
X117999278Y-48156197D01*
X117999275Y-48156198D01*
X117993248Y-48158882D01*
X117987907Y-48162762D01*
X117987906Y-48162763D01*
X117844091Y-48267250D01*
X117844083Y-48267256D01*
X117838747Y-48271134D01*
X117834332Y-48276037D01*
X117834329Y-48276040D01*
X117714331Y-48409312D01*
X117661954Y-48444054D01*
X117599310Y-48449173D01*
X117541988Y-48423394D01*
X117504250Y-48373132D01*
X117495487Y-48310896D01*
X117513616Y-48150000D01*
X117493217Y-47968953D01*
X117433043Y-47796985D01*
X117336111Y-47642719D01*
X117207281Y-47513889D01*
X117201287Y-47510123D01*
X117201285Y-47510121D01*
X117059006Y-47420721D01*
X117059003Y-47420719D01*
X117053015Y-47416957D01*
X117046339Y-47414621D01*
X117046335Y-47414619D01*
X116887724Y-47359119D01*
X116887720Y-47359118D01*
X116881047Y-47356783D01*
X116700000Y-47336384D01*
X116692971Y-47337176D01*
X116525981Y-47355991D01*
X116525979Y-47355991D01*
X116518953Y-47356783D01*
X116512280Y-47359117D01*
X116512275Y-47359119D01*
X116353664Y-47414619D01*
X116353656Y-47414622D01*
X116346985Y-47416957D01*
X116341000Y-47420717D01*
X116340993Y-47420721D01*
X116198714Y-47510121D01*
X116198707Y-47510126D01*
X116192719Y-47513889D01*
X116187714Y-47518893D01*
X116187710Y-47518897D01*
X116068897Y-47637710D01*
X116068893Y-47637714D01*
X116063889Y-47642719D01*
X116060126Y-47648707D01*
X116060121Y-47648714D01*
X115970721Y-47790993D01*
X115970717Y-47791000D01*
X115966957Y-47796985D01*
X115964622Y-47803656D01*
X115964619Y-47803664D01*
X115909119Y-47962275D01*
X115909117Y-47962280D01*
X115906783Y-47968953D01*
X115905991Y-47975979D01*
X115905991Y-47975981D01*
X115893158Y-48089878D01*
X115886384Y-48150000D01*
X113905602Y-48150000D01*
X114007281Y-48086111D01*
X114136111Y-47957281D01*
X114233043Y-47803015D01*
X114293217Y-47631047D01*
X114313616Y-47450000D01*
X114293217Y-47268953D01*
X114233043Y-47096985D01*
X114136111Y-46942719D01*
X114007281Y-46813889D01*
X114001287Y-46810123D01*
X114001285Y-46810121D01*
X113859006Y-46720721D01*
X113859003Y-46720719D01*
X113853015Y-46716957D01*
X113846339Y-46714621D01*
X113846335Y-46714619D01*
X113687724Y-46659119D01*
X113687720Y-46659118D01*
X113681047Y-46656783D01*
X113500000Y-46636384D01*
X113492971Y-46637176D01*
X113325981Y-46655991D01*
X113325979Y-46655991D01*
X113318953Y-46656783D01*
X113312280Y-46659117D01*
X113312275Y-46659119D01*
X113153664Y-46714619D01*
X113153656Y-46714622D01*
X113146985Y-46716957D01*
X113141000Y-46720717D01*
X113140993Y-46720721D01*
X112998714Y-46810121D01*
X112998707Y-46810126D01*
X112992719Y-46813889D01*
X112987714Y-46818893D01*
X112987710Y-46818897D01*
X112868897Y-46937710D01*
X112868893Y-46937714D01*
X112863889Y-46942719D01*
X112860126Y-46948707D01*
X112860121Y-46948714D01*
X112770721Y-47090993D01*
X112770717Y-47091000D01*
X112766957Y-47096985D01*
X112764622Y-47103656D01*
X112764619Y-47103664D01*
X112709119Y-47262275D01*
X112709117Y-47262280D01*
X112706783Y-47268953D01*
X112686384Y-47450000D01*
X112706783Y-47631047D01*
X112709118Y-47637720D01*
X112709119Y-47637724D01*
X112734604Y-47710556D01*
X112739478Y-47775596D01*
X112711180Y-47834359D01*
X112657291Y-47871100D01*
X112565916Y-47903073D01*
X112565911Y-47903075D01*
X112559239Y-47905410D01*
X112553254Y-47909170D01*
X112553247Y-47909174D01*
X112410968Y-47998574D01*
X112410961Y-47998579D01*
X112404973Y-48002342D01*
X112399968Y-48007346D01*
X112399964Y-48007350D01*
X112281151Y-48126163D01*
X112281147Y-48126167D01*
X112276143Y-48131172D01*
X112272380Y-48137160D01*
X112272375Y-48137167D01*
X112182975Y-48279446D01*
X112182971Y-48279453D01*
X112179211Y-48285438D01*
X112176876Y-48292109D01*
X112176873Y-48292117D01*
X112121373Y-48450728D01*
X112121371Y-48450733D01*
X112119037Y-48457406D01*
X112098638Y-48638453D01*
X82007407Y-48638453D01*
X82006650Y-45424500D01*
X104386835Y-45424500D01*
X104407234Y-45605547D01*
X104409569Y-45612220D01*
X104409570Y-45612224D01*
X104465070Y-45770835D01*
X104465072Y-45770839D01*
X104467408Y-45777515D01*
X104471170Y-45783503D01*
X104471172Y-45783506D01*
X104508536Y-45842971D01*
X104564340Y-45931781D01*
X104693170Y-46060611D01*
X104847436Y-46157543D01*
X105019404Y-46217717D01*
X105200451Y-46238116D01*
X105381498Y-46217717D01*
X105553466Y-46157543D01*
X105707732Y-46060611D01*
X105818343Y-45950000D01*
X107636384Y-45950000D01*
X107656783Y-46131047D01*
X107659118Y-46137720D01*
X107659119Y-46137724D01*
X107714619Y-46296335D01*
X107714621Y-46296339D01*
X107716957Y-46303015D01*
X107720719Y-46309003D01*
X107720721Y-46309006D01*
X107751054Y-46357281D01*
X107813889Y-46457281D01*
X107942719Y-46586111D01*
X107948713Y-46589877D01*
X107948714Y-46589878D01*
X108058910Y-46659119D01*
X108096985Y-46683043D01*
X108268953Y-46743217D01*
X108450000Y-46763616D01*
X108631047Y-46743217D01*
X108803015Y-46683043D01*
X108957281Y-46586111D01*
X109086111Y-46457281D01*
X109183043Y-46303015D01*
X109185380Y-46296334D01*
X109188450Y-46289961D01*
X109189911Y-46290664D01*
X109225252Y-46240850D01*
X109289704Y-46214149D01*
X109358484Y-46225833D01*
X109410504Y-46272320D01*
X109433555Y-46309006D01*
X109463889Y-46357281D01*
X109592719Y-46486111D01*
X109746985Y-46583043D01*
X109918953Y-46643217D01*
X110100000Y-46663616D01*
X110281047Y-46643217D01*
X110453015Y-46583043D01*
X110607281Y-46486111D01*
X110736111Y-46357281D01*
X110833043Y-46203015D01*
X110893217Y-46031047D01*
X110902349Y-45950000D01*
X114686384Y-45950000D01*
X114706783Y-46131047D01*
X114709118Y-46137720D01*
X114709119Y-46137724D01*
X114764619Y-46296335D01*
X114764621Y-46296339D01*
X114766957Y-46303015D01*
X114770719Y-46309003D01*
X114770721Y-46309006D01*
X114801054Y-46357281D01*
X114863889Y-46457281D01*
X114992719Y-46586111D01*
X114998713Y-46589877D01*
X114998714Y-46589878D01*
X115108910Y-46659119D01*
X115146985Y-46683043D01*
X115318953Y-46743217D01*
X115500000Y-46763616D01*
X115681047Y-46743217D01*
X115853015Y-46683043D01*
X116007281Y-46586111D01*
X116136111Y-46457281D01*
X116233043Y-46303015D01*
X116293217Y-46131047D01*
X116313616Y-45950000D01*
X116293217Y-45768953D01*
X116249693Y-45644570D01*
X116245782Y-45574920D01*
X116279527Y-45513864D01*
X116336111Y-45457281D01*
X116433043Y-45303015D01*
X116493217Y-45131047D01*
X116513616Y-44950000D01*
X116493217Y-44768953D01*
X116433043Y-44596985D01*
X116366983Y-44491851D01*
X116339878Y-44448714D01*
X116339877Y-44448713D01*
X116336111Y-44442719D01*
X116207281Y-44313889D01*
X116201287Y-44310123D01*
X116201285Y-44310121D01*
X116059006Y-44220721D01*
X116059003Y-44220719D01*
X116053015Y-44216957D01*
X116046339Y-44214621D01*
X116046335Y-44214619D01*
X115887724Y-44159119D01*
X115887720Y-44159118D01*
X115881047Y-44156783D01*
X115700000Y-44136384D01*
X115692971Y-44137176D01*
X115525981Y-44155991D01*
X115525979Y-44155991D01*
X115518953Y-44156783D01*
X115512280Y-44159117D01*
X115512275Y-44159119D01*
X115353664Y-44214619D01*
X115353656Y-44214622D01*
X115346985Y-44216957D01*
X115341000Y-44220717D01*
X115340993Y-44220721D01*
X115198714Y-44310121D01*
X115198707Y-44310126D01*
X115192719Y-44313889D01*
X115187714Y-44318893D01*
X115187710Y-44318897D01*
X115068897Y-44437710D01*
X115068893Y-44437714D01*
X115063889Y-44442719D01*
X115060126Y-44448707D01*
X115060121Y-44448714D01*
X114970721Y-44590993D01*
X114970717Y-44591000D01*
X114966957Y-44596985D01*
X114964622Y-44603656D01*
X114964619Y-44603664D01*
X114909119Y-44762275D01*
X114909117Y-44762280D01*
X114906783Y-44768953D01*
X114905991Y-44775979D01*
X114905991Y-44775981D01*
X114893158Y-44889878D01*
X114886384Y-44950000D01*
X114906783Y-45131047D01*
X114948575Y-45250481D01*
X114950305Y-45255425D01*
X114954216Y-45325077D01*
X114920472Y-45386134D01*
X114868892Y-45437715D01*
X114868888Y-45437719D01*
X114863889Y-45442719D01*
X114860126Y-45448706D01*
X114860124Y-45448710D01*
X114770721Y-45590993D01*
X114770717Y-45591000D01*
X114766957Y-45596985D01*
X114764622Y-45603656D01*
X114764619Y-45603664D01*
X114709119Y-45762275D01*
X114709117Y-45762280D01*
X114706783Y-45768953D01*
X114686384Y-45950000D01*
X110902349Y-45950000D01*
X110913616Y-45850000D01*
X110893217Y-45668953D01*
X110833043Y-45496985D01*
X110736111Y-45342719D01*
X110607281Y-45213889D01*
X110601287Y-45210123D01*
X110601285Y-45210121D01*
X110459006Y-45120721D01*
X110459003Y-45120719D01*
X110453015Y-45116957D01*
X110446339Y-45114621D01*
X110446335Y-45114619D01*
X110287724Y-45059119D01*
X110287720Y-45059118D01*
X110281047Y-45056783D01*
X110100000Y-45036384D01*
X110092971Y-45037176D01*
X109925981Y-45055991D01*
X109925979Y-45055991D01*
X109918953Y-45056783D01*
X109912280Y-45059117D01*
X109912275Y-45059119D01*
X109753664Y-45114619D01*
X109753656Y-45114622D01*
X109746985Y-45116957D01*
X109741000Y-45120717D01*
X109740993Y-45120721D01*
X109598714Y-45210121D01*
X109598707Y-45210126D01*
X109592719Y-45213889D01*
X109587714Y-45218893D01*
X109587710Y-45218897D01*
X109468897Y-45337710D01*
X109468893Y-45337714D01*
X109463889Y-45342719D01*
X109460126Y-45348707D01*
X109460121Y-45348714D01*
X109370721Y-45490993D01*
X109370717Y-45491000D01*
X109366957Y-45496985D01*
X109364620Y-45503662D01*
X109361550Y-45510039D01*
X109360093Y-45509337D01*
X109324731Y-45559163D01*
X109260280Y-45585852D01*
X109191508Y-45574163D01*
X109139495Y-45527679D01*
X109089878Y-45448714D01*
X109089875Y-45448710D01*
X109086111Y-45442719D01*
X108957281Y-45313889D01*
X108951287Y-45310123D01*
X108951285Y-45310121D01*
X108809006Y-45220721D01*
X108809003Y-45220719D01*
X108803015Y-45216957D01*
X108796339Y-45214621D01*
X108796335Y-45214619D01*
X108637724Y-45159119D01*
X108637720Y-45159118D01*
X108631047Y-45156783D01*
X108450000Y-45136384D01*
X108442971Y-45137176D01*
X108275981Y-45155991D01*
X108275979Y-45155991D01*
X108268953Y-45156783D01*
X108262280Y-45159117D01*
X108262275Y-45159119D01*
X108103664Y-45214619D01*
X108103656Y-45214622D01*
X108096985Y-45216957D01*
X108091000Y-45220717D01*
X108090993Y-45220721D01*
X107948714Y-45310121D01*
X107948707Y-45310126D01*
X107942719Y-45313889D01*
X107937714Y-45318893D01*
X107937710Y-45318897D01*
X107818897Y-45437710D01*
X107818893Y-45437714D01*
X107813889Y-45442719D01*
X107810126Y-45448707D01*
X107810121Y-45448714D01*
X107720721Y-45590993D01*
X107720717Y-45591000D01*
X107716957Y-45596985D01*
X107714622Y-45603656D01*
X107714619Y-45603664D01*
X107659119Y-45762275D01*
X107659117Y-45762280D01*
X107656783Y-45768953D01*
X107636384Y-45950000D01*
X105818343Y-45950000D01*
X105836562Y-45931781D01*
X105933494Y-45777515D01*
X105993668Y-45605547D01*
X106014067Y-45424500D01*
X105993668Y-45243453D01*
X105933494Y-45071485D01*
X105836562Y-44917219D01*
X105707732Y-44788389D01*
X105701738Y-44784623D01*
X105701736Y-44784621D01*
X105559457Y-44695221D01*
X105559454Y-44695219D01*
X105553466Y-44691457D01*
X105546790Y-44689121D01*
X105546786Y-44689119D01*
X105388175Y-44633619D01*
X105388171Y-44633618D01*
X105381498Y-44631283D01*
X105360046Y-44628866D01*
X105207480Y-44611676D01*
X105200451Y-44610884D01*
X105193422Y-44611676D01*
X105026432Y-44630491D01*
X105026430Y-44630491D01*
X105019404Y-44631283D01*
X105012731Y-44633617D01*
X105012726Y-44633619D01*
X104854115Y-44689119D01*
X104854107Y-44689122D01*
X104847436Y-44691457D01*
X104841451Y-44695217D01*
X104841444Y-44695221D01*
X104699165Y-44784621D01*
X104699158Y-44784626D01*
X104693170Y-44788389D01*
X104688165Y-44793393D01*
X104688161Y-44793397D01*
X104569348Y-44912210D01*
X104569344Y-44912214D01*
X104564340Y-44917219D01*
X104560577Y-44923207D01*
X104560572Y-44923214D01*
X104471172Y-45065493D01*
X104471168Y-45065500D01*
X104467408Y-45071485D01*
X104465073Y-45078156D01*
X104465070Y-45078164D01*
X104409570Y-45236775D01*
X104409568Y-45236780D01*
X104407234Y-45243453D01*
X104406442Y-45250479D01*
X104406442Y-45250481D01*
X104398037Y-45325077D01*
X104386835Y-45424500D01*
X82006650Y-45424500D01*
X82006373Y-44250000D01*
X97386384Y-44250000D01*
X97406783Y-44431047D01*
X97409118Y-44437720D01*
X97409119Y-44437724D01*
X97464619Y-44596335D01*
X97464621Y-44596339D01*
X97466957Y-44603015D01*
X97470719Y-44609003D01*
X97470721Y-44609006D01*
X97558869Y-44749293D01*
X97563889Y-44757281D01*
X97692719Y-44886111D01*
X97698713Y-44889877D01*
X97698714Y-44889878D01*
X97805584Y-44957029D01*
X97846985Y-44983043D01*
X98018953Y-45043217D01*
X98200000Y-45063616D01*
X98381047Y-45043217D01*
X98553015Y-44983043D01*
X98707281Y-44886111D01*
X98836111Y-44757281D01*
X98933043Y-44603015D01*
X98993217Y-44431047D01*
X99013616Y-44250000D01*
X98993217Y-44068953D01*
X98933043Y-43896985D01*
X98908861Y-43858500D01*
X98839878Y-43748714D01*
X98839877Y-43748713D01*
X98836111Y-43742719D01*
X98707281Y-43613889D01*
X98701287Y-43610123D01*
X98701285Y-43610121D01*
X98559006Y-43520721D01*
X98559003Y-43520719D01*
X98553015Y-43516957D01*
X98546339Y-43514621D01*
X98546335Y-43514619D01*
X98387724Y-43459119D01*
X98387720Y-43459118D01*
X98381047Y-43456783D01*
X98200000Y-43436384D01*
X98192971Y-43437176D01*
X98025981Y-43455991D01*
X98025979Y-43455991D01*
X98018953Y-43456783D01*
X98012280Y-43459117D01*
X98012275Y-43459119D01*
X97853664Y-43514619D01*
X97853656Y-43514622D01*
X97846985Y-43516957D01*
X97841000Y-43520717D01*
X97840993Y-43520721D01*
X97698714Y-43610121D01*
X97698707Y-43610126D01*
X97692719Y-43613889D01*
X97687714Y-43618893D01*
X97687710Y-43618897D01*
X97568897Y-43737710D01*
X97568893Y-43737714D01*
X97563889Y-43742719D01*
X97560126Y-43748707D01*
X97560121Y-43748714D01*
X97470721Y-43890993D01*
X97470717Y-43891000D01*
X97466957Y-43896985D01*
X97464622Y-43903656D01*
X97464619Y-43903664D01*
X97409119Y-44062275D01*
X97409117Y-44062280D01*
X97406783Y-44068953D01*
X97386384Y-44250000D01*
X82006373Y-44250000D01*
X82006119Y-43170000D01*
X100066384Y-43170000D01*
X100086783Y-43351047D01*
X100089118Y-43357720D01*
X100089119Y-43357724D01*
X100144619Y-43516335D01*
X100144621Y-43516339D01*
X100146957Y-43523015D01*
X100150719Y-43529003D01*
X100150721Y-43529006D01*
X100215907Y-43632749D01*
X100243889Y-43677281D01*
X100372719Y-43806111D01*
X100526985Y-43903043D01*
X100698953Y-43963217D01*
X100880000Y-43983616D01*
X101061047Y-43963217D01*
X101098819Y-43950000D01*
X106536496Y-43950000D01*
X106537186Y-43956565D01*
X106546267Y-44042971D01*
X106556458Y-44139928D01*
X106558495Y-44146200D01*
X106558497Y-44146205D01*
X106613430Y-44315271D01*
X106613433Y-44315278D01*
X106615473Y-44321556D01*
X106710960Y-44486944D01*
X106838747Y-44628866D01*
X106844089Y-44632747D01*
X106844091Y-44632749D01*
X106887298Y-44664141D01*
X106993248Y-44741118D01*
X107167712Y-44818794D01*
X107354513Y-44858500D01*
X107538884Y-44858500D01*
X107545487Y-44858500D01*
X107732288Y-44818794D01*
X107888392Y-44749292D01*
X107948583Y-44738718D01*
X108006670Y-44757711D01*
X108046985Y-44783043D01*
X108218953Y-44843217D01*
X108400000Y-44863616D01*
X108581047Y-44843217D01*
X108753015Y-44783043D01*
X108907281Y-44686111D01*
X109036111Y-44557281D01*
X109133043Y-44403015D01*
X109193217Y-44231047D01*
X109213616Y-44050000D01*
X109193217Y-43868953D01*
X109133043Y-43696985D01*
X109036111Y-43542719D01*
X108907281Y-43413889D01*
X108901287Y-43410123D01*
X108901285Y-43410121D01*
X108759006Y-43320721D01*
X108759003Y-43320719D01*
X108753015Y-43316957D01*
X108746339Y-43314621D01*
X108746335Y-43314619D01*
X108587724Y-43259119D01*
X108587720Y-43259118D01*
X108581047Y-43256783D01*
X108400000Y-43236384D01*
X108392971Y-43237176D01*
X108225977Y-43255991D01*
X108225971Y-43255992D01*
X108218953Y-43256783D01*
X108212288Y-43259114D01*
X108212275Y-43259118D01*
X108161468Y-43276896D01*
X108101541Y-43282628D01*
X108045794Y-43259902D01*
X107931729Y-43177029D01*
X107906752Y-43158882D01*
X107732288Y-43081206D01*
X107725835Y-43079834D01*
X107725831Y-43079833D01*
X107551943Y-43042872D01*
X107551940Y-43042871D01*
X107545487Y-43041500D01*
X107354513Y-43041500D01*
X107348060Y-43042871D01*
X107348056Y-43042872D01*
X107174168Y-43079833D01*
X107174161Y-43079835D01*
X107167712Y-43081206D01*
X107161682Y-43083890D01*
X107161681Y-43083891D01*
X106999278Y-43156197D01*
X106999275Y-43156198D01*
X106993248Y-43158882D01*
X106987907Y-43162762D01*
X106987906Y-43162763D01*
X106844091Y-43267250D01*
X106844083Y-43267256D01*
X106838747Y-43271134D01*
X106834330Y-43276039D01*
X106834325Y-43276044D01*
X106760781Y-43357724D01*
X106710960Y-43413056D01*
X106707661Y-43418769D01*
X106707658Y-43418774D01*
X106618777Y-43572721D01*
X106615473Y-43578444D01*
X106613434Y-43584718D01*
X106613430Y-43584728D01*
X106558497Y-43753794D01*
X106558495Y-43753801D01*
X106556458Y-43760072D01*
X106555768Y-43766633D01*
X106555768Y-43766635D01*
X106551619Y-43806111D01*
X106536496Y-43950000D01*
X101098819Y-43950000D01*
X101233015Y-43903043D01*
X101387281Y-43806111D01*
X101516111Y-43677281D01*
X101613043Y-43523015D01*
X101673217Y-43351047D01*
X101693616Y-43170000D01*
X101673217Y-42988953D01*
X101613043Y-42816985D01*
X101516111Y-42662719D01*
X101514135Y-42660743D01*
X104067865Y-42660743D01*
X104071242Y-42664122D01*
X104072222Y-42664594D01*
X104220081Y-42716331D01*
X104233789Y-42719460D01*
X104389470Y-42737002D01*
X104403528Y-42737002D01*
X104559208Y-42719460D01*
X104572916Y-42716331D01*
X104720769Y-42664596D01*
X104721761Y-42664117D01*
X104725131Y-42660745D01*
X104725130Y-42660743D01*
X105674867Y-42660743D01*
X105678244Y-42664122D01*
X105679224Y-42664594D01*
X105827083Y-42716331D01*
X105840791Y-42719460D01*
X105996472Y-42737002D01*
X106010530Y-42737002D01*
X106166210Y-42719460D01*
X106179918Y-42716331D01*
X106327771Y-42664596D01*
X106328763Y-42664117D01*
X106332133Y-42660745D01*
X106326108Y-42651157D01*
X106015230Y-42340279D01*
X106003500Y-42333507D01*
X105991772Y-42340278D01*
X105680890Y-42651159D01*
X105674867Y-42660743D01*
X104725130Y-42660743D01*
X104719106Y-42651157D01*
X104408228Y-42340279D01*
X104396498Y-42333507D01*
X104384770Y-42340278D01*
X104073888Y-42651159D01*
X104067865Y-42660743D01*
X101514135Y-42660743D01*
X101387281Y-42533889D01*
X101381287Y-42530123D01*
X101381285Y-42530121D01*
X101239006Y-42440721D01*
X101239003Y-42440719D01*
X101233015Y-42436957D01*
X101226339Y-42434621D01*
X101226335Y-42434619D01*
X101067724Y-42379119D01*
X101067720Y-42379118D01*
X101061047Y-42376783D01*
X100880000Y-42356384D01*
X100872971Y-42357176D01*
X100705981Y-42375991D01*
X100705979Y-42375991D01*
X100698953Y-42376783D01*
X100692280Y-42379117D01*
X100692275Y-42379119D01*
X100533664Y-42434619D01*
X100533656Y-42434622D01*
X100526985Y-42436957D01*
X100521000Y-42440717D01*
X100520993Y-42440721D01*
X100378714Y-42530121D01*
X100378707Y-42530126D01*
X100372719Y-42533889D01*
X100367714Y-42538893D01*
X100367710Y-42538897D01*
X100248897Y-42657710D01*
X100248893Y-42657714D01*
X100243889Y-42662719D01*
X100240126Y-42668707D01*
X100240121Y-42668714D01*
X100150721Y-42810993D01*
X100150717Y-42811000D01*
X100146957Y-42816985D01*
X100144622Y-42823656D01*
X100144619Y-42823664D01*
X100089119Y-42982275D01*
X100089117Y-42982280D01*
X100086783Y-42988953D01*
X100066384Y-43170000D01*
X82006119Y-43170000D01*
X82005839Y-41982028D01*
X103634496Y-41982028D01*
X103652037Y-42137708D01*
X103655166Y-42151416D01*
X103706906Y-42299283D01*
X103707372Y-42300249D01*
X103710752Y-42303629D01*
X103720342Y-42297603D01*
X104031217Y-41986728D01*
X104037989Y-41974998D01*
X104755007Y-41974998D01*
X104761779Y-41986728D01*
X105072657Y-42297606D01*
X105082245Y-42303631D01*
X105085616Y-42300262D01*
X105086489Y-42298453D01*
X105132980Y-42246449D01*
X105200013Y-42227147D01*
X105267041Y-42246464D01*
X105313521Y-42298478D01*
X105314374Y-42300249D01*
X105317754Y-42303629D01*
X105327344Y-42297603D01*
X105638219Y-41986728D01*
X105644991Y-41974998D01*
X106362009Y-41974998D01*
X106368781Y-41986728D01*
X106679659Y-42297606D01*
X106689247Y-42303631D01*
X106692619Y-42300261D01*
X106693098Y-42299269D01*
X106744833Y-42151416D01*
X106747962Y-42137708D01*
X106765504Y-41982028D01*
X106765504Y-41967970D01*
X106747962Y-41812289D01*
X106744833Y-41798581D01*
X106693096Y-41650722D01*
X106692624Y-41649742D01*
X106689245Y-41646365D01*
X106679661Y-41652388D01*
X106368780Y-41963270D01*
X106362009Y-41974998D01*
X105644991Y-41974998D01*
X105638220Y-41963270D01*
X105327342Y-41652391D01*
X105317755Y-41646368D01*
X105314369Y-41649756D01*
X105313525Y-41651509D01*
X105267043Y-41703530D01*
X105200009Y-41722848D01*
X105132972Y-41703541D01*
X105086482Y-41651527D01*
X105085622Y-41649743D01*
X105082243Y-41646365D01*
X105072659Y-41652388D01*
X104761778Y-41963270D01*
X104755007Y-41974998D01*
X104037989Y-41974998D01*
X104031218Y-41963270D01*
X103720340Y-41652391D01*
X103710753Y-41646368D01*
X103707367Y-41649755D01*
X103706909Y-41650706D01*
X103655166Y-41798581D01*
X103652037Y-41812289D01*
X103634496Y-41967970D01*
X103634496Y-41982028D01*
X82005839Y-41982028D01*
X82005365Y-39970783D01*
X82004830Y-37700000D01*
X92186384Y-37700000D01*
X92206783Y-37881047D01*
X92209118Y-37887720D01*
X92209119Y-37887724D01*
X92264619Y-38046335D01*
X92264621Y-38046339D01*
X92266957Y-38053015D01*
X92270719Y-38059003D01*
X92270721Y-38059006D01*
X92351591Y-38187710D01*
X92363889Y-38207281D01*
X92492719Y-38336111D01*
X92498713Y-38339877D01*
X92498714Y-38339878D01*
X92599743Y-38403359D01*
X92646985Y-38433043D01*
X92818953Y-38493217D01*
X93000000Y-38513616D01*
X93181047Y-38493217D01*
X93353015Y-38433043D01*
X93405602Y-38400000D01*
X94686384Y-38400000D01*
X94687176Y-38407029D01*
X94701751Y-38536391D01*
X94706783Y-38581047D01*
X94709118Y-38587720D01*
X94709119Y-38587724D01*
X94764619Y-38746335D01*
X94764621Y-38746339D01*
X94766957Y-38753015D01*
X94770719Y-38759003D01*
X94770721Y-38759006D01*
X94846034Y-38878866D01*
X94863889Y-38907281D01*
X94992719Y-39036111D01*
X94998713Y-39039877D01*
X94998714Y-39039878D01*
X95140993Y-39129278D01*
X95146985Y-39133043D01*
X95318953Y-39193217D01*
X95500000Y-39213616D01*
X95681047Y-39193217D01*
X95853015Y-39133043D01*
X96007281Y-39036111D01*
X96043392Y-39000000D01*
X96686384Y-39000000D01*
X96706783Y-39181047D01*
X96709118Y-39187720D01*
X96709119Y-39187724D01*
X96764619Y-39346335D01*
X96764621Y-39346339D01*
X96766957Y-39353015D01*
X96770719Y-39359003D01*
X96770721Y-39359006D01*
X96857665Y-39497377D01*
X96863889Y-39507281D01*
X96992719Y-39636111D01*
X96998713Y-39639877D01*
X96998714Y-39639878D01*
X97014823Y-39650000D01*
X97146985Y-39733043D01*
X97318953Y-39793217D01*
X97500000Y-39813616D01*
X97681047Y-39793217D01*
X97853015Y-39733043D01*
X98007281Y-39636111D01*
X98136111Y-39507281D01*
X98233043Y-39353015D01*
X98293217Y-39181047D01*
X98313616Y-39000000D01*
X98293217Y-38818953D01*
X98233043Y-38646985D01*
X98189243Y-38577278D01*
X98139878Y-38498714D01*
X98139877Y-38498713D01*
X98136111Y-38492719D01*
X98007281Y-38363889D01*
X98001287Y-38360123D01*
X98001285Y-38360121D01*
X97859006Y-38270721D01*
X97859003Y-38270719D01*
X97853015Y-38266957D01*
X97846339Y-38264621D01*
X97846335Y-38264619D01*
X97687724Y-38209119D01*
X97687720Y-38209118D01*
X97681047Y-38206783D01*
X97620846Y-38200000D01*
X99036496Y-38200000D01*
X99037186Y-38206565D01*
X99054247Y-38368897D01*
X99056458Y-38389928D01*
X99058495Y-38396200D01*
X99058497Y-38396205D01*
X99113430Y-38565271D01*
X99113433Y-38565278D01*
X99115473Y-38571556D01*
X99180271Y-38683789D01*
X99193688Y-38707029D01*
X99210960Y-38736944D01*
X99338747Y-38878866D01*
X99493248Y-38991118D01*
X99667712Y-39068794D01*
X99854513Y-39108500D01*
X99861116Y-39108500D01*
X99906988Y-39108500D01*
X99974024Y-39127813D01*
X100020510Y-39179830D01*
X100032196Y-39248607D01*
X100026745Y-39296985D01*
X100021857Y-39340371D01*
X100031874Y-39429278D01*
X100037136Y-39475981D01*
X100042256Y-39521418D01*
X100044591Y-39528091D01*
X100044592Y-39528095D01*
X100100092Y-39686706D01*
X100100094Y-39686710D01*
X100102430Y-39693386D01*
X100106192Y-39699374D01*
X100106194Y-39699377D01*
X100193123Y-39837724D01*
X100199362Y-39847652D01*
X100204370Y-39852660D01*
X100258070Y-39906360D01*
X100287904Y-39953839D01*
X100294183Y-40009562D01*
X100275663Y-40062490D01*
X100236013Y-40102141D01*
X100157124Y-40151711D01*
X100157119Y-40151714D01*
X100151130Y-40155478D01*
X100146125Y-40160482D01*
X100146121Y-40160486D01*
X100027308Y-40279299D01*
X100027304Y-40279303D01*
X100022300Y-40284308D01*
X100018537Y-40290296D01*
X100018532Y-40290303D01*
X99929132Y-40432582D01*
X99929128Y-40432589D01*
X99925368Y-40438574D01*
X99923033Y-40445245D01*
X99923030Y-40445253D01*
X99867530Y-40603864D01*
X99867528Y-40603869D01*
X99865194Y-40610542D01*
X99864402Y-40617568D01*
X99864402Y-40617570D01*
X99855108Y-40700062D01*
X99844795Y-40791589D01*
X99865194Y-40972636D01*
X99867529Y-40979309D01*
X99867530Y-40979313D01*
X99923030Y-41137924D01*
X99923032Y-41137928D01*
X99925368Y-41144604D01*
X99929130Y-41150592D01*
X99929132Y-41150595D01*
X100015725Y-41288407D01*
X100022300Y-41298870D01*
X100151130Y-41427700D01*
X100157124Y-41431466D01*
X100157125Y-41431467D01*
X100268103Y-41501199D01*
X100305396Y-41524632D01*
X100477364Y-41584806D01*
X100658411Y-41605205D01*
X100839458Y-41584806D01*
X101011426Y-41524632D01*
X101165692Y-41427700D01*
X101294522Y-41298870D01*
X101391454Y-41144604D01*
X101393329Y-41139245D01*
X102546367Y-41139245D01*
X102549744Y-41142624D01*
X102550724Y-41143096D01*
X102698583Y-41194833D01*
X102712291Y-41197962D01*
X102867972Y-41215504D01*
X102882030Y-41215504D01*
X103037710Y-41197962D01*
X103051418Y-41194833D01*
X103199271Y-41143098D01*
X103200263Y-41142619D01*
X103202791Y-41140090D01*
X104067335Y-41140090D01*
X104074919Y-41161775D01*
X104086391Y-41181650D01*
X104086382Y-41246872D01*
X104074943Y-41266677D01*
X104067337Y-41288408D01*
X104073891Y-41298840D01*
X104384770Y-41609718D01*
X104396498Y-41616489D01*
X104408228Y-41609717D01*
X104719103Y-41298842D01*
X104725660Y-41288407D01*
X104718073Y-41266723D01*
X104706608Y-41246864D01*
X104706599Y-41181658D01*
X104718099Y-41161726D01*
X104725662Y-41140091D01*
X104725661Y-41140090D01*
X105674337Y-41140090D01*
X105681921Y-41161775D01*
X105693393Y-41181650D01*
X105693384Y-41246872D01*
X105681945Y-41266677D01*
X105674339Y-41288408D01*
X105680893Y-41298840D01*
X105991772Y-41609718D01*
X106003500Y-41616489D01*
X106015230Y-41609717D01*
X106326105Y-41298842D01*
X106332662Y-41288407D01*
X106325075Y-41266723D01*
X106313610Y-41246864D01*
X106313601Y-41181658D01*
X106325101Y-41161726D01*
X106332664Y-41140091D01*
X106332132Y-41139245D01*
X107196365Y-41139245D01*
X107199742Y-41142624D01*
X107200722Y-41143096D01*
X107348581Y-41194833D01*
X107362289Y-41197962D01*
X107517970Y-41215504D01*
X107532028Y-41215504D01*
X107687708Y-41197962D01*
X107701416Y-41194833D01*
X107849269Y-41143098D01*
X107850261Y-41142619D01*
X107853631Y-41139247D01*
X107847606Y-41129659D01*
X107536728Y-40818781D01*
X107524998Y-40812009D01*
X107513270Y-40818780D01*
X107202388Y-41129661D01*
X107196365Y-41139245D01*
X106332132Y-41139245D01*
X106326108Y-41129659D01*
X106015230Y-40818781D01*
X106003500Y-40812009D01*
X105991772Y-40818780D01*
X105680890Y-41129661D01*
X105674337Y-41140090D01*
X104725661Y-41140090D01*
X104719106Y-41129659D01*
X104408228Y-40818781D01*
X104396498Y-40812009D01*
X104384770Y-40818780D01*
X104073888Y-41129661D01*
X104067335Y-41140090D01*
X103202791Y-41140090D01*
X103203633Y-41139247D01*
X103197608Y-41129659D01*
X102886730Y-40818781D01*
X102875000Y-40812009D01*
X102863272Y-40818780D01*
X102552390Y-41129661D01*
X102546367Y-41139245D01*
X101393329Y-41139245D01*
X101451628Y-40972636D01*
X101472027Y-40791589D01*
X101451628Y-40610542D01*
X101399137Y-40460530D01*
X102112998Y-40460530D01*
X102130539Y-40616210D01*
X102133668Y-40629918D01*
X102185408Y-40777785D01*
X102185874Y-40778751D01*
X102189254Y-40782131D01*
X102198844Y-40776105D01*
X102509719Y-40465230D01*
X102516491Y-40453500D01*
X103233509Y-40453500D01*
X103240281Y-40465230D01*
X103551159Y-40776108D01*
X103561591Y-40782664D01*
X103583226Y-40775101D01*
X103603158Y-40763601D01*
X103668364Y-40763610D01*
X103688223Y-40775075D01*
X103709907Y-40782662D01*
X103720342Y-40776105D01*
X104031217Y-40465230D01*
X104037989Y-40453500D01*
X104755007Y-40453500D01*
X104761779Y-40465230D01*
X105072657Y-40776108D01*
X105082245Y-40782133D01*
X105085616Y-40778764D01*
X105086489Y-40776955D01*
X105132980Y-40724951D01*
X105200013Y-40705649D01*
X105267041Y-40724966D01*
X105313521Y-40776980D01*
X105314374Y-40778751D01*
X105317754Y-40782131D01*
X105327344Y-40776105D01*
X105638219Y-40465230D01*
X105644991Y-40453500D01*
X106362009Y-40453500D01*
X106368781Y-40465230D01*
X106679659Y-40776108D01*
X106690091Y-40782664D01*
X106711726Y-40775101D01*
X106731658Y-40763601D01*
X106796864Y-40763610D01*
X106816723Y-40775075D01*
X106838407Y-40782662D01*
X106848842Y-40776105D01*
X107159717Y-40465230D01*
X107166489Y-40453500D01*
X107883507Y-40453500D01*
X107890279Y-40465230D01*
X108201157Y-40776108D01*
X108210745Y-40782133D01*
X108214117Y-40778763D01*
X108214596Y-40777771D01*
X108241787Y-40700062D01*
X108601067Y-40700062D01*
X108621466Y-40881109D01*
X108623801Y-40887782D01*
X108623802Y-40887786D01*
X108679302Y-41046397D01*
X108679304Y-41046401D01*
X108681640Y-41053077D01*
X108685402Y-41059065D01*
X108685404Y-41059068D01*
X108772677Y-41197962D01*
X108778572Y-41207343D01*
X108907402Y-41336173D01*
X109061668Y-41433105D01*
X109233636Y-41493279D01*
X109414683Y-41513678D01*
X109595730Y-41493279D01*
X109608079Y-41488957D01*
X109663801Y-41482678D01*
X109716730Y-41501198D01*
X109829888Y-41572300D01*
X109869539Y-41611951D01*
X109888060Y-41664879D01*
X109903125Y-41798581D01*
X109906783Y-41831047D01*
X109909118Y-41837720D01*
X109909119Y-41837724D01*
X109964619Y-41996335D01*
X109964621Y-41996339D01*
X109966957Y-42003015D01*
X109970719Y-42009003D01*
X109970721Y-42009006D01*
X110056130Y-42144934D01*
X110063889Y-42157281D01*
X110192719Y-42286111D01*
X110198713Y-42289877D01*
X110198714Y-42289878D01*
X110305780Y-42357152D01*
X110346985Y-42383043D01*
X110518953Y-42443217D01*
X110700000Y-42463616D01*
X110881047Y-42443217D01*
X111053015Y-42383043D01*
X111094222Y-42357150D01*
X111154424Y-42338023D01*
X111216348Y-42350521D01*
X111264424Y-42391503D01*
X111286566Y-42450667D01*
X111306458Y-42639928D01*
X111308495Y-42646200D01*
X111308497Y-42646205D01*
X111363430Y-42815271D01*
X111363433Y-42815278D01*
X111365473Y-42821556D01*
X111460960Y-42986944D01*
X111588747Y-43128866D01*
X111594089Y-43132747D01*
X111594091Y-43132749D01*
X111603972Y-43139928D01*
X111743248Y-43241118D01*
X111917712Y-43318794D01*
X112104513Y-43358500D01*
X112288884Y-43358500D01*
X112295487Y-43358500D01*
X112482288Y-43318794D01*
X112656752Y-43241118D01*
X112811253Y-43128866D01*
X112939040Y-42986944D01*
X112960370Y-42950000D01*
X119286496Y-42950000D01*
X119306458Y-43139928D01*
X119308495Y-43146200D01*
X119308497Y-43146205D01*
X119363430Y-43315271D01*
X119363433Y-43315278D01*
X119365473Y-43321556D01*
X119382500Y-43351047D01*
X119443546Y-43456783D01*
X119460960Y-43486944D01*
X119588747Y-43628866D01*
X119743248Y-43741118D01*
X119917712Y-43818794D01*
X120104513Y-43858500D01*
X120288884Y-43858500D01*
X120295487Y-43858500D01*
X120482288Y-43818794D01*
X120656752Y-43741118D01*
X120811253Y-43628866D01*
X120939040Y-43486944D01*
X121034527Y-43321556D01*
X121093542Y-43139928D01*
X121113504Y-42950000D01*
X121093542Y-42760072D01*
X121034527Y-42578444D01*
X120939040Y-42413056D01*
X120811253Y-42271134D01*
X120805911Y-42267253D01*
X120805908Y-42267250D01*
X120728057Y-42210688D01*
X120656752Y-42158882D01*
X120482288Y-42081206D01*
X120475835Y-42079834D01*
X120475831Y-42079833D01*
X120301943Y-42042872D01*
X120301940Y-42042871D01*
X120295487Y-42041500D01*
X120104513Y-42041500D01*
X120098060Y-42042871D01*
X120098056Y-42042872D01*
X119924168Y-42079833D01*
X119924161Y-42079835D01*
X119917712Y-42081206D01*
X119911682Y-42083890D01*
X119911681Y-42083891D01*
X119749278Y-42156197D01*
X119749275Y-42156198D01*
X119743248Y-42158882D01*
X119737907Y-42162762D01*
X119737906Y-42162763D01*
X119594091Y-42267250D01*
X119594083Y-42267256D01*
X119588747Y-42271134D01*
X119584330Y-42276039D01*
X119584325Y-42276044D01*
X119480366Y-42391503D01*
X119460960Y-42413056D01*
X119457661Y-42418769D01*
X119457658Y-42418774D01*
X119368777Y-42572721D01*
X119365473Y-42578444D01*
X119363434Y-42584718D01*
X119363430Y-42584728D01*
X119308497Y-42753794D01*
X119308495Y-42753801D01*
X119306458Y-42760072D01*
X119286496Y-42950000D01*
X112960370Y-42950000D01*
X113034527Y-42821556D01*
X113093542Y-42639928D01*
X113113504Y-42450000D01*
X113093542Y-42260072D01*
X113034527Y-42078444D01*
X112939040Y-41913056D01*
X112811253Y-41771134D01*
X112805911Y-41767253D01*
X112805908Y-41767250D01*
X112725176Y-41708595D01*
X112656752Y-41658882D01*
X112482288Y-41581206D01*
X112475832Y-41579833D01*
X112475830Y-41579833D01*
X112373820Y-41558150D01*
X112316127Y-41528916D01*
X112280538Y-41474913D01*
X112276429Y-41410367D01*
X112304883Y-41352287D01*
X112358397Y-41315975D01*
X112452515Y-41283043D01*
X112606781Y-41186111D01*
X112735611Y-41057281D01*
X112832543Y-40903015D01*
X112892717Y-40731047D01*
X112913116Y-40550000D01*
X112892717Y-40368953D01*
X112875244Y-40319020D01*
X112871333Y-40249368D01*
X112905078Y-40188312D01*
X112936111Y-40157281D01*
X113033043Y-40003015D01*
X113093217Y-39831047D01*
X113113616Y-39650000D01*
X113093217Y-39468953D01*
X113033043Y-39296985D01*
X112960194Y-39181047D01*
X112939878Y-39148714D01*
X112939877Y-39148713D01*
X112936111Y-39142719D01*
X112859814Y-39066422D01*
X112831615Y-39023351D01*
X112822998Y-38972596D01*
X112833398Y-38930692D01*
X112832543Y-38930393D01*
X112857795Y-38858226D01*
X112892717Y-38758425D01*
X112913116Y-38577378D01*
X112892717Y-38396331D01*
X112832543Y-38224363D01*
X112792574Y-38160753D01*
X112739378Y-38076092D01*
X112739377Y-38076091D01*
X112735611Y-38070097D01*
X112606781Y-37941267D01*
X112600787Y-37937501D01*
X112600785Y-37937499D01*
X112460736Y-37849500D01*
X119062118Y-37849500D01*
X119062910Y-37856528D01*
X119062910Y-37856529D01*
X119080949Y-38016635D01*
X119082517Y-38030547D01*
X119084852Y-38037220D01*
X119084853Y-38037224D01*
X119140353Y-38195835D01*
X119140355Y-38195839D01*
X119142691Y-38202515D01*
X119146453Y-38208503D01*
X119146455Y-38208506D01*
X119233467Y-38346985D01*
X119239623Y-38356781D01*
X119244631Y-38361789D01*
X119363371Y-38480529D01*
X119393205Y-38528009D01*
X119399484Y-38583731D01*
X119392357Y-38646985D01*
X119386384Y-38700000D01*
X119406783Y-38881047D01*
X119409118Y-38887720D01*
X119409119Y-38887724D01*
X119464619Y-39046335D01*
X119464621Y-39046339D01*
X119466957Y-39053015D01*
X119470719Y-39059003D01*
X119470721Y-39059006D01*
X119553583Y-39190880D01*
X119563889Y-39207281D01*
X119692719Y-39336111D01*
X119698713Y-39339877D01*
X119698714Y-39339878D01*
X119840993Y-39429278D01*
X119846985Y-39433043D01*
X120018953Y-39493217D01*
X120200000Y-39513616D01*
X120381047Y-39493217D01*
X120553015Y-39433043D01*
X120707281Y-39336111D01*
X120836111Y-39207281D01*
X120933043Y-39053015D01*
X120993217Y-38881047D01*
X121013616Y-38700000D01*
X120993217Y-38518953D01*
X120933043Y-38346985D01*
X120836111Y-38192719D01*
X120712362Y-38068969D01*
X120682528Y-38021490D01*
X120676249Y-37965771D01*
X120689350Y-37849500D01*
X120668951Y-37668453D01*
X120608777Y-37496485D01*
X120545723Y-37396135D01*
X120515612Y-37348214D01*
X120515611Y-37348213D01*
X120511845Y-37342219D01*
X120383015Y-37213389D01*
X120377021Y-37209623D01*
X120377019Y-37209621D01*
X120234740Y-37120221D01*
X120234737Y-37120219D01*
X120228749Y-37116457D01*
X120222073Y-37114121D01*
X120222069Y-37114119D01*
X120063458Y-37058619D01*
X120063454Y-37058618D01*
X120056781Y-37056283D01*
X119875734Y-37035884D01*
X119868705Y-37036676D01*
X119701715Y-37055491D01*
X119701713Y-37055491D01*
X119694687Y-37056283D01*
X119688014Y-37058617D01*
X119688009Y-37058619D01*
X119529398Y-37114119D01*
X119529390Y-37114122D01*
X119522719Y-37116457D01*
X119516734Y-37120217D01*
X119516727Y-37120221D01*
X119374448Y-37209621D01*
X119374441Y-37209626D01*
X119368453Y-37213389D01*
X119363448Y-37218393D01*
X119363444Y-37218397D01*
X119244631Y-37337210D01*
X119244627Y-37337214D01*
X119239623Y-37342219D01*
X119235860Y-37348207D01*
X119235855Y-37348214D01*
X119146455Y-37490493D01*
X119146451Y-37490500D01*
X119142691Y-37496485D01*
X119140356Y-37503156D01*
X119140353Y-37503164D01*
X119084853Y-37661775D01*
X119084851Y-37661780D01*
X119082517Y-37668453D01*
X119081725Y-37675479D01*
X119081725Y-37675481D01*
X119071778Y-37763762D01*
X119062118Y-37849500D01*
X112460736Y-37849500D01*
X112458506Y-37848099D01*
X112458503Y-37848097D01*
X112452515Y-37844335D01*
X112445839Y-37841999D01*
X112445835Y-37841997D01*
X112287224Y-37786497D01*
X112287220Y-37786496D01*
X112280547Y-37784161D01*
X112099500Y-37763762D01*
X112092471Y-37764554D01*
X112092469Y-37764554D01*
X111998774Y-37775110D01*
X111929997Y-37763423D01*
X111877979Y-37716935D01*
X111858668Y-37649897D01*
X111877982Y-37582865D01*
X111891454Y-37561426D01*
X111951628Y-37389458D01*
X111952033Y-37389599D01*
X111976301Y-37340966D01*
X112024351Y-37305849D01*
X112083160Y-37296704D01*
X112139602Y-37315569D01*
X112246985Y-37383043D01*
X112418953Y-37443217D01*
X112600000Y-37463616D01*
X112781047Y-37443217D01*
X112953015Y-37383043D01*
X113107281Y-37286111D01*
X113236111Y-37157281D01*
X113333043Y-37003015D01*
X113393217Y-36831047D01*
X113413616Y-36650000D01*
X113393217Y-36468953D01*
X113333043Y-36296985D01*
X113266373Y-36190880D01*
X113239878Y-36148714D01*
X113239877Y-36148713D01*
X113236111Y-36142719D01*
X113107281Y-36013889D01*
X113101287Y-36010123D01*
X113101285Y-36010121D01*
X113085178Y-36000000D01*
X117736496Y-36000000D01*
X117737186Y-36006565D01*
X117750083Y-36129278D01*
X117756458Y-36189928D01*
X117758495Y-36196200D01*
X117758497Y-36196205D01*
X117813430Y-36365271D01*
X117813433Y-36365278D01*
X117815473Y-36371556D01*
X117849852Y-36431102D01*
X117904011Y-36524909D01*
X117910960Y-36536944D01*
X118038747Y-36678866D01*
X118044089Y-36682747D01*
X118044091Y-36682749D01*
X118076158Y-36706047D01*
X118193248Y-36791118D01*
X118367712Y-36868794D01*
X118554513Y-36908500D01*
X118738884Y-36908500D01*
X118745487Y-36908500D01*
X118932288Y-36868794D01*
X119106752Y-36791118D01*
X119261253Y-36678866D01*
X119389040Y-36536944D01*
X119484527Y-36371556D01*
X119543542Y-36189928D01*
X119555230Y-36078721D01*
X119581735Y-36013702D01*
X119638920Y-35972966D01*
X119753015Y-35933043D01*
X119907281Y-35836111D01*
X120036111Y-35707281D01*
X120133043Y-35553015D01*
X120193217Y-35381047D01*
X120213616Y-35200000D01*
X120193217Y-35018953D01*
X120133043Y-34846985D01*
X120036111Y-34692719D01*
X119907281Y-34563889D01*
X119901287Y-34560123D01*
X119901285Y-34560121D01*
X119759006Y-34470721D01*
X119759003Y-34470719D01*
X119753015Y-34466957D01*
X119746339Y-34464621D01*
X119746335Y-34464619D01*
X119587724Y-34409119D01*
X119587720Y-34409118D01*
X119581047Y-34406783D01*
X119400000Y-34386384D01*
X119392971Y-34387176D01*
X119225981Y-34405991D01*
X119225979Y-34405991D01*
X119218953Y-34406783D01*
X119212280Y-34409117D01*
X119212275Y-34409119D01*
X119053664Y-34464619D01*
X119053656Y-34464622D01*
X119046985Y-34466957D01*
X119041000Y-34470717D01*
X119040993Y-34470721D01*
X118898714Y-34560121D01*
X118898707Y-34560126D01*
X118892719Y-34563889D01*
X118887714Y-34568893D01*
X118887710Y-34568897D01*
X118768897Y-34687710D01*
X118768893Y-34687714D01*
X118763889Y-34692719D01*
X118760126Y-34698707D01*
X118760121Y-34698714D01*
X118670721Y-34840993D01*
X118670717Y-34841000D01*
X118666957Y-34846985D01*
X118664622Y-34853656D01*
X118664619Y-34853664D01*
X118606966Y-35018429D01*
X118571292Y-35071390D01*
X118514235Y-35100060D01*
X118374176Y-35129831D01*
X118374166Y-35129833D01*
X118367712Y-35131206D01*
X118361682Y-35133890D01*
X118361681Y-35133891D01*
X118199278Y-35206197D01*
X118199275Y-35206198D01*
X118193248Y-35208882D01*
X118187907Y-35212762D01*
X118187906Y-35212763D01*
X118044091Y-35317250D01*
X118044083Y-35317256D01*
X118038747Y-35321134D01*
X118034330Y-35326039D01*
X118034325Y-35326044D01*
X117915379Y-35458148D01*
X117910960Y-35463056D01*
X117907661Y-35468769D01*
X117907658Y-35468774D01*
X117818777Y-35622721D01*
X117815473Y-35628444D01*
X117813434Y-35634718D01*
X117813430Y-35634728D01*
X117758497Y-35803794D01*
X117758495Y-35803801D01*
X117756458Y-35810072D01*
X117755768Y-35816633D01*
X117755768Y-35816635D01*
X117740514Y-35961774D01*
X117736496Y-36000000D01*
X113085178Y-36000000D01*
X112959006Y-35920721D01*
X112959003Y-35920719D01*
X112953015Y-35916957D01*
X112946339Y-35914621D01*
X112946335Y-35914619D01*
X112787724Y-35859119D01*
X112787720Y-35859118D01*
X112781047Y-35856783D01*
X112600000Y-35836384D01*
X112592971Y-35837176D01*
X112425981Y-35855991D01*
X112425979Y-35855991D01*
X112418953Y-35856783D01*
X112412280Y-35859117D01*
X112412275Y-35859119D01*
X112253664Y-35914619D01*
X112253656Y-35914622D01*
X112246985Y-35916957D01*
X112241000Y-35920717D01*
X112240993Y-35920721D01*
X112098714Y-36010121D01*
X112098707Y-36010126D01*
X112092719Y-36013889D01*
X112087714Y-36018893D01*
X112087710Y-36018897D01*
X111968897Y-36137710D01*
X111968893Y-36137714D01*
X111963889Y-36142719D01*
X111960126Y-36148707D01*
X111960121Y-36148714D01*
X111870721Y-36290993D01*
X111870717Y-36291000D01*
X111866957Y-36296985D01*
X111864622Y-36303656D01*
X111864619Y-36303664D01*
X111809117Y-36462280D01*
X111809115Y-36462287D01*
X111807896Y-36465771D01*
X111807895Y-36465774D01*
X111806783Y-36468953D01*
X111806379Y-36468811D01*
X111782101Y-36517454D01*
X111734051Y-36552564D01*
X111675246Y-36561706D01*
X111618805Y-36542839D01*
X111517417Y-36479132D01*
X111517414Y-36479130D01*
X111511426Y-36475368D01*
X111504750Y-36473032D01*
X111504746Y-36473030D01*
X111384269Y-36430874D01*
X111329615Y-36393236D01*
X111301664Y-36333049D01*
X111308170Y-36267008D01*
X111341953Y-36220783D01*
X111340812Y-36219642D01*
X111402509Y-36157945D01*
X111469642Y-36090812D01*
X111566574Y-35936546D01*
X111616513Y-35793825D01*
X111646347Y-35746347D01*
X111693825Y-35716513D01*
X111836546Y-35666574D01*
X111990812Y-35569642D01*
X112119642Y-35440812D01*
X112216574Y-35286546D01*
X112276748Y-35114578D01*
X112297147Y-34933531D01*
X112276748Y-34752484D01*
X112216574Y-34580516D01*
X112161566Y-34492971D01*
X112123409Y-34432245D01*
X112123408Y-34432244D01*
X112119642Y-34426250D01*
X111990812Y-34297420D01*
X111984818Y-34293654D01*
X111984816Y-34293652D01*
X111842537Y-34204252D01*
X111842534Y-34204250D01*
X111836546Y-34200488D01*
X111829870Y-34198152D01*
X111829866Y-34198150D01*
X111671255Y-34142650D01*
X111671251Y-34142649D01*
X111664578Y-34140314D01*
X111483531Y-34119915D01*
X111476502Y-34120707D01*
X111309512Y-34139522D01*
X111309510Y-34139522D01*
X111302484Y-34140314D01*
X111295811Y-34142648D01*
X111295806Y-34142650D01*
X111137195Y-34198150D01*
X111137187Y-34198153D01*
X111130516Y-34200488D01*
X111124531Y-34204248D01*
X111124524Y-34204252D01*
X110982245Y-34293652D01*
X110982238Y-34293657D01*
X110976250Y-34297420D01*
X110971245Y-34302424D01*
X110971241Y-34302428D01*
X110852428Y-34421241D01*
X110852424Y-34421245D01*
X110847420Y-34426250D01*
X110843657Y-34432238D01*
X110843652Y-34432245D01*
X110754252Y-34574524D01*
X110754248Y-34574531D01*
X110750488Y-34580516D01*
X110748153Y-34587188D01*
X110748151Y-34587193D01*
X110700548Y-34723235D01*
X110670714Y-34770714D01*
X110623235Y-34800548D01*
X110487193Y-34848151D01*
X110487188Y-34848153D01*
X110480516Y-34850488D01*
X110474531Y-34854248D01*
X110474524Y-34854252D01*
X110332245Y-34943652D01*
X110332238Y-34943657D01*
X110326250Y-34947420D01*
X110321245Y-34952424D01*
X110321241Y-34952428D01*
X110202428Y-35071241D01*
X110202424Y-35071245D01*
X110197420Y-35076250D01*
X110193657Y-35082238D01*
X110193652Y-35082245D01*
X110104252Y-35224524D01*
X110104248Y-35224531D01*
X110100488Y-35230516D01*
X110098153Y-35237187D01*
X110098150Y-35237195D01*
X110042650Y-35395806D01*
X110042648Y-35395811D01*
X110040314Y-35402484D01*
X110019915Y-35583531D01*
X110026991Y-35646334D01*
X110038258Y-35746335D01*
X110040314Y-35764578D01*
X110042649Y-35771251D01*
X110042650Y-35771255D01*
X110098150Y-35929866D01*
X110098152Y-35929870D01*
X110100488Y-35936546D01*
X110104250Y-35942534D01*
X110104252Y-35942537D01*
X110189824Y-36078724D01*
X110197420Y-36090812D01*
X110326250Y-36219642D01*
X110332244Y-36223408D01*
X110332245Y-36223409D01*
X110336182Y-36225883D01*
X110480516Y-36316574D01*
X110607674Y-36361068D01*
X110662321Y-36398698D01*
X110690274Y-36458875D01*
X110683780Y-36524909D01*
X110649991Y-36571161D01*
X110651130Y-36572300D01*
X110527308Y-36696121D01*
X110527304Y-36696125D01*
X110522300Y-36701130D01*
X110518537Y-36707118D01*
X110518532Y-36707125D01*
X110429132Y-36849404D01*
X110429128Y-36849411D01*
X110425368Y-36855396D01*
X110423033Y-36862067D01*
X110423030Y-36862075D01*
X110367530Y-37020686D01*
X110367528Y-37020691D01*
X110365194Y-37027364D01*
X110364402Y-37034390D01*
X110364402Y-37034392D01*
X110350689Y-37156102D01*
X110344795Y-37208411D01*
X110350650Y-37260380D01*
X110359465Y-37338616D01*
X110365194Y-37389458D01*
X110367529Y-37396131D01*
X110367530Y-37396135D01*
X110423030Y-37554746D01*
X110423032Y-37554750D01*
X110425368Y-37561426D01*
X110429130Y-37567414D01*
X110429132Y-37567417D01*
X110516856Y-37707029D01*
X110522300Y-37715692D01*
X110651130Y-37844522D01*
X110805396Y-37941454D01*
X110977364Y-38001628D01*
X111158411Y-38022027D01*
X111259135Y-38010678D01*
X111327911Y-38022364D01*
X111379929Y-38068849D01*
X111399242Y-38135885D01*
X111379930Y-38202921D01*
X111370220Y-38218373D01*
X111370217Y-38218378D01*
X111366457Y-38224363D01*
X111364122Y-38231034D01*
X111364119Y-38231042D01*
X111308619Y-38389653D01*
X111308617Y-38389658D01*
X111306283Y-38396331D01*
X111305491Y-38403357D01*
X111305491Y-38403359D01*
X111292207Y-38521256D01*
X111285884Y-38577378D01*
X111306283Y-38758425D01*
X111308618Y-38765098D01*
X111308619Y-38765102D01*
X111359310Y-38909968D01*
X111363222Y-38979620D01*
X111329477Y-39040678D01*
X111268420Y-39074424D01*
X111198767Y-39070513D01*
X111146448Y-39052206D01*
X111139775Y-39049871D01*
X111058184Y-39040678D01*
X110965757Y-39030264D01*
X110958728Y-39029472D01*
X110951699Y-39030264D01*
X110784709Y-39049079D01*
X110784707Y-39049079D01*
X110777681Y-39049871D01*
X110771008Y-39052205D01*
X110771003Y-39052207D01*
X110612392Y-39107707D01*
X110612384Y-39107710D01*
X110605713Y-39110045D01*
X110599723Y-39113808D01*
X110593346Y-39116880D01*
X110592025Y-39114138D01*
X110538130Y-39129451D01*
X110471267Y-39109999D01*
X110424947Y-39058002D01*
X110413318Y-38989346D01*
X110428174Y-38857499D01*
X110407775Y-38676452D01*
X110347601Y-38504484D01*
X110343836Y-38498492D01*
X110254436Y-38356213D01*
X110254435Y-38356212D01*
X110250669Y-38350218D01*
X110121839Y-38221388D01*
X110115845Y-38217622D01*
X110115843Y-38217620D01*
X109973564Y-38128220D01*
X109973561Y-38128218D01*
X109967573Y-38124456D01*
X109960897Y-38122120D01*
X109960893Y-38122118D01*
X109802282Y-38066618D01*
X109802278Y-38066617D01*
X109795605Y-38064282D01*
X109614558Y-38043883D01*
X109607529Y-38044675D01*
X109440539Y-38063490D01*
X109440537Y-38063490D01*
X109433511Y-38064282D01*
X109426838Y-38066616D01*
X109426833Y-38066618D01*
X109268222Y-38122118D01*
X109268214Y-38122121D01*
X109261543Y-38124456D01*
X109255558Y-38128216D01*
X109255551Y-38128220D01*
X109113272Y-38217620D01*
X109113265Y-38217625D01*
X109107277Y-38221388D01*
X109102272Y-38226392D01*
X109102268Y-38226396D01*
X108983455Y-38345209D01*
X108983451Y-38345213D01*
X108978447Y-38350218D01*
X108974684Y-38356206D01*
X108974679Y-38356213D01*
X108885279Y-38498492D01*
X108885275Y-38498499D01*
X108881515Y-38504484D01*
X108879180Y-38511155D01*
X108879177Y-38511163D01*
X108823677Y-38669774D01*
X108823675Y-38669779D01*
X108821341Y-38676452D01*
X108800942Y-38857499D01*
X108821341Y-39038546D01*
X108823676Y-39045219D01*
X108823677Y-39045223D01*
X108879177Y-39203834D01*
X108879179Y-39203838D01*
X108881515Y-39210514D01*
X108885277Y-39216502D01*
X108885279Y-39216505D01*
X108971054Y-39353015D01*
X108978447Y-39364780D01*
X109107277Y-39493610D01*
X109113271Y-39497376D01*
X109113272Y-39497377D01*
X109175507Y-39536482D01*
X109261543Y-39590542D01*
X109347084Y-39620474D01*
X109400970Y-39657212D01*
X109429269Y-39715976D01*
X109424395Y-39781016D01*
X109412537Y-39814904D01*
X109372168Y-39871799D01*
X109307718Y-39898497D01*
X109240663Y-39906053D01*
X109240661Y-39906053D01*
X109233636Y-39906845D01*
X109226959Y-39909181D01*
X109226956Y-39909182D01*
X109068347Y-39964681D01*
X109068339Y-39964684D01*
X109061668Y-39967019D01*
X109055683Y-39970779D01*
X109055676Y-39970783D01*
X108913397Y-40060183D01*
X108913390Y-40060188D01*
X108907402Y-40063951D01*
X108902397Y-40068955D01*
X108902393Y-40068959D01*
X108783580Y-40187772D01*
X108783576Y-40187776D01*
X108778572Y-40192781D01*
X108774809Y-40198769D01*
X108774804Y-40198776D01*
X108685404Y-40341055D01*
X108685400Y-40341062D01*
X108681640Y-40347047D01*
X108679305Y-40353718D01*
X108679302Y-40353726D01*
X108623802Y-40512337D01*
X108623800Y-40512342D01*
X108621466Y-40519015D01*
X108601067Y-40700062D01*
X108241787Y-40700062D01*
X108266331Y-40629918D01*
X108269460Y-40616210D01*
X108287002Y-40460530D01*
X108287002Y-40446472D01*
X108269460Y-40290791D01*
X108266331Y-40277083D01*
X108214594Y-40129224D01*
X108214122Y-40128244D01*
X108210743Y-40124867D01*
X108201159Y-40130890D01*
X107890278Y-40441772D01*
X107883507Y-40453500D01*
X107166489Y-40453500D01*
X107159718Y-40441772D01*
X106848840Y-40130893D01*
X106838408Y-40124339D01*
X106816677Y-40131945D01*
X106796872Y-40143384D01*
X106731650Y-40143393D01*
X106711775Y-40131921D01*
X106690090Y-40124337D01*
X106679661Y-40130890D01*
X106368780Y-40441772D01*
X106362009Y-40453500D01*
X105644991Y-40453500D01*
X105638220Y-40441772D01*
X105327342Y-40130893D01*
X105317755Y-40124870D01*
X105314369Y-40128258D01*
X105313525Y-40130011D01*
X105267043Y-40182032D01*
X105200009Y-40201350D01*
X105132972Y-40182043D01*
X105086482Y-40130029D01*
X105085622Y-40128245D01*
X105082243Y-40124867D01*
X105072659Y-40130890D01*
X104761778Y-40441772D01*
X104755007Y-40453500D01*
X104037989Y-40453500D01*
X104031218Y-40441772D01*
X103720340Y-40130893D01*
X103709908Y-40124339D01*
X103688177Y-40131945D01*
X103668372Y-40143384D01*
X103603150Y-40143393D01*
X103583275Y-40131921D01*
X103561590Y-40124337D01*
X103551161Y-40130890D01*
X103240280Y-40441772D01*
X103233509Y-40453500D01*
X102516491Y-40453500D01*
X102509720Y-40441772D01*
X102198842Y-40130893D01*
X102189255Y-40124870D01*
X102185869Y-40128257D01*
X102185411Y-40129208D01*
X102133668Y-40277083D01*
X102130539Y-40290791D01*
X102112998Y-40446472D01*
X102112998Y-40460530D01*
X101399137Y-40460530D01*
X101391454Y-40438574D01*
X101294522Y-40284308D01*
X101235813Y-40225599D01*
X101205979Y-40178119D01*
X101199700Y-40122397D01*
X101218221Y-40069468D01*
X101257872Y-40029817D01*
X101342754Y-39976482D01*
X101471584Y-39847652D01*
X101568516Y-39693386D01*
X101624902Y-39532243D01*
X102546367Y-39532243D01*
X102549745Y-39535622D01*
X102551529Y-39536482D01*
X102603543Y-39582972D01*
X102622850Y-39650009D01*
X102603532Y-39717043D01*
X102551511Y-39763525D01*
X102549758Y-39764369D01*
X102546370Y-39767755D01*
X102552393Y-39777342D01*
X102863272Y-40088220D01*
X102875000Y-40094991D01*
X102886730Y-40088219D01*
X103197605Y-39777344D01*
X103203631Y-39767754D01*
X103200251Y-39764374D01*
X103198480Y-39763521D01*
X103146466Y-39717041D01*
X103127149Y-39650013D01*
X103146451Y-39582980D01*
X103198455Y-39536489D01*
X103200264Y-39535616D01*
X103203633Y-39532245D01*
X103203632Y-39532243D01*
X104067865Y-39532243D01*
X104071243Y-39535622D01*
X104073027Y-39536482D01*
X104125041Y-39582972D01*
X104144348Y-39650009D01*
X104125030Y-39717043D01*
X104073009Y-39763525D01*
X104071256Y-39764369D01*
X104067868Y-39767755D01*
X104073891Y-39777342D01*
X104384770Y-40088220D01*
X104396498Y-40094991D01*
X104408228Y-40088219D01*
X104719103Y-39777344D01*
X104725129Y-39767754D01*
X104721749Y-39764374D01*
X104719978Y-39763521D01*
X104667964Y-39717041D01*
X104648647Y-39650013D01*
X104667949Y-39582980D01*
X104719953Y-39536489D01*
X104721762Y-39535616D01*
X104725131Y-39532245D01*
X104725130Y-39532243D01*
X105674867Y-39532243D01*
X105678245Y-39535622D01*
X105680029Y-39536482D01*
X105732043Y-39582972D01*
X105751350Y-39650009D01*
X105732032Y-39717043D01*
X105680011Y-39763525D01*
X105678258Y-39764369D01*
X105674870Y-39767755D01*
X105680893Y-39777342D01*
X105991772Y-40088220D01*
X106003500Y-40094991D01*
X106015230Y-40088219D01*
X106326105Y-39777344D01*
X106332131Y-39767754D01*
X106328751Y-39764374D01*
X106326980Y-39763521D01*
X106274966Y-39717041D01*
X106255649Y-39650013D01*
X106274951Y-39582980D01*
X106326955Y-39536489D01*
X106328764Y-39535616D01*
X106332133Y-39532245D01*
X106332132Y-39532243D01*
X107196365Y-39532243D01*
X107199743Y-39535622D01*
X107201527Y-39536482D01*
X107253541Y-39582972D01*
X107272848Y-39650009D01*
X107253530Y-39717043D01*
X107201509Y-39763525D01*
X107199756Y-39764369D01*
X107196368Y-39767755D01*
X107202391Y-39777342D01*
X107513270Y-40088220D01*
X107524998Y-40094991D01*
X107536728Y-40088219D01*
X107847603Y-39777344D01*
X107853629Y-39767754D01*
X107850249Y-39764374D01*
X107848478Y-39763521D01*
X107796464Y-39717041D01*
X107777147Y-39650013D01*
X107796449Y-39582980D01*
X107848453Y-39536489D01*
X107850262Y-39535616D01*
X107853631Y-39532245D01*
X107847606Y-39522657D01*
X107536728Y-39211779D01*
X107524998Y-39205007D01*
X107513270Y-39211778D01*
X107202388Y-39522659D01*
X107196365Y-39532243D01*
X106332132Y-39532243D01*
X106326108Y-39522657D01*
X106015230Y-39211779D01*
X106003500Y-39205007D01*
X105991772Y-39211778D01*
X105680890Y-39522659D01*
X105674867Y-39532243D01*
X104725130Y-39532243D01*
X104719106Y-39522657D01*
X104408228Y-39211779D01*
X104396498Y-39205007D01*
X104384770Y-39211778D01*
X104073888Y-39522659D01*
X104067865Y-39532243D01*
X103203632Y-39532243D01*
X103197608Y-39522657D01*
X102886730Y-39211779D01*
X102875000Y-39205007D01*
X102863272Y-39211778D01*
X102552390Y-39522659D01*
X102546367Y-39532243D01*
X101624902Y-39532243D01*
X101628690Y-39521418D01*
X101649089Y-39340371D01*
X101628690Y-39159324D01*
X101568516Y-38987356D01*
X101537859Y-38938566D01*
X101518547Y-38871532D01*
X101523734Y-38853528D01*
X102112998Y-38853528D01*
X102130539Y-39009208D01*
X102133668Y-39022916D01*
X102185408Y-39170783D01*
X102185874Y-39171749D01*
X102189255Y-39175130D01*
X102198841Y-39169106D01*
X102509720Y-38858226D01*
X102516491Y-38846498D01*
X103233509Y-38846498D01*
X103240280Y-38858226D01*
X103551161Y-39169108D01*
X103561590Y-39175662D01*
X103583228Y-39168097D01*
X103603163Y-39156597D01*
X103668367Y-39156608D01*
X103688228Y-39168075D01*
X103709908Y-39175660D01*
X103720339Y-39169106D01*
X104031218Y-38858226D01*
X104037989Y-38846498D01*
X104755007Y-38846498D01*
X104761778Y-38858226D01*
X105072659Y-39169108D01*
X105082244Y-39175132D01*
X105085617Y-39171762D01*
X105086489Y-39169953D01*
X105132980Y-39117949D01*
X105200013Y-39098647D01*
X105267041Y-39117964D01*
X105313521Y-39169978D01*
X105314374Y-39171749D01*
X105317755Y-39175130D01*
X105327341Y-39169106D01*
X105638220Y-38858226D01*
X105644991Y-38846498D01*
X106362009Y-38846498D01*
X106368780Y-38858226D01*
X106679661Y-39169108D01*
X106690090Y-39175662D01*
X106711728Y-39168097D01*
X106731663Y-39156597D01*
X106796867Y-39156608D01*
X106816728Y-39168075D01*
X106838408Y-39175660D01*
X106848839Y-39169106D01*
X107159718Y-38858226D01*
X107166489Y-38846498D01*
X107883507Y-38846498D01*
X107890278Y-38858226D01*
X108201159Y-39169108D01*
X108210744Y-39175132D01*
X108214118Y-39171761D01*
X108214596Y-39170769D01*
X108266331Y-39022916D01*
X108269460Y-39009208D01*
X108287002Y-38853528D01*
X108287002Y-38839470D01*
X108269460Y-38683789D01*
X108266331Y-38670081D01*
X108214594Y-38522222D01*
X108214122Y-38521242D01*
X108210743Y-38517865D01*
X108201159Y-38523888D01*
X107890279Y-38834768D01*
X107883507Y-38846498D01*
X107166489Y-38846498D01*
X107159717Y-38834768D01*
X106848842Y-38523893D01*
X106838408Y-38517337D01*
X106816677Y-38524943D01*
X106796872Y-38536382D01*
X106731650Y-38536391D01*
X106711775Y-38524919D01*
X106690090Y-38517335D01*
X106679661Y-38523888D01*
X106368781Y-38834768D01*
X106362009Y-38846498D01*
X105644991Y-38846498D01*
X105638219Y-38834768D01*
X105327344Y-38523893D01*
X105317755Y-38517868D01*
X105314369Y-38521256D01*
X105313525Y-38523009D01*
X105267043Y-38575030D01*
X105200009Y-38594348D01*
X105132972Y-38575041D01*
X105086482Y-38523027D01*
X105085622Y-38521243D01*
X105082243Y-38517865D01*
X105072659Y-38523888D01*
X104761779Y-38834768D01*
X104755007Y-38846498D01*
X104037989Y-38846498D01*
X104031217Y-38834768D01*
X103720342Y-38523893D01*
X103709908Y-38517337D01*
X103688177Y-38524943D01*
X103668372Y-38536382D01*
X103603150Y-38536391D01*
X103583275Y-38524919D01*
X103561590Y-38517335D01*
X103551161Y-38523888D01*
X103240281Y-38834768D01*
X103233509Y-38846498D01*
X102516491Y-38846498D01*
X102509719Y-38834768D01*
X102198844Y-38523893D01*
X102189255Y-38517868D01*
X102185869Y-38521255D01*
X102185411Y-38522206D01*
X102133668Y-38670081D01*
X102130539Y-38683789D01*
X102112998Y-38839470D01*
X102112998Y-38853528D01*
X101523734Y-38853528D01*
X101537858Y-38804499D01*
X101633043Y-38653015D01*
X101693217Y-38481047D01*
X101713616Y-38300000D01*
X101697927Y-38160753D01*
X102546370Y-38160753D01*
X102552393Y-38170340D01*
X102863272Y-38481218D01*
X102875000Y-38487989D01*
X102886730Y-38481217D01*
X103197605Y-38170342D01*
X103203631Y-38160752D01*
X103200251Y-38157372D01*
X103199285Y-38156906D01*
X103051418Y-38105166D01*
X103037710Y-38102037D01*
X102882030Y-38084496D01*
X102867972Y-38084496D01*
X102712291Y-38102037D01*
X102698583Y-38105166D01*
X102550708Y-38156909D01*
X102549757Y-38157367D01*
X102546370Y-38160753D01*
X101697927Y-38160753D01*
X101693217Y-38118953D01*
X101655649Y-38011590D01*
X104067335Y-38011590D01*
X104074919Y-38033275D01*
X104086391Y-38053150D01*
X104086382Y-38118372D01*
X104074943Y-38138177D01*
X104067337Y-38159908D01*
X104073891Y-38170340D01*
X104384770Y-38481218D01*
X104396498Y-38487989D01*
X104408228Y-38481217D01*
X104719103Y-38170342D01*
X104725660Y-38159907D01*
X104718073Y-38138223D01*
X104706608Y-38118364D01*
X104706599Y-38053158D01*
X104718099Y-38033226D01*
X104725662Y-38011591D01*
X104725661Y-38011590D01*
X105674337Y-38011590D01*
X105681921Y-38033275D01*
X105693393Y-38053150D01*
X105693384Y-38118372D01*
X105681945Y-38138177D01*
X105674339Y-38159908D01*
X105680893Y-38170340D01*
X105991772Y-38481218D01*
X106003500Y-38487989D01*
X106015230Y-38481217D01*
X106326105Y-38170342D01*
X106332130Y-38160753D01*
X107196368Y-38160753D01*
X107202391Y-38170340D01*
X107513270Y-38481218D01*
X107524998Y-38487989D01*
X107536728Y-38481217D01*
X107847603Y-38170342D01*
X107853629Y-38160752D01*
X107850249Y-38157372D01*
X107849283Y-38156906D01*
X107701416Y-38105166D01*
X107687708Y-38102037D01*
X107532028Y-38084496D01*
X107517970Y-38084496D01*
X107362289Y-38102037D01*
X107348581Y-38105166D01*
X107200706Y-38156909D01*
X107199755Y-38157367D01*
X107196368Y-38160753D01*
X106332130Y-38160753D01*
X106332662Y-38159907D01*
X106325075Y-38138223D01*
X106313610Y-38118364D01*
X106313601Y-38053158D01*
X106325101Y-38033226D01*
X106332664Y-38011591D01*
X106326108Y-38001159D01*
X106015230Y-37690281D01*
X106003500Y-37683509D01*
X105991772Y-37690280D01*
X105680890Y-38001161D01*
X105674337Y-38011590D01*
X104725661Y-38011590D01*
X104719106Y-38001159D01*
X104408228Y-37690281D01*
X104396498Y-37683509D01*
X104384770Y-37690280D01*
X104073888Y-38001161D01*
X104067335Y-38011590D01*
X101655649Y-38011590D01*
X101633043Y-37946985D01*
X101567372Y-37842471D01*
X101539878Y-37798714D01*
X101539877Y-37798713D01*
X101536111Y-37792719D01*
X101407281Y-37663889D01*
X101401287Y-37660123D01*
X101401285Y-37660121D01*
X101259006Y-37570721D01*
X101259003Y-37570719D01*
X101253015Y-37566957D01*
X101246339Y-37564621D01*
X101246337Y-37564620D01*
X101246244Y-37564587D01*
X101246140Y-37564551D01*
X101246018Y-37564467D01*
X101239961Y-37561550D01*
X101240423Y-37560590D01*
X101191033Y-37526372D01*
X101163308Y-37465332D01*
X101170815Y-37398712D01*
X101211430Y-37345373D01*
X101244695Y-37332030D01*
X103634496Y-37332030D01*
X103652037Y-37487710D01*
X103655166Y-37501418D01*
X103706906Y-37649285D01*
X103707372Y-37650251D01*
X103710752Y-37653631D01*
X103720342Y-37647605D01*
X104031217Y-37336730D01*
X104037989Y-37325000D01*
X104755007Y-37325000D01*
X104761779Y-37336730D01*
X105072657Y-37647608D01*
X105082245Y-37653633D01*
X105085616Y-37650264D01*
X105086489Y-37648455D01*
X105132980Y-37596451D01*
X105200013Y-37577149D01*
X105267041Y-37596466D01*
X105313521Y-37648480D01*
X105314374Y-37650251D01*
X105317754Y-37653631D01*
X105327344Y-37647605D01*
X105638219Y-37336730D01*
X105644991Y-37325000D01*
X106362009Y-37325000D01*
X106368781Y-37336730D01*
X106679659Y-37647608D01*
X106689247Y-37653633D01*
X106692619Y-37650263D01*
X106693098Y-37649271D01*
X106744833Y-37501418D01*
X106747962Y-37487710D01*
X106765504Y-37332030D01*
X106765504Y-37317972D01*
X106747962Y-37162291D01*
X106744833Y-37148583D01*
X106693096Y-37000724D01*
X106692624Y-36999744D01*
X106689245Y-36996367D01*
X106679661Y-37002390D01*
X106368780Y-37313272D01*
X106362009Y-37325000D01*
X105644991Y-37325000D01*
X105638220Y-37313272D01*
X105327342Y-37002393D01*
X105317755Y-36996370D01*
X105314369Y-36999758D01*
X105313525Y-37001511D01*
X105267043Y-37053532D01*
X105200009Y-37072850D01*
X105132972Y-37053543D01*
X105086482Y-37001529D01*
X105085622Y-36999745D01*
X105082243Y-36996367D01*
X105072659Y-37002390D01*
X104761778Y-37313272D01*
X104755007Y-37325000D01*
X104037989Y-37325000D01*
X104031218Y-37313272D01*
X103720340Y-37002393D01*
X103710753Y-36996370D01*
X103707367Y-36999757D01*
X103706909Y-37000708D01*
X103655166Y-37148583D01*
X103652037Y-37162291D01*
X103634496Y-37317972D01*
X103634496Y-37332030D01*
X101244695Y-37332030D01*
X101273652Y-37320415D01*
X101288724Y-37318717D01*
X101460692Y-37258543D01*
X101614958Y-37161611D01*
X101743788Y-37032781D01*
X101840720Y-36878515D01*
X101900894Y-36706547D01*
X101906137Y-36660009D01*
X101914733Y-36639255D01*
X104067868Y-36639255D01*
X104073891Y-36648842D01*
X104384770Y-36959720D01*
X104396498Y-36966491D01*
X104408228Y-36959719D01*
X104719103Y-36648844D01*
X104725128Y-36639255D01*
X105674870Y-36639255D01*
X105680893Y-36648842D01*
X105991772Y-36959720D01*
X106003500Y-36966491D01*
X106015230Y-36959719D01*
X106326105Y-36648844D01*
X106332131Y-36639254D01*
X106328751Y-36635874D01*
X106327785Y-36635408D01*
X106179918Y-36583668D01*
X106166210Y-36580539D01*
X106010530Y-36562998D01*
X105996472Y-36562998D01*
X105840791Y-36580539D01*
X105827083Y-36583668D01*
X105679208Y-36635411D01*
X105678257Y-36635869D01*
X105674870Y-36639255D01*
X104725128Y-36639255D01*
X104725129Y-36639254D01*
X104721749Y-36635874D01*
X104720783Y-36635408D01*
X104572916Y-36583668D01*
X104559208Y-36580539D01*
X104403528Y-36562998D01*
X104389470Y-36562998D01*
X104233789Y-36580539D01*
X104220081Y-36583668D01*
X104072206Y-36635411D01*
X104071255Y-36635869D01*
X104067868Y-36639255D01*
X101914733Y-36639255D01*
X101932834Y-36595556D01*
X101989732Y-36555186D01*
X101997226Y-36552564D01*
X102053015Y-36533043D01*
X102207281Y-36436111D01*
X102336111Y-36307281D01*
X102433043Y-36153015D01*
X102493217Y-35981047D01*
X102513616Y-35800000D01*
X102493217Y-35618953D01*
X102433043Y-35446985D01*
X102403520Y-35400000D01*
X104686384Y-35400000D01*
X104706783Y-35581047D01*
X104709118Y-35587720D01*
X104709119Y-35587724D01*
X104764619Y-35746335D01*
X104764621Y-35746339D01*
X104766957Y-35753015D01*
X104770719Y-35759003D01*
X104770721Y-35759006D01*
X104852646Y-35889389D01*
X104863889Y-35907281D01*
X104992719Y-36036111D01*
X105146985Y-36133043D01*
X105318953Y-36193217D01*
X105500000Y-36213616D01*
X105681047Y-36193217D01*
X105853015Y-36133043D01*
X106007281Y-36036111D01*
X106037019Y-36006371D01*
X106093502Y-35973759D01*
X106158726Y-35973758D01*
X106215211Y-36006370D01*
X106276827Y-36067986D01*
X106282821Y-36071752D01*
X106282822Y-36071753D01*
X106419996Y-36157945D01*
X106431093Y-36164918D01*
X106603061Y-36225092D01*
X106784108Y-36245491D01*
X106965155Y-36225092D01*
X107137123Y-36164918D01*
X107148222Y-36157943D01*
X107201152Y-36139418D01*
X107256877Y-36145695D01*
X107402052Y-36196494D01*
X107583099Y-36216893D01*
X107590128Y-36216101D01*
X107590132Y-36216101D01*
X107610143Y-36213845D01*
X107626966Y-36211950D01*
X107682690Y-36218227D01*
X107730171Y-36248062D01*
X107818220Y-36336111D01*
X107824214Y-36339877D01*
X107824215Y-36339878D01*
X107966494Y-36429278D01*
X107972486Y-36433043D01*
X108144454Y-36493217D01*
X108325501Y-36513616D01*
X108506548Y-36493217D01*
X108678516Y-36433043D01*
X108832782Y-36336111D01*
X108961612Y-36207281D01*
X109058544Y-36053015D01*
X109118718Y-35881047D01*
X109139117Y-35700000D01*
X109118718Y-35518953D01*
X109058544Y-35346985D01*
X108986949Y-35233043D01*
X108965379Y-35198714D01*
X108965378Y-35198713D01*
X108961612Y-35192719D01*
X108832782Y-35063889D01*
X108826788Y-35060123D01*
X108826786Y-35060121D01*
X108684507Y-34970721D01*
X108684504Y-34970719D01*
X108678516Y-34966957D01*
X108671840Y-34964621D01*
X108671836Y-34964619D01*
X108513225Y-34909119D01*
X108513221Y-34909118D01*
X108506548Y-34906783D01*
X108452284Y-34900669D01*
X108356511Y-34889878D01*
X108325501Y-34886384D01*
X108318471Y-34887176D01*
X108318467Y-34887176D01*
X108281626Y-34891326D01*
X108225905Y-34885047D01*
X108178427Y-34855213D01*
X108095388Y-34772174D01*
X108090380Y-34767166D01*
X108084386Y-34763400D01*
X108084384Y-34763398D01*
X107942105Y-34673998D01*
X107942102Y-34673996D01*
X107936114Y-34670234D01*
X107929438Y-34667898D01*
X107929434Y-34667896D01*
X107770823Y-34612396D01*
X107770819Y-34612395D01*
X107764146Y-34610060D01*
X107755794Y-34609119D01*
X107642333Y-34596335D01*
X107583099Y-34589661D01*
X107549912Y-34593400D01*
X107409080Y-34609268D01*
X107409078Y-34609268D01*
X107402052Y-34610060D01*
X107395379Y-34612394D01*
X107395374Y-34612396D01*
X107236762Y-34667896D01*
X107236752Y-34667900D01*
X107230084Y-34670234D01*
X107224101Y-34673993D01*
X107224089Y-34673999D01*
X107218974Y-34677214D01*
X107166047Y-34695734D01*
X107110325Y-34689455D01*
X106971832Y-34640994D01*
X106971828Y-34640993D01*
X106965155Y-34638658D01*
X106784108Y-34618259D01*
X106777079Y-34619051D01*
X106610089Y-34637866D01*
X106610087Y-34637866D01*
X106603061Y-34638658D01*
X106596388Y-34640992D01*
X106596383Y-34640994D01*
X106437772Y-34696494D01*
X106437764Y-34696497D01*
X106431093Y-34698832D01*
X106425108Y-34702592D01*
X106425101Y-34702596D01*
X106282818Y-34791999D01*
X106282814Y-34792001D01*
X106276827Y-34795764D01*
X106271831Y-34800759D01*
X106271817Y-34800771D01*
X106247082Y-34825506D01*
X106190598Y-34858115D01*
X106125377Y-34858114D01*
X106068895Y-34825503D01*
X106012289Y-34768897D01*
X106007281Y-34763889D01*
X106001287Y-34760123D01*
X106001285Y-34760121D01*
X105859006Y-34670721D01*
X105859003Y-34670719D01*
X105853015Y-34666957D01*
X105846339Y-34664621D01*
X105846335Y-34664619D01*
X105687724Y-34609119D01*
X105687720Y-34609118D01*
X105681047Y-34606783D01*
X105500000Y-34586384D01*
X105492971Y-34587176D01*
X105325981Y-34605991D01*
X105325979Y-34605991D01*
X105318953Y-34606783D01*
X105312280Y-34609117D01*
X105312275Y-34609119D01*
X105153664Y-34664619D01*
X105153656Y-34664622D01*
X105146985Y-34666957D01*
X105141000Y-34670717D01*
X105140993Y-34670721D01*
X104998714Y-34760121D01*
X104998707Y-34760126D01*
X104992719Y-34763889D01*
X104987714Y-34768893D01*
X104987710Y-34768897D01*
X104868897Y-34887710D01*
X104868893Y-34887714D01*
X104863889Y-34892719D01*
X104860126Y-34898707D01*
X104860121Y-34898714D01*
X104770721Y-35040993D01*
X104770717Y-35041000D01*
X104766957Y-35046985D01*
X104764622Y-35053656D01*
X104764619Y-35053664D01*
X104709119Y-35212275D01*
X104709117Y-35212280D01*
X104706783Y-35218953D01*
X104686384Y-35400000D01*
X102403520Y-35400000D01*
X102351525Y-35317250D01*
X102339878Y-35298714D01*
X102339877Y-35298713D01*
X102336111Y-35292719D01*
X102207281Y-35163889D01*
X102201287Y-35160123D01*
X102201285Y-35160121D01*
X102059006Y-35070721D01*
X102059003Y-35070719D01*
X102053015Y-35066957D01*
X102046339Y-35064621D01*
X102046335Y-35064619D01*
X101887724Y-35009119D01*
X101887720Y-35009118D01*
X101881047Y-35006783D01*
X101700000Y-34986384D01*
X101692971Y-34987176D01*
X101525981Y-35005991D01*
X101525979Y-35005991D01*
X101518953Y-35006783D01*
X101512280Y-35009117D01*
X101512275Y-35009119D01*
X101353664Y-35064619D01*
X101353656Y-35064622D01*
X101346985Y-35066957D01*
X101341000Y-35070717D01*
X101340993Y-35070721D01*
X101198714Y-35160121D01*
X101198707Y-35160126D01*
X101192719Y-35163889D01*
X101187714Y-35168893D01*
X101187710Y-35168897D01*
X101068897Y-35287710D01*
X101068893Y-35287714D01*
X101063889Y-35292719D01*
X101060126Y-35298707D01*
X101060121Y-35298714D01*
X100970721Y-35440993D01*
X100970717Y-35441000D01*
X100966957Y-35446985D01*
X100964622Y-35453656D01*
X100964619Y-35453664D01*
X100917710Y-35587724D01*
X100906783Y-35618953D01*
X100905991Y-35625979D01*
X100905991Y-35625981D01*
X100901539Y-35665492D01*
X100874842Y-35729942D01*
X100817948Y-35770312D01*
X100761337Y-35790121D01*
X100761334Y-35790122D01*
X100754662Y-35792457D01*
X100748677Y-35796217D01*
X100748670Y-35796221D01*
X100606391Y-35885621D01*
X100606384Y-35885626D01*
X100600396Y-35889389D01*
X100595391Y-35894393D01*
X100595387Y-35894397D01*
X100476574Y-36013210D01*
X100476570Y-36013214D01*
X100471566Y-36018219D01*
X100467803Y-36024207D01*
X100467798Y-36024214D01*
X100378398Y-36166493D01*
X100378394Y-36166500D01*
X100374634Y-36172485D01*
X100372299Y-36179156D01*
X100372296Y-36179164D01*
X100316796Y-36337775D01*
X100316794Y-36337780D01*
X100314460Y-36344453D01*
X100313668Y-36351479D01*
X100313668Y-36351481D01*
X100308788Y-36394795D01*
X100294061Y-36525500D01*
X100314460Y-36706547D01*
X100316795Y-36713220D01*
X100316796Y-36713224D01*
X100372296Y-36871835D01*
X100372298Y-36871839D01*
X100374634Y-36878515D01*
X100378396Y-36884503D01*
X100378398Y-36884506D01*
X100452862Y-37003015D01*
X100471566Y-37032781D01*
X100600396Y-37161611D01*
X100606390Y-37165377D01*
X100606391Y-37165378D01*
X100676803Y-37209621D01*
X100754662Y-37258543D01*
X100761529Y-37260945D01*
X100761646Y-37261026D01*
X100767716Y-37263950D01*
X100767253Y-37264910D01*
X100816636Y-37299119D01*
X100844366Y-37360157D01*
X100836864Y-37426778D01*
X100796254Y-37480121D01*
X100734032Y-37505083D01*
X100725983Y-37505990D01*
X100725975Y-37505991D01*
X100718953Y-37506783D01*
X100712288Y-37509114D01*
X100712275Y-37509118D01*
X100661468Y-37526896D01*
X100601541Y-37532628D01*
X100545794Y-37509902D01*
X100484448Y-37465332D01*
X100406752Y-37408882D01*
X100232288Y-37331206D01*
X100225835Y-37329834D01*
X100225831Y-37329833D01*
X100051943Y-37292872D01*
X100051940Y-37292871D01*
X100045487Y-37291500D01*
X99854513Y-37291500D01*
X99848060Y-37292871D01*
X99848056Y-37292872D01*
X99674168Y-37329833D01*
X99674161Y-37329835D01*
X99667712Y-37331206D01*
X99661682Y-37333890D01*
X99661681Y-37333891D01*
X99499278Y-37406197D01*
X99499275Y-37406198D01*
X99493248Y-37408882D01*
X99487907Y-37412762D01*
X99487906Y-37412763D01*
X99344091Y-37517250D01*
X99344083Y-37517256D01*
X99338747Y-37521134D01*
X99334330Y-37526039D01*
X99334325Y-37526044D01*
X99222479Y-37650263D01*
X99210960Y-37663056D01*
X99207661Y-37668769D01*
X99207658Y-37668774D01*
X99118777Y-37822721D01*
X99115473Y-37828444D01*
X99113434Y-37834718D01*
X99113430Y-37834728D01*
X99058497Y-38003794D01*
X99058495Y-38003801D01*
X99056458Y-38010072D01*
X99055768Y-38016633D01*
X99055768Y-38016635D01*
X99050149Y-38070097D01*
X99036496Y-38200000D01*
X97620846Y-38200000D01*
X97500000Y-38186384D01*
X97466813Y-38190123D01*
X97325981Y-38205991D01*
X97325979Y-38205991D01*
X97318953Y-38206783D01*
X97312280Y-38209117D01*
X97312275Y-38209119D01*
X97153664Y-38264619D01*
X97153656Y-38264622D01*
X97146985Y-38266957D01*
X97141000Y-38270717D01*
X97140993Y-38270721D01*
X96998714Y-38360121D01*
X96998707Y-38360126D01*
X96992719Y-38363889D01*
X96987714Y-38368893D01*
X96987710Y-38368897D01*
X96868897Y-38487710D01*
X96868893Y-38487714D01*
X96863889Y-38492719D01*
X96860126Y-38498707D01*
X96860121Y-38498714D01*
X96770721Y-38640993D01*
X96770717Y-38641000D01*
X96766957Y-38646985D01*
X96764622Y-38653656D01*
X96764619Y-38653664D01*
X96709119Y-38812275D01*
X96709117Y-38812280D01*
X96706783Y-38818953D01*
X96686384Y-39000000D01*
X96043392Y-39000000D01*
X96136111Y-38907281D01*
X96233043Y-38753015D01*
X96293217Y-38581047D01*
X96313616Y-38400000D01*
X96293217Y-38218953D01*
X96233043Y-38046985D01*
X96136111Y-37892719D01*
X96007281Y-37763889D01*
X96001287Y-37760123D01*
X96001285Y-37760121D01*
X95859006Y-37670721D01*
X95859003Y-37670719D01*
X95853015Y-37666957D01*
X95846339Y-37664621D01*
X95846335Y-37664619D01*
X95687724Y-37609119D01*
X95687720Y-37609118D01*
X95681047Y-37606783D01*
X95500000Y-37586384D01*
X95492971Y-37587176D01*
X95325981Y-37605991D01*
X95325979Y-37605991D01*
X95318953Y-37606783D01*
X95312280Y-37609117D01*
X95312275Y-37609119D01*
X95153664Y-37664619D01*
X95153656Y-37664622D01*
X95146985Y-37666957D01*
X95141000Y-37670717D01*
X95140993Y-37670721D01*
X94998714Y-37760121D01*
X94998707Y-37760126D01*
X94992719Y-37763889D01*
X94987714Y-37768893D01*
X94987710Y-37768897D01*
X94868897Y-37887710D01*
X94868893Y-37887714D01*
X94863889Y-37892719D01*
X94860126Y-37898707D01*
X94860121Y-37898714D01*
X94770721Y-38040993D01*
X94770717Y-38041000D01*
X94766957Y-38046985D01*
X94764622Y-38053656D01*
X94764619Y-38053664D01*
X94709119Y-38212275D01*
X94709117Y-38212280D01*
X94706783Y-38218953D01*
X94705991Y-38225979D01*
X94705991Y-38225981D01*
X94693158Y-38339878D01*
X94686384Y-38400000D01*
X93405602Y-38400000D01*
X93507281Y-38336111D01*
X93636111Y-38207281D01*
X93733043Y-38053015D01*
X93793217Y-37881047D01*
X93813616Y-37700000D01*
X93793217Y-37518953D01*
X93733043Y-37346985D01*
X93726599Y-37336730D01*
X93639878Y-37198714D01*
X93639877Y-37198713D01*
X93636111Y-37192719D01*
X93507281Y-37063889D01*
X93501287Y-37060123D01*
X93501285Y-37060121D01*
X93359006Y-36970721D01*
X93359003Y-36970719D01*
X93353015Y-36966957D01*
X93346339Y-36964621D01*
X93346335Y-36964619D01*
X93187724Y-36909119D01*
X93187720Y-36909118D01*
X93181047Y-36906783D01*
X93000000Y-36886384D01*
X92992971Y-36887176D01*
X92825981Y-36905991D01*
X92825979Y-36905991D01*
X92818953Y-36906783D01*
X92812280Y-36909117D01*
X92812275Y-36909119D01*
X92653664Y-36964619D01*
X92653656Y-36964622D01*
X92646985Y-36966957D01*
X92641000Y-36970717D01*
X92640993Y-36970721D01*
X92498714Y-37060121D01*
X92498707Y-37060126D01*
X92492719Y-37063889D01*
X92487714Y-37068893D01*
X92487710Y-37068897D01*
X92368897Y-37187710D01*
X92368893Y-37187714D01*
X92363889Y-37192719D01*
X92360126Y-37198707D01*
X92360121Y-37198714D01*
X92270721Y-37340993D01*
X92270717Y-37341000D01*
X92266957Y-37346985D01*
X92264622Y-37353656D01*
X92264619Y-37353664D01*
X92209119Y-37512275D01*
X92209117Y-37512280D01*
X92206783Y-37518953D01*
X92205991Y-37525979D01*
X92205991Y-37525981D01*
X92191608Y-37653633D01*
X92186384Y-37700000D01*
X82004830Y-37700000D01*
X82004553Y-36525000D01*
X95302902Y-36525000D01*
X95323301Y-36706047D01*
X95325636Y-36712720D01*
X95325637Y-36712724D01*
X95381137Y-36871335D01*
X95381139Y-36871339D01*
X95383475Y-36878015D01*
X95387237Y-36884003D01*
X95387239Y-36884006D01*
X95462017Y-37003015D01*
X95480407Y-37032281D01*
X95609237Y-37161111D01*
X95763503Y-37258043D01*
X95935471Y-37318217D01*
X96116518Y-37338616D01*
X96297565Y-37318217D01*
X96469533Y-37258043D01*
X96623799Y-37161111D01*
X96752629Y-37032281D01*
X96849561Y-36878015D01*
X96909735Y-36706047D01*
X96930134Y-36525000D01*
X96909735Y-36343953D01*
X96849561Y-36171985D01*
X96845796Y-36165993D01*
X96756396Y-36023714D01*
X96756395Y-36023713D01*
X96752629Y-36017719D01*
X96623799Y-35888889D01*
X96617805Y-35885123D01*
X96617803Y-35885121D01*
X96475524Y-35795721D01*
X96475521Y-35795719D01*
X96469533Y-35791957D01*
X96462857Y-35789621D01*
X96462853Y-35789619D01*
X96304242Y-35734119D01*
X96304238Y-35734118D01*
X96297565Y-35731783D01*
X96116518Y-35711384D01*
X96109489Y-35712176D01*
X95942499Y-35730991D01*
X95942497Y-35730991D01*
X95935471Y-35731783D01*
X95928798Y-35734117D01*
X95928793Y-35734119D01*
X95770182Y-35789619D01*
X95770174Y-35789622D01*
X95763503Y-35791957D01*
X95757518Y-35795717D01*
X95757511Y-35795721D01*
X95615232Y-35885121D01*
X95615225Y-35885126D01*
X95609237Y-35888889D01*
X95604232Y-35893893D01*
X95604228Y-35893897D01*
X95485415Y-36012710D01*
X95485411Y-36012714D01*
X95480407Y-36017719D01*
X95476644Y-36023707D01*
X95476639Y-36023714D01*
X95387239Y-36165993D01*
X95387235Y-36166000D01*
X95383475Y-36171985D01*
X95381140Y-36178656D01*
X95381137Y-36178664D01*
X95325637Y-36337275D01*
X95325635Y-36337280D01*
X95323301Y-36343953D01*
X95322509Y-36350979D01*
X95322509Y-36350981D01*
X95317133Y-36398698D01*
X95302902Y-36525000D01*
X82004553Y-36525000D01*
X82004055Y-34409500D01*
X86186384Y-34409500D01*
X86206783Y-34590547D01*
X86209118Y-34597220D01*
X86209119Y-34597224D01*
X86264619Y-34755835D01*
X86264621Y-34755839D01*
X86266957Y-34762515D01*
X86270719Y-34768503D01*
X86270721Y-34768506D01*
X86359074Y-34909119D01*
X86363889Y-34916781D01*
X86492719Y-35045611D01*
X86498713Y-35049377D01*
X86498714Y-35049378D01*
X86598814Y-35112275D01*
X86646985Y-35142543D01*
X86818953Y-35202717D01*
X87000000Y-35223116D01*
X87181047Y-35202717D01*
X87353015Y-35142543D01*
X87507281Y-35045611D01*
X87515651Y-35037240D01*
X87572134Y-35004627D01*
X87637359Y-35004625D01*
X87693845Y-35037237D01*
X87792719Y-35136111D01*
X87798713Y-35139877D01*
X87798714Y-35139878D01*
X87899980Y-35203508D01*
X87946985Y-35233043D01*
X88118953Y-35293217D01*
X88300000Y-35313616D01*
X88481047Y-35293217D01*
X88653015Y-35233043D01*
X88751924Y-35170894D01*
X96934499Y-35170894D01*
X96954898Y-35351941D01*
X96957233Y-35358614D01*
X96957234Y-35358618D01*
X97012734Y-35517229D01*
X97012736Y-35517233D01*
X97015072Y-35523909D01*
X97018834Y-35529897D01*
X97018836Y-35529900D01*
X97104714Y-35666574D01*
X97112004Y-35678175D01*
X97240834Y-35807005D01*
X97246828Y-35810771D01*
X97246829Y-35810772D01*
X97320055Y-35856783D01*
X97395100Y-35903937D01*
X97567068Y-35964111D01*
X97748115Y-35984510D01*
X97929162Y-35964111D01*
X98101130Y-35903937D01*
X98255396Y-35807005D01*
X98384226Y-35678175D01*
X98432280Y-35601696D01*
X98484296Y-35555212D01*
X98553072Y-35543526D01*
X98617524Y-35570222D01*
X98657894Y-35627116D01*
X98664619Y-35646334D01*
X98664619Y-35646335D01*
X98666957Y-35653015D01*
X98670719Y-35659003D01*
X98670721Y-35659006D01*
X98756939Y-35796221D01*
X98763889Y-35807281D01*
X98892719Y-35936111D01*
X98898713Y-35939877D01*
X98898714Y-35939878D01*
X99004535Y-36006370D01*
X99046985Y-36033043D01*
X99218953Y-36093217D01*
X99400000Y-36113616D01*
X99581047Y-36093217D01*
X99753015Y-36033043D01*
X99907281Y-35936111D01*
X100036111Y-35807281D01*
X100133043Y-35653015D01*
X100193217Y-35481047D01*
X100213616Y-35300000D01*
X100193217Y-35118953D01*
X100133043Y-34946985D01*
X100058535Y-34828407D01*
X100039878Y-34798714D01*
X100039876Y-34798711D01*
X100036111Y-34792719D01*
X99907281Y-34663889D01*
X99901287Y-34660123D01*
X99901285Y-34660121D01*
X99759006Y-34570721D01*
X99759003Y-34570719D01*
X99753015Y-34566957D01*
X99746339Y-34564621D01*
X99746335Y-34564619D01*
X99587724Y-34509119D01*
X99587720Y-34509118D01*
X99581047Y-34506783D01*
X99557678Y-34504150D01*
X99490523Y-34496583D01*
X99400000Y-34486384D01*
X99392971Y-34487176D01*
X99225981Y-34505991D01*
X99225979Y-34505991D01*
X99218953Y-34506783D01*
X99212280Y-34509117D01*
X99212275Y-34509119D01*
X99053664Y-34564619D01*
X99053656Y-34564622D01*
X99046985Y-34566957D01*
X99041000Y-34570717D01*
X99040993Y-34570721D01*
X98898714Y-34660121D01*
X98898707Y-34660126D01*
X98892719Y-34663889D01*
X98887714Y-34668893D01*
X98887710Y-34668897D01*
X98768897Y-34787710D01*
X98768893Y-34787714D01*
X98763889Y-34792719D01*
X98760123Y-34798711D01*
X98760124Y-34798711D01*
X98715835Y-34869196D01*
X98663817Y-34915681D01*
X98595040Y-34927367D01*
X98530588Y-34900669D01*
X98490219Y-34843774D01*
X98483495Y-34824558D01*
X98481158Y-34817879D01*
X98465349Y-34792719D01*
X98387993Y-34669608D01*
X98387992Y-34669607D01*
X98384226Y-34663613D01*
X98255396Y-34534783D01*
X98249402Y-34531017D01*
X98249400Y-34531015D01*
X98107121Y-34441615D01*
X98107118Y-34441613D01*
X98101130Y-34437851D01*
X98094454Y-34435515D01*
X98094450Y-34435513D01*
X97935839Y-34380013D01*
X97935835Y-34380012D01*
X97929162Y-34377677D01*
X97748115Y-34357278D01*
X97741086Y-34358070D01*
X97574096Y-34376885D01*
X97574094Y-34376885D01*
X97567068Y-34377677D01*
X97560395Y-34380011D01*
X97560390Y-34380013D01*
X97401779Y-34435513D01*
X97401771Y-34435516D01*
X97395100Y-34437851D01*
X97389115Y-34441611D01*
X97389108Y-34441615D01*
X97246829Y-34531015D01*
X97246822Y-34531020D01*
X97240834Y-34534783D01*
X97235829Y-34539787D01*
X97235825Y-34539791D01*
X97117012Y-34658604D01*
X97117008Y-34658608D01*
X97112004Y-34663613D01*
X97108241Y-34669601D01*
X97108236Y-34669608D01*
X97018836Y-34811887D01*
X97018832Y-34811894D01*
X97015072Y-34817879D01*
X97012737Y-34824550D01*
X97012734Y-34824558D01*
X96957234Y-34983169D01*
X96957232Y-34983174D01*
X96954898Y-34989847D01*
X96954106Y-34996873D01*
X96954106Y-34996875D01*
X96942480Y-35100060D01*
X96934499Y-35170894D01*
X88751924Y-35170894D01*
X88807281Y-35136111D01*
X88936111Y-35007281D01*
X89033043Y-34853015D01*
X89093217Y-34681047D01*
X89113616Y-34500000D01*
X89093217Y-34318953D01*
X89033043Y-34146985D01*
X88936111Y-33992719D01*
X88807281Y-33863889D01*
X88801287Y-33860123D01*
X88801285Y-33860121D01*
X88659006Y-33770721D01*
X88659003Y-33770719D01*
X88653015Y-33766957D01*
X88646339Y-33764621D01*
X88646335Y-33764619D01*
X88487724Y-33709119D01*
X88487720Y-33709118D01*
X88481047Y-33706783D01*
X88300000Y-33686384D01*
X88292971Y-33687176D01*
X88125981Y-33705991D01*
X88125979Y-33705991D01*
X88118953Y-33706783D01*
X88112280Y-33709117D01*
X88112275Y-33709119D01*
X87953664Y-33764619D01*
X87953656Y-33764622D01*
X87946985Y-33766957D01*
X87941000Y-33770717D01*
X87940993Y-33770721D01*
X87798710Y-33860124D01*
X87798706Y-33860126D01*
X87792719Y-33863889D01*
X87787722Y-33868885D01*
X87787713Y-33868893D01*
X87784339Y-33872268D01*
X87727855Y-33904875D01*
X87662635Y-33904873D01*
X87606154Y-33872262D01*
X87512289Y-33778397D01*
X87512289Y-33778396D01*
X87507281Y-33773389D01*
X87501287Y-33769623D01*
X87501285Y-33769621D01*
X87359006Y-33680221D01*
X87359003Y-33680219D01*
X87353015Y-33676457D01*
X87346339Y-33674121D01*
X87346335Y-33674119D01*
X87187724Y-33618619D01*
X87187720Y-33618618D01*
X87181047Y-33616283D01*
X87126357Y-33610121D01*
X87007029Y-33596676D01*
X87000000Y-33595884D01*
X86992971Y-33596676D01*
X86825981Y-33615491D01*
X86825979Y-33615491D01*
X86818953Y-33616283D01*
X86812280Y-33618617D01*
X86812275Y-33618619D01*
X86653664Y-33674119D01*
X86653656Y-33674122D01*
X86646985Y-33676457D01*
X86641000Y-33680217D01*
X86640993Y-33680221D01*
X86498714Y-33769621D01*
X86498707Y-33769626D01*
X86492719Y-33773389D01*
X86487714Y-33778393D01*
X86487710Y-33778397D01*
X86368897Y-33897210D01*
X86368893Y-33897214D01*
X86363889Y-33902219D01*
X86360126Y-33908207D01*
X86360121Y-33908214D01*
X86270721Y-34050493D01*
X86270717Y-34050500D01*
X86266957Y-34056485D01*
X86264622Y-34063156D01*
X86264619Y-34063164D01*
X86209119Y-34221775D01*
X86209117Y-34221780D01*
X86206783Y-34228453D01*
X86186384Y-34409500D01*
X82004055Y-34409500D01*
X82003746Y-33100000D01*
X89286384Y-33100000D01*
X89306783Y-33281047D01*
X89309118Y-33287720D01*
X89309119Y-33287724D01*
X89364619Y-33446335D01*
X89364621Y-33446339D01*
X89366957Y-33453015D01*
X89370719Y-33459003D01*
X89370721Y-33459006D01*
X89456727Y-33595884D01*
X89463889Y-33607281D01*
X89592719Y-33736111D01*
X89598713Y-33739877D01*
X89598714Y-33739878D01*
X89620654Y-33753664D01*
X89746985Y-33833043D01*
X89918953Y-33893217D01*
X90100000Y-33913616D01*
X90254331Y-33896227D01*
X90310053Y-33902506D01*
X90357533Y-33932339D01*
X90387367Y-33979819D01*
X90393646Y-34035541D01*
X90390534Y-34063164D01*
X90386384Y-34100000D01*
X90406783Y-34281047D01*
X90409118Y-34287720D01*
X90409119Y-34287724D01*
X90464619Y-34446335D01*
X90464621Y-34446339D01*
X90466957Y-34453015D01*
X90470719Y-34459003D01*
X90470721Y-34459006D01*
X90557569Y-34597224D01*
X90563889Y-34607281D01*
X90692719Y-34736111D01*
X90698713Y-34739877D01*
X90698714Y-34739878D01*
X90822852Y-34817879D01*
X90846985Y-34833043D01*
X91018953Y-34893217D01*
X91200000Y-34913616D01*
X91381047Y-34893217D01*
X91553015Y-34833043D01*
X91707281Y-34736111D01*
X91836111Y-34607281D01*
X91933043Y-34453015D01*
X91993217Y-34281047D01*
X92013616Y-34100000D01*
X91993217Y-33918953D01*
X91933043Y-33746985D01*
X91848408Y-33612289D01*
X91839878Y-33598714D01*
X91839877Y-33598713D01*
X91836111Y-33592719D01*
X91707281Y-33463889D01*
X91701287Y-33460123D01*
X91701285Y-33460121D01*
X91559006Y-33370721D01*
X91559003Y-33370719D01*
X91553015Y-33366957D01*
X91546339Y-33364621D01*
X91546335Y-33364619D01*
X91387724Y-33309119D01*
X91387720Y-33309118D01*
X91381047Y-33306783D01*
X91200000Y-33286384D01*
X91192971Y-33287176D01*
X91192970Y-33287176D01*
X91045668Y-33303772D01*
X90989945Y-33297493D01*
X90942465Y-33267659D01*
X90912631Y-33220178D01*
X90906353Y-33164458D01*
X90908320Y-33147002D01*
X103586496Y-33147002D01*
X103587186Y-33153567D01*
X103600584Y-33281047D01*
X103606458Y-33336930D01*
X103608495Y-33343202D01*
X103608497Y-33343207D01*
X103663430Y-33512273D01*
X103663433Y-33512280D01*
X103665473Y-33518558D01*
X103760960Y-33683946D01*
X103888747Y-33825868D01*
X103894089Y-33829749D01*
X103894091Y-33829751D01*
X103901839Y-33835380D01*
X104043248Y-33938120D01*
X104217712Y-34015796D01*
X104404513Y-34055502D01*
X104588884Y-34055502D01*
X104595487Y-34055502D01*
X104782288Y-34015796D01*
X104902445Y-33962299D01*
X112524197Y-33962299D01*
X112524887Y-33968864D01*
X112539408Y-34107029D01*
X112544159Y-34152227D01*
X112546196Y-34158499D01*
X112546198Y-34158504D01*
X112601131Y-34327570D01*
X112601134Y-34327577D01*
X112603174Y-34333855D01*
X112698661Y-34499243D01*
X112826448Y-34641165D01*
X112831790Y-34645046D01*
X112831792Y-34645048D01*
X112861947Y-34666957D01*
X112980949Y-34753417D01*
X113155413Y-34831093D01*
X113342214Y-34870799D01*
X113526585Y-34870799D01*
X113533188Y-34870799D01*
X113719989Y-34831093D01*
X113894453Y-34753417D01*
X114048954Y-34641165D01*
X114176741Y-34499243D01*
X114272228Y-34333855D01*
X114299474Y-34250000D01*
X115186384Y-34250000D01*
X115206783Y-34431047D01*
X115209118Y-34437720D01*
X115209119Y-34437724D01*
X115264619Y-34596335D01*
X115264621Y-34596339D01*
X115266957Y-34603015D01*
X115270719Y-34609003D01*
X115270721Y-34609006D01*
X115359021Y-34749535D01*
X115363889Y-34757281D01*
X115492719Y-34886111D01*
X115498713Y-34889877D01*
X115498714Y-34889878D01*
X115515888Y-34900669D01*
X115646985Y-34983043D01*
X115818953Y-35043217D01*
X116000000Y-35063616D01*
X116181047Y-35043217D01*
X116353015Y-34983043D01*
X116507281Y-34886111D01*
X116636111Y-34757281D01*
X116733043Y-34603015D01*
X116793217Y-34431047D01*
X116813616Y-34250000D01*
X116793217Y-34068953D01*
X116733043Y-33896985D01*
X116717512Y-33872268D01*
X116639878Y-33748714D01*
X116639877Y-33748713D01*
X116636111Y-33742719D01*
X116507281Y-33613889D01*
X116501287Y-33610123D01*
X116501285Y-33610121D01*
X116359006Y-33520721D01*
X116359003Y-33520719D01*
X116353015Y-33516957D01*
X116346339Y-33514621D01*
X116346335Y-33514619D01*
X116187724Y-33459119D01*
X116187720Y-33459118D01*
X116181047Y-33456783D01*
X116000000Y-33436384D01*
X115992971Y-33437176D01*
X115825981Y-33455991D01*
X115825979Y-33455991D01*
X115818953Y-33456783D01*
X115812280Y-33459117D01*
X115812275Y-33459119D01*
X115653664Y-33514619D01*
X115653656Y-33514622D01*
X115646985Y-33516957D01*
X115641000Y-33520717D01*
X115640993Y-33520721D01*
X115498714Y-33610121D01*
X115498707Y-33610126D01*
X115492719Y-33613889D01*
X115487714Y-33618893D01*
X115487710Y-33618897D01*
X115368897Y-33737710D01*
X115368893Y-33737714D01*
X115363889Y-33742719D01*
X115360126Y-33748707D01*
X115360121Y-33748714D01*
X115270721Y-33890993D01*
X115270717Y-33891000D01*
X115266957Y-33896985D01*
X115264622Y-33903656D01*
X115264619Y-33903664D01*
X115209119Y-34062275D01*
X115209117Y-34062280D01*
X115206783Y-34068953D01*
X115186384Y-34250000D01*
X114299474Y-34250000D01*
X114331243Y-34152227D01*
X114351205Y-33962299D01*
X114331561Y-33775396D01*
X114341637Y-33711265D01*
X114382303Y-33660661D01*
X114442762Y-33637019D01*
X114605203Y-33618717D01*
X114777171Y-33558543D01*
X114931437Y-33461611D01*
X115060267Y-33332781D01*
X115157199Y-33178515D01*
X115217373Y-33006547D01*
X115237772Y-32825500D01*
X115217373Y-32644453D01*
X115157199Y-32472485D01*
X115124280Y-32420095D01*
X115064034Y-32324214D01*
X115064033Y-32324213D01*
X115060267Y-32318219D01*
X114931437Y-32189389D01*
X114925443Y-32185623D01*
X114925441Y-32185621D01*
X114783162Y-32096221D01*
X114783159Y-32096219D01*
X114777171Y-32092457D01*
X114770495Y-32090121D01*
X114770491Y-32090119D01*
X114611880Y-32034619D01*
X114611876Y-32034618D01*
X114605203Y-32032283D01*
X114424156Y-32011884D01*
X114417127Y-32012676D01*
X114250137Y-32031491D01*
X114250135Y-32031491D01*
X114243109Y-32032283D01*
X114236436Y-32034617D01*
X114236431Y-32034619D01*
X114077820Y-32090119D01*
X114077812Y-32090122D01*
X114071141Y-32092457D01*
X114065156Y-32096217D01*
X114065149Y-32096221D01*
X113922870Y-32185621D01*
X113922863Y-32185626D01*
X113916875Y-32189389D01*
X113911870Y-32194393D01*
X113911866Y-32194397D01*
X113793053Y-32313210D01*
X113793049Y-32313214D01*
X113788045Y-32318219D01*
X113784282Y-32324207D01*
X113784277Y-32324214D01*
X113694877Y-32466493D01*
X113694873Y-32466500D01*
X113691113Y-32472485D01*
X113688778Y-32479156D01*
X113688775Y-32479164D01*
X113633275Y-32637775D01*
X113633273Y-32637780D01*
X113630939Y-32644453D01*
X113630147Y-32651479D01*
X113630147Y-32651481D01*
X113618634Y-32753664D01*
X113610540Y-32825500D01*
X113620037Y-32909791D01*
X113620477Y-32913691D01*
X113608791Y-32982468D01*
X113562305Y-33034486D01*
X113495269Y-33053799D01*
X113342214Y-33053799D01*
X113335761Y-33055170D01*
X113335757Y-33055171D01*
X113161869Y-33092132D01*
X113161862Y-33092134D01*
X113155413Y-33093505D01*
X113149383Y-33096189D01*
X113149382Y-33096190D01*
X112986979Y-33168496D01*
X112986976Y-33168497D01*
X112980949Y-33171181D01*
X112975608Y-33175061D01*
X112975607Y-33175062D01*
X112831792Y-33279549D01*
X112831784Y-33279555D01*
X112826448Y-33283433D01*
X112822031Y-33288338D01*
X112822026Y-33288343D01*
X112703080Y-33420447D01*
X112698661Y-33425355D01*
X112695362Y-33431068D01*
X112695359Y-33431073D01*
X112620415Y-33560880D01*
X112603174Y-33590743D01*
X112601135Y-33597017D01*
X112601131Y-33597027D01*
X112546198Y-33766093D01*
X112546196Y-33766100D01*
X112544159Y-33772371D01*
X112543469Y-33778932D01*
X112543469Y-33778934D01*
X112531703Y-33890880D01*
X112524197Y-33962299D01*
X104902445Y-33962299D01*
X104956752Y-33938120D01*
X105111253Y-33825868D01*
X105239040Y-33683946D01*
X105334527Y-33518558D01*
X105393542Y-33336930D01*
X105413504Y-33147002D01*
X105393542Y-32957074D01*
X105334527Y-32775446D01*
X105239040Y-32610058D01*
X105111253Y-32468136D01*
X105105911Y-32464255D01*
X105105908Y-32464252D01*
X105014034Y-32397502D01*
X106186384Y-32397502D01*
X106206783Y-32578549D01*
X106209118Y-32585222D01*
X106209119Y-32585226D01*
X106264619Y-32743837D01*
X106264621Y-32743841D01*
X106266957Y-32750517D01*
X106270719Y-32756505D01*
X106270721Y-32756508D01*
X106318488Y-32832529D01*
X106363889Y-32904783D01*
X106492719Y-33033613D01*
X106646985Y-33130545D01*
X106818953Y-33190719D01*
X107000000Y-33211118D01*
X107181047Y-33190719D01*
X107353015Y-33130545D01*
X107507281Y-33033613D01*
X107636111Y-32904783D01*
X107733043Y-32750517D01*
X107793217Y-32578549D01*
X107813616Y-32397502D01*
X107793217Y-32216455D01*
X107733043Y-32044487D01*
X107663220Y-31933364D01*
X107639878Y-31896216D01*
X107639877Y-31896215D01*
X107636111Y-31890221D01*
X107507281Y-31761391D01*
X107501287Y-31757625D01*
X107501285Y-31757623D01*
X107359006Y-31668223D01*
X107359003Y-31668221D01*
X107353015Y-31664459D01*
X107346339Y-31662123D01*
X107346335Y-31662121D01*
X107187724Y-31606621D01*
X107187720Y-31606620D01*
X107181047Y-31604285D01*
X107000000Y-31583886D01*
X106992971Y-31584678D01*
X106825981Y-31603493D01*
X106825979Y-31603493D01*
X106818953Y-31604285D01*
X106812280Y-31606619D01*
X106812275Y-31606621D01*
X106653664Y-31662121D01*
X106653656Y-31662124D01*
X106646985Y-31664459D01*
X106641000Y-31668219D01*
X106640993Y-31668223D01*
X106498714Y-31757623D01*
X106498707Y-31757628D01*
X106492719Y-31761391D01*
X106487714Y-31766395D01*
X106487710Y-31766399D01*
X106368897Y-31885212D01*
X106368893Y-31885216D01*
X106363889Y-31890221D01*
X106360126Y-31896209D01*
X106360121Y-31896216D01*
X106270721Y-32038495D01*
X106270717Y-32038502D01*
X106266957Y-32044487D01*
X106264622Y-32051158D01*
X106264619Y-32051166D01*
X106209119Y-32209777D01*
X106209118Y-32209781D01*
X106206783Y-32216455D01*
X106205992Y-32223479D01*
X106205991Y-32223483D01*
X106194168Y-32328417D01*
X106186384Y-32397502D01*
X105014034Y-32397502D01*
X104977173Y-32370721D01*
X104956752Y-32355884D01*
X104782288Y-32278208D01*
X104775835Y-32276836D01*
X104775831Y-32276835D01*
X104601943Y-32239874D01*
X104601940Y-32239873D01*
X104595487Y-32238502D01*
X104404513Y-32238502D01*
X104398060Y-32239873D01*
X104398056Y-32239874D01*
X104224168Y-32276835D01*
X104224161Y-32276837D01*
X104217712Y-32278208D01*
X104211682Y-32280892D01*
X104211681Y-32280893D01*
X104049278Y-32353199D01*
X104049275Y-32353200D01*
X104043248Y-32355884D01*
X104037907Y-32359764D01*
X104037906Y-32359765D01*
X103894091Y-32464252D01*
X103894083Y-32464258D01*
X103888747Y-32468136D01*
X103884330Y-32473041D01*
X103884325Y-32473046D01*
X103785198Y-32583139D01*
X103760960Y-32610058D01*
X103757661Y-32615771D01*
X103757658Y-32615776D01*
X103681905Y-32746985D01*
X103665473Y-32775446D01*
X103663434Y-32781720D01*
X103663430Y-32781730D01*
X103608497Y-32950796D01*
X103608495Y-32950803D01*
X103606458Y-32957074D01*
X103605768Y-32963635D01*
X103605768Y-32963637D01*
X103596292Y-33053799D01*
X103586496Y-33147002D01*
X90908320Y-33147002D01*
X90913616Y-33100000D01*
X90893217Y-32918953D01*
X90833043Y-32746985D01*
X90736111Y-32592719D01*
X90607281Y-32463889D01*
X90601287Y-32460123D01*
X90601285Y-32460121D01*
X90459006Y-32370721D01*
X90459003Y-32370719D01*
X90453015Y-32366957D01*
X90446339Y-32364621D01*
X90446335Y-32364619D01*
X90287724Y-32309119D01*
X90287720Y-32309118D01*
X90281047Y-32306783D01*
X90100000Y-32286384D01*
X90092971Y-32287176D01*
X89925981Y-32305991D01*
X89925979Y-32305991D01*
X89918953Y-32306783D01*
X89912280Y-32309117D01*
X89912275Y-32309119D01*
X89753664Y-32364619D01*
X89753656Y-32364622D01*
X89746985Y-32366957D01*
X89741000Y-32370717D01*
X89740993Y-32370721D01*
X89598714Y-32460121D01*
X89598707Y-32460126D01*
X89592719Y-32463889D01*
X89587714Y-32468893D01*
X89587710Y-32468897D01*
X89468897Y-32587710D01*
X89468893Y-32587714D01*
X89463889Y-32592719D01*
X89460126Y-32598707D01*
X89460121Y-32598714D01*
X89370721Y-32740993D01*
X89370717Y-32741000D01*
X89366957Y-32746985D01*
X89364622Y-32753656D01*
X89364619Y-32753664D01*
X89309119Y-32912275D01*
X89309117Y-32912280D01*
X89306783Y-32918953D01*
X89305991Y-32925979D01*
X89305991Y-32925981D01*
X89296914Y-33006547D01*
X89286384Y-33100000D01*
X82003746Y-33100000D01*
X82003428Y-31750000D01*
X100286496Y-31750000D01*
X100287186Y-31756565D01*
X100304849Y-31924624D01*
X100306458Y-31939928D01*
X100308495Y-31946200D01*
X100308497Y-31946205D01*
X100363430Y-32115271D01*
X100363433Y-32115278D01*
X100365473Y-32121556D01*
X100407528Y-32194397D01*
X100455123Y-32276835D01*
X100460960Y-32286944D01*
X100530899Y-32364619D01*
X100580849Y-32420095D01*
X100588747Y-32428866D01*
X100594089Y-32432747D01*
X100594091Y-32432749D01*
X100631766Y-32460121D01*
X100743248Y-32541118D01*
X100917712Y-32618794D01*
X101104513Y-32658500D01*
X101288884Y-32658500D01*
X101295487Y-32658500D01*
X101482288Y-32618794D01*
X101656752Y-32541118D01*
X101811253Y-32428866D01*
X101939040Y-32286944D01*
X102034527Y-32121556D01*
X102093542Y-31939928D01*
X102113504Y-31750000D01*
X102093542Y-31560072D01*
X102051398Y-31430368D01*
X102036569Y-31384728D01*
X102036568Y-31384726D01*
X102034527Y-31378444D01*
X101987712Y-31297358D01*
X101970874Y-31237655D01*
X101984565Y-31177153D01*
X102025467Y-31130516D01*
X102083666Y-31109048D01*
X102088879Y-31108500D01*
X102095487Y-31108500D01*
X102282288Y-31068794D01*
X102456752Y-30991118D01*
X102611253Y-30878866D01*
X102739040Y-30736944D01*
X102834527Y-30571556D01*
X102893542Y-30389928D01*
X102913504Y-30200000D01*
X102893542Y-30010072D01*
X102838376Y-29840289D01*
X102836569Y-29834728D01*
X102836568Y-29834726D01*
X102834527Y-29828444D01*
X102825610Y-29813000D01*
X102808729Y-29750000D01*
X102825611Y-29686998D01*
X102825612Y-29686997D01*
X102834527Y-29671556D01*
X102893542Y-29489928D01*
X102897744Y-29449951D01*
X108236544Y-29449951D01*
X108256506Y-29639879D01*
X108258543Y-29646151D01*
X108258545Y-29646156D01*
X108313478Y-29815222D01*
X108313481Y-29815229D01*
X108315521Y-29821507D01*
X108411008Y-29986895D01*
X108538795Y-30128817D01*
X108693296Y-30241069D01*
X108867760Y-30318745D01*
X109054561Y-30358451D01*
X109238932Y-30358451D01*
X109245535Y-30358451D01*
X109352419Y-30335732D01*
X109411455Y-30337332D01*
X109463276Y-30365657D01*
X109496499Y-30414483D01*
X109503825Y-30473085D01*
X109496731Y-30536053D01*
X109485751Y-30633506D01*
X109506150Y-30814553D01*
X109508485Y-30821226D01*
X109508486Y-30821230D01*
X109563986Y-30979841D01*
X109563988Y-30979845D01*
X109566324Y-30986521D01*
X109570086Y-30992509D01*
X109570088Y-30992512D01*
X109632504Y-31091846D01*
X109651025Y-31144774D01*
X109644747Y-31200495D01*
X109632459Y-31235614D01*
X109630122Y-31242292D01*
X109629330Y-31249318D01*
X109629330Y-31249320D01*
X109623743Y-31298908D01*
X109609723Y-31423339D01*
X109610515Y-31430368D01*
X109625868Y-31566635D01*
X109630122Y-31604386D01*
X109632457Y-31611059D01*
X109632458Y-31611063D01*
X109687958Y-31769674D01*
X109687960Y-31769678D01*
X109690296Y-31776354D01*
X109694058Y-31782342D01*
X109694060Y-31782345D01*
X109761843Y-31890221D01*
X109787228Y-31930620D01*
X109792235Y-31935627D01*
X109792236Y-31935628D01*
X109857230Y-32000622D01*
X109890976Y-32061679D01*
X109887065Y-32131331D01*
X109859614Y-32209781D01*
X109859611Y-32209791D01*
X109857280Y-32216455D01*
X109856489Y-32223473D01*
X109856488Y-32223479D01*
X109844665Y-32328417D01*
X109836881Y-32397502D01*
X109857280Y-32578549D01*
X109859615Y-32585222D01*
X109859616Y-32585226D01*
X109915116Y-32743837D01*
X109915118Y-32743841D01*
X109917454Y-32750517D01*
X109921216Y-32756505D01*
X109921218Y-32756508D01*
X109968985Y-32832529D01*
X110014386Y-32904783D01*
X110143216Y-33033613D01*
X110297482Y-33130545D01*
X110469450Y-33190719D01*
X110650497Y-33211118D01*
X110831544Y-33190719D01*
X111003512Y-33130545D01*
X111003878Y-33131593D01*
X111050243Y-33121007D01*
X111096618Y-33131592D01*
X111096985Y-33130545D01*
X111268953Y-33190719D01*
X111450000Y-33211118D01*
X111631047Y-33190719D01*
X111803015Y-33130545D01*
X111957281Y-33033613D01*
X112086111Y-32904783D01*
X112183043Y-32750517D01*
X112243217Y-32578549D01*
X112263616Y-32397502D01*
X112243217Y-32216455D01*
X112183043Y-32044487D01*
X112113220Y-31933364D01*
X112089878Y-31896216D01*
X112089877Y-31896215D01*
X112086111Y-31890221D01*
X111957281Y-31761391D01*
X111951287Y-31757625D01*
X111951285Y-31757623D01*
X111809006Y-31668223D01*
X111809003Y-31668221D01*
X111803015Y-31664459D01*
X111796339Y-31662123D01*
X111796335Y-31662121D01*
X111637724Y-31606621D01*
X111637720Y-31606620D01*
X111631047Y-31604285D01*
X111450000Y-31583886D01*
X111442971Y-31584678D01*
X111372898Y-31592573D01*
X111317175Y-31586294D01*
X111269694Y-31556459D01*
X111239861Y-31508977D01*
X111233584Y-31453254D01*
X111236163Y-31430371D01*
X111236163Y-31430368D01*
X111236955Y-31423339D01*
X111216556Y-31242292D01*
X111156382Y-31070324D01*
X111090200Y-30964997D01*
X111071680Y-30912068D01*
X111077960Y-30856344D01*
X111082674Y-30842872D01*
X111092584Y-30814553D01*
X111105491Y-30700000D01*
X114036496Y-30700000D01*
X114056458Y-30889928D01*
X114058495Y-30896200D01*
X114058497Y-30896205D01*
X114113430Y-31065271D01*
X114113433Y-31065278D01*
X114115473Y-31071556D01*
X114127755Y-31092829D01*
X114200469Y-31218774D01*
X114210960Y-31236944D01*
X114338747Y-31378866D01*
X114493248Y-31491118D01*
X114667712Y-31568794D01*
X114854513Y-31608500D01*
X115038884Y-31608500D01*
X115045487Y-31608500D01*
X115232288Y-31568794D01*
X115284372Y-31545604D01*
X115364252Y-31510041D01*
X115425386Y-31499536D01*
X115484125Y-31519476D01*
X115526231Y-31565026D01*
X115541500Y-31625148D01*
X115541500Y-32123638D01*
X115541859Y-32126985D01*
X115541860Y-32126988D01*
X115547168Y-32176367D01*
X115547169Y-32176373D01*
X115548011Y-32184201D01*
X115550762Y-32191578D01*
X115550763Y-32191580D01*
X115595962Y-32312763D01*
X115595964Y-32312766D01*
X115599111Y-32321204D01*
X115604508Y-32328414D01*
X115604510Y-32328417D01*
X115679706Y-32428866D01*
X115686739Y-32438261D01*
X115693950Y-32443659D01*
X115793019Y-32517822D01*
X115803796Y-32525889D01*
X115940799Y-32576989D01*
X116001362Y-32583500D01*
X117095269Y-32583500D01*
X117098638Y-32583500D01*
X117159201Y-32576989D01*
X117296204Y-32525889D01*
X117303423Y-32520484D01*
X117311325Y-32516170D01*
X117312227Y-32517822D01*
X117360637Y-32498270D01*
X117424565Y-32506878D01*
X117438317Y-32512574D01*
X117551877Y-32547022D01*
X117563345Y-32547727D01*
X117566000Y-32536552D01*
X118074000Y-32536552D01*
X118076654Y-32547727D01*
X118088122Y-32547022D01*
X118201686Y-32512573D01*
X118213069Y-32507858D01*
X118377259Y-32420096D01*
X118384993Y-32414929D01*
X118430417Y-32396112D01*
X118479583Y-32396112D01*
X118525007Y-32414929D01*
X118532740Y-32420096D01*
X118696930Y-32507858D01*
X118708313Y-32512573D01*
X118821877Y-32547022D01*
X118833345Y-32547727D01*
X118836000Y-32536552D01*
X118836000Y-31845590D01*
X118832493Y-31832506D01*
X118819410Y-31829000D01*
X118090590Y-31829000D01*
X118077506Y-31832506D01*
X118074000Y-31845590D01*
X118074000Y-32536552D01*
X117566000Y-32536552D01*
X117566000Y-31447000D01*
X117582881Y-31384000D01*
X117629000Y-31337881D01*
X117692000Y-31321000D01*
X119218000Y-31321000D01*
X119281000Y-31337881D01*
X119327119Y-31384000D01*
X119344000Y-31447000D01*
X119344000Y-32536552D01*
X119346654Y-32547727D01*
X119358122Y-32547022D01*
X119471686Y-32512573D01*
X119483069Y-32507858D01*
X119647266Y-32420092D01*
X119654543Y-32415231D01*
X119699963Y-32396416D01*
X119749125Y-32396416D01*
X119793669Y-32414864D01*
X119796996Y-32417595D01*
X119972196Y-32511241D01*
X120162299Y-32568908D01*
X120168460Y-32569514D01*
X120168461Y-32569515D01*
X120353837Y-32587773D01*
X120360000Y-32588380D01*
X120557701Y-32568908D01*
X120747804Y-32511241D01*
X120923004Y-32417595D01*
X120926326Y-32414868D01*
X120970867Y-32396416D01*
X121020034Y-32396415D01*
X121065458Y-32415231D01*
X121072736Y-32420094D01*
X121236930Y-32507858D01*
X121248313Y-32512573D01*
X121361877Y-32547022D01*
X121373345Y-32547727D01*
X121376000Y-32536552D01*
X121884000Y-32536552D01*
X121886654Y-32547727D01*
X121898122Y-32547022D01*
X122011686Y-32512573D01*
X122023069Y-32507858D01*
X122187261Y-32420095D01*
X122197514Y-32413244D01*
X122341427Y-32295138D01*
X122350138Y-32286427D01*
X122468244Y-32142514D01*
X122475095Y-32132261D01*
X122562858Y-31968069D01*
X122567573Y-31956686D01*
X122602022Y-31843122D01*
X122602727Y-31831654D01*
X122591552Y-31829000D01*
X121900590Y-31829000D01*
X121887506Y-31832506D01*
X121884000Y-31845590D01*
X121884000Y-32536552D01*
X121376000Y-32536552D01*
X121376000Y-31447000D01*
X121392881Y-31384000D01*
X121439000Y-31337881D01*
X121502000Y-31321000D01*
X122591552Y-31321000D01*
X122602727Y-31318345D01*
X122602022Y-31306877D01*
X122567573Y-31193313D01*
X122562858Y-31181930D01*
X122475094Y-31017736D01*
X122470231Y-31010458D01*
X122451415Y-30965034D01*
X122451416Y-30915867D01*
X122469868Y-30871326D01*
X122472595Y-30868004D01*
X122566241Y-30692804D01*
X122623908Y-30502701D01*
X122643380Y-30305000D01*
X122623908Y-30107299D01*
X122566241Y-29917196D01*
X122472595Y-29741996D01*
X122346568Y-29588432D01*
X122305944Y-29555093D01*
X122197788Y-29466331D01*
X122197787Y-29466330D01*
X122193004Y-29462405D01*
X122181986Y-29456516D01*
X122023265Y-29371678D01*
X122017804Y-29368759D01*
X122002845Y-29364221D01*
X121833623Y-29312888D01*
X121833619Y-29312887D01*
X121827701Y-29311092D01*
X121821547Y-29310485D01*
X121821538Y-29310484D01*
X121636163Y-29292227D01*
X121630000Y-29291620D01*
X121623837Y-29292227D01*
X121438461Y-29310484D01*
X121438450Y-29310486D01*
X121432299Y-29311092D01*
X121426382Y-29312886D01*
X121426376Y-29312888D01*
X121248119Y-29366962D01*
X121248116Y-29366963D01*
X121242196Y-29368759D01*
X121236738Y-29371676D01*
X121236734Y-29371678D01*
X121072451Y-29459488D01*
X121072441Y-29459494D01*
X121066996Y-29462405D01*
X121063953Y-29464901D01*
X121019579Y-29483280D01*
X120970421Y-29483280D01*
X120926046Y-29464901D01*
X120923004Y-29462405D01*
X120917553Y-29459491D01*
X120917548Y-29459488D01*
X120753265Y-29371678D01*
X120747804Y-29368759D01*
X120732845Y-29364221D01*
X120563623Y-29312888D01*
X120563619Y-29312887D01*
X120557701Y-29311092D01*
X120551547Y-29310485D01*
X120551538Y-29310484D01*
X120366163Y-29292227D01*
X120360000Y-29291620D01*
X120353837Y-29292227D01*
X120168461Y-29310484D01*
X120168450Y-29310486D01*
X120162299Y-29311092D01*
X120156382Y-29312886D01*
X120156376Y-29312888D01*
X119978119Y-29366962D01*
X119978116Y-29366963D01*
X119972196Y-29368759D01*
X119966738Y-29371676D01*
X119966734Y-29371678D01*
X119802451Y-29459488D01*
X119802441Y-29459494D01*
X119796996Y-29462405D01*
X119793953Y-29464901D01*
X119749579Y-29483280D01*
X119700421Y-29483280D01*
X119656046Y-29464901D01*
X119653004Y-29462405D01*
X119647553Y-29459491D01*
X119647548Y-29459488D01*
X119483265Y-29371678D01*
X119477804Y-29368759D01*
X119462845Y-29364221D01*
X119293623Y-29312888D01*
X119293619Y-29312887D01*
X119287701Y-29311092D01*
X119281547Y-29310485D01*
X119281538Y-29310484D01*
X119096163Y-29292227D01*
X119090000Y-29291620D01*
X119083837Y-29292227D01*
X118898461Y-29310484D01*
X118898450Y-29310486D01*
X118892299Y-29311092D01*
X118886382Y-29312886D01*
X118886376Y-29312888D01*
X118708119Y-29366962D01*
X118708116Y-29366963D01*
X118702196Y-29368759D01*
X118696738Y-29371676D01*
X118696734Y-29371678D01*
X118532451Y-29459488D01*
X118532441Y-29459494D01*
X118526996Y-29462405D01*
X118523953Y-29464901D01*
X118479579Y-29483280D01*
X118430421Y-29483280D01*
X118386046Y-29464901D01*
X118383004Y-29462405D01*
X118377553Y-29459491D01*
X118377548Y-29459488D01*
X118213265Y-29371678D01*
X118207804Y-29368759D01*
X118192845Y-29364221D01*
X118023623Y-29312888D01*
X118023619Y-29312887D01*
X118017701Y-29311092D01*
X118011547Y-29310485D01*
X118011538Y-29310484D01*
X117826163Y-29292227D01*
X117820000Y-29291620D01*
X117813837Y-29292227D01*
X117628461Y-29310484D01*
X117628450Y-29310486D01*
X117622299Y-29311092D01*
X117616382Y-29312886D01*
X117616376Y-29312888D01*
X117438119Y-29366962D01*
X117438116Y-29366963D01*
X117432196Y-29368759D01*
X117426738Y-29371676D01*
X117426734Y-29371678D01*
X117262451Y-29459488D01*
X117262441Y-29459494D01*
X117256996Y-29462405D01*
X117253953Y-29464901D01*
X117209579Y-29483280D01*
X117160421Y-29483280D01*
X117116046Y-29464901D01*
X117113004Y-29462405D01*
X117107553Y-29459491D01*
X117107548Y-29459488D01*
X116943265Y-29371678D01*
X116937804Y-29368759D01*
X116922845Y-29364221D01*
X116753623Y-29312888D01*
X116753619Y-29312887D01*
X116747701Y-29311092D01*
X116741547Y-29310485D01*
X116741538Y-29310484D01*
X116556163Y-29292227D01*
X116550000Y-29291620D01*
X116543837Y-29292227D01*
X116358461Y-29310484D01*
X116358450Y-29310486D01*
X116352299Y-29311092D01*
X116346382Y-29312886D01*
X116346376Y-29312888D01*
X116168119Y-29366962D01*
X116168116Y-29366963D01*
X116162196Y-29368759D01*
X116156738Y-29371676D01*
X116156734Y-29371678D01*
X115992454Y-29459487D01*
X115992453Y-29459488D01*
X115986996Y-29462405D01*
X115982217Y-29466326D01*
X115982211Y-29466331D01*
X115838211Y-29584509D01*
X115838205Y-29584514D01*
X115833432Y-29588432D01*
X115829514Y-29593205D01*
X115829509Y-29593211D01*
X115711331Y-29737211D01*
X115711326Y-29737217D01*
X115707405Y-29741996D01*
X115704487Y-29747454D01*
X115704487Y-29747455D01*
X115627233Y-29891987D01*
X115577678Y-29942525D01*
X115508694Y-29958373D01*
X115442051Y-29934528D01*
X115418195Y-29917196D01*
X115406752Y-29908882D01*
X115232288Y-29831206D01*
X115225835Y-29829834D01*
X115225831Y-29829833D01*
X115051943Y-29792872D01*
X115051940Y-29792871D01*
X115045487Y-29791500D01*
X114854513Y-29791500D01*
X114848060Y-29792871D01*
X114848056Y-29792872D01*
X114674168Y-29829833D01*
X114674161Y-29829835D01*
X114667712Y-29831206D01*
X114661682Y-29833890D01*
X114661681Y-29833891D01*
X114499278Y-29906197D01*
X114499275Y-29906198D01*
X114493248Y-29908882D01*
X114487907Y-29912762D01*
X114487906Y-29912763D01*
X114344091Y-30017250D01*
X114344083Y-30017256D01*
X114338747Y-30021134D01*
X114334330Y-30026039D01*
X114334325Y-30026044D01*
X114215379Y-30158148D01*
X114210960Y-30163056D01*
X114207661Y-30168769D01*
X114207658Y-30168774D01*
X114118777Y-30322721D01*
X114115473Y-30328444D01*
X114113434Y-30334718D01*
X114113430Y-30334728D01*
X114058497Y-30503794D01*
X114058495Y-30503801D01*
X114056458Y-30510072D01*
X114055768Y-30516633D01*
X114055768Y-30516635D01*
X114055682Y-30517457D01*
X114036496Y-30700000D01*
X111105491Y-30700000D01*
X111112983Y-30633506D01*
X111092584Y-30452459D01*
X111032410Y-30280491D01*
X110935478Y-30126225D01*
X110806648Y-29997395D01*
X110800654Y-29993629D01*
X110800652Y-29993627D01*
X110658373Y-29904227D01*
X110658370Y-29904225D01*
X110652382Y-29900463D01*
X110645706Y-29898127D01*
X110645702Y-29898125D01*
X110487091Y-29842625D01*
X110487087Y-29842624D01*
X110480414Y-29840289D01*
X110299367Y-29819890D01*
X110292338Y-29820682D01*
X110167548Y-29834742D01*
X110105876Y-29826211D01*
X110055817Y-29789193D01*
X110029594Y-29732725D01*
X110033608Y-29670597D01*
X110043590Y-29639879D01*
X110063552Y-29449951D01*
X110043590Y-29260023D01*
X109992828Y-29103794D01*
X109986617Y-29084679D01*
X109986616Y-29084677D01*
X109984575Y-29078395D01*
X109889088Y-28913007D01*
X109761301Y-28771085D01*
X109755959Y-28767204D01*
X109755956Y-28767201D01*
X109646565Y-28687724D01*
X109606800Y-28658833D01*
X109432336Y-28581157D01*
X109425883Y-28579785D01*
X109425879Y-28579784D01*
X109251991Y-28542823D01*
X109251988Y-28542822D01*
X109245535Y-28541451D01*
X109054561Y-28541451D01*
X109048108Y-28542822D01*
X109048104Y-28542823D01*
X108874216Y-28579784D01*
X108874209Y-28579786D01*
X108867760Y-28581157D01*
X108861730Y-28583841D01*
X108861729Y-28583842D01*
X108699326Y-28656148D01*
X108699323Y-28656149D01*
X108693296Y-28658833D01*
X108687955Y-28662713D01*
X108687954Y-28662714D01*
X108544139Y-28767201D01*
X108544131Y-28767207D01*
X108538795Y-28771085D01*
X108534378Y-28775990D01*
X108534373Y-28775995D01*
X108421129Y-28901766D01*
X108411008Y-28913007D01*
X108407709Y-28918720D01*
X108407706Y-28918725D01*
X108353687Y-29012289D01*
X108315521Y-29078395D01*
X108313482Y-29084669D01*
X108313478Y-29084679D01*
X108258545Y-29253745D01*
X108258543Y-29253752D01*
X108256506Y-29260023D01*
X108255816Y-29266584D01*
X108255816Y-29266586D01*
X108242320Y-29394997D01*
X108236544Y-29449951D01*
X102897744Y-29449951D01*
X102913504Y-29300000D01*
X102893542Y-29110072D01*
X102834527Y-28928444D01*
X102825610Y-28912999D01*
X102808729Y-28850000D01*
X102825611Y-28786998D01*
X102834527Y-28771556D01*
X102893542Y-28589928D01*
X102913504Y-28400000D01*
X102893542Y-28210072D01*
X102852579Y-28084003D01*
X102836569Y-28034728D01*
X102836568Y-28034726D01*
X102834527Y-28028444D01*
X102825610Y-28013000D01*
X102808729Y-27950000D01*
X102825611Y-27886998D01*
X102825612Y-27886997D01*
X102834527Y-27871556D01*
X102893542Y-27689928D01*
X102913504Y-27500000D01*
X102893542Y-27310072D01*
X102834527Y-27128444D01*
X102739040Y-26963056D01*
X102611253Y-26821134D01*
X102605911Y-26817253D01*
X102605908Y-26817250D01*
X102582165Y-26800000D01*
X109686496Y-26800000D01*
X109706458Y-26989928D01*
X109708495Y-26996200D01*
X109708497Y-26996205D01*
X109763430Y-27165271D01*
X109763433Y-27165278D01*
X109765473Y-27171556D01*
X109768777Y-27177278D01*
X109849234Y-27316635D01*
X109860960Y-27336944D01*
X109988747Y-27478866D01*
X109994089Y-27482747D01*
X109994091Y-27482749D01*
X110017835Y-27500000D01*
X110143248Y-27591118D01*
X110317712Y-27668794D01*
X110504513Y-27708500D01*
X110688884Y-27708500D01*
X110695487Y-27708500D01*
X110882288Y-27668794D01*
X111048752Y-27594679D01*
X111100000Y-27583787D01*
X111151247Y-27594679D01*
X111317712Y-27668794D01*
X111478417Y-27702953D01*
X111537747Y-27733674D01*
X111573029Y-27790413D01*
X111574341Y-27857214D01*
X111541314Y-27915293D01*
X111463889Y-27992719D01*
X111460126Y-27998707D01*
X111460121Y-27998714D01*
X111370721Y-28140993D01*
X111370717Y-28141000D01*
X111366957Y-28146985D01*
X111364622Y-28153656D01*
X111364619Y-28153664D01*
X111309119Y-28312275D01*
X111309117Y-28312280D01*
X111306783Y-28318953D01*
X111305991Y-28325979D01*
X111305991Y-28325981D01*
X111296689Y-28408543D01*
X111286384Y-28500000D01*
X111306783Y-28681047D01*
X111309118Y-28687720D01*
X111309119Y-28687724D01*
X111364619Y-28846335D01*
X111364621Y-28846339D01*
X111366957Y-28853015D01*
X111370719Y-28859003D01*
X111370721Y-28859006D01*
X111458704Y-28999030D01*
X111463889Y-29007281D01*
X111592719Y-29136111D01*
X111746985Y-29233043D01*
X111918953Y-29293217D01*
X112100000Y-29313616D01*
X112281047Y-29293217D01*
X112453015Y-29233043D01*
X112607281Y-29136111D01*
X112736111Y-29007281D01*
X112833043Y-28853015D01*
X112893217Y-28681047D01*
X112913616Y-28500000D01*
X112893217Y-28318953D01*
X112833043Y-28146985D01*
X112736111Y-27992719D01*
X112607281Y-27863889D01*
X112601287Y-27860123D01*
X112601285Y-27860121D01*
X112459006Y-27770721D01*
X112459003Y-27770719D01*
X112453015Y-27766957D01*
X112446339Y-27764621D01*
X112446335Y-27764619D01*
X112287724Y-27709119D01*
X112287720Y-27709118D01*
X112281047Y-27706783D01*
X112274018Y-27705991D01*
X112274014Y-27705990D01*
X112271530Y-27705710D01*
X112269280Y-27704909D01*
X112267114Y-27704415D01*
X112267172Y-27704159D01*
X112217490Y-27686479D01*
X112206852Y-27675500D01*
X113044804Y-27675500D01*
X113065203Y-27856547D01*
X113067538Y-27863220D01*
X113067539Y-27863224D01*
X113123039Y-28021835D01*
X113123041Y-28021839D01*
X113125377Y-28028515D01*
X113129139Y-28034503D01*
X113129141Y-28034506D01*
X113210521Y-28164022D01*
X113222309Y-28182781D01*
X113351139Y-28311611D01*
X113505405Y-28408543D01*
X113677373Y-28468717D01*
X113858420Y-28489116D01*
X114039467Y-28468717D01*
X114211435Y-28408543D01*
X114365701Y-28311611D01*
X114494531Y-28182781D01*
X114534347Y-28119413D01*
X114579568Y-28076460D01*
X114639853Y-28060458D01*
X114700428Y-28075330D01*
X114751930Y-28102858D01*
X114763313Y-28107573D01*
X114941468Y-28161616D01*
X114953562Y-28164022D01*
X115092401Y-28177696D01*
X115098574Y-28178000D01*
X115424410Y-28178000D01*
X115437493Y-28174493D01*
X115441000Y-28161410D01*
X115949000Y-28161410D01*
X115952506Y-28174493D01*
X115965590Y-28178000D01*
X116291426Y-28178000D01*
X116297598Y-28177696D01*
X116436437Y-28164022D01*
X116448531Y-28161616D01*
X116626686Y-28107573D01*
X116638069Y-28102858D01*
X116802261Y-28015095D01*
X116812514Y-28008244D01*
X116956427Y-27890138D01*
X116965138Y-27881427D01*
X117083244Y-27737514D01*
X117090095Y-27727261D01*
X117177858Y-27563069D01*
X117182573Y-27551686D01*
X117217022Y-27438122D01*
X117217727Y-27426654D01*
X118602272Y-27426654D01*
X118602977Y-27438122D01*
X118637426Y-27551686D01*
X118642141Y-27563069D01*
X118729904Y-27727261D01*
X118736755Y-27737514D01*
X118854861Y-27881427D01*
X118863572Y-27890138D01*
X119007485Y-28008244D01*
X119017738Y-28015095D01*
X119181930Y-28102858D01*
X119193313Y-28107573D01*
X119371468Y-28161616D01*
X119383562Y-28164022D01*
X119522401Y-28177696D01*
X119528574Y-28178000D01*
X119604410Y-28178000D01*
X119617493Y-28174493D01*
X119621000Y-28161410D01*
X120129000Y-28161410D01*
X120132506Y-28174493D01*
X120145590Y-28178000D01*
X120221426Y-28178000D01*
X120227598Y-28177696D01*
X120366437Y-28164022D01*
X120378531Y-28161616D01*
X120556686Y-28107573D01*
X120568069Y-28102858D01*
X120732261Y-28015095D01*
X120742514Y-28008244D01*
X120886427Y-27890138D01*
X120895138Y-27881427D01*
X121013244Y-27737514D01*
X121020095Y-27727261D01*
X121107858Y-27563069D01*
X121112573Y-27551686D01*
X121147022Y-27438122D01*
X121147727Y-27426654D01*
X121136552Y-27424000D01*
X120145590Y-27424000D01*
X120132506Y-27427506D01*
X120129000Y-27440590D01*
X120129000Y-28161410D01*
X119621000Y-28161410D01*
X119621000Y-27440590D01*
X119617493Y-27427506D01*
X119604410Y-27424000D01*
X118613448Y-27424000D01*
X118602272Y-27426654D01*
X117217727Y-27426654D01*
X117206552Y-27424000D01*
X115965590Y-27424000D01*
X115952506Y-27427506D01*
X115949000Y-27440590D01*
X115949000Y-28161410D01*
X115441000Y-28161410D01*
X115441000Y-27042000D01*
X115457881Y-26979000D01*
X115504000Y-26932881D01*
X115567000Y-26916000D01*
X117206552Y-26916000D01*
X117217727Y-26913345D01*
X118602272Y-26913345D01*
X118613448Y-26916000D01*
X119604410Y-26916000D01*
X119617493Y-26912493D01*
X119621000Y-26899410D01*
X120129000Y-26899410D01*
X120132506Y-26912493D01*
X120145590Y-26916000D01*
X121136552Y-26916000D01*
X121147727Y-26913345D01*
X121147022Y-26901877D01*
X121112573Y-26788313D01*
X121107858Y-26776930D01*
X121020095Y-26612738D01*
X121013244Y-26602485D01*
X120895138Y-26458572D01*
X120886427Y-26449861D01*
X120742514Y-26331755D01*
X120732261Y-26324904D01*
X120568069Y-26237141D01*
X120556686Y-26232426D01*
X120378531Y-26178383D01*
X120366437Y-26175977D01*
X120227598Y-26162303D01*
X120221426Y-26162000D01*
X120145590Y-26162000D01*
X120132506Y-26165506D01*
X120129000Y-26178590D01*
X120129000Y-26899410D01*
X119621000Y-26899410D01*
X119621000Y-26178590D01*
X119617493Y-26165506D01*
X119604410Y-26162000D01*
X119528574Y-26162000D01*
X119522401Y-26162303D01*
X119383562Y-26175977D01*
X119371468Y-26178383D01*
X119193313Y-26232426D01*
X119181930Y-26237141D01*
X119017738Y-26324904D01*
X119007485Y-26331755D01*
X118863572Y-26449861D01*
X118854861Y-26458572D01*
X118736755Y-26602485D01*
X118729904Y-26612738D01*
X118642141Y-26776930D01*
X118637426Y-26788313D01*
X118602977Y-26901877D01*
X118602272Y-26913345D01*
X117217727Y-26913345D01*
X117217022Y-26901877D01*
X117182573Y-26788313D01*
X117177858Y-26776930D01*
X117090095Y-26612738D01*
X117083244Y-26602485D01*
X116965138Y-26458572D01*
X116956427Y-26449861D01*
X116812514Y-26331755D01*
X116802264Y-26324906D01*
X116698737Y-26269569D01*
X116657547Y-26234330D01*
X116634974Y-26185046D01*
X116635196Y-26130839D01*
X116658169Y-26081747D01*
X116697698Y-26030233D01*
X116755687Y-25890236D01*
X116775466Y-25740000D01*
X116755687Y-25589764D01*
X116697698Y-25449767D01*
X116685111Y-25433364D01*
X116610477Y-25336099D01*
X116605451Y-25329549D01*
X116598900Y-25324522D01*
X116491786Y-25242330D01*
X116491784Y-25242329D01*
X116485233Y-25237302D01*
X116477606Y-25234142D01*
X116477603Y-25234141D01*
X116352865Y-25182473D01*
X116352864Y-25182472D01*
X116345236Y-25179313D01*
X116337053Y-25178235D01*
X116337047Y-25178234D01*
X116236807Y-25165038D01*
X116236806Y-25165037D01*
X116232720Y-25164500D01*
X116157280Y-25164500D01*
X116153194Y-25165037D01*
X116153192Y-25165038D01*
X116052952Y-25178234D01*
X116052944Y-25178236D01*
X116044764Y-25179313D01*
X116037137Y-25182472D01*
X116037134Y-25182473D01*
X115912396Y-25234141D01*
X115912390Y-25234144D01*
X115904767Y-25237302D01*
X115898218Y-25242326D01*
X115898213Y-25242330D01*
X115791099Y-25324522D01*
X115791094Y-25324526D01*
X115784549Y-25329549D01*
X115779526Y-25336094D01*
X115779522Y-25336099D01*
X115697330Y-25443213D01*
X115697326Y-25443218D01*
X115692302Y-25449767D01*
X115689144Y-25457390D01*
X115689141Y-25457396D01*
X115637473Y-25582134D01*
X115634313Y-25589764D01*
X115633236Y-25597944D01*
X115633234Y-25597952D01*
X115618474Y-25710072D01*
X115614534Y-25740000D01*
X115615612Y-25748188D01*
X115633234Y-25882047D01*
X115633235Y-25882053D01*
X115634313Y-25890236D01*
X115637472Y-25897864D01*
X115637473Y-25897865D01*
X115674718Y-25987782D01*
X115683702Y-26048350D01*
X115663074Y-26106002D01*
X115617705Y-26147122D01*
X115558309Y-26162000D01*
X115098574Y-26162000D01*
X115092401Y-26162303D01*
X114953562Y-26175977D01*
X114941468Y-26178383D01*
X114763313Y-26232426D01*
X114751930Y-26237141D01*
X114587738Y-26324904D01*
X114577485Y-26331755D01*
X114433572Y-26449861D01*
X114424861Y-26458572D01*
X114306755Y-26602485D01*
X114299904Y-26612738D01*
X114212141Y-26776930D01*
X114207427Y-26788312D01*
X114203686Y-26800644D01*
X114167955Y-26857219D01*
X114108295Y-26887522D01*
X114053583Y-26883821D01*
X114053042Y-26886194D01*
X114046144Y-26884619D01*
X114039467Y-26882283D01*
X113858420Y-26861884D01*
X113851391Y-26862676D01*
X113684401Y-26881491D01*
X113684399Y-26881491D01*
X113677373Y-26882283D01*
X113670700Y-26884617D01*
X113670695Y-26884619D01*
X113512084Y-26940119D01*
X113512076Y-26940122D01*
X113505405Y-26942457D01*
X113499420Y-26946217D01*
X113499413Y-26946221D01*
X113357134Y-27035621D01*
X113357127Y-27035626D01*
X113351139Y-27039389D01*
X113346134Y-27044393D01*
X113346130Y-27044397D01*
X113227317Y-27163210D01*
X113227313Y-27163214D01*
X113222309Y-27168219D01*
X113218546Y-27174207D01*
X113218541Y-27174214D01*
X113129141Y-27316493D01*
X113129137Y-27316500D01*
X113125377Y-27322485D01*
X113123042Y-27329156D01*
X113123039Y-27329164D01*
X113067539Y-27487775D01*
X113067537Y-27487780D01*
X113065203Y-27494453D01*
X113064411Y-27501479D01*
X113064411Y-27501481D01*
X113054009Y-27593802D01*
X113044804Y-27675500D01*
X112206852Y-27675500D01*
X112177575Y-27645286D01*
X112160056Y-27590667D01*
X112168564Y-27533942D01*
X112201336Y-27486866D01*
X112205906Y-27482750D01*
X112211253Y-27478866D01*
X112339040Y-27336944D01*
X112434527Y-27171556D01*
X112493542Y-26989928D01*
X112513504Y-26800000D01*
X112493542Y-26610072D01*
X112434527Y-26428444D01*
X112425610Y-26412999D01*
X112408729Y-26350000D01*
X112425611Y-26286998D01*
X112434527Y-26271556D01*
X112493542Y-26089928D01*
X112513504Y-25900000D01*
X112493542Y-25710072D01*
X112434527Y-25528444D01*
X112396741Y-25462998D01*
X112379861Y-25399998D01*
X112396741Y-25337000D01*
X112434527Y-25271556D01*
X112441531Y-25250000D01*
X112986496Y-25250000D01*
X112987186Y-25256565D01*
X113000729Y-25385425D01*
X113006458Y-25439928D01*
X113008495Y-25446200D01*
X113008497Y-25446205D01*
X113063430Y-25615271D01*
X113063433Y-25615278D01*
X113065473Y-25621556D01*
X113160960Y-25786944D01*
X113288747Y-25928866D01*
X113443248Y-26041118D01*
X113617712Y-26118794D01*
X113804513Y-26158500D01*
X113988884Y-26158500D01*
X113995487Y-26158500D01*
X114182288Y-26118794D01*
X114356752Y-26041118D01*
X114511253Y-25928866D01*
X114639040Y-25786944D01*
X114734527Y-25621556D01*
X114793542Y-25439928D01*
X114813504Y-25250000D01*
X114793542Y-25060072D01*
X114734527Y-24878444D01*
X114639040Y-24713056D01*
X114511253Y-24571134D01*
X114505911Y-24567253D01*
X114505908Y-24567250D01*
X114428057Y-24510688D01*
X114356752Y-24458882D01*
X114182288Y-24381206D01*
X114175835Y-24379834D01*
X114175831Y-24379833D01*
X114001943Y-24342872D01*
X114001940Y-24342871D01*
X113995487Y-24341500D01*
X113804513Y-24341500D01*
X113798060Y-24342871D01*
X113798056Y-24342872D01*
X113624168Y-24379833D01*
X113624161Y-24379835D01*
X113617712Y-24381206D01*
X113611682Y-24383890D01*
X113611681Y-24383891D01*
X113449278Y-24456197D01*
X113449275Y-24456198D01*
X113443248Y-24458882D01*
X113437907Y-24462762D01*
X113437906Y-24462763D01*
X113294091Y-24567250D01*
X113294083Y-24567256D01*
X113288747Y-24571134D01*
X113284330Y-24576039D01*
X113284325Y-24576044D01*
X113165379Y-24708148D01*
X113160960Y-24713056D01*
X113157661Y-24718769D01*
X113157658Y-24718774D01*
X113129944Y-24766777D01*
X113065473Y-24878444D01*
X113063434Y-24884718D01*
X113063430Y-24884728D01*
X113008497Y-25053794D01*
X113008495Y-25053801D01*
X113006458Y-25060072D01*
X112986496Y-25250000D01*
X112441531Y-25250000D01*
X112493542Y-25089928D01*
X112513504Y-24900000D01*
X112493542Y-24710072D01*
X112437384Y-24537236D01*
X112436569Y-24534728D01*
X112436568Y-24534726D01*
X112434527Y-24528444D01*
X112396741Y-24462998D01*
X112379861Y-24399998D01*
X112396741Y-24337000D01*
X112434527Y-24271556D01*
X112493542Y-24089928D01*
X112513504Y-23900000D01*
X112497739Y-23750000D01*
X115686496Y-23750000D01*
X115706458Y-23939928D01*
X115708495Y-23946200D01*
X115708497Y-23946205D01*
X115763430Y-24115271D01*
X115763433Y-24115278D01*
X115765473Y-24121556D01*
X115860960Y-24286944D01*
X115988747Y-24428866D01*
X116143248Y-24541118D01*
X116317712Y-24618794D01*
X116504513Y-24658500D01*
X116688884Y-24658500D01*
X116695487Y-24658500D01*
X116882288Y-24618794D01*
X117056752Y-24541118D01*
X117211253Y-24428866D01*
X117339040Y-24286944D01*
X117434527Y-24121556D01*
X117493542Y-23939928D01*
X117513504Y-23750000D01*
X117493542Y-23560072D01*
X117438996Y-23392200D01*
X117435583Y-23327070D01*
X117465191Y-23268961D01*
X117539040Y-23186944D01*
X117634527Y-23021556D01*
X117693542Y-22839928D01*
X117713504Y-22650000D01*
X117693542Y-22460072D01*
X117647689Y-22318953D01*
X117636569Y-22284728D01*
X117636568Y-22284726D01*
X117634527Y-22278444D01*
X117539040Y-22113056D01*
X117411253Y-21971134D01*
X117405911Y-21967253D01*
X117405908Y-21967250D01*
X117270536Y-21868897D01*
X117256752Y-21858882D01*
X117082288Y-21781206D01*
X117075835Y-21779834D01*
X117075831Y-21779833D01*
X116901943Y-21742872D01*
X116901940Y-21742871D01*
X116895487Y-21741500D01*
X116704513Y-21741500D01*
X116698060Y-21742871D01*
X116698056Y-21742872D01*
X116524168Y-21779833D01*
X116524161Y-21779835D01*
X116517712Y-21781206D01*
X116511682Y-21783890D01*
X116511681Y-21783891D01*
X116349278Y-21856197D01*
X116349275Y-21856198D01*
X116343248Y-21858882D01*
X116337907Y-21862762D01*
X116337906Y-21862763D01*
X116194091Y-21967250D01*
X116194083Y-21967256D01*
X116188747Y-21971134D01*
X116184330Y-21976039D01*
X116184325Y-21976044D01*
X116065379Y-22108148D01*
X116060960Y-22113056D01*
X116057661Y-22118769D01*
X116057658Y-22118774D01*
X115968777Y-22272721D01*
X115965473Y-22278444D01*
X115963434Y-22284718D01*
X115963430Y-22284728D01*
X115908497Y-22453794D01*
X115908495Y-22453801D01*
X115906458Y-22460072D01*
X115886496Y-22650000D01*
X115887186Y-22656565D01*
X115905147Y-22827460D01*
X115906458Y-22839928D01*
X115908495Y-22846200D01*
X115908497Y-22846205D01*
X115961002Y-23007796D01*
X115964416Y-23072928D01*
X115934806Y-23131041D01*
X115860960Y-23213056D01*
X115857661Y-23218769D01*
X115857658Y-23218774D01*
X115795134Y-23327070D01*
X115765473Y-23378444D01*
X115763434Y-23384718D01*
X115763430Y-23384728D01*
X115708497Y-23553794D01*
X115708495Y-23553801D01*
X115706458Y-23560072D01*
X115686496Y-23750000D01*
X112497739Y-23750000D01*
X112493542Y-23710072D01*
X112434527Y-23528444D01*
X112339040Y-23363056D01*
X112211253Y-23221134D01*
X112205911Y-23217253D01*
X112205908Y-23217250D01*
X112087335Y-23131102D01*
X112056752Y-23108882D01*
X111882288Y-23031206D01*
X111875835Y-23029834D01*
X111875831Y-23029833D01*
X111701943Y-22992872D01*
X111701940Y-22992871D01*
X111695487Y-22991500D01*
X111504513Y-22991500D01*
X111498060Y-22992871D01*
X111498056Y-22992872D01*
X111324168Y-23029833D01*
X111324161Y-23029835D01*
X111317712Y-23031206D01*
X111311684Y-23033889D01*
X111311677Y-23033892D01*
X111151248Y-23105319D01*
X111100000Y-23116212D01*
X111048752Y-23105319D01*
X110888322Y-23033892D01*
X110888317Y-23033890D01*
X110882288Y-23031206D01*
X110875835Y-23029834D01*
X110875831Y-23029833D01*
X110701943Y-22992872D01*
X110701940Y-22992871D01*
X110695487Y-22991500D01*
X110504513Y-22991500D01*
X110498060Y-22992871D01*
X110498056Y-22992872D01*
X110324168Y-23029833D01*
X110324161Y-23029835D01*
X110317712Y-23031206D01*
X110311682Y-23033890D01*
X110311681Y-23033891D01*
X110149278Y-23106197D01*
X110149275Y-23106198D01*
X110143248Y-23108882D01*
X110137907Y-23112762D01*
X110137906Y-23112763D01*
X109994091Y-23217250D01*
X109994083Y-23217256D01*
X109988747Y-23221134D01*
X109984330Y-23226039D01*
X109984325Y-23226044D01*
X109889279Y-23331604D01*
X109860960Y-23363056D01*
X109857661Y-23368769D01*
X109857658Y-23368774D01*
X109768777Y-23522721D01*
X109765473Y-23528444D01*
X109763434Y-23534718D01*
X109763430Y-23534728D01*
X109708497Y-23703794D01*
X109708495Y-23703801D01*
X109706458Y-23710072D01*
X109705768Y-23716633D01*
X109705768Y-23716635D01*
X109687186Y-23893435D01*
X109686496Y-23900000D01*
X109706458Y-24089928D01*
X109708495Y-24096200D01*
X109708497Y-24096205D01*
X109763430Y-24265271D01*
X109763433Y-24265278D01*
X109765473Y-24271556D01*
X109803257Y-24337000D01*
X109820138Y-24399998D01*
X109803258Y-24462998D01*
X109768775Y-24522723D01*
X109768771Y-24522730D01*
X109765473Y-24528444D01*
X109763434Y-24534718D01*
X109763430Y-24534728D01*
X109708497Y-24703794D01*
X109708495Y-24703801D01*
X109706458Y-24710072D01*
X109705768Y-24716633D01*
X109705768Y-24716635D01*
X109689363Y-24872721D01*
X109686496Y-24900000D01*
X109706458Y-25089928D01*
X109708495Y-25096200D01*
X109708497Y-25096205D01*
X109763430Y-25265271D01*
X109763433Y-25265278D01*
X109765473Y-25271556D01*
X109803257Y-25337000D01*
X109820138Y-25399998D01*
X109803258Y-25462998D01*
X109768775Y-25522723D01*
X109768771Y-25522730D01*
X109765473Y-25528444D01*
X109763434Y-25534718D01*
X109763430Y-25534728D01*
X109708497Y-25703794D01*
X109708495Y-25703801D01*
X109706458Y-25710072D01*
X109705768Y-25716633D01*
X109705768Y-25716635D01*
X109697863Y-25791851D01*
X109686496Y-25900000D01*
X109687186Y-25906565D01*
X109696267Y-25992971D01*
X109706458Y-26089928D01*
X109708495Y-26096200D01*
X109708497Y-26096205D01*
X109763430Y-26265271D01*
X109763433Y-26265278D01*
X109765473Y-26271556D01*
X109768771Y-26277269D01*
X109768775Y-26277277D01*
X109774390Y-26287001D01*
X109791270Y-26350000D01*
X109774390Y-26412999D01*
X109768775Y-26422722D01*
X109768769Y-26422733D01*
X109765473Y-26428444D01*
X109763434Y-26434718D01*
X109763430Y-26434728D01*
X109708497Y-26603794D01*
X109708495Y-26603801D01*
X109706458Y-26610072D01*
X109705768Y-26616633D01*
X109705768Y-26616635D01*
X109703721Y-26636111D01*
X109686496Y-26800000D01*
X102582165Y-26800000D01*
X102493223Y-26735380D01*
X102456752Y-26708882D01*
X102282288Y-26631206D01*
X102275835Y-26629834D01*
X102275831Y-26629833D01*
X102101943Y-26592872D01*
X102101940Y-26592871D01*
X102095487Y-26591500D01*
X101904513Y-26591500D01*
X101898060Y-26592871D01*
X101898056Y-26592872D01*
X101724168Y-26629833D01*
X101724161Y-26629835D01*
X101717712Y-26631206D01*
X101711682Y-26633890D01*
X101711681Y-26633891D01*
X101549278Y-26706197D01*
X101549275Y-26706198D01*
X101543248Y-26708882D01*
X101537907Y-26712762D01*
X101537906Y-26712763D01*
X101394091Y-26817250D01*
X101394083Y-26817256D01*
X101388747Y-26821134D01*
X101384330Y-26826039D01*
X101384325Y-26826044D01*
X101279507Y-26942457D01*
X101260960Y-26963056D01*
X101257661Y-26968769D01*
X101257658Y-26968774D01*
X101168777Y-27122721D01*
X101165473Y-27128444D01*
X101163434Y-27134718D01*
X101163430Y-27134728D01*
X101108497Y-27303794D01*
X101108495Y-27303801D01*
X101106458Y-27310072D01*
X101105768Y-27316633D01*
X101105768Y-27316635D01*
X101092740Y-27440590D01*
X101086496Y-27500000D01*
X101087186Y-27506565D01*
X101104941Y-27675500D01*
X101106458Y-27689928D01*
X101108495Y-27696200D01*
X101108497Y-27696205D01*
X101163430Y-27865271D01*
X101163433Y-27865278D01*
X101165473Y-27871556D01*
X101168776Y-27877277D01*
X101174388Y-27886997D01*
X101191270Y-27949995D01*
X101174392Y-28012995D01*
X101168775Y-28022723D01*
X101168771Y-28022730D01*
X101165473Y-28028444D01*
X101163434Y-28034718D01*
X101163430Y-28034728D01*
X101108497Y-28203794D01*
X101108495Y-28203801D01*
X101106458Y-28210072D01*
X101105768Y-28216633D01*
X101105768Y-28216635D01*
X101100424Y-28267484D01*
X101086496Y-28400000D01*
X101087186Y-28406565D01*
X101096267Y-28492971D01*
X101106458Y-28589928D01*
X101108495Y-28596200D01*
X101108497Y-28596205D01*
X101163430Y-28765271D01*
X101163433Y-28765278D01*
X101165473Y-28771556D01*
X101168771Y-28777269D01*
X101168775Y-28777277D01*
X101174390Y-28787001D01*
X101191270Y-28850000D01*
X101174390Y-28912999D01*
X101168775Y-28922722D01*
X101168769Y-28922733D01*
X101165473Y-28928444D01*
X101163434Y-28934718D01*
X101163430Y-28934728D01*
X101108497Y-29103794D01*
X101108495Y-29103801D01*
X101106458Y-29110072D01*
X101105768Y-29116633D01*
X101105768Y-29116635D01*
X101091226Y-29254994D01*
X101086496Y-29300000D01*
X101087186Y-29306565D01*
X101104425Y-29470590D01*
X101106458Y-29489928D01*
X101108495Y-29496200D01*
X101108497Y-29496205D01*
X101163430Y-29665271D01*
X101163433Y-29665278D01*
X101165473Y-29671556D01*
X101168776Y-29677277D01*
X101174388Y-29686997D01*
X101191270Y-29749995D01*
X101174392Y-29812995D01*
X101168775Y-29822723D01*
X101168771Y-29822730D01*
X101165473Y-29828444D01*
X101163434Y-29834718D01*
X101163430Y-29834728D01*
X101108497Y-30003794D01*
X101108495Y-30003801D01*
X101106458Y-30010072D01*
X101105768Y-30016633D01*
X101105768Y-30016635D01*
X101093620Y-30132220D01*
X101086496Y-30200000D01*
X101106458Y-30389928D01*
X101108495Y-30396200D01*
X101108497Y-30396205D01*
X101163430Y-30565271D01*
X101163433Y-30565278D01*
X101165473Y-30571556D01*
X101168776Y-30577277D01*
X101168777Y-30577279D01*
X101212287Y-30652641D01*
X101229125Y-30712343D01*
X101215435Y-30772844D01*
X101174535Y-30819481D01*
X101116338Y-30840951D01*
X101111113Y-30841500D01*
X101104513Y-30841500D01*
X101098060Y-30842871D01*
X101098056Y-30842872D01*
X100924168Y-30879833D01*
X100924161Y-30879835D01*
X100917712Y-30881206D01*
X100911682Y-30883890D01*
X100911681Y-30883891D01*
X100749278Y-30956197D01*
X100749275Y-30956198D01*
X100743248Y-30958882D01*
X100737907Y-30962762D01*
X100737906Y-30962763D01*
X100594091Y-31067250D01*
X100594083Y-31067256D01*
X100588747Y-31071134D01*
X100584330Y-31076039D01*
X100584325Y-31076044D01*
X100472270Y-31200495D01*
X100460960Y-31213056D01*
X100457661Y-31218769D01*
X100457658Y-31218774D01*
X100412288Y-31297358D01*
X100365473Y-31378444D01*
X100363434Y-31384718D01*
X100363430Y-31384728D01*
X100308497Y-31553794D01*
X100308495Y-31553801D01*
X100306458Y-31560072D01*
X100305768Y-31566633D01*
X100305768Y-31566635D01*
X100301512Y-31607127D01*
X100286496Y-31750000D01*
X82003428Y-31750000D01*
X82002779Y-28994100D01*
X84458047Y-28994100D01*
X84458435Y-28999030D01*
X84476642Y-29230381D01*
X84476643Y-29230389D01*
X84477031Y-29235315D01*
X84478185Y-29240123D01*
X84478186Y-29240127D01*
X84532046Y-29464470D01*
X84533516Y-29470590D01*
X84626110Y-29694132D01*
X84628695Y-29698351D01*
X84628696Y-29698352D01*
X84711754Y-29833891D01*
X84752534Y-29900437D01*
X84755741Y-29904192D01*
X84755744Y-29904196D01*
X84876244Y-30045283D01*
X84909675Y-30084425D01*
X84915779Y-30089638D01*
X85088535Y-30237187D01*
X85093663Y-30241566D01*
X85299968Y-30367990D01*
X85523510Y-30460584D01*
X85758785Y-30517069D01*
X86000000Y-30536053D01*
X86241215Y-30517069D01*
X86476490Y-30460584D01*
X86601925Y-30408627D01*
X92229526Y-30408627D01*
X92239261Y-30415132D01*
X92378797Y-30463957D01*
X92392505Y-30467086D01*
X92549082Y-30484729D01*
X92563140Y-30484729D01*
X92719716Y-30467086D01*
X92733424Y-30463957D01*
X92872957Y-30415133D01*
X92879806Y-30410557D01*
X92896971Y-30403446D01*
X93002648Y-30403446D01*
X93019811Y-30410556D01*
X93026658Y-30415131D01*
X93166197Y-30463957D01*
X93179905Y-30467086D01*
X93336482Y-30484729D01*
X93350540Y-30484729D01*
X93507116Y-30467086D01*
X93520824Y-30463957D01*
X93660359Y-30415132D01*
X93670094Y-30408628D01*
X93664144Y-30398542D01*
X93355240Y-30089638D01*
X93343510Y-30082866D01*
X93331782Y-30089637D01*
X93038905Y-30382514D01*
X93002648Y-30403446D01*
X92896971Y-30403446D01*
X92860715Y-30382513D01*
X92567840Y-30089638D01*
X92556110Y-30082866D01*
X92544382Y-30089637D01*
X92235473Y-30398545D01*
X92229526Y-30408627D01*
X86601925Y-30408627D01*
X86700032Y-30367990D01*
X86906337Y-30241566D01*
X87090325Y-30084425D01*
X87247466Y-29900437D01*
X87354528Y-29725728D01*
X91790081Y-29725728D01*
X91807723Y-29882305D01*
X91810850Y-29896008D01*
X91859677Y-30035549D01*
X91866181Y-30045283D01*
X91876261Y-30039337D01*
X92185170Y-29730429D01*
X92191942Y-29718699D01*
X92920278Y-29718699D01*
X92927050Y-29730428D01*
X92938081Y-29741459D01*
X92949811Y-29748231D01*
X92961540Y-29741459D01*
X92972571Y-29730428D01*
X92979343Y-29718699D01*
X92979342Y-29718698D01*
X93707678Y-29718698D01*
X93714450Y-29730428D01*
X94023354Y-30039332D01*
X94033440Y-30045282D01*
X94039944Y-30035547D01*
X94088769Y-29896012D01*
X94091898Y-29882304D01*
X94109541Y-29725728D01*
X94109541Y-29711670D01*
X94091898Y-29555093D01*
X94088769Y-29541385D01*
X94039943Y-29401846D01*
X94035368Y-29394999D01*
X94028258Y-29377836D01*
X94007326Y-29414093D01*
X93714449Y-29706970D01*
X93707678Y-29718698D01*
X92979342Y-29718698D01*
X92972571Y-29706969D01*
X92961540Y-29695938D01*
X92949811Y-29689166D01*
X92938081Y-29695938D01*
X92927050Y-29706969D01*
X92920278Y-29718699D01*
X92191942Y-29718699D01*
X92191943Y-29718698D01*
X92185171Y-29706969D01*
X91892296Y-29414094D01*
X91871361Y-29377835D01*
X91864254Y-29394997D01*
X91859677Y-29401845D01*
X91810850Y-29541389D01*
X91807723Y-29555092D01*
X91790081Y-29711670D01*
X91790081Y-29725728D01*
X87354528Y-29725728D01*
X87373890Y-29694132D01*
X87466484Y-29470590D01*
X87501438Y-29324999D01*
X92526578Y-29324999D01*
X92533350Y-29336728D01*
X92544381Y-29347759D01*
X92556111Y-29354531D01*
X92567840Y-29347759D01*
X92578871Y-29336728D01*
X92585643Y-29324999D01*
X93313978Y-29324999D01*
X93320750Y-29336728D01*
X93331781Y-29347759D01*
X93343511Y-29354531D01*
X93355240Y-29347759D01*
X93366271Y-29336728D01*
X93373043Y-29324999D01*
X93366271Y-29313269D01*
X93355240Y-29302238D01*
X93343511Y-29295466D01*
X93331781Y-29302238D01*
X93320750Y-29313269D01*
X93313978Y-29324999D01*
X92585643Y-29324999D01*
X92578871Y-29313269D01*
X92567840Y-29302238D01*
X92556111Y-29295466D01*
X92544381Y-29302238D01*
X92533350Y-29313269D01*
X92526578Y-29324999D01*
X87501438Y-29324999D01*
X87522969Y-29235315D01*
X87541953Y-28994100D01*
X87537564Y-28938328D01*
X91790081Y-28938328D01*
X91807723Y-29094905D01*
X91810850Y-29108608D01*
X91859678Y-29248151D01*
X91864252Y-29254997D01*
X91871362Y-29272161D01*
X91892296Y-29235903D01*
X92185170Y-28943029D01*
X92191942Y-28931299D01*
X92920278Y-28931299D01*
X92927050Y-28943028D01*
X92938081Y-28954059D01*
X92949811Y-28960831D01*
X92961540Y-28954059D01*
X92972571Y-28943028D01*
X92979343Y-28931299D01*
X92979342Y-28931298D01*
X93707678Y-28931298D01*
X93714450Y-28943028D01*
X94007325Y-29235903D01*
X94028258Y-29272159D01*
X94035369Y-29254994D01*
X94039945Y-29248145D01*
X94088769Y-29108612D01*
X94091898Y-29094904D01*
X94109541Y-28938328D01*
X94109541Y-28924270D01*
X94091898Y-28767693D01*
X94088769Y-28753985D01*
X94039944Y-28614449D01*
X94033439Y-28604714D01*
X94023357Y-28610661D01*
X93714449Y-28919570D01*
X93707678Y-28931298D01*
X92979342Y-28931298D01*
X92972571Y-28919569D01*
X92961540Y-28908538D01*
X92949811Y-28901766D01*
X92938081Y-28908538D01*
X92927050Y-28919569D01*
X92920278Y-28931299D01*
X92191942Y-28931299D01*
X92191943Y-28931298D01*
X92185171Y-28919569D01*
X91876266Y-28610664D01*
X91866180Y-28604714D01*
X91859677Y-28614447D01*
X91810850Y-28753989D01*
X91807723Y-28767692D01*
X91790081Y-28924270D01*
X91790081Y-28938328D01*
X87537564Y-28938328D01*
X87522969Y-28752885D01*
X87466484Y-28517610D01*
X87373890Y-28294068D01*
X87341595Y-28241368D01*
X92229526Y-28241368D01*
X92235476Y-28251454D01*
X92544381Y-28560359D01*
X92556110Y-28567131D01*
X92567841Y-28560358D01*
X92860715Y-28267484D01*
X92896973Y-28246550D01*
X92896971Y-28246549D01*
X93002647Y-28246549D01*
X93038906Y-28267484D01*
X93331781Y-28560359D01*
X93343510Y-28567131D01*
X93355241Y-28560358D01*
X93664149Y-28251449D01*
X93670095Y-28241369D01*
X93660361Y-28234865D01*
X93520820Y-28186038D01*
X93507117Y-28182911D01*
X93350540Y-28165269D01*
X93336482Y-28165269D01*
X93179904Y-28182911D01*
X93166201Y-28186038D01*
X93026657Y-28234865D01*
X93019809Y-28239442D01*
X93002647Y-28246549D01*
X92896971Y-28246549D01*
X92879809Y-28239440D01*
X92872963Y-28234866D01*
X92733420Y-28186038D01*
X92719717Y-28182911D01*
X92563140Y-28165269D01*
X92549082Y-28165269D01*
X92392504Y-28182911D01*
X92378801Y-28186038D01*
X92239259Y-28234865D01*
X92229526Y-28241368D01*
X87341595Y-28241368D01*
X87247466Y-28087763D01*
X87237812Y-28076460D01*
X87093532Y-27907530D01*
X87090325Y-27903775D01*
X87059299Y-27877276D01*
X86910096Y-27749844D01*
X86910092Y-27749841D01*
X86906337Y-27746634D01*
X86700032Y-27620210D01*
X86612099Y-27583787D01*
X86481063Y-27529510D01*
X86481060Y-27529509D01*
X86476490Y-27527616D01*
X86471682Y-27526461D01*
X86471677Y-27526460D01*
X86246027Y-27472286D01*
X86246023Y-27472285D01*
X86241215Y-27471131D01*
X86236289Y-27470743D01*
X86236281Y-27470742D01*
X86004930Y-27452535D01*
X86000000Y-27452147D01*
X85995070Y-27452535D01*
X85763718Y-27470742D01*
X85763708Y-27470743D01*
X85758785Y-27471131D01*
X85753978Y-27472285D01*
X85753972Y-27472286D01*
X85528322Y-27526460D01*
X85528313Y-27526462D01*
X85523510Y-27527616D01*
X85518942Y-27529507D01*
X85518936Y-27529510D01*
X85304542Y-27618315D01*
X85304537Y-27618317D01*
X85299968Y-27620210D01*
X85295753Y-27622792D01*
X85295747Y-27622796D01*
X85097877Y-27744051D01*
X85097871Y-27744055D01*
X85093663Y-27746634D01*
X85089913Y-27749836D01*
X85089903Y-27749844D01*
X84913430Y-27900567D01*
X84913423Y-27900573D01*
X84909675Y-27903775D01*
X84906473Y-27907523D01*
X84906467Y-27907530D01*
X84755744Y-28084003D01*
X84755736Y-28084013D01*
X84752534Y-28087763D01*
X84749955Y-28091971D01*
X84749951Y-28091977D01*
X84628696Y-28289847D01*
X84628692Y-28289853D01*
X84626110Y-28294068D01*
X84624217Y-28298637D01*
X84624215Y-28298642D01*
X84535410Y-28513036D01*
X84535407Y-28513042D01*
X84533516Y-28517610D01*
X84532362Y-28522413D01*
X84532360Y-28522422D01*
X84478186Y-28748072D01*
X84478185Y-28748078D01*
X84477031Y-28752885D01*
X84476643Y-28757808D01*
X84476642Y-28757818D01*
X84462436Y-28938328D01*
X84458047Y-28994100D01*
X82002779Y-28994100D01*
X82002074Y-26000000D01*
X91285694Y-26000000D01*
X91306093Y-26181047D01*
X91308428Y-26187720D01*
X91308429Y-26187724D01*
X91363929Y-26346335D01*
X91363931Y-26346339D01*
X91366267Y-26353015D01*
X91370029Y-26359003D01*
X91370031Y-26359006D01*
X91427119Y-26449861D01*
X91463199Y-26507281D01*
X91592029Y-26636111D01*
X91746295Y-26733043D01*
X91918263Y-26793217D01*
X92099310Y-26813616D01*
X92280357Y-26793217D01*
X92452325Y-26733043D01*
X92606591Y-26636111D01*
X92735421Y-26507281D01*
X92832353Y-26353015D01*
X92892527Y-26181047D01*
X92912926Y-26000000D01*
X92892527Y-25818953D01*
X92832353Y-25646985D01*
X92735421Y-25492719D01*
X92606591Y-25363889D01*
X92600597Y-25360123D01*
X92600595Y-25360121D01*
X92458316Y-25270721D01*
X92458313Y-25270719D01*
X92452325Y-25266957D01*
X92445649Y-25264621D01*
X92445645Y-25264619D01*
X92287034Y-25209119D01*
X92287030Y-25209118D01*
X92280357Y-25206783D01*
X92099310Y-25186384D01*
X92092281Y-25187176D01*
X91925291Y-25205991D01*
X91925289Y-25205991D01*
X91918263Y-25206783D01*
X91911590Y-25209117D01*
X91911585Y-25209119D01*
X91752974Y-25264619D01*
X91752966Y-25264622D01*
X91746295Y-25266957D01*
X91740310Y-25270717D01*
X91740303Y-25270721D01*
X91598024Y-25360121D01*
X91598017Y-25360126D01*
X91592029Y-25363889D01*
X91587024Y-25368893D01*
X91587020Y-25368897D01*
X91468207Y-25487710D01*
X91468203Y-25487714D01*
X91463199Y-25492719D01*
X91459436Y-25498707D01*
X91459431Y-25498714D01*
X91370031Y-25640993D01*
X91370027Y-25641000D01*
X91366267Y-25646985D01*
X91363932Y-25653656D01*
X91363929Y-25653664D01*
X91308429Y-25812275D01*
X91308427Y-25812280D01*
X91306093Y-25818953D01*
X91305301Y-25825979D01*
X91305301Y-25825981D01*
X91294262Y-25923955D01*
X91285694Y-26000000D01*
X82002074Y-26000000D01*
X82001672Y-24295100D01*
X84458047Y-24295100D01*
X84458435Y-24300030D01*
X84476642Y-24531381D01*
X84476643Y-24531389D01*
X84477031Y-24536315D01*
X84478185Y-24541123D01*
X84478186Y-24541127D01*
X84520835Y-24718774D01*
X84533516Y-24771590D01*
X84626110Y-24995132D01*
X84628695Y-24999351D01*
X84628696Y-24999352D01*
X84743309Y-25186384D01*
X84752534Y-25201437D01*
X84755741Y-25205192D01*
X84755744Y-25205196D01*
X84868314Y-25336998D01*
X84909675Y-25385425D01*
X84913430Y-25388632D01*
X85070427Y-25522721D01*
X85093663Y-25542566D01*
X85299968Y-25668990D01*
X85523510Y-25761584D01*
X85758785Y-25818069D01*
X86000000Y-25837053D01*
X86241215Y-25818069D01*
X86476490Y-25761584D01*
X86700032Y-25668990D01*
X86906337Y-25542566D01*
X87090325Y-25385425D01*
X87247466Y-25201437D01*
X87373890Y-24995132D01*
X87466484Y-24771590D01*
X87522969Y-24536315D01*
X87541953Y-24295100D01*
X87522969Y-24053885D01*
X87466484Y-23818610D01*
X87373890Y-23595068D01*
X87247466Y-23388763D01*
X87221318Y-23358148D01*
X87093532Y-23208530D01*
X87090325Y-23204775D01*
X87009930Y-23136111D01*
X86910096Y-23050844D01*
X86910092Y-23050841D01*
X86906337Y-23047634D01*
X86883910Y-23033891D01*
X86704252Y-22923796D01*
X86704251Y-22923795D01*
X86700032Y-22921210D01*
X86549858Y-22859006D01*
X86481063Y-22830510D01*
X86481060Y-22830509D01*
X86476490Y-22828616D01*
X86471682Y-22827461D01*
X86471677Y-22827460D01*
X86246027Y-22773286D01*
X86246023Y-22773285D01*
X86241215Y-22772131D01*
X86236289Y-22771743D01*
X86236281Y-22771742D01*
X86004930Y-22753535D01*
X86000000Y-22753147D01*
X85995070Y-22753535D01*
X85763718Y-22771742D01*
X85763708Y-22771743D01*
X85758785Y-22772131D01*
X85753978Y-22773285D01*
X85753972Y-22773286D01*
X85528322Y-22827460D01*
X85528313Y-22827462D01*
X85523510Y-22828616D01*
X85518942Y-22830507D01*
X85518936Y-22830510D01*
X85304542Y-22919315D01*
X85304537Y-22919317D01*
X85299968Y-22921210D01*
X85295753Y-22923792D01*
X85295747Y-22923796D01*
X85097877Y-23045051D01*
X85097871Y-23045055D01*
X85093663Y-23047634D01*
X85089913Y-23050836D01*
X85089903Y-23050844D01*
X84913430Y-23201567D01*
X84913423Y-23201573D01*
X84909675Y-23204775D01*
X84906473Y-23208523D01*
X84906467Y-23208530D01*
X84755744Y-23385003D01*
X84755736Y-23385013D01*
X84752534Y-23388763D01*
X84749955Y-23392971D01*
X84749951Y-23392977D01*
X84628696Y-23590847D01*
X84628692Y-23590853D01*
X84626110Y-23595068D01*
X84624217Y-23599637D01*
X84624215Y-23599642D01*
X84535410Y-23814036D01*
X84535407Y-23814042D01*
X84533516Y-23818610D01*
X84532362Y-23823413D01*
X84532360Y-23823422D01*
X84478186Y-24049072D01*
X84478185Y-24049078D01*
X84477031Y-24053885D01*
X84476643Y-24058808D01*
X84476642Y-24058818D01*
X84460395Y-24265271D01*
X84458047Y-24295100D01*
X82001672Y-24295100D01*
X82001249Y-22500000D01*
X99686384Y-22500000D01*
X99706783Y-22681047D01*
X99709118Y-22687720D01*
X99709119Y-22687724D01*
X99764619Y-22846335D01*
X99764621Y-22846339D01*
X99766957Y-22853015D01*
X99770719Y-22859003D01*
X99770721Y-22859006D01*
X99811431Y-22923796D01*
X99863889Y-23007281D01*
X99992719Y-23136111D01*
X99998713Y-23139877D01*
X99998714Y-23139878D01*
X100096891Y-23201567D01*
X100146985Y-23233043D01*
X100318953Y-23293217D01*
X100500000Y-23313616D01*
X100681047Y-23293217D01*
X100853015Y-23233043D01*
X101007281Y-23136111D01*
X101136111Y-23007281D01*
X101233043Y-22853015D01*
X101293217Y-22681047D01*
X101313616Y-22500000D01*
X101293217Y-22318953D01*
X101233043Y-22146985D01*
X101136111Y-21992719D01*
X101007281Y-21863889D01*
X101001287Y-21860123D01*
X101001285Y-21860121D01*
X100859006Y-21770721D01*
X100859003Y-21770719D01*
X100853015Y-21766957D01*
X100846339Y-21764621D01*
X100846335Y-21764619D01*
X100687724Y-21709119D01*
X100687720Y-21709118D01*
X100681047Y-21706783D01*
X100500000Y-21686384D01*
X100492971Y-21687176D01*
X100325981Y-21705991D01*
X100325979Y-21705991D01*
X100318953Y-21706783D01*
X100312280Y-21709117D01*
X100312275Y-21709119D01*
X100153664Y-21764619D01*
X100153656Y-21764622D01*
X100146985Y-21766957D01*
X100141000Y-21770717D01*
X100140993Y-21770721D01*
X99998714Y-21860121D01*
X99998707Y-21860126D01*
X99992719Y-21863889D01*
X99987714Y-21868893D01*
X99987710Y-21868897D01*
X99868897Y-21987710D01*
X99868893Y-21987714D01*
X99863889Y-21992719D01*
X99860126Y-21998707D01*
X99860121Y-21998714D01*
X99770721Y-22140993D01*
X99770717Y-22141000D01*
X99766957Y-22146985D01*
X99764622Y-22153656D01*
X99764619Y-22153664D01*
X99709119Y-22312275D01*
X99709117Y-22312280D01*
X99706783Y-22318953D01*
X99686384Y-22500000D01*
X82001249Y-22500000D01*
X82000565Y-19596100D01*
X84458047Y-19596100D01*
X84458435Y-19601030D01*
X84476642Y-19832381D01*
X84476643Y-19832389D01*
X84477031Y-19837315D01*
X84478185Y-19842123D01*
X84478186Y-19842127D01*
X84504519Y-19951812D01*
X84533516Y-20072590D01*
X84535409Y-20077160D01*
X84535410Y-20077163D01*
X84549109Y-20110236D01*
X84626110Y-20296132D01*
X84628695Y-20300351D01*
X84628696Y-20300352D01*
X84693783Y-20406565D01*
X84752534Y-20502437D01*
X84755741Y-20506192D01*
X84755744Y-20506196D01*
X84891608Y-20665271D01*
X84909675Y-20686425D01*
X84913430Y-20689632D01*
X85085909Y-20836944D01*
X85093663Y-20843566D01*
X85299968Y-20969990D01*
X85523510Y-21062584D01*
X85758785Y-21119069D01*
X86000000Y-21138053D01*
X86241215Y-21119069D01*
X86476490Y-21062584D01*
X86700032Y-20969990D01*
X86906337Y-20843566D01*
X87090325Y-20686425D01*
X87247466Y-20502437D01*
X87310240Y-20400000D01*
X90886496Y-20400000D01*
X90887186Y-20406565D01*
X90899180Y-20520687D01*
X90906458Y-20589928D01*
X90908495Y-20596200D01*
X90908497Y-20596205D01*
X90963430Y-20765271D01*
X90963433Y-20765278D01*
X90965473Y-20771556D01*
X91060960Y-20936944D01*
X91188747Y-21078866D01*
X91194089Y-21082747D01*
X91194091Y-21082749D01*
X91237298Y-21114141D01*
X91343248Y-21191118D01*
X91517712Y-21268794D01*
X91704513Y-21308500D01*
X91888884Y-21308500D01*
X91895487Y-21308500D01*
X92082288Y-21268794D01*
X92256752Y-21191118D01*
X92411253Y-21078866D01*
X92539040Y-20936944D01*
X92634527Y-20771556D01*
X92693542Y-20589928D01*
X92713504Y-20400000D01*
X92702994Y-20300000D01*
X113041496Y-20300000D01*
X113061458Y-20489928D01*
X113063495Y-20496200D01*
X113063497Y-20496205D01*
X113118430Y-20665271D01*
X113118433Y-20665278D01*
X113120473Y-20671556D01*
X113215960Y-20836944D01*
X113343747Y-20978866D01*
X113498248Y-21091118D01*
X113672712Y-21168794D01*
X113859513Y-21208500D01*
X114043884Y-21208500D01*
X114050487Y-21208500D01*
X114237288Y-21168794D01*
X114411752Y-21091118D01*
X114566253Y-20978866D01*
X114694040Y-20836944D01*
X114789527Y-20671556D01*
X114848542Y-20489928D01*
X114868504Y-20300000D01*
X114848542Y-20110072D01*
X114789527Y-19928444D01*
X114694040Y-19763056D01*
X114600458Y-19659123D01*
X114570001Y-19596641D01*
X114577312Y-19527513D01*
X114620169Y-19472782D01*
X114685526Y-19449107D01*
X114745585Y-19461996D01*
X114746210Y-19460489D01*
X114763313Y-19467573D01*
X114941468Y-19521616D01*
X114953562Y-19524022D01*
X115092401Y-19537696D01*
X115098574Y-19538000D01*
X115558309Y-19538000D01*
X115617705Y-19552878D01*
X115663074Y-19593998D01*
X115683702Y-19651650D01*
X115674718Y-19712218D01*
X115651292Y-19768774D01*
X115634313Y-19809764D01*
X115633236Y-19817944D01*
X115633234Y-19817952D01*
X115626544Y-19868774D01*
X115614534Y-19960000D01*
X115615612Y-19968188D01*
X115633234Y-20102047D01*
X115633235Y-20102053D01*
X115634313Y-20110236D01*
X115637472Y-20117864D01*
X115637473Y-20117865D01*
X115689141Y-20242603D01*
X115689142Y-20242606D01*
X115692302Y-20250233D01*
X115697329Y-20256784D01*
X115697330Y-20256786D01*
X115730760Y-20300352D01*
X115784549Y-20370451D01*
X115904767Y-20462698D01*
X116044764Y-20520687D01*
X116157280Y-20535500D01*
X116228598Y-20535500D01*
X116232720Y-20535500D01*
X116345236Y-20520687D01*
X116485233Y-20462698D01*
X116605451Y-20370451D01*
X116697698Y-20250233D01*
X116755687Y-20110236D01*
X116775466Y-19960000D01*
X116755687Y-19809764D01*
X116697698Y-19669767D01*
X116658171Y-19618255D01*
X116635196Y-19569159D01*
X116634974Y-19514952D01*
X116657547Y-19465668D01*
X116698738Y-19430430D01*
X116802261Y-19375095D01*
X116812514Y-19368244D01*
X116956427Y-19250138D01*
X116965138Y-19241427D01*
X117083244Y-19097514D01*
X117090095Y-19087261D01*
X117177858Y-18923069D01*
X117182573Y-18911686D01*
X117217022Y-18798122D01*
X117217727Y-18786654D01*
X118602272Y-18786654D01*
X118602977Y-18798122D01*
X118637426Y-18911686D01*
X118642141Y-18923069D01*
X118729904Y-19087261D01*
X118736755Y-19097514D01*
X118854861Y-19241427D01*
X118863572Y-19250138D01*
X119007485Y-19368244D01*
X119017738Y-19375095D01*
X119181930Y-19462858D01*
X119193313Y-19467573D01*
X119371468Y-19521616D01*
X119383562Y-19524022D01*
X119522401Y-19537696D01*
X119528574Y-19538000D01*
X119604410Y-19538000D01*
X119617493Y-19534493D01*
X119621000Y-19521410D01*
X120129000Y-19521410D01*
X120132506Y-19534493D01*
X120145590Y-19538000D01*
X120221426Y-19538000D01*
X120227598Y-19537696D01*
X120366437Y-19524022D01*
X120378531Y-19521616D01*
X120556686Y-19467573D01*
X120568069Y-19462858D01*
X120732261Y-19375095D01*
X120742514Y-19368244D01*
X120886427Y-19250138D01*
X120895138Y-19241427D01*
X121013244Y-19097514D01*
X121020095Y-19087261D01*
X121107858Y-18923069D01*
X121112573Y-18911686D01*
X121147022Y-18798122D01*
X121147727Y-18786654D01*
X121136552Y-18784000D01*
X120145590Y-18784000D01*
X120132506Y-18787506D01*
X120129000Y-18800590D01*
X120129000Y-19521410D01*
X119621000Y-19521410D01*
X119621000Y-18800590D01*
X119617493Y-18787506D01*
X119604410Y-18784000D01*
X118613448Y-18784000D01*
X118602272Y-18786654D01*
X117217727Y-18786654D01*
X117206552Y-18784000D01*
X114183448Y-18784000D01*
X114172272Y-18786654D01*
X114172977Y-18798122D01*
X114207426Y-18911686D01*
X114212141Y-18923069D01*
X114299904Y-19087261D01*
X114306755Y-19097514D01*
X114424861Y-19241427D01*
X114436766Y-19253332D01*
X114470342Y-19313655D01*
X114467090Y-19382616D01*
X114427987Y-19439512D01*
X114364771Y-19467261D01*
X114296422Y-19457534D01*
X114277494Y-19449107D01*
X114237288Y-19431206D01*
X114230835Y-19429834D01*
X114230831Y-19429833D01*
X114056943Y-19392872D01*
X114056940Y-19392871D01*
X114050487Y-19391500D01*
X113859513Y-19391500D01*
X113853060Y-19392871D01*
X113853056Y-19392872D01*
X113679168Y-19429833D01*
X113679161Y-19429835D01*
X113672712Y-19431206D01*
X113666682Y-19433890D01*
X113666681Y-19433891D01*
X113504278Y-19506197D01*
X113504275Y-19506198D01*
X113498248Y-19508882D01*
X113492907Y-19512762D01*
X113492906Y-19512763D01*
X113349091Y-19617250D01*
X113349083Y-19617256D01*
X113343747Y-19621134D01*
X113339330Y-19626039D01*
X113339325Y-19626044D01*
X113220379Y-19758148D01*
X113215960Y-19763056D01*
X113212661Y-19768769D01*
X113212658Y-19768774D01*
X113123777Y-19922721D01*
X113120473Y-19928444D01*
X113118434Y-19934718D01*
X113118430Y-19934728D01*
X113063497Y-20103794D01*
X113063495Y-20103801D01*
X113061458Y-20110072D01*
X113060768Y-20116633D01*
X113060768Y-20116635D01*
X113050948Y-20210072D01*
X113041496Y-20300000D01*
X92702994Y-20300000D01*
X92693542Y-20210072D01*
X92634527Y-20028444D01*
X92539040Y-19863056D01*
X92411253Y-19721134D01*
X92405911Y-19717253D01*
X92405908Y-19717250D01*
X92269654Y-19618256D01*
X92256752Y-19608882D01*
X92082288Y-19531206D01*
X92075835Y-19529834D01*
X92075831Y-19529833D01*
X91901943Y-19492872D01*
X91901940Y-19492871D01*
X91895487Y-19491500D01*
X91704513Y-19491500D01*
X91698060Y-19492871D01*
X91698056Y-19492872D01*
X91524168Y-19529833D01*
X91524161Y-19529835D01*
X91517712Y-19531206D01*
X91511682Y-19533890D01*
X91511681Y-19533891D01*
X91349278Y-19606197D01*
X91349275Y-19606198D01*
X91343248Y-19608882D01*
X91337907Y-19612762D01*
X91337906Y-19612763D01*
X91194091Y-19717250D01*
X91194083Y-19717256D01*
X91188747Y-19721134D01*
X91184330Y-19726039D01*
X91184325Y-19726044D01*
X91065379Y-19858148D01*
X91060960Y-19863056D01*
X91057661Y-19868769D01*
X91057658Y-19868774D01*
X91004989Y-19960000D01*
X90965473Y-20028444D01*
X90963434Y-20034718D01*
X90963430Y-20034728D01*
X90908497Y-20203794D01*
X90908495Y-20203801D01*
X90906458Y-20210072D01*
X90886496Y-20400000D01*
X87310240Y-20400000D01*
X87373890Y-20296132D01*
X87466484Y-20072590D01*
X87522969Y-19837315D01*
X87541953Y-19596100D01*
X87522969Y-19354885D01*
X87466484Y-19119610D01*
X87373890Y-18896068D01*
X87247466Y-18689763D01*
X87192823Y-18625785D01*
X87093532Y-18509530D01*
X87090325Y-18505775D01*
X87086569Y-18502567D01*
X86910096Y-18351844D01*
X86910092Y-18351841D01*
X86906337Y-18348634D01*
X86836025Y-18305547D01*
X86704252Y-18224796D01*
X86704251Y-18224795D01*
X86700032Y-18222210D01*
X86494148Y-18136930D01*
X86481063Y-18131510D01*
X86481060Y-18131509D01*
X86476490Y-18129616D01*
X86471682Y-18128461D01*
X86471677Y-18128460D01*
X86246027Y-18074286D01*
X86246023Y-18074285D01*
X86241215Y-18073131D01*
X86236289Y-18072743D01*
X86236281Y-18072742D01*
X86004930Y-18054535D01*
X86000000Y-18054147D01*
X85995070Y-18054535D01*
X85763718Y-18072742D01*
X85763708Y-18072743D01*
X85758785Y-18073131D01*
X85753978Y-18074285D01*
X85753972Y-18074286D01*
X85528322Y-18128460D01*
X85528313Y-18128462D01*
X85523510Y-18129616D01*
X85518942Y-18131507D01*
X85518936Y-18131510D01*
X85304542Y-18220315D01*
X85304537Y-18220317D01*
X85299968Y-18222210D01*
X85295753Y-18224792D01*
X85295747Y-18224796D01*
X85097877Y-18346051D01*
X85097871Y-18346055D01*
X85093663Y-18348634D01*
X85089913Y-18351836D01*
X85089903Y-18351844D01*
X84913430Y-18502567D01*
X84913423Y-18502573D01*
X84909675Y-18505775D01*
X84906473Y-18509523D01*
X84906467Y-18509530D01*
X84755744Y-18686003D01*
X84755736Y-18686013D01*
X84752534Y-18689763D01*
X84749955Y-18693971D01*
X84749951Y-18693977D01*
X84628696Y-18891847D01*
X84628692Y-18891853D01*
X84626110Y-18896068D01*
X84624217Y-18900637D01*
X84624215Y-18900642D01*
X84535410Y-19115036D01*
X84535407Y-19115042D01*
X84533516Y-19119610D01*
X84532362Y-19124413D01*
X84532360Y-19124422D01*
X84478186Y-19350072D01*
X84478185Y-19350078D01*
X84477031Y-19354885D01*
X84476643Y-19359808D01*
X84476642Y-19359818D01*
X84461711Y-19549549D01*
X84458047Y-19596100D01*
X82000565Y-19596100D01*
X82000030Y-17326030D01*
X82016901Y-17263017D01*
X82063021Y-17216886D01*
X82126030Y-17200000D01*
X102364142Y-17200000D01*
X102426324Y-17216413D01*
G37*
G04 #@! TD.AperFunction*
M02*
