M48
; DRILL file {KiCad (7.0.0)} date Thu May 25 13:49:52 2023
; FORMAT={-:-/ absolute / metric / decimal}
; #@! TF.CreationDate,2023-05-25T13:49:52-05:00
; #@! TF.GenerationSoftware,Kicad,Pcbnew,(7.0.0)
; #@! TF.FileFunction,Plated,1,4,PTH
FMAT,2
METRIC
; #@! TA.AperFunction,Plated,PTH,ComponentDrill
T1C0.203
; #@! TA.AperFunction,Plated,PTH,ComponentDrill
T2C0.254
; #@! TA.AperFunction,Plated,PTH,ViaDrill
T3C0.300
; #@! TA.AperFunction,Plated,PTH,ViaDrill
T4C0.400
; #@! TA.AperFunction,Plated,PTH,ComponentDrill
T5C0.600
; #@! TA.AperFunction,Plated,PTH,ComponentDrill
T6C0.650
; #@! TA.AperFunction,Plated,PTH,ComponentDrill
T7C1.549
%
G90
G05
T1
X102.875Y-38.846
X102.875Y-40.454
X104.396Y-37.325
X104.396Y-38.846
X104.396Y-40.454
X104.396Y-41.975
X106.004Y-37.325
X106.004Y-38.846
X106.004Y-40.454
X106.004Y-41.975
X107.525Y-38.846
X107.525Y-40.454
T2
X92.556Y-28.931
X92.556Y-29.719
X93.344Y-28.931
X93.344Y-29.719
T3
X83.4Y-59.85
X83.5Y-44.85
X83.5Y-48.65
X83.7Y-73.332
X83.7Y-77.032
X83.7Y-79.733
X83.9Y-84.733
X83.9Y-89.233
X84.2Y-51.3
X84.7Y-39.95
X84.7Y-75.032
X85.0Y-53.2
X85.0Y-86.832
X85.4Y-57.55
X85.5Y-47.2
X86.0Y-78.432
X86.2Y-51.4
X86.3Y-38.25
X86.9Y-73.432
X86.9Y-89.733
X87.0Y-34.41
X87.5Y-83.432
X88.3Y-34.5
X88.3Y-55.45
X88.5Y-79.632
X88.6Y-46.05
X88.6Y-49.0
X88.7Y-25.6
X89.15Y-51.6
X89.3Y-74.632
X89.6Y-59.85
X90.1Y-33.1
X90.2Y-39.5
X90.4Y-31.8
X90.6Y-88.432
X90.8Y-84.532
X91.2Y-34.1
X91.35Y-48.75
X91.7Y-78.432
X92.099Y-26.0
X92.4Y-73.332
X92.5Y-52.25
X92.6Y-26.8
X93.0Y-37.7
X93.1Y-89.632
X93.6Y-43.25
X93.65Y-33.0
X93.9Y-57.15
X94.3Y-83.432
X94.75Y-45.95
X94.9Y-60.05
X95.2Y-32.5
X95.3Y-48.8
X95.5Y-38.4
X95.5Y-53.4
X95.6Y-79.733
X95.8Y-74.632
X96.1Y-26.9
X96.117Y-36.525
X96.2Y-24.9
X96.4Y-24.2
X96.8Y-23.4
X97.0Y-24.8
X97.0Y-88.432
X97.1Y-24.1
X97.2Y-84.733
X97.5Y-39.0
X97.6Y-60.15
X97.748Y-35.171
X98.2Y-44.25
X98.2Y-51.65
X98.3Y-46.95
X98.45Y-38.45
X98.7Y-33.4
X99.2Y-78.332
X99.25Y-46.45
X99.4Y-35.3
X99.5Y-56.95
X99.9Y-73.332
X100.1Y-20.7
X100.2Y-83.432
X100.5Y-22.5
X100.5Y-89.733
X100.658Y-40.792
X100.8Y-18.7
X100.835Y-39.34
X100.88Y-43.17
X100.9Y-38.3
X101.108Y-36.526
X101.7Y-35.8
X101.8Y-66.432
X101.8Y-72.032
X102.6Y-79.632
X102.8Y-84.632
X102.85Y-18.124
X102.9Y-74.532
X103.0Y-69.332
X105.0Y-50.2
X105.2Y-45.424
X105.3Y-60.45
X105.5Y-35.4
X105.6Y-83.432
X105.9Y-54.6
X106.1Y-58.45
X106.2Y-78.332
X106.784Y-35.432
X106.9Y-52.95
X107.0Y-32.398
X107.58Y-22.347
X107.583Y-35.403
X108.326Y-35.7
X108.4Y-44.05
X108.43Y-18.3
X108.45Y-45.95
X108.5Y-84.632
X108.8Y-58.05
X109.2Y-79.733
X109.415Y-40.7
X109.615Y-38.857
X109.85Y-53.75
X109.95Y-34.7
X109.95Y-51.6
X110.1Y-45.85
X110.187Y-40.051
X110.2Y-40.85
X110.299Y-30.634
X110.423Y-31.423
X110.6Y-60.55
X110.65Y-32.398
X110.7Y-41.65
X110.834Y-35.584
X110.959Y-39.843
X111.0Y-44.05
X111.158Y-37.208
X111.2Y-83.432
X111.45Y-32.398
X111.484Y-34.934
X111.9Y-78.332
X112.099Y-38.577
X112.099Y-40.55
X112.1Y-28.5
X112.3Y-39.65
X112.3Y-58.45
X112.6Y-36.65
X112.912Y-48.638
X113.1Y-52.75
X113.5Y-47.45
X113.712Y-18.105
X113.858Y-27.675
X114.424Y-32.825
X114.5Y-60.25
X114.5Y-79.733
X114.6Y-84.632
X114.9Y-58.05
X115.5Y-45.95
X115.7Y-44.95
X116.0Y-34.25
X116.7Y-48.15
X116.9Y-83.432
X117.4Y-78.432
X117.7Y-60.65
X118.0Y-45.2
X118.3Y-20.9
X118.4Y-25.4
X118.7Y-79.632
X119.4Y-35.2
X119.65Y-51.6
X119.7Y-47.55
X119.7Y-81.532
X119.876Y-37.849
X120.2Y-38.7
X120.9Y-84.532
X121.0Y-52.95
X121.0Y-78.432
X121.55Y-20.35
X121.55Y-24.35
X121.6Y-60.95
X121.9Y-53.85
X122.0Y-59.15
X122.2Y-51.85
X122.3Y-46.2
T4
X91.8Y-20.4
X99.95Y-38.2
X100.45Y-51.2
X101.2Y-31.75
X102.0Y-27.5
X102.0Y-28.4
X102.0Y-29.3
X102.0Y-30.2
X103.7Y-49.2
X104.5Y-33.147
X104.7Y-53.65
X107.45Y-43.95
X109.15Y-29.45
X110.6Y-23.9
X110.6Y-24.9
X110.6Y-25.9
X110.6Y-26.8
X111.6Y-23.9
X111.6Y-24.9
X111.6Y-25.9
X111.6Y-26.8
X111.7Y-29.95
X112.2Y-42.45
X112.7Y-18.1
X112.73Y-47.809
X113.438Y-33.962
X113.9Y-25.25
X113.95Y-26.7
X113.955Y-20.3
X114.95Y-30.7
X115.2Y-37.45
X115.2Y-39.2
X116.025Y-50.875
X116.6Y-23.75
X116.8Y-22.65
X117.2Y-37.45
X117.2Y-39.2
X118.45Y-48.95
X118.65Y-36.0
X120.2Y-42.95
X120.45Y-33.7
T6
X116.55Y-30.305
X116.55Y-31.575
X117.82Y-30.305
X117.82Y-31.575
X119.09Y-30.305
X119.09Y-31.575
X120.36Y-30.305
X120.36Y-31.575
X121.63Y-30.305
X121.63Y-31.575
T7
X86.0Y-19.596
X86.0Y-24.295
X86.0Y-28.994
T5
X115.145Y-18.53G85X116.245Y-18.53
G05
X115.145Y-27.17G85X116.245Y-27.17
G05
X119.575Y-18.53G85X120.175Y-18.53
G05
X119.575Y-27.17G85X120.175Y-27.17
G05
T0
M30
