G04 #@! TF.GenerationSoftware,KiCad,Pcbnew,(7.0.0)*
G04 #@! TF.CreationDate,2023-05-25T13:49:03-05:00*
G04 #@! TF.ProjectId,Emrick,456d7269-636b-42e6-9b69-6361645f7063,3*
G04 #@! TF.SameCoordinates,Original*
G04 #@! TF.FileFunction,Copper,L4,Bot*
G04 #@! TF.FilePolarity,Positive*
%FSLAX46Y46*%
G04 Gerber Fmt 4.6, Leading zero omitted, Abs format (unit mm)*
G04 Created by KiCad (PCBNEW (7.0.0)) date 2023-05-25 13:49:03*
%MOMM*%
%LPD*%
G01*
G04 APERTURE LIST*
G04 Aperture macros list*
%AMRoundRect*
0 Rectangle with rounded corners*
0 $1 Rounding radius*
0 $2 $3 $4 $5 $6 $7 $8 $9 X,Y pos of 4 corners*
0 Add a 4 corners polygon primitive as box body*
4,1,4,$2,$3,$4,$5,$6,$7,$8,$9,$2,$3,0*
0 Add four circle primitives for the rounded corners*
1,1,$1+$1,$2,$3*
1,1,$1+$1,$4,$5*
1,1,$1+$1,$6,$7*
1,1,$1+$1,$8,$9*
0 Add four rect primitives between the rounded corners*
20,1,$1+$1,$2,$3,$4,$5,0*
20,1,$1+$1,$4,$5,$6,$7,0*
20,1,$1+$1,$6,$7,$8,$9,0*
20,1,$1+$1,$8,$9,$2,$3,0*%
G04 Aperture macros list end*
G04 #@! TA.AperFunction,SMDPad,CuDef*
%ADD10RoundRect,0.140000X0.140000X0.170000X-0.140000X0.170000X-0.140000X-0.170000X0.140000X-0.170000X0*%
G04 #@! TD*
G04 #@! TA.AperFunction,SMDPad,CuDef*
%ADD11R,0.600000X0.249200*%
G04 #@! TD*
G04 #@! TA.AperFunction,SMDPad,CuDef*
%ADD12R,0.600000X0.250000*%
G04 #@! TD*
G04 #@! TA.AperFunction,SMDPad,CuDef*
%ADD13R,0.250000X2.400000*%
G04 #@! TD*
G04 #@! TA.AperFunction,SMDPad,CuDef*
%ADD14R,0.300000X1.200000*%
G04 #@! TD*
G04 #@! TA.AperFunction,SMDPad,CuDef*
%ADD15R,0.300000X0.900000*%
G04 #@! TD*
G04 #@! TA.AperFunction,ComponentPad*
%ADD16C,2.057400*%
G04 #@! TD*
G04 #@! TA.AperFunction,SMDPad,CuDef*
%ADD17RoundRect,0.135000X0.135000X0.185000X-0.135000X0.185000X-0.135000X-0.185000X0.135000X-0.185000X0*%
G04 #@! TD*
G04 #@! TA.AperFunction,SMDPad,CuDef*
%ADD18R,3.500000X2.350000*%
G04 #@! TD*
G04 #@! TA.AperFunction,SMDPad,CuDef*
%ADD19RoundRect,0.225000X-0.250000X0.225000X-0.250000X-0.225000X0.250000X-0.225000X0.250000X0.225000X0*%
G04 #@! TD*
G04 #@! TA.AperFunction,SMDPad,CuDef*
%ADD20RoundRect,0.135000X-0.135000X-0.185000X0.135000X-0.185000X0.135000X0.185000X-0.135000X0.185000X0*%
G04 #@! TD*
G04 #@! TA.AperFunction,ComponentPad*
%ADD21C,0.508000*%
G04 #@! TD*
G04 #@! TA.AperFunction,ComponentPad*
%ADD22C,0.499999*%
G04 #@! TD*
G04 #@! TA.AperFunction,ComponentPad*
%ADD23O,1.000000X1.000000*%
G04 #@! TD*
G04 #@! TA.AperFunction,ComponentPad*
%ADD24R,1.000000X1.000000*%
G04 #@! TD*
G04 #@! TA.AperFunction,SMDPad,CuDef*
%ADD25RoundRect,0.225000X0.250000X-0.225000X0.250000X0.225000X-0.250000X0.225000X-0.250000X-0.225000X0*%
G04 #@! TD*
G04 #@! TA.AperFunction,ComponentPad*
%ADD26O,1.600000X1.000000*%
G04 #@! TD*
G04 #@! TA.AperFunction,ComponentPad*
%ADD27O,2.100000X1.000000*%
G04 #@! TD*
G04 #@! TA.AperFunction,SMDPad,CuDef*
%ADD28RoundRect,0.200000X-0.275000X0.200000X-0.275000X-0.200000X0.275000X-0.200000X0.275000X0.200000X0*%
G04 #@! TD*
G04 #@! TA.AperFunction,SMDPad,CuDef*
%ADD29R,0.660400X2.000000*%
G04 #@! TD*
G04 #@! TA.AperFunction,SMDPad,CuDef*
%ADD30R,0.762000X1.854200*%
G04 #@! TD*
G04 #@! TA.AperFunction,SMDPad,CuDef*
%ADD31R,0.800000X1.900000*%
G04 #@! TD*
G04 #@! TA.AperFunction,ViaPad*
%ADD32C,0.600000*%
G04 #@! TD*
G04 #@! TA.AperFunction,ViaPad*
%ADD33C,0.800000*%
G04 #@! TD*
G04 #@! TA.AperFunction,ViaPad*
%ADD34C,0.700000*%
G04 #@! TD*
G04 #@! TA.AperFunction,Conductor*
%ADD35C,0.250000*%
G04 #@! TD*
G04 #@! TA.AperFunction,Conductor*
%ADD36C,0.800000*%
G04 #@! TD*
G04 #@! TA.AperFunction,Conductor*
%ADD37C,0.300000*%
G04 #@! TD*
G04 #@! TA.AperFunction,Conductor*
%ADD38C,0.500000*%
G04 #@! TD*
G04 APERTURE END LIST*
G36*
X102640125Y-64647283D02*
G01*
X102664584Y-64799895D01*
X102851244Y-65263585D01*
X103061459Y-65493750D01*
X103209949Y-65705080D01*
X103317671Y-66103904D01*
X103390471Y-66762789D01*
X103434194Y-67754298D01*
X103454684Y-69150996D01*
X103458334Y-70420939D01*
X103458334Y-75018751D01*
X85466667Y-75018751D01*
X85466667Y-77929167D01*
X121450000Y-77929167D01*
X121450000Y-85072917D01*
X85466667Y-85072917D01*
X85466667Y-87983334D01*
X101606250Y-87983334D01*
X101606250Y-90100000D01*
X83350000Y-90100000D01*
X83350000Y-82956251D01*
X119333334Y-82956251D01*
X119333334Y-80045834D01*
X83350000Y-80045834D01*
X83350000Y-72902084D01*
X101341667Y-72902084D01*
X101341667Y-69362606D01*
X101353469Y-67853159D01*
X101394473Y-66790585D01*
X101473081Y-66093002D01*
X101597691Y-65678525D01*
X101738542Y-65493750D01*
X102074763Y-65043289D01*
X102135417Y-64799895D01*
X102289215Y-64469110D01*
X102400000Y-64435417D01*
X102640125Y-64647283D01*
G37*
D10*
X102380000Y-19900000D03*
X101420000Y-19900000D03*
D11*
X104140000Y-21387982D03*
X104140000Y-20887856D03*
D12*
X104140000Y-20387730D03*
X104140000Y-19889999D03*
D13*
X105040000Y-20639999D03*
D14*
X105580600Y-20042205D03*
D15*
X105580600Y-21382205D03*
D16*
X86000000Y-19596100D03*
X86000000Y-24295100D03*
X86000000Y-28994100D03*
D17*
X102910000Y-18800000D03*
X101890000Y-18800000D03*
D18*
X104799999Y-24374999D03*
X104799999Y-30424999D03*
D19*
X109280190Y-19820000D03*
X109280190Y-21370000D03*
D10*
X105050190Y-18720000D03*
X104090190Y-18720000D03*
D20*
X101740190Y-21580000D03*
X102760190Y-21580000D03*
D17*
X100610000Y-21600000D03*
X99590000Y-21600000D03*
D21*
X92556111Y-28931299D03*
X93343511Y-28931299D03*
X93343511Y-29718699D03*
X92556111Y-29718699D03*
D19*
X109300000Y-22960000D03*
X109300000Y-24510000D03*
D22*
X104396499Y-37325001D03*
X106003501Y-38846499D03*
X104396499Y-38846499D03*
X107524999Y-40453501D03*
X106003501Y-40453501D03*
X104396499Y-40453501D03*
X104396499Y-41974999D03*
X106003501Y-37325001D03*
X102875001Y-38846499D03*
X102875001Y-40453501D03*
X106003501Y-41974999D03*
X107524999Y-38846499D03*
D23*
X121629999Y-30304999D03*
X121629999Y-31574999D03*
X120359999Y-30304999D03*
X120359999Y-31574999D03*
X119089999Y-30304999D03*
X119089999Y-31574999D03*
X117819999Y-30304999D03*
X117819999Y-31574999D03*
X116549999Y-30304999D03*
D24*
X116549999Y-31574999D03*
D25*
X107580190Y-21370000D03*
X107580190Y-19820000D03*
D26*
X119874999Y-18529999D03*
D27*
X115694999Y-18529999D03*
D26*
X119874999Y-27169999D03*
D27*
X115694999Y-27169999D03*
D28*
X98517500Y-26117500D03*
X98517500Y-27767500D03*
D29*
X93599998Y-18561999D03*
X91899999Y-18561999D03*
X90200000Y-18561999D03*
D30*
X94974999Y-24027399D03*
X88824999Y-24027399D03*
D31*
X93699999Y-35899999D03*
X91799999Y-35899999D03*
X92749999Y-32899999D03*
X100349999Y-33149999D03*
X98449999Y-33149999D03*
X99399999Y-30149999D03*
D28*
X96917500Y-26117500D03*
X96917500Y-27767500D03*
D31*
X97249999Y-32849999D03*
X95349999Y-32849999D03*
X96299999Y-29849999D03*
D28*
X95317500Y-26117500D03*
X95317500Y-27767500D03*
D32*
X97000000Y-24800000D03*
X96800000Y-23400000D03*
X96400000Y-24200000D03*
X96200000Y-24900000D03*
X97100000Y-24100000D03*
X93649502Y-33000000D03*
X100800000Y-18700000D03*
X108430190Y-18300000D03*
X107580190Y-22346799D03*
X100100000Y-20699500D03*
X96100000Y-26900000D03*
X92600000Y-26800000D03*
X110299367Y-30633506D03*
X112100000Y-28500000D03*
X101700000Y-35800000D03*
X99400000Y-35300000D03*
X98700000Y-33400000D03*
X100500000Y-22500000D03*
X88300000Y-34500000D03*
X87000000Y-34409500D03*
X93000000Y-37700000D03*
X95500000Y-38400000D03*
X100835473Y-39340371D03*
X97500000Y-39000000D03*
X91200000Y-34100000D03*
X90100000Y-33100000D03*
X100900000Y-38300000D03*
X96116518Y-36525000D03*
X97748115Y-35170894D03*
X101107677Y-36525500D03*
X95200000Y-32500000D03*
X88700000Y-25600000D03*
X90400000Y-31800000D03*
X92099310Y-26000000D03*
D33*
X91800000Y-20400000D03*
X110600000Y-26800000D03*
X111600000Y-26800000D03*
X110600000Y-25900000D03*
X111600000Y-25900000D03*
X110600000Y-24900000D03*
X111600000Y-24900000D03*
X111600000Y-23900000D03*
X110600000Y-23900000D03*
X109150048Y-29449951D03*
X102000000Y-27500000D03*
X102000000Y-28400000D03*
X102000000Y-29300000D03*
X102000000Y-30200000D03*
D32*
X120900000Y-84532500D03*
X90600000Y-88432500D03*
X111900000Y-78332500D03*
X93100000Y-89632500D03*
X111200000Y-83432500D03*
X121000000Y-78432500D03*
X109200000Y-79732500D03*
X95800000Y-74632500D03*
X102600000Y-79632500D03*
X97000000Y-88432500D03*
X90800000Y-84532500D03*
X108500000Y-84632500D03*
X106200000Y-78332500D03*
X92400000Y-73332500D03*
X94300000Y-83432500D03*
X83900000Y-84732500D03*
X105600000Y-83432500D03*
X83700000Y-73332500D03*
X102900000Y-74532500D03*
X87500000Y-83432500D03*
X119700000Y-81532500D03*
X97200000Y-84732500D03*
X99900000Y-73332500D03*
X101800000Y-66432500D03*
X116900000Y-83432500D03*
X83700000Y-79732500D03*
X95600000Y-79732500D03*
X83900000Y-89232500D03*
X86900000Y-89732500D03*
X88500000Y-79632500D03*
X89300000Y-74632500D03*
X118700000Y-79632500D03*
X103000000Y-69332500D03*
X101800000Y-72032500D03*
X83700000Y-77032500D03*
X102800000Y-84632500D03*
X114600000Y-84632500D03*
X114500000Y-79732500D03*
X85000000Y-86832500D03*
X117400000Y-78432500D03*
X86000000Y-78432500D03*
X84700000Y-75032500D03*
X91700000Y-78432500D03*
X100500000Y-89732500D03*
X100200000Y-83432500D03*
X86900000Y-73432500D03*
X99200000Y-78332500D03*
X83500000Y-48650000D03*
D34*
X99250000Y-46450000D03*
D33*
X120450000Y-33700000D03*
D32*
X93600000Y-43250000D03*
X93900000Y-57150000D03*
X84200000Y-51300000D03*
X113711515Y-18105387D03*
X99500000Y-56950000D03*
X92500000Y-52250000D03*
D34*
X98450000Y-38450000D03*
D32*
X88300000Y-55450000D03*
D34*
X112729962Y-47808742D03*
D33*
X113950000Y-26700000D03*
D32*
X121550000Y-20350000D03*
X95500000Y-53400000D03*
X95300000Y-48800000D03*
X122200000Y-51850000D03*
X86200000Y-51400000D03*
X118000000Y-45200000D03*
X121600000Y-60950000D03*
X122300000Y-46200000D03*
X89150000Y-51600000D03*
X105300000Y-60450000D03*
X94750000Y-45950000D03*
X83500000Y-44850000D03*
X98200000Y-51650000D03*
D33*
X115200000Y-37450000D03*
D32*
X85000000Y-53200000D03*
X98300000Y-46950000D03*
D33*
X116025000Y-50875000D03*
D32*
X121550000Y-24350000D03*
X86300000Y-38250000D03*
X114500000Y-60250000D03*
D33*
X111700000Y-29950000D03*
D32*
X85400000Y-57550000D03*
X89600000Y-59850000D03*
X121000000Y-52950000D03*
X117700000Y-60650000D03*
X94900000Y-60050000D03*
X105000000Y-50200000D03*
D33*
X117200000Y-39200000D03*
D32*
X97600000Y-60150000D03*
D34*
X103700000Y-49200000D03*
D32*
X114900000Y-58050000D03*
D33*
X117200000Y-37450000D03*
D32*
X106900000Y-52950000D03*
X109950000Y-51600000D03*
D34*
X104700000Y-53650000D03*
D32*
X109950000Y-34700000D03*
X91350000Y-48750000D03*
X112300000Y-58450000D03*
X111000000Y-44050000D03*
X83400000Y-59850000D03*
X118300000Y-20900000D03*
X118400000Y-25400000D03*
X105900000Y-54600000D03*
X106100000Y-58450000D03*
X88600000Y-49000000D03*
D33*
X115200000Y-39200000D03*
D32*
X88600000Y-46050000D03*
X109850000Y-53750000D03*
X85500000Y-47200000D03*
X90200000Y-39500000D03*
X84700000Y-39950000D03*
X110600000Y-60550000D03*
X108800000Y-58050000D03*
X122000000Y-59150000D03*
X119650000Y-51600000D03*
D34*
X100450000Y-51200000D03*
D32*
X121900000Y-53850000D03*
D33*
X99950000Y-38200000D03*
D32*
X111158411Y-37208411D03*
X112300000Y-39650000D03*
D33*
X112200000Y-42450000D03*
D32*
X116000000Y-34250000D03*
D33*
X118450000Y-48950000D03*
X120200000Y-42950000D03*
D32*
X108450000Y-45950000D03*
X105200451Y-45424500D03*
D33*
X113900000Y-25250000D03*
X113955000Y-20300000D03*
D32*
X100880000Y-43170000D03*
X107000000Y-32397502D03*
X100658411Y-40791589D03*
X115500000Y-45950000D03*
X110100000Y-45850000D03*
X108400000Y-44050000D03*
X119700000Y-47550000D03*
X113100000Y-52750000D03*
D33*
X101200000Y-31750000D03*
D32*
X114424156Y-32825500D03*
D33*
X104500000Y-33147002D03*
X114950000Y-30700000D03*
X113437701Y-33962299D03*
D32*
X108325501Y-35700000D03*
X111450000Y-32397502D03*
X110650497Y-32397502D03*
X107583099Y-35403277D03*
X110423339Y-31423339D03*
X106784108Y-35431875D03*
D33*
X116600000Y-23750000D03*
D32*
X120200000Y-38700000D03*
X119875734Y-37849500D03*
D33*
X116800000Y-22650000D03*
D32*
X112912254Y-48638453D03*
X105500000Y-35400000D03*
X98200000Y-44250000D03*
D33*
X107450000Y-43950000D03*
D32*
X110700000Y-41650000D03*
X115700000Y-44950000D03*
X116700000Y-48150000D03*
X110200000Y-40850000D03*
X109414683Y-40700062D03*
X113500000Y-47450000D03*
X113858420Y-27675500D03*
X119400000Y-35200000D03*
X112099500Y-40550000D03*
X110958728Y-39843088D03*
X109614558Y-38857499D03*
X112099500Y-38577378D03*
D33*
X112700000Y-18100000D03*
X118650000Y-36000000D03*
D32*
X111483531Y-34933531D03*
X110833531Y-35583531D03*
X112600000Y-36650000D03*
X102849810Y-18124500D03*
X110186629Y-40050609D03*
D35*
X102849810Y-18124500D02*
X102910000Y-18184690D01*
X102910000Y-18184690D02*
X102910000Y-19060190D01*
X100900000Y-18800000D02*
X100800000Y-18700000D01*
X101890000Y-18800000D02*
X100900000Y-18800000D01*
X107580190Y-22346799D02*
X107580190Y-21370000D01*
X102760190Y-20280190D02*
X102380000Y-19900000D01*
X102760190Y-21580000D02*
X102760190Y-20280190D01*
X103452333Y-20887857D02*
X102760190Y-21580000D01*
X104140001Y-20887857D02*
X103452333Y-20887857D01*
X100300000Y-19900000D02*
X101420000Y-19900000D01*
X103330000Y-19220000D02*
X102910000Y-18800000D01*
X103500000Y-20088036D02*
X103330000Y-19918036D01*
X103330000Y-19918036D02*
X103330000Y-19220000D01*
X103500000Y-20186334D02*
X103500000Y-20088036D01*
X103701397Y-20387731D02*
X103506833Y-20193167D01*
X104000000Y-20387731D02*
X103701397Y-20387731D01*
X104087731Y-20387731D02*
X104000000Y-20387731D01*
X104140001Y-20387731D02*
X104087731Y-20387731D01*
X99590000Y-21209500D02*
X100100000Y-20699500D01*
X99590000Y-21600000D02*
X99590000Y-21209500D01*
X99500000Y-19900000D02*
X100000000Y-19900000D01*
X98600000Y-20800000D02*
X99500000Y-19900000D01*
X98600000Y-21580538D02*
X98600000Y-20800000D01*
X100000000Y-19900000D02*
X97144300Y-19900000D01*
X100219462Y-23200000D02*
X98600000Y-21580538D01*
X100683884Y-23200000D02*
X100219462Y-23200000D01*
X100300000Y-19900000D02*
X100000000Y-19900000D01*
X101740190Y-22143694D02*
X100683884Y-23200000D01*
X101740190Y-21580000D02*
X101740190Y-22143694D01*
X99800000Y-19400000D02*
X100300000Y-19900000D01*
X99800000Y-18600000D02*
X99800000Y-19400000D01*
X105260190Y-17500000D02*
X100900000Y-17500000D01*
X100900000Y-17500000D02*
X99800000Y-18600000D01*
X107580190Y-19820000D02*
X105260190Y-17500000D01*
X92216810Y-26117500D02*
X95317500Y-26117500D01*
X92099310Y-26000000D02*
X92216810Y-26117500D01*
X100719310Y-36137133D02*
X98714354Y-36137133D01*
X101107677Y-36525500D02*
X100719310Y-36137133D01*
X98714354Y-36137133D02*
X97748115Y-35170894D01*
X87000000Y-30044300D02*
X87000000Y-34409500D01*
X97144300Y-19900000D02*
X87000000Y-30044300D01*
X95688604Y-34625000D02*
X96263604Y-35200000D01*
X92975000Y-37175000D02*
X92975000Y-34625000D01*
X93000000Y-37200000D02*
X92975000Y-37175000D01*
X96263604Y-35200000D02*
X97719009Y-35200000D01*
X97719009Y-35200000D02*
X97748115Y-35170894D01*
X93000000Y-37700000D02*
X93000000Y-37200000D01*
X92975000Y-34625000D02*
X95688604Y-34625000D01*
X95500000Y-37141518D02*
X96116518Y-36525000D01*
X95500000Y-38400000D02*
X95500000Y-37141518D01*
X100800844Y-39375000D02*
X100835473Y-39340371D01*
X97875000Y-39375000D02*
X100800844Y-39375000D01*
X97500000Y-39000000D02*
X97875000Y-39375000D01*
X90200000Y-33100000D02*
X91200000Y-34100000D01*
X90100000Y-33100000D02*
X90200000Y-33100000D01*
X100250305Y-38925000D02*
X100900000Y-38275305D01*
X99225000Y-38500305D02*
X99649695Y-38925000D01*
X99225000Y-37899695D02*
X99225000Y-38500305D01*
X97191518Y-37600000D02*
X98925305Y-37600000D01*
X96116518Y-36525000D02*
X97191518Y-37600000D01*
X98925305Y-37600000D02*
X99225000Y-37899695D01*
X99649695Y-38925000D02*
X100250305Y-38925000D01*
X100900000Y-38275305D02*
X100900000Y-38300000D01*
X95200000Y-32500000D02*
X95350000Y-32850000D01*
X91800000Y-20400000D02*
X91800000Y-18662000D01*
X91800000Y-18662000D02*
X91900000Y-18562000D01*
D36*
X90200001Y-20095099D02*
X86000000Y-24295100D01*
X90200001Y-18562000D02*
X90200001Y-20095099D01*
D35*
X116100000Y-33450000D02*
X118650000Y-36000000D01*
X113950000Y-33450000D02*
X116100000Y-33450000D01*
X112850000Y-18100000D02*
X113175000Y-18425000D01*
X112700000Y-18100000D02*
X112850000Y-18100000D01*
X113175000Y-18425000D02*
X113175000Y-32675000D01*
X113175000Y-32675000D02*
X113950000Y-33450000D01*
X101419652Y-20930000D02*
X102110190Y-20930000D01*
X102110190Y-20930000D02*
X102760190Y-21580000D01*
X100749652Y-21600000D02*
X101419652Y-20930000D01*
X100610000Y-21600000D02*
X100749652Y-21600000D01*
X92750000Y-32900000D02*
X95317500Y-30332500D01*
X95317500Y-30332500D02*
X95317500Y-27767500D01*
X96374695Y-35900000D02*
X93700000Y-35900000D01*
X103408326Y-37150000D02*
X97624695Y-37150000D01*
X104491325Y-38232999D02*
X103408326Y-37150000D01*
X111017001Y-38232999D02*
X104491325Y-38232999D01*
X112600000Y-36650000D02*
X111017001Y-38232999D01*
X97624695Y-37150000D02*
X96374695Y-35900000D01*
D36*
X104100000Y-19662731D02*
X104140001Y-19662731D01*
X104100000Y-18729810D02*
X104100000Y-19662731D01*
X104090190Y-18720000D02*
X104100000Y-18729810D01*
D35*
X96450000Y-34750000D02*
X96450000Y-33950000D01*
X96450000Y-33950000D02*
X95200000Y-32500000D01*
D37*
X111158411Y-37208411D02*
X111158411Y-37172350D01*
X113580761Y-34750000D02*
X113900000Y-34750000D01*
X111158411Y-37172350D02*
X113580761Y-34750000D01*
X113900000Y-34750000D02*
X115500000Y-34750000D01*
X115500000Y-34750000D02*
X116000000Y-34250000D01*
D35*
X108450000Y-45950000D02*
X105725951Y-45950000D01*
X105725951Y-45950000D02*
X105200451Y-45424500D01*
D38*
X113900000Y-20355000D02*
X113955000Y-20300000D01*
X113900000Y-25250000D02*
X113900000Y-20355000D01*
D35*
X115500000Y-45950000D02*
X117100000Y-47550000D01*
X110100000Y-45750000D02*
X110100000Y-45850000D01*
X108400000Y-44050000D02*
X110100000Y-45750000D01*
X117100000Y-47550000D02*
X119700000Y-47550000D01*
D38*
X104500000Y-33147002D02*
X102597002Y-33147002D01*
X102597002Y-33147002D02*
X101200000Y-31750000D01*
D35*
X119250734Y-36999266D02*
X120900000Y-35350000D01*
X120225305Y-32450000D02*
X115674695Y-32450000D01*
X120900000Y-35350000D02*
X120900000Y-34275305D01*
X120200000Y-38700000D02*
X119842350Y-38700000D01*
X121200000Y-33424695D02*
X120225305Y-32450000D01*
X117070000Y-27580000D02*
X117070000Y-24220000D01*
X119842350Y-38700000D02*
X119250734Y-38108384D01*
X117070000Y-24220000D02*
X116600000Y-23750000D01*
X120900000Y-34275305D02*
X121200000Y-33975305D01*
X115674695Y-28975305D02*
X117070000Y-27580000D01*
X115674695Y-32450000D02*
X115674695Y-28975305D01*
X119250734Y-38108384D02*
X119250734Y-36999266D01*
X121200000Y-33975305D02*
X121200000Y-33424695D01*
X122455000Y-28283274D02*
X116821726Y-22650000D01*
X119875734Y-37849500D02*
X120255095Y-37849500D01*
X116821726Y-22650000D02*
X116800000Y-22650000D01*
X120255095Y-37849500D02*
X122455000Y-35649595D01*
X122455000Y-35649595D02*
X122455000Y-28283274D01*
X98225000Y-44275000D02*
X98200000Y-44250000D01*
X106450000Y-44450000D02*
X106275000Y-44275000D01*
X107450000Y-43950000D02*
X106950000Y-44450000D01*
X106275000Y-44275000D02*
X98225000Y-44275000D01*
X106950000Y-44450000D02*
X106450000Y-44450000D01*
X110700000Y-41650000D02*
X112425305Y-41650000D01*
X115700000Y-44924695D02*
X115700000Y-44950000D01*
X112425305Y-41650000D02*
X115700000Y-44924695D01*
X110075000Y-41925000D02*
X116300000Y-48150000D01*
X116300000Y-48150000D02*
X116700000Y-48150000D01*
X110075000Y-40975000D02*
X110075000Y-41925000D01*
X110200000Y-40850000D02*
X110075000Y-40975000D01*
X109414683Y-43364683D02*
X113500000Y-47450000D01*
X109414683Y-40700062D02*
X109414683Y-43364683D01*
X119400000Y-35200000D02*
X117100000Y-32900000D01*
X113858420Y-31270121D02*
X113858420Y-27675500D01*
X115488299Y-32900000D02*
X113858420Y-31270121D01*
X117100000Y-32900000D02*
X115488299Y-32900000D01*
X111665640Y-40550000D02*
X112099500Y-40550000D01*
X110958728Y-39843088D02*
X111665640Y-40550000D01*
D37*
X111819379Y-38857499D02*
X112099500Y-38577378D01*
X109614558Y-38857499D02*
X111819379Y-38857499D01*
D35*
X95317500Y-26117500D02*
X96917500Y-26117500D01*
X96917500Y-26117500D02*
X98517500Y-26117500D01*
X111483531Y-34933531D02*
X110625000Y-34075000D01*
X110625000Y-34075000D02*
X100193150Y-34075000D01*
X108176327Y-34666942D02*
X98116942Y-34666942D01*
X110833531Y-35583531D02*
X109092916Y-35583531D01*
X109092916Y-35583531D02*
X108176327Y-34666942D01*
X97250000Y-33800000D02*
X97250000Y-32850000D01*
X98116942Y-34666942D02*
X97250000Y-33800000D01*
X96300000Y-29850000D02*
X96300000Y-28385000D01*
X96635500Y-27699500D02*
X96682500Y-27652500D01*
X96300000Y-28385000D02*
X96917500Y-27767500D01*
X95282500Y-27767500D02*
X95317500Y-27767500D01*
X99400000Y-28650000D02*
X98517500Y-27767500D01*
X99400000Y-30150000D02*
X99400000Y-28650000D01*
G04 #@! TA.AperFunction,Conductor*
G36*
X89339028Y-17214352D02*
G01*
X89384125Y-17254139D01*
X89405644Y-17310297D01*
X89398682Y-17370032D01*
X89370565Y-17445416D01*
X89370563Y-17445421D01*
X89367812Y-17452799D01*
X89366970Y-17460625D01*
X89366969Y-17460632D01*
X89361661Y-17510011D01*
X89361301Y-17513362D01*
X89361301Y-17516731D01*
X89361301Y-18183331D01*
X89355134Y-18222267D01*
X89308498Y-18365794D01*
X89308496Y-18365801D01*
X89306459Y-18372072D01*
X89305769Y-18378633D01*
X89305769Y-18378635D01*
X89291844Y-18511119D01*
X89291843Y-18511133D01*
X89291501Y-18514390D01*
X89291501Y-18517674D01*
X89291501Y-19666596D01*
X89281910Y-19714814D01*
X89254596Y-19755691D01*
X86279453Y-22730832D01*
X86233969Y-22759949D01*
X86180473Y-22767349D01*
X86004931Y-22753535D01*
X86004930Y-22753535D01*
X86000000Y-22753147D01*
X85995070Y-22753535D01*
X85763718Y-22771742D01*
X85763708Y-22771743D01*
X85758785Y-22772131D01*
X85753978Y-22773285D01*
X85753972Y-22773286D01*
X85528322Y-22827460D01*
X85528313Y-22827462D01*
X85523510Y-22828616D01*
X85518942Y-22830507D01*
X85518936Y-22830510D01*
X85304542Y-22919315D01*
X85304537Y-22919317D01*
X85299968Y-22921210D01*
X85295753Y-22923792D01*
X85295747Y-22923796D01*
X85097877Y-23045051D01*
X85097871Y-23045055D01*
X85093663Y-23047634D01*
X85089913Y-23050836D01*
X85089903Y-23050844D01*
X84913430Y-23201567D01*
X84913423Y-23201573D01*
X84909675Y-23204775D01*
X84906473Y-23208523D01*
X84906467Y-23208530D01*
X84755744Y-23385003D01*
X84755736Y-23385013D01*
X84752534Y-23388763D01*
X84749955Y-23392971D01*
X84749951Y-23392977D01*
X84628696Y-23590847D01*
X84628692Y-23590853D01*
X84626110Y-23595068D01*
X84624217Y-23599637D01*
X84624215Y-23599642D01*
X84535410Y-23814036D01*
X84535407Y-23814042D01*
X84533516Y-23818610D01*
X84532362Y-23823413D01*
X84532360Y-23823422D01*
X84478186Y-24049072D01*
X84478185Y-24049078D01*
X84477031Y-24053885D01*
X84476643Y-24058808D01*
X84476642Y-24058818D01*
X84459139Y-24281225D01*
X84458047Y-24295100D01*
X84458435Y-24300030D01*
X84476642Y-24531381D01*
X84476643Y-24531389D01*
X84477031Y-24536315D01*
X84478185Y-24541123D01*
X84478186Y-24541127D01*
X84527390Y-24746076D01*
X84533516Y-24771590D01*
X84626110Y-24995132D01*
X84752534Y-25201437D01*
X84755741Y-25205192D01*
X84755744Y-25205196D01*
X84880905Y-25351740D01*
X84909675Y-25385425D01*
X84913430Y-25388632D01*
X85024936Y-25483868D01*
X85093663Y-25542566D01*
X85299968Y-25668990D01*
X85523510Y-25761584D01*
X85758785Y-25818069D01*
X86000000Y-25837053D01*
X86241215Y-25818069D01*
X86476490Y-25761584D01*
X86700032Y-25668990D01*
X86906337Y-25542566D01*
X87090325Y-25385425D01*
X87247466Y-25201437D01*
X87373890Y-24995132D01*
X87466484Y-24771590D01*
X87522969Y-24536315D01*
X87541953Y-24295100D01*
X87527749Y-24114625D01*
X87535149Y-24061130D01*
X87564264Y-24015648D01*
X87720406Y-23859506D01*
X87770564Y-23828770D01*
X87829211Y-23824154D01*
X87883561Y-23846667D01*
X87921767Y-23891400D01*
X87935500Y-23948603D01*
X87935500Y-25003138D01*
X87935859Y-25006485D01*
X87935860Y-25006488D01*
X87941168Y-25055867D01*
X87941169Y-25055873D01*
X87942011Y-25063701D01*
X87944762Y-25071078D01*
X87944763Y-25071080D01*
X87989962Y-25192263D01*
X87989964Y-25192266D01*
X87993111Y-25200704D01*
X87998508Y-25207914D01*
X87998510Y-25207917D01*
X88054336Y-25282491D01*
X88080739Y-25317761D01*
X88087950Y-25323159D01*
X88172135Y-25386180D01*
X88197796Y-25405389D01*
X88334799Y-25456489D01*
X88395362Y-25463000D01*
X89251269Y-25463000D01*
X89254638Y-25463000D01*
X89315201Y-25456489D01*
X89452204Y-25405389D01*
X89569261Y-25317761D01*
X89656889Y-25200704D01*
X89707989Y-25063701D01*
X89714500Y-25003138D01*
X89714500Y-23051662D01*
X89707989Y-22991099D01*
X89656889Y-22854096D01*
X89636949Y-22827460D01*
X89574659Y-22744250D01*
X89569261Y-22737039D01*
X89562049Y-22731640D01*
X89459417Y-22654810D01*
X89459414Y-22654808D01*
X89452204Y-22649411D01*
X89443766Y-22646264D01*
X89443763Y-22646262D01*
X89322580Y-22601063D01*
X89322578Y-22601062D01*
X89315201Y-22598311D01*
X89300790Y-22596761D01*
X89275831Y-22594078D01*
X89211119Y-22567610D01*
X89170479Y-22510717D01*
X89166426Y-22440919D01*
X89200205Y-22379706D01*
X90784840Y-20795071D01*
X90799865Y-20782238D01*
X90807672Y-20776567D01*
X90872941Y-20752813D01*
X90940882Y-20767255D01*
X90990847Y-20815506D01*
X91041070Y-20902494D01*
X91060960Y-20936944D01*
X91188747Y-21078866D01*
X91194089Y-21082747D01*
X91194091Y-21082749D01*
X91227317Y-21106889D01*
X91343248Y-21191118D01*
X91517712Y-21268794D01*
X91704513Y-21308500D01*
X91888884Y-21308500D01*
X91895487Y-21308500D01*
X92082288Y-21268794D01*
X92256752Y-21191118D01*
X92411253Y-21078866D01*
X92539040Y-20936944D01*
X92634527Y-20771556D01*
X92693542Y-20589928D01*
X92713504Y-20400000D01*
X92693542Y-20210072D01*
X92648871Y-20072590D01*
X92636569Y-20034728D01*
X92636568Y-20034726D01*
X92634527Y-20028444D01*
X92624568Y-20011195D01*
X92608830Y-19965138D01*
X92611724Y-19916550D01*
X92632814Y-19872690D01*
X92649446Y-19850472D01*
X92693912Y-19813313D01*
X92750311Y-19799986D01*
X92806711Y-19813314D01*
X92851179Y-19850476D01*
X92901499Y-19917695D01*
X92914106Y-19930302D01*
X93016623Y-20007045D01*
X93032279Y-20015594D01*
X93153320Y-20060740D01*
X93168541Y-20064337D01*
X93217860Y-20069640D01*
X93224576Y-20070000D01*
X93329409Y-20070000D01*
X93342492Y-20066493D01*
X93345999Y-20053410D01*
X93853999Y-20053410D01*
X93857505Y-20066493D01*
X93870589Y-20070000D01*
X93975422Y-20070000D01*
X93982137Y-20069640D01*
X94031456Y-20064337D01*
X94046677Y-20060740D01*
X94167718Y-20015594D01*
X94183374Y-20007045D01*
X94285891Y-19930302D01*
X94298501Y-19917692D01*
X94375244Y-19815175D01*
X94383793Y-19799519D01*
X94428939Y-19678478D01*
X94432536Y-19663257D01*
X94437839Y-19613938D01*
X94438199Y-19607223D01*
X94438199Y-18832590D01*
X94434692Y-18819506D01*
X94421609Y-18816000D01*
X93870589Y-18816000D01*
X93857505Y-18819506D01*
X93853999Y-18832590D01*
X93853999Y-20053410D01*
X93345999Y-20053410D01*
X93345999Y-18434000D01*
X93362880Y-18371000D01*
X93408999Y-18324881D01*
X93471999Y-18308000D01*
X94421609Y-18308000D01*
X94434692Y-18304493D01*
X94438199Y-18291410D01*
X94438199Y-17516777D01*
X94437839Y-17510061D01*
X94432536Y-17460742D01*
X94428939Y-17445521D01*
X94400784Y-17370032D01*
X94393822Y-17310297D01*
X94415341Y-17254139D01*
X94460438Y-17214352D01*
X94518840Y-17200000D01*
X99999904Y-17200000D01*
X100057107Y-17213733D01*
X100101840Y-17251939D01*
X100124353Y-17306289D01*
X100119737Y-17364936D01*
X100088999Y-17415096D01*
X99407736Y-18096357D01*
X99399458Y-18103889D01*
X99392982Y-18108000D01*
X99373769Y-18128460D01*
X99346370Y-18157636D01*
X99343621Y-18160472D01*
X99326667Y-18177427D01*
X99326660Y-18177434D01*
X99323865Y-18180230D01*
X99321442Y-18183352D01*
X99321426Y-18183371D01*
X99321365Y-18183451D01*
X99313690Y-18192435D01*
X99288838Y-18218902D01*
X99288835Y-18218904D01*
X99283414Y-18224679D01*
X99279600Y-18231614D01*
X99279592Y-18231627D01*
X99273650Y-18242436D01*
X99262803Y-18258949D01*
X99255243Y-18268695D01*
X99255237Y-18268704D01*
X99250386Y-18274959D01*
X99247242Y-18282223D01*
X99247238Y-18282231D01*
X99232824Y-18315540D01*
X99227604Y-18326195D01*
X99210125Y-18357989D01*
X99210121Y-18357997D01*
X99206305Y-18364940D01*
X99204333Y-18372616D01*
X99204331Y-18372624D01*
X99201266Y-18384562D01*
X99194865Y-18403259D01*
X99189968Y-18414576D01*
X99189966Y-18414581D01*
X99186819Y-18421855D01*
X99185579Y-18429680D01*
X99185577Y-18429689D01*
X99179901Y-18465524D01*
X99177495Y-18477144D01*
X99168471Y-18512289D01*
X99168469Y-18512297D01*
X99166500Y-18519970D01*
X99166500Y-18527899D01*
X99166500Y-18540224D01*
X99164949Y-18559935D01*
X99163019Y-18572114D01*
X99163018Y-18572121D01*
X99161780Y-18579943D01*
X99162525Y-18587826D01*
X99162525Y-18587834D01*
X99165941Y-18623961D01*
X99166500Y-18635819D01*
X99166500Y-19140500D01*
X99149619Y-19203500D01*
X99103500Y-19249619D01*
X99040500Y-19266500D01*
X97223068Y-19266500D01*
X97211884Y-19265972D01*
X97204392Y-19264298D01*
X97196466Y-19264547D01*
X97136302Y-19266438D01*
X97132344Y-19266500D01*
X97104444Y-19266500D01*
X97100519Y-19266995D01*
X97100498Y-19266997D01*
X97100424Y-19267007D01*
X97088613Y-19267936D01*
X97052335Y-19269076D01*
X97052327Y-19269077D01*
X97044411Y-19269326D01*
X97036797Y-19271537D01*
X97036795Y-19271538D01*
X97024949Y-19274979D01*
X97005603Y-19278986D01*
X96993360Y-19280533D01*
X96993358Y-19280533D01*
X96985503Y-19281526D01*
X96978143Y-19284439D01*
X96978138Y-19284441D01*
X96944393Y-19297801D01*
X96933171Y-19301643D01*
X96898318Y-19311769D01*
X96898313Y-19311770D01*
X96890707Y-19313981D01*
X96883887Y-19318013D01*
X96883885Y-19318015D01*
X96873263Y-19324297D01*
X96855514Y-19332991D01*
X96844060Y-19337526D01*
X96844052Y-19337529D01*
X96836683Y-19340448D01*
X96830268Y-19345107D01*
X96830267Y-19345109D01*
X96800913Y-19366435D01*
X96790999Y-19372947D01*
X96759760Y-19391423D01*
X96759758Y-19391424D01*
X96752938Y-19395458D01*
X96747339Y-19401055D01*
X96747332Y-19401062D01*
X96738608Y-19409786D01*
X96723587Y-19422615D01*
X96713607Y-19429866D01*
X96713598Y-19429873D01*
X96707193Y-19434528D01*
X96702145Y-19440628D01*
X96702136Y-19440638D01*
X96679000Y-19468604D01*
X96671013Y-19477381D01*
X87647947Y-28500446D01*
X87595428Y-28531925D01*
X87534271Y-28534930D01*
X87478919Y-28508750D01*
X87442443Y-28459569D01*
X87405521Y-28370433D01*
X87373890Y-28294068D01*
X87247466Y-28087763D01*
X87238995Y-28077845D01*
X87105066Y-27921035D01*
X87090325Y-27903775D01*
X87058390Y-27876500D01*
X86910096Y-27749844D01*
X86910092Y-27749841D01*
X86906337Y-27746634D01*
X86700032Y-27620210D01*
X86632325Y-27592165D01*
X86481063Y-27529510D01*
X86481060Y-27529509D01*
X86476490Y-27527616D01*
X86471682Y-27526461D01*
X86471677Y-27526460D01*
X86246027Y-27472286D01*
X86246023Y-27472285D01*
X86241215Y-27471131D01*
X86236289Y-27470743D01*
X86236281Y-27470742D01*
X86004930Y-27452535D01*
X86000000Y-27452147D01*
X85995070Y-27452535D01*
X85763718Y-27470742D01*
X85763708Y-27470743D01*
X85758785Y-27471131D01*
X85753978Y-27472285D01*
X85753972Y-27472286D01*
X85528322Y-27526460D01*
X85528313Y-27526462D01*
X85523510Y-27527616D01*
X85518942Y-27529507D01*
X85518936Y-27529510D01*
X85304542Y-27618315D01*
X85304537Y-27618317D01*
X85299968Y-27620210D01*
X85295753Y-27622792D01*
X85295747Y-27622796D01*
X85097877Y-27744051D01*
X85097871Y-27744055D01*
X85093663Y-27746634D01*
X85089913Y-27749836D01*
X85089903Y-27749844D01*
X84913430Y-27900567D01*
X84913423Y-27900573D01*
X84909675Y-27903775D01*
X84906473Y-27907523D01*
X84906467Y-27907530D01*
X84755744Y-28084003D01*
X84755736Y-28084013D01*
X84752534Y-28087763D01*
X84749955Y-28091971D01*
X84749951Y-28091977D01*
X84628696Y-28289847D01*
X84628692Y-28289853D01*
X84626110Y-28294068D01*
X84624217Y-28298637D01*
X84624215Y-28298642D01*
X84535410Y-28513036D01*
X84535407Y-28513042D01*
X84533516Y-28517610D01*
X84532362Y-28522413D01*
X84532360Y-28522422D01*
X84478186Y-28748072D01*
X84478185Y-28748078D01*
X84477031Y-28752885D01*
X84476643Y-28757808D01*
X84476642Y-28757818D01*
X84462679Y-28935240D01*
X84458047Y-28994100D01*
X84458435Y-28999030D01*
X84476642Y-29230381D01*
X84476643Y-29230389D01*
X84477031Y-29235315D01*
X84478185Y-29240123D01*
X84478186Y-29240127D01*
X84532046Y-29464470D01*
X84533516Y-29470590D01*
X84626110Y-29694132D01*
X84752534Y-29900437D01*
X84755741Y-29904192D01*
X84755744Y-29904196D01*
X84897436Y-30070095D01*
X84909675Y-30084425D01*
X85093663Y-30241566D01*
X85299968Y-30367990D01*
X85523510Y-30460584D01*
X85758785Y-30517069D01*
X86000000Y-30536053D01*
X86230615Y-30517903D01*
X86297703Y-30531248D01*
X86347933Y-30577680D01*
X86366500Y-30643515D01*
X86366500Y-33861764D01*
X86347187Y-33928800D01*
X86270721Y-34050493D01*
X86270717Y-34050500D01*
X86266957Y-34056485D01*
X86264622Y-34063156D01*
X86264619Y-34063164D01*
X86209119Y-34221775D01*
X86209117Y-34221780D01*
X86206783Y-34228453D01*
X86205991Y-34235479D01*
X86205991Y-34235481D01*
X86198448Y-34302428D01*
X86186384Y-34409500D01*
X86206783Y-34590547D01*
X86209118Y-34597220D01*
X86209119Y-34597224D01*
X86264619Y-34755835D01*
X86264621Y-34755839D01*
X86266957Y-34762515D01*
X86270719Y-34768503D01*
X86270721Y-34768506D01*
X86357031Y-34905868D01*
X86363889Y-34916781D01*
X86492719Y-35045611D01*
X86646985Y-35142543D01*
X86818953Y-35202717D01*
X87000000Y-35223116D01*
X87181047Y-35202717D01*
X87353015Y-35142543D01*
X87507281Y-35045611D01*
X87515651Y-35037240D01*
X87572134Y-35004627D01*
X87637359Y-35004625D01*
X87693845Y-35037237D01*
X87792719Y-35136111D01*
X87798713Y-35139877D01*
X87798714Y-35139878D01*
X87899980Y-35203508D01*
X87946985Y-35233043D01*
X88118953Y-35293217D01*
X88300000Y-35313616D01*
X88481047Y-35293217D01*
X88653015Y-35233043D01*
X88807281Y-35136111D01*
X88936111Y-35007281D01*
X89033043Y-34853015D01*
X89093217Y-34681047D01*
X89113616Y-34500000D01*
X89093217Y-34318953D01*
X89033043Y-34146985D01*
X88943182Y-34003973D01*
X88939878Y-33998714D01*
X88939877Y-33998713D01*
X88936111Y-33992719D01*
X88807281Y-33863889D01*
X88801287Y-33860123D01*
X88801285Y-33860121D01*
X88659006Y-33770721D01*
X88659003Y-33770719D01*
X88653015Y-33766957D01*
X88646339Y-33764621D01*
X88646335Y-33764619D01*
X88487724Y-33709119D01*
X88487720Y-33709118D01*
X88481047Y-33706783D01*
X88300000Y-33686384D01*
X88292971Y-33687176D01*
X88125981Y-33705991D01*
X88125979Y-33705991D01*
X88118953Y-33706783D01*
X88112280Y-33709117D01*
X88112275Y-33709119D01*
X87953664Y-33764619D01*
X87953656Y-33764622D01*
X87946985Y-33766957D01*
X87941000Y-33770717D01*
X87940993Y-33770721D01*
X87826536Y-33842640D01*
X87763034Y-33861903D01*
X87698551Y-33846231D01*
X87650975Y-33799970D01*
X87633500Y-33735953D01*
X87633500Y-30408627D01*
X92229526Y-30408627D01*
X92239261Y-30415132D01*
X92378797Y-30463957D01*
X92392505Y-30467086D01*
X92549082Y-30484729D01*
X92563140Y-30484729D01*
X92719716Y-30467086D01*
X92733424Y-30463957D01*
X92872957Y-30415133D01*
X92879806Y-30410557D01*
X92896971Y-30403446D01*
X93002648Y-30403446D01*
X93019811Y-30410556D01*
X93026658Y-30415131D01*
X93166197Y-30463957D01*
X93179905Y-30467086D01*
X93336482Y-30484729D01*
X93350540Y-30484729D01*
X93507116Y-30467086D01*
X93520824Y-30463957D01*
X93660359Y-30415132D01*
X93670094Y-30408628D01*
X93664144Y-30398542D01*
X93355240Y-30089638D01*
X93343510Y-30082866D01*
X93331782Y-30089637D01*
X93038905Y-30382514D01*
X93002648Y-30403446D01*
X92896971Y-30403446D01*
X92860715Y-30382513D01*
X92567840Y-30089638D01*
X92556110Y-30082866D01*
X92544382Y-30089637D01*
X92235473Y-30398545D01*
X92229526Y-30408627D01*
X87633500Y-30408627D01*
X87633500Y-30358894D01*
X87643091Y-30310676D01*
X87670405Y-30269799D01*
X88214476Y-29725728D01*
X91790081Y-29725728D01*
X91807723Y-29882305D01*
X91810850Y-29896008D01*
X91859677Y-30035549D01*
X91866181Y-30045283D01*
X91876261Y-30039337D01*
X92185170Y-29730429D01*
X92191942Y-29718699D01*
X92920278Y-29718699D01*
X92927050Y-29730428D01*
X92938081Y-29741459D01*
X92949811Y-29748231D01*
X92961540Y-29741459D01*
X92972571Y-29730428D01*
X92979343Y-29718699D01*
X92979342Y-29718698D01*
X93707678Y-29718698D01*
X93714450Y-29730428D01*
X94023354Y-30039332D01*
X94033440Y-30045282D01*
X94039944Y-30035547D01*
X94088769Y-29896012D01*
X94091898Y-29882304D01*
X94109541Y-29725728D01*
X94109541Y-29711670D01*
X94091898Y-29555093D01*
X94088769Y-29541385D01*
X94039943Y-29401846D01*
X94035368Y-29394999D01*
X94028258Y-29377836D01*
X94007326Y-29414093D01*
X93714449Y-29706970D01*
X93707678Y-29718698D01*
X92979342Y-29718698D01*
X92972571Y-29706969D01*
X92961540Y-29695938D01*
X92949811Y-29689166D01*
X92938081Y-29695938D01*
X92927050Y-29706969D01*
X92920278Y-29718699D01*
X92191942Y-29718699D01*
X92191943Y-29718698D01*
X92185171Y-29706969D01*
X91892296Y-29414094D01*
X91871361Y-29377835D01*
X91864254Y-29394997D01*
X91859677Y-29401845D01*
X91810850Y-29541389D01*
X91807723Y-29555092D01*
X91790081Y-29711670D01*
X91790081Y-29725728D01*
X88214476Y-29725728D01*
X88592445Y-29347759D01*
X88615205Y-29324999D01*
X92526578Y-29324999D01*
X92533350Y-29336728D01*
X92544381Y-29347759D01*
X92556111Y-29354531D01*
X92567840Y-29347759D01*
X92578871Y-29336728D01*
X92585643Y-29324999D01*
X93313978Y-29324999D01*
X93320750Y-29336728D01*
X93331781Y-29347759D01*
X93343511Y-29354531D01*
X93355240Y-29347759D01*
X93366271Y-29336728D01*
X93373043Y-29324999D01*
X93366271Y-29313269D01*
X93355240Y-29302238D01*
X93343511Y-29295466D01*
X93331781Y-29302238D01*
X93320750Y-29313269D01*
X93313978Y-29324999D01*
X92585643Y-29324999D01*
X92578871Y-29313269D01*
X92567840Y-29302238D01*
X92556111Y-29295466D01*
X92544381Y-29302238D01*
X92533350Y-29313269D01*
X92526578Y-29324999D01*
X88615205Y-29324999D01*
X89001876Y-28938328D01*
X91790081Y-28938328D01*
X91807723Y-29094905D01*
X91810850Y-29108608D01*
X91859678Y-29248151D01*
X91864252Y-29254997D01*
X91871362Y-29272161D01*
X91892296Y-29235903D01*
X92185170Y-28943029D01*
X92191942Y-28931299D01*
X92920278Y-28931299D01*
X92927050Y-28943028D01*
X92938081Y-28954059D01*
X92949811Y-28960831D01*
X92961540Y-28954059D01*
X92972571Y-28943028D01*
X92979343Y-28931299D01*
X92979342Y-28931298D01*
X93707678Y-28931298D01*
X93714450Y-28943028D01*
X94007325Y-29235903D01*
X94028258Y-29272159D01*
X94035369Y-29254994D01*
X94039945Y-29248145D01*
X94088769Y-29108612D01*
X94091898Y-29094904D01*
X94109541Y-28938328D01*
X94109541Y-28924270D01*
X94091898Y-28767693D01*
X94088769Y-28753985D01*
X94039944Y-28614449D01*
X94033439Y-28604714D01*
X94023357Y-28610661D01*
X93714449Y-28919570D01*
X93707678Y-28931298D01*
X92979342Y-28931298D01*
X92972571Y-28919569D01*
X92961540Y-28908538D01*
X92949811Y-28901766D01*
X92938081Y-28908538D01*
X92927050Y-28919569D01*
X92920278Y-28931299D01*
X92191942Y-28931299D01*
X92191943Y-28931298D01*
X92185171Y-28919569D01*
X91876266Y-28610664D01*
X91866180Y-28604714D01*
X91859677Y-28614447D01*
X91810850Y-28753989D01*
X91807723Y-28767692D01*
X91790081Y-28924270D01*
X91790081Y-28938328D01*
X89001876Y-28938328D01*
X89698835Y-28241368D01*
X92229526Y-28241368D01*
X92235476Y-28251454D01*
X92544381Y-28560359D01*
X92556110Y-28567131D01*
X92567841Y-28560358D01*
X92860715Y-28267484D01*
X92896973Y-28246550D01*
X92896971Y-28246549D01*
X93002647Y-28246549D01*
X93038906Y-28267484D01*
X93331781Y-28560359D01*
X93343510Y-28567131D01*
X93355241Y-28560358D01*
X93664149Y-28251449D01*
X93670095Y-28241369D01*
X93660361Y-28234865D01*
X93520820Y-28186038D01*
X93507117Y-28182911D01*
X93350540Y-28165269D01*
X93336482Y-28165269D01*
X93179904Y-28182911D01*
X93166201Y-28186038D01*
X93026657Y-28234865D01*
X93019809Y-28239442D01*
X93002647Y-28246549D01*
X92896971Y-28246549D01*
X92879809Y-28239440D01*
X92872963Y-28234866D01*
X92733420Y-28186038D01*
X92719717Y-28182911D01*
X92563140Y-28165269D01*
X92549082Y-28165269D01*
X92392504Y-28182911D01*
X92378801Y-28186038D01*
X92239259Y-28234865D01*
X92229526Y-28241368D01*
X89698835Y-28241368D01*
X91358967Y-26581235D01*
X91415449Y-26548625D01*
X91480671Y-26548625D01*
X91537155Y-26581237D01*
X91592029Y-26636111D01*
X91746295Y-26733043D01*
X91918263Y-26793217D01*
X92099310Y-26813616D01*
X92280357Y-26793217D01*
X92380799Y-26758070D01*
X92422414Y-26751000D01*
X94421839Y-26751000D01*
X94470057Y-26760591D01*
X94510934Y-26787905D01*
X94576434Y-26853405D01*
X94609046Y-26909889D01*
X94609046Y-26975111D01*
X94576434Y-27031595D01*
X94486076Y-27121952D01*
X94486072Y-27121956D01*
X94480684Y-27127345D01*
X94476743Y-27133864D01*
X94476740Y-27133868D01*
X94395616Y-27268063D01*
X94395613Y-27268068D01*
X94391673Y-27274587D01*
X94389406Y-27281860D01*
X94389405Y-27281864D01*
X94344022Y-27427506D01*
X94340487Y-27438851D01*
X94339884Y-27445481D01*
X94339883Y-27445489D01*
X94334258Y-27507385D01*
X94334257Y-27507406D01*
X94334000Y-27510235D01*
X94334000Y-27513095D01*
X94334000Y-27513096D01*
X94334000Y-28021900D01*
X94334000Y-28021921D01*
X94334001Y-28024764D01*
X94334259Y-28027613D01*
X94334260Y-28027616D01*
X94339883Y-28089511D01*
X94339884Y-28089519D01*
X94340487Y-28096149D01*
X94342468Y-28102508D01*
X94342469Y-28102510D01*
X94376865Y-28212893D01*
X94391673Y-28260413D01*
X94395615Y-28266934D01*
X94395616Y-28266936D01*
X94469757Y-28389580D01*
X94480684Y-28407655D01*
X94602345Y-28529316D01*
X94608866Y-28533258D01*
X94623186Y-28541915D01*
X94667748Y-28587846D01*
X94684000Y-28649743D01*
X94684000Y-30017905D01*
X94674409Y-30066123D01*
X94647097Y-30106997D01*
X93665585Y-31088509D01*
X93344158Y-31409936D01*
X93296982Y-31439663D01*
X93241595Y-31446118D01*
X93201988Y-31441860D01*
X93201985Y-31441859D01*
X93198638Y-31441500D01*
X92301362Y-31441500D01*
X92298015Y-31441859D01*
X92298011Y-31441860D01*
X92248632Y-31447168D01*
X92248625Y-31447169D01*
X92240799Y-31448011D01*
X92233423Y-31450761D01*
X92233419Y-31450763D01*
X92112236Y-31495962D01*
X92112230Y-31495965D01*
X92103796Y-31499111D01*
X92096588Y-31504506D01*
X92096582Y-31504510D01*
X91993950Y-31581340D01*
X91993946Y-31581343D01*
X91986739Y-31586739D01*
X91981343Y-31593946D01*
X91981340Y-31593950D01*
X91904510Y-31696582D01*
X91904506Y-31696588D01*
X91899111Y-31703796D01*
X91895965Y-31712230D01*
X91895962Y-31712236D01*
X91850763Y-31833419D01*
X91850761Y-31833423D01*
X91848011Y-31840799D01*
X91847169Y-31848625D01*
X91847168Y-31848632D01*
X91842053Y-31896216D01*
X91841500Y-31901362D01*
X91841500Y-31904731D01*
X91841500Y-33320245D01*
X91824025Y-33384263D01*
X91776448Y-33430523D01*
X91711966Y-33446195D01*
X91648464Y-33426932D01*
X91648411Y-33426899D01*
X91584084Y-33386479D01*
X91559006Y-33370721D01*
X91559003Y-33370719D01*
X91553015Y-33366957D01*
X91546339Y-33364621D01*
X91546335Y-33364619D01*
X91387727Y-33309120D01*
X91387723Y-33309119D01*
X91381047Y-33306783D01*
X91374023Y-33305991D01*
X91374008Y-33305988D01*
X91336545Y-33301767D01*
X91295984Y-33290082D01*
X91261560Y-33265655D01*
X90901904Y-32905999D01*
X90872070Y-32858519D01*
X90865999Y-32841170D01*
X90833043Y-32746985D01*
X90736111Y-32592719D01*
X90607281Y-32463889D01*
X90601287Y-32460123D01*
X90601285Y-32460121D01*
X90459006Y-32370721D01*
X90459003Y-32370719D01*
X90453015Y-32366957D01*
X90446339Y-32364621D01*
X90446335Y-32364619D01*
X90287724Y-32309119D01*
X90287720Y-32309118D01*
X90281047Y-32306783D01*
X90100000Y-32286384D01*
X90092971Y-32287176D01*
X89925981Y-32305991D01*
X89925979Y-32305991D01*
X89918953Y-32306783D01*
X89912280Y-32309117D01*
X89912275Y-32309119D01*
X89753664Y-32364619D01*
X89753656Y-32364622D01*
X89746985Y-32366957D01*
X89741000Y-32370717D01*
X89740993Y-32370721D01*
X89598714Y-32460121D01*
X89598707Y-32460126D01*
X89592719Y-32463889D01*
X89587714Y-32468893D01*
X89587710Y-32468897D01*
X89468897Y-32587710D01*
X89468893Y-32587714D01*
X89463889Y-32592719D01*
X89460126Y-32598707D01*
X89460121Y-32598714D01*
X89370721Y-32740993D01*
X89370717Y-32741000D01*
X89366957Y-32746985D01*
X89364622Y-32753656D01*
X89364619Y-32753664D01*
X89309119Y-32912275D01*
X89309117Y-32912280D01*
X89306783Y-32918953D01*
X89305991Y-32925979D01*
X89305991Y-32925981D01*
X89293864Y-33033613D01*
X89286384Y-33100000D01*
X89306783Y-33281047D01*
X89309118Y-33287720D01*
X89309119Y-33287724D01*
X89364619Y-33446335D01*
X89364621Y-33446339D01*
X89366957Y-33453015D01*
X89370719Y-33459003D01*
X89370721Y-33459006D01*
X89458600Y-33598865D01*
X89463889Y-33607281D01*
X89592719Y-33736111D01*
X89746985Y-33833043D01*
X89918953Y-33893217D01*
X90076152Y-33910929D01*
X90116711Y-33922614D01*
X90151137Y-33947041D01*
X90365655Y-34161559D01*
X90390082Y-34195984D01*
X90401767Y-34236544D01*
X90405989Y-34274009D01*
X90405990Y-34274017D01*
X90406783Y-34281047D01*
X90409119Y-34287723D01*
X90409120Y-34287727D01*
X90464619Y-34446335D01*
X90464621Y-34446339D01*
X90466957Y-34453015D01*
X90470719Y-34459003D01*
X90470721Y-34459006D01*
X90557569Y-34597224D01*
X90563889Y-34607281D01*
X90692719Y-34736111D01*
X90698713Y-34739877D01*
X90698714Y-34739878D01*
X90833036Y-34824278D01*
X90876278Y-34870016D01*
X90892000Y-34930965D01*
X90892000Y-35629410D01*
X90895506Y-35642493D01*
X90908590Y-35646000D01*
X91928000Y-35646000D01*
X91991000Y-35662881D01*
X92037119Y-35709000D01*
X92054000Y-35772000D01*
X92054000Y-37341410D01*
X92057506Y-37354493D01*
X92070590Y-37358000D01*
X92086333Y-37358000D01*
X92141002Y-37370478D01*
X92184844Y-37405440D01*
X92209174Y-37455963D01*
X92209174Y-37512038D01*
X92209120Y-37512273D01*
X92206783Y-37518953D01*
X92205991Y-37525977D01*
X92205990Y-37525984D01*
X92191682Y-37652981D01*
X92186384Y-37700000D01*
X92206783Y-37881047D01*
X92209118Y-37887720D01*
X92209119Y-37887724D01*
X92264619Y-38046335D01*
X92264621Y-38046339D01*
X92266957Y-38053015D01*
X92270719Y-38059003D01*
X92270721Y-38059006D01*
X92359535Y-38200353D01*
X92363889Y-38207281D01*
X92492719Y-38336111D01*
X92498713Y-38339877D01*
X92498714Y-38339878D01*
X92599743Y-38403359D01*
X92646985Y-38433043D01*
X92818953Y-38493217D01*
X93000000Y-38513616D01*
X93181047Y-38493217D01*
X93353015Y-38433043D01*
X93507281Y-38336111D01*
X93636111Y-38207281D01*
X93733043Y-38053015D01*
X93793217Y-37881047D01*
X93813616Y-37700000D01*
X93793217Y-37518953D01*
X93790940Y-37512446D01*
X93790940Y-37456463D01*
X93815270Y-37405941D01*
X93859111Y-37370978D01*
X93913781Y-37358500D01*
X94145269Y-37358500D01*
X94148638Y-37358500D01*
X94209201Y-37351989D01*
X94346204Y-37300889D01*
X94463261Y-37213261D01*
X94550889Y-37096204D01*
X94601989Y-36959201D01*
X94608500Y-36898638D01*
X94608500Y-36659500D01*
X94625381Y-36596500D01*
X94671500Y-36550381D01*
X94734500Y-36533500D01*
X94910761Y-36533500D01*
X94967257Y-36546876D01*
X95011758Y-36584163D01*
X95034816Y-36637445D01*
X95031536Y-36695410D01*
X95002613Y-36745751D01*
X94988837Y-36760421D01*
X94988834Y-36760424D01*
X94983414Y-36766197D01*
X94979600Y-36773132D01*
X94979592Y-36773145D01*
X94973650Y-36783954D01*
X94962803Y-36800467D01*
X94955243Y-36810213D01*
X94955237Y-36810222D01*
X94950386Y-36816477D01*
X94947242Y-36823741D01*
X94947238Y-36823749D01*
X94932824Y-36857058D01*
X94927604Y-36867713D01*
X94910125Y-36899507D01*
X94910121Y-36899515D01*
X94906305Y-36906458D01*
X94904333Y-36914134D01*
X94904331Y-36914142D01*
X94901266Y-36926080D01*
X94894865Y-36944777D01*
X94889968Y-36956094D01*
X94889966Y-36956099D01*
X94886819Y-36963373D01*
X94885579Y-36971198D01*
X94885577Y-36971207D01*
X94879901Y-37007042D01*
X94877495Y-37018662D01*
X94868471Y-37053807D01*
X94868469Y-37053815D01*
X94866500Y-37061488D01*
X94866500Y-37069417D01*
X94866500Y-37081742D01*
X94864949Y-37101453D01*
X94863019Y-37113632D01*
X94863018Y-37113639D01*
X94861780Y-37121461D01*
X94862525Y-37129344D01*
X94862525Y-37129352D01*
X94865941Y-37165479D01*
X94866500Y-37177337D01*
X94866500Y-37852264D01*
X94847187Y-37919300D01*
X94770721Y-38040993D01*
X94770717Y-38041000D01*
X94766957Y-38046985D01*
X94764622Y-38053656D01*
X94764619Y-38053664D01*
X94709119Y-38212275D01*
X94709117Y-38212280D01*
X94706783Y-38218953D01*
X94705991Y-38225979D01*
X94705991Y-38225981D01*
X94693553Y-38336377D01*
X94686384Y-38400000D01*
X94706783Y-38581047D01*
X94709118Y-38587720D01*
X94709119Y-38587724D01*
X94764619Y-38746335D01*
X94764621Y-38746339D01*
X94766957Y-38753015D01*
X94770719Y-38759003D01*
X94770721Y-38759006D01*
X94841229Y-38871219D01*
X94863889Y-38907281D01*
X94992719Y-39036111D01*
X94998713Y-39039877D01*
X94998714Y-39039878D01*
X95114205Y-39112446D01*
X95146985Y-39133043D01*
X95318953Y-39193217D01*
X95500000Y-39213616D01*
X95681047Y-39193217D01*
X95853015Y-39133043D01*
X96007281Y-39036111D01*
X96136111Y-38907281D01*
X96233043Y-38753015D01*
X96293217Y-38581047D01*
X96313616Y-38400000D01*
X96293217Y-38218953D01*
X96233043Y-38046985D01*
X96152813Y-37919300D01*
X96133500Y-37852264D01*
X96133500Y-37742076D01*
X96147233Y-37684873D01*
X96185439Y-37640140D01*
X96239789Y-37617627D01*
X96298436Y-37622243D01*
X96348595Y-37652981D01*
X96687860Y-37992246D01*
X96695402Y-38000533D01*
X96699518Y-38007018D01*
X96705297Y-38012444D01*
X96705298Y-38012446D01*
X96749185Y-38053658D01*
X96752027Y-38056413D01*
X96771749Y-38076135D01*
X96774877Y-38078561D01*
X96774878Y-38078562D01*
X96774932Y-38078604D01*
X96783964Y-38086317D01*
X96816197Y-38116586D01*
X96823142Y-38120404D01*
X96833948Y-38126345D01*
X96850474Y-38137201D01*
X96860208Y-38144751D01*
X96860210Y-38144752D01*
X96866478Y-38149614D01*
X96907048Y-38167170D01*
X96917704Y-38172390D01*
X96942617Y-38186086D01*
X96985569Y-38224862D01*
X97006659Y-38278747D01*
X97001440Y-38336377D01*
X96971012Y-38385596D01*
X96863889Y-38492719D01*
X96860126Y-38498707D01*
X96860121Y-38498714D01*
X96770721Y-38640993D01*
X96770717Y-38641000D01*
X96766957Y-38646985D01*
X96764622Y-38653656D01*
X96764619Y-38653664D01*
X96709119Y-38812275D01*
X96709117Y-38812280D01*
X96706783Y-38818953D01*
X96705991Y-38825979D01*
X96705991Y-38825981D01*
X96695226Y-38921521D01*
X96686384Y-39000000D01*
X96706783Y-39181047D01*
X96709118Y-39187720D01*
X96709119Y-39187724D01*
X96764619Y-39346335D01*
X96764621Y-39346339D01*
X96766957Y-39353015D01*
X96770719Y-39359003D01*
X96770721Y-39359006D01*
X96857665Y-39497377D01*
X96863889Y-39507281D01*
X96992719Y-39636111D01*
X96998713Y-39639877D01*
X96998714Y-39639878D01*
X97014823Y-39650000D01*
X97146985Y-39733043D01*
X97318953Y-39793217D01*
X97363451Y-39798230D01*
X97404012Y-39809916D01*
X97438438Y-39834342D01*
X97455230Y-39851135D01*
X97458360Y-39853563D01*
X97458432Y-39853619D01*
X97467440Y-39861313D01*
X97499679Y-39891586D01*
X97506627Y-39895405D01*
X97506629Y-39895407D01*
X97517426Y-39901343D01*
X97533950Y-39912197D01*
X97543694Y-39919755D01*
X97543697Y-39919757D01*
X97549959Y-39924614D01*
X97557232Y-39927761D01*
X97590535Y-39942172D01*
X97601200Y-39947397D01*
X97639940Y-39968695D01*
X97659560Y-39973732D01*
X97678252Y-39980130D01*
X97696855Y-39988181D01*
X97740525Y-39995097D01*
X97752125Y-39997498D01*
X97794970Y-40008500D01*
X97815224Y-40008500D01*
X97834934Y-40010050D01*
X97854943Y-40013220D01*
X97898961Y-40009058D01*
X97910819Y-40008500D01*
X99993918Y-40008500D01*
X100051121Y-40022233D01*
X100095854Y-40060439D01*
X100118367Y-40114789D01*
X100113751Y-40173436D01*
X100083013Y-40223595D01*
X100027308Y-40279299D01*
X100027304Y-40279303D01*
X100022300Y-40284308D01*
X100018537Y-40290296D01*
X100018532Y-40290303D01*
X99929132Y-40432582D01*
X99929128Y-40432589D01*
X99925368Y-40438574D01*
X99923033Y-40445245D01*
X99923030Y-40445253D01*
X99867530Y-40603864D01*
X99867528Y-40603869D01*
X99865194Y-40610542D01*
X99864402Y-40617568D01*
X99864402Y-40617570D01*
X99855108Y-40700062D01*
X99844795Y-40791589D01*
X99865194Y-40972636D01*
X99867529Y-40979309D01*
X99867530Y-40979313D01*
X99923030Y-41137924D01*
X99923032Y-41137928D01*
X99925368Y-41144604D01*
X99929130Y-41150592D01*
X99929132Y-41150595D01*
X100015725Y-41288407D01*
X100022300Y-41298870D01*
X100151130Y-41427700D01*
X100305396Y-41524632D01*
X100477364Y-41584806D01*
X100658411Y-41605205D01*
X100839458Y-41584806D01*
X101011426Y-41524632D01*
X101165692Y-41427700D01*
X101294522Y-41298870D01*
X101391454Y-41144604D01*
X101393329Y-41139245D01*
X102546367Y-41139245D01*
X102549744Y-41142624D01*
X102550724Y-41143096D01*
X102698583Y-41194833D01*
X102712291Y-41197962D01*
X102867972Y-41215504D01*
X102882030Y-41215504D01*
X103037710Y-41197962D01*
X103051418Y-41194833D01*
X103199271Y-41143098D01*
X103200263Y-41142619D01*
X103202791Y-41140090D01*
X104067335Y-41140090D01*
X104074919Y-41161775D01*
X104086391Y-41181650D01*
X104086382Y-41246872D01*
X104074943Y-41266677D01*
X104067337Y-41288408D01*
X104073891Y-41298840D01*
X104384770Y-41609718D01*
X104396498Y-41616489D01*
X104408228Y-41609717D01*
X104719103Y-41298842D01*
X104725660Y-41288407D01*
X104718073Y-41266723D01*
X104706608Y-41246864D01*
X104706599Y-41181658D01*
X104718099Y-41161726D01*
X104725662Y-41140091D01*
X104725661Y-41140090D01*
X105674337Y-41140090D01*
X105681921Y-41161775D01*
X105693393Y-41181650D01*
X105693384Y-41246872D01*
X105681945Y-41266677D01*
X105674339Y-41288408D01*
X105680893Y-41298840D01*
X105991772Y-41609718D01*
X106003500Y-41616489D01*
X106015230Y-41609717D01*
X106326105Y-41298842D01*
X106332662Y-41288407D01*
X106325075Y-41266723D01*
X106313610Y-41246864D01*
X106313601Y-41181658D01*
X106325101Y-41161726D01*
X106332664Y-41140091D01*
X106332132Y-41139245D01*
X107196365Y-41139245D01*
X107199742Y-41142624D01*
X107200722Y-41143096D01*
X107348581Y-41194833D01*
X107362289Y-41197962D01*
X107517970Y-41215504D01*
X107532028Y-41215504D01*
X107687708Y-41197962D01*
X107701416Y-41194833D01*
X107849269Y-41143098D01*
X107850261Y-41142619D01*
X107853631Y-41139247D01*
X107847606Y-41129659D01*
X107536728Y-40818781D01*
X107524998Y-40812009D01*
X107513270Y-40818780D01*
X107202388Y-41129661D01*
X107196365Y-41139245D01*
X106332132Y-41139245D01*
X106326108Y-41129659D01*
X106015230Y-40818781D01*
X106003500Y-40812009D01*
X105991772Y-40818780D01*
X105680890Y-41129661D01*
X105674337Y-41140090D01*
X104725661Y-41140090D01*
X104719106Y-41129659D01*
X104408228Y-40818781D01*
X104396498Y-40812009D01*
X104384770Y-40818780D01*
X104073888Y-41129661D01*
X104067335Y-41140090D01*
X103202791Y-41140090D01*
X103203633Y-41139247D01*
X103197608Y-41129659D01*
X102886730Y-40818781D01*
X102875000Y-40812009D01*
X102863272Y-40818780D01*
X102552390Y-41129661D01*
X102546367Y-41139245D01*
X101393329Y-41139245D01*
X101451628Y-40972636D01*
X101472027Y-40791589D01*
X101451628Y-40610542D01*
X101399137Y-40460530D01*
X102112998Y-40460530D01*
X102130539Y-40616210D01*
X102133668Y-40629918D01*
X102185408Y-40777785D01*
X102185874Y-40778751D01*
X102189254Y-40782131D01*
X102198844Y-40776105D01*
X102509719Y-40465230D01*
X102516491Y-40453500D01*
X103233509Y-40453500D01*
X103240281Y-40465230D01*
X103551159Y-40776108D01*
X103561591Y-40782664D01*
X103583226Y-40775101D01*
X103603158Y-40763601D01*
X103668364Y-40763610D01*
X103688223Y-40775075D01*
X103709907Y-40782662D01*
X103720342Y-40776105D01*
X104031217Y-40465230D01*
X104037989Y-40453500D01*
X104755007Y-40453500D01*
X104761779Y-40465230D01*
X105072657Y-40776108D01*
X105082245Y-40782133D01*
X105085616Y-40778764D01*
X105086489Y-40776955D01*
X105132980Y-40724951D01*
X105200013Y-40705649D01*
X105267041Y-40724966D01*
X105313521Y-40776980D01*
X105314374Y-40778751D01*
X105317754Y-40782131D01*
X105327344Y-40776105D01*
X105638219Y-40465230D01*
X105644991Y-40453500D01*
X106362009Y-40453500D01*
X106368781Y-40465230D01*
X106679659Y-40776108D01*
X106690091Y-40782664D01*
X106711726Y-40775101D01*
X106731658Y-40763601D01*
X106796864Y-40763610D01*
X106816723Y-40775075D01*
X106838407Y-40782662D01*
X106848842Y-40776105D01*
X107159717Y-40465230D01*
X107166489Y-40453500D01*
X107883507Y-40453500D01*
X107890279Y-40465230D01*
X108201157Y-40776108D01*
X108210745Y-40782133D01*
X108214117Y-40778763D01*
X108214596Y-40777771D01*
X108266331Y-40629918D01*
X108269460Y-40616210D01*
X108287002Y-40460530D01*
X108287002Y-40446472D01*
X108269460Y-40290791D01*
X108266331Y-40277083D01*
X108214594Y-40129224D01*
X108214122Y-40128244D01*
X108210743Y-40124867D01*
X108201159Y-40130890D01*
X107890278Y-40441772D01*
X107883507Y-40453500D01*
X107166489Y-40453500D01*
X107159718Y-40441772D01*
X106848840Y-40130893D01*
X106838408Y-40124339D01*
X106816677Y-40131945D01*
X106796872Y-40143384D01*
X106731650Y-40143393D01*
X106711775Y-40131921D01*
X106690090Y-40124337D01*
X106679661Y-40130890D01*
X106368780Y-40441772D01*
X106362009Y-40453500D01*
X105644991Y-40453500D01*
X105638220Y-40441772D01*
X105327342Y-40130893D01*
X105317755Y-40124870D01*
X105314369Y-40128258D01*
X105313525Y-40130011D01*
X105267043Y-40182032D01*
X105200009Y-40201350D01*
X105132972Y-40182043D01*
X105086482Y-40130029D01*
X105085622Y-40128245D01*
X105082243Y-40124867D01*
X105072659Y-40130890D01*
X104761778Y-40441772D01*
X104755007Y-40453500D01*
X104037989Y-40453500D01*
X104031218Y-40441772D01*
X103720340Y-40130893D01*
X103709908Y-40124339D01*
X103688177Y-40131945D01*
X103668372Y-40143384D01*
X103603150Y-40143393D01*
X103583275Y-40131921D01*
X103561590Y-40124337D01*
X103551161Y-40130890D01*
X103240280Y-40441772D01*
X103233509Y-40453500D01*
X102516491Y-40453500D01*
X102509720Y-40441772D01*
X102198842Y-40130893D01*
X102189255Y-40124870D01*
X102185869Y-40128257D01*
X102185411Y-40129208D01*
X102133668Y-40277083D01*
X102130539Y-40290791D01*
X102112998Y-40446472D01*
X102112998Y-40460530D01*
X101399137Y-40460530D01*
X101391454Y-40438574D01*
X101294522Y-40284308D01*
X101235813Y-40225599D01*
X101205979Y-40178119D01*
X101199700Y-40122397D01*
X101218221Y-40069468D01*
X101257872Y-40029817D01*
X101342754Y-39976482D01*
X101471584Y-39847652D01*
X101568516Y-39693386D01*
X101624902Y-39532243D01*
X102546367Y-39532243D01*
X102549745Y-39535622D01*
X102551529Y-39536482D01*
X102603543Y-39582972D01*
X102622850Y-39650009D01*
X102603532Y-39717043D01*
X102551511Y-39763525D01*
X102549758Y-39764369D01*
X102546370Y-39767755D01*
X102552393Y-39777342D01*
X102863272Y-40088220D01*
X102875000Y-40094991D01*
X102886730Y-40088219D01*
X103197605Y-39777344D01*
X103203631Y-39767754D01*
X103200251Y-39764374D01*
X103198480Y-39763521D01*
X103146466Y-39717041D01*
X103127149Y-39650013D01*
X103146451Y-39582980D01*
X103198455Y-39536489D01*
X103200264Y-39535616D01*
X103203633Y-39532245D01*
X103203632Y-39532243D01*
X104067865Y-39532243D01*
X104071243Y-39535622D01*
X104073027Y-39536482D01*
X104125041Y-39582972D01*
X104144348Y-39650009D01*
X104125030Y-39717043D01*
X104073009Y-39763525D01*
X104071256Y-39764369D01*
X104067868Y-39767755D01*
X104073891Y-39777342D01*
X104384770Y-40088220D01*
X104396498Y-40094991D01*
X104408228Y-40088219D01*
X104719103Y-39777344D01*
X104725129Y-39767754D01*
X104721749Y-39764374D01*
X104719978Y-39763521D01*
X104667964Y-39717041D01*
X104648647Y-39650013D01*
X104667949Y-39582980D01*
X104719953Y-39536489D01*
X104721762Y-39535616D01*
X104725131Y-39532245D01*
X104725130Y-39532243D01*
X105674867Y-39532243D01*
X105678245Y-39535622D01*
X105680029Y-39536482D01*
X105732043Y-39582972D01*
X105751350Y-39650009D01*
X105732032Y-39717043D01*
X105680011Y-39763525D01*
X105678258Y-39764369D01*
X105674870Y-39767755D01*
X105680893Y-39777342D01*
X105991772Y-40088220D01*
X106003500Y-40094991D01*
X106015230Y-40088219D01*
X106326105Y-39777344D01*
X106332131Y-39767754D01*
X106328751Y-39764374D01*
X106326980Y-39763521D01*
X106274966Y-39717041D01*
X106255649Y-39650013D01*
X106274951Y-39582980D01*
X106326955Y-39536489D01*
X106328764Y-39535616D01*
X106332133Y-39532245D01*
X106332132Y-39532243D01*
X107196365Y-39532243D01*
X107199743Y-39535622D01*
X107201527Y-39536482D01*
X107253541Y-39582972D01*
X107272848Y-39650009D01*
X107253530Y-39717043D01*
X107201509Y-39763525D01*
X107199756Y-39764369D01*
X107196368Y-39767755D01*
X107202391Y-39777342D01*
X107513270Y-40088220D01*
X107524998Y-40094991D01*
X107536728Y-40088219D01*
X107847603Y-39777344D01*
X107853629Y-39767754D01*
X107850249Y-39764374D01*
X107848478Y-39763521D01*
X107796464Y-39717041D01*
X107777147Y-39650013D01*
X107796449Y-39582980D01*
X107848453Y-39536489D01*
X107850262Y-39535616D01*
X107853631Y-39532245D01*
X107847606Y-39522657D01*
X107536728Y-39211779D01*
X107524998Y-39205007D01*
X107513270Y-39211778D01*
X107202388Y-39522659D01*
X107196365Y-39532243D01*
X106332132Y-39532243D01*
X106326108Y-39522657D01*
X106015230Y-39211779D01*
X106003500Y-39205007D01*
X105991772Y-39211778D01*
X105680890Y-39522659D01*
X105674867Y-39532243D01*
X104725130Y-39532243D01*
X104719106Y-39522657D01*
X104408228Y-39211779D01*
X104396498Y-39205007D01*
X104384770Y-39211778D01*
X104073888Y-39522659D01*
X104067865Y-39532243D01*
X103203632Y-39532243D01*
X103197608Y-39522657D01*
X102886730Y-39211779D01*
X102875000Y-39205007D01*
X102863272Y-39211778D01*
X102552390Y-39522659D01*
X102546367Y-39532243D01*
X101624902Y-39532243D01*
X101628690Y-39521418D01*
X101649089Y-39340371D01*
X101628690Y-39159324D01*
X101568516Y-38987356D01*
X101537859Y-38938566D01*
X101518547Y-38871532D01*
X101523734Y-38853528D01*
X102112998Y-38853528D01*
X102130539Y-39009208D01*
X102133668Y-39022916D01*
X102185408Y-39170783D01*
X102185874Y-39171749D01*
X102189255Y-39175130D01*
X102198841Y-39169106D01*
X102509720Y-38858226D01*
X102516491Y-38846498D01*
X102509719Y-38834768D01*
X102198844Y-38523893D01*
X102189255Y-38517868D01*
X102185869Y-38521255D01*
X102185411Y-38522206D01*
X102133668Y-38670081D01*
X102130539Y-38683789D01*
X102112998Y-38839470D01*
X102112998Y-38853528D01*
X101523734Y-38853528D01*
X101537858Y-38804499D01*
X101633043Y-38653015D01*
X101693217Y-38481047D01*
X101713616Y-38300000D01*
X101693217Y-38118953D01*
X101634487Y-37951114D01*
X101628654Y-37891886D01*
X101650656Y-37836587D01*
X101695585Y-37797556D01*
X101753417Y-37783500D01*
X103093732Y-37783500D01*
X103141950Y-37793091D01*
X103182827Y-37820405D01*
X103301244Y-37938822D01*
X103334330Y-37997130D01*
X103332826Y-38064154D01*
X103297158Y-38120920D01*
X103237424Y-38151356D01*
X103170534Y-38146846D01*
X103051418Y-38105166D01*
X103037710Y-38102037D01*
X102882030Y-38084496D01*
X102867972Y-38084496D01*
X102712291Y-38102037D01*
X102698583Y-38105166D01*
X102550708Y-38156909D01*
X102549757Y-38157367D01*
X102546370Y-38160753D01*
X102552393Y-38170340D01*
X102875001Y-38492947D01*
X102875002Y-38492948D01*
X103551161Y-39169108D01*
X103561590Y-39175662D01*
X103583226Y-39168099D01*
X103603158Y-39156599D01*
X103668364Y-39156608D01*
X103688223Y-39168073D01*
X103709908Y-39175660D01*
X103720339Y-39169106D01*
X104064239Y-38825205D01*
X104105727Y-38797640D01*
X104154655Y-38788307D01*
X104203373Y-38798662D01*
X104206876Y-38800177D01*
X104217525Y-38805396D01*
X104256265Y-38826694D01*
X104275885Y-38831731D01*
X104294577Y-38838129D01*
X104313180Y-38846180D01*
X104356850Y-38853096D01*
X104368450Y-38855497D01*
X104411295Y-38866499D01*
X104431549Y-38866499D01*
X104451259Y-38868049D01*
X104471268Y-38871219D01*
X104515286Y-38867057D01*
X104527144Y-38866499D01*
X104717860Y-38866499D01*
X104766078Y-38876090D01*
X104806955Y-38903404D01*
X105072657Y-39169106D01*
X105082245Y-39175131D01*
X105085616Y-39171762D01*
X105086489Y-39169953D01*
X105132980Y-39117949D01*
X105200013Y-39098647D01*
X105267041Y-39117964D01*
X105313521Y-39169978D01*
X105314374Y-39171749D01*
X105317755Y-39175130D01*
X105327341Y-39169106D01*
X105593046Y-38903403D01*
X105633923Y-38876090D01*
X105682141Y-38866499D01*
X106324862Y-38866499D01*
X106373080Y-38876090D01*
X106413957Y-38903404D01*
X106679659Y-39169106D01*
X106690091Y-39175662D01*
X106711726Y-39168099D01*
X106731658Y-39156599D01*
X106796864Y-39156608D01*
X106816723Y-39168073D01*
X106838408Y-39175660D01*
X106848839Y-39169106D01*
X107114544Y-38903403D01*
X107155421Y-38876090D01*
X107203639Y-38866499D01*
X107846360Y-38866499D01*
X107894578Y-38876090D01*
X107935455Y-38903404D01*
X108201157Y-39169106D01*
X108210745Y-39175131D01*
X108214117Y-39171761D01*
X108214596Y-39170769D01*
X108266331Y-39022916D01*
X108269461Y-39009207D01*
X108272933Y-38978392D01*
X108294035Y-38921521D01*
X108339265Y-38881101D01*
X108398141Y-38866499D01*
X108689355Y-38866499D01*
X108748231Y-38881100D01*
X108793461Y-38921520D01*
X108814563Y-38978391D01*
X108815573Y-38987356D01*
X108821341Y-39038546D01*
X108823676Y-39045219D01*
X108823677Y-39045223D01*
X108879177Y-39203834D01*
X108879179Y-39203838D01*
X108881515Y-39210514D01*
X108885277Y-39216502D01*
X108885279Y-39216505D01*
X108971054Y-39353015D01*
X108978447Y-39364780D01*
X109107277Y-39493610D01*
X109113271Y-39497376D01*
X109113272Y-39497377D01*
X109175507Y-39536482D01*
X109261543Y-39590542D01*
X109347084Y-39620474D01*
X109400970Y-39657212D01*
X109429269Y-39715976D01*
X109424395Y-39781016D01*
X109412537Y-39814904D01*
X109372168Y-39871799D01*
X109307718Y-39898497D01*
X109240663Y-39906053D01*
X109240661Y-39906053D01*
X109233636Y-39906845D01*
X109226959Y-39909181D01*
X109226956Y-39909182D01*
X109068347Y-39964681D01*
X109068339Y-39964684D01*
X109061668Y-39967019D01*
X109055683Y-39970779D01*
X109055676Y-39970783D01*
X108913397Y-40060183D01*
X108913390Y-40060188D01*
X108907402Y-40063951D01*
X108902397Y-40068955D01*
X108902393Y-40068959D01*
X108783580Y-40187772D01*
X108783576Y-40187776D01*
X108778572Y-40192781D01*
X108774809Y-40198769D01*
X108774804Y-40198776D01*
X108685404Y-40341055D01*
X108685400Y-40341062D01*
X108681640Y-40347047D01*
X108679305Y-40353718D01*
X108679302Y-40353726D01*
X108623802Y-40512337D01*
X108623800Y-40512342D01*
X108621466Y-40519015D01*
X108601067Y-40700062D01*
X108621466Y-40881109D01*
X108623801Y-40887782D01*
X108623802Y-40887786D01*
X108679302Y-41046397D01*
X108679304Y-41046401D01*
X108681640Y-41053077D01*
X108685402Y-41059065D01*
X108685404Y-41059068D01*
X108761870Y-41180762D01*
X108781183Y-41247798D01*
X108781183Y-43149234D01*
X108767127Y-43207066D01*
X108728095Y-43251995D01*
X108672796Y-43273997D01*
X108613570Y-43268163D01*
X108589961Y-43259902D01*
X108587721Y-43259118D01*
X108587718Y-43259117D01*
X108581047Y-43256783D01*
X108400000Y-43236384D01*
X108392971Y-43237176D01*
X108225977Y-43255991D01*
X108225971Y-43255992D01*
X108218953Y-43256783D01*
X108212288Y-43259114D01*
X108212275Y-43259118D01*
X108161468Y-43276896D01*
X108101541Y-43282628D01*
X108045794Y-43259902D01*
X107931729Y-43177029D01*
X107906752Y-43158882D01*
X107732288Y-43081206D01*
X107725835Y-43079834D01*
X107725831Y-43079833D01*
X107551943Y-43042872D01*
X107551940Y-43042871D01*
X107545487Y-43041500D01*
X107354513Y-43041500D01*
X107348060Y-43042871D01*
X107348056Y-43042872D01*
X107174168Y-43079833D01*
X107174161Y-43079835D01*
X107167712Y-43081206D01*
X107161682Y-43083890D01*
X107161681Y-43083891D01*
X106999278Y-43156197D01*
X106999275Y-43156198D01*
X106993248Y-43158882D01*
X106987907Y-43162762D01*
X106987906Y-43162763D01*
X106844091Y-43267250D01*
X106844083Y-43267256D01*
X106838747Y-43271134D01*
X106834330Y-43276039D01*
X106834325Y-43276044D01*
X106766793Y-43351047D01*
X106710960Y-43413056D01*
X106707661Y-43418769D01*
X106707658Y-43418774D01*
X106618776Y-43572722D01*
X106618773Y-43572726D01*
X106615473Y-43578444D01*
X106613432Y-43584724D01*
X106610746Y-43590758D01*
X106609284Y-43590107D01*
X106579593Y-43636354D01*
X106523078Y-43666275D01*
X106459596Y-43664610D01*
X106453145Y-43661819D01*
X106445319Y-43660579D01*
X106445318Y-43660579D01*
X106409475Y-43654902D01*
X106397859Y-43652496D01*
X106355030Y-43641500D01*
X106347101Y-43641500D01*
X106334776Y-43641500D01*
X106315065Y-43639949D01*
X106302885Y-43638019D01*
X106302878Y-43638018D01*
X106295057Y-43636780D01*
X106287173Y-43637525D01*
X106287165Y-43637525D01*
X106251039Y-43640941D01*
X106239181Y-43641500D01*
X101749163Y-43641500D01*
X101691331Y-43627444D01*
X101646402Y-43588413D01*
X101624400Y-43533113D01*
X101630234Y-43473885D01*
X101636218Y-43456783D01*
X101673217Y-43351047D01*
X101693616Y-43170000D01*
X101673217Y-42988953D01*
X101613043Y-42816985D01*
X101516111Y-42662719D01*
X101514135Y-42660743D01*
X104067865Y-42660743D01*
X104071242Y-42664122D01*
X104072222Y-42664594D01*
X104220081Y-42716331D01*
X104233789Y-42719460D01*
X104389470Y-42737002D01*
X104403528Y-42737002D01*
X104559208Y-42719460D01*
X104572916Y-42716331D01*
X104720769Y-42664596D01*
X104721761Y-42664117D01*
X104725131Y-42660745D01*
X104725130Y-42660743D01*
X105674867Y-42660743D01*
X105678244Y-42664122D01*
X105679224Y-42664594D01*
X105827083Y-42716331D01*
X105840791Y-42719460D01*
X105996472Y-42737002D01*
X106010530Y-42737002D01*
X106166210Y-42719460D01*
X106179918Y-42716331D01*
X106327771Y-42664596D01*
X106328763Y-42664117D01*
X106332133Y-42660745D01*
X106326108Y-42651157D01*
X106015230Y-42340279D01*
X106003500Y-42333507D01*
X105991772Y-42340278D01*
X105680890Y-42651159D01*
X105674867Y-42660743D01*
X104725130Y-42660743D01*
X104719106Y-42651157D01*
X104408228Y-42340279D01*
X104396498Y-42333507D01*
X104384770Y-42340278D01*
X104073888Y-42651159D01*
X104067865Y-42660743D01*
X101514135Y-42660743D01*
X101387281Y-42533889D01*
X101381287Y-42530123D01*
X101381285Y-42530121D01*
X101239006Y-42440721D01*
X101239003Y-42440719D01*
X101233015Y-42436957D01*
X101226339Y-42434621D01*
X101226335Y-42434619D01*
X101067724Y-42379119D01*
X101067720Y-42379118D01*
X101061047Y-42376783D01*
X100880000Y-42356384D01*
X100872971Y-42357176D01*
X100705981Y-42375991D01*
X100705979Y-42375991D01*
X100698953Y-42376783D01*
X100692280Y-42379117D01*
X100692275Y-42379119D01*
X100533664Y-42434619D01*
X100533656Y-42434622D01*
X100526985Y-42436957D01*
X100521000Y-42440717D01*
X100520993Y-42440721D01*
X100378714Y-42530121D01*
X100378707Y-42530126D01*
X100372719Y-42533889D01*
X100367714Y-42538893D01*
X100367710Y-42538897D01*
X100248897Y-42657710D01*
X100248893Y-42657714D01*
X100243889Y-42662719D01*
X100240126Y-42668707D01*
X100240121Y-42668714D01*
X100150721Y-42810993D01*
X100150717Y-42811000D01*
X100146957Y-42816985D01*
X100144622Y-42823656D01*
X100144619Y-42823664D01*
X100089119Y-42982275D01*
X100089117Y-42982280D01*
X100086783Y-42988953D01*
X100066384Y-43170000D01*
X100086783Y-43351047D01*
X100089118Y-43357720D01*
X100089119Y-43357724D01*
X100106763Y-43408148D01*
X100123504Y-43455991D01*
X100129766Y-43473885D01*
X100135600Y-43533113D01*
X100113598Y-43588413D01*
X100068669Y-43627444D01*
X100010837Y-43641500D01*
X98784722Y-43641500D01*
X98743106Y-43634429D01*
X98708933Y-43615541D01*
X98707281Y-43613889D01*
X98701291Y-43610125D01*
X98559006Y-43520721D01*
X98559003Y-43520719D01*
X98553015Y-43516957D01*
X98546339Y-43514621D01*
X98546335Y-43514619D01*
X98387724Y-43459119D01*
X98387720Y-43459118D01*
X98381047Y-43456783D01*
X98200000Y-43436384D01*
X98192971Y-43437176D01*
X98025981Y-43455991D01*
X98025979Y-43455991D01*
X98018953Y-43456783D01*
X98012280Y-43459117D01*
X98012275Y-43459119D01*
X97853664Y-43514619D01*
X97853656Y-43514622D01*
X97846985Y-43516957D01*
X97841000Y-43520717D01*
X97840993Y-43520721D01*
X97698714Y-43610121D01*
X97698709Y-43610125D01*
X97692719Y-43613889D01*
X97687714Y-43618893D01*
X97687710Y-43618897D01*
X97568897Y-43737710D01*
X97568893Y-43737714D01*
X97563889Y-43742719D01*
X97560126Y-43748707D01*
X97560121Y-43748714D01*
X97470721Y-43890993D01*
X97470717Y-43891000D01*
X97466957Y-43896985D01*
X97464622Y-43903656D01*
X97464619Y-43903664D01*
X97409119Y-44062275D01*
X97409117Y-44062280D01*
X97406783Y-44068953D01*
X97386384Y-44250000D01*
X97406783Y-44431047D01*
X97409118Y-44437720D01*
X97409119Y-44437724D01*
X97464619Y-44596335D01*
X97464621Y-44596339D01*
X97466957Y-44603015D01*
X97470719Y-44609003D01*
X97470721Y-44609006D01*
X97558869Y-44749293D01*
X97563889Y-44757281D01*
X97692719Y-44886111D01*
X97698713Y-44889877D01*
X97698714Y-44889878D01*
X97801626Y-44954542D01*
X97846985Y-44983043D01*
X98018953Y-45043217D01*
X98200000Y-45063616D01*
X98381047Y-45043217D01*
X98553015Y-44983043D01*
X98640912Y-44927813D01*
X98707949Y-44908500D01*
X104346859Y-44908500D01*
X104404691Y-44922556D01*
X104449620Y-44961587D01*
X104471622Y-45016886D01*
X104465788Y-45076115D01*
X104409570Y-45236775D01*
X104409568Y-45236780D01*
X104407234Y-45243453D01*
X104386835Y-45424500D01*
X104390529Y-45457281D01*
X104405627Y-45591289D01*
X104407234Y-45605547D01*
X104409569Y-45612220D01*
X104409570Y-45612224D01*
X104465070Y-45770835D01*
X104465072Y-45770839D01*
X104467408Y-45777515D01*
X104471170Y-45783503D01*
X104471172Y-45783506D01*
X104537105Y-45888438D01*
X104564340Y-45931781D01*
X104693170Y-46060611D01*
X104847436Y-46157543D01*
X105019404Y-46217717D01*
X105063904Y-46222730D01*
X105104463Y-46234415D01*
X105138890Y-46258843D01*
X105222293Y-46342246D01*
X105229835Y-46350533D01*
X105233951Y-46357018D01*
X105239730Y-46362444D01*
X105239731Y-46362446D01*
X105283618Y-46403658D01*
X105286460Y-46406413D01*
X105306181Y-46426134D01*
X105309365Y-46428604D01*
X105318388Y-46436309D01*
X105350630Y-46466586D01*
X105357579Y-46470406D01*
X105368380Y-46476344D01*
X105384910Y-46487202D01*
X105394645Y-46494754D01*
X105394648Y-46494756D01*
X105400910Y-46499613D01*
X105441487Y-46517172D01*
X105452122Y-46522381D01*
X105490891Y-46543695D01*
X105510517Y-46548734D01*
X105529210Y-46555134D01*
X105547806Y-46563181D01*
X105555637Y-46564421D01*
X105555640Y-46564422D01*
X105572079Y-46567025D01*
X105591476Y-46570097D01*
X105603076Y-46572498D01*
X105645921Y-46583500D01*
X105666175Y-46583500D01*
X105685885Y-46585050D01*
X105705894Y-46588220D01*
X105749912Y-46584058D01*
X105761770Y-46583500D01*
X107902264Y-46583500D01*
X107969300Y-46602813D01*
X108096985Y-46683043D01*
X108268953Y-46743217D01*
X108450000Y-46763616D01*
X108631047Y-46743217D01*
X108803015Y-46683043D01*
X108957281Y-46586111D01*
X109086111Y-46457281D01*
X109183043Y-46303015D01*
X109185380Y-46296334D01*
X109188450Y-46289961D01*
X109189911Y-46290664D01*
X109225252Y-46240850D01*
X109289704Y-46214149D01*
X109358484Y-46225833D01*
X109410504Y-46272320D01*
X109454441Y-46342246D01*
X109463889Y-46357281D01*
X109592719Y-46486111D01*
X109598713Y-46489877D01*
X109598714Y-46489878D01*
X109678287Y-46539877D01*
X109746985Y-46583043D01*
X109918953Y-46643217D01*
X110100000Y-46663616D01*
X110281047Y-46643217D01*
X110453015Y-46583043D01*
X110607281Y-46486111D01*
X110736111Y-46357281D01*
X110833043Y-46203015D01*
X110893217Y-46031047D01*
X110894009Y-46024017D01*
X110895585Y-46017114D01*
X110898050Y-46017676D01*
X110920158Y-45964254D01*
X110977053Y-45923864D01*
X111046717Y-45919941D01*
X111107786Y-45953690D01*
X112665655Y-47511559D01*
X112690082Y-47545984D01*
X112701767Y-47586544D01*
X112705989Y-47624009D01*
X112705990Y-47624017D01*
X112706783Y-47631047D01*
X112709119Y-47637723D01*
X112709120Y-47637727D01*
X112734604Y-47710556D01*
X112739478Y-47775596D01*
X112711180Y-47834359D01*
X112657291Y-47871100D01*
X112565916Y-47903073D01*
X112565911Y-47903075D01*
X112559239Y-47905410D01*
X112553254Y-47909170D01*
X112553247Y-47909174D01*
X112410968Y-47998574D01*
X112410961Y-47998579D01*
X112404973Y-48002342D01*
X112399968Y-48007346D01*
X112399964Y-48007350D01*
X112281151Y-48126163D01*
X112281147Y-48126167D01*
X112276143Y-48131172D01*
X112272380Y-48137160D01*
X112272375Y-48137167D01*
X112182975Y-48279446D01*
X112182971Y-48279453D01*
X112179211Y-48285438D01*
X112176876Y-48292109D01*
X112176873Y-48292117D01*
X112121373Y-48450728D01*
X112121371Y-48450733D01*
X112119037Y-48457406D01*
X112098638Y-48638453D01*
X112119037Y-48819500D01*
X112121372Y-48826173D01*
X112121373Y-48826177D01*
X112176873Y-48984788D01*
X112176875Y-48984792D01*
X112179211Y-48991468D01*
X112276143Y-49145734D01*
X112404973Y-49274564D01*
X112559239Y-49371496D01*
X112731207Y-49431670D01*
X112912254Y-49452069D01*
X113093301Y-49431670D01*
X113265269Y-49371496D01*
X113419535Y-49274564D01*
X113548365Y-49145734D01*
X113645297Y-48991468D01*
X113705471Y-48819500D01*
X113725870Y-48638453D01*
X113705471Y-48457406D01*
X113677648Y-48377894D01*
X113672775Y-48312856D01*
X113701074Y-48254092D01*
X113754959Y-48217353D01*
X113853015Y-48183043D01*
X114007281Y-48086111D01*
X114136111Y-47957281D01*
X114233043Y-47803015D01*
X114293217Y-47631047D01*
X114313616Y-47450000D01*
X114304349Y-47367756D01*
X114312614Y-47306743D01*
X114348806Y-47256928D01*
X114404282Y-47230212D01*
X114465794Y-47232974D01*
X114518652Y-47264556D01*
X115796342Y-48542246D01*
X115803884Y-48550533D01*
X115808000Y-48557018D01*
X115813779Y-48562444D01*
X115813780Y-48562446D01*
X115857667Y-48603658D01*
X115860508Y-48606412D01*
X115880230Y-48626134D01*
X115883414Y-48628604D01*
X115892437Y-48636309D01*
X115924679Y-48666586D01*
X115931628Y-48670406D01*
X115942429Y-48676344D01*
X115958959Y-48687202D01*
X115968694Y-48694754D01*
X115968697Y-48694756D01*
X115974959Y-48699613D01*
X116015536Y-48717172D01*
X116026171Y-48722381D01*
X116064940Y-48743695D01*
X116084566Y-48748734D01*
X116103259Y-48755134D01*
X116121855Y-48763181D01*
X116143138Y-48766551D01*
X116191588Y-48787909D01*
X116192719Y-48786111D01*
X116256483Y-48826177D01*
X116346985Y-48883043D01*
X116518953Y-48943217D01*
X116700000Y-48963616D01*
X116881047Y-48943217D01*
X117053015Y-48883043D01*
X117207281Y-48786111D01*
X117336111Y-48657281D01*
X117336876Y-48656062D01*
X117388827Y-48618196D01*
X117455208Y-48611917D01*
X117515498Y-48640394D01*
X117552815Y-48695651D01*
X117556562Y-48759749D01*
X117556458Y-48760072D01*
X117555769Y-48766625D01*
X117555768Y-48766631D01*
X117549510Y-48826177D01*
X117536496Y-48950000D01*
X117556458Y-49139928D01*
X117558495Y-49146200D01*
X117558497Y-49146205D01*
X117613430Y-49315271D01*
X117613433Y-49315278D01*
X117615473Y-49321556D01*
X117710960Y-49486944D01*
X117838747Y-49628866D01*
X117993248Y-49741118D01*
X118167712Y-49818794D01*
X118354513Y-49858500D01*
X118538884Y-49858500D01*
X118545487Y-49858500D01*
X118732288Y-49818794D01*
X118906752Y-49741118D01*
X119061253Y-49628866D01*
X119189040Y-49486944D01*
X119284527Y-49321556D01*
X119343542Y-49139928D01*
X119363504Y-48950000D01*
X119343542Y-48760072D01*
X119303332Y-48636318D01*
X119286569Y-48584728D01*
X119286568Y-48584726D01*
X119284527Y-48578444D01*
X119224775Y-48474951D01*
X119207983Y-48416665D01*
X119220373Y-48357284D01*
X119259074Y-48310574D01*
X119315116Y-48287360D01*
X119375508Y-48293023D01*
X119518953Y-48343217D01*
X119700000Y-48363616D01*
X119881047Y-48343217D01*
X120053015Y-48283043D01*
X120207281Y-48186111D01*
X120336111Y-48057281D01*
X120433043Y-47903015D01*
X120493217Y-47731047D01*
X120513616Y-47550000D01*
X120493217Y-47368953D01*
X120433043Y-47196985D01*
X120336111Y-47042719D01*
X120207281Y-46913889D01*
X120201287Y-46910123D01*
X120201285Y-46910121D01*
X120059006Y-46820721D01*
X120059003Y-46820719D01*
X120053015Y-46816957D01*
X120046339Y-46814621D01*
X120046335Y-46814619D01*
X119887724Y-46759119D01*
X119887720Y-46759118D01*
X119881047Y-46756783D01*
X119700000Y-46736384D01*
X119692971Y-46737176D01*
X119525981Y-46755991D01*
X119525979Y-46755991D01*
X119518953Y-46756783D01*
X119512280Y-46759117D01*
X119512275Y-46759119D01*
X119353664Y-46814619D01*
X119353656Y-46814622D01*
X119346985Y-46816957D01*
X119341000Y-46820717D01*
X119340993Y-46820721D01*
X119219300Y-46897187D01*
X119152264Y-46916500D01*
X117414594Y-46916500D01*
X117366376Y-46906909D01*
X117325499Y-46879595D01*
X116334343Y-45888438D01*
X116309916Y-45854012D01*
X116298230Y-45813449D01*
X116293217Y-45768953D01*
X116249693Y-45644570D01*
X116245782Y-45574920D01*
X116279527Y-45513864D01*
X116336111Y-45457281D01*
X116433043Y-45303015D01*
X116493217Y-45131047D01*
X116513616Y-44950000D01*
X116493217Y-44768953D01*
X116433043Y-44596985D01*
X116336111Y-44442719D01*
X116207281Y-44313889D01*
X116201287Y-44310123D01*
X116201285Y-44310121D01*
X116059006Y-44220721D01*
X116059003Y-44220719D01*
X116053015Y-44216957D01*
X116046339Y-44214621D01*
X116046335Y-44214619D01*
X115887726Y-44159120D01*
X115887725Y-44159119D01*
X115881047Y-44156783D01*
X115874020Y-44155991D01*
X115874019Y-44155991D01*
X115865063Y-44154982D01*
X115824503Y-44143296D01*
X115790078Y-44118869D01*
X114621209Y-42950000D01*
X119286496Y-42950000D01*
X119306458Y-43139928D01*
X119308495Y-43146200D01*
X119308497Y-43146205D01*
X119363430Y-43315271D01*
X119363433Y-43315278D01*
X119365473Y-43321556D01*
X119382500Y-43351047D01*
X119443546Y-43456783D01*
X119460960Y-43486944D01*
X119588747Y-43628866D01*
X119594089Y-43632747D01*
X119594091Y-43632749D01*
X119606136Y-43641500D01*
X119743248Y-43741118D01*
X119917712Y-43818794D01*
X120104513Y-43858500D01*
X120288884Y-43858500D01*
X120295487Y-43858500D01*
X120482288Y-43818794D01*
X120656752Y-43741118D01*
X120811253Y-43628866D01*
X120939040Y-43486944D01*
X121034527Y-43321556D01*
X121093542Y-43139928D01*
X121113504Y-42950000D01*
X121093542Y-42760072D01*
X121034527Y-42578444D01*
X120939040Y-42413056D01*
X120811253Y-42271134D01*
X120805911Y-42267253D01*
X120805908Y-42267250D01*
X120728057Y-42210688D01*
X120656752Y-42158882D01*
X120482288Y-42081206D01*
X120475835Y-42079834D01*
X120475831Y-42079833D01*
X120301943Y-42042872D01*
X120301940Y-42042871D01*
X120295487Y-42041500D01*
X120104513Y-42041500D01*
X120098060Y-42042871D01*
X120098056Y-42042872D01*
X119924168Y-42079833D01*
X119924161Y-42079835D01*
X119917712Y-42081206D01*
X119911682Y-42083890D01*
X119911681Y-42083891D01*
X119749278Y-42156197D01*
X119749275Y-42156198D01*
X119743248Y-42158882D01*
X119737907Y-42162762D01*
X119737906Y-42162763D01*
X119594091Y-42267250D01*
X119594083Y-42267256D01*
X119588747Y-42271134D01*
X119584330Y-42276039D01*
X119584325Y-42276044D01*
X119494333Y-42375991D01*
X119460960Y-42413056D01*
X119457661Y-42418769D01*
X119457658Y-42418774D01*
X119368777Y-42572721D01*
X119365473Y-42578444D01*
X119363434Y-42584718D01*
X119363430Y-42584728D01*
X119308497Y-42753794D01*
X119308495Y-42753801D01*
X119306458Y-42760072D01*
X119286496Y-42950000D01*
X114621209Y-42950000D01*
X112928951Y-41257741D01*
X112921417Y-41249463D01*
X112917305Y-41242982D01*
X112867653Y-41196356D01*
X112864811Y-41193601D01*
X112847879Y-41176669D01*
X112847878Y-41176668D01*
X112845075Y-41173865D01*
X112841880Y-41171386D01*
X112832858Y-41163681D01*
X112805290Y-41137793D01*
X112773511Y-41090039D01*
X112766194Y-41033147D01*
X112784854Y-40978910D01*
X112832543Y-40903015D01*
X112892717Y-40731047D01*
X112913116Y-40550000D01*
X112892717Y-40368953D01*
X112875244Y-40319020D01*
X112871333Y-40249368D01*
X112905078Y-40188312D01*
X112936111Y-40157281D01*
X113033043Y-40003015D01*
X113093217Y-39831047D01*
X113113616Y-39650000D01*
X113093217Y-39468953D01*
X113033043Y-39296985D01*
X112955778Y-39174018D01*
X112939878Y-39148714D01*
X112939877Y-39148713D01*
X112936111Y-39142719D01*
X112859814Y-39066422D01*
X112831615Y-39023351D01*
X112822998Y-38972596D01*
X112833398Y-38930692D01*
X112832543Y-38930393D01*
X112853510Y-38870473D01*
X112892717Y-38758425D01*
X112913116Y-38577378D01*
X112892717Y-38396331D01*
X112832543Y-38224363D01*
X112817988Y-38201199D01*
X112739378Y-38076092D01*
X112739377Y-38076091D01*
X112735611Y-38070097D01*
X112606781Y-37941267D01*
X112530054Y-37893056D01*
X112493595Y-37870147D01*
X112453944Y-37830495D01*
X112435424Y-37777567D01*
X112441703Y-37721845D01*
X112471535Y-37674367D01*
X112661562Y-37484340D01*
X112695986Y-37459915D01*
X112736545Y-37448230D01*
X112781047Y-37443217D01*
X112953015Y-37383043D01*
X113107281Y-37286111D01*
X113236111Y-37157281D01*
X113333043Y-37003015D01*
X113393217Y-36831047D01*
X113413616Y-36650000D01*
X113393217Y-36468953D01*
X113333043Y-36296985D01*
X113300687Y-36245491D01*
X113244496Y-36156063D01*
X113225975Y-36103134D01*
X113232254Y-36047412D01*
X113262086Y-35999934D01*
X113816616Y-35445404D01*
X113857494Y-35418091D01*
X113905712Y-35408500D01*
X113941432Y-35408500D01*
X115417944Y-35408500D01*
X115429800Y-35409059D01*
X115429803Y-35409059D01*
X115437537Y-35410788D01*
X115508369Y-35408561D01*
X115512327Y-35408500D01*
X115537476Y-35408500D01*
X115541432Y-35408500D01*
X115545831Y-35407943D01*
X115557664Y-35407012D01*
X115603831Y-35405562D01*
X115624416Y-35399581D01*
X115643784Y-35395570D01*
X115665064Y-35392882D01*
X115708019Y-35375874D01*
X115719231Y-35372035D01*
X115763600Y-35359145D01*
X115782055Y-35348229D01*
X115799813Y-35339530D01*
X115819756Y-35331635D01*
X115857148Y-35304466D01*
X115867040Y-35297969D01*
X115906807Y-35274453D01*
X115921977Y-35259281D01*
X115937005Y-35246447D01*
X115954357Y-35233841D01*
X115983812Y-35198234D01*
X115991782Y-35189476D01*
X116101407Y-35079851D01*
X116135834Y-35055425D01*
X116167292Y-35046363D01*
X116167114Y-35045584D01*
X116174011Y-35044009D01*
X116181047Y-35043217D01*
X116353015Y-34983043D01*
X116503839Y-34888273D01*
X116556761Y-34869755D01*
X116612484Y-34876034D01*
X116659964Y-34905868D01*
X117702877Y-35948781D01*
X117727508Y-35983631D01*
X117739092Y-36024705D01*
X117755768Y-36183365D01*
X117756458Y-36189928D01*
X117758495Y-36196200D01*
X117758497Y-36196205D01*
X117813430Y-36365271D01*
X117813433Y-36365278D01*
X117815473Y-36371556D01*
X117848799Y-36429278D01*
X117905504Y-36527495D01*
X117910960Y-36536944D01*
X118002706Y-36638838D01*
X118032051Y-36671430D01*
X118038747Y-36678866D01*
X118044089Y-36682747D01*
X118044091Y-36682749D01*
X118073071Y-36703804D01*
X118193248Y-36791118D01*
X118367712Y-36868794D01*
X118516349Y-36900387D01*
X118564565Y-36921956D01*
X118599705Y-36961394D01*
X118615591Y-37011770D01*
X118616674Y-37023221D01*
X118617234Y-37035085D01*
X118617234Y-38029617D01*
X118616706Y-38040800D01*
X118615032Y-38048293D01*
X118615281Y-38056217D01*
X118615281Y-38056219D01*
X118617172Y-38116370D01*
X118617234Y-38120329D01*
X118617234Y-38148240D01*
X118617729Y-38152158D01*
X118617731Y-38152190D01*
X118617742Y-38152272D01*
X118618671Y-38164081D01*
X118619811Y-38200353D01*
X118619812Y-38200360D01*
X118620061Y-38208273D01*
X118622271Y-38215882D01*
X118622272Y-38215884D01*
X118625712Y-38227726D01*
X118629720Y-38247077D01*
X118630137Y-38250381D01*
X118632260Y-38267181D01*
X118635178Y-38274553D01*
X118635179Y-38274554D01*
X118648534Y-38308285D01*
X118652379Y-38319514D01*
X118662505Y-38354370D01*
X118662507Y-38354376D01*
X118664716Y-38361977D01*
X118668748Y-38368795D01*
X118668749Y-38368797D01*
X118675027Y-38379413D01*
X118683724Y-38397166D01*
X118687629Y-38407029D01*
X118691182Y-38416001D01*
X118695841Y-38422414D01*
X118695842Y-38422415D01*
X118717166Y-38451765D01*
X118723682Y-38461685D01*
X118742036Y-38492719D01*
X118746192Y-38499746D01*
X118751797Y-38505350D01*
X118751797Y-38505351D01*
X118760512Y-38514066D01*
X118773352Y-38529099D01*
X118785262Y-38545491D01*
X118791369Y-38550543D01*
X118791370Y-38550544D01*
X118819332Y-38573676D01*
X118828112Y-38581666D01*
X119338692Y-39092246D01*
X119346234Y-39100533D01*
X119350350Y-39107018D01*
X119356129Y-39112444D01*
X119356130Y-39112446D01*
X119400017Y-39153658D01*
X119402859Y-39156413D01*
X119422580Y-39176134D01*
X119425764Y-39178604D01*
X119434787Y-39186309D01*
X119467029Y-39216586D01*
X119473978Y-39220406D01*
X119484779Y-39226344D01*
X119501309Y-39237202D01*
X119511044Y-39244754D01*
X119511047Y-39244756D01*
X119517309Y-39249613D01*
X119557886Y-39267172D01*
X119568521Y-39272381D01*
X119607290Y-39293695D01*
X119626916Y-39298734D01*
X119645613Y-39305135D01*
X119651996Y-39307897D01*
X119681295Y-39327811D01*
X119682185Y-39326696D01*
X119687710Y-39331102D01*
X119692719Y-39336111D01*
X119698713Y-39339877D01*
X119698714Y-39339878D01*
X119840993Y-39429278D01*
X119846985Y-39433043D01*
X120018953Y-39493217D01*
X120200000Y-39513616D01*
X120381047Y-39493217D01*
X120553015Y-39433043D01*
X120707281Y-39336111D01*
X120836111Y-39207281D01*
X120933043Y-39053015D01*
X120993217Y-38881047D01*
X121013616Y-38700000D01*
X120993217Y-38518953D01*
X120933043Y-38346985D01*
X120878636Y-38260398D01*
X120860116Y-38207471D01*
X120866395Y-38151748D01*
X120896227Y-38104270D01*
X122847259Y-36153238D01*
X122855533Y-36145709D01*
X122862018Y-36141595D01*
X122886631Y-36115383D01*
X122936537Y-36082822D01*
X122995828Y-36076836D01*
X123051239Y-36098766D01*
X123090375Y-36143707D01*
X123104481Y-36201606D01*
X123111029Y-63962622D01*
X123094184Y-64025591D01*
X123048126Y-64071715D01*
X122985182Y-64088652D01*
X102852482Y-64113144D01*
X102808937Y-64105437D01*
X102770740Y-64083161D01*
X102733794Y-64051765D01*
X102732042Y-64050247D01*
X102712533Y-64033035D01*
X102712528Y-64033031D01*
X102709156Y-64030056D01*
X102706009Y-64027993D01*
X102702375Y-64025067D01*
X102680428Y-64006417D01*
X102680426Y-64006415D01*
X102673562Y-64000583D01*
X102665332Y-63996919D01*
X102665329Y-63996918D01*
X102653646Y-63991718D01*
X102635818Y-63981991D01*
X102625125Y-63974983D01*
X102625124Y-63974982D01*
X102617589Y-63970044D01*
X102608965Y-63967427D01*
X102608962Y-63967426D01*
X102585378Y-63960270D01*
X102570731Y-63954812D01*
X102548213Y-63944790D01*
X102548203Y-63944787D01*
X102539975Y-63941125D01*
X102531045Y-63939928D01*
X102531043Y-63939928D01*
X102518361Y-63938229D01*
X102498522Y-63933920D01*
X102486288Y-63930209D01*
X102486286Y-63930208D01*
X102477664Y-63927593D01*
X102468653Y-63927512D01*
X102468652Y-63927512D01*
X102444010Y-63927291D01*
X102428414Y-63926181D01*
X102403977Y-63922907D01*
X102403969Y-63922907D01*
X102395047Y-63921712D01*
X102386141Y-63923079D01*
X102386140Y-63923080D01*
X102373495Y-63925022D01*
X102353247Y-63926477D01*
X102340459Y-63926363D01*
X102340454Y-63926363D01*
X102331448Y-63926283D01*
X102322782Y-63928743D01*
X102322783Y-63928743D01*
X102295064Y-63936612D01*
X102290549Y-63937766D01*
X102286836Y-63938337D01*
X102282542Y-63939642D01*
X102282528Y-63939646D01*
X102257656Y-63947210D01*
X102255411Y-63947870D01*
X102190785Y-63966219D01*
X102190695Y-63965902D01*
X102167420Y-63972536D01*
X102156773Y-63973992D01*
X102156759Y-63973996D01*
X102147844Y-63975216D01*
X102139626Y-63978901D01*
X102139620Y-63978903D01*
X102113300Y-63990707D01*
X102109661Y-63992220D01*
X102106462Y-63993194D01*
X102102404Y-63995094D01*
X102102382Y-63995103D01*
X102078199Y-64006430D01*
X102076320Y-64007292D01*
X102014425Y-64035051D01*
X102011183Y-64037821D01*
X102007318Y-64039632D01*
X102000647Y-64045525D01*
X102000644Y-64045528D01*
X101958503Y-64082759D01*
X101919750Y-64106148D01*
X101875232Y-64114332D01*
X82137182Y-64138345D01*
X82074126Y-64121520D01*
X82027945Y-64075406D01*
X82011029Y-64012375D01*
X82011025Y-63996918D01*
X82008376Y-52750000D01*
X112286384Y-52750000D01*
X112306783Y-52931047D01*
X112309118Y-52937720D01*
X112309119Y-52937724D01*
X112364619Y-53096335D01*
X112364621Y-53096339D01*
X112366957Y-53103015D01*
X112463889Y-53257281D01*
X112592719Y-53386111D01*
X112746985Y-53483043D01*
X112918953Y-53543217D01*
X113100000Y-53563616D01*
X113281047Y-53543217D01*
X113453015Y-53483043D01*
X113607281Y-53386111D01*
X113736111Y-53257281D01*
X113833043Y-53103015D01*
X113893217Y-52931047D01*
X113913616Y-52750000D01*
X113893217Y-52568953D01*
X113833043Y-52396985D01*
X113736111Y-52242719D01*
X113607281Y-52113889D01*
X113601287Y-52110123D01*
X113601285Y-52110121D01*
X113459006Y-52020721D01*
X113459003Y-52020719D01*
X113453015Y-52016957D01*
X113446339Y-52014621D01*
X113446335Y-52014619D01*
X113287724Y-51959119D01*
X113287720Y-51959118D01*
X113281047Y-51956783D01*
X113100000Y-51936384D01*
X113092971Y-51937176D01*
X112925981Y-51955991D01*
X112925979Y-51955991D01*
X112918953Y-51956783D01*
X112912280Y-51959117D01*
X112912275Y-51959119D01*
X112753664Y-52014619D01*
X112753656Y-52014622D01*
X112746985Y-52016957D01*
X112741000Y-52020717D01*
X112740993Y-52020721D01*
X112598714Y-52110121D01*
X112598707Y-52110126D01*
X112592719Y-52113889D01*
X112587714Y-52118893D01*
X112587710Y-52118897D01*
X112468897Y-52237710D01*
X112468893Y-52237714D01*
X112463889Y-52242719D01*
X112460126Y-52248707D01*
X112460121Y-52248714D01*
X112370721Y-52390993D01*
X112370717Y-52391000D01*
X112366957Y-52396985D01*
X112364622Y-52403656D01*
X112364619Y-52403664D01*
X112309119Y-52562275D01*
X112309117Y-52562280D01*
X112306783Y-52568953D01*
X112286384Y-52750000D01*
X82008376Y-52750000D01*
X82005839Y-41982028D01*
X103634496Y-41982028D01*
X103652037Y-42137708D01*
X103655166Y-42151416D01*
X103706906Y-42299283D01*
X103707372Y-42300249D01*
X103710752Y-42303629D01*
X103720342Y-42297603D01*
X104031217Y-41986728D01*
X104037989Y-41974998D01*
X104755007Y-41974998D01*
X104761779Y-41986728D01*
X105072657Y-42297606D01*
X105082245Y-42303631D01*
X105085616Y-42300262D01*
X105086489Y-42298453D01*
X105132980Y-42246449D01*
X105200013Y-42227147D01*
X105267041Y-42246464D01*
X105313521Y-42298478D01*
X105314374Y-42300249D01*
X105317754Y-42303629D01*
X105327344Y-42297603D01*
X105638219Y-41986728D01*
X105644991Y-41974998D01*
X106362009Y-41974998D01*
X106368781Y-41986728D01*
X106679659Y-42297606D01*
X106689247Y-42303631D01*
X106692619Y-42300261D01*
X106693098Y-42299269D01*
X106744833Y-42151416D01*
X106747962Y-42137708D01*
X106765504Y-41982028D01*
X106765504Y-41967970D01*
X106747962Y-41812289D01*
X106744833Y-41798581D01*
X106693096Y-41650722D01*
X106692624Y-41649742D01*
X106689245Y-41646365D01*
X106679661Y-41652388D01*
X106368780Y-41963270D01*
X106362009Y-41974998D01*
X105644991Y-41974998D01*
X105638220Y-41963270D01*
X105327342Y-41652391D01*
X105317755Y-41646368D01*
X105314369Y-41649756D01*
X105313525Y-41651509D01*
X105267043Y-41703530D01*
X105200009Y-41722848D01*
X105132972Y-41703541D01*
X105086482Y-41651527D01*
X105085622Y-41649743D01*
X105082243Y-41646365D01*
X105072659Y-41652388D01*
X104761778Y-41963270D01*
X104755007Y-41974998D01*
X104037989Y-41974998D01*
X104031218Y-41963270D01*
X103720340Y-41652391D01*
X103710753Y-41646368D01*
X103707367Y-41649755D01*
X103706909Y-41650706D01*
X103655166Y-41798581D01*
X103652037Y-41812289D01*
X103634496Y-41967970D01*
X103634496Y-41982028D01*
X82005839Y-41982028D01*
X82005364Y-39964875D01*
X82004641Y-36895223D01*
X90892000Y-36895223D01*
X90892359Y-36901938D01*
X90897662Y-36951257D01*
X90901259Y-36966478D01*
X90946405Y-37087519D01*
X90954954Y-37103175D01*
X91031697Y-37205692D01*
X91044307Y-37218302D01*
X91146824Y-37295045D01*
X91162480Y-37303594D01*
X91283521Y-37348740D01*
X91298742Y-37352337D01*
X91348061Y-37357640D01*
X91354777Y-37358000D01*
X91529410Y-37358000D01*
X91542493Y-37354493D01*
X91546000Y-37341410D01*
X91546000Y-36170590D01*
X91542493Y-36157506D01*
X91529410Y-36154000D01*
X90908590Y-36154000D01*
X90895506Y-36157506D01*
X90892000Y-36170590D01*
X90892000Y-36895223D01*
X82004641Y-36895223D01*
X82000565Y-19596100D01*
X84458047Y-19596100D01*
X84458435Y-19601030D01*
X84476642Y-19832381D01*
X84476643Y-19832389D01*
X84477031Y-19837315D01*
X84478185Y-19842123D01*
X84478186Y-19842127D01*
X84531534Y-20064337D01*
X84533516Y-20072590D01*
X84535409Y-20077160D01*
X84535410Y-20077163D01*
X84549109Y-20110236D01*
X84626110Y-20296132D01*
X84628695Y-20300351D01*
X84628696Y-20300352D01*
X84693783Y-20406565D01*
X84752534Y-20502437D01*
X84755741Y-20506192D01*
X84755744Y-20506196D01*
X84854527Y-20621855D01*
X84909675Y-20686425D01*
X84913430Y-20689632D01*
X85085909Y-20836944D01*
X85093663Y-20843566D01*
X85299968Y-20969990D01*
X85523510Y-21062584D01*
X85758785Y-21119069D01*
X86000000Y-21138053D01*
X86241215Y-21119069D01*
X86476490Y-21062584D01*
X86700032Y-20969990D01*
X86906337Y-20843566D01*
X87090325Y-20686425D01*
X87247466Y-20502437D01*
X87373890Y-20296132D01*
X87466484Y-20072590D01*
X87522969Y-19837315D01*
X87541953Y-19596100D01*
X87522969Y-19354885D01*
X87466484Y-19119610D01*
X87373890Y-18896068D01*
X87247466Y-18689763D01*
X87201393Y-18635819D01*
X87093532Y-18509530D01*
X87090325Y-18505775D01*
X87066107Y-18485091D01*
X86910096Y-18351844D01*
X86910092Y-18351841D01*
X86906337Y-18348634D01*
X86836025Y-18305547D01*
X86704252Y-18224796D01*
X86704251Y-18224795D01*
X86700032Y-18222210D01*
X86617729Y-18188119D01*
X86481063Y-18131510D01*
X86481060Y-18131509D01*
X86476490Y-18129616D01*
X86471682Y-18128461D01*
X86471677Y-18128460D01*
X86246027Y-18074286D01*
X86246023Y-18074285D01*
X86241215Y-18073131D01*
X86236289Y-18072743D01*
X86236281Y-18072742D01*
X86004930Y-18054535D01*
X86000000Y-18054147D01*
X85995070Y-18054535D01*
X85763718Y-18072742D01*
X85763708Y-18072743D01*
X85758785Y-18073131D01*
X85753978Y-18074285D01*
X85753972Y-18074286D01*
X85528322Y-18128460D01*
X85528313Y-18128462D01*
X85523510Y-18129616D01*
X85518942Y-18131507D01*
X85518936Y-18131510D01*
X85304542Y-18220315D01*
X85304537Y-18220317D01*
X85299968Y-18222210D01*
X85295753Y-18224792D01*
X85295747Y-18224796D01*
X85097877Y-18346051D01*
X85097871Y-18346055D01*
X85093663Y-18348634D01*
X85089913Y-18351836D01*
X85089903Y-18351844D01*
X84913430Y-18502567D01*
X84913423Y-18502573D01*
X84909675Y-18505775D01*
X84906473Y-18509523D01*
X84906467Y-18509530D01*
X84755744Y-18686003D01*
X84755736Y-18686013D01*
X84752534Y-18689763D01*
X84749955Y-18693971D01*
X84749951Y-18693977D01*
X84628696Y-18891847D01*
X84628692Y-18891853D01*
X84626110Y-18896068D01*
X84624217Y-18900637D01*
X84624215Y-18900642D01*
X84535410Y-19115036D01*
X84535407Y-19115042D01*
X84533516Y-19119610D01*
X84532361Y-19124417D01*
X84532362Y-19124417D01*
X84478186Y-19350072D01*
X84478185Y-19350078D01*
X84477031Y-19354885D01*
X84476643Y-19359808D01*
X84476642Y-19359818D01*
X84461711Y-19549549D01*
X84458047Y-19596100D01*
X82000565Y-19596100D01*
X82000030Y-17326030D01*
X82016901Y-17263017D01*
X82063021Y-17216886D01*
X82126030Y-17200000D01*
X89280626Y-17200000D01*
X89339028Y-17214352D01*
G37*
G04 #@! TD.AperFunction*
G04 #@! TA.AperFunction,Conductor*
G36*
X98528500Y-38250381D02*
G01*
X98574619Y-38296500D01*
X98591500Y-38359500D01*
X98591500Y-38421538D01*
X98590972Y-38432721D01*
X98589298Y-38440214D01*
X98589547Y-38448138D01*
X98589547Y-38448140D01*
X98591438Y-38508291D01*
X98591500Y-38512250D01*
X98591500Y-38540161D01*
X98591995Y-38544079D01*
X98591997Y-38544111D01*
X98592008Y-38544193D01*
X98592937Y-38556002D01*
X98594077Y-38592273D01*
X98594078Y-38592280D01*
X98594327Y-38600194D01*
X98594367Y-38600332D01*
X98591455Y-38649703D01*
X98565996Y-38697331D01*
X98522937Y-38729926D01*
X98470186Y-38741500D01*
X98355517Y-38741500D01*
X98305132Y-38730987D01*
X98263154Y-38701204D01*
X98236589Y-38657119D01*
X98233043Y-38646985D01*
X98184889Y-38570349D01*
X98139878Y-38498714D01*
X98139877Y-38498713D01*
X98136111Y-38492719D01*
X98091987Y-38448595D01*
X98061249Y-38398436D01*
X98056633Y-38339789D01*
X98079146Y-38285439D01*
X98123879Y-38247233D01*
X98181082Y-38233500D01*
X98465500Y-38233500D01*
X98528500Y-38250381D01*
G37*
G04 #@! TD.AperFunction*
G04 #@! TA.AperFunction,Conductor*
G36*
X104621442Y-35315043D02*
G01*
X104666672Y-35355464D01*
X104687773Y-35412334D01*
X104706783Y-35581047D01*
X104709118Y-35587720D01*
X104709119Y-35587724D01*
X104764619Y-35746335D01*
X104764621Y-35746339D01*
X104766957Y-35753015D01*
X104770719Y-35759003D01*
X104770721Y-35759006D01*
X104831307Y-35855428D01*
X104863889Y-35907281D01*
X104992719Y-36036111D01*
X105146985Y-36133043D01*
X105318953Y-36193217D01*
X105500000Y-36213616D01*
X105681047Y-36193217D01*
X105853015Y-36133043D01*
X106007281Y-36036111D01*
X106037019Y-36006371D01*
X106093502Y-35973759D01*
X106158726Y-35973758D01*
X106215211Y-36006370D01*
X106276827Y-36067986D01*
X106282821Y-36071752D01*
X106282822Y-36071753D01*
X106412522Y-36153249D01*
X106431093Y-36164918D01*
X106603061Y-36225092D01*
X106784108Y-36245491D01*
X106965155Y-36225092D01*
X107137123Y-36164918D01*
X107148222Y-36157943D01*
X107201152Y-36139418D01*
X107256877Y-36145695D01*
X107402052Y-36196494D01*
X107583099Y-36216893D01*
X107590128Y-36216101D01*
X107590132Y-36216101D01*
X107610143Y-36213845D01*
X107626966Y-36211950D01*
X107682690Y-36218227D01*
X107730171Y-36248062D01*
X107818220Y-36336111D01*
X107824214Y-36339877D01*
X107824215Y-36339878D01*
X107966494Y-36429278D01*
X107972486Y-36433043D01*
X108144454Y-36493217D01*
X108325501Y-36513616D01*
X108506548Y-36493217D01*
X108678516Y-36433043D01*
X108832782Y-36336111D01*
X108915951Y-36252941D01*
X108964229Y-36222833D01*
X109012886Y-36217848D01*
X109012886Y-36217031D01*
X109033140Y-36217031D01*
X109052850Y-36218581D01*
X109072859Y-36221751D01*
X109116877Y-36217589D01*
X109128735Y-36217031D01*
X110285795Y-36217031D01*
X110352831Y-36236344D01*
X110480516Y-36316574D01*
X110607674Y-36361068D01*
X110662321Y-36398698D01*
X110690274Y-36458875D01*
X110683780Y-36524909D01*
X110649991Y-36571161D01*
X110651130Y-36572300D01*
X110527308Y-36696121D01*
X110527304Y-36696125D01*
X110522300Y-36701130D01*
X110518537Y-36707118D01*
X110518532Y-36707125D01*
X110429132Y-36849404D01*
X110429128Y-36849411D01*
X110425368Y-36855396D01*
X110423033Y-36862067D01*
X110423030Y-36862075D01*
X110367530Y-37020686D01*
X110367528Y-37020691D01*
X110365194Y-37027364D01*
X110364402Y-37034390D01*
X110364402Y-37034392D01*
X110350556Y-37157281D01*
X110344795Y-37208411D01*
X110345587Y-37215440D01*
X110357139Y-37317972D01*
X110365194Y-37389458D01*
X110370962Y-37405941D01*
X110380040Y-37431885D01*
X110385873Y-37491114D01*
X110363870Y-37546412D01*
X110318941Y-37585443D01*
X110261110Y-37599499D01*
X106876362Y-37599499D01*
X106809326Y-37580186D01*
X106762840Y-37528168D01*
X106751154Y-37459392D01*
X106765504Y-37332031D01*
X106765504Y-37317972D01*
X106747962Y-37162291D01*
X106744833Y-37148583D01*
X106693096Y-37000724D01*
X106692624Y-36999744D01*
X106689245Y-36996367D01*
X106679661Y-37002390D01*
X106357063Y-37324988D01*
X106357050Y-37325004D01*
X106119461Y-37562594D01*
X106078583Y-37589908D01*
X106030365Y-37599499D01*
X105976637Y-37599499D01*
X105928419Y-37589908D01*
X105887542Y-37562594D01*
X105649951Y-37325003D01*
X105649949Y-37325000D01*
X105327344Y-37002395D01*
X105317755Y-36996370D01*
X105314369Y-36999758D01*
X105313525Y-37001511D01*
X105267043Y-37053532D01*
X105200009Y-37072850D01*
X105132972Y-37053543D01*
X105086482Y-37001529D01*
X105085622Y-36999745D01*
X105082243Y-36996367D01*
X105072659Y-37002390D01*
X104703735Y-37371315D01*
X104647251Y-37403927D01*
X104582029Y-37403927D01*
X104525545Y-37371315D01*
X104350184Y-37195954D01*
X104317572Y-37139470D01*
X104317572Y-37074248D01*
X104350184Y-37017764D01*
X104719103Y-36648844D01*
X104725128Y-36639255D01*
X105674870Y-36639255D01*
X105680893Y-36648842D01*
X105991772Y-36959720D01*
X106003500Y-36966491D01*
X106015230Y-36959719D01*
X106326105Y-36648844D01*
X106332131Y-36639254D01*
X106328751Y-36635874D01*
X106327785Y-36635408D01*
X106179918Y-36583668D01*
X106166210Y-36580539D01*
X106010530Y-36562998D01*
X105996472Y-36562998D01*
X105840791Y-36580539D01*
X105827083Y-36583668D01*
X105679208Y-36635411D01*
X105678257Y-36635869D01*
X105674870Y-36639255D01*
X104725128Y-36639255D01*
X104725129Y-36639254D01*
X104721749Y-36635874D01*
X104720783Y-36635408D01*
X104572916Y-36583668D01*
X104559208Y-36580539D01*
X104403528Y-36562998D01*
X104389470Y-36562998D01*
X104233789Y-36580539D01*
X104220081Y-36583668D01*
X104072214Y-36635408D01*
X104059545Y-36641509D01*
X103982489Y-36689927D01*
X103932176Y-36708124D01*
X103878848Y-36703804D01*
X103832120Y-36677746D01*
X103830910Y-36676679D01*
X103828096Y-36673865D01*
X103824901Y-36671386D01*
X103815880Y-36663682D01*
X103811426Y-36659500D01*
X103783647Y-36633414D01*
X103776703Y-36629596D01*
X103776697Y-36629592D01*
X103765892Y-36623652D01*
X103749373Y-36612801D01*
X103733367Y-36600386D01*
X103726092Y-36597238D01*
X103726089Y-36597236D01*
X103692792Y-36582828D01*
X103682130Y-36577605D01*
X103650333Y-36560124D01*
X103650331Y-36560123D01*
X103643386Y-36556305D01*
X103635709Y-36554334D01*
X103635707Y-36554333D01*
X103623764Y-36551267D01*
X103605060Y-36544863D01*
X103593746Y-36539967D01*
X103593744Y-36539966D01*
X103586471Y-36536819D01*
X103578645Y-36535579D01*
X103578644Y-36535579D01*
X103542801Y-36529902D01*
X103531185Y-36527496D01*
X103488356Y-36516500D01*
X103480427Y-36516500D01*
X103468102Y-36516500D01*
X103448391Y-36514949D01*
X103436211Y-36513019D01*
X103436204Y-36513018D01*
X103428383Y-36511780D01*
X103420499Y-36512525D01*
X103420491Y-36512525D01*
X103384365Y-36515941D01*
X103372507Y-36516500D01*
X102429892Y-36516500D01*
X102362855Y-36497187D01*
X102316369Y-36445168D01*
X102304684Y-36376391D01*
X102331332Y-36312059D01*
X102336111Y-36307281D01*
X102433043Y-36153015D01*
X102493217Y-35981047D01*
X102513616Y-35800000D01*
X102493217Y-35618953D01*
X102440415Y-35468055D01*
X102434582Y-35408829D01*
X102456584Y-35353529D01*
X102501513Y-35314498D01*
X102559345Y-35300442D01*
X104562566Y-35300442D01*
X104621442Y-35315043D01*
G37*
G04 #@! TD.AperFunction*
G04 #@! TA.AperFunction,Conductor*
G36*
X111412537Y-27830975D02*
G01*
X111458798Y-27878551D01*
X111474470Y-27943034D01*
X111455207Y-28006536D01*
X111370721Y-28140993D01*
X111370717Y-28141000D01*
X111366957Y-28146985D01*
X111364622Y-28153656D01*
X111364619Y-28153664D01*
X111309119Y-28312275D01*
X111309117Y-28312280D01*
X111306783Y-28318953D01*
X111286384Y-28500000D01*
X111306783Y-28681047D01*
X111309118Y-28687720D01*
X111309119Y-28687724D01*
X111364619Y-28846335D01*
X111364621Y-28846339D01*
X111366957Y-28853015D01*
X111370719Y-28859003D01*
X111370721Y-28859006D01*
X111458852Y-28999266D01*
X111463889Y-29007281D01*
X111592719Y-29136111D01*
X111746985Y-29233043D01*
X111918953Y-29293217D01*
X112100000Y-29313616D01*
X112281047Y-29293217D01*
X112345299Y-29270734D01*
X112373885Y-29260732D01*
X112433114Y-29254898D01*
X112488413Y-29276900D01*
X112527444Y-29321829D01*
X112541500Y-29379661D01*
X112541500Y-32596233D01*
X112540972Y-32607416D01*
X112539298Y-32614909D01*
X112539547Y-32622833D01*
X112539547Y-32622835D01*
X112541438Y-32682986D01*
X112541500Y-32686945D01*
X112541500Y-32714856D01*
X112541995Y-32718774D01*
X112541997Y-32718806D01*
X112542008Y-32718888D01*
X112542937Y-32730697D01*
X112544077Y-32766969D01*
X112544078Y-32766976D01*
X112544327Y-32774889D01*
X112546537Y-32782498D01*
X112546538Y-32782500D01*
X112549978Y-32794342D01*
X112553986Y-32813693D01*
X112556526Y-32833797D01*
X112559444Y-32841169D01*
X112559445Y-32841170D01*
X112572800Y-32874901D01*
X112576645Y-32886130D01*
X112586771Y-32920986D01*
X112586773Y-32920992D01*
X112588982Y-32928593D01*
X112593014Y-32935411D01*
X112593015Y-32935413D01*
X112599293Y-32946029D01*
X112607990Y-32963782D01*
X112615448Y-32982617D01*
X112620107Y-32989030D01*
X112620108Y-32989031D01*
X112641432Y-33018381D01*
X112647948Y-33028301D01*
X112666422Y-33059538D01*
X112670458Y-33066362D01*
X112676063Y-33071967D01*
X112684778Y-33080682D01*
X112697618Y-33095715D01*
X112703637Y-33104000D01*
X112709528Y-33112107D01*
X112715635Y-33117159D01*
X112715636Y-33117160D01*
X112743598Y-33140292D01*
X112752378Y-33148282D01*
X112770839Y-33166743D01*
X112802863Y-33221107D01*
X112804515Y-33284181D01*
X112775381Y-33340147D01*
X112717889Y-33404000D01*
X112698661Y-33425355D01*
X112695362Y-33431068D01*
X112695359Y-33431073D01*
X112606478Y-33585020D01*
X112603174Y-33590743D01*
X112601135Y-33597017D01*
X112601131Y-33597027D01*
X112546198Y-33766093D01*
X112546196Y-33766100D01*
X112544159Y-33772371D01*
X112543469Y-33778932D01*
X112543469Y-33778934D01*
X112528368Y-33922614D01*
X112524197Y-33962299D01*
X112524887Y-33968864D01*
X112538887Y-34102072D01*
X112544159Y-34152227D01*
X112546196Y-34158499D01*
X112546198Y-34158504D01*
X112601131Y-34327570D01*
X112601134Y-34327577D01*
X112603174Y-34333855D01*
X112698661Y-34499243D01*
X112703075Y-34504146D01*
X112703083Y-34504156D01*
X112714168Y-34516466D01*
X112743303Y-34572432D01*
X112741652Y-34635507D01*
X112709628Y-34689872D01*
X112499251Y-34900249D01*
X112438194Y-34933995D01*
X112368541Y-34930083D01*
X112311645Y-34889714D01*
X112284948Y-34825262D01*
X112284837Y-34824278D01*
X112276748Y-34752484D01*
X112216574Y-34580516D01*
X112212809Y-34574524D01*
X112123409Y-34432245D01*
X112123408Y-34432244D01*
X112119642Y-34426250D01*
X111990812Y-34297420D01*
X111984818Y-34293654D01*
X111984816Y-34293652D01*
X111842537Y-34204252D01*
X111842534Y-34204250D01*
X111836546Y-34200488D01*
X111829870Y-34198152D01*
X111829866Y-34198150D01*
X111671255Y-34142650D01*
X111671251Y-34142649D01*
X111664578Y-34140314D01*
X111657551Y-34139522D01*
X111657550Y-34139522D01*
X111620079Y-34135300D01*
X111579517Y-34123614D01*
X111545092Y-34099187D01*
X111128646Y-33682741D01*
X111121112Y-33674463D01*
X111117000Y-33667982D01*
X111067348Y-33621356D01*
X111064506Y-33618601D01*
X111047574Y-33601669D01*
X111044770Y-33598865D01*
X111041575Y-33596386D01*
X111032554Y-33588682D01*
X111006097Y-33563838D01*
X111000321Y-33558414D01*
X110993377Y-33554596D01*
X110993371Y-33554592D01*
X110982566Y-33548652D01*
X110966047Y-33537801D01*
X110950041Y-33525386D01*
X110942766Y-33522238D01*
X110942763Y-33522236D01*
X110909466Y-33507828D01*
X110898804Y-33502605D01*
X110867007Y-33485124D01*
X110867005Y-33485123D01*
X110860060Y-33481305D01*
X110852383Y-33479334D01*
X110852381Y-33479333D01*
X110840438Y-33476267D01*
X110821734Y-33469863D01*
X110810420Y-33464967D01*
X110810418Y-33464966D01*
X110803145Y-33461819D01*
X110795319Y-33460579D01*
X110795318Y-33460579D01*
X110759475Y-33454902D01*
X110747847Y-33452493D01*
X110728797Y-33447601D01*
X110669140Y-33412714D01*
X110636858Y-33351607D01*
X110641664Y-33282665D01*
X110682111Y-33226627D01*
X110746027Y-33200354D01*
X110831544Y-33190719D01*
X111003512Y-33130545D01*
X111003878Y-33131593D01*
X111050243Y-33121007D01*
X111096618Y-33131592D01*
X111096985Y-33130545D01*
X111268953Y-33190719D01*
X111450000Y-33211118D01*
X111631047Y-33190719D01*
X111803015Y-33130545D01*
X111957281Y-33033613D01*
X112086111Y-32904783D01*
X112183043Y-32750517D01*
X112243217Y-32578549D01*
X112263616Y-32397502D01*
X112243217Y-32216455D01*
X112183043Y-32044487D01*
X112086111Y-31890221D01*
X111957281Y-31761391D01*
X111951287Y-31757625D01*
X111951285Y-31757623D01*
X111809006Y-31668223D01*
X111809003Y-31668221D01*
X111803015Y-31664459D01*
X111796339Y-31662123D01*
X111796335Y-31662121D01*
X111637724Y-31606621D01*
X111637720Y-31606620D01*
X111631047Y-31604285D01*
X111610669Y-31601989D01*
X111457029Y-31584678D01*
X111450000Y-31583886D01*
X111442971Y-31584678D01*
X111372898Y-31592573D01*
X111317175Y-31586294D01*
X111269694Y-31556459D01*
X111239861Y-31508977D01*
X111233584Y-31453254D01*
X111236163Y-31430371D01*
X111236163Y-31430368D01*
X111236955Y-31423339D01*
X111216556Y-31242292D01*
X111156382Y-31070324D01*
X111090200Y-30964997D01*
X111071680Y-30912068D01*
X111077960Y-30856344D01*
X111079484Y-30851988D01*
X111092584Y-30814553D01*
X111112983Y-30633506D01*
X111092584Y-30452459D01*
X111032410Y-30280491D01*
X110935478Y-30126225D01*
X110806648Y-29997395D01*
X110800654Y-29993629D01*
X110800652Y-29993627D01*
X110658373Y-29904227D01*
X110658370Y-29904225D01*
X110652382Y-29900463D01*
X110597879Y-29881391D01*
X110553799Y-29854830D01*
X110524013Y-29812852D01*
X110513500Y-29762465D01*
X110513500Y-27939500D01*
X110530381Y-27876500D01*
X110576500Y-27830381D01*
X110639500Y-27813500D01*
X111348520Y-27813500D01*
X111412537Y-27830975D01*
G37*
G04 #@! TD.AperFunction*
G04 #@! TA.AperFunction,Conductor*
G36*
X119958928Y-33093091D02*
G01*
X119999806Y-33120405D01*
X120488837Y-33609437D01*
X120521100Y-33664648D01*
X120522104Y-33728588D01*
X120491591Y-33784785D01*
X120446371Y-33832939D01*
X120443621Y-33835777D01*
X120426667Y-33852732D01*
X120426660Y-33852739D01*
X120423865Y-33855535D01*
X120421442Y-33858657D01*
X120421426Y-33858676D01*
X120421365Y-33858756D01*
X120413690Y-33867740D01*
X120388838Y-33894207D01*
X120388835Y-33894209D01*
X120383414Y-33899984D01*
X120379600Y-33906919D01*
X120379592Y-33906932D01*
X120373650Y-33917741D01*
X120362803Y-33934254D01*
X120355243Y-33944000D01*
X120355237Y-33944009D01*
X120350386Y-33950264D01*
X120347242Y-33957528D01*
X120347238Y-33957536D01*
X120332824Y-33990845D01*
X120327604Y-34001500D01*
X120310125Y-34033294D01*
X120310121Y-34033302D01*
X120306305Y-34040245D01*
X120304333Y-34047921D01*
X120304331Y-34047929D01*
X120301266Y-34059867D01*
X120294865Y-34078564D01*
X120289968Y-34089881D01*
X120289966Y-34089886D01*
X120286819Y-34097160D01*
X120285579Y-34104985D01*
X120285577Y-34104994D01*
X120279901Y-34140829D01*
X120277495Y-34152449D01*
X120268471Y-34187594D01*
X120268469Y-34187602D01*
X120266500Y-34195275D01*
X120266500Y-34203204D01*
X120266500Y-34215529D01*
X120264949Y-34235240D01*
X120263019Y-34247419D01*
X120263018Y-34247426D01*
X120261780Y-34255248D01*
X120262525Y-34263131D01*
X120262525Y-34263139D01*
X120265941Y-34299266D01*
X120266500Y-34311124D01*
X120266500Y-34622801D01*
X120251455Y-34682508D01*
X120209914Y-34727956D01*
X120151797Y-34748294D01*
X120090981Y-34738663D01*
X120041991Y-34701363D01*
X120039876Y-34698711D01*
X120036111Y-34692719D01*
X119907281Y-34563889D01*
X119901287Y-34560123D01*
X119901285Y-34560121D01*
X119759006Y-34470721D01*
X119759003Y-34470719D01*
X119753015Y-34466957D01*
X119746339Y-34464621D01*
X119746335Y-34464619D01*
X119587724Y-34409119D01*
X119587720Y-34409118D01*
X119581047Y-34406783D01*
X119574020Y-34405991D01*
X119574019Y-34405991D01*
X119536548Y-34401769D01*
X119495986Y-34390083D01*
X119461561Y-34365656D01*
X118394500Y-33298595D01*
X118363762Y-33248436D01*
X118359146Y-33189789D01*
X118381659Y-33135439D01*
X118426392Y-33097233D01*
X118483595Y-33083500D01*
X119910710Y-33083500D01*
X119958928Y-33093091D01*
G37*
G04 #@! TD.AperFunction*
G04 #@! TA.AperFunction,Conductor*
G36*
X96356087Y-34010970D02*
G01*
X96400555Y-34048133D01*
X96479394Y-34153450D01*
X96486739Y-34163261D01*
X96517098Y-34185988D01*
X96582124Y-34234666D01*
X96603796Y-34250889D01*
X96740799Y-34301989D01*
X96801362Y-34308500D01*
X96810406Y-34308500D01*
X96858624Y-34318091D01*
X96899501Y-34345405D01*
X96905501Y-34351405D01*
X96936239Y-34401564D01*
X96940855Y-34460211D01*
X96918342Y-34514561D01*
X96873609Y-34552767D01*
X96816406Y-34566500D01*
X96578199Y-34566500D01*
X96529981Y-34556909D01*
X96489103Y-34529595D01*
X96354583Y-34395075D01*
X96194175Y-34234666D01*
X96163254Y-34183936D01*
X96159016Y-34124676D01*
X96182403Y-34070062D01*
X96198819Y-34048133D01*
X96243288Y-34010969D01*
X96299687Y-33997642D01*
X96356087Y-34010970D01*
G37*
G04 #@! TD.AperFunction*
G04 #@! TA.AperFunction,Conductor*
G36*
X94390061Y-32306158D02*
G01*
X94428267Y-32350891D01*
X94442000Y-32408094D01*
X94442000Y-32579410D01*
X94445506Y-32592493D01*
X94458590Y-32596000D01*
X95478000Y-32596000D01*
X95541000Y-32612881D01*
X95587119Y-32659000D01*
X95604000Y-32722000D01*
X95604000Y-32978000D01*
X95587119Y-33041000D01*
X95541000Y-33087119D01*
X95478000Y-33104000D01*
X94458590Y-33104000D01*
X94445506Y-33107506D01*
X94442000Y-33120590D01*
X94442000Y-33845223D01*
X94442359Y-33851933D01*
X94442370Y-33852029D01*
X94442366Y-33852051D01*
X94442541Y-33855315D01*
X94441790Y-33855355D01*
X94430428Y-33920554D01*
X94383947Y-33972301D01*
X94317092Y-33991500D01*
X93784500Y-33991500D01*
X93721500Y-33974619D01*
X93675381Y-33928500D01*
X93658500Y-33865500D01*
X93658500Y-32939594D01*
X93668091Y-32891376D01*
X93695405Y-32850499D01*
X94226905Y-32318999D01*
X94277064Y-32288261D01*
X94335711Y-32283645D01*
X94390061Y-32306158D01*
G37*
G04 #@! TD.AperFunction*
G04 #@! TA.AperFunction,Conductor*
G36*
X97795211Y-28522558D02*
G01*
X97796947Y-28523918D01*
X97802345Y-28529316D01*
X97949587Y-28618327D01*
X98113851Y-28669513D01*
X98185235Y-28676000D01*
X98477905Y-28675999D01*
X98526123Y-28685590D01*
X98567000Y-28712904D01*
X98582696Y-28728600D01*
X98613618Y-28779329D01*
X98617857Y-28838589D01*
X98594470Y-28893203D01*
X98554510Y-28946583D01*
X98554508Y-28946585D01*
X98549111Y-28953796D01*
X98545965Y-28962230D01*
X98545962Y-28962236D01*
X98500763Y-29083419D01*
X98500761Y-29083423D01*
X98498011Y-29090799D01*
X98497169Y-29098625D01*
X98497168Y-29098632D01*
X98491860Y-29148011D01*
X98491500Y-29151362D01*
X98491500Y-31148638D01*
X98491859Y-31151985D01*
X98491860Y-31151988D01*
X98497168Y-31201367D01*
X98497169Y-31201373D01*
X98498011Y-31209201D01*
X98500762Y-31216578D01*
X98500763Y-31216580D01*
X98545962Y-31337763D01*
X98545964Y-31337766D01*
X98549111Y-31346204D01*
X98554508Y-31353414D01*
X98554510Y-31353417D01*
X98620449Y-31441500D01*
X98636739Y-31463261D01*
X98643950Y-31468659D01*
X98693082Y-31505439D01*
X98735628Y-31562274D01*
X98740694Y-31633088D01*
X98708367Y-31692291D01*
X98704000Y-31708590D01*
X98704000Y-33278000D01*
X98687119Y-33341000D01*
X98641000Y-33387119D01*
X98578000Y-33404000D01*
X98322000Y-33404000D01*
X98259000Y-33387119D01*
X98212881Y-33341000D01*
X98196000Y-33278000D01*
X98196000Y-31708590D01*
X98192493Y-31695506D01*
X98163388Y-31687707D01*
X98164043Y-31685261D01*
X98136159Y-31678672D01*
X98091691Y-31641509D01*
X98085387Y-31633088D01*
X98013261Y-31536739D01*
X97997534Y-31524966D01*
X97903417Y-31454510D01*
X97903414Y-31454508D01*
X97896204Y-31449111D01*
X97887766Y-31445964D01*
X97887763Y-31445962D01*
X97766580Y-31400763D01*
X97766578Y-31400762D01*
X97759201Y-31398011D01*
X97751373Y-31397169D01*
X97751367Y-31397168D01*
X97701988Y-31391860D01*
X97701985Y-31391859D01*
X97698638Y-31391500D01*
X97136939Y-31391500D01*
X97076556Y-31376089D01*
X97030944Y-31333626D01*
X97011261Y-31274497D01*
X97022321Y-31213168D01*
X97051541Y-31176900D01*
X97049675Y-31175034D01*
X97056048Y-31168660D01*
X97063261Y-31163261D01*
X97150889Y-31046204D01*
X97201989Y-30909201D01*
X97208500Y-30848638D01*
X97208500Y-28851362D01*
X97203920Y-28808766D01*
X97214254Y-28743688D01*
X97256029Y-28692722D01*
X97308350Y-28673324D01*
X97307971Y-28671417D01*
X97314509Y-28670116D01*
X97321149Y-28669513D01*
X97485413Y-28618327D01*
X97632655Y-28529316D01*
X97638052Y-28523918D01*
X97639789Y-28522558D01*
X97689814Y-28498819D01*
X97745186Y-28498819D01*
X97795211Y-28522558D01*
G37*
G04 #@! TD.AperFunction*
G04 #@! TA.AperFunction,Conductor*
G36*
X121758500Y-31337881D02*
G01*
X121804619Y-31384000D01*
X121821500Y-31447000D01*
X121821500Y-32846101D01*
X121807767Y-32903304D01*
X121769561Y-32948037D01*
X121715211Y-32970550D01*
X121656564Y-32965934D01*
X121606405Y-32935196D01*
X121385199Y-32713990D01*
X121353571Y-32660976D01*
X121350921Y-32599301D01*
X121370840Y-32558278D01*
X121376000Y-32536552D01*
X121376000Y-31447000D01*
X121392881Y-31384000D01*
X121439000Y-31337881D01*
X121502000Y-31321000D01*
X121695500Y-31321000D01*
X121758500Y-31337881D01*
G37*
G04 #@! TD.AperFunction*
G04 #@! TA.AperFunction,Conductor*
G36*
X119281000Y-31337881D02*
G01*
X119327119Y-31384000D01*
X119344000Y-31447000D01*
X119344000Y-31690500D01*
X119327119Y-31753500D01*
X119281000Y-31799619D01*
X119218000Y-31816500D01*
X117692000Y-31816500D01*
X117629000Y-31799619D01*
X117582881Y-31753500D01*
X117566000Y-31690500D01*
X117566000Y-31447000D01*
X117582881Y-31384000D01*
X117629000Y-31337881D01*
X117692000Y-31321000D01*
X119218000Y-31321000D01*
X119281000Y-31337881D01*
G37*
G04 #@! TD.AperFunction*
G04 #@! TA.AperFunction,Conductor*
G36*
X117868436Y-24612035D02*
G01*
X117918595Y-24642773D01*
X119286303Y-26010481D01*
X119318644Y-26065970D01*
X119319432Y-26130191D01*
X119288463Y-26186458D01*
X119233784Y-26220150D01*
X119193313Y-26232426D01*
X119181930Y-26237141D01*
X119017738Y-26324904D01*
X119007485Y-26331755D01*
X118863572Y-26449861D01*
X118854861Y-26458572D01*
X118736755Y-26602485D01*
X118729904Y-26612738D01*
X118642141Y-26776930D01*
X118637426Y-26788313D01*
X118602977Y-26901877D01*
X118602272Y-26913345D01*
X118613448Y-26916000D01*
X120003000Y-26916000D01*
X120066000Y-26932881D01*
X120112119Y-26979000D01*
X120129000Y-27042000D01*
X120129000Y-28161410D01*
X120132506Y-28174493D01*
X120145590Y-28178000D01*
X120221426Y-28178000D01*
X120227598Y-28177696D01*
X120366437Y-28164022D01*
X120378531Y-28161616D01*
X120556686Y-28107573D01*
X120568069Y-28102858D01*
X120732261Y-28015095D01*
X120742514Y-28008244D01*
X120886423Y-27890142D01*
X120895142Y-27881423D01*
X120925091Y-27844929D01*
X120981989Y-27805547D01*
X121051103Y-27802151D01*
X121111587Y-27835765D01*
X121784595Y-28508773D01*
X121811909Y-28549650D01*
X121821500Y-28597868D01*
X121821500Y-29171462D01*
X121802499Y-29237999D01*
X121751228Y-29284468D01*
X121683150Y-29296854D01*
X121630000Y-29291620D01*
X121623837Y-29292227D01*
X121438461Y-29310484D01*
X121438450Y-29310486D01*
X121432299Y-29311092D01*
X121426382Y-29312886D01*
X121426376Y-29312888D01*
X121248119Y-29366962D01*
X121248116Y-29366963D01*
X121242196Y-29368759D01*
X121236738Y-29371676D01*
X121236734Y-29371678D01*
X121072451Y-29459488D01*
X121072441Y-29459494D01*
X121066996Y-29462405D01*
X121063953Y-29464901D01*
X121019579Y-29483280D01*
X120970421Y-29483280D01*
X120926046Y-29464901D01*
X120923004Y-29462405D01*
X120917553Y-29459491D01*
X120917548Y-29459488D01*
X120753265Y-29371678D01*
X120747804Y-29368759D01*
X120732845Y-29364221D01*
X120563623Y-29312888D01*
X120563619Y-29312887D01*
X120557701Y-29311092D01*
X120551547Y-29310485D01*
X120551538Y-29310484D01*
X120366163Y-29292227D01*
X120360000Y-29291620D01*
X120353837Y-29292227D01*
X120168461Y-29310484D01*
X120168450Y-29310486D01*
X120162299Y-29311092D01*
X120156382Y-29312886D01*
X120156376Y-29312888D01*
X119978119Y-29366962D01*
X119978116Y-29366963D01*
X119972196Y-29368759D01*
X119966738Y-29371676D01*
X119966734Y-29371678D01*
X119802451Y-29459488D01*
X119802441Y-29459494D01*
X119796996Y-29462405D01*
X119793953Y-29464901D01*
X119749579Y-29483280D01*
X119700421Y-29483280D01*
X119656046Y-29464901D01*
X119653004Y-29462405D01*
X119647553Y-29459491D01*
X119647548Y-29459488D01*
X119483265Y-29371678D01*
X119477804Y-29368759D01*
X119462845Y-29364221D01*
X119293623Y-29312888D01*
X119293619Y-29312887D01*
X119287701Y-29311092D01*
X119281547Y-29310485D01*
X119281538Y-29310484D01*
X119096163Y-29292227D01*
X119090000Y-29291620D01*
X119083837Y-29292227D01*
X118898461Y-29310484D01*
X118898450Y-29310486D01*
X118892299Y-29311092D01*
X118886382Y-29312886D01*
X118886376Y-29312888D01*
X118708119Y-29366962D01*
X118708116Y-29366963D01*
X118702196Y-29368759D01*
X118696738Y-29371676D01*
X118696734Y-29371678D01*
X118532451Y-29459488D01*
X118532441Y-29459494D01*
X118526996Y-29462405D01*
X118523953Y-29464901D01*
X118479579Y-29483280D01*
X118430421Y-29483280D01*
X118386046Y-29464901D01*
X118383004Y-29462405D01*
X118377553Y-29459491D01*
X118377548Y-29459488D01*
X118213265Y-29371678D01*
X118207804Y-29368759D01*
X118192845Y-29364221D01*
X118023623Y-29312888D01*
X118023619Y-29312887D01*
X118017701Y-29311092D01*
X118011547Y-29310485D01*
X118011538Y-29310484D01*
X117826163Y-29292227D01*
X117820000Y-29291620D01*
X117813837Y-29292227D01*
X117628461Y-29310484D01*
X117628450Y-29310486D01*
X117622299Y-29311092D01*
X117616382Y-29312886D01*
X117616376Y-29312888D01*
X117438119Y-29366962D01*
X117438116Y-29366963D01*
X117432196Y-29368759D01*
X117426738Y-29371676D01*
X117426734Y-29371678D01*
X117262451Y-29459488D01*
X117262441Y-29459494D01*
X117256996Y-29462405D01*
X117253953Y-29464901D01*
X117209579Y-29483280D01*
X117160421Y-29483280D01*
X117116046Y-29464901D01*
X117113004Y-29462405D01*
X117107553Y-29459491D01*
X117107548Y-29459488D01*
X116943265Y-29371678D01*
X116937804Y-29368759D01*
X116922845Y-29364221D01*
X116753623Y-29312888D01*
X116753619Y-29312887D01*
X116747701Y-29311092D01*
X116741547Y-29310485D01*
X116741538Y-29310484D01*
X116550000Y-29291620D01*
X116550123Y-29290367D01*
X116500664Y-29278494D01*
X116455931Y-29240288D01*
X116433418Y-29185938D01*
X116438034Y-29127291D01*
X116468769Y-29077134D01*
X117462269Y-28083633D01*
X117470533Y-28076114D01*
X117477018Y-28072000D01*
X117523676Y-28022312D01*
X117526368Y-28019534D01*
X117546134Y-27999770D01*
X117548601Y-27996588D01*
X117556310Y-27987561D01*
X117586586Y-27955321D01*
X117596345Y-27937567D01*
X117607199Y-27921043D01*
X117619613Y-27905041D01*
X117631963Y-27876500D01*
X117637167Y-27864475D01*
X117642392Y-27853808D01*
X117647274Y-27844929D01*
X117663695Y-27815060D01*
X117668042Y-27798127D01*
X117668732Y-27795442D01*
X117675138Y-27776730D01*
X117680032Y-27765421D01*
X117683181Y-27758145D01*
X117690096Y-27714477D01*
X117692504Y-27702853D01*
X117703500Y-27660030D01*
X117703500Y-27639776D01*
X117705051Y-27620065D01*
X117706980Y-27607885D01*
X117708220Y-27600057D01*
X117704058Y-27556038D01*
X117703500Y-27544181D01*
X117703500Y-27426654D01*
X118602272Y-27426654D01*
X118602977Y-27438122D01*
X118637426Y-27551686D01*
X118642141Y-27563069D01*
X118729904Y-27727261D01*
X118736755Y-27737514D01*
X118854861Y-27881427D01*
X118863572Y-27890138D01*
X119007485Y-28008244D01*
X119017738Y-28015095D01*
X119181930Y-28102858D01*
X119193313Y-28107573D01*
X119371468Y-28161616D01*
X119383562Y-28164022D01*
X119522401Y-28177696D01*
X119528574Y-28178000D01*
X119604410Y-28178000D01*
X119617493Y-28174493D01*
X119621000Y-28161410D01*
X119621000Y-27440590D01*
X119617493Y-27427506D01*
X119604410Y-27424000D01*
X118613448Y-27424000D01*
X118602272Y-27426654D01*
X117703500Y-27426654D01*
X117703500Y-24731868D01*
X117717233Y-24674665D01*
X117755439Y-24629932D01*
X117809789Y-24607419D01*
X117868436Y-24612035D01*
G37*
G04 #@! TD.AperFunction*
G04 #@! TA.AperFunction,Conductor*
G36*
X97907371Y-20546349D02*
G01*
X97951499Y-20582274D01*
X97975321Y-20633949D01*
X97973980Y-20690836D01*
X97968471Y-20712288D01*
X97968469Y-20712298D01*
X97966500Y-20719970D01*
X97966500Y-20727899D01*
X97966500Y-20740224D01*
X97964949Y-20759935D01*
X97963019Y-20772114D01*
X97963018Y-20772121D01*
X97961780Y-20779943D01*
X97962525Y-20787826D01*
X97962525Y-20787834D01*
X97965941Y-20823961D01*
X97966500Y-20835819D01*
X97966500Y-21501771D01*
X97965972Y-21512954D01*
X97964298Y-21520447D01*
X97964547Y-21528371D01*
X97964547Y-21528373D01*
X97966438Y-21588524D01*
X97966500Y-21592483D01*
X97966500Y-21620394D01*
X97966995Y-21624312D01*
X97966997Y-21624344D01*
X97967008Y-21624426D01*
X97967937Y-21636235D01*
X97969077Y-21672507D01*
X97969078Y-21672514D01*
X97969327Y-21680427D01*
X97971537Y-21688036D01*
X97971538Y-21688038D01*
X97974978Y-21699880D01*
X97978986Y-21719231D01*
X97981526Y-21739335D01*
X97984444Y-21746707D01*
X97984445Y-21746708D01*
X97997800Y-21780439D01*
X98001645Y-21791668D01*
X98011771Y-21826524D01*
X98011773Y-21826530D01*
X98013982Y-21834131D01*
X98018014Y-21840949D01*
X98018015Y-21840951D01*
X98024293Y-21851567D01*
X98032990Y-21869320D01*
X98040448Y-21888155D01*
X98045107Y-21894568D01*
X98045108Y-21894569D01*
X98066432Y-21923919D01*
X98072948Y-21933839D01*
X98087837Y-21959014D01*
X98095458Y-21971900D01*
X98101063Y-21977505D01*
X98109778Y-21986220D01*
X98122618Y-22001253D01*
X98124905Y-22004401D01*
X98134528Y-22017645D01*
X98140635Y-22022697D01*
X98140636Y-22022698D01*
X98168598Y-22045830D01*
X98177378Y-22053820D01*
X99715809Y-23592252D01*
X99723348Y-23600535D01*
X99727462Y-23607018D01*
X99733241Y-23612444D01*
X99733242Y-23612446D01*
X99777113Y-23653643D01*
X99779955Y-23656398D01*
X99799692Y-23676135D01*
X99802822Y-23678563D01*
X99802894Y-23678619D01*
X99811902Y-23686313D01*
X99844141Y-23716586D01*
X99851089Y-23720405D01*
X99851091Y-23720407D01*
X99861888Y-23726343D01*
X99878412Y-23737197D01*
X99888156Y-23744755D01*
X99888159Y-23744757D01*
X99894421Y-23749614D01*
X99901694Y-23752761D01*
X99934997Y-23767172D01*
X99945662Y-23772397D01*
X99984402Y-23793695D01*
X100004022Y-23798732D01*
X100022714Y-23805130D01*
X100041317Y-23813181D01*
X100084987Y-23820097D01*
X100096587Y-23822498D01*
X100139432Y-23833500D01*
X100159686Y-23833500D01*
X100179396Y-23835050D01*
X100199405Y-23838220D01*
X100243423Y-23834058D01*
X100255281Y-23833500D01*
X100352100Y-23833500D01*
X100415560Y-23850648D01*
X100461747Y-23897423D01*
X100478089Y-23961094D01*
X100476138Y-24115271D01*
X100416856Y-28798542D01*
X100400836Y-28858449D01*
X100358179Y-28903459D01*
X100299218Y-28922670D01*
X100238233Y-28911427D01*
X100189998Y-28872456D01*
X100163261Y-28836739D01*
X100086570Y-28779329D01*
X100085228Y-28778324D01*
X100048964Y-28735618D01*
X100034799Y-28681414D01*
X100033562Y-28642031D01*
X100033500Y-28638075D01*
X100033500Y-28614100D01*
X100033500Y-28610144D01*
X100032993Y-28606134D01*
X100032061Y-28594294D01*
X100030673Y-28550110D01*
X100025020Y-28530656D01*
X100021012Y-28511297D01*
X100019585Y-28500000D01*
X100018474Y-28491203D01*
X100002197Y-28450092D01*
X99998358Y-28438882D01*
X99986018Y-28396406D01*
X99975703Y-28378966D01*
X99967010Y-28361221D01*
X99959552Y-28342383D01*
X99933564Y-28306614D01*
X99927046Y-28296690D01*
X99919713Y-28284290D01*
X99904542Y-28258637D01*
X99890217Y-28244312D01*
X99877376Y-28229277D01*
X99870134Y-28219309D01*
X99870131Y-28219306D01*
X99865472Y-28212893D01*
X99831405Y-28184710D01*
X99822626Y-28176721D01*
X99537904Y-27891999D01*
X99510590Y-27851122D01*
X99500999Y-27802904D01*
X99500999Y-27513099D01*
X99500999Y-27513096D01*
X99500999Y-27510236D01*
X99494513Y-27438851D01*
X99443327Y-27274587D01*
X99354316Y-27127345D01*
X99258565Y-27031594D01*
X99225954Y-26975111D01*
X99225954Y-26909889D01*
X99258566Y-26853405D01*
X99299147Y-26812824D01*
X99354316Y-26757655D01*
X99443327Y-26610413D01*
X99494513Y-26446149D01*
X99501000Y-26374765D01*
X99500999Y-25860236D01*
X99494513Y-25788851D01*
X99443327Y-25624587D01*
X99354316Y-25477345D01*
X99232655Y-25355684D01*
X99217908Y-25346769D01*
X99091936Y-25270616D01*
X99091934Y-25270615D01*
X99085413Y-25266673D01*
X99007292Y-25242330D01*
X98927513Y-25217470D01*
X98927512Y-25217469D01*
X98921149Y-25215487D01*
X98914516Y-25214884D01*
X98914510Y-25214883D01*
X98852614Y-25209258D01*
X98852594Y-25209257D01*
X98849765Y-25209000D01*
X98846903Y-25209000D01*
X98188099Y-25209000D01*
X98188077Y-25209000D01*
X98185236Y-25209001D01*
X98182387Y-25209259D01*
X98182383Y-25209260D01*
X98120488Y-25214883D01*
X98120479Y-25214884D01*
X98113851Y-25215487D01*
X98107493Y-25217468D01*
X98107489Y-25217469D01*
X97956864Y-25264405D01*
X97956860Y-25264406D01*
X97949587Y-25266673D01*
X97943068Y-25270613D01*
X97943063Y-25270616D01*
X97808868Y-25351740D01*
X97808864Y-25351743D01*
X97802345Y-25355684D01*
X97796954Y-25361074D01*
X97795208Y-25362443D01*
X97745185Y-25386180D01*
X97689815Y-25386180D01*
X97639792Y-25362443D01*
X97638046Y-25361075D01*
X97632655Y-25355684D01*
X97617908Y-25346769D01*
X97491936Y-25270616D01*
X97491934Y-25270615D01*
X97485413Y-25266673D01*
X97407292Y-25242330D01*
X97327513Y-25217470D01*
X97327512Y-25217469D01*
X97321149Y-25215487D01*
X97314516Y-25214884D01*
X97314510Y-25214883D01*
X97252614Y-25209258D01*
X97252594Y-25209257D01*
X97249765Y-25209000D01*
X97246903Y-25209000D01*
X96588099Y-25209000D01*
X96588077Y-25209000D01*
X96585236Y-25209001D01*
X96582387Y-25209259D01*
X96582383Y-25209260D01*
X96520488Y-25214883D01*
X96520479Y-25214884D01*
X96513851Y-25215487D01*
X96507493Y-25217468D01*
X96507489Y-25217469D01*
X96356864Y-25264405D01*
X96356860Y-25264406D01*
X96349587Y-25266673D01*
X96343068Y-25270613D01*
X96343063Y-25270616D01*
X96208868Y-25351740D01*
X96208864Y-25351743D01*
X96202345Y-25355684D01*
X96196954Y-25361074D01*
X96195208Y-25362443D01*
X96145185Y-25386180D01*
X96089815Y-25386180D01*
X96039792Y-25362443D01*
X96038046Y-25361075D01*
X96032655Y-25355684D01*
X96017908Y-25346769D01*
X95890621Y-25269821D01*
X95849435Y-25229530D01*
X95830491Y-25175116D01*
X95837750Y-25117961D01*
X95857989Y-25063701D01*
X95864500Y-25003138D01*
X95864500Y-23051662D01*
X95857989Y-22991099D01*
X95806889Y-22854096D01*
X95786949Y-22827460D01*
X95724659Y-22744250D01*
X95719261Y-22737039D01*
X95712049Y-22731640D01*
X95609417Y-22654810D01*
X95609414Y-22654808D01*
X95602204Y-22649411D01*
X95593765Y-22646263D01*
X95593757Y-22646259D01*
X95559087Y-22633328D01*
X95507895Y-22597785D01*
X95479999Y-22542056D01*
X95482224Y-22479775D01*
X95514023Y-22426180D01*
X97369799Y-20570405D01*
X97410676Y-20543091D01*
X97458894Y-20533500D01*
X97851939Y-20533500D01*
X97907371Y-20546349D01*
G37*
G04 #@! TD.AperFunction*
G04 #@! TA.AperFunction,Conductor*
G36*
X123037021Y-17216876D02*
G01*
X123083139Y-17262983D01*
X123100029Y-17325968D01*
X123100940Y-21187236D01*
X123102483Y-27728946D01*
X123082880Y-27796472D01*
X123030144Y-27842978D01*
X122960697Y-27853983D01*
X122896167Y-27826060D01*
X122886405Y-27817984D01*
X122877626Y-27809995D01*
X117744570Y-22676939D01*
X117719939Y-22642088D01*
X117708355Y-22601014D01*
X117708016Y-22597785D01*
X117693542Y-22460072D01*
X117646594Y-22315581D01*
X117636569Y-22284728D01*
X117636568Y-22284726D01*
X117634527Y-22278444D01*
X117539040Y-22113056D01*
X117411253Y-21971134D01*
X117405911Y-21967253D01*
X117405908Y-21967250D01*
X117305871Y-21894569D01*
X117256752Y-21858882D01*
X117082288Y-21781206D01*
X117075835Y-21779834D01*
X117075831Y-21779833D01*
X116901943Y-21742872D01*
X116901940Y-21742871D01*
X116895487Y-21741500D01*
X116704513Y-21741500D01*
X116698060Y-21742871D01*
X116698056Y-21742872D01*
X116524168Y-21779833D01*
X116524161Y-21779835D01*
X116517712Y-21781206D01*
X116511682Y-21783890D01*
X116511681Y-21783891D01*
X116349278Y-21856197D01*
X116349275Y-21856198D01*
X116343248Y-21858882D01*
X116337907Y-21862762D01*
X116337906Y-21862763D01*
X116194091Y-21967250D01*
X116194083Y-21967256D01*
X116188747Y-21971134D01*
X116184330Y-21976039D01*
X116184325Y-21976044D01*
X116121490Y-22045830D01*
X116060960Y-22113056D01*
X116057661Y-22118769D01*
X116057658Y-22118774D01*
X115968777Y-22272721D01*
X115965473Y-22278444D01*
X115963434Y-22284718D01*
X115963430Y-22284728D01*
X115908497Y-22453794D01*
X115908495Y-22453801D01*
X115906458Y-22460072D01*
X115886496Y-22650000D01*
X115887186Y-22656565D01*
X115905147Y-22827460D01*
X115906458Y-22839928D01*
X115908495Y-22846200D01*
X115908497Y-22846205D01*
X115961002Y-23007796D01*
X115964416Y-23072928D01*
X115934806Y-23131041D01*
X115860960Y-23213056D01*
X115857661Y-23218769D01*
X115857658Y-23218774D01*
X115797195Y-23323500D01*
X115765473Y-23378444D01*
X115763434Y-23384718D01*
X115763430Y-23384728D01*
X115708497Y-23553794D01*
X115708495Y-23553801D01*
X115706458Y-23560072D01*
X115705768Y-23566633D01*
X115705768Y-23566635D01*
X115696623Y-23653643D01*
X115686496Y-23750000D01*
X115687186Y-23756565D01*
X115701357Y-23891400D01*
X115706458Y-23939928D01*
X115708495Y-23946200D01*
X115708497Y-23946205D01*
X115763430Y-24115271D01*
X115763433Y-24115278D01*
X115765473Y-24121556D01*
X115860960Y-24286944D01*
X115988747Y-24428866D01*
X116143248Y-24541118D01*
X116317712Y-24618794D01*
X116330857Y-24621588D01*
X116336694Y-24622829D01*
X116388072Y-24646786D01*
X116423748Y-24690841D01*
X116436500Y-24746076D01*
X116436500Y-25047653D01*
X116416767Y-25115353D01*
X116363750Y-25161848D01*
X116294054Y-25172574D01*
X116273862Y-25169916D01*
X116236804Y-25165037D01*
X116236793Y-25165036D01*
X116232720Y-25164500D01*
X116157280Y-25164500D01*
X116153194Y-25165037D01*
X116153192Y-25165038D01*
X116052952Y-25178234D01*
X116052944Y-25178236D01*
X116044764Y-25179313D01*
X116037137Y-25182472D01*
X116037134Y-25182473D01*
X115912396Y-25234141D01*
X115912390Y-25234144D01*
X115904767Y-25237302D01*
X115898218Y-25242326D01*
X115898213Y-25242330D01*
X115791099Y-25324522D01*
X115791094Y-25324526D01*
X115784549Y-25329549D01*
X115779526Y-25336094D01*
X115779522Y-25336099D01*
X115697330Y-25443213D01*
X115697326Y-25443218D01*
X115692302Y-25449767D01*
X115689144Y-25457390D01*
X115689141Y-25457396D01*
X115637473Y-25582134D01*
X115634313Y-25589764D01*
X115633236Y-25597944D01*
X115633234Y-25597952D01*
X115623633Y-25670884D01*
X115614534Y-25740000D01*
X115615612Y-25748188D01*
X115633234Y-25882047D01*
X115633235Y-25882053D01*
X115634313Y-25890236D01*
X115637472Y-25897864D01*
X115637473Y-25897865D01*
X115674718Y-25987782D01*
X115683702Y-26048350D01*
X115663074Y-26106002D01*
X115617705Y-26147122D01*
X115558309Y-26162000D01*
X115098574Y-26162000D01*
X115092401Y-26162303D01*
X114953562Y-26175977D01*
X114941468Y-26178383D01*
X114763313Y-26232426D01*
X114751930Y-26237141D01*
X114587738Y-26324904D01*
X114577485Y-26331755D01*
X114433572Y-26449861D01*
X114424861Y-26458572D01*
X114306755Y-26602485D01*
X114299904Y-26612738D01*
X114212141Y-26776930D01*
X114207427Y-26788312D01*
X114203686Y-26800644D01*
X114167955Y-26857219D01*
X114108295Y-26887522D01*
X114053583Y-26883821D01*
X114053042Y-26886194D01*
X114046144Y-26884619D01*
X114039467Y-26882283D01*
X114032440Y-26881491D01*
X114032439Y-26881491D01*
X114000909Y-26877938D01*
X113920391Y-26868866D01*
X113863522Y-26847765D01*
X113823102Y-26802535D01*
X113808500Y-26743659D01*
X113808500Y-26284500D01*
X113825381Y-26221500D01*
X113871500Y-26175381D01*
X113934500Y-26158500D01*
X113988884Y-26158500D01*
X113995487Y-26158500D01*
X114182288Y-26118794D01*
X114356752Y-26041118D01*
X114511253Y-25928866D01*
X114639040Y-25786944D01*
X114734527Y-25621556D01*
X114793542Y-25439928D01*
X114813504Y-25250000D01*
X114793542Y-25060072D01*
X114734527Y-24878444D01*
X114675380Y-24776000D01*
X114658500Y-24713001D01*
X114658500Y-20924782D01*
X114666870Y-20879625D01*
X114686434Y-20847700D01*
X114685739Y-20847195D01*
X114689619Y-20841853D01*
X114694040Y-20836944D01*
X114789527Y-20671556D01*
X114848542Y-20489928D01*
X114868504Y-20300000D01*
X114848542Y-20110072D01*
X114789527Y-19928444D01*
X114694040Y-19763056D01*
X114600458Y-19659123D01*
X114570001Y-19596641D01*
X114577312Y-19527513D01*
X114620169Y-19472782D01*
X114685526Y-19449107D01*
X114745585Y-19461996D01*
X114746210Y-19460489D01*
X114763313Y-19467573D01*
X114941468Y-19521616D01*
X114953562Y-19524022D01*
X115092401Y-19537696D01*
X115098574Y-19538000D01*
X115558309Y-19538000D01*
X115617705Y-19552878D01*
X115663074Y-19593998D01*
X115683702Y-19651650D01*
X115674718Y-19712218D01*
X115638557Y-19799519D01*
X115634313Y-19809764D01*
X115633236Y-19817944D01*
X115633234Y-19817952D01*
X115619442Y-19922721D01*
X115614534Y-19960000D01*
X115615612Y-19968188D01*
X115633234Y-20102047D01*
X115633235Y-20102053D01*
X115634313Y-20110236D01*
X115637472Y-20117864D01*
X115637473Y-20117865D01*
X115689141Y-20242603D01*
X115689142Y-20242606D01*
X115692302Y-20250233D01*
X115697329Y-20256784D01*
X115697330Y-20256786D01*
X115730760Y-20300352D01*
X115784549Y-20370451D01*
X115904767Y-20462698D01*
X116044764Y-20520687D01*
X116157280Y-20535500D01*
X116228598Y-20535500D01*
X116232720Y-20535500D01*
X116345236Y-20520687D01*
X116485233Y-20462698D01*
X116605451Y-20370451D01*
X116697698Y-20250233D01*
X116755687Y-20110236D01*
X116775466Y-19960000D01*
X116755687Y-19809764D01*
X116697698Y-19669767D01*
X116658171Y-19618255D01*
X116635196Y-19569159D01*
X116634974Y-19514952D01*
X116657547Y-19465668D01*
X116698738Y-19430430D01*
X116802261Y-19375095D01*
X116812514Y-19368244D01*
X116956427Y-19250138D01*
X116965138Y-19241427D01*
X117083244Y-19097514D01*
X117090095Y-19087261D01*
X117177858Y-18923069D01*
X117182573Y-18911686D01*
X117217022Y-18798122D01*
X117217727Y-18786654D01*
X118602272Y-18786654D01*
X118602977Y-18798122D01*
X118637426Y-18911686D01*
X118642141Y-18923069D01*
X118729904Y-19087261D01*
X118736755Y-19097514D01*
X118854861Y-19241427D01*
X118863572Y-19250138D01*
X119007485Y-19368244D01*
X119017738Y-19375095D01*
X119181930Y-19462858D01*
X119193313Y-19467573D01*
X119371468Y-19521616D01*
X119383562Y-19524022D01*
X119522401Y-19537696D01*
X119528574Y-19538000D01*
X119604410Y-19538000D01*
X119617493Y-19534493D01*
X119621000Y-19521410D01*
X120129000Y-19521410D01*
X120132506Y-19534493D01*
X120145590Y-19538000D01*
X120221426Y-19538000D01*
X120227598Y-19537696D01*
X120366437Y-19524022D01*
X120378531Y-19521616D01*
X120556686Y-19467573D01*
X120568069Y-19462858D01*
X120732261Y-19375095D01*
X120742514Y-19368244D01*
X120886427Y-19250138D01*
X120895138Y-19241427D01*
X121013244Y-19097514D01*
X121020095Y-19087261D01*
X121107858Y-18923069D01*
X121112573Y-18911686D01*
X121147022Y-18798122D01*
X121147727Y-18786654D01*
X121136552Y-18784000D01*
X120145590Y-18784000D01*
X120132506Y-18787506D01*
X120129000Y-18800590D01*
X120129000Y-19521410D01*
X119621000Y-19521410D01*
X119621000Y-18800590D01*
X119617493Y-18787506D01*
X119604410Y-18784000D01*
X118613448Y-18784000D01*
X118602272Y-18786654D01*
X117217727Y-18786654D01*
X117206552Y-18784000D01*
X114183448Y-18784000D01*
X114172272Y-18786654D01*
X114172977Y-18798122D01*
X114207426Y-18911686D01*
X114212141Y-18923069D01*
X114299904Y-19087261D01*
X114306755Y-19097514D01*
X114424861Y-19241427D01*
X114436766Y-19253332D01*
X114470342Y-19313655D01*
X114467090Y-19382616D01*
X114427987Y-19439512D01*
X114364771Y-19467261D01*
X114296422Y-19457534D01*
X114277494Y-19449107D01*
X114237288Y-19431206D01*
X114230835Y-19429834D01*
X114230831Y-19429833D01*
X114056943Y-19392872D01*
X114056940Y-19392871D01*
X114050487Y-19391500D01*
X113934500Y-19391500D01*
X113871500Y-19374619D01*
X113825381Y-19328500D01*
X113808500Y-19265500D01*
X113808500Y-18503763D01*
X113809027Y-18492579D01*
X113810701Y-18485091D01*
X113808561Y-18417032D01*
X113808500Y-18413075D01*
X113808500Y-18389100D01*
X113808500Y-18385144D01*
X113807993Y-18381134D01*
X113807061Y-18369294D01*
X113806706Y-18357989D01*
X113805673Y-18325110D01*
X113800020Y-18305656D01*
X113796012Y-18286297D01*
X113794376Y-18273345D01*
X114172272Y-18273345D01*
X114183448Y-18276000D01*
X115424410Y-18276000D01*
X115437493Y-18272493D01*
X115441000Y-18259410D01*
X115949000Y-18259410D01*
X115952506Y-18272493D01*
X115965590Y-18276000D01*
X117206552Y-18276000D01*
X117217727Y-18273345D01*
X118602272Y-18273345D01*
X118613448Y-18276000D01*
X119604410Y-18276000D01*
X119617493Y-18272493D01*
X119621000Y-18259410D01*
X120129000Y-18259410D01*
X120132506Y-18272493D01*
X120145590Y-18276000D01*
X121136552Y-18276000D01*
X121147727Y-18273345D01*
X121147022Y-18261877D01*
X121112573Y-18148313D01*
X121107858Y-18136930D01*
X121020095Y-17972738D01*
X121013244Y-17962485D01*
X120895138Y-17818572D01*
X120886427Y-17809861D01*
X120742514Y-17691755D01*
X120732261Y-17684904D01*
X120568069Y-17597141D01*
X120556686Y-17592426D01*
X120378531Y-17538383D01*
X120366437Y-17535977D01*
X120227598Y-17522303D01*
X120221426Y-17522000D01*
X120145590Y-17522000D01*
X120132506Y-17525506D01*
X120129000Y-17538590D01*
X120129000Y-18259410D01*
X119621000Y-18259410D01*
X119621000Y-17538590D01*
X119617493Y-17525506D01*
X119604410Y-17522000D01*
X119528574Y-17522000D01*
X119522401Y-17522303D01*
X119383562Y-17535977D01*
X119371468Y-17538383D01*
X119193313Y-17592426D01*
X119181930Y-17597141D01*
X119017738Y-17684904D01*
X119007485Y-17691755D01*
X118863572Y-17809861D01*
X118854861Y-17818572D01*
X118736755Y-17962485D01*
X118729904Y-17972738D01*
X118642141Y-18136930D01*
X118637426Y-18148313D01*
X118602977Y-18261877D01*
X118602272Y-18273345D01*
X117217727Y-18273345D01*
X117217022Y-18261877D01*
X117182573Y-18148313D01*
X117177858Y-18136930D01*
X117090095Y-17972738D01*
X117083244Y-17962485D01*
X116965138Y-17818572D01*
X116956427Y-17809861D01*
X116812514Y-17691755D01*
X116802261Y-17684904D01*
X116638069Y-17597141D01*
X116626686Y-17592426D01*
X116448531Y-17538383D01*
X116436437Y-17535977D01*
X116297598Y-17522303D01*
X116291426Y-17522000D01*
X115965590Y-17522000D01*
X115952506Y-17525506D01*
X115949000Y-17538590D01*
X115949000Y-18259410D01*
X115441000Y-18259410D01*
X115441000Y-17538590D01*
X115437493Y-17525506D01*
X115424410Y-17522000D01*
X115098574Y-17522000D01*
X115092401Y-17522303D01*
X114953562Y-17535977D01*
X114941468Y-17538383D01*
X114763313Y-17592426D01*
X114751930Y-17597141D01*
X114587738Y-17684904D01*
X114577485Y-17691755D01*
X114433572Y-17809861D01*
X114424861Y-17818572D01*
X114306755Y-17962485D01*
X114299904Y-17972738D01*
X114212141Y-18136930D01*
X114207426Y-18148313D01*
X114172977Y-18261877D01*
X114172272Y-18273345D01*
X113794376Y-18273345D01*
X113793474Y-18266203D01*
X113777197Y-18225092D01*
X113773358Y-18213882D01*
X113761018Y-18171406D01*
X113750703Y-18153966D01*
X113742010Y-18136221D01*
X113734552Y-18117383D01*
X113719275Y-18096357D01*
X113708564Y-18081614D01*
X113702046Y-18071690D01*
X113683578Y-18040462D01*
X113679542Y-18033637D01*
X113665218Y-18019313D01*
X113652376Y-18004277D01*
X113645134Y-17994309D01*
X113645131Y-17994306D01*
X113640472Y-17987893D01*
X113634363Y-17982839D01*
X113628938Y-17977062D01*
X113629525Y-17976510D01*
X113609090Y-17952834D01*
X113594041Y-17914825D01*
X113593542Y-17910072D01*
X113534527Y-17728444D01*
X113439040Y-17563056D01*
X113311253Y-17421134D01*
X113307937Y-17418725D01*
X113274770Y-17369919D01*
X113267862Y-17310207D01*
X113289404Y-17254090D01*
X113334493Y-17214338D01*
X113392868Y-17200000D01*
X122974030Y-17200000D01*
X123037021Y-17216876D01*
G37*
G04 #@! TD.AperFunction*
G04 #@! TA.AperFunction,Conductor*
G36*
X107834190Y-22311410D02*
G01*
X107837696Y-22324493D01*
X107850780Y-22328000D01*
X107875829Y-22328000D01*
X107882218Y-22327674D01*
X107972588Y-22318442D01*
X107985952Y-22315581D01*
X108135110Y-22266154D01*
X108148324Y-22259993D01*
X108234042Y-22207121D01*
X108297989Y-22188380D01*
X108362552Y-22204876D01*
X108409673Y-22251995D01*
X108426171Y-22316557D01*
X108407432Y-22380505D01*
X108385008Y-22416860D01*
X108378845Y-22430079D01*
X108329418Y-22579237D01*
X108326557Y-22592601D01*
X108317325Y-22682971D01*
X108317000Y-22689361D01*
X108317000Y-22689410D01*
X108320506Y-22702493D01*
X108333590Y-22706000D01*
X108500000Y-22706000D01*
X108500000Y-23214000D01*
X108333590Y-23214000D01*
X108320506Y-23217506D01*
X108317000Y-23230590D01*
X108317000Y-23230639D01*
X108317325Y-23237028D01*
X108318415Y-23247694D01*
X108306208Y-23315954D01*
X108259733Y-23367419D01*
X108193067Y-23386500D01*
X107239500Y-23386500D01*
X107176500Y-23369619D01*
X107130381Y-23323500D01*
X107113500Y-23260500D01*
X107113500Y-22450381D01*
X107132581Y-22383715D01*
X107184046Y-22337240D01*
X107252307Y-22325034D01*
X107278144Y-22327673D01*
X107284551Y-22328000D01*
X107309600Y-22328000D01*
X107322683Y-22324493D01*
X107326190Y-22311410D01*
X107326190Y-22100000D01*
X107834190Y-22100000D01*
X107834190Y-22311410D01*
G37*
G04 #@! TD.AperFunction*
G04 #@! TA.AperFunction,Conductor*
G36*
X100259934Y-20535050D02*
G01*
X100279943Y-20538220D01*
X100287835Y-20537473D01*
X100287837Y-20537474D01*
X100296499Y-20536655D01*
X100357184Y-20545939D01*
X100406279Y-20582798D01*
X100432129Y-20638482D01*
X100428596Y-20699772D01*
X100396519Y-20752118D01*
X100343514Y-20783092D01*
X100225017Y-20817519D01*
X100225015Y-20817519D01*
X100217404Y-20819731D01*
X100210587Y-20823762D01*
X100210579Y-20823766D01*
X100163646Y-20851522D01*
X100099509Y-20869067D01*
X100035371Y-20851521D01*
X99989222Y-20824229D01*
X99974782Y-20817981D01*
X99845762Y-20780497D01*
X99794182Y-20750897D01*
X99761924Y-20700937D01*
X99756172Y-20641746D01*
X99778209Y-20586511D01*
X99823125Y-20547534D01*
X99880915Y-20533500D01*
X99919970Y-20533500D01*
X100039856Y-20533500D01*
X100219970Y-20533500D01*
X100240224Y-20533500D01*
X100259934Y-20535050D01*
G37*
G04 #@! TD.AperFunction*
G04 #@! TA.AperFunction,Conductor*
G36*
X101078128Y-18387290D02*
G01*
X101112810Y-18440177D01*
X101117426Y-18503253D01*
X101114363Y-18520023D01*
X101113686Y-18528626D01*
X101116392Y-18542233D01*
X101129748Y-18546000D01*
X102005500Y-18546000D01*
X102068500Y-18562881D01*
X102114619Y-18609000D01*
X102131500Y-18672000D01*
X102131501Y-18928000D01*
X102114620Y-18991000D01*
X102068501Y-19037119D01*
X102005501Y-19054000D01*
X101129748Y-19054000D01*
X101114886Y-19058191D01*
X101098710Y-19075690D01*
X101091218Y-19090465D01*
X101033521Y-19126294D01*
X101028016Y-19127893D01*
X101028007Y-19127896D01*
X101020403Y-19130106D01*
X101013590Y-19134134D01*
X101013581Y-19134139D01*
X100886191Y-19209478D01*
X100886187Y-19209480D01*
X100879371Y-19213512D01*
X100873769Y-19219113D01*
X100873765Y-19219117D01*
X100863288Y-19229595D01*
X100822411Y-19256909D01*
X100774193Y-19266500D01*
X100614595Y-19266500D01*
X100566376Y-19256909D01*
X100525499Y-19229595D01*
X100470404Y-19174499D01*
X100443091Y-19133622D01*
X100433500Y-19085404D01*
X100433500Y-18914595D01*
X100443091Y-18866377D01*
X100470404Y-18825500D01*
X100686904Y-18609000D01*
X100904383Y-18391520D01*
X100958893Y-18359457D01*
X101022119Y-18357917D01*
X101078128Y-18387290D01*
G37*
G04 #@! TD.AperFunction*
G04 #@! TA.AperFunction,Conductor*
G36*
X112065507Y-17214338D02*
G01*
X112110596Y-17254090D01*
X112132138Y-17310207D01*
X112125230Y-17369919D01*
X112092062Y-17418725D01*
X112088747Y-17421134D01*
X112084325Y-17426044D01*
X112084325Y-17426045D01*
X111983176Y-17538383D01*
X111960960Y-17563056D01*
X111957661Y-17568769D01*
X111957658Y-17568774D01*
X111890611Y-17684904D01*
X111865473Y-17728444D01*
X111863434Y-17734718D01*
X111863430Y-17734728D01*
X111808497Y-17903794D01*
X111808495Y-17903801D01*
X111806458Y-17910072D01*
X111805768Y-17916633D01*
X111805768Y-17916635D01*
X111789471Y-18071690D01*
X111786496Y-18100000D01*
X111787186Y-18106565D01*
X111804625Y-18272493D01*
X111806458Y-18289928D01*
X111808495Y-18296200D01*
X111808497Y-18296205D01*
X111849229Y-18421564D01*
X111853845Y-18480211D01*
X111831332Y-18534561D01*
X111786599Y-18572767D01*
X111729396Y-18586500D01*
X107294785Y-18586500D01*
X107246567Y-18576909D01*
X107205690Y-18549595D01*
X106071190Y-17415095D01*
X106040452Y-17364936D01*
X106035836Y-17306289D01*
X106058349Y-17251939D01*
X106103082Y-17213733D01*
X106160285Y-17200000D01*
X112007132Y-17200000D01*
X112065507Y-17214338D01*
G37*
G04 #@! TD.AperFunction*
G04 #@! TA.AperFunction,Conductor*
G36*
X105438000Y-18216613D02*
G01*
X105483387Y-18262000D01*
X105500000Y-18324000D01*
X105500000Y-18998584D01*
X105489499Y-19048523D01*
X105459776Y-19090004D01*
X105415864Y-19116002D01*
X105412738Y-19117062D01*
X105408812Y-19118115D01*
X105405058Y-19119669D01*
X105405049Y-19119673D01*
X105366760Y-19135533D01*
X105366752Y-19135537D01*
X105359250Y-19138645D01*
X105352804Y-19143591D01*
X105352801Y-19143593D01*
X105319921Y-19168823D01*
X105319914Y-19168828D01*
X105316690Y-19171303D01*
X105313817Y-19174175D01*
X105313809Y-19174183D01*
X105274183Y-19213809D01*
X105274175Y-19213817D01*
X105271303Y-19216690D01*
X105268828Y-19219914D01*
X105268823Y-19219921D01*
X105243593Y-19252801D01*
X105243591Y-19252804D01*
X105238645Y-19259250D01*
X105235537Y-19266752D01*
X105235533Y-19266760D01*
X105219669Y-19305058D01*
X105219664Y-19305071D01*
X105218115Y-19308812D01*
X105217067Y-19312722D01*
X105217065Y-19312729D01*
X105202550Y-19366898D01*
X105202547Y-19366909D01*
X105201502Y-19370812D01*
X105200973Y-19374823D01*
X105200972Y-19374833D01*
X105195029Y-19419977D01*
X105195028Y-19419986D01*
X105194500Y-19424000D01*
X105194500Y-20576000D01*
X105195028Y-20580014D01*
X105195029Y-20580022D01*
X105200972Y-20625166D01*
X105200973Y-20625173D01*
X105201502Y-20629188D01*
X105218115Y-20691188D01*
X105219666Y-20694932D01*
X105219669Y-20694941D01*
X105234564Y-20730898D01*
X105243072Y-20793525D01*
X105225194Y-20838236D01*
X105226166Y-20838677D01*
X105220701Y-20850736D01*
X105212817Y-20861368D01*
X105210023Y-20874303D01*
X105210022Y-20874306D01*
X105195893Y-20939725D01*
X105195892Y-20939731D01*
X105194500Y-20946178D01*
X105194500Y-22100000D01*
X105210143Y-22178641D01*
X105216927Y-22188794D01*
X105216928Y-22188796D01*
X105243725Y-22228900D01*
X105254690Y-22245310D01*
X105321359Y-22289857D01*
X105400000Y-22305500D01*
X106476000Y-22305500D01*
X106538000Y-22322113D01*
X106583387Y-22367500D01*
X106600000Y-22429500D01*
X106600000Y-23676000D01*
X106583387Y-23738000D01*
X106538000Y-23783387D01*
X106476000Y-23800000D01*
X104824000Y-23800000D01*
X104762000Y-23783387D01*
X104716613Y-23738000D01*
X104700000Y-23676000D01*
X104700000Y-22962300D01*
X104707947Y-22918621D01*
X104728981Y-22883528D01*
X104728697Y-22883310D01*
X104728697Y-22883309D01*
X104761355Y-22840750D01*
X104781885Y-22791188D01*
X104798498Y-22729188D01*
X104805500Y-22676000D01*
X104805500Y-21335356D01*
X104797601Y-21278928D01*
X104778902Y-21213447D01*
X104755811Y-21161356D01*
X104728791Y-21128976D01*
X104707421Y-21091786D01*
X104700000Y-21049534D01*
X104700000Y-19904622D01*
X104709439Y-19857169D01*
X104725045Y-19819493D01*
X104745683Y-19662731D01*
X104725045Y-19505969D01*
X104709938Y-19469499D01*
X104700500Y-19422047D01*
X104700500Y-18777297D01*
X104701561Y-18761112D01*
X104704621Y-18737869D01*
X104705682Y-18729810D01*
X104685044Y-18573048D01*
X104624536Y-18426969D01*
X104619589Y-18420522D01*
X104616613Y-18415367D01*
X104600000Y-18353367D01*
X104600000Y-18324000D01*
X104616613Y-18262000D01*
X104662000Y-18216613D01*
X104724000Y-18200000D01*
X105376000Y-18200000D01*
X105438000Y-18216613D01*
G37*
G04 #@! TD.AperFunction*
G04 #@! TA.AperFunction,Conductor*
G36*
X109732500Y-20722113D02*
G01*
X109777887Y-20767500D01*
X109794500Y-20829500D01*
X109794500Y-23570500D01*
X109777887Y-23632500D01*
X109732500Y-23677887D01*
X109670500Y-23694500D01*
X108500000Y-23694500D01*
X108500000Y-22100000D01*
X105400000Y-22100000D01*
X105400000Y-20946178D01*
X105437095Y-20913646D01*
X105505685Y-20903089D01*
X105508637Y-20903477D01*
X105524000Y-20905500D01*
X105871945Y-20905500D01*
X105876000Y-20905500D01*
X105929188Y-20898498D01*
X105991188Y-20881885D01*
X106040750Y-20861355D01*
X106083310Y-20828697D01*
X106112007Y-20800000D01*
X106200000Y-20800000D01*
X106200000Y-20717054D01*
X106249553Y-20705500D01*
X109670500Y-20705500D01*
X109732500Y-20722113D01*
G37*
G04 #@! TD.AperFunction*
G04 #@! TA.AperFunction,Conductor*
G36*
X112636914Y-19116866D02*
G01*
X112682366Y-19162875D01*
X112698469Y-19225512D01*
X112643063Y-23768823D01*
X112605950Y-26812155D01*
X112601494Y-27177512D01*
X112584383Y-27238871D01*
X112539066Y-27283638D01*
X112477503Y-27300000D01*
X110329500Y-27300000D01*
X110267500Y-27283387D01*
X110222113Y-27238000D01*
X110205500Y-27176000D01*
X110205500Y-26852319D01*
X110205500Y-26851285D01*
X110205060Y-26837842D01*
X110203999Y-26821657D01*
X110203063Y-26812154D01*
X110203064Y-26787841D01*
X110203895Y-26779398D01*
X110203895Y-26779396D01*
X110203999Y-26778342D01*
X110205060Y-26762158D01*
X110205500Y-26748715D01*
X110205500Y-25951285D01*
X110205060Y-25937842D01*
X110203999Y-25921657D01*
X110203063Y-25912154D01*
X110203064Y-25887841D01*
X110203895Y-25879398D01*
X110203895Y-25879396D01*
X110203999Y-25878342D01*
X110205060Y-25862158D01*
X110205500Y-25848715D01*
X110205500Y-24951285D01*
X110205060Y-24937842D01*
X110203999Y-24921657D01*
X110203063Y-24912154D01*
X110203064Y-24887841D01*
X110203895Y-24879398D01*
X110203895Y-24879396D01*
X110203999Y-24878342D01*
X110205060Y-24862158D01*
X110205500Y-24848715D01*
X110205500Y-24024000D01*
X110198498Y-23970812D01*
X110181885Y-23908812D01*
X110161355Y-23859250D01*
X110128697Y-23816690D01*
X110083310Y-23771303D01*
X110048512Y-23744601D01*
X110012788Y-23701070D01*
X110000000Y-23646227D01*
X110000000Y-20516326D01*
X110000000Y-20500000D01*
X109983674Y-20500000D01*
X106016326Y-20500000D01*
X106000000Y-20500000D01*
X106000000Y-20516326D01*
X106000000Y-20576000D01*
X105983387Y-20638000D01*
X105938000Y-20683387D01*
X105876000Y-20700000D01*
X105524000Y-20700000D01*
X105462000Y-20683387D01*
X105416613Y-20638000D01*
X105400000Y-20576000D01*
X105400000Y-19424000D01*
X105416613Y-19362000D01*
X105462000Y-19316613D01*
X105524000Y-19300000D01*
X106182728Y-19300000D01*
X106200000Y-19300000D01*
X106265727Y-19168545D01*
X106311445Y-19118519D01*
X106376636Y-19100000D01*
X112574478Y-19100000D01*
X112636914Y-19116866D01*
G37*
G04 #@! TD.AperFunction*
G04 #@! TA.AperFunction,Conductor*
G36*
X104530842Y-21224143D02*
G01*
X104581301Y-21269875D01*
X104600000Y-21335356D01*
X104600000Y-22676000D01*
X104583387Y-22738000D01*
X104538000Y-22783387D01*
X104476000Y-22800000D01*
X102700000Y-22800000D01*
X102700000Y-25900000D01*
X102716326Y-25900000D01*
X106883674Y-25900000D01*
X106900000Y-25900000D01*
X106900000Y-24024000D01*
X106916613Y-23962000D01*
X106962000Y-23916613D01*
X107024000Y-23900000D01*
X109876000Y-23900000D01*
X109938000Y-23916613D01*
X109983387Y-23962000D01*
X110000000Y-24024000D01*
X110000000Y-24848715D01*
X109998939Y-24864899D01*
X109994318Y-24900000D01*
X109995379Y-24908059D01*
X109998939Y-24935100D01*
X110000000Y-24951285D01*
X110000000Y-25848715D01*
X109998939Y-25864899D01*
X109994318Y-25900000D01*
X109995379Y-25908059D01*
X109998939Y-25935100D01*
X110000000Y-25951285D01*
X110000000Y-26748715D01*
X109998939Y-26764899D01*
X109994318Y-26800000D01*
X109995379Y-26808059D01*
X109998939Y-26835100D01*
X110000000Y-26851285D01*
X110000000Y-30168884D01*
X109988792Y-30220400D01*
X109966644Y-30249981D01*
X109968239Y-30251363D01*
X109879798Y-30353429D01*
X109879795Y-30353433D01*
X109873990Y-30360133D01*
X109870308Y-30368195D01*
X109870305Y-30368200D01*
X109817887Y-30482979D01*
X109814202Y-30491049D01*
X109812940Y-30499822D01*
X109812939Y-30499828D01*
X109796487Y-30614260D01*
X109793720Y-30633506D01*
X109794982Y-30642283D01*
X109812939Y-30767183D01*
X109812940Y-30767187D01*
X109814202Y-30775963D01*
X109873990Y-30906879D01*
X109879797Y-30913581D01*
X109879798Y-30913582D01*
X109968239Y-31015649D01*
X109966644Y-31017030D01*
X109988792Y-31046612D01*
X110000000Y-31098128D01*
X110000000Y-31118529D01*
X109988794Y-31170040D01*
X109938174Y-31280882D01*
X109936912Y-31289655D01*
X109936911Y-31289661D01*
X109920459Y-31404093D01*
X109917692Y-31423339D01*
X109918954Y-31432116D01*
X109936911Y-31557016D01*
X109936912Y-31557020D01*
X109938174Y-31565796D01*
X109941858Y-31573864D01*
X109941859Y-31573865D01*
X109988794Y-31676637D01*
X110000000Y-31728149D01*
X110000000Y-31876000D01*
X109983387Y-31938000D01*
X109938000Y-31983387D01*
X109876000Y-32000000D01*
X107343639Y-32000000D01*
X107276600Y-31980316D01*
X107269744Y-31975910D01*
X107210053Y-31937549D01*
X107154863Y-31921343D01*
X107080473Y-31899501D01*
X107080470Y-31899500D01*
X107071961Y-31897002D01*
X106928039Y-31897002D01*
X106919530Y-31899500D01*
X106919526Y-31899501D01*
X106798461Y-31935049D01*
X106789947Y-31937549D01*
X106782484Y-31942344D01*
X106782484Y-31942345D01*
X106723400Y-31980316D01*
X106656361Y-32000000D01*
X102724000Y-32000000D01*
X102662000Y-31983387D01*
X102616613Y-31938000D01*
X102600000Y-31876000D01*
X102600000Y-31216326D01*
X102600000Y-31200000D01*
X102583674Y-31200000D01*
X101466031Y-31200000D01*
X101418578Y-31190561D01*
X101364271Y-31168066D01*
X101364268Y-31168065D01*
X101356762Y-31164956D01*
X101348708Y-31163895D01*
X101348702Y-31163894D01*
X101208059Y-31145379D01*
X101200000Y-31144318D01*
X101043238Y-31164956D01*
X101042921Y-31162551D01*
X101001386Y-31163828D01*
X100949875Y-31140175D01*
X100914272Y-31096069D01*
X100902016Y-31040728D01*
X100902316Y-31017030D01*
X100998794Y-23395212D01*
X101008526Y-23348608D01*
X101035098Y-23309110D01*
X101956486Y-22387723D01*
X101964454Y-22380423D01*
X101985071Y-22363124D01*
X101985070Y-22363124D01*
X101993384Y-22356149D01*
X102012281Y-22323415D01*
X102018080Y-22314316D01*
X102021453Y-22309500D01*
X102039744Y-22283378D01*
X102042550Y-22272899D01*
X102043158Y-22271598D01*
X102088915Y-22219420D01*
X102155541Y-22200000D01*
X103383674Y-22200000D01*
X103400000Y-22200000D01*
X103400000Y-21451878D01*
X103409439Y-21404425D01*
X103436319Y-21364197D01*
X103550840Y-21249676D01*
X103591068Y-21222796D01*
X103638521Y-21213357D01*
X104163892Y-21213357D01*
X104168476Y-21213357D01*
X104169986Y-21213090D01*
X104173049Y-21212957D01*
X104453652Y-21212957D01*
X104459749Y-21212957D01*
X104464340Y-21212043D01*
X104530842Y-21224143D01*
G37*
G04 #@! TD.AperFunction*
M02*
