G04 #@! TF.GenerationSoftware,KiCad,Pcbnew,(7.0.0)*
G04 #@! TF.CreationDate,2023-05-25T13:49:03-05:00*
G04 #@! TF.ProjectId,Emrick,456d7269-636b-42e6-9b69-6361645f7063,3*
G04 #@! TF.SameCoordinates,Original*
G04 #@! TF.FileFunction,Legend,Bot*
G04 #@! TF.FilePolarity,Positive*
%FSLAX46Y46*%
G04 Gerber Fmt 4.6, Leading zero omitted, Abs format (unit mm)*
G04 Created by KiCad (PCBNEW (7.0.0)) date 2023-05-25 13:49:03*
%MOMM*%
%LPD*%
G01*
G04 APERTURE LIST*
G04 Aperture macros list*
%AMRoundRect*
0 Rectangle with rounded corners*
0 $1 Rounding radius*
0 $2 $3 $4 $5 $6 $7 $8 $9 X,Y pos of 4 corners*
0 Add a 4 corners polygon primitive as box body*
4,1,4,$2,$3,$4,$5,$6,$7,$8,$9,$2,$3,0*
0 Add four circle primitives for the rounded corners*
1,1,$1+$1,$2,$3*
1,1,$1+$1,$4,$5*
1,1,$1+$1,$6,$7*
1,1,$1+$1,$8,$9*
0 Add four rect primitives between the rounded corners*
20,1,$1+$1,$2,$3,$4,$5,0*
20,1,$1+$1,$4,$5,$6,$7,0*
20,1,$1+$1,$6,$7,$8,$9,0*
20,1,$1+$1,$8,$9,$2,$3,0*%
G04 Aperture macros list end*
%ADD10C,0.300000*%
%ADD11C,0.150000*%
%ADD12C,0.120000*%
%ADD13C,0.152400*%
%ADD14C,0.508000*%
%ADD15RoundRect,0.140000X0.140000X0.170000X-0.140000X0.170000X-0.140000X-0.170000X0.140000X-0.170000X0*%
%ADD16R,0.600000X0.249200*%
%ADD17R,0.600000X0.250000*%
%ADD18R,0.250000X2.400000*%
%ADD19R,0.300000X1.200000*%
%ADD20R,0.300000X0.900000*%
%ADD21C,2.057400*%
%ADD22RoundRect,0.135000X0.135000X0.185000X-0.135000X0.185000X-0.135000X-0.185000X0.135000X-0.185000X0*%
%ADD23R,3.500000X2.350000*%
%ADD24RoundRect,0.225000X-0.250000X0.225000X-0.250000X-0.225000X0.250000X-0.225000X0.250000X0.225000X0*%
%ADD25RoundRect,0.135000X-0.135000X-0.185000X0.135000X-0.185000X0.135000X0.185000X-0.135000X0.185000X0*%
%ADD26C,0.508000*%
%ADD27C,0.499999*%
%ADD28O,1.000000X1.000000*%
%ADD29R,1.000000X1.000000*%
%ADD30RoundRect,0.225000X0.250000X-0.225000X0.250000X0.225000X-0.250000X0.225000X-0.250000X-0.225000X0*%
%ADD31O,1.600000X1.000000*%
%ADD32O,2.100000X1.000000*%
%ADD33C,0.650000*%
%ADD34RoundRect,0.200000X-0.275000X0.200000X-0.275000X-0.200000X0.275000X-0.200000X0.275000X0.200000X0*%
%ADD35R,0.660400X2.000000*%
%ADD36R,0.762000X1.854200*%
%ADD37R,0.800000X1.900000*%
G04 APERTURE END LIST*
D10*
X115878570Y-48105357D02*
X115378570Y-48105357D01*
X115164284Y-48891071D02*
X115878570Y-48891071D01*
X115878570Y-48891071D02*
X115878570Y-47391071D01*
X115878570Y-47391071D02*
X115164284Y-47391071D01*
X114521427Y-48891071D02*
X114521427Y-47891071D01*
X114521427Y-48033928D02*
X114449998Y-47962500D01*
X114449998Y-47962500D02*
X114307141Y-47891071D01*
X114307141Y-47891071D02*
X114092855Y-47891071D01*
X114092855Y-47891071D02*
X113949998Y-47962500D01*
X113949998Y-47962500D02*
X113878570Y-48105357D01*
X113878570Y-48105357D02*
X113878570Y-48891071D01*
X113878570Y-48105357D02*
X113807141Y-47962500D01*
X113807141Y-47962500D02*
X113664284Y-47891071D01*
X113664284Y-47891071D02*
X113449998Y-47891071D01*
X113449998Y-47891071D02*
X113307141Y-47962500D01*
X113307141Y-47962500D02*
X113235712Y-48105357D01*
X113235712Y-48105357D02*
X113235712Y-48891071D01*
X112521427Y-48891071D02*
X112521427Y-47891071D01*
X112521427Y-48176785D02*
X112449998Y-48033928D01*
X112449998Y-48033928D02*
X112378570Y-47962500D01*
X112378570Y-47962500D02*
X112235712Y-47891071D01*
X112235712Y-47891071D02*
X112092855Y-47891071D01*
X111592856Y-48891071D02*
X111592856Y-47891071D01*
X111592856Y-47391071D02*
X111664284Y-47462500D01*
X111664284Y-47462500D02*
X111592856Y-47533928D01*
X111592856Y-47533928D02*
X111521427Y-47462500D01*
X111521427Y-47462500D02*
X111592856Y-47391071D01*
X111592856Y-47391071D02*
X111592856Y-47533928D01*
X110235713Y-48819642D02*
X110378570Y-48891071D01*
X110378570Y-48891071D02*
X110664284Y-48891071D01*
X110664284Y-48891071D02*
X110807141Y-48819642D01*
X110807141Y-48819642D02*
X110878570Y-48748214D01*
X110878570Y-48748214D02*
X110949998Y-48605357D01*
X110949998Y-48605357D02*
X110949998Y-48176785D01*
X110949998Y-48176785D02*
X110878570Y-48033928D01*
X110878570Y-48033928D02*
X110807141Y-47962500D01*
X110807141Y-47962500D02*
X110664284Y-47891071D01*
X110664284Y-47891071D02*
X110378570Y-47891071D01*
X110378570Y-47891071D02*
X110235713Y-47962500D01*
X109592856Y-48891071D02*
X109592856Y-47391071D01*
X109449999Y-48319642D02*
X109021427Y-48891071D01*
X109021427Y-47891071D02*
X109592856Y-48462500D01*
X106621427Y-48891071D02*
X107121427Y-48176785D01*
X107478570Y-48891071D02*
X107478570Y-47391071D01*
X107478570Y-47391071D02*
X106907141Y-47391071D01*
X106907141Y-47391071D02*
X106764284Y-47462500D01*
X106764284Y-47462500D02*
X106692855Y-47533928D01*
X106692855Y-47533928D02*
X106621427Y-47676785D01*
X106621427Y-47676785D02*
X106621427Y-47891071D01*
X106621427Y-47891071D02*
X106692855Y-48033928D01*
X106692855Y-48033928D02*
X106764284Y-48105357D01*
X106764284Y-48105357D02*
X106907141Y-48176785D01*
X106907141Y-48176785D02*
X107478570Y-48176785D01*
X105407141Y-48819642D02*
X105549998Y-48891071D01*
X105549998Y-48891071D02*
X105835713Y-48891071D01*
X105835713Y-48891071D02*
X105978570Y-48819642D01*
X105978570Y-48819642D02*
X106049998Y-48676785D01*
X106049998Y-48676785D02*
X106049998Y-48105357D01*
X106049998Y-48105357D02*
X105978570Y-47962500D01*
X105978570Y-47962500D02*
X105835713Y-47891071D01*
X105835713Y-47891071D02*
X105549998Y-47891071D01*
X105549998Y-47891071D02*
X105407141Y-47962500D01*
X105407141Y-47962500D02*
X105335713Y-48105357D01*
X105335713Y-48105357D02*
X105335713Y-48248214D01*
X105335713Y-48248214D02*
X106049998Y-48391071D01*
X104835713Y-47891071D02*
X104478570Y-48891071D01*
X104478570Y-48891071D02*
X104121427Y-47891071D01*
X102792856Y-47391071D02*
X101864284Y-47391071D01*
X101864284Y-47391071D02*
X102364284Y-47962500D01*
X102364284Y-47962500D02*
X102149999Y-47962500D01*
X102149999Y-47962500D02*
X102007142Y-48033928D01*
X102007142Y-48033928D02*
X101935713Y-48105357D01*
X101935713Y-48105357D02*
X101864284Y-48248214D01*
X101864284Y-48248214D02*
X101864284Y-48605357D01*
X101864284Y-48605357D02*
X101935713Y-48748214D01*
X101935713Y-48748214D02*
X102007142Y-48819642D01*
X102007142Y-48819642D02*
X102149999Y-48891071D01*
X102149999Y-48891071D02*
X102578570Y-48891071D01*
X102578570Y-48891071D02*
X102721427Y-48819642D01*
X102721427Y-48819642D02*
X102792856Y-48748214D01*
X99607142Y-47391071D02*
X100321428Y-47391071D01*
X100321428Y-47391071D02*
X100392856Y-48105357D01*
X100392856Y-48105357D02*
X100321428Y-48033928D01*
X100321428Y-48033928D02*
X100178571Y-47962500D01*
X100178571Y-47962500D02*
X99821428Y-47962500D01*
X99821428Y-47962500D02*
X99678571Y-48033928D01*
X99678571Y-48033928D02*
X99607142Y-48105357D01*
X99607142Y-48105357D02*
X99535713Y-48248214D01*
X99535713Y-48248214D02*
X99535713Y-48605357D01*
X99535713Y-48605357D02*
X99607142Y-48748214D01*
X99607142Y-48748214D02*
X99678571Y-48819642D01*
X99678571Y-48819642D02*
X99821428Y-48891071D01*
X99821428Y-48891071D02*
X100178571Y-48891071D01*
X100178571Y-48891071D02*
X100321428Y-48819642D01*
X100321428Y-48819642D02*
X100392856Y-48748214D01*
X97821428Y-47319642D02*
X99107142Y-49248214D01*
X96678571Y-47891071D02*
X96678571Y-48891071D01*
X97035713Y-47319642D02*
X97392856Y-48391071D01*
X97392856Y-48391071D02*
X96464285Y-48391071D01*
X94821428Y-47319642D02*
X96107142Y-49248214D01*
X94392856Y-47533928D02*
X94321428Y-47462500D01*
X94321428Y-47462500D02*
X94178571Y-47391071D01*
X94178571Y-47391071D02*
X93821428Y-47391071D01*
X93821428Y-47391071D02*
X93678571Y-47462500D01*
X93678571Y-47462500D02*
X93607142Y-47533928D01*
X93607142Y-47533928D02*
X93535713Y-47676785D01*
X93535713Y-47676785D02*
X93535713Y-47819642D01*
X93535713Y-47819642D02*
X93607142Y-48033928D01*
X93607142Y-48033928D02*
X94464285Y-48891071D01*
X94464285Y-48891071D02*
X93535713Y-48891071D01*
X92607142Y-47391071D02*
X92464285Y-47391071D01*
X92464285Y-47391071D02*
X92321428Y-47462500D01*
X92321428Y-47462500D02*
X92250000Y-47533928D01*
X92250000Y-47533928D02*
X92178571Y-47676785D01*
X92178571Y-47676785D02*
X92107142Y-47962500D01*
X92107142Y-47962500D02*
X92107142Y-48319642D01*
X92107142Y-48319642D02*
X92178571Y-48605357D01*
X92178571Y-48605357D02*
X92250000Y-48748214D01*
X92250000Y-48748214D02*
X92321428Y-48819642D01*
X92321428Y-48819642D02*
X92464285Y-48891071D01*
X92464285Y-48891071D02*
X92607142Y-48891071D01*
X92607142Y-48891071D02*
X92750000Y-48819642D01*
X92750000Y-48819642D02*
X92821428Y-48748214D01*
X92821428Y-48748214D02*
X92892857Y-48605357D01*
X92892857Y-48605357D02*
X92964285Y-48319642D01*
X92964285Y-48319642D02*
X92964285Y-47962500D01*
X92964285Y-47962500D02*
X92892857Y-47676785D01*
X92892857Y-47676785D02*
X92821428Y-47533928D01*
X92821428Y-47533928D02*
X92750000Y-47462500D01*
X92750000Y-47462500D02*
X92607142Y-47391071D01*
X91535714Y-47533928D02*
X91464286Y-47462500D01*
X91464286Y-47462500D02*
X91321429Y-47391071D01*
X91321429Y-47391071D02*
X90964286Y-47391071D01*
X90964286Y-47391071D02*
X90821429Y-47462500D01*
X90821429Y-47462500D02*
X90750000Y-47533928D01*
X90750000Y-47533928D02*
X90678571Y-47676785D01*
X90678571Y-47676785D02*
X90678571Y-47819642D01*
X90678571Y-47819642D02*
X90750000Y-48033928D01*
X90750000Y-48033928D02*
X91607143Y-48891071D01*
X91607143Y-48891071D02*
X90678571Y-48891071D01*
X90178572Y-47391071D02*
X89250000Y-47391071D01*
X89250000Y-47391071D02*
X89750000Y-47962500D01*
X89750000Y-47962500D02*
X89535715Y-47962500D01*
X89535715Y-47962500D02*
X89392858Y-48033928D01*
X89392858Y-48033928D02*
X89321429Y-48105357D01*
X89321429Y-48105357D02*
X89250000Y-48248214D01*
X89250000Y-48248214D02*
X89250000Y-48605357D01*
X89250000Y-48605357D02*
X89321429Y-48748214D01*
X89321429Y-48748214D02*
X89392858Y-48819642D01*
X89392858Y-48819642D02*
X89535715Y-48891071D01*
X89535715Y-48891071D02*
X89964286Y-48891071D01*
X89964286Y-48891071D02*
X90107143Y-48819642D01*
X90107143Y-48819642D02*
X90178572Y-48748214D01*
X107835713Y-51249642D02*
X107621428Y-51321071D01*
X107621428Y-51321071D02*
X107264285Y-51321071D01*
X107264285Y-51321071D02*
X107121428Y-51249642D01*
X107121428Y-51249642D02*
X107049999Y-51178214D01*
X107049999Y-51178214D02*
X106978570Y-51035357D01*
X106978570Y-51035357D02*
X106978570Y-50892500D01*
X106978570Y-50892500D02*
X107049999Y-50749642D01*
X107049999Y-50749642D02*
X107121428Y-50678214D01*
X107121428Y-50678214D02*
X107264285Y-50606785D01*
X107264285Y-50606785D02*
X107549999Y-50535357D01*
X107549999Y-50535357D02*
X107692856Y-50463928D01*
X107692856Y-50463928D02*
X107764285Y-50392500D01*
X107764285Y-50392500D02*
X107835713Y-50249642D01*
X107835713Y-50249642D02*
X107835713Y-50106785D01*
X107835713Y-50106785D02*
X107764285Y-49963928D01*
X107764285Y-49963928D02*
X107692856Y-49892500D01*
X107692856Y-49892500D02*
X107549999Y-49821071D01*
X107549999Y-49821071D02*
X107192856Y-49821071D01*
X107192856Y-49821071D02*
X106978570Y-49892500D01*
X105692857Y-51321071D02*
X105692857Y-50535357D01*
X105692857Y-50535357D02*
X105764285Y-50392500D01*
X105764285Y-50392500D02*
X105907142Y-50321071D01*
X105907142Y-50321071D02*
X106192857Y-50321071D01*
X106192857Y-50321071D02*
X106335714Y-50392500D01*
X105692857Y-51249642D02*
X105835714Y-51321071D01*
X105835714Y-51321071D02*
X106192857Y-51321071D01*
X106192857Y-51321071D02*
X106335714Y-51249642D01*
X106335714Y-51249642D02*
X106407142Y-51106785D01*
X106407142Y-51106785D02*
X106407142Y-50963928D01*
X106407142Y-50963928D02*
X106335714Y-50821071D01*
X106335714Y-50821071D02*
X106192857Y-50749642D01*
X106192857Y-50749642D02*
X105835714Y-50749642D01*
X105835714Y-50749642D02*
X105692857Y-50678214D01*
X104978571Y-51321071D02*
X104978571Y-50321071D01*
X104978571Y-50463928D02*
X104907142Y-50392500D01*
X104907142Y-50392500D02*
X104764285Y-50321071D01*
X104764285Y-50321071D02*
X104549999Y-50321071D01*
X104549999Y-50321071D02*
X104407142Y-50392500D01*
X104407142Y-50392500D02*
X104335714Y-50535357D01*
X104335714Y-50535357D02*
X104335714Y-51321071D01*
X104335714Y-50535357D02*
X104264285Y-50392500D01*
X104264285Y-50392500D02*
X104121428Y-50321071D01*
X104121428Y-50321071D02*
X103907142Y-50321071D01*
X103907142Y-50321071D02*
X103764285Y-50392500D01*
X103764285Y-50392500D02*
X103692856Y-50535357D01*
X103692856Y-50535357D02*
X103692856Y-51321071D01*
X102078571Y-51321071D02*
X102078571Y-49821071D01*
X102078571Y-49821071D02*
X101721428Y-49821071D01*
X101721428Y-49821071D02*
X101507142Y-49892500D01*
X101507142Y-49892500D02*
X101364285Y-50035357D01*
X101364285Y-50035357D02*
X101292856Y-50178214D01*
X101292856Y-50178214D02*
X101221428Y-50463928D01*
X101221428Y-50463928D02*
X101221428Y-50678214D01*
X101221428Y-50678214D02*
X101292856Y-50963928D01*
X101292856Y-50963928D02*
X101364285Y-51106785D01*
X101364285Y-51106785D02*
X101507142Y-51249642D01*
X101507142Y-51249642D02*
X101721428Y-51321071D01*
X101721428Y-51321071D02*
X102078571Y-51321071D01*
X100364285Y-51321071D02*
X100507142Y-51249642D01*
X100507142Y-51249642D02*
X100578571Y-51106785D01*
X100578571Y-51106785D02*
X100578571Y-49821071D01*
X99578571Y-51321071D02*
X99721428Y-51249642D01*
X99721428Y-51249642D02*
X99792857Y-51178214D01*
X99792857Y-51178214D02*
X99864285Y-51035357D01*
X99864285Y-51035357D02*
X99864285Y-50606785D01*
X99864285Y-50606785D02*
X99792857Y-50463928D01*
X99792857Y-50463928D02*
X99721428Y-50392500D01*
X99721428Y-50392500D02*
X99578571Y-50321071D01*
X99578571Y-50321071D02*
X99364285Y-50321071D01*
X99364285Y-50321071D02*
X99221428Y-50392500D01*
X99221428Y-50392500D02*
X99150000Y-50463928D01*
X99150000Y-50463928D02*
X99078571Y-50606785D01*
X99078571Y-50606785D02*
X99078571Y-51035357D01*
X99078571Y-51035357D02*
X99150000Y-51178214D01*
X99150000Y-51178214D02*
X99221428Y-51249642D01*
X99221428Y-51249642D02*
X99364285Y-51321071D01*
X99364285Y-51321071D02*
X99578571Y-51321071D01*
X98649999Y-50321071D02*
X98078571Y-50321071D01*
X98435714Y-49821071D02*
X98435714Y-51106785D01*
X98435714Y-51106785D02*
X98364285Y-51249642D01*
X98364285Y-51249642D02*
X98221428Y-51321071D01*
X98221428Y-51321071D02*
X98078571Y-51321071D01*
X97792856Y-50321071D02*
X97221428Y-50321071D01*
X97578571Y-49821071D02*
X97578571Y-51106785D01*
X97578571Y-51106785D02*
X97507142Y-51249642D01*
X97507142Y-51249642D02*
X97364285Y-51321071D01*
X97364285Y-51321071D02*
X97221428Y-51321071D01*
X109228572Y-52965357D02*
X108728572Y-52965357D01*
X108514286Y-53751071D02*
X109228572Y-53751071D01*
X109228572Y-53751071D02*
X109228572Y-52251071D01*
X109228572Y-52251071D02*
X108514286Y-52251071D01*
X107871429Y-53751071D02*
X107871429Y-52751071D01*
X107871429Y-53036785D02*
X107800000Y-52893928D01*
X107800000Y-52893928D02*
X107728572Y-52822500D01*
X107728572Y-52822500D02*
X107585714Y-52751071D01*
X107585714Y-52751071D02*
X107442857Y-52751071D01*
X106942858Y-53751071D02*
X106942858Y-52751071D01*
X106942858Y-52251071D02*
X107014286Y-52322500D01*
X107014286Y-52322500D02*
X106942858Y-52393928D01*
X106942858Y-52393928D02*
X106871429Y-52322500D01*
X106871429Y-52322500D02*
X106942858Y-52251071D01*
X106942858Y-52251071D02*
X106942858Y-52393928D01*
X106228572Y-53751071D02*
X106228572Y-52251071D01*
X106085715Y-53179642D02*
X105657143Y-53751071D01*
X105657143Y-52751071D02*
X106228572Y-53322500D01*
X104114286Y-53751071D02*
X104114286Y-52251071D01*
X104114286Y-52251071D02*
X103757143Y-52251071D01*
X103757143Y-52251071D02*
X103542857Y-52322500D01*
X103542857Y-52322500D02*
X103400000Y-52465357D01*
X103400000Y-52465357D02*
X103328571Y-52608214D01*
X103328571Y-52608214D02*
X103257143Y-52893928D01*
X103257143Y-52893928D02*
X103257143Y-53108214D01*
X103257143Y-53108214D02*
X103328571Y-53393928D01*
X103328571Y-53393928D02*
X103400000Y-53536785D01*
X103400000Y-53536785D02*
X103542857Y-53679642D01*
X103542857Y-53679642D02*
X103757143Y-53751071D01*
X103757143Y-53751071D02*
X104114286Y-53751071D01*
X101971429Y-52751071D02*
X101971429Y-53751071D01*
X102614286Y-52751071D02*
X102614286Y-53536785D01*
X102614286Y-53536785D02*
X102542857Y-53679642D01*
X102542857Y-53679642D02*
X102400000Y-53751071D01*
X102400000Y-53751071D02*
X102185714Y-53751071D01*
X102185714Y-53751071D02*
X102042857Y-53679642D01*
X102042857Y-53679642D02*
X101971429Y-53608214D01*
X101400000Y-53751071D02*
X100614286Y-52751071D01*
X101400000Y-52751071D02*
X100614286Y-53751071D01*
X100114285Y-53679642D02*
X99971428Y-53751071D01*
X99971428Y-53751071D02*
X99685714Y-53751071D01*
X99685714Y-53751071D02*
X99542857Y-53679642D01*
X99542857Y-53679642D02*
X99471428Y-53536785D01*
X99471428Y-53536785D02*
X99471428Y-53465357D01*
X99471428Y-53465357D02*
X99542857Y-53322500D01*
X99542857Y-53322500D02*
X99685714Y-53251071D01*
X99685714Y-53251071D02*
X99900000Y-53251071D01*
X99900000Y-53251071D02*
X100042857Y-53179642D01*
X100042857Y-53179642D02*
X100114285Y-53036785D01*
X100114285Y-53036785D02*
X100114285Y-52965357D01*
X100114285Y-52965357D02*
X100042857Y-52822500D01*
X100042857Y-52822500D02*
X99900000Y-52751071D01*
X99900000Y-52751071D02*
X99685714Y-52751071D01*
X99685714Y-52751071D02*
X99542857Y-52822500D01*
X99042856Y-52751071D02*
X98471428Y-52751071D01*
X98828571Y-52251071D02*
X98828571Y-53536785D01*
X98828571Y-53536785D02*
X98757142Y-53679642D01*
X98757142Y-53679642D02*
X98614285Y-53751071D01*
X98614285Y-53751071D02*
X98471428Y-53751071D01*
X97328571Y-53751071D02*
X97328571Y-52965357D01*
X97328571Y-52965357D02*
X97399999Y-52822500D01*
X97399999Y-52822500D02*
X97542856Y-52751071D01*
X97542856Y-52751071D02*
X97828571Y-52751071D01*
X97828571Y-52751071D02*
X97971428Y-52822500D01*
X97328571Y-53679642D02*
X97471428Y-53751071D01*
X97471428Y-53751071D02*
X97828571Y-53751071D01*
X97828571Y-53751071D02*
X97971428Y-53679642D01*
X97971428Y-53679642D02*
X98042856Y-53536785D01*
X98042856Y-53536785D02*
X98042856Y-53393928D01*
X98042856Y-53393928D02*
X97971428Y-53251071D01*
X97971428Y-53251071D02*
X97828571Y-53179642D01*
X97828571Y-53179642D02*
X97471428Y-53179642D01*
X97471428Y-53179642D02*
X97328571Y-53108214D01*
X95971428Y-53751071D02*
X95971428Y-52251071D01*
X95971428Y-53679642D02*
X96114285Y-53751071D01*
X96114285Y-53751071D02*
X96399999Y-53751071D01*
X96399999Y-53751071D02*
X96542856Y-53679642D01*
X96542856Y-53679642D02*
X96614285Y-53608214D01*
X96614285Y-53608214D02*
X96685713Y-53465357D01*
X96685713Y-53465357D02*
X96685713Y-53036785D01*
X96685713Y-53036785D02*
X96614285Y-52893928D01*
X96614285Y-52893928D02*
X96542856Y-52822500D01*
X96542856Y-52822500D02*
X96399999Y-52751071D01*
X96399999Y-52751071D02*
X96114285Y-52751071D01*
X96114285Y-52751071D02*
X95971428Y-52822500D01*
X108549999Y-54681071D02*
X107549999Y-54681071D01*
X107549999Y-54681071D02*
X108549999Y-56181071D01*
X108549999Y-56181071D02*
X107549999Y-56181071D01*
X106335714Y-56181071D02*
X106335714Y-55395357D01*
X106335714Y-55395357D02*
X106407142Y-55252500D01*
X106407142Y-55252500D02*
X106549999Y-55181071D01*
X106549999Y-55181071D02*
X106835714Y-55181071D01*
X106835714Y-55181071D02*
X106978571Y-55252500D01*
X106335714Y-56109642D02*
X106478571Y-56181071D01*
X106478571Y-56181071D02*
X106835714Y-56181071D01*
X106835714Y-56181071D02*
X106978571Y-56109642D01*
X106978571Y-56109642D02*
X107049999Y-55966785D01*
X107049999Y-55966785D02*
X107049999Y-55823928D01*
X107049999Y-55823928D02*
X106978571Y-55681071D01*
X106978571Y-55681071D02*
X106835714Y-55609642D01*
X106835714Y-55609642D02*
X106478571Y-55609642D01*
X106478571Y-55609642D02*
X106335714Y-55538214D01*
X105621428Y-56181071D02*
X105621428Y-55181071D01*
X105621428Y-55466785D02*
X105549999Y-55323928D01*
X105549999Y-55323928D02*
X105478571Y-55252500D01*
X105478571Y-55252500D02*
X105335713Y-55181071D01*
X105335713Y-55181071D02*
X105192856Y-55181071D01*
X104121428Y-56109642D02*
X104264285Y-56181071D01*
X104264285Y-56181071D02*
X104550000Y-56181071D01*
X104550000Y-56181071D02*
X104692857Y-56109642D01*
X104692857Y-56109642D02*
X104764285Y-55966785D01*
X104764285Y-55966785D02*
X104764285Y-55395357D01*
X104764285Y-55395357D02*
X104692857Y-55252500D01*
X104692857Y-55252500D02*
X104550000Y-55181071D01*
X104550000Y-55181071D02*
X104264285Y-55181071D01*
X104264285Y-55181071D02*
X104121428Y-55252500D01*
X104121428Y-55252500D02*
X104050000Y-55395357D01*
X104050000Y-55395357D02*
X104050000Y-55538214D01*
X104050000Y-55538214D02*
X104764285Y-55681071D01*
X102835714Y-56109642D02*
X102978571Y-56181071D01*
X102978571Y-56181071D02*
X103264286Y-56181071D01*
X103264286Y-56181071D02*
X103407143Y-56109642D01*
X103407143Y-56109642D02*
X103478571Y-55966785D01*
X103478571Y-55966785D02*
X103478571Y-55395357D01*
X103478571Y-55395357D02*
X103407143Y-55252500D01*
X103407143Y-55252500D02*
X103264286Y-55181071D01*
X103264286Y-55181071D02*
X102978571Y-55181071D01*
X102978571Y-55181071D02*
X102835714Y-55252500D01*
X102835714Y-55252500D02*
X102764286Y-55395357D01*
X102764286Y-55395357D02*
X102764286Y-55538214D01*
X102764286Y-55538214D02*
X103478571Y-55681071D01*
X102335714Y-55181071D02*
X101764286Y-55181071D01*
X102121429Y-56181071D02*
X102121429Y-54895357D01*
X102121429Y-54895357D02*
X102050000Y-54752500D01*
X102050000Y-54752500D02*
X101907143Y-54681071D01*
X101907143Y-54681071D02*
X101764286Y-54681071D01*
X100364286Y-56181071D02*
X100364286Y-54681071D01*
X100364286Y-55395357D02*
X99507143Y-55395357D01*
X99507143Y-56181071D02*
X99507143Y-54681071D01*
X98150000Y-55181071D02*
X98150000Y-56181071D01*
X98792857Y-55181071D02*
X98792857Y-55966785D01*
X98792857Y-55966785D02*
X98721428Y-56109642D01*
X98721428Y-56109642D02*
X98578571Y-56181071D01*
X98578571Y-56181071D02*
X98364285Y-56181071D01*
X98364285Y-56181071D02*
X98221428Y-56109642D01*
X98221428Y-56109642D02*
X98150000Y-56038214D01*
X96792857Y-55181071D02*
X96792857Y-56681071D01*
X96792857Y-56109642D02*
X96935714Y-56181071D01*
X96935714Y-56181071D02*
X97221428Y-56181071D01*
X97221428Y-56181071D02*
X97364285Y-56109642D01*
X97364285Y-56109642D02*
X97435714Y-56038214D01*
X97435714Y-56038214D02*
X97507142Y-55895357D01*
X97507142Y-55895357D02*
X97507142Y-55466785D01*
X97507142Y-55466785D02*
X97435714Y-55323928D01*
X97435714Y-55323928D02*
X97364285Y-55252500D01*
X97364285Y-55252500D02*
X97221428Y-55181071D01*
X97221428Y-55181071D02*
X96935714Y-55181071D01*
X96935714Y-55181071D02*
X96792857Y-55252500D01*
X109907143Y-58611071D02*
X109907143Y-57111071D01*
X109907143Y-57825357D02*
X109050000Y-57825357D01*
X109050000Y-58611071D02*
X109050000Y-57111071D01*
X107692857Y-58611071D02*
X107692857Y-57825357D01*
X107692857Y-57825357D02*
X107764285Y-57682500D01*
X107764285Y-57682500D02*
X107907142Y-57611071D01*
X107907142Y-57611071D02*
X108192857Y-57611071D01*
X108192857Y-57611071D02*
X108335714Y-57682500D01*
X107692857Y-58539642D02*
X107835714Y-58611071D01*
X107835714Y-58611071D02*
X108192857Y-58611071D01*
X108192857Y-58611071D02*
X108335714Y-58539642D01*
X108335714Y-58539642D02*
X108407142Y-58396785D01*
X108407142Y-58396785D02*
X108407142Y-58253928D01*
X108407142Y-58253928D02*
X108335714Y-58111071D01*
X108335714Y-58111071D02*
X108192857Y-58039642D01*
X108192857Y-58039642D02*
X107835714Y-58039642D01*
X107835714Y-58039642D02*
X107692857Y-57968214D01*
X106978571Y-58611071D02*
X106978571Y-57611071D01*
X106978571Y-57753928D02*
X106907142Y-57682500D01*
X106907142Y-57682500D02*
X106764285Y-57611071D01*
X106764285Y-57611071D02*
X106549999Y-57611071D01*
X106549999Y-57611071D02*
X106407142Y-57682500D01*
X106407142Y-57682500D02*
X106335714Y-57825357D01*
X106335714Y-57825357D02*
X106335714Y-58611071D01*
X106335714Y-57825357D02*
X106264285Y-57682500D01*
X106264285Y-57682500D02*
X106121428Y-57611071D01*
X106121428Y-57611071D02*
X105907142Y-57611071D01*
X105907142Y-57611071D02*
X105764285Y-57682500D01*
X105764285Y-57682500D02*
X105692856Y-57825357D01*
X105692856Y-57825357D02*
X105692856Y-58611071D01*
X105121428Y-57611071D02*
X104335714Y-57611071D01*
X104335714Y-57611071D02*
X105121428Y-58611071D01*
X105121428Y-58611071D02*
X104335714Y-58611071D01*
X103121428Y-58611071D02*
X103121428Y-57825357D01*
X103121428Y-57825357D02*
X103192856Y-57682500D01*
X103192856Y-57682500D02*
X103335713Y-57611071D01*
X103335713Y-57611071D02*
X103621428Y-57611071D01*
X103621428Y-57611071D02*
X103764285Y-57682500D01*
X103121428Y-58539642D02*
X103264285Y-58611071D01*
X103264285Y-58611071D02*
X103621428Y-58611071D01*
X103621428Y-58611071D02*
X103764285Y-58539642D01*
X103764285Y-58539642D02*
X103835713Y-58396785D01*
X103835713Y-58396785D02*
X103835713Y-58253928D01*
X103835713Y-58253928D02*
X103764285Y-58111071D01*
X103764285Y-58111071D02*
X103621428Y-58039642D01*
X103621428Y-58039642D02*
X103264285Y-58039642D01*
X103264285Y-58039642D02*
X103121428Y-57968214D01*
X101507142Y-58611071D02*
X101507142Y-57111071D01*
X100649999Y-58611071D02*
X101292856Y-57753928D01*
X100649999Y-57111071D02*
X101507142Y-57968214D01*
X99364285Y-58611071D02*
X99364285Y-57825357D01*
X99364285Y-57825357D02*
X99435713Y-57682500D01*
X99435713Y-57682500D02*
X99578570Y-57611071D01*
X99578570Y-57611071D02*
X99864285Y-57611071D01*
X99864285Y-57611071D02*
X100007142Y-57682500D01*
X99364285Y-58539642D02*
X99507142Y-58611071D01*
X99507142Y-58611071D02*
X99864285Y-58611071D01*
X99864285Y-58611071D02*
X100007142Y-58539642D01*
X100007142Y-58539642D02*
X100078570Y-58396785D01*
X100078570Y-58396785D02*
X100078570Y-58253928D01*
X100078570Y-58253928D02*
X100007142Y-58111071D01*
X100007142Y-58111071D02*
X99864285Y-58039642D01*
X99864285Y-58039642D02*
X99507142Y-58039642D01*
X99507142Y-58039642D02*
X99364285Y-57968214D01*
X98649999Y-58611071D02*
X98649999Y-57611071D01*
X98649999Y-57753928D02*
X98578570Y-57682500D01*
X98578570Y-57682500D02*
X98435713Y-57611071D01*
X98435713Y-57611071D02*
X98221427Y-57611071D01*
X98221427Y-57611071D02*
X98078570Y-57682500D01*
X98078570Y-57682500D02*
X98007142Y-57825357D01*
X98007142Y-57825357D02*
X98007142Y-58611071D01*
X98007142Y-57825357D02*
X97935713Y-57682500D01*
X97935713Y-57682500D02*
X97792856Y-57611071D01*
X97792856Y-57611071D02*
X97578570Y-57611071D01*
X97578570Y-57611071D02*
X97435713Y-57682500D01*
X97435713Y-57682500D02*
X97364284Y-57825357D01*
X97364284Y-57825357D02*
X97364284Y-58611071D01*
X96078570Y-58539642D02*
X96221427Y-58611071D01*
X96221427Y-58611071D02*
X96507142Y-58611071D01*
X96507142Y-58611071D02*
X96649999Y-58539642D01*
X96649999Y-58539642D02*
X96721427Y-58396785D01*
X96721427Y-58396785D02*
X96721427Y-57825357D01*
X96721427Y-57825357D02*
X96649999Y-57682500D01*
X96649999Y-57682500D02*
X96507142Y-57611071D01*
X96507142Y-57611071D02*
X96221427Y-57611071D01*
X96221427Y-57611071D02*
X96078570Y-57682500D01*
X96078570Y-57682500D02*
X96007142Y-57825357D01*
X96007142Y-57825357D02*
X96007142Y-57968214D01*
X96007142Y-57968214D02*
X96721427Y-58111071D01*
X95149999Y-58611071D02*
X95292856Y-58539642D01*
X95292856Y-58539642D02*
X95364285Y-58396785D01*
X95364285Y-58396785D02*
X95364285Y-57111071D01*
D11*
X100142857Y-20172142D02*
X100190476Y-20219761D01*
X100190476Y-20219761D02*
X100333333Y-20267380D01*
X100333333Y-20267380D02*
X100428571Y-20267380D01*
X100428571Y-20267380D02*
X100571428Y-20219761D01*
X100571428Y-20219761D02*
X100666666Y-20124523D01*
X100666666Y-20124523D02*
X100714285Y-20029285D01*
X100714285Y-20029285D02*
X100761904Y-19838809D01*
X100761904Y-19838809D02*
X100761904Y-19695952D01*
X100761904Y-19695952D02*
X100714285Y-19505476D01*
X100714285Y-19505476D02*
X100666666Y-19410238D01*
X100666666Y-19410238D02*
X100571428Y-19315000D01*
X100571428Y-19315000D02*
X100428571Y-19267380D01*
X100428571Y-19267380D02*
X100333333Y-19267380D01*
X100333333Y-19267380D02*
X100190476Y-19315000D01*
X100190476Y-19315000D02*
X100142857Y-19362619D01*
X99761904Y-19362619D02*
X99714285Y-19315000D01*
X99714285Y-19315000D02*
X99619047Y-19267380D01*
X99619047Y-19267380D02*
X99380952Y-19267380D01*
X99380952Y-19267380D02*
X99285714Y-19315000D01*
X99285714Y-19315000D02*
X99238095Y-19362619D01*
X99238095Y-19362619D02*
X99190476Y-19457857D01*
X99190476Y-19457857D02*
X99190476Y-19553095D01*
X99190476Y-19553095D02*
X99238095Y-19695952D01*
X99238095Y-19695952D02*
X99809523Y-20267380D01*
X99809523Y-20267380D02*
X99190476Y-20267380D01*
X98619047Y-19695952D02*
X98714285Y-19648333D01*
X98714285Y-19648333D02*
X98761904Y-19600714D01*
X98761904Y-19600714D02*
X98809523Y-19505476D01*
X98809523Y-19505476D02*
X98809523Y-19457857D01*
X98809523Y-19457857D02*
X98761904Y-19362619D01*
X98761904Y-19362619D02*
X98714285Y-19315000D01*
X98714285Y-19315000D02*
X98619047Y-19267380D01*
X98619047Y-19267380D02*
X98428571Y-19267380D01*
X98428571Y-19267380D02*
X98333333Y-19315000D01*
X98333333Y-19315000D02*
X98285714Y-19362619D01*
X98285714Y-19362619D02*
X98238095Y-19457857D01*
X98238095Y-19457857D02*
X98238095Y-19505476D01*
X98238095Y-19505476D02*
X98285714Y-19600714D01*
X98285714Y-19600714D02*
X98333333Y-19648333D01*
X98333333Y-19648333D02*
X98428571Y-19695952D01*
X98428571Y-19695952D02*
X98619047Y-19695952D01*
X98619047Y-19695952D02*
X98714285Y-19743571D01*
X98714285Y-19743571D02*
X98761904Y-19791190D01*
X98761904Y-19791190D02*
X98809523Y-19886428D01*
X98809523Y-19886428D02*
X98809523Y-20076904D01*
X98809523Y-20076904D02*
X98761904Y-20172142D01*
X98761904Y-20172142D02*
X98714285Y-20219761D01*
X98714285Y-20219761D02*
X98619047Y-20267380D01*
X98619047Y-20267380D02*
X98428571Y-20267380D01*
X98428571Y-20267380D02*
X98333333Y-20219761D01*
X98333333Y-20219761D02*
X98285714Y-20172142D01*
X98285714Y-20172142D02*
X98238095Y-20076904D01*
X98238095Y-20076904D02*
X98238095Y-19886428D01*
X98238095Y-19886428D02*
X98285714Y-19791190D01*
X98285714Y-19791190D02*
X98333333Y-19743571D01*
X98333333Y-19743571D02*
X98428571Y-19695952D01*
X104407381Y-19878095D02*
X105216905Y-19878095D01*
X105216905Y-19878095D02*
X105312143Y-19925714D01*
X105312143Y-19925714D02*
X105359762Y-19973333D01*
X105359762Y-19973333D02*
X105407381Y-20068571D01*
X105407381Y-20068571D02*
X105407381Y-20259047D01*
X105407381Y-20259047D02*
X105359762Y-20354285D01*
X105359762Y-20354285D02*
X105312143Y-20401904D01*
X105312143Y-20401904D02*
X105216905Y-20449523D01*
X105216905Y-20449523D02*
X104407381Y-20449523D01*
X104407381Y-20830476D02*
X104407381Y-21449523D01*
X104407381Y-21449523D02*
X104788334Y-21116190D01*
X104788334Y-21116190D02*
X104788334Y-21259047D01*
X104788334Y-21259047D02*
X104835953Y-21354285D01*
X104835953Y-21354285D02*
X104883572Y-21401904D01*
X104883572Y-21401904D02*
X104978810Y-21449523D01*
X104978810Y-21449523D02*
X105216905Y-21449523D01*
X105216905Y-21449523D02*
X105312143Y-21401904D01*
X105312143Y-21401904D02*
X105359762Y-21354285D01*
X105359762Y-21354285D02*
X105407381Y-21259047D01*
X105407381Y-21259047D02*
X105407381Y-20973333D01*
X105407381Y-20973333D02*
X105359762Y-20878095D01*
X105359762Y-20878095D02*
X105312143Y-20830476D01*
X100542857Y-18167380D02*
X100876190Y-17691190D01*
X101114285Y-18167380D02*
X101114285Y-17167380D01*
X101114285Y-17167380D02*
X100733333Y-17167380D01*
X100733333Y-17167380D02*
X100638095Y-17215000D01*
X100638095Y-17215000D02*
X100590476Y-17262619D01*
X100590476Y-17262619D02*
X100542857Y-17357857D01*
X100542857Y-17357857D02*
X100542857Y-17500714D01*
X100542857Y-17500714D02*
X100590476Y-17595952D01*
X100590476Y-17595952D02*
X100638095Y-17643571D01*
X100638095Y-17643571D02*
X100733333Y-17691190D01*
X100733333Y-17691190D02*
X101114285Y-17691190D01*
X99590476Y-18167380D02*
X100161904Y-18167380D01*
X99876190Y-18167380D02*
X99876190Y-17167380D01*
X99876190Y-17167380D02*
X99971428Y-17310238D01*
X99971428Y-17310238D02*
X100066666Y-17405476D01*
X100066666Y-17405476D02*
X100161904Y-17453095D01*
X98638095Y-18167380D02*
X99209523Y-18167380D01*
X98923809Y-18167380D02*
X98923809Y-17167380D01*
X98923809Y-17167380D02*
X99019047Y-17310238D01*
X99019047Y-17310238D02*
X99114285Y-17405476D01*
X99114285Y-17405476D02*
X99209523Y-17453095D01*
X109467380Y-27233333D02*
X109467380Y-26757143D01*
X109467380Y-26757143D02*
X108467380Y-26757143D01*
X108895952Y-27709524D02*
X108848333Y-27614286D01*
X108848333Y-27614286D02*
X108800714Y-27566667D01*
X108800714Y-27566667D02*
X108705476Y-27519048D01*
X108705476Y-27519048D02*
X108657857Y-27519048D01*
X108657857Y-27519048D02*
X108562619Y-27566667D01*
X108562619Y-27566667D02*
X108515000Y-27614286D01*
X108515000Y-27614286D02*
X108467380Y-27709524D01*
X108467380Y-27709524D02*
X108467380Y-27900000D01*
X108467380Y-27900000D02*
X108515000Y-27995238D01*
X108515000Y-27995238D02*
X108562619Y-28042857D01*
X108562619Y-28042857D02*
X108657857Y-28090476D01*
X108657857Y-28090476D02*
X108705476Y-28090476D01*
X108705476Y-28090476D02*
X108800714Y-28042857D01*
X108800714Y-28042857D02*
X108848333Y-27995238D01*
X108848333Y-27995238D02*
X108895952Y-27900000D01*
X108895952Y-27900000D02*
X108895952Y-27709524D01*
X108895952Y-27709524D02*
X108943571Y-27614286D01*
X108943571Y-27614286D02*
X108991190Y-27566667D01*
X108991190Y-27566667D02*
X109086428Y-27519048D01*
X109086428Y-27519048D02*
X109276904Y-27519048D01*
X109276904Y-27519048D02*
X109372142Y-27566667D01*
X109372142Y-27566667D02*
X109419761Y-27614286D01*
X109419761Y-27614286D02*
X109467380Y-27709524D01*
X109467380Y-27709524D02*
X109467380Y-27900000D01*
X109467380Y-27900000D02*
X109419761Y-27995238D01*
X109419761Y-27995238D02*
X109372142Y-28042857D01*
X109372142Y-28042857D02*
X109276904Y-28090476D01*
X109276904Y-28090476D02*
X109086428Y-28090476D01*
X109086428Y-28090476D02*
X108991190Y-28042857D01*
X108991190Y-28042857D02*
X108943571Y-27995238D01*
X108943571Y-27995238D02*
X108895952Y-27900000D01*
X112972142Y-19952142D02*
X113019761Y-19904523D01*
X113019761Y-19904523D02*
X113067380Y-19761666D01*
X113067380Y-19761666D02*
X113067380Y-19666428D01*
X113067380Y-19666428D02*
X113019761Y-19523571D01*
X113019761Y-19523571D02*
X112924523Y-19428333D01*
X112924523Y-19428333D02*
X112829285Y-19380714D01*
X112829285Y-19380714D02*
X112638809Y-19333095D01*
X112638809Y-19333095D02*
X112495952Y-19333095D01*
X112495952Y-19333095D02*
X112305476Y-19380714D01*
X112305476Y-19380714D02*
X112210238Y-19428333D01*
X112210238Y-19428333D02*
X112115000Y-19523571D01*
X112115000Y-19523571D02*
X112067380Y-19666428D01*
X112067380Y-19666428D02*
X112067380Y-19761666D01*
X112067380Y-19761666D02*
X112115000Y-19904523D01*
X112115000Y-19904523D02*
X112162619Y-19952142D01*
X112067380Y-20285476D02*
X112067380Y-20904523D01*
X112067380Y-20904523D02*
X112448333Y-20571190D01*
X112448333Y-20571190D02*
X112448333Y-20714047D01*
X112448333Y-20714047D02*
X112495952Y-20809285D01*
X112495952Y-20809285D02*
X112543571Y-20856904D01*
X112543571Y-20856904D02*
X112638809Y-20904523D01*
X112638809Y-20904523D02*
X112876904Y-20904523D01*
X112876904Y-20904523D02*
X112972142Y-20856904D01*
X112972142Y-20856904D02*
X113019761Y-20809285D01*
X113019761Y-20809285D02*
X113067380Y-20714047D01*
X113067380Y-20714047D02*
X113067380Y-20428333D01*
X113067380Y-20428333D02*
X113019761Y-20333095D01*
X113019761Y-20333095D02*
X112972142Y-20285476D01*
X112067380Y-21523571D02*
X112067380Y-21618809D01*
X112067380Y-21618809D02*
X112115000Y-21714047D01*
X112115000Y-21714047D02*
X112162619Y-21761666D01*
X112162619Y-21761666D02*
X112257857Y-21809285D01*
X112257857Y-21809285D02*
X112448333Y-21856904D01*
X112448333Y-21856904D02*
X112686428Y-21856904D01*
X112686428Y-21856904D02*
X112876904Y-21809285D01*
X112876904Y-21809285D02*
X112972142Y-21761666D01*
X112972142Y-21761666D02*
X113019761Y-21714047D01*
X113019761Y-21714047D02*
X113067380Y-21618809D01*
X113067380Y-21618809D02*
X113067380Y-21523571D01*
X113067380Y-21523571D02*
X113019761Y-21428333D01*
X113019761Y-21428333D02*
X112972142Y-21380714D01*
X112972142Y-21380714D02*
X112876904Y-21333095D01*
X112876904Y-21333095D02*
X112686428Y-21285476D01*
X112686428Y-21285476D02*
X112448333Y-21285476D01*
X112448333Y-21285476D02*
X112257857Y-21333095D01*
X112257857Y-21333095D02*
X112162619Y-21380714D01*
X112162619Y-21380714D02*
X112115000Y-21428333D01*
X112115000Y-21428333D02*
X112067380Y-21523571D01*
X107442857Y-18972142D02*
X107490476Y-19019761D01*
X107490476Y-19019761D02*
X107633333Y-19067380D01*
X107633333Y-19067380D02*
X107728571Y-19067380D01*
X107728571Y-19067380D02*
X107871428Y-19019761D01*
X107871428Y-19019761D02*
X107966666Y-18924523D01*
X107966666Y-18924523D02*
X108014285Y-18829285D01*
X108014285Y-18829285D02*
X108061904Y-18638809D01*
X108061904Y-18638809D02*
X108061904Y-18495952D01*
X108061904Y-18495952D02*
X108014285Y-18305476D01*
X108014285Y-18305476D02*
X107966666Y-18210238D01*
X107966666Y-18210238D02*
X107871428Y-18115000D01*
X107871428Y-18115000D02*
X107728571Y-18067380D01*
X107728571Y-18067380D02*
X107633333Y-18067380D01*
X107633333Y-18067380D02*
X107490476Y-18115000D01*
X107490476Y-18115000D02*
X107442857Y-18162619D01*
X107061904Y-18162619D02*
X107014285Y-18115000D01*
X107014285Y-18115000D02*
X106919047Y-18067380D01*
X106919047Y-18067380D02*
X106680952Y-18067380D01*
X106680952Y-18067380D02*
X106585714Y-18115000D01*
X106585714Y-18115000D02*
X106538095Y-18162619D01*
X106538095Y-18162619D02*
X106490476Y-18257857D01*
X106490476Y-18257857D02*
X106490476Y-18353095D01*
X106490476Y-18353095D02*
X106538095Y-18495952D01*
X106538095Y-18495952D02*
X107109523Y-19067380D01*
X107109523Y-19067380D02*
X106490476Y-19067380D01*
X106157142Y-18067380D02*
X105490476Y-18067380D01*
X105490476Y-18067380D02*
X105919047Y-19067380D01*
X102742857Y-23067380D02*
X103076190Y-22591190D01*
X103314285Y-23067380D02*
X103314285Y-22067380D01*
X103314285Y-22067380D02*
X102933333Y-22067380D01*
X102933333Y-22067380D02*
X102838095Y-22115000D01*
X102838095Y-22115000D02*
X102790476Y-22162619D01*
X102790476Y-22162619D02*
X102742857Y-22257857D01*
X102742857Y-22257857D02*
X102742857Y-22400714D01*
X102742857Y-22400714D02*
X102790476Y-22495952D01*
X102790476Y-22495952D02*
X102838095Y-22543571D01*
X102838095Y-22543571D02*
X102933333Y-22591190D01*
X102933333Y-22591190D02*
X103314285Y-22591190D01*
X101790476Y-23067380D02*
X102361904Y-23067380D01*
X102076190Y-23067380D02*
X102076190Y-22067380D01*
X102076190Y-22067380D02*
X102171428Y-22210238D01*
X102171428Y-22210238D02*
X102266666Y-22305476D01*
X102266666Y-22305476D02*
X102361904Y-22353095D01*
X101171428Y-22067380D02*
X101076190Y-22067380D01*
X101076190Y-22067380D02*
X100980952Y-22115000D01*
X100980952Y-22115000D02*
X100933333Y-22162619D01*
X100933333Y-22162619D02*
X100885714Y-22257857D01*
X100885714Y-22257857D02*
X100838095Y-22448333D01*
X100838095Y-22448333D02*
X100838095Y-22686428D01*
X100838095Y-22686428D02*
X100885714Y-22876904D01*
X100885714Y-22876904D02*
X100933333Y-22972142D01*
X100933333Y-22972142D02*
X100980952Y-23019761D01*
X100980952Y-23019761D02*
X101076190Y-23067380D01*
X101076190Y-23067380D02*
X101171428Y-23067380D01*
X101171428Y-23067380D02*
X101266666Y-23019761D01*
X101266666Y-23019761D02*
X101314285Y-22972142D01*
X101314285Y-22972142D02*
X101361904Y-22876904D01*
X101361904Y-22876904D02*
X101409523Y-22686428D01*
X101409523Y-22686428D02*
X101409523Y-22448333D01*
X101409523Y-22448333D02*
X101361904Y-22257857D01*
X101361904Y-22257857D02*
X101314285Y-22162619D01*
X101314285Y-22162619D02*
X101266666Y-22115000D01*
X101266666Y-22115000D02*
X101171428Y-22067380D01*
X98342857Y-22067380D02*
X98676190Y-21591190D01*
X98914285Y-22067380D02*
X98914285Y-21067380D01*
X98914285Y-21067380D02*
X98533333Y-21067380D01*
X98533333Y-21067380D02*
X98438095Y-21115000D01*
X98438095Y-21115000D02*
X98390476Y-21162619D01*
X98390476Y-21162619D02*
X98342857Y-21257857D01*
X98342857Y-21257857D02*
X98342857Y-21400714D01*
X98342857Y-21400714D02*
X98390476Y-21495952D01*
X98390476Y-21495952D02*
X98438095Y-21543571D01*
X98438095Y-21543571D02*
X98533333Y-21591190D01*
X98533333Y-21591190D02*
X98914285Y-21591190D01*
X97390476Y-22067380D02*
X97961904Y-22067380D01*
X97676190Y-22067380D02*
X97676190Y-21067380D01*
X97676190Y-21067380D02*
X97771428Y-21210238D01*
X97771428Y-21210238D02*
X97866666Y-21305476D01*
X97866666Y-21305476D02*
X97961904Y-21353095D01*
X97009523Y-21162619D02*
X96961904Y-21115000D01*
X96961904Y-21115000D02*
X96866666Y-21067380D01*
X96866666Y-21067380D02*
X96628571Y-21067380D01*
X96628571Y-21067380D02*
X96533333Y-21115000D01*
X96533333Y-21115000D02*
X96485714Y-21162619D01*
X96485714Y-21162619D02*
X96438095Y-21257857D01*
X96438095Y-21257857D02*
X96438095Y-21353095D01*
X96438095Y-21353095D02*
X96485714Y-21495952D01*
X96485714Y-21495952D02*
X97057142Y-22067380D01*
X97057142Y-22067380D02*
X96438095Y-22067380D01*
X113072142Y-23092142D02*
X113119761Y-23044523D01*
X113119761Y-23044523D02*
X113167380Y-22901666D01*
X113167380Y-22901666D02*
X113167380Y-22806428D01*
X113167380Y-22806428D02*
X113119761Y-22663571D01*
X113119761Y-22663571D02*
X113024523Y-22568333D01*
X113024523Y-22568333D02*
X112929285Y-22520714D01*
X112929285Y-22520714D02*
X112738809Y-22473095D01*
X112738809Y-22473095D02*
X112595952Y-22473095D01*
X112595952Y-22473095D02*
X112405476Y-22520714D01*
X112405476Y-22520714D02*
X112310238Y-22568333D01*
X112310238Y-22568333D02*
X112215000Y-22663571D01*
X112215000Y-22663571D02*
X112167380Y-22806428D01*
X112167380Y-22806428D02*
X112167380Y-22901666D01*
X112167380Y-22901666D02*
X112215000Y-23044523D01*
X112215000Y-23044523D02*
X112262619Y-23092142D01*
X112262619Y-23473095D02*
X112215000Y-23520714D01*
X112215000Y-23520714D02*
X112167380Y-23615952D01*
X112167380Y-23615952D02*
X112167380Y-23854047D01*
X112167380Y-23854047D02*
X112215000Y-23949285D01*
X112215000Y-23949285D02*
X112262619Y-23996904D01*
X112262619Y-23996904D02*
X112357857Y-24044523D01*
X112357857Y-24044523D02*
X112453095Y-24044523D01*
X112453095Y-24044523D02*
X112595952Y-23996904D01*
X112595952Y-23996904D02*
X113167380Y-23425476D01*
X113167380Y-23425476D02*
X113167380Y-24044523D01*
X112167380Y-24949285D02*
X112167380Y-24473095D01*
X112167380Y-24473095D02*
X112643571Y-24425476D01*
X112643571Y-24425476D02*
X112595952Y-24473095D01*
X112595952Y-24473095D02*
X112548333Y-24568333D01*
X112548333Y-24568333D02*
X112548333Y-24806428D01*
X112548333Y-24806428D02*
X112595952Y-24901666D01*
X112595952Y-24901666D02*
X112643571Y-24949285D01*
X112643571Y-24949285D02*
X112738809Y-24996904D01*
X112738809Y-24996904D02*
X112976904Y-24996904D01*
X112976904Y-24996904D02*
X113072142Y-24949285D01*
X113072142Y-24949285D02*
X113119761Y-24901666D01*
X113119761Y-24901666D02*
X113167380Y-24806428D01*
X113167380Y-24806428D02*
X113167380Y-24568333D01*
X113167380Y-24568333D02*
X113119761Y-24473095D01*
X113119761Y-24473095D02*
X113072142Y-24425476D01*
X111272142Y-19957142D02*
X111319761Y-19909523D01*
X111319761Y-19909523D02*
X111367380Y-19766666D01*
X111367380Y-19766666D02*
X111367380Y-19671428D01*
X111367380Y-19671428D02*
X111319761Y-19528571D01*
X111319761Y-19528571D02*
X111224523Y-19433333D01*
X111224523Y-19433333D02*
X111129285Y-19385714D01*
X111129285Y-19385714D02*
X110938809Y-19338095D01*
X110938809Y-19338095D02*
X110795952Y-19338095D01*
X110795952Y-19338095D02*
X110605476Y-19385714D01*
X110605476Y-19385714D02*
X110510238Y-19433333D01*
X110510238Y-19433333D02*
X110415000Y-19528571D01*
X110415000Y-19528571D02*
X110367380Y-19671428D01*
X110367380Y-19671428D02*
X110367380Y-19766666D01*
X110367380Y-19766666D02*
X110415000Y-19909523D01*
X110415000Y-19909523D02*
X110462619Y-19957142D01*
X110462619Y-20338095D02*
X110415000Y-20385714D01*
X110415000Y-20385714D02*
X110367380Y-20480952D01*
X110367380Y-20480952D02*
X110367380Y-20719047D01*
X110367380Y-20719047D02*
X110415000Y-20814285D01*
X110415000Y-20814285D02*
X110462619Y-20861904D01*
X110462619Y-20861904D02*
X110557857Y-20909523D01*
X110557857Y-20909523D02*
X110653095Y-20909523D01*
X110653095Y-20909523D02*
X110795952Y-20861904D01*
X110795952Y-20861904D02*
X111367380Y-20290476D01*
X111367380Y-20290476D02*
X111367380Y-20909523D01*
X111367380Y-21385714D02*
X111367380Y-21576190D01*
X111367380Y-21576190D02*
X111319761Y-21671428D01*
X111319761Y-21671428D02*
X111272142Y-21719047D01*
X111272142Y-21719047D02*
X111129285Y-21814285D01*
X111129285Y-21814285D02*
X110938809Y-21861904D01*
X110938809Y-21861904D02*
X110557857Y-21861904D01*
X110557857Y-21861904D02*
X110462619Y-21814285D01*
X110462619Y-21814285D02*
X110415000Y-21766666D01*
X110415000Y-21766666D02*
X110367380Y-21671428D01*
X110367380Y-21671428D02*
X110367380Y-21480952D01*
X110367380Y-21480952D02*
X110415000Y-21385714D01*
X110415000Y-21385714D02*
X110462619Y-21338095D01*
X110462619Y-21338095D02*
X110557857Y-21290476D01*
X110557857Y-21290476D02*
X110795952Y-21290476D01*
X110795952Y-21290476D02*
X110891190Y-21338095D01*
X110891190Y-21338095D02*
X110938809Y-21385714D01*
X110938809Y-21385714D02*
X110986428Y-21480952D01*
X110986428Y-21480952D02*
X110986428Y-21671428D01*
X110986428Y-21671428D02*
X110938809Y-21766666D01*
X110938809Y-21766666D02*
X110891190Y-21814285D01*
X110891190Y-21814285D02*
X110795952Y-21861904D01*
X100284880Y-26525833D02*
X99808690Y-26192500D01*
X100284880Y-25954405D02*
X99284880Y-25954405D01*
X99284880Y-25954405D02*
X99284880Y-26335357D01*
X99284880Y-26335357D02*
X99332500Y-26430595D01*
X99332500Y-26430595D02*
X99380119Y-26478214D01*
X99380119Y-26478214D02*
X99475357Y-26525833D01*
X99475357Y-26525833D02*
X99618214Y-26525833D01*
X99618214Y-26525833D02*
X99713452Y-26478214D01*
X99713452Y-26478214D02*
X99761071Y-26430595D01*
X99761071Y-26430595D02*
X99808690Y-26335357D01*
X99808690Y-26335357D02*
X99808690Y-25954405D01*
X100284880Y-27002024D02*
X100284880Y-27192500D01*
X100284880Y-27192500D02*
X100237261Y-27287738D01*
X100237261Y-27287738D02*
X100189642Y-27335357D01*
X100189642Y-27335357D02*
X100046785Y-27430595D01*
X100046785Y-27430595D02*
X99856309Y-27478214D01*
X99856309Y-27478214D02*
X99475357Y-27478214D01*
X99475357Y-27478214D02*
X99380119Y-27430595D01*
X99380119Y-27430595D02*
X99332500Y-27382976D01*
X99332500Y-27382976D02*
X99284880Y-27287738D01*
X99284880Y-27287738D02*
X99284880Y-27097262D01*
X99284880Y-27097262D02*
X99332500Y-27002024D01*
X99332500Y-27002024D02*
X99380119Y-26954405D01*
X99380119Y-26954405D02*
X99475357Y-26906786D01*
X99475357Y-26906786D02*
X99713452Y-26906786D01*
X99713452Y-26906786D02*
X99808690Y-26954405D01*
X99808690Y-26954405D02*
X99856309Y-27002024D01*
X99856309Y-27002024D02*
X99903928Y-27097262D01*
X99903928Y-27097262D02*
X99903928Y-27287738D01*
X99903928Y-27287738D02*
X99856309Y-27382976D01*
X99856309Y-27382976D02*
X99808690Y-27430595D01*
X99808690Y-27430595D02*
X99713452Y-27478214D01*
X92233333Y-22629380D02*
X92233333Y-23343666D01*
X92233333Y-23343666D02*
X92280952Y-23486523D01*
X92280952Y-23486523D02*
X92376190Y-23581761D01*
X92376190Y-23581761D02*
X92519047Y-23629380D01*
X92519047Y-23629380D02*
X92614285Y-23629380D01*
X91328571Y-22962714D02*
X91328571Y-23629380D01*
X91566666Y-22581761D02*
X91804761Y-23296047D01*
X91804761Y-23296047D02*
X91185714Y-23296047D01*
X91899999Y-21367380D02*
X91899999Y-21605476D01*
X92138094Y-21510238D02*
X91899999Y-21605476D01*
X91899999Y-21605476D02*
X91661904Y-21510238D01*
X92042856Y-21795952D02*
X91899999Y-21605476D01*
X91899999Y-21605476D02*
X91757142Y-21795952D01*
X92462619Y-37904761D02*
X92415000Y-37809523D01*
X92415000Y-37809523D02*
X92319761Y-37714285D01*
X92319761Y-37714285D02*
X92176904Y-37571428D01*
X92176904Y-37571428D02*
X92129285Y-37476190D01*
X92129285Y-37476190D02*
X92129285Y-37380952D01*
X92367380Y-37428571D02*
X92319761Y-37333333D01*
X92319761Y-37333333D02*
X92224523Y-37238095D01*
X92224523Y-37238095D02*
X92034047Y-37190476D01*
X92034047Y-37190476D02*
X91700714Y-37190476D01*
X91700714Y-37190476D02*
X91510238Y-37238095D01*
X91510238Y-37238095D02*
X91415000Y-37333333D01*
X91415000Y-37333333D02*
X91367380Y-37428571D01*
X91367380Y-37428571D02*
X91367380Y-37619047D01*
X91367380Y-37619047D02*
X91415000Y-37714285D01*
X91415000Y-37714285D02*
X91510238Y-37809523D01*
X91510238Y-37809523D02*
X91700714Y-37857142D01*
X91700714Y-37857142D02*
X92034047Y-37857142D01*
X92034047Y-37857142D02*
X92224523Y-37809523D01*
X92224523Y-37809523D02*
X92319761Y-37714285D01*
X92319761Y-37714285D02*
X92367380Y-37619047D01*
X92367380Y-37619047D02*
X92367380Y-37428571D01*
X91462619Y-38238095D02*
X91415000Y-38285714D01*
X91415000Y-38285714D02*
X91367380Y-38380952D01*
X91367380Y-38380952D02*
X91367380Y-38619047D01*
X91367380Y-38619047D02*
X91415000Y-38714285D01*
X91415000Y-38714285D02*
X91462619Y-38761904D01*
X91462619Y-38761904D02*
X91557857Y-38809523D01*
X91557857Y-38809523D02*
X91653095Y-38809523D01*
X91653095Y-38809523D02*
X91795952Y-38761904D01*
X91795952Y-38761904D02*
X92367380Y-38190476D01*
X92367380Y-38190476D02*
X92367380Y-38809523D01*
X102562619Y-33104761D02*
X102515000Y-33009523D01*
X102515000Y-33009523D02*
X102419761Y-32914285D01*
X102419761Y-32914285D02*
X102276904Y-32771428D01*
X102276904Y-32771428D02*
X102229285Y-32676190D01*
X102229285Y-32676190D02*
X102229285Y-32580952D01*
X102467380Y-32628571D02*
X102419761Y-32533333D01*
X102419761Y-32533333D02*
X102324523Y-32438095D01*
X102324523Y-32438095D02*
X102134047Y-32390476D01*
X102134047Y-32390476D02*
X101800714Y-32390476D01*
X101800714Y-32390476D02*
X101610238Y-32438095D01*
X101610238Y-32438095D02*
X101515000Y-32533333D01*
X101515000Y-32533333D02*
X101467380Y-32628571D01*
X101467380Y-32628571D02*
X101467380Y-32819047D01*
X101467380Y-32819047D02*
X101515000Y-32914285D01*
X101515000Y-32914285D02*
X101610238Y-33009523D01*
X101610238Y-33009523D02*
X101800714Y-33057142D01*
X101800714Y-33057142D02*
X102134047Y-33057142D01*
X102134047Y-33057142D02*
X102324523Y-33009523D01*
X102324523Y-33009523D02*
X102419761Y-32914285D01*
X102419761Y-32914285D02*
X102467380Y-32819047D01*
X102467380Y-32819047D02*
X102467380Y-32628571D01*
X101467380Y-33390476D02*
X101467380Y-34009523D01*
X101467380Y-34009523D02*
X101848333Y-33676190D01*
X101848333Y-33676190D02*
X101848333Y-33819047D01*
X101848333Y-33819047D02*
X101895952Y-33914285D01*
X101895952Y-33914285D02*
X101943571Y-33961904D01*
X101943571Y-33961904D02*
X102038809Y-34009523D01*
X102038809Y-34009523D02*
X102276904Y-34009523D01*
X102276904Y-34009523D02*
X102372142Y-33961904D01*
X102372142Y-33961904D02*
X102419761Y-33914285D01*
X102419761Y-33914285D02*
X102467380Y-33819047D01*
X102467380Y-33819047D02*
X102467380Y-33533333D01*
X102467380Y-33533333D02*
X102419761Y-33438095D01*
X102419761Y-33438095D02*
X102372142Y-33390476D01*
X98567380Y-24433333D02*
X98091190Y-24100000D01*
X98567380Y-23861905D02*
X97567380Y-23861905D01*
X97567380Y-23861905D02*
X97567380Y-24242857D01*
X97567380Y-24242857D02*
X97615000Y-24338095D01*
X97615000Y-24338095D02*
X97662619Y-24385714D01*
X97662619Y-24385714D02*
X97757857Y-24433333D01*
X97757857Y-24433333D02*
X97900714Y-24433333D01*
X97900714Y-24433333D02*
X97995952Y-24385714D01*
X97995952Y-24385714D02*
X98043571Y-24338095D01*
X98043571Y-24338095D02*
X98091190Y-24242857D01*
X98091190Y-24242857D02*
X98091190Y-23861905D01*
X97567380Y-24766667D02*
X97567380Y-25433333D01*
X97567380Y-25433333D02*
X98567380Y-25004762D01*
X95812619Y-35354761D02*
X95765000Y-35259523D01*
X95765000Y-35259523D02*
X95669761Y-35164285D01*
X95669761Y-35164285D02*
X95526904Y-35021428D01*
X95526904Y-35021428D02*
X95479285Y-34926190D01*
X95479285Y-34926190D02*
X95479285Y-34830952D01*
X95717380Y-34878571D02*
X95669761Y-34783333D01*
X95669761Y-34783333D02*
X95574523Y-34688095D01*
X95574523Y-34688095D02*
X95384047Y-34640476D01*
X95384047Y-34640476D02*
X95050714Y-34640476D01*
X95050714Y-34640476D02*
X94860238Y-34688095D01*
X94860238Y-34688095D02*
X94765000Y-34783333D01*
X94765000Y-34783333D02*
X94717380Y-34878571D01*
X94717380Y-34878571D02*
X94717380Y-35069047D01*
X94717380Y-35069047D02*
X94765000Y-35164285D01*
X94765000Y-35164285D02*
X94860238Y-35259523D01*
X94860238Y-35259523D02*
X95050714Y-35307142D01*
X95050714Y-35307142D02*
X95384047Y-35307142D01*
X95384047Y-35307142D02*
X95574523Y-35259523D01*
X95574523Y-35259523D02*
X95669761Y-35164285D01*
X95669761Y-35164285D02*
X95717380Y-35069047D01*
X95717380Y-35069047D02*
X95717380Y-34878571D01*
X95717380Y-36259523D02*
X95717380Y-35688095D01*
X95717380Y-35973809D02*
X94717380Y-35973809D01*
X94717380Y-35973809D02*
X94860238Y-35878571D01*
X94860238Y-35878571D02*
X94955476Y-35783333D01*
X94955476Y-35783333D02*
X95003095Y-35688095D01*
X94034880Y-26775833D02*
X93558690Y-26442500D01*
X94034880Y-26204405D02*
X93034880Y-26204405D01*
X93034880Y-26204405D02*
X93034880Y-26585357D01*
X93034880Y-26585357D02*
X93082500Y-26680595D01*
X93082500Y-26680595D02*
X93130119Y-26728214D01*
X93130119Y-26728214D02*
X93225357Y-26775833D01*
X93225357Y-26775833D02*
X93368214Y-26775833D01*
X93368214Y-26775833D02*
X93463452Y-26728214D01*
X93463452Y-26728214D02*
X93511071Y-26680595D01*
X93511071Y-26680595D02*
X93558690Y-26585357D01*
X93558690Y-26585357D02*
X93558690Y-26204405D01*
X93463452Y-27347262D02*
X93415833Y-27252024D01*
X93415833Y-27252024D02*
X93368214Y-27204405D01*
X93368214Y-27204405D02*
X93272976Y-27156786D01*
X93272976Y-27156786D02*
X93225357Y-27156786D01*
X93225357Y-27156786D02*
X93130119Y-27204405D01*
X93130119Y-27204405D02*
X93082500Y-27252024D01*
X93082500Y-27252024D02*
X93034880Y-27347262D01*
X93034880Y-27347262D02*
X93034880Y-27537738D01*
X93034880Y-27537738D02*
X93082500Y-27632976D01*
X93082500Y-27632976D02*
X93130119Y-27680595D01*
X93130119Y-27680595D02*
X93225357Y-27728214D01*
X93225357Y-27728214D02*
X93272976Y-27728214D01*
X93272976Y-27728214D02*
X93368214Y-27680595D01*
X93368214Y-27680595D02*
X93415833Y-27632976D01*
X93415833Y-27632976D02*
X93463452Y-27537738D01*
X93463452Y-27537738D02*
X93463452Y-27347262D01*
X93463452Y-27347262D02*
X93511071Y-27252024D01*
X93511071Y-27252024D02*
X93558690Y-27204405D01*
X93558690Y-27204405D02*
X93653928Y-27156786D01*
X93653928Y-27156786D02*
X93844404Y-27156786D01*
X93844404Y-27156786D02*
X93939642Y-27204405D01*
X93939642Y-27204405D02*
X93987261Y-27252024D01*
X93987261Y-27252024D02*
X94034880Y-27347262D01*
X94034880Y-27347262D02*
X94034880Y-27537738D01*
X94034880Y-27537738D02*
X93987261Y-27632976D01*
X93987261Y-27632976D02*
X93939642Y-27680595D01*
X93939642Y-27680595D02*
X93844404Y-27728214D01*
X93844404Y-27728214D02*
X93653928Y-27728214D01*
X93653928Y-27728214D02*
X93558690Y-27680595D01*
X93558690Y-27680595D02*
X93511071Y-27632976D01*
X93511071Y-27632976D02*
X93463452Y-27537738D01*
D12*
X102007836Y-20260000D02*
X101792164Y-20260000D01*
X102007836Y-19540000D02*
X101792164Y-19540000D01*
D13*
X104033813Y-19478923D02*
G75*
G03*
X103886189Y-19478923I-73812J18923D01*
G01*
X106167001Y-21767000D02*
X103913001Y-21767000D01*
D14*
X86381000Y-32702500D02*
G75*
G03*
X86381000Y-32702500I-381000J0D01*
G01*
D12*
X102553641Y-18420000D02*
X102246359Y-18420000D01*
X102553641Y-19180000D02*
X102246359Y-19180000D01*
X101240000Y-23490000D02*
X102790000Y-23490000D01*
X101240000Y-31310000D02*
X102790000Y-31310000D01*
X108360000Y-23490000D02*
X106810000Y-23490000D01*
X108360000Y-31310000D02*
X106810000Y-31310000D01*
X101240000Y-31310000D02*
X101240000Y-23490000D01*
X108360000Y-31310000D02*
X108360000Y-23490000D01*
D14*
X108593001Y-24844701D02*
G75*
G03*
X108593001Y-24844701I-381000J0D01*
G01*
D12*
X109790190Y-20454420D02*
X109790190Y-20735580D01*
X108770190Y-20454420D02*
X108770190Y-20735580D01*
X104678026Y-19080000D02*
X104462354Y-19080000D01*
X104678026Y-18360000D02*
X104462354Y-18360000D01*
X102096549Y-21960000D02*
X102403831Y-21960000D01*
X102096549Y-21200000D02*
X102403831Y-21200000D01*
X100253641Y-21220000D02*
X99946359Y-21220000D01*
X100253641Y-21980000D02*
X99946359Y-21980000D01*
X108790000Y-23594420D02*
X108790000Y-23875580D01*
X109810000Y-23594420D02*
X109810000Y-23875580D01*
X108090190Y-20735580D02*
X108090190Y-20454420D01*
X107070190Y-20735580D02*
X107070190Y-20454420D01*
X99040000Y-26705242D02*
X99040000Y-27179758D01*
X97995000Y-26705242D02*
X97995000Y-27179758D01*
X95773500Y-18850400D02*
X95773500Y-25149600D01*
X94324460Y-25149600D02*
X89475540Y-25149600D01*
X94262939Y-18850400D02*
X95773500Y-18850400D01*
X92562940Y-18850400D02*
X92937059Y-18850400D01*
X90862941Y-18850400D02*
X91237060Y-18850400D01*
X88026500Y-25149600D02*
X88026500Y-18850400D01*
X88026500Y-18850400D02*
X89537061Y-18850400D01*
X97932500Y-18977400D02*
G75*
G03*
X97932500Y-18977400I-381000J0D01*
G01*
X91170000Y-33640000D02*
X91170000Y-35100000D01*
X91170000Y-33640000D02*
X92100000Y-33640000D01*
X94330000Y-33640000D02*
X94330000Y-36800000D01*
X94330000Y-33640000D02*
X93400000Y-33640000D01*
X97820000Y-30890000D02*
X97820000Y-32350000D01*
X97820000Y-30890000D02*
X98750000Y-30890000D01*
X100980000Y-30890000D02*
X100980000Y-34050000D01*
X100980000Y-30890000D02*
X100050000Y-30890000D01*
X97440000Y-26705242D02*
X97440000Y-27179758D01*
X96395000Y-26705242D02*
X96395000Y-27179758D01*
X94720000Y-30590000D02*
X94720000Y-32050000D01*
X94720000Y-30590000D02*
X95650000Y-30590000D01*
X97880000Y-30590000D02*
X97880000Y-33750000D01*
X97880000Y-30590000D02*
X96950000Y-30590000D01*
X95840000Y-26705242D02*
X95840000Y-27179758D01*
X94795000Y-26705242D02*
X94795000Y-27179758D01*
%LPC*%
D15*
X102380000Y-19900000D03*
X101420000Y-19900000D03*
D16*
X104140000Y-21387982D03*
X104140000Y-20887856D03*
D17*
X104140000Y-20387730D03*
X104140000Y-19889999D03*
D18*
X105040000Y-20639999D03*
D19*
X105580600Y-20042205D03*
D20*
X105580600Y-21382205D03*
D21*
X86000000Y-19596100D03*
X86000000Y-24295100D03*
X86000000Y-28994100D03*
D22*
X102910000Y-18800000D03*
X101890000Y-18800000D03*
D23*
X104799999Y-24374999D03*
X104799999Y-30424999D03*
D24*
X109280190Y-19820000D03*
X109280190Y-21370000D03*
D15*
X105050190Y-18720000D03*
X104090190Y-18720000D03*
D25*
X101740190Y-21580000D03*
X102760190Y-21580000D03*
D22*
X100610000Y-21600000D03*
X99590000Y-21600000D03*
D26*
X92556111Y-28931299D03*
X93343511Y-28931299D03*
X93343511Y-29718699D03*
X92556111Y-29718699D03*
D24*
X109300000Y-22960000D03*
X109300000Y-24510000D03*
D27*
X104396499Y-37325001D03*
X106003501Y-38846499D03*
X104396499Y-38846499D03*
X107524999Y-40453501D03*
X106003501Y-40453501D03*
X104396499Y-40453501D03*
X104396499Y-41974999D03*
X106003501Y-37325001D03*
X102875001Y-38846499D03*
X102875001Y-40453501D03*
X106003501Y-41974999D03*
X107524999Y-38846499D03*
D28*
X121629999Y-30304999D03*
X121629999Y-31574999D03*
X120359999Y-30304999D03*
X120359999Y-31574999D03*
X119089999Y-30304999D03*
X119089999Y-31574999D03*
X117819999Y-30304999D03*
X117819999Y-31574999D03*
X116549999Y-30304999D03*
D29*
X116549999Y-31574999D03*
D30*
X107580190Y-21370000D03*
X107580190Y-19820000D03*
D31*
X119874999Y-18529999D03*
D32*
X115694999Y-18529999D03*
D31*
X119874999Y-27169999D03*
D32*
X115694999Y-27169999D03*
D33*
X116195000Y-19960000D03*
X116195000Y-25740000D03*
D34*
X98517500Y-26117500D03*
X98517500Y-27767500D03*
D35*
X93599998Y-18561999D03*
X91899999Y-18561999D03*
X90200000Y-18561999D03*
D36*
X94974999Y-24027399D03*
X88824999Y-24027399D03*
D37*
X93699999Y-35899999D03*
X91799999Y-35899999D03*
X92749999Y-32899999D03*
X100349999Y-33149999D03*
X98449999Y-33149999D03*
X99399999Y-30149999D03*
D34*
X96917500Y-26117500D03*
X96917500Y-27767500D03*
D37*
X97249999Y-32849999D03*
X95349999Y-32849999D03*
X96299999Y-29849999D03*
D34*
X95317500Y-26117500D03*
X95317500Y-27767500D03*
M02*
