G04 #@! TF.GenerationSoftware,KiCad,Pcbnew,(7.0.0)*
G04 #@! TF.CreationDate,2023-11-04T10:57:54-04:00*
G04 #@! TF.ProjectId,Emrick,456d7269-636b-42e6-9b69-6361645f7063,5.1*
G04 #@! TF.SameCoordinates,Original*
G04 #@! TF.FileFunction,Soldermask,Bot*
G04 #@! TF.FilePolarity,Negative*
%FSLAX46Y46*%
G04 Gerber Fmt 4.6, Leading zero omitted, Abs format (unit mm)*
G04 Created by KiCad (PCBNEW (7.0.0)) date 2023-11-04 10:57:54*
%MOMM*%
%LPD*%
G01*
G04 APERTURE LIST*
G04 Aperture macros list*
%AMRoundRect*
0 Rectangle with rounded corners*
0 $1 Rounding radius*
0 $2 $3 $4 $5 $6 $7 $8 $9 X,Y pos of 4 corners*
0 Add a 4 corners polygon primitive as box body*
4,1,4,$2,$3,$4,$5,$6,$7,$8,$9,$2,$3,0*
0 Add four circle primitives for the rounded corners*
1,1,$1+$1,$2,$3*
1,1,$1+$1,$4,$5*
1,1,$1+$1,$6,$7*
1,1,$1+$1,$8,$9*
0 Add four rect primitives between the rounded corners*
20,1,$1+$1,$2,$3,$4,$5,0*
20,1,$1+$1,$4,$5,$6,$7,0*
20,1,$1+$1,$6,$7,$8,$9,0*
20,1,$1+$1,$8,$9,$2,$3,0*%
G04 Aperture macros list end*
%ADD10C,0.508000*%
%ADD11R,1.800000X1.800000*%
%ADD12C,1.800000*%
%ADD13O,2.500000X1.200000*%
%ADD14C,0.499999*%
%ADD15R,1.000000X1.000000*%
%ADD16O,1.000000X1.000000*%
%ADD17C,0.650000*%
%ADD18O,2.100000X1.000000*%
%ADD19O,1.600000X1.000000*%
%ADD20RoundRect,0.135000X-0.135000X-0.185000X0.135000X-0.185000X0.135000X0.185000X-0.135000X0.185000X0*%
%ADD21R,3.500000X2.350000*%
%ADD22RoundRect,0.200000X-0.275000X0.200000X-0.275000X-0.200000X0.275000X-0.200000X0.275000X0.200000X0*%
%ADD23RoundRect,0.135000X-0.185000X0.135000X-0.185000X-0.135000X0.185000X-0.135000X0.185000X0.135000X0*%
%ADD24RoundRect,0.135000X0.135000X0.185000X-0.135000X0.185000X-0.135000X-0.185000X0.135000X-0.185000X0*%
%ADD25R,0.700000X1.000000*%
%ADD26R,0.700000X0.600000*%
%ADD27R,0.660400X2.000000*%
%ADD28R,0.762000X1.854200*%
%ADD29RoundRect,0.140000X0.140000X0.170000X-0.140000X0.170000X-0.140000X-0.170000X0.140000X-0.170000X0*%
%ADD30RoundRect,0.225000X-0.250000X0.225000X-0.250000X-0.225000X0.250000X-0.225000X0.250000X0.225000X0*%
%ADD31RoundRect,0.140000X0.170000X-0.140000X0.170000X0.140000X-0.170000X0.140000X-0.170000X-0.140000X0*%
%ADD32R,0.800000X1.900000*%
%ADD33RoundRect,0.225000X0.250000X-0.225000X0.250000X0.225000X-0.250000X0.225000X-0.250000X-0.225000X0*%
%ADD34R,0.600000X0.250000*%
%ADD35R,0.600000X0.249200*%
%ADD36R,0.250000X2.400000*%
%ADD37R,0.300000X0.900000*%
%ADD38R,0.300000X1.200000*%
%ADD39RoundRect,0.135000X0.185000X-0.135000X0.185000X0.135000X-0.185000X0.135000X-0.185000X-0.135000X0*%
G04 APERTURE END LIST*
D10*
X92831299Y-29756299D03*
X92831299Y-30543699D03*
X93618699Y-29756299D03*
X93618699Y-30543699D03*
D11*
X82549999Y-27129999D03*
D12*
X82550000Y-24130000D03*
X82550000Y-21130000D03*
D13*
X82549999Y-18329999D03*
X82549999Y-29929999D03*
D14*
X104396499Y-41974999D03*
X106003501Y-41974999D03*
X102875001Y-40453501D03*
X104396499Y-40453501D03*
X106003501Y-40453501D03*
X107524999Y-40453501D03*
X102875001Y-38846499D03*
X104396499Y-38846499D03*
X106003501Y-38846499D03*
X107524999Y-38846499D03*
X104396499Y-37325001D03*
X106003501Y-37325001D03*
D15*
X116549999Y-31574999D03*
D16*
X116549999Y-30304999D03*
X117819999Y-31574999D03*
X117819999Y-30304999D03*
X119089999Y-31574999D03*
X119089999Y-30304999D03*
X120359999Y-31574999D03*
X120359999Y-30304999D03*
X121629999Y-31574999D03*
X121629999Y-30304999D03*
D17*
X116195000Y-25740000D03*
X116195000Y-19960000D03*
D18*
X115694999Y-27169999D03*
D19*
X119874999Y-27169999D03*
D18*
X115694999Y-18529999D03*
D19*
X119874999Y-18529999D03*
D20*
X101740190Y-21580000D03*
X102760190Y-21580000D03*
D21*
X104799999Y-30424999D03*
X104799999Y-24374999D03*
D22*
X98517500Y-26117500D03*
X98517500Y-27767500D03*
D23*
X118825000Y-28090000D03*
X118825000Y-29110000D03*
D24*
X102910000Y-18800000D03*
X101890000Y-18800000D03*
D25*
X120074999Y-20399999D03*
D26*
X120074999Y-22099999D03*
X118074999Y-22099999D03*
X118074999Y-20199999D03*
D27*
X86692000Y-24261399D03*
X88391999Y-24261399D03*
X90091998Y-24261399D03*
D28*
X85316999Y-18795999D03*
X91466999Y-18795999D03*
D24*
X100760000Y-20975000D03*
X99740000Y-20975000D03*
D29*
X102380000Y-19900000D03*
X101420000Y-19900000D03*
D30*
X110625000Y-22750000D03*
X110625000Y-24300000D03*
D31*
X117750000Y-29080000D03*
X117750000Y-28120000D03*
D32*
X93699999Y-35899999D03*
X91799999Y-35899999D03*
X92749999Y-32899999D03*
X100349999Y-33149999D03*
X98449999Y-33149999D03*
X99399999Y-30149999D03*
D30*
X108775000Y-19825000D03*
X108775000Y-21375000D03*
D33*
X107225000Y-21375000D03*
X107225000Y-19825000D03*
D23*
X96575000Y-37615000D03*
X96575000Y-38635000D03*
D29*
X105050190Y-18720000D03*
X104090190Y-18720000D03*
D34*
X104140000Y-19889999D03*
X104140000Y-20387730D03*
D35*
X104140000Y-20887856D03*
X104140000Y-21387982D03*
D36*
X105040000Y-20639999D03*
D37*
X105580600Y-21382205D03*
D38*
X105580600Y-20042205D03*
D22*
X96917500Y-26117500D03*
X96917500Y-27767500D03*
D32*
X97249999Y-32849999D03*
X95349999Y-32849999D03*
X96299999Y-29849999D03*
D39*
X121675000Y-20545000D03*
X121675000Y-19525000D03*
D22*
X95317500Y-26117500D03*
X95317500Y-27767500D03*
M02*
