G04 #@! TF.GenerationSoftware,KiCad,Pcbnew,(7.0.0)*
G04 #@! TF.CreationDate,2023-05-25T13:49:03-05:00*
G04 #@! TF.ProjectId,Emrick,456d7269-636b-42e6-9b69-6361645f7063,3*
G04 #@! TF.SameCoordinates,Original*
G04 #@! TF.FileFunction,Copper,L2,Inr*
G04 #@! TF.FilePolarity,Positive*
%FSLAX46Y46*%
G04 Gerber Fmt 4.6, Leading zero omitted, Abs format (unit mm)*
G04 Created by KiCad (PCBNEW (7.0.0)) date 2023-05-25 13:49:03*
%MOMM*%
%LPD*%
G01*
G04 APERTURE LIST*
G04 #@! TA.AperFunction,ComponentPad*
%ADD10C,2.057400*%
G04 #@! TD*
G04 #@! TA.AperFunction,ComponentPad*
%ADD11C,0.508000*%
G04 #@! TD*
G04 #@! TA.AperFunction,ComponentPad*
%ADD12C,0.499999*%
G04 #@! TD*
G04 #@! TA.AperFunction,ComponentPad*
%ADD13O,1.000000X1.000000*%
G04 #@! TD*
G04 #@! TA.AperFunction,ComponentPad*
%ADD14R,1.000000X1.000000*%
G04 #@! TD*
G04 #@! TA.AperFunction,ComponentPad*
%ADD15O,1.600000X1.000000*%
G04 #@! TD*
G04 #@! TA.AperFunction,ComponentPad*
%ADD16O,2.100000X1.000000*%
G04 #@! TD*
G04 #@! TA.AperFunction,ViaPad*
%ADD17C,0.600000*%
G04 #@! TD*
G04 #@! TA.AperFunction,ViaPad*
%ADD18C,0.800000*%
G04 #@! TD*
G04 #@! TA.AperFunction,ViaPad*
%ADD19C,0.700000*%
G04 #@! TD*
G04 #@! TA.AperFunction,Conductor*
%ADD20C,0.250000*%
G04 #@! TD*
G04 #@! TA.AperFunction,Conductor*
%ADD21C,0.300000*%
G04 #@! TD*
G04 #@! TA.AperFunction,Conductor*
%ADD22C,0.500000*%
G04 #@! TD*
G04 APERTURE END LIST*
D10*
X86000000Y-19596100D03*
X86000000Y-24295100D03*
X86000000Y-28994100D03*
D11*
X92556111Y-28931299D03*
X93343511Y-28931299D03*
X93343511Y-29718699D03*
X92556111Y-29718699D03*
D12*
X104396499Y-37325001D03*
X106003501Y-38846499D03*
X104396499Y-38846499D03*
X107524999Y-40453501D03*
X106003501Y-40453501D03*
X104396499Y-40453501D03*
X104396499Y-41974999D03*
X106003501Y-37325001D03*
X102875001Y-38846499D03*
X102875001Y-40453501D03*
X106003501Y-41974999D03*
X107524999Y-38846499D03*
D13*
X121629999Y-30304999D03*
X121629999Y-31574999D03*
X120359999Y-30304999D03*
X120359999Y-31574999D03*
X119089999Y-30304999D03*
X119089999Y-31574999D03*
X117819999Y-30304999D03*
X117819999Y-31574999D03*
X116549999Y-30304999D03*
D14*
X116549999Y-31574999D03*
D15*
X119874999Y-18529999D03*
D16*
X115694999Y-18529999D03*
D15*
X119874999Y-27169999D03*
D16*
X115694999Y-27169999D03*
D17*
X97000000Y-24800000D03*
X96800000Y-23400000D03*
X96400000Y-24200000D03*
X96200000Y-24900000D03*
X97100000Y-24100000D03*
X93649502Y-33000000D03*
X100800000Y-18700000D03*
X108430190Y-18300000D03*
X107580190Y-22346799D03*
X100100000Y-20699500D03*
X96100000Y-26900000D03*
X92600000Y-26800000D03*
X110299367Y-30633506D03*
X112100000Y-28500000D03*
X101700000Y-35800000D03*
X99400000Y-35300000D03*
X98700000Y-33400000D03*
X100500000Y-22500000D03*
X88300000Y-34500000D03*
X87000000Y-34409500D03*
X93000000Y-37700000D03*
X95500000Y-38400000D03*
X100835473Y-39340371D03*
X97500000Y-39000000D03*
X91200000Y-34100000D03*
X90100000Y-33100000D03*
X100900000Y-38300000D03*
X96116518Y-36525000D03*
X97748115Y-35170894D03*
X101107677Y-36525500D03*
X95200000Y-32500000D03*
X88700000Y-25600000D03*
X90400000Y-31800000D03*
X92099310Y-26000000D03*
D18*
X91800000Y-20400000D03*
X110600000Y-26800000D03*
X111600000Y-26800000D03*
X110600000Y-25900000D03*
X111600000Y-25900000D03*
X110600000Y-24900000D03*
X111600000Y-24900000D03*
X111600000Y-23900000D03*
X110600000Y-23900000D03*
X109150048Y-29449951D03*
X102000000Y-27500000D03*
X102000000Y-28400000D03*
X102000000Y-29300000D03*
X102000000Y-30200000D03*
D17*
X120900000Y-84532500D03*
X90600000Y-88432500D03*
X111900000Y-78332500D03*
X93100000Y-89632500D03*
X111200000Y-83432500D03*
X121000000Y-78432500D03*
X109200000Y-79732500D03*
X95800000Y-74632500D03*
X102600000Y-79632500D03*
X97000000Y-88432500D03*
X90800000Y-84532500D03*
X108500000Y-84632500D03*
X106200000Y-78332500D03*
X92400000Y-73332500D03*
X94300000Y-83432500D03*
X83900000Y-84732500D03*
X105600000Y-83432500D03*
X83700000Y-73332500D03*
X102900000Y-74532500D03*
X87500000Y-83432500D03*
X119700000Y-81532500D03*
X97200000Y-84732500D03*
X99900000Y-73332500D03*
X101800000Y-66432500D03*
X116900000Y-83432500D03*
X83700000Y-79732500D03*
X95600000Y-79732500D03*
X83900000Y-89232500D03*
X86900000Y-89732500D03*
X88500000Y-79632500D03*
X89300000Y-74632500D03*
X118700000Y-79632500D03*
X103000000Y-69332500D03*
X101800000Y-72032500D03*
X83700000Y-77032500D03*
X102800000Y-84632500D03*
X114600000Y-84632500D03*
X114500000Y-79732500D03*
X85000000Y-86832500D03*
X117400000Y-78432500D03*
X86000000Y-78432500D03*
X84700000Y-75032500D03*
X91700000Y-78432500D03*
X100500000Y-89732500D03*
X100200000Y-83432500D03*
X86900000Y-73432500D03*
X99200000Y-78332500D03*
X83500000Y-48650000D03*
D19*
X99250000Y-46450000D03*
D18*
X120450000Y-33700000D03*
D17*
X93600000Y-43250000D03*
X93900000Y-57150000D03*
X84200000Y-51300000D03*
X113711515Y-18105387D03*
X99500000Y-56950000D03*
X92500000Y-52250000D03*
D19*
X98450000Y-38450000D03*
D17*
X88300000Y-55450000D03*
D19*
X112729962Y-47808742D03*
D18*
X113950000Y-26700000D03*
D17*
X121550000Y-20350000D03*
X95500000Y-53400000D03*
X95300000Y-48800000D03*
X122200000Y-51850000D03*
X86200000Y-51400000D03*
X118000000Y-45200000D03*
X121600000Y-60950000D03*
X122300000Y-46200000D03*
X89150000Y-51600000D03*
X105300000Y-60450000D03*
X94750000Y-45950000D03*
X83500000Y-44850000D03*
X98200000Y-51650000D03*
D18*
X115200000Y-37450000D03*
D17*
X85000000Y-53200000D03*
X98300000Y-46950000D03*
D18*
X116025000Y-50875000D03*
D17*
X121550000Y-24350000D03*
X86300000Y-38250000D03*
X114500000Y-60250000D03*
D18*
X111700000Y-29950000D03*
D17*
X85400000Y-57550000D03*
X89600000Y-59850000D03*
X121000000Y-52950000D03*
X117700000Y-60650000D03*
X94900000Y-60050000D03*
X105000000Y-50200000D03*
D18*
X117200000Y-39200000D03*
D17*
X97600000Y-60150000D03*
D19*
X103700000Y-49200000D03*
D17*
X114900000Y-58050000D03*
D18*
X117200000Y-37450000D03*
D17*
X106900000Y-52950000D03*
X109950000Y-51600000D03*
D19*
X104700000Y-53650000D03*
D17*
X109950000Y-34700000D03*
X91350000Y-48750000D03*
X112300000Y-58450000D03*
X111000000Y-44050000D03*
X83400000Y-59850000D03*
X118300000Y-20900000D03*
X118400000Y-25400000D03*
X105900000Y-54600000D03*
X106100000Y-58450000D03*
X88600000Y-49000000D03*
D18*
X115200000Y-39200000D03*
D17*
X88600000Y-46050000D03*
X109850000Y-53750000D03*
X85500000Y-47200000D03*
X90200000Y-39500000D03*
X84700000Y-39950000D03*
X110600000Y-60550000D03*
X108800000Y-58050000D03*
X122000000Y-59150000D03*
X119650000Y-51600000D03*
D19*
X100450000Y-51200000D03*
D17*
X121900000Y-53850000D03*
D18*
X99950000Y-38200000D03*
D17*
X111158411Y-37208411D03*
X112300000Y-39650000D03*
D18*
X112200000Y-42450000D03*
D17*
X116000000Y-34250000D03*
D18*
X118450000Y-48950000D03*
X120200000Y-42950000D03*
D17*
X108450000Y-45950000D03*
X105200451Y-45424500D03*
D18*
X113900000Y-25250000D03*
X113955000Y-20300000D03*
D17*
X100880000Y-43170000D03*
X107000000Y-32397502D03*
X100658411Y-40791589D03*
X115500000Y-45950000D03*
X110100000Y-45850000D03*
X108400000Y-44050000D03*
X119700000Y-47550000D03*
X113100000Y-52750000D03*
D18*
X101200000Y-31750000D03*
D17*
X114424156Y-32825500D03*
D18*
X104500000Y-33147002D03*
X114950000Y-30700000D03*
X113437701Y-33962299D03*
D17*
X108325501Y-35700000D03*
X111450000Y-32397502D03*
X110650497Y-32397502D03*
X107583099Y-35403277D03*
X110423339Y-31423339D03*
X106784108Y-35431875D03*
D18*
X116600000Y-23750000D03*
D17*
X120200000Y-38700000D03*
X119875734Y-37849500D03*
D18*
X116800000Y-22650000D03*
D17*
X112912254Y-48638453D03*
X105500000Y-35400000D03*
X98200000Y-44250000D03*
D18*
X107450000Y-43950000D03*
D17*
X110700000Y-41650000D03*
X115700000Y-44950000D03*
X116700000Y-48150000D03*
X110200000Y-40850000D03*
X109414683Y-40700062D03*
X113500000Y-47450000D03*
X113858420Y-27675500D03*
X119400000Y-35200000D03*
X112099500Y-40550000D03*
X110958728Y-39843088D03*
X109614558Y-38857499D03*
X112099500Y-38577378D03*
D18*
X112700000Y-18100000D03*
X118650000Y-36000000D03*
D17*
X111483531Y-34933531D03*
X110833531Y-35583531D03*
X112600000Y-36650000D03*
X102849810Y-18124500D03*
X110186629Y-40050609D03*
D20*
X110186629Y-39169312D02*
X110186629Y-40050609D01*
X110533411Y-38822530D02*
X110186629Y-39169312D01*
X112108531Y-35192415D02*
X110533411Y-36767535D01*
X110533411Y-36767535D02*
X110533411Y-38822530D01*
X112108531Y-31383836D02*
X112108531Y-35192415D01*
X102700000Y-21975305D02*
X112108531Y-31383836D01*
X102700000Y-18274310D02*
X102700000Y-21975305D01*
X102849810Y-18124500D02*
X102700000Y-18274310D01*
X99950000Y-35850000D02*
X99400000Y-35300000D01*
X99950000Y-38200000D02*
X99950000Y-35850000D01*
X95100000Y-22500000D02*
X100500000Y-22500000D01*
X93300000Y-27368580D02*
X93300000Y-24300000D01*
X88300000Y-32368580D02*
X93300000Y-27368580D01*
X88300000Y-34500000D02*
X88300000Y-32368580D01*
X93300000Y-24300000D02*
X95100000Y-22500000D01*
X119825000Y-28500000D02*
X121630000Y-30305000D01*
X112100000Y-28500000D02*
X119825000Y-28500000D01*
X105988191Y-30633506D02*
X110299367Y-30633506D01*
X101700000Y-34921697D02*
X105988191Y-30633506D01*
X101700000Y-35800000D02*
X101700000Y-34921697D01*
D21*
X112200000Y-42450000D02*
X119700000Y-42450000D01*
X112300000Y-39650000D02*
X111900000Y-39650000D01*
D20*
X106776116Y-49950000D02*
X112483884Y-49950000D01*
D21*
X111450000Y-39200000D02*
X111450000Y-37500000D01*
D20*
X114125000Y-44375000D02*
X112200000Y-42450000D01*
X114125000Y-48308884D02*
X114125000Y-44375000D01*
D21*
X111450000Y-37500000D02*
X111158411Y-37208411D01*
D20*
X99275000Y-42448884D02*
X106776116Y-49950000D01*
X112483884Y-49950000D02*
X114125000Y-48308884D01*
D21*
X111900000Y-39650000D02*
X111450000Y-39200000D01*
D20*
X99275000Y-38875000D02*
X99275000Y-42448884D01*
X99950000Y-38200000D02*
X99275000Y-38875000D01*
D21*
X119700000Y-42450000D02*
X120200000Y-42950000D01*
D20*
X102193729Y-39256271D02*
X102193729Y-38850000D01*
D21*
X102193729Y-38850000D02*
X102193729Y-37203773D01*
X102193729Y-37203773D02*
X107000000Y-32397502D01*
D20*
X100658411Y-40791589D02*
X102193729Y-39256271D01*
D21*
X100880000Y-43170000D02*
X100880000Y-41014589D01*
D22*
X116000000Y-52750000D02*
X113100000Y-52750000D01*
X119450000Y-40700000D02*
X121050000Y-42300000D01*
X121050000Y-42300000D02*
X121050000Y-47700000D01*
X114424156Y-33734817D02*
X117239339Y-36550000D01*
X117502082Y-36550000D02*
X119450000Y-38497918D01*
X114424156Y-32825500D02*
X114424156Y-33734817D01*
X121050000Y-47700000D02*
X116000000Y-52750000D01*
X117239339Y-36550000D02*
X117502082Y-36550000D01*
X119450000Y-38497918D02*
X119450000Y-40700000D01*
D20*
X113437701Y-32212299D02*
X114950000Y-30700000D01*
X113437701Y-33962299D02*
X113437701Y-32212299D01*
X113437701Y-33962299D02*
X113450000Y-33950000D01*
X111450000Y-34083884D02*
X109833884Y-35700000D01*
X109833884Y-35700000D02*
X108325501Y-35700000D01*
X111450000Y-32397502D02*
X111450000Y-34083884D01*
X107583099Y-35327986D02*
X110513583Y-32397502D01*
X107583099Y-35403277D02*
X107583099Y-35327986D01*
X110513583Y-32397502D02*
X110650497Y-32397502D01*
X106784108Y-35062570D02*
X110423339Y-31423339D01*
X106784108Y-35431875D02*
X106784108Y-35062570D01*
X111275000Y-47729595D02*
X111275000Y-46025000D01*
X108762611Y-43512611D02*
X108762611Y-38412611D01*
X112912254Y-48638453D02*
X112183858Y-48638453D01*
X112183858Y-48638453D02*
X111275000Y-47729595D01*
X108762611Y-38412611D02*
X108512611Y-38412611D01*
X111275000Y-46025000D02*
X108762611Y-43512611D01*
X108512611Y-38412611D02*
X105500000Y-35400000D01*
G04 #@! TA.AperFunction,Conductor*
G36*
X102426324Y-17216413D02*
G01*
X102472307Y-17261375D01*
X102490110Y-17323173D01*
X102475097Y-17385707D01*
X102431178Y-17432687D01*
X102348524Y-17484621D01*
X102348517Y-17484626D01*
X102342529Y-17488389D01*
X102337524Y-17493393D01*
X102337520Y-17493397D01*
X102218707Y-17612210D01*
X102218703Y-17612214D01*
X102213699Y-17617219D01*
X102209936Y-17623207D01*
X102209931Y-17623214D01*
X102120531Y-17765493D01*
X102120527Y-17765500D01*
X102116767Y-17771485D01*
X102114432Y-17778156D01*
X102114429Y-17778164D01*
X102058929Y-17936775D01*
X102058927Y-17936780D01*
X102056593Y-17943453D01*
X102055801Y-17950479D01*
X102055801Y-17950481D01*
X102053293Y-17972738D01*
X102036194Y-18124500D01*
X102056593Y-18305547D01*
X102059430Y-18313656D01*
X102059937Y-18316640D01*
X102060504Y-18319122D01*
X102060364Y-18319153D01*
X102066500Y-18355267D01*
X102066500Y-21896538D01*
X102065972Y-21907721D01*
X102064298Y-21915214D01*
X102064547Y-21923138D01*
X102064547Y-21923140D01*
X102066438Y-21983291D01*
X102066500Y-21987250D01*
X102066500Y-22015161D01*
X102066995Y-22019079D01*
X102066997Y-22019111D01*
X102067008Y-22019193D01*
X102067937Y-22031002D01*
X102069077Y-22067274D01*
X102069078Y-22067281D01*
X102069327Y-22075194D01*
X102071537Y-22082803D01*
X102071538Y-22082805D01*
X102074978Y-22094647D01*
X102078986Y-22113998D01*
X102079589Y-22118774D01*
X102081526Y-22134102D01*
X102084444Y-22141474D01*
X102084445Y-22141475D01*
X102097800Y-22175206D01*
X102101645Y-22186435D01*
X102111771Y-22221291D01*
X102111773Y-22221297D01*
X102113982Y-22228898D01*
X102118014Y-22235716D01*
X102118015Y-22235718D01*
X102124293Y-22246334D01*
X102132990Y-22264087D01*
X102136408Y-22272721D01*
X102140448Y-22282922D01*
X102145107Y-22289335D01*
X102145108Y-22289336D01*
X102166432Y-22318686D01*
X102172948Y-22328606D01*
X102191422Y-22359843D01*
X102195458Y-22366667D01*
X102201063Y-22372272D01*
X102209778Y-22380987D01*
X102222618Y-22396020D01*
X102234528Y-22412412D01*
X102240635Y-22417464D01*
X102240636Y-22417465D01*
X102268598Y-22440597D01*
X102277378Y-22448587D01*
X108483186Y-28654395D01*
X108515210Y-28708759D01*
X108516862Y-28771833D01*
X108487728Y-28827799D01*
X108428725Y-28893330D01*
X108411008Y-28913007D01*
X108407709Y-28918720D01*
X108407706Y-28918725D01*
X108353687Y-29012289D01*
X108315521Y-29078395D01*
X108313482Y-29084669D01*
X108313478Y-29084679D01*
X108258545Y-29253745D01*
X108258543Y-29253752D01*
X108256506Y-29260023D01*
X108255816Y-29266584D01*
X108255816Y-29266586D01*
X108242320Y-29394999D01*
X108236544Y-29449951D01*
X108256506Y-29639879D01*
X108258543Y-29646151D01*
X108258545Y-29646156D01*
X108313478Y-29815221D01*
X108313479Y-29815225D01*
X108315521Y-29821507D01*
X108317083Y-29824213D01*
X108327339Y-29883890D01*
X108307400Y-29942629D01*
X108261850Y-29984737D01*
X108201727Y-30000006D01*
X106066958Y-30000006D01*
X106055774Y-29999478D01*
X106048282Y-29997804D01*
X106040356Y-29998053D01*
X105980192Y-29999944D01*
X105976234Y-30000006D01*
X105948335Y-30000006D01*
X105944410Y-30000501D01*
X105944389Y-30000503D01*
X105944315Y-30000513D01*
X105932504Y-30001442D01*
X105896225Y-30002582D01*
X105896217Y-30002583D01*
X105888302Y-30002832D01*
X105880691Y-30005042D01*
X105880684Y-30005044D01*
X105868839Y-30008485D01*
X105849494Y-30012491D01*
X105837263Y-30014036D01*
X105837250Y-30014039D01*
X105829394Y-30015032D01*
X105822030Y-30017947D01*
X105822020Y-30017950D01*
X105788283Y-30031308D01*
X105777056Y-30035152D01*
X105742209Y-30045276D01*
X105742204Y-30045278D01*
X105734598Y-30047488D01*
X105727781Y-30051518D01*
X105727772Y-30051523D01*
X105717151Y-30057804D01*
X105699412Y-30066495D01*
X105687940Y-30071037D01*
X105687937Y-30071038D01*
X105680574Y-30073954D01*
X105674167Y-30078608D01*
X105674163Y-30078611D01*
X105644802Y-30099943D01*
X105634884Y-30106457D01*
X105603656Y-30124925D01*
X105603648Y-30124931D01*
X105596829Y-30128964D01*
X105591227Y-30134564D01*
X105591220Y-30134571D01*
X105582499Y-30143292D01*
X105567478Y-30156121D01*
X105557498Y-30163372D01*
X105557489Y-30163379D01*
X105551084Y-30168034D01*
X105546036Y-30174134D01*
X105546027Y-30174144D01*
X105522891Y-30202110D01*
X105514904Y-30210887D01*
X101307742Y-34418048D01*
X101299459Y-34425585D01*
X101292982Y-34429697D01*
X101287563Y-34435466D01*
X101287555Y-34435474D01*
X101246370Y-34479332D01*
X101243621Y-34482169D01*
X101226667Y-34499124D01*
X101226660Y-34499131D01*
X101223865Y-34501927D01*
X101221442Y-34505049D01*
X101221426Y-34505068D01*
X101221365Y-34505148D01*
X101213690Y-34514132D01*
X101188838Y-34540599D01*
X101188835Y-34540601D01*
X101183414Y-34546376D01*
X101179600Y-34553311D01*
X101179592Y-34553324D01*
X101173650Y-34564133D01*
X101162803Y-34580646D01*
X101155243Y-34590392D01*
X101155237Y-34590401D01*
X101150386Y-34596656D01*
X101147242Y-34603920D01*
X101147238Y-34603928D01*
X101132824Y-34637237D01*
X101127604Y-34647892D01*
X101110125Y-34679686D01*
X101110121Y-34679694D01*
X101106305Y-34686637D01*
X101104333Y-34694313D01*
X101104331Y-34694321D01*
X101101266Y-34706259D01*
X101094865Y-34724956D01*
X101089968Y-34736273D01*
X101089966Y-34736278D01*
X101086819Y-34743552D01*
X101085579Y-34751377D01*
X101085577Y-34751386D01*
X101079901Y-34787221D01*
X101077495Y-34798841D01*
X101068471Y-34833986D01*
X101068469Y-34833994D01*
X101066500Y-34841667D01*
X101066500Y-34849596D01*
X101066500Y-34861921D01*
X101064949Y-34881632D01*
X101063019Y-34893811D01*
X101063018Y-34893818D01*
X101061780Y-34901640D01*
X101062525Y-34909523D01*
X101062525Y-34909531D01*
X101065941Y-34945658D01*
X101066500Y-34957516D01*
X101066500Y-35252264D01*
X101047187Y-35319300D01*
X100970721Y-35440993D01*
X100970717Y-35441000D01*
X100966957Y-35446985D01*
X100964622Y-35453656D01*
X100964619Y-35453664D01*
X100909437Y-35611368D01*
X100906783Y-35618953D01*
X100905991Y-35625979D01*
X100905991Y-35625981D01*
X100901539Y-35665492D01*
X100874842Y-35729942D01*
X100817948Y-35770312D01*
X100797285Y-35777542D01*
X100754662Y-35792457D01*
X100748912Y-35796069D01*
X100691264Y-35808480D01*
X100634168Y-35793201D01*
X100590320Y-35753567D01*
X100572471Y-35706481D01*
X100571439Y-35706747D01*
X100569467Y-35699069D01*
X100568474Y-35691203D01*
X100552197Y-35650092D01*
X100548358Y-35638882D01*
X100536018Y-35596406D01*
X100525703Y-35578966D01*
X100517010Y-35561221D01*
X100509552Y-35542383D01*
X100500482Y-35529900D01*
X100483564Y-35506614D01*
X100477046Y-35496690D01*
X100465330Y-35476879D01*
X100454542Y-35458637D01*
X100440218Y-35444313D01*
X100427376Y-35429277D01*
X100420134Y-35419309D01*
X100420131Y-35419306D01*
X100415472Y-35412893D01*
X100386763Y-35389143D01*
X100381405Y-35384710D01*
X100372626Y-35376721D01*
X100234343Y-35238438D01*
X100209916Y-35204012D01*
X100198230Y-35163449D01*
X100196138Y-35144880D01*
X100193217Y-35118953D01*
X100133043Y-34946985D01*
X100099755Y-34894008D01*
X100039878Y-34798714D01*
X100039876Y-34798711D01*
X100036111Y-34792719D01*
X99907281Y-34663889D01*
X99901287Y-34660123D01*
X99901285Y-34660121D01*
X99759006Y-34570721D01*
X99759003Y-34570719D01*
X99753015Y-34566957D01*
X99746339Y-34564621D01*
X99746335Y-34564619D01*
X99587724Y-34509119D01*
X99587720Y-34509118D01*
X99581047Y-34506783D01*
X99400000Y-34486384D01*
X99392971Y-34487176D01*
X99225981Y-34505991D01*
X99225979Y-34505991D01*
X99218953Y-34506783D01*
X99212280Y-34509117D01*
X99212275Y-34509119D01*
X99053664Y-34564619D01*
X99053656Y-34564622D01*
X99046985Y-34566957D01*
X99041000Y-34570717D01*
X99040993Y-34570721D01*
X98898714Y-34660121D01*
X98898707Y-34660126D01*
X98892719Y-34663889D01*
X98887714Y-34668893D01*
X98887710Y-34668897D01*
X98768897Y-34787710D01*
X98768893Y-34787714D01*
X98763889Y-34792719D01*
X98760123Y-34798711D01*
X98760124Y-34798711D01*
X98715835Y-34869196D01*
X98663817Y-34915681D01*
X98595040Y-34927367D01*
X98530588Y-34900669D01*
X98490219Y-34843774D01*
X98483495Y-34824558D01*
X98481158Y-34817879D01*
X98467953Y-34796864D01*
X98387993Y-34669608D01*
X98387992Y-34669607D01*
X98384226Y-34663613D01*
X98255396Y-34534783D01*
X98249402Y-34531017D01*
X98249400Y-34531015D01*
X98107121Y-34441615D01*
X98107118Y-34441613D01*
X98101130Y-34437851D01*
X98094454Y-34435515D01*
X98094450Y-34435513D01*
X97935839Y-34380013D01*
X97935835Y-34380012D01*
X97929162Y-34377677D01*
X97748115Y-34357278D01*
X97741086Y-34358070D01*
X97574096Y-34376885D01*
X97574094Y-34376885D01*
X97567068Y-34377677D01*
X97560395Y-34380011D01*
X97560390Y-34380013D01*
X97401779Y-34435513D01*
X97401771Y-34435516D01*
X97395100Y-34437851D01*
X97389115Y-34441611D01*
X97389108Y-34441615D01*
X97246829Y-34531015D01*
X97246822Y-34531020D01*
X97240834Y-34534783D01*
X97235829Y-34539787D01*
X97235825Y-34539791D01*
X97117012Y-34658604D01*
X97117008Y-34658608D01*
X97112004Y-34663613D01*
X97108241Y-34669601D01*
X97108236Y-34669608D01*
X97018836Y-34811887D01*
X97018832Y-34811894D01*
X97015072Y-34817879D01*
X97012737Y-34824550D01*
X97012734Y-34824558D01*
X96957234Y-34983169D01*
X96957232Y-34983174D01*
X96954898Y-34989847D01*
X96954106Y-34996873D01*
X96954106Y-34996875D01*
X96942480Y-35100060D01*
X96934499Y-35170894D01*
X96954898Y-35351941D01*
X96957233Y-35358614D01*
X96957234Y-35358618D01*
X97012734Y-35517229D01*
X97012736Y-35517233D01*
X97015072Y-35523909D01*
X97018834Y-35529897D01*
X97018836Y-35529900D01*
X97104034Y-35665492D01*
X97112004Y-35678175D01*
X97240834Y-35807005D01*
X97246828Y-35810771D01*
X97246829Y-35810772D01*
X97320055Y-35856783D01*
X97395100Y-35903937D01*
X97567068Y-35964111D01*
X97748115Y-35984510D01*
X97929162Y-35964111D01*
X98101130Y-35903937D01*
X98255396Y-35807005D01*
X98384226Y-35678175D01*
X98432280Y-35601696D01*
X98484296Y-35555212D01*
X98553072Y-35543526D01*
X98617524Y-35570222D01*
X98657894Y-35627116D01*
X98660557Y-35634726D01*
X98666957Y-35653015D01*
X98670719Y-35659003D01*
X98670721Y-35659006D01*
X98755041Y-35793201D01*
X98763889Y-35807281D01*
X98892719Y-35936111D01*
X98898713Y-35939877D01*
X98898714Y-35939878D01*
X99010505Y-36010121D01*
X99046985Y-36033043D01*
X99218953Y-36093217D01*
X99220870Y-36093432D01*
X99269059Y-36116639D01*
X99304022Y-36160480D01*
X99316500Y-36215150D01*
X99316500Y-37497476D01*
X99308131Y-37542630D01*
X99284138Y-37581783D01*
X99210960Y-37663056D01*
X99207661Y-37668769D01*
X99207658Y-37668774D01*
X99123867Y-37813905D01*
X99115473Y-37828444D01*
X99113434Y-37834718D01*
X99113430Y-37834728D01*
X99058497Y-38003794D01*
X99058495Y-38003801D01*
X99056458Y-38010072D01*
X99055768Y-38016631D01*
X99055768Y-38016634D01*
X99039093Y-38175291D01*
X99027509Y-38216364D01*
X99002878Y-38251215D01*
X98882741Y-38371352D01*
X98874458Y-38378889D01*
X98867982Y-38383000D01*
X98862562Y-38388771D01*
X98862559Y-38388774D01*
X98821370Y-38432636D01*
X98818621Y-38435472D01*
X98801667Y-38452427D01*
X98801660Y-38452434D01*
X98798865Y-38455230D01*
X98796442Y-38458352D01*
X98796426Y-38458371D01*
X98796365Y-38458451D01*
X98788690Y-38467435D01*
X98763838Y-38493902D01*
X98763835Y-38493904D01*
X98758414Y-38499679D01*
X98754600Y-38506614D01*
X98754592Y-38506627D01*
X98748650Y-38517436D01*
X98737803Y-38533949D01*
X98730243Y-38543695D01*
X98730237Y-38543704D01*
X98725386Y-38549959D01*
X98722242Y-38557223D01*
X98722238Y-38557231D01*
X98707824Y-38590540D01*
X98702604Y-38601195D01*
X98685125Y-38632989D01*
X98685121Y-38632997D01*
X98681305Y-38639940D01*
X98679333Y-38647616D01*
X98679331Y-38647624D01*
X98676266Y-38659562D01*
X98669865Y-38678259D01*
X98664968Y-38689576D01*
X98664966Y-38689581D01*
X98661819Y-38696855D01*
X98660579Y-38704680D01*
X98660577Y-38704689D01*
X98654901Y-38740524D01*
X98652495Y-38752144D01*
X98643471Y-38787289D01*
X98643469Y-38787297D01*
X98641500Y-38794970D01*
X98641500Y-38802899D01*
X98641500Y-38815224D01*
X98639949Y-38834935D01*
X98638019Y-38847114D01*
X98638018Y-38847121D01*
X98636780Y-38854943D01*
X98637525Y-38862826D01*
X98637525Y-38862834D01*
X98640941Y-38898961D01*
X98641500Y-38910819D01*
X98641500Y-42370117D01*
X98640972Y-42381300D01*
X98639298Y-42388793D01*
X98639547Y-42396717D01*
X98639547Y-42396719D01*
X98641438Y-42456870D01*
X98641500Y-42460829D01*
X98641500Y-42488740D01*
X98641995Y-42492658D01*
X98641997Y-42492690D01*
X98642008Y-42492772D01*
X98642937Y-42504581D01*
X98644077Y-42540853D01*
X98644078Y-42540860D01*
X98644327Y-42548773D01*
X98646537Y-42556382D01*
X98646538Y-42556384D01*
X98649978Y-42568226D01*
X98653986Y-42587577D01*
X98656526Y-42607681D01*
X98671778Y-42646205D01*
X98672800Y-42648785D01*
X98676645Y-42660014D01*
X98686771Y-42694870D01*
X98686773Y-42694876D01*
X98688982Y-42702477D01*
X98693014Y-42709295D01*
X98693015Y-42709297D01*
X98699293Y-42719913D01*
X98707990Y-42737666D01*
X98715448Y-42756501D01*
X98720107Y-42762914D01*
X98720108Y-42762915D01*
X98741432Y-42792265D01*
X98747948Y-42802185D01*
X98766422Y-42833422D01*
X98770458Y-42840246D01*
X98776062Y-42845850D01*
X98776063Y-42845851D01*
X98784778Y-42854566D01*
X98797618Y-42869599D01*
X98809528Y-42885991D01*
X98815635Y-42891043D01*
X98815636Y-42891044D01*
X98843598Y-42914176D01*
X98852378Y-42922166D01*
X106272463Y-50342252D01*
X106280002Y-50350535D01*
X106284116Y-50357018D01*
X106289898Y-50362447D01*
X106289900Y-50362450D01*
X106333765Y-50403642D01*
X106336607Y-50406396D01*
X106356346Y-50426135D01*
X106359476Y-50428563D01*
X106359548Y-50428619D01*
X106368556Y-50436313D01*
X106400795Y-50466586D01*
X106407743Y-50470405D01*
X106407745Y-50470407D01*
X106418542Y-50476343D01*
X106435066Y-50487197D01*
X106444810Y-50494755D01*
X106444813Y-50494757D01*
X106451075Y-50499614D01*
X106480776Y-50512466D01*
X106491651Y-50517172D01*
X106502316Y-50522397D01*
X106541056Y-50543695D01*
X106560676Y-50548732D01*
X106579368Y-50555130D01*
X106597971Y-50563181D01*
X106641641Y-50570097D01*
X106653241Y-50572498D01*
X106696086Y-50583500D01*
X106716340Y-50583500D01*
X106736050Y-50585050D01*
X106756059Y-50588220D01*
X106800077Y-50584058D01*
X106811935Y-50583500D01*
X112405117Y-50583500D01*
X112416300Y-50584027D01*
X112423793Y-50585702D01*
X112491869Y-50583562D01*
X112495829Y-50583500D01*
X112519778Y-50583500D01*
X112523740Y-50583500D01*
X112527740Y-50582994D01*
X112539583Y-50582061D01*
X112583773Y-50580673D01*
X112603217Y-50575023D01*
X112622586Y-50571012D01*
X112642681Y-50568474D01*
X112683799Y-50552193D01*
X112695001Y-50548357D01*
X112737477Y-50536018D01*
X112754923Y-50525699D01*
X112772653Y-50517013D01*
X112791501Y-50509552D01*
X112827271Y-50483561D01*
X112837182Y-50477051D01*
X112875246Y-50454542D01*
X112889572Y-50440215D01*
X112904601Y-50427378D01*
X112920991Y-50415472D01*
X112949178Y-50381397D01*
X112957156Y-50372630D01*
X114517259Y-48812527D01*
X114525533Y-48804998D01*
X114532018Y-48800884D01*
X114578676Y-48751196D01*
X114581368Y-48748418D01*
X114601135Y-48728653D01*
X114603589Y-48725488D01*
X114611310Y-48716443D01*
X114641586Y-48684205D01*
X114651345Y-48666451D01*
X114662198Y-48649929D01*
X114674614Y-48633924D01*
X114692177Y-48593334D01*
X114697388Y-48582699D01*
X114718695Y-48543944D01*
X114723732Y-48524326D01*
X114730138Y-48505614D01*
X114735032Y-48494305D01*
X114738181Y-48487029D01*
X114745096Y-48443361D01*
X114747504Y-48431737D01*
X114756529Y-48396589D01*
X114758500Y-48388914D01*
X114758500Y-48368660D01*
X114760051Y-48348949D01*
X114761980Y-48336769D01*
X114763220Y-48328941D01*
X114759058Y-48284922D01*
X114758500Y-48273065D01*
X114758500Y-46656082D01*
X114772233Y-46598879D01*
X114810439Y-46554146D01*
X114864789Y-46531633D01*
X114923436Y-46536249D01*
X114973595Y-46566987D01*
X114992719Y-46586111D01*
X114998713Y-46589877D01*
X114998714Y-46589878D01*
X115108910Y-46659119D01*
X115146985Y-46683043D01*
X115318953Y-46743217D01*
X115500000Y-46763616D01*
X115681047Y-46743217D01*
X115853015Y-46683043D01*
X116007281Y-46586111D01*
X116136111Y-46457281D01*
X116233043Y-46303015D01*
X116293217Y-46131047D01*
X116313616Y-45950000D01*
X116293217Y-45768953D01*
X116249693Y-45644570D01*
X116245782Y-45574920D01*
X116279527Y-45513864D01*
X116336111Y-45457281D01*
X116433043Y-45303015D01*
X116493217Y-45131047D01*
X116513616Y-44950000D01*
X116493217Y-44768953D01*
X116433043Y-44596985D01*
X116366691Y-44491387D01*
X116339878Y-44448714D01*
X116339877Y-44448713D01*
X116336111Y-44442719D01*
X116207281Y-44313889D01*
X116201287Y-44310123D01*
X116201285Y-44310121D01*
X116059006Y-44220721D01*
X116059003Y-44220719D01*
X116053015Y-44216957D01*
X116046339Y-44214621D01*
X116046335Y-44214619D01*
X115887724Y-44159119D01*
X115887720Y-44159118D01*
X115881047Y-44156783D01*
X115700000Y-44136384D01*
X115692971Y-44137176D01*
X115525981Y-44155991D01*
X115525979Y-44155991D01*
X115518953Y-44156783D01*
X115512280Y-44159117D01*
X115512275Y-44159119D01*
X115353664Y-44214619D01*
X115353656Y-44214622D01*
X115346985Y-44216957D01*
X115341000Y-44220717D01*
X115340993Y-44220721D01*
X115198714Y-44310121D01*
X115198707Y-44310126D01*
X115192719Y-44313889D01*
X115187714Y-44318893D01*
X115187710Y-44318897D01*
X115068897Y-44437710D01*
X115068893Y-44437714D01*
X115063889Y-44442719D01*
X115060126Y-44448707D01*
X115060121Y-44448714D01*
X114991187Y-44558423D01*
X114944207Y-44602342D01*
X114881673Y-44617355D01*
X114819875Y-44599551D01*
X114774913Y-44553569D01*
X114758500Y-44491387D01*
X114758500Y-44453767D01*
X114759027Y-44442583D01*
X114760702Y-44435091D01*
X114758562Y-44367014D01*
X114758500Y-44363055D01*
X114758500Y-44339108D01*
X114758500Y-44335144D01*
X114757994Y-44331147D01*
X114757061Y-44319297D01*
X114755673Y-44275110D01*
X114750020Y-44255656D01*
X114746012Y-44236297D01*
X114743474Y-44216203D01*
X114727197Y-44175093D01*
X114723351Y-44163860D01*
X114718222Y-44146205D01*
X114711018Y-44121407D01*
X114700708Y-44103973D01*
X114692007Y-44086213D01*
X114687956Y-44075981D01*
X114684552Y-44067383D01*
X114658565Y-44031616D01*
X114652047Y-44021693D01*
X114633578Y-43990463D01*
X114629542Y-43983638D01*
X114615217Y-43969313D01*
X114602382Y-43954286D01*
X114590472Y-43937893D01*
X114584367Y-43932842D01*
X114584360Y-43932835D01*
X114556394Y-43909700D01*
X114547615Y-43901711D01*
X113969499Y-43323595D01*
X113938761Y-43273436D01*
X113934145Y-43214789D01*
X113956658Y-43160439D01*
X114001391Y-43122233D01*
X114058594Y-43108500D01*
X119204702Y-43108500D01*
X119255951Y-43119393D01*
X119298338Y-43150189D01*
X119324535Y-43195563D01*
X119365473Y-43321556D01*
X119382500Y-43351047D01*
X119443546Y-43456783D01*
X119460960Y-43486944D01*
X119588747Y-43628866D01*
X119743248Y-43741118D01*
X119917712Y-43818794D01*
X120104513Y-43858500D01*
X120165500Y-43858500D01*
X120228500Y-43875381D01*
X120274619Y-43921500D01*
X120291500Y-43984500D01*
X120291500Y-46738828D01*
X120274025Y-46802846D01*
X120226448Y-46849106D01*
X120161965Y-46864778D01*
X120098466Y-46845515D01*
X120053015Y-46816957D01*
X120046339Y-46814621D01*
X120046335Y-46814619D01*
X119887724Y-46759119D01*
X119887720Y-46759118D01*
X119881047Y-46756783D01*
X119700000Y-46736384D01*
X119692971Y-46737176D01*
X119525981Y-46755991D01*
X119525979Y-46755991D01*
X119518953Y-46756783D01*
X119512280Y-46759117D01*
X119512275Y-46759119D01*
X119353664Y-46814619D01*
X119353656Y-46814622D01*
X119346985Y-46816957D01*
X119341000Y-46820717D01*
X119340993Y-46820721D01*
X119198714Y-46910121D01*
X119198707Y-46910126D01*
X119192719Y-46913889D01*
X119187714Y-46918893D01*
X119187710Y-46918897D01*
X119068897Y-47037710D01*
X119068893Y-47037714D01*
X119063889Y-47042719D01*
X119060126Y-47048707D01*
X119060121Y-47048714D01*
X118970721Y-47190993D01*
X118970717Y-47191000D01*
X118966957Y-47196985D01*
X118964622Y-47203656D01*
X118964619Y-47203664D01*
X118909119Y-47362275D01*
X118909117Y-47362280D01*
X118906783Y-47368953D01*
X118886384Y-47550000D01*
X118906783Y-47731047D01*
X118909118Y-47737720D01*
X118909119Y-47737724D01*
X118964619Y-47896335D01*
X118964621Y-47896339D01*
X118966957Y-47903015D01*
X118970719Y-47909002D01*
X118970720Y-47909004D01*
X118993314Y-47944962D01*
X119012463Y-48005592D01*
X118999569Y-48067853D01*
X118957915Y-48115890D01*
X118898108Y-48137473D01*
X118835377Y-48127104D01*
X118831235Y-48125260D01*
X118732288Y-48081206D01*
X118725835Y-48079834D01*
X118725831Y-48079833D01*
X118551943Y-48042872D01*
X118551940Y-48042871D01*
X118545487Y-48041500D01*
X118354513Y-48041500D01*
X118348060Y-48042871D01*
X118348056Y-48042872D01*
X118174168Y-48079833D01*
X118174161Y-48079835D01*
X118167712Y-48081206D01*
X118161682Y-48083890D01*
X118161681Y-48083891D01*
X117999278Y-48156197D01*
X117999275Y-48156198D01*
X117993248Y-48158882D01*
X117987907Y-48162762D01*
X117987906Y-48162763D01*
X117844091Y-48267250D01*
X117844083Y-48267256D01*
X117838747Y-48271134D01*
X117834332Y-48276037D01*
X117834329Y-48276040D01*
X117714331Y-48409312D01*
X117661954Y-48444054D01*
X117599310Y-48449173D01*
X117541988Y-48423394D01*
X117504250Y-48373132D01*
X117495487Y-48310896D01*
X117513616Y-48150000D01*
X117493217Y-47968953D01*
X117433043Y-47796985D01*
X117421099Y-47777976D01*
X117339878Y-47648714D01*
X117339877Y-47648713D01*
X117336111Y-47642719D01*
X117207281Y-47513889D01*
X117201287Y-47510123D01*
X117201285Y-47510121D01*
X117059006Y-47420721D01*
X117059003Y-47420719D01*
X117053015Y-47416957D01*
X117046339Y-47414621D01*
X117046335Y-47414619D01*
X116887724Y-47359119D01*
X116887720Y-47359118D01*
X116881047Y-47356783D01*
X116700000Y-47336384D01*
X116692971Y-47337176D01*
X116525981Y-47355991D01*
X116525979Y-47355991D01*
X116518953Y-47356783D01*
X116512280Y-47359117D01*
X116512275Y-47359119D01*
X116353664Y-47414619D01*
X116353656Y-47414622D01*
X116346985Y-47416957D01*
X116341000Y-47420717D01*
X116340993Y-47420721D01*
X116198714Y-47510121D01*
X116198707Y-47510126D01*
X116192719Y-47513889D01*
X116187714Y-47518893D01*
X116187710Y-47518897D01*
X116068897Y-47637710D01*
X116068893Y-47637714D01*
X116063889Y-47642719D01*
X116060126Y-47648707D01*
X116060121Y-47648714D01*
X115970721Y-47790993D01*
X115970717Y-47791000D01*
X115966957Y-47796985D01*
X115964622Y-47803656D01*
X115964619Y-47803664D01*
X115909119Y-47962275D01*
X115909117Y-47962280D01*
X115906783Y-47968953D01*
X115905991Y-47975979D01*
X115905991Y-47975981D01*
X115894290Y-48079833D01*
X115886384Y-48150000D01*
X115889663Y-48179103D01*
X115905656Y-48321049D01*
X115906783Y-48331047D01*
X115909118Y-48337720D01*
X115909119Y-48337724D01*
X115964619Y-48496335D01*
X115964621Y-48496339D01*
X115966957Y-48503015D01*
X115970719Y-48509003D01*
X115970721Y-48509006D01*
X116053148Y-48640188D01*
X116063889Y-48657281D01*
X116192719Y-48786111D01*
X116346985Y-48883043D01*
X116518953Y-48943217D01*
X116700000Y-48963616D01*
X116881047Y-48943217D01*
X117053015Y-48883043D01*
X117207281Y-48786111D01*
X117336111Y-48657281D01*
X117336876Y-48656062D01*
X117388827Y-48618196D01*
X117455208Y-48611917D01*
X117515498Y-48640394D01*
X117552815Y-48695651D01*
X117556562Y-48759749D01*
X117556458Y-48760072D01*
X117555769Y-48766625D01*
X117555768Y-48766631D01*
X117543929Y-48879278D01*
X117536496Y-48950000D01*
X117537186Y-48956565D01*
X117553794Y-49114587D01*
X117556458Y-49139928D01*
X117558495Y-49146200D01*
X117558497Y-49146205D01*
X117613430Y-49315271D01*
X117613433Y-49315278D01*
X117615473Y-49321556D01*
X117710960Y-49486944D01*
X117838747Y-49628866D01*
X117844091Y-49632749D01*
X117848998Y-49637167D01*
X117847925Y-49638358D01*
X117876721Y-49670753D01*
X117892405Y-49722436D01*
X117885008Y-49775939D01*
X117855889Y-49821428D01*
X115722724Y-51954595D01*
X115681847Y-51981909D01*
X115633629Y-51991500D01*
X113401670Y-51991500D01*
X113360055Y-51984429D01*
X113287724Y-51959119D01*
X113287720Y-51959118D01*
X113281047Y-51956783D01*
X113100000Y-51936384D01*
X113092971Y-51937176D01*
X112925981Y-51955991D01*
X112925979Y-51955991D01*
X112918953Y-51956783D01*
X112912280Y-51959117D01*
X112912275Y-51959119D01*
X112753664Y-52014619D01*
X112753656Y-52014622D01*
X112746985Y-52016957D01*
X112741000Y-52020717D01*
X112740993Y-52020721D01*
X112598714Y-52110121D01*
X112598707Y-52110126D01*
X112592719Y-52113889D01*
X112587714Y-52118893D01*
X112587710Y-52118897D01*
X112468897Y-52237710D01*
X112468893Y-52237714D01*
X112463889Y-52242719D01*
X112460126Y-52248707D01*
X112460121Y-52248714D01*
X112370721Y-52390993D01*
X112370717Y-52391000D01*
X112366957Y-52396985D01*
X112364622Y-52403656D01*
X112364619Y-52403664D01*
X112309119Y-52562275D01*
X112309117Y-52562280D01*
X112306783Y-52568953D01*
X112286384Y-52750000D01*
X112306783Y-52931047D01*
X112309118Y-52937720D01*
X112309119Y-52937724D01*
X112364619Y-53096335D01*
X112364621Y-53096339D01*
X112366957Y-53103015D01*
X112463889Y-53257281D01*
X112592719Y-53386111D01*
X112746985Y-53483043D01*
X112918953Y-53543217D01*
X113100000Y-53563616D01*
X113281047Y-53543217D01*
X113360055Y-53515570D01*
X113401670Y-53508500D01*
X115935558Y-53508500D01*
X115953820Y-53509830D01*
X115977789Y-53513341D01*
X116027646Y-53508978D01*
X116038628Y-53508500D01*
X116040513Y-53508500D01*
X116044180Y-53508500D01*
X116075300Y-53504861D01*
X116078903Y-53504493D01*
X116154426Y-53497887D01*
X116161393Y-53495578D01*
X116164697Y-53494896D01*
X116165120Y-53494827D01*
X116165552Y-53494705D01*
X116168813Y-53493932D01*
X116176113Y-53493079D01*
X116247420Y-53467124D01*
X116250769Y-53465961D01*
X116322738Y-53442114D01*
X116328989Y-53438257D01*
X116332025Y-53436842D01*
X116332443Y-53436668D01*
X116332830Y-53436453D01*
X116335827Y-53434947D01*
X116342732Y-53432435D01*
X116406139Y-53390729D01*
X116409097Y-53388845D01*
X116473651Y-53349030D01*
X116478845Y-53343834D01*
X116481472Y-53341758D01*
X116481837Y-53341494D01*
X116482165Y-53341194D01*
X116484732Y-53339039D01*
X116490874Y-53335001D01*
X116542962Y-53279789D01*
X116545448Y-53277231D01*
X121540778Y-48281901D01*
X121554623Y-48269937D01*
X121574058Y-48255469D01*
X121606221Y-48217138D01*
X121613660Y-48209020D01*
X121617580Y-48205101D01*
X121637004Y-48180534D01*
X121639302Y-48177713D01*
X121644302Y-48171755D01*
X121688032Y-48119640D01*
X121691324Y-48113082D01*
X121693172Y-48110274D01*
X121693429Y-48109916D01*
X121693650Y-48109522D01*
X121695410Y-48106668D01*
X121699967Y-48100906D01*
X121732010Y-48032186D01*
X121733572Y-48028958D01*
X121767609Y-47961188D01*
X121769300Y-47954048D01*
X121770454Y-47950881D01*
X121770619Y-47950482D01*
X121770741Y-47950052D01*
X121771797Y-47946865D01*
X121774902Y-47940207D01*
X121790251Y-47865866D01*
X121791001Y-47862484D01*
X121808500Y-47788656D01*
X121808500Y-47781312D01*
X121808890Y-47777976D01*
X121808960Y-47777541D01*
X121808979Y-47777114D01*
X121809273Y-47773747D01*
X121810758Y-47766558D01*
X121808552Y-47690776D01*
X121808500Y-47687112D01*
X121808500Y-42364442D01*
X121809830Y-42346180D01*
X121810694Y-42340279D01*
X121813341Y-42322211D01*
X121808978Y-42272353D01*
X121808500Y-42261372D01*
X121808500Y-42259488D01*
X121808500Y-42255820D01*
X121804866Y-42224734D01*
X121804495Y-42221115D01*
X121797887Y-42145574D01*
X121795577Y-42138605D01*
X121794896Y-42135303D01*
X121794827Y-42134880D01*
X121794709Y-42134461D01*
X121793931Y-42131180D01*
X121793079Y-42123887D01*
X121767139Y-42052620D01*
X121765952Y-42049203D01*
X121742114Y-41977262D01*
X121738259Y-41971013D01*
X121736840Y-41967969D01*
X121736669Y-41967556D01*
X121736459Y-41967180D01*
X121734945Y-41964166D01*
X121732435Y-41957268D01*
X121690776Y-41893930D01*
X121688811Y-41890845D01*
X121652885Y-41832598D01*
X121652881Y-41832594D01*
X121649030Y-41826349D01*
X121643838Y-41821157D01*
X121641756Y-41818524D01*
X121641495Y-41818163D01*
X121641210Y-41817852D01*
X121639036Y-41815261D01*
X121635001Y-41809126D01*
X121579825Y-41757070D01*
X121577197Y-41754516D01*
X120245405Y-40422724D01*
X120218091Y-40381847D01*
X120208500Y-40333629D01*
X120208500Y-39625259D01*
X120223101Y-39566383D01*
X120263522Y-39521153D01*
X120320393Y-39500051D01*
X120324381Y-39499601D01*
X120381047Y-39493217D01*
X120553015Y-39433043D01*
X120707281Y-39336111D01*
X120836111Y-39207281D01*
X120933043Y-39053015D01*
X120993217Y-38881047D01*
X121013616Y-38700000D01*
X120993217Y-38518953D01*
X120933043Y-38346985D01*
X120836111Y-38192719D01*
X120712362Y-38068969D01*
X120682528Y-38021490D01*
X120676249Y-37965771D01*
X120689350Y-37849500D01*
X120668951Y-37668453D01*
X120608777Y-37496485D01*
X120538965Y-37385380D01*
X120515612Y-37348214D01*
X120515611Y-37348213D01*
X120511845Y-37342219D01*
X120383015Y-37213389D01*
X120377021Y-37209623D01*
X120377019Y-37209621D01*
X120234740Y-37120221D01*
X120234737Y-37120219D01*
X120228749Y-37116457D01*
X120222073Y-37114121D01*
X120222069Y-37114119D01*
X120063458Y-37058619D01*
X120063454Y-37058618D01*
X120056781Y-37056283D01*
X119875734Y-37035884D01*
X119868705Y-37036676D01*
X119701715Y-37055491D01*
X119701713Y-37055491D01*
X119694687Y-37056283D01*
X119688014Y-37058617D01*
X119688009Y-37058619D01*
X119529398Y-37114119D01*
X119529390Y-37114122D01*
X119522719Y-37116457D01*
X119516734Y-37120217D01*
X119516727Y-37120221D01*
X119373512Y-37210210D01*
X119320584Y-37228731D01*
X119264861Y-37222452D01*
X119217381Y-37192618D01*
X119035123Y-37010360D01*
X119003885Y-36958628D01*
X119000328Y-36898302D01*
X119025270Y-36843257D01*
X119072969Y-36806158D01*
X119106752Y-36791118D01*
X119261253Y-36678866D01*
X119389040Y-36536944D01*
X119484527Y-36371556D01*
X119543542Y-36189928D01*
X119555230Y-36078721D01*
X119581735Y-36013702D01*
X119638920Y-35972966D01*
X119753015Y-35933043D01*
X119907281Y-35836111D01*
X120036111Y-35707281D01*
X120133043Y-35553015D01*
X120193217Y-35381047D01*
X120213616Y-35200000D01*
X120193217Y-35018953D01*
X120133043Y-34846985D01*
X120114754Y-34817879D01*
X120039878Y-34698714D01*
X120039877Y-34698713D01*
X120036111Y-34692719D01*
X119907281Y-34563889D01*
X119901287Y-34560123D01*
X119901285Y-34560121D01*
X119759006Y-34470721D01*
X119759003Y-34470719D01*
X119753015Y-34466957D01*
X119746339Y-34464621D01*
X119746335Y-34464619D01*
X119587724Y-34409119D01*
X119587720Y-34409118D01*
X119581047Y-34406783D01*
X119400000Y-34386384D01*
X119392971Y-34387176D01*
X119225981Y-34405991D01*
X119225979Y-34405991D01*
X119218953Y-34406783D01*
X119212280Y-34409117D01*
X119212275Y-34409119D01*
X119053664Y-34464619D01*
X119053656Y-34464622D01*
X119046985Y-34466957D01*
X119041000Y-34470717D01*
X119040993Y-34470721D01*
X118898714Y-34560121D01*
X118898707Y-34560126D01*
X118892719Y-34563889D01*
X118887714Y-34568893D01*
X118887710Y-34568897D01*
X118768897Y-34687710D01*
X118768893Y-34687714D01*
X118763889Y-34692719D01*
X118760126Y-34698707D01*
X118760121Y-34698714D01*
X118670721Y-34840993D01*
X118670717Y-34841000D01*
X118666957Y-34846985D01*
X118664622Y-34853656D01*
X118664619Y-34853664D01*
X118606966Y-35018429D01*
X118571292Y-35071390D01*
X118514235Y-35100060D01*
X118374176Y-35129831D01*
X118374166Y-35129833D01*
X118367712Y-35131206D01*
X118361682Y-35133890D01*
X118361681Y-35133891D01*
X118199278Y-35206197D01*
X118199275Y-35206198D01*
X118193248Y-35208882D01*
X118187907Y-35212762D01*
X118187906Y-35212763D01*
X118044091Y-35317250D01*
X118044083Y-35317256D01*
X118038747Y-35321134D01*
X118034330Y-35326039D01*
X118034325Y-35326044D01*
X117915379Y-35458148D01*
X117910960Y-35463056D01*
X117907661Y-35468769D01*
X117907658Y-35468774D01*
X117818777Y-35622721D01*
X117815473Y-35628444D01*
X117813434Y-35634719D01*
X117813431Y-35634726D01*
X117786099Y-35718846D01*
X117753087Y-35771222D01*
X117699114Y-35801552D01*
X117637210Y-35802513D01*
X117597880Y-35793192D01*
X117597874Y-35793191D01*
X117590738Y-35791500D01*
X117589188Y-35791500D01*
X117552785Y-35780889D01*
X117518596Y-35756576D01*
X116662087Y-34900067D01*
X116632253Y-34852587D01*
X116625974Y-34796864D01*
X116644492Y-34743941D01*
X116733043Y-34603015D01*
X116793217Y-34431047D01*
X116813616Y-34250000D01*
X116793217Y-34068953D01*
X116733043Y-33896985D01*
X116694334Y-33835380D01*
X116639878Y-33748714D01*
X116639877Y-33748713D01*
X116636111Y-33742719D01*
X116507281Y-33613889D01*
X116501287Y-33610123D01*
X116501285Y-33610121D01*
X116359006Y-33520721D01*
X116359003Y-33520719D01*
X116353015Y-33516957D01*
X116346339Y-33514621D01*
X116346335Y-33514619D01*
X116187724Y-33459119D01*
X116187720Y-33459118D01*
X116181047Y-33456783D01*
X116000000Y-33436384D01*
X115992971Y-33437176D01*
X115825981Y-33455991D01*
X115825979Y-33455991D01*
X115818953Y-33456783D01*
X115812280Y-33459117D01*
X115812275Y-33459119D01*
X115653664Y-33514619D01*
X115653656Y-33514622D01*
X115646985Y-33516957D01*
X115641000Y-33520717D01*
X115640993Y-33520721D01*
X115506063Y-33605504D01*
X115453134Y-33624025D01*
X115397412Y-33617746D01*
X115349932Y-33587912D01*
X115219561Y-33457541D01*
X115192247Y-33416664D01*
X115182656Y-33368446D01*
X115182656Y-33127170D01*
X115189727Y-33085555D01*
X115207902Y-33033613D01*
X115217373Y-33006547D01*
X115237772Y-32825500D01*
X115217373Y-32644453D01*
X115157199Y-32472485D01*
X115124280Y-32420095D01*
X115064034Y-32324214D01*
X115064033Y-32324213D01*
X115060267Y-32318219D01*
X114931437Y-32189389D01*
X114925443Y-32185623D01*
X114925441Y-32185621D01*
X114783162Y-32096221D01*
X114783159Y-32096219D01*
X114777171Y-32092457D01*
X114726633Y-32074773D01*
X114674298Y-32039803D01*
X114645409Y-31983881D01*
X114647175Y-31920962D01*
X114679153Y-31866751D01*
X114900500Y-31645404D01*
X114941378Y-31618091D01*
X114989596Y-31608500D01*
X115038884Y-31608500D01*
X115045487Y-31608500D01*
X115232288Y-31568794D01*
X115284372Y-31545604D01*
X115364252Y-31510041D01*
X115425386Y-31499536D01*
X115484125Y-31519476D01*
X115526231Y-31565026D01*
X115541500Y-31625148D01*
X115541500Y-32123638D01*
X115541859Y-32126985D01*
X115541860Y-32126988D01*
X115547168Y-32176367D01*
X115547169Y-32176373D01*
X115548011Y-32184201D01*
X115550762Y-32191578D01*
X115550763Y-32191580D01*
X115595962Y-32312763D01*
X115595964Y-32312766D01*
X115599111Y-32321204D01*
X115604508Y-32328414D01*
X115604510Y-32328417D01*
X115679706Y-32428866D01*
X115686739Y-32438261D01*
X115693950Y-32443659D01*
X115793019Y-32517822D01*
X115803796Y-32525889D01*
X115940799Y-32576989D01*
X116001362Y-32583500D01*
X117095269Y-32583500D01*
X117098638Y-32583500D01*
X117159201Y-32576989D01*
X117296204Y-32525889D01*
X117303423Y-32520484D01*
X117311325Y-32516170D01*
X117312227Y-32517822D01*
X117360637Y-32498270D01*
X117424565Y-32506878D01*
X117438317Y-32512574D01*
X117551877Y-32547022D01*
X117563345Y-32547727D01*
X117566000Y-32536552D01*
X118074000Y-32536552D01*
X118076654Y-32547727D01*
X118088122Y-32547022D01*
X118201686Y-32512573D01*
X118213069Y-32507858D01*
X118377259Y-32420096D01*
X118384993Y-32414929D01*
X118430417Y-32396112D01*
X118479583Y-32396112D01*
X118525007Y-32414929D01*
X118532740Y-32420096D01*
X118696930Y-32507858D01*
X118708313Y-32512573D01*
X118821877Y-32547022D01*
X118833345Y-32547727D01*
X118836000Y-32536552D01*
X118836000Y-31845590D01*
X118832493Y-31832506D01*
X118819410Y-31829000D01*
X118090590Y-31829000D01*
X118077506Y-31832506D01*
X118074000Y-31845590D01*
X118074000Y-32536552D01*
X117566000Y-32536552D01*
X117566000Y-31447000D01*
X117582881Y-31384000D01*
X117629000Y-31337881D01*
X117692000Y-31321000D01*
X119218000Y-31321000D01*
X119281000Y-31337881D01*
X119327119Y-31384000D01*
X119344000Y-31447000D01*
X119344000Y-32536552D01*
X119346654Y-32547727D01*
X119358122Y-32547022D01*
X119471686Y-32512573D01*
X119483069Y-32507858D01*
X119647266Y-32420092D01*
X119654543Y-32415231D01*
X119699963Y-32396416D01*
X119749125Y-32396416D01*
X119793669Y-32414864D01*
X119796996Y-32417595D01*
X119972196Y-32511241D01*
X120162299Y-32568908D01*
X120168460Y-32569514D01*
X120168461Y-32569515D01*
X120353837Y-32587773D01*
X120360000Y-32588380D01*
X120557701Y-32568908D01*
X120747804Y-32511241D01*
X120923004Y-32417595D01*
X120926326Y-32414868D01*
X120970867Y-32396416D01*
X121020034Y-32396415D01*
X121065458Y-32415231D01*
X121072736Y-32420094D01*
X121236930Y-32507858D01*
X121248313Y-32512573D01*
X121361877Y-32547022D01*
X121373345Y-32547727D01*
X121376000Y-32536552D01*
X121884000Y-32536552D01*
X121886654Y-32547727D01*
X121898122Y-32547022D01*
X122011686Y-32512573D01*
X122023069Y-32507858D01*
X122187261Y-32420095D01*
X122197514Y-32413244D01*
X122341427Y-32295138D01*
X122350138Y-32286427D01*
X122468244Y-32142514D01*
X122475095Y-32132261D01*
X122562858Y-31968069D01*
X122567573Y-31956686D01*
X122602022Y-31843122D01*
X122602727Y-31831654D01*
X122591552Y-31829000D01*
X121900590Y-31829000D01*
X121887506Y-31832506D01*
X121884000Y-31845590D01*
X121884000Y-32536552D01*
X121376000Y-32536552D01*
X121376000Y-31447000D01*
X121392881Y-31384000D01*
X121439000Y-31337881D01*
X121502000Y-31321000D01*
X122591552Y-31321000D01*
X122602727Y-31318345D01*
X122602022Y-31306877D01*
X122567573Y-31193313D01*
X122562858Y-31181930D01*
X122475094Y-31017736D01*
X122470231Y-31010458D01*
X122451415Y-30965034D01*
X122451416Y-30915867D01*
X122469868Y-30871326D01*
X122472595Y-30868004D01*
X122566241Y-30692804D01*
X122623908Y-30502701D01*
X122643380Y-30305000D01*
X122623908Y-30107299D01*
X122566241Y-29917196D01*
X122472595Y-29741996D01*
X122346568Y-29588432D01*
X122331117Y-29575752D01*
X122197788Y-29466331D01*
X122197787Y-29466330D01*
X122193004Y-29462405D01*
X122181986Y-29456516D01*
X122023265Y-29371678D01*
X122017804Y-29368759D01*
X122002845Y-29364221D01*
X121833623Y-29312888D01*
X121833619Y-29312887D01*
X121827701Y-29311092D01*
X121821547Y-29310485D01*
X121821538Y-29310484D01*
X121636163Y-29292227D01*
X121630000Y-29291620D01*
X121582359Y-29296311D01*
X121527564Y-29289552D01*
X121480918Y-29260013D01*
X120528659Y-28307754D01*
X120497178Y-28255231D01*
X120494177Y-28194070D01*
X120520363Y-28138716D01*
X120563228Y-28106931D01*
X120562611Y-28105776D01*
X120732261Y-28015095D01*
X120742514Y-28008244D01*
X120886427Y-27890138D01*
X120895138Y-27881427D01*
X121013244Y-27737514D01*
X121020095Y-27727261D01*
X121107858Y-27563069D01*
X121112573Y-27551686D01*
X121147022Y-27438122D01*
X121147727Y-27426654D01*
X121136552Y-27424000D01*
X118613448Y-27424000D01*
X118602272Y-27426654D01*
X118602977Y-27438122D01*
X118637426Y-27551686D01*
X118642141Y-27563069D01*
X118705232Y-27681104D01*
X118720072Y-27743592D01*
X118702184Y-27805277D01*
X118656215Y-27850131D01*
X118594110Y-27866500D01*
X117225890Y-27866500D01*
X117163785Y-27850131D01*
X117117816Y-27805277D01*
X117099928Y-27743592D01*
X117114768Y-27681104D01*
X117177858Y-27563069D01*
X117182573Y-27551686D01*
X117217022Y-27438122D01*
X117217727Y-27426654D01*
X117206552Y-27424000D01*
X115567000Y-27424000D01*
X115504000Y-27407119D01*
X115457881Y-27361000D01*
X115441000Y-27298000D01*
X115441000Y-27042000D01*
X115457881Y-26979000D01*
X115504000Y-26932881D01*
X115567000Y-26916000D01*
X117206552Y-26916000D01*
X117217727Y-26913345D01*
X118602272Y-26913345D01*
X118613448Y-26916000D01*
X119604410Y-26916000D01*
X119617493Y-26912493D01*
X119621000Y-26899410D01*
X120129000Y-26899410D01*
X120132506Y-26912493D01*
X120145590Y-26916000D01*
X121136552Y-26916000D01*
X121147727Y-26913345D01*
X121147022Y-26901877D01*
X121112573Y-26788313D01*
X121107858Y-26776930D01*
X121020095Y-26612738D01*
X121013244Y-26602485D01*
X120895138Y-26458572D01*
X120886427Y-26449861D01*
X120742514Y-26331755D01*
X120732261Y-26324904D01*
X120568069Y-26237141D01*
X120556686Y-26232426D01*
X120378531Y-26178383D01*
X120366437Y-26175977D01*
X120227598Y-26162303D01*
X120221426Y-26162000D01*
X120145590Y-26162000D01*
X120132506Y-26165506D01*
X120129000Y-26178590D01*
X120129000Y-26899410D01*
X119621000Y-26899410D01*
X119621000Y-26178590D01*
X119617493Y-26165506D01*
X119604410Y-26162000D01*
X119528574Y-26162000D01*
X119522401Y-26162303D01*
X119383562Y-26175977D01*
X119371468Y-26178383D01*
X119193313Y-26232426D01*
X119181930Y-26237141D01*
X119017738Y-26324904D01*
X119007485Y-26331755D01*
X118863572Y-26449861D01*
X118854861Y-26458572D01*
X118736755Y-26602485D01*
X118729904Y-26612738D01*
X118642141Y-26776930D01*
X118637426Y-26788313D01*
X118602977Y-26901877D01*
X118602272Y-26913345D01*
X117217727Y-26913345D01*
X117217022Y-26901877D01*
X117182573Y-26788313D01*
X117177858Y-26776930D01*
X117090095Y-26612738D01*
X117083244Y-26602485D01*
X116965138Y-26458572D01*
X116956427Y-26449861D01*
X116812514Y-26331755D01*
X116802264Y-26324906D01*
X116698737Y-26269569D01*
X116657547Y-26234330D01*
X116634974Y-26185046D01*
X116635196Y-26130839D01*
X116658169Y-26081747D01*
X116697698Y-26030233D01*
X116755687Y-25890236D01*
X116775466Y-25740000D01*
X116755687Y-25589764D01*
X116697698Y-25449767D01*
X116685111Y-25433364D01*
X116610477Y-25336099D01*
X116605451Y-25329549D01*
X116598900Y-25324522D01*
X116491786Y-25242330D01*
X116491784Y-25242329D01*
X116485233Y-25237302D01*
X116477606Y-25234142D01*
X116477603Y-25234141D01*
X116352865Y-25182473D01*
X116352864Y-25182472D01*
X116345236Y-25179313D01*
X116337053Y-25178235D01*
X116337047Y-25178234D01*
X116236807Y-25165038D01*
X116236806Y-25165037D01*
X116232720Y-25164500D01*
X116157280Y-25164500D01*
X116153194Y-25165037D01*
X116153192Y-25165038D01*
X116052952Y-25178234D01*
X116052944Y-25178236D01*
X116044764Y-25179313D01*
X116037137Y-25182472D01*
X116037134Y-25182473D01*
X115912396Y-25234141D01*
X115912390Y-25234144D01*
X115904767Y-25237302D01*
X115898218Y-25242326D01*
X115898213Y-25242330D01*
X115791099Y-25324522D01*
X115791094Y-25324526D01*
X115784549Y-25329549D01*
X115779526Y-25336094D01*
X115779522Y-25336099D01*
X115697330Y-25443213D01*
X115697326Y-25443218D01*
X115692302Y-25449767D01*
X115689144Y-25457390D01*
X115689141Y-25457396D01*
X115637473Y-25582134D01*
X115634313Y-25589764D01*
X115633236Y-25597944D01*
X115633234Y-25597952D01*
X115618474Y-25710072D01*
X115614534Y-25740000D01*
X115615612Y-25748188D01*
X115633234Y-25882047D01*
X115633235Y-25882053D01*
X115634313Y-25890236D01*
X115637472Y-25897864D01*
X115637473Y-25897865D01*
X115674718Y-25987782D01*
X115683702Y-26048350D01*
X115663074Y-26106002D01*
X115617705Y-26147122D01*
X115558309Y-26162000D01*
X115098574Y-26162000D01*
X115092401Y-26162303D01*
X114953562Y-26175977D01*
X114941468Y-26178383D01*
X114763313Y-26232426D01*
X114751930Y-26237141D01*
X114587738Y-26324904D01*
X114577485Y-26331755D01*
X114433572Y-26449861D01*
X114424861Y-26458572D01*
X114306755Y-26602485D01*
X114299904Y-26612738D01*
X114212141Y-26776930D01*
X114207427Y-26788312D01*
X114203686Y-26800644D01*
X114167955Y-26857219D01*
X114108295Y-26887522D01*
X114053583Y-26883821D01*
X114053042Y-26886194D01*
X114046144Y-26884619D01*
X114039467Y-26882283D01*
X113858420Y-26861884D01*
X113851391Y-26862676D01*
X113684401Y-26881491D01*
X113684399Y-26881491D01*
X113677373Y-26882283D01*
X113670700Y-26884617D01*
X113670695Y-26884619D01*
X113512084Y-26940119D01*
X113512076Y-26940122D01*
X113505405Y-26942457D01*
X113499420Y-26946217D01*
X113499413Y-26946221D01*
X113357134Y-27035621D01*
X113357127Y-27035626D01*
X113351139Y-27039389D01*
X113346134Y-27044393D01*
X113346130Y-27044397D01*
X113227317Y-27163210D01*
X113227313Y-27163214D01*
X113222309Y-27168219D01*
X113218546Y-27174207D01*
X113218541Y-27174214D01*
X113129141Y-27316493D01*
X113129137Y-27316500D01*
X113125377Y-27322485D01*
X113123042Y-27329156D01*
X113123039Y-27329164D01*
X113067539Y-27487775D01*
X113067537Y-27487780D01*
X113065203Y-27494453D01*
X113064411Y-27501479D01*
X113064411Y-27501481D01*
X113054009Y-27593802D01*
X113044804Y-27675500D01*
X113045596Y-27682529D01*
X113045596Y-27682530D01*
X113050538Y-27726393D01*
X113038852Y-27795170D01*
X112992366Y-27847187D01*
X112925330Y-27866500D01*
X112647736Y-27866500D01*
X112580700Y-27847187D01*
X112459006Y-27770721D01*
X112459003Y-27770719D01*
X112453015Y-27766957D01*
X112446339Y-27764621D01*
X112446335Y-27764619D01*
X112287724Y-27709119D01*
X112287720Y-27709118D01*
X112281047Y-27706783D01*
X112274018Y-27705991D01*
X112274014Y-27705990D01*
X112271530Y-27705710D01*
X112269280Y-27704909D01*
X112267114Y-27704415D01*
X112267172Y-27704159D01*
X112217490Y-27686479D01*
X112177575Y-27645286D01*
X112160056Y-27590667D01*
X112168564Y-27533942D01*
X112201336Y-27486866D01*
X112205906Y-27482750D01*
X112211253Y-27478866D01*
X112339040Y-27336944D01*
X112434527Y-27171556D01*
X112493542Y-26989928D01*
X112513504Y-26800000D01*
X112493542Y-26610072D01*
X112434527Y-26428444D01*
X112425610Y-26412999D01*
X112408729Y-26350000D01*
X112425611Y-26286998D01*
X112434527Y-26271556D01*
X112493542Y-26089928D01*
X112513504Y-25900000D01*
X112493542Y-25710072D01*
X112434527Y-25528444D01*
X112396741Y-25462998D01*
X112379861Y-25399998D01*
X112396741Y-25337000D01*
X112434527Y-25271556D01*
X112441531Y-25250000D01*
X112986496Y-25250000D01*
X112987186Y-25256565D01*
X113000729Y-25385425D01*
X113006458Y-25439928D01*
X113008495Y-25446200D01*
X113008497Y-25446205D01*
X113063430Y-25615271D01*
X113063433Y-25615278D01*
X113065473Y-25621556D01*
X113160960Y-25786944D01*
X113288747Y-25928866D01*
X113443248Y-26041118D01*
X113617712Y-26118794D01*
X113804513Y-26158500D01*
X113988884Y-26158500D01*
X113995487Y-26158500D01*
X114182288Y-26118794D01*
X114356752Y-26041118D01*
X114511253Y-25928866D01*
X114639040Y-25786944D01*
X114734527Y-25621556D01*
X114793542Y-25439928D01*
X114813504Y-25250000D01*
X114793542Y-25060072D01*
X114734527Y-24878444D01*
X114639040Y-24713056D01*
X114511253Y-24571134D01*
X114505911Y-24567253D01*
X114505908Y-24567250D01*
X114428057Y-24510688D01*
X114356752Y-24458882D01*
X114182288Y-24381206D01*
X114175835Y-24379834D01*
X114175831Y-24379833D01*
X114001943Y-24342872D01*
X114001940Y-24342871D01*
X113995487Y-24341500D01*
X113804513Y-24341500D01*
X113798060Y-24342871D01*
X113798056Y-24342872D01*
X113624168Y-24379833D01*
X113624161Y-24379835D01*
X113617712Y-24381206D01*
X113611682Y-24383890D01*
X113611681Y-24383891D01*
X113449278Y-24456197D01*
X113449275Y-24456198D01*
X113443248Y-24458882D01*
X113437907Y-24462762D01*
X113437906Y-24462763D01*
X113294091Y-24567250D01*
X113294083Y-24567256D01*
X113288747Y-24571134D01*
X113284330Y-24576039D01*
X113284325Y-24576044D01*
X113165379Y-24708148D01*
X113160960Y-24713056D01*
X113157661Y-24718769D01*
X113157658Y-24718774D01*
X113129944Y-24766777D01*
X113065473Y-24878444D01*
X113063434Y-24884718D01*
X113063430Y-24884728D01*
X113008497Y-25053794D01*
X113008495Y-25053801D01*
X113006458Y-25060072D01*
X112986496Y-25250000D01*
X112441531Y-25250000D01*
X112493542Y-25089928D01*
X112513504Y-24900000D01*
X112493542Y-24710072D01*
X112437384Y-24537236D01*
X112436569Y-24534728D01*
X112436568Y-24534726D01*
X112434527Y-24528444D01*
X112396741Y-24462998D01*
X112379861Y-24399998D01*
X112396741Y-24337000D01*
X112434527Y-24271556D01*
X112493542Y-24089928D01*
X112513504Y-23900000D01*
X112497739Y-23750000D01*
X115686496Y-23750000D01*
X115687186Y-23756565D01*
X115705585Y-23931627D01*
X115706458Y-23939928D01*
X115708495Y-23946200D01*
X115708497Y-23946205D01*
X115763430Y-24115271D01*
X115763433Y-24115278D01*
X115765473Y-24121556D01*
X115860960Y-24286944D01*
X115988747Y-24428866D01*
X116143248Y-24541118D01*
X116317712Y-24618794D01*
X116504513Y-24658500D01*
X116688884Y-24658500D01*
X116695487Y-24658500D01*
X116882288Y-24618794D01*
X117056752Y-24541118D01*
X117211253Y-24428866D01*
X117339040Y-24286944D01*
X117434527Y-24121556D01*
X117493542Y-23939928D01*
X117513504Y-23750000D01*
X117493542Y-23560072D01*
X117438996Y-23392200D01*
X117435583Y-23327070D01*
X117465191Y-23268961D01*
X117539040Y-23186944D01*
X117634527Y-23021556D01*
X117693542Y-22839928D01*
X117713504Y-22650000D01*
X117693542Y-22460072D01*
X117649973Y-22325981D01*
X117636569Y-22284728D01*
X117636568Y-22284726D01*
X117634527Y-22278444D01*
X117539040Y-22113056D01*
X117411253Y-21971134D01*
X117405911Y-21967253D01*
X117405908Y-21967250D01*
X117291932Y-21884442D01*
X117256752Y-21858882D01*
X117082288Y-21781206D01*
X117075835Y-21779834D01*
X117075831Y-21779833D01*
X116901943Y-21742872D01*
X116901940Y-21742871D01*
X116895487Y-21741500D01*
X116704513Y-21741500D01*
X116698060Y-21742871D01*
X116698056Y-21742872D01*
X116524168Y-21779833D01*
X116524161Y-21779835D01*
X116517712Y-21781206D01*
X116511682Y-21783890D01*
X116511681Y-21783891D01*
X116349278Y-21856197D01*
X116349275Y-21856198D01*
X116343248Y-21858882D01*
X116337907Y-21862762D01*
X116337906Y-21862763D01*
X116194091Y-21967250D01*
X116194083Y-21967256D01*
X116188747Y-21971134D01*
X116184330Y-21976039D01*
X116184325Y-21976044D01*
X116065379Y-22108148D01*
X116060960Y-22113056D01*
X116057661Y-22118769D01*
X116057658Y-22118774D01*
X115973762Y-22264087D01*
X115965473Y-22278444D01*
X115963434Y-22284718D01*
X115963430Y-22284728D01*
X115908497Y-22453794D01*
X115908495Y-22453801D01*
X115906458Y-22460072D01*
X115886496Y-22650000D01*
X115887186Y-22656565D01*
X115905147Y-22827460D01*
X115906458Y-22839928D01*
X115908495Y-22846200D01*
X115908497Y-22846205D01*
X115961002Y-23007796D01*
X115964416Y-23072928D01*
X115934806Y-23131041D01*
X115860960Y-23213056D01*
X115857661Y-23218769D01*
X115857658Y-23218774D01*
X115795134Y-23327070D01*
X115765473Y-23378444D01*
X115763434Y-23384718D01*
X115763430Y-23384728D01*
X115708497Y-23553794D01*
X115708495Y-23553801D01*
X115706458Y-23560072D01*
X115686496Y-23750000D01*
X112497739Y-23750000D01*
X112493542Y-23710072D01*
X112434527Y-23528444D01*
X112339040Y-23363056D01*
X112211253Y-23221134D01*
X112205911Y-23217253D01*
X112205908Y-23217250D01*
X112128057Y-23160688D01*
X112056752Y-23108882D01*
X111882288Y-23031206D01*
X111875835Y-23029834D01*
X111875831Y-23029833D01*
X111701943Y-22992872D01*
X111701940Y-22992871D01*
X111695487Y-22991500D01*
X111504513Y-22991500D01*
X111498060Y-22992871D01*
X111498056Y-22992872D01*
X111324168Y-23029833D01*
X111324161Y-23029835D01*
X111317712Y-23031206D01*
X111311684Y-23033889D01*
X111311677Y-23033892D01*
X111151248Y-23105319D01*
X111100000Y-23116212D01*
X111048752Y-23105319D01*
X110888322Y-23033892D01*
X110888317Y-23033890D01*
X110882288Y-23031206D01*
X110875835Y-23029834D01*
X110875831Y-23029833D01*
X110701943Y-22992872D01*
X110701940Y-22992871D01*
X110695487Y-22991500D01*
X110504513Y-22991500D01*
X110498060Y-22992871D01*
X110498056Y-22992872D01*
X110324168Y-23029833D01*
X110324161Y-23029835D01*
X110317712Y-23031206D01*
X110311682Y-23033890D01*
X110311681Y-23033891D01*
X110149278Y-23106197D01*
X110149275Y-23106198D01*
X110143248Y-23108882D01*
X110137907Y-23112762D01*
X110137906Y-23112763D01*
X109994091Y-23217250D01*
X109994083Y-23217256D01*
X109988747Y-23221134D01*
X109984330Y-23226039D01*
X109984325Y-23226044D01*
X109889279Y-23331604D01*
X109860960Y-23363056D01*
X109857661Y-23368769D01*
X109857658Y-23368774D01*
X109768777Y-23522721D01*
X109765473Y-23528444D01*
X109763434Y-23534718D01*
X109763430Y-23534728D01*
X109708497Y-23703794D01*
X109708495Y-23703801D01*
X109706458Y-23710072D01*
X109705768Y-23716633D01*
X109705768Y-23716635D01*
X109688868Y-23877427D01*
X109686496Y-23900000D01*
X109706458Y-24089928D01*
X109708495Y-24096200D01*
X109708497Y-24096205D01*
X109763430Y-24265271D01*
X109763433Y-24265278D01*
X109765473Y-24271556D01*
X109803257Y-24337000D01*
X109820138Y-24399998D01*
X109803258Y-24462998D01*
X109768775Y-24522723D01*
X109768771Y-24522730D01*
X109765473Y-24528444D01*
X109763434Y-24534718D01*
X109763430Y-24534728D01*
X109708497Y-24703794D01*
X109708495Y-24703801D01*
X109706458Y-24710072D01*
X109705768Y-24716633D01*
X109705768Y-24716635D01*
X109689363Y-24872721D01*
X109686496Y-24900000D01*
X109706458Y-25089928D01*
X109708495Y-25096200D01*
X109708497Y-25096205D01*
X109763430Y-25265271D01*
X109763433Y-25265278D01*
X109765473Y-25271556D01*
X109803257Y-25337000D01*
X109820138Y-25399998D01*
X109803258Y-25462998D01*
X109768775Y-25522723D01*
X109768771Y-25522730D01*
X109765473Y-25528444D01*
X109763434Y-25534718D01*
X109763430Y-25534728D01*
X109708497Y-25703794D01*
X109708495Y-25703801D01*
X109706458Y-25710072D01*
X109705768Y-25716633D01*
X109705768Y-25716635D01*
X109697863Y-25791851D01*
X109686496Y-25900000D01*
X109687186Y-25906565D01*
X109696267Y-25992971D01*
X109706458Y-26089928D01*
X109708495Y-26096200D01*
X109708497Y-26096205D01*
X109763430Y-26265271D01*
X109763433Y-26265278D01*
X109765473Y-26271556D01*
X109768771Y-26277269D01*
X109768775Y-26277277D01*
X109774390Y-26287001D01*
X109791270Y-26350000D01*
X109774390Y-26412999D01*
X109768775Y-26422722D01*
X109768769Y-26422733D01*
X109765473Y-26428444D01*
X109763434Y-26434718D01*
X109763430Y-26434728D01*
X109708497Y-26603794D01*
X109708495Y-26603801D01*
X109706458Y-26610072D01*
X109705768Y-26616633D01*
X109705768Y-26616635D01*
X109703721Y-26636111D01*
X109686496Y-26800000D01*
X109706458Y-26989928D01*
X109708495Y-26996200D01*
X109708497Y-26996205D01*
X109763430Y-27165271D01*
X109763433Y-27165278D01*
X109765473Y-27171556D01*
X109768777Y-27177278D01*
X109849234Y-27316635D01*
X109860960Y-27336944D01*
X109988747Y-27478866D01*
X109994089Y-27482747D01*
X109994091Y-27482749D01*
X110017835Y-27500000D01*
X110143248Y-27591118D01*
X110317712Y-27668794D01*
X110504513Y-27708500D01*
X110688884Y-27708500D01*
X110695487Y-27708500D01*
X110882288Y-27668794D01*
X111048752Y-27594679D01*
X111100000Y-27583787D01*
X111151247Y-27594679D01*
X111317712Y-27668794D01*
X111478417Y-27702953D01*
X111537747Y-27733674D01*
X111573029Y-27790413D01*
X111574341Y-27857214D01*
X111541314Y-27915293D01*
X111463889Y-27992719D01*
X111460126Y-27998707D01*
X111460121Y-27998714D01*
X111370721Y-28140993D01*
X111370717Y-28141000D01*
X111366957Y-28146985D01*
X111364622Y-28153656D01*
X111364619Y-28153664D01*
X111309119Y-28312275D01*
X111309117Y-28312280D01*
X111306783Y-28318953D01*
X111305991Y-28325979D01*
X111305991Y-28325981D01*
X111291678Y-28453014D01*
X111286384Y-28500000D01*
X111306783Y-28681047D01*
X111309118Y-28687720D01*
X111309119Y-28687724D01*
X111364619Y-28846335D01*
X111364621Y-28846339D01*
X111366957Y-28853015D01*
X111370719Y-28859003D01*
X111370721Y-28859006D01*
X111458704Y-28999030D01*
X111463889Y-29007281D01*
X111592719Y-29136111D01*
X111598713Y-29139877D01*
X111598714Y-29139878D01*
X111740993Y-29229278D01*
X111746985Y-29233043D01*
X111918953Y-29293217D01*
X112100000Y-29313616D01*
X112281047Y-29293217D01*
X112453015Y-29233043D01*
X112580699Y-29152813D01*
X112647736Y-29133500D01*
X116099315Y-29133500D01*
X116163028Y-29150796D01*
X116209250Y-29197934D01*
X116225291Y-29261974D01*
X116206748Y-29325335D01*
X116158711Y-29370622D01*
X115992454Y-29459487D01*
X115992453Y-29459488D01*
X115986996Y-29462405D01*
X115982217Y-29466326D01*
X115982211Y-29466331D01*
X115838211Y-29584509D01*
X115838205Y-29584514D01*
X115833432Y-29588432D01*
X115829514Y-29593205D01*
X115829509Y-29593211D01*
X115711331Y-29737211D01*
X115711326Y-29737217D01*
X115707405Y-29741996D01*
X115704487Y-29747454D01*
X115704487Y-29747455D01*
X115627233Y-29891987D01*
X115577678Y-29942525D01*
X115508694Y-29958373D01*
X115442051Y-29934528D01*
X115418195Y-29917196D01*
X115406752Y-29908882D01*
X115232288Y-29831206D01*
X115225835Y-29829834D01*
X115225831Y-29829833D01*
X115051943Y-29792872D01*
X115051940Y-29792871D01*
X115045487Y-29791500D01*
X114854513Y-29791500D01*
X114848060Y-29792871D01*
X114848056Y-29792872D01*
X114674168Y-29829833D01*
X114674161Y-29829835D01*
X114667712Y-29831206D01*
X114661682Y-29833890D01*
X114661681Y-29833891D01*
X114499278Y-29906197D01*
X114499275Y-29906198D01*
X114493248Y-29908882D01*
X114487907Y-29912762D01*
X114487906Y-29912763D01*
X114344091Y-30017250D01*
X114344083Y-30017256D01*
X114338747Y-30021134D01*
X114334330Y-30026039D01*
X114334325Y-30026044D01*
X114222446Y-30150299D01*
X114210960Y-30163056D01*
X114207661Y-30168769D01*
X114207658Y-30168774D01*
X114129008Y-30305000D01*
X114115473Y-30328444D01*
X114113434Y-30334718D01*
X114113430Y-30334728D01*
X114058497Y-30503794D01*
X114058495Y-30503801D01*
X114056458Y-30510072D01*
X114055768Y-30516631D01*
X114055768Y-30516634D01*
X114039092Y-30675292D01*
X114027508Y-30716366D01*
X114002877Y-30751216D01*
X113045443Y-31708650D01*
X113037160Y-31716187D01*
X113030683Y-31720299D01*
X113025260Y-31726073D01*
X113025261Y-31726073D01*
X112984071Y-31769935D01*
X112981322Y-31772771D01*
X112964365Y-31789729D01*
X112964358Y-31789736D01*
X112961753Y-31792341D01*
X112961750Y-31792344D01*
X112961568Y-31792527D01*
X112961534Y-31792493D01*
X112912941Y-31826194D01*
X112853026Y-31833572D01*
X112796556Y-31812235D01*
X112756492Y-31767079D01*
X112742031Y-31708469D01*
X112742031Y-31462603D01*
X112742558Y-31451419D01*
X112744233Y-31443927D01*
X112742093Y-31375850D01*
X112742031Y-31371891D01*
X112742031Y-31347944D01*
X112742031Y-31343980D01*
X112741525Y-31339983D01*
X112740592Y-31328133D01*
X112740368Y-31321000D01*
X112739204Y-31283946D01*
X112733551Y-31264492D01*
X112729543Y-31245133D01*
X112729051Y-31241241D01*
X112727005Y-31225039D01*
X112710728Y-31183929D01*
X112706882Y-31172696D01*
X112696761Y-31137858D01*
X112694549Y-31130243D01*
X112684239Y-31112809D01*
X112675538Y-31095049D01*
X112674659Y-31092829D01*
X112668083Y-31076219D01*
X112642096Y-31040452D01*
X112635578Y-31030529D01*
X112630279Y-31021568D01*
X112613073Y-30992474D01*
X112598749Y-30978150D01*
X112585913Y-30963122D01*
X112574003Y-30946729D01*
X112567898Y-30941678D01*
X112567891Y-30941671D01*
X112539925Y-30918536D01*
X112531146Y-30910547D01*
X103370405Y-21749805D01*
X103343091Y-21708928D01*
X103333500Y-21660710D01*
X103333500Y-20300000D01*
X113041496Y-20300000D01*
X113061458Y-20489928D01*
X113063495Y-20496200D01*
X113063497Y-20496205D01*
X113118430Y-20665271D01*
X113118433Y-20665278D01*
X113120473Y-20671556D01*
X113215960Y-20836944D01*
X113343747Y-20978866D01*
X113498248Y-21091118D01*
X113672712Y-21168794D01*
X113859513Y-21208500D01*
X114043884Y-21208500D01*
X114050487Y-21208500D01*
X114237288Y-21168794D01*
X114411752Y-21091118D01*
X114566253Y-20978866D01*
X114694040Y-20836944D01*
X114789527Y-20671556D01*
X114848542Y-20489928D01*
X114868504Y-20300000D01*
X114848542Y-20110072D01*
X114789527Y-19928444D01*
X114694040Y-19763056D01*
X114600458Y-19659123D01*
X114570001Y-19596641D01*
X114577312Y-19527513D01*
X114620169Y-19472782D01*
X114685526Y-19449107D01*
X114745585Y-19461996D01*
X114746210Y-19460489D01*
X114763313Y-19467573D01*
X114941468Y-19521616D01*
X114953562Y-19524022D01*
X115092401Y-19537696D01*
X115098574Y-19538000D01*
X115558309Y-19538000D01*
X115617705Y-19552878D01*
X115663074Y-19593998D01*
X115683702Y-19651650D01*
X115674718Y-19712218D01*
X115651292Y-19768774D01*
X115634313Y-19809764D01*
X115633236Y-19817944D01*
X115633234Y-19817952D01*
X115626544Y-19868774D01*
X115614534Y-19960000D01*
X115615612Y-19968188D01*
X115633234Y-20102047D01*
X115633235Y-20102053D01*
X115634313Y-20110236D01*
X115637472Y-20117864D01*
X115637473Y-20117865D01*
X115689141Y-20242603D01*
X115689142Y-20242606D01*
X115692302Y-20250233D01*
X115697329Y-20256784D01*
X115697330Y-20256786D01*
X115730760Y-20300352D01*
X115784549Y-20370451D01*
X115904767Y-20462698D01*
X116044764Y-20520687D01*
X116157280Y-20535500D01*
X116228598Y-20535500D01*
X116232720Y-20535500D01*
X116345236Y-20520687D01*
X116485233Y-20462698D01*
X116605451Y-20370451D01*
X116697698Y-20250233D01*
X116755687Y-20110236D01*
X116775466Y-19960000D01*
X116755687Y-19809764D01*
X116697698Y-19669767D01*
X116658171Y-19618255D01*
X116635196Y-19569159D01*
X116634974Y-19514952D01*
X116657547Y-19465668D01*
X116698738Y-19430430D01*
X116802261Y-19375095D01*
X116812514Y-19368244D01*
X116956427Y-19250138D01*
X116965138Y-19241427D01*
X117083244Y-19097514D01*
X117090095Y-19087261D01*
X117177858Y-18923069D01*
X117182573Y-18911686D01*
X117217022Y-18798122D01*
X117217727Y-18786654D01*
X118602272Y-18786654D01*
X118602977Y-18798122D01*
X118637426Y-18911686D01*
X118642141Y-18923069D01*
X118729904Y-19087261D01*
X118736755Y-19097514D01*
X118854861Y-19241427D01*
X118863572Y-19250138D01*
X119007485Y-19368244D01*
X119017738Y-19375095D01*
X119181930Y-19462858D01*
X119193313Y-19467573D01*
X119371468Y-19521616D01*
X119383562Y-19524022D01*
X119522401Y-19537696D01*
X119528574Y-19538000D01*
X119604410Y-19538000D01*
X119617493Y-19534493D01*
X119621000Y-19521410D01*
X120129000Y-19521410D01*
X120132506Y-19534493D01*
X120145590Y-19538000D01*
X120221426Y-19538000D01*
X120227598Y-19537696D01*
X120366437Y-19524022D01*
X120378531Y-19521616D01*
X120556686Y-19467573D01*
X120568069Y-19462858D01*
X120732261Y-19375095D01*
X120742514Y-19368244D01*
X120886427Y-19250138D01*
X120895138Y-19241427D01*
X121013244Y-19097514D01*
X121020095Y-19087261D01*
X121107858Y-18923069D01*
X121112573Y-18911686D01*
X121147022Y-18798122D01*
X121147727Y-18786654D01*
X121136552Y-18784000D01*
X120145590Y-18784000D01*
X120132506Y-18787506D01*
X120129000Y-18800590D01*
X120129000Y-19521410D01*
X119621000Y-19521410D01*
X119621000Y-18800590D01*
X119617493Y-18787506D01*
X119604410Y-18784000D01*
X118613448Y-18784000D01*
X118602272Y-18786654D01*
X117217727Y-18786654D01*
X117206552Y-18784000D01*
X114183448Y-18784000D01*
X114172272Y-18786654D01*
X114172977Y-18798122D01*
X114207426Y-18911686D01*
X114212141Y-18923069D01*
X114299904Y-19087261D01*
X114306755Y-19097514D01*
X114424861Y-19241427D01*
X114436766Y-19253332D01*
X114470342Y-19313655D01*
X114467090Y-19382616D01*
X114427987Y-19439512D01*
X114364771Y-19467261D01*
X114296422Y-19457534D01*
X114277494Y-19449107D01*
X114237288Y-19431206D01*
X114230835Y-19429834D01*
X114230831Y-19429833D01*
X114056943Y-19392872D01*
X114056940Y-19392871D01*
X114050487Y-19391500D01*
X113859513Y-19391500D01*
X113853060Y-19392871D01*
X113853056Y-19392872D01*
X113679168Y-19429833D01*
X113679161Y-19429835D01*
X113672712Y-19431206D01*
X113666682Y-19433890D01*
X113666681Y-19433891D01*
X113504278Y-19506197D01*
X113504275Y-19506198D01*
X113498248Y-19508882D01*
X113492907Y-19512762D01*
X113492906Y-19512763D01*
X113349091Y-19617250D01*
X113349083Y-19617256D01*
X113343747Y-19621134D01*
X113339330Y-19626039D01*
X113339325Y-19626044D01*
X113220379Y-19758148D01*
X113215960Y-19763056D01*
X113212661Y-19768769D01*
X113212658Y-19768774D01*
X113123777Y-19922721D01*
X113120473Y-19928444D01*
X113118434Y-19934718D01*
X113118430Y-19934728D01*
X113063497Y-20103794D01*
X113063495Y-20103801D01*
X113061458Y-20110072D01*
X113060768Y-20116633D01*
X113060768Y-20116635D01*
X113050948Y-20210072D01*
X113041496Y-20300000D01*
X103333500Y-20300000D01*
X103333500Y-18836392D01*
X103343091Y-18788174D01*
X103370405Y-18747297D01*
X103423725Y-18693977D01*
X103485921Y-18631781D01*
X103582853Y-18477515D01*
X103643027Y-18305547D01*
X103663426Y-18124500D01*
X103643027Y-17943453D01*
X103582853Y-17771485D01*
X103559757Y-17734728D01*
X103489688Y-17623214D01*
X103489687Y-17623213D01*
X103485921Y-17617219D01*
X103357091Y-17488389D01*
X103351097Y-17484623D01*
X103351095Y-17484621D01*
X103268442Y-17432687D01*
X103224523Y-17385707D01*
X103209510Y-17323173D01*
X103227313Y-17261375D01*
X103273296Y-17216413D01*
X103335478Y-17200000D01*
X112007132Y-17200000D01*
X112065507Y-17214338D01*
X112110596Y-17254090D01*
X112132138Y-17310207D01*
X112125230Y-17369919D01*
X112092062Y-17418725D01*
X112088747Y-17421134D01*
X112084325Y-17426044D01*
X112084325Y-17426045D01*
X111983176Y-17538383D01*
X111960960Y-17563056D01*
X111957661Y-17568769D01*
X111957658Y-17568774D01*
X111890611Y-17684904D01*
X111865473Y-17728444D01*
X111863434Y-17734718D01*
X111863430Y-17734728D01*
X111808497Y-17903794D01*
X111808495Y-17903801D01*
X111806458Y-17910072D01*
X111805768Y-17916633D01*
X111805768Y-17916635D01*
X111789361Y-18072742D01*
X111786496Y-18100000D01*
X111787186Y-18106565D01*
X111804625Y-18272493D01*
X111806458Y-18289928D01*
X111808495Y-18296200D01*
X111808497Y-18296205D01*
X111863430Y-18465271D01*
X111863433Y-18465278D01*
X111865473Y-18471556D01*
X111960960Y-18636944D01*
X112088747Y-18778866D01*
X112094089Y-18782747D01*
X112094091Y-18782749D01*
X112118647Y-18800590D01*
X112243248Y-18891118D01*
X112417712Y-18968794D01*
X112604513Y-19008500D01*
X112788884Y-19008500D01*
X112795487Y-19008500D01*
X112982288Y-18968794D01*
X113156752Y-18891118D01*
X113311253Y-18778866D01*
X113439040Y-18636944D01*
X113534527Y-18471556D01*
X113593542Y-18289928D01*
X113595285Y-18273345D01*
X114172272Y-18273345D01*
X114183448Y-18276000D01*
X115424410Y-18276000D01*
X115437493Y-18272493D01*
X115441000Y-18259410D01*
X115949000Y-18259410D01*
X115952506Y-18272493D01*
X115965590Y-18276000D01*
X117206552Y-18276000D01*
X117217727Y-18273345D01*
X118602272Y-18273345D01*
X118613448Y-18276000D01*
X119604410Y-18276000D01*
X119617493Y-18272493D01*
X119621000Y-18259410D01*
X120129000Y-18259410D01*
X120132506Y-18272493D01*
X120145590Y-18276000D01*
X121136552Y-18276000D01*
X121147727Y-18273345D01*
X121147022Y-18261877D01*
X121112573Y-18148313D01*
X121107858Y-18136930D01*
X121020095Y-17972738D01*
X121013244Y-17962485D01*
X120895138Y-17818572D01*
X120886427Y-17809861D01*
X120742514Y-17691755D01*
X120732261Y-17684904D01*
X120568069Y-17597141D01*
X120556686Y-17592426D01*
X120378531Y-17538383D01*
X120366437Y-17535977D01*
X120227598Y-17522303D01*
X120221426Y-17522000D01*
X120145590Y-17522000D01*
X120132506Y-17525506D01*
X120129000Y-17538590D01*
X120129000Y-18259410D01*
X119621000Y-18259410D01*
X119621000Y-17538590D01*
X119617493Y-17525506D01*
X119604410Y-17522000D01*
X119528574Y-17522000D01*
X119522401Y-17522303D01*
X119383562Y-17535977D01*
X119371468Y-17538383D01*
X119193313Y-17592426D01*
X119181930Y-17597141D01*
X119017738Y-17684904D01*
X119007485Y-17691755D01*
X118863572Y-17809861D01*
X118854861Y-17818572D01*
X118736755Y-17962485D01*
X118729904Y-17972738D01*
X118642141Y-18136930D01*
X118637426Y-18148313D01*
X118602977Y-18261877D01*
X118602272Y-18273345D01*
X117217727Y-18273345D01*
X117217022Y-18261877D01*
X117182573Y-18148313D01*
X117177858Y-18136930D01*
X117090095Y-17972738D01*
X117083244Y-17962485D01*
X116965138Y-17818572D01*
X116956427Y-17809861D01*
X116812514Y-17691755D01*
X116802261Y-17684904D01*
X116638069Y-17597141D01*
X116626686Y-17592426D01*
X116448531Y-17538383D01*
X116436437Y-17535977D01*
X116297598Y-17522303D01*
X116291426Y-17522000D01*
X115965590Y-17522000D01*
X115952506Y-17525506D01*
X115949000Y-17538590D01*
X115949000Y-18259410D01*
X115441000Y-18259410D01*
X115441000Y-17538590D01*
X115437493Y-17525506D01*
X115424410Y-17522000D01*
X115098574Y-17522000D01*
X115092401Y-17522303D01*
X114953562Y-17535977D01*
X114941468Y-17538383D01*
X114763313Y-17592426D01*
X114751930Y-17597141D01*
X114587738Y-17684904D01*
X114577485Y-17691755D01*
X114433572Y-17809861D01*
X114424861Y-17818572D01*
X114306755Y-17962485D01*
X114299904Y-17972738D01*
X114212141Y-18136930D01*
X114207426Y-18148313D01*
X114172977Y-18261877D01*
X114172272Y-18273345D01*
X113595285Y-18273345D01*
X113613504Y-18100000D01*
X113593542Y-17910072D01*
X113534527Y-17728444D01*
X113439040Y-17563056D01*
X113311253Y-17421134D01*
X113307937Y-17418725D01*
X113274770Y-17369919D01*
X113267862Y-17310207D01*
X113289404Y-17254090D01*
X113334493Y-17214338D01*
X113392868Y-17200000D01*
X122974030Y-17200000D01*
X123037021Y-17216876D01*
X123083139Y-17262983D01*
X123100029Y-17325968D01*
X123105082Y-38746335D01*
X123111029Y-63962622D01*
X123094184Y-64025591D01*
X123048126Y-64071715D01*
X122985182Y-64088652D01*
X82137182Y-64138345D01*
X82074126Y-64121520D01*
X82027945Y-64075406D01*
X82011029Y-64012375D01*
X82011017Y-63962622D01*
X82006373Y-44250000D01*
X97386384Y-44250000D01*
X97406783Y-44431047D01*
X97409118Y-44437720D01*
X97409119Y-44437724D01*
X97464619Y-44596335D01*
X97464621Y-44596339D01*
X97466957Y-44603015D01*
X97470719Y-44609003D01*
X97470721Y-44609006D01*
X97558869Y-44749293D01*
X97563889Y-44757281D01*
X97692719Y-44886111D01*
X97698713Y-44889877D01*
X97698714Y-44889878D01*
X97805584Y-44957029D01*
X97846985Y-44983043D01*
X98018953Y-45043217D01*
X98200000Y-45063616D01*
X98381047Y-45043217D01*
X98553015Y-44983043D01*
X98707281Y-44886111D01*
X98836111Y-44757281D01*
X98933043Y-44603015D01*
X98993217Y-44431047D01*
X99013616Y-44250000D01*
X98993217Y-44068953D01*
X98933043Y-43896985D01*
X98908861Y-43858500D01*
X98839878Y-43748714D01*
X98839877Y-43748713D01*
X98836111Y-43742719D01*
X98707281Y-43613889D01*
X98701287Y-43610123D01*
X98701285Y-43610121D01*
X98559006Y-43520721D01*
X98559003Y-43520719D01*
X98553015Y-43516957D01*
X98546339Y-43514621D01*
X98546335Y-43514619D01*
X98387724Y-43459119D01*
X98387720Y-43459118D01*
X98381047Y-43456783D01*
X98200000Y-43436384D01*
X98192971Y-43437176D01*
X98025981Y-43455991D01*
X98025979Y-43455991D01*
X98018953Y-43456783D01*
X98012280Y-43459117D01*
X98012275Y-43459119D01*
X97853664Y-43514619D01*
X97853656Y-43514622D01*
X97846985Y-43516957D01*
X97841000Y-43520717D01*
X97840993Y-43520721D01*
X97698714Y-43610121D01*
X97698707Y-43610126D01*
X97692719Y-43613889D01*
X97687714Y-43618893D01*
X97687710Y-43618897D01*
X97568897Y-43737710D01*
X97568893Y-43737714D01*
X97563889Y-43742719D01*
X97560126Y-43748707D01*
X97560121Y-43748714D01*
X97470721Y-43890993D01*
X97470717Y-43891000D01*
X97466957Y-43896985D01*
X97464622Y-43903656D01*
X97464619Y-43903664D01*
X97409119Y-44062275D01*
X97409117Y-44062280D01*
X97406783Y-44068953D01*
X97386384Y-44250000D01*
X82006373Y-44250000D01*
X82005178Y-39175660D01*
X82004830Y-37700000D01*
X92186384Y-37700000D01*
X92206783Y-37881047D01*
X92209118Y-37887720D01*
X92209119Y-37887724D01*
X92264619Y-38046335D01*
X92264621Y-38046339D01*
X92266957Y-38053015D01*
X92270719Y-38059003D01*
X92270721Y-38059006D01*
X92351591Y-38187710D01*
X92363889Y-38207281D01*
X92492719Y-38336111D01*
X92498713Y-38339877D01*
X92498714Y-38339878D01*
X92599743Y-38403359D01*
X92646985Y-38433043D01*
X92818953Y-38493217D01*
X93000000Y-38513616D01*
X93181047Y-38493217D01*
X93353015Y-38433043D01*
X93405602Y-38400000D01*
X94686384Y-38400000D01*
X94687176Y-38407029D01*
X94701751Y-38536391D01*
X94706783Y-38581047D01*
X94709118Y-38587720D01*
X94709119Y-38587724D01*
X94764619Y-38746335D01*
X94764621Y-38746339D01*
X94766957Y-38753015D01*
X94770719Y-38759003D01*
X94770721Y-38759006D01*
X94833065Y-38858226D01*
X94863889Y-38907281D01*
X94992719Y-39036111D01*
X94998713Y-39039877D01*
X94998714Y-39039878D01*
X95102606Y-39105158D01*
X95146985Y-39133043D01*
X95318953Y-39193217D01*
X95500000Y-39213616D01*
X95681047Y-39193217D01*
X95853015Y-39133043D01*
X96007281Y-39036111D01*
X96043392Y-39000000D01*
X96686384Y-39000000D01*
X96706783Y-39181047D01*
X96709118Y-39187720D01*
X96709119Y-39187724D01*
X96764619Y-39346335D01*
X96764621Y-39346339D01*
X96766957Y-39353015D01*
X96770719Y-39359003D01*
X96770721Y-39359006D01*
X96853866Y-39491331D01*
X96863889Y-39507281D01*
X96992719Y-39636111D01*
X96998713Y-39639877D01*
X96998714Y-39639878D01*
X97090568Y-39697594D01*
X97146985Y-39733043D01*
X97318953Y-39793217D01*
X97500000Y-39813616D01*
X97681047Y-39793217D01*
X97853015Y-39733043D01*
X98007281Y-39636111D01*
X98136111Y-39507281D01*
X98233043Y-39353015D01*
X98293217Y-39181047D01*
X98313616Y-39000000D01*
X98293217Y-38818953D01*
X98233043Y-38646985D01*
X98189306Y-38577378D01*
X98139878Y-38498714D01*
X98139877Y-38498713D01*
X98136111Y-38492719D01*
X98007281Y-38363889D01*
X98001287Y-38360123D01*
X98001285Y-38360121D01*
X97859006Y-38270721D01*
X97859003Y-38270719D01*
X97853015Y-38266957D01*
X97846339Y-38264621D01*
X97846335Y-38264619D01*
X97687724Y-38209119D01*
X97687720Y-38209118D01*
X97681047Y-38206783D01*
X97500000Y-38186384D01*
X97466813Y-38190123D01*
X97325981Y-38205991D01*
X97325979Y-38205991D01*
X97318953Y-38206783D01*
X97312280Y-38209117D01*
X97312275Y-38209119D01*
X97153664Y-38264619D01*
X97153656Y-38264622D01*
X97146985Y-38266957D01*
X97141000Y-38270717D01*
X97140993Y-38270721D01*
X96998714Y-38360121D01*
X96998707Y-38360126D01*
X96992719Y-38363889D01*
X96987714Y-38368893D01*
X96987710Y-38368897D01*
X96868897Y-38487710D01*
X96868893Y-38487714D01*
X96863889Y-38492719D01*
X96860126Y-38498707D01*
X96860121Y-38498714D01*
X96770721Y-38640993D01*
X96770717Y-38641000D01*
X96766957Y-38646985D01*
X96764622Y-38653656D01*
X96764619Y-38653664D01*
X96709119Y-38812275D01*
X96709117Y-38812280D01*
X96706783Y-38818953D01*
X96686384Y-39000000D01*
X96043392Y-39000000D01*
X96136111Y-38907281D01*
X96233043Y-38753015D01*
X96293217Y-38581047D01*
X96313616Y-38400000D01*
X96293217Y-38218953D01*
X96233043Y-38046985D01*
X96162347Y-37934473D01*
X96139878Y-37898714D01*
X96139877Y-37898713D01*
X96136111Y-37892719D01*
X96007281Y-37763889D01*
X96001287Y-37760123D01*
X96001285Y-37760121D01*
X95859006Y-37670721D01*
X95859003Y-37670719D01*
X95853015Y-37666957D01*
X95846339Y-37664621D01*
X95846335Y-37664619D01*
X95687724Y-37609119D01*
X95687720Y-37609118D01*
X95681047Y-37606783D01*
X95500000Y-37586384D01*
X95492971Y-37587176D01*
X95325981Y-37605991D01*
X95325979Y-37605991D01*
X95318953Y-37606783D01*
X95312280Y-37609117D01*
X95312275Y-37609119D01*
X95153664Y-37664619D01*
X95153656Y-37664622D01*
X95146985Y-37666957D01*
X95141000Y-37670717D01*
X95140993Y-37670721D01*
X94998714Y-37760121D01*
X94998707Y-37760126D01*
X94992719Y-37763889D01*
X94987714Y-37768893D01*
X94987710Y-37768897D01*
X94868897Y-37887710D01*
X94868893Y-37887714D01*
X94863889Y-37892719D01*
X94860126Y-37898707D01*
X94860121Y-37898714D01*
X94770721Y-38040993D01*
X94770717Y-38041000D01*
X94766957Y-38046985D01*
X94764622Y-38053656D01*
X94764619Y-38053664D01*
X94709119Y-38212275D01*
X94709117Y-38212280D01*
X94706783Y-38218953D01*
X94705991Y-38225979D01*
X94705991Y-38225981D01*
X94693158Y-38339878D01*
X94686384Y-38400000D01*
X93405602Y-38400000D01*
X93507281Y-38336111D01*
X93636111Y-38207281D01*
X93733043Y-38053015D01*
X93793217Y-37881047D01*
X93813616Y-37700000D01*
X93793217Y-37518953D01*
X93733043Y-37346985D01*
X93710281Y-37310759D01*
X93639878Y-37198714D01*
X93639877Y-37198713D01*
X93636111Y-37192719D01*
X93507281Y-37063889D01*
X93501287Y-37060123D01*
X93501285Y-37060121D01*
X93359006Y-36970721D01*
X93359003Y-36970719D01*
X93353015Y-36966957D01*
X93346339Y-36964621D01*
X93346335Y-36964619D01*
X93187724Y-36909119D01*
X93187720Y-36909118D01*
X93181047Y-36906783D01*
X93000000Y-36886384D01*
X92992971Y-36887176D01*
X92825981Y-36905991D01*
X92825979Y-36905991D01*
X92818953Y-36906783D01*
X92812280Y-36909117D01*
X92812275Y-36909119D01*
X92653664Y-36964619D01*
X92653656Y-36964622D01*
X92646985Y-36966957D01*
X92641000Y-36970717D01*
X92640993Y-36970721D01*
X92498714Y-37060121D01*
X92498707Y-37060126D01*
X92492719Y-37063889D01*
X92487714Y-37068893D01*
X92487710Y-37068897D01*
X92368897Y-37187710D01*
X92368893Y-37187714D01*
X92363889Y-37192719D01*
X92360126Y-37198707D01*
X92360121Y-37198714D01*
X92270721Y-37340993D01*
X92270717Y-37341000D01*
X92266957Y-37346985D01*
X92264622Y-37353656D01*
X92264619Y-37353664D01*
X92209119Y-37512275D01*
X92209117Y-37512280D01*
X92206783Y-37518953D01*
X92205991Y-37525979D01*
X92205991Y-37525981D01*
X92191608Y-37653633D01*
X92186384Y-37700000D01*
X82004830Y-37700000D01*
X82004553Y-36525000D01*
X95302902Y-36525000D01*
X95323301Y-36706047D01*
X95325636Y-36712720D01*
X95325637Y-36712724D01*
X95381137Y-36871335D01*
X95381139Y-36871339D01*
X95383475Y-36878015D01*
X95387237Y-36884003D01*
X95387239Y-36884006D01*
X95462017Y-37003015D01*
X95480407Y-37032281D01*
X95609237Y-37161111D01*
X95763503Y-37258043D01*
X95935471Y-37318217D01*
X96116518Y-37338616D01*
X96297565Y-37318217D01*
X96469533Y-37258043D01*
X96623799Y-37161111D01*
X96752629Y-37032281D01*
X96849561Y-36878015D01*
X96909735Y-36706047D01*
X96930134Y-36525000D01*
X96909735Y-36343953D01*
X96849561Y-36171985D01*
X96827151Y-36136320D01*
X96756396Y-36023714D01*
X96756395Y-36023713D01*
X96752629Y-36017719D01*
X96623799Y-35888889D01*
X96617805Y-35885123D01*
X96617803Y-35885121D01*
X96475524Y-35795721D01*
X96475521Y-35795719D01*
X96469533Y-35791957D01*
X96462857Y-35789621D01*
X96462853Y-35789619D01*
X96304242Y-35734119D01*
X96304238Y-35734118D01*
X96297565Y-35731783D01*
X96116518Y-35711384D01*
X96109489Y-35712176D01*
X95942499Y-35730991D01*
X95942497Y-35730991D01*
X95935471Y-35731783D01*
X95928798Y-35734117D01*
X95928793Y-35734119D01*
X95770182Y-35789619D01*
X95770174Y-35789622D01*
X95763503Y-35791957D01*
X95757518Y-35795717D01*
X95757511Y-35795721D01*
X95615232Y-35885121D01*
X95615225Y-35885126D01*
X95609237Y-35888889D01*
X95604232Y-35893893D01*
X95604228Y-35893897D01*
X95485415Y-36012710D01*
X95485411Y-36012714D01*
X95480407Y-36017719D01*
X95476644Y-36023707D01*
X95476639Y-36023714D01*
X95387239Y-36165993D01*
X95387235Y-36166000D01*
X95383475Y-36171985D01*
X95381140Y-36178656D01*
X95381137Y-36178664D01*
X95325637Y-36337275D01*
X95325635Y-36337280D01*
X95323301Y-36343953D01*
X95322509Y-36350979D01*
X95322509Y-36350981D01*
X95320899Y-36365271D01*
X95302902Y-36525000D01*
X82004553Y-36525000D01*
X82004055Y-34409500D01*
X86186384Y-34409500D01*
X86206783Y-34590547D01*
X86209118Y-34597220D01*
X86209119Y-34597224D01*
X86264619Y-34755835D01*
X86264621Y-34755839D01*
X86266957Y-34762515D01*
X86270719Y-34768503D01*
X86270721Y-34768506D01*
X86359333Y-34909531D01*
X86363889Y-34916781D01*
X86492719Y-35045611D01*
X86498713Y-35049377D01*
X86498714Y-35049378D01*
X86533746Y-35071390D01*
X86646985Y-35142543D01*
X86818953Y-35202717D01*
X87000000Y-35223116D01*
X87181047Y-35202717D01*
X87353015Y-35142543D01*
X87507281Y-35045611D01*
X87515651Y-35037240D01*
X87572134Y-35004627D01*
X87637359Y-35004625D01*
X87693845Y-35037237D01*
X87792719Y-35136111D01*
X87798713Y-35139877D01*
X87798714Y-35139878D01*
X87914710Y-35212763D01*
X87946985Y-35233043D01*
X88118953Y-35293217D01*
X88300000Y-35313616D01*
X88481047Y-35293217D01*
X88653015Y-35233043D01*
X88807281Y-35136111D01*
X88936111Y-35007281D01*
X89033043Y-34853015D01*
X89093217Y-34681047D01*
X89113616Y-34500000D01*
X89093217Y-34318953D01*
X89033043Y-34146985D01*
X88952813Y-34019300D01*
X88933500Y-33952264D01*
X88933500Y-33100000D01*
X89286384Y-33100000D01*
X89287176Y-33107028D01*
X89287176Y-33107029D01*
X89300733Y-33227356D01*
X89306783Y-33281047D01*
X89309118Y-33287720D01*
X89309119Y-33287724D01*
X89364619Y-33446335D01*
X89364621Y-33446339D01*
X89366957Y-33453015D01*
X89370719Y-33459003D01*
X89370721Y-33459006D01*
X89456727Y-33595884D01*
X89463889Y-33607281D01*
X89592719Y-33736111D01*
X89598713Y-33739877D01*
X89598714Y-33739878D01*
X89722260Y-33817507D01*
X89746985Y-33833043D01*
X89918953Y-33893217D01*
X90100000Y-33913616D01*
X90254331Y-33896227D01*
X90310053Y-33902506D01*
X90357533Y-33932339D01*
X90387367Y-33979819D01*
X90393646Y-34035541D01*
X90390534Y-34063164D01*
X90386384Y-34100000D01*
X90406783Y-34281047D01*
X90409118Y-34287720D01*
X90409119Y-34287724D01*
X90464619Y-34446335D01*
X90464621Y-34446339D01*
X90466957Y-34453015D01*
X90470719Y-34459003D01*
X90470721Y-34459006D01*
X90557569Y-34597224D01*
X90563889Y-34607281D01*
X90692719Y-34736111D01*
X90698713Y-34739877D01*
X90698714Y-34739878D01*
X90822852Y-34817879D01*
X90846985Y-34833043D01*
X91018953Y-34893217D01*
X91200000Y-34913616D01*
X91381047Y-34893217D01*
X91553015Y-34833043D01*
X91707281Y-34736111D01*
X91836111Y-34607281D01*
X91933043Y-34453015D01*
X91993217Y-34281047D01*
X92013616Y-34100000D01*
X91993217Y-33918953D01*
X91933043Y-33746985D01*
X91848408Y-33612289D01*
X91839878Y-33598714D01*
X91839877Y-33598713D01*
X91836111Y-33592719D01*
X91707281Y-33463889D01*
X91701287Y-33460123D01*
X91701285Y-33460121D01*
X91559006Y-33370721D01*
X91559003Y-33370719D01*
X91553015Y-33366957D01*
X91546339Y-33364621D01*
X91546335Y-33364619D01*
X91387724Y-33309119D01*
X91387720Y-33309118D01*
X91381047Y-33306783D01*
X91200000Y-33286384D01*
X91192971Y-33287176D01*
X91192970Y-33287176D01*
X91045668Y-33303772D01*
X90989945Y-33297493D01*
X90942465Y-33267659D01*
X90912631Y-33220178D01*
X90906353Y-33164458D01*
X90913616Y-33100000D01*
X90893217Y-32918953D01*
X90833043Y-32746985D01*
X90736111Y-32592719D01*
X90607281Y-32463889D01*
X90601287Y-32460123D01*
X90601285Y-32460121D01*
X90459006Y-32370721D01*
X90459003Y-32370719D01*
X90453015Y-32366957D01*
X90446339Y-32364621D01*
X90446335Y-32364619D01*
X90287724Y-32309119D01*
X90287720Y-32309118D01*
X90281047Y-32306783D01*
X90100000Y-32286384D01*
X90092971Y-32287176D01*
X89925981Y-32305991D01*
X89925979Y-32305991D01*
X89918953Y-32306783D01*
X89912280Y-32309117D01*
X89912275Y-32309119D01*
X89753664Y-32364619D01*
X89753656Y-32364622D01*
X89746985Y-32366957D01*
X89741000Y-32370717D01*
X89740993Y-32370721D01*
X89598714Y-32460121D01*
X89598707Y-32460126D01*
X89592719Y-32463889D01*
X89587714Y-32468893D01*
X89587710Y-32468897D01*
X89468897Y-32587710D01*
X89468893Y-32587714D01*
X89463889Y-32592719D01*
X89460126Y-32598707D01*
X89460121Y-32598714D01*
X89370721Y-32740993D01*
X89370717Y-32741000D01*
X89366957Y-32746985D01*
X89364622Y-32753656D01*
X89364619Y-32753664D01*
X89309119Y-32912275D01*
X89309117Y-32912280D01*
X89306783Y-32918953D01*
X89305991Y-32925979D01*
X89305991Y-32925981D01*
X89296914Y-33006547D01*
X89286384Y-33100000D01*
X88933500Y-33100000D01*
X88933500Y-32683174D01*
X88943091Y-32634956D01*
X88970405Y-32594079D01*
X89814484Y-31750000D01*
X100286496Y-31750000D01*
X100287186Y-31756565D01*
X100298766Y-31866748D01*
X100306458Y-31939928D01*
X100308495Y-31946200D01*
X100308497Y-31946205D01*
X100363430Y-32115271D01*
X100363433Y-32115278D01*
X100365473Y-32121556D01*
X100416406Y-32209774D01*
X100457452Y-32280869D01*
X100460960Y-32286944D01*
X100498391Y-32328515D01*
X100580849Y-32420095D01*
X100588747Y-32428866D01*
X100594089Y-32432747D01*
X100594091Y-32432749D01*
X100631766Y-32460121D01*
X100743248Y-32541118D01*
X100917712Y-32618794D01*
X101104513Y-32658500D01*
X101288884Y-32658500D01*
X101295487Y-32658500D01*
X101482288Y-32618794D01*
X101656752Y-32541118D01*
X101811253Y-32428866D01*
X101939040Y-32286944D01*
X102034527Y-32121556D01*
X102093542Y-31939928D01*
X102113504Y-31750000D01*
X102093542Y-31560072D01*
X102051910Y-31431942D01*
X102036569Y-31384728D01*
X102036568Y-31384726D01*
X102034527Y-31378444D01*
X101987712Y-31297358D01*
X101970874Y-31237655D01*
X101984565Y-31177153D01*
X102025467Y-31130516D01*
X102083666Y-31109048D01*
X102088879Y-31108500D01*
X102095487Y-31108500D01*
X102282288Y-31068794D01*
X102456752Y-30991118D01*
X102611253Y-30878866D01*
X102739040Y-30736944D01*
X102834527Y-30571556D01*
X102893542Y-30389928D01*
X102913504Y-30200000D01*
X102893542Y-30010072D01*
X102834527Y-29828444D01*
X102825610Y-29813000D01*
X102808729Y-29750000D01*
X102825611Y-29686998D01*
X102825612Y-29686997D01*
X102834527Y-29671556D01*
X102893542Y-29489928D01*
X102913504Y-29300000D01*
X102893542Y-29110072D01*
X102834527Y-28928444D01*
X102825610Y-28912999D01*
X102808729Y-28850000D01*
X102825611Y-28786998D01*
X102834527Y-28771556D01*
X102893542Y-28589928D01*
X102913504Y-28400000D01*
X102893542Y-28210072D01*
X102834527Y-28028444D01*
X102825610Y-28013000D01*
X102808729Y-27950000D01*
X102825611Y-27886998D01*
X102825612Y-27886997D01*
X102834527Y-27871556D01*
X102893542Y-27689928D01*
X102913504Y-27500000D01*
X102893542Y-27310072D01*
X102834527Y-27128444D01*
X102739040Y-26963056D01*
X102611253Y-26821134D01*
X102605911Y-26817253D01*
X102605908Y-26817250D01*
X102493223Y-26735380D01*
X102456752Y-26708882D01*
X102282288Y-26631206D01*
X102275835Y-26629834D01*
X102275831Y-26629833D01*
X102101943Y-26592872D01*
X102101940Y-26592871D01*
X102095487Y-26591500D01*
X101904513Y-26591500D01*
X101898060Y-26592871D01*
X101898056Y-26592872D01*
X101724168Y-26629833D01*
X101724161Y-26629835D01*
X101717712Y-26631206D01*
X101711682Y-26633890D01*
X101711681Y-26633891D01*
X101549278Y-26706197D01*
X101549275Y-26706198D01*
X101543248Y-26708882D01*
X101537907Y-26712762D01*
X101537906Y-26712763D01*
X101394091Y-26817250D01*
X101394083Y-26817256D01*
X101388747Y-26821134D01*
X101384330Y-26826039D01*
X101384325Y-26826044D01*
X101279507Y-26942457D01*
X101260960Y-26963056D01*
X101257661Y-26968769D01*
X101257658Y-26968774D01*
X101178329Y-27106176D01*
X101165473Y-27128444D01*
X101163434Y-27134718D01*
X101163430Y-27134728D01*
X101108497Y-27303794D01*
X101108495Y-27303801D01*
X101106458Y-27310072D01*
X101105768Y-27316633D01*
X101105768Y-27316635D01*
X101092730Y-27440685D01*
X101086496Y-27500000D01*
X101087186Y-27506565D01*
X101105530Y-27681104D01*
X101106458Y-27689928D01*
X101108495Y-27696200D01*
X101108497Y-27696205D01*
X101163430Y-27865271D01*
X101163433Y-27865278D01*
X101165473Y-27871556D01*
X101168776Y-27877277D01*
X101174388Y-27886997D01*
X101191270Y-27949995D01*
X101174392Y-28012995D01*
X101168775Y-28022723D01*
X101168771Y-28022730D01*
X101165473Y-28028444D01*
X101163434Y-28034718D01*
X101163430Y-28034728D01*
X101108497Y-28203794D01*
X101108495Y-28203801D01*
X101106458Y-28210072D01*
X101105768Y-28216633D01*
X101105768Y-28216635D01*
X101098073Y-28289847D01*
X101086496Y-28400000D01*
X101087186Y-28406565D01*
X101096267Y-28492971D01*
X101106458Y-28589928D01*
X101108495Y-28596200D01*
X101108497Y-28596205D01*
X101163430Y-28765271D01*
X101163433Y-28765278D01*
X101165473Y-28771556D01*
X101168771Y-28777269D01*
X101168775Y-28777277D01*
X101174390Y-28787001D01*
X101191270Y-28850000D01*
X101174390Y-28912999D01*
X101168775Y-28922722D01*
X101168769Y-28922733D01*
X101165473Y-28928444D01*
X101163434Y-28934718D01*
X101163430Y-28934728D01*
X101108497Y-29103794D01*
X101108495Y-29103801D01*
X101106458Y-29110072D01*
X101105768Y-29116633D01*
X101105768Y-29116635D01*
X101091247Y-29254798D01*
X101086496Y-29300000D01*
X101087186Y-29306565D01*
X101104425Y-29470590D01*
X101106458Y-29489928D01*
X101108495Y-29496200D01*
X101108497Y-29496205D01*
X101163430Y-29665271D01*
X101163433Y-29665278D01*
X101165473Y-29671556D01*
X101168776Y-29677277D01*
X101174388Y-29686997D01*
X101191270Y-29749995D01*
X101174392Y-29812995D01*
X101168775Y-29822723D01*
X101168771Y-29822730D01*
X101165473Y-29828444D01*
X101163434Y-29834718D01*
X101163430Y-29834728D01*
X101108497Y-30003794D01*
X101108495Y-30003801D01*
X101106458Y-30010072D01*
X101105768Y-30016633D01*
X101105768Y-30016635D01*
X101094387Y-30124925D01*
X101086496Y-30200000D01*
X101106458Y-30389928D01*
X101108495Y-30396200D01*
X101108497Y-30396205D01*
X101163430Y-30565271D01*
X101163433Y-30565278D01*
X101165473Y-30571556D01*
X101168776Y-30577277D01*
X101168777Y-30577279D01*
X101212287Y-30652641D01*
X101229125Y-30712343D01*
X101215435Y-30772844D01*
X101174535Y-30819481D01*
X101116338Y-30840951D01*
X101111113Y-30841500D01*
X101104513Y-30841500D01*
X101098060Y-30842871D01*
X101098056Y-30842872D01*
X100924168Y-30879833D01*
X100924161Y-30879835D01*
X100917712Y-30881206D01*
X100911682Y-30883890D01*
X100911681Y-30883891D01*
X100749278Y-30956197D01*
X100749275Y-30956198D01*
X100743248Y-30958882D01*
X100737907Y-30962762D01*
X100737906Y-30962763D01*
X100594091Y-31067250D01*
X100594083Y-31067256D01*
X100588747Y-31071134D01*
X100584330Y-31076039D01*
X100584325Y-31076044D01*
X100465379Y-31208148D01*
X100460960Y-31213056D01*
X100457661Y-31218769D01*
X100457658Y-31218774D01*
X100387641Y-31340048D01*
X100365473Y-31378444D01*
X100363434Y-31384718D01*
X100363430Y-31384728D01*
X100308497Y-31553794D01*
X100308495Y-31553801D01*
X100306458Y-31560072D01*
X100305768Y-31566633D01*
X100305768Y-31566635D01*
X100301512Y-31607127D01*
X100286496Y-31750000D01*
X89814484Y-31750000D01*
X90299981Y-31264503D01*
X91155856Y-30408627D01*
X92229526Y-30408627D01*
X92239261Y-30415132D01*
X92378797Y-30463957D01*
X92392505Y-30467086D01*
X92549082Y-30484729D01*
X92563140Y-30484729D01*
X92719716Y-30467086D01*
X92733424Y-30463957D01*
X92872957Y-30415133D01*
X92879806Y-30410557D01*
X92896971Y-30403446D01*
X93002648Y-30403446D01*
X93019811Y-30410556D01*
X93026658Y-30415131D01*
X93166197Y-30463957D01*
X93179905Y-30467086D01*
X93336482Y-30484729D01*
X93350540Y-30484729D01*
X93507116Y-30467086D01*
X93520824Y-30463957D01*
X93660359Y-30415132D01*
X93670094Y-30408628D01*
X93664144Y-30398542D01*
X93355240Y-30089638D01*
X93343510Y-30082866D01*
X93331782Y-30089637D01*
X93038905Y-30382514D01*
X93002648Y-30403446D01*
X92896971Y-30403446D01*
X92860715Y-30382513D01*
X92567840Y-30089638D01*
X92556110Y-30082866D01*
X92544382Y-30089637D01*
X92235473Y-30398545D01*
X92229526Y-30408627D01*
X91155856Y-30408627D01*
X91632152Y-29932331D01*
X91686364Y-29900352D01*
X91749283Y-29898587D01*
X91805205Y-29927477D01*
X91840175Y-29979813D01*
X91859677Y-30035550D01*
X91866181Y-30045283D01*
X91876261Y-30039337D01*
X92185170Y-29730429D01*
X92191942Y-29718699D01*
X92920278Y-29718699D01*
X92927050Y-29730428D01*
X92938081Y-29741459D01*
X92949811Y-29748231D01*
X92961540Y-29741459D01*
X92972571Y-29730428D01*
X92979343Y-29718699D01*
X92979342Y-29718698D01*
X93707678Y-29718698D01*
X93714450Y-29730428D01*
X94023354Y-30039332D01*
X94033440Y-30045282D01*
X94039944Y-30035547D01*
X94088769Y-29896012D01*
X94091898Y-29882304D01*
X94109541Y-29725728D01*
X94109541Y-29711670D01*
X94091898Y-29555093D01*
X94088769Y-29541385D01*
X94039943Y-29401846D01*
X94035368Y-29394999D01*
X94028258Y-29377836D01*
X94007326Y-29414093D01*
X93714449Y-29706970D01*
X93707678Y-29718698D01*
X92979342Y-29718698D01*
X92972571Y-29706969D01*
X92961540Y-29695938D01*
X92949811Y-29689166D01*
X92938081Y-29695938D01*
X92927050Y-29706969D01*
X92920278Y-29718699D01*
X92191942Y-29718699D01*
X92191943Y-29718698D01*
X92185171Y-29706969D01*
X92110438Y-29632236D01*
X92077826Y-29575752D01*
X92077826Y-29510530D01*
X92110438Y-29454046D01*
X92309686Y-29254798D01*
X92485910Y-29254798D01*
X92512181Y-29285557D01*
X92518142Y-29310388D01*
X92533350Y-29336728D01*
X92544381Y-29347759D01*
X92556111Y-29354531D01*
X92567840Y-29347759D01*
X92578871Y-29336728D01*
X92585643Y-29324999D01*
X93313978Y-29324999D01*
X93320750Y-29336728D01*
X93331781Y-29347759D01*
X93343511Y-29354531D01*
X93355240Y-29347759D01*
X93366271Y-29336728D01*
X93373043Y-29324999D01*
X93366271Y-29313269D01*
X93355240Y-29302238D01*
X93343511Y-29295466D01*
X93331781Y-29302238D01*
X93320750Y-29313269D01*
X93313978Y-29324999D01*
X92585643Y-29324999D01*
X92578871Y-29313269D01*
X92567840Y-29302238D01*
X92541500Y-29287030D01*
X92516669Y-29281069D01*
X92485910Y-29254798D01*
X92309686Y-29254798D01*
X92310819Y-29253665D01*
X92360978Y-29222927D01*
X92419625Y-29218311D01*
X92470494Y-29239382D01*
X92449423Y-29188513D01*
X92454039Y-29129866D01*
X92484777Y-29079707D01*
X92703386Y-28861098D01*
X92879610Y-28861098D01*
X92905881Y-28891857D01*
X92911842Y-28916688D01*
X92927050Y-28943028D01*
X92938081Y-28954059D01*
X92949811Y-28960831D01*
X92961540Y-28954059D01*
X92972571Y-28943028D01*
X92979343Y-28931299D01*
X92979342Y-28931298D01*
X93707678Y-28931298D01*
X93714450Y-28943028D01*
X94007325Y-29235903D01*
X94028258Y-29272159D01*
X94035369Y-29254994D01*
X94039945Y-29248145D01*
X94088769Y-29108612D01*
X94091898Y-29094904D01*
X94109541Y-28938328D01*
X94109541Y-28924270D01*
X94091898Y-28767693D01*
X94088769Y-28753985D01*
X94039944Y-28614449D01*
X94033439Y-28604714D01*
X94023357Y-28610661D01*
X93714449Y-28919570D01*
X93707678Y-28931298D01*
X92979342Y-28931298D01*
X92972571Y-28919569D01*
X92961540Y-28908538D01*
X92935200Y-28893330D01*
X92910369Y-28887369D01*
X92879610Y-28861098D01*
X92703386Y-28861098D01*
X92704519Y-28859965D01*
X92754678Y-28829227D01*
X92813325Y-28824611D01*
X92864194Y-28845682D01*
X92843123Y-28794813D01*
X92847739Y-28736166D01*
X92878477Y-28686007D01*
X93078858Y-28485626D01*
X93135342Y-28453014D01*
X93200564Y-28453014D01*
X93257048Y-28485626D01*
X93331781Y-28560359D01*
X93343510Y-28567131D01*
X93355241Y-28560358D01*
X93664149Y-28251449D01*
X93670095Y-28241369D01*
X93660358Y-28234863D01*
X93604626Y-28215362D01*
X93552290Y-28180393D01*
X93523400Y-28124471D01*
X93525165Y-28061552D01*
X93557146Y-28007338D01*
X93692258Y-27872226D01*
X93700534Y-27864693D01*
X93707018Y-27860580D01*
X93753660Y-27810909D01*
X93756352Y-27808131D01*
X93776135Y-27788350D01*
X93778613Y-27785154D01*
X93786308Y-27776143D01*
X93816586Y-27743901D01*
X93826348Y-27726142D01*
X93837195Y-27709630D01*
X93849614Y-27693621D01*
X93867179Y-27653026D01*
X93872388Y-27642394D01*
X93893695Y-27603640D01*
X93898733Y-27584014D01*
X93905134Y-27565317D01*
X93913181Y-27546725D01*
X93920096Y-27503057D01*
X93922504Y-27491433D01*
X93933500Y-27448610D01*
X93933500Y-27428356D01*
X93935051Y-27408645D01*
X93936980Y-27396465D01*
X93938220Y-27388637D01*
X93934058Y-27344618D01*
X93933500Y-27332761D01*
X93933500Y-24614594D01*
X93943091Y-24566376D01*
X93970405Y-24525499D01*
X95325499Y-23170405D01*
X95366376Y-23143091D01*
X95414594Y-23133500D01*
X99952264Y-23133500D01*
X100019300Y-23152813D01*
X100081420Y-23191846D01*
X100146985Y-23233043D01*
X100318953Y-23293217D01*
X100500000Y-23313616D01*
X100681047Y-23293217D01*
X100853015Y-23233043D01*
X101007281Y-23136111D01*
X101136111Y-23007281D01*
X101233043Y-22853015D01*
X101293217Y-22681047D01*
X101313616Y-22500000D01*
X101293217Y-22318953D01*
X101233043Y-22146985D01*
X101136111Y-21992719D01*
X101007281Y-21863889D01*
X101001287Y-21860123D01*
X101001285Y-21860121D01*
X100859006Y-21770721D01*
X100859003Y-21770719D01*
X100853015Y-21766957D01*
X100846339Y-21764621D01*
X100846335Y-21764619D01*
X100687724Y-21709119D01*
X100687720Y-21709118D01*
X100681047Y-21706783D01*
X100500000Y-21686384D01*
X100492971Y-21687176D01*
X100325981Y-21705991D01*
X100325979Y-21705991D01*
X100318953Y-21706783D01*
X100312280Y-21709117D01*
X100312275Y-21709119D01*
X100153664Y-21764619D01*
X100153656Y-21764622D01*
X100146985Y-21766957D01*
X100141000Y-21770717D01*
X100140993Y-21770721D01*
X100019300Y-21847187D01*
X99952264Y-21866500D01*
X95178763Y-21866500D01*
X95167579Y-21865972D01*
X95160091Y-21864299D01*
X95152176Y-21864547D01*
X95152168Y-21864547D01*
X95092033Y-21866438D01*
X95088075Y-21866500D01*
X95060144Y-21866500D01*
X95056232Y-21866993D01*
X95056199Y-21866996D01*
X95056101Y-21867009D01*
X95044300Y-21867937D01*
X95008030Y-21869077D01*
X95008022Y-21869078D01*
X95000110Y-21869327D01*
X94992504Y-21871536D01*
X94992501Y-21871537D01*
X94980655Y-21874979D01*
X94961306Y-21878986D01*
X94954234Y-21879879D01*
X94941203Y-21881526D01*
X94933844Y-21884439D01*
X94933834Y-21884442D01*
X94900082Y-21897805D01*
X94888860Y-21901647D01*
X94854014Y-21911771D01*
X94854010Y-21911772D01*
X94846406Y-21913982D01*
X94839585Y-21918015D01*
X94839582Y-21918017D01*
X94828968Y-21924294D01*
X94811218Y-21932990D01*
X94799756Y-21937528D01*
X94799751Y-21937530D01*
X94792383Y-21940448D01*
X94785974Y-21945104D01*
X94785969Y-21945107D01*
X94756615Y-21966434D01*
X94746697Y-21972948D01*
X94715464Y-21991419D01*
X94715456Y-21991425D01*
X94708637Y-21995458D01*
X94703035Y-22001058D01*
X94703028Y-22001065D01*
X94694304Y-22009789D01*
X94679282Y-22022618D01*
X94669311Y-22029863D01*
X94669302Y-22029871D01*
X94662893Y-22034528D01*
X94657846Y-22040628D01*
X94657838Y-22040636D01*
X94634710Y-22068593D01*
X94626723Y-22077370D01*
X92907742Y-23796351D01*
X92899459Y-23803888D01*
X92892982Y-23808000D01*
X92887563Y-23813769D01*
X92887555Y-23813777D01*
X92846370Y-23857635D01*
X92843621Y-23860472D01*
X92826667Y-23877427D01*
X92826660Y-23877434D01*
X92823865Y-23880230D01*
X92821442Y-23883352D01*
X92821426Y-23883371D01*
X92821365Y-23883451D01*
X92813690Y-23892435D01*
X92788838Y-23918902D01*
X92788835Y-23918904D01*
X92783414Y-23924679D01*
X92779600Y-23931614D01*
X92779592Y-23931627D01*
X92773650Y-23942436D01*
X92762803Y-23958949D01*
X92755243Y-23968695D01*
X92755237Y-23968704D01*
X92750386Y-23974959D01*
X92747242Y-23982223D01*
X92747238Y-23982231D01*
X92732824Y-24015540D01*
X92727604Y-24026195D01*
X92710125Y-24057989D01*
X92710121Y-24057997D01*
X92706305Y-24064940D01*
X92704333Y-24072616D01*
X92704331Y-24072624D01*
X92701266Y-24084562D01*
X92694865Y-24103259D01*
X92689968Y-24114576D01*
X92689966Y-24114581D01*
X92686819Y-24121855D01*
X92685579Y-24129680D01*
X92685577Y-24129689D01*
X92679901Y-24165524D01*
X92677495Y-24177144D01*
X92668471Y-24212289D01*
X92668469Y-24212297D01*
X92666500Y-24219970D01*
X92666500Y-24227899D01*
X92666500Y-24240224D01*
X92664949Y-24259935D01*
X92663019Y-24272114D01*
X92663018Y-24272121D01*
X92661780Y-24279943D01*
X92662525Y-24287826D01*
X92662525Y-24287834D01*
X92665941Y-24323961D01*
X92666500Y-24335819D01*
X92666500Y-25173553D01*
X92649025Y-25237571D01*
X92601448Y-25283832D01*
X92536965Y-25299503D01*
X92473464Y-25280239D01*
X92459644Y-25271556D01*
X92458314Y-25270720D01*
X92458312Y-25270719D01*
X92452325Y-25266957D01*
X92445649Y-25264621D01*
X92445645Y-25264619D01*
X92287034Y-25209119D01*
X92287030Y-25209118D01*
X92280357Y-25206783D01*
X92099310Y-25186384D01*
X92092281Y-25187176D01*
X91925291Y-25205991D01*
X91925289Y-25205991D01*
X91918263Y-25206783D01*
X91911590Y-25209117D01*
X91911585Y-25209119D01*
X91752974Y-25264619D01*
X91752966Y-25264622D01*
X91746295Y-25266957D01*
X91740310Y-25270717D01*
X91740303Y-25270721D01*
X91598024Y-25360121D01*
X91598017Y-25360126D01*
X91592029Y-25363889D01*
X91587024Y-25368893D01*
X91587020Y-25368897D01*
X91468207Y-25487710D01*
X91468203Y-25487714D01*
X91463199Y-25492719D01*
X91459436Y-25498707D01*
X91459431Y-25498714D01*
X91370031Y-25640993D01*
X91370027Y-25641000D01*
X91366267Y-25646985D01*
X91363932Y-25653656D01*
X91363929Y-25653664D01*
X91308429Y-25812275D01*
X91308427Y-25812280D01*
X91306093Y-25818953D01*
X91305301Y-25825979D01*
X91305301Y-25825981D01*
X91294262Y-25923955D01*
X91285694Y-26000000D01*
X91306093Y-26181047D01*
X91308428Y-26187720D01*
X91308429Y-26187724D01*
X91363929Y-26346335D01*
X91363931Y-26346339D01*
X91366267Y-26353015D01*
X91370029Y-26359003D01*
X91370031Y-26359006D01*
X91427119Y-26449861D01*
X91463199Y-26507281D01*
X91592029Y-26636111D01*
X91746295Y-26733043D01*
X91918263Y-26793217D01*
X92099310Y-26813616D01*
X92280357Y-26793217D01*
X92452325Y-26733043D01*
X92473464Y-26719760D01*
X92536965Y-26700497D01*
X92601448Y-26716168D01*
X92649025Y-26762429D01*
X92666500Y-26826447D01*
X92666500Y-27053986D01*
X92656909Y-27102204D01*
X92629595Y-27143081D01*
X87907742Y-31864931D01*
X87899459Y-31872468D01*
X87892982Y-31876580D01*
X87887563Y-31882349D01*
X87887555Y-31882357D01*
X87846370Y-31926215D01*
X87843621Y-31929052D01*
X87826667Y-31946007D01*
X87826660Y-31946014D01*
X87823865Y-31948810D01*
X87821442Y-31951932D01*
X87821426Y-31951951D01*
X87821365Y-31952031D01*
X87813690Y-31961015D01*
X87788838Y-31987482D01*
X87788835Y-31987484D01*
X87783414Y-31993259D01*
X87779600Y-32000194D01*
X87779592Y-32000207D01*
X87773650Y-32011016D01*
X87762803Y-32027529D01*
X87755243Y-32037275D01*
X87755237Y-32037284D01*
X87750386Y-32043539D01*
X87747242Y-32050803D01*
X87747238Y-32050811D01*
X87732824Y-32084120D01*
X87727604Y-32094775D01*
X87710125Y-32126569D01*
X87710121Y-32126577D01*
X87706305Y-32133520D01*
X87704333Y-32141196D01*
X87704331Y-32141204D01*
X87701266Y-32153142D01*
X87694865Y-32171839D01*
X87689968Y-32183156D01*
X87689966Y-32183161D01*
X87686819Y-32190435D01*
X87685579Y-32198260D01*
X87685577Y-32198269D01*
X87679901Y-32234104D01*
X87677495Y-32245724D01*
X87668471Y-32280869D01*
X87668469Y-32280877D01*
X87666500Y-32288550D01*
X87666500Y-32296479D01*
X87666500Y-32308804D01*
X87664949Y-32328515D01*
X87663019Y-32340694D01*
X87663018Y-32340701D01*
X87661780Y-32348523D01*
X87662525Y-32356406D01*
X87662525Y-32356414D01*
X87665941Y-32392541D01*
X87666500Y-32404399D01*
X87666500Y-33645453D01*
X87649025Y-33709470D01*
X87601449Y-33755731D01*
X87536966Y-33771403D01*
X87473464Y-33752140D01*
X87359006Y-33680221D01*
X87359003Y-33680219D01*
X87353015Y-33676457D01*
X87346339Y-33674121D01*
X87346335Y-33674119D01*
X87187724Y-33618619D01*
X87187720Y-33618618D01*
X87181047Y-33616283D01*
X87126357Y-33610121D01*
X87007029Y-33596676D01*
X87000000Y-33595884D01*
X86992971Y-33596676D01*
X86825981Y-33615491D01*
X86825979Y-33615491D01*
X86818953Y-33616283D01*
X86812280Y-33618617D01*
X86812275Y-33618619D01*
X86653664Y-33674119D01*
X86653656Y-33674122D01*
X86646985Y-33676457D01*
X86641000Y-33680217D01*
X86640993Y-33680221D01*
X86498714Y-33769621D01*
X86498707Y-33769626D01*
X86492719Y-33773389D01*
X86487714Y-33778393D01*
X86487710Y-33778397D01*
X86368897Y-33897210D01*
X86368893Y-33897214D01*
X86363889Y-33902219D01*
X86360126Y-33908207D01*
X86360121Y-33908214D01*
X86270721Y-34050493D01*
X86270717Y-34050500D01*
X86266957Y-34056485D01*
X86264622Y-34063156D01*
X86264619Y-34063164D01*
X86209119Y-34221775D01*
X86209117Y-34221780D01*
X86206783Y-34228453D01*
X86186384Y-34409500D01*
X82004055Y-34409500D01*
X82002779Y-28994100D01*
X84458047Y-28994100D01*
X84458435Y-28999030D01*
X84476642Y-29230381D01*
X84476643Y-29230389D01*
X84477031Y-29235315D01*
X84478185Y-29240123D01*
X84478186Y-29240127D01*
X84532046Y-29464470D01*
X84533516Y-29470590D01*
X84626110Y-29694132D01*
X84628695Y-29698351D01*
X84628696Y-29698352D01*
X84711754Y-29833891D01*
X84752534Y-29900437D01*
X84755741Y-29904192D01*
X84755744Y-29904196D01*
X84900732Y-30073954D01*
X84909675Y-30084425D01*
X84915779Y-30089638D01*
X85057742Y-30210887D01*
X85093663Y-30241566D01*
X85299968Y-30367990D01*
X85523510Y-30460584D01*
X85758785Y-30517069D01*
X86000000Y-30536053D01*
X86241215Y-30517069D01*
X86476490Y-30460584D01*
X86700032Y-30367990D01*
X86906337Y-30241566D01*
X87090325Y-30084425D01*
X87247466Y-29900437D01*
X87373890Y-29694132D01*
X87466484Y-29470590D01*
X87522969Y-29235315D01*
X87541953Y-28994100D01*
X87522969Y-28752885D01*
X87466484Y-28517610D01*
X87373890Y-28294068D01*
X87247466Y-28087763D01*
X87191916Y-28022723D01*
X87093532Y-27907530D01*
X87090325Y-27903775D01*
X87053386Y-27872226D01*
X86910096Y-27749844D01*
X86910092Y-27749841D01*
X86906337Y-27746634D01*
X86700032Y-27620210D01*
X86660028Y-27603640D01*
X86481063Y-27529510D01*
X86481060Y-27529509D01*
X86476490Y-27527616D01*
X86471682Y-27526461D01*
X86471677Y-27526460D01*
X86246027Y-27472286D01*
X86246023Y-27472285D01*
X86241215Y-27471131D01*
X86236289Y-27470743D01*
X86236281Y-27470742D01*
X86004930Y-27452535D01*
X86000000Y-27452147D01*
X85995070Y-27452535D01*
X85763718Y-27470742D01*
X85763708Y-27470743D01*
X85758785Y-27471131D01*
X85753978Y-27472285D01*
X85753972Y-27472286D01*
X85528322Y-27526460D01*
X85528313Y-27526462D01*
X85523510Y-27527616D01*
X85518942Y-27529507D01*
X85518936Y-27529510D01*
X85304542Y-27618315D01*
X85304537Y-27618317D01*
X85299968Y-27620210D01*
X85295753Y-27622792D01*
X85295747Y-27622796D01*
X85097877Y-27744051D01*
X85097871Y-27744055D01*
X85093663Y-27746634D01*
X85089913Y-27749836D01*
X85089903Y-27749844D01*
X84913430Y-27900567D01*
X84913423Y-27900573D01*
X84909675Y-27903775D01*
X84906473Y-27907523D01*
X84906467Y-27907530D01*
X84755744Y-28084003D01*
X84755736Y-28084013D01*
X84752534Y-28087763D01*
X84749955Y-28091971D01*
X84749951Y-28091977D01*
X84628696Y-28289847D01*
X84628692Y-28289853D01*
X84626110Y-28294068D01*
X84624217Y-28298637D01*
X84624215Y-28298642D01*
X84535410Y-28513036D01*
X84535407Y-28513042D01*
X84533516Y-28517610D01*
X84532362Y-28522413D01*
X84532360Y-28522422D01*
X84478186Y-28748072D01*
X84478185Y-28748078D01*
X84477031Y-28752885D01*
X84476643Y-28757808D01*
X84476642Y-28757818D01*
X84462436Y-28938328D01*
X84458047Y-28994100D01*
X82002779Y-28994100D01*
X82001672Y-24295100D01*
X84458047Y-24295100D01*
X84458435Y-24300030D01*
X84476642Y-24531381D01*
X84476643Y-24531389D01*
X84477031Y-24536315D01*
X84478185Y-24541123D01*
X84478186Y-24541127D01*
X84520835Y-24718774D01*
X84533516Y-24771590D01*
X84626110Y-24995132D01*
X84628695Y-24999351D01*
X84628696Y-24999352D01*
X84743309Y-25186384D01*
X84752534Y-25201437D01*
X84755741Y-25205192D01*
X84755744Y-25205196D01*
X84868314Y-25336998D01*
X84909675Y-25385425D01*
X84913430Y-25388632D01*
X85070427Y-25522721D01*
X85093663Y-25542566D01*
X85299968Y-25668990D01*
X85523510Y-25761584D01*
X85758785Y-25818069D01*
X86000000Y-25837053D01*
X86241215Y-25818069D01*
X86476490Y-25761584D01*
X86700032Y-25668990D01*
X86906337Y-25542566D01*
X87090325Y-25385425D01*
X87247466Y-25201437D01*
X87373890Y-24995132D01*
X87466484Y-24771590D01*
X87522969Y-24536315D01*
X87541953Y-24295100D01*
X87522969Y-24053885D01*
X87466484Y-23818610D01*
X87373890Y-23595068D01*
X87247466Y-23388763D01*
X87221318Y-23358148D01*
X87093532Y-23208530D01*
X87090325Y-23204775D01*
X87050083Y-23170405D01*
X86910096Y-23050844D01*
X86910092Y-23050841D01*
X86906337Y-23047634D01*
X86883910Y-23033891D01*
X86704252Y-22923796D01*
X86704251Y-22923795D01*
X86700032Y-22921210D01*
X86549858Y-22859006D01*
X86481063Y-22830510D01*
X86481060Y-22830509D01*
X86476490Y-22828616D01*
X86471682Y-22827461D01*
X86471677Y-22827460D01*
X86246027Y-22773286D01*
X86246023Y-22773285D01*
X86241215Y-22772131D01*
X86236289Y-22771743D01*
X86236281Y-22771742D01*
X86004930Y-22753535D01*
X86000000Y-22753147D01*
X85995070Y-22753535D01*
X85763718Y-22771742D01*
X85763708Y-22771743D01*
X85758785Y-22772131D01*
X85753978Y-22773285D01*
X85753972Y-22773286D01*
X85528322Y-22827460D01*
X85528313Y-22827462D01*
X85523510Y-22828616D01*
X85518942Y-22830507D01*
X85518936Y-22830510D01*
X85304542Y-22919315D01*
X85304537Y-22919317D01*
X85299968Y-22921210D01*
X85295753Y-22923792D01*
X85295747Y-22923796D01*
X85097877Y-23045051D01*
X85097871Y-23045055D01*
X85093663Y-23047634D01*
X85089913Y-23050836D01*
X85089903Y-23050844D01*
X84913430Y-23201567D01*
X84913423Y-23201573D01*
X84909675Y-23204775D01*
X84906473Y-23208523D01*
X84906467Y-23208530D01*
X84755744Y-23385003D01*
X84755736Y-23385013D01*
X84752534Y-23388763D01*
X84749955Y-23392971D01*
X84749951Y-23392977D01*
X84628696Y-23590847D01*
X84628692Y-23590853D01*
X84626110Y-23595068D01*
X84624217Y-23599637D01*
X84624215Y-23599642D01*
X84535410Y-23814036D01*
X84535407Y-23814042D01*
X84533516Y-23818610D01*
X84532362Y-23823413D01*
X84532360Y-23823422D01*
X84478186Y-24049072D01*
X84478185Y-24049078D01*
X84477031Y-24053885D01*
X84476643Y-24058808D01*
X84476642Y-24058818D01*
X84460395Y-24265271D01*
X84458047Y-24295100D01*
X82001672Y-24295100D01*
X82000565Y-19596100D01*
X84458047Y-19596100D01*
X84458435Y-19601030D01*
X84476642Y-19832381D01*
X84476643Y-19832389D01*
X84477031Y-19837315D01*
X84478185Y-19842123D01*
X84478186Y-19842127D01*
X84504519Y-19951812D01*
X84533516Y-20072590D01*
X84535409Y-20077160D01*
X84535410Y-20077163D01*
X84549109Y-20110236D01*
X84626110Y-20296132D01*
X84628695Y-20300351D01*
X84628696Y-20300352D01*
X84693783Y-20406565D01*
X84752534Y-20502437D01*
X84755741Y-20506192D01*
X84755744Y-20506196D01*
X84891608Y-20665271D01*
X84909675Y-20686425D01*
X84913430Y-20689632D01*
X85085909Y-20836944D01*
X85093663Y-20843566D01*
X85299968Y-20969990D01*
X85523510Y-21062584D01*
X85758785Y-21119069D01*
X86000000Y-21138053D01*
X86241215Y-21119069D01*
X86476490Y-21062584D01*
X86700032Y-20969990D01*
X86906337Y-20843566D01*
X87090325Y-20686425D01*
X87247466Y-20502437D01*
X87310240Y-20400000D01*
X90886496Y-20400000D01*
X90887186Y-20406565D01*
X90899180Y-20520687D01*
X90906458Y-20589928D01*
X90908495Y-20596200D01*
X90908497Y-20596205D01*
X90963430Y-20765271D01*
X90963433Y-20765278D01*
X90965473Y-20771556D01*
X91060960Y-20936944D01*
X91188747Y-21078866D01*
X91194089Y-21082747D01*
X91194091Y-21082749D01*
X91237298Y-21114141D01*
X91343248Y-21191118D01*
X91517712Y-21268794D01*
X91704513Y-21308500D01*
X91888884Y-21308500D01*
X91895487Y-21308500D01*
X92082288Y-21268794D01*
X92256752Y-21191118D01*
X92411253Y-21078866D01*
X92539040Y-20936944D01*
X92634527Y-20771556D01*
X92693542Y-20589928D01*
X92713504Y-20400000D01*
X92693542Y-20210072D01*
X92634527Y-20028444D01*
X92539040Y-19863056D01*
X92411253Y-19721134D01*
X92405911Y-19717253D01*
X92405908Y-19717250D01*
X92269654Y-19618256D01*
X92256752Y-19608882D01*
X92082288Y-19531206D01*
X92075835Y-19529834D01*
X92075831Y-19529833D01*
X91901943Y-19492872D01*
X91901940Y-19492871D01*
X91895487Y-19491500D01*
X91704513Y-19491500D01*
X91698060Y-19492871D01*
X91698056Y-19492872D01*
X91524168Y-19529833D01*
X91524161Y-19529835D01*
X91517712Y-19531206D01*
X91511682Y-19533890D01*
X91511681Y-19533891D01*
X91349278Y-19606197D01*
X91349275Y-19606198D01*
X91343248Y-19608882D01*
X91337907Y-19612762D01*
X91337906Y-19612763D01*
X91194091Y-19717250D01*
X91194083Y-19717256D01*
X91188747Y-19721134D01*
X91184330Y-19726039D01*
X91184325Y-19726044D01*
X91065379Y-19858148D01*
X91060960Y-19863056D01*
X91057661Y-19868769D01*
X91057658Y-19868774D01*
X91004989Y-19960000D01*
X90965473Y-20028444D01*
X90963434Y-20034718D01*
X90963430Y-20034728D01*
X90908497Y-20203794D01*
X90908495Y-20203801D01*
X90906458Y-20210072D01*
X90886496Y-20400000D01*
X87310240Y-20400000D01*
X87373890Y-20296132D01*
X87466484Y-20072590D01*
X87522969Y-19837315D01*
X87541953Y-19596100D01*
X87522969Y-19354885D01*
X87466484Y-19119610D01*
X87373890Y-18896068D01*
X87247466Y-18689763D01*
X87192823Y-18625785D01*
X87093532Y-18509530D01*
X87090325Y-18505775D01*
X87086569Y-18502567D01*
X86910096Y-18351844D01*
X86910092Y-18351841D01*
X86906337Y-18348634D01*
X86836025Y-18305547D01*
X86704252Y-18224796D01*
X86704251Y-18224795D01*
X86700032Y-18222210D01*
X86494148Y-18136930D01*
X86481063Y-18131510D01*
X86481060Y-18131509D01*
X86476490Y-18129616D01*
X86471682Y-18128461D01*
X86471677Y-18128460D01*
X86246027Y-18074286D01*
X86246023Y-18074285D01*
X86241215Y-18073131D01*
X86236289Y-18072743D01*
X86236281Y-18072742D01*
X86004930Y-18054535D01*
X86000000Y-18054147D01*
X85995070Y-18054535D01*
X85763718Y-18072742D01*
X85763708Y-18072743D01*
X85758785Y-18073131D01*
X85753978Y-18074285D01*
X85753972Y-18074286D01*
X85528322Y-18128460D01*
X85528313Y-18128462D01*
X85523510Y-18129616D01*
X85518942Y-18131507D01*
X85518936Y-18131510D01*
X85304542Y-18220315D01*
X85304537Y-18220317D01*
X85299968Y-18222210D01*
X85295753Y-18224792D01*
X85295747Y-18224796D01*
X85097877Y-18346051D01*
X85097871Y-18346055D01*
X85093663Y-18348634D01*
X85089913Y-18351836D01*
X85089903Y-18351844D01*
X84913430Y-18502567D01*
X84913423Y-18502573D01*
X84909675Y-18505775D01*
X84906473Y-18509523D01*
X84906467Y-18509530D01*
X84755744Y-18686003D01*
X84755736Y-18686013D01*
X84752534Y-18689763D01*
X84749955Y-18693971D01*
X84749951Y-18693977D01*
X84628696Y-18891847D01*
X84628692Y-18891853D01*
X84626110Y-18896068D01*
X84624217Y-18900637D01*
X84624215Y-18900642D01*
X84535410Y-19115036D01*
X84535407Y-19115042D01*
X84533516Y-19119610D01*
X84532362Y-19124413D01*
X84532360Y-19124422D01*
X84478186Y-19350072D01*
X84478185Y-19350078D01*
X84477031Y-19354885D01*
X84476643Y-19359808D01*
X84476642Y-19359818D01*
X84461711Y-19549549D01*
X84458047Y-19596100D01*
X82000565Y-19596100D01*
X82000030Y-17326030D01*
X82016901Y-17263017D01*
X82063021Y-17216886D01*
X82126030Y-17200000D01*
X102364142Y-17200000D01*
X102426324Y-17216413D01*
G37*
G04 #@! TD.AperFunction*
G04 #@! TA.AperFunction,Conductor*
G36*
X104737581Y-35729717D02*
G01*
X104777232Y-35769368D01*
X104816022Y-35831102D01*
X104863889Y-35907281D01*
X104992719Y-36036111D01*
X104998713Y-36039877D01*
X104998714Y-36039878D01*
X105082157Y-36092309D01*
X105146985Y-36133043D01*
X105318953Y-36193217D01*
X105363453Y-36198230D01*
X105404012Y-36209915D01*
X105438439Y-36234343D01*
X105670014Y-36465918D01*
X105702627Y-36522408D01*
X105702622Y-36587636D01*
X105675938Y-36633839D01*
X105674339Y-36638410D01*
X105680893Y-36648842D01*
X106003501Y-36971449D01*
X106003502Y-36971450D01*
X106679661Y-37647610D01*
X106690090Y-37654164D01*
X106694567Y-37652599D01*
X106740904Y-37625866D01*
X106806112Y-37625877D01*
X106862581Y-37658485D01*
X107191512Y-37987416D01*
X107224125Y-38043906D01*
X107224120Y-38109134D01*
X107197436Y-38155337D01*
X107195837Y-38159908D01*
X107202391Y-38170340D01*
X107524999Y-38492947D01*
X107789455Y-38757403D01*
X107822067Y-38813887D01*
X107822067Y-38879109D01*
X107789455Y-38935594D01*
X107202388Y-39522659D01*
X107196365Y-39532243D01*
X107199743Y-39535622D01*
X107201527Y-39536482D01*
X107253541Y-39582972D01*
X107272848Y-39650009D01*
X107253530Y-39717043D01*
X107201509Y-39763525D01*
X107199756Y-39764369D01*
X107196368Y-39767755D01*
X107202391Y-39777342D01*
X107524999Y-40099949D01*
X107789455Y-40364405D01*
X107822067Y-40420889D01*
X107822067Y-40486111D01*
X107789455Y-40542596D01*
X107202388Y-41129661D01*
X107196365Y-41139245D01*
X107199742Y-41142624D01*
X107200722Y-41143096D01*
X107348581Y-41194833D01*
X107362289Y-41197962D01*
X107517970Y-41215504D01*
X107532028Y-41215504D01*
X107687708Y-41197962D01*
X107701416Y-41194833D01*
X107849283Y-41143093D01*
X107861954Y-41136991D01*
X107936075Y-41090418D01*
X107999577Y-41071155D01*
X108064059Y-41086827D01*
X108111636Y-41133087D01*
X108129111Y-41197105D01*
X108129111Y-43073147D01*
X108110543Y-43138982D01*
X108060313Y-43185414D01*
X107993224Y-43198758D01*
X107929050Y-43175082D01*
X107906752Y-43158882D01*
X107732288Y-43081206D01*
X107725835Y-43079834D01*
X107725831Y-43079833D01*
X107551943Y-43042872D01*
X107551940Y-43042871D01*
X107545487Y-43041500D01*
X107354513Y-43041500D01*
X107348060Y-43042871D01*
X107348056Y-43042872D01*
X107174168Y-43079833D01*
X107174161Y-43079835D01*
X107167712Y-43081206D01*
X107161682Y-43083890D01*
X107161681Y-43083891D01*
X106999278Y-43156197D01*
X106999275Y-43156198D01*
X106993248Y-43158882D01*
X106987907Y-43162762D01*
X106987906Y-43162763D01*
X106844091Y-43267250D01*
X106844083Y-43267256D01*
X106838747Y-43271134D01*
X106834330Y-43276039D01*
X106834325Y-43276044D01*
X106726853Y-43395405D01*
X106710960Y-43413056D01*
X106707661Y-43418769D01*
X106707658Y-43418774D01*
X106648799Y-43520721D01*
X106615473Y-43578444D01*
X106613434Y-43584718D01*
X106613430Y-43584728D01*
X106558497Y-43753794D01*
X106558495Y-43753801D01*
X106556458Y-43760072D01*
X106555768Y-43766633D01*
X106555768Y-43766635D01*
X106550568Y-43816108D01*
X106536496Y-43950000D01*
X106537186Y-43956565D01*
X106553793Y-44114577D01*
X106556458Y-44139928D01*
X106558495Y-44146200D01*
X106558497Y-44146205D01*
X106613430Y-44315271D01*
X106613433Y-44315278D01*
X106615473Y-44321556D01*
X106710960Y-44486944D01*
X106838747Y-44628866D01*
X106844089Y-44632747D01*
X106844091Y-44632749D01*
X106855967Y-44641377D01*
X106993248Y-44741118D01*
X107167712Y-44818794D01*
X107354513Y-44858500D01*
X107538884Y-44858500D01*
X107545487Y-44858500D01*
X107732288Y-44818794D01*
X107888392Y-44749292D01*
X107948583Y-44738718D01*
X108006670Y-44757711D01*
X108046985Y-44783043D01*
X108218953Y-44843217D01*
X108400000Y-44863616D01*
X108581047Y-44843217D01*
X108753015Y-44783043D01*
X108903839Y-44688273D01*
X108956761Y-44669755D01*
X109012484Y-44676034D01*
X109059964Y-44705868D01*
X109491257Y-45137161D01*
X109523869Y-45193645D01*
X109523869Y-45258867D01*
X109491257Y-45315351D01*
X109468897Y-45337710D01*
X109468893Y-45337714D01*
X109463889Y-45342719D01*
X109460126Y-45348707D01*
X109460121Y-45348714D01*
X109370721Y-45490993D01*
X109370717Y-45491000D01*
X109366957Y-45496985D01*
X109364620Y-45503662D01*
X109361550Y-45510039D01*
X109360093Y-45509337D01*
X109324731Y-45559163D01*
X109260280Y-45585852D01*
X109191508Y-45574163D01*
X109139495Y-45527679D01*
X109089878Y-45448714D01*
X109089877Y-45448713D01*
X109086111Y-45442719D01*
X108957281Y-45313889D01*
X108951287Y-45310123D01*
X108951285Y-45310121D01*
X108809006Y-45220721D01*
X108809003Y-45220719D01*
X108803015Y-45216957D01*
X108796339Y-45214621D01*
X108796335Y-45214619D01*
X108637724Y-45159119D01*
X108637720Y-45159118D01*
X108631047Y-45156783D01*
X108450000Y-45136384D01*
X108442971Y-45137176D01*
X108275981Y-45155991D01*
X108275979Y-45155991D01*
X108268953Y-45156783D01*
X108262280Y-45159117D01*
X108262275Y-45159119D01*
X108103664Y-45214619D01*
X108103656Y-45214622D01*
X108096985Y-45216957D01*
X108091000Y-45220717D01*
X108090993Y-45220721D01*
X107948714Y-45310121D01*
X107948707Y-45310126D01*
X107942719Y-45313889D01*
X107937714Y-45318893D01*
X107937710Y-45318897D01*
X107818897Y-45437710D01*
X107818893Y-45437714D01*
X107813889Y-45442719D01*
X107810126Y-45448707D01*
X107810121Y-45448714D01*
X107720721Y-45590993D01*
X107720717Y-45591000D01*
X107716957Y-45596985D01*
X107714622Y-45603656D01*
X107714619Y-45603664D01*
X107659119Y-45762275D01*
X107659117Y-45762280D01*
X107656783Y-45768953D01*
X107636384Y-45950000D01*
X107656783Y-46131047D01*
X107659118Y-46137720D01*
X107659119Y-46137724D01*
X107714619Y-46296335D01*
X107714621Y-46296339D01*
X107716957Y-46303015D01*
X107720719Y-46309003D01*
X107720721Y-46309006D01*
X107751054Y-46357281D01*
X107813889Y-46457281D01*
X107942719Y-46586111D01*
X107948713Y-46589877D01*
X107948714Y-46589878D01*
X108058910Y-46659119D01*
X108096985Y-46683043D01*
X108268953Y-46743217D01*
X108450000Y-46763616D01*
X108631047Y-46743217D01*
X108803015Y-46683043D01*
X108957281Y-46586111D01*
X109086111Y-46457281D01*
X109183043Y-46303015D01*
X109185380Y-46296334D01*
X109188450Y-46289961D01*
X109189911Y-46290664D01*
X109225252Y-46240850D01*
X109289704Y-46214149D01*
X109358484Y-46225833D01*
X109410504Y-46272320D01*
X109433555Y-46309006D01*
X109463889Y-46357281D01*
X109592719Y-46486111D01*
X109746985Y-46583043D01*
X109918953Y-46643217D01*
X110100000Y-46663616D01*
X110281047Y-46643217D01*
X110453015Y-46583043D01*
X110459005Y-46579279D01*
X110460833Y-46578399D01*
X110522567Y-46566120D01*
X110582537Y-46585235D01*
X110625778Y-46630974D01*
X110641500Y-46691922D01*
X110641500Y-47650828D01*
X110640972Y-47662011D01*
X110639298Y-47669504D01*
X110639547Y-47677428D01*
X110639547Y-47677430D01*
X110641438Y-47737581D01*
X110641500Y-47741540D01*
X110641500Y-47769451D01*
X110641995Y-47773369D01*
X110641997Y-47773401D01*
X110642008Y-47773483D01*
X110642937Y-47785292D01*
X110644077Y-47821564D01*
X110644078Y-47821571D01*
X110644327Y-47829484D01*
X110646537Y-47837093D01*
X110646538Y-47837095D01*
X110649978Y-47848937D01*
X110653986Y-47868288D01*
X110656526Y-47888392D01*
X110659444Y-47895764D01*
X110659445Y-47895765D01*
X110672800Y-47929496D01*
X110676645Y-47940725D01*
X110686771Y-47975581D01*
X110686773Y-47975587D01*
X110688982Y-47983188D01*
X110693014Y-47990006D01*
X110693015Y-47990008D01*
X110699293Y-48000624D01*
X110707990Y-48018377D01*
X110715448Y-48037212D01*
X110720107Y-48043625D01*
X110720108Y-48043626D01*
X110741432Y-48072976D01*
X110747948Y-48082896D01*
X110763928Y-48109916D01*
X110770458Y-48120957D01*
X110776062Y-48126561D01*
X110776063Y-48126562D01*
X110784778Y-48135277D01*
X110797618Y-48150310D01*
X110801895Y-48156197D01*
X110809528Y-48166702D01*
X110815635Y-48171754D01*
X110815636Y-48171755D01*
X110843598Y-48194887D01*
X110852378Y-48202877D01*
X111680200Y-49030699D01*
X111687742Y-49038986D01*
X111691858Y-49045471D01*
X111697637Y-49050897D01*
X111697638Y-49050899D01*
X111741525Y-49092111D01*
X111744367Y-49094866D01*
X111750906Y-49101405D01*
X111781644Y-49151564D01*
X111786260Y-49210211D01*
X111763747Y-49264561D01*
X111719014Y-49302767D01*
X111661811Y-49316500D01*
X107090710Y-49316500D01*
X107042492Y-49306909D01*
X107001615Y-49279595D01*
X103146521Y-45424500D01*
X104386835Y-45424500D01*
X104407234Y-45605547D01*
X104409569Y-45612220D01*
X104409570Y-45612224D01*
X104465070Y-45770835D01*
X104465072Y-45770839D01*
X104467408Y-45777515D01*
X104471170Y-45783503D01*
X104471172Y-45783506D01*
X104560148Y-45925111D01*
X104564340Y-45931781D01*
X104693170Y-46060611D01*
X104847436Y-46157543D01*
X105019404Y-46217717D01*
X105200451Y-46238116D01*
X105381498Y-46217717D01*
X105553466Y-46157543D01*
X105707732Y-46060611D01*
X105836562Y-45931781D01*
X105933494Y-45777515D01*
X105993668Y-45605547D01*
X106014067Y-45424500D01*
X105993668Y-45243453D01*
X105933494Y-45071485D01*
X105836562Y-44917219D01*
X105707732Y-44788389D01*
X105701738Y-44784623D01*
X105701736Y-44784621D01*
X105559457Y-44695221D01*
X105559454Y-44695219D01*
X105553466Y-44691457D01*
X105546790Y-44689121D01*
X105546786Y-44689119D01*
X105388175Y-44633619D01*
X105388171Y-44633618D01*
X105381498Y-44631283D01*
X105360046Y-44628866D01*
X105207480Y-44611676D01*
X105200451Y-44610884D01*
X105193422Y-44611676D01*
X105026432Y-44630491D01*
X105026430Y-44630491D01*
X105019404Y-44631283D01*
X105012731Y-44633617D01*
X105012726Y-44633619D01*
X104854115Y-44689119D01*
X104854107Y-44689122D01*
X104847436Y-44691457D01*
X104841451Y-44695217D01*
X104841444Y-44695221D01*
X104699165Y-44784621D01*
X104699158Y-44784626D01*
X104693170Y-44788389D01*
X104688165Y-44793393D01*
X104688161Y-44793397D01*
X104569348Y-44912210D01*
X104569344Y-44912214D01*
X104564340Y-44917219D01*
X104560577Y-44923207D01*
X104560572Y-44923214D01*
X104471172Y-45065493D01*
X104471168Y-45065500D01*
X104467408Y-45071485D01*
X104465073Y-45078156D01*
X104465070Y-45078164D01*
X104409570Y-45236775D01*
X104409568Y-45236780D01*
X104407234Y-45243453D01*
X104406442Y-45250479D01*
X104406442Y-45250481D01*
X104397988Y-45325513D01*
X104386835Y-45424500D01*
X103146521Y-45424500D01*
X101542088Y-43820067D01*
X101512254Y-43772587D01*
X101505975Y-43716864D01*
X101524496Y-43663936D01*
X101555943Y-43613889D01*
X101613043Y-43523015D01*
X101673217Y-43351047D01*
X101693616Y-43170000D01*
X101673217Y-42988953D01*
X101613043Y-42816985D01*
X101597510Y-42792265D01*
X101557813Y-42729087D01*
X101538500Y-42662051D01*
X101538500Y-42660743D01*
X104067865Y-42660743D01*
X104071242Y-42664122D01*
X104072222Y-42664594D01*
X104220081Y-42716331D01*
X104233789Y-42719460D01*
X104389470Y-42737002D01*
X104403528Y-42737002D01*
X104559208Y-42719460D01*
X104572916Y-42716331D01*
X104720769Y-42664596D01*
X104721761Y-42664117D01*
X104725131Y-42660745D01*
X104725130Y-42660743D01*
X105674867Y-42660743D01*
X105678244Y-42664122D01*
X105679224Y-42664594D01*
X105827083Y-42716331D01*
X105840791Y-42719460D01*
X105996472Y-42737002D01*
X106010530Y-42737002D01*
X106166210Y-42719460D01*
X106179918Y-42716331D01*
X106327771Y-42664596D01*
X106328763Y-42664117D01*
X106332133Y-42660745D01*
X106326108Y-42651157D01*
X106015230Y-42340279D01*
X106003500Y-42333507D01*
X105991772Y-42340278D01*
X105680890Y-42651159D01*
X105674867Y-42660743D01*
X104725130Y-42660743D01*
X104719106Y-42651157D01*
X104408228Y-42340279D01*
X104396498Y-42333507D01*
X104384770Y-42340278D01*
X104073888Y-42651159D01*
X104067865Y-42660743D01*
X101538500Y-42660743D01*
X101538500Y-41982028D01*
X103634496Y-41982028D01*
X103652037Y-42137708D01*
X103655166Y-42151416D01*
X103706906Y-42299283D01*
X103707372Y-42300249D01*
X103710752Y-42303629D01*
X103720342Y-42297603D01*
X104031217Y-41986728D01*
X104037989Y-41974998D01*
X104755007Y-41974998D01*
X104761779Y-41986728D01*
X105072657Y-42297606D01*
X105082245Y-42303631D01*
X105085616Y-42300262D01*
X105086489Y-42298453D01*
X105132980Y-42246449D01*
X105200013Y-42227147D01*
X105267041Y-42246464D01*
X105313521Y-42298478D01*
X105314374Y-42300249D01*
X105317754Y-42303629D01*
X105327344Y-42297603D01*
X105638219Y-41986728D01*
X105644991Y-41974998D01*
X106362009Y-41974998D01*
X106368781Y-41986728D01*
X106679659Y-42297606D01*
X106689247Y-42303631D01*
X106692619Y-42300261D01*
X106693098Y-42299269D01*
X106744833Y-42151416D01*
X106747962Y-42137708D01*
X106765504Y-41982028D01*
X106765504Y-41967969D01*
X106747962Y-41812289D01*
X106744833Y-41798581D01*
X106693096Y-41650722D01*
X106692624Y-41649742D01*
X106689245Y-41646365D01*
X106679661Y-41652388D01*
X106368780Y-41963270D01*
X106362009Y-41974998D01*
X105644991Y-41974998D01*
X105638220Y-41963270D01*
X105327342Y-41652391D01*
X105317755Y-41646368D01*
X105314369Y-41649756D01*
X105313525Y-41651509D01*
X105267043Y-41703530D01*
X105200009Y-41722848D01*
X105132972Y-41703541D01*
X105086482Y-41651527D01*
X105085622Y-41649743D01*
X105082243Y-41646365D01*
X105072659Y-41652388D01*
X104761778Y-41963270D01*
X104755007Y-41974998D01*
X104037989Y-41974998D01*
X104031218Y-41963270D01*
X103720340Y-41652391D01*
X103710753Y-41646368D01*
X103707367Y-41649755D01*
X103706909Y-41650706D01*
X103655166Y-41798581D01*
X103652037Y-41812289D01*
X103634496Y-41967969D01*
X103634496Y-41982028D01*
X101538500Y-41982028D01*
X101538500Y-41139245D01*
X102546367Y-41139245D01*
X102549744Y-41142624D01*
X102550724Y-41143096D01*
X102698583Y-41194833D01*
X102712291Y-41197962D01*
X102867972Y-41215504D01*
X102882030Y-41215504D01*
X103037710Y-41197962D01*
X103051418Y-41194833D01*
X103199271Y-41143098D01*
X103200263Y-41142619D01*
X103202791Y-41140090D01*
X104067335Y-41140090D01*
X104074919Y-41161775D01*
X104086391Y-41181650D01*
X104086382Y-41246872D01*
X104074943Y-41266677D01*
X104067337Y-41288408D01*
X104073891Y-41298840D01*
X104384770Y-41609718D01*
X104396498Y-41616489D01*
X104408228Y-41609717D01*
X104719103Y-41298842D01*
X104725660Y-41288407D01*
X104718073Y-41266723D01*
X104706608Y-41246864D01*
X104706599Y-41181658D01*
X104718099Y-41161726D01*
X104725662Y-41140091D01*
X104725661Y-41140090D01*
X105674337Y-41140090D01*
X105681921Y-41161775D01*
X105693393Y-41181650D01*
X105693384Y-41246872D01*
X105681945Y-41266677D01*
X105674339Y-41288408D01*
X105680893Y-41298840D01*
X105991772Y-41609718D01*
X106003500Y-41616489D01*
X106015230Y-41609717D01*
X106326105Y-41298842D01*
X106332662Y-41288407D01*
X106325075Y-41266723D01*
X106313610Y-41246864D01*
X106313601Y-41181658D01*
X106325101Y-41161726D01*
X106332664Y-41140091D01*
X106326108Y-41129659D01*
X106015230Y-40818781D01*
X106003500Y-40812009D01*
X105991772Y-40818780D01*
X105680890Y-41129661D01*
X105674337Y-41140090D01*
X104725661Y-41140090D01*
X104719106Y-41129659D01*
X104408228Y-40818781D01*
X104396498Y-40812009D01*
X104384770Y-40818780D01*
X104073888Y-41129661D01*
X104067335Y-41140090D01*
X103202791Y-41140090D01*
X103203633Y-41139247D01*
X103197608Y-41129659D01*
X102886730Y-40818781D01*
X102875000Y-40812009D01*
X102863272Y-40818780D01*
X102552390Y-41129661D01*
X102546367Y-41139245D01*
X101538500Y-41139245D01*
X101538500Y-40977116D01*
X101538500Y-40973157D01*
X101527645Y-40887231D01*
X101533444Y-40830629D01*
X101563553Y-40782349D01*
X101904942Y-40440960D01*
X101965996Y-40407217D01*
X102035649Y-40411129D01*
X102092545Y-40451498D01*
X102119242Y-40515950D01*
X102130539Y-40616210D01*
X102133668Y-40629918D01*
X102185408Y-40777785D01*
X102185874Y-40778751D01*
X102189254Y-40782131D01*
X102198844Y-40776105D01*
X102521449Y-40453500D01*
X103233509Y-40453500D01*
X103240281Y-40465230D01*
X103551159Y-40776108D01*
X103561591Y-40782664D01*
X103583226Y-40775101D01*
X103603158Y-40763601D01*
X103668364Y-40763610D01*
X103688223Y-40775075D01*
X103709907Y-40782662D01*
X103720342Y-40776105D01*
X104031217Y-40465230D01*
X104037989Y-40453500D01*
X104755007Y-40453500D01*
X104761779Y-40465230D01*
X105072657Y-40776108D01*
X105082245Y-40782133D01*
X105085616Y-40778764D01*
X105086489Y-40776955D01*
X105132980Y-40724951D01*
X105200013Y-40705649D01*
X105267041Y-40724966D01*
X105313521Y-40776980D01*
X105314374Y-40778751D01*
X105317754Y-40782131D01*
X105327344Y-40776105D01*
X105638219Y-40465230D01*
X105644991Y-40453500D01*
X106362009Y-40453500D01*
X106368781Y-40465230D01*
X106679659Y-40776108D01*
X106690091Y-40782664D01*
X106711726Y-40775101D01*
X106731658Y-40763601D01*
X106796864Y-40763610D01*
X106816723Y-40775075D01*
X106838407Y-40782662D01*
X106848842Y-40776105D01*
X107159717Y-40465230D01*
X107166489Y-40453500D01*
X107159718Y-40441772D01*
X106848840Y-40130893D01*
X106838408Y-40124339D01*
X106816677Y-40131945D01*
X106796872Y-40143384D01*
X106731650Y-40143393D01*
X106711775Y-40131921D01*
X106690090Y-40124337D01*
X106679661Y-40130890D01*
X106368780Y-40441772D01*
X106362009Y-40453500D01*
X105644991Y-40453500D01*
X105638220Y-40441772D01*
X105327342Y-40130893D01*
X105317755Y-40124870D01*
X105314369Y-40128258D01*
X105313525Y-40130011D01*
X105267043Y-40182032D01*
X105200009Y-40201350D01*
X105132972Y-40182043D01*
X105086482Y-40130029D01*
X105085622Y-40128245D01*
X105082243Y-40124867D01*
X105072659Y-40130890D01*
X104761778Y-40441772D01*
X104755007Y-40453500D01*
X104037989Y-40453500D01*
X104031218Y-40441772D01*
X103720340Y-40130893D01*
X103709908Y-40124339D01*
X103688177Y-40131945D01*
X103668372Y-40143384D01*
X103603150Y-40143393D01*
X103583275Y-40131921D01*
X103561590Y-40124337D01*
X103551161Y-40130890D01*
X103240280Y-40441772D01*
X103233509Y-40453500D01*
X102521449Y-40453500D01*
X103197605Y-39777344D01*
X103203631Y-39767754D01*
X103200251Y-39764374D01*
X103198480Y-39763521D01*
X103146466Y-39717041D01*
X103127149Y-39650013D01*
X103146451Y-39582980D01*
X103198455Y-39536489D01*
X103200264Y-39535617D01*
X103203634Y-39532244D01*
X103203633Y-39532243D01*
X104067865Y-39532243D01*
X104071243Y-39535622D01*
X104073027Y-39536482D01*
X104125041Y-39582972D01*
X104144348Y-39650009D01*
X104125030Y-39717043D01*
X104073009Y-39763525D01*
X104071256Y-39764369D01*
X104067868Y-39767755D01*
X104073891Y-39777342D01*
X104384770Y-40088220D01*
X104396498Y-40094991D01*
X104408228Y-40088219D01*
X104719103Y-39777344D01*
X104725129Y-39767754D01*
X104721749Y-39764374D01*
X104719978Y-39763521D01*
X104667964Y-39717041D01*
X104648647Y-39650013D01*
X104667949Y-39582980D01*
X104719953Y-39536489D01*
X104721762Y-39535616D01*
X104725131Y-39532245D01*
X104725130Y-39532243D01*
X105674867Y-39532243D01*
X105678245Y-39535622D01*
X105680029Y-39536482D01*
X105732043Y-39582972D01*
X105751350Y-39650009D01*
X105732032Y-39717043D01*
X105680011Y-39763525D01*
X105678258Y-39764369D01*
X105674870Y-39767755D01*
X105680893Y-39777342D01*
X105991772Y-40088220D01*
X106003500Y-40094991D01*
X106015230Y-40088219D01*
X106326105Y-39777344D01*
X106332131Y-39767754D01*
X106328751Y-39764374D01*
X106326980Y-39763521D01*
X106274966Y-39717041D01*
X106255649Y-39650013D01*
X106274951Y-39582980D01*
X106326955Y-39536489D01*
X106328764Y-39535616D01*
X106332133Y-39532245D01*
X106326108Y-39522657D01*
X106015230Y-39211779D01*
X106003500Y-39205007D01*
X105991772Y-39211778D01*
X105680890Y-39522659D01*
X105674867Y-39532243D01*
X104725130Y-39532243D01*
X104719106Y-39522657D01*
X104408228Y-39211779D01*
X104396498Y-39205007D01*
X104384770Y-39211778D01*
X104073888Y-39522659D01*
X104067865Y-39532243D01*
X103203633Y-39532243D01*
X103197610Y-39522659D01*
X102864134Y-39189184D01*
X102836820Y-39148306D01*
X102827229Y-39100088D01*
X102827229Y-39046477D01*
X102831187Y-39015142D01*
X102836879Y-38992971D01*
X102852229Y-38933188D01*
X102852229Y-38846498D01*
X103233509Y-38846498D01*
X103240280Y-38858226D01*
X103551161Y-39169108D01*
X103561590Y-39175662D01*
X103583228Y-39168097D01*
X103603163Y-39156597D01*
X103668367Y-39156608D01*
X103688228Y-39168075D01*
X103709908Y-39175660D01*
X103720339Y-39169106D01*
X104031218Y-38858226D01*
X104037989Y-38846498D01*
X104755007Y-38846498D01*
X104761778Y-38858226D01*
X105072659Y-39169108D01*
X105082244Y-39175132D01*
X105085617Y-39171762D01*
X105086489Y-39169953D01*
X105132980Y-39117949D01*
X105200013Y-39098647D01*
X105267041Y-39117964D01*
X105313521Y-39169978D01*
X105314374Y-39171749D01*
X105317755Y-39175130D01*
X105327341Y-39169106D01*
X105638220Y-38858226D01*
X105644991Y-38846498D01*
X106362009Y-38846498D01*
X106368780Y-38858226D01*
X106679661Y-39169108D01*
X106690090Y-39175662D01*
X106711728Y-39168097D01*
X106731663Y-39156597D01*
X106796867Y-39156608D01*
X106816728Y-39168075D01*
X106838408Y-39175660D01*
X106848839Y-39169106D01*
X107159718Y-38858226D01*
X107166489Y-38846498D01*
X107159717Y-38834768D01*
X106848842Y-38523893D01*
X106838408Y-38517337D01*
X106816677Y-38524943D01*
X106796872Y-38536382D01*
X106731650Y-38536391D01*
X106711775Y-38524919D01*
X106690090Y-38517335D01*
X106679661Y-38523888D01*
X106368781Y-38834768D01*
X106362009Y-38846498D01*
X105644991Y-38846498D01*
X105638219Y-38834768D01*
X105327344Y-38523893D01*
X105317755Y-38517868D01*
X105314369Y-38521256D01*
X105313525Y-38523009D01*
X105267043Y-38575030D01*
X105200009Y-38594348D01*
X105132972Y-38575041D01*
X105086482Y-38523027D01*
X105085622Y-38521243D01*
X105082243Y-38517865D01*
X105072659Y-38523888D01*
X104761779Y-38834768D01*
X104755007Y-38846498D01*
X104037989Y-38846498D01*
X104031217Y-38834768D01*
X103720342Y-38523893D01*
X103709908Y-38517337D01*
X103688177Y-38524943D01*
X103668372Y-38536382D01*
X103603150Y-38536391D01*
X103583275Y-38524919D01*
X103561590Y-38517335D01*
X103551161Y-38523888D01*
X103240281Y-38834768D01*
X103233509Y-38846498D01*
X102852229Y-38846498D01*
X102852229Y-38567909D01*
X102861820Y-38519691D01*
X102889134Y-38478814D01*
X103197605Y-38170342D01*
X103203631Y-38160752D01*
X103200251Y-38157372D01*
X103199285Y-38156906D01*
X103051418Y-38105166D01*
X103037710Y-38102036D01*
X102964121Y-38093745D01*
X102907250Y-38072643D01*
X102866830Y-38027413D01*
X102862906Y-38011590D01*
X104067335Y-38011590D01*
X104074919Y-38033275D01*
X104086391Y-38053150D01*
X104086382Y-38118372D01*
X104074943Y-38138177D01*
X104067337Y-38159908D01*
X104073891Y-38170340D01*
X104384770Y-38481218D01*
X104396498Y-38487989D01*
X104408228Y-38481217D01*
X104719103Y-38170342D01*
X104725660Y-38159907D01*
X104718073Y-38138223D01*
X104706608Y-38118364D01*
X104706599Y-38053158D01*
X104718099Y-38033226D01*
X104725662Y-38011591D01*
X104725661Y-38011590D01*
X105674337Y-38011590D01*
X105681921Y-38033275D01*
X105693393Y-38053150D01*
X105693384Y-38118372D01*
X105681945Y-38138177D01*
X105674339Y-38159908D01*
X105680893Y-38170340D01*
X105991772Y-38481218D01*
X106003500Y-38487989D01*
X106015230Y-38481217D01*
X106326105Y-38170342D01*
X106332662Y-38159907D01*
X106325075Y-38138223D01*
X106313610Y-38118364D01*
X106313601Y-38053158D01*
X106325101Y-38033226D01*
X106332664Y-38011591D01*
X106326108Y-38001159D01*
X106015230Y-37690281D01*
X106003500Y-37683509D01*
X105991772Y-37690280D01*
X105680890Y-38001161D01*
X105674337Y-38011590D01*
X104725661Y-38011590D01*
X104719106Y-38001159D01*
X104408228Y-37690281D01*
X104396498Y-37683509D01*
X104384770Y-37690280D01*
X104073888Y-38001161D01*
X104067335Y-38011590D01*
X102862906Y-38011590D01*
X102852229Y-37968537D01*
X102852229Y-37528723D01*
X102861820Y-37480505D01*
X102889131Y-37439630D01*
X103551686Y-36777075D01*
X103603636Y-36745772D01*
X103664200Y-36742370D01*
X103719335Y-36767663D01*
X103756262Y-36815787D01*
X103766424Y-36875589D01*
X103747464Y-36933209D01*
X103713008Y-36988047D01*
X103706906Y-37000716D01*
X103655166Y-37148583D01*
X103652037Y-37162291D01*
X103634496Y-37317972D01*
X103634496Y-37332030D01*
X103652037Y-37487710D01*
X103655166Y-37501418D01*
X103706906Y-37649285D01*
X103707372Y-37650251D01*
X103710752Y-37653631D01*
X103720342Y-37647605D01*
X104042947Y-37325000D01*
X104755007Y-37325000D01*
X104761779Y-37336730D01*
X105072657Y-37647608D01*
X105082245Y-37653633D01*
X105085616Y-37650264D01*
X105086489Y-37648455D01*
X105132980Y-37596451D01*
X105200013Y-37577149D01*
X105267041Y-37596466D01*
X105313521Y-37648480D01*
X105314374Y-37650251D01*
X105317754Y-37653631D01*
X105327344Y-37647605D01*
X105638219Y-37336730D01*
X105644991Y-37325000D01*
X105638220Y-37313272D01*
X105327342Y-37002393D01*
X105317755Y-36996370D01*
X105314369Y-36999758D01*
X105313525Y-37001511D01*
X105267043Y-37053532D01*
X105200009Y-37072850D01*
X105132972Y-37053543D01*
X105086482Y-37001529D01*
X105085622Y-36999745D01*
X105082243Y-36996367D01*
X105072659Y-37002390D01*
X104761778Y-37313272D01*
X104755007Y-37325000D01*
X104042947Y-37325000D01*
X104719103Y-36648844D01*
X104725129Y-36639254D01*
X104721749Y-36635874D01*
X104720783Y-36635408D01*
X104572916Y-36583668D01*
X104559208Y-36580539D01*
X104403528Y-36562998D01*
X104389470Y-36562998D01*
X104233789Y-36580539D01*
X104220081Y-36583668D01*
X104072214Y-36635408D01*
X104059545Y-36641510D01*
X104004707Y-36675966D01*
X103947087Y-36694926D01*
X103887285Y-36684764D01*
X103839161Y-36647837D01*
X103813869Y-36592702D01*
X103817270Y-36532139D01*
X103848574Y-36480186D01*
X104581452Y-35747308D01*
X104628930Y-35717476D01*
X104684652Y-35711197D01*
X104737581Y-35729717D01*
G37*
G04 #@! TD.AperFunction*
G04 #@! TA.AperFunction,Conductor*
G36*
X109716730Y-41501198D02*
G01*
X109825424Y-41569495D01*
X109829888Y-41572300D01*
X109869539Y-41611951D01*
X109888060Y-41664879D01*
X109892986Y-41708595D01*
X109906783Y-41831047D01*
X109909118Y-41837720D01*
X109909119Y-41837724D01*
X109964619Y-41996335D01*
X109964621Y-41996339D01*
X109966957Y-42003015D01*
X109970719Y-42009003D01*
X109970721Y-42009006D01*
X110056130Y-42144934D01*
X110063889Y-42157281D01*
X110192719Y-42286111D01*
X110198713Y-42289877D01*
X110198714Y-42289878D01*
X110215240Y-42300262D01*
X110346985Y-42383043D01*
X110518953Y-42443217D01*
X110700000Y-42463616D01*
X110881047Y-42443217D01*
X111053015Y-42383043D01*
X111094222Y-42357150D01*
X111154424Y-42338023D01*
X111216348Y-42350521D01*
X111264424Y-42391503D01*
X111286566Y-42450667D01*
X111303843Y-42615054D01*
X111306458Y-42639928D01*
X111308495Y-42646200D01*
X111308497Y-42646205D01*
X111363430Y-42815271D01*
X111363433Y-42815278D01*
X111365473Y-42821556D01*
X111460960Y-42986944D01*
X111588747Y-43128866D01*
X111743248Y-43241118D01*
X111917712Y-43318794D01*
X112104513Y-43358500D01*
X112160406Y-43358500D01*
X112208624Y-43368091D01*
X112249501Y-43395405D01*
X113454595Y-44600500D01*
X113481909Y-44641377D01*
X113491500Y-44689595D01*
X113491500Y-46524741D01*
X113476899Y-46583617D01*
X113436478Y-46628847D01*
X113379607Y-46649949D01*
X113325980Y-46655991D01*
X113325977Y-46655991D01*
X113318953Y-46656783D01*
X113312280Y-46659117D01*
X113312275Y-46659119D01*
X113153664Y-46714619D01*
X113153656Y-46714622D01*
X113146985Y-46716957D01*
X113141000Y-46720717D01*
X113140993Y-46720721D01*
X112998714Y-46810121D01*
X112998707Y-46810126D01*
X112992719Y-46813889D01*
X112987714Y-46818893D01*
X112987710Y-46818897D01*
X112868897Y-46937710D01*
X112868893Y-46937714D01*
X112863889Y-46942719D01*
X112860126Y-46948707D01*
X112860121Y-46948714D01*
X112770721Y-47090993D01*
X112770717Y-47091000D01*
X112766957Y-47096985D01*
X112764622Y-47103656D01*
X112764619Y-47103664D01*
X112709119Y-47262275D01*
X112709117Y-47262280D01*
X112706783Y-47268953D01*
X112686384Y-47450000D01*
X112706783Y-47631047D01*
X112709118Y-47637720D01*
X112709119Y-47637724D01*
X112734604Y-47710556D01*
X112739478Y-47775596D01*
X112711180Y-47834359D01*
X112657291Y-47871100D01*
X112565914Y-47903074D01*
X112565911Y-47903075D01*
X112559239Y-47905410D01*
X112553256Y-47909169D01*
X112553242Y-47909176D01*
X112513803Y-47933957D01*
X112460875Y-47952477D01*
X112405153Y-47946198D01*
X112357674Y-47916364D01*
X111945405Y-47504095D01*
X111918091Y-47463218D01*
X111908500Y-47415000D01*
X111908500Y-46103768D01*
X111909027Y-46092584D01*
X111910702Y-46085092D01*
X111908561Y-46017001D01*
X111908500Y-46013044D01*
X111908500Y-45989109D01*
X111908500Y-45985144D01*
X111907995Y-45981152D01*
X111907062Y-45969305D01*
X111905674Y-45925111D01*
X111900017Y-45905642D01*
X111896013Y-45886302D01*
X111893474Y-45866203D01*
X111877200Y-45825099D01*
X111873356Y-45813872D01*
X111863230Y-45779017D01*
X111863229Y-45779016D01*
X111861019Y-45771407D01*
X111850703Y-45753964D01*
X111842005Y-45736209D01*
X111834552Y-45717383D01*
X111808561Y-45681609D01*
X111802055Y-45671705D01*
X111779542Y-45633638D01*
X111765217Y-45619313D01*
X111752382Y-45604286D01*
X111740472Y-45587893D01*
X111734367Y-45582842D01*
X111734360Y-45582835D01*
X111706394Y-45559700D01*
X111697615Y-45551711D01*
X109433016Y-43287111D01*
X109405702Y-43246234D01*
X109396111Y-43198016D01*
X109396111Y-41628371D01*
X109410713Y-41569495D01*
X109451133Y-41524265D01*
X109508002Y-41503163D01*
X109595730Y-41493279D01*
X109608079Y-41488957D01*
X109663801Y-41482678D01*
X109716730Y-41501198D01*
G37*
G04 #@! TD.AperFunction*
G04 #@! TA.AperFunction,Conductor*
G36*
X114241802Y-34625144D02*
G01*
X116657432Y-37040774D01*
X116669399Y-37054620D01*
X116683870Y-37074058D01*
X116689488Y-37078772D01*
X116689489Y-37078773D01*
X116722209Y-37106228D01*
X116730313Y-37113655D01*
X116734238Y-37117580D01*
X116758799Y-37137000D01*
X116761606Y-37139286D01*
X116819699Y-37188032D01*
X116826266Y-37191330D01*
X116829070Y-37193174D01*
X116829434Y-37193437D01*
X116829801Y-37193642D01*
X116832682Y-37195419D01*
X116838434Y-37199967D01*
X116900119Y-37228731D01*
X116907125Y-37231998D01*
X116910417Y-37233591D01*
X116978151Y-37267609D01*
X116985290Y-37269300D01*
X116988443Y-37270448D01*
X116988854Y-37270618D01*
X116989280Y-37270739D01*
X116992473Y-37271797D01*
X116999133Y-37274903D01*
X117073417Y-37290241D01*
X117076969Y-37291029D01*
X117150683Y-37308500D01*
X117152235Y-37308500D01*
X117188635Y-37319110D01*
X117222824Y-37343423D01*
X118654595Y-38775194D01*
X118681909Y-38816071D01*
X118691500Y-38864289D01*
X118691500Y-40635558D01*
X118690170Y-40653820D01*
X118687722Y-40670528D01*
X118687721Y-40670533D01*
X118686659Y-40677789D01*
X118687298Y-40685094D01*
X118687298Y-40685098D01*
X118691021Y-40727646D01*
X118691500Y-40738628D01*
X118691500Y-40744180D01*
X118691924Y-40747815D01*
X118691926Y-40747834D01*
X118695135Y-40775291D01*
X118695507Y-40778931D01*
X118698994Y-40818780D01*
X118702113Y-40854426D01*
X118704421Y-40861393D01*
X118705106Y-40864711D01*
X118705173Y-40865129D01*
X118705283Y-40865516D01*
X118706069Y-40868833D01*
X118706921Y-40876113D01*
X118732862Y-40947388D01*
X118734047Y-40950798D01*
X118757886Y-41022738D01*
X118761737Y-41028982D01*
X118763160Y-41032033D01*
X118763329Y-41032440D01*
X118763530Y-41032801D01*
X118765056Y-41035840D01*
X118767565Y-41042732D01*
X118771595Y-41048860D01*
X118771596Y-41048861D01*
X118809232Y-41106083D01*
X118811202Y-41109176D01*
X118847115Y-41167402D01*
X118847117Y-41167405D01*
X118850970Y-41173651D01*
X118856161Y-41178842D01*
X118858244Y-41181476D01*
X118858505Y-41181838D01*
X118858784Y-41182142D01*
X118860965Y-41184742D01*
X118864999Y-41190874D01*
X118872512Y-41197962D01*
X118920155Y-41242911D01*
X118922784Y-41245465D01*
X119253724Y-41576405D01*
X119284462Y-41626564D01*
X119289078Y-41685211D01*
X119266565Y-41739561D01*
X119221832Y-41777767D01*
X119164629Y-41791500D01*
X112880224Y-41791500D01*
X112841288Y-41785333D01*
X112806163Y-41767436D01*
X112662093Y-41662762D01*
X112662089Y-41662760D01*
X112656752Y-41658882D01*
X112482288Y-41581206D01*
X112475832Y-41579833D01*
X112475830Y-41579833D01*
X112373820Y-41558150D01*
X112316127Y-41528916D01*
X112280538Y-41474913D01*
X112276429Y-41410367D01*
X112304883Y-41352287D01*
X112358397Y-41315975D01*
X112452515Y-41283043D01*
X112606781Y-41186111D01*
X112735611Y-41057281D01*
X112832543Y-40903015D01*
X112892717Y-40731047D01*
X112913116Y-40550000D01*
X112892717Y-40368953D01*
X112875244Y-40319020D01*
X112871333Y-40249368D01*
X112905078Y-40188312D01*
X112936111Y-40157281D01*
X113033043Y-40003015D01*
X113093217Y-39831047D01*
X113113616Y-39650000D01*
X113093217Y-39468953D01*
X113033043Y-39296985D01*
X112956809Y-39175660D01*
X112939878Y-39148714D01*
X112939877Y-39148713D01*
X112936111Y-39142719D01*
X112859814Y-39066422D01*
X112831615Y-39023351D01*
X112822998Y-38972596D01*
X112833398Y-38930692D01*
X112832543Y-38930393D01*
X112852269Y-38874018D01*
X112892717Y-38758425D01*
X112913116Y-38577378D01*
X112892717Y-38396331D01*
X112832543Y-38224363D01*
X112798598Y-38170340D01*
X112739378Y-38076092D01*
X112739377Y-38076091D01*
X112735611Y-38070097D01*
X112606781Y-37941267D01*
X112600787Y-37937501D01*
X112600785Y-37937499D01*
X112458506Y-37848099D01*
X112458503Y-37848097D01*
X112452515Y-37844335D01*
X112445839Y-37841999D01*
X112445835Y-37841997D01*
X112287224Y-37786497D01*
X112287220Y-37786496D01*
X112280547Y-37784161D01*
X112273520Y-37783369D01*
X112273519Y-37783369D01*
X112220392Y-37777383D01*
X112163521Y-37756281D01*
X112123101Y-37711051D01*
X112108500Y-37652175D01*
X112108500Y-37582056D01*
X112109059Y-37570200D01*
X112109059Y-37570196D01*
X112110788Y-37562463D01*
X112109340Y-37516393D01*
X112122002Y-37457259D01*
X112160760Y-37410834D01*
X112216685Y-37387816D01*
X112276892Y-37393507D01*
X112418953Y-37443217D01*
X112600000Y-37463616D01*
X112781047Y-37443217D01*
X112953015Y-37383043D01*
X113107281Y-37286111D01*
X113236111Y-37157281D01*
X113333043Y-37003015D01*
X113393217Y-36831047D01*
X113413616Y-36650000D01*
X113393217Y-36468953D01*
X113333043Y-36296985D01*
X113266373Y-36190880D01*
X113239878Y-36148714D01*
X113239877Y-36148713D01*
X113236111Y-36142719D01*
X113107281Y-36013889D01*
X113101287Y-36010123D01*
X113101285Y-36010121D01*
X112959006Y-35920721D01*
X112959003Y-35920719D01*
X112953015Y-35916957D01*
X112946339Y-35914621D01*
X112946335Y-35914619D01*
X112787724Y-35859119D01*
X112787720Y-35859118D01*
X112781047Y-35856783D01*
X112774020Y-35855991D01*
X112774019Y-35855991D01*
X112644718Y-35841422D01*
X112580264Y-35814723D01*
X112539895Y-35757825D01*
X112535987Y-35688170D01*
X112569737Y-35627113D01*
X112570869Y-35625981D01*
X112584666Y-35612185D01*
X112587144Y-35608989D01*
X112594839Y-35599978D01*
X112625117Y-35567736D01*
X112634879Y-35549977D01*
X112645726Y-35533465D01*
X112658145Y-35517456D01*
X112675710Y-35476861D01*
X112680919Y-35466229D01*
X112702226Y-35427475D01*
X112707264Y-35407849D01*
X112713665Y-35389152D01*
X112721712Y-35370560D01*
X112728627Y-35326892D01*
X112731035Y-35315268D01*
X112731663Y-35312824D01*
X112742031Y-35272445D01*
X112742031Y-35252191D01*
X112743582Y-35232480D01*
X112745065Y-35223116D01*
X112746751Y-35212472D01*
X112742589Y-35168453D01*
X112742031Y-35156596D01*
X112742031Y-34827122D01*
X112760598Y-34761287D01*
X112810828Y-34714855D01*
X112877916Y-34701510D01*
X112942091Y-34725186D01*
X112962314Y-34739878D01*
X112980949Y-34753417D01*
X113155413Y-34831093D01*
X113342214Y-34870799D01*
X113526585Y-34870799D01*
X113533188Y-34870799D01*
X113719989Y-34831093D01*
X113894453Y-34753417D01*
X114048954Y-34641165D01*
X114059067Y-34629932D01*
X114115864Y-34593746D01*
X114183187Y-34591981D01*
X114241802Y-34625144D01*
G37*
G04 #@! TD.AperFunction*
G04 #@! TA.AperFunction,Conductor*
G36*
X110745169Y-33219886D02*
G01*
X110797187Y-33266372D01*
X110816500Y-33333408D01*
X110816500Y-33769289D01*
X110806909Y-33817507D01*
X110779595Y-33858384D01*
X109608384Y-35029595D01*
X109567507Y-35056909D01*
X109519289Y-35066500D01*
X109044678Y-35066500D01*
X108987475Y-35052767D01*
X108942742Y-35014561D01*
X108920229Y-34960211D01*
X108924845Y-34901564D01*
X108955583Y-34851405D01*
X110559757Y-33247231D01*
X110600634Y-33219917D01*
X110646905Y-33210713D01*
X110650497Y-33211118D01*
X110676392Y-33208200D01*
X110745169Y-33219886D01*
G37*
G04 #@! TD.AperFunction*
M02*
