G04 #@! TF.GenerationSoftware,KiCad,Pcbnew,(7.0.0)*
G04 #@! TF.CreationDate,2023-05-25T13:49:03-05:00*
G04 #@! TF.ProjectId,Emrick,456d7269-636b-42e6-9b69-6361645f7063,3*
G04 #@! TF.SameCoordinates,Original*
G04 #@! TF.FileFunction,Paste,Top*
G04 #@! TF.FilePolarity,Positive*
%FSLAX46Y46*%
G04 Gerber Fmt 4.6, Leading zero omitted, Abs format (unit mm)*
G04 Created by KiCad (PCBNEW (7.0.0)) date 2023-05-25 13:49:03*
%MOMM*%
%LPD*%
G01*
G04 APERTURE LIST*
G04 Aperture macros list*
%AMRoundRect*
0 Rectangle with rounded corners*
0 $1 Rounding radius*
0 $2 $3 $4 $5 $6 $7 $8 $9 X,Y pos of 4 corners*
0 Add a 4 corners polygon primitive as box body*
4,1,4,$2,$3,$4,$5,$6,$7,$8,$9,$2,$3,0*
0 Add four circle primitives for the rounded corners*
1,1,$1+$1,$2,$3*
1,1,$1+$1,$4,$5*
1,1,$1+$1,$6,$7*
1,1,$1+$1,$8,$9*
0 Add four rect primitives between the rounded corners*
20,1,$1+$1,$2,$3,$4,$5,0*
20,1,$1+$1,$4,$5,$6,$7,0*
20,1,$1+$1,$6,$7,$8,$9,0*
20,1,$1+$1,$8,$9,$2,$3,0*%
G04 Aperture macros list end*
%ADD10C,0.100000*%
%ADD11RoundRect,0.135000X0.135000X0.185000X-0.135000X0.185000X-0.135000X-0.185000X0.135000X-0.185000X0*%
%ADD12RoundRect,0.135000X-0.135000X-0.185000X0.135000X-0.185000X0.135000X0.185000X-0.135000X0.185000X0*%
%ADD13R,1.600200X3.505200*%
%ADD14R,0.990600X3.505200*%
%ADD15RoundRect,0.140000X-0.170000X0.140000X-0.170000X-0.140000X0.170000X-0.140000X0.170000X0.140000X0*%
%ADD16R,1.200000X1.400000*%
%ADD17R,2.000000X1.200000*%
%ADD18RoundRect,0.147500X-0.172500X0.147500X-0.172500X-0.147500X0.172500X-0.147500X0.172500X0.147500X0*%
%ADD19RoundRect,0.140000X0.140000X0.170000X-0.140000X0.170000X-0.140000X-0.170000X0.140000X-0.170000X0*%
%ADD20RoundRect,0.225000X-0.225000X-0.250000X0.225000X-0.250000X0.225000X0.250000X-0.225000X0.250000X0*%
%ADD21RoundRect,0.140000X-0.140000X-0.170000X0.140000X-0.170000X0.140000X0.170000X-0.140000X0.170000X0*%
%ADD22RoundRect,0.135000X0.185000X-0.135000X0.185000X0.135000X-0.185000X0.135000X-0.185000X-0.135000X0*%
%ADD23RoundRect,0.140000X0.170000X-0.140000X0.170000X0.140000X-0.170000X0.140000X-0.170000X-0.140000X0*%
%ADD24R,0.600000X0.700000*%
%ADD25R,1.000000X0.700000*%
%ADD26RoundRect,0.147500X0.172500X-0.147500X0.172500X0.147500X-0.172500X0.147500X-0.172500X-0.147500X0*%
%ADD27R,0.965200X0.254000*%
%ADD28R,0.254000X0.965200*%
%ADD29R,0.355600X1.676400*%
%ADD30O,0.599999X0.240000*%
%ADD31O,0.240000X0.599999*%
%ADD32R,1.800000X1.000000*%
%ADD33R,2.200000X1.050000*%
%ADD34R,1.050000X1.000000*%
%ADD35RoundRect,0.225000X0.250000X-0.225000X0.250000X0.225000X-0.250000X0.225000X-0.250000X-0.225000X0*%
%ADD36RoundRect,0.225000X0.225000X0.250000X-0.225000X0.250000X-0.225000X-0.250000X0.225000X-0.250000X0*%
%ADD37R,1.150000X0.300000*%
%ADD38RoundRect,0.135000X-0.185000X0.135000X-0.185000X-0.135000X0.185000X-0.135000X0.185000X0.135000X0*%
%ADD39R,1.701800X0.304800*%
%ADD40R,0.254000X0.812800*%
%ADD41RoundRect,0.147500X-0.147500X-0.172500X0.147500X-0.172500X0.147500X0.172500X-0.147500X0.172500X0*%
%ADD42RoundRect,0.200000X-0.275000X0.200000X-0.275000X-0.200000X0.275000X-0.200000X0.275000X0.200000X0*%
G04 APERTURE END LIST*
G36*
X117776400Y-39926400D02*
G01*
X116300000Y-39926400D01*
X116300000Y-38450000D01*
X117776400Y-38450000D01*
X117776400Y-39926400D01*
G37*
D10*
X117776400Y-39926400D02*
X116300000Y-39926400D01*
X116300000Y-38450000D01*
X117776400Y-38450000D01*
X117776400Y-39926400D01*
G36*
X117776400Y-38250000D02*
G01*
X116300000Y-38250000D01*
X116300000Y-36773600D01*
X117776400Y-36773600D01*
X117776400Y-38250000D01*
G37*
X117776400Y-38250000D02*
X116300000Y-38250000D01*
X116300000Y-36773600D01*
X117776400Y-36773600D01*
X117776400Y-38250000D01*
G36*
X116100000Y-39926400D02*
G01*
X114623600Y-39926400D01*
X114623600Y-38450000D01*
X116100000Y-38450000D01*
X116100000Y-39926400D01*
G37*
X116100000Y-39926400D02*
X114623600Y-39926400D01*
X114623600Y-38450000D01*
X116100000Y-38450000D01*
X116100000Y-39926400D01*
G36*
X116100000Y-38250000D02*
G01*
X114623600Y-38250000D01*
X114623600Y-36773600D01*
X116100000Y-36773600D01*
X116100000Y-38250000D01*
G37*
X116100000Y-38250000D02*
X114623600Y-38250000D01*
X114623600Y-36773600D01*
X116100000Y-36773600D01*
X116100000Y-38250000D01*
G36*
X91874919Y-28690108D02*
G01*
X91074704Y-28690108D01*
X91074704Y-28459890D01*
X91874919Y-28459890D01*
X91874919Y-28690108D01*
G37*
X91874919Y-28690108D02*
X91074704Y-28690108D01*
X91074704Y-28459890D01*
X91874919Y-28459890D01*
X91874919Y-28690108D01*
G36*
X91874919Y-29190107D02*
G01*
X91074704Y-29190107D01*
X91074704Y-28959892D01*
X91874919Y-28959892D01*
X91874919Y-29190107D01*
G37*
X91874919Y-29190107D02*
X91074704Y-29190107D01*
X91074704Y-28959892D01*
X91874919Y-28959892D01*
X91874919Y-29190107D01*
G36*
X91874919Y-29690106D02*
G01*
X91074704Y-29690106D01*
X91074704Y-29459891D01*
X91874919Y-29459891D01*
X91874919Y-29690106D01*
G37*
X91874919Y-29690106D02*
X91074704Y-29690106D01*
X91074704Y-29459891D01*
X91874919Y-29459891D01*
X91874919Y-29690106D01*
G36*
X91874919Y-30190108D02*
G01*
X91074704Y-30190108D01*
X91074704Y-29959890D01*
X91874919Y-29959890D01*
X91874919Y-30190108D01*
G37*
X91874919Y-30190108D02*
X91074704Y-30190108D01*
X91074704Y-29959890D01*
X91874919Y-29959890D01*
X91874919Y-30190108D01*
G36*
X92314730Y-28250107D02*
G01*
X92084514Y-28250107D01*
X92084514Y-27449892D01*
X92314730Y-27449892D01*
X92314730Y-28250107D01*
G37*
X92314730Y-28250107D02*
X92084514Y-28250107D01*
X92084514Y-27449892D01*
X92314730Y-27449892D01*
X92314730Y-28250107D01*
G36*
X92314730Y-31200106D02*
G01*
X92084514Y-31200106D01*
X92084514Y-30399891D01*
X92314730Y-30399891D01*
X92314730Y-31200106D01*
G37*
X92314730Y-31200106D02*
X92084514Y-31200106D01*
X92084514Y-30399891D01*
X92314730Y-30399891D01*
X92314730Y-31200106D01*
G36*
X92814856Y-28250107D02*
G01*
X92584640Y-28250107D01*
X92584640Y-27449892D01*
X92814856Y-27449892D01*
X92814856Y-28250107D01*
G37*
X92814856Y-28250107D02*
X92584640Y-28250107D01*
X92584640Y-27449892D01*
X92814856Y-27449892D01*
X92814856Y-28250107D01*
G36*
X92814856Y-31200106D02*
G01*
X92584640Y-31200106D01*
X92584640Y-30399891D01*
X92814856Y-30399891D01*
X92814856Y-31200106D01*
G37*
X92814856Y-31200106D02*
X92584640Y-31200106D01*
X92584640Y-30399891D01*
X92814856Y-30399891D01*
X92814856Y-31200106D01*
G36*
X93314982Y-28250107D02*
G01*
X93084766Y-28250107D01*
X93084766Y-27449892D01*
X93314982Y-27449892D01*
X93314982Y-28250107D01*
G37*
X93314982Y-28250107D02*
X93084766Y-28250107D01*
X93084766Y-27449892D01*
X93314982Y-27449892D01*
X93314982Y-28250107D01*
G36*
X93314982Y-31200106D02*
G01*
X93084766Y-31200106D01*
X93084766Y-30399891D01*
X93314982Y-30399891D01*
X93314982Y-31200106D01*
G37*
X93314982Y-31200106D02*
X93084766Y-31200106D01*
X93084766Y-30399891D01*
X93314982Y-30399891D01*
X93314982Y-31200106D01*
G36*
X93815108Y-28250107D02*
G01*
X93584892Y-28250107D01*
X93584892Y-27449892D01*
X93815108Y-27449892D01*
X93815108Y-28250107D01*
G37*
X93815108Y-28250107D02*
X93584892Y-28250107D01*
X93584892Y-27449892D01*
X93815108Y-27449892D01*
X93815108Y-28250107D01*
G36*
X93815108Y-31200106D02*
G01*
X93584892Y-31200106D01*
X93584892Y-30399891D01*
X93815108Y-30399891D01*
X93815108Y-31200106D01*
G37*
X93815108Y-31200106D02*
X93584892Y-31200106D01*
X93584892Y-30399891D01*
X93815108Y-30399891D01*
X93815108Y-31200106D01*
G36*
X94824918Y-28690108D02*
G01*
X94024703Y-28690108D01*
X94024703Y-28459890D01*
X94824918Y-28459890D01*
X94824918Y-28690108D01*
G37*
X94824918Y-28690108D02*
X94024703Y-28690108D01*
X94024703Y-28459890D01*
X94824918Y-28459890D01*
X94824918Y-28690108D01*
G36*
X94824918Y-29190107D02*
G01*
X94024703Y-29190107D01*
X94024703Y-28959892D01*
X94824918Y-28959892D01*
X94824918Y-29190107D01*
G37*
X94824918Y-29190107D02*
X94024703Y-29190107D01*
X94024703Y-28959892D01*
X94824918Y-28959892D01*
X94824918Y-29190107D01*
G36*
X94824918Y-29690106D02*
G01*
X94024703Y-29690106D01*
X94024703Y-29459891D01*
X94824918Y-29459891D01*
X94824918Y-29690106D01*
G37*
X94824918Y-29690106D02*
X94024703Y-29690106D01*
X94024703Y-29459891D01*
X94824918Y-29459891D01*
X94824918Y-29690106D01*
G36*
X94824918Y-30190108D02*
G01*
X94024703Y-30190108D01*
X94024703Y-29959890D01*
X94824918Y-29959890D01*
X94824918Y-30190108D01*
G37*
X94824918Y-30190108D02*
X94024703Y-30190108D01*
X94024703Y-29959890D01*
X94824918Y-29959890D01*
X94824918Y-30190108D01*
G36*
X92456111Y-28689878D02*
G01*
X92314690Y-28831299D01*
X92174741Y-28831299D01*
X92174741Y-28549929D01*
X92456111Y-28549929D01*
X92456111Y-28689878D01*
G37*
X92456111Y-28689878D02*
X92314690Y-28831299D01*
X92174741Y-28831299D01*
X92174741Y-28549929D01*
X92456111Y-28549929D01*
X92456111Y-28689878D01*
G36*
X92456111Y-29960120D02*
G01*
X92456111Y-30100069D01*
X92174741Y-30100069D01*
X92174741Y-29818699D01*
X92314690Y-29818699D01*
X92456111Y-29960120D01*
G37*
X92456111Y-29960120D02*
X92456111Y-30100069D01*
X92174741Y-30100069D01*
X92174741Y-29818699D01*
X92314690Y-29818699D01*
X92456111Y-29960120D01*
G36*
X93724881Y-28831299D02*
G01*
X93584932Y-28831299D01*
X93443511Y-28689878D01*
X93443511Y-28549929D01*
X93724881Y-28549929D01*
X93724881Y-28831299D01*
G37*
X93724881Y-28831299D02*
X93584932Y-28831299D01*
X93443511Y-28689878D01*
X93443511Y-28549929D01*
X93724881Y-28549929D01*
X93724881Y-28831299D01*
G36*
X93724881Y-30100069D02*
G01*
X93443511Y-30100069D01*
X93443511Y-29960120D01*
X93584932Y-29818699D01*
X93724881Y-29818699D01*
X93724881Y-30100069D01*
G37*
X93724881Y-30100069D02*
X93443511Y-30100069D01*
X93443511Y-29960120D01*
X93584932Y-29818699D01*
X93724881Y-29818699D01*
X93724881Y-30100069D01*
G36*
X92456111Y-29172720D02*
G01*
X92456111Y-29477278D01*
X92314690Y-29618699D01*
X92174741Y-29618699D01*
X92174741Y-29031299D01*
X92314690Y-29031299D01*
X92456111Y-29172720D01*
G37*
X92456111Y-29172720D02*
X92456111Y-29477278D01*
X92314690Y-29618699D01*
X92174741Y-29618699D01*
X92174741Y-29031299D01*
X92314690Y-29031299D01*
X92456111Y-29172720D01*
G36*
X93243511Y-28689878D02*
G01*
X93102090Y-28831299D01*
X92797532Y-28831299D01*
X92656111Y-28689878D01*
X92656111Y-28549929D01*
X93243511Y-28549929D01*
X93243511Y-28689878D01*
G37*
X93243511Y-28689878D02*
X93102090Y-28831299D01*
X92797532Y-28831299D01*
X92656111Y-28689878D01*
X92656111Y-28549929D01*
X93243511Y-28549929D01*
X93243511Y-28689878D01*
G36*
X93243511Y-29960120D02*
G01*
X93243511Y-30100069D01*
X92656111Y-30100069D01*
X92656111Y-29960120D01*
X92797532Y-29818699D01*
X93102090Y-29818699D01*
X93243511Y-29960120D01*
G37*
X93243511Y-29960120D02*
X93243511Y-30100069D01*
X92656111Y-30100069D01*
X92656111Y-29960120D01*
X92797532Y-29818699D01*
X93102090Y-29818699D01*
X93243511Y-29960120D01*
G36*
X93724881Y-29618699D02*
G01*
X93584932Y-29618699D01*
X93443511Y-29477278D01*
X93443511Y-29172720D01*
X93584932Y-29031299D01*
X93724881Y-29031299D01*
X93724881Y-29618699D01*
G37*
X93724881Y-29618699D02*
X93584932Y-29618699D01*
X93443511Y-29477278D01*
X93443511Y-29172720D01*
X93584932Y-29031299D01*
X93724881Y-29031299D01*
X93724881Y-29618699D01*
G36*
X93243511Y-29172720D02*
G01*
X93243511Y-29477278D01*
X93102090Y-29618699D01*
X92797532Y-29618699D01*
X92656111Y-29477278D01*
X92656111Y-29172720D01*
X92797532Y-29031299D01*
X93102090Y-29031299D01*
X93243511Y-29172720D01*
G37*
X93243511Y-29172720D02*
X93243511Y-29477278D01*
X93102090Y-29618699D01*
X92797532Y-29618699D01*
X92656111Y-29477278D01*
X92656111Y-29172720D01*
X92797532Y-29031299D01*
X93102090Y-29031299D01*
X93243511Y-29172720D01*
G36*
X107510498Y-38746499D02*
G01*
X106103498Y-38746499D01*
X106103498Y-37339499D01*
X107510498Y-37339499D01*
X107510498Y-38746499D01*
G37*
X107510498Y-38746499D02*
X106103498Y-38746499D01*
X106103498Y-37339499D01*
X107510498Y-37339499D01*
X107510498Y-38746499D01*
G36*
X105903499Y-38746499D02*
G01*
X104496499Y-38746499D01*
X104496499Y-37339499D01*
X105903499Y-37339499D01*
X105903499Y-38746499D01*
G37*
X105903499Y-38746499D02*
X104496499Y-38746499D01*
X104496499Y-37339499D01*
X105903499Y-37339499D01*
X105903499Y-38746499D01*
G36*
X104296499Y-38746499D02*
G01*
X102889499Y-38746499D01*
X102889499Y-37339499D01*
X104296499Y-37339499D01*
X104296499Y-38746499D01*
G37*
X104296499Y-38746499D02*
X102889499Y-38746499D01*
X102889499Y-37339499D01*
X104296499Y-37339499D01*
X104296499Y-38746499D01*
G36*
X107510498Y-40353499D02*
G01*
X106103498Y-40353499D01*
X106103498Y-38946499D01*
X107510498Y-38946499D01*
X107510498Y-40353499D01*
G37*
X107510498Y-40353499D02*
X106103498Y-40353499D01*
X106103498Y-38946499D01*
X107510498Y-38946499D01*
X107510498Y-40353499D01*
G36*
X105903499Y-40353499D02*
G01*
X104496499Y-40353499D01*
X104496499Y-38946499D01*
X105903499Y-38946499D01*
X105903499Y-40353499D01*
G37*
X105903499Y-40353499D02*
X104496499Y-40353499D01*
X104496499Y-38946499D01*
X105903499Y-38946499D01*
X105903499Y-40353499D01*
G36*
X104296499Y-40353499D02*
G01*
X102889499Y-40353499D01*
X102889499Y-38946499D01*
X104296499Y-38946499D01*
X104296499Y-40353499D01*
G37*
X104296499Y-40353499D02*
X102889499Y-40353499D01*
X102889499Y-38946499D01*
X104296499Y-38946499D01*
X104296499Y-40353499D01*
G36*
X107510498Y-41960498D02*
G01*
X106103498Y-41960498D01*
X106103498Y-40553498D01*
X107510498Y-40553498D01*
X107510498Y-41960498D01*
G37*
X107510498Y-41960498D02*
X106103498Y-41960498D01*
X106103498Y-40553498D01*
X107510498Y-40553498D01*
X107510498Y-41960498D01*
G36*
X105903499Y-41960498D02*
G01*
X104496499Y-41960498D01*
X104496499Y-40553498D01*
X105903499Y-40553498D01*
X105903499Y-41960498D01*
G37*
X105903499Y-41960498D02*
X104496499Y-41960498D01*
X104496499Y-40553498D01*
X105903499Y-40553498D01*
X105903499Y-41960498D01*
G36*
X104296499Y-41960498D02*
G01*
X102889499Y-41960498D01*
X102889499Y-40553498D01*
X104296499Y-40553498D01*
X104296499Y-41960498D01*
G37*
X104296499Y-41960498D02*
X102889499Y-41960498D01*
X102889499Y-40553498D01*
X104296499Y-40553498D01*
X104296499Y-41960498D01*
D11*
X82610000Y-33200000D03*
X83630000Y-33200000D03*
D12*
X83620000Y-32100000D03*
X82600000Y-32100000D03*
D13*
X106850000Y-19094698D03*
X96150001Y-19094698D03*
D14*
X98500001Y-24844700D03*
X100500000Y-24844700D03*
X102500001Y-24844700D03*
X104499999Y-24844700D03*
D15*
X84720000Y-33180000D03*
X84720000Y-32220000D03*
D16*
X95149999Y-42949999D03*
X95149999Y-40749999D03*
X96849999Y-40749999D03*
X96849999Y-42949999D03*
D11*
X110590000Y-19150000D03*
X111610000Y-19150000D03*
D17*
X106999999Y-31049999D03*
X106999999Y-34249999D03*
D18*
X102400000Y-53355000D03*
X102400000Y-52385000D03*
X101900000Y-47050000D03*
X101900000Y-46080000D03*
D19*
X98920000Y-39950000D03*
X99880000Y-39950000D03*
D20*
X103950000Y-62450000D03*
X102400000Y-62450000D03*
D15*
X99200000Y-44130000D03*
X99200000Y-43170000D03*
D21*
X110880000Y-43150000D03*
X109920000Y-43150000D03*
D22*
X100100000Y-36240000D03*
X100100000Y-37260000D03*
D21*
X121280000Y-35250000D03*
X120320000Y-35250000D03*
D23*
X93500000Y-25620000D03*
X93500000Y-26580000D03*
D11*
X120134000Y-39537000D03*
X121154000Y-39537000D03*
D24*
X112849999Y-22449999D03*
X110949999Y-22449999D03*
X110949999Y-20449999D03*
D25*
X112649999Y-20449999D03*
D22*
X83100000Y-36240000D03*
X83100000Y-37260000D03*
D26*
X121297000Y-49715000D03*
X121297000Y-50685000D03*
D15*
X103100000Y-47050000D03*
X103100000Y-46090000D03*
D27*
X118524099Y-39849999D03*
X118524099Y-39350000D03*
X118524099Y-38849998D03*
X118524099Y-38349999D03*
X118524099Y-37850000D03*
X118524099Y-37349998D03*
X118524099Y-36849999D03*
D28*
X117699999Y-36025899D03*
X117200000Y-36025899D03*
X116699998Y-36025899D03*
X116199999Y-36025899D03*
X115700000Y-36025899D03*
X115199998Y-36025899D03*
X114699999Y-36025899D03*
D27*
X113875899Y-36849999D03*
X113875899Y-37349998D03*
X113875899Y-37850000D03*
X113875899Y-38349999D03*
X113875899Y-38849998D03*
X113875899Y-39350000D03*
X113875899Y-39849999D03*
D28*
X114699999Y-40674099D03*
X115199998Y-40674099D03*
X115700000Y-40674099D03*
X116199999Y-40674099D03*
X116699998Y-40674099D03*
X117200000Y-40674099D03*
X117699999Y-40674099D03*
D11*
X117490000Y-34450000D03*
X118510000Y-34450000D03*
D29*
X87027501Y-35944849D03*
X87677500Y-35944849D03*
X88327501Y-35944849D03*
X88977500Y-35944849D03*
X89627501Y-35944849D03*
X90277500Y-35944849D03*
X90927501Y-35944849D03*
X91577500Y-35944849D03*
X92227501Y-35944849D03*
X92877499Y-35944849D03*
X92877497Y-41583649D03*
X92227498Y-41583649D03*
X91577497Y-41583649D03*
X90927498Y-41583649D03*
X90277497Y-41583649D03*
X89627498Y-41583649D03*
X88977500Y-41583649D03*
X88327498Y-41583649D03*
X87677500Y-41583649D03*
X87027499Y-41583649D03*
D23*
X104200000Y-34020000D03*
X104200000Y-34980000D03*
X90200000Y-28300000D03*
X90200000Y-29260000D03*
D15*
X98900000Y-37230000D03*
X98900000Y-36270000D03*
D21*
X111280000Y-38250000D03*
X110320000Y-38250000D03*
X101786000Y-45070000D03*
X100826000Y-45070000D03*
D30*
X101799998Y-42399999D03*
X101799998Y-41900000D03*
X101799998Y-41400001D03*
X101799998Y-40899999D03*
X101799998Y-40400000D03*
X101799998Y-39899999D03*
X101799998Y-39399999D03*
X101799998Y-38900001D03*
X101799998Y-38399999D03*
X101799998Y-37900000D03*
X101799998Y-37399998D03*
X101799998Y-36899999D03*
D31*
X102449999Y-36249998D03*
X102949998Y-36249998D03*
X103449997Y-36249998D03*
X103949999Y-36249998D03*
X104449998Y-36249998D03*
X104949999Y-36249998D03*
X105449999Y-36249998D03*
X105949997Y-36249998D03*
X106449999Y-36249998D03*
X106949998Y-36249998D03*
X107450000Y-36249998D03*
X107949999Y-36249998D03*
D30*
X108600000Y-36899999D03*
X108600000Y-37399998D03*
X108600000Y-37900000D03*
X108600000Y-38399999D03*
X108600000Y-38900001D03*
X108600000Y-39399999D03*
X108600000Y-39899999D03*
X108600000Y-40400000D03*
X108600000Y-40899999D03*
X108600000Y-41400001D03*
X108600000Y-41900000D03*
X108600000Y-42399999D03*
D31*
X107949999Y-43050000D03*
X107450000Y-43050000D03*
X106949998Y-43050000D03*
X106449999Y-43050000D03*
X105949997Y-43050000D03*
X105449999Y-43050000D03*
X104949999Y-43050000D03*
X104449998Y-43050000D03*
X103949999Y-43050000D03*
X103449997Y-43050000D03*
X102949998Y-43050000D03*
X102449999Y-43050000D03*
D19*
X98920000Y-41050000D03*
X99880000Y-41050000D03*
D32*
X108499999Y-47299999D03*
X108499999Y-49799999D03*
D11*
X120134000Y-40680000D03*
X121154000Y-40680000D03*
D33*
X119144999Y-57807499D03*
X119144999Y-54857499D03*
D34*
X117619999Y-56332499D03*
D15*
X113900000Y-50230000D03*
X113900000Y-49270000D03*
D19*
X101520000Y-51270000D03*
X102480000Y-51270000D03*
D35*
X102800000Y-33275000D03*
X102800000Y-34825000D03*
D36*
X100850000Y-61100000D03*
X102400000Y-61100000D03*
D15*
X102400000Y-64580000D03*
X102400000Y-63620000D03*
D37*
X115129999Y-25899999D03*
X115129999Y-25099999D03*
X115129999Y-24599999D03*
X115129999Y-23599999D03*
X115129999Y-22099999D03*
X115129999Y-21099999D03*
X115129999Y-20599999D03*
X115129999Y-19799999D03*
X115129999Y-19499999D03*
X115129999Y-20299999D03*
X115129999Y-21599999D03*
X115129999Y-22599999D03*
X115129999Y-23099999D03*
X115129999Y-24099999D03*
X115129999Y-25399999D03*
X115129999Y-26199999D03*
D23*
X110000000Y-36170000D03*
X110000000Y-37130000D03*
D21*
X103480000Y-48170000D03*
X102520000Y-48170000D03*
D19*
X102420000Y-55732500D03*
X103380000Y-55732500D03*
D22*
X119773000Y-48779000D03*
X119773000Y-49799000D03*
D21*
X103380000Y-54450000D03*
X102420000Y-54450000D03*
D26*
X84424000Y-41583000D03*
X84424000Y-42553000D03*
D23*
X102400000Y-56902500D03*
X102400000Y-57862500D03*
X110800000Y-49070000D03*
X110800000Y-50030000D03*
D21*
X121980000Y-38450000D03*
X121020000Y-38450000D03*
D38*
X109550000Y-20110000D03*
X109550000Y-19090000D03*
D21*
X121180000Y-36300000D03*
X120220000Y-36300000D03*
D15*
X110800000Y-48030000D03*
X110800000Y-47070000D03*
D18*
X102400000Y-59867500D03*
X102400000Y-58897500D03*
D21*
X121580000Y-37350000D03*
X120620000Y-37350000D03*
D15*
X104300000Y-47050000D03*
X104300000Y-46090000D03*
D12*
X114960000Y-53700000D03*
X113940000Y-53700000D03*
X96710000Y-27900000D03*
X95690000Y-27900000D03*
D18*
X102500000Y-50155000D03*
X102500000Y-49185000D03*
D39*
X115999999Y-50849999D03*
D40*
X115237999Y-49402199D03*
X115745999Y-49402199D03*
X116253999Y-49402199D03*
X116761999Y-49402199D03*
X116761999Y-52297799D03*
X116253999Y-52297799D03*
X115745999Y-52297799D03*
X115237999Y-52297799D03*
D22*
X112800000Y-24190000D03*
X112800000Y-25210000D03*
D26*
X84527000Y-36969000D03*
X84527000Y-37939000D03*
D22*
X82900000Y-40530000D03*
X82900000Y-41550000D03*
D11*
X120172000Y-41914000D03*
X121192000Y-41914000D03*
D41*
X102807000Y-44070000D03*
X101837000Y-44070000D03*
D42*
X101100000Y-34875000D03*
X101100000Y-33225000D03*
D41*
X104077000Y-45070000D03*
X103107000Y-45070000D03*
D36*
X102825000Y-31550000D03*
X104375000Y-31550000D03*
M02*
